# Blender 3.6.18
# www.blender.org
mtllib Mesh.144.mtl
o Bistro_Research_Exterior_Paris_Streetlight_Glass_01a___2__6321
v -33.243076 7.220443 -28.965483
v -33.142807 7.220443 -29.027687
v -33.181538 6.636999 -29.064041
v -33.258442 6.636999 -29.016333
v -33.361023 7.220443 -28.961748
v -33.348904 6.636999 -29.013470
v -33.465027 7.220443 -29.017492
v -33.428669 6.636999 -29.056223
v -33.527229 7.220443 -29.117767
v -33.476376 6.636999 -29.133133
v -33.530960 7.220443 -29.235710
v -33.479240 6.636999 -29.223587
v -33.475220 7.220443 -29.339714
v -33.436489 6.636999 -29.303354
v -33.374943 7.220443 -29.401913
v -33.359581 6.636999 -29.351063
v -33.257000 7.220443 -29.405645
v -33.269123 6.636999 -29.353926
v -33.152996 7.220443 -29.349903
v -33.189354 6.636999 -29.311174
v -33.090794 7.220443 -29.249630
v -33.141647 6.636999 -29.234264
v -33.087063 7.220443 -29.131691
v -33.138783 6.636999 -29.143810
v -33.204956 6.636999 -29.015947
v -33.166679 6.636999 -29.050095
v -33.123436 7.220443 -29.009502
v -33.173336 7.220443 -28.964979
v -33.235397 7.220443 -28.940050
v -33.252552 6.636999 -28.996826
v -33.302769 6.636999 -28.986391
v -33.300877 7.220443 -28.926445
v -33.367085 7.220443 -28.935888
v -33.353550 6.636999 -28.993633
v -33.402260 6.636999 -29.009708
v -33.430592 7.220443 -28.956842
v -33.483208 7.220443 -28.998119
v -33.442616 6.636999 -29.041367
v -33.476765 6.636999 -29.079639
v -33.527729 7.220443 -29.048027
v -33.552662 7.220443 -29.110085
v -33.495880 6.636999 -29.127235
v -33.506313 6.636999 -29.177458
v -33.566269 7.220443 -29.175562
v -33.556828 7.220443 -29.241770
v -33.499077 6.636999 -29.228233
v -33.483002 6.636999 -29.276947
v -33.535870 7.220443 -29.305275
v -33.494591 7.220443 -29.357895
v -33.451344 6.636999 -29.317301
v -33.413067 6.636999 -29.351450
v -33.444687 7.220443 -29.402416
v -33.382626 7.220443 -29.427347
v -33.365471 6.636999 -29.370569
v -33.315250 6.636999 -29.381002
v -33.317150 7.220443 -29.440948
v -33.250942 7.220443 -29.431511
v -33.264469 6.636999 -29.373764
v -33.215763 6.636999 -29.357689
v -33.187431 7.220443 -29.410555
v -33.134815 7.220443 -29.369274
v -33.175407 6.636999 -29.326031
v -33.141258 6.636999 -29.287758
v -33.090290 7.220443 -29.319374
v -33.065365 7.220443 -29.257317
v -33.122139 6.636999 -29.240160
v -33.111710 6.636999 -29.189939
v -33.051758 7.220443 -29.191833
v -33.061195 7.220443 -29.125628
v -33.118946 6.636999 -29.139160
v -33.135021 6.636999 -29.090448
v -33.082153 7.220443 -29.062119
vn -0.2915 0.0894 -0.9524
vn -0.7272 0.0895 -0.6806
vn -0.2916 0.0894 -0.9524
vn 0.2222 0.0897 -0.9709
vn 0.6763 0.0899 -0.7311
vn 0.6764 0.0899 -0.7311
vn 0.9516 0.0901 -0.2937
vn 0.9704 0.0904 0.2240
vn 0.7274 0.0904 0.6803
vn 0.7274 0.0904 0.6802
vn 0.2865 0.0903 0.9538
vn 0.2866 0.0903 0.9538
vn -0.2314 0.0902 0.9687
vn -0.6844 0.0900 0.7235
vn -0.9545 0.0896 0.2844
vn -0.9691 0.0895 -0.2297
vn -0.9692 0.0895 -0.2296
vn 0.5231 -0.1062 0.8456
vn 0.7225 -0.1066 0.6831
vn 0.2882 -0.1066 0.9516
vn 0.0275 -0.1061 0.9940
vn -0.2310 -0.1057 0.9672
vn -0.4742 -0.1058 0.8740
vn -0.6872 -0.1060 0.7186
vn -0.6872 -0.1060 0.7187
vn -0.8478 -0.1055 0.5196
vn -0.9523 -0.1058 0.2861
vn -0.9941 -0.1053 0.0273
vn -0.9677 -0.1049 -0.2293
vn -0.8758 -0.1051 -0.4710
vn -0.8759 -0.1051 -0.4710
vn -0.7224 -0.1054 -0.6834
vn -0.5253 -0.1051 -0.8444
vn -0.2933 -0.1056 -0.9502
vn -0.0350 -0.1052 -0.9938
vn -0.0351 -0.1052 -0.9938
vn 0.2219 -0.1051 -0.9694
vn 0.4649 -0.1055 -0.8790
vn 0.4649 -0.1055 -0.8791
vn 0.6792 -0.1060 -0.7263
vn 0.8422 -0.1057 -0.5288
vn 0.9494 -0.1064 -0.2954
vn 0.9494 -0.1063 -0.2954
vn 0.9937 -0.1061 -0.0354
vn 0.9689 -0.1059 0.2236
vn 0.8772 -0.1062 0.4681
vn 0.8773 -0.1062 0.4681
vt 0.092773 0.097168
vt 0.016220 0.097168
vt 0.016220 0.904419
vt 0.092773 0.904419
vt 0.172852 0.097168
vt 0.172852 0.904419
vt 0.252930 0.097168
vt 0.252930 0.904419
vt 0.333008 0.097168
vt 0.333008 0.904419
vt 0.413086 0.097168
vt 0.413086 0.904419
vt 0.493164 0.097168
vt 0.493164 0.904419
vt 0.573242 0.097168
vt 0.573242 0.904419
vt 0.653320 0.097168
vt 0.653320 0.904419
vt 0.733398 0.097168
vt 0.733398 0.904419
vt 0.813477 0.097168
vt 0.813477 0.904419
vt 0.893555 0.097168
vt 0.893555 0.904419
vt 0.984375 0.097168
vt 0.984375 0.904419
vt 0.054504 0.904419
vt 0.054504 0.097168
vt 0.132812 0.904419
vt 0.132812 0.097168
vt 0.212891 0.904419
vt 0.212891 0.097168
vt 0.292969 0.904419
vt 0.292969 0.097168
vt 0.373047 0.904419
vt 0.373047 0.097168
vt 0.453125 0.904419
vt 0.453125 0.097168
vt 0.533203 0.904419
vt 0.533203 0.097168
vt 0.613281 0.904419
vt 0.613281 0.097168
vt 0.693359 0.904419
vt 0.693359 0.097168
vt 0.773438 0.904419
vt 0.773438 0.097168
vt 0.853516 0.904419
vt 0.853516 0.097168
vt 0.938965 0.904419
vt 0.938965 0.097168
s 1
usemtl Emissive_StreetLight
f 1/1/1 2/2/2 3/3/2
f 3/3/2 4/4/3 1/1/1
f 5/5/4 1/1/1 4/4/3
f 4/4/3 6/6/4 5/5/4
f 7/7/5 5/5/4 6/6/4
f 6/6/4 8/8/6 7/7/5
f 9/9/7 7/7/5 8/8/6
f 8/8/6 10/10/7 9/9/7
f 11/11/8 9/9/7 10/10/7
f 10/10/7 12/12/8 11/11/8
f 13/13/9 11/11/8 12/12/8
f 12/12/8 14/14/10 13/13/9
f 15/15/11 13/13/9 14/14/10
f 14/14/10 16/16/12 15/15/11
f 17/17/13 15/15/11 16/16/12
f 16/16/12 18/18/13 17/17/13
f 19/19/14 17/17/13 18/18/13
f 18/18/13 20/20/14 19/19/14
f 21/21/15 19/19/14 20/20/14
f 20/20/14 22/22/15 21/21/15
f 23/23/16 21/21/15 22/22/15
f 22/22/15 24/24/17 23/23/16
f 2/25/2 23/23/16 24/24/17
f 24/24/17 3/26/2 2/25/2
f 25/27/18 26/3/19 27/2/19
f 27/2/19 28/28/18 25/27/18
f 25/27/18 28/28/18 29/1/20
f 29/1/20 30/4/20 25/27/18
f 31/29/21 30/4/20 29/1/20
f 29/1/20 32/30/21 31/29/21
f 31/29/21 32/30/21 33/5/22
f 33/5/22 34/6/22 31/29/21
f 35/31/23 34/6/22 33/5/22
f 33/5/22 36/32/23 35/31/23
f 35/31/23 36/32/23 37/7/24
f 37/7/24 38/8/25 35/31/23
f 39/33/26 38/8/25 37/7/24
f 37/7/24 40/34/26 39/33/26
f 39/33/26 40/34/26 41/9/27
f 41/9/27 42/10/27 39/33/26
f 43/35/28 42/10/27 41/9/27
f 41/9/27 44/36/28 43/35/28
f 43/35/28 44/36/28 45/11/29
f 45/11/29 46/12/29 43/35/28
f 47/37/30 46/12/29 45/11/29
f 45/11/29 48/38/31 47/37/30
f 47/37/30 48/38/31 49/13/32
f 49/13/32 50/14/32 47/37/30
f 51/39/33 50/14/32 49/13/32
f 49/13/32 52/40/33 51/39/33
f 51/39/33 52/40/33 53/15/34
f 53/15/34 54/16/34 51/39/33
f 55/41/35 54/16/34 53/15/34
f 53/15/34 56/42/36 55/41/35
f 55/41/35 56/42/36 57/17/37
f 57/17/37 58/18/37 55/41/35
f 59/43/38 58/18/37 57/17/37
f 57/17/37 60/44/39 59/43/38
f 59/43/38 60/44/39 61/19/40
f 61/19/40 62/20/40 59/43/38
f 63/45/41 62/20/40 61/19/40
f 61/19/40 64/46/41 63/45/41
f 63/45/41 64/46/41 65/21/42
f 65/21/42 66/22/43 63/45/41
f 67/47/44 66/22/43 65/21/42
f 65/21/42 68/48/44 67/47/44
f 67/47/44 68/48/44 69/23/45
f 69/23/45 70/24/45 67/47/44
f 71/49/46 70/24/45 69/23/45
f 69/23/45 72/50/47 71/49/46
f 71/49/46 72/50/47 27/25/19
f 27/25/19 26/26/19 71/49/46
