# Blender 3.6.18
# www.blender.org
mtllib Mesh.443.mtl
o Bistro_Research_Exterior_paris_building_11_5685
v -4.080177 11.600581 26.298115
v -4.101042 11.616581 26.306868
v -4.083832 11.585893 26.307053
v -3.721030 11.585906 25.419802
v -3.733416 11.616568 25.407822
v -3.724661 11.600568 25.428682
v -4.359715 11.217869 26.020271
v -4.476031 11.328505 26.010130
v -4.114543 11.217865 25.420691
v -4.208848 11.328506 25.356716
v -4.013000 11.112451 26.133898
v -4.241256 11.112469 26.040543
v -3.788433 11.112459 25.584709
v -4.016695 11.112477 25.491394
v -4.267313 11.124003 26.032694
v -4.040707 11.124013 25.478540
v -4.094994 12.352337 26.292053
v -3.739478 12.352323 25.422626
v -4.519188 12.352318 26.118591
v -4.157287 12.352324 25.251865
v -4.525347 11.616563 26.133358
v -4.525353 12.336318 26.133352
v -4.101048 12.336336 26.306864
v -4.080184 12.336336 26.298111
v -3.724668 12.336324 25.428682
v -4.151116 11.616568 25.237104
v -3.733422 12.336323 25.407818
v -4.151122 12.336324 25.237101
v -4.172098 12.336324 25.245811
v -4.533998 12.336318 26.112535
v -4.533992 11.600562 26.112541
v -4.153722 11.585906 25.242958
v -4.197511 11.339775 25.341257
v -3.761731 11.339777 25.519333
v -4.093672 11.217865 25.411921
v -3.771489 11.217865 25.543257
v -4.017402 11.127917 25.469284
v -3.780783 11.127894 25.565996
v -4.257140 11.127999 26.055487
v -4.020514 11.127980 26.152266
v -4.350963 11.217869 26.041138
v -4.028952 11.217869 26.172890
v -4.479290 11.339774 26.030365
v -4.043598 11.339775 26.208649
v -4.522754 11.585875 26.127563
v -4.172091 11.600568 25.245815
v -4.490083 11.355774 26.014589
v -4.216329 11.355775 25.344877
vn 0.5100 0.2096 0.8342
vn 0.0826 -0.0590 0.9948
vn 0.0513 0.0355 0.9981
vn 0.7336 0.0353 -0.6787
vn 0.7545 -0.0665 -0.6529
vn 0.9481 0.2085 -0.2400
vn -0.6574 -0.7041 -0.2684
vn -0.6494 -0.7116 -0.2683
vn -0.0039 -1.0000 -0.0039
vn -0.6676 -0.6910 -0.2772
vn -0.0039 1.0000 -0.0039
vn -0.3815 -0.0039 0.9243
vn 0.9271 -0.0039 0.3748
vn 0.3721 -0.0039 -0.9282
vn -0.2540 0.7541 -0.6057
vn -0.5279 0.4575 -0.7156
vn -0.6068 0.7556 0.2466
vn -0.8798 0.4575 0.1290
vn -0.8960 -0.1682 0.4109
vn -0.7807 -0.1059 0.6159
vn -0.7185 0.4594 0.5222
vn 0.8761 0.4597 -0.1453
vn 0.7117 0.4601 -0.5309
vn 0.3406 -0.4032 -0.8494
vn 0.3405 -0.4032 -0.8494
vn 0.3485 -0.3407 -0.8732
vn 0.3565 -0.3095 -0.8815
vn 0.3640 -0.2231 -0.9043
vn 0.3628 -0.2379 -0.9010
vn 0.3563 -0.2624 -0.8968
vn 0.3564 -0.2624 -0.8968
vn -0.3714 -0.2463 0.8952
vn -0.3651 -0.2944 0.8832
vn -0.3642 -0.2780 0.8889
vn -0.3562 -0.3719 0.8572
vn -0.3558 -0.3558 0.8642
vn -0.3497 -0.4048 0.8449
vn 0.5252 0.4620 0.7147
vn 0.2478 0.7592 0.6019
vn 0.1377 0.4602 0.8771
vn 0.5100 0.2095 0.8342
vn -0.5949 -0.5405 -0.5949
vn -0.4159 -0.4781 -0.7736
vn -0.2770 -0.6516 -0.7062
vn -0.2611 -0.6507 -0.7130
vn -0.2621 -0.8177 -0.5125
vn -0.0430 -0.7697 -0.6369
vn 0.2228 -0.7933 -0.5666
vn -0.0430 -0.7698 -0.6369
vn 0.2227 -0.7933 -0.5666
vn -0.0582 -0.8968 -0.4386
vn -0.5498 -0.8149 0.1833
vn -0.3556 -0.8949 0.2696
vn -0.2390 -0.7875 0.5681
vn -0.2389 -0.7875 0.5681
vn -0.4823 -0.7646 0.4274
vn -0.6780 -0.6702 0.3018
vn -0.6825 -0.6591 0.3159
vn -0.8302 -0.5574 -0.0039
vn -0.8341 -0.4973 0.2389
vn 0.6007 0.7577 -0.2552
vn -0.1367 0.4570 -0.8789
vn -0.3471 -0.1599 -0.9241
vn -0.1132 -0.1054 -0.9880
vn -0.1130 -0.2456 -0.9628
vn -0.7577 -0.2552 0.6006
vn -0.9224 -0.3775 0.0817
vn -0.5959 -0.3700 -0.7127
vn -0.9227 -0.0039 -0.3854
vn -0.9227 -0.0039 -0.3855
vt -0.885742 0.557861
vt -0.890625 0.562744
vt -0.888672 0.553223
vt -0.588867 0.553223
vt -0.586914 0.562744
vt -0.591797 0.557861
vt -0.838379 0.462402
vt -0.849121 0.427734
vt -0.635742 0.462402
vt -0.628418 0.427734
vt -0.830078 0.576172
vt -0.830078 0.499512
vt -0.644531 0.576172
vt -0.644531 0.499512
vt 1.831055 0.409180
vt 1.837891 0.438477
vt 1.643555 0.409180
vt 1.635742 0.438477
vt 1.885742 0.571289
vt 1.591797 0.571289
vt 1.885742 0.428223
vt 1.591797 0.430176
vt 0.427734 0.562744
vt 0.570801 0.562744
vt 0.427734 0.787598
vt 0.570801 0.787720
vt -0.885742 0.787720
vt -0.591797 0.787598
vt 0.428711 0.562744
vt 0.569824 0.562744
vt 0.428711 0.787598
vt 0.569824 0.787598
vt 1.591797 0.792603
vt 1.591797 0.787598
vt 1.885742 0.792603
vt 1.885742 0.787598
vt 1.885742 0.557861
vt 1.890625 0.562744
vt 1.890625 0.787598
vt 0.423828 0.557861
vt 0.423828 0.787598
vt 0.569824 0.553223
vt 0.423828 0.553223
vt 0.570801 0.476562
vt 0.423828 0.476562
vt 0.532227 0.438477
vt 0.423828 0.438477
vt 0.503418 0.410156
vt 0.423828 0.410156
vt 0.496094 0.410156
vt 0.575684 0.410156
vt 0.467285 0.438477
vt 0.575684 0.438477
vt 0.428955 0.476562
vt 0.575684 0.476562
vt 0.427734 0.553223
vt 0.575684 0.553223
vt 0.575684 0.787720
vt 0.570801 0.792603
vt 0.575684 0.557861
vt -0.622559 0.429199
vt -0.630859 0.467773
vt -0.644043 0.490723
vt -0.638184 0.496582
vt -0.638184 0.576172
vt -0.831055 0.490723
vt -0.836426 0.576172
vt -0.836426 0.496582
vt -0.843262 0.467773
vt -0.855469 0.429199
vt 1.885742 0.576172
vt 1.591797 0.576172
vt 1.586914 0.571289
vt 0.428711 0.792603
vt 0.569824 0.792603
vt 0.574707 0.787598
vt 0.574707 0.557861
vt 0.422852 0.557861
vt 1.890625 0.428223
vt 1.885742 0.423340
vt 1.890625 0.571289
vt 1.855469 0.476562
vt 1.888672 0.553223
vt 1.851562 0.481445
vt 1.848633 0.472656
vt 1.627930 0.472656
vt 1.625977 0.481445
vt 1.622070 0.476562
vt 1.588867 0.553223
vt 1.591797 0.557861
s 1
usemtl MASTER_Concrete_Plaster
f 1/1/1 2/2/2 3/3/3
f 4/4/4 5/5/5 6/6/6
f 7/7/7 8/8/8 9/9/7
f 8/8/8 10/10/8 9/9/7
f 11/11/9 12/12/9 13/13/9
f 12/12/9 14/14/9 13/13/9
f 15/15/10 7/16/7 16/17/10
f 7/16/7 9/18/7 16/17/10
f 17/19/11 18/20/11 19/21/11
f 18/20/11 20/22/11 19/21/11
f 21/23/12 2/24/12 22/25/12
f 2/24/12 23/26/12 22/25/12
f 1/1/13 6/6/13 24/27/13
f 6/6/13 25/28/13 24/27/13
f 5/29/14 26/30/14 27/31/14
f 26/30/14 28/32/14 27/31/14
f 20/33/15 29/34/16 19/35/17
f 29/34/16 30/36/18 19/35/17
f 31/37/19 21/38/20 30/36/18
f 21/38/20 22/39/21 30/36/18
f 6/40/6 5/29/5 25/41/22
f 5/29/5 27/31/23 25/41/22
f 32/42/24 4/43/25 33/44/26
f 4/43/25 34/45/27 33/44/26
f 33/44/26 34/45/27 35/46/28
f 34/45/27 36/47/29 35/46/28
f 35/46/28 36/47/29 37/48/30
f 36/47/29 38/49/31 37/48/30
f 39/50/32 40/51/32 41/52/33
f 40/51/32 42/53/34 41/52/33
f 41/52/33 42/53/34 43/54/35
f 42/53/34 44/55/36 43/54/35
f 43/54/35 44/55/36 45/56/37
f 44/55/36 3/57/37 45/56/37
f 24/58/38 17/59/39 23/26/40
f 1/60/41 24/58/38 23/26/40
f 2/24/2 1/60/41 23/26/40
f 10/10/42 33/61/43 9/9/44
f 33/61/43 35/62/45 9/9/44
f 9/9/44 35/62/45 16/63/46
f 35/62/45 37/64/47 16/63/46
f 38/65/48 13/13/48 37/64/49
f 13/13/50 14/14/51 37/64/47
f 37/64/47 14/14/51 16/63/46
f 15/66/52 16/63/46 14/14/51
f 12/12/53 15/66/52 14/14/51
f 11/11/54 40/67/54 12/12/53
f 40/67/55 39/68/56 12/12/53
f 15/66/52 12/12/53 39/68/56
f 15/66/52 39/68/56 7/7/57
f 39/68/56 41/69/58 7/7/57
f 7/7/57 41/69/58 8/8/59
f 41/69/58 43/70/60 8/8/59
f 17/19/39 24/71/38 18/20/61
f 24/71/38 25/72/22 18/20/61
f 27/73/23 18/20/61 25/72/22
f 18/74/61 27/31/23 20/75/15
f 27/31/23 28/32/62 20/75/15
f 29/76/16 20/75/15 28/32/62
f 46/77/63 29/76/16 28/32/62
f 26/30/64 46/77/63 28/32/62
f 46/77/63 26/30/64 32/42/65
f 4/43/4 32/42/65 26/30/64
f 5/29/5 4/43/4 26/30/64
f 45/56/66 21/23/20 31/78/19
f 21/23/20 45/56/66 2/24/2
f 45/56/66 3/57/3 2/24/2
f 22/79/21 19/21/17 30/80/18
f 19/21/17 22/79/21 17/19/39
f 22/79/21 23/81/40 17/19/39
f 43/82/60 45/83/66 31/37/19
f 47/84/67 43/82/60 31/37/19
f 43/82/60 47/84/67 8/85/59
f 10/86/42 8/85/59 47/84/67
f 48/87/68 10/86/42 47/84/67
f 48/87/68 33/88/43 10/86/42
f 32/89/65 33/88/43 48/87/68
f 46/90/63 32/89/65 48/87/68
f 47/84/69 31/37/70 48/87/69
f 31/37/70 46/90/69 48/87/69
f 46/90/69 31/37/70 29/34/69
f 31/37/70 30/36/69 29/34/69
