# Blender 3.6.18
# www.blender.org
mtllib Mesh.814.mtl
o Bistro_Research_Exterior_Paris_Building_01_paris_buildi_1cbefde
v -2.863081 4.306224 -3.469151
v -2.855039 4.304592 -3.472955
v -2.865851 4.314744 -3.467910
v -2.849767 4.311480 -3.475518
v -2.852536 4.320000 -3.474276
v -2.860579 4.321632 -3.470472
v -2.884521 4.314405 -3.507237
v -2.881751 4.305885 -3.508478
v -2.925824 4.313655 -3.594240
v -2.922794 4.305140 -3.594933
v -2.929101 4.312647 -3.612212
v -2.873709 4.304253 -3.512282
v -2.868437 4.311141 -3.514844
v -2.914231 4.303517 -3.597639
v -2.908698 4.310410 -3.599653
v -2.925746 4.304231 -3.611122
v -2.922826 4.310097 -3.630063
v -2.916533 4.302808 -3.610264
v -2.910676 4.309801 -3.610495
v -2.920262 4.302003 -3.626724
v -2.908244 4.306654 -3.642596
v -2.912631 4.301223 -3.621366
v -2.907564 4.308537 -3.619348
v -2.907486 4.298986 -3.637703
v -2.889164 4.303268 -3.645947
v -2.903469 4.299060 -3.629240
v -2.900208 4.306800 -3.625669
v -2.890754 4.296017 -3.640642
v -2.871229 4.300912 -3.639446
v -2.891433 4.296924 -3.631354
v -2.890521 4.305081 -3.627371
v -2.875065 4.293956 -3.634955
v -2.859284 4.300174 -3.625432
v -2.880233 4.295453 -3.627294
v -2.881567 4.303905 -3.624125
v -2.864296 4.293291 -3.622321
v -2.818089 4.300922 -3.538658
v -2.871817 4.294932 -3.617421
v -2.874326 4.303457 -3.615631
v -2.823361 4.294034 -3.536096
v -2.798610 4.301276 -3.497626
v -2.803882 4.294388 -3.495063
v -2.831403 4.295666 -3.532292
v -2.834173 4.304187 -3.531051
v -2.811924 4.296020 -3.491260
v -2.814694 4.304540 -3.490018
v -2.871206 4.319661 -3.513603
v -2.911728 4.318925 -3.598960
v -2.879248 4.321293 -3.509799
v -2.920291 4.320548 -3.596253
v -2.914031 4.318216 -3.611584
v -2.923244 4.319639 -3.612443
v -2.910128 4.316631 -3.622687
v -2.917759 4.317411 -3.628045
v -2.900966 4.314468 -3.630561
v -2.904984 4.314395 -3.639024
v -2.888931 4.312332 -3.632675
v -2.888252 4.311426 -3.641963
v -2.877731 4.310861 -3.628615
v -2.872562 4.309364 -3.636276
v -2.869315 4.310340 -3.618741
v -2.861793 4.308699 -3.623642
v -2.828901 4.311074 -3.533613
v -2.809422 4.311428 -3.492581
v -2.820859 4.309442 -3.537416
v -2.801379 4.309796 -3.496384
vn 0.4298 0.0040 0.9029
vn 0.4298 0.0039 0.9029
vn -0.8904 0.1765 0.4197
vn -0.5832 -0.7633 0.2779
vn -0.9400 0.1755 0.2925
vn 0.3011 -0.9425 -0.1447
vn -0.6367 -0.7383 0.2227
vn -0.9845 0.1451 -0.0980
vn 0.8845 -0.1847 -0.4285
vn 0.8845 -0.1848 -0.4285
vn 0.2921 -0.9541 -0.0662
vn 0.9356 -0.1840 -0.3014
vn -0.6751 -0.7375 0.0196
vn -0.8152 0.0819 -0.5734
vn 0.2694 -0.9564 0.1132
vn 0.9839 -0.1541 0.0909
vn -0.5811 -0.7759 -0.2456
vn -0.4331 -0.0117 -0.9013
vn 0.1995 -0.9272 0.3169
vn 0.8157 -0.0907 0.5714
vn -0.3714 -0.8249 -0.4261
vn 0.0662 -0.0974 -0.9930
vn 0.0352 -0.8883 0.4579
vn -0.0971 -0.8733 -0.4774
vn 0.5466 -0.1612 -0.8218
vn -0.1762 -0.8496 0.4972
vn -0.0746 0.0903 0.9931
vn 0.1680 -0.9101 -0.3789
vn 0.8219 -0.1848 -0.5388
vn -0.3794 -0.8252 0.4185
vn -0.5563 0.1539 0.8166
vn 0.2924 -0.9319 -0.2145
vn -0.5288 -0.7873 0.3172
vn -0.8291 0.1768 0.5305
vn 0.3012 -0.9425 -0.1447
vn -0.8903 0.1765 0.4197
vn 0.5802 0.7618 -0.2881
vn -0.3109 0.9404 0.1377
vn 0.5800 0.7852 -0.2170
vn -0.3108 0.9404 0.1377
vn -0.3667 0.9266 0.0828
vn 0.5642 0.8245 -0.0434
vn -0.4137 0.9022 -0.1221
vn 0.4926 0.8551 0.1616
vn -0.3172 0.8655 -0.3877
vn 0.3272 0.8949 0.3036
vn -0.1062 0.8144 -0.5705
vn 0.1063 0.9334 0.3426
vn 0.1684 0.7639 -0.6229
vn -0.0985 0.9573 0.2718
vn 0.4380 0.7300 -0.5247
vn -0.2473 0.9541 0.1688
vn 0.5719 0.7376 -0.3589
vt 1.164062 0.939484
vt 1.164062 0.818481
vt 1.164062 1.000000
vt 1.164062 0.757935
vt 0.919922 1.000000
vt 0.919922 0.939484
vt 0.378662 1.000000
vt 0.382080 0.939484
vt 0.279541 0.935425
vt 0.919922 0.818481
vt 0.919922 0.757935
vt 0.388916 0.818481
vt 0.392334 0.757935
vt 0.292725 0.881287
vt 0.203857 0.754150
vt 0.319092 0.773071
vt 0.332520 0.718994
vt 0.226685 0.722900
vt 0.175293 0.501709
vt 0.272217 0.660400
vt 0.294922 0.629150
vt 0.201538 0.501709
vt 0.204102 0.248047
vt 0.254150 0.501709
vt 0.280518 0.501709
vt 0.226807 0.279297
vt 0.280029 0.065430
vt 0.272461 0.341797
vt 0.295166 0.373047
vt 0.293457 0.119629
vt 0.380127 0.000000
vt 0.319824 0.227539
vt 0.333252 0.281738
vt 0.383545 0.060547
vt 0.919922 0.000488
vt 0.390381 0.181641
vt 0.393799 0.242188
vt 0.919922 0.060547
vt 1.174805 0.000000
vt 1.174805 0.060547
vt 0.919922 0.181641
vt 0.919922 0.242188
vt 1.174805 0.181641
vt 1.174805 0.242188
s 1
usemtl MASTER_Light_Bulb
f 1/1/1 2/2/2 3/3/2
f 2/2/2 4/4/2 3/3/2
f 4/4/2 5/2/1 3/3/2
f 5/2/1 6/1/2 3/3/2
f 3/3/3 7/5/3 1/1/4
f 7/5/3 8/6/4 1/1/4
f 7/5/3 9/7/5 8/6/4
f 1/1/4 8/6/4 2/2/6
f 9/7/5 10/8/7 8/6/4
f 9/7/5 11/9/8 10/8/7
f 8/6/4 12/10/6 2/2/6
f 8/6/4 10/8/7 12/10/6
f 2/2/6 12/10/6 4/4/9
f 12/10/6 13/11/10 4/4/9
f 12/10/6 14/12/11 13/11/10
f 10/8/7 14/12/11 12/10/6
f 14/12/11 15/13/12 13/11/10
f 11/9/8 16/14/13 10/8/7
f 10/8/7 16/14/13 14/12/11
f 11/9/8 17/15/14 16/14/13
f 14/12/11 18/16/15 15/13/12
f 16/14/13 18/16/15 14/12/11
f 18/16/15 19/17/16 15/13/12
f 17/15/14 20/18/17 16/14/13
f 16/14/13 20/18/17 18/16/15
f 17/15/14 21/19/18 20/18/17
f 18/16/15 22/20/19 19/17/16
f 20/18/17 22/20/19 18/16/15
f 22/20/19 23/21/20 19/17/16
f 21/19/18 24/22/21 20/18/17
f 20/18/17 24/22/21 22/20/19
f 21/19/18 25/23/22 24/22/21
f 22/20/19 26/24/23 23/21/20
f 24/22/21 26/24/23 22/20/19
f 26/24/23 27/25/1 23/21/20
f 25/23/22 28/26/24 24/22/21
f 24/22/21 28/26/24 26/24/23
f 25/23/22 29/27/25 28/26/24
f 26/24/23 30/28/26 27/25/1
f 28/26/24 30/28/26 26/24/23
f 30/28/26 31/29/27 27/25/1
f 29/27/25 32/30/28 28/26/24
f 28/26/24 32/30/28 30/28/26
f 29/27/25 33/31/29 32/30/28
f 30/28/26 34/32/30 31/29/27
f 32/30/28 34/32/30 30/28/26
f 34/32/30 35/33/31 31/29/27
f 33/31/29 36/34/32 32/30/28
f 32/30/28 36/34/32 34/32/30
f 33/31/29 37/35/9 36/34/32
f 34/32/30 38/36/33 35/33/31
f 36/34/32 38/36/33 34/32/30
f 38/36/33 39/37/34 35/33/31
f 37/35/9 40/38/6 36/34/32
f 36/34/32 40/38/6 38/36/33
f 37/35/9 41/39/10 40/38/6
f 41/39/10 42/40/35 40/38/6
f 38/36/33 43/41/4 39/37/34
f 40/38/6 43/41/4 38/36/33
f 40/38/6 42/40/35 43/41/4
f 43/41/4 44/42/36 39/37/34
f 42/40/35 45/43/4 43/41/4
f 43/41/4 45/43/4 44/42/36
f 45/43/4 46/44/3 44/42/36
f 4/4/9 13/11/10 5/2/37
f 13/11/10 47/10/37 5/2/37
f 13/11/10 15/13/12 47/10/37
f 5/2/37 47/10/37 6/1/38
f 15/13/12 48/12/39 47/10/37
f 15/13/12 19/17/16 48/12/39
f 47/10/37 49/6/40 6/1/38
f 47/10/37 48/12/39 49/6/40
f 6/1/38 49/6/40 3/3/3
f 49/6/40 7/5/3 3/3/3
f 49/6/40 50/8/41 7/5/3
f 48/12/39 50/8/41 49/6/40
f 50/8/41 9/7/5 7/5/3
f 19/17/16 51/16/42 48/12/39
f 48/12/39 51/16/42 50/8/41
f 19/17/16 23/21/20 51/16/42
f 50/8/41 52/14/43 9/7/5
f 51/16/42 52/14/43 50/8/41
f 52/14/43 11/9/8 9/7/5
f 23/21/20 53/20/44 51/16/42
f 51/16/42 53/20/44 52/14/43
f 23/21/20 27/25/1 53/20/44
f 52/14/43 54/18/45 11/9/8
f 53/20/44 54/18/45 52/14/43
f 54/18/45 17/15/14 11/9/8
f 27/25/1 55/24/46 53/20/44
f 53/20/44 55/24/46 54/18/45
f 27/25/1 31/29/27 55/24/46
f 54/18/45 56/22/47 17/15/14
f 55/24/46 56/22/47 54/18/45
f 56/22/47 21/19/18 17/15/14
f 31/29/27 57/28/48 55/24/46
f 55/24/46 57/28/48 56/22/47
f 31/29/27 35/33/31 57/28/48
f 56/22/47 58/26/49 21/19/18
f 57/28/48 58/26/49 56/22/47
f 58/26/49 25/23/22 21/19/18
f 35/33/31 59/32/50 57/28/48
f 57/28/48 59/32/50 58/26/49
f 35/33/31 39/37/34 59/32/50
f 58/26/49 60/30/51 25/23/22
f 59/32/50 60/30/51 58/26/49
f 60/30/51 29/27/25 25/23/22
f 39/37/34 61/36/52 59/32/50
f 59/32/50 61/36/52 60/30/51
f 39/37/34 44/42/36 61/36/52
f 60/30/51 62/34/53 29/27/25
f 61/36/52 62/34/53 60/30/51
f 62/34/53 33/31/29 29/27/25
f 44/42/36 63/41/40 61/36/52
f 61/36/52 63/41/40 62/34/53
f 44/42/36 46/44/3 63/41/40
f 46/44/3 64/43/40 63/41/40
f 62/34/53 65/38/37 33/31/29
f 63/41/40 65/38/37 62/34/53
f 63/41/40 64/43/40 65/38/37
f 65/38/37 37/35/9 33/31/29
f 64/43/40 66/40/37 65/38/37
f 65/38/37 66/40/37 37/35/9
f 66/40/37 41/39/10 37/35/9
f 45/43/1 42/40/1 41/39/2
f 45/43/1 41/39/2 64/43/2
f 46/44/2 45/43/1 64/43/2
f 66/40/1 64/43/2 41/39/2
