# Blender 3.6.18
# www.blender.org
mtllib Mesh.1031.mtl
o Bistro_Research_Exterior_Paris_Building_01_paris_buildi_12ca7c9
v 3.376355 21.522863 -16.231611
v 3.600307 21.522863 -16.110712
v 3.567888 20.922148 -16.050680
v 3.409026 20.922148 -16.136438
v 3.387010 20.922085 -16.126972
v 3.354331 21.522928 -16.222162
v 3.327146 21.459316 -16.155331
v 3.195426 21.459318 -15.911380
v 3.154454 21.522930 -15.851984
v 3.353262 20.985035 -16.080782
v 3.251990 20.922085 -15.876912
v 3.256151 20.922148 -15.853312
v 3.415000 20.922150 -15.767559
v 3.382572 21.522869 -15.707500
v 3.158638 21.522867 -15.828389
v 3.272096 20.985035 -15.930461
v 3.283208 20.996838 -15.943116
v 3.207198 21.443478 -15.918855
v 3.279163 21.003107 -15.937260
v 3.348777 20.996838 -16.064550
v 3.303140 21.015011 -15.948832
v 3.351454 21.003105 -16.071144
v 3.354930 21.015013 -16.044748
v 3.357610 21.021280 -16.051336
v 3.327354 21.443478 -16.141388
v 3.305446 21.024439 -15.955544
v 3.323990 21.449745 -16.136793
v 3.335427 21.429138 -16.115952
v 3.209194 21.449747 -15.924187
v 3.332066 21.435408 -16.111351
v 3.234897 21.435408 -15.931392
v 3.232894 21.429138 -15.926058
v 3.299102 21.021282 -15.942977
v 3.238728 21.421177 -15.934797
v 3.240263 21.425982 -15.938886
v 3.328743 21.425982 -16.102757
v 3.302350 21.029243 -15.951057
v 3.331320 21.421175 -16.106281
v 3.252404 21.383635 -16.038153
v 3.249564 21.376276 -16.034828
v 3.253626 21.376276 -16.042349
v 3.292198 21.067102 -16.011782
v 3.352636 21.029243 -16.044188
v 3.296294 21.067102 -16.019367
v 3.297095 21.059265 -16.014036
v 3.350582 21.024439 -16.039139
v 3.558133 20.907467 -16.032618
v 3.400906 20.907469 -16.117495
v 3.424755 20.907469 -15.785621
v 3.267540 20.907473 -15.870493
v 3.390582 21.537546 -15.722333
v 3.164778 21.537546 -15.844232
v 3.592297 21.537546 -16.095879
v 3.366477 21.537544 -16.217787
vn 0.4677 -0.1140 -0.8765
vn 0.4719 -0.1140 -0.8742
vn -0.8716 -0.1290 -0.4729
vn -0.8716 -0.1290 -0.4730
vn -0.4771 -0.1144 0.8714
vn -0.4771 -0.1143 0.8714
vn -0.6834 0.6287 -0.3710
vn -0.2762 -0.0117 -0.9610
vn -0.2763 -0.0117 -0.9610
vn -0.6834 0.6288 -0.3710
vn -0.9561 -0.0117 0.2927
vn -0.6173 -0.7105 -0.3378
vn -0.5272 -0.8005 -0.2851
vn -0.5272 -0.8005 -0.2850
vn -0.9883 -0.1523 -0.0039
vn -0.6702 0.6466 -0.3644
vn -0.6701 0.6466 -0.3645
vn -0.5402 -0.1516 -0.8278
vn -0.6701 0.6466 -0.3644
vn -0.9883 -0.1524 -0.0039
vn -0.0039 -1.0000 -0.0039
vn -0.0040 -1.0000 -0.0039
vn -0.0039 -1.0000 -0.0040
vn -0.0039 1.0000 -0.0039
vt 0.200439 0.277832
vt 0.122437 0.259277
vt 0.166870 0.073730
vt 0.222290 0.086914
vt 0.229736 0.087891
vt 0.208008 0.278809
vt 0.230469 0.258789
vt 0.318359 0.259277
vt 0.340820 0.279297
vt 0.247437 0.107422
vt 0.319580 0.087891
vt 0.327148 0.087402
vt 0.382568 0.074219
vt 0.426514 0.259766
vt 0.348389 0.278320
vt 0.301758 0.107910
vt 0.296631 0.110840
vt 0.314941 0.253906
vt 0.299316 0.113281
vt 0.252686 0.110840
vt 0.291748 0.117188
vt 0.250000 0.113281
vt 0.257568 0.117188
vt 0.255371 0.118652
vt 0.233887 0.253906
vt 0.289795 0.119629
vt 0.236084 0.256348
vt 0.240601 0.248047
vt 0.312744 0.256348
vt 0.242310 0.250000
vt 0.306641 0.250000
vt 0.308350 0.248535
vt 0.293945 0.118652
vt 0.305908 0.246094
vt 0.304199 0.248047
vt 0.244751 0.248047
vt 0.291992 0.121094
vt 0.242920 0.246094
vt 0.274414 0.233398
vt 0.275146 0.232422
vt 0.273682 0.232422
vt 0.275391 0.135254
vt 0.257080 0.121094
vt 0.273682 0.135254
vt 0.274658 0.133301
vt 0.259277 0.119629
vt 0.709473 0.206543
vt 0.717285 0.206543
vt 0.709473 0.263184
vt 0.717285 0.263184
vt 0.717285 0.269043
vt 0.806641 0.206055
vt 0.806641 0.269043
vt 0.806641 0.263184
vt 0.813477 0.206055
vt 0.813477 0.263184
vt 0.706543 0.096680
vt 0.713379 0.096191
vt 0.706543 0.177246
vt 0.713379 0.177246
vt 0.713379 0.183105
vt 0.847168 0.096680
vt 0.847168 0.183105
vt 0.847168 0.177246
vt 0.854004 0.096680
vt 0.854004 0.177246
s 1
usemtl MASTER_Concrete_Smooth
f 1/1/1 2/2/2 3/3/1
f 4/4/1 1/1/1 3/3/1
f 1/1/1 4/4/1 5/5/3
f 6/6/4 1/1/1 5/5/3
f 6/6/4 5/5/3 7/7/3
f 6/6/4 7/7/3 8/8/3
f 9/9/4 6/6/4 8/8/3
f 5/5/3 10/10/3 7/7/3
f 5/5/3 11/11/4 10/10/3
f 11/11/4 12/12/5 9/9/4
f 12/12/5 13/13/5 14/14/5
f 15/15/6 12/12/5 14/14/5
f 12/12/5 15/15/6 9/9/4
f 11/11/4 9/9/4 16/16/3
f 11/11/4 16/16/3 10/10/3
f 9/9/4 8/8/3 16/16/3
f 10/10/3 16/16/3 17/17/7
f 16/16/3 8/8/3 18/18/8
f 16/16/3 19/19/9 17/17/7
f 19/19/9 16/16/3 18/18/8
f 20/20/7 10/10/3 17/17/7
f 17/17/7 19/19/9 21/21/10
f 10/10/3 20/20/7 22/22/11
f 7/7/3 10/10/3 22/22/11
f 20/20/7 17/17/7 23/23/7
f 17/17/7 21/21/10 23/23/7
f 22/22/11 20/20/7 24/24/11
f 20/20/7 23/23/7 24/24/11
f 25/25/11 7/7/3 22/22/11
f 23/23/7 21/21/10 26/26/12
f 7/7/3 25/25/11 27/27/13
f 8/8/3 7/7/3 27/27/13
f 25/25/11 22/22/11 28/28/11
f 22/22/11 24/24/11 28/28/11
f 29/29/14 8/8/3 27/27/13
f 8/8/3 29/29/14 18/18/8
f 27/27/13 25/25/11 30/30/13
f 25/25/11 28/28/11 30/30/13
f 29/29/14 27/27/13 31/31/13
f 27/27/13 30/30/13 31/31/13
f 18/18/8 29/29/14 32/32/8
f 29/29/14 31/31/13 32/32/8
f 18/18/8 32/32/8 33/33/9
f 19/19/9 18/18/8 33/33/9
f 19/19/9 33/33/9 21/21/10
f 21/21/10 33/33/9 26/26/12
f 32/32/8 31/31/13 34/34/15
f 33/33/9 32/32/8 34/34/15
f 31/31/13 30/30/13 35/35/16
f 31/31/13 35/35/16 34/34/15
f 30/30/13 36/36/17 35/35/16
f 30/30/13 28/28/11 36/36/17
f 37/37/15 33/33/9 34/34/15
f 33/33/9 37/37/15 26/26/12
f 28/28/11 38/38/18 36/36/17
f 28/28/11 24/24/11 38/38/18
f 35/35/16 36/36/17 39/39/19
f 36/36/17 38/38/18 39/39/19
f 35/35/16 39/39/19 40/40/20
f 34/34/15 35/35/16 40/40/20
f 38/38/18 41/41/18 39/39/19
f 39/39/19 41/41/18 40/40/20
f 34/34/15 40/40/20 42/42/20
f 40/40/20 41/41/18 42/42/20
f 37/37/15 34/34/15 42/42/20
f 38/38/18 43/43/18 41/41/18
f 24/24/11 43/43/18 38/38/18
f 41/41/18 44/44/18 42/42/20
f 43/43/18 44/44/18 41/41/18
f 37/37/15 42/42/20 45/45/12
f 45/45/12 42/42/20 44/44/18
f 26/26/12 37/37/15 45/45/12
f 43/43/18 46/46/12 44/44/18
f 46/46/12 45/45/12 44/44/18
f 46/46/12 43/43/18 24/24/11
f 46/46/12 26/26/12 45/45/12
f 23/23/7 46/46/12 24/24/11
f 46/46/12 23/23/7 26/26/12
f 3/47/1 47/48/21 4/49/1
f 47/48/21 48/50/22 4/49/1
f 4/49/1 48/50/22 5/51/3
f 47/48/21 49/52/21 48/50/22
f 5/51/3 48/50/22 11/53/4
f 49/52/21 50/54/23 48/50/22
f 48/50/22 50/54/23 11/53/4
f 50/54/23 49/52/21 13/55/5
f 50/54/23 12/56/5 11/53/4
f 12/56/5 50/54/23 13/55/5
f 14/57/5 51/58/24 15/59/6
f 51/58/24 52/60/24 15/59/6
f 9/61/4 15/59/6 52/60/24
f 52/60/24 51/58/24 53/62/24
f 9/61/4 52/60/24 6/63/4
f 54/64/24 52/60/24 53/62/24
f 52/60/24 54/64/24 6/63/4
f 54/64/24 53/62/24 2/65/2
f 6/63/4 54/64/24 1/66/1
f 1/66/1 54/64/24 2/65/2
