# Blender 3.6.18
# www.blender.org
mtllib Mesh.746.mtl
o Bistro_Research_Exterior_paris_building_05_5043
v 27.851728 4.899264 -51.800220
v 27.907230 4.899264 -51.814194
v 27.733240 4.899264 -52.270901
v 27.788744 4.899264 -52.284870
v 27.733240 4.807421 -52.270901
v 27.851728 4.807421 -51.800220
v 27.907230 4.807421 -51.814194
v 27.788744 4.807421 -52.284870
v 27.853468 4.811568 -51.805458
v 27.853466 2.319852 -51.805458
v 27.903656 4.811568 -51.818089
v 27.903654 2.319852 -51.818089
v 27.835302 2.319852 -51.877632
v 27.835302 4.811568 -51.877632
v 27.885487 4.811568 -51.890263
v 27.885487 2.319852 -51.890263
v 27.855551 4.805360 -51.874275
v 27.773396 4.805360 -52.200611
v 27.855551 2.322794 -51.874275
v 27.773396 2.322794 -52.200611
v 27.788353 4.811568 -52.276108
v 27.788353 2.319852 -52.276108
v 27.738169 4.811568 -52.263470
v 27.738165 2.319852 -52.263470
v 27.806520 2.319852 -52.203938
v 27.806520 4.811568 -52.203938
v 27.756338 4.811568 -52.191303
v 27.756338 2.319852 -52.191303
v 27.851728 2.319455 -51.800220
v 27.907230 2.319455 -51.814194
v 27.733240 2.319455 -52.270901
v 27.788744 2.319455 -52.284870
v 27.733240 2.227612 -52.270901
v 27.851728 2.227612 -51.800220
v 27.907230 2.227613 -51.814194
v 27.788744 2.227612 -52.284870
v 27.742916 2.605498 -52.267544
v 27.779181 2.605498 -52.276676
v 27.742918 2.482337 -52.267544
v 27.779179 2.482337 -52.276676
v 27.780083 2.605498 -52.273083
v 27.743824 2.605498 -52.263958
v 27.780083 2.482337 -52.273083
v 27.743820 2.482337 -52.263954
v 27.792536 2.605498 -52.292969
v 27.811718 2.605498 -52.325058
v 27.792534 2.482337 -52.292961
v 27.811720 2.482337 -52.325062
v 27.814894 2.605498 -52.323166
v 27.795708 2.605498 -52.291073
v 27.814896 2.482337 -52.323166
v 27.795708 2.482337 -52.291065
v 28.199923 4.899264 -52.039463
v 28.229290 4.899264 -52.088589
v 27.783319 4.899264 -52.288494
v 27.812687 4.899264 -52.337620
v 27.783323 4.807421 -52.288494
v 28.199923 4.807421 -52.039463
v 28.229290 4.807421 -52.088589
v 27.812687 4.807421 -52.337620
v 28.197453 4.811568 -52.044395
v 28.197453 2.319852 -52.044395
v 28.224005 4.811568 -52.088818
v 28.224005 2.319852 -52.088818
v 28.133572 2.319852 -52.082581
v 28.133572 4.811568 -52.082581
v 28.160122 4.811568 -52.126995
v 28.160126 2.319852 -52.126995
v 27.870550 4.805360 -52.282475
v 28.159397 4.805360 -52.109806
v 27.870550 2.322794 -52.282471
v 28.159397 2.322794 -52.109806
v 27.818607 4.811568 -52.331150
v 27.818607 2.319852 -52.331150
v 27.792051 4.811568 -52.286724
v 27.792051 2.319852 -52.286724
v 27.882488 2.319852 -52.292965
v 27.882488 4.811568 -52.292965
v 27.855932 4.811568 -52.248547
v 27.855932 2.319852 -52.248547
v 28.199923 2.319455 -52.039463
v 28.229290 2.319455 -52.088589
v 27.783319 2.319455 -52.288494
v 27.812687 2.319455 -52.337620
v 27.783323 2.227612 -52.288494
v 28.199923 2.227612 -52.039463
v 28.229290 2.227613 -52.088589
v 27.812687 2.227612 -52.337620
v 27.792536 4.708837 -52.292969
v 27.811718 4.708837 -52.325058
v 27.792534 4.585676 -52.292961
v 27.811720 4.585676 -52.325062
v 27.814894 4.708837 -52.323166
v 27.795708 4.708837 -52.291073
v 27.814896 4.585676 -52.323166
v 27.795708 4.585676 -52.291065
v 27.742916 4.708837 -52.267544
v 27.779181 4.708837 -52.276676
v 27.742918 4.585676 -52.267544
v 27.779179 4.585676 -52.276676
v 27.780083 4.708837 -52.273083
v 27.743824 4.708837 -52.263958
v 27.780083 4.585676 -52.273083
v 27.743820 4.585676 -52.263954
v 27.796692 2.482678 -52.277664
v 27.796692 2.605177 -52.277664
v 27.789343 2.605177 -52.272202
v 27.789343 2.482678 -52.272202
v 27.780281 2.605177 -52.273533
v 27.780281 2.482678 -52.273533
v 27.774817 2.605177 -52.280880
v 27.774817 2.482678 -52.280880
v 27.776148 2.605177 -52.289951
v 27.776148 2.482678 -52.289951
v 27.783499 2.605177 -52.295414
v 27.783499 2.482678 -52.295414
v 27.792562 2.605177 -52.294083
v 27.792562 2.482678 -52.294083
v 27.798027 2.605177 -52.286728
v 27.798025 2.482678 -52.286728
v 27.796692 4.586019 -52.277664
v 27.796692 4.708519 -52.277664
v 27.789343 4.708519 -52.272202
v 27.789343 4.586019 -52.272202
v 27.780281 4.708519 -52.273533
v 27.780281 4.586019 -52.273533
v 27.774817 4.708519 -52.280880
v 27.774817 4.586019 -52.280880
v 27.776148 4.708519 -52.289951
v 27.776148 4.586019 -52.289951
v 27.783499 4.708519 -52.295414
v 27.783499 4.586019 -52.295414
v 27.792562 4.708519 -52.294083
v 27.792562 4.586019 -52.294083
v 27.798027 4.708519 -52.286728
v 27.798025 4.586019 -52.286728
v 27.786417 2.482678 -52.283810
v 27.786417 2.605177 -52.283810
v 27.786417 4.586019 -52.283810
v 27.786417 4.708519 -52.283810
vn -0.0039 1.0000 -0.0039
vn -0.9713 -0.0039 0.2379
vn -0.9713 -0.0039 0.2380
vn 0.9690 -0.0039 -0.2471
vn 0.9690 -0.0039 -0.2472
vn 0.2397 -0.0039 0.9708
vn -0.2453 -0.0039 -0.9694
vn -0.0039 -1.0000 -0.0039
vn 0.2398 -0.0039 0.9708
vn -0.8582 -0.0039 -0.5133
vn 0.5075 -0.0039 -0.8616
vn -0.5168 -0.0039 0.8561
vn -0.5168 -0.0040 0.8561
vn 0.8596 -0.0040 0.5110
vn 0.8596 -0.0039 0.5110
vt 0.318604 0.353027
vt 0.327881 0.353027
vt 0.318604 0.432129
vt 0.327881 0.432129
vt 0.315430 0.432129
vt 0.300537 0.432129
vt 0.315430 0.352539
vt 0.300537 0.352539
vt 0.270020 0.352051
vt 0.284912 0.352051
vt 0.270020 0.431641
vt 0.284912 0.431641
vt 0.284912 0.345215
vt 0.269775 0.345215
vt 0.284912 0.335938
vt 0.269775 0.335938
vt 0.303223 0.345215
vt 0.288086 0.345215
vt 0.303223 0.335938
vt 0.288086 0.335938
vt 0.287842 0.432129
vt 0.287842 0.352539
vt 0.297363 0.432129
vt 0.297363 0.352539
vt 0.858398 0.570801
vt 0.858398 0.978256
vt 0.848633 0.570801
vt 0.848633 0.978256
vt 0.799805 0.571289
vt 0.812012 0.571289
vt 0.799805 0.978668
vt 0.812012 0.978668
vt 0.833008 0.572021
vt 0.845215 0.572021
vt 0.833008 0.979340
vt 0.845215 0.979340
vt 0.827637 0.572754
vt 0.827637 0.980072
vt 0.817871 0.572754
vt 0.817871 0.980072
vt 0.377197 0.011230
vt 0.432373 0.011230
vt 0.377197 0.416992
vt 0.432373 0.416992
vt 0.354004 0.445312
vt 0.360107 0.445312
vt 0.354004 0.465332
vt 0.360107 0.465332
vt 0.360107 0.443359
vt 0.354004 0.443359
vt 0.360107 0.442871
vt 0.354004 0.442871
vt 0.361328 0.465332
vt 0.361328 0.445312
vt 0.362061 0.465332
vt 0.362061 0.445312
vt 0.354004 0.466797
vt 0.360107 0.466797
vt 0.354004 0.467285
vt 0.360107 0.467285
vt 0.352783 0.445312
vt 0.352783 0.465332
vt 0.352051 0.445312
vt 0.352051 0.465332
vt 0.326172 0.464355
vt 0.326172 0.443848
vt 0.327637 0.443848
vt 0.327637 0.464355
vt 0.329102 0.443848
vt 0.329102 0.464355
vt 0.330566 0.443848
vt 0.330566 0.464355
vt 0.332031 0.443848
vt 0.332031 0.464355
vt 0.333496 0.443848
vt 0.333496 0.464355
vt 0.334473 0.443848
vt 0.334473 0.464355
vt 0.335938 0.443848
vt 0.335938 0.464355
vt 0.337402 0.443848
vt 0.337402 0.464355
vt 0.326172 0.466797
vt 0.327393 0.465820
vt 0.328125 0.467773
vt 0.326172 0.468262
vt 0.328857 0.465820
vt 0.327148 0.469238
vt 0.329834 0.466797
vt 0.328857 0.469238
vt 0.329834 0.468262
vt 0.333252 0.465820
vt 0.334717 0.465820
vt 0.333984 0.467773
vt 0.332275 0.466797
vt 0.335938 0.466797
vt 0.332275 0.468262
vt 0.335938 0.468750
vt 0.333252 0.469727
vt 0.334717 0.469727
s 1
usemtl MASTER_Building_Details
f 1/1/1 2/2/1 3/3/1
f 2/2/1 4/4/1 3/3/1
f 3/5/2 5/6/2 1/7/3
f 5/6/2 6/8/3 1/7/3
f 2/9/4 7/10/4 4/11/5
f 7/10/4 8/12/5 4/11/5
f 7/13/6 2/14/6 6/15/6
f 2/14/6 1/16/6 6/15/6
f 5/17/7 3/18/7 8/19/7
f 3/18/7 4/20/7 8/19/7
f 8/21/8 7/22/8 5/23/8
f 7/22/8 6/24/8 5/23/8
f 9/25/9 10/26/9 11/27/9
f 10/26/9 12/28/9 11/27/9
f 13/29/2 10/30/2 14/31/2
f 10/30/2 9/32/2 14/31/2
f 15/33/4 11/34/4 16/35/4
f 11/34/4 12/36/4 16/35/4
f 15/37/7 16/38/7 14/39/7
f 16/38/7 13/40/7 14/39/7
f 17/41/2 18/42/2 19/43/2
f 18/42/2 20/44/2 19/43/2
f 21/25/7 22/26/7 23/27/7
f 22/26/7 24/28/7 23/27/7
f 25/29/4 22/30/4 26/31/4
f 22/30/4 21/32/4 26/31/4
f 27/33/3 23/34/3 28/35/3
f 23/34/2 24/36/2 28/35/2
f 27/37/6 28/38/6 26/39/6
f 28/38/6 25/40/6 26/39/6
f 29/1/1 30/2/1 31/3/1
f 30/2/1 32/4/1 31/3/1
f 31/5/2 33/6/2 29/7/2
f 33/6/2 34/8/3 29/7/2
f 30/9/4 35/10/4 32/11/5
f 35/10/4 36/12/5 32/11/5
f 35/13/6 30/14/6 34/15/6
f 30/14/6 29/16/9 34/15/6
f 33/17/7 31/18/7 36/19/7
f 31/18/7 32/20/7 36/19/7
f 36/21/8 35/22/8 33/23/8
f 35/22/8 34/24/8 33/23/8
f 37/45/7 38/46/7 39/47/7
f 38/46/7 40/48/7 39/47/7
f 38/49/1 37/50/1 41/51/1
f 37/50/1 42/52/1 41/51/1
f 40/53/4 38/54/4 43/55/4
f 38/54/4 41/56/4 43/55/4
f 39/57/8 40/58/8 44/59/8
f 40/58/8 43/60/8 44/59/8
f 37/61/2 39/62/2 42/63/2
f 39/62/2 44/64/2 42/63/2
f 45/45/10 46/46/10 47/47/10
f 46/46/10 48/48/10 47/47/10
f 46/49/1 45/50/1 49/51/1
f 45/50/1 50/52/1 49/51/1
f 48/53/11 46/54/11 51/55/11
f 46/54/11 49/56/11 51/55/11
f 47/57/8 48/58/8 52/59/8
f 48/58/8 51/60/8 52/59/8
f 45/61/12 47/62/12 50/63/12
f 47/62/12 52/64/12 50/63/12
f 53/1/1 54/2/1 55/3/1
f 54/2/1 56/4/1 55/3/1
f 55/5/12 57/6/12 53/7/13
f 57/6/12 58/8/13 53/7/13
f 54/9/11 59/10/11 56/11/11
f 59/10/11 60/12/11 56/11/11
f 59/13/14 54/14/15 58/15/15
f 54/14/15 53/16/14 58/15/15
f 57/17/10 55/18/10 60/19/10
f 55/18/10 56/20/10 60/19/10
f 60/21/8 59/22/8 57/23/8
f 59/22/8 58/24/8 57/23/8
f 61/25/15 62/26/15 63/27/15
f 62/26/15 64/28/14 63/27/15
f 65/29/13 62/30/13 66/31/13
f 62/30/13 61/32/13 66/31/13
f 67/33/11 63/34/11 68/35/11
f 63/34/11 64/36/11 68/35/11
f 67/37/10 68/38/10 66/39/10
f 68/38/10 65/40/10 66/39/10
f 69/41/11 70/42/11 71/43/11
f 70/42/11 72/44/11 71/43/11
f 73/25/10 74/26/10 75/27/10
f 74/26/10 76/28/10 75/27/10
f 77/29/11 74/30/11 78/31/11
f 74/30/11 73/32/11 78/31/11
f 79/33/12 75/34/12 80/35/12
f 75/34/12 76/36/12 80/35/12
f 79/37/14 80/38/14 78/39/14
f 80/38/14 77/40/14 78/39/14
f 81/1/1 82/2/1 83/3/1
f 82/2/1 84/4/1 83/3/1
f 83/5/12 85/6/12 81/7/13
f 85/6/12 86/8/13 81/7/13
f 82/9/11 87/10/11 84/11/11
f 87/10/11 88/12/11 84/11/11
f 87/13/14 82/14/15 86/15/14
f 82/14/15 81/16/14 86/15/14
f 85/17/10 83/18/10 88/19/10
f 83/18/10 84/20/10 88/19/10
f 88/21/8 87/22/8 85/23/8
f 87/22/8 86/24/8 85/23/8
f 89/45/10 90/46/10 91/47/10
f 90/46/10 92/48/10 91/47/10
f 90/49/1 89/50/1 93/51/1
f 89/50/1 94/52/1 93/51/1
f 92/53/11 90/54/11 95/55/11
f 90/54/11 93/56/11 95/55/11
f 91/57/8 92/58/8 96/59/8
f 92/58/8 95/60/8 96/59/8
f 89/61/13 91/62/13 94/63/13
f 91/62/12 96/64/12 94/63/12
f 97/45/7 98/46/7 99/47/7
f 98/46/7 100/48/7 99/47/7
f 98/49/1 97/50/1 101/51/1
f 97/50/1 102/52/1 101/51/1
f 100/53/4 98/54/4 103/55/4
f 98/54/4 101/56/4 103/55/4
f 99/57/8 100/58/8 104/59/8
f 100/58/8 103/60/8 104/59/8
f 97/61/2 99/62/2 102/63/2
f 99/62/2 104/64/2 102/63/2
f 105/65/14 106/66/14 107/67/9
f 108/68/6 105/65/14 107/67/9
f 108/68/6 107/67/9 109/69/13
f 110/70/13 108/68/6 109/69/13
f 110/70/13 109/69/13 111/71/2
f 112/72/2 110/70/13 111/71/2
f 112/72/2 111/71/2 113/73/10
f 114/74/10 112/72/2 113/73/10
f 114/74/10 113/73/10 115/75/7
f 116/76/7 114/74/10 115/75/7
f 116/76/7 115/75/7 117/77/11
f 118/78/11 116/76/7 117/77/11
f 118/78/11 117/77/11 119/79/4
f 120/80/5 118/78/11 119/79/4
f 120/80/5 119/79/4 106/81/14
f 105/82/14 120/80/5 106/81/14
f 121/65/15 122/66/14 123/67/6
f 124/68/6 121/65/15 123/67/6
f 124/68/6 123/67/6 125/69/13
f 126/70/13 124/68/6 125/69/13
f 126/70/13 125/69/13 127/71/2
f 128/72/2 126/70/13 127/71/2
f 128/72/2 127/71/2 129/73/10
f 130/74/10 128/72/2 129/73/10
f 130/74/10 129/73/10 131/75/7
f 132/76/7 130/74/10 131/75/7
f 132/76/7 131/75/7 133/77/11
f 134/78/11 132/76/7 133/77/11
f 134/78/11 133/77/11 135/79/4
f 136/80/5 134/78/11 135/79/4
f 136/80/5 135/79/4 122/81/14
f 121/82/15 136/80/5 122/81/14
f 112/83/8 114/84/8 137/85/8
f 110/86/8 112/83/8 137/85/8
f 114/84/8 116/87/8 137/85/8
f 108/88/8 110/86/8 137/85/8
f 116/87/8 118/89/8 137/85/8
f 105/90/8 108/88/8 137/85/8
f 118/89/8 120/91/8 137/85/8
f 120/91/8 105/90/8 137/85/8
f 113/92/1 111/93/1 138/94/1
f 115/95/1 113/92/1 138/94/1
f 111/93/1 109/96/1 138/94/1
f 117/97/1 115/95/1 138/94/1
f 109/96/1 107/98/1 138/94/1
f 119/99/1 117/97/1 138/94/1
f 107/98/1 106/100/1 138/94/1
f 106/100/1 119/99/1 138/94/1
f 128/83/8 130/84/8 139/85/8
f 126/86/8 128/83/8 139/85/8
f 130/84/8 132/87/8 139/85/8
f 124/88/8 126/86/8 139/85/8
f 132/87/8 134/89/8 139/85/8
f 121/90/8 124/88/8 139/85/8
f 134/89/8 136/91/8 139/85/8
f 136/91/8 121/90/8 139/85/8
f 129/92/1 127/93/1 140/94/1
f 131/95/1 129/92/1 140/94/1
f 127/93/1 125/96/1 140/94/1
f 133/97/1 131/95/1 140/94/1
f 125/96/1 123/98/1 140/94/1
f 135/99/1 133/97/1 140/94/1
f 123/98/1 122/100/1 140/94/1
f 122/100/1 135/99/1 140/94/1
