# Blender 3.6.18
# www.blender.org
mtllib Mesh.1023.mtl
o Bistro_Research_Exterior_Paris_Building_01_paris_buildi_85936c5
v 17.251091 18.927999 8.286395
v 17.833584 18.927999 6.892290
v 14.553399 18.927999 7.127404
v 15.136751 18.927999 5.723645
v 14.553393 21.329988 7.127406
v 15.136751 21.329988 5.723646
v 17.833382 21.329990 6.892228
v 17.251102 21.329988 8.286321
v 16.473862 19.306767 7.963248
v 15.253491 19.306767 7.434047
v 15.253492 20.618214 7.434048
v 16.473858 20.618217 7.963251
v 17.251091 14.053305 8.286395
v 17.833584 14.053305 6.892289
v 14.553399 14.053305 7.127404
v 15.136751 14.053305 5.723645
v 14.553393 16.455296 7.127406
v 15.136751 16.455296 5.723645
v 17.833382 16.455294 6.892228
v 17.251102 16.455292 8.286321
v 16.473862 14.432072 7.963247
v 15.253493 14.432073 7.434046
v 15.253492 15.743519 7.434047
v 16.473860 15.743523 7.963252
vn -0.0039 1.0000 -0.0039
vn 0.9243 -0.0039 0.3815
vn -0.4043 -0.0039 0.9146
vn -0.9227 -0.0039 -0.3854
vn -0.0039 -1.0000 -0.0039
vn 0.3881 0.0196 -0.9214
vn 0.3882 0.0196 -0.9214
vn 0.3948 -0.0039 -0.9187
vn 0.3900 -0.0087 -0.9208
vn 0.3894 -0.0097 -0.9210
vn 0.3830 -0.0106 -0.9237
vn 0.3788 -0.0039 -0.9255
vn 0.3805 -0.0061 -0.9248
vt 1.200195 0.874878
vt 0.763672 0.874878
vt 1.200195 0.028809
vt 0.763672 0.028809
vt 1.121094 1.632812
vt 0.734375 1.632812
vt 1.121094 0.939148
vt 0.734375 0.939148
vt 0.703613 0.783936
vt 0.703613 1.525879
vt 0.009995 0.783936
vt 0.009995 1.525879
vt 1.661133 0.908203
vt 1.661133 1.601562
vt 1.276367 0.908203
vt 1.276367 1.601562
vt 1.727539 0.028809
vt 1.727539 0.874878
vt 1.290039 0.028809
vt 1.290039 0.874878
vt 0.703613 0.010254
vt 0.703613 0.752930
vt 0.594238 0.224609
vt 0.594238 0.560303
vt 0.009995 0.752930
vt 0.215576 0.560303
vt 0.009995 0.010254
vt 0.215576 0.224609
s 1
usemtl MASTER_Concrete_Smooth
f 1/1/1 2/2/1 3/3/1
f 2/2/1 4/4/1 3/3/1
f 3/5/2 4/6/2 5/7/2
f 4/6/2 6/8/2 5/7/2
f 4/9/3 2/10/3 6/11/3
f 2/10/3 7/12/3 6/11/3
f 7/13/4 2/14/4 8/15/4
f 2/14/4 1/16/4 8/15/4
f 6/17/5 7/18/5 5/19/5
f 7/18/5 8/20/5 5/19/5
f 1/21/6 3/22/6 9/23/6
f 3/22/7 10/24/7 9/23/7
f 3/22/8 5/25/8 10/24/8
f 5/25/9 11/26/10 10/24/8
f 8/27/11 1/21/12 12/28/13
f 1/21/12 9/23/12 12/28/13
f 5/25/9 8/27/11 11/26/10
f 8/27/11 12/28/13 11/26/10
f 13/1/1 14/2/1 15/3/1
f 14/2/1 16/4/1 15/3/1
f 15/5/2 16/6/2 17/7/2
f 16/6/2 18/8/2 17/7/2
f 16/9/3 14/10/3 18/11/3
f 14/10/3 19/12/3 18/11/3
f 19/13/4 14/14/4 20/15/4
f 14/14/4 13/16/4 20/15/4
f 18/17/5 19/18/5 17/19/5
f 19/18/5 20/20/5 17/19/5
f 13/21/6 15/22/6 21/23/6
f 15/22/7 22/24/7 21/23/7
f 15/22/8 17/25/8 22/24/8
f 17/25/9 23/26/10 22/24/8
f 20/27/11 13/21/12 24/28/13
f 13/21/12 21/23/12 24/28/13
f 17/25/9 20/27/11 23/26/10
f 20/27/11 24/28/13 23/26/10
