# Blender 3.6.18
# www.blender.org
mtllib Mesh.418.mtl
o Bistro_Research_Exterior_paris_building_11_5741
v 8.777548 13.971607 22.848610
v 8.777548 16.083828 22.848610
v 8.683334 13.971576 23.085503
v 8.683334 16.083841 23.085505
v 8.423602 13.971610 22.465092
v 8.423594 16.083826 22.465090
v 8.655149 13.971609 22.559772
v 8.655143 16.083826 22.559769
v 8.402640 13.971610 22.473806
v 8.225754 13.971576 22.898430
v 8.402631 16.083826 22.473803
v 8.225745 16.083841 22.898426
v 8.776055 13.971605 22.819559
v 8.718248 13.971576 22.708860
v 8.776055 16.083828 22.819559
v 8.718246 16.083841 22.708860
v 8.675072 16.083828 22.580986
v 8.675077 13.971606 22.580988
v 10.301549 13.971607 23.471786
v 10.202789 13.971576 23.706820
v 10.301549 16.083828 23.471786
v 10.202789 16.083841 23.706821
v 10.822806 13.971609 23.446144
v 10.591258 13.971609 23.351460
v 10.822813 16.083826 23.446146
v 10.591264 16.083826 23.351460
v 10.831656 13.971609 23.467049
v 10.831665 16.083826 23.467051
v 10.660346 13.971576 23.893951
v 10.660354 16.083841 23.893953
v 10.322969 13.971605 23.452103
v 10.322969 16.083828 23.452103
v 10.441777 13.971576 23.413624
v 10.441781 16.083841 23.413626
v 10.562181 16.083828 23.352638
v 10.562176 13.971606 23.352636
v 8.710987 13.955572 22.723118
v 8.663753 13.955606 22.580576
v 8.710983 16.099842 22.723116
v 8.765883 16.099833 22.834646
v 8.663747 16.099829 22.580574
v 8.240554 16.099844 22.904486
v 8.417441 16.099829 22.479858
v 8.765883 13.955599 22.834648
v 8.417450 13.955606 22.479862
v 8.240561 13.955570 22.904490
v 10.645535 13.955570 23.887899
v 10.816847 13.955605 23.460991
v 10.816854 16.099829 23.460995
v 10.645542 16.099844 23.887903
v 10.436969 13.955572 23.428885
v 10.319656 13.955599 23.469995
v 10.319656 16.099833 23.469995
v 10.436973 16.099842 23.428886
v 10.570550 16.099829 23.360279
v 10.570544 13.955606 23.360277
v 8.485271 16.099882 23.004610
v 8.553455 16.099882 23.032396
v 8.668525 16.099846 23.079449
v 8.668525 13.955565 23.079447
v 8.553458 13.955477 23.032396
v 8.485284 13.955477 23.004614
v 10.217598 16.099846 23.712875
v 10.332668 16.099882 23.759930
v 10.400784 16.099882 23.787876
v 10.400773 13.955477 23.787872
v 10.332664 13.955477 23.759926
v 10.217598 13.955565 23.712873
vn 0.9298 -0.0040 0.3680
vn 0.3721 -0.0039 -0.9282
vn -0.9227 -0.0039 -0.3854
vn 0.8840 -0.0039 -0.4675
vn 0.9175 -0.0039 -0.3977
vn 0.9175 -0.0040 -0.3977
vn 0.9455 -0.0039 -0.3256
vn 0.9298 -0.0039 0.3680
vn -0.3092 -0.0039 -0.9510
vn -0.3854 -0.0039 -0.9227
vn -0.4550 -0.0039 -0.8905
vn 0.7392 -0.6062 -0.2933
vn 0.7012 -0.6385 -0.3173
vn 0.7654 -0.3651 -0.5299
vn 0.6225 -0.5912 -0.5129
vn 0.7427 0.6013 -0.2947
vn 0.7047 0.6338 -0.3189
vn 0.8784 0.4372 -0.1930
vn 0.7448 0.6659 -0.0433
vn 0.7676 0.3582 -0.5314
vn 0.6254 0.5860 -0.5152
vn -0.6552 0.7022 -0.2786
vn -0.5279 0.4575 -0.7156
vn -0.2540 0.7541 -0.6056
vn 0.8754 -0.4436 -0.1923
vn 0.7408 -0.6703 -0.0431
vn -0.5260 -0.4636 -0.7130
vn -0.2525 -0.7575 -0.6021
vn -0.6516 -0.7062 -0.2770
vn 0.6544 -0.7092 0.2625
vn 0.8730 -0.4658 -0.1448
vn 0.6543 -0.7092 0.2625
vn 0.5971 -0.7610 -0.2537
vn 0.8729 -0.4658 -0.1448
vn 0.8761 0.4597 -0.1453
vn 0.6007 0.7577 -0.2552
vn 0.6580 0.7053 0.2640
vn 0.6006 0.7577 -0.2552
vn 0.6580 0.7052 0.2640
vn -0.3303 -0.6023 -0.7267
vn -0.2855 -0.6374 -0.7157
vn -0.4967 -0.4419 -0.7470
vn -0.5030 -0.6668 -0.5498
vn -0.4984 0.4356 -0.7496
vn -0.5057 0.6624 -0.5527
vn -0.3319 0.5973 -0.7301
vn -0.2869 0.6327 -0.7192
vn -0.1833 0.3550 -0.9167
vn -0.0898 0.5818 -0.8084
vn -0.1828 -0.3618 -0.9142
vn -0.0894 -0.5870 -0.8047
vn -0.0039 1.0000 -0.0039
vn -0.0039 -1.0000 -0.0039
vn 0.7447 0.6660 -0.0434
vn 0.6593 0.7067 0.2566
vn 0.8819 0.4627 0.0909
vn 0.8786 -0.4689 0.0906
vn 0.6557 -0.7106 0.2552
vn -0.6963 -0.4629 -0.5485
vn -0.6988 0.4568 -0.5505
vn -0.6552 0.7022 -0.2785
vn -0.6552 0.7023 -0.2785
vn -0.6988 0.4567 -0.5505
vn -0.1362 -0.4631 -0.8758
vn -0.1367 0.4570 -0.8789
vn 0.5279 -0.4575 -0.7156
vn 0.5298 0.4513 -0.7181
vn 0.1132 0.4490 -0.8863
vn 0.7087 0.4581 -0.5365
vn 0.1128 -0.4552 -0.8832
vn 0.7062 -0.4643 -0.5345
vt 0.503418 -0.445312
vt 0.503418 0.214844
vt 0.423828 -0.445312
vt 0.423828 0.214844
vt 0.587402 -0.445312
vt 0.587402 0.214844
vt 0.509277 -0.445312
vt 0.509277 0.214844
vt 0.432129 -0.445312
vt 0.575684 -0.445312
vt 0.432129 0.214844
vt 0.575684 0.214844
vt 0.443848 -0.445312
vt 0.473633 -0.445312
vt 0.443848 0.214844
vt 0.473633 0.214844
vt 0.568848 0.214844
vt 0.537109 0.214844
vt 0.568848 -0.445312
vt 0.537109 -0.445312
vt 0.496094 -0.445312
vt 0.496094 0.214844
vt -0.222168 -0.445312
vt -0.143921 -0.445312
vt -0.222168 0.214844
vt -0.143921 0.214844
vt 0.567383 -0.445312
vt 0.567383 0.214844
vt -0.078308 -0.445312
vt -0.078308 0.214844
vt -0.108093 -0.445312
vt -0.108093 0.214844
vt 0.430908 0.214844
vt 0.430908 -0.445312
vt 0.462646 0.214844
vt 0.462646 -0.445312
vt 0.531738 -0.450195
vt 0.567383 -0.450195
vt 0.473633 0.462891
vt 0.474121 0.468262
vt 0.443848 0.488281
vt 0.445068 0.493652
vt 0.567383 0.219727
vt 0.531738 0.219727
vt 0.575684 0.219727
vt 0.432129 0.219727
vt 0.555664 0.488281
vt 0.554688 0.493652
vt 0.525879 0.462891
vt 0.525391 0.468262
vt 0.432129 -0.450195
vt 0.575684 -0.450195
vt 0.423828 -0.450195
vt 0.423828 0.219727
vt 1.107422 0.462891
vt 1.108398 0.468262
vt 1.078125 0.488281
vt 1.079102 0.493652
vt -0.078308 0.488281
vt -0.079468 0.493652
vt -0.108093 0.462891
vt -0.108521 0.468262
vt 0.467773 0.219727
vt 0.467773 -0.450195
vt 0.587402 0.432617
vt 0.588379 0.576172
vt 0.505859 0.576172
vt 0.504395 0.432617
vt 0.483154 0.576172
vt 0.444092 0.576172
vt 0.555664 0.576172
vt 0.516602 0.576172
vt 0.495117 0.432617
vt 0.493652 0.576172
vt 0.412109 0.432617
vt 0.411133 0.576172
vt -0.078674 0.576172
vt -0.117493 0.576172
vt -0.139038 0.432617
vt -0.140503 0.576172
vt -0.222168 0.432617
vt -0.223145 0.576172
vt 1.221680 0.432617
vt 1.222656 0.576172
vt 1.139648 0.576172
vt 1.138672 0.432617
vt 1.117188 0.576172
vt 1.078125 0.576172
vt 0.506348 0.219727
vt 0.511719 0.214844
vt 0.511719 -0.445312
vt 0.506348 -0.450195
vt 0.493408 -0.450195
vt 0.488037 -0.445312
vt 0.488037 0.214844
vt 0.493408 0.219727
vt 0.587402 -0.450195
vt 0.592773 -0.445312
vt 0.504395 -0.450195
vt 0.592773 0.214844
vt 0.500977 -0.445312
vt 0.587402 0.219727
vt 0.500977 0.214844
vt 0.504395 0.219727
vt -0.135742 0.214844
vt -0.139038 0.219727
vt -0.135742 -0.445312
vt -0.222168 0.219727
vt -0.139038 -0.450195
vt -0.227173 0.214844
vt -0.222168 -0.450195
vt -0.227173 -0.445312
s 1
usemtl MASTER_Concrete_Plaster
f 1/1/1 2/2/1 3/3/1
f 2/2/1 4/4/1 3/3/1
f 5/5/2 6/6/2 7/7/2
f 6/6/2 8/8/2 7/7/2
f 9/9/3 10/10/3 11/11/3
f 10/10/3 12/12/3 11/11/3
f 13/13/4 14/14/5 15/15/4
f 14/14/5 16/16/6 15/15/4
f 17/17/7 16/18/6 18/19/7
f 16/18/6 14/20/5 18/19/7
f 19/21/3 20/10/3 21/22/3
f 20/10/3 22/12/3 21/22/3
f 23/23/2 24/24/2 25/25/2
f 24/24/2 26/26/2 25/25/2
f 27/27/8 28/28/8 29/3/8
f 28/28/8 30/4/8 29/3/8
f 31/29/9 32/30/9 33/31/10
f 32/30/9 34/32/10 33/31/10
f 35/33/11 36/34/11 34/35/10
f 36/34/11 33/36/10 34/35/10
f 14/20/12 37/37/13 18/19/14
f 37/37/13 38/38/15 18/19/14
f 16/39/16 39/40/17 15/41/18
f 39/40/17 40/42/19 15/41/18
f 17/17/20 41/43/21 16/18/16
f 41/43/21 39/44/17 16/18/16
f 12/12/22 42/45/22 11/11/23
f 42/45/22 43/46/24 11/11/23
f 13/47/25 44/48/26 14/49/12
f 44/48/26 37/50/13 14/49/12
f 9/9/27 45/51/28 10/10/29
f 45/51/28 46/52/29 10/10/29
f 29/3/30 47/53/30 27/27/31
f 47/53/32 48/38/33 27/27/34
f 28/28/35 49/43/36 30/4/37
f 49/43/38 50/54/39 30/4/39
f 33/55/40 51/56/41 31/57/42
f 51/56/41 52/58/43 31/57/42
f 32/59/44 53/60/45 34/61/46
f 53/60/45 54/62/47 34/61/46
f 34/35/46 54/63/47 35/33/48
f 54/63/47 55/46/49 35/33/48
f 36/34/50 56/51/51 33/36/40
f 56/51/51 51/64/41 33/36/40
f 43/65/52 42/66/52 57/67/52
f 41/68/52 43/65/52 57/67/52
f 41/68/52 57/67/52 58/69/52
f 39/40/52 41/68/52 58/69/52
f 39/40/52 58/69/52 59/70/52
f 40/42/52 39/40/52 59/70/52
f 44/48/53 60/71/53 37/50/53
f 60/71/53 61/72/53 37/50/53
f 37/50/53 61/72/53 38/73/53
f 61/72/53 62/74/53 38/73/53
f 38/73/53 62/74/53 45/75/53
f 62/74/53 46/76/53 45/75/53
f 53/60/52 63/77/52 54/62/52
f 63/77/52 64/78/52 54/62/52
f 54/62/52 64/78/52 55/79/52
f 64/78/52 65/80/52 55/79/52
f 55/79/52 65/80/52 49/81/52
f 65/80/52 50/82/52 49/81/52
f 48/83/53 47/84/53 66/85/53
f 56/86/53 48/83/53 66/85/53
f 56/86/53 66/85/53 67/87/53
f 51/56/53 56/86/53 67/87/53
f 51/56/53 67/87/53 68/88/53
f 52/58/53 51/56/53 68/88/53
f 40/89/54 59/54/55 4/4/55
f 2/2/56 40/89/19 4/4/55
f 15/90/18 40/89/19 2/2/56
f 13/91/25 15/90/18 2/2/56
f 1/1/57 13/91/25 2/2/56
f 44/92/26 13/91/25 1/1/57
f 60/53/58 44/92/26 1/1/57
f 3/3/58 60/53/58 1/1/57
f 52/93/43 68/52/29 20/10/29
f 19/21/59 52/93/43 20/10/29
f 31/94/42 52/93/43 19/21/59
f 32/95/44 31/94/42 19/21/59
f 21/22/60 32/95/44 19/21/59
f 53/96/45 32/95/44 21/22/60
f 63/45/61 53/96/45 21/22/60
f 22/12/62 63/45/62 21/22/63
f 5/5/64 45/97/28 9/98/27
f 38/99/15 45/97/28 5/5/64
f 5/5/64 9/98/27 6/6/65
f 7/7/66 38/99/15 5/5/64
f 9/98/27 11/100/23 6/6/65
f 7/7/66 18/101/14 38/99/15
f 11/100/23 43/102/24 6/6/65
f 17/103/20 18/101/14 7/7/66
f 6/6/65 43/102/24 8/8/67
f 8/8/67 17/103/20 7/7/66
f 43/102/24 41/104/21 8/8/67
f 41/104/21 17/103/20 8/8/67
f 26/26/68 35/105/48 55/106/49
f 36/107/50 35/105/48 26/26/68
f 26/26/68 55/106/49 25/25/69
f 24/24/70 36/107/50 26/26/68
f 55/106/49 49/108/36 25/25/69
f 24/24/70 56/109/51 36/107/50
f 49/108/36 28/110/35 25/25/69
f 48/111/33 56/109/51 24/24/70
f 25/25/69 28/110/35 23/23/71
f 23/23/71 48/111/33 24/24/70
f 28/110/35 27/112/34 23/23/71
f 27/112/34 48/111/33 23/23/71
