# Blender 3.6.18
# www.blender.org
mtllib Mesh.1115.mtl
o Bistro_Research_Exterior_Paris_Building_01_paris_buildi_c13a3cb
v 4.552374 12.350718 -17.126125
v 8.445014 12.350718 -14.977948
v 4.552374 17.393389 -17.126127
v 8.445014 17.393389 -14.977948
v 3.990414 12.350718 -7.599547
v 3.990496 17.393387 -7.599740
v 0.435730 17.393387 -9.573164
v 0.428489 12.350718 -9.573627
v 2.494053 17.393389 -13.349647
v 1.978874 16.196157 -12.484269
v 1.156527 16.196161 -10.967047
v 1.156527 13.081917 -10.967045
v 2.490432 12.350718 -13.349875
v 1.978873 13.081917 -12.484266
v 4.162031 16.196157 -16.492716
v 3.339685 16.196159 -14.975492
v 3.339684 13.081917 -14.975492
v 4.162028 13.081916 -16.492714
vn -0.4890 -0.0039 0.8723
vn -0.8547 -0.0039 -0.5191
vn 0.4830 -0.0039 -0.8756
vn 0.8784 -0.0355 0.4766
vn 0.8784 -0.0354 0.4766
vn 0.8872 -0.0039 0.4614
vn 0.8872 -0.0040 0.4613
vn 0.8784 0.0355 0.4766
vn 0.8784 0.0354 0.4766
vn 0.8616 -0.0040 0.5075
vn 0.8616 -0.0039 0.5075
vn 0.8781 0.0433 0.4765
vn 0.8526 -0.0040 0.5225
vn 0.8526 -0.0039 0.5226
vn -0.0039 1.0000 -0.0039
vn -0.0039 -1.0000 -0.0039
vt -0.067078 0.785889
vt -0.067078 -0.516602
vt 1.612305 0.785889
vt 1.612305 -0.516602
vt 2.001953 1.668457
vt -0.494873 1.668457
vt 2.001953 -0.029297
vt -0.494629 -0.029297
vt 1.594727 1.059235
vt -0.086304 1.059204
vt 1.594727 -0.130859
vt -0.086304 -0.133789
vt 0.309814 -0.055664
vt 1.572266 -0.055664
vt 0.599121 0.342773
vt 1.106445 0.342773
vt 1.572266 1.622559
vt 1.106445 1.379395
vt 0.309570 1.622559
vt 0.599121 1.379395
vt -0.953125 -0.055664
vt -0.741211 0.342773
vt -0.233765 0.342773
vt -0.233765 1.379395
vt -0.953125 1.622559
vt -0.741211 1.379395
vt -1.089844 0.600830
vt -0.991699 -0.667969
vt 0.248901 0.713867
vt 1.699219 -0.557617
vt 1.587891 0.826904
vt -1.027344 1.269531
vt -1.076172 0.000000
vt 0.266113 -0.061523
vt 1.665039 1.265137
vt 1.608398 -0.122070
s 1
usemtl MASTER_Concrete_Smooth
f 1/1/1 2/2/1 3/3/1
f 2/2/1 4/4/1 3/3/1
f 2/5/2 5/6/2 4/7/2
f 5/6/2 6/8/2 4/7/2
f 6/9/3 5/10/3 7/11/3
f 5/10/3 8/12/3 7/11/3
f 9/13/4 7/14/4 10/15/4
f 7/14/5 11/16/5 10/15/5
f 7/14/6 8/17/6 11/16/6
f 8/17/7 12/18/7 11/16/7
f 8/17/8 13/19/8 12/18/8
f 13/19/9 14/20/9 12/18/9
f 13/19/10 9/13/10 14/20/10
f 9/13/11 10/15/11 14/20/11
f 3/21/4 9/13/4 15/22/4
f 9/13/4 16/23/4 15/22/4
f 9/13/6 13/19/6 16/23/6
f 13/19/7 17/24/7 16/23/7
f 13/19/12 1/25/12 17/24/12
f 1/25/12 18/26/12 17/24/12
f 1/25/13 3/21/13 18/26/13
f 3/21/14 15/22/14 18/26/14
f 8/27/15 5/28/15 13/29/15
f 5/28/15 2/30/15 13/29/15
f 2/30/15 1/31/15 13/29/15
f 6/32/16 7/33/16 9/34/16
f 4/35/16 6/32/16 9/34/16
f 4/35/16 9/34/16 3/36/16
