# Blender 3.6.18
# www.blender.org
mtllib Mesh.722.mtl
o Bistro_Research_Exterior_paris_building_05_5091
v 20.968185 11.839621 -39.676105
v 20.968185 8.964340 -39.676105
v 20.508514 8.964340 -38.900532
v 20.508516 11.839621 -38.900536
v 20.034668 11.839621 -38.101036
v 20.497028 11.839621 -38.881153
v 20.497030 8.964340 -38.881157
v 20.034666 8.964340 -38.101032
vn -0.8602 -0.0039 -0.5099
vt 0.251221 0.988487
vt 0.251221 0.225098
vt 0.497803 0.225098
vt 0.497803 0.988487
vt 0.249146 0.988487
vt 0.002602 0.988487
vt 0.002602 0.225098
vt 0.249146 0.225098
s 1
usemtl MASTER_Curtains
f 1/1/1 2/2/1 3/3/1
f 3/3/1 4/4/1 1/1/1
f 5/5/1 6/6/1 7/7/1
f 7/7/1 8/8/1 5/5/1
