# Blender 3.6.18
# www.blender.org
mtllib Mesh.762.mtl
o Bistro_Research_Exterior_paris_building_04_5009
v 12.132195 4.401225 -25.340450
v 13.386623 4.401225 -26.896193
v 12.001917 3.452017 -25.445498
v 13.256346 3.452017 -27.001240
v 6.335950 4.401224 -18.151951
v 7.590375 4.401224 -19.707689
v 6.205672 3.452017 -18.256996
v 7.460097 3.452017 -19.812735
vn -0.7672 0.1675 -0.6192
vt -0.146729 1.324951
vt -0.146729 2.958008
vt -0.934082 1.324951
vt -0.934082 2.958008
s 1
usemtl MASTER_Frosted_Glass
f 1/1/1 2/2/1 3/3/1
f 2/2/1 4/4/1 3/3/1
f 5/1/1 6/2/1 7/3/1
f 6/2/1 8/4/1 7/3/1
