# Blender 3.6.18
# www.blender.org
mtllib Mesh.350.mtl
o Bistro_Research_Exterior_paris_building_11_5889
v -2.337117 8.563363 21.773848
v -2.337117 10.940296 21.773848
v -2.388127 10.940296 21.742502
v -2.388127 8.563363 21.742502
v -2.394943 10.940296 21.738314
v -2.394943 8.563363 21.738314
v -2.373529 8.563363 21.692167
v -2.373529 10.940296 21.692167
v -2.365737 10.940296 21.693979
v -2.365737 8.563363 21.693979
v -2.306297 10.940296 21.707809
v -2.306297 8.563363 21.707809
v -2.391576 10.940296 21.731060
v -2.391576 8.563363 21.731058
v -2.376896 10.940296 21.699423
v -2.376896 8.563363 21.699423
vn -0.5283 -0.0039 0.8491
vn -0.5282 -0.0039 0.8491
vn -0.9584 -0.0039 0.2856
vn -0.4394 -0.0039 -0.8983
vn 0.2231 -0.0039 -0.9748
vn 0.2232 -0.0039 -0.9748
vn -0.9058 -0.0039 -0.4237
vt 0.801758 0.525879
vt 0.059052 0.525879
vt 0.059052 0.507568
vt 0.801758 0.507568
vt 0.059052 0.505127
vt 0.801758 0.505127
vt 0.198120 0.505859
vt 0.940918 0.505859
vt 0.940918 0.508301
vt 0.198120 0.508301
vt 0.940918 0.527100
vt 0.198120 0.527100
vt 0.198120 0.379883
vt 0.940918 0.379883
vt 0.940918 0.382324
vt 0.198120 0.382324
vt 0.940918 0.393555
vt 0.198120 0.393555
vt 0.940918 0.395996
vt 0.198120 0.395996
s 1
usemtl MASTER_Wood_Painted_Green
f 1/1/1 2/2/1 3/3/2
f 4/4/2 1/1/1 3/3/2
f 4/4/2 3/3/2 5/5/3
f 6/6/3 4/4/2 5/5/3
f 7/7/4 8/8/4 9/9/5
f 10/10/5 7/7/4 9/9/5
f 10/10/5 9/9/5 11/11/6
f 12/12/5 10/10/5 11/11/6
f 6/13/3 5/14/3 13/15/7
f 14/16/7 6/13/3 13/15/7
f 14/16/7 13/15/7 15/17/7
f 16/18/7 14/16/7 15/17/7
f 16/18/7 15/17/7 8/19/4
f 7/20/4 16/18/7 8/19/4
