# Blender 3.6.18
# www.blender.org
mtllib Mesh.766.mtl
o Bistro_Research_Exterior_paris_building_04_5001
v 17.266481 27.301516 -31.268137
v 12.109014 27.301516 -24.871851
v 22.136915 27.301519 -27.340998
v 16.979446 27.301519 -20.944710
v 17.266481 31.753630 -31.268137
v 22.136915 31.753626 -27.340996
v 12.109014 31.753626 -24.871851
v 16.979448 31.753626 -20.944708
v 11.159636 27.301516 -23.694431
v 6.002167 27.301514 -17.298143
v 16.030069 27.301516 -19.767292
v 10.872602 27.301514 -13.371005
v 11.159636 31.753630 -23.694431
v 16.030069 31.753624 -19.767292
v 6.002167 31.753624 -17.298143
v 10.872602 31.753624 -13.371005
v 9.648981 21.861780 -24.912504
v 4.491510 21.861780 -18.516216
v 14.519416 21.861784 -20.985367
v 9.361949 21.861778 -14.589078
v 9.648981 26.313892 -24.912504
v 14.519416 26.313892 -20.985365
v 4.491510 26.313892 -18.516216
v 9.361949 26.313894 -14.589078
v 15.755826 21.861780 -32.486210
v 10.598359 21.861780 -26.089922
v 20.626261 21.861780 -28.559072
v 15.468795 21.861780 -22.162783
v 15.755826 26.313896 -32.486210
v 20.626261 26.313896 -28.559072
v 10.598358 26.313896 -26.089926
v 15.468795 26.313896 -22.162783
v 9.648979 17.164986 -24.912506
v 4.491509 17.164986 -18.516220
v 14.519414 17.164982 -20.985369
v 9.361947 17.164982 -14.589079
v 9.648979 21.617092 -24.912506
v 14.519415 21.617092 -20.985367
v 4.491510 21.617092 -18.516214
v 9.361947 21.617094 -14.589079
v 15.755826 17.164982 -32.486210
v 10.598359 17.164982 -26.089926
v 20.626261 17.164982 -28.559072
v 15.468793 17.164982 -22.162785
v 15.755826 21.617092 -32.486210
v 20.626259 21.617096 -28.559076
v 10.598359 21.617092 -26.089926
v 15.468793 21.617096 -22.162786
v 9.648981 12.308186 -24.912506
v 4.491510 12.308185 -18.516218
v 14.519416 12.308185 -20.985369
v 9.361948 12.308185 -14.589079
v 9.648981 16.760298 -24.912504
v 14.519416 16.760298 -20.985369
v 4.491510 16.760298 -18.516218
v 9.361948 16.760302 -14.589079
v 15.755826 12.308186 -32.486214
v 10.598359 12.308186 -26.089924
v 20.626261 12.308186 -28.559074
v 15.468793 12.308186 -22.162785
v 15.755826 16.760302 -32.486210
v 20.626261 16.760298 -28.559072
v 10.598358 16.760302 -26.089926
v 15.468793 16.760302 -22.162785
v 9.648981 7.611387 -24.912506
v 4.491510 7.611387 -18.516216
v 14.519416 7.611387 -20.985367
v 9.361948 7.611387 -14.589080
v 9.648981 12.063498 -24.912506
v 14.519416 12.063498 -20.985367
v 4.491510 12.063498 -18.516218
v 9.361948 12.063498 -14.589079
v 15.755826 7.611387 -32.486214
v 10.598359 7.611387 -26.089924
v 20.626261 7.611387 -28.559074
v 15.468793 7.611387 -22.162785
v 15.755826 12.063498 -32.486214
v 20.626261 12.063498 -28.559074
v 10.598359 12.063498 -26.089924
v 15.468793 12.063498 -22.162785
vn -0.0039 1.0000 -0.0039
vn -0.0039 -1.0000 -0.0039
vn 0.6242 -0.0039 -0.7812
vn -0.7774 -0.0039 -0.6290
vn -0.6328 -0.0039 0.7743
vt 0.718750 1.297119
vt 0.348633 1.297119
vt 0.718750 1.020325
vt 0.348633 1.020325
vt 0.503906 -0.532227
vt 0.503906 -0.380859
vt 0.302002 -0.532227
vt 0.302002 -0.380859
vt 1.000000 0.016602
vt 1.000000 1.000000
vt 0.832031 0.016602
vt 0.832031 1.000000
vt 0.159424 0.016602
vt 0.159424 1.000000
vt 0.000000 0.016602
vt 0.000000 1.000000
s 1
usemtl MASTER_Room_Interior
f 1/1/1 2/2/1 3/3/1
f 2/2/1 4/4/1 3/3/1
f 5/5/2 6/6/2 7/7/2
f 6/6/2 8/8/2 7/7/2
f 2/9/3 7/10/3 4/11/3
f 7/10/3 8/12/3 4/11/3
f 4/11/4 8/12/4 3/13/4
f 8/12/4 6/14/4 3/13/4
f 3/13/5 6/14/5 1/15/5
f 6/14/5 5/16/5 1/15/5
f 9/1/1 10/2/1 11/3/1
f 10/2/1 12/4/1 11/3/1
f 13/5/2 14/6/2 15/7/2
f 14/6/2 16/8/2 15/7/2
f 10/9/3 15/10/3 12/11/3
f 15/10/3 16/12/3 12/11/3
f 12/11/4 16/12/4 11/13/4
f 16/12/4 14/14/4 11/13/4
f 11/13/5 14/14/5 9/15/5
f 14/14/5 13/16/5 9/15/5
f 17/1/1 18/2/1 19/3/1
f 18/2/1 20/4/1 19/3/1
f 21/5/2 22/6/2 23/7/2
f 22/6/2 24/8/2 23/7/2
f 18/9/3 23/10/3 20/11/3
f 23/10/3 24/12/3 20/11/3
f 20/11/4 24/12/4 19/13/4
f 24/12/4 22/14/4 19/13/4
f 19/13/5 22/14/5 17/15/5
f 22/14/5 21/16/5 17/15/5
f 25/1/1 26/2/1 27/3/1
f 26/2/1 28/4/1 27/3/1
f 29/5/2 30/6/2 31/7/2
f 30/6/2 32/8/2 31/7/2
f 26/9/3 31/10/3 28/11/3
f 31/10/3 32/12/3 28/11/3
f 28/11/4 32/12/4 27/13/4
f 32/12/4 30/14/4 27/13/4
f 27/13/5 30/14/5 25/15/5
f 30/14/5 29/16/5 25/15/5
f 33/1/1 34/2/1 35/3/1
f 34/2/1 36/4/1 35/3/1
f 37/5/2 38/6/2 39/7/2
f 38/6/2 40/8/2 39/7/2
f 34/9/3 39/10/3 36/11/3
f 39/10/3 40/12/3 36/11/3
f 36/11/4 40/12/4 35/13/4
f 40/12/4 38/14/4 35/13/4
f 35/13/5 38/14/5 33/15/5
f 38/14/5 37/16/5 33/15/5
f 41/1/1 42/2/1 43/3/1
f 42/2/1 44/4/1 43/3/1
f 45/5/2 46/6/2 47/7/2
f 46/6/2 48/8/2 47/7/2
f 42/9/3 47/10/3 44/11/3
f 47/10/3 48/12/3 44/11/3
f 44/11/4 48/12/4 43/13/4
f 48/12/4 46/14/4 43/13/4
f 43/13/5 46/14/5 41/15/5
f 46/14/5 45/16/5 41/15/5
f 49/1/1 50/2/1 51/3/1
f 50/2/1 52/4/1 51/3/1
f 53/5/2 54/6/2 55/7/2
f 54/6/2 56/8/2 55/7/2
f 50/9/3 55/10/3 52/11/3
f 55/10/3 56/12/3 52/11/3
f 52/11/4 56/12/4 51/13/4
f 56/12/4 54/14/4 51/13/4
f 51/13/5 54/14/5 49/15/5
f 54/14/5 53/16/5 49/15/5
f 57/1/1 58/2/1 59/3/1
f 58/2/1 60/4/1 59/3/1
f 61/5/2 62/6/2 63/7/2
f 62/6/2 64/8/2 63/7/2
f 58/9/3 63/10/3 60/11/3
f 63/10/3 64/12/3 60/11/3
f 60/11/4 64/12/4 59/13/4
f 64/12/4 62/14/4 59/13/4
f 59/13/5 62/14/5 57/15/5
f 62/14/5 61/16/5 57/15/5
f 65/1/1 66/2/1 67/3/1
f 66/2/1 68/4/1 67/3/1
f 69/5/2 70/6/2 71/7/2
f 70/6/2 72/8/2 71/7/2
f 66/9/3 71/10/3 68/11/3
f 71/10/3 72/12/3 68/11/3
f 68/11/4 72/12/4 67/13/4
f 72/12/4 70/14/4 67/13/4
f 67/13/5 70/14/5 65/15/5
f 70/14/5 69/16/5 65/15/5
f 73/1/1 74/2/1 75/3/1
f 74/2/1 76/4/1 75/3/1
f 77/5/2 78/6/2 79/7/2
f 78/6/2 80/8/2 79/7/2
f 74/9/3 79/10/3 76/11/3
f 79/10/3 80/12/3 76/11/3
f 76/11/4 80/12/4 75/13/4
f 80/12/4 78/14/4 75/13/4
f 75/13/5 78/14/5 73/15/5
f 78/14/5 77/16/5 73/15/5
