# Blender 3.6.18
# www.blender.org
mtllib Mesh.471.mtl
o Bistro_Research_Exterior_paris_building_11_5623
v 0.954825 13.474662 22.374266
v -0.691881 13.474662 21.700914
v 0.954825 16.387943 22.374266
v -0.691880 16.387943 21.700914
v 0.986436 13.391141 22.296959
v 1.935414 13.391140 19.976191
v -0.660269 13.391141 21.623608
v 0.288709 13.391140 19.302841
v -0.737576 13.474661 21.591999
v 0.211402 13.474661 19.271229
v -0.737576 16.387943 21.591997
v 0.211402 16.387943 19.271229
v -0.660269 16.471464 21.623606
v 0.288709 16.471466 19.302839
v 0.986436 16.471464 22.296957
v 1.935414 16.471466 19.976191
v 1.063743 16.387943 22.328569
v 2.012721 16.387943 20.007801
v 1.063743 13.474661 22.328569
v 2.012721 13.474661 20.007801
vn 0.3721 -0.0039 -0.9282
vn -0.0039 1.0000 -0.0039
vn 0.9271 -0.0039 0.3748
vn -0.0039 -1.0000 -0.0039
vn -0.9255 -0.0039 -0.3788
vn 0.6535 0.7089 0.2653
vn 0.6006 0.7577 -0.2552
vn 0.6535 0.7089 0.2654
vn 0.8761 0.4597 -0.1454
vn 0.6007 0.7577 -0.2552
vn -0.2540 0.7541 -0.6056
vn -0.5279 0.4575 -0.7156
vn -0.6566 0.7038 -0.2713
vn 0.6498 -0.7128 0.2639
vn 0.8730 -0.4658 -0.1448
vn 0.5971 -0.7610 -0.2537
vn 0.8729 -0.4658 -0.1448
vn -0.6530 -0.7077 -0.2698
vn -0.2525 -0.7574 -0.6021
vn -0.5260 -0.4636 -0.7130
vn -0.2525 -0.7575 -0.6021
vn -0.1444 0.4565 -0.8779
vn 0.7117 0.4601 -0.5309
vn -0.1438 -0.4627 -0.8748
vn 0.7091 -0.4662 -0.5289
vt 0.503906 0.076172
vt 1.059570 0.076172
vt 0.503906 0.986198
vt 1.059570 0.986198
vt 0.495850 1.543945
vt 0.495850 2.327148
vt -0.060059 1.543945
vt -0.060059 2.327148
vt 0.923828 1.543945
vt 0.923828 2.327148
vt 0.013802 1.543945
vt 0.013802 2.327148
vt 1.059570 1.543945
vt 1.059570 2.327148
vt 0.503906 1.543945
vt 0.503906 2.327148
vt 0.985840 1.543945
vt 0.985840 2.327148
vt 0.075745 1.543945
vt 0.075745 2.327148
vt -0.086121 2.327148
vt -0.086121 1.543945
vt 0.049683 1.543945
vt 0.049683 2.327148
vt -0.012291 2.327148
vt -0.012291 1.543945
vt 0.477783 2.327148
vt 0.477783 1.543945
vt 0.477783 0.076172
vt 0.503906 0.049805
vt 0.477783 0.986198
vt 1.059570 0.049805
vt 0.503906 1.012291
vt 1.085938 0.076172
vt 1.059570 1.012291
vt 1.085938 0.986198
s 1
usemtl MASTER_Room_Interior
f 1/1/1 2/2/1 3/3/1
f 2/2/1 4/4/1 3/3/1
f 5/5/2 6/6/2 7/7/2
f 6/6/2 8/8/2 7/7/2
f 9/9/3 10/10/3 11/11/3
f 10/10/3 12/12/3 11/11/3
f 13/13/4 14/14/4 15/15/4
f 14/14/4 16/16/4 15/15/4
f 17/17/5 18/18/5 19/19/5
f 18/18/5 20/20/5 19/19/5
f 8/8/6 10/21/6 7/7/7
f 10/21/8 9/22/9 7/7/10
f 5/23/11 19/19/12 6/24/13
f 19/19/12 20/20/13 6/24/13
f 12/12/14 14/25/14 11/11/15
f 14/25/14 13/26/16 11/11/17
f 16/16/18 18/27/18 15/15/19
f 18/27/18 17/28/20 15/15/21
f 1/1/22 19/29/12 5/30/11
f 17/31/20 19/29/12 1/1/22
f 1/1/22 5/30/11 2/2/23
f 3/3/24 17/31/20 1/1/22
f 5/30/11 7/32/10 2/2/23
f 3/3/24 15/33/21 17/31/20
f 7/32/10 9/34/9 2/2/23
f 13/35/16 15/33/21 3/3/24
f 2/2/23 9/34/9 4/4/25
f 4/4/25 13/35/16 3/3/24
f 9/34/9 11/36/17 4/4/25
f 11/36/17 13/35/16 4/4/25
