# Blender 3.6.18
# www.blender.org
mtllib Mesh.1011.mtl
o Bistro_Research_Exterior_Paris_Building_01_paris_buildi_5c62750
v 11.356892 7.973717 6.020205
v 11.356032 8.782319 6.019871
v 11.346915 7.973717 6.043727
v 11.346736 8.781966 6.042847
v 11.342566 8.781899 6.046296
v 11.342675 7.973717 6.047143
v 11.327647 7.973717 6.041303
v 11.328300 8.781899 6.040751
v 11.327555 8.781966 6.035392
v 11.326827 7.973717 6.035919
v 11.335352 7.973717 6.011834
v 11.336211 8.782319 6.012168
v 12.741734 7.973716 6.558397
v 12.740875 8.782318 6.558064
v 12.731759 7.973717 6.581918
v 12.731579 8.781965 6.581038
v 12.727410 8.781898 6.584487
v 12.727519 7.973716 6.585335
v 12.712490 7.973716 6.579495
v 12.713143 8.781898 6.578943
v 12.712397 8.781965 6.573584
v 12.711670 7.973717 6.574111
v 12.720196 7.973716 6.550027
v 12.721055 8.782318 6.550360
v 11.215432 8.639922 5.951936
v 12.860094 8.639920 6.591101
v 11.195996 8.640298 6.001949
v 12.840657 8.640297 6.641115
v 12.838959 8.643743 6.645488
v 11.194297 8.643744 6.006323
v 11.194297 8.661364 6.006323
v 12.838958 8.661364 6.645488
v 12.840658 8.664810 6.641115
v 11.195995 8.664811 6.001949
v 11.215433 8.665187 5.951936
v 12.860094 8.665186 6.591101
v 11.215433 7.953618 5.951936
v 12.860094 7.953617 6.591101
v 11.195995 7.953994 6.001949
v 12.840658 7.953993 6.641115
v 12.838959 7.957439 6.645488
v 11.194297 7.957441 6.006322
v 11.194296 7.975060 6.006322
v 12.838958 7.975060 6.645488
v 12.840659 7.978506 6.641115
v 11.195995 7.978507 6.001949
v 11.215432 7.978883 5.951936
v 12.860094 7.978882 6.591101
v 11.201244 8.771261 5.940432
v 11.201244 8.779583 5.940431
v 12.882872 8.779581 6.593503
v 12.882872 8.771260 6.593503
v 12.881032 8.768403 6.598270
v 11.199453 8.768404 5.945216
v 11.183684 8.768403 5.987339
v 12.865134 8.768403 6.639437
v 12.863294 8.771260 6.644205
v 11.181893 8.771261 5.992124
v 11.181893 8.779583 5.992124
v 12.863294 8.779582 6.644205
vn 0.9243 -0.0039 0.3815
vn 0.9244 -0.0039 0.3815
vn -0.3653 0.0013 0.9309
vn -0.3653 -0.0039 0.9309
vn -0.9381 -0.0039 -0.3464
vn 0.9243 -0.0039 0.3816
vn -0.0039 -1.0000 0.0039
vn -0.0018 -1.0000 0.0047
vn -0.3623 -0.0039 0.9321
vn -0.0018 1.0000 0.0048
vn -0.0039 1.0000 0.0039
vn -0.0040 1.0000 0.0039
vn -0.3622 -0.0040 0.9321
vn -0.0040 1.0000 0.0040
vn -0.0039 1.0000 0.0040
vn 0.3621 -0.0039 -0.9321
vn 0.3559 -0.0039 -0.9345
vn 0.3558 -0.0039 -0.9345
vn 0.3558 -0.0039 -0.9346
vn -0.0039 -1.0000 -0.0039
vn -0.0020 -1.0000 -0.0032
vn -0.3615 -0.0039 0.9323
vt 0.960449 0.530762
vt 0.647461 0.530273
vt 0.960449 0.525391
vt 0.647461 0.525146
vt 0.647461 0.523682
vt 0.960449 0.523926
vt 0.960449 0.517822
vt 0.647461 0.517822
vt 0.647461 0.516602
vt 0.960449 0.516357
vt 0.960449 0.510986
vt 0.647461 0.511230
vt 0.960449 0.417480
vt 0.647461 0.416992
vt 0.960449 0.412109
vt 0.647461 0.411621
vt 0.647461 0.410156
vt 0.960449 0.410645
vt 0.960449 0.404297
vt 0.647461 0.404297
vt 0.647461 0.402832
vt 0.960449 0.402832
vt 0.960449 0.397461
vt 0.647461 0.397949
vt 1.385742 0.067871
vt 2.089844 0.067871
vt 1.385742 0.079590
vt 2.089844 0.079590
vt 2.089844 0.081543
vt 1.385742 0.081543
vt 1.385742 0.088379
vt 2.089844 0.088379
vt 2.089844 0.089844
vt 1.385742 0.089844
vt 1.385742 0.101562
vt 2.089844 0.101562
vt 2.085938 0.278809
vt 1.383789 0.278809
vt 2.085938 0.267090
vt 1.383789 0.267090
vt 1.383789 0.265137
vt 2.085938 0.265137
vt 2.085938 0.258301
vt 1.383789 0.258301
vt 1.383789 0.256836
vt 2.085938 0.256836
vt 2.085938 0.245117
vt 1.383789 0.245117
vt 0.220337 0.269531
vt 0.220337 0.266113
vt 0.913086 0.266113
vt 0.913086 0.269043
vt 0.913086 0.270996
vt 0.220337 0.270996
vt 0.220581 0.280273
vt 0.913086 0.279785
vt 0.913086 0.281738
vt 0.220581 0.281738
vt 0.220581 0.284668
vt 0.913086 0.284668
s 1
usemtl MASTER_Grain_Metal
f 1/1/1 2/2/1 3/3/1
f 2/2/1 4/4/2 3/3/1
f 3/3/1 4/4/2 5/5/3
f 6/6/4 3/3/1 5/5/3
f 6/6/4 5/5/3 7/7/3
f 5/5/3 8/8/4 7/7/3
f 8/8/4 9/9/5 7/7/3
f 9/9/5 10/10/5 7/7/3
f 11/11/5 10/10/5 9/9/5
f 12/12/5 11/11/5 9/9/5
f 13/13/1 14/14/6 15/15/1
f 14/14/6 16/16/1 15/15/1
f 15/15/1 16/16/1 17/17/3
f 18/18/4 15/15/1 17/17/3
f 18/18/4 17/17/3 19/19/3
f 17/17/3 20/20/4 19/19/3
f 20/20/4 21/21/5 19/19/3
f 21/21/5 22/22/5 19/19/3
f 23/23/5 22/22/5 21/21/5
f 24/24/5 23/23/5 21/21/5
f 25/25/7 26/26/7 27/27/8
f 26/26/7 28/28/7 27/27/8
f 27/27/8 28/28/7 29/29/9
f 30/30/4 27/27/8 29/29/9
f 30/30/4 29/29/9 31/31/9
f 29/29/9 32/32/4 31/31/9
f 32/32/4 33/33/10 31/31/9
f 33/33/10 34/34/11 31/31/9
f 35/35/12 34/34/11 33/33/10
f 36/36/12 35/35/12 33/33/10
f 37/37/7 38/38/7 39/39/8
f 38/38/7 40/40/7 39/39/8
f 39/39/8 40/40/7 41/41/9
f 42/42/4 39/39/8 41/41/9
f 42/42/4 41/41/9 43/43/13
f 41/41/9 44/44/4 43/43/13
f 44/44/4 45/45/10 43/43/13
f 45/45/10 46/46/14 43/43/13
f 47/47/15 46/46/14 45/45/10
f 48/48/12 47/47/15 45/45/10
f 49/49/16 50/50/17 51/51/18
f 52/52/19 49/49/16 51/51/18
f 49/49/16 52/52/19 53/53/20
f 54/54/20 49/49/16 53/53/20
f 54/54/20 53/53/20 55/55/21
f 53/53/20 56/56/20 55/55/21
f 56/56/20 57/57/22 55/55/21
f 57/57/22 58/58/4 55/55/21
f 58/58/4 57/57/22 59/59/4
f 57/57/22 60/60/4 59/59/4
