# Blender 3.6.18
# www.blender.org
mtllib Mesh.941.mtl
o Bistro_Research_Exterior_Paris_Building_01_paris_buildi_7f2ca6f
v -1.694008 6.666188 -6.953345
v -1.703025 6.648446 -6.958207
v -1.687290 6.666188 -6.965806
v -1.696306 6.648446 -6.970667
v -1.721057 6.648446 -6.967929
v -1.714339 6.648446 -6.980389
v -1.730073 6.666188 -6.972789
v -1.723355 6.666188 -6.985250
v -1.721057 6.683929 -6.967928
v -1.714339 6.683928 -6.980390
v -1.703025 6.683929 -6.958206
v -1.696306 6.683928 -6.970667
v -1.853874 6.666187 -6.656832
v -1.862890 6.683928 -6.661693
v -1.860592 6.666187 -6.644372
v -1.869609 6.683929 -6.649233
v -1.880923 6.683928 -6.671415
v -1.887640 6.683929 -6.658956
v -1.889939 6.666187 -6.676276
v -1.896657 6.666187 -6.663816
v -1.880923 6.648446 -6.671415
v -1.887640 6.648447 -6.658955
v -1.862890 6.648446 -6.661693
v -1.869608 6.648447 -6.649233
v -1.903209 6.668409 -6.683210
v -1.895920 6.668410 -6.696730
v -1.899381 6.652178 -6.681145
v -1.892091 6.652177 -6.694665
v -1.888922 6.640295 -6.675506
v -1.881632 6.640294 -6.689026
v -1.874634 6.635946 -6.667803
v -1.867344 6.635946 -6.681323
v -1.695426 6.635946 -6.571182
v -1.701577 6.635946 -6.591949
v -1.628882 6.635946 -6.726780
v -1.615441 6.635946 -6.719534
v -1.701577 6.700874 -6.591949
v -1.628882 6.700874 -6.726780
v -1.701577 6.668410 -6.591949
v -1.628882 6.668410 -6.726780
v -1.615441 6.700874 -6.719534
v -1.695426 6.700874 -6.571182
v -1.615441 6.668410 -6.719534
v -1.695426 6.668409 -6.571183
v -1.743241 6.668410 -6.979913
v -1.750530 6.668410 -6.966393
v -1.746702 6.684642 -6.964328
v -1.739412 6.684642 -6.977849
v -1.736243 6.696525 -6.958689
v -1.728953 6.696525 -6.972209
v -1.721955 6.700875 -6.950986
v -1.714665 6.700874 -6.964506
v -1.556187 6.700875 -6.861612
v -1.535457 6.700875 -6.867886
v -1.535457 6.635946 -6.867886
v -1.535457 6.668410 -6.867886
v -1.892091 6.684642 -6.694666
v -1.899381 6.684643 -6.681146
v -1.881632 6.696525 -6.689026
v -1.888922 6.696526 -6.675506
v -1.867344 6.700874 -6.681323
v -1.874634 6.700874 -6.667802
v -1.739412 6.652177 -6.977849
v -1.746702 6.652177 -6.964328
v -1.728953 6.640295 -6.972209
v -1.736243 6.640295 -6.958689
v -1.714665 6.635945 -6.964507
v -1.721955 6.635946 -6.950987
v -1.556187 6.635946 -6.861612
v -1.556187 6.668410 -6.861613
v -1.874634 6.668409 -6.667803
v -1.714665 6.668410 -6.964506
v -1.867344 6.668410 -6.681323
v -1.721955 6.668410 -6.950986
vn 0.7599 -0.5080 0.4056
vn 0.7599 -0.5079 0.4056
vn -0.0039 -1.0000 -0.0039
vn -0.7608 -0.5033 -0.4097
vn -0.7638 0.4974 -0.4113
vn -0.7638 0.4975 -0.4113
vn -0.0039 1.0000 -0.0039
vn 0.7630 0.5021 0.4072
vn 0.7630 0.5020 0.4072
vn -0.8774 -0.0039 -0.4797
vn -0.4421 -0.8646 -0.2386
vn -0.1214 -0.9904 -0.0666
vn -0.1214 -0.9904 -0.0665
vn 0.8789 -0.0039 0.4769
vn -0.4451 0.8626 -0.2403
vn -0.1223 0.9902 -0.0671
vn -0.7608 -0.5034 -0.4097
vn -0.4421 -0.8646 -0.2387
vn -0.4421 -0.8647 -0.2386
vn 0.4736 -0.0039 -0.8807
vn -0.4830 -0.0039 0.8756
vn -0.4829 -0.0039 0.8756
vn 0.4736 -0.0040 -0.8807
vt 0.256104 0.292480
vt 0.256104 0.318359
vt 0.238403 0.292480
vt 0.238403 0.318359
vt 0.333740 0.281738
vt 0.333740 0.307129
vt 0.316162 0.281738
vt 0.316162 0.307129
vt 0.259033 0.337402
vt 0.259033 0.363281
vt 0.241455 0.337402
vt 0.241455 0.363281
vt 0.284424 0.336914
vt 0.284424 0.311035
vt 0.302246 0.336914
vt 0.302246 0.311035
vt 0.296631 0.253906
vt 0.296631 0.228027
vt 0.314209 0.253906
vt 0.314209 0.228027
vt 0.332275 0.260254
vt 0.332275 0.234375
vt 0.350098 0.260254
vt 0.350098 0.234375
vt 0.995117 0.410645
vt 0.976074 0.410645
vt 0.995117 0.389648
vt 0.976074 0.389648
vt 0.995605 0.368652
vt 0.976074 0.368652
vt 0.995605 0.347656
vt 0.976074 0.347656
vt 0.995117 0.093262
vt 0.975586 0.112305
vt 0.784180 0.112305
vt 0.784180 0.093262
vt 0.987793 0.078125
vt 0.819824 0.078125
vt 0.987793 0.042969
vt 0.819824 0.042969
vt 0.987793 0.007324
vt 0.819824 0.007324
vt 0.503418 0.387207
vt 0.662598 0.387207
vt 0.503418 0.417969
vt 0.662598 0.417969
vt 0.503418 0.448730
vt 0.662598 0.448730
vt 0.820801 0.234375
vt 0.801270 0.234375
vt 0.801270 0.255371
vt 0.820801 0.255371
vt 0.801758 0.276367
vt 0.820801 0.276367
vt 0.801758 0.297363
vt 0.820801 0.297363
vt 0.801270 0.532715
vt 0.820312 0.551758
vt 0.609863 0.551758
vt 0.609863 0.532715
vt 0.252197 0.277344
vt 0.230103 0.264648
vt 0.230103 0.238770
vt 0.252197 0.226074
vt 0.274414 0.238770
vt 0.274414 0.264648
vt 0.832520 0.377441
vt 0.832520 0.123047
vt 0.872559 0.123047
vt 0.872559 0.377441
vt 0.837891 0.397949
vt 0.913574 0.123047
vt 0.852539 0.412598
vt 0.913574 0.377441
vt 0.872559 0.417969
vt 0.908203 0.397949
vt 0.893066 0.412598
vt 0.987305 0.894348
vt 0.758789 0.894348
vt 0.987305 0.855225
vt 0.758789 0.815796
vt 0.987305 0.815796
vt 0.758789 0.855225
vt 0.739258 0.889099
vt 0.739258 0.821045
vt 0.724609 0.874756
vt 0.724609 0.835327
vt 0.719238 0.855103
s 1
usemtl MASTER_Focus
f 1/1/1 2/2/1 3/3/1
f 2/2/2 4/4/2 3/3/2
f 2/5/3 5/6/3 4/7/3
f 5/6/3 6/8/3 4/7/3
f 5/9/4 7/10/4 6/11/4
f 7/10/4 8/12/4 6/11/4
f 7/13/5 9/14/5 8/15/5
f 9/14/6 10/16/6 8/15/6
f 9/17/7 11/18/7 10/19/7
f 11/18/7 12/20/7 10/19/7
f 11/21/8 1/22/8 12/23/8
f 1/22/8 3/24/8 12/23/8
f 13/1/8 14/2/8 15/3/8
f 14/2/9 16/4/9 15/3/9
f 14/5/7 17/6/7 16/7/7
f 17/6/7 18/8/7 16/7/7
f 17/9/5 19/10/5 18/11/5
f 19/10/5 20/12/5 18/11/5
f 19/13/4 21/14/4 20/15/4
f 21/14/4 22/16/4 20/15/4
f 21/17/3 23/18/3 22/19/3
f 23/18/3 24/20/3 22/19/3
f 23/21/2 13/22/2 24/23/2
f 13/22/2 15/24/2 24/23/2
f 25/25/10 26/26/10 27/27/4
f 26/26/10 28/28/4 27/27/4
f 27/27/4 28/28/4 29/29/11
f 28/28/4 30/30/11 29/29/11
f 29/29/11 30/30/11 31/31/12
f 30/30/11 32/32/13 31/31/12
f 31/31/12 32/32/13 33/33/3
f 32/32/13 34/34/3 33/33/3
f 34/34/3 35/35/3 33/33/3
f 35/35/3 36/36/3 33/33/3
f 37/37/10 38/38/10 39/39/10
f 38/38/10 40/40/10 39/39/10
f 34/41/10 39/39/10 40/40/10
f 35/42/10 34/41/10 40/40/10
f 41/43/14 42/44/14 43/45/14
f 42/44/14 44/46/14 43/45/14
f 43/45/14 44/46/14 36/47/14
f 44/46/14 33/48/14 36/47/14
f 45/49/10 46/50/10 47/51/6
f 48/52/5 45/49/10 47/51/6
f 48/52/5 47/51/6 49/53/15
f 50/54/15 48/52/5 49/53/15
f 50/54/15 49/53/15 51/55/16
f 52/56/16 50/54/15 51/55/16
f 52/56/16 51/55/16 53/57/7
f 54/58/7 52/56/16 53/57/7
f 41/59/7 54/58/7 53/57/7
f 38/60/7 41/59/7 53/57/7
f 36/47/14 55/48/14 56/46/14
f 43/45/14 36/47/14 56/46/14
f 43/45/14 56/46/14 54/44/14
f 41/43/14 43/45/14 54/44/14
f 57/51/6 26/50/10 25/49/10
f 58/52/6 57/51/6 25/49/10
f 59/53/15 57/51/6 58/52/6
f 60/54/15 59/53/15 58/52/6
f 61/55/16 59/53/15 60/54/15
f 62/56/16 61/55/16 60/54/15
f 37/57/7 61/55/16 62/56/16
f 42/58/7 37/57/7 62/56/16
f 37/57/7 42/58/7 41/59/7
f 38/60/7 37/57/7 41/59/7
f 45/25/10 63/27/4 46/26/10
f 63/27/4 64/28/17 46/26/10
f 63/27/4 65/29/18 64/28/17
f 65/29/18 66/30/19 64/28/17
f 65/29/18 67/31/13 66/30/19
f 67/31/13 68/32/12 66/30/19
f 67/31/13 55/33/3 68/32/12
f 55/33/3 69/34/3 68/32/12
f 69/34/3 55/33/3 35/35/3
f 55/33/3 36/36/3 35/35/3
f 53/37/10 70/39/10 38/38/10
f 70/39/10 40/40/10 38/38/10
f 40/40/10 70/39/10 69/41/10
f 35/42/10 40/40/10 69/41/10
f 8/61/20 10/62/20 12/63/20
f 3/64/20 8/61/20 12/63/20
f 3/64/20 4/65/20 8/61/20
f 4/65/20 6/66/20 8/61/20
f 20/61/21 22/62/21 24/63/21
f 15/64/21 20/61/21 24/63/21
f 15/64/21 16/65/21 20/61/21
f 16/65/21 18/66/21 20/61/21
f 31/67/21 33/68/21 44/69/21
f 71/70/22 31/67/21 44/69/21
f 29/71/21 31/67/21 71/70/22
f 71/70/22 44/69/21 42/72/21
f 27/73/21 29/71/21 71/70/22
f 62/74/21 71/70/22 42/72/21
f 25/75/22 27/73/21 71/70/22
f 71/70/22 62/74/21 60/76/21
f 25/75/22 71/70/22 58/77/21
f 71/70/22 60/76/21 58/77/21
f 56/69/20 55/68/20 67/67/20
f 72/70/23 56/69/20 67/67/20
f 54/72/20 56/69/20 72/70/23
f 65/71/20 72/70/23 67/67/20
f 52/74/20 54/72/20 72/70/23
f 63/73/20 72/70/23 65/71/20
f 72/70/23 50/76/20 52/74/20
f 45/75/20 72/70/23 63/73/20
f 72/70/23 48/77/20 50/76/20
f 45/75/20 48/77/20 72/70/23
f 34/78/20 32/79/20 39/80/20
f 61/81/20 37/82/20 39/80/20
f 32/79/20 73/83/20 39/80/20
f 73/83/20 61/81/20 39/80/20
f 73/83/20 32/79/20 30/84/20
f 59/85/20 61/81/20 73/83/20
f 73/83/20 30/84/20 28/86/23
f 59/85/20 73/83/20 57/87/20
f 73/83/20 28/86/23 26/88/20
f 73/83/20 26/88/20 57/87/20
f 69/78/21 70/80/21 68/79/21
f 70/80/21 53/82/21 51/81/21
f 70/80/21 74/83/21 68/79/21
f 74/83/21 70/80/21 51/81/21
f 74/83/21 66/84/21 68/79/21
f 49/85/21 74/83/21 51/81/21
f 74/83/21 64/86/21 66/84/21
f 49/85/21 47/87/21 74/83/21
f 74/83/21 46/88/21 64/86/21
f 74/83/21 47/87/21 46/88/21
