# Blender 3.6.18
# www.blender.org
mtllib Mesh.373.mtl
o Bistro_Research_Exterior_paris_building_11_5843
v -2.712296 13.661087 22.278128
v -2.712295 16.226398 22.278128
v -2.475402 13.661056 22.372341
v -2.475401 16.226412 22.372343
v -3.063385 13.661089 22.552765
v -3.063387 16.226397 22.552773
v -3.001133 13.661089 22.400526
v -3.001135 16.226397 22.400532
v -3.054670 13.661087 22.573729
v -2.630045 13.661055 22.750614
v -3.054673 16.226397 22.573734
v -2.630047 16.226412 22.750620
v -2.741346 13.661084 22.279621
v -2.852046 13.661056 22.337427
v -2.741346 16.226398 22.279621
v -2.852046 16.226412 22.337433
v -2.979920 16.226398 22.380604
v -2.979918 13.661084 22.380598
v -2.213364 13.661087 21.057970
v -1.978329 13.661056 21.156727
v -2.213364 16.226398 21.057970
v -1.978329 16.226412 21.156729
v -2.271437 13.661089 20.616024
v -2.333688 13.661089 20.768259
v -2.271434 16.226397 20.616016
v -2.333685 16.226398 20.768253
v -2.250532 13.661087 20.607172
v -2.250529 16.226398 20.607164
v -1.823626 13.661056 20.778481
v -1.823623 16.226412 20.778475
v -2.233045 13.661084 21.036549
v -2.233044 16.226398 21.036549
v -2.271526 13.661056 20.917742
v -2.271523 16.226412 20.917740
v -2.332511 16.226398 20.797337
v -2.332513 13.661084 20.797342
v -2.837788 13.645050 22.344688
v -2.980330 13.645083 22.391926
v -2.837790 16.242413 22.344692
v -2.726259 16.242403 22.289793
v -2.980332 16.242399 22.391932
v -2.623987 16.242414 22.735813
v -3.048617 16.242401 22.558926
v -2.726260 13.645077 22.289795
v -3.048615 13.645081 22.558918
v -2.623985 13.645045 22.735806
v -1.829678 13.645046 20.793295
v -2.256588 13.645081 20.621983
v -2.256584 16.242401 20.621975
v -1.829674 16.242414 20.793287
v -2.256265 13.645050 20.922550
v -2.215154 13.645077 21.039862
v -2.215153 16.242403 21.039860
v -2.256263 16.242414 20.922546
v -2.324870 16.242401 20.788967
v -2.324873 13.645083 20.788973
v -2.556295 16.242453 22.570404
v -2.528510 16.242453 22.502224
v -2.481457 16.242416 22.387154
v -2.481457 13.645043 22.387152
v -2.528509 13.644956 22.502216
v -2.556291 13.644956 22.570393
v -1.972273 16.242416 21.141920
v -1.925220 16.242455 21.026850
v -1.897272 16.242455 20.958733
v -1.897276 13.644956 20.958746
v -1.925222 13.644956 21.026852
v -1.972273 13.645043 21.141918
vn 0.3653 -0.0039 -0.9309
vn -0.9255 -0.0039 -0.3788
vn -0.3882 -0.0039 0.9216
vn -0.4643 -0.0039 -0.8857
vn -0.3949 -0.0039 -0.9187
vn -0.3232 -0.0039 -0.9463
vn -0.9533 -0.0039 0.3021
vn -0.9255 -0.0039 0.3788
vn -0.8936 -0.0039 0.4488
vn -0.2916 -0.6027 -0.7427
vn -0.3156 -0.6350 -0.7051
vn -0.5268 -0.3629 -0.7687
vn -0.5104 -0.5883 -0.6273
vn -0.2930 0.5977 -0.7463
vn -0.3171 0.6303 -0.7086
vn -0.1917 0.4342 -0.8802
vn -0.0431 0.6621 -0.7482
vn -0.5282 0.3561 -0.7708
vn -0.5127 0.5832 -0.6301
vn -0.2800 0.7059 0.6507
vn -0.7185 0.4594 0.5222
vn -0.6068 0.7556 0.2466
vn -0.1910 -0.4405 -0.8772
vn -0.0429 -0.6664 -0.7444
vn -0.7159 -0.4656 0.5203
vn -0.6033 -0.7589 0.2452
vn -0.2784 -0.7098 0.6470
vn -0.6032 -0.7589 0.2452
vn -0.2784 -0.7098 0.6471
vn 0.2612 -0.7056 -0.6588
vn -0.1439 -0.4627 -0.8748
vn -0.2525 -0.7575 -0.6021
vn -0.1444 0.4565 -0.8779
vn -0.2540 0.7541 -0.6056
vn 0.2626 0.7016 -0.6624
vn -0.2540 0.7541 -0.6057
vn -0.7285 -0.6039 0.3234
vn -0.7173 -0.6388 0.2783
vn -0.7499 -0.4436 0.4908
vn -0.5520 -0.6694 0.4972
vn -0.7525 0.4373 0.4925
vn -0.5549 0.6651 0.4998
vn -0.7319 0.5989 0.3249
vn -0.7208 0.6342 0.2797
vn -0.9180 0.3555 0.1758
vn -0.8089 0.5822 0.0821
vn -0.9154 -0.3623 0.1753
vn -0.8052 -0.5874 0.0817
vn -0.0039 1.0000 -0.0039
vn -0.0039 -1.0000 -0.0039
vn -0.0431 0.6620 -0.7482
vn 0.2553 0.7030 -0.6637
vn 0.0903 0.4594 -0.8836
vn 0.2553 0.7030 -0.6638
vn 0.0900 -0.4657 -0.8804
vn 0.2539 -0.7069 -0.6601
vn 0.2539 -0.7070 -0.6601
vn 0.0900 -0.4656 -0.8804
vn -0.5515 -0.4654 0.6923
vn -0.5535 0.4593 0.6948
vn -0.2799 0.7059 0.6507
vn -0.8766 -0.4636 0.1286
vn -0.8798 0.4575 0.1291
vn -0.7126 -0.4556 -0.5335
vn -0.7151 0.4494 -0.5354
vn -0.8855 0.4486 -0.1209
vn -0.5335 0.4556 -0.7126
vn -0.8824 -0.4548 -0.1205
vn -0.5316 -0.4617 -0.7101
vt 0.503418 -0.586914
vt 0.503418 0.214844
vt 0.423828 -0.586914
vt 0.423828 0.214844
vt 0.509277 -0.586914
vt 0.509277 0.214844
vt 0.458252 -0.586914
vt 0.458252 0.214844
vt 0.432129 -0.586914
vt 0.575684 -0.586914
vt 0.432129 0.214844
vt 0.575684 0.214844
vt 0.392578 -0.586914
vt 0.422363 -0.586914
vt 0.392578 0.214844
vt 0.422363 0.214844
vt 0.568848 0.214844
vt 0.537109 0.214844
vt 0.568848 -0.586914
vt 0.537109 -0.586914
vt 0.496094 -0.586914
vt 0.496094 0.214844
vt -0.144043 -0.586914
vt -0.092712 -0.586914
vt -0.144043 0.214844
vt -0.092712 0.214844
vt 0.567383 -0.586914
vt 0.567383 0.214844
vt -0.027023 -0.586914
vt -0.027023 0.214844
vt -0.056824 -0.586914
vt -0.056824 0.214844
vt 0.430908 0.214844
vt 0.430908 -0.586914
vt 0.462646 0.214844
vt 0.462646 -0.586914
vt 0.531738 -0.591797
vt 0.567383 -0.591797
vt 0.422363 0.462891
vt 0.422852 0.468262
vt 0.392578 0.488281
vt 0.393799 0.493652
vt 0.567383 0.219727
vt 0.531738 0.219727
vt 0.575684 0.219727
vt 0.432129 0.219727
vt 0.606934 0.488281
vt 0.605957 0.493652
vt 0.577148 0.462891
vt 0.576660 0.468262
vt 0.432129 -0.591797
vt 0.575684 -0.591797
vt 0.423828 -0.591797
vt 0.423828 0.219727
vt 1.056641 0.462891
vt 1.056641 0.468262
vt 1.026367 0.488281
vt 1.027344 0.493652
vt -0.027023 0.488281
vt -0.028183 0.493652
vt -0.056824 0.462891
vt -0.057251 0.468262
vt 0.467773 0.219727
vt 0.467773 -0.591797
vt 0.509766 0.432617
vt 0.510254 0.576172
vt 0.454834 0.576172
vt 0.453369 0.432617
vt 0.431641 0.576172
vt 0.392822 0.576172
vt 0.606934 0.576172
vt 0.567871 0.576172
vt 0.546387 0.432617
vt 0.544922 0.576172
vt 0.489990 0.432617
vt 0.489258 0.576172
vt -0.027390 0.576172
vt -0.066223 0.576172
vt -0.087769 0.432617
vt -0.089233 0.576172
vt -0.144043 0.432617
vt -0.145020 0.576172
vt 1.143555 0.432617
vt 1.144531 0.576172
vt 1.088867 0.576172
vt 1.086914 0.432617
vt 1.065430 0.576172
vt 1.027344 0.576172
vt 0.506348 0.219727
vt 0.511719 0.214844
vt 0.511719 -0.586914
vt 0.506348 -0.591797
vt 0.493408 -0.591797
vt 0.488037 -0.586914
vt 0.488037 0.214844
vt 0.493408 0.219727
vt 0.509766 -0.591797
vt 0.514648 -0.586914
vt 0.453369 -0.591797
vt 0.514648 0.214844
vt 0.449951 -0.586914
vt 0.509766 0.219727
vt 0.449951 0.214844
vt 0.453369 0.219727
vt -0.084412 0.214844
vt -0.087769 0.219727
vt -0.084412 -0.586914
vt -0.144043 0.219727
vt -0.087769 -0.591797
vt -0.149048 0.214844
vt -0.144043 -0.591797
vt -0.149048 -0.586914
s 1
usemtl MASTER_Concrete_Plaster
f 1/1/1 2/2/1 3/3/1
f 2/2/1 4/4/1 3/3/1
f 5/5/2 6/6/2 7/7/2
f 6/6/2 8/8/2 7/7/2
f 9/9/3 10/10/3 11/11/3
f 10/10/3 12/12/3 11/11/3
f 13/13/4 14/14/5 15/15/4
f 14/14/5 16/16/5 15/15/4
f 17/17/6 16/18/5 18/19/6
f 16/18/5 14/20/5 18/19/6
f 19/21/3 20/10/3 21/22/3
f 20/10/3 22/12/3 21/22/3
f 23/23/2 24/24/2 25/25/2
f 24/24/2 26/26/2 25/25/2
f 27/27/1 28/28/1 29/3/1
f 28/28/1 30/4/1 29/3/1
f 31/29/7 32/30/7 33/31/8
f 32/30/7 34/32/8 33/31/8
f 35/33/9 36/34/9 34/35/8
f 36/34/9 33/36/8 34/35/8
f 14/20/10 37/37/11 18/19/12
f 37/37/11 38/38/13 18/19/12
f 16/39/14 39/40/15 15/41/16
f 39/40/15 40/42/17 15/41/16
f 17/17/18 41/43/19 16/18/14
f 41/43/19 39/44/15 16/18/14
f 12/12/20 42/45/20 11/11/21
f 42/45/20 43/46/22 11/11/21
f 13/47/23 44/48/24 14/49/10
f 44/48/24 37/50/11 14/49/10
f 9/9/25 45/51/26 10/10/27
f 45/51/28 46/52/29 10/10/29
f 29/3/30 47/53/30 27/27/31
f 47/53/30 48/38/32 27/27/31
f 28/28/33 49/43/34 30/4/35
f 49/43/36 50/54/35 30/4/35
f 33/55/37 51/56/38 31/57/39
f 51/56/38 52/58/40 31/57/39
f 32/59/41 53/60/42 34/61/43
f 53/60/42 54/62/44 34/61/43
f 34/35/43 54/63/44 35/33/45
f 54/63/44 55/46/46 35/33/45
f 36/34/47 56/51/48 33/36/37
f 56/51/48 51/64/38 33/36/37
f 43/65/49 42/66/49 57/67/49
f 41/68/49 43/65/49 57/67/49
f 41/68/49 57/67/49 58/69/49
f 39/40/49 41/68/49 58/69/49
f 39/40/49 58/69/49 59/70/49
f 40/42/49 39/40/49 59/70/49
f 44/48/50 60/71/50 37/50/50
f 60/71/50 61/72/50 37/50/50
f 37/50/50 61/72/50 38/73/50
f 61/72/50 62/74/50 38/73/50
f 38/73/50 62/74/50 45/75/50
f 62/74/50 46/76/50 45/75/50
f 53/60/49 63/77/49 54/62/49
f 63/77/49 64/78/49 54/62/49
f 54/62/49 64/78/49 55/79/49
f 64/78/49 65/80/49 55/79/49
f 55/79/49 65/80/49 49/81/49
f 65/80/49 50/82/49 49/81/49
f 48/83/50 47/84/50 66/85/50
f 56/86/50 48/83/50 66/85/50
f 56/86/50 66/85/50 67/87/50
f 51/56/50 56/86/50 67/87/50
f 51/56/50 67/87/50 68/88/50
f 52/58/50 51/56/50 68/88/50
f 40/89/51 59/54/52 4/4/52
f 2/2/53 40/89/17 4/4/54
f 15/90/16 40/89/17 2/2/53
f 13/91/23 15/90/16 2/2/53
f 1/1/55 13/91/23 2/2/53
f 44/92/24 13/91/23 1/1/55
f 60/53/56 44/92/24 1/1/55
f 3/3/57 60/53/57 1/1/58
f 52/93/40 68/52/29 20/10/29
f 19/21/59 52/93/40 20/10/29
f 31/94/39 52/93/40 19/21/59
f 32/95/41 31/94/39 19/21/59
f 21/22/60 32/95/41 19/21/59
f 53/96/42 32/95/41 21/22/60
f 63/45/20 53/96/42 21/22/60
f 22/12/61 63/45/61 21/22/60
f 5/5/62 45/97/26 9/98/25
f 38/99/13 45/97/26 5/5/62
f 5/5/62 9/98/25 6/6/63
f 7/7/64 38/99/13 5/5/62
f 9/98/25 11/100/21 6/6/63
f 7/7/64 18/101/12 38/99/13
f 11/100/21 43/102/22 6/6/63
f 17/103/18 18/101/12 7/7/64
f 6/6/63 43/102/22 8/8/65
f 8/8/65 17/103/18 7/7/64
f 43/102/22 41/104/19 8/8/65
f 41/104/19 17/103/18 8/8/65
f 26/26/66 35/105/45 55/106/46
f 36/107/47 35/105/45 26/26/66
f 26/26/66 55/106/46 25/25/67
f 24/24/68 36/107/47 26/26/66
f 55/106/46 49/108/34 25/25/67
f 24/24/68 56/109/48 36/107/47
f 49/108/34 28/110/33 25/25/67
f 48/111/32 56/109/48 24/24/68
f 25/25/67 28/110/33 23/23/69
f 23/23/69 48/111/32 24/24/68
f 28/110/33 27/112/31 23/23/69
f 27/112/31 48/111/32 23/23/69
