# Blender 3.6.18
# www.blender.org
mtllib Mesh.835.mtl
o Bistro_Research_Exterior_Paris_Building_01_paris_buildi_926f5e8
v 8.225155 5.690727 5.280981
v 11.845470 5.690737 6.712910
v 8.232405 6.230632 5.283848
v 11.848674 6.230640 6.714175
v 2.822663 5.699468 3.144158
v 5.527740 5.699474 4.214085
v 2.825688 6.209501 3.145353
v 5.527740 6.209507 4.214083
v 0.397089 5.688843 -10.762591
v -1.406888 5.688847 -7.428913
v 0.393475 6.214500 -10.755914
v -1.408482 6.214503 -7.425960
v 2.782045 5.695445 -15.265785
v 1.387388 5.695448 -12.652469
v 2.780487 6.214806 -15.262861
v 1.387388 6.214808 -12.652466
vn -0.3721 -0.0039 0.9282
vn -0.8774 -0.0039 -0.4797
vn -0.8807 -0.0039 -0.4736
vt 0.073547 0.471191
vt 0.997070 0.471191
vt 0.075378 0.998227
vt 0.998047 0.998233
vt 0.109619 0.001465
vt 0.822754 0.001465
vt 0.110413 0.469238
vt 0.822754 0.469238
s 1
usemtl MASTER_Side_Letters
f 1/1/1 2/2/1 3/3/1
f 2/2/1 4/4/1 3/3/1
f 5/5/1 6/6/1 7/7/1
f 6/6/1 8/8/1 7/7/1
f 9/1/2 10/2/2 11/3/2
f 10/2/2 12/4/2 11/3/2
f 13/5/3 14/6/3 15/7/3
f 14/6/3 16/8/3 15/7/3
