# Blender 3.6.18
# www.blender.org
mtllib Mesh.654.mtl
o Bistro_Research_Exterior_paris_building_05_39__5233
v 44.787510 16.945337 19.227982
v 44.787510 14.070056 19.227982
v 45.625042 14.070056 19.561684
v 45.625042 16.945337 19.561684
v 46.488400 16.945337 19.905689
v 45.645966 16.945337 19.570026
v 45.645966 14.070056 19.570024
v 46.488400 14.070056 19.905689
vn -0.3748 -0.0039 0.9271
vt 0.251221 0.988487
vt 0.251221 0.225098
vt 0.497803 0.225098
vt 0.497803 0.988487
vt 0.249146 0.988487
vt 0.002602 0.988487
vt 0.002602 0.225098
vt 0.249146 0.225098
s 1
usemtl MASTER_Curtains
f 1/1/1 2/2/1 3/3/1
f 3/3/1 4/4/1 1/1/1
f 5/5/1 6/6/1 7/7/1
f 7/7/1 8/8/1 5/5/1
