# Blender 3.6.18
# www.blender.org
mtllib Mesh.367.mtl
o Bistro_Research_Exterior_paris_building_11_5855
v -3.724212 13.095370 25.427588
v -3.732966 13.079372 25.406721
v -3.720557 13.110058 25.418650
v -4.083359 13.110047 26.305901
v -4.100592 13.079386 26.305767
v -4.079728 13.095385 26.297014
v -4.118337 13.478084 25.429966
v -4.208434 13.367448 25.355709
v -4.363509 13.478086 26.029545
v -4.475619 13.367448 26.009117
v -3.791344 13.583502 25.591825
v -4.019613 13.583485 25.498503
v -4.015911 13.583494 26.141012
v -4.244157 13.583475 26.047659
v -4.043703 13.571950 25.485846
v -4.270293 13.571940 26.040007
v -3.739029 12.343616 25.421532
v -4.094544 12.343630 26.290956
v -4.163230 12.343635 25.248081
v -4.512295 12.343629 26.120052
v -4.157276 13.079391 25.233225
v -4.157284 12.359634 25.233223
v -3.732973 12.359617 25.406721
v -3.724219 12.359616 25.427588
v -4.079735 12.359630 26.297014
v -4.518235 13.079385 26.134911
v -4.100600 12.359630 26.305767
v -4.518242 12.359630 26.134911
v -4.527105 12.359630 26.113995
v -4.178040 12.359635 25.242025
v -4.178032 13.095389 25.242027
v -4.515992 13.110047 26.128906
v -4.478361 13.356176 26.028088
v -4.042666 13.356175 26.206367
v -4.354762 13.478086 26.050428
v -4.032866 13.478088 26.182463
v -4.260151 13.568035 26.062941
v -4.023563 13.568058 26.159723
v -4.020475 13.567953 25.476709
v -3.783833 13.567972 25.573454
v -4.097470 13.478084 25.421209
v -3.775404 13.478085 25.552828
v -4.196580 13.356179 25.338985
v -3.760799 13.356177 25.517054
v -4.159486 13.110078 25.239178
v -4.527097 13.095385 26.113995
v -4.215333 13.340178 25.342676
v -4.489252 13.340178 26.012321
vn 0.9465 -0.2160 -0.2396
vn 0.7552 0.0509 -0.6535
vn 0.7334 -0.0431 -0.6784
vn 0.0513 -0.0434 0.9977
vn 0.0826 0.0590 0.9948
vn 0.5092 -0.2171 0.8328
vn -0.6610 0.7001 -0.2699
vn -0.6530 0.7077 -0.2698
vn -0.0039 1.0000 -0.0039
vn -0.6712 0.6869 -0.2787
vn -0.0039 -1.0000 -0.0039
vn 0.3720 -0.0039 -0.9282
vn 0.3721 -0.0039 -0.9282
vn 0.9271 -0.0039 0.3748
vn -0.3815 -0.0039 0.9243
vn -0.6033 -0.7589 0.2452
vn -0.8757 -0.4632 0.1363
vn -0.2537 -0.7610 -0.5971
vn -0.5316 -0.4617 -0.7101
vn -0.3539 0.1594 -0.9216
vn -0.1210 0.0976 -0.9878
vn -0.1438 -0.4627 -0.8748
vn 0.5232 -0.4682 0.7121
vn 0.1372 -0.4664 0.8739
vn -0.3509 0.3982 0.8476
vn -0.3508 0.3982 0.8476
vn -0.3587 0.3351 0.8712
vn -0.3667 0.3036 0.8794
vn -0.3741 0.2166 0.9018
vn -0.3728 0.2315 0.8986
vn -0.3733 0.2554 0.8919
vn -0.3732 0.2554 0.8919
vn 0.3627 0.2379 -0.9010
vn 0.3566 0.2860 -0.8894
vn 0.3556 0.2696 -0.8949
vn 0.3480 0.3636 -0.8641
vn 0.3476 0.3476 -0.8709
vn 0.3416 0.3966 -0.8521
vn 0.3416 0.3965 -0.8521
vn 0.8730 -0.4658 -0.1448
vn 0.5971 -0.7610 -0.2537
vn 0.7091 -0.4663 -0.5289
vn -0.8433 0.5374 0.0039
vn -0.8427 0.4742 0.2548
vn -0.6953 0.6482 0.3103
vn -0.6878 0.6485 0.3262
vn -0.5478 0.8158 0.1853
vn -0.4763 0.7675 0.4290
vn -0.2326 0.7925 0.5638
vn -0.3495 0.8992 0.2631
vn -0.2628 0.8118 -0.5215
vn -0.0591 0.8937 -0.4449
vn 0.2320 0.7824 -0.5780
vn -0.0591 0.8936 -0.4449
vn -0.0354 0.7596 -0.6494
vn -0.2699 0.6610 -0.7001
vn -0.2625 0.6543 -0.7092
vn -0.5979 0.5510 -0.5822
vn -0.4258 0.4883 -0.7618
vn 0.2464 -0.7625 0.5983
vn -0.7130 -0.4637 0.5260
vn -0.8983 0.1530 0.4119
vn -0.7744 0.0983 0.6250
vn -0.7570 0.2393 0.6080
vn 0.0512 -0.0434 0.9977
vn -0.1130 0.2456 -0.9628
vn -0.5959 0.3700 -0.7127
vn -0.9271 0.3638 0.0899
vn -0.9255 -0.0039 -0.3788
vn -0.9282 -0.0039 -0.3721
vt -0.885742 0.557861
vt -0.890625 0.562744
vt -0.888672 0.553223
vt -0.588867 0.553223
vt -0.586914 0.562744
vt -0.591797 0.557861
vt -0.838379 0.462402
vt -0.849121 0.427734
vt -0.635742 0.462402
vt -0.628418 0.427734
vt -0.830078 0.576172
vt -0.830078 0.499512
vt -0.644531 0.576172
vt -0.644531 0.499512
vt 1.831055 0.409180
vt 1.837891 0.438477
vt 1.643555 0.409180
vt 1.635742 0.438477
vt 1.885742 0.571289
vt 1.591797 0.571289
vt 1.885742 0.428223
vt 1.591797 0.430176
vt 0.427734 0.562744
vt 0.570801 0.562744
vt 0.427734 0.787598
vt 0.570801 0.787720
vt -0.885742 0.787720
vt -0.591797 0.787598
vt 0.428711 0.562744
vt 0.569824 0.562744
vt 0.428711 0.787598
vt 0.569824 0.787598
vt 1.591797 0.792603
vt 1.591797 0.787598
vt 1.885742 0.792603
vt 1.885742 0.787598
vt 1.885742 0.557861
vt 1.890625 0.562744
vt 1.890625 0.787598
vt 0.423828 0.557861
vt 0.423828 0.787598
vt 0.569824 0.553223
vt 0.423828 0.553223
vt 0.570801 0.476562
vt 0.423828 0.476562
vt 0.532227 0.438477
vt 0.423828 0.438477
vt 0.503418 0.410156
vt 0.423828 0.410156
vt 0.496094 0.410156
vt 0.575684 0.410156
vt 0.467285 0.438477
vt 0.575684 0.438477
vt 0.428955 0.476562
vt 0.575684 0.476562
vt 0.427734 0.553223
vt 0.575684 0.553223
vt 0.575684 0.787720
vt 0.570801 0.792603
vt 0.575684 0.557861
vt -0.622559 0.429199
vt -0.630859 0.467773
vt -0.644043 0.490723
vt -0.638184 0.496582
vt -0.638184 0.576172
vt -0.831055 0.490723
vt -0.836426 0.576172
vt -0.836426 0.496582
vt -0.843262 0.467773
vt -0.855469 0.429199
vt 1.885742 0.576172
vt 1.591797 0.576172
vt 1.586914 0.571289
vt 0.428711 0.792603
vt 0.569824 0.792603
vt 0.574707 0.787598
vt 0.574707 0.557861
vt 0.422852 0.557861
vt 1.890625 0.428223
vt 1.885742 0.423340
vt 1.890625 0.571289
vt 1.855469 0.476562
vt 1.888672 0.553223
vt 1.851562 0.481445
vt 1.848633 0.472656
vt 1.627930 0.472656
vt 1.625977 0.481445
vt 1.622070 0.476562
vt 1.588867 0.553223
vt 1.591797 0.557861
s 1
usemtl MASTER_Concrete_Plaster
f 1/1/1 2/2/2 3/3/3
f 4/4/4 5/5/5 6/6/6
f 7/7/7 8/8/8 9/9/7
f 8/8/8 10/10/8 9/9/7
f 11/11/9 12/12/9 13/13/9
f 12/12/9 14/14/9 13/13/9
f 15/15/10 7/16/7 16/17/10
f 7/16/7 9/18/7 16/17/10
f 17/19/11 18/20/11 19/21/11
f 18/20/11 20/22/11 19/21/11
f 21/23/12 2/24/13 22/25/13
f 2/24/13 23/26/13 22/25/13
f 1/1/14 6/6/14 24/27/14
f 6/6/14 25/28/14 24/27/14
f 5/29/15 26/30/15 27/31/15
f 26/30/15 28/32/15 27/31/15
f 20/33/16 29/34/17 19/35/18
f 29/34/17 30/36/19 19/35/18
f 31/37/20 21/38/21 30/36/19
f 21/38/21 22/39/22 30/36/19
f 6/40/6 5/29/5 25/41/23
f 5/29/5 27/31/24 25/41/23
f 32/42/25 4/43/26 33/44/27
f 4/43/26 34/45/28 33/44/27
f 33/44/27 34/45/28 35/46/29
f 34/45/28 36/47/30 35/46/29
f 35/46/29 36/47/30 37/48/31
f 36/47/30 38/49/32 37/48/31
f 39/50/33 40/51/33 41/52/34
f 40/51/33 42/53/35 41/52/34
f 41/52/34 42/53/35 43/54/36
f 42/53/35 44/55/37 43/54/36
f 43/54/36 44/55/37 45/56/38
f 44/55/37 3/57/39 45/56/38
f 24/58/40 17/59/41 23/26/42
f 1/60/1 24/58/40 23/26/42
f 2/24/2 1/60/1 23/26/42
f 10/10/43 33/61/44 9/9/45
f 33/61/44 35/62/46 9/9/45
f 9/9/45 35/62/46 16/63/47
f 35/62/46 37/64/48 16/63/47
f 38/65/49 13/13/49 37/64/48
f 13/13/49 14/14/50 37/64/48
f 37/64/48 14/14/50 16/63/47
f 15/66/51 16/63/47 14/14/50
f 12/12/52 15/66/51 14/14/50
f 11/11/53 40/67/53 12/12/54
f 40/67/53 39/68/55 12/12/52
f 15/66/51 12/12/52 39/68/55
f 15/66/51 39/68/55 7/7/56
f 39/68/55 41/69/57 7/7/56
f 7/7/56 41/69/57 8/8/58
f 41/69/57 43/70/59 8/8/58
f 17/19/41 24/71/40 18/20/60
f 24/71/40 25/72/23 18/20/60
f 27/73/24 18/20/60 25/72/23
f 18/74/60 27/31/24 20/75/16
f 27/31/24 28/32/61 20/75/16
f 29/76/17 20/75/16 28/32/61
f 46/77/62 29/76/17 28/32/61
f 26/30/63 46/77/62 28/32/61
f 46/77/62 26/30/63 32/42/64
f 4/43/65 32/42/64 26/30/63
f 5/29/5 4/43/65 26/30/63
f 45/56/66 21/23/21 31/78/20
f 21/23/21 45/56/66 2/24/2
f 45/56/66 3/57/3 2/24/2
f 22/79/22 19/21/18 30/80/19
f 19/21/18 22/79/22 17/19/41
f 22/79/22 23/81/42 17/19/41
f 43/82/59 45/83/66 31/37/20
f 47/84/67 43/82/59 31/37/20
f 43/82/59 47/84/67 8/85/58
f 10/86/43 8/85/58 47/84/67
f 48/87/68 10/86/43 47/84/67
f 48/87/68 33/88/44 10/86/43
f 32/89/64 33/88/44 48/87/68
f 46/90/62 32/89/64 48/87/68
f 47/84/69 31/37/69 48/87/69
f 31/37/69 46/90/69 48/87/69
f 46/90/69 31/37/69 29/34/70
f 31/37/69 30/36/70 29/34/70
