# Blender 3.6.18
# www.blender.org
mtllib Mesh.464.mtl
o Bistro_Research_Exterior_paris_building_11_5637
v 0.064610 3.913484 20.406639
v 1.309561 3.913484 20.915710
v 1.331922 3.903778 20.861027
v 0.086970 3.903778 20.351957
v 1.334909 3.902481 20.853718
v 0.089958 3.902481 20.344650
v 0.089067 3.851661 20.346828
v 1.334018 3.851661 20.855900
v 1.331029 3.850390 20.863211
v 0.086078 3.850389 20.354139
v 1.308224 3.840693 20.918980
v 0.063273 3.840693 20.409908
v 1.334769 3.894489 20.854061
v 0.089818 3.894489 20.344994
v 1.334158 3.859653 20.855556
v 0.089207 3.859653 20.346485
vn 0.0589 0.9864 -0.1533
vn 0.0590 0.9864 -0.1533
vn 0.2867 0.6244 -0.7266
vn 0.2867 0.6244 -0.7265
vn 0.2772 -0.6676 -0.6910
vn 0.0585 -0.9866 -0.1521
vn 0.3716 -0.0508 -0.9270
vt 0.410156 0.525879
vt -0.009987 0.525879
vt -0.009987 0.507568
vt 0.410156 0.507568
vt -0.009987 0.505127
vt 0.410156 0.505127
vt 0.589355 0.505859
vt 1.009766 0.505859
vt 1.009766 0.508301
vt 0.589355 0.508301
vt 1.009766 0.527100
vt 0.589355 0.527100
vt 0.589355 0.379883
vt 1.009766 0.379883
vt 1.009766 0.382324
vt 0.589355 0.382324
vt 1.009766 0.393555
vt 0.589355 0.393555
vt 1.009766 0.395996
vt 0.589355 0.395996
s 1
usemtl MASTER_Wood_Painted_Green
f 1/1/1 2/2/2 3/3/1
f 4/4/1 1/1/1 3/3/1
f 4/4/1 3/3/1 5/5/3
f 6/6/4 4/4/1 5/5/3
f 7/7/5 8/8/5 9/9/6
f 10/10/6 7/7/5 9/9/6
f 10/10/6 9/9/6 11/11/6
f 12/12/6 10/10/6 11/11/6
f 6/13/4 5/14/3 13/15/7
f 14/16/7 6/13/4 13/15/7
f 14/16/7 13/15/7 15/17/7
f 16/18/7 14/16/7 15/17/7
f 16/18/7 15/17/7 8/19/5
f 7/20/5 16/18/7 8/19/5
