# Blender 3.6.18
# www.blender.org
mtllib Mesh.811.mtl
o Bistro_Research_Exterior_Paris_Building_01_paris_buildi_b58f18e
v -2.414479 6.100203 -5.309706
v -2.407428 6.092017 -5.306185
v -2.217645 6.405894 -5.650099
v -2.225646 6.412494 -5.651873
v -2.274749 6.402148 -5.683112
v -2.460314 6.095230 -5.346809
v -2.221396 6.415576 -5.659575
v -2.213396 6.408976 -5.657799
v 4.172690 6.408978 -17.502512
v 4.165058 6.415576 -17.504984
v 4.109232 6.405234 -17.523979
v -2.270500 6.405230 -5.690810
v -2.275868 6.396281 -5.697355
v 4.102849 6.398175 -17.528717
v -2.280118 6.393200 -5.689653
v 4.113156 6.397112 -17.531090
v -2.466078 6.086075 -5.352664
v 4.168982 6.407454 -17.512093
v 4.172688 5.498299 -17.502514
v 4.113153 5.510165 -17.531090
v 4.168980 5.499824 -17.512094
v 4.165055 5.491702 -17.504984
v 4.109230 5.502043 -17.523979
v 4.102847 5.509102 -17.528715
v -2.275309 5.502044 -5.682100
v -2.218217 5.498296 -5.649066
v -2.226238 5.491696 -5.650801
v -2.230470 5.494825 -5.643132
v -2.222447 5.501427 -5.641400
v -2.407429 5.815195 -5.306184
v -2.414513 5.806982 -5.309649
v -2.460347 5.811878 -5.346753
v -2.279540 5.505173 -5.674435
v -2.284881 5.514105 -5.681024
v -2.280648 5.510976 -5.688695
v -2.466071 5.821054 -5.352680
v -2.262424 5.616550 -5.721735
v -2.266653 5.619683 -5.714071
v -2.414777 5.871315 -5.445648
v -2.272161 5.628083 -5.720538
v 4.050021 5.618429 -17.432999
v -2.267930 5.624954 -5.728201
v 4.050023 6.288848 -17.432999
v 4.036016 5.624956 -17.424082
v -2.258003 6.290738 -5.729743
v -2.262250 6.287653 -5.722044
v -2.263534 6.282320 -5.736168
v 4.039905 6.274274 -17.431126
v 4.036017 6.282320 -17.424082
v 4.039904 5.633004 -17.431126
v 4.017266 6.271603 -17.440569
v 4.013375 5.627627 -17.433523
v 4.017264 5.635674 -17.440569
v -2.288828 5.627625 -5.740828
v 4.013377 6.279651 -17.433523
v -2.293060 5.630755 -5.733160
v 4.004761 5.634155 -17.434376
v -2.298568 5.639155 -5.739629
v -2.294336 5.636029 -5.747298
v -2.434890 5.871339 -5.476128
v -2.414831 5.870073 -5.462008
v -2.437884 5.884427 -5.470705
v -2.417824 5.883163 -5.456583
v -2.414763 6.034986 -5.445668
v -2.437882 6.021804 -5.470706
v -2.440934 5.885189 -5.481638
v -2.439086 5.877124 -5.484987
v -2.417823 6.023087 -5.456587
v -2.435458 5.880681 -5.491567
v -2.414800 6.036099 -5.462064
v -2.297324 5.646374 -5.741889
v -2.437302 5.888747 -5.488223
v -2.293093 5.643245 -5.749557
v -2.430770 5.885275 -5.500062
v -2.295648 5.656077 -5.744925
v 4.000366 5.643247 -17.426416
v -2.432614 5.893341 -5.496721
v 4.007146 5.639092 -17.438696
v -2.291417 5.652950 -5.752594
v 4.007148 6.268185 -17.438696
v 4.002752 5.648184 -17.430737
v 3.995677 5.652950 -17.417919
v 4.002753 6.259093 -17.430737
v 3.998063 5.657888 -17.422241
v 3.992635 5.659247 -17.412407
v 4.004762 6.273122 -17.434374
v 3.998065 6.249389 -17.422241
v 4.000367 6.264030 -17.426414
v -2.289975 6.271228 -5.755200
v -2.284442 6.279648 -5.748772
v -2.267784 6.279238 -5.728466
v -2.288690 6.276566 -5.741074
v -2.434860 6.034816 -5.476183
v -2.463344 6.082189 -5.341320
v -2.439077 6.029009 -5.485004
v -2.417509 6.087163 -5.304215
v -2.417513 5.820099 -5.304213
v -2.463346 5.824994 -5.341316
v -2.294226 6.268150 -5.747497
v -2.288757 6.264029 -5.757409
v -2.293007 6.260947 -5.749708
v 3.995679 6.254326 -17.417917
v -2.287115 6.254323 -5.760386
v 3.995023 6.243093 -17.416729
v -2.286049 6.248029 -5.762316
v 3.995021 5.664185 -17.416731
v 3.992637 6.248031 -17.412407
v 3.995371 6.237643 -17.409781
v 3.992983 5.664696 -17.405458
v 3.995368 5.669633 -17.409781
v 3.992985 6.242581 -17.405458
v -2.290329 5.659245 -5.754563
v -2.282229 6.242480 -5.761801
v -2.294560 5.662374 -5.746895
v -2.290720 5.667921 -5.746418
v -2.427727 5.888255 -5.505575
v -2.429572 5.896322 -5.502232
v -2.286488 5.664790 -5.754086
v -2.432614 6.012697 -5.496720
v -2.283365 5.670060 -5.754187
v -2.437301 6.017365 -5.488225
v 3.992506 5.670063 -17.399172
v -2.440941 6.020989 -5.481625
v -2.435438 6.025384 -5.491600
v -2.430749 6.020716 -5.500097
v -2.291363 6.251242 -5.752687
v -2.427708 6.017689 -5.505609
v -2.290298 6.244946 -5.754615
v -2.429570 6.009667 -5.502235
v -2.422129 6.015032 -5.508315
v -2.286479 6.239398 -5.754101
v -2.423994 5.898937 -5.504938
v -2.423993 6.007013 -5.504938
v -2.422148 5.890869 -5.508281
v -2.419249 6.004466 -5.507939
v -2.419249 5.901443 -5.507941
v -2.417405 5.893374 -5.511283
v -2.417385 6.012486 -5.511316
v -2.283370 6.234130 -5.754175
v -2.416955 6.009962 -5.517343
v -2.418819 5.903921 -5.513964
v -2.418819 6.001946 -5.513964
v -2.279119 6.237212 -5.761876
v -2.284365 6.228909 -5.757688
v 3.992508 6.237214 -17.399172
v -2.280115 6.231989 -5.765390
v 3.994893 6.232276 -17.403498
v 3.987864 6.232103 -17.396193
v 3.994891 5.675000 -17.403498
v 3.990249 6.227166 -17.400517
v 3.987862 5.675174 -17.396191
v 3.990247 5.680111 -17.400515
v 3.984571 6.221461 -17.397789
v -2.282385 6.226396 -5.768956
v 3.982186 6.226398 -17.393465
v 3.980852 6.213764 -17.391050
v 3.978467 6.218701 -17.386728
v 3.980851 5.693513 -17.391050
v 3.984570 5.685817 -17.397787
v 3.978465 5.688576 -17.386728
v 3.982184 5.680879 -17.393465
v -2.281083 6.218699 -5.771316
v -2.285264 5.688571 -5.763741
v -2.284355 5.675282 -5.757709
v -2.286595 5.680876 -5.761333
v -2.286635 6.223314 -5.761254
v -2.285332 6.215617 -5.763616
v -2.289495 5.691704 -5.756074
v -2.417256 6.007285 -5.524549
v -2.290825 5.684007 -5.753666
v -2.413557 5.902138 -5.531254
v -2.413538 6.003582 -5.531288
v -2.419120 5.999263 -5.521172
v -2.415400 5.995562 -5.527913
v -2.419121 5.906562 -5.521170
v -2.415401 5.910206 -5.527911
v -2.417275 5.898495 -5.524516
v -2.416975 5.895859 -5.517311
v -2.288588 5.678410 -5.750039
v -2.287596 5.673193 -5.746519
vn -0.4529 0.7680 0.4529
vn 0.3283 0.5973 0.7318
vn -0.4529 0.7679 0.4529
vn -0.1605 0.9829 -0.0901
vn 0.5635 0.7684 0.3034
vn -0.1606 0.9829 -0.0901
vn -0.8774 -0.0039 -0.4797
vn -0.8742 -0.0039 -0.4856
vn 0.3162 -0.0039 -0.9487
vn -0.8742 -0.0038 -0.4856
vn 0.5601 -0.7716 0.3016
vn -0.1593 -0.9832 -0.0894
vn -0.1594 -0.9832 -0.0893
vn -0.1594 -0.9832 -0.0894
vn -0.4575 -0.7625 0.4575
vn 0.3249 -0.5989 0.7320
vn -0.8741 -0.0039 -0.4856
vn -0.8775 -0.0039 -0.4797
vn -0.8741 -0.0039 -0.4857
vn -0.4023 -0.7695 0.4960
vn -0.0974 -0.9935 -0.0585
vn -0.0974 -0.9935 -0.0584
vn -0.0982 0.9934 -0.0589
vn 0.3788 -0.0039 -0.9255
vn -0.0981 0.9934 -0.0589
vn -0.6039 -0.7285 -0.3234
vn -0.8428 -0.5371 0.0353
vn -0.4023 -0.7695 0.4961
vn -0.5790 -0.0039 0.8153
vn -0.5790 -0.0040 0.8153
vn -0.9651 -0.0039 0.2618
vn -0.8428 -0.5370 0.0353
vn -0.3973 0.7749 0.4917
vn -0.1841 -0.0039 -0.9829
vn -0.1840 -0.0039 -0.9829
vn -0.7376 0.5425 -0.4020
vn -0.6073 0.7249 -0.3252
vn -0.6073 0.7248 -0.3252
vn -0.3972 0.7749 0.4917
vn -0.6328 -0.0039 0.7743
vn -0.8430 0.5372 0.0274
vn -0.6328 -0.0040 0.7743
vn -0.9991 -0.0039 0.0431
vn -0.7345 -0.5480 -0.4003
vn -0.5501 0.4331 -0.7140
vn -0.7910 0.4403 -0.4247
vn -0.5513 -0.4418 -0.7077
vn -0.4394 -0.0039 -0.8983
vn -0.9972 -0.0039 -0.0743
vn -0.9235 -0.3234 -0.2065
vn -0.9208 0.3252 -0.2155
vn -0.9016 0.4176 -0.1132
vn -0.9994 -0.0039 0.0353
vn -0.7883 -0.4466 -0.4233
vn -0.9966 -0.0039 -0.0821
vn -0.4331 -0.0039 -0.9013
vn -0.8807 -0.0039 -0.4736
vn -0.9994 -0.0039 0.0352
vn -0.9015 -0.4176 -0.1132
vn -0.9016 -0.4176 -0.1132
vt -1.409180 -2.199219
vt -1.412109 -2.195312
vt -1.260742 -2.080078
vt -1.258789 -2.083984
vt -1.250977 -2.103516
vt -1.396484 -2.216797
vt -1.253906 -2.082031
vt -1.254883 -2.078125
vt 3.908203 -2.076172
vt 3.908203 -2.078125
vt 3.908203 -2.101562
vt -1.249023 -2.101562
vt -1.247070 -2.105469
vt 3.908203 -2.105469
vt -1.250000 -2.105469
vt 3.912109 -2.105469
vt 3.931641 -2.097656
vt -1.394531 -2.222656
vt 3.931641 -2.101562
vt 3.935547 -2.101562
vt 3.935547 -2.443359
vt 3.910156 -2.439453
vt 3.931641 -2.441406
vt 3.931641 -2.447266
vt 3.908203 -2.443359
vt 3.908203 -2.439453
vt -1.252930 -2.441406
vt 3.908203 -2.464844
vt 3.908203 -2.468750
vt -1.258789 -2.466797
vt -1.257812 -2.462891
vt -1.262695 -2.460938
vt -1.264648 -2.464844
vt -1.412109 -2.347656
vt -1.409180 -2.345703
vt -1.396484 -2.326172
vt -1.254883 -2.441406
vt -1.253906 -2.437500
vt -1.250977 -2.439453
vt -1.394531 -2.322266
vt -1.236328 -2.400391
vt -1.240234 -2.398438
vt -1.356445 -2.302734
vt -1.239258 -2.396484
vt 3.869141 -2.398438
vt -1.235352 -2.398438
vt 3.869141 -2.144531
vt 3.865234 -2.398438
vt -1.232422 -2.142578
vt -1.237305 -2.144531
vt -1.231445 -2.146484
vt 3.869141 -2.150391
vt 3.865234 -2.146484
vt 3.869141 -2.392578
vt 3.863281 -2.154297
vt 3.861328 -2.392578
vt 3.863281 -2.390625
vt -1.233398 -2.390625
vt 3.861328 -2.152344
vt -1.235352 -2.390625
vt 3.861328 -2.390625
vt -1.233398 -2.386719
vt -1.231445 -2.388672
vt -1.344727 -2.300781
vt -1.350586 -2.304688
vt -1.346680 -2.296875
vt -1.353516 -2.298828
vt -1.356445 -2.240234
vt -1.346680 -2.248047
vt -1.342773 -2.296875
vt -1.342773 -2.298828
vt -1.353516 -2.246094
vt -1.339844 -2.298828
vt -1.350586 -2.240234
vt -1.340820 -2.296875
vt -1.230469 -2.386719
vt -1.336914 -2.296875
vt -1.231445 -2.382812
vt 3.859375 -2.386719
vt -1.337891 -2.294922
vt 3.863281 -2.388672
vt -1.228516 -2.384766
vt 3.861328 -2.386719
vt 3.855469 -2.384766
vt 3.861328 -2.158203
vt 3.857422 -2.382812
vt 3.853516 -2.382812
vt 3.861328 -2.154297
vt 3.857422 -2.162109
vt 3.859375 -2.156250
vt -1.228516 -2.156250
vt -1.229492 -2.152344
vt -1.235352 -2.148438
vt -1.231445 -2.154297
vt -1.344727 -2.244141
vt -1.398438 -2.222656
vt -1.342773 -2.246094
vt -1.419922 -2.222656
vt -1.419922 -2.216797
vt -1.422852 -2.218750
vt -1.419922 -2.322266
vt -1.422852 -2.324219
vt -1.419922 -2.328125
vt -1.398438 -2.320312
vt -1.230469 -2.156250
vt -1.227539 -2.156250
vt -1.229492 -2.158203
vt 3.855469 -2.160156
vt -1.225586 -2.160156
vt 3.855469 -2.164062
vt -1.224609 -2.162109
vt 3.855469 -2.380859
vt 3.853516 -2.162109
vt 3.853516 -2.166016
vt 3.851562 -2.380859
vt 3.853516 -2.378906
vt 3.851562 -2.164062
vt -1.227539 -2.382812
vt -1.223633 -2.164062
vt -1.231445 -2.380859
vt -1.230469 -2.378906
vt -1.333984 -2.296875
vt -1.335938 -2.292969
vt -1.227539 -2.380859
vt -1.337891 -2.250000
vt -1.226562 -2.378906
vt -1.340820 -2.248047
vt 3.849609 -2.378906
vt -1.342773 -2.248047
vt -1.339844 -2.246094
vt -1.336914 -2.248047
vt -1.228516 -2.162109
vt -1.333984 -2.248047
vt -1.227539 -2.164062
vt -1.335938 -2.251953
vt -1.332031 -2.250000
vt -1.226562 -2.166016
vt -1.333984 -2.292969
vt -1.333984 -2.251953
vt -1.332031 -2.294922
vt -1.332031 -2.253906
vt -1.332031 -2.291016
vt -1.331055 -2.294922
vt -1.330078 -2.250000
vt -1.226562 -2.167969
vt -1.328125 -2.251953
vt -1.330078 -2.291016
vt -1.330078 -2.253906
vt -1.223633 -2.166016
vt -1.225586 -2.167969
vt 3.849609 -2.166016
vt -1.222656 -2.167969
vt 3.851562 -2.167969
vt 3.847656 -2.167969
vt 3.851562 -2.376953
vt 3.849609 -2.169922
vt 3.847656 -2.376953
vt 3.849609 -2.375000
vt 3.847656 -2.171875
vt -1.221680 -2.169922
vt 3.845703 -2.169922
vt 3.845703 -2.173828
vt 3.843750 -2.171875
vt 3.845703 -2.369141
vt 3.847656 -2.373047
vt 3.843750 -2.371094
vt 3.845703 -2.375000
vt -1.220703 -2.171875
vt -1.223633 -2.371094
vt -1.225586 -2.376953
vt -1.224609 -2.375000
vt -1.224609 -2.171875
vt -1.223633 -2.173828
vt -1.226562 -2.371094
vt -1.326172 -2.251953
vt -1.227539 -2.373047
vt -1.323242 -2.291016
vt -1.323242 -2.253906
vt -1.327148 -2.255859
vt -1.324219 -2.255859
vt -1.327148 -2.289062
vt -1.324219 -2.289062
vt -1.326172 -2.292969
vt -1.328125 -2.292969
vt -1.228516 -2.375000
vt -1.229492 -2.376953
s 1
usemtl MASTER_Wood_Painted3
f 1/1/1 2/2/2 3/3/2
f 4/4/3 1/1/1 3/3/2
f 1/1/1 4/4/3 5/5/1
f 6/6/1 1/1/1 5/5/1
f 4/4/3 3/3/2 7/7/4
f 3/3/2 8/8/5 7/7/4
f 7/7/4 8/8/5 9/9/5
f 10/10/4 7/7/4 9/9/5
f 7/7/4 10/10/4 11/11/4
f 4/4/3 7/7/4 12/12/6
f 12/12/6 7/7/4 11/11/4
f 5/5/1 4/4/3 12/12/6
f 12/12/6 11/11/4 13/13/7
f 5/5/1 12/12/6 13/13/7
f 11/11/4 14/14/7 13/13/7
f 15/15/8 5/5/1 13/13/7
f 11/11/4 16/16/9 14/14/7
f 11/11/4 10/17/4 16/16/9
f 5/5/1 15/15/8 17/18/10
f 6/6/1 5/5/1 17/18/10
f 10/17/4 18/19/9 16/16/9
f 10/17/4 9/20/5 18/19/9
f 18/19/9 9/20/5 19/21/11
f 16/16/9 18/19/9 20/22/9
f 16/16/9 20/22/9 14/14/7
f 21/23/9 18/19/9 19/21/11
f 18/19/9 21/23/9 20/22/9
f 21/23/9 19/21/11 22/24/12
f 21/23/9 22/24/12 23/25/13
f 20/22/9 21/23/9 23/25/13
f 20/22/9 23/25/13 24/26/7
f 20/22/9 24/26/7 14/14/7
f 23/25/13 25/27/14 24/26/7
f 23/25/13 22/28/12 25/27/14
f 22/28/12 19/29/11 26/30/11
f 27/31/14 22/28/12 26/30/11
f 22/28/12 27/31/14 25/27/14
f 27/31/14 26/30/11 28/32/15
f 26/30/11 29/33/16 28/32/15
f 28/32/15 29/33/16 30/34/16
f 31/35/15 28/32/15 30/34/16
f 28/32/15 31/35/15 32/36/15
f 27/31/14 28/32/15 33/37/15
f 33/37/15 28/32/15 32/36/15
f 25/27/14 27/31/14 33/37/15
f 33/37/15 32/36/15 34/38/8
f 25/27/14 33/37/15 34/38/8
f 35/39/7 25/27/14 34/38/8
f 25/27/14 35/39/7 24/26/7
f 32/36/15 36/40/17 34/38/8
f 24/26/7 35/39/7 37/41/18
f 35/39/7 34/38/8 38/42/19
f 37/41/18 35/39/7 38/42/19
f 38/42/19 34/38/8 39/43/8
f 34/38/8 36/40/17 39/43/8
f 37/41/18 38/42/19 40/44/20
f 38/42/19 39/43/8 40/44/20
f 41/45/18 24/26/7 37/41/18
f 14/14/7 24/26/7 41/45/18
f 42/46/21 37/41/18 40/44/20
f 43/47/7 14/14/7 41/45/18
f 13/13/7 14/14/7 43/47/7
f 41/45/18 37/41/18 44/48/22
f 37/41/18 42/46/21 44/48/22
f 45/49/7 13/13/7 43/47/7
f 15/15/8 13/13/7 45/49/7
f 46/50/8 15/15/8 45/49/7
f 17/18/10 15/15/8 46/50/8
f 45/49/7 43/47/7 47/51/23
f 46/50/8 45/49/7 47/51/23
f 43/47/7 41/45/18 48/52/24
f 43/47/7 49/53/23 47/51/23
f 43/47/7 48/52/24 49/53/23
f 41/45/18 50/54/24 48/52/24
f 41/45/18 44/48/22 50/54/24
f 49/53/23 48/52/24 51/55/24
f 50/54/24 44/48/22 52/56/21
f 48/52/24 50/54/24 53/57/24
f 53/57/24 50/54/24 52/56/21
f 51/55/24 48/52/24 53/57/24
f 52/56/21 44/48/22 54/58/21
f 44/48/22 42/46/21 54/58/21
f 55/59/25 49/53/23 51/55/24
f 47/51/23 49/53/23 55/59/25
f 54/58/21 42/46/21 56/60/20
f 42/46/21 40/44/20 56/60/20
f 52/56/21 54/58/21 57/61/26
f 52/56/21 57/61/26 53/57/24
f 54/58/21 56/60/20 58/62/27
f 54/58/21 59/63/26 57/61/26
f 59/63/26 54/58/21 58/62/27
f 56/60/20 40/44/20 60/64/20
f 56/60/20 60/64/20 58/62/27
f 40/44/20 61/65/28 60/64/20
f 39/43/8 61/65/28 40/44/20
f 60/64/20 61/65/28 62/66/29
f 39/43/8 63/67/30 61/65/28
f 61/65/28 63/67/30 62/66/29
f 39/43/8 64/68/8 63/67/30
f 39/43/8 36/40/17 64/68/8
f 62/66/29 63/67/30 65/69/30
f 62/66/29 66/70/31 60/64/20
f 62/66/29 65/69/30 66/70/31
f 66/70/31 67/71/32 60/64/20
f 60/64/20 67/71/32 58/62/27
f 63/67/30 68/72/30 65/69/30
f 64/68/8 68/72/30 63/67/30
f 58/62/27 67/71/32 69/73/8
f 64/68/8 70/74/33 68/72/30
f 71/62/17 58/62/27 69/73/8
f 59/63/26 58/62/27 71/62/17
f 69/73/8 67/71/32 72/75/8
f 67/71/32 66/70/31 72/75/8
f 73/76/7 59/63/26 71/62/17
f 57/61/26 59/63/26 73/76/7
f 69/73/8 74/77/8 71/62/17
f 71/62/17 75/78/8 73/76/7
f 74/77/8 75/78/8 71/62/17
f 76/79/7 57/61/26 73/76/7
f 77/80/17 74/77/8 69/73/8
f 72/75/8 77/80/17 69/73/8
f 78/81/34 57/61/26 76/79/7
f 57/61/26 78/81/34 53/57/24
f 73/76/7 79/82/7 76/79/7
f 75/78/8 79/82/7 73/76/7
f 53/57/24 78/81/34 80/55/35
f 51/55/24 53/57/24 80/55/35
f 51/55/24 80/55/35 55/59/25
f 81/83/17 78/81/34 76/79/7
f 80/55/35 78/81/34 81/83/17
f 76/79/7 82/84/7 81/83/17
f 79/82/7 82/84/7 76/79/7
f 83/85/8 80/55/35 81/83/17
f 82/84/7 84/86/8 81/83/17
f 81/83/17 84/86/8 83/85/8
f 82/84/7 79/82/7 85/87/36
f 82/84/7 85/87/36 84/86/8
f 86/88/37 80/55/35 83/85/8
f 80/55/35 86/88/37 55/59/25
f 84/86/8 87/89/8 83/85/8
f 88/90/7 86/88/37 83/85/8
f 83/85/8 87/89/8 88/90/7
f 55/59/25 86/88/37 89/91/38
f 89/91/38 86/88/37 88/90/7
f 90/92/23 55/59/25 89/91/38
f 90/92/23 47/51/23 55/59/25
f 91/93/33 47/51/23 90/92/23
f 91/93/33 46/50/8 47/51/23
f 92/94/39 91/93/33 90/92/23
f 92/94/39 90/92/23 89/91/38
f 46/50/8 91/93/33 70/74/33
f 70/74/33 91/93/33 92/94/39
f 64/68/8 46/50/8 70/74/33
f 64/68/8 17/18/10 46/50/8
f 36/40/17 17/18/10 64/68/8
f 93/95/33 70/74/33 92/94/39
f 70/74/33 93/95/33 68/72/30
f 93/95/33 65/69/30 68/72/30
f 94/96/40 17/18/10 36/40/17
f 94/96/40 6/6/1 17/18/10
f 93/95/33 95/97/41 65/69/30
f 93/95/33 92/94/39 95/97/41
f 6/6/1 94/96/40 96/98/42
f 1/99/1 6/6/1 96/98/42
f 2/100/2 1/99/1 96/98/42
f 96/98/42 97/101/40 2/100/2
f 97/101/40 96/98/42 94/96/40
f 97/101/40 30/102/16 2/100/2
f 30/102/16 97/101/40 31/103/15
f 98/104/40 97/101/40 94/96/40
f 31/103/15 97/101/40 98/104/40
f 98/104/40 94/96/40 36/40/17
f 32/36/15 31/103/15 98/104/40
f 32/36/15 98/104/40 36/40/17
f 92/94/39 99/105/41 95/97/41
f 99/105/41 92/94/39 89/91/38
f 99/105/41 89/91/38 100/106/7
f 100/106/7 89/91/38 88/90/7
f 95/97/41 99/105/41 101/107/8
f 101/107/8 99/105/41 100/106/7
f 88/90/7 102/108/7 100/106/7
f 87/89/8 102/108/7 88/90/7
f 100/106/7 103/109/7 101/107/8
f 102/108/7 103/109/7 100/106/7
f 87/89/8 104/110/43 102/108/7
f 87/89/8 84/86/8 104/110/43
f 103/109/7 102/108/7 105/111/44
f 84/86/8 106/112/43 104/110/43
f 85/87/36 106/112/43 84/86/8
f 104/110/43 107/113/44 102/108/7
f 102/108/7 107/113/44 105/111/44
f 108/114/43 104/110/43 106/112/43
f 104/110/43 108/114/43 107/113/44
f 85/87/36 109/115/36 106/112/43
f 110/116/43 108/114/43 106/112/43
f 109/115/36 110/116/43 106/112/43
f 108/114/43 111/117/44 107/113/44
f 109/115/36 85/87/36 112/118/36
f 79/82/7 112/118/36 85/87/36
f 111/117/44 113/119/44 107/113/44
f 113/119/44 105/111/44 107/113/44
f 114/120/17 112/118/36 79/82/7
f 75/78/8 114/120/17 79/82/7
f 75/78/8 74/77/8 114/120/17
f 114/120/17 115/121/45 112/118/36
f 74/77/8 116/122/8 114/120/17
f 115/121/45 114/120/17 116/122/8
f 117/123/8 116/122/8 74/77/8
f 77/80/17 117/123/8 74/77/8
f 115/121/45 118/124/36 112/118/36
f 118/124/36 109/115/36 112/118/36
f 77/80/17 119/125/8 117/123/8
f 119/125/8 77/80/17 72/75/8
f 109/115/36 118/124/36 120/126/46
f 121/127/8 119/125/8 72/75/8
f 72/75/8 66/70/31 121/127/8
f 122/128/46 109/115/36 120/126/46
f 109/115/36 122/128/46 110/116/43
f 66/70/31 123/129/31 121/127/8
f 65/69/30 123/129/31 66/70/31
f 95/97/41 123/129/31 65/69/30
f 95/97/41 124/130/8 123/129/31
f 124/130/8 121/127/8 123/129/31
f 124/130/8 95/97/41 101/107/8
f 124/130/8 125/131/8 121/127/8
f 125/131/8 119/125/8 121/127/8
f 101/107/8 126/132/17 124/130/8
f 126/132/17 125/131/8 124/130/8
f 103/109/7 126/132/17 101/107/8
f 103/109/7 105/111/44 126/132/17
f 125/131/8 127/133/8 119/125/8
f 125/131/8 126/132/17 127/133/8
f 105/111/44 128/134/8 126/132/17
f 126/132/17 128/134/8 127/133/8
f 105/111/44 113/119/44 128/134/8
f 127/133/8 129/135/8 119/125/8
f 119/125/8 129/135/8 117/123/8
f 130/136/47 127/133/8 128/134/8
f 127/133/8 130/136/47 129/135/8
f 113/119/44 131/137/47 128/134/8
f 131/137/47 130/136/47 128/134/8
f 132/138/48 117/123/8 129/135/8
f 117/123/8 132/138/48 116/122/8
f 130/136/47 133/139/48 129/135/8
f 133/139/48 132/138/48 129/135/8
f 132/138/48 134/140/45 116/122/8
f 134/140/45 115/121/45 116/122/8
f 132/138/48 133/139/48 135/141/49
f 132/138/48 136/142/49 134/140/45
f 136/142/49 132/138/48 135/141/49
f 115/121/45 134/140/45 137/143/50
f 136/142/49 137/143/50 134/140/45
f 130/136/47 138/144/51 133/139/48
f 138/144/51 135/141/49 133/139/48
f 138/144/51 130/136/47 139/145/51
f 130/136/47 131/137/47 139/145/51
f 138/144/51 140/146/52 135/141/49
f 138/144/51 139/145/51 140/146/52
f 136/142/49 135/141/49 141/147/53
f 136/142/49 141/147/53 137/143/50
f 140/146/52 142/148/53 135/141/49
f 135/141/49 142/148/53 141/147/53
f 143/149/54 139/145/51 131/137/47
f 113/119/44 143/149/54 131/137/47
f 139/145/51 144/150/52 140/146/52
f 143/149/54 113/119/44 145/151/54
f 113/119/44 111/117/44 145/151/54
f 143/149/54 146/152/36 139/145/51
f 143/149/54 145/151/54 146/152/36
f 146/152/36 144/150/52 139/145/51
f 147/153/55 145/151/54 111/117/44
f 108/114/43 147/153/55 111/117/44
f 145/151/54 148/154/36 146/152/36
f 147/153/55 108/114/43 149/155/55
f 108/114/43 110/116/43 149/155/55
f 147/153/55 150/156/56 145/151/54
f 147/153/55 149/155/55 150/156/56
f 150/156/56 148/154/36 145/151/54
f 122/128/46 149/155/55 110/116/43
f 122/128/46 151/157/44 149/155/55
f 122/128/46 120/126/46 151/157/44
f 149/155/55 152/158/56 150/156/56
f 151/157/44 152/158/56 149/155/55
f 150/156/56 153/159/8 148/154/36
f 150/156/56 152/158/56 153/159/8
f 146/152/36 148/154/36 154/160/57
f 146/152/36 154/160/57 144/150/52
f 153/159/8 155/161/57 148/154/36
f 148/154/36 155/161/57 154/160/57
f 153/159/8 156/162/17 155/161/57
f 155/161/57 157/163/7 154/160/57
f 156/162/17 157/163/7 155/161/57
f 158/164/17 156/162/17 153/159/8
f 157/163/7 156/162/17 158/164/17
f 159/165/8 158/164/17 153/159/8
f 152/158/56 159/165/8 153/159/8
f 160/166/7 157/163/7 158/164/17
f 160/166/7 158/164/17 159/165/8
f 161/167/57 159/165/8 152/158/56
f 161/167/57 160/166/7 159/165/8
f 151/157/44 161/167/57 152/158/56
f 162/168/7 157/163/7 160/166/7
f 157/163/7 162/168/7 154/160/57
f 163/169/7 160/166/7 161/167/57
f 163/169/7 162/168/7 160/166/7
f 151/157/44 164/170/44 161/167/57
f 120/126/46 164/170/44 151/157/44
f 165/171/57 163/169/7 161/167/57
f 164/170/44 165/171/57 161/167/57
f 154/160/57 162/168/7 166/172/19
f 154/160/57 166/172/19 144/150/52
f 167/173/8 162/168/7 163/169/7
f 162/168/7 167/173/8 166/172/19
f 168/174/8 163/169/7 165/171/57
f 168/174/8 167/173/8 163/169/7
f 144/150/52 166/172/19 169/175/17
f 166/172/19 167/173/8 169/175/17
f 140/146/52 144/150/52 169/175/17
f 140/146/52 169/175/17 142/148/53
f 170/176/19 168/174/8 165/171/57
f 170/176/19 165/171/57 164/170/44
f 167/173/8 168/174/8 171/177/8
f 171/177/8 168/174/8 170/176/19
f 167/173/8 172/178/8 169/175/17
f 172/178/8 167/173/8 171/177/8
f 169/175/17 172/178/8 173/179/58
f 169/175/17 173/179/58 142/148/53
f 172/178/8 174/180/19 173/179/58
f 172/178/8 171/177/8 174/180/19
f 142/148/53 173/179/58 175/181/53
f 173/179/58 174/180/19 175/181/53
f 141/147/53 142/148/53 175/181/53
f 171/177/8 176/182/8 174/180/19
f 174/180/19 176/182/8 175/181/53
f 176/182/8 171/177/8 177/183/8
f 175/181/53 176/182/8 177/183/8
f 177/183/8 171/177/8 170/176/19
f 141/147/53 175/181/53 178/184/59
f 175/181/53 177/183/8 178/184/59
f 178/184/59 177/183/8 170/176/19
f 141/147/53 178/184/59 137/143/50
f 179/185/60 178/184/59 170/176/19
f 137/143/50 178/184/59 179/185/60
f 179/185/60 170/176/19 164/170/44
f 179/185/60 164/170/44 120/126/46
f 180/186/50 137/143/50 179/185/60
f 180/186/50 179/185/60 120/126/46
f 180/186/50 115/121/45 137/143/50
f 180/186/50 120/126/46 118/124/36
f 115/121/45 180/186/50 118/124/36
