# Blender 3.6.18
# www.blender.org
mtllib Mesh.1081.mtl
o Bistro_Research_Exterior_Paris_Building_01_paris_buildi_1ec5c78
v 11.098475 16.294209 6.110605
v 11.105709 16.279655 6.121705
v 11.115807 16.290304 6.125713
v 11.094810 13.159686 6.109178
v 11.095558 13.150306 6.119534
v 11.105712 13.159686 6.121706
v 11.101802 13.150307 6.145911
v 11.120452 13.142941 6.163229
v 11.112882 13.159685 6.151993
v 13.063092 15.992493 6.918447
v 13.052814 16.011726 6.906626
v 13.041758 16.002007 6.901361
v 13.109880 16.542145 6.936636
v 13.119546 16.539303 6.930330
v 13.110804 16.548685 6.926931
v 13.030866 16.029678 6.861892
v 13.032111 16.015736 6.871169
v 13.042462 16.026459 6.874227
v 10.977282 16.548683 5.678101
v 10.835662 16.548683 6.042444
v 13.252269 16.548685 6.562832
v 10.968539 16.539301 5.674700
v 10.968539 15.966491 5.674700
v 10.826920 16.539301 6.039046
v 10.826920 15.966491 6.039046
v 10.977282 15.957110 5.678101
v 11.030291 15.957111 5.698713
v 10.835662 15.957110 6.042444
v 10.889129 15.957111 6.063229
v 11.039032 15.947731 5.702112
v 11.039034 13.081915 5.702113
v 10.897876 15.947731 6.066630
v 10.897336 13.081913 6.066457
v 11.310349 16.196159 5.807633
v 11.169208 16.196159 6.172115
v 11.310353 13.081915 5.807634
v 11.168669 13.081915 6.171943
v 11.319092 16.205540 5.811033
v 12.910017 16.205540 6.429727
v 11.177945 16.205538 6.175512
v 12.768939 16.205540 6.794026
v 12.918759 13.081916 6.433126
v 12.777147 13.081916 6.797255
v 12.918758 16.196161 6.433126
v 12.777686 16.196161 6.797427
v 13.180969 15.947732 6.535108
v 13.039454 15.947734 6.899195
v 13.180969 13.081916 6.535107
v 13.039434 13.081916 6.899225
v 13.189712 15.957112 6.538507
v 13.252268 15.957112 6.562832
v 13.048196 15.957112 6.902593
v 13.110804 15.957112 6.926931
v 13.261010 16.539305 6.566232
v 13.261010 15.966491 6.566232
v 13.119546 15.966491 6.930330
v 13.042460 16.452383 6.874226
v 13.052814 16.470121 6.906626
v 12.969263 16.015736 6.846735
v 12.982721 16.002007 6.878412
v 12.956973 16.006458 6.840374
v 12.956976 13.159688 6.840374
v 12.972048 15.991087 6.875846
v 12.972048 13.159686 6.875847
v 12.946222 13.150310 6.839049
v 12.875461 13.150308 6.811527
v 12.958386 13.150308 6.867679
v 12.853032 13.150309 6.826717
v 12.866508 13.159688 6.806261
v 12.866507 16.279657 6.806261
v 12.840733 13.159688 6.823720
v 12.840731 16.262550 6.823720
v 12.856339 16.290306 6.802398
v 12.830733 16.273308 6.819742
v 11.122932 16.273304 6.155820
v 11.112879 16.262548 6.151993
v 10.999491 13.150307 6.082174
v 10.971107 13.150308 6.095099
v 10.990666 13.159685 6.075886
v 10.990664 16.019991 6.075884
v 10.955514 13.159686 6.091894
v 10.955512 16.004606 6.091893
v 10.977298 16.029261 6.072278
v 10.923652 16.029261 6.051422
v 10.945909 16.015526 6.086572
v 10.896096 16.015526 6.067207
v 10.913956 16.039984 6.046684
v 10.913956 16.452377 6.046684
v 10.884386 16.025242 6.063622
v 10.884387 16.470127 6.063623
v 10.923930 16.463289 6.051095
v 13.032124 16.463293 6.870742
v 10.895473 16.480366 6.067400
v 13.042089 16.480370 6.901922
v 13.210819 15.957112 6.604608
v 13.104929 15.957112 6.877040
v 13.210819 13.081916 6.604608
v 13.104911 13.081916 6.877071
v 10.922609 13.081916 6.038871
v 10.922628 15.957112 6.038840
v 10.871029 13.082494 6.018787
v 10.869707 15.992485 6.018267
v 10.865687 13.082592 6.006641
v 10.865686 15.997444 6.006640
v 10.922642 13.082592 5.860115
v 10.922640 15.997444 5.860114
v 12.878783 16.294201 6.802754
v 11.007944 13.159685 6.075398
v 12.944566 13.159688 6.828340
v 12.883018 13.159686 6.804401
v 10.829853 15.963577 6.050250
v 10.900803 15.963593 6.077831
v 10.940658 16.004484 6.093325
v 10.869916 16.004498 6.065823
v 10.941386 13.143096 6.093611
v 11.160074 16.212612 6.178628
v 12.780495 16.212152 6.808582
v 12.981726 13.143495 6.886820
v 12.827017 13.143436 6.826670
v 13.028635 15.962072 6.905052
v 13.108724 15.962063 6.936186
v 13.061935 16.492132 6.917998
v 10.829358 16.541698 6.050056
v 12.983134 15.992484 6.887364
v 12.950731 16.029261 6.830739
v 11.120780 16.261023 6.163352
v 10.899529 13.089126 6.077370
v 10.902678 13.081913 6.078599
v 12.779697 13.088788 6.808306
v 12.782489 13.081916 6.809395
v 13.033163 16.451735 6.862785
v 13.094111 15.962072 6.882898
v 13.041192 15.997444 6.862325
v 13.041193 13.082592 6.862326
v 13.092773 13.082013 6.882410
v 11.002639 16.042444 6.073336
v 10.930837 16.043201 6.045421
v 10.928805 16.452057 6.044630
v 10.870413 16.492573 6.066016
v 11.156526 13.081915 6.177287
v 13.030030 13.088728 6.905628
v 13.027295 13.081916 6.904569
v 12.826765 16.261488 6.826569
v 11.159859 13.089281 6.178578
vn -0.3976 0.0197 0.9173
vn -0.7948 0.0039 0.6069
vn -0.1930 0.8861 0.4214
vn -0.3653 -0.0039 0.9309
vn -0.3899 0.7286 0.5632
vn -0.7986 0.0040 0.6019
vn -0.3360 0.7707 0.5414
vn -0.8278 0.0039 0.5610
vn -0.7700 0.0352 0.6371
vn -0.4912 0.5541 0.6720
vn 0.6520 0.3438 0.6757
vn -0.0824 0.8440 0.5299
vn -0.4594 0.5222 0.7185
vn -0.7594 0.0433 0.6492
vn -0.0039 1.0000 -0.0039
vn -0.9319 -0.0039 -0.3626
vn -0.0039 -1.0000 -0.0039
vn 0.9335 -0.0039 0.3585
vn 0.9335 -0.0040 0.3584
vn 0.9335 -0.0039 0.3584
vn -0.9533 -0.0039 0.3021
vn -0.1777 0.8730 0.4542
vn -0.1777 0.8730 0.4543
vn -0.1778 0.8730 0.4543
vn -0.9216 -0.0039 0.3882
vn -0.9215 -0.0039 0.3882
vn 0.5610 -0.0039 0.8278
vn -0.2087 0.8309 0.5158
vn -0.2087 0.8309 0.5159
vn -0.9748 -0.0039 0.2231
vn -0.9748 -0.0039 0.2232
vn 0.4138 -0.0039 0.9104
vn 0.4138 -0.0040 0.9104
vn 0.4923 -0.0039 0.8704
vn -0.2073 -0.8333 0.5125
vn -0.4983 -0.0039 0.8670
vn -0.4982 -0.0039 0.8670
vn -0.1536 0.8862 0.4372
vn -0.3350 0.0197 0.9420
vn -0.1144 0.7219 0.6825
vn -0.4203 0.7188 0.5538
vn -0.0591 0.7291 0.6818
vn -0.6323 -0.7565 -0.1668
vn -0.6377 -0.7551 -0.1526
vn -0.1064 0.5794 0.8080
vn -0.1066 0.5174 0.8491
vn -0.1295 0.7575 0.6398
vn -0.0430 -0.8483 0.5277
vn -0.3325 -0.8489 0.4108
vn -0.3567 0.7644 0.5371
vn -0.1059 0.7807 0.6159
vn -0.3653 -0.0040 0.9309
vn 0.5635 -0.7684 0.3034
vn -0.3652 -0.0039 0.9309
vn 0.5667 -0.7700 0.2931
vn -0.7697 -0.0430 0.6369
vn -0.3022 0.8438 0.4435
vn -0.9369 0.3489 0.0196
vn -0.6624 0.7016 -0.2626
vn 0.6593 0.7068 0.2566
vn 0.6593 0.7067 0.2566
vn -0.6588 -0.7055 -0.2612
vn -0.9344 -0.3558 0.0195
vn -0.6588 -0.7056 -0.2612
vn -0.9802 -0.1054 0.1679
vn 0.6288 -0.0989 0.7712
vn 0.6557 -0.7106 0.2552
vn 0.6289 -0.0989 0.7712
vn -0.9796 -0.0976 0.1756
vn 0.5651 -0.1067 0.8181
vn 0.5652 -0.1067 0.8180
vn 0.1855 0.0040 0.9826
vn 0.2007 0.0039 0.9797
vn 0.0984 0.0039 0.9951
vn 0.1061 0.0039 0.9943
vn -0.9319 -0.0039 0.3626
vn -0.9319 -0.0039 0.3627
vn -0.7415 0.0039 0.6709
vn -0.7634 0.0039 0.6459
vn -0.4615 0.6113 0.6429
vn -0.4597 0.4989 0.7347
vn -0.3198 0.5410 0.7779
vn -0.9731 -0.0039 0.2306
vn 0.6499 -0.3507 0.6742
vn 0.5667 -0.7700 0.2932
vn -0.3743 -0.0512 0.9259
vn -0.7591 -0.0511 0.6490
vn -0.3092 -0.5675 0.7631
vn -0.3185 -0.5465 0.7745
vn -0.2323 -0.0039 0.9726
vn 0.4362 -0.0039 0.8999
vn 0.4362 -0.0039 0.8998
vn 0.0983 0.0039 0.9951
vn -0.1226 0.4705 0.8738
vn 0.1061 0.0040 0.9943
vn -0.1375 0.5303 0.8366
vn 0.1060 0.0432 0.9934
vn 0.1534 0.0433 0.9872
vn 0.1060 -0.0510 0.9931
vn -0.3580 -0.0511 0.9323
vn -0.2932 -0.5667 0.7700
vn 0.1533 -0.0511 0.9869
vn -0.3024 -0.5458 0.7814
vn 0.5168 -0.0039 0.8561
vn 0.2006 0.0039 0.9797
vn -0.2965 0.5416 0.7866
vn 0.1806 0.0039 0.9836
vn 0.5879 -0.0039 0.8089
vt 0.480469 0.636475
vt 0.475342 0.633057
vt 0.478516 0.629395
vt 0.015030 0.672363
vt 0.011276 0.670410
vt 0.014351 0.666992
vt 0.011528 0.668945
vt 0.008537 0.661133
vt 0.014221 0.664795
vt 0.071655 0.290039
vt 0.069092 0.282715
vt 0.074280 0.282715
vt 0.031799 0.671631
vt 0.028091 0.671631
vt 0.030502 0.668213
vt 0.043335 0.657715
vt 0.041870 0.662354
vt 0.038422 0.660400
vt 0.673828 0.538330
vt 0.664062 0.660645
vt -0.089539 0.478516
vt -0.099182 0.600342
vt 0.133545 0.481445
vt 0.133545 0.671875
vt 0.019302 0.481445
vt 0.019302 0.671875
vt 0.066406 0.207031
vt 0.067078 0.188477
vt 0.192261 0.211426
vt 0.192871 0.192871
vt 0.730469 0.569824
vt -0.222412 0.569824
vt 0.730469 0.455566
vt -0.222412 0.455566
vt 1.261719 0.428711
vt 1.261719 0.543213
vt 0.223999 0.428711
vt 0.223999 0.543213
vt 0.541504 0.329102
vt 0.006790 0.309082
vt 0.545898 0.206543
vt 0.011177 0.186523
vt 0.224243 0.476562
vt 0.224243 0.362305
vt 1.259766 0.476562
vt 1.259766 0.362305
vt 0.734375 0.376953
vt 0.734375 0.491699
vt -0.220215 0.376953
vt -0.220215 0.491699
vt 0.454834 0.183594
vt 0.475830 0.182617
vt 0.459717 0.305664
vt 0.480713 0.305176
vt 0.093811 0.338379
vt -0.020599 0.338379
vt 0.093811 0.147461
vt -0.020599 0.147461
vt 0.009544 0.221680
vt 0.009544 0.081543
vt 0.020523 0.227539
vt 0.020523 0.076660
vt 0.063599 0.662354
vt 0.035461 0.671387
vt 0.055878 0.671387
vt 0.751953 0.400391
vt -0.148315 0.400391
vt 0.747070 0.388672
vt -0.148315 0.388672
vt 0.452637 0.649414
vt 0.477783 0.649414
vt 0.445557 0.656738
vt 0.482666 0.656738
vt -0.335205 -0.104492
vt 0.699219 -0.104492
vt -0.335205 -0.095703
vt 0.693359 -0.095703
vt -0.043182 0.640625
vt 0.591309 0.641846
vt -0.037201 0.649170
vt 0.584961 0.650635
vt 1.197266 0.606934
vt 0.190430 0.606934
vt 1.191406 0.596924
vt 0.190430 0.596924
vt 0.448486 0.664062
vt 0.483154 0.664062
vt 0.443359 0.671631
vt 0.490479 0.671631
vt -0.335205 0.481934
vt 0.612793 0.481934
vt -0.335205 0.494141
vt 0.607910 0.494141
vt 0.445801 0.631592
vt 0.465088 0.631592
vt 0.453857 0.639893
vt 0.471680 0.639893
vt 0.619629 0.505859
vt 0.756348 0.505859
vt 0.614746 0.516357
vt 0.762207 0.516357
vt 0.630859 0.681396
vt -0.143921 0.652588
vt 0.638184 0.672852
vt -0.150635 0.643555
vt 0.711914 0.670166
vt 0.711914 0.755859
vt -0.246216 0.670166
vt -0.246216 0.755859
vt 0.243530 0.631348
vt 1.201172 0.631348
vt 0.243774 0.647461
vt 1.212891 0.647949
vt 0.267334 0.535645
vt 1.187500 0.535645
vt 0.267334 0.585205
vt 1.187500 0.585205
vt -0.050323 0.637939
vt 0.598633 0.639404
vt 0.449951 0.660889
vt 0.481445 0.660889
vt 1.202148 0.610596
vt 0.190430 0.611328
vt 0.014015 0.367676
vt 0.017975 0.370117
vt 0.013802 0.392578
vt 0.017776 0.391602
vt 0.195190 0.212402
vt 0.196045 0.187988
vt 0.433105 0.653809
vt 0.437500 0.653564
vt 0.432861 0.677734
vt 0.437256 0.670410
vt 0.435303 0.674805
vt 0.500000 0.674805
vt 0.551270 0.203613
vt 0.006256 0.183594
vt 0.436035 0.659912
vt 0.490723 0.659912
vt 0.454346 0.309082
vt 0.481201 0.308105
vt 0.024597 0.234375
vt 0.024796 0.070312
vt -0.100220 0.603271
vt 0.665039 0.663574
vt 0.666992 0.660889
vt 0.676758 0.538574
vt -0.092468 0.478027
vt -0.102112 0.600098
vt 0.149414 0.643555
vt 0.149414 0.647705
vt 0.027344 0.643555
vt 0.027344 0.647705
vt 0.067200 0.185547
vt 0.192993 0.189941
vt 0.464355 0.248047
vt 0.460205 0.248047
vt 0.464355 0.125977
vt 0.460205 0.125977
vt 0.003851 0.309082
vt 0.008232 0.186523
vt 0.354980 0.273926
vt 0.354980 0.269531
vt 0.474854 0.275879
vt 0.474854 0.271484
vt 0.008125 0.078125
vt 0.018356 0.073730
vt 0.480957 0.648926
vt 0.486816 0.657471
vt 0.445068 0.663574
vt 0.438965 0.672119
vt 0.040741 0.647705
vt 0.042450 0.643555
vt 0.050507 0.647705
vt 0.054535 0.643555
vt 1.185547 0.532715
vt 0.267334 0.532715
vt 0.015572 0.480469
vt 0.017822 0.478516
vt 0.015488 0.672852
vt 0.017822 0.675049
vt 0.747559 0.383789
vt -0.153442 0.384277
vt -0.151367 0.392578
vt -0.151367 0.402344
vt -0.148315 0.405762
vt 0.759277 0.404297
vt 0.027069 0.675049
vt 0.054688 0.675049
vt 0.059357 0.673584
vt 0.067993 0.663330
vt 1.201172 0.605225
vt 1.195312 0.595215
vt 1.191406 0.592773
vt 0.185059 0.593018
vt 0.733398 0.457031
vt 0.735840 0.451660
vt -0.219971 0.452148
vt -0.222412 0.451660
vt 1.262695 0.363770
vt 1.264648 0.358398
vt 0.226440 0.358398
vt 0.224243 0.357910
vt 0.363037 0.279297
vt 0.363037 0.283691
vt 0.360107 0.280762
vt 0.482910 0.285645
vt 0.483154 0.281250
vt 0.005436 0.221191
vt 0.005051 0.082520
vt 0.007980 0.225098
vt 0.018555 0.230469
vt 0.708496 0.761841
vt 0.720215 0.778320
vt -0.244019 0.778320
vt -0.244141 0.762329
vt -0.244263 0.758057
vt 0.707031 0.758057
vt -0.338379 0.479492
vt -0.335205 0.476562
vt 0.620605 0.478027
vt -0.335205 0.449219
vt 0.704102 0.448242
vt 0.616211 0.486328
vt 0.611328 0.497070
vt 0.607910 0.499023
vt 0.616211 0.502930
vt 0.620605 0.500244
vt -0.340820 0.499023
vt -0.338379 0.489258
vt 0.611328 0.512695
vt 0.607910 0.521240
vt 0.756348 0.500977
vt 0.760254 0.502930
vt 0.760254 -0.156250
vt 0.765625 0.512939
vt 0.756348 -0.157227
vt 0.704102 -0.108398
vt 0.769531 0.520996
vt 0.769531 -0.164062
vt 0.765625 -0.158203
vt 0.762207 -0.162109
vt 0.594238 0.533691
vt 0.786133 0.533936
vt 0.594238 0.511475
vt 0.786133 -0.178711
vt -0.358643 0.511963
vt 0.604004 -0.165039
vt -0.361084 0.510986
vt -0.361084 0.431641
vt 0.595215 -0.182617
vt 0.785156 -0.182617
vt 0.593750 -0.178711
vt 0.604004 -0.139648
vt 0.593750 -0.153320
vt -0.340576 -0.138672
vt 0.588867 -0.157227
vt 0.592285 -0.160156
vt -0.361084 -0.157227
vt -0.358887 -0.154297
vt -0.361084 -0.153320
vt -0.340576 -0.090820
vt -0.361084 -0.077148
vt -0.358887 -0.076172
vt -0.338379 -0.099609
vt 0.692871 -0.090820
vt 0.676758 -0.076172
vt 0.692871 0.442871
vt 0.676758 0.430664
vt 0.696777 -0.091797
vt 0.696777 0.441895
vt 0.702637 -0.101562
vt -0.340820 0.442871
vt 0.671387 0.427246
vt 0.674316 0.424805
vt -0.361084 0.427246
vt -0.358643 0.430664
vt -0.335205 -0.110352
vt -0.338379 -0.107422
vt -0.335205 -0.128906
vt 0.616211 -0.130859
vt 0.616211 -0.156250
vt 0.611816 -0.136719
vt 0.611816 -0.156250
vt 0.608398 -0.132812
s 1
usemtl MASTER_Concrete_Smooth
f 1/1/1 2/2/2 3/3/3
f 4/4/4 5/5/5 6/6/6
f 7/7/7 8/8/4 9/9/8
f 10/10/4 11/11/9 12/12/10
f 13/13/4 14/14/11 15/15/12
f 16/16/4 17/17/13 18/18/14
f 19/19/15 20/20/15 21/21/15
f 20/20/15 15/22/15 21/21/15
f 22/23/16 23/24/16 24/25/16
f 23/24/16 25/26/16 24/25/16
f 26/27/17 27/28/17 28/29/17
f 27/28/17 29/30/17 28/29/17
f 30/31/16 31/32/16 32/33/16
f 31/32/16 33/34/16 32/33/16
f 34/35/18 35/36/18 36/37/19
f 35/36/18 37/38/18 36/37/19
f 38/39/17 39/40/17 40/41/17
f 39/40/17 41/42/17 40/41/17
f 42/43/16 43/44/16 44/45/16
f 43/44/16 45/46/16 44/45/16
f 46/47/19 47/48/19 48/49/20
f 47/48/19 49/50/20 48/49/20
f 50/51/17 51/52/17 52/53/17
f 51/52/17 53/54/17 52/53/17
f 54/55/18 14/56/20 55/57/20
f 14/56/20 56/58/20 55/57/20
f 57/59/21 18/60/21 58/61/21
f 18/60/21 11/62/21 58/61/21
f 17/17/22 59/63/23 12/64/24
f 59/63/23 60/65/22 12/64/24
f 61/66/25 62/67/26 63/68/25
f 62/67/26 64/69/25 63/68/25
f 65/70/15 66/71/15 67/72/15
f 66/71/15 68/73/15 67/72/15
f 69/74/27 70/75/27 71/76/27
f 70/75/27 72/77/27 71/76/27
f 73/78/28 3/79/28 74/80/29
f 3/79/28 75/81/28 74/80/29
f 2/82/30 6/83/31 76/84/30
f 6/83/31 9/85/31 76/84/30
f 5/86/15 77/87/15 7/88/15
f 77/87/15 78/89/15 7/88/15
f 79/90/32 80/91/32 81/92/32
f 80/91/32 82/93/33 81/92/32
f 83/94/22 84/95/22 85/96/24
f 84/95/22 86/97/24 85/96/24
f 87/98/34 88/99/34 89/100/34
f 88/99/34 90/101/34 89/100/34
f 91/102/35 92/103/35 93/104/35
f 92/103/35 94/105/35 93/104/35
f 95/106/20 96/107/20 97/108/20
f 96/107/20 98/109/20 97/108/20
f 99/110/4 100/111/4 101/112/36
f 100/111/4 102/113/37 101/112/36
f 103/114/16 104/115/16 105/116/16
f 104/115/16 106/117/16 105/116/16
f 73/78/38 107/118/39 3/79/3
f 107/118/39 1/119/1 3/79/3
f 5/86/5 4/120/4 77/87/40
f 4/120/4 108/121/4 77/87/40
f 2/82/2 1/122/1 6/83/6
f 1/122/1 4/123/4 6/83/6
f 65/124/41 109/125/4 66/126/42
f 109/125/4 110/127/4 66/126/42
f 111/128/4 28/29/43 112/129/4
f 28/29/43 29/30/44 112/129/4
f 113/130/4 85/131/45 114/132/4
f 85/131/45 86/133/46 114/132/4
f 8/134/4 7/88/7 115/135/4
f 7/88/7 78/89/47 115/135/4
f 116/136/4 40/41/48 117/137/4
f 40/41/48 41/42/49 117/137/4
f 118/138/4 67/72/50 119/139/4
f 67/72/50 68/73/51 119/139/4
f 120/140/52 52/53/53 121/141/54
f 52/53/53 53/54/55 121/141/54
f 122/142/4 58/61/56 10/143/4
f 58/61/56 11/62/9 10/143/4
f 13/144/4 15/22/12 123/145/52
f 15/22/12 20/20/57 123/145/52
f 24/146/58 20/20/57 22/147/59
f 20/20/57 19/19/59 22/147/59
f 54/148/60 21/21/60 14/149/11
f 21/21/61 15/22/12 14/149/11
f 23/150/62 26/151/62 25/152/63
f 26/151/62 28/153/43 25/152/63
f 27/28/64 30/154/64 29/30/44
f 30/154/62 32/155/65 29/30/44
f 40/156/48 35/157/66 38/158/67
f 35/157/68 34/159/67 38/158/67
f 39/40/62 44/160/62 41/42/49
f 44/160/64 45/161/69 41/42/49
f 52/162/53 47/163/70 50/164/67
f 47/163/71 46/165/67 50/164/67
f 18/60/14 17/166/13 11/62/9
f 17/166/13 12/167/10 11/62/9
f 66/71/42 69/168/72 68/73/51
f 69/168/72 71/169/73 68/73/51
f 6/170/6 5/86/5 9/171/8
f 5/86/5 7/88/7 9/171/8
f 77/172/40 79/173/74 78/174/47
f 79/173/74 81/175/75 78/174/47
f 102/176/37 104/115/76 101/177/36
f 104/115/77 103/114/77 101/177/37
f 123/178/52 20/179/57 24/25/58
f 123/178/52 24/25/58 111/180/4
f 24/25/58 25/26/63 111/180/4
f 25/26/63 28/181/43 111/180/4
f 124/182/4 63/68/78 118/183/4
f 63/68/78 64/69/78 118/183/4
f 67/184/50 118/183/4 64/69/78
f 65/185/41 67/184/50 64/69/78
f 62/67/79 65/185/41 64/69/78
f 65/185/41 62/67/79 109/186/4
f 125/187/4 109/186/4 62/67/79
f 61/66/79 125/187/4 62/67/79
f 10/188/4 12/64/10 124/189/4
f 12/64/10 60/65/80 124/189/4
f 63/190/78 124/189/4 60/65/80
f 61/191/79 63/190/78 60/65/80
f 59/63/81 61/191/79 60/65/80
f 3/192/3 2/82/2 75/193/82
f 2/82/2 76/84/8 75/193/82
f 76/84/8 126/194/4 75/193/82
f 126/194/4 76/84/8 8/195/4
f 76/84/8 9/85/8 8/195/4
f 29/196/44 32/33/65 112/197/4
f 112/197/4 32/33/65 127/198/4
f 32/33/65 33/34/30 127/198/4
f 128/199/4 127/198/4 33/34/30
f 41/200/49 45/46/69 117/201/4
f 117/201/4 45/46/69 129/202/4
f 45/46/69 43/44/83 129/202/4
f 130/203/4 129/202/4 43/44/83
f 53/204/55 56/205/84 121/206/54
f 56/205/84 53/204/55 55/207/67
f 53/204/85 51/208/67 55/207/67
f 131/209/86 16/210/4 18/60/14
f 57/59/87 131/209/86 18/60/14
f 131/209/86 57/59/87 92/211/88
f 92/211/88 57/59/87 94/212/89
f 57/59/87 58/61/56 94/212/89
f 132/213/90 133/214/4 134/215/4
f 135/216/90 132/213/90 134/215/4
f 135/216/90 98/217/91 132/213/90
f 98/217/92 96/218/92 132/213/90
f 79/90/74 77/219/40 108/220/4
f 79/90/74 108/220/4 80/91/93
f 108/220/4 136/221/4 80/91/93
f 136/221/4 108/220/4 4/222/4
f 1/223/1 136/221/4 4/222/4
f 136/221/4 83/224/94 80/91/93
f 80/91/93 83/224/94 82/93/95
f 83/224/94 85/225/45 82/93/95
f 85/225/45 113/226/4 82/93/95
f 83/224/94 136/221/4 84/227/96
f 81/92/75 82/93/95 113/226/4
f 136/221/4 137/228/4 84/227/96
f 81/92/75 115/229/4 78/230/47
f 115/229/4 81/92/75 113/226/4
f 87/98/97 84/227/96 137/228/4
f 84/227/96 87/98/97 86/231/46
f 87/98/97 89/100/98 86/231/46
f 87/98/97 137/228/4 88/99/99
f 89/100/98 114/232/4 86/231/46
f 137/228/4 138/233/100 88/99/99
f 138/233/100 137/228/4 136/221/4
f 1/223/1 138/233/100 136/221/4
f 138/233/100 91/234/101 88/99/99
f 88/99/99 91/234/101 90/101/102
f 91/234/101 138/233/100 92/235/88
f 91/234/101 93/236/103 90/101/102
f 138/233/100 131/237/86 92/235/88
f 138/233/100 1/223/1 131/237/86
f 1/223/1 107/238/39 131/237/86
f 89/100/98 90/101/102 139/239/4
f 93/236/103 139/239/4 90/101/102
f 114/232/4 89/100/98 139/239/4
f 139/239/4 93/236/103 122/240/4
f 93/236/103 94/241/89 122/240/4
f 58/242/56 122/240/4 94/241/89
f 111/243/4 114/232/4 139/239/4
f 123/244/52 111/243/4 139/239/4
f 123/244/52 139/239/4 122/240/4
f 111/243/4 112/245/4 114/232/4
f 13/246/4 123/244/52 122/240/4
f 112/245/4 113/226/4 114/232/4
f 112/245/4 127/247/4 113/226/4
f 13/246/4 122/240/4 10/248/4
f 127/247/4 115/229/4 113/226/4
f 127/247/4 128/249/4 115/229/4
f 128/249/4 140/250/4 115/229/4
f 56/251/84 14/252/11 13/246/4
f 121/253/54 56/251/84 13/246/4
f 121/253/54 13/246/4 10/248/4
f 121/253/54 10/248/4 124/254/4
f 120/255/52 121/253/54 124/254/4
f 120/255/52 124/254/4 118/256/4
f 47/257/70 52/258/53 120/255/52
f 49/259/104 47/257/70 120/255/52
f 141/260/4 120/255/52 118/256/4
f 141/260/4 49/259/104 120/255/52
f 49/259/104 141/260/4 142/261/4
f 141/260/4 118/256/4 119/262/4
f 142/261/4 141/260/4 119/262/4
f 130/263/4 142/261/4 119/262/4
f 129/264/4 130/263/4 119/262/4
f 71/76/73 119/262/4 68/265/51
f 129/264/4 119/262/4 143/266/4
f 119/262/4 71/76/73 143/266/4
f 117/267/4 129/264/4 143/266/4
f 71/76/73 72/77/105 143/266/4
f 117/267/4 143/266/4 126/268/4
f 116/269/4 117/267/4 126/268/4
f 74/270/106 143/266/4 72/77/105
f 143/266/4 74/270/106 126/268/4
f 74/270/106 75/271/82 126/268/4
f 73/272/38 74/270/106 72/77/105
f 70/75/107 73/272/38 72/77/105
f 116/269/4 126/268/4 8/273/4
f 73/272/38 70/75/107 107/238/39
f 35/274/66 40/275/48 116/269/4
f 37/276/108 35/274/66 116/269/4
f 144/277/4 116/269/4 8/273/4
f 144/277/4 37/276/108 116/269/4
f 144/277/4 8/273/4 115/229/4
f 37/276/108 144/277/4 140/250/4
f 140/250/4 144/277/4 115/229/4
f 110/278/4 107/238/39 70/75/107
f 69/74/72 110/278/4 70/75/107
f 69/74/72 66/279/42 110/278/4
f 110/278/4 109/280/4 107/238/39
f 109/280/4 125/281/4 107/238/39
f 107/238/39 125/281/4 131/237/86
f 125/281/4 16/282/4 131/237/86
f 16/282/4 125/281/4 59/283/81
f 17/284/13 16/282/4 59/283/81
f 125/281/4 61/285/79 59/283/81
