# Blender 3.6.18
# www.blender.org
mtllib Mesh.849.mtl
o Bistro_Research_Exterior_Paris_Building_01_paris_buildi_19bd23d
v -0.812715 4.578039 -0.577580
v -0.749215 4.494119 -0.445586
v -0.786115 4.542364 -0.520045
v -1.709728 4.578042 -2.478672
v -1.737224 4.542367 -2.535785
v -1.771233 4.494122 -2.611608
v -0.713999 4.361927 -0.369412
v -0.728970 4.425313 -0.401795
v -0.690869 4.196570 -0.319382
v -0.699294 4.282028 -0.337604
v -0.682136 3.967625 -0.300491
v -0.683833 4.083130 -0.304163
v -0.846244 4.613083 -0.650104
v -0.882105 4.633159 -0.727672
v -1.175082 1.612255 -1.362411
v -0.688191 1.612251 -0.311300
v -0.978180 4.653973 -0.935485
v -0.929726 4.649927 -0.830634
v -1.175076 4.653974 -1.362405
v -1.807637 4.361930 -2.687221
v -1.792161 4.425316 -2.655077
v -1.831546 4.196574 -2.736884
v -1.822838 4.282031 -2.718796
v -1.840575 3.967628 -2.755637
v -1.838820 4.083133 -2.751992
v -1.638000 4.633161 -2.329684
v -1.675069 4.613085 -2.406682
v -1.836084 1.612254 -2.744095
v -1.334362 1.612255 -1.699982
v -1.538687 4.653975 -2.123399
v -1.588807 4.649928 -2.227463
v -1.334360 4.653974 -1.699985
vn -0.6352 -0.7521 -0.1754
vn -0.2710 -0.7581 0.5931
vn -0.9044 -0.0039 0.4267
vn -0.9087 -0.0039 0.4173
vn -0.8998 0.0118 0.4362
vn -0.8998 0.0118 0.4361
vn -0.9088 -0.0039 0.4173
vn -0.9117 -0.0039 0.4108
vn -0.9116 0.0117 0.4108
vn -0.9044 -0.0039 0.4268
vt 0.612793 0.995800
vt 0.653809 0.966339
vt 0.634766 0.983276
vt 0.683105 0.925110
vt 0.670898 0.947357
vt 0.702637 0.867065
vt 0.695801 0.897034
vt 0.709961 0.786621
vt 0.708496 0.827148
vt 0.584473 1.008102
vt 0.554688 1.015152
vt 0.309326 -0.022461
vt 0.709961 -0.022461
vt 0.474121 1.022461
vt 0.514648 1.021042
vt 0.309326 1.022293
s 1
usemtl MASTER_Glass_Exterior
f 1/1/1 2/2/1 3/3/1
f 4/1/2 5/3/2 6/2/2
f 7/4/3 8/5/4 2/2/5
f 2/2/6 1/1/7 7/4/3
f 9/6/4 10/7/4 7/4/3
f 11/8/4 9/6/4 7/4/3
f 9/6/4 11/8/4 12/9/4
f 1/1/7 11/8/4 7/4/3
f 1/1/7 13/10/4 14/11/4
f 11/8/4 15/12/4 16/13/7
f 14/11/4 17/14/4 1/1/7
f 11/8/4 1/1/7 17/14/4
f 15/12/4 11/8/4 17/14/4
f 17/14/4 14/11/4 18/15/8
f 17/14/4 19/16/8 15/12/4
f 20/4/4 6/2/9 21/5/3
f 6/2/9 20/4/4 4/1/3
f 22/6/3 20/4/4 23/7/10
f 24/8/3 20/4/4 22/6/3
f 22/6/3 25/9/3 24/8/3
f 4/1/3 20/4/4 24/8/3
f 4/1/3 26/11/3 27/10/3
f 24/8/3 28/13/3 29/12/10
f 26/11/3 4/1/3 30/14/3
f 24/8/3 30/14/3 4/1/3
f 29/12/10 30/14/3 24/8/3
f 30/14/3 31/15/3 26/11/3
f 30/14/3 29/12/10 32/16/10
