# Blender 3.6.18
# www.blender.org
mtllib Mesh.1159.mtl
o Bistro_Research_Exterior_Paris_Building_01_paris_buildi_02cd14d
v 3.451755 17.529758 -1.898666
v 3.451755 17.640476 -1.898666
v 2.946577 17.529757 -1.697853
v 2.946577 17.640476 -1.697853
v 2.573670 17.630182 -4.100799
v 2.573670 17.519464 -4.100799
v 2.070505 17.630182 -3.900794
v 2.070505 17.519464 -3.900794
v 2.930367 17.640476 -1.704840
v 2.930367 17.529757 -1.704840
v 2.063520 17.519464 -3.884587
v 2.063520 17.630182 -3.884587
v 2.578306 17.506983 -4.089221
v 2.075118 17.506983 -3.889197
v 3.447144 17.517277 -1.910263
v 2.941964 17.517277 -1.709450
v 3.447144 17.652956 -1.910263
v 2.941964 17.652956 -1.709450
v 2.075117 17.642660 -3.889197
v 2.578306 17.642660 -4.089221
vn 0.3673 -0.1062 0.9240
vn 0.3662 0.0984 0.9253
vn 0.3427 -0.1063 0.9334
vn 0.3429 0.0985 0.9342
vn -0.3676 0.0974 -0.9249
vn -0.3700 -0.1052 -0.9231
vn -0.3864 0.0976 -0.9172
vn -0.3861 -0.1053 -0.9164
vn -0.9264 0.0977 0.3635
vn -0.9231 -0.1052 0.3700
vn -0.9283 -0.1057 0.3564
vn -0.9291 0.0980 0.3567
vn -0.0015 -1.0000 -0.0049
vn -0.0039 -1.0000 -0.0039
vn -0.0040 -1.0000 -0.0039
vn -0.0023 1.0000 -0.0046
vn -0.0039 1.0000 -0.0039
vt 0.763672 0.578125
vt 0.763672 0.538086
vt 0.960938 0.578125
vt 0.960938 0.538086
vt 0.959961 0.721191
vt 0.959961 0.761108
vt 0.763672 0.721191
vt 0.763672 0.761108
vt 0.001999 0.905945
vt 0.008331 0.905945
vt 0.001999 0.946014
vt 0.008331 0.946014
vt 0.857910 0.946014
vt 0.857910 0.905945
vt 0.864258 0.905945
vt 0.864258 0.946014
vt 0.867676 0.503906
vt 0.861816 0.503906
vt 0.867676 0.308105
vt 0.861816 0.308105
vt 0.861816 0.302246
vt 0.010971 0.506592
vt 0.010971 0.302246
vt 0.010971 0.308105
vt 0.004749 0.506592
vt 0.004749 0.308105
vt 0.007828 0.035645
vt 0.013916 0.035645
vt 0.007828 0.232910
vt 0.013916 0.232910
vt 0.013916 0.238281
vt 0.865234 0.238281
vt 0.865234 0.232910
vt 0.865234 0.035645
vt 0.871094 0.232910
vt 0.871094 0.035645
s 1
usemtl MASTER_Concrete_Smooth
f 1/1/1 2/2/2 3/3/3
f 2/2/2 4/4/4 3/3/3
f 5/5/5 6/6/6 7/7/7
f 6/6/6 8/8/8 7/7/7
f 4/9/4 9/10/9 3/11/3
f 9/10/9 10/12/10 3/11/3
f 10/12/10 9/10/9 11/13/11
f 9/10/9 12/14/12 11/13/11
f 11/13/11 12/14/12 7/15/7
f 8/16/8 11/13/11 7/15/7
f 6/17/6 13/18/13 8/19/8
f 13/18/13 14/20/14 8/19/8
f 11/21/11 8/19/8 14/20/14
f 13/18/13 15/22/14 14/20/14
f 11/21/11 14/20/14 10/23/10
f 15/22/14 16/24/15 14/20/14
f 14/20/14 16/24/15 10/23/10
f 16/24/15 15/22/14 1/25/1
f 3/26/3 10/23/10 16/24/15
f 3/26/3 16/24/15 1/25/1
f 2/27/2 17/28/16 4/29/4
f 17/28/16 18/30/17 4/29/4
f 18/30/17 9/31/9 4/29/4
f 9/31/9 18/30/17 12/32/12
f 18/30/17 17/28/16 19/33/17
f 18/30/17 19/33/17 12/32/12
f 17/28/16 20/34/17 19/33/17
f 19/33/17 7/35/7 12/32/12
f 19/33/17 20/34/17 5/36/5
f 7/35/7 19/33/17 5/36/5
