# Blender 3.6.18
# www.blender.org
mtllib Mesh.1106.mtl
o Bistro_Research_Exterior_Paris_Building_01_paris_buildi_c654ce2
v 10.803738 22.991703 4.114315
v 11.324783 22.991703 2.696098
v 7.444258 22.991703 2.926708
v 7.965742 22.991703 1.498810
v 7.444253 25.393696 2.926711
v 7.965742 25.393696 1.498810
v 11.324580 25.393696 2.696046
v 10.803746 25.393696 4.114241
v 9.553393 23.287010 3.663399
v 8.285665 23.287010 3.204602
v 8.285665 24.760981 3.204602
v 9.553393 24.760986 3.663402
vn -0.0039 1.0000 -0.0039
vn 0.9397 -0.0039 0.3421
vn -0.3420 -0.0039 0.9397
vn -0.3421 -0.0039 0.9397
vn -0.9381 -0.0039 -0.3464
vn -0.0039 -1.0000 -0.0039
vn 0.3322 -0.0508 -0.9418
vn 0.3092 -0.0039 -0.9510
vn 0.3326 -0.0039 -0.9431
vn 0.3326 0.0195 -0.9429
vn 0.3325 0.0195 -0.9429
vt -1.093750 0.708984
vt -0.995117 -0.559570
vt 1.584961 0.935181
vt 1.695312 -0.449219
vt -0.057465 0.788086
vt -0.057465 -0.514648
vt 1.622070 0.788086
vt 1.622070 -0.514648
vt 1.498047 1.676270
vt -0.999512 1.676270
vt 1.498047 -0.021484
vt -0.999023 -0.021484
vt 1.604492 1.063416
vt -0.076111 1.063354
vt 1.604492 -0.126953
vt -0.076111 -0.128906
vt 1.665039 1.164062
vt -1.027344 1.168457
vt 1.609375 -0.223633
vt -1.075195 -0.100586
s 1
usemtl MASTER_Concrete
f 1/1/1 2/2/1 3/3/1
f 2/2/1 4/4/1 3/3/1
f 3/5/2 4/6/2 5/7/2
f 4/6/2 6/8/2 5/7/2
f 4/9/3 2/10/4 6/11/4
f 2/10/4 7/12/4 6/11/4
f 7/13/5 2/14/5 8/15/5
f 2/14/5 1/16/5 8/15/5
f 6/17/6 7/18/6 5/19/6
f 7/18/6 8/20/6 5/19/6
f 1/1/7 3/3/7 9/1/7
f 3/3/7 10/3/7 9/1/7
f 3/5/8 5/7/8 10/5/8
f 5/7/8 11/7/8 10/5/8
f 8/15/9 1/16/9 12/15/9
f 1/16/9 9/16/9 12/15/9
f 5/19/10 8/20/10 11/19/11
f 8/20/10 12/20/10 11/19/10
