# Blender 3.6.18
# www.blender.org
mtllib Mesh.1116.mtl
o Bistro_Research_Exterior_Paris_Building_01_paris_buildi_938687c
v 5.556493 7.174392 3.449219
v 7.532620 7.174392 -1.497345
v 5.556487 12.065374 3.449220
v 7.532619 12.065376 -1.497347
v 19.698856 12.065374 3.150866
v 19.699064 7.174392 3.150906
v 17.743507 12.065375 8.220036
v 17.744596 7.174392 8.227207
v 13.753038 12.065374 6.647953
v 15.209263 11.093767 7.242921
v 17.069128 11.093768 7.978398
v 17.069128 7.883187 7.978398
v 13.753792 7.174392 6.652886
v 15.209269 7.883185 7.242921
v 9.524692 12.065374 5.012013
v 11.117573 11.093767 5.624875
v 12.977435 11.093767 6.360352
v 12.977436 7.884187 6.360352
v 9.525059 7.174392 5.014391
v 11.117575 7.884185 5.624876
v 6.653905 11.093766 3.859736
v 8.513768 11.093768 4.595213
v 8.513768 7.884186 4.595215
v 6.653908 7.884185 3.859740
vn 0.9298 -0.0039 0.3680
vn 0.9298 -0.0040 0.3680
vn -0.9319 -0.0039 -0.3626
vn -0.3653 -0.0039 0.9309
vn 0.3625 -0.0273 -0.9316
vn 0.3395 -0.0039 -0.9406
vn 0.3626 0.0195 -0.9318
vn 0.3721 -0.0039 -0.9282
vn 0.3558 -0.0039 -0.9345
vn 0.3526 -0.0035 -0.9358
vn 0.3508 -0.0036 -0.9364
vn 0.3510 -0.0044 -0.9364
vn 0.3533 -0.0045 -0.9355
vn 0.3626 0.0117 -0.9319
vn 0.3788 -0.0039 -0.9255
vn 0.3624 -0.0351 -0.9314
vn 0.3490 -0.0039 -0.9371
vn -0.0039 1.0000 -0.0039
vn -0.0039 -1.0000 -0.0039
vt 1.898438 1.550781
vt 1.898438 0.891846
vt 2.503906 1.550781
vt 2.503906 0.891846
vt 2.503906 0.670410
vt 1.899414 0.670166
vt 2.503906 -0.001953
vt 1.899414 -0.002930
vt 1.590820 2.408203
vt -0.021500 2.408203
vt 1.590820 1.802734
vt -0.021484 1.802734
vt 2.554688 1.803223
vt 3.085938 1.803223
vt 2.748047 1.923340
vt 2.996094 1.923340
vt 3.085938 2.408203
vt 2.996094 2.320312
vt 2.554688 2.408203
vt 2.748047 2.320312
vt 1.993164 1.803223
vt 2.203125 1.923340
vt 2.451172 1.923340
vt 2.451172 2.320312
vt 1.993164 2.408203
vt 2.203125 2.320312
vt 1.464844 1.803223
vt 1.610352 1.923340
vt 1.858398 1.923340
vt 1.858398 2.320312
vt 1.464844 2.408203
vt 1.610352 2.320312
vt 1.813477 0.098633
vt 1.819336 0.771606
vt 1.283203 0.107422
vt 0.207886 0.781738
vt 0.721680 0.113770
vt 0.193848 0.122559
vt 0.199707 0.866211
vt 0.709961 1.536133
vt 0.182495 1.524902
vt 1.811523 0.883667
vt 1.271484 1.544922
vt 1.801758 1.556152
s 1
usemtl MASTER_Concrete_Smooth
f 1/1/1 2/2/2 3/3/2
f 2/2/2 4/4/2 3/3/2
f 5/5/3 6/6/3 7/7/3
f 6/6/3 8/8/3 7/7/3
f 2/9/4 6/10/4 4/11/4
f 6/10/4 5/12/4 4/11/4
f 9/13/5 7/14/5 10/15/5
f 7/14/5 11/16/5 10/15/5
f 7/14/6 8/17/6 11/16/6
f 8/17/6 12/18/6 11/16/6
f 8/17/7 13/19/7 12/18/7
f 13/19/7 14/20/7 12/18/7
f 13/19/8 9/13/8 14/20/8
f 9/13/8 10/15/8 14/20/8
f 15/21/9 9/13/10 16/22/9
f 9/13/10 17/23/11 16/22/9
f 9/13/10 13/19/12 17/23/11
f 13/19/12 18/24/13 17/23/11
f 13/19/12 19/25/9 18/24/13
f 19/25/9 20/26/9 18/24/13
f 19/25/9 15/21/9 20/26/9
f 15/21/9 16/22/9 20/26/9
f 3/27/14 15/21/14 21/28/14
f 15/21/14 22/29/14 21/28/14
f 15/21/15 19/25/15 22/29/15
f 19/25/15 23/30/15 22/29/15
f 19/25/16 1/31/16 23/30/16
f 1/31/16 24/32/16 23/30/16
f 1/31/17 3/27/17 24/32/17
f 3/27/17 21/28/17 24/32/17
f 8/33/18 6/34/18 13/35/18
f 6/34/18 2/36/18 13/35/18
f 2/36/18 19/37/18 13/35/18
f 2/36/18 1/38/18 19/37/18
f 4/39/19 15/40/19 3/41/19
f 4/39/19 5/42/19 15/40/19
f 5/42/19 9/43/19 15/40/19
f 5/42/19 7/44/19 9/43/19
