# Blender 3.6.18
# www.blender.org
mtllib Mesh.511.mtl
o Bistro_Research_Exterior_paris_building_10_5__5539
v 40.986382 2.371092 39.697815
v 43.507587 2.371087 40.775803
v 40.986382 1.354156 39.697815
v 43.507580 1.357054 40.775799
v 39.119038 26.294676 40.853081
v 39.114460 26.299477 40.851116
v 39.138638 26.294676 40.807350
v 39.134056 26.299477 40.805393
v 38.518700 26.299477 40.595814
v 38.514118 26.294676 40.593853
v 38.538296 26.299477 40.550087
v 38.533718 26.294676 40.548126
v 38.337326 26.294195 40.551380
v 38.332291 26.299477 40.549225
v 38.356735 26.294195 40.506096
v 38.351700 26.299477 40.503937
v 37.737442 26.299477 40.294315
v 37.732407 26.294195 40.292152
v 37.756851 26.299477 40.249031
v 37.751816 26.294195 40.246868
v 34.771484 26.294676 38.994205
v 34.766907 26.299477 38.992241
v 34.791084 26.294676 38.948475
v 34.786507 26.299477 38.946518
v 34.171146 26.299477 38.736938
v 34.166569 26.294676 38.734978
v 34.190742 26.299477 38.691212
v 34.186161 26.294676 38.689251
v 33.989777 26.294195 38.692505
v 33.984737 26.299477 38.690350
v 34.009186 26.294195 38.647221
v 34.004147 26.299477 38.645061
v 33.389893 26.299477 38.435440
v 33.384853 26.294195 38.433281
v 33.409298 26.299477 38.390156
v 33.404263 26.294195 38.387993
v 38.436363 24.545921 40.560528
v 38.431786 24.550722 40.558563
v 38.446648 24.545921 40.536560
v 38.440174 24.550722 40.539013
v 38.431789 26.380972 40.558571
v 38.440174 26.380972 40.539017
v 38.437485 26.380972 40.532639
v 38.437485 24.550722 40.532642
v 38.443958 24.545921 40.530190
v 38.426315 24.545921 40.522629
v 38.424423 24.550722 40.527046
v 38.424427 26.380972 40.527042
v 38.426319 26.385773 40.522633
v 38.421734 26.380972 40.520664
v 38.421738 24.550722 40.520664
v 38.429165 26.380972 40.503319
v 38.433743 24.545921 40.505283
v 38.429165 24.550722 40.503319
v 38.435635 26.380972 40.500870
v 38.433743 26.385773 40.505283
v 38.435635 24.550722 40.500870
v 38.451389 24.545921 40.512840
v 38.453278 24.550722 40.508430
v 38.456512 24.549316 40.509819
v 38.532368 24.628824 40.542328
v 38.453278 26.380972 40.508430
v 38.451389 26.385773 40.512840
v 38.456516 26.382378 40.509819
v 38.532368 26.302868 40.542332
v 38.514118 24.637018 40.593849
v 38.533722 24.637018 40.548122
v 38.538296 24.632217 40.550087
v 38.518696 24.632217 40.595814
v 39.114506 24.632217 40.851131
v 39.119087 24.637018 40.853096
v 39.134106 24.632217 40.805408
v 39.138691 24.637018 40.807369
v 39.143818 24.628824 40.804344
v 39.143768 26.302868 40.804329
v 39.219677 24.549316 40.836857
v 39.219624 26.382378 40.836834
v 39.216393 26.385773 40.840672
v 39.220970 26.380972 40.842632
v 39.221027 24.550722 40.842655
v 39.216450 24.545921 40.840694
v 39.207134 24.545921 40.862453
v 39.211712 24.550722 40.864414
v 39.211658 26.380972 40.864395
v 39.196869 24.545921 40.886429
v 39.201393 26.380972 40.888367
v 39.201447 24.550722 40.888390
v 37.655109 24.545921 40.259026
v 37.650078 24.551201 40.256870
v 37.674522 24.545921 40.213749
v 37.669487 24.551201 40.211586
v 37.650082 26.380491 40.256874
v 37.669487 26.380491 40.211586
v 37.675129 24.549656 40.208260
v 37.675125 26.382038 40.208256
v 37.674522 26.385773 40.213749
v 37.750340 24.628483 40.240490
v 37.750336 26.303207 40.240490
v 37.732403 24.637497 40.292152
v 37.751820 24.637497 40.246864
v 37.756859 24.632217 40.249027
v 37.737442 24.632217 40.294312
v 37.655113 26.385773 40.259033
v 38.414639 26.385773 40.584511
v 38.434029 26.385773 40.539215
v 38.419678 26.380491 40.586670
v 38.439068 26.380491 40.541374
v 38.437584 26.382038 40.534992
v 38.362381 26.303207 40.502766
v 38.332333 24.632217 40.549240
v 38.337372 24.637497 40.551395
v 38.351749 24.632217 40.503952
v 38.356789 24.637497 40.506111
v 38.362427 24.628485 40.502789
v 38.437641 24.549654 40.535019
v 38.419735 24.551201 40.586693
v 38.439125 24.551201 40.541401
v 38.434090 24.545921 40.539242
v 38.414696 24.545921 40.584534
v 34.088814 24.545921 38.701653
v 34.084232 24.550722 38.699692
v 34.099091 24.545921 38.677692
v 34.092621 24.550722 38.680138
v 34.084236 26.380972 38.699696
v 34.092621 26.380972 38.680141
v 34.089935 26.380972 38.673763
v 34.089935 24.550722 38.673767
v 34.096405 24.545921 38.671314
v 34.078762 24.545921 38.663757
v 34.076874 24.550722 38.668171
v 34.076874 26.380972 38.668167
v 34.078762 26.385773 38.663757
v 34.074184 26.380972 38.661797
v 34.074184 24.550722 38.661793
v 34.081615 26.380972 38.644444
v 34.086193 24.545921 38.646408
v 34.081615 24.550722 38.644444
v 34.088085 26.380972 38.641994
v 34.086193 26.385773 38.646408
v 34.088085 24.550722 38.641994
v 34.103832 24.545921 38.653965
v 34.105724 24.550722 38.649555
v 34.108963 24.549316 38.650944
v 34.184818 24.628824 38.683453
v 34.105724 26.380972 38.649555
v 34.103832 26.385773 38.653965
v 34.108963 26.382378 38.650944
v 34.184818 26.302868 38.683456
v 34.166565 24.637018 38.734978
v 34.186165 24.637018 38.689247
v 34.190746 24.632217 38.691212
v 34.171143 24.632217 38.736938
v 34.766953 24.632217 38.992256
v 34.771534 24.637018 38.994221
v 34.786552 24.632217 38.946533
v 34.791134 24.637018 38.948494
v 34.796265 24.628824 38.945469
v 34.796215 26.302868 38.945454
v 34.872124 24.549316 38.977982
v 34.872066 26.382378 38.977959
v 34.868839 26.385773 38.981796
v 34.873417 26.380972 38.983761
v 34.873474 24.550722 38.983780
v 34.868896 24.545921 38.981819
v 34.859581 24.545921 39.003578
v 34.864162 24.550722 39.005547
v 34.864105 26.380972 39.005520
v 34.849316 24.545921 39.027554
v 34.853836 26.380972 39.029491
v 34.853897 24.550722 39.029514
v 33.307560 24.545921 38.400154
v 33.302521 24.551201 38.397995
v 33.326969 24.545921 38.354874
v 33.321930 24.551201 38.352715
v 33.302525 26.380491 38.397999
v 33.321930 26.380491 38.352715
v 33.327576 24.549656 38.349388
v 33.327576 26.382038 38.349388
v 33.326969 26.385773 38.354874
v 33.402782 24.628483 38.381615
v 33.402779 26.303207 38.381615
v 33.384850 24.637497 38.433281
v 33.404266 24.637497 38.387989
v 33.409302 24.632217 38.390152
v 33.389889 24.632217 38.435436
v 33.307564 26.385773 38.400158
v 34.067093 26.385773 38.725636
v 34.086479 26.385773 38.680340
v 34.072128 26.380491 38.727795
v 34.091515 26.380491 38.682499
v 34.090031 26.382038 38.676125
v 34.014828 26.303207 38.643898
v 33.984783 24.632217 38.690365
v 33.989819 24.637497 38.692520
v 34.004192 24.632217 38.645077
v 34.009232 24.637497 38.647236
v 34.014874 24.628485 38.643913
v 34.090092 24.549654 38.676144
v 34.072182 24.551201 38.727818
v 34.091576 24.551201 38.682526
v 34.086536 24.545921 38.680367
v 34.067146 24.545921 38.725658
v 39.207077 26.385773 40.862431
v 39.196812 26.385773 40.886406
v 38.446648 26.385773 40.536564
v 38.436371 26.385773 40.560532
v 38.443958 26.385773 40.530190
v 34.859528 26.385773 39.003555
v 34.849258 26.385773 39.027534
v 34.099094 26.385773 38.677689
v 34.088818 26.385773 38.701656
v 34.096405 26.385773 38.671314
vn 0.3882 -0.0039 -0.9216
vn -0.9190 -0.0039 -0.3942
vn -0.0039 -1.0000 -0.0039
vn -0.9187 -0.0039 -0.3949
vn -0.0047 -1.0000 -0.0020
vn 0.9204 -0.0039 0.3910
vn -0.9192 -0.0039 -0.3938
vn -0.9187 -0.0039 -0.3948
vn -0.0047 -1.0000 -0.0022
vn 0.9204 -0.0040 0.3910
vn -0.0039 -1.0000 -0.0040
vn -0.9191 -0.0039 -0.3941
vn -0.0047 -1.0000 -0.0021
vn 0.9204 -0.0040 0.3911
vn 0.9204 -0.0039 0.3911
vn -0.3977 -0.0040 0.9175
vn -0.3977 -0.0039 0.9175
vn -0.0039 1.0000 -0.0039
vn 0.3883 -0.0039 -0.9215
vn 0.3873 -0.0029 -0.9219
vn 0.9190 -0.0040 0.3942
vn -0.0048 1.0000 -0.0020
vn 0.3882 -0.0039 -0.9215
vn 0.9193 -0.0039 0.3934
vn 0.9192 -0.0040 0.3937
vn -0.0040 -1.0000 -0.0039
vn -0.0039 1.0000 -0.0040
vn 0.3874 -0.0030 -0.9219
vn -0.0040 1.0000 -0.0039
vn -0.0047 1.0000 -0.0020
vn 0.9193 -0.0040 0.3936
vn -0.0046 1.0000 -0.0022
vn 0.3882 -0.0040 -0.9216
vn 0.9192 -0.0039 0.3938
vn 0.9193 -0.0040 0.3935
vn 0.9193 -0.0039 0.3936
vn 0.9192 -0.0040 0.3938
vn -0.0047 1.0000 -0.0022
vn 0.9203 -0.0040 0.3911
vt -0.204956 1.371338
vt -0.204956 1.584473
vt -0.597168 1.371338
vt -0.596191 1.584473
vt 1.188477 0.405762
vt 1.188477 0.401855
vt 1.228516 0.405762
vt 1.229492 0.401855
vt 1.188477 -0.100586
vt 1.188477 -0.104492
vt 1.228516 -0.100586
vt 1.228516 -0.104492
vt 1.955078 2.545898
vt 1.955078 2.541016
vt 1.995117 2.545898
vt 1.995117 2.541016
vt 1.955078 2.040039
vt 1.955078 2.035156
vt 1.995117 2.040039
vt 1.995117 2.035156
vt -0.180908 -0.243164
vt -0.177002 -0.243164
vt -0.180908 -0.222656
vt -0.177002 -0.226562
vt 1.295898 -0.243164
vt 1.295898 -0.226562
vt 1.295898 -0.222656
vt -0.177002 -0.222656
vt -0.180908 -0.226562
vt -0.180908 -0.211914
vt -0.177002 -0.211914
vt 1.295898 -0.211914
vt 1.299805 -0.209961
vt 1.295898 -0.207031
vt -0.177002 -0.207031
vt -0.181030 -0.209961
vt 1.294922 -0.192383
vt -0.180908 -0.192383
vt -0.180908 -0.208008
vt -0.177002 -0.192383
vt 1.295898 -0.188477
vt 1.299805 -0.191406
vt -0.181030 -0.190430
vt -0.177002 -0.188477
vt -0.181519 -0.173828
vt -0.180908 -0.188477
vt -0.177002 -0.173828
vt -0.178101 -0.170898
vt -0.114258 -0.107422
vt 1.295898 -0.173828
vt 1.300781 -0.188477
vt 1.300781 -0.173828
vt 1.296875 -0.170898
vt 1.232422 -0.107422
vt 1.226562 -0.103516
vt 1.225586 -0.063477
vt -0.107605 -0.063477
vt -0.107544 -0.103516
vt -0.110962 -0.099609
vt -0.111450 -0.063477
vt -0.111450 -0.103516
vt -0.111450 0.364746
vt -0.107605 0.364746
vt -0.111450 0.404785
vt -0.107666 0.404785
vt 1.225586 0.364746
vt 1.225586 0.404785
vt -0.114136 0.408691
vt -0.111267 0.401855
vt 1.232422 0.408691
vt -0.178101 0.472656
vt 1.296875 0.472656
vt 1.300781 0.471191
vt 1.295898 0.476562
vt -0.177002 0.476562
vt -0.182007 0.471680
vt -0.180908 0.495605
vt -0.180908 0.476562
vt -0.177002 0.495605
vt 1.295898 0.495605
vt -0.180908 0.516357
vt 1.295898 0.516357
vt -0.177002 0.516357
vt 0.585449 1.925293
vt 0.589844 1.925293
vt 0.585449 1.964844
vt 0.589844 1.964844
vt 2.060547 1.925293
vt 2.060547 1.964844
vt 0.588379 1.969238
vt 0.583496 1.970215
vt 2.062500 1.969238
vt 2.066406 1.970215
vt 0.651367 2.032227
vt 1.999023 2.032227
vt 1.992188 2.036133
vt 1.992188 2.076172
vt 0.659180 2.076172
vt 0.659180 2.037109
vt 0.655273 2.040039
vt 0.654785 2.076172
vt 0.654785 2.036133
vt 2.912109 2.661133
vt 2.908203 2.661133
vt 2.912109 2.621094
vt 2.908203 2.621094
vt 2.267578 2.661133
vt 2.267578 2.621094
vt 2.263672 2.661133
vt 2.263672 2.621094
vt 2.265625 2.617188
vt 2.910156 2.617188
vt 2.845703 2.553711
vt 2.330078 2.553711
vt 2.337891 2.549805
vt 2.839844 2.549805
vt 2.839844 2.509766
vt 2.337891 2.509766
vt 0.654297 2.504883
vt 0.658691 2.504883
vt 0.654297 2.543945
vt 0.658691 2.543945
vt 1.992188 2.504883
vt 1.992188 2.545898
vt 0.651367 2.548828
vt 0.654785 2.541016
vt 1.999023 2.548828
vt 0.587891 2.612305
vt 2.062500 2.612305
vt 2.066406 2.610352
vt 2.060547 2.616211
vt 2.060547 2.656250
vt 0.589355 2.656250
vt 0.589355 2.616211
vt 0.583496 2.611328
vt 0.584961 2.656250
vt 0.584961 2.616211
vt 0.801270 -0.488281
vt 0.298584 -0.488281
vt 0.800781 -0.529297
vt 0.298828 -0.529297
vt 0.291992 -0.532227
vt 0.807617 -0.532227
vt 0.871582 -0.595703
vt 0.228027 -0.595703
vt 0.229248 -0.599609
vt 0.874512 -0.599609
vt 0.229248 -0.619141
vt 0.229248 -0.639648
vt 0.870605 -0.639648
vt 0.870605 -0.619141
vt 0.874512 -0.615234
vt 0.889160 -0.599609
vt 0.889160 -0.615234
vt 0.878418 -0.619141
vt 0.874512 -0.623047
vt 0.298584 0.770874
vt 0.801270 0.770874
vt 0.299072 0.811523
vt 0.801270 0.810913
vt 0.807617 0.814819
vt 0.291992 0.814819
vt 0.228149 0.878723
vt 0.871582 0.878723
vt 0.874512 0.882812
vt 0.229248 0.882629
vt 0.225342 0.882629
vt 0.225342 0.901672
vt 0.229248 0.901672
vt 0.225342 0.922668
vt 0.229248 0.922668
vt 0.870605 0.901672
vt 0.870605 0.922668
vt 0.874512 0.922668
vt 0.874512 0.905518
vt 0.874512 0.897827
vt 0.878418 0.901672
vt 0.889160 0.901672
vt 0.889160 0.897827
vt 0.889160 0.882629
vt 0.893066 0.882629
vt 0.893066 0.897827
vt 2.187500 1.980469
vt 2.828125 1.980469
vt 2.187500 2.019531
vt 2.828125 2.019531
vt 2.830078 2.024414
vt 2.185547 2.024414
vt 2.250000 2.087891
vt 2.765625 2.087891
vt 2.757812 2.091797
vt 2.257812 2.090820
vt 2.257812 2.131836
vt 2.759766 2.131836
s 1
usemtl MASTER_Wood_Painted_Green
f 1/1/1 2/2/1 3/3/1
f 2/2/1 4/4/1 3/3/1
f 5/5/2 6/6/3 7/7/4
f 6/6/3 8/8/3 7/7/4
f 9/9/5 10/10/6 11/11/3
f 10/10/6 12/12/6 11/11/3
f 13/13/7 14/14/3 15/15/8
f 14/14/3 16/16/3 15/15/8
f 17/17/9 18/18/10 19/19/11
f 18/18/10 20/20/6 19/19/11
f 21/5/12 22/6/3 23/7/4
f 22/6/3 24/8/3 23/7/4
f 25/9/13 26/10/14 27/11/3
f 26/10/14 28/12/6 27/11/3
f 29/13/7 30/14/3 31/15/4
f 30/14/3 32/16/3 31/15/4
f 33/17/13 34/18/15 35/19/3
f 34/18/15 36/20/15 35/19/3
f 37/21/3 38/22/12 39/23/3
f 38/22/12 40/24/4 39/23/3
f 38/22/12 41/25/8 40/24/4
f 41/25/8 42/26/8 40/24/4
f 40/24/4 42/26/8 43/27/16
f 44/28/17 40/24/4 43/27/16
f 45/29/3 44/28/17 46/30/3
f 44/28/17 47/31/17 46/30/3
f 44/28/17 43/27/16 47/31/17
f 43/27/16 48/32/17 47/31/17
f 49/33/18 50/34/8 48/32/17
f 47/31/17 48/32/17 50/34/8
f 51/35/8 47/31/17 50/34/8
f 47/31/17 51/35/8 46/36/3
f 50/34/8 52/37/4 51/35/8
f 53/38/3 46/39/3 51/35/8
f 54/40/8 53/38/3 51/35/8
f 52/37/4 54/40/8 51/35/8
f 55/41/1 52/37/4 56/42/18
f 52/37/4 55/41/1 54/40/8
f 53/43/3 54/40/8 57/44/1
f 55/41/1 57/44/1 54/40/8
f 58/45/3 53/46/3 57/44/1
f 59/47/1 58/45/3 57/44/1
f 59/47/1 57/44/1 55/41/1
f 59/47/1 60/48/19 58/45/3
f 60/48/19 59/47/1 61/49/20
f 62/50/1 59/47/1 55/41/1
f 59/47/1 62/50/1 61/49/20
f 62/50/1 55/41/1 56/51/18
f 63/52/18 62/50/1 56/51/18
f 62/50/1 63/52/18 64/53/1
f 62/50/1 64/53/1 61/49/20
f 64/53/1 65/54/1 61/49/20
f 12/55/6 65/54/1 11/11/3
f 65/54/1 12/55/6 61/49/20
f 10/56/6 66/57/21 12/55/6
f 12/55/6 67/58/14 61/49/20
f 66/57/21 67/58/14 12/55/6
f 68/59/18 61/49/20 67/58/14
f 66/57/21 69/60/18 67/58/14
f 69/60/18 68/61/18 67/58/14
f 70/62/22 71/63/8 72/64/18
f 71/63/8 73/65/4 72/64/18
f 71/63/8 5/66/2 73/65/4
f 5/66/2 7/67/4 73/65/4
f 73/65/4 74/68/1 72/69/18
f 73/65/4 7/67/4 75/70/1
f 74/68/1 73/65/4 75/70/1
f 8/8/3 75/70/1 7/67/4
f 76/71/23 74/68/1 75/70/1
f 77/72/1 76/71/23 75/70/1
f 78/73/18 79/74/15 77/72/1
f 77/72/1 79/74/15 76/71/23
f 76/71/23 80/75/6 81/76/3
f 79/74/15 80/75/6 76/71/23
f 82/77/3 81/78/3 80/75/6
f 80/75/6 79/74/15 83/79/6
f 83/79/6 82/77/3 80/75/6
f 79/74/15 84/80/24 83/79/6
f 85/81/13 82/77/3 83/79/6
f 84/80/24 86/82/25 83/79/6
f 87/83/14 85/81/13 83/79/6
f 86/82/25 87/83/14 83/79/6
f 88/84/3 89/85/7 90/86/26
f 89/85/7 91/87/4 90/86/26
f 89/85/7 92/88/8 91/87/4
f 92/88/8 93/89/8 91/87/4
f 91/87/4 94/90/1 90/91/26
f 91/87/4 93/89/8 95/92/23
f 94/90/1 91/87/4 95/92/23
f 96/93/27 95/92/23 93/89/8
f 94/90/1 95/92/23 97/94/28
f 95/92/23 98/95/1 97/94/28
f 20/96/6 98/95/1 19/19/11
f 98/95/1 20/96/6 97/94/28
f 18/97/10 99/98/25 20/96/6
f 20/96/6 100/99/10 97/94/28
f 99/98/25 100/99/10 20/96/6
f 101/100/29 97/94/28 100/99/10
f 99/98/25 102/101/18 100/99/10
f 102/101/18 101/102/29 100/99/10
f 92/103/8 103/104/30 93/105/8
f 103/104/30 96/106/27 93/105/8
f 103/104/30 104/107/18 96/106/27
f 104/107/18 105/108/18 96/106/27
f 105/108/18 104/107/18 106/109/31
f 107/110/14 105/108/18 106/109/31
f 96/106/27 105/108/18 108/111/1
f 95/112/23 96/106/27 108/111/1
f 95/112/23 108/111/1 98/113/1
f 108/111/1 109/114/1 98/113/1
f 109/114/1 16/115/3 98/113/1
f 16/115/3 19/116/11 98/113/1
f 17/117/9 19/116/11 16/115/3
f 14/118/3 17/117/9 16/115/3
f 110/119/32 111/120/4 112/121/18
f 111/120/4 113/122/4 112/121/18
f 111/120/4 13/123/7 113/122/4
f 13/123/7 15/124/8 113/122/4
f 113/122/4 114/125/23 112/126/18
f 113/122/4 15/124/8 109/127/1
f 114/125/23 113/122/4 109/127/1
f 16/16/3 109/127/1 15/124/8
f 115/128/33 114/125/23 109/127/1
f 108/129/1 115/128/33 109/127/1
f 105/130/18 107/131/14 108/129/1
f 108/129/1 107/131/14 115/128/33
f 107/131/14 106/132/31 116/133/6
f 107/131/14 117/134/6 115/128/33
f 117/134/6 107/131/14 116/133/6
f 115/128/33 117/134/6 118/135/3
f 116/133/6 119/136/9 117/134/6
f 119/136/9 118/137/3 117/134/6
f 120/21/3 121/22/2 122/23/3
f 121/22/2 123/24/4 122/23/3
f 121/22/2 124/25/8 123/24/4
f 124/25/8 125/26/8 123/24/4
f 123/24/4 125/26/8 126/27/16
f 127/28/17 123/24/4 126/27/16
f 128/29/3 127/28/17 129/30/3
f 127/28/17 130/31/16 129/30/3
f 127/28/17 126/27/16 130/31/16
f 126/27/16 131/32/17 130/31/16
f 132/33/18 133/34/4 131/32/17
f 130/31/16 131/32/17 133/34/4
f 134/35/4 130/31/16 133/34/4
f 130/31/16 134/35/4 129/36/3
f 133/34/4 135/37/8 134/35/4
f 136/38/3 129/39/3 134/35/4
f 137/40/4 136/38/3 134/35/4
f 135/37/8 137/40/4 134/35/4
f 138/41/19 135/37/8 139/42/27
f 135/37/8 138/41/19 137/40/4
f 136/43/3 137/40/4 140/44/1
f 138/41/19 140/44/1 137/40/4
f 141/45/3 136/46/3 140/44/1
f 142/47/1 141/45/3 140/44/1
f 142/47/1 140/44/1 138/41/19
f 142/47/1 143/48/19 141/45/3
f 143/48/19 142/47/1 144/49/20
f 145/50/1 142/47/1 138/41/19
f 142/47/1 145/50/1 144/49/20
f 145/50/1 138/41/19 139/51/27
f 146/52/18 145/50/1 139/51/27
f 145/50/1 146/52/18 147/53/1
f 145/50/1 147/53/1 144/49/20
f 147/53/1 148/54/1 144/49/20
f 28/55/6 148/54/1 27/11/3
f 148/54/1 28/55/6 144/49/20
f 26/56/14 149/57/34 28/55/6
f 28/55/6 150/58/6 144/49/20
f 149/57/34 150/58/6 28/55/6
f 151/59/18 144/49/20 150/58/6
f 149/57/34 152/60/18 150/58/6
f 152/60/18 151/61/18 150/58/6
f 153/62/22 154/63/8 155/64/29
f 154/63/8 156/65/4 155/64/29
f 154/63/8 21/66/12 156/65/4
f 21/66/12 23/67/4 156/65/4
f 156/65/4 157/68/23 155/69/29
f 156/65/4 23/67/4 158/70/1
f 157/68/23 156/65/4 158/70/1
f 24/8/3 158/70/1 23/67/4
f 159/71/1 157/68/23 158/70/1
f 160/72/1 159/71/1 158/70/1
f 161/73/18 162/74/6 160/72/1
f 160/72/1 162/74/6 159/71/1
f 159/71/1 163/75/6 164/76/26
f 162/74/6 163/75/6 159/71/1
f 165/77/3 164/78/26 163/75/6
f 163/75/6 162/74/6 166/79/14
f 166/79/14 165/77/3 163/75/6
f 162/74/6 167/80/35 166/79/14
f 168/81/5 165/77/3 166/79/14
f 167/80/35 169/82/36 166/79/14
f 170/83/10 168/81/5 166/79/14
f 169/82/36 170/83/10 166/79/14
f 171/84/3 172/85/7 173/86/3
f 172/85/7 174/87/8 173/86/3
f 172/85/7 175/88/4 174/87/8
f 175/88/4 176/89/4 174/87/8
f 174/87/8 177/90/1 173/91/3
f 174/87/8 176/89/4 178/92/19
f 177/90/1 174/87/8 178/92/19
f 179/93/18 178/92/19 176/89/4
f 177/90/1 178/92/19 180/94/28
f 178/92/19 181/95/1 180/94/28
f 36/96/15 181/95/1 35/19/3
f 181/95/1 36/96/15 180/94/28
f 34/97/15 182/98/37 36/96/15
f 36/96/15 183/99/15 180/94/28
f 182/98/37 183/99/15 36/96/15
f 184/100/27 180/94/28 183/99/15
f 182/98/37 185/101/18 183/99/15
f 185/101/18 184/102/27 183/99/15
f 175/103/4 186/104/22 176/105/4
f 186/104/22 179/106/18 176/105/4
f 186/104/22 187/107/18 179/106/18
f 187/107/18 188/108/18 179/106/18
f 188/108/18 187/107/18 189/109/35
f 190/110/6 188/108/18 189/109/35
f 179/106/18 188/108/18 191/111/1
f 178/112/19 179/106/18 191/111/1
f 178/112/19 191/111/1 181/113/1
f 191/111/1 192/114/1 181/113/1
f 192/114/1 32/115/3 181/113/1
f 32/115/3 35/116/3 181/113/1
f 33/117/13 35/116/3 32/115/3
f 30/118/3 33/117/13 32/115/3
f 193/119/38 194/120/4 195/121/29
f 194/120/4 196/122/8 195/121/29
f 194/120/4 29/123/7 196/122/8
f 29/123/7 31/124/4 196/122/8
f 196/122/8 197/125/1 195/126/29
f 196/122/8 31/124/4 192/127/1
f 197/125/1 196/122/8 192/127/1
f 32/16/3 192/127/1 31/124/4
f 198/128/23 197/125/1 192/127/1
f 191/129/1 198/128/23 192/127/1
f 188/130/18 190/131/6 191/129/1
f 191/129/1 190/131/6 198/128/23
f 190/131/6 189/132/35 199/133/15
f 190/131/6 200/134/39 198/128/23
f 200/134/39 190/131/6 199/133/15
f 198/128/23 200/134/39 201/135/11
f 199/133/15 202/136/9 200/134/39
f 202/136/9 201/137/11 200/134/39
f 69/138/18 70/139/22 68/140/18
f 70/139/22 72/141/18 68/140/18
f 68/140/18 72/141/18 74/142/1
f 61/143/20 68/140/18 74/142/1
f 60/144/19 61/143/20 74/142/1
f 76/145/23 60/144/19 74/142/1
f 76/145/23 81/146/3 60/144/19
f 81/146/3 58/147/3 60/144/19
f 58/147/3 81/146/3 82/148/3
f 85/149/13 37/150/3 82/148/3
f 37/150/3 39/151/3 82/148/3
f 45/152/3 58/147/3 82/148/3
f 39/151/3 45/152/3 82/148/3
f 58/147/3 45/152/3 53/153/3
f 45/152/3 46/154/3 53/153/3
f 44/155/17 45/152/3 39/151/3
f 40/156/4 44/155/17 39/151/3
f 6/157/3 9/158/5 8/159/3
f 9/158/5 11/160/3 8/159/3
f 8/159/3 11/160/3 65/161/1
f 75/162/1 8/159/3 65/161/1
f 77/163/1 75/162/1 65/161/1
f 64/164/1 77/163/1 65/161/1
f 64/164/1 63/165/18 77/163/1
f 63/165/18 78/166/18 77/163/1
f 79/167/15 78/166/18 84/168/24
f 78/166/18 203/169/18 84/168/24
f 84/168/24 203/169/18 86/170/25
f 203/169/18 204/171/18 86/170/25
f 203/169/18 78/166/18 205/172/18
f 204/171/18 203/169/18 205/172/18
f 78/166/18 63/165/18 205/172/18
f 206/173/30 204/171/18 205/172/18
f 41/174/8 206/173/30 42/175/8
f 206/173/30 205/172/18 42/175/8
f 205/172/18 207/176/18 42/175/8
f 63/165/18 207/176/18 205/172/18
f 207/176/18 43/177/16 42/175/8
f 43/177/16 207/176/18 48/178/17
f 207/176/18 49/179/18 48/178/17
f 207/176/18 63/165/18 49/179/18
f 63/165/18 56/180/18 49/179/18
f 49/179/18 56/180/18 52/181/4
f 50/182/8 49/179/18 52/181/4
f 119/183/9 88/184/3 118/185/3
f 88/184/3 90/186/26 118/185/3
f 118/185/3 90/186/26 94/187/1
f 115/188/33 118/185/3 94/187/1
f 115/188/33 94/187/1 114/189/23
f 94/187/1 97/190/28 114/189/23
f 97/190/28 101/191/29 114/189/23
f 101/191/29 112/192/18 114/189/23
f 110/193/32 112/192/18 101/191/29
f 102/194/18 110/193/32 101/191/29
f 152/138/18 153/139/22 151/140/18
f 153/139/22 155/141/29 151/140/18
f 151/140/18 155/141/29 157/142/23
f 144/143/20 151/140/18 157/142/23
f 143/144/19 144/143/20 157/142/23
f 159/145/1 143/144/19 157/142/23
f 159/145/1 164/146/26 143/144/19
f 164/146/26 141/147/3 143/144/19
f 141/147/3 164/146/26 165/148/3
f 168/149/5 120/150/3 165/148/3
f 120/150/3 122/151/3 165/148/3
f 128/152/3 141/147/3 165/148/3
f 122/151/3 128/152/3 165/148/3
f 141/147/3 128/152/3 136/153/3
f 128/152/3 129/154/3 136/153/3
f 127/155/17 128/152/3 122/151/3
f 123/156/4 127/155/17 122/151/3
f 22/157/3 25/158/13 24/159/3
f 25/158/13 27/160/3 24/159/3
f 24/159/3 27/160/3 148/161/1
f 158/162/1 24/159/3 148/161/1
f 160/163/1 158/162/1 148/161/1
f 147/164/1 160/163/1 148/161/1
f 147/164/1 146/165/18 160/163/1
f 146/165/18 161/166/18 160/163/1
f 162/167/6 161/166/18 167/168/35
f 161/166/18 208/169/18 167/168/35
f 167/168/35 208/169/18 169/170/36
f 208/169/18 209/171/18 169/170/36
f 208/169/18 161/166/18 210/172/18
f 209/171/18 208/169/18 210/172/18
f 161/166/18 146/165/18 210/172/18
f 211/173/38 209/171/18 210/172/18
f 124/174/8 211/173/38 125/175/8
f 211/173/38 210/172/18 125/175/8
f 210/172/18 212/176/18 125/175/8
f 146/165/18 212/176/18 210/172/18
f 212/176/18 126/177/16 125/175/8
f 126/177/16 212/176/18 131/178/17
f 212/176/18 132/179/18 131/178/17
f 212/176/18 146/165/18 132/179/18
f 146/165/18 139/180/27 132/179/18
f 132/179/18 139/180/27 135/181/8
f 133/182/4 132/179/18 135/181/8
f 202/183/9 171/184/3 201/185/11
f 171/184/3 173/186/3 201/185/11
f 201/185/11 173/186/3 177/187/1
f 198/188/23 201/185/11 177/187/1
f 198/188/23 177/187/1 197/189/1
f 177/187/1 180/190/28 197/189/1
f 180/190/28 184/191/27 197/189/1
f 184/191/27 195/192/29 197/189/1
f 193/193/38 195/192/29 184/191/27
f 185/194/18 193/193/38 184/191/27
