# Blender 3.6.18
# www.blender.org
mtllib Mesh.1055.mtl
o Bistro_Research_Exterior_Paris_Building_01_paris_buildi_80ef865
v 8.789035 12.841125 4.626090
v 8.789035 12.951842 4.626090
v 8.588310 12.841125 5.131304
v 8.588310 12.951843 5.131304
v 8.572103 12.951843 5.138296
v 8.572104 12.841125 5.138296
v 6.391943 12.830830 4.272487
v 6.391943 12.941548 4.272487
v 6.384952 12.941548 4.256282
v 6.384952 12.830830 4.256282
v 6.584881 12.830830 3.753088
v 6.584881 12.941548 3.753088
v 6.596483 12.818349 3.757664
v 6.396551 12.818349 4.260889
v 8.777435 12.828644 4.621484
v 8.576712 12.828643 5.126698
v 8.777435 12.964323 4.621484
v 8.576712 12.964323 5.126698
v 6.396551 12.954029 4.260889
v 6.596483 12.954030 3.757664
vn 0.9241 -0.1062 0.3671
vn 0.9253 0.0984 0.3662
vn 0.9179 -0.1064 0.3822
vn 0.9187 0.0986 0.3825
vn -0.3662 0.0984 0.9253
vn -0.3659 -0.1062 0.9246
vn -0.3727 -0.1059 0.9219
vn -0.3730 0.0982 0.9226
vn -0.9327 0.0975 -0.3473
vn -0.9319 -0.1053 -0.3470
vn -0.9231 -0.1052 -0.3700
vn -0.9249 0.0974 -0.3675
vn -0.0046 -1.0000 -0.0023
vn -0.0039 -1.0000 -0.0039
vn -0.0049 1.0000 -0.0015
vn -0.0039 1.0000 -0.0039
vn -0.0039 1.0000 -0.0040
vt -0.031799 1.190430
vt -0.031769 1.233765
vt -0.244385 1.190552
vt -0.244385 1.233765
vt -0.251221 1.233765
vt -0.251221 1.190552
vt -1.167969 1.186523
vt -1.167969 1.229858
vt -1.174805 1.229858
vt -1.175781 1.186523
vt -1.386719 1.186646
vt -1.386719 1.229980
vt -1.158203 0.769043
vt -1.151367 0.769043
vt -1.158203 0.993050
vt -1.151367 0.993050
vt -1.152344 0.999637
vt -0.182739 0.769043
vt -0.181152 0.999637
vt -0.182739 0.993050
vt -0.177368 0.769043
vt -0.177368 0.993050
vt -0.173828 0.662109
vt -0.179077 0.662109
vt -0.173950 0.437988
vt -0.179565 0.437988
vt -0.177856 0.431641
vt -1.149414 0.431641
vt -1.148438 0.437988
vt -1.147461 0.662109
vt -1.155273 0.437988
vt -1.155273 0.662109
s 1
usemtl MASTER_Concrete_Smooth
f 1/1/1 2/2/2 3/3/3
f 2/2/2 4/4/4 3/3/3
f 4/4/4 5/5/5 3/3/3
f 5/5/5 6/6/6 3/3/3
f 6/6/6 5/5/5 7/7/7
f 5/5/5 8/8/8 7/7/7
f 7/7/7 8/8/8 9/9/9
f 10/10/10 7/7/7 9/9/9
f 11/11/11 10/10/10 9/9/9
f 12/12/12 11/11/11 9/9/9
f 11/13/11 13/14/13 10/15/10
f 13/14/13 14/16/14 10/15/10
f 7/17/7 10/15/10 14/16/14
f 13/14/13 15/18/14 14/16/14
f 7/17/7 14/16/14 6/19/6
f 15/18/14 16/20/14 14/16/14
f 14/16/14 16/20/14 6/19/6
f 16/20/14 15/18/14 1/21/1
f 3/22/3 6/19/6 16/20/14
f 3/22/3 16/20/14 1/21/1
f 2/23/2 17/24/15 4/25/4
f 17/24/15 18/26/16 4/25/4
f 18/26/16 5/27/5 4/25/4
f 5/27/5 18/26/16 8/28/8
f 18/26/16 17/24/15 19/29/17
f 18/26/16 19/29/17 8/28/8
f 17/24/15 20/30/16 19/29/17
f 19/29/17 9/31/9 8/28/8
f 19/29/17 20/30/16 12/32/12
f 9/31/9 19/29/17 12/32/12
