# Blender 3.6.18
# www.blender.org
mtllib Mesh.628.mtl
o Bistro_Research_Exterior_paris_building_05_64__5289
v 56.428802 4.887898 24.443163
v 56.428802 5.115891 24.443163
v 55.989624 4.887898 24.266258
v 55.989624 5.115891 24.266258
v 52.998035 2.280167 22.306593
v 52.998039 2.344833 22.306595
v 49.743282 2.280167 21.001732
v 49.743282 2.344833 21.001732
v 52.998035 3.055768 22.306593
v 52.998039 3.120435 22.306595
v 49.743282 3.055768 21.001732
v 49.743282 3.120435 21.001732
v 53.023380 1.560730 22.243660
v 53.023380 1.625396 22.243662
v 49.768631 1.560730 20.938797
v 49.768631 1.625396 20.938797
v 49.363708 4.887898 21.597284
v 49.363708 5.115891 21.597284
v 48.924530 4.887898 21.420380
v 48.924530 5.115892 21.420380
v 49.380180 1.530847 21.609394
v 48.904179 1.530847 21.417652
v 49.369873 1.519730 21.605242
v 48.914490 1.519730 21.421806
v 56.210640 2.622372 24.363628
v 56.347031 2.622372 24.418568
v 56.347031 3.259631 24.418568
v 56.210640 3.259631 24.363628
v 56.074177 2.622372 24.308661
v 56.074177 3.259631 24.308661
v 55.969265 1.530847 24.263531
v 55.979580 1.519730 24.267685
v 56.434967 1.519730 24.451118
v 56.445278 1.530847 24.455271
v 56.445271 4.240662 24.455271
v 55.969265 4.240662 24.263531
v 55.979580 4.251780 24.267685
v 56.434967 4.251780 24.451118
v 56.287472 3.352423 24.401310
v 56.416138 3.352423 24.453140
v 56.427605 3.352423 24.424673
v 56.298939 3.352423 24.372845
v 56.281464 3.374713 24.365808
v 56.269997 3.374713 24.394270
v 56.249584 3.386672 24.386051
v 56.261055 3.386672 24.357586
v 56.240726 3.393732 24.349396
v 56.229256 3.393732 24.377861
v 56.208309 3.396227 24.369423
v 56.219772 3.396227 24.340958
v 56.198818 3.393732 24.332516
v 56.187351 3.393732 24.360981
v 56.167023 3.386672 24.352795
v 56.178490 3.386672 24.324327
v 56.158085 3.374713 24.316109
v 56.146614 3.374713 24.344576
v 56.129139 3.352423 24.337532
v 56.140602 3.352423 24.309065
v 56.000404 3.352423 24.285677
v 56.011868 3.352423 24.257210
v 56.002811 3.342663 24.253563
v 55.991352 3.342663 24.282030
v 55.991352 2.539340 24.282030
v 56.002811 2.539340 24.253563
v 56.000404 2.529579 24.285677
v 56.011868 2.529579 24.257210
v 56.140602 2.529579 24.309065
v 56.129139 2.529579 24.337532
v 56.158085 2.507289 24.316109
v 56.146614 2.507289 24.344576
v 56.167023 2.495330 24.352795
v 56.178490 2.495330 24.324327
v 56.198818 2.488271 24.332516
v 56.187351 2.488271 24.360981
v 56.208309 2.485776 24.369423
v 56.219772 2.485776 24.340958
v 56.240726 2.488271 24.349396
v 56.229256 2.488271 24.377861
v 56.249584 2.495330 24.386051
v 56.261055 2.495330 24.357586
v 56.281464 2.507289 24.365808
v 56.269997 2.507289 24.394270
v 56.287472 2.529579 24.401310
v 56.298939 2.529579 24.372845
v 56.427605 2.529579 24.424673
v 56.416138 2.529579 24.453140
v 56.425186 2.539340 24.456787
v 56.436653 2.539340 24.428320
v 56.425186 3.342663 24.456787
v 56.436653 3.342663 24.428320
v 49.369873 4.251781 21.605242
v 48.914490 4.251781 21.421806
v 49.380180 4.240662 21.609394
v 48.904179 4.240662 21.417652
v 56.283699 2.536641 24.410313
v 56.406357 2.536624 24.459723
v 56.415146 2.545306 24.463261
v 56.415146 3.336696 24.463261
v 56.382183 2.580836 24.449986
v 56.406357 3.345379 24.459723
v 56.382183 3.301167 24.449986
v 56.283699 3.345361 24.410313
v 56.266193 3.367650 24.403261
v 56.204662 3.310310 24.378477
v 56.245766 3.379609 24.395033
v 56.225426 3.386667 24.386843
v 56.204662 3.389162 24.378475
v 56.183525 3.386669 24.369965
v 56.163200 3.379608 24.361776
v 56.142811 3.367649 24.353563
v 56.125359 3.345357 24.346533
v 56.000092 3.345340 24.296076
v 55.994099 3.339059 24.293661
v 56.033054 3.310136 24.309353
v 55.994099 2.542944 24.293661
v 56.027061 3.303530 24.306936
v 56.000092 2.536663 24.296076
v 56.027061 2.578474 24.306936
v 56.125359 2.536646 24.346533
v 56.033054 2.571866 24.309353
v 56.142811 2.514354 24.353563
v 56.204662 2.571693 24.378477
v 56.163200 2.502396 24.361776
v 56.183525 2.495334 24.369965
v 56.204662 2.492840 24.378475
v 56.225426 2.495336 24.386843
v 56.245766 2.502394 24.395033
v 56.266193 2.514353 24.403261
v 56.377495 2.571898 24.448093
v 56.205177 2.579228 24.377188
v 56.376694 2.588154 24.446312
v 56.372005 2.579406 24.444393
v 56.039570 2.579428 24.310476
v 56.209431 2.611225 24.366640
v 56.353359 2.611221 24.424616
v 56.358051 2.620017 24.426521
v 56.066719 2.611229 24.309153
v 56.358051 3.261986 24.426521
v 56.033566 2.585793 24.308094
v 56.060726 2.617654 24.306751
v 56.033566 3.296210 24.308094
v 56.060726 3.264348 24.306751
v 56.066719 3.270775 24.309153
v 56.039570 3.302575 24.310476
v 56.209431 3.270778 24.366640
v 56.205177 3.302775 24.377188
v 56.372005 3.302596 24.444393
v 56.353359 3.270782 24.424616
v 56.377495 3.310105 24.448093
v 56.376694 3.293848 24.446312
vn -0.3815 -0.0039 0.9243
vn -0.3748 -0.0039 0.9271
vn -0.3748 -0.0040 0.9271
vn -0.3815 -0.0039 0.9244
vn -0.3816 -0.0039 0.9243
vn 0.2878 0.8477 0.4455
vn 0.2171 0.8642 0.4538
vn 0.3508 0.9262 0.1380
vn 0.3893 0.9083 0.1533
vn 0.5867 0.7757 0.2323
vn 0.4540 0.7619 0.4619
vn 0.2335 0.8827 0.4077
vn 0.3667 0.9188 0.1459
vn 0.1926 0.9784 0.0747
vn 0.0670 0.9341 0.3508
vn -0.1138 0.9536 0.2786
vn -0.0039 1.0000 -0.0039
vn -0.2000 0.9763 -0.0824
vn -0.2956 0.9339 0.2010
vn -0.4579 0.8807 0.1213
vn -0.3731 0.9151 -0.1532
vn -0.5908 0.7707 -0.2387
vn -0.6498 0.7601 0.0039
vn -0.5231 0.8456 0.1062
vn -0.3954 0.9044 -0.1605
vn -0.4596 0.8761 0.1454
vn -0.3573 0.9226 -0.1452
vn -0.8571 0.3796 -0.3483
vn -0.9300 0.3649 -0.0432
vn -0.9274 -0.3717 -0.0430
vn -0.8545 -0.3863 -0.3473
vn -0.4565 -0.8779 0.1444
vn -0.3547 -0.9238 -0.1442
vn -0.3926 -0.9058 -0.1594
vn -0.5196 -0.8478 0.1055
vn -0.5872 -0.7739 -0.2372
vn -0.6459 -0.7634 0.0039
vn -0.4548 -0.8824 0.1205
vn -0.3704 -0.9163 -0.1521
vn -0.1985 -0.9767 -0.0817
vn -0.2934 -0.9349 0.1995
vn -0.1130 -0.9543 0.2766
vn -0.0039 -1.0000 -0.0039
vn 0.1911 -0.9788 0.0741
vn 0.0665 -0.9351 0.3482
vn 0.2319 -0.8845 0.4049
vn 0.3641 -0.9200 0.1449
vn 0.5832 -0.7788 0.2309
vn 0.4513 -0.7652 0.4591
vn 0.2859 -0.8499 0.4426
vn 0.3865 -0.9096 0.1523
vn 0.3483 -0.9273 0.1370
vn 0.2156 -0.8662 0.4508
vn 0.6729 -0.3817 0.6336
vn 0.8547 -0.3900 0.3427
vn 0.6749 0.3750 0.6355
vn 0.8573 0.3832 0.3437
vn -0.2314 -0.3334 0.9139
vn -0.1929 -0.4685 0.8622
vn 0.1062 -0.1692 0.9798
vn 0.1064 0.1615 0.9811
vn -0.4361 0.0196 0.8997
vn -0.1936 0.4623 0.8653
vn -0.4360 -0.0275 0.8995
vn -0.2320 0.3264 0.9163
vn 0.0277 0.4071 0.9130
vn -0.3730 -0.0982 0.9226
vn -0.1464 0.4471 0.8824
vn -0.2319 0.4678 0.8529
vn -0.3341 0.4757 0.8137
vn -0.4307 0.4701 0.7704
vn -0.5154 0.4524 0.7278
vn -0.6635 0.4123 0.6243
vn -0.4756 0.3341 0.8137
vn -0.5000 0.4685 0.7284
vn -0.7655 0.1845 0.6164
vn -0.3580 -0.0511 0.9323
vn -0.7644 -0.1920 0.6155
vn -0.3350 -0.0276 0.9418
vn -0.4982 -0.4746 0.7257
vn -0.3350 0.0197 0.9420
vn -0.4744 -0.3411 0.8115
vn -0.3581 0.0433 0.9327
vn -0.6614 -0.4187 0.6223
vn -0.3731 0.0904 0.9234
vn -0.5135 -0.4586 0.7252
vn -0.4290 -0.4763 0.7675
vn -0.3329 -0.4817 0.8107
vn -0.2310 -0.4738 0.8498
vn -0.1459 -0.4534 0.8793
vn 0.0276 -0.4136 0.9100
vn -0.4041 0.0353 0.9140
vn -0.3665 0.2561 0.8945
vn -0.5779 0.0590 0.8140
vn -0.4523 0.1613 0.8771
vn -0.3036 0.1853 0.9346
vn -0.3587 0.3351 0.8712
vn -0.4752 0.2474 0.8444
vn -0.6946 0.0432 0.7181
vn -0.2877 0.2719 0.9183
vn -0.6943 -0.0510 0.7178
vn -0.1850 0.0748 0.9799
vn -0.0433 0.0670 0.9968
vn -0.1848 -0.0826 0.9793
vn -0.0433 -0.0748 0.9963
vn -0.2871 -0.2792 0.9163
vn -0.3032 -0.1930 0.9332
vn -0.3578 -0.3421 0.8689
vn -0.3657 -0.2635 0.8927
vn -0.4518 -0.1689 0.8760
vn -0.4743 -0.2548 0.8427
vn -0.4039 -0.0431 0.9138
vn -0.5777 -0.0668 0.8135
vn -0.4905 0.1452 0.8593
vn -0.4839 0.1928 0.8536
vn -0.5782 0.0511 0.8143
vn -0.3642 0.2780 0.8889
vn -0.5780 -0.0590 0.8139
vn -0.4899 -0.1528 0.8583
vn -0.2728 0.2175 0.9372
vn -0.4831 -0.2003 0.8523
vn -0.2557 0.1455 0.9558
vn -0.3634 -0.2852 0.8869
vn -0.1772 0.0827 0.9807
vn -0.1771 -0.0905 0.9800
vn -0.2724 -0.2250 0.9355
vn -0.2554 -0.1532 0.9546
vt 0.605957 0.159668
vt 0.605957 0.262207
vt 0.392822 0.159668
vt 0.392822 0.262207
vt -0.070923 0.358887
vt -0.070923 0.379883
vt -1.166016 0.359863
vt -1.166016 0.379395
vt -0.089050 0.626221
vt -0.089050 0.646973
vt -1.184570 0.626953
vt -1.184570 0.646484
vt -0.063477 0.940460
vt -0.063477 0.961304
vt -1.159180 0.941101
vt -1.159180 0.960663
vt 0.606445 0.159180
vt 0.606445 0.262207
vt 0.392334 0.159180
vt 0.392334 0.262207
vt 2.162109 0.718262
vt 2.162109 0.557861
vt 2.166016 0.714844
vt 2.166016 0.561279
vt -0.121460 0.322266
vt -0.121399 0.486816
vt -0.834961 0.486816
vt -0.834473 0.322266
vt -0.121399 0.158203
vt -0.834961 0.158203
vt 2.119141 0.808960
vt 2.121094 0.812378
vt 2.121094 0.965790
vt 2.119141 0.969269
vt 1.272461 0.969101
vt 1.272461 0.808838
vt 1.268555 0.812256
vt 1.268555 0.965637
vt -1.208008 0.026367
vt -1.357422 0.026367
vt -1.357422 -0.005859
vt -1.208008 -0.005859
vt -1.188477 -0.005859
vt -1.188477 0.026367
vt -1.164062 0.026367
vt -1.164062 -0.005859
vt -1.140625 -0.005859
vt -1.140625 0.026367
vt -1.116211 0.026367
vt -1.116211 -0.005859
vt -1.091797 -0.005859
vt -1.091797 0.026367
vt -1.068359 0.026367
vt -1.068359 -0.005859
vt -1.044922 -0.005859
vt -1.044922 0.026367
vt -1.024414 0.026367
vt -1.024414 -0.005859
vt -0.875488 0.026367
vt -0.875488 -0.005859
vt -0.864746 -0.005859
vt -0.864746 0.026367
vt -0.000506 0.026367
vt -0.000506 -0.005859
vt 0.009995 0.026367
vt 0.009995 -0.005859
vt 0.159302 -0.005859
vt 0.159302 0.026367
vt 0.179565 -0.005859
vt 0.179565 0.026367
vt 0.203247 0.026367
vt 0.203247 -0.005859
vt 0.226929 -0.005859
vt 0.226929 0.026367
vt 0.251221 0.026367
vt 0.251221 -0.005859
vt 0.275391 -0.005859
vt 0.275391 0.026367
vt 0.299072 0.026367
vt 0.299072 -0.005859
vt 0.322754 -0.005859
vt 0.322754 0.026367
vt 0.343018 0.026367
vt 0.343018 -0.005859
vt 0.492432 -0.005859
vt 0.492432 0.026367
vt 0.502930 0.026367
vt 0.502930 -0.005859
vt 1.367188 0.026367
vt 1.367188 -0.005859
vt 1.377930 -0.005859
vt 1.377930 0.026367
vt 1.312500 0.714600
vt 1.312500 0.561279
vt 1.316406 0.718018
vt 1.316406 0.557861
vt -0.024582 0.418457
vt -0.011040 0.418945
vt -0.013565 0.575684
vt -0.025330 0.566406
vt -0.026703 0.588135
vt -0.034851 0.576172
vt -0.921387 0.576416
vt -0.929199 0.588379
vt -0.074463 0.537109
vt -0.930664 0.566650
vt -0.942383 0.576172
vt -0.881836 0.537109
vt -0.931641 0.417969
vt -0.944824 0.420898
vt -0.956543 0.395996
vt -0.969238 0.399902
vt -0.982910 0.374512
vt -0.892090 0.322266
vt -0.969727 0.371582
vt -0.977539 0.347168
vt -0.991211 0.348633
vt -0.993652 0.322266
vt -0.980469 0.322266
vt -0.977539 0.296875
vt -0.991211 0.295898
vt -0.982910 0.270508
vt -0.969727 0.272461
vt -0.956543 0.248047
vt -0.969238 0.244629
vt -0.944824 0.223633
vt -0.931641 0.226074
vt -0.942871 0.068359
vt -0.930664 0.074707
vt -0.923828 0.068359
vt -0.929199 0.055664
vt -0.892090 0.114746
vt -0.032257 0.068359
vt -0.026718 0.056152
vt -0.013443 0.068359
vt -0.884277 0.107422
vt -0.025436 0.074707
vt -0.071777 0.107422
vt -0.024567 0.226562
vt -0.011292 0.223633
vt -0.064209 0.114746
vt 0.000176 0.248535
vt 0.013031 0.245117
vt 0.026901 0.270508
vt -0.063965 0.322754
vt 0.013588 0.272461
vt 0.021469 0.296875
vt 0.034882 0.296387
vt 0.037659 0.322754
vt 0.024231 0.322754
vt 0.021439 0.347656
vt 0.034821 0.349121
vt 0.026764 0.374512
vt 0.013542 0.372070
vt 0.000087 0.396484
vt 0.012817 0.400391
vt -0.011642 0.423340
vt -0.064270 0.531250
vt -0.071899 0.322266
vt -0.082458 0.530029
vt -0.072205 0.523926
vt -0.072205 0.122070
vt -0.109192 0.322266
vt -0.109192 0.496094
vt -0.118713 0.501221
vt -0.109253 0.150391
vt -0.837402 0.501221
vt -0.079712 0.114258
vt -0.116089 0.143066
vt -0.876465 0.114258
vt -0.840332 0.143555
vt -0.847168 0.150391
vt -0.883789 0.122070
vt -0.846680 0.322266
vt -0.884277 0.322266
vt -0.883789 0.523926
vt -0.847168 0.496094
vt -0.891602 0.531250
vt -0.873535 0.530029
s 1
usemtl MASTER_Wood_Painted3
f 1/1/1 2/2/1 3/3/1
f 2/2/1 4/4/1 3/3/1
f 5/5/2 6/6/2 7/7/3
f 6/6/2 8/8/3 7/7/3
f 9/9/2 10/10/2 11/11/3
f 10/10/2 12/12/3 11/11/3
f 13/13/2 14/14/2 15/15/3
f 14/14/2 16/16/3 15/15/3
f 17/17/1 18/18/1 19/19/1
f 18/18/1 20/20/1 19/19/1
f 21/21/1 22/22/1 23/23/1
f 22/22/1 24/24/4 23/23/1
f 25/25/4 26/26/5 27/27/1
f 28/28/1 25/25/4 27/27/1
f 25/25/4 28/28/1 29/29/5
f 28/28/1 30/30/1 29/29/5
f 31/31/1 32/32/1 33/33/5
f 34/34/1 31/31/1 33/33/5
f 34/34/1 35/35/1 31/31/1
f 35/35/1 36/36/1 31/31/1
f 37/37/1 36/36/1 35/35/1
f 38/38/4 37/37/1 35/35/1
f 39/39/6 40/40/7 41/41/8
f 42/42/9 39/39/6 41/41/8
f 39/39/6 42/42/9 43/43/10
f 44/44/11 39/39/6 43/43/10
f 45/45/12 44/44/11 43/43/10
f 46/46/13 45/45/12 43/43/10
f 45/45/12 46/46/13 47/47/14
f 48/48/15 45/45/12 47/47/14
f 49/49/16 48/48/15 47/47/14
f 50/50/17 49/49/16 47/47/14
f 49/49/16 50/50/17 51/51/18
f 52/52/19 49/49/16 51/51/18
f 53/53/20 52/52/19 51/51/18
f 54/54/21 53/53/20 51/51/18
f 53/53/20 54/54/21 55/55/22
f 56/56/23 53/53/20 55/55/22
f 57/57/24 56/56/23 55/55/22
f 58/58/25 57/57/24 55/55/22
f 59/59/26 57/57/24 58/58/25
f 60/60/27 59/59/26 58/58/25
f 60/60/27 61/61/28 59/59/26
f 61/61/28 62/62/29 59/59/26
f 62/62/29 61/61/28 63/63/30
f 61/61/28 64/64/31 63/63/30
f 65/65/32 63/63/30 64/64/31
f 66/66/33 65/65/32 64/64/31
f 66/66/33 67/67/34 65/65/32
f 67/67/34 68/68/35 65/65/32
f 67/67/34 69/69/36 68/68/35
f 69/69/36 70/70/37 68/68/35
f 70/70/37 69/69/36 71/71/38
f 69/69/36 72/72/39 71/71/38
f 72/72/39 73/73/40 71/71/38
f 73/73/40 74/74/41 71/71/38
f 74/74/41 73/73/40 75/75/42
f 73/73/40 76/76/43 75/75/42
f 76/76/43 77/77/44 75/75/42
f 77/77/44 78/78/45 75/75/42
f 78/78/45 77/77/44 79/79/46
f 77/77/44 80/80/47 79/79/46
f 80/80/47 81/81/48 79/79/46
f 81/81/48 82/82/49 79/79/46
f 82/82/49 81/81/48 83/83/50
f 81/81/48 84/84/51 83/83/50
f 84/84/51 85/85/52 83/83/50
f 85/85/52 86/86/53 83/83/50
f 87/87/54 86/86/53 85/85/52
f 88/88/55 87/87/54 85/85/52
f 87/87/54 88/88/55 89/89/56
f 88/88/55 90/90/57 89/89/56
f 90/90/57 41/91/8 89/89/56
f 41/91/8 40/92/7 89/89/56
f 91/93/1 92/94/1 93/95/1
f 92/94/1 94/96/1 93/95/1
f 93/95/1 94/96/1 22/22/1
f 21/21/1 93/95/1 22/22/1
f 95/97/58 83/98/50 86/99/53
f 96/100/59 95/97/58 86/99/53
f 86/99/53 87/101/54 96/100/59
f 87/101/54 97/102/60 96/100/59
f 98/103/61 97/102/60 87/101/54
f 89/104/56 98/103/61 87/101/54
f 97/102/60 99/105/62 96/100/59
f 100/106/63 98/103/61 89/104/56
f 40/107/7 100/106/63 89/104/56
f 98/103/61 101/108/64 97/102/60
f 101/108/64 99/105/62 97/102/60
f 98/103/61 100/106/63 101/108/64
f 100/106/63 40/107/7 102/109/65
f 40/107/7 39/110/6 102/109/65
f 102/109/65 39/110/6 103/111/66
f 39/110/6 44/112/11 103/111/66
f 44/112/11 45/113/12 103/111/66
f 102/109/65 104/114/67 100/106/63
f 104/114/67 102/109/65 103/111/66
f 45/113/12 105/115/68 103/111/66
f 105/115/68 104/114/67 103/111/66
f 105/115/68 45/113/12 106/116/69
f 104/114/67 105/115/68 106/116/69
f 45/113/12 48/117/15 106/116/69
f 48/117/15 49/118/16 106/116/69
f 49/118/16 107/119/70 106/116/69
f 107/119/70 104/114/67 106/116/69
f 107/119/70 49/118/16 108/120/71
f 104/114/67 107/119/70 108/120/71
f 49/118/16 52/121/19 108/120/71
f 52/121/19 53/122/20 108/120/71
f 53/122/20 109/123/72 108/120/71
f 109/123/72 104/114/67 108/120/71
f 109/123/72 53/122/20 110/124/73
f 104/114/67 109/123/72 110/124/73
f 53/122/20 56/125/23 110/124/73
f 56/125/23 57/126/24 110/124/73
f 57/126/24 111/127/74 110/124/73
f 111/127/74 104/114/67 110/124/73
f 111/127/74 57/126/24 59/128/26
f 112/129/75 111/127/74 59/128/26
f 111/127/74 112/129/75 104/114/67
f 113/130/76 112/129/75 59/128/26
f 62/131/29 113/130/76 59/128/26
f 112/129/75 114/132/77 104/114/67
f 112/129/75 113/130/76 114/132/77
f 113/130/76 62/131/29 115/133/78
f 62/131/29 63/134/30 115/133/78
f 63/134/30 65/135/32 115/133/78
f 113/130/76 116/136/79 114/132/77
f 65/135/32 117/137/80 115/133/78
f 113/130/76 115/133/78 118/138/81
f 116/136/79 113/130/76 118/138/81
f 117/137/80 65/135/32 119/139/82
f 65/135/32 68/140/35 119/139/82
f 117/137/80 120/141/83 115/133/78
f 120/141/83 118/138/81 115/133/78
f 121/142/84 119/139/82 68/140/35
f 70/143/37 121/142/84 68/140/35
f 121/142/84 70/143/37 71/144/38
f 119/139/82 122/145/85 117/137/80
f 119/139/82 121/142/84 122/145/85
f 122/145/85 120/141/83 117/137/80
f 123/146/86 121/142/84 71/144/38
f 122/145/85 121/142/84 123/146/86
f 124/147/87 123/146/86 71/144/38
f 123/146/86 124/147/87 122/145/85
f 74/148/41 124/147/87 71/144/38
f 124/147/87 74/148/41 75/149/42
f 125/150/88 124/147/87 75/149/42
f 122/145/85 124/147/87 125/150/88
f 126/151/89 125/150/88 75/149/42
f 125/150/88 126/151/89 122/145/85
f 78/152/45 126/151/89 75/149/42
f 126/151/89 78/152/45 79/153/46
f 127/154/90 126/151/89 79/153/46
f 122/145/85 126/151/89 127/154/90
f 128/155/91 127/154/90 79/153/46
f 127/154/90 128/155/91 122/145/85
f 82/156/49 128/155/91 79/153/46
f 128/155/91 82/156/49 83/157/50
f 95/97/58 128/155/91 83/157/50
f 122/145/85 128/155/91 95/97/58
f 95/97/58 96/100/59 122/145/85
f 96/100/59 129/158/92 122/145/85
f 99/105/62 129/158/92 96/100/59
f 130/159/93 122/145/85 129/158/92
f 120/141/83 122/145/85 130/159/93
f 129/158/92 99/105/62 131/160/94
f 99/105/62 101/108/64 131/160/94
f 132/161/95 130/159/93 129/158/92
f 132/161/95 129/158/92 131/160/94
f 133/162/96 120/141/83 130/159/93
f 120/141/83 133/162/96 118/138/81
f 130/159/93 132/161/95 134/163/97
f 130/159/93 134/163/97 133/162/96
f 132/161/95 135/164/98 134/163/97
f 136/165/99 135/164/98 132/161/95
f 131/160/94 136/165/99 132/161/95
f 134/163/97 137/166/100 133/162/96
f 138/167/101 136/165/99 131/160/94
f 133/162/96 137/166/100 139/168/102
f 133/162/96 139/168/102 118/138/81
f 137/166/100 140/169/103 139/168/102
f 116/136/79 118/138/81 139/168/102
f 141/170/104 139/168/102 140/169/103
f 141/170/104 116/136/79 139/168/102
f 142/171/105 141/170/104 140/169/103
f 141/170/104 142/171/105 143/172/106
f 116/136/79 141/170/104 144/173/107
f 144/173/107 141/170/104 143/172/106
f 114/132/77 116/136/79 144/173/107
f 144/173/107 143/172/106 145/174/108
f 144/173/107 146/175/109 114/132/77
f 146/175/109 144/173/107 145/174/108
f 146/175/109 104/114/67 114/132/77
f 146/175/109 145/174/108 147/176/110
f 145/174/108 148/177/111 147/176/110
f 147/176/110 148/177/111 138/167/101
f 149/178/112 104/114/67 146/175/109
f 147/176/110 149/178/112 146/175/109
f 104/114/67 149/178/112 100/106/63
f 100/106/63 149/178/112 101/108/64
f 150/179/113 147/176/110 138/167/101
f 147/176/110 150/179/113 149/178/112
f 150/179/113 101/108/64 149/178/112
f 150/179/113 138/167/101 131/160/94
f 101/108/64 150/179/113 131/160/94
f 26/26/114 135/164/115 136/165/116
f 134/163/117 135/164/115 26/26/114
f 136/165/116 138/167/118 26/26/114
f 25/25/117 134/163/117 26/26/114
f 138/167/118 27/27/119 26/26/114
f 137/166/120 134/163/117 25/25/117
f 27/27/119 138/167/118 148/177/121
f 29/29/122 137/166/120 25/25/117
f 27/27/119 148/177/121 145/174/123
f 140/169/124 137/166/120 29/29/122
f 28/28/123 27/27/119 145/174/123
f 140/169/124 29/29/122 142/171/125
f 28/28/123 145/174/123 143/172/126
f 29/29/122 30/30/127 142/171/125
f 30/30/127 28/28/123 143/172/126
f 142/171/125 30/30/127 143/172/126
