# Blender 3.6.18
# www.blender.org
mtllib Mesh.815.mtl
o Bistro_Research_Exterior_Paris_Building_01_paris_buildi_e17a09d
v -2.944009 6.942578 -4.282561
v 4.259911 6.942578 -17.632704
v -3.093613 6.942578 -4.283247
v 4.143769 6.942575 -17.695377
v -3.025631 6.820414 -4.282203
v -3.092862 6.896669 -4.282510
v 4.196847 6.820415 -17.666735
v 4.144650 6.896663 -17.694901
v -3.103089 6.912053 -4.282072
v -3.099661 6.912978 -4.273069
v -3.087875 6.897510 -4.273008
v -3.105830 6.930816 -4.282099
v 4.134785 6.930813 -17.700226
v 4.136963 6.911892 -17.699049
v 4.211369 6.812345 -17.658899
v -3.006533 6.812344 -4.282848
v -0.185432 6.820343 1.872561
v -0.235451 6.896727 1.928980
v -3.025392 6.820367 -4.263036
v -3.092120 6.896708 -4.263399
v -0.240633 6.912001 1.935044
v -0.230330 6.915473 1.940112
v -0.225997 6.901644 1.934680
v -0.131198 6.932353 1.827171
v -0.136584 6.942578 1.817517
v -0.225997 6.928576 1.934680
v -0.235452 6.942578 1.928980
v -0.175001 6.812343 1.860785
v -0.179608 6.832387 1.882087
v -0.169295 6.822567 1.870327
v -3.102099 6.912003 -4.263840
v -0.131184 6.822571 1.827156
v -0.136583 6.812343 1.817517
v -3.023234 6.822568 -4.272682
v -3.104838 6.930812 -4.263858
v -0.240634 6.931327 1.935044
v -0.230330 6.928204 1.940112
v -3.099675 6.928073 -4.273069
v -0.124630 6.812350 1.835248
v -0.160184 6.812344 1.876944
v -2.948144 6.932354 -4.272300
v -3.086775 6.932353 -4.273004
v -2.997406 6.822569 -4.272551
v -2.943997 6.812343 -4.282562
v -2.948123 6.822571 -4.272300
v 4.259928 6.812351 -17.632694
v 14.138953 6.812343 7.492128
v 14.118655 6.812343 7.543417
v 14.112576 6.820412 7.558762
v -0.172441 6.820213 1.891448
v -0.227033 6.911942 1.955223
v -0.227033 6.930812 1.955223
v 14.086583 6.930816 7.624366
v 14.087489 6.911896 7.622069
v -0.220741 6.896863 1.948036
v -2.944455 6.812350 -4.262000
v -3.006839 6.812345 -4.262348
v 14.090335 6.942578 7.614879
v -0.220741 6.942574 1.948036
v 14.115114 6.942578 7.552751
v -0.124630 6.942577 1.835248
v 14.138947 6.942578 7.492136
v 14.142713 6.932353 7.482631
v -0.117975 6.932353 1.826889
v 14.090707 6.896669 7.613942
v -3.093120 6.942575 -4.262828
v -2.944475 6.942577 -4.262000
vn -0.0039 1.0000 -0.0039
vn -0.0748 0.9963 -0.0433
vn -0.6530 -0.6686 -0.3558
vn -0.6962 -0.6107 -0.3773
vn -0.8368 -0.3153 -0.4476
vn -0.8383 -0.3314 0.4328
vn -0.7231 -0.5824 0.3713
vn -0.8535 0.2377 -0.4637
vn -0.8535 0.2377 -0.4638
vn -0.8339 -0.3142 -0.4538
vn -0.1058 -0.9927 -0.0571
vn -0.1051 -0.9927 -0.0584
vn -0.6587 -0.6899 0.3002
vn -0.6936 -0.6466 0.3174
vn -0.6587 -0.6899 0.3001
vn -0.6936 -0.6466 0.3175
vn -0.8777 -0.2614 0.4018
vn -0.3728 -0.2315 0.8986
vn -0.0745 -0.6310 0.7722
vn 0.5578 0.6607 0.5024
vn -0.0748 0.9968 0.0276
vn -0.1052 -0.9935 0.0429
vn 0.4524 -0.7278 0.5154
vn -0.7371 -0.5889 -0.3315
vn -0.8684 -0.3388 -0.3621
vn -0.8804 -0.2621 0.3952
vn 0.5222 -0.7185 0.4594
vn -0.0039 -1.0000 -0.0039
vn -0.6116 -0.6818 -0.4013
vn -0.8845 0.2319 0.4049
vn -0.2315 0.2864 0.9297
vn -0.6895 0.3349 0.6422
vn -0.7282 0.3388 -0.5958
vn -0.5193 -0.7223 -0.4568
vn -0.5822 -0.7151 -0.3869
vn -0.0429 -0.9943 0.0975
vn -0.0039 0.7071 0.7071
vn -0.0040 0.7071 0.7071
vn -0.6041 -0.6743 0.4248
vn -0.0431 -0.7408 0.6703
vn -0.0039 -0.7110 0.7032
vn -0.2699 -0.7001 0.6610
vn -0.2699 -0.7001 0.6611
vn -0.9591 -0.2153 0.1840
vn -0.3566 -0.2861 0.8894
vn -0.9638 0.2536 0.0819
vn -0.3589 0.2642 0.8952
vn -0.3566 -0.2860 0.8894
vn -0.8238 -0.5661 0.0273
vn -0.2873 -0.6492 0.7043
vn -0.8239 -0.5661 0.0274
vn -0.0039 -0.7071 -0.7071
vn -0.0351 -0.7372 -0.6748
vn -0.0985 0.9657 0.2404
vn -0.0432 0.9950 0.0904
vn -0.5578 0.6827 -0.4720
vn 0.0276 0.9955 -0.0905
vn 0.0827 0.9727 -0.2166
vn 0.2553 0.7030 -0.6638
vn -0.2872 -0.6492 0.7043
vn -0.0749 0.9968 0.0276
vn -0.0039 0.7032 -0.7110
vt -1.698242 2.742188
vt 3.041016 2.659180
vt -1.718750 2.783203
vt 3.041016 2.700195
vt 3.033203 2.953125
vt 3.042969 2.976562
vt -1.717773 2.953125
vt -1.717773 2.976562
vt 0.450928 0.745117
vt 0.454102 0.739502
vt 0.453125 0.745117
vt 0.456543 0.739258
vt 3.044922 2.988281
vt 3.042969 2.991211
vt -1.718750 2.988281
vt -1.717773 2.991211
vt -1.718750 2.987305
vt -1.717773 2.980469
vt 3.044922 2.987305
vt 3.042969 2.980469
vt -1.717773 2.982422
vt 3.044922 2.982422
vt -1.717773 2.681641
vt -1.717773 2.676758
vt 3.033203 2.764648
vt 3.029297 2.759766
vt 2.140625 0.714844
vt 2.138672 0.739502
vt 0.475586 0.715820
vt 0.457031 0.739746
vt 2.136719 0.744873
vt 2.138672 0.739746
vt 2.140625 0.742188
vt 2.142578 0.738281
vt -3.150391 -1.152344
vt -3.148438 -1.150391
vt -3.330078 -1.187500
vt -3.193359 -1.136719
vt 2.142578 0.715820
vt 2.144531 0.712646
vt 2.146484 0.720215
vt 2.146484 0.714600
vt 2.880859 0.738037
vt 2.884766 0.739502
vt 2.884766 0.745117
vt 2.886719 0.745117
vt 4.164062 -1.146484
vt 4.164062 -1.142578
vt 4.148438 -1.152344
vt 4.148438 -1.150391
vt 2.873047 0.716553
vt 2.876953 0.715820
vt 2.882812 0.739990
vt 0.453369 0.749756
vt 0.454346 0.743652
vt 2.136719 0.749756
vt 2.136719 0.743652
vt 0.453857 0.745117
vt 0.457031 0.739502
vt 2.136719 0.745117
vt -3.181641 -1.132812
vt -3.269531 -1.166016
vt 2.138672 0.739258
vt 2.144531 0.719727
vt 0.450439 0.749756
vt 0.451416 0.743652
vt 0.452881 0.749512
vt 0.453613 0.744629
vt 2.884766 0.749512
vt 2.882812 0.743408
vt 2.886719 0.749756
vt 2.886719 0.743652
vt 4.152344 -1.152344
vt 4.152344 -1.156250
vt 4.167969 -1.146484
vt 4.167969 -1.150391
vt -1.863281 0.504395
vt -1.859375 0.504639
vt -1.882812 0.543213
vt -1.880859 0.546387
vt -1.885742 0.547119
vt -1.882812 0.549561
vt 2.882812 0.543457
vt 2.880859 0.545898
vt 2.873047 0.525391
vt 2.871094 0.527344
vt 2.867188 0.521973
vt 2.869141 0.518066
vt 2.859375 0.504639
vt 2.863281 0.504395
vt -1.878906 0.421875
vt -1.879883 0.438965
vt 3.671875 -5.945312
vt 3.689453 -5.945312
vt 3.695312 -5.949219
vt 4.175781 -1.148438
vt 2.140625 0.746582
vt 2.144531 0.743652
vt 2.140625 0.750977
vt 2.144531 0.749756
vt 6.949219 0.749756
vt 6.949219 0.743652
vt 4.171875 0.715332
vt 4.171875 0.712402
vt 4.171875 0.718506
vt 4.175781 0.715576
vt 4.195312 0.739746
vt 4.195312 0.742188
vt 2.865234 0.501953
vt 2.873047 0.519287
vt 4.171875 -1.142578
vt 2.876953 0.524414
vt 2.873047 0.525146
vt -2.716797 -5.949219
vt -2.712891 -5.949219
vt -3.201172 -1.144531
vt -3.197266 -1.144531
vt -3.199219 -1.140625
vt -2.693359 -5.949219
vt -3.195312 -1.142578
vt -3.152344 -1.156250
vt -3.152344 -1.152344
vt -2.671875 -5.945312
vt -2.669922 -5.945312
vt -3.148438 -1.156250
vt 2.144531 0.739746
vt 2.148438 0.715820
vt 6.949219 0.715820
vt 6.949219 0.739502
vt 6.949219 0.745117
vt 2.144531 0.745117
vt 2.140625 0.747070
vt 2.142578 0.742188
vt -3.197266 -1.136719
vt -3.195312 -1.138672
vt -1.887695 0.546631
vt -1.886719 0.543213
vt -1.884766 0.546875
vt -1.882812 0.542725
vt -1.865234 0.501953
s 1
usemtl MASTER_Wood_Painted3
f 1/1/1 2/2/1 3/3/2
f 2/2/1 4/4/2 3/3/2
f 5/5/3 6/6/4 7/7/3
f 6/6/4 8/8/4 7/7/3
f 9/9/5 6/10/4 10/11/6
f 6/10/4 11/12/7 10/11/6
f 12/13/8 3/14/2 13/15/9
f 3/14/2 4/16/2 13/15/9
f 13/17/9 14/18/10 12/19/8
f 14/18/10 9/20/5 12/19/8
f 14/21/10 8/8/4 9/22/5
f 8/8/4 6/6/4 9/22/5
f 7/23/3 15/24/11 5/25/3
f 15/24/11 16/26/12 5/25/3
f 17/27/13 18/28/14 19/29/15
f 18/28/14 20/30/16 19/29/15
f 21/31/17 18/32/14 22/33/18
f 18/32/14 23/34/19 22/33/18
f 24/35/20 25/36/1 26/37/20
f 25/36/1 27/38/21 26/37/20
f 17/39/13 28/40/22 29/41/19
f 28/40/22 30/42/23 29/41/19
f 11/43/24 20/44/16 10/45/25
f 20/44/16 31/46/26 10/45/25
f 30/47/23 28/48/22 32/49/27
f 28/48/22 33/50/28 32/49/27
f 34/51/29 19/52/15 11/53/24
f 19/52/15 20/44/16 11/53/24
f 35/54/30 31/55/26 36/56/30
f 31/55/26 21/57/17 36/56/30
f 31/58/26 20/59/16 21/60/17
f 20/59/16 18/28/14 21/60/17
f 27/38/21 36/61/30 26/37/20
f 36/61/30 37/62/31 26/37/20
f 18/63/14 17/39/13 23/34/19
f 17/39/13 29/64/19 23/34/19
f 12/65/8 9/66/5 38/67/32
f 9/66/5 10/68/6 38/67/32
f 38/69/33 10/70/25 35/71/30
f 10/70/25 31/72/26 35/71/30
f 32/73/34 39/74/28 30/75/35
f 39/74/28 40/76/36 30/75/35
f 41/77/37 1/78/1 42/79/38
f 1/78/1 3/80/2 42/79/38
f 42/79/38 3/80/2 38/81/32
f 3/80/2 12/82/8 38/81/32
f 11/83/7 6/84/4 34/85/39
f 6/84/4 5/86/3 34/85/39
f 5/86/3 16/87/12 34/85/39
f 16/87/12 43/88/40 34/85/39
f 44/89/28 45/90/41 43/88/40
f 16/87/12 44/89/28 43/88/40
f 44/89/28 16/87/12 46/91/28
f 16/87/12 15/92/11 46/91/28
f 40/76/36 39/74/28 47/93/28
f 48/94/36 40/76/36 47/93/28
f 40/76/36 48/94/36 49/95/42
f 50/96/43 40/76/36 49/95/42
f 22/97/44 51/98/45 37/99/46
f 51/98/45 52/100/47 37/99/46
f 52/100/47 51/98/45 53/101/47
f 51/98/45 54/102/48 53/101/47
f 30/103/35 40/104/36 29/105/49
f 40/104/36 50/106/43 29/105/49
f 50/106/43 55/107/50 29/105/49
f 55/107/50 23/108/51 29/105/49
f 33/50/28 28/48/22 56/109/28
f 28/48/22 57/110/22 56/109/28
f 57/110/22 28/48/22 17/111/13
f 45/90/52 56/109/28 57/110/22
f 19/112/15 57/110/22 17/111/13
f 43/88/53 45/90/52 57/110/22
f 43/88/53 57/110/22 19/112/15
f 34/113/29 43/88/53 19/112/15
f 53/114/47 58/115/54 52/116/47
f 58/115/54 59/117/55 52/116/47
f 52/116/47 59/117/55 37/118/46
f 60/119/1 59/117/55 58/115/54
f 59/117/55 26/120/56 37/118/46
f 60/119/1 61/121/57 59/117/55
f 59/117/55 61/121/57 26/120/56
f 61/121/57 24/122/56 26/120/56
f 60/119/1 62/123/58 61/121/57
f 61/121/57 62/123/58 63/124/59
f 64/125/59 61/121/57 63/124/59
f 55/126/50 50/127/43 49/128/42
f 65/129/60 55/126/50 49/128/42
f 55/126/50 65/129/60 54/130/48
f 51/131/45 55/126/50 54/130/48
f 55/126/50 51/131/45 22/132/44
f 23/133/51 55/126/50 22/132/44
f 36/134/30 27/135/21 35/136/30
f 27/135/21 66/137/61 35/136/30
f 35/136/30 66/137/61 38/138/33
f 66/137/61 42/139/62 38/138/33
f 67/140/1 66/137/61 27/135/21
f 66/137/61 67/140/1 42/139/62
f 25/36/1 67/140/1 27/135/21
f 67/140/1 41/77/62 42/139/62
