# Blender 3.6.18
# www.blender.org
mtllib Mesh.466.mtl
o Bistro_Research_Exterior_paris_building_11_5633
v 1.475839 5.716863 20.873692
v -0.020822 5.717764 20.261696
v 1.436354 5.716863 20.970253
v -0.060307 5.717764 20.358259
v -0.028227 5.709769 20.258669
v -0.028227 2.975796 20.258669
v -0.067712 5.709769 20.355230
v -0.067712 2.975796 20.355230
v -0.020822 2.967796 20.261696
v 1.475839 2.967797 20.873692
v -0.060307 2.967796 20.358259
v 1.436354 2.967797 20.970251
v 1.483244 2.975796 20.876720
v 1.483244 5.708858 20.876720
v 1.443759 2.975796 20.973282
v 1.443759 5.708858 20.973282
v 1.368326 5.600364 20.819895
v 0.093586 5.601132 20.298645
v 1.468427 5.708869 20.861937
v -0.007291 5.709758 20.258505
v 0.083111 5.589822 20.294363
v 0.083111 3.095675 20.294363
v -0.017766 5.698448 20.254223
v -0.017766 2.987109 20.254221
v 0.093583 3.084362 20.298643
v 1.368323 3.084362 20.819893
v -0.007294 2.975796 20.258503
v 1.468424 2.975796 20.861935
v 1.378795 3.095675 20.824177
v 1.378795 5.589047 20.824177
v 1.478896 2.987109 20.866219
v 1.478896 5.697553 20.866219
v 1.342772 5.580803 20.837782
v 0.099283 5.581552 20.329308
v 1.357684 5.589148 20.823376
v 0.098738 5.589907 20.308582
v 0.091300 5.572932 20.326046
v 0.091300 3.112556 20.326044
v 0.090755 5.581286 20.305317
v 0.090755 3.104208 20.305317
v 0.099283 3.103932 20.329309
v 1.342772 3.103933 20.837778
v 0.098738 3.095583 20.308580
v 1.357683 3.095583 20.823372
v 1.350754 3.112557 20.841043
v 1.350754 5.572175 20.841043
v 1.365666 3.104208 20.826637
v 1.365666 5.580519 20.826637
v 1.272861 5.510672 20.816254
v 0.164253 5.511340 20.362934
v 1.327163 5.569590 20.839207
v 0.109425 5.570323 20.341265
v 0.153778 5.500030 20.358654
v 0.153778 3.185417 20.358652
v 0.098950 5.559012 20.336981
v 0.098950 3.126467 20.336983
v 0.164250 3.174104 20.362932
v 1.272858 3.174104 20.816250
v 0.109422 3.115154 20.341263
v 1.327161 3.115153 20.839207
v 1.283330 3.185417 20.820532
v 1.283330 5.499355 20.820534
v 1.337632 3.126467 20.843487
v 1.337632 5.558273 20.843487
v 1.239327 5.502675 20.885872
v 0.139394 5.503338 20.436102
v 1.265529 5.502675 20.821796
v 0.165595 5.503338 20.372025
v 0.131989 5.495342 20.433075
v 0.131989 3.190104 20.433073
v 0.158190 5.495342 20.368998
v 0.158190 3.190103 20.368998
v 0.139394 3.182103 20.436102
v 1.239327 3.182103 20.885872
v 0.165595 3.182103 20.372025
v 1.265529 3.182103 20.821796
v 1.246732 3.190103 20.888899
v 1.246732 5.494671 20.888899
v 1.272933 3.190104 20.824825
v 1.272933 5.494671 20.824825
vn -0.0039 1.0000 -0.0039
vn -0.9255 -0.0039 -0.3788
vn -0.0039 -1.0000 -0.0039
vn 0.9271 -0.0039 0.3748
vn 0.3720 0.0039 -0.9282
vn 0.3721 0.0039 -0.9282
vn 0.3653 -0.0039 -0.9309
vn 0.3720 -0.0117 -0.9281
vn 0.3788 -0.0039 -0.9255
vn 0.1440 -0.9147 -0.3776
vn 0.9996 -0.0039 -0.0277
vn 0.9996 -0.0040 -0.0277
vn 0.1451 0.9134 -0.3803
vn 0.1450 0.9134 -0.3803
vn -0.6953 -0.0039 -0.7187
vn 0.3720 0.0118 -0.9281
vn 0.3720 0.0117 -0.9281
vn 0.3721 0.0117 -0.9281
vn 0.3626 -0.0039 -0.9319
vn 0.3627 -0.0039 -0.9319
vn 0.3720 -0.0196 -0.9280
vn 0.3882 -0.0039 -0.9216
vn 0.6535 0.7089 0.2653
vn 0.6739 0.6503 -0.3508
vn 0.8202 0.4906 -0.2943
vn 0.4288 0.4367 -0.7908
vn -0.2389 0.6464 -0.7247
vn 0.2395 0.4358 -0.8676
vn -0.3858 0.4872 -0.7834
vn -0.6566 0.7038 -0.2713
vn -0.0740 0.0973 -0.9925
vn -0.3844 -0.4931 -0.7804
vn -0.0739 -0.1050 -0.9917
vn -0.2377 -0.6509 -0.7210
vn -0.6530 -0.7077 -0.2698
vn 0.2387 -0.4421 -0.8646
vn 0.6686 -0.6530 -0.3558
vn 0.4274 -0.4430 -0.7881
vn 0.8170 -0.4965 -0.2932
vn 0.6498 -0.7128 0.2639
vn 0.7413 -0.1059 -0.6628
vn 0.7419 0.0981 -0.6633
vn 0.0273 -0.5189 -0.8544
vn -0.1755 -0.2925 -0.9400
vn -0.0428 -0.4792 -0.8766
vn -0.1444 -0.3709 -0.9174
vn 0.6358 -0.4798 -0.6046
vn 0.7402 -0.3721 -0.5601
vn 0.5675 -0.5205 -0.6380
vn 0.7799 -0.2939 -0.5526
vn 0.7424 0.3653 -0.5617
vn 0.6382 0.4738 -0.6068
vn 0.7817 0.2868 -0.5538
vn 0.5698 0.5148 -0.6406
vn -0.0430 0.4732 -0.8799
vn -0.1449 0.3641 -0.9200
vn 0.0274 0.5132 -0.8579
vn -0.1759 0.2854 -0.9421
vn -0.1675 -0.7049 -0.6893
vn -0.4341 -0.4107 -0.8018
vn 0.5924 -0.7101 -0.3805
vn 0.8693 -0.4130 -0.2714
vn 0.6535 0.7089 0.2654
vn 0.8722 0.4064 -0.2723
vn 0.5957 0.7062 -0.3827
vn 0.8721 0.4065 -0.2723
vn -0.1684 0.7009 -0.6931
vn -0.4355 0.4041 -0.8044
vn 0.2460 -0.2616 -0.9333
vn 0.1130 -0.1208 -0.9862
vn 0.1131 0.1131 -0.9871
vn 0.4672 -0.2630 -0.8441
vn 0.2465 0.2543 -0.9352
vn 0.4682 0.2557 -0.8458
vn 0.6017 0.1141 -0.7905
vn 0.6012 -0.1218 -0.7898
vn 0.2851 -0.3241 -0.9020
vn 0.0586 -0.0742 -0.9955
vn 0.4183 -0.3245 -0.8484
vn 0.1838 -0.3872 -0.9035
vn 0.0586 0.0664 -0.9961
vn -0.0195 -0.1675 -0.9857
vn 0.2858 0.3171 -0.9043
vn -0.0195 0.1599 -0.9869
vn 0.4194 0.3175 -0.8505
vn 0.1844 0.3805 -0.9062
vn 0.6484 0.0668 -0.7584
vn 0.4976 0.3801 -0.7797
vn 0.6480 -0.0746 -0.7580
vn 0.6978 0.1617 -0.6978
vn 0.6969 -0.1693 -0.6969
vn 0.4961 -0.3867 -0.7774
vt 0.337646 0.485352
vt 0.842773 0.485352
vt 0.337646 0.517822
vt 0.842773 0.517822
vt -0.199585 0.485352
vt 0.654297 0.485352
vt -0.199585 0.517822
vt 0.654297 0.517822
vt 0.156738 0.485352
vt 0.662109 0.485352
vt 0.156738 0.517822
vt 0.662109 0.517822
vt 0.345215 0.485352
vt 1.199219 0.485352
vt 0.345215 0.517822
vt 1.199219 0.517822
vt 0.375244 1.165405
vt 0.805664 1.165649
vt 0.341309 1.199341
vt 0.839355 1.199585
vt 0.809082 1.162109
vt 0.809082 0.382812
vt 0.842773 1.196045
vt 0.842773 0.349121
vt 0.805664 0.379395
vt 0.375244 0.379395
vt 0.839355 0.345703
vt 0.341309 0.345703
vt 0.371582 0.382812
vt 0.371582 1.161865
vt 0.337646 0.349121
vt 0.337646 1.195801
vt 0.619141 0.490723
vt 0.199463 0.490723
vt 0.621582 0.484863
vt 0.196899 0.484863
vt 1.156250 0.490723
vt 0.387939 0.490723
vt 1.159180 0.484863
vt 0.385254 0.484863
vt 0.800293 0.490723
vt 0.380615 0.490723
vt 0.802734 0.484863
vt 0.377930 0.484863
vt 0.611816 0.490723
vt -0.156616 0.490723
vt 0.614258 0.484863
vt -0.159180 0.484863
vt 0.403320 1.137451
vt 0.777344 1.137573
vt 0.384766 1.155762
vt 0.795898 1.156006
vt 0.780762 1.134033
vt 0.780762 0.411133
vt 0.799316 1.152466
vt 0.799316 0.392578
vt 0.777344 0.407715
vt 0.403320 0.407715
vt 0.795898 0.389160
vt 0.384766 0.389160
vt 0.399658 0.411133
vt 0.399658 1.133911
vt 0.381348 0.392578
vt 0.381348 1.152222
vt 0.594727 0.516846
vt 0.223755 0.516846
vt 0.594727 0.495117
vt 0.223755 0.495117
vt 1.131836 0.516846
vt 0.412109 0.516846
vt 1.131836 0.495117
vt 0.412109 0.495117
vt 0.775879 0.516846
vt 0.404785 0.516846
vt 0.775879 0.495117
vt 0.404785 0.495117
vt 0.587402 0.516846
vt -0.132446 0.516846
vt 0.587402 0.495117
vt -0.132446 0.495117
vt 1.201172 0.517822
vt 1.201172 0.485352
vt 0.341309 0.482910
vt 0.839355 0.482910
vt 0.845215 0.485352
vt 0.845215 0.517822
vt -0.196045 0.482910
vt 0.650879 0.482910
vt 0.656738 0.485352
vt 0.656738 0.517822
vt 0.160278 0.482910
vt 0.658203 0.482910
vt 0.664551 0.485352
vt 0.664551 0.517822
vt 0.348633 0.482910
vt 1.195312 0.482910
vt -0.161987 0.484863
vt -0.159302 0.490723
vt 0.196777 0.490723
vt 0.194214 0.484863
vt 0.385254 0.490723
vt 0.382568 0.484863
vt 0.377686 0.490723
vt 0.375244 0.484863
vt -0.134888 0.495117
vt -0.134888 0.516846
vt 0.221191 0.516846
vt 0.221191 0.495117
vt 0.409668 0.516846
vt 0.409668 0.495117
vt 0.402344 0.516846
vt 0.402344 0.495117
vt 0.335205 1.199341
vt 0.337646 1.201782
vt 0.375244 1.159180
vt 0.375244 0.385742
vt 0.377930 1.161987
vt 0.377930 0.382812
vt 0.802734 1.162109
vt 0.802734 0.382812
vt 0.335205 0.345703
vt 0.337646 0.343262
vt 0.805664 0.385742
vt 0.805664 1.159424
vt 0.842773 0.343262
vt 0.845215 0.345703
vt 0.845215 1.199585
vt 0.842773 1.202148
vt 0.380615 1.159302
vt 0.800293 1.159546
vt 0.377686 1.156616
vt 0.802734 1.156860
vt 0.377686 0.388184
vt 0.380615 0.385742
vt 0.800293 0.385742
vt 0.802734 0.388184
vt 0.778320 0.412598
vt 0.778320 1.132568
vt 0.775879 0.410156
vt 0.775879 1.135132
vt 0.404785 0.410156
vt 0.404785 1.134888
vt 0.402344 0.412598
vt 0.402344 1.132446
s 1
usemtl MASTER_Wood_Painted_Green
f 1/1/1 2/2/1 3/3/1
f 2/2/1 4/4/1 3/3/1
f 5/5/2 6/6/2 7/7/2
f 6/6/2 8/8/2 7/7/2
f 9/9/3 10/10/3 11/11/3
f 10/10/3 12/12/3 11/11/3
f 13/13/4 14/14/4 15/15/4
f 14/14/4 16/16/4 15/15/4
f 17/17/5 18/18/6 19/19/6
f 18/18/6 20/20/6 19/19/6
f 21/21/7 22/22/7 23/23/7
f 22/22/7 24/24/7 23/23/7
f 25/25/8 26/26/8 27/27/8
f 26/26/8 28/28/8 27/27/8
f 29/29/9 30/30/9 31/31/9
f 30/30/9 32/32/9 31/31/9
f 33/33/10 34/34/10 35/35/10
f 34/34/10 36/36/10 35/35/10
f 37/37/11 38/38/11 39/39/11
f 38/38/11 40/40/12 39/39/11
f 41/41/13 42/42/14 43/43/13
f 42/42/14 44/44/14 43/43/13
f 45/45/15 46/46/15 47/47/15
f 46/46/15 48/48/15 47/47/15
f 49/49/16 50/50/17 51/51/17
f 50/50/17 52/52/18 51/51/17
f 53/53/19 54/54/19 55/55/19
f 54/54/19 56/56/20 55/55/19
f 57/57/21 58/58/21 59/59/21
f 58/58/21 60/60/21 59/59/21
f 61/61/22 62/62/22 63/63/22
f 62/62/22 64/64/22 63/63/22
f 65/65/3 66/66/3 67/67/3
f 66/66/3 68/68/3 67/67/3
f 69/69/4 70/70/4 71/71/4
f 70/70/4 72/72/4 71/71/4
f 73/73/1 74/74/1 75/75/1
f 74/74/1 76/76/1 75/75/1
f 77/77/2 78/78/2 79/79/2
f 78/78/2 80/80/2 79/79/2
f 3/81/23 16/16/23 1/82/24
f 16/16/23 14/14/25 1/82/24
f 1/1/24 19/83/26 2/2/27
f 19/83/26 20/84/28 2/2/27
f 2/2/27 5/85/29 4/4/30
f 5/85/29 7/86/30 4/4/30
f 5/5/29 23/87/31 6/6/32
f 23/87/31 24/88/33 6/6/32
f 6/6/32 9/89/34 8/8/35
f 9/89/34 11/90/35 8/8/35
f 9/9/34 27/91/36 10/10/37
f 27/91/36 28/92/38 10/10/37
f 10/10/37 13/93/39 12/12/40
f 13/93/39 15/94/40 12/12/40
f 13/13/39 31/95/41 14/14/25
f 31/95/41 32/96/42 14/14/25
f 35/97/43 48/48/44 33/98/45
f 48/48/44 46/46/46 33/98/45
f 34/34/47 37/99/48 36/36/49
f 37/99/48 39/100/50 36/36/49
f 38/38/51 41/101/52 40/40/53
f 41/101/52 43/102/54 40/40/53
f 42/42/55 45/103/56 44/44/57
f 45/103/56 47/104/58 44/44/57
f 67/105/59 80/80/60 65/106/35
f 80/80/60 78/78/35 65/106/35
f 66/66/40 69/107/40 68/68/61
f 69/107/40 71/108/62 68/68/61
f 70/70/63 73/109/63 72/72/64
f 73/109/23 75/110/65 72/72/66
f 74/74/30 77/111/30 76/76/67
f 77/111/30 79/112/68 76/76/67
f 14/113/25 32/32/42 1/114/24
f 32/32/42 19/19/26 1/114/24
f 19/19/26 32/32/42 17/17/69
f 32/32/42 30/30/70 17/17/69
f 30/30/70 48/115/44 17/17/69
f 47/116/58 48/115/44 30/30/70
f 48/115/44 35/117/43 17/17/69
f 29/29/71 47/116/58 30/30/70
f 17/17/69 35/117/43 18/18/72
f 44/118/57 47/116/58 29/29/71
f 35/117/43 36/119/49 18/18/72
f 26/26/73 44/118/57 29/29/71
f 43/120/54 44/118/57 26/26/73
f 26/26/73 29/29/71 28/28/38
f 29/29/71 31/31/41 28/28/38
f 28/28/38 31/31/41 13/121/39
f 10/122/37 28/28/38 13/121/39
f 25/25/74 43/120/54 26/26/73
f 40/123/53 43/120/54 25/25/74
f 22/22/75 40/123/53 25/25/74
f 39/124/50 40/123/53 22/22/75
f 22/22/75 25/25/74 24/24/33
f 25/25/74 27/27/36 24/24/33
f 24/24/33 27/27/36 9/125/34
f 6/126/32 24/24/33 9/125/34
f 21/21/76 39/124/50 22/22/75
f 36/119/49 39/124/50 21/21/76
f 18/18/72 36/119/49 21/21/76
f 18/18/72 21/21/76 20/20/28
f 21/21/76 23/23/31 20/20/28
f 20/20/28 23/23/31 5/127/29
f 2/128/27 20/20/28 5/127/29
f 33/129/45 51/51/77 34/130/47
f 64/64/78 51/51/77 33/129/45
f 46/131/46 64/64/78 33/129/45
f 51/51/77 52/52/79 34/130/47
f 51/51/77 64/64/78 49/49/80
f 34/130/47 52/52/79 37/132/48
f 63/63/81 64/64/78 46/131/46
f 45/133/56 63/63/81 46/131/46
f 64/64/78 62/62/82 49/49/80
f 60/60/83 63/63/81 45/133/56
f 42/134/55 60/60/83 45/133/56
f 61/61/84 63/63/81 60/60/83
f 59/59/85 60/60/83 42/134/55
f 41/135/52 59/59/85 42/134/55
f 58/58/86 61/61/84 60/60/83
f 56/56/87 59/59/85 41/135/52
f 38/136/51 56/56/87 41/135/52
f 57/57/88 59/59/85 56/56/87
f 55/55/89 56/56/87 38/136/51
f 37/132/48 55/55/89 38/136/51
f 52/52/79 55/55/89 37/132/48
f 54/54/90 57/57/88 56/56/87
f 53/53/91 55/55/89 52/52/79
f 50/50/92 53/53/91 52/52/79
f 54/54/90 72/137/66 57/57/88
f 71/138/62 72/137/66 54/54/90
f 53/53/91 71/138/62 54/54/90
f 72/137/66 75/139/65 57/57/88
f 57/57/88 75/139/65 58/58/86
f 68/140/61 71/138/62 53/53/91
f 50/50/92 68/140/61 53/53/91
f 75/139/65 76/141/67 58/58/86
f 67/142/59 68/140/61 50/50/92
f 58/58/86 76/141/67 61/61/84
f 49/49/80 67/142/59 50/50/92
f 76/141/67 79/143/68 61/61/84
f 80/144/60 67/142/59 49/49/80
f 61/61/84 79/143/68 62/62/82
f 62/62/82 80/144/60 49/49/80
f 79/143/68 80/144/60 62/62/82
