# Blender 3.6.18
# www.blender.org
mtllib Mesh.784.mtl
o Bistro_Research_Exterior_paris_building_03_mirrored_4961
v -57.839371 20.687630 -50.414944
v -56.422733 20.687611 -51.852547
v -56.407932 20.764250 -51.839500
v -57.834637 20.764248 -50.392754
v -56.385643 20.832817 -51.817974
v -57.825508 20.832819 -50.357758
v -57.856689 20.687616 -53.237305
v -59.253338 20.687664 -51.801708
v -59.276245 20.764248 -51.803375
v -57.870182 20.764250 -53.251575
v -59.311432 20.832819 -51.811745
v -57.892479 20.832817 -53.273109
v -45.385433 20.687630 -38.388332
v -43.968807 20.687611 -39.825939
v -43.954006 20.764250 -39.812889
v -45.380711 20.764248 -38.366146
v -43.931713 20.832817 -39.791363
v -45.371578 20.832819 -38.331146
v -45.402760 20.687616 -41.210693
v -46.799412 20.687664 -39.775105
v -46.822315 20.764248 -39.776768
v -45.416256 20.764250 -41.224972
v -46.857502 20.832819 -39.785133
v -45.438549 20.832817 -41.246498
v -51.511528 20.687630 -44.304234
v -50.094902 20.687611 -45.741840
v -50.080097 20.764250 -45.728794
v -51.506802 20.764248 -44.282043
v -50.057808 20.832817 -45.707260
v -51.497677 20.832819 -44.247047
v -51.528851 20.687616 -47.126595
v -52.925507 20.687664 -45.691002
v -52.948406 20.764248 -45.692665
v -51.542347 20.764250 -47.140869
v -52.983593 20.832819 -45.701035
v -51.564644 20.832817 -47.162395
v -43.429836 0.369038 -35.473610
v -43.391144 0.313112 -35.513676
v -42.484577 0.313112 -34.638218
v -42.523270 0.369038 -34.598145
v -43.385605 16.115553 -35.519413
v -42.479034 16.115553 -34.643948
v -43.346596 16.171478 -35.559803
v -42.440025 16.171480 -34.684341
v -42.399956 16.115553 -34.645329
v -42.444187 0.369038 -34.599529
v -41.765919 0.313112 -35.382408
v -41.725689 0.369037 -35.343555
v -41.725685 16.115553 -35.343555
v -41.765915 16.171480 -35.382404
v -41.727070 16.115553 -35.422634
v -41.727070 0.369037 -35.422638
v -42.672485 0.313112 -36.257870
v -42.633636 0.369038 -36.298100
v -42.633636 16.115553 -36.298096
v -42.672482 16.171480 -36.257870
v -42.712711 16.115553 -36.296715
v -42.712715 0.369038 -36.296715
v -43.431217 0.369038 -35.552689
v -43.386982 16.115553 -35.598492
v -33.090652 16.064131 -46.081093
v -33.129356 16.120056 -46.040726
v -32.272083 16.120054 -45.212860
v -32.233231 16.064129 -45.253094
v -33.127689 1.840231 -46.116863
v -32.233234 1.840231 -45.253098
v -33.166687 1.784305 -46.076771
v -32.272083 1.784305 -45.212864
v -32.231853 1.840231 -45.174015
v -32.231853 16.064129 -45.174015
v -32.739525 16.120054 -44.728809
v -32.699291 16.064129 -44.689964
v -32.699291 1.840229 -44.689964
v -32.739525 1.784303 -44.728813
v -32.778378 1.840229 -44.688583
v -32.778374 16.064129 -44.688583
v -33.596802 16.120054 -45.556675
v -33.635796 16.064129 -45.516582
v -33.672829 1.840229 -45.552349
v -33.634125 1.784304 -45.592716
v -56.329227 20.923950 -51.763500
v -57.831356 20.926573 -50.219040
v -57.830139 20.866991 -50.216869
v -56.329227 20.866995 -51.763500
v -56.342010 20.849176 -51.775833
v -57.841637 20.849203 -50.221527
v -59.448719 20.923929 -51.783325
v -57.958801 20.923952 -53.337154
v -57.958801 20.866995 -53.337154
v -59.450779 20.866991 -51.785122
v -59.445976 20.849205 -51.776230
v -57.946018 20.849186 -53.324818
v -43.875298 20.923950 -39.736889
v -45.377422 20.926573 -38.192432
v -45.376213 20.866991 -38.190258
v -43.875298 20.866995 -39.736889
v -43.888077 20.849176 -39.749226
v -45.387714 20.849203 -38.194916
v -46.994785 20.923929 -39.756714
v -45.504868 20.923952 -41.310539
v -45.504868 20.866995 -41.310539
v -46.996853 20.866991 -39.758522
v -46.992046 20.849205 -39.749619
v -45.492092 20.849186 -41.298203
v -50.001396 20.923950 -45.652786
v -51.503513 20.926573 -44.108334
v -51.502308 20.866991 -44.106163
v -50.001396 20.866995 -45.652786
v -50.014175 20.849176 -45.665123
v -51.513805 20.849203 -44.110817
v -53.120876 20.923929 -45.672615
v -51.630959 20.923952 -47.226444
v -51.630959 20.866995 -47.226444
v -53.122940 20.866991 -45.674423
v -53.118137 20.849205 -45.665524
v -51.618191 20.849186 -47.214100
v -57.946018 20.941710 -53.324818
v -59.435699 20.941685 -51.770790
v -59.448536 20.923944 -51.758320
v -56.342010 20.941710 -51.775833
v -57.856243 20.926571 -50.218529
v -57.844162 20.944330 -50.231724
v -57.865250 20.687901 -50.414734
v -57.859802 20.764248 -50.392525
v -59.252647 20.687904 -51.776062
v -57.852333 20.831898 -50.358742
v -59.275921 20.764248 -51.778210
v -59.309856 20.831898 -51.784939
v -59.450012 20.866995 -51.759804
v -57.855537 20.866995 -50.216614
v -45.492092 20.941710 -41.298203
v -46.981766 20.941685 -39.744183
v -46.994602 20.923944 -39.731709
v -43.888077 20.941710 -39.749226
v -45.402317 20.926571 -38.191921
v -45.390232 20.944330 -38.205120
v -45.411316 20.687901 -38.388119
v -45.405869 20.764248 -38.365921
v -46.798721 20.687904 -39.749451
v -45.398407 20.831898 -38.332134
v -46.821991 20.764248 -39.751602
v -46.855930 20.831898 -39.758335
v -46.996086 20.866995 -39.733185
v -45.401611 20.866995 -38.190006
v -51.618183 20.941710 -47.214104
v -53.107857 20.941685 -45.660084
v -53.120701 20.923944 -45.647610
v -50.014175 20.941710 -45.665123
v -51.528412 20.926571 -44.107822
v -51.516327 20.944330 -44.121014
v -51.537403 20.687901 -44.304020
v -51.531963 20.764248 -44.281818
v -52.924816 20.687904 -45.665348
v -51.524506 20.831898 -44.248032
v -52.948090 20.764248 -45.667500
v -52.982025 20.831898 -45.674232
v -53.122177 20.866995 -45.649090
v -51.527702 20.866995 -44.105907
v -57.910515 20.849051 -53.290527
v -59.349945 20.849031 -51.796761
v -57.837135 20.849031 -50.318623
v -56.367607 20.849060 -51.800560
v -56.438835 20.670412 -51.867813
v -57.853352 20.670412 -50.432255
v -59.235561 20.670412 -51.788460
v -57.840889 20.670414 -53.221764
v -45.456585 20.849051 -41.263916
v -46.896015 20.849031 -39.770149
v -45.383209 20.849031 -38.292019
v -43.913677 20.849060 -39.773945
v -43.984901 20.670412 -39.841206
v -45.399422 20.670412 -38.405651
v -46.781635 20.670412 -39.761852
v -45.386955 20.670414 -41.195156
v -51.582680 20.849051 -47.179813
v -53.022106 20.849031 -45.686054
v -51.509308 20.849031 -44.207920
v -50.039772 20.849060 -45.689846
v -50.111004 20.670412 -45.757103
v -51.525509 20.670412 -44.321545
v -52.907730 20.670412 -45.677757
v -51.513054 20.670414 -47.111053
vn 0.6402 -0.4124 0.6481
vn 0.6502 -0.4059 0.6423
vn 0.6741 -0.3351 0.6583
vn 0.6662 -0.3351 0.6662
vn 0.6009 -0.5374 0.5917
vn 0.5952 -0.5400 0.5952
vn -0.6559 -0.3998 -0.6403
vn -0.6635 -0.3997 -0.6325
vn -0.6825 -0.3315 -0.6513
vn -0.6749 -0.3316 -0.6592
vn -0.6126 -0.5268 -0.5892
vn -0.6098 -0.5244 -0.5943
vn 0.5951 -0.5400 0.5952
vn -0.6559 -0.3997 -0.6404
vn -0.6825 -0.3315 -0.6514
vn -0.6127 -0.5268 -0.5892
vn 0.6502 -0.4058 0.6423
vn -0.6748 -0.3316 -0.6593
vn -0.6098 -0.5243 -0.5943
vn -0.7264 -0.0040 0.6872
vn -0.5832 -0.8102 0.0587
vn -0.0511 -0.8143 0.5782
vn -0.6709 -0.0039 0.7415
vn -0.7265 0.0039 0.6872
vn -0.6709 0.0039 0.7415
vn -0.5859 0.8061 0.0826
vn -0.0672 0.8108 0.5814
vn 0.6830 -0.0040 0.7304
vn 0.5740 -0.8162 -0.0664
vn 0.7528 -0.0039 0.6582
vn 0.5803 0.8093 -0.0908
vn 0.7188 -0.0039 -0.6952
vn 0.7188 -0.0040 -0.6952
vn 0.0428 -0.8135 -0.5800
vn 0.6627 -0.0039 -0.7489
vn 0.0591 0.8075 -0.5869
vn -0.6833 -0.0039 -0.7301
vn -0.7523 -0.0039 -0.6588
vn 0.6913 -0.0039 -0.7226
vn 0.4909 0.7030 -0.5145
vn 0.5728 0.8019 -0.1699
vn 0.6913 -0.0117 -0.7225
vn 0.4882 -0.7070 -0.5117
vn 0.5684 -0.8036 -0.1764
vn 0.7711 -0.0039 0.6367
vn 0.7711 -0.0040 0.6367
vn -0.1537 0.8003 0.5795
vn 0.6666 -0.0039 0.7454
vn 0.6665 -0.0040 0.7454
vn -0.1604 -0.8021 0.5752
vn -0.6627 -0.0039 0.7489
vn -0.4988 0.7031 0.5067
vn -0.6957 -0.0039 0.7183
vn -0.6992 -0.0117 0.7148
vn -0.4961 -0.7071 0.5039
vn 0.6981 0.2406 0.6744
vn 0.6903 0.2406 0.6824
vn 0.6998 -0.1779 0.6918
vn 0.7062 -0.1779 0.6853
vn 0.1913 -0.9642 0.1835
vn -0.0039 -0.9871 0.1599
vn -0.7047 0.2453 -0.6658
vn -0.6995 0.2466 -0.6707
vn -0.7125 -0.1674 -0.6814
vn -0.1676 -0.9859 0.0039
vn -0.1910 -0.9628 -0.1910
vn -0.0039 -0.9871 0.1600
vn -0.7125 -0.1675 -0.6814
vn -0.7047 0.2453 -0.6657
vn -0.1675 -0.9859 0.0039
vn -0.0119 0.9999 -0.0118
vn -0.0119 0.9999 -0.0040
vn -0.6878 0.2319 0.6878
vn 0.0035 1.0000 0.0044
vn -0.6762 0.2306 0.6997
vn -0.0039 1.0000 0.0040
vn -0.6548 -0.3489 0.6705
vn -0.6774 -0.2232 0.7009
vn -0.6670 -0.3472 0.6592
vn -0.6349 -0.4168 0.6505
vn -0.6932 -0.2232 0.6853
vn -0.6460 -0.4189 0.6382
vn -0.6922 -0.1760 0.7000
vn -0.6843 -0.1759 0.7077
vn -0.0118 0.9999 -0.0119
vn -0.0039 1.0000 0.0039
vn -0.6548 -0.3490 0.6705
vn -0.6670 -0.3471 0.6592
vn -0.6842 -0.1759 0.7077
vn -0.0118 0.9999 -0.0040
vn -0.0040 1.0000 0.0039
vn -0.6843 -0.1760 0.7077
vn -0.1594 -0.9755 -0.1516
vn -0.1294 -0.9916 0.0039
vn -0.0039 -0.9927 0.1207
vn 0.1531 -0.9775 0.1452
vn 0.0039 -1.0000 0.0039
vn -0.0039 -0.9999 0.0118
vn -0.0196 -0.9998 -0.0039
vn -0.0111 -0.9999 -0.0125
vn -0.1593 -0.9755 -0.1516
vn -0.1294 -0.9916 0.0038
vn -0.0110 -0.9999 -0.0125
vn 0.1531 -0.9775 0.1453
vn -0.0040 -0.9999 0.0118
vt 0.718262 0.851074
vt 0.087708 0.851074
vt 0.087402 0.875000
vt 0.722168 0.875000
vt 0.087402 0.896362
vt 0.728027 0.896362
vt 0.912109 0.851074
vt 0.286377 0.851074
vt 0.281738 0.875000
vt 0.912109 0.875000
vt 0.275879 0.896362
vt 0.912109 0.896362
vt -0.331543 0.079102
vt -0.333984 0.054688
vt 0.057129 0.054688
vt 0.059601 0.079102
vt -0.331543 4.964844
vt 0.059601 4.964844
vt -0.328857 4.990234
vt 0.062073 4.990234
vt 0.084167 4.964844
vt 0.077271 4.986328
vt 0.066528 0.058105
vt 0.084167 0.079102
vt 0.076233 0.054688
vt 0.397217 0.054688
vt 0.395264 0.079590
vt 0.395264 4.964844
vt 0.092041 4.990234
vt 0.393066 4.990234
vt 0.419678 4.966797
vt 0.406738 4.986328
vt 0.408203 0.058105
vt 0.419678 0.079590
vt 0.419922 0.054688
vt 0.811035 0.054688
vt 0.811035 0.079590
vt 0.811035 4.966797
vt 0.419678 4.990234
vt 0.810547 4.990234
vt 0.835449 4.966797
vt 0.823242 4.986328
vt 0.823242 0.058105
vt 0.835449 0.079590
vt 0.835449 0.054688
vt 1.156250 0.054688
vt 1.146484 0.079590
vt 1.168945 0.058105
vt 1.170898 0.079590
vt 1.170898 4.966797
vt 1.146484 4.966797
vt 1.148438 4.986328
vt 0.835449 4.990234
vt 1.136719 4.990234
vt 2.222656 4.494141
vt 2.214844 4.519531
vt 1.844727 4.519531
vt 1.844727 4.494141
vt 2.222656 0.080078
vt 1.844727 0.080078
vt 2.230469 0.055664
vt 1.844727 0.055664
vt 1.820312 0.080078
vt 1.833008 0.059082
vt 1.833008 4.515625
vt 1.820312 4.494141
vt 1.820312 4.519531
vt 1.611328 4.519531
vt 1.611328 4.494141
vt 1.611328 0.080078
vt 1.820312 0.055664
vt 1.611328 0.055664
vt 1.586914 0.080078
vt 1.599609 0.059082
vt 1.599609 4.515625
vt 1.586914 4.494141
vt 1.586914 4.517578
vt 1.217773 4.517578
vt 1.208984 4.494141
vt 1.208984 0.080078
vt 1.586914 0.055664
vt 1.201172 0.055664
vt 0.087402 0.924866
vt 0.760254 0.925659
vt 0.760742 0.907043
vt 0.087402 0.907043
vt 0.087402 0.901489
vt 0.762207 0.901489
vt 0.239746 0.924805
vt 0.912109 0.924866
vt 0.912109 0.907043
vt 0.239746 0.907043
vt 0.238770 0.901489
vt 0.912109 0.901489
vt 0.917480 0.912598
vt 0.915527 0.240234
vt 0.912109 0.912598
vt 0.909668 0.240234
vt 0.909668 0.234375
vt 0.215454 0.912598
vt 0.217773 0.233887
vt 0.218018 0.239746
vt 0.209961 0.912598
vt 0.212280 0.239746
vt 0.262451 0.851074
vt 0.256592 0.851074
vt 0.250732 0.875000
vt 0.256348 0.875000
vt 0.241089 0.896362
vt 0.869629 0.851074
vt 0.247437 0.896057
vt 0.875488 0.875000
vt 0.875488 0.851074
vt 0.884277 0.896057
vt 0.880859 0.875000
vt 0.890625 0.896362
vt 0.909668 0.924866
vt 0.915527 0.924805
vt 0.916016 0.907043
vt 0.910645 0.907043
vt 0.913086 0.901489
vt 0.217773 0.925659
vt 0.215210 0.901489
vt 0.217285 0.907043
vt 0.212280 0.925659
vt 0.211548 0.907043
vt 0.086548 0.239258
vt 0.087585 0.912598
vt 0.103027 0.912598
vt 0.110840 0.912598
vt 0.109131 0.276367
vt 0.103699 0.264648
vt 0.115295 0.270508
vt 0.784668 0.237793
vt 0.752441 0.266602
vt 0.764648 0.260742
vt 0.784180 0.912598
vt 0.758789 0.271973
vt 0.772949 0.912598
vt 0.765137 0.912598
vt 0.749512 0.912292
vt 0.743164 0.281738
vt 0.742676 0.912231
vt 0.736328 0.282715
vt 0.737305 0.276367
vt 0.130005 0.281250
vt 0.131226 0.287598
vt 0.133545 0.912231
vt 0.124329 0.286621
vt 0.126587 0.912292
s 1
usemtl MASTER_Concrete_Grooved
f 1/1/1 2/2/2 3/3/3
f 4/4/4 1/1/1 3/3/3
f 4/4/4 3/3/3 5/5/5
f 6/6/6 4/4/4 5/5/5
f 7/7/7 8/8/8 9/9/9
f 10/10/10 7/7/7 9/9/9
f 10/10/10 9/9/9 11/11/11
f 12/12/12 10/10/10 11/11/11
f 13/1/1 14/2/2 15/3/3
f 16/4/4 13/1/1 15/3/3
f 16/4/4 15/3/3 17/5/5
f 18/6/13 16/4/4 17/5/5
f 19/7/14 20/8/8 21/9/15
f 22/10/10 19/7/14 21/9/15
f 22/10/10 21/9/15 23/11/16
f 24/12/12 22/10/10 23/11/16
f 25/1/1 26/2/17 27/3/3
f 28/4/4 25/1/1 27/3/3
f 28/4/4 27/3/3 29/5/5
f 30/6/6 28/4/4 29/5/5
f 31/7/14 32/8/8 33/9/9
f 34/10/18 31/7/14 33/9/9
f 34/10/18 33/9/9 35/11/11
f 36/12/19 34/10/18 35/11/11
f 37/13/20 38/14/21 39/15/22
f 40/16/23 37/13/20 39/15/22
f 41/17/24 37/13/20 40/16/23
f 42/18/25 41/17/24 40/16/23
f 43/19/26 41/17/24 42/18/25
f 44/20/27 43/19/26 42/18/25
f 45/21/28 42/18/25 40/16/23
f 42/18/25 45/21/28 44/22/27
f 39/23/22 46/24/28 40/16/23
f 46/24/28 45/21/28 40/16/23
f 46/24/28 39/25/22 47/26/29
f 48/27/30 46/24/28 47/26/29
f 45/21/28 46/24/28 48/27/30
f 49/28/30 45/21/28 48/27/30
f 45/21/28 49/28/30 44/29/27
f 49/28/30 50/30/31 44/29/27
f 49/28/30 48/27/30 51/31/32
f 49/28/30 51/31/32 50/32/31
f 48/27/30 47/33/29 52/34/33
f 48/27/30 52/34/33 51/31/32
f 47/35/29 53/36/34 52/34/33
f 53/36/34 54/37/35 52/34/33
f 52/34/33 54/37/35 51/31/32
f 54/37/35 55/38/35 51/31/32
f 51/31/32 55/38/35 50/39/31
f 55/38/35 56/40/36 50/39/31
f 55/38/35 54/37/35 57/41/37
f 56/42/36 55/38/35 57/41/37
f 54/37/35 53/43/34 58/44/37
f 54/37/35 58/44/37 57/41/37
f 53/45/34 38/46/21 58/44/37
f 38/46/21 59/47/38 58/44/37
f 58/44/37 59/47/38 57/41/37
f 38/48/21 37/49/20 59/47/38
f 37/49/20 41/50/24 59/47/38
f 59/47/38 60/51/38 57/41/37
f 41/50/24 60/51/38 59/47/38
f 41/50/24 43/52/26 60/51/38
f 56/53/36 57/41/37 60/51/38
f 43/54/26 56/53/36 60/51/38
f 61/55/39 62/56/40 63/57/41
f 64/58/32 61/55/39 63/57/41
f 65/59/42 61/55/39 64/58/32
f 66/60/32 65/59/42 64/58/32
f 65/59/42 66/60/32 67/61/43
f 66/60/32 68/62/44 67/61/43
f 69/63/45 66/60/32 64/58/32
f 66/60/32 69/63/45 68/64/44
f 63/65/41 70/66/46 64/58/32
f 70/66/46 69/63/45 64/58/32
f 70/66/46 63/67/41 71/68/47
f 72/69/48 70/66/46 71/68/47
f 70/66/46 72/69/48 69/63/45
f 72/69/48 73/70/49 69/63/45
f 69/63/45 73/70/49 68/71/44
f 73/70/49 74/72/50 68/71/44
f 73/70/49 72/69/48 75/73/51
f 73/70/49 75/73/51 74/74/50
f 72/69/48 71/75/47 76/76/51
f 72/69/48 76/76/51 75/73/51
f 71/77/47 77/78/52 76/76/51
f 77/78/52 78/79/53 76/76/51
f 76/76/51 78/79/53 75/73/51
f 78/79/53 79/80/54 75/73/51
f 75/73/51 79/80/54 74/81/50
f 79/80/54 80/82/55 74/81/50
f 81/83/56 82/84/57 83/85/58
f 84/86/59 81/83/56 83/85/58
f 84/86/59 83/85/58 85/87/60
f 83/85/58 86/88/61 85/87/60
f 87/89/62 88/90/63 89/91/64
f 90/92/64 87/89/62 89/91/64
f 90/92/64 89/91/64 91/93/65
f 89/91/64 92/94/66 91/93/65
f 93/83/56 94/84/57 95/85/58
f 96/86/59 93/83/56 95/85/58
f 96/86/59 95/85/58 97/87/60
f 95/85/58 98/88/67 97/87/60
f 99/89/62 100/90/63 101/91/64
f 102/92/68 99/89/62 101/91/64
f 102/92/68 101/91/64 103/93/65
f 101/91/64 104/94/66 103/93/65
f 105/83/56 106/84/57 107/85/58
f 108/86/59 105/83/56 107/85/58
f 108/86/59 107/85/58 109/87/60
f 107/85/58 110/88/67 109/87/60
f 111/89/69 112/90/63 113/91/64
f 114/92/64 111/89/69 113/91/64
f 114/92/64 113/91/64 115/93/70
f 113/91/64 116/94/66 115/93/70
f 88/95/63 87/96/62 117/97/71
f 87/96/62 118/98/72 117/97/71
f 118/98/72 87/96/62 119/99/73
f 117/97/71 118/98/72 120/100/74
f 118/98/72 119/99/73 121/101/75
f 118/98/72 122/102/76 120/100/74
f 122/102/76 118/98/72 121/101/75
f 81/103/56 120/100/74 122/102/76
f 82/104/57 122/102/76 121/101/75
f 82/104/57 81/103/56 122/102/76
f 123/105/77 1/106/1 4/107/4
f 124/108/78 123/105/77 4/107/4
f 4/107/4 6/109/6 124/108/78
f 125/110/79 123/105/77 124/108/78
f 6/109/6 126/111/80 124/108/78
f 127/112/81 125/110/79 124/108/78
f 127/112/81 124/108/78 126/111/80
f 8/113/8 125/110/79 127/112/81
f 128/114/82 127/112/81 126/111/80
f 9/115/9 8/113/8 127/112/81
f 127/112/81 128/114/82 9/115/9
f 128/114/82 11/116/11 9/115/9
f 119/117/73 87/118/62 90/119/64
f 129/120/83 119/117/73 90/119/64
f 90/119/64 91/121/65 129/120/83
f 121/122/75 119/117/73 129/120/83
f 129/120/83 91/121/65 86/123/61
f 130/124/84 121/122/75 129/120/83
f 130/124/84 129/120/83 86/123/61
f 82/125/57 121/122/75 130/124/84
f 86/123/61 83/126/58 130/124/84
f 83/126/58 82/125/57 130/124/84
f 100/95/63 99/96/62 131/97/85
f 99/96/62 132/98/72 131/97/85
f 132/98/72 99/96/62 133/99/73
f 131/97/85 132/98/72 134/100/74
f 132/98/72 133/99/73 135/101/75
f 132/98/72 136/102/86 134/100/74
f 136/102/86 132/98/72 135/101/75
f 93/103/56 134/100/74 136/102/86
f 94/104/57 136/102/86 135/101/75
f 94/104/57 93/103/56 136/102/86
f 137/105/87 13/106/1 16/107/4
f 138/108/78 137/105/87 16/107/4
f 16/107/4 18/109/13 138/108/78
f 139/110/88 137/105/87 138/108/78
f 18/109/13 140/111/80 138/108/78
f 141/112/81 139/110/88 138/108/78
f 141/112/81 138/108/78 140/111/80
f 20/113/8 139/110/88 141/112/81
f 142/114/82 141/112/81 140/111/80
f 21/115/15 20/113/8 141/112/81
f 141/112/81 142/114/82 21/115/15
f 142/114/82 23/116/16 21/115/15
f 133/117/73 99/118/62 102/119/68
f 143/120/83 133/117/73 102/119/68
f 102/119/68 103/121/65 143/120/83
f 135/122/75 133/117/73 143/120/83
f 143/120/83 103/121/65 98/123/67
f 144/124/89 135/122/75 143/120/83
f 144/124/89 143/120/83 98/123/67
f 94/125/57 135/122/75 144/124/89
f 98/123/67 95/126/58 144/124/89
f 95/126/58 94/125/57 144/124/89
f 112/95/63 111/96/69 145/97/85
f 111/96/69 146/98/90 145/97/85
f 146/98/90 111/96/69 147/99/73
f 145/97/85 146/98/90 148/100/74
f 146/98/90 147/99/73 149/101/75
f 146/98/90 150/102/91 148/100/74
f 150/102/91 146/98/90 149/101/75
f 105/103/56 148/100/74 150/102/91
f 106/104/57 150/102/91 149/101/75
f 106/104/57 105/103/56 150/102/91
f 151/105/77 25/106/1 28/107/4
f 152/108/78 151/105/77 28/107/4
f 28/107/4 30/109/6 152/108/78
f 153/110/79 151/105/77 152/108/78
f 30/109/6 154/111/80 152/108/78
f 155/112/81 153/110/79 152/108/78
f 155/112/81 152/108/78 154/111/80
f 32/113/8 153/110/79 155/112/81
f 156/114/82 155/112/81 154/111/80
f 33/115/9 32/113/8 155/112/81
f 155/112/81 156/114/82 33/115/9
f 156/114/82 35/116/11 33/115/9
f 147/117/73 111/118/69 114/119/64
f 157/120/83 147/117/73 114/119/64
f 114/119/64 115/121/70 157/120/83
f 149/122/75 147/117/73 157/120/83
f 157/120/83 115/121/70 110/123/67
f 158/124/92 149/122/75 157/120/83
f 158/124/92 157/120/83 110/123/67
f 106/125/57 149/122/75 158/124/92
f 110/123/67 107/126/58 158/124/92
f 107/126/58 106/125/57 158/124/92
f 91/127/65 92/128/66 159/129/93
f 159/129/93 12/130/12 11/131/11
f 160/132/94 91/127/65 159/129/93
f 160/132/94 159/129/93 11/131/11
f 160/132/94 11/131/11 128/133/82
f 86/134/61 91/127/65 160/132/94
f 160/132/94 128/133/82 126/135/80
f 161/136/95 86/134/61 160/132/94
f 161/136/95 160/132/94 126/135/80
f 85/137/60 86/134/61 161/136/95
f 6/138/6 161/136/95 126/135/80
f 162/139/96 85/137/60 161/136/95
f 161/136/95 6/138/6 5/140/5
f 162/139/96 161/136/95 5/140/5
f 2/141/2 1/142/1 163/143/97
f 1/142/1 164/144/98 163/143/97
f 1/142/1 123/145/77 164/144/98
f 164/144/98 123/145/77 125/146/79
f 163/143/97 164/144/98 165/147/99
f 165/147/99 164/144/98 125/146/79
f 166/148/100 163/143/97 165/147/99
f 125/146/79 8/149/8 165/147/99
f 7/150/7 166/148/100 165/147/99
f 8/149/8 7/150/7 165/147/99
f 103/127/65 104/128/66 167/129/101
f 167/129/101 24/130/12 23/131/16
f 168/132/102 103/127/65 167/129/101
f 168/132/102 167/129/101 23/131/16
f 168/132/102 23/131/16 142/133/82
f 98/134/67 103/127/65 168/132/102
f 168/132/102 142/133/82 140/135/80
f 169/136/95 98/134/67 168/132/102
f 169/136/95 168/132/102 140/135/80
f 97/137/60 98/134/67 169/136/95
f 18/138/13 169/136/95 140/135/80
f 170/139/96 97/137/60 169/136/95
f 169/136/95 18/138/13 17/140/5
f 170/139/96 169/136/95 17/140/5
f 14/141/2 13/142/1 171/143/97
f 13/142/1 172/144/98 171/143/97
f 13/142/1 137/145/87 172/144/98
f 172/144/98 137/145/87 139/146/88
f 171/143/97 172/144/98 173/147/99
f 173/147/99 172/144/98 139/146/88
f 174/148/103 171/143/97 173/147/99
f 139/146/88 20/149/8 173/147/99
f 19/150/14 174/148/103 173/147/99
f 20/149/8 19/150/14 173/147/99
f 115/127/70 116/128/66 175/129/101
f 175/129/101 36/130/19 35/131/11
f 176/132/94 115/127/70 175/129/101
f 176/132/94 175/129/101 35/131/11
f 176/132/94 35/131/11 156/133/82
f 110/134/67 115/127/70 176/132/94
f 176/132/94 156/133/82 154/135/80
f 177/136/95 110/134/67 176/132/94
f 177/136/95 176/132/94 154/135/80
f 109/137/60 110/134/67 177/136/95
f 30/138/6 177/136/95 154/135/80
f 178/139/104 109/137/60 177/136/95
f 177/136/95 30/138/6 29/140/5
f 178/139/104 177/136/95 29/140/5
f 26/141/17 25/142/1 179/143/97
f 25/142/1 180/144/105 179/143/97
f 25/142/1 151/145/77 180/144/105
f 180/144/105 151/145/77 153/146/79
f 179/143/97 180/144/105 181/147/99
f 181/147/99 180/144/105 153/146/79
f 182/148/103 179/143/97 181/147/99
f 153/146/79 32/149/8 181/147/99
f 31/150/14 182/148/103 181/147/99
f 32/149/8 31/150/14 181/147/99
