# Blender 3.6.18
# www.blender.org
mtllib Mesh.1112.mtl
o Bistro_Research_Exterior_Paris_Building_01_paris_buildi_0e733c8
v 1.738775 17.321846 -5.661497
v 3.716091 17.321846 -0.612103
v 5.398683 17.321846 -7.257185
v 7.439001 17.321846 -2.027974
v 1.738869 22.595999 -5.661293
v 5.398685 22.595999 -7.257185
v 7.439005 22.595999 -2.027970
v 3.718004 22.595999 -0.612265
v 3.112096 17.770550 -2.147479
v 2.473352 17.770552 -3.750669
v 2.473351 20.884792 -3.750672
v 3.112095 20.884794 -2.147480
vn -0.0039 1.0000 -0.0039
vn 0.3977 -0.0039 0.9175
vn -0.9345 -0.0039 0.3558
vn -0.9345 -0.0039 0.3559
vn -0.3558 -0.0039 -0.9345
vn -0.0039 -1.0000 -0.0039
vn 0.9281 0.0117 -0.3720
vn 0.9281 0.0118 -0.3720
vn 0.9309 -0.0039 -0.3653
vn 0.9289 -0.0086 -0.3701
vn 0.9287 -0.0099 -0.3706
vn 0.9280 -0.0097 -0.3725
vn 0.9281 -0.0072 -0.3724
vn 0.9282 -0.0039 -0.3720
vn 0.9282 -0.0039 -0.3721
vt 1.284180 -1.265625
vt 1.275391 1.917480
vt -0.045929 -0.849609
vt 0.012764 1.215088
vt 1.558594 0.967773
vt 0.166870 0.967773
vt 1.558594 -0.682617
vt 0.166870 -0.682617
vt 1.024414 -1.505859
vt 1.024414 0.568359
vt -0.739746 -1.505859
vt -0.739746 0.568359
vt 1.024414 1.771484
vt -0.739746 1.771484
vt 1.039062 -0.877930
vt 1.056641 1.187134
vt -0.305908 -1.244141
vt -0.177612 1.936523
vt 0.912109 -0.746094
vt 0.912109 2.319336
vt 0.766113 0.448242
vt 0.766113 0.966797
vt -0.800781 2.319336
vt -0.244995 0.966797
vt -0.800781 -0.746094
vt -0.244995 0.448242
s 1
usemtl MASTER_Concrete_Smooth
f 1/1/1 2/2/1 3/3/1
f 2/2/1 4/4/1 3/3/1
f 1/5/2 3/6/2 5/7/2
f 3/6/2 6/8/2 5/7/2
f 3/9/3 4/10/4 6/11/3
f 4/10/4 7/12/4 6/11/3
f 4/10/5 2/13/5 7/12/5
f 2/13/5 8/14/5 7/12/5
f 6/15/6 7/16/6 5/17/6
f 7/16/6 8/18/6 5/17/6
f 2/19/7 1/20/7 9/21/7
f 1/20/8 10/22/8 9/21/8
f 1/20/9 5/23/9 10/22/9
f 5/23/10 11/24/11 10/22/9
f 5/23/10 8/25/12 11/24/11
f 8/25/12 12/26/13 11/24/11
f 8/25/12 2/19/14 12/26/13
f 2/19/14 9/21/15 12/26/13
