# Blender 3.6.18
# www.blender.org
mtllib Mesh.624.mtl
o Bistro_Research_Exterior_paris_building_05_68__5297
v 41.274666 5.106280 17.348782
v 40.437138 5.106280 17.015078
v 41.274670 2.230999 17.348782
v 40.437138 2.230999 17.015076
v 42.138035 2.230999 17.692780
v 42.138031 5.106280 17.692781
v 41.295601 2.230999 17.357121
v 41.295593 5.106280 17.357122
v 36.808037 5.106280 15.549583
v 35.970505 5.106280 15.215878
v 36.808037 2.230999 15.549582
v 35.970505 2.230999 15.215875
v 37.671402 2.230999 15.893583
v 37.671402 5.106280 15.893587
v 36.828968 2.230999 15.557920
v 36.828968 5.106280 15.557922
v 36.808037 11.839619 15.549583
v 35.970505 11.839619 15.215878
v 36.808037 8.964338 15.549583
v 35.970505 8.964338 15.215876
v 37.671402 8.964338 15.893585
v 37.671402 11.839619 15.893587
v 36.828968 8.964338 15.557922
v 36.828968 11.839619 15.557923
v 41.274666 11.839619 17.348782
v 40.437138 11.839619 17.015078
v 41.274670 8.964338 17.348782
v 40.437138 8.964338 17.015076
v 42.138035 8.964338 17.692780
v 42.138031 11.839619 17.692781
v 41.295601 8.964338 17.357121
v 41.295593 11.839619 17.357122
v 36.808037 17.066967 15.549584
v 35.970505 17.066967 15.215878
v 36.808037 14.191689 15.549584
v 35.970505 14.191689 15.215877
v 37.671402 14.191689 15.893586
v 37.671402 17.066967 15.893588
v 36.828968 14.191689 15.557922
v 36.828968 17.066967 15.557923
v 41.274666 17.066967 17.348782
v 40.437138 17.066967 17.015078
v 41.274670 14.191689 17.348782
v 40.437138 14.191689 17.015076
v 42.138035 14.191689 17.692780
v 42.138031 17.066967 17.692781
v 41.295593 14.191689 17.357121
v 41.295593 17.066967 17.357122
v 36.808037 22.561028 15.549584
v 35.970505 22.561028 15.215878
v 36.808037 19.685749 15.549584
v 35.970505 19.685749 15.215877
v 37.671402 19.685747 15.893586
v 37.671402 22.561028 15.893588
v 36.828968 19.685749 15.557922
v 36.828968 22.561028 15.557923
v 41.274666 22.561028 17.348782
v 40.437138 22.561028 17.015078
v 41.274670 19.685749 17.348782
v 40.437138 19.685749 17.015076
v 42.138035 19.685747 17.692780
v 42.138031 22.561028 17.692781
v 41.295593 19.685749 17.357122
v 41.295593 22.561028 17.357122
v 50.243515 11.839619 20.961512
v 49.405987 11.839619 20.627806
v 50.243515 8.964338 20.961512
v 49.405987 8.964338 20.627804
v 51.106876 8.964338 21.305511
v 51.106876 11.839619 21.305511
v 50.264442 8.964338 20.969849
v 50.264442 11.839619 20.969851
v 54.593803 11.839619 22.713844
v 53.756275 11.839619 22.380140
v 54.593803 8.964338 22.713844
v 53.756275 8.964338 22.380140
v 55.457172 8.964338 23.057844
v 55.457169 11.839619 23.057844
v 54.614735 8.964338 22.722183
v 54.614735 11.839619 22.722185
v 50.234360 17.066967 20.957823
v 49.396832 17.066967 20.624119
v 50.234360 14.191689 20.957823
v 49.396832 14.191689 20.624117
v 51.097725 14.191689 21.301823
v 51.097725 17.066967 21.301823
v 50.255287 14.191689 20.966162
v 50.255287 17.066967 20.966164
v 54.593803 17.066967 22.713844
v 53.756275 17.066967 22.380140
v 54.593803 14.191688 22.713844
v 53.756275 14.191689 22.380140
v 55.457172 14.191688 23.057844
v 55.457169 17.066967 23.057844
v 54.614735 14.191688 22.722183
v 54.614735 17.066967 22.722185
v 50.233784 22.561028 20.957590
v 49.396255 22.561028 20.623884
v 50.233784 19.685749 20.957590
v 49.396255 19.685749 20.623884
v 51.097141 19.685747 21.301588
v 51.097141 22.561028 21.301590
v 50.254711 19.685749 20.965929
v 50.254711 22.561028 20.965929
v 54.593803 22.561028 22.713844
v 53.756275 22.561028 22.380140
v 54.593803 19.685749 22.713844
v 53.756275 19.685749 22.380140
v 55.457172 19.685747 23.057844
v 55.457169 22.561028 23.057844
v 54.614735 19.685749 22.722185
v 54.614735 22.561028 22.722185
v 45.625038 22.423817 19.561686
v 44.787510 22.423817 19.227982
v 45.625038 19.548538 19.561686
v 44.787510 19.548538 19.227980
v 46.488400 19.548536 19.905687
v 46.488400 22.423817 19.905687
v 45.645962 19.548538 19.570026
v 45.645966 22.423817 19.570026
v 45.625038 16.945337 19.561686
v 44.787510 16.945337 19.227982
v 45.625038 14.070056 19.561686
v 44.787510 14.070056 19.227980
v 46.488400 14.070055 19.905687
v 46.488400 16.945337 19.905687
v 45.645962 14.070056 19.570026
v 45.645966 16.945337 19.570026
v 45.625038 11.821980 19.561686
v 44.787510 11.821980 19.227982
v 45.625038 8.946700 19.561686
v 44.787510 8.946700 19.227980
v 46.488400 8.946699 19.905687
v 46.488400 11.821980 19.905687
v 45.645962 8.946700 19.570026
v 45.645966 11.821980 19.570026
vn -0.3748 -0.0039 0.9271
vt 0.497803 0.988487
vt 0.251221 0.988487
vt 0.497803 0.225098
vt 0.251221 0.225098
vt 0.249146 0.225098
vt 0.249146 0.988487
vt 0.002602 0.225098
vt 0.002602 0.988487
s 1
usemtl MASTER_Curtains
f 1/1/1 2/2/1 3/3/1
f 2/2/1 4/4/1 3/3/1
f 5/5/1 6/6/1 7/7/1
f 6/6/1 8/8/1 7/7/1
f 9/1/1 10/2/1 11/3/1
f 10/2/1 12/4/1 11/3/1
f 13/5/1 14/6/1 15/7/1
f 14/6/1 16/8/1 15/7/1
f 17/1/1 18/2/1 19/3/1
f 18/2/1 20/4/1 19/3/1
f 21/5/1 22/6/1 23/7/1
f 22/6/1 24/8/1 23/7/1
f 25/1/1 26/2/1 27/3/1
f 26/2/1 28/4/1 27/3/1
f 29/5/1 30/6/1 31/7/1
f 30/6/1 32/8/1 31/7/1
f 33/1/1 34/2/1 35/3/1
f 34/2/1 36/4/1 35/3/1
f 37/5/1 38/6/1 39/7/1
f 38/6/1 40/8/1 39/7/1
f 41/1/1 42/2/1 43/3/1
f 42/2/1 44/4/1 43/3/1
f 45/5/1 46/6/1 47/7/1
f 46/6/1 48/8/1 47/7/1
f 49/1/1 50/2/1 51/3/1
f 50/2/1 52/4/1 51/3/1
f 53/5/1 54/6/1 55/7/1
f 54/6/1 56/8/1 55/7/1
f 57/1/1 58/2/1 59/3/1
f 58/2/1 60/4/1 59/3/1
f 61/5/1 62/6/1 63/7/1
f 62/6/1 64/8/1 63/7/1
f 65/1/1 66/2/1 67/3/1
f 66/2/1 68/4/1 67/3/1
f 69/5/1 70/6/1 71/7/1
f 70/6/1 72/8/1 71/7/1
f 73/1/1 74/2/1 75/3/1
f 74/2/1 76/4/1 75/3/1
f 77/5/1 78/6/1 79/7/1
f 78/6/1 80/8/1 79/7/1
f 81/1/1 82/2/1 83/3/1
f 82/2/1 84/4/1 83/3/1
f 85/5/1 86/6/1 87/7/1
f 86/6/1 88/8/1 87/7/1
f 89/1/1 90/2/1 91/3/1
f 90/2/1 92/4/1 91/3/1
f 93/5/1 94/6/1 95/7/1
f 94/6/1 96/8/1 95/7/1
f 97/1/1 98/2/1 99/3/1
f 98/2/1 100/4/1 99/3/1
f 101/5/1 102/6/1 103/7/1
f 102/6/1 104/8/1 103/7/1
f 105/1/1 106/2/1 107/3/1
f 106/2/1 108/4/1 107/3/1
f 109/5/1 110/6/1 111/7/1
f 110/6/1 112/8/1 111/7/1
f 113/1/1 114/2/1 115/3/1
f 114/2/1 116/4/1 115/3/1
f 117/5/1 118/6/1 119/7/1
f 118/6/1 120/8/1 119/7/1
f 121/1/1 122/2/1 123/3/1
f 122/2/1 124/4/1 123/3/1
f 125/5/1 126/6/1 127/7/1
f 126/6/1 128/8/1 127/7/1
f 129/1/1 130/2/1 131/3/1
f 130/2/1 132/4/1 131/3/1
f 133/5/1 134/6/1 135/7/1
f 134/6/1 136/8/1 135/7/1
