# Blender 3.6.18
# www.blender.org
mtllib Mesh.148.mtl
o Bistro_Research_Exterior_Paris_Streetlight_Glass_01a_6313
v -6.843264 7.212401 -6.494577
v -6.750006 7.212401 -6.566874
v -6.792309 6.628956 -6.599002
v -6.863836 6.628956 -6.543553
v -6.960178 7.212401 -6.478594
v -6.953506 6.628956 -6.531295
v -7.069419 7.212401 -6.523210
v -7.037290 6.628956 -6.565514
v -7.141716 7.212401 -6.616469
v -7.092740 6.628956 -6.637040
v -7.157698 7.212401 -6.733382
v -7.104998 6.628956 -6.726709
v -7.113084 7.212401 -6.842623
v -7.070780 6.628956 -6.810493
v -7.019825 7.212401 -6.914921
v -6.999252 6.628956 -6.865944
v -6.902912 7.212401 -6.930903
v -6.909584 6.628956 -6.878201
v -6.793670 7.212401 -6.886287
v -6.825799 6.628956 -6.843983
v -6.721373 7.212401 -6.793029
v -6.770350 6.628956 -6.772456
v -6.705390 7.212401 -6.676115
v -6.758091 6.628956 -6.682788
v -6.810598 6.628956 -6.548737
v -6.776084 6.628956 -6.586679
v -6.728850 7.212401 -6.550807
v -6.773850 7.212401 -6.501334
v -6.832977 7.212401 -6.470083
v -6.855947 6.628956 -6.524768
v -6.904808 6.628956 -6.509164
v -6.896685 7.212401 -6.449739
v -6.963515 7.212401 -6.452239
v -6.956064 6.628956 -6.511082
v -7.006183 6.628956 -6.521999
v -7.028860 7.212401 -6.466474
v -7.085487 7.212401 -6.502055
v -7.049613 6.628956 -6.549288
v -7.087557 6.628956 -6.583802
v -7.134960 7.212401 -6.547054
v -7.166209 7.212401 -6.606181
v -7.111526 6.628956 -6.629150
v -7.127129 6.628956 -6.678012
v -7.186554 7.212401 -6.669889
v -7.184054 7.212401 -6.736719
v -7.125212 6.628956 -6.729269
v -7.114294 6.628956 -6.779386
v -7.169820 7.212401 -6.802064
v -7.134240 7.212401 -6.858690
v -7.087005 6.628956 -6.822817
v -7.052492 6.628956 -6.860761
v -7.089239 7.212401 -6.908163
v -7.030113 7.212401 -6.939414
v -7.007143 6.628956 -6.884729
v -6.958282 6.628956 -6.900333
v -6.966404 7.212401 -6.959759
v -6.899574 7.212401 -6.957258
v -6.907025 6.628956 -6.898416
v -6.856907 6.628956 -6.887497
v -6.834229 7.212401 -6.943023
v -6.777602 7.212401 -6.907443
v -6.813476 6.628956 -6.860209
v -6.775532 6.628956 -6.825696
v -6.728130 7.212401 -6.862443
v -6.696879 7.212401 -6.803316
v -6.751563 6.628956 -6.780346
v -6.735960 6.628956 -6.731485
v -6.676535 7.212401 -6.739609
v -6.679036 7.212401 -6.672779
v -6.737878 6.628956 -6.680228
v -6.748795 6.628956 -6.630110
v -6.693270 7.212401 -6.607434
vn -0.3867 0.0898 -0.9178
vn -0.7916 0.0897 -0.6044
vn 0.1211 0.0899 -0.9886
vn 0.5994 0.0901 -0.7953
vn 0.9166 0.0905 -0.3894
vn 0.9884 0.0906 0.1221
vn 0.7924 0.0907 0.6032
vn 0.7925 0.0907 0.6031
vn 0.3828 0.0908 0.9194
vn -0.1298 0.0905 0.9874
vn -0.6082 0.0902 0.7887
vn -0.9206 0.0901 0.3800
vn -0.9876 0.0898 -0.1288
vn 0.6110 -0.1064 0.7844
vn 0.7912 -0.1063 0.6023
vn 0.3822 -0.1064 0.9180
vn 0.3821 -0.1064 0.9180
vn 0.1296 -0.1061 0.9859
vn -0.1296 -0.1061 0.9859
vn -0.3822 -0.1064 0.9180
vn -0.3821 -0.1064 0.9180
vn -0.6072 -0.1058 0.7874
vn -0.6073 -0.1058 0.7874
vn -0.7875 -0.1058 0.6072
vn -0.9192 -0.1056 0.3794
vn -0.9861 -0.1052 0.1286
vn -0.9861 -0.1052 -0.1286
vn -0.9192 -0.1056 -0.3794
vn -0.7904 -0.1051 -0.6035
vn -0.6121 -0.1053 -0.7837
vn -0.6122 -0.1053 -0.7837
vn -0.3861 -0.1053 -0.9164
vn -0.1363 -0.1051 -0.9851
vn 0.1210 -0.1053 -0.9871
vn 0.1209 -0.1053 -0.9871
vn 0.3727 -0.1059 -0.9219
vn 0.5985 -0.1056 -0.7941
vn 0.7807 -0.1059 -0.6159
vn 0.9152 -0.1060 -0.3888
vn 0.9152 -0.1061 -0.3889
vn 0.9848 -0.1059 -0.1373
vn 0.9869 -0.1062 0.1219
vn 0.9207 -0.1067 0.3754
vt 0.092773 0.097168
vt 0.016220 0.097168
vt 0.016220 0.904419
vt 0.092773 0.904419
vt 0.172852 0.097168
vt 0.172852 0.904419
vt 0.252930 0.097168
vt 0.252930 0.904419
vt 0.333008 0.097168
vt 0.333008 0.904419
vt 0.413086 0.097168
vt 0.413086 0.904419
vt 0.493164 0.097168
vt 0.493164 0.904419
vt 0.573242 0.097168
vt 0.573242 0.904419
vt 0.653320 0.097168
vt 0.653320 0.904419
vt 0.733398 0.097168
vt 0.733398 0.904419
vt 0.813477 0.097168
vt 0.813477 0.904419
vt 0.893555 0.097168
vt 0.893555 0.904419
vt 0.984375 0.097168
vt 0.984375 0.904419
vt 0.054504 0.904419
vt 0.054504 0.097168
vt 0.132812 0.904419
vt 0.132812 0.097168
vt 0.212891 0.904419
vt 0.212891 0.097168
vt 0.292969 0.904419
vt 0.292969 0.097168
vt 0.373047 0.904419
vt 0.373047 0.097168
vt 0.453125 0.904419
vt 0.453125 0.097168
vt 0.533203 0.904419
vt 0.533203 0.097168
vt 0.613281 0.904419
vt 0.613281 0.097168
vt 0.693359 0.904419
vt 0.693359 0.097168
vt 0.773438 0.904419
vt 0.773438 0.097168
vt 0.853516 0.904419
vt 0.853516 0.097168
vt 0.938965 0.904419
vt 0.938965 0.097168
s 1
usemtl Emissive_StreetLight
f 1/1/1 2/2/2 3/3/2
f 3/3/2 4/4/1 1/1/1
f 5/5/3 1/1/1 4/4/1
f 4/4/1 6/6/3 5/5/3
f 7/7/4 5/5/3 6/6/3
f 6/6/3 8/8/4 7/7/4
f 9/9/5 7/7/4 8/8/4
f 8/8/4 10/10/5 9/9/5
f 11/11/6 9/9/5 10/10/5
f 10/10/5 12/12/6 11/11/6
f 13/13/7 11/11/6 12/12/6
f 12/12/6 14/14/8 13/13/7
f 15/15/9 13/13/7 14/14/8
f 14/14/8 16/16/9 15/15/9
f 17/17/10 15/15/9 16/16/9
f 16/16/9 18/18/10 17/17/10
f 19/19/11 17/17/10 18/18/10
f 18/18/10 20/20/11 19/19/11
f 21/21/12 19/19/11 20/20/11
f 20/20/11 22/22/12 21/21/12
f 23/23/13 21/21/12 22/22/12
f 22/22/12 24/24/13 23/23/13
f 2/25/2 23/23/13 24/24/13
f 24/24/13 3/26/2 2/25/2
f 25/27/14 26/3/15 27/2/15
f 27/2/15 28/28/14 25/27/14
f 25/27/14 28/28/14 29/1/16
f 29/1/16 30/4/17 25/27/14
f 31/29/18 30/4/17 29/1/16
f 29/1/16 32/30/18 31/29/18
f 31/29/18 32/30/18 33/5/19
f 33/5/19 34/6/19 31/29/18
f 35/31/20 34/6/19 33/5/19
f 33/5/19 36/32/21 35/31/20
f 35/31/20 36/32/21 37/7/22
f 37/7/22 38/8/23 35/31/20
f 39/33/24 38/8/23 37/7/22
f 37/7/22 40/34/24 39/33/24
f 39/33/24 40/34/24 41/9/25
f 41/9/25 42/10/25 39/33/24
f 43/35/26 42/10/25 41/9/25
f 41/9/25 44/36/26 43/35/26
f 43/35/26 44/36/26 45/11/27
f 45/11/27 46/12/27 43/35/26
f 47/37/28 46/12/27 45/11/27
f 45/11/27 48/38/28 47/37/28
f 47/37/28 48/38/28 49/13/29
f 49/13/29 50/14/29 47/37/28
f 51/39/30 50/14/29 49/13/29
f 49/13/29 52/40/31 51/39/30
f 51/39/30 52/40/31 53/15/32
f 53/15/32 54/16/32 51/39/30
f 55/41/33 54/16/32 53/15/32
f 53/15/32 56/42/33 55/41/33
f 55/41/33 56/42/33 57/17/34
f 57/17/34 58/18/35 55/41/33
f 59/43/36 58/18/35 57/17/34
f 57/17/34 60/44/36 59/43/36
f 59/43/36 60/44/36 61/19/37
f 61/19/37 62/20/37 59/43/36
f 63/45/38 62/20/37 61/19/37
f 61/19/37 64/46/38 63/45/38
f 63/45/38 64/46/38 65/21/39
f 65/21/39 66/22/40 63/45/38
f 67/47/41 66/22/40 65/21/39
f 65/21/39 68/48/41 67/47/41
f 67/47/41 68/48/41 69/23/42
f 69/23/42 70/24/42 67/47/41
f 71/49/43 70/24/42 69/23/42
f 69/23/42 72/50/43 71/49/43
f 71/49/43 72/50/43 27/25/15
f 27/25/15 26/26/15 71/49/43
