# Blender 3.6.18
# www.blender.org
mtllib Mesh.842.mtl
o Bistro_Research_Exterior_Paris_Building_01_paris_buildi_a82c157
v -1.824149 3.922106 -2.827997
v -1.913801 3.922106 -2.786639
v -1.913801 0.623139 -2.786644
v -1.824150 0.623139 -2.828001
v -0.602660 3.922105 -0.263773
v -0.602660 0.623139 -0.263773
v -0.692508 0.623139 -0.222828
v -0.692508 3.922105 -0.222824
v -1.205818 4.674908 -1.549360
v -1.295571 4.674908 -1.508207
v -1.584919 4.674908 -2.106549
v -1.495267 4.674908 -2.147911
v -1.637889 4.670661 -2.216082
v -1.548237 4.670661 -2.257441
v -1.689911 4.653060 -2.323658
v -1.600259 4.653060 -2.365016
v -1.732146 4.630346 -2.411009
v -1.642501 4.630346 -2.452373
v -1.771641 4.590695 -2.492685
v -1.681998 4.590695 -2.534042
v -1.804802 4.547976 -2.561257
v -1.715150 4.547976 -2.602617
v -1.833107 4.490203 -2.619785
v -1.743454 4.490203 -2.661129
v -1.858347 4.425418 -2.671965
v -1.768695 4.425418 -2.713324
v -1.877010 4.349515 -2.710559
v -1.787360 4.349515 -2.751917
v -1.894332 4.259111 -2.746381
v -1.804682 4.259111 -2.787738
v -1.904255 4.162422 -2.766902
v -1.814605 4.162422 -2.808259
v -1.911946 4.043347 -2.782799
v -1.822294 4.043347 -2.824160
v -0.700333 0.623139 -0.201959
v -0.589437 0.502379 0.033768
v -0.589509 3.916581 0.033636
v -0.700343 3.922817 -0.201970
v -0.595208 4.058977 0.021494
v -0.702198 4.045300 -0.205923
v -0.709789 4.165635 -0.222101
v -0.600906 4.201372 0.009352
v -0.618868 4.326728 -0.028919
v -0.719706 4.264315 -0.243238
v -0.736949 4.356635 -0.280001
v -0.636829 4.452084 -0.067189
v -0.667969 4.554035 -0.133525
v -0.755697 4.434637 -0.319969
v -0.781001 4.501300 -0.373905
v -0.699111 4.655985 -0.199877
v -0.742561 4.729037 -0.292478
v -0.809410 4.560676 -0.434459
v -0.842651 4.604680 -0.505311
v -0.786021 4.802087 -0.385080
v -0.839460 4.844223 -0.498941
v -0.881996 4.645150 -0.589174
v -0.924050 4.668421 -0.678806
v -0.892898 4.886358 -0.612802
v -0.953603 4.899725 -0.742138
v -0.975332 4.686231 -0.788097
v -1.027531 4.690583 -0.899357
v -1.014306 4.913094 -0.871460
v -1.310068 4.913094 -1.501559
v -1.310067 4.690600 -1.501560
v -1.599711 4.690583 -2.100509
v -1.613042 4.913094 -2.128358
v -1.675233 4.899726 -2.257012
v -1.653223 4.686231 -2.211163
v -1.705788 4.668420 -2.319881
v -1.737415 4.886359 -2.385664
v -1.792166 4.844223 -2.498926
v -1.748901 4.645151 -2.409029
v -1.789234 4.604680 -2.492435
v -1.846919 4.802087 -2.612183
v -1.891449 4.729037 -2.704276
v -1.823313 4.560676 -2.562905
v -1.852438 4.501300 -2.623129
v -1.935979 4.655986 -2.796389
v -1.967886 4.554035 -2.862389
v -1.878378 4.434637 -2.676756
v -1.897603 4.356635 -2.716510
v -1.999792 4.452084 -2.928388
v -2.018197 4.326729 -2.966459
v -1.915286 4.264315 -2.753074
v -1.925452 4.165635 -2.774091
v -2.036598 4.201373 -3.004528
v -2.042434 4.058977 -3.016606
v -1.933233 4.045300 -2.790186
v -1.935134 3.922817 -2.794120
v -2.048270 3.916581 -3.028684
v -1.935138 0.623139 -2.794141
v -2.048333 0.502380 -3.028827
v -1.013320 4.674908 -0.906609
v -0.961652 4.670661 -0.796483
v -0.910906 4.653060 -0.688335
v -0.869699 4.630345 -0.600511
v -0.831173 4.590696 -0.518393
v -0.798824 4.547976 -0.449446
v -0.771213 4.490203 -0.390599
v -0.746597 4.425418 -0.338120
v -0.728396 4.349514 -0.299317
v -0.711499 4.259111 -0.263297
v -0.701820 4.162422 -0.242668
v -0.694317 4.043347 -0.226680
v -1.816525 0.623139 -2.848858
v -1.816522 3.922817 -2.848839
v -1.814620 4.045300 -2.844907
v -1.806839 4.165635 -2.828817
v -1.796673 4.264315 -2.807793
v -1.778991 4.356635 -2.771233
v -1.759765 4.434637 -2.731474
v -1.733824 4.501300 -2.677835
v -1.704704 4.560676 -2.617623
v -1.670629 4.604680 -2.547153
v -1.630296 4.645151 -2.463752
v -1.587184 4.668420 -2.374599
v -1.534609 4.686231 -2.265884
v -1.481098 4.690583 -2.155225
v -1.191322 4.690600 -1.556008
v -0.908655 4.690583 -0.953525
v -0.923472 4.674908 -0.947558
v -0.856458 4.686231 -0.842267
v -0.871802 4.670661 -0.837428
v -0.805175 4.668421 -0.732977
v -0.821056 4.653060 -0.729281
v -0.763121 4.645151 -0.643341
v -0.779849 4.630346 -0.641457
v -0.723786 4.604680 -0.559483
v -0.741328 4.590696 -0.559337
v -0.690545 4.560676 -0.488630
v -0.708984 4.547976 -0.490391
v -0.662135 4.501300 -0.428075
v -0.681375 4.490203 -0.431542
v -0.636831 4.434637 -0.374143
v -0.656753 4.425418 -0.379065
v -0.618078 4.356635 -0.334172
v -0.638548 4.349514 -0.340260
v -0.600831 4.264315 -0.297410
v -0.621650 4.259111 -0.304246
v -0.590915 4.165635 -0.276276
v -0.611971 4.162422 -0.283611
v -0.583324 4.045300 -0.260091
v -0.604470 4.043347 -0.267628
v -0.581469 3.922816 -0.256141
v -0.581460 0.623139 -0.256131
v -0.470630 3.916579 -0.020526
v -0.470560 0.502379 -0.020393
v -0.476329 4.058974 -0.032668
v -0.482028 4.201368 -0.044808
v -0.499989 4.326726 -0.083080
v -0.517952 4.452084 -0.121344
v -0.549092 4.554035 -0.187687
v -0.580232 4.655985 -0.254039
v -0.623691 4.729037 -0.346641
v -0.667151 4.802087 -0.439241
v -0.720587 4.844223 -0.553106
v -0.774017 4.886358 -0.666961
v -0.834722 4.899726 -0.796280
v -0.895428 4.913094 -0.925616
v -1.191323 4.913094 -1.556007
v -1.494434 4.913094 -2.183090
v -1.556624 4.899725 -2.311742
v -1.618817 4.886358 -2.440397
v -1.673567 4.844223 -2.553654
v -1.728311 4.802087 -2.666900
v -1.772841 4.729037 -2.759004
v -1.817371 4.655986 -2.851114
v -1.849278 4.554035 -2.917117
v -1.881184 4.452084 -2.983117
v -1.899588 4.326727 -3.021187
v -1.917990 4.201369 -3.059258
v -1.923829 4.058975 -3.071334
v -1.929669 3.916582 -3.083411
v -1.929729 0.502380 -3.083555
vn 0.4138 -0.0039 0.9104
vn 0.4138 -0.0040 0.9104
vn -0.4173 -0.0039 -0.9087
vn -0.0039 -1.0000 -0.0039
vn 0.0039 -0.9999 0.0117
vn 0.0352 -0.9966 0.0742
vn 0.0352 -0.9966 0.0743
vn 0.0744 -0.9829 0.1684
vn 0.1290 -0.9497 0.2853
vn 0.1289 -0.9497 0.2853
vn 0.1840 -0.8964 0.4032
vn 0.2391 -0.8192 0.5213
vn 0.2943 -0.7102 0.6396
vn 0.3350 -0.5872 0.7369
vn 0.3723 -0.4507 0.8113
vn 0.3970 -0.3183 0.8608
vn 0.4054 -0.1929 0.8935
vn 0.4147 -0.0988 0.9046
vn 0.4148 -0.0987 0.9046
vn 0.4135 -0.0354 0.9098
vn -0.9074 -0.0039 0.4203
vn -0.9044 -0.0039 0.4267
vn -0.9044 -0.0039 0.4268
vn -0.3351 -0.0039 0.9422
vn -0.3350 -0.0197 0.9420
vn -0.3343 -0.0669 0.9401
vn -0.3413 -0.1373 0.9299
vn -0.3497 -0.2319 0.9077
vn -0.3497 -0.2318 0.9077
vn -0.3649 -0.3178 0.8751
vn -0.3650 -0.3179 0.8751
vn -0.3885 -0.4199 0.8202
vn -0.4186 -0.5047 0.7550
vn -0.4584 -0.5838 0.6701
vn -0.4584 -0.5838 0.6700
vn -0.4985 -0.6398 0.5849
vn -0.5360 -0.6768 0.5047
vn -0.5761 -0.7015 0.4194
vn -0.5761 -0.7016 0.4194
vn -0.6076 -0.7096 0.3567
vn -0.6076 -0.7096 0.3568
vn -0.6284 -0.7142 0.3083
vn -0.6283 -0.7142 0.3083
vn -0.6360 -0.7140 0.2927
vn -0.6360 -0.7140 0.2926
vn -0.6420 -0.7121 0.2841
vn -0.6590 -0.7136 0.2379
vn -0.6602 -0.7149 0.2305
vn -0.6921 -0.7000 0.1760
vn -0.6931 -0.7009 0.1684
vn -0.7311 -0.6763 0.0899
vn -0.7666 -0.6421 0.0039
vn -0.8089 -0.5822 -0.0820
vn -0.8451 -0.5102 -0.1597
vn -0.8788 -0.4179 -0.2304
vn -0.9021 -0.3241 -0.2851
vn -0.9020 -0.3241 -0.2851
vn -0.9176 -0.2304 -0.3241
vn -0.9199 -0.2309 -0.3171
vn -0.9309 -0.1363 -0.3389
vn -0.9351 -0.0665 -0.3482
vn -0.9344 -0.0195 -0.3558
vn -0.9345 -0.0039 -0.3558
vn 0.9397 -0.0039 0.3421
vn 0.9395 -0.0196 0.3420
vn 0.9395 -0.0197 0.3420
vn 0.9401 -0.0669 0.3343
vn 0.9401 -0.0669 0.3344
vn 0.9348 -0.1381 0.3273
vn 0.9348 -0.1380 0.3274
vn 0.9243 -0.2321 0.3029
vn 0.9060 -0.3255 0.2706
vn 0.8801 -0.4223 0.2171
vn 0.8449 -0.5148 0.1454
vn 0.8071 -0.5866 0.0669
vn 0.7632 -0.6458 -0.0196
vn 0.7263 -0.6792 -0.1060
vn 0.6861 -0.7017 -0.1921
vn 0.6533 -0.7159 -0.2464
vn 0.6520 -0.7145 -0.2538
vn 0.6313 -0.7176 -0.2941
vn 0.6299 -0.7159 -0.3012
vn 0.6236 -0.7177 -0.3098
vn 0.6010 -0.7109 -0.3653
vn 0.6077 -0.7096 -0.3567
vn 0.5762 -0.7016 -0.4194
vn 0.5761 -0.7016 -0.4194
vn 0.5359 -0.6768 -0.5047
vn 0.5360 -0.6768 -0.5047
vn 0.4963 -0.6369 -0.5900
vn 0.4561 -0.5808 -0.6743
vn 0.4186 -0.5047 -0.7550
vn 0.3860 -0.4172 -0.8227
vn 0.3649 -0.3179 -0.8751
vn 0.3650 -0.3179 -0.8751
vn 0.3473 -0.2302 -0.9091
vn 0.3472 -0.2302 -0.9091
vn 0.3389 -0.1363 -0.9309
vn 0.3319 -0.0664 -0.9410
vn 0.3326 -0.0195 -0.9429
vn 0.3325 -0.0196 -0.9429
vn 0.3326 -0.0039 -0.9431
vn -0.0118 -0.9997 -0.0196
vn -0.0429 -0.9950 -0.0897
vn -0.0429 -0.9957 -0.0820
vn -0.0821 -0.9810 -0.1759
vn -0.1363 -0.9466 -0.2922
vn -0.1364 -0.9466 -0.2922
vn -0.1909 -0.8923 -0.4091
vn -0.2455 -0.8143 -0.5260
vn -0.2928 -0.7066 -0.6442
vn -0.2928 -0.7067 -0.6441
vn -0.3400 -0.5822 -0.7385
vn -0.3700 -0.4479 -0.8140
vn -0.3699 -0.4479 -0.8140
vn -0.3943 -0.3162 -0.8628
vn -0.3944 -0.3162 -0.8628
vn -0.4091 -0.1909 -0.8923
vn -0.4154 -0.0970 -0.9045
vn -0.4154 -0.0971 -0.9045
vn -0.4171 -0.0351 -0.9082
vn 0.9029 -0.0039 -0.4298
vn 0.9029 -0.0040 -0.4298
vn 0.8999 -0.0039 -0.4362
vn 0.8998 -0.0039 -0.4362
vn 0.8998 -0.0040 -0.4362
vn 0.8999 -0.0040 -0.4362
vn 0.8968 -0.0039 -0.4425
vt 0.639160 0.517822
vt 0.650879 0.517822
vt 0.650879 0.916321
vt 0.639160 0.916321
vt 0.667969 0.516846
vt 0.667969 0.915344
vt 0.656250 0.915344
vt 0.656250 0.516846
vt 0.474121 0.260254
vt 0.474121 0.245605
vt 0.573242 0.245605
vt 0.573242 0.260254
vt 0.591797 0.245605
vt 0.591797 0.260254
vt 0.609863 0.245605
vt 0.609863 0.260254
vt 0.624512 0.245605
vt 0.624512 0.260254
vt 0.639160 0.245605
vt 0.639160 0.260254
vt 0.652344 0.245605
vt 0.652344 0.260254
vt 0.665527 0.245605
vt 0.665527 0.260254
vt 0.678711 0.245605
vt 0.678711 0.260254
vt 0.691406 0.245605
vt 0.691406 0.260254
vt 0.706543 0.245605
vt 0.706543 0.260254
vt 0.721191 0.245605
vt 0.721191 0.260254
vt 0.739258 0.245605
vt 0.739258 0.260254
vt 0.757324 0.245605
vt 0.757324 0.260254
vt 0.928711 0.350586
vt 0.960449 0.350586
vt 0.960449 0.847656
vt 0.928711 0.846069
vt 0.958496 0.868774
vt 0.928223 0.864868
vt 0.925293 0.883301
vt 0.956543 0.889832
vt 0.950195 0.908508
vt 0.921875 0.898438
vt 0.915527 0.912659
vt 0.943848 0.927124
vt 0.933105 0.942261
vt 0.908691 0.924622
vt 0.899414 0.934875
vt 0.922363 0.957428
vt 0.907227 0.968292
vt 0.889160 0.943970
vt 0.877441 0.950714
vt 0.891602 0.979141
vt 0.873047 0.985405
vt 0.863281 0.956909
vt 0.848145 0.960480
vt 0.854492 0.991661
vt 0.833496 0.993649
vt 0.829590 0.963196
vt 0.810547 0.963867
vt 0.812012 0.995632
vt 0.706543 0.995632
vt 0.706543 0.963898
vt 0.600586 0.963867
vt 0.599121 0.995632
vt 0.578125 0.993649
vt 0.582031 0.963196
vt 0.563477 0.960480
vt 0.557129 0.991661
vt 0.538086 0.985405
vt 0.548340 0.956909
vt 0.534180 0.950714
vt 0.519531 0.979141
vt 0.504395 0.968292
vt 0.521973 0.943970
vt 0.511719 0.934875
vt 0.489258 0.957428
vt 0.478516 0.942291
vt 0.502930 0.924622
vt 0.496094 0.912659
vt 0.467773 0.927124
vt 0.461426 0.908508
vt 0.489990 0.898499
vt 0.486328 0.883362
vt 0.455078 0.889893
vt 0.453125 0.868774
vt 0.483643 0.864990
vt 0.482910 0.846069
vt 0.451172 0.847656
vt 0.482910 0.350586
vt 0.451172 0.350586
vt 0.487305 0.357910
vt 0.490479 0.357910
vt 0.490479 0.842773
vt 0.487061 0.843018
vt 0.490967 0.860962
vt 0.487793 0.861328
vt 0.493652 0.878723
vt 0.490479 0.879395
vt 0.497070 0.893127
vt 0.494141 0.894226
vt 0.502930 0.906616
vt 0.500000 0.908142
vt 0.509277 0.917908
vt 0.506836 0.919861
vt 0.518066 0.927490
vt 0.515625 0.929871
vt 0.527344 0.936096
vt 0.525391 0.938751
vt 0.539062 0.942413
vt 0.537109 0.945374
vt 0.552246 0.948303
vt 0.551270 0.951447
vt 0.566895 0.951691
vt 0.565918 0.954956
vt 0.584473 0.954315
vt 0.583984 0.957611
vt 0.602539 0.954956
vt 0.602539 0.958282
vt 0.707031 0.954926
vt 0.707031 0.958282
vt 0.809082 0.954956
vt 0.809082 0.958282
vt 0.827148 0.954285
vt 0.827637 0.957611
vt 0.844727 0.951691
vt 0.845703 0.954926
vt 0.859375 0.948273
vt 0.860352 0.951447
vt 0.872559 0.942413
vt 0.874023 0.945374
vt 0.884277 0.936096
vt 0.885742 0.938751
vt 0.893555 0.927490
vt 0.895996 0.929810
vt 0.902344 0.917908
vt 0.904785 0.919861
vt 0.908691 0.906616
vt 0.911621 0.908142
vt 0.914551 0.893127
vt 0.917480 0.894226
vt 0.917969 0.878723
vt 0.921387 0.879395
vt 0.920410 0.860962
vt 0.923828 0.861328
vt 0.921387 0.842773
vt 0.924805 0.843018
vt 0.920898 0.357910
vt 0.924316 0.357910
vt 1.920898 0.357910
vt 1.923828 0.357910
vt 1.924805 0.843018
vt 1.920898 0.842773
vt 1.923828 0.861328
vt 1.919922 0.860962
vt 1.920898 0.879395
vt 1.917969 0.878723
vt 1.916992 0.894226
vt 1.914062 0.893127
vt 1.911133 0.908142
vt 1.908203 0.906616
vt 1.904297 0.919861
vt 1.902344 0.917908
vt 1.895508 0.929810
vt 1.893555 0.927490
vt 1.885742 0.938751
vt 1.883789 0.936096
vt 1.874023 0.945374
vt 1.872070 0.942413
vt 1.860352 0.951447
vt 1.859375 0.948273
vt 1.845703 0.954926
vt 1.844727 0.951691
vt 1.827148 0.957611
vt 1.827148 0.954285
vt 1.808594 0.958282
vt 1.808594 0.954956
vt 1.707031 0.958282
vt 1.707031 0.954926
vt 1.602539 0.958282
vt 1.602539 0.954956
vt 1.583984 0.957611
vt 1.583984 0.954315
vt 1.565430 0.954956
vt 1.566406 0.951691
vt 1.550781 0.951447
vt 1.551758 0.948303
vt 1.537109 0.945374
vt 1.539062 0.942413
vt 1.525391 0.938751
vt 1.527344 0.936096
vt 1.515625 0.929871
vt 1.517578 0.927490
vt 1.506836 0.919861
vt 1.508789 0.917908
vt 1.500000 0.908142
vt 1.502930 0.906616
vt 1.494141 0.894226
vt 1.497070 0.893127
vt 1.490234 0.879395
vt 1.493164 0.878723
vt 1.487305 0.861328
vt 1.490234 0.860962
vt 1.486328 0.843018
vt 1.490234 0.842773
vt 1.487305 0.357910
vt 1.490234 0.357910
vt 1.573242 0.260254
vt 1.473633 0.260254
vt 1.473633 0.245605
vt 1.573242 0.245605
vt 1.591797 0.260254
vt 1.591797 0.245605
vt 1.609375 0.260254
vt 1.609375 0.245605
vt 1.624023 0.260254
vt 1.624023 0.245605
vt 1.638672 0.260254
vt 1.638672 0.245605
vt 1.652344 0.260254
vt 1.652344 0.245605
vt 1.665039 0.260254
vt 1.665039 0.245605
vt 1.678711 0.260254
vt 1.678711 0.245605
vt 1.691406 0.260254
vt 1.691406 0.245605
vt 1.706055 0.260254
vt 1.706055 0.245605
vt 1.720703 0.260254
vt 1.720703 0.245605
vt 1.739258 0.260254
vt 1.739258 0.245605
vt 1.756836 0.260254
vt 1.756836 0.245605
vt 1.451172 0.847656
vt 1.451172 0.350586
vt 1.482422 0.350586
vt 1.482422 0.846069
vt 1.453125 0.868774
vt 1.483398 0.864990
vt 1.486328 0.883362
vt 1.455078 0.889893
vt 1.460938 0.908508
vt 1.489258 0.898499
vt 1.496094 0.912659
vt 1.467773 0.927124
vt 1.478516 0.942291
vt 1.502930 0.924622
vt 1.511719 0.934875
vt 1.489258 0.957428
vt 1.503906 0.968292
vt 1.521484 0.943970
vt 1.534180 0.950714
vt 1.519531 0.979141
vt 1.538086 0.985405
vt 1.547852 0.956909
vt 1.563477 0.960480
vt 1.556641 0.991661
vt 1.578125 0.993649
vt 1.582031 0.963196
vt 1.600586 0.963867
vt 1.598633 0.995632
vt 1.706055 0.995632
vt 1.706055 0.963898
vt 1.810547 0.963867
vt 1.811523 0.995632
vt 1.833008 0.993649
vt 1.829102 0.963196
vt 1.847656 0.960480
vt 1.854492 0.991661
vt 1.873047 0.985405
vt 1.863281 0.956909
vt 1.876953 0.950714
vt 1.891602 0.979141
vt 1.907227 0.968292
vt 1.888672 0.943970
vt 1.899414 0.934875
vt 1.921875 0.957428
vt 1.932617 0.942261
vt 1.908203 0.924622
vt 1.915039 0.912659
vt 1.943359 0.927124
vt 1.950195 0.908508
vt 1.921875 0.898438
vt 1.924805 0.883301
vt 1.956055 0.889832
vt 1.958008 0.868774
vt 1.927734 0.864868
vt 1.928711 0.846069
vt 1.959961 0.847656
vt 1.959961 0.350586
vt 1.928711 0.350586
s 1
usemtl MASTER_Bistro_Main_Door
f 1/1/1 2/2/2 3/3/2
f 3/3/2 4/4/1 1/1/1
f 5/5/3 6/6/3 7/7/3
f 7/7/3 8/8/3 5/5/3
f 9/9/4 10/10/4 11/11/5
f 11/11/5 12/12/5 9/9/4
f 12/12/5 11/11/5 13/13/6
f 13/13/6 14/14/7 12/12/5
f 14/14/7 13/13/6 15/15/8
f 15/15/8 16/16/8 14/14/7
f 16/16/8 15/15/8 17/17/9
f 17/17/9 18/18/10 16/16/8
f 18/18/10 17/17/9 19/19/11
f 19/19/11 20/20/11 18/18/10
f 20/20/11 19/19/11 21/21/12
f 21/21/12 22/22/12 20/20/11
f 22/22/12 21/21/12 23/23/13
f 23/23/13 24/24/13 22/22/12
f 24/24/13 23/23/13 25/25/14
f 25/25/14 26/26/14 24/24/13
f 26/26/14 25/25/14 27/27/15
f 27/27/15 28/28/15 26/26/14
f 28/28/15 27/27/15 29/29/16
f 29/29/16 30/30/16 28/28/15
f 30/30/16 29/29/16 31/31/17
f 31/31/17 32/32/17 30/30/16
f 32/32/17 31/31/17 33/33/18
f 33/33/18 34/34/19 32/32/17
f 34/34/19 33/33/18 2/35/20
f 2/35/20 1/36/20 34/34/19
f 35/37/21 36/38/21 37/39/21
f 37/39/21 38/40/21 35/37/21
f 38/40/21 37/39/21 39/41/21
f 39/41/21 40/42/21 38/40/21
f 41/43/21 40/42/21 39/41/21
f 39/41/21 42/44/21 41/43/21
f 41/43/21 42/44/21 43/45/21
f 43/45/21 44/46/21 41/43/21
f 45/47/21 44/46/21 43/45/21
f 43/45/21 46/48/21 45/47/21
f 45/47/21 46/48/21 47/49/21
f 47/49/21 48/50/21 45/47/21
f 49/51/21 48/50/21 47/49/21
f 47/49/21 50/52/21 49/51/21
f 49/51/21 50/52/21 51/53/21
f 51/53/21 52/54/21 49/51/21
f 53/55/21 52/54/21 51/53/21
f 51/53/21 54/56/21 53/55/21
f 53/55/21 54/56/21 55/57/21
f 55/57/21 56/58/21 53/55/21
f 57/59/21 56/58/21 55/57/21
f 55/57/21 58/60/21 57/59/21
f 57/59/21 58/60/21 59/61/21
f 59/61/21 60/62/21 57/59/21
f 61/63/21 60/62/21 59/61/21
f 59/61/21 62/64/21 61/63/21
f 61/63/21 62/64/21 63/65/22
f 63/65/22 64/66/22 61/63/21
f 65/67/23 64/66/22 63/65/22
f 63/65/22 66/68/22 65/67/23
f 65/67/23 66/68/22 67/69/22
f 67/69/22 68/70/22 65/67/23
f 69/71/22 68/70/22 67/69/22
f 67/69/22 70/72/22 69/71/22
f 69/71/22 70/72/22 71/73/22
f 71/73/22 72/74/23 69/71/22
f 73/75/22 72/74/23 71/73/22
f 71/73/22 74/76/22 73/75/22
f 73/75/22 74/76/22 75/77/22
f 75/77/22 76/78/22 73/75/22
f 77/79/22 76/78/22 75/77/22
f 75/77/22 78/80/22 77/79/22
f 77/79/22 78/80/22 79/81/22
f 79/81/22 80/82/22 77/79/22
f 81/83/22 80/82/22 79/81/22
f 79/81/22 82/84/22 81/83/22
f 81/83/22 82/84/22 83/85/23
f 83/85/23 84/86/22 81/83/22
f 85/87/22 84/86/22 83/85/23
f 83/85/23 86/88/22 85/87/22
f 85/87/22 86/88/22 87/89/22
f 87/89/22 88/90/22 85/87/22
f 89/91/22 88/90/22 87/89/22
f 87/89/22 90/92/22 89/91/22
f 91/93/22 89/91/22 90/92/22
f 90/92/22 92/94/22 91/93/22
f 91/95/24 3/96/24 2/97/25
f 2/97/25 89/98/25 91/95/24
f 89/98/25 2/97/25 33/99/26
f 33/99/26 88/100/26 89/98/25
f 88/100/26 33/99/26 31/101/27
f 31/101/27 85/102/27 88/100/26
f 85/102/27 31/101/27 29/103/28
f 29/103/28 84/104/29 85/102/27
f 84/104/29 29/103/28 27/105/30
f 27/105/30 81/106/31 84/104/29
f 81/106/31 27/105/30 25/107/32
f 25/107/32 80/108/32 81/106/31
f 80/108/32 25/107/32 23/109/33
f 23/109/33 77/110/33 80/108/32
f 77/110/33 23/109/33 21/111/34
f 21/111/34 76/112/35 77/110/33
f 76/112/35 21/111/34 19/113/36
f 19/113/36 73/114/36 76/112/35
f 73/114/36 19/113/36 17/115/37
f 17/115/37 72/116/37 73/114/36
f 72/116/37 17/115/37 15/117/38
f 15/117/38 69/118/39 72/116/37
f 69/118/39 15/117/38 13/119/40
f 13/119/40 68/120/41 69/118/39
f 68/120/41 13/119/40 11/121/42
f 11/121/42 65/122/43 68/120/41
f 65/122/43 11/121/42 10/123/44
f 10/123/44 64/124/45 65/122/43
f 64/124/45 10/123/44 93/125/46
f 93/125/46 61/126/46 64/124/45
f 61/126/46 93/125/46 94/127/47
f 94/127/47 60/128/48 61/126/46
f 60/128/48 94/127/47 95/129/49
f 95/129/49 57/130/50 60/128/48
f 57/130/50 95/129/49 96/131/51
f 96/131/51 56/132/51 57/130/50
f 56/132/51 96/131/51 97/133/52
f 97/133/52 53/134/52 56/132/51
f 53/134/52 97/133/52 98/135/53
f 98/135/53 52/136/53 53/134/52
f 52/136/53 98/135/53 99/137/54
f 99/137/54 49/138/54 52/136/53
f 49/138/54 99/137/54 100/139/55
f 100/139/55 48/140/55 49/138/54
f 48/140/55 100/139/55 101/141/56
f 101/141/56 45/142/57 48/140/55
f 45/142/57 101/141/56 102/143/58
f 102/143/58 44/144/59 45/142/57
f 44/144/59 102/143/58 103/145/60
f 103/145/60 41/146/60 44/144/59
f 41/146/60 103/145/60 104/147/61
f 104/147/61 40/148/61 41/146/60
f 40/148/61 104/147/61 8/149/62
f 8/149/62 38/150/62 40/148/61
f 38/150/62 8/149/62 7/151/63
f 7/151/63 35/152/63 38/150/62
f 4/153/64 105/154/64 106/155/65
f 106/155/65 1/156/66 4/153/64
f 1/156/66 106/155/65 107/157/67
f 107/157/67 34/158/68 1/156/66
f 34/158/68 107/157/67 108/159/69
f 108/159/69 32/160/70 34/158/68
f 32/160/70 108/159/69 109/161/71
f 109/161/71 30/162/71 32/160/70
f 30/162/71 109/161/71 110/163/72
f 110/163/72 28/164/72 30/162/71
f 28/164/72 110/163/72 111/165/73
f 111/165/73 26/166/73 28/164/72
f 26/166/73 111/165/73 112/167/74
f 112/167/74 24/168/74 26/166/73
f 24/168/74 112/167/74 113/169/75
f 113/169/75 22/170/75 24/168/74
f 22/170/75 113/169/75 114/171/76
f 114/171/76 20/172/76 22/170/75
f 20/172/76 114/171/76 115/173/77
f 115/173/77 18/174/77 20/172/76
f 18/174/77 115/173/77 116/175/78
f 116/175/78 16/176/78 18/174/77
f 16/176/78 116/175/78 117/177/79
f 117/177/79 14/178/80 16/176/78
f 14/178/80 117/177/79 118/179/81
f 118/179/81 12/180/82 14/178/80
f 12/180/82 118/179/81 119/181/82
f 119/181/82 9/182/82 12/180/82
f 9/182/82 119/181/82 120/183/83
f 120/183/83 121/184/83 9/182/82
f 121/184/83 120/183/83 122/185/84
f 122/185/84 123/186/85 121/184/83
f 123/186/85 122/185/84 124/187/86
f 124/187/86 125/188/87 123/186/85
f 125/188/87 124/187/86 126/189/88
f 126/189/88 127/190/89 125/188/87
f 127/190/89 126/189/88 128/191/90
f 128/191/90 129/192/90 127/190/89
f 129/192/90 128/191/90 130/193/91
f 130/193/91 131/194/91 129/192/90
f 131/194/91 130/193/91 132/195/92
f 132/195/92 133/196/92 131/194/91
f 133/196/92 132/195/92 134/197/93
f 134/197/93 135/198/93 133/196/92
f 135/198/93 134/197/93 136/199/94
f 136/199/94 137/200/95 135/198/93
f 137/200/95 136/199/94 138/201/96
f 138/201/96 139/202/97 137/200/95
f 139/202/97 138/201/96 140/203/98
f 140/203/98 141/204/98 139/202/97
f 141/204/98 140/203/98 142/205/99
f 142/205/99 143/206/99 141/204/98
f 143/206/99 142/205/99 144/207/100
f 144/207/100 5/208/101 143/206/99
f 5/208/101 144/207/100 145/209/102
f 145/209/102 6/210/102 5/208/101
f 93/211/103 10/212/4 9/213/4
f 9/213/4 121/214/103 93/211/103
f 94/215/104 93/211/103 121/214/103
f 121/214/103 123/216/105 94/215/104
f 95/217/106 94/215/104 123/216/105
f 123/216/105 125/218/106 95/217/106
f 96/219/107 95/217/106 125/218/106
f 125/218/106 127/220/108 96/219/107
f 97/221/109 96/219/107 127/220/108
f 127/220/108 129/222/109 97/221/109
f 98/223/110 97/221/109 129/222/109
f 129/222/109 131/224/110 98/223/110
f 99/225/111 98/223/110 131/224/110
f 131/224/110 133/226/112 99/225/111
f 100/227/113 99/225/111 133/226/112
f 133/226/112 135/228/113 100/227/113
f 101/229/114 100/227/113 135/228/113
f 135/228/113 137/230/115 101/229/114
f 102/231/116 101/229/114 137/230/115
f 137/230/115 139/232/117 102/231/116
f 103/233/118 102/231/116 139/232/117
f 139/232/117 141/234/118 103/233/118
f 104/235/119 103/233/118 141/234/118
f 141/234/118 143/236/120 104/235/119
f 8/237/121 104/235/119 143/236/120
f 143/236/120 5/238/121 8/237/121
f 146/239/122 147/240/122 145/241/122
f 145/241/122 144/242/122 146/239/122
f 148/243/122 146/239/122 144/242/122
f 144/242/122 142/244/122 148/243/122
f 148/243/122 142/244/122 140/245/122
f 140/245/122 149/246/122 148/243/122
f 150/247/122 149/246/122 140/245/122
f 140/245/122 138/248/123 150/247/122
f 150/247/122 138/248/123 136/249/123
f 136/249/123 151/250/123 150/247/122
f 152/251/122 151/250/123 136/249/123
f 136/249/123 134/252/123 152/251/122
f 152/251/122 134/252/123 132/253/122
f 132/253/122 153/254/123 152/251/122
f 154/255/122 153/254/123 132/253/122
f 132/253/122 130/256/122 154/255/122
f 154/255/122 130/256/122 128/257/122
f 128/257/122 155/258/122 154/255/122
f 156/259/123 155/258/122 128/257/122
f 128/257/122 126/260/122 156/259/123
f 156/259/123 126/260/122 124/261/122
f 124/261/122 157/262/122 156/259/123
f 158/263/122 157/262/122 124/261/122
f 124/261/122 122/264/123 158/263/122
f 158/263/122 122/264/123 120/265/123
f 120/265/123 159/266/122 158/263/122
f 160/267/124 159/266/122 120/265/123
f 120/265/123 119/268/125 160/267/124
f 160/267/124 119/268/125 118/269/126
f 118/269/126 161/270/127 160/267/124
f 162/271/124 161/270/127 118/269/126
f 118/269/126 117/272/128 162/271/124
f 162/271/124 117/272/128 116/273/124
f 116/273/124 163/274/124 162/271/124
f 164/275/124 163/274/124 116/273/124
f 116/273/124 115/276/124 164/275/124
f 164/275/124 115/276/124 114/277/124
f 114/277/124 165/278/124 164/275/124
f 166/279/126 165/278/124 114/277/124
f 114/277/124 113/280/124 166/279/126
f 166/279/126 113/280/124 112/281/124
f 112/281/124 167/282/124 166/279/126
f 168/283/124 167/282/124 112/281/124
f 112/281/124 111/284/126 168/283/124
f 168/283/124 111/284/126 110/285/124
f 110/285/124 169/286/124 168/283/124
f 170/287/124 169/286/124 110/285/124
f 110/285/124 109/288/124 170/287/124
f 170/287/124 109/288/124 108/289/124
f 108/289/124 171/290/124 170/287/124
f 172/291/126 171/290/124 108/289/124
f 108/289/124 107/292/124 172/291/126
f 172/291/126 107/292/124 106/293/124
f 106/293/124 173/294/124 172/291/126
f 174/295/124 173/294/124 106/293/124
f 106/293/124 105/296/124 174/295/124
