# Blender 3.6.18
# www.blender.org
mtllib Mesh.201.mtl
o Bistro_Research_Exterior_Paris_Street_6195
v 72.654282 0.737015 39.211132
v 72.455956 0.737015 38.822338
v 71.327766 0.745345 39.642128
v 72.147552 0.737015 38.513924
v 71.758751 0.737015 38.315594
v 71.327766 0.737015 38.247421
v 70.896782 0.737015 38.315594
v 70.507996 0.737015 38.513924
v 70.199585 0.737015 38.822338
v 70.001251 0.737015 39.211132
v 69.933083 0.737015 39.642117
v 70.001251 0.737015 40.073105
v 70.199585 0.737015 40.461891
v 70.507996 0.737015 40.770306
v 70.896782 0.737015 40.968636
v 71.327766 0.737015 41.036812
v 71.758751 0.737015 40.968636
v 72.147552 0.737015 40.770306
v 72.455956 0.737015 40.461891
v 72.654282 0.737015 40.073105
v 72.722466 0.737015 39.642117
v 76.665649 0.520451 37.907738
v 75.868439 0.520451 36.343132
v 75.841232 0.615372 38.175613
v 75.167107 0.615372 36.852661
v 74.716682 0.681629 38.541004
v 74.210449 0.681629 37.547684
v 73.591606 0.737015 38.906574
v 73.253342 0.737015 38.243038
v 73.708038 0.737015 39.642117
v 73.591606 0.737015 40.377663
v 74.891037 0.681629 39.642117
v 73.253342 0.737015 41.041195
v 74.716682 0.681628 40.743229
v 76.073479 0.615372 39.642117
v 76.940338 0.520451 39.642117
v 75.841232 0.615372 41.108624
v 76.665642 0.520451 41.376499
v 74.210449 0.681628 41.736546
v 75.167107 0.615372 42.431568
v 75.868439 0.520451 42.941101
v 72.726852 0.737015 41.567677
v 72.063316 0.737015 41.905949
v 73.422195 0.681628 42.524788
v 72.428879 0.681628 43.031029
v 74.117233 0.615372 43.481438
v 72.794266 0.615372 44.155575
v 74.626755 0.520451 44.182777
v 73.062149 0.520451 44.979988
v 71.327774 0.737015 42.022377
v 70.592232 0.737015 41.905949
v 71.327774 0.681628 43.205379
v 69.928696 0.737015 41.567677
v 70.226662 0.681628 43.031029
v 71.327774 0.615372 44.387821
v 71.327766 0.520451 45.254684
v 69.861267 0.615372 44.155575
v 69.593391 0.520451 44.979988
v 69.233345 0.681628 42.524788
v 68.538322 0.615372 43.481438
v 68.028793 0.520451 44.182777
v 69.402206 0.737015 41.041195
v 68.445099 0.681628 41.736546
v 67.488441 0.615372 42.431568
v 66.787102 0.520451 42.941101
v 69.063942 0.737015 40.377663
v 67.938858 0.681628 40.743229
v 66.814316 0.615372 41.108624
v 65.989899 0.520451 41.376499
v 68.947502 0.737015 39.642117
v 67.764503 0.681629 39.642117
v 66.582069 0.615372 39.642117
v 65.715195 0.520451 39.642117
v 69.063942 0.737015 38.906574
v 69.402206 0.737015 38.243038
v 67.938858 0.681629 38.541004
v 68.445099 0.681629 37.547684
v 66.814316 0.615372 38.175613
v 67.488441 0.615372 36.852665
v 65.989899 0.520451 37.907738
v 66.787102 0.520451 36.343136
v 69.928688 0.737015 37.716553
v 70.592232 0.737015 37.378284
v 69.233330 0.681629 36.759445
v 71.327774 0.737015 37.261852
v 72.063316 0.737015 37.378284
v 70.226662 0.681629 36.253201
v 68.538315 0.615372 35.802795
v 68.028786 0.520451 35.101456
v 71.327774 0.681629 36.078850
v 72.428879 0.681629 36.253201
v 69.861267 0.615372 35.128658
v 69.593391 0.520451 34.304245
v 71.327774 0.615372 34.896408
v 72.794266 0.615372 35.128658
v 71.327766 0.520451 34.029545
v 73.062149 0.520451 34.304245
v 74.626755 0.520451 35.101456
v 74.117233 0.615372 35.802795
v 73.422195 0.681629 36.759445
v 72.726852 0.737015 37.716553
vn -0.0018 1.0000 -0.0049
vn -0.0020 1.0000 -0.0072
vn -0.0015 1.0000 -0.0038
vn -0.0034 1.0000 -0.0085
vn -0.0047 1.0000 -0.0078
vn -0.0059 0.9999 -0.0124
vn -0.0047 1.0000 -0.0080
vn -0.0046 1.0000 -0.0081
vn -0.0066 0.9999 -0.0085
vn -0.0085 0.9999 -0.0066
vn -0.0081 1.0000 -0.0046
vn -0.0124 0.9999 -0.0027
vn -0.0080 1.0000 -0.0047
vn -0.0078 1.0000 -0.0047
vn -0.0085 1.0000 -0.0034
vn -0.0072 1.0000 -0.0020
vn -0.0049 1.0000 -0.0018
vn -0.0049 1.0000 -0.0016
vn -0.0049 1.0000 -0.0014
vn -0.0040 1.0000 -0.0020
vn -0.0020 1.0000 -0.0040
vn -0.0014 1.0000 -0.0049
vn -0.0016 1.0000 -0.0049
vn 0.0982 0.9939 -0.0510
vn 0.0748 0.9963 -0.0433
vn 0.0982 0.9939 -0.0509
vn 0.0434 0.9987 -0.0276
vn 0.0193 0.9997 -0.0165
vn 0.0150 0.9997 -0.0205
vn 0.0197 0.9998 -0.0040
vn 0.0513 0.9986 -0.0118
vn 0.0197 0.9998 0.0039
vn 0.0513 0.9987 -0.0040
vn 0.0827 0.9964 -0.0197
vn 0.0198 0.9997 0.0119
vn 0.0434 0.9990 0.0119
vn 0.0827 0.9966 -0.0039
vn 0.1061 0.9942 -0.0196
vn 0.1061 0.9943 -0.0039
vn 0.0749 0.9970 0.0197
vn 0.0983 0.9948 0.0275
vn 0.0355 0.9990 0.0276
vn 0.0670 0.9968 0.0434
vn 0.0826 0.9948 0.0590
vn 0.0119 0.9997 0.0198
vn 0.0079 0.9998 0.0183
vn 0.0276 0.9990 0.0355
vn 0.0198 0.9989 0.0434
vn 0.0434 0.9968 0.0670
vn 0.0355 0.9966 0.0749
vn 0.0590 0.9948 0.0826
vn 0.0432 0.9942 0.0982
vn -0.0040 0.9998 0.0197
vn 0.0040 0.9987 0.0513
vn -0.0118 0.9997 0.0198
vn -0.0039 0.9987 0.0513
vn 0.0118 0.9965 0.0827
vn -0.0198 0.9996 0.0198
vn -0.0197 0.9989 0.0434
vn -0.0039 0.9966 0.0827
vn 0.0118 0.9943 0.1061
vn -0.0039 0.9943 0.1061
vn -0.0276 0.9968 0.0749
vn -0.0354 0.9945 0.0983
vn -0.0355 0.9987 0.0355
vn -0.0512 0.9964 0.0670
vn -0.0668 0.9943 0.0826
vn -0.0277 0.9995 0.0118
vn -0.0434 0.9987 0.0277
vn -0.0748 0.9963 0.0433
vn -0.0904 0.9942 0.0589
vn -0.0277 0.9996 0.0039
vn -0.0513 0.9986 0.0119
vn -0.0827 0.9964 0.0197
vn -0.1061 0.9940 0.0275
vn -0.0277 0.9996 -0.0040
vn -0.0592 0.9982 -0.0040
vn -0.0905 0.9959 -0.0039
vn -0.1139 0.9935 -0.0039
vn -0.0277 0.9995 -0.0119
vn -0.0244 0.9995 -0.0208
vn -0.0513 0.9985 -0.0197
vn -0.0513 0.9983 -0.0276
vn -0.0827 0.9962 -0.0276
vn -0.0826 0.9956 -0.0433
vn -0.1061 0.9937 -0.0354
vn -0.1060 0.9931 -0.0510
vn -0.0197 0.9994 -0.0276
vn -0.0434 0.9981 -0.0434
vn -0.0119 0.9995 -0.0277
vn -0.0355 0.9984 -0.0434
vn -0.0669 0.9955 -0.0669
vn -0.0040 0.9996 -0.0277
vn 0.0079 0.9995 -0.0296
vn -0.0197 0.9985 -0.0513
vn -0.0512 0.9959 -0.0748
vn -0.0824 0.9932 -0.0824
vn -0.0668 0.9937 -0.0903
vn -0.0040 0.9982 -0.0592
vn 0.0040 0.9982 -0.0592
vn -0.0276 0.9962 -0.0827
vn -0.0354 0.9937 -0.1061
vn -0.0039 0.9959 -0.0905
vn 0.0118 0.9958 -0.0905
vn -0.0039 0.9935 -0.1139
vn 0.0118 0.9934 -0.1139
vn 0.0746 0.9938 -0.0825
vn 0.0589 0.9942 -0.0904
vn 0.0591 0.9960 -0.0669
vn 0.0433 0.9963 -0.0748
vn 0.0432 0.9934 -0.1060
vn 0.0355 0.9984 -0.0434
vn 0.0354 0.9959 -0.0827
vn 0.0277 0.9987 -0.0434
vn 0.0198 0.9985 -0.0513
vn 0.0118 0.9995 -0.0277
vt 1.343750 1.740234
vt 1.315430 1.795410
vt 1.154297 1.678223
vt 1.271484 1.839355
vt 1.215820 1.868164
vt 1.154297 1.877441
vt 1.092773 1.868164
vt 1.037109 1.839355
vt 0.993652 1.795410
vt 0.965332 1.740234
vt 0.955566 1.678711
vt 0.965332 1.616699
vt 0.993652 1.561523
vt 1.037109 1.517578
vt 1.092773 1.489258
vt 1.154297 1.479492
vt 1.215820 1.489258
vt 1.271484 1.517578
vt 1.315430 1.561523
vt 1.343750 1.616699
vt 1.353516 1.678711
vt 1.916992 1.926270
vt 1.802734 2.149414
vt 1.798828 1.887695
vt 1.703125 2.076172
vt 1.638672 1.835938
vt 1.566406 1.977539
vt 1.477539 1.783691
vt 1.429688 1.878418
vt 1.494141 1.678711
vt 1.477539 1.573242
vt 1.663086 1.678711
vt 1.429688 1.478760
vt 1.638672 1.520996
vt 1.832031 1.678711
vt 1.956055 1.678711
vt 1.798828 1.469238
vt 1.916992 1.430908
vt 1.566406 1.379395
vt 1.703125 1.280273
vt 1.802734 1.207520
vt 1.354492 1.403564
vt 1.259766 1.355225
vt 1.453125 1.266846
vt 1.311523 1.194702
vt 1.552734 1.130371
vt 1.364258 1.034088
vt 1.625977 1.030212
vt 1.402344 0.916382
vt 1.154297 1.338623
vt 1.048828 1.355225
vt 1.154297 1.169800
vt 0.954590 1.403564
vt 0.997559 1.194702
vt 1.154297 1.000931
vt 1.154297 0.877136
vt 0.945312 1.034088
vt 0.906738 0.916382
vt 0.855469 1.266846
vt 0.756348 1.130371
vt 0.683594 1.030212
vt 0.879395 1.478760
vt 0.742676 1.379395
vt 0.606445 1.280273
vt 0.505859 1.207520
vt 0.831055 1.573242
vt 0.670410 1.520996
vt 0.509766 1.469238
vt 0.392334 1.430908
vt 0.814453 1.678711
vt 0.645508 1.678711
vt 0.477051 1.678711
vt 0.353027 1.678711
vt 0.831055 1.783691
vt 0.879395 1.878418
vt 0.670410 1.835938
vt 0.742676 1.977539
vt 0.509766 1.887695
vt 0.606445 2.076172
vt 0.392334 1.926270
vt 0.505859 2.149414
vt 0.954590 1.953613
vt 1.048828 2.001953
vt 0.855469 2.089844
vt 1.154297 2.018555
vt 1.259766 2.001953
vt 0.997559 2.162109
vt 0.756348 2.226562
vt 0.683594 2.327148
vt 1.154297 2.187500
vt 1.311523 2.162109
vt 0.945312 2.323242
vt 0.906738 2.440430
vt 1.154297 2.356445
vt 1.364258 2.323242
vt 1.154297 2.479492
vt 1.402344 2.440430
vt 1.625977 2.327148
vt 1.552734 2.226562
vt 1.453125 2.089844
vt 1.354492 1.953613
s 1
usemtl Pavement_Ground_Wet
f 1/1/1 2/2/2 3/3/3
f 2/2/2 4/4/4 3/3/3
f 4/4/4 5/5/5 3/3/6
f 5/5/5 6/6/7 3/3/6
f 6/6/7 7/7/8 3/3/6
f 7/7/8 8/8/9 3/3/6
f 8/8/9 9/9/10 3/3/6
f 9/9/10 10/10/11 3/3/12
f 10/10/11 11/11/13 3/3/12
f 11/11/13 12/12/14 3/3/12
f 12/12/14 13/13/15 3/3/12
f 13/13/15 14/14/16 3/3/12
f 14/14/16 15/15/17 3/3/3
f 15/15/17 16/16/18 3/3/3
f 16/16/18 17/17/19 3/3/3
f 17/17/19 18/18/20 3/3/3
f 18/18/20 19/19/21 3/3/3
f 19/19/21 20/20/22 3/3/3
f 20/20/22 21/21/23 3/3/3
f 21/21/23 1/1/1 3/3/3
f 22/22/24 23/23/24 24/24/25
f 23/23/26 25/25/25 24/24/25
f 24/24/25 25/25/25 26/26/27
f 25/25/25 27/27/27 26/26/27
f 26/26/27 27/27/27 28/28/28
f 27/27/27 29/29/29 28/28/28
f 28/28/28 29/29/29 1/1/1
f 29/29/29 2/2/2 1/1/1
f 28/28/28 1/1/1 21/21/23
f 30/30/30 28/28/28 21/21/23
f 30/30/30 21/21/23 20/20/22
f 26/26/31 28/28/28 30/30/30
f 31/31/32 30/30/30 20/20/22
f 31/31/32 20/20/22 19/19/21
f 32/32/33 26/26/31 30/30/30
f 32/32/33 30/30/30 31/31/32
f 24/24/34 26/26/31 32/32/33
f 33/33/35 31/31/32 19/19/21
f 33/33/35 19/19/21 18/18/20
f 34/34/36 32/32/33 31/31/32
f 34/34/36 31/31/32 33/33/35
f 35/35/37 24/24/34 32/32/33
f 35/35/37 32/32/33 34/34/36
f 22/22/38 24/24/34 35/35/37
f 36/36/39 22/22/38 35/35/37
f 36/36/39 35/35/37 37/37/40
f 37/37/40 35/35/37 34/34/36
f 38/38/41 36/36/39 37/37/40
f 37/37/40 34/34/36 39/39/42
f 39/39/42 34/34/36 33/33/35
f 38/38/41 37/37/40 40/40/43
f 40/40/43 37/37/40 39/39/42
f 41/41/44 38/38/41 40/40/43
f 39/39/42 33/33/35 42/42/45
f 42/42/45 33/33/35 18/18/20
f 42/42/45 18/18/20 17/17/19
f 43/43/46 42/42/45 17/17/19
f 44/44/47 39/39/42 42/42/45
f 44/44/47 42/42/45 43/43/46
f 40/40/43 39/39/42 44/44/47
f 45/45/48 44/44/47 43/43/46
f 46/46/49 40/40/43 44/44/47
f 46/46/49 44/44/47 45/45/48
f 41/41/44 40/40/43 46/46/49
f 47/47/50 46/46/49 45/45/48
f 48/48/51 41/41/44 46/46/49
f 48/48/51 46/46/49 47/47/50
f 49/49/52 48/48/51 47/47/50
f 43/43/46 17/17/19 16/16/18
f 50/50/53 43/43/46 16/16/18
f 50/50/53 16/16/18 15/15/17
f 45/45/54 43/43/46 50/50/53
f 51/51/55 50/50/53 15/15/17
f 51/51/55 15/15/17 14/14/16
f 52/52/56 45/45/54 50/50/53
f 52/52/56 50/50/53 51/51/55
f 47/47/57 45/45/54 52/52/56
f 53/53/58 51/51/55 14/14/16
f 53/53/58 14/14/16 13/13/15
f 54/54/59 52/52/56 51/51/55
f 54/54/59 51/51/55 53/53/58
f 55/55/60 47/47/57 52/52/56
f 55/55/60 52/52/56 54/54/59
f 49/49/61 47/47/57 55/55/60
f 56/56/62 49/49/61 55/55/60
f 56/56/62 55/55/60 57/57/63
f 57/57/63 55/55/60 54/54/59
f 58/58/64 56/56/62 57/57/63
f 57/57/63 54/54/59 59/59/65
f 59/59/65 54/54/59 53/53/58
f 58/58/64 57/57/63 60/60/66
f 60/60/66 57/57/63 59/59/65
f 61/61/67 58/58/64 60/60/66
f 59/59/65 53/53/58 62/62/68
f 62/62/68 53/53/58 13/13/15
f 62/62/68 13/13/15 12/12/14
f 60/60/66 59/59/65 63/63/69
f 63/63/69 59/59/65 62/62/68
f 61/61/67 60/60/66 64/64/70
f 64/64/70 60/60/66 63/63/69
f 65/65/71 61/61/67 64/64/70
f 66/66/72 62/62/68 12/12/14
f 63/63/69 62/62/68 66/66/72
f 66/66/72 12/12/14 11/11/13
f 64/64/70 63/63/69 67/67/73
f 67/67/73 63/63/69 66/66/72
f 65/65/71 64/64/70 68/68/74
f 68/68/74 64/64/70 67/67/73
f 69/69/75 65/65/71 68/68/74
f 70/70/76 66/66/72 11/11/13
f 67/67/73 66/66/72 70/70/76
f 70/70/76 11/11/13 10/10/11
f 68/68/74 67/67/73 71/71/77
f 71/71/77 67/67/73 70/70/76
f 69/69/75 68/68/74 72/72/78
f 72/72/78 68/68/74 71/71/77
f 73/73/79 69/69/75 72/72/78
f 74/74/80 70/70/76 10/10/11
f 71/71/77 70/70/76 74/74/80
f 74/74/80 10/10/11 9/9/10
f 75/75/81 74/74/80 9/9/10
f 76/76/82 71/71/77 74/74/80
f 76/76/82 74/74/80 75/75/81
f 72/72/78 71/71/77 76/76/82
f 77/77/83 76/76/82 75/75/81
f 78/78/84 72/72/78 76/76/82
f 78/78/84 76/76/82 77/77/83
f 73/73/79 72/72/78 78/78/84
f 79/79/85 78/78/84 77/77/83
f 80/80/86 73/73/79 78/78/84
f 80/80/86 78/78/84 79/79/85
f 81/81/87 80/80/86 79/79/85
f 75/75/81 9/9/10 8/8/9
f 82/82/88 75/75/81 8/8/9
f 82/82/88 8/8/9 7/7/8
f 77/77/89 75/75/81 82/82/88
f 83/83/90 82/82/88 7/7/8
f 83/83/90 7/7/8 6/6/7
f 84/84/91 77/77/89 82/82/88
f 84/84/91 82/82/88 83/83/90
f 79/79/92 77/77/89 84/84/91
f 85/85/93 83/83/90 6/6/7
f 85/85/93 6/6/7 5/5/5
f 86/86/94 85/85/93 5/5/5
f 87/87/95 84/84/91 83/83/90
f 87/87/95 83/83/90 85/85/93
f 88/88/96 79/79/92 84/84/91
f 88/88/96 84/84/91 87/87/95
f 81/81/97 79/79/92 88/88/96
f 89/89/98 81/81/97 88/88/96
f 90/90/99 85/85/93 86/86/94
f 90/90/99 87/87/95 85/85/93
f 91/91/100 90/90/99 86/86/94
f 92/92/101 88/88/96 87/87/95
f 89/89/98 88/88/96 92/92/101
f 92/92/101 87/87/95 90/90/99
f 93/93/102 89/89/98 92/92/101
f 94/94/103 90/90/99 91/91/100
f 94/94/103 92/92/101 90/90/99
f 93/93/102 92/92/101 94/94/103
f 95/95/104 94/94/103 91/91/100
f 96/96/105 93/93/102 94/94/103
f 96/96/105 94/94/103 95/95/104
f 97/97/106 96/96/105 95/95/104
f 23/23/107 98/98/108 25/25/109
f 98/98/108 99/99/110 25/25/109
f 98/98/108 97/97/111 99/99/110
f 25/25/109 99/99/110 27/27/112
f 97/97/111 95/95/113 99/99/110
f 99/99/110 100/100/114 27/27/112
f 99/99/110 95/95/113 100/100/114
f 27/27/112 100/100/114 29/29/29
f 95/95/113 91/91/115 100/100/114
f 100/100/114 101/101/116 29/29/29
f 100/100/114 91/91/115 101/101/116
f 29/29/29 101/101/116 2/2/2
f 91/91/115 86/86/94 101/101/116
f 101/101/116 4/4/4 2/2/2
f 101/101/116 86/86/94 4/4/4
f 86/86/94 5/5/5 4/4/4
