# Blender 3.6.18
# www.blender.org
mtllib Mesh.504.mtl
o Bistro_Research_Exterior_paris_building_11_5553
v 6.391429 0.662141 22.051615
v 6.063478 0.662141 22.854301
v 6.391428 0.384941 22.051615
v 6.063478 0.384941 22.854301
v 4.089250 0.368155 21.111147
v 6.377022 0.368157 22.045729
v 3.761299 0.368155 21.913837
v 6.049072 0.368157 22.848417
v 4.095597 0.384939 21.095612
v 4.095597 0.662141 21.095612
v 6.383369 0.384941 22.030191
v 6.383370 0.662141 22.030191
v 3.746892 0.384939 21.907949
v 3.746892 0.662141 21.907949
v 4.074843 0.384939 21.105265
v 4.074843 0.662141 21.105265
v 6.042724 0.662141 22.863955
v 3.754951 0.662141 21.929375
v 6.042724 0.384941 22.863955
v 3.754951 0.384939 21.929375
v 6.049072 0.678925 22.848417
v 6.377022 0.678925 22.045729
v 3.761299 0.678925 21.913837
v 4.089250 0.678925 21.111147
vn 0.9271 -0.0040 0.3748
vn -0.0039 -1.0000 -0.0039
vn 0.3721 -0.0039 -0.9282
vn -0.9255 -0.0039 -0.3788
vn -0.3815 -0.0039 0.9243
vn -0.0039 1.0000 -0.0039
vn 0.5544 -0.4443 0.7038
vn 0.2786 -0.7496 0.6004
vn 0.8894 -0.4427 -0.1137
vn 0.6165 -0.7500 -0.2395
vn 0.1683 -0.4580 0.8729
vn -0.6225 -0.7478 0.2310
vn -0.7354 -0.4552 0.5019
vn -0.8918 -0.4400 0.1051
vn -0.2845 -0.7444 -0.6041
vn -0.5567 -0.4399 -0.7047
vn 0.6201 0.7466 -0.2410
vn 0.7315 0.4499 -0.5124
vn -0.2862 0.7409 -0.6076
vn -0.1753 0.4480 -0.8766
vn 0.8925 0.4364 -0.1140
vn 0.5563 0.4380 0.7062
vn 0.2803 0.7461 0.6040
vn 0.1689 0.4518 0.8760
vn -0.7380 0.4491 0.5037
vn -0.6261 0.7443 0.2324
vn -0.5586 0.4336 -0.7071
vn -0.8948 0.4337 0.1055
vn 0.7289 -0.4560 -0.5106
vn -0.1747 -0.4543 -0.8736
vt 0.637695 0.550049
vt 0.366943 0.550049
vt 0.637695 0.463379
vt 0.366943 0.463379
vt 0.083496 0.362305
vt 0.916016 0.362305
vt 0.083557 0.633301
vt 0.916016 0.633057
vt 0.916016 0.463379
vt 0.916016 0.550049
vt 0.083557 0.463379
vt 0.083557 0.550049
vt 0.632812 0.463379
vt 0.632812 0.550049
vt 0.362061 0.463379
vt 0.362061 0.550049
vt 0.083496 0.633057
vt 0.083557 0.362305
vt 0.916016 0.633301
vt 0.921387 0.633057
vt 0.921387 0.362305
vt 0.916016 0.458496
vt 0.083557 0.458496
vt 0.078308 0.633301
vt 0.078247 0.362305
vt 0.083557 0.356934
vt 0.916016 0.356934
vt 0.078308 0.362305
vt 0.078247 0.633057
vt 0.083496 0.638184
vt 0.916016 0.638428
vt 0.921387 0.633301
vt 0.083557 0.555420
vt 0.078308 0.550049
vt 0.078308 0.463379
vt 0.362061 0.555420
vt 0.356689 0.550049
vt 0.356689 0.463379
vt 0.362061 0.458496
vt 0.366943 0.555420
vt 0.361816 0.550049
vt 0.361816 0.463379
vt 0.366943 0.458496
s 1
usemtl MASTER_Concrete_Plaster
f 1/1/1 2/2/1 3/3/1
f 2/2/1 4/4/1 3/3/1
f 5/5/2 6/6/2 7/7/2
f 6/6/2 8/8/2 7/7/2
f 9/9/3 10/10/3 11/11/3
f 10/10/3 12/12/3 11/11/3
f 13/13/4 14/14/4 15/15/4
f 14/14/4 16/16/4 15/15/4
f 17/10/5 18/12/5 19/9/5
f 18/12/5 20/11/5 19/9/5
f 21/17/6 22/18/6 23/19/6
f 22/18/6 24/6/6 23/19/6
f 4/20/7 8/8/8 3/21/9
f 8/8/8 6/6/10 3/21/9
f 8/22/8 19/9/11 7/23/12
f 19/9/11 20/11/13 7/23/12
f 7/7/12 13/24/14 5/5/15
f 13/24/14 15/25/16 5/5/15
f 22/18/17 12/26/18 24/6/19
f 12/26/18 10/27/20 24/6/19
f 1/28/21 22/18/17 2/29/22
f 22/18/17 21/17/23 2/29/22
f 17/30/24 21/17/23 18/31/25
f 21/17/23 23/19/26 18/31/25
f 24/6/19 16/21/27 23/19/26
f 16/21/27 14/32/28 23/19/26
f 12/12/18 22/33/17 1/34/21
f 12/12/18 1/34/21 11/11/29
f 1/34/21 3/35/9 11/11/29
f 11/11/29 3/35/9 6/23/10
f 9/9/30 11/11/29 6/23/10
f 5/22/15 9/9/30 6/23/10
f 16/16/27 24/36/19 10/37/20
f 16/16/27 10/37/20 15/15/16
f 10/37/20 9/38/30 15/15/16
f 5/39/15 15/15/16 9/38/30
f 2/2/22 21/40/23 17/41/24
f 2/2/22 17/41/24 4/4/7
f 17/41/24 19/42/11 4/4/7
f 4/4/7 19/42/11 8/43/8
f 18/12/25 23/33/26 14/34/28
f 18/12/25 14/34/28 20/11/13
f 14/34/28 13/35/14 20/11/13
f 7/23/12 20/11/13 13/35/14
