# Blender 3.6.18
# www.blender.org
mtllib Mesh.516.mtl
o Bistro_Research_Exterior_paris_building_10_20__5529
v 44.528835 18.335049 42.421528
v 36.973877 18.335049 39.191273
v 42.069164 18.335049 48.174232
v 34.514202 18.335049 44.943974
v 44.528835 22.787159 42.421528
v 42.069164 22.787159 48.174232
v 36.973877 22.787159 39.191273
v 34.514202 22.787159 44.943974
v 36.187115 18.335049 38.854877
v 28.632158 18.335049 35.624619
v 33.727444 18.335049 44.607582
v 26.172485 18.335049 41.377323
v 36.187115 22.787159 38.854877
v 33.727444 22.787159 44.607582
v 28.632158 22.787159 35.624619
v 26.172485 22.787159 41.377323
v 36.895077 12.858697 37.199100
v 29.340117 12.858697 33.968842
v 34.435406 12.858697 42.951797
v 26.880447 12.858697 39.721542
v 36.895077 17.310808 37.199100
v 34.435406 17.310808 42.951797
v 29.340117 17.310808 33.968842
v 26.880447 17.310808 39.721542
v 45.236794 12.858697 40.765747
v 37.681835 12.858697 37.535492
v 42.777122 12.858696 46.518444
v 35.222160 12.858697 43.288189
v 45.236794 17.310808 40.765747
v 42.777122 17.310808 46.518444
v 37.681835 17.310808 37.535492
v 35.222160 17.310808 43.288189
v 45.236794 8.466594 40.765747
v 37.681835 8.466594 37.535492
v 42.777122 8.466594 46.518444
v 35.222160 8.466594 43.288189
v 45.236794 12.918706 40.765747
v 42.777122 12.918705 46.518444
v 37.681835 12.918706 37.535492
v 35.222160 12.918706 43.288189
v 36.895077 8.466594 37.199100
v 29.340117 8.466594 33.968842
v 34.435406 8.466594 42.951797
v 26.880447 8.466594 39.721542
v 36.895077 12.918706 37.199100
v 34.435406 12.918706 42.951797
v 29.340117 12.918706 33.968842
v 26.880447 12.918706 39.721542
v 40.387291 22.814482 40.755905
v 32.832329 22.814482 37.525646
v 37.927620 22.814482 46.508602
v 30.372660 22.814482 43.278351
v 39.804646 27.266594 42.118595
v 37.927620 27.266594 46.508602
v 32.249683 27.266594 38.888336
v 30.372660 27.266594 43.278351
vn -0.0039 1.0000 -0.0039
vn -0.0039 -1.0000 -0.0039
vn 0.9204 -0.0040 0.3911
vn 0.3882 -0.0039 -0.9216
vn -0.9187 -0.0039 -0.3949
vn 0.9204 -0.0039 0.3911
vt 0.718750 1.297119
vt 0.348633 1.297119
vt 0.718750 1.020325
vt 0.348633 1.020325
vt 0.503906 -0.532227
vt 0.503906 -0.380859
vt 0.302002 -0.532227
vt 0.302002 -0.380859
vt 1.000000 0.016602
vt 1.000000 1.000000
vt 0.832031 0.016602
vt 0.832031 1.000000
vt 0.159424 0.016602
vt 0.159424 1.000000
vt 0.000000 0.016602
vt 0.000000 1.000000
s 1
usemtl MASTER_Room_Interior
f 1/1/1 2/2/1 3/3/1
f 2/2/1 4/4/1 3/3/1
f 5/5/2 6/6/2 7/7/2
f 6/6/2 8/8/2 7/7/2
f 2/9/3 7/10/3 4/11/3
f 7/10/3 8/12/3 4/11/3
f 4/11/4 8/12/4 3/13/4
f 8/12/4 6/14/4 3/13/4
f 3/13/5 6/14/5 1/15/5
f 6/14/5 5/16/5 1/15/5
f 9/1/1 10/2/1 11/3/1
f 10/2/1 12/4/1 11/3/1
f 13/5/2 14/6/2 15/7/2
f 14/6/2 16/8/2 15/7/2
f 10/9/3 15/10/3 12/11/3
f 15/10/3 16/12/3 12/11/3
f 12/11/4 16/12/4 11/13/4
f 16/12/4 14/14/4 11/13/4
f 11/13/5 14/14/5 9/15/5
f 14/14/5 13/16/5 9/15/5
f 17/1/1 18/2/1 19/3/1
f 18/2/1 20/4/1 19/3/1
f 21/5/2 22/6/2 23/7/2
f 22/6/2 24/8/2 23/7/2
f 18/9/3 23/10/3 20/11/3
f 23/10/3 24/12/3 20/11/3
f 20/11/4 24/12/4 19/13/4
f 24/12/4 22/14/4 19/13/4
f 19/13/5 22/14/5 17/15/5
f 22/14/5 21/16/5 17/15/5
f 25/1/1 26/2/1 27/3/1
f 26/2/1 28/4/1 27/3/1
f 29/5/2 30/6/2 31/7/2
f 30/6/2 32/8/2 31/7/2
f 26/9/3 31/10/3 28/11/3
f 31/10/3 32/12/3 28/11/3
f 28/11/4 32/12/4 27/13/4
f 32/12/4 30/14/4 27/13/4
f 27/13/5 30/14/5 25/15/5
f 30/14/5 29/16/5 25/15/5
f 33/1/1 34/2/1 35/3/1
f 34/2/1 36/4/1 35/3/1
f 37/5/2 38/6/2 39/7/2
f 38/6/2 40/8/2 39/7/2
f 34/9/3 39/10/3 36/11/3
f 39/10/3 40/12/3 36/11/3
f 36/11/4 40/12/4 35/13/4
f 40/12/4 38/14/4 35/13/4
f 35/13/5 38/14/5 33/15/5
f 38/14/5 37/16/5 33/15/5
f 41/1/1 42/2/1 43/3/1
f 42/2/1 44/4/1 43/3/1
f 45/5/2 46/6/2 47/7/2
f 46/6/2 48/8/2 47/7/2
f 42/9/6 47/10/6 44/11/6
f 47/10/3 48/12/3 44/11/3
f 44/11/4 48/12/4 43/13/4
f 48/12/4 46/14/4 43/13/4
f 43/13/5 46/14/5 41/15/5
f 46/14/5 45/16/5 41/15/5
f 49/1/1 50/2/1 51/3/1
f 50/2/1 52/4/1 51/3/1
f 53/5/2 54/6/2 55/7/2
f 54/6/2 56/8/2 55/7/2
f 50/9/3 55/10/3 52/11/3
f 55/10/3 56/12/3 52/11/3
f 52/11/4 56/12/4 51/13/4
f 56/12/4 54/14/4 51/13/4
f 51/13/5 54/14/5 49/15/5
f 54/14/5 53/16/5 49/15/5
