# Blender 3.6.18
# www.blender.org
mtllib Mesh.568.mtl
o Bistro_Research_Exterior_Paris_Building_08_paris_buildi_1658d7c
v 29.734564 16.730843 -65.163994
v 29.734564 15.400227 -65.163994
v 31.528114 16.730843 -62.868355
v 31.528118 15.400227 -62.868355
v 29.498184 16.730843 -57.683891
v 29.498184 15.400227 -57.683891
v 28.175615 16.730841 -55.088203
v 28.175615 15.400227 -55.088203
v 31.591042 16.730843 -61.791367
v 31.591042 15.400227 -61.791367
v 30.214388 16.730843 -59.089527
v 30.214388 15.400227 -59.089527
vn -0.7919 -0.0039 0.6107
vn -0.7919 -0.0040 0.6106
vn -0.8905 -0.0039 -0.4550
vt 0.002096 0.989899
vt 0.002096 0.747314
vt 0.578613 0.989899
vt 0.578613 0.747314
s 1
usemtl MASTER_Forge_Metal
f 1/1/1 2/2/2 3/3/2
f 2/2/2 4/4/1 3/3/2
f 5/1/3 6/2/3 7/3/3
f 6/2/3 8/4/3 7/3/3
f 9/1/3 10/2/3 11/3/3
f 10/2/3 12/4/3 11/3/3
