# Blender 3.6.18
# www.blender.org
mtllib Mesh.484.mtl
o Bistro_Research_Exterior_paris_building_11_5593
v 1.809296 11.123056 20.058207
v 0.312635 11.123959 19.446213
v 1.769812 11.123056 20.154768
v 0.273150 11.123959 19.542774
v 0.305230 11.115962 19.443184
v 0.305230 8.381990 19.443184
v 0.265746 11.115962 19.539745
v 0.265746 8.381990 19.539745
v 0.312635 8.373991 19.446213
v 1.809296 8.373991 20.058208
v 0.273151 8.373991 19.542774
v 1.769812 8.373991 20.154768
v 1.816701 8.381990 20.061235
v 1.816701 11.115052 20.061235
v 1.777217 8.381990 20.157795
v 1.777217 11.115052 20.157799
v 1.701784 11.006557 20.004412
v 0.427044 11.007326 19.483162
v 1.801884 11.115063 20.046452
v 0.326166 11.115952 19.443020
v 0.416569 10.996016 19.478878
v 0.416569 8.501868 19.478878
v 0.315691 11.104641 19.438736
v 0.315691 8.393303 19.438738
v 0.427041 8.490555 19.483160
v 1.701781 8.490555 20.004410
v 0.326163 8.381989 19.443018
v 1.801882 8.381989 20.046450
v 1.712253 8.501868 20.008692
v 1.712252 10.995241 20.008692
v 1.812353 8.393303 20.050734
v 1.812353 11.103745 20.050734
v 1.676230 10.986996 20.022295
v 0.432741 10.987745 19.513823
v 1.691141 10.995340 20.007887
v 0.432196 10.996099 19.493099
v 0.424757 10.979126 19.510559
v 0.424758 8.518750 19.510559
v 0.424212 10.987479 19.489834
v 0.424212 8.510401 19.489834
v 0.432740 8.510126 19.513823
v 1.676229 8.510125 20.022293
v 0.432195 8.501777 19.493097
v 1.691141 8.501777 20.007887
v 1.684212 8.518750 20.025558
v 1.684212 10.978368 20.025562
v 1.699123 8.510401 20.011154
v 1.699123 10.986712 20.011156
v 1.606319 10.916864 20.000769
v 0.497710 10.917533 19.547451
v 1.660621 10.975782 20.023722
v 0.442882 10.976516 19.525780
v 0.487236 10.906223 19.543167
v 0.487236 8.591611 19.543167
v 0.432408 10.965206 19.521498
v 0.432408 8.532660 19.521500
v 0.497707 8.580297 19.547449
v 1.606316 8.580298 20.000765
v 0.442880 8.521347 19.525778
v 1.660618 8.521347 20.023720
v 1.616787 8.591612 20.005049
v 1.616787 10.905548 20.005049
v 1.671090 8.532660 20.028004
v 1.671090 10.964466 20.028004
v 1.572785 10.908869 20.070385
v 0.472851 10.909532 19.620617
v 1.598986 10.908869 20.006310
v 0.499053 10.909531 19.556540
v 0.465446 10.901536 19.617588
v 0.465446 8.596297 19.617588
v 0.491648 10.901536 19.553513
v 0.491648 8.596297 19.553511
v 0.472851 8.588297 19.620617
v 1.572785 8.588297 20.070387
v 0.499053 8.588297 19.556540
v 1.598986 8.588297 20.006311
v 1.580190 8.596297 20.073416
v 1.580190 10.900864 20.073416
v 1.606391 8.596297 20.009338
v 1.606391 10.900864 20.009336
vn -0.0039 1.0000 -0.0039
vn -0.9255 -0.0039 -0.3788
vn -0.0039 -1.0000 -0.0039
vn 0.9271 -0.0039 0.3748
vn 0.3721 0.0039 -0.9282
vn 0.3653 -0.0039 -0.9309
vn 0.3720 -0.0117 -0.9281
vn 0.3788 -0.0039 -0.9255
vn 0.1440 -0.9147 -0.3776
vn 0.9996 -0.0039 -0.0277
vn 0.1451 0.9134 -0.3803
vn 0.1450 0.9134 -0.3803
vn -0.6954 -0.0039 -0.7187
vn -0.6953 -0.0039 -0.7187
vn 0.3720 0.0117 -0.9282
vn 0.3720 0.0117 -0.9281
vn 0.3721 0.0117 -0.9281
vn 0.3626 -0.0039 -0.9319
vn 0.3720 -0.0196 -0.9280
vn 0.3882 -0.0039 -0.9216
vn 0.6535 0.7089 0.2654
vn 0.6739 0.6502 -0.3508
vn 0.8202 0.4906 -0.2943
vn 0.6739 0.6503 -0.3507
vn 0.4288 0.4367 -0.7908
vn -0.2390 0.6463 -0.7247
vn 0.2395 0.4358 -0.8676
vn -0.3859 0.4872 -0.7834
vn -0.6566 0.7037 -0.2713
vn -0.6566 0.7038 -0.2713
vn -0.0739 0.0973 -0.9925
vn -0.3844 -0.4931 -0.7804
vn -0.0739 -0.1050 -0.9917
vn -0.2377 -0.6509 -0.7210
vn -0.6530 -0.7077 -0.2698
vn 0.2387 -0.4421 -0.8646
vn 0.6686 -0.6530 -0.3558
vn 0.4274 -0.4430 -0.7881
vn 0.8170 -0.4965 -0.2932
vn 0.6498 -0.7128 0.2639
vn 0.6498 -0.7128 0.2638
vn 0.7413 -0.1059 -0.6628
vn 0.7418 0.0981 -0.6634
vn 0.0273 -0.5189 -0.8544
vn -0.1755 -0.2925 -0.9400
vn -0.0429 -0.4792 -0.8766
vn -0.1445 -0.3709 -0.9174
vn 0.6358 -0.4798 -0.6046
vn 0.7402 -0.3721 -0.5601
vn 0.5675 -0.5205 -0.6379
vn 0.7799 -0.2939 -0.5526
vn 0.7424 0.3653 -0.5617
vn 0.6382 0.4737 -0.6069
vn 0.7817 0.2868 -0.5538
vn 0.5698 0.5148 -0.6406
vn -0.0430 0.4732 -0.8799
vn -0.1448 0.3641 -0.9200
vn 0.0274 0.5131 -0.8579
vn -0.1759 0.2854 -0.9421
vn -0.1675 -0.7049 -0.6893
vn -0.4341 -0.4107 -0.8018
vn 0.5924 -0.7101 -0.3806
vn 0.8693 -0.4130 -0.2714
vn 0.8721 0.4065 -0.2723
vn 0.5957 0.7062 -0.3827
vn -0.1684 0.7009 -0.6931
vn -0.4355 0.4041 -0.8044
vn 0.2460 -0.2616 -0.9333
vn 0.1130 -0.1208 -0.9862
vn 0.1132 0.1132 -0.9871
vn 0.4672 -0.2630 -0.8441
vn 0.2465 0.2543 -0.9352
vn 0.4681 0.2557 -0.8458
vn 0.6017 0.1140 -0.7905
vn 0.6012 -0.1218 -0.7898
vn 0.2851 -0.3241 -0.9020
vn 0.0586 -0.0742 -0.9955
vn 0.4183 -0.3245 -0.8484
vn 0.1838 -0.3872 -0.9035
vn 0.0586 0.0664 -0.9961
vn -0.0195 -0.1675 -0.9857
vn 0.2858 0.3171 -0.9043
vn -0.0195 0.1599 -0.9869
vn 0.4194 0.3175 -0.8505
vn 0.1844 0.3805 -0.9062
vn 0.6484 0.0668 -0.7584
vn 0.4976 0.3801 -0.7797
vn 0.6480 -0.0746 -0.7580
vn 0.6978 0.1616 -0.6978
vn 0.6969 -0.1693 -0.6969
vn 0.4961 -0.3867 -0.7774
vt 0.337646 0.485352
vt 0.842773 0.485352
vt 0.337646 0.517822
vt 0.842773 0.517822
vt -0.199585 0.485352
vt 0.654297 0.485352
vt -0.199585 0.517822
vt 0.654297 0.517822
vt 0.156738 0.485352
vt 0.662109 0.485352
vt 0.156738 0.517822
vt 0.662109 0.517822
vt 0.345215 0.485352
vt 1.199219 0.485352
vt 0.345215 0.517822
vt 1.199219 0.517822
vt 0.375244 1.165405
vt 0.805664 1.165649
vt 0.341309 1.199341
vt 0.839355 1.199585
vt 0.809082 1.162109
vt 0.809082 0.382812
vt 0.842773 1.196045
vt 0.842773 0.349121
vt 0.805664 0.379395
vt 0.375244 0.379395
vt 0.839355 0.345703
vt 0.341309 0.345703
vt 0.371582 0.382812
vt 0.371582 1.161865
vt 0.337646 0.349121
vt 0.337646 1.195801
vt 0.619141 0.490723
vt 0.199463 0.490723
vt 0.621582 0.484863
vt 0.196899 0.484863
vt 1.156250 0.490723
vt 0.387939 0.490723
vt 1.159180 0.484863
vt 0.385254 0.484863
vt 0.800293 0.490723
vt 0.380615 0.490723
vt 0.802734 0.484863
vt 0.377930 0.484863
vt 0.611816 0.490723
vt -0.156616 0.490723
vt 0.614258 0.484863
vt -0.159180 0.484863
vt 0.403320 1.137451
vt 0.777344 1.137573
vt 0.384766 1.155762
vt 0.795898 1.156006
vt 0.780762 1.134033
vt 0.780762 0.411133
vt 0.799316 1.152466
vt 0.799316 0.392578
vt 0.777344 0.407715
vt 0.403320 0.407715
vt 0.795898 0.389160
vt 0.384766 0.389160
vt 0.399658 0.411133
vt 0.399658 1.133911
vt 0.381348 0.392578
vt 0.381348 1.152222
vt 0.594727 0.516846
vt 0.223755 0.516846
vt 0.594727 0.495117
vt 0.223755 0.495117
vt 1.131836 0.516846
vt 0.412109 0.516846
vt 1.131836 0.495117
vt 0.412109 0.495117
vt 0.775879 0.516846
vt 0.404785 0.516846
vt 0.775879 0.495117
vt 0.404785 0.495117
vt 0.587402 0.516846
vt -0.132446 0.516846
vt 0.587402 0.495117
vt -0.132446 0.495117
vt 1.201172 0.517822
vt 1.201172 0.485352
vt 0.341309 0.482910
vt 0.839355 0.482910
vt 0.845215 0.485352
vt 0.845215 0.517822
vt -0.196045 0.482910
vt 0.650879 0.482910
vt 0.656738 0.485352
vt 0.656738 0.517822
vt 0.160278 0.482910
vt 0.658203 0.482910
vt 0.664551 0.485352
vt 0.664551 0.517822
vt 0.348633 0.482910
vt 1.195312 0.482910
vt -0.161987 0.484863
vt -0.159302 0.490723
vt 0.196777 0.490723
vt 0.194214 0.484863
vt 0.385254 0.490723
vt 0.382568 0.484863
vt 0.377686 0.490723
vt 0.375244 0.484863
vt -0.134888 0.495117
vt -0.134888 0.516846
vt 0.221191 0.516846
vt 0.221191 0.495117
vt 0.409668 0.516846
vt 0.409668 0.495117
vt 0.402344 0.516846
vt 0.402344 0.495117
vt 0.335205 1.199341
vt 0.337646 1.201782
vt 0.375244 1.159180
vt 0.375244 0.385742
vt 0.377930 1.161987
vt 0.377930 0.382812
vt 0.802734 1.162109
vt 0.802734 0.382812
vt 0.335205 0.345703
vt 0.337646 0.343262
vt 0.805664 0.385742
vt 0.805664 1.159424
vt 0.842773 0.343262
vt 0.845215 0.345703
vt 0.845215 1.199585
vt 0.842773 1.202148
vt 0.380615 1.159302
vt 0.800293 1.159546
vt 0.377686 1.156616
vt 0.802734 1.156860
vt 0.377686 0.388184
vt 0.380615 0.385742
vt 0.800293 0.385742
vt 0.802734 0.388184
vt 0.778320 0.412598
vt 0.778320 1.132568
vt 0.775879 0.410156
vt 0.775879 1.135132
vt 0.404785 0.410156
vt 0.404785 1.134888
vt 0.402344 0.412598
vt 0.402344 1.132446
s 1
usemtl MASTER_Wood_Painted_Green
f 1/1/1 2/2/1 3/3/1
f 2/2/1 4/4/1 3/3/1
f 5/5/2 6/6/2 7/7/2
f 6/6/2 8/8/2 7/7/2
f 9/9/3 10/10/3 11/11/3
f 10/10/3 12/12/3 11/11/3
f 13/13/4 14/14/4 15/15/4
f 14/14/4 16/16/4 15/15/4
f 17/17/5 18/18/5 19/19/5
f 18/18/5 20/20/5 19/19/5
f 21/21/6 22/22/6 23/23/6
f 22/22/6 24/24/6 23/23/6
f 25/25/7 26/26/7 27/27/7
f 26/26/7 28/28/7 27/27/7
f 29/29/8 30/30/8 31/31/8
f 30/30/8 32/32/8 31/31/8
f 33/33/9 34/34/9 35/35/9
f 34/34/9 36/36/9 35/35/9
f 37/37/10 38/38/10 39/39/10
f 38/38/10 40/40/10 39/39/10
f 41/41/11 42/42/12 43/43/11
f 42/42/12 44/44/12 43/43/11
f 45/45/13 46/46/14 47/47/13
f 46/46/14 48/48/13 47/47/13
f 49/49/15 50/50/16 51/51/17
f 50/50/16 52/52/17 51/51/17
f 53/53/18 54/54/18 55/55/18
f 54/54/18 56/56/18 55/55/18
f 57/57/19 58/58/19 59/59/19
f 58/58/19 60/60/19 59/59/19
f 61/61/20 62/62/20 63/63/20
f 62/62/20 64/64/20 63/63/20
f 65/65/3 66/66/3 67/67/3
f 66/66/3 68/68/3 67/67/3
f 69/69/4 70/70/4 71/71/4
f 70/70/4 72/72/4 71/71/4
f 73/73/1 74/74/1 75/75/1
f 74/74/1 76/76/1 75/75/1
f 77/77/2 78/78/2 79/79/2
f 78/78/2 80/80/2 79/79/2
f 3/81/21 16/16/21 1/82/22
f 16/16/21 14/14/23 1/82/24
f 1/1/24 19/83/25 2/2/26
f 19/83/25 20/84/27 2/2/26
f 2/2/26 5/85/28 4/4/29
f 5/85/28 7/86/30 4/4/30
f 5/5/28 23/87/31 6/6/32
f 23/87/31 24/88/33 6/6/32
f 6/6/32 9/89/34 8/8/35
f 9/89/34 11/90/35 8/8/35
f 9/9/34 27/91/36 10/10/37
f 27/91/36 28/92/38 10/10/37
f 10/10/37 13/93/39 12/12/40
f 13/93/39 15/94/41 12/12/40
f 13/13/39 31/95/42 14/14/23
f 31/95/42 32/96/43 14/14/23
f 35/97/44 48/48/45 33/98/46
f 48/48/45 46/46/47 33/98/46
f 34/34/48 37/99/49 36/36/50
f 37/99/49 39/100/51 36/36/50
f 38/38/52 41/101/53 40/40/54
f 41/101/53 43/102/55 40/40/54
f 42/42/56 45/103/57 44/44/58
f 45/103/57 47/104/59 44/44/58
f 67/105/60 80/80/61 65/106/35
f 80/80/61 78/78/35 65/106/35
f 66/66/40 69/107/40 68/68/62
f 69/107/40 71/108/63 68/68/62
f 70/70/21 73/109/21 72/72/64
f 73/109/21 75/110/65 72/72/64
f 74/74/30 77/111/30 76/76/66
f 77/111/30 79/112/67 76/76/66
f 14/113/23 32/32/43 1/114/24
f 32/32/43 19/19/25 1/114/24
f 19/19/25 32/32/43 17/17/68
f 32/32/43 30/30/69 17/17/68
f 30/30/69 48/115/45 17/17/68
f 47/116/59 48/115/45 30/30/69
f 48/115/45 35/117/44 17/17/68
f 29/29/70 47/116/59 30/30/69
f 17/17/68 35/117/44 18/18/71
f 44/118/58 47/116/59 29/29/70
f 35/117/44 36/119/50 18/18/71
f 26/26/72 44/118/58 29/29/70
f 43/120/55 44/118/58 26/26/72
f 26/26/72 29/29/70 28/28/38
f 29/29/70 31/31/42 28/28/38
f 28/28/38 31/31/42 13/121/39
f 10/122/37 28/28/38 13/121/39
f 25/25/73 43/120/55 26/26/72
f 40/123/54 43/120/55 25/25/73
f 22/22/74 40/123/54 25/25/73
f 39/124/51 40/123/54 22/22/74
f 22/22/74 25/25/73 24/24/33
f 25/25/73 27/27/36 24/24/33
f 24/24/33 27/27/36 9/125/34
f 6/126/32 24/24/33 9/125/34
f 21/21/75 39/124/51 22/22/74
f 36/119/50 39/124/51 21/21/75
f 18/18/71 36/119/50 21/21/75
f 18/18/71 21/21/75 20/20/27
f 21/21/75 23/23/31 20/20/27
f 20/20/27 23/23/31 5/127/28
f 2/128/26 20/20/27 5/127/28
f 33/129/46 51/51/76 34/130/48
f 64/64/77 51/51/76 33/129/46
f 46/131/47 64/64/77 33/129/46
f 51/51/76 52/52/78 34/130/48
f 51/51/76 64/64/77 49/49/79
f 34/130/48 52/52/78 37/132/49
f 63/63/80 64/64/77 46/131/47
f 45/133/57 63/63/80 46/131/47
f 64/64/77 62/62/81 49/49/79
f 60/60/82 63/63/80 45/133/57
f 42/134/56 60/60/82 45/133/57
f 61/61/83 63/63/80 60/60/82
f 59/59/84 60/60/82 42/134/56
f 41/135/53 59/59/84 42/134/56
f 58/58/85 61/61/83 60/60/82
f 56/56/86 59/59/84 41/135/53
f 38/136/52 56/56/86 41/135/53
f 57/57/87 59/59/84 56/56/86
f 55/55/88 56/56/86 38/136/52
f 37/132/49 55/55/88 38/136/52
f 52/52/78 55/55/88 37/132/49
f 54/54/89 57/57/87 56/56/86
f 53/53/90 55/55/88 52/52/78
f 50/50/91 53/53/90 52/52/78
f 54/54/89 72/137/64 57/57/87
f 71/138/63 72/137/64 54/54/89
f 53/53/90 71/138/63 54/54/89
f 72/137/64 75/139/65 57/57/87
f 57/57/87 75/139/65 58/58/85
f 68/140/62 71/138/63 53/53/90
f 50/50/91 68/140/62 53/53/90
f 75/139/65 76/141/66 58/58/85
f 67/142/60 68/140/62 50/50/91
f 58/58/85 76/141/66 61/61/83
f 49/49/79 67/142/60 50/50/91
f 76/141/66 79/143/67 61/61/83
f 80/144/61 67/142/60 49/49/79
f 61/61/83 79/143/67 62/62/81
f 62/62/81 80/144/61 49/49/79
f 79/143/67 80/144/61 62/62/81
