# Blender 3.6.18
# www.blender.org
mtllib Mesh.1075.mtl
o Bistro_Research_Exterior_Paris_Building_01_paris_buildi_4a65f65
v -1.127729 12.424771 -0.516362
v -0.010301 12.424770 1.789838
v 0.064657 12.797226 1.704886
v -1.034238 12.797227 -0.550392
v 0.286154 13.546422 1.496435
v -1.780401 12.424771 -1.935350
v -0.771421 13.546422 -0.645332
v -0.482897 14.215086 -0.772043
v -1.686906 12.797227 -1.969378
v 0.538813 14.215085 1.255907
v -0.071680 14.798387 -0.900732
v 0.873455 14.798386 0.932100
v -2.774595 12.797227 -4.394224
v -2.887670 12.424771 -4.401289
v -2.470577 13.546423 -4.403447
v -1.398018 13.546422 -2.085858
v -1.097649 14.215086 -2.195280
v -2.121840 14.215086 -4.412026
v -0.705931 14.798387 -2.357744
v -1.656245 14.798387 -4.419687
v -0.232508 15.283715 -2.545158
v -1.080362 15.283715 -4.435645
v 0.401912 15.283715 -1.088770
v 1.291950 15.283714 0.536171
v 0.272085 15.692285 -2.751566
v -0.478691 15.692284 -4.447439
v 0.911933 15.692285 -1.302597
v 1.668902 15.692283 0.152530
v 0.779590 16.004257 -2.942754
v 0.118338 16.004257 -4.464670
v 1.412024 16.004257 -1.536529
v 2.102443 16.004255 -0.256973
v 1.381628 16.210344 -3.127672
v 0.835123 16.210344 -4.499514
v 2.014823 16.210344 -1.823066
v 2.619486 16.210344 -0.733722
v 2.341024 16.390741 -3.448335
v 1.777343 16.390741 -4.556463
v 2.775070 16.390741 -2.203597
v 3.140039 16.390741 -1.231219
v 3.526345 16.210344 -0.192631
v 2.414076 16.004255 -0.100171
v 3.822245 16.004255 0.619528
v 2.250510 15.692283 0.427640
v 3.668490 15.692283 1.054358
v 4.079973 15.692283 1.158018
v 2.085559 15.283714 0.901930
v 3.547491 15.283714 1.514133
v 4.317473 15.283714 1.815736
v 1.934254 14.798386 1.404889
v 3.393201 14.798386 2.020581
v 1.806648 14.215085 1.815510
v 4.549265 14.798386 2.455270
v 3.273200 14.215085 2.429404
v 1.716411 13.546420 2.122871
v 4.735301 14.215085 2.968813
v 3.182967 13.546420 2.736760
v 1.633957 12.797226 2.371791
v 4.880611 13.546420 3.366422
v 3.105514 12.797226 2.987498
v 1.609567 12.424770 2.461882
v 5.001112 12.797227 3.695285
v 3.081671 12.424770 3.077790
v 5.055972 12.424770 3.837554
v 1.536356 16.210344 -5.604438
v 0.467695 16.004257 -5.053520
v 1.240983 16.004257 -6.416789
v 0.051796 15.692284 -5.299926
v 0.758172 15.692284 -6.612781
v 0.999809 15.692284 -7.075474
v -0.420124 15.283715 -5.583101
v 0.293295 15.283715 -6.908367
v 0.758973 15.283715 -7.731980
v -0.889899 14.798387 -5.824791
v -0.140204 14.798387 -7.189283
v -1.247668 14.215086 -6.053625
v 0.525452 14.798387 -8.370884
v -0.494915 14.215086 -7.425325
v -1.514042 13.546422 -6.230814
v 0.337864 14.215086 -8.883861
v -0.761603 13.546422 -7.602772
v -1.737277 12.797227 -6.368554
v 0.193601 13.546422 -9.281851
v -0.982110 12.797227 -7.745063
v -1.814078 12.424771 -6.422057
v 0.074520 12.797228 -9.611231
v -1.058411 12.424771 -7.798905
v 0.025096 12.424771 -9.755480
vn -0.8748 0.2550 0.4119
vn -0.8702 0.2615 0.4176
vn -0.8595 0.3022 0.4121
vn -0.8655 0.2859 0.4112
vn -0.8281 0.3885 0.4042
vn -0.8822 0.2549 0.3960
vn -0.8280 0.3885 0.4042
vn -0.7705 0.5123 0.3794
vn -0.8736 0.2938 0.3878
vn -0.7735 0.5065 0.3809
vn -0.6547 0.6860 0.3175
vn -0.6723 0.6565 0.3420
vn -0.8716 0.3010 0.3870
vn -0.8849 0.2556 0.3894
vn -0.8382 0.3896 0.3817
vn -0.8356 0.3962 0.3805
vn -0.7834 0.5079 0.3583
vn -0.7895 0.4989 0.3575
vn -0.6718 0.6796 0.2946
vn -0.6953 0.6482 0.3104
vn -0.5920 0.7646 0.2549
vn -0.5944 0.7597 0.2637
vn -0.5832 0.7633 0.2779
vn -0.5775 0.7582 0.3025
vn -0.5058 0.8352 0.2157
vn -0.5141 0.8280 0.2237
vn -0.4973 0.8341 0.2389
vn -0.4986 0.8284 0.2552
vn -0.3726 0.9139 0.1608
vn -0.3888 0.9072 0.1610
vn -0.3654 0.9154 0.1689
vn -0.3644 0.9129 0.1841
vn -0.2312 0.9680 0.0980
vn -0.2404 0.9657 0.0985
vn -0.2328 0.9667 0.1065
vn -0.2398 0.9631 0.1219
vn -0.1773 0.9813 0.0749
vn -0.1925 0.9778 0.0825
vn -0.2089 0.9737 0.0907
vn -0.1541 0.9520 0.2647
vn -0.1303 0.9674 0.2172
vn -0.1458 0.9577 0.2483
vn -0.1855 0.9116 0.3670
vn -0.1849 0.9089 0.3738
vn -0.1923 0.8754 0.4436
vn -0.2491 0.8184 0.5179
vn -0.2480 0.8150 0.5236
vn -0.2800 0.7531 0.5954
vn -0.2083 0.8058 0.5543
vn -0.1855 0.7932 0.5801
vn -0.2713 0.7512 0.6017
vn -0.3120 0.6518 0.6913
vn -0.2481 0.7522 0.6104
vn -0.2335 0.7480 0.6213
vn -0.2946 0.6874 0.6638
vn -0.3506 0.5002 0.7917
vn -0.2714 0.6884 0.6727
vn -0.3513 0.5093 0.7856
vn -0.2797 0.6342 0.7208
vn -0.3736 0.3814 0.8455
vn -0.3030 0.5076 0.8066
vn -0.3736 0.3815 0.8455
vn -0.3105 0.4914 0.8137
vn -0.3812 0.2947 0.8763
vn -0.3274 0.3827 0.8639
vn -0.3802 0.2783 0.8820
vn -0.3262 0.3733 0.8685
vn -0.3800 0.2546 0.8893
vn -0.3505 0.2796 0.8939
vn -0.3807 0.2473 0.8910
vn -0.3420 0.2948 0.8923
vn -0.3646 0.2470 0.8978
vn -0.3495 0.2631 0.8992
vn -0.2480 0.9565 -0.1535
vn -0.2554 0.9546 -0.1532
vn -0.2005 0.9711 -0.1297
vn -0.3741 0.9017 -0.2166
vn -0.4034 0.8811 -0.2467
vn -0.4114 0.8816 -0.2312
vn -0.5076 0.8066 -0.3030
vn -0.4976 0.8189 -0.2860
vn -0.5752 0.7473 -0.3326
vn -0.4998 0.8225 -0.2715
vn -0.5136 0.8116 -0.2784
vn -0.5695 0.7580 -0.3181
vn -0.6792 0.6321 -0.3730
vn -0.5675 0.7632 -0.3092
vn -0.5767 0.7493 -0.3256
vn -0.6450 0.6763 -0.3557
vn -0.7729 0.4826 -0.4120
vn -0.6404 0.6797 -0.3575
vn -0.7638 0.4975 -0.4113
vn -0.6752 0.6284 -0.3864
vn -0.8245 0.3634 -0.4337
vn -0.7491 0.5060 -0.4275
vn -0.8221 0.3702 -0.4325
vn -0.7592 0.4867 -0.4322
vn -0.8470 0.2849 -0.4488
vn -0.8033 0.3801 -0.4585
vn -0.8476 0.2695 -0.4570
vn -0.8084 0.3710 -0.4569
vn -0.8549 0.2459 -0.4567
vn -0.8375 0.2766 -0.4713
vn -0.8519 0.2451 -0.4629
vn -0.8314 0.2928 -0.4723
vn -0.8466 0.2458 -0.4721
vn -0.8410 0.2621 -0.4733
vt 5.101562 0.000488
vt 5.796875 0.000488
vt 5.781250 0.108398
vt 5.101562 0.107910
vt 5.750000 0.330078
vt 4.679688 0.000488
vt 5.101562 0.330566
vt 5.097656 0.538086
vt 4.683594 0.107422
vt 5.714844 0.537842
vt 5.117188 0.739502
vt 5.675781 0.746094
vt 3.964844 0.108398
vt 3.949219 0.000488
vt 3.996094 0.329590
vt 4.687500 0.330566
vt 4.691406 0.535889
vt 4.027344 0.535889
vt 4.691406 0.739502
vt 4.074219 0.734131
vt 4.691406 0.934937
vt 4.128906 0.930481
vt 5.121094 0.932495
vt 5.625000 0.956024
vt 4.691406 1.123230
vt 4.187500 1.119568
vt 5.121094 1.121704
vt 5.566406 1.140259
vt 4.699219 1.295166
vt 4.246094 1.294189
vt 5.117188 1.296143
vt 5.511719 1.320801
vt 4.714844 1.475830
vt 4.312500 1.486572
vt 5.109375 1.487793
vt 5.449219 1.513672
vt 4.738281 1.754395
vt 4.402344 1.733398
vt 5.097656 1.724609
vt 5.382812 1.705566
vt 2.972656 1.533691
vt 2.736328 1.774414
vt 2.656250 1.567383
vt 2.679688 1.361572
vt 2.574219 1.366699
vt 3.152344 1.338135
vt 2.503906 1.182495
vt 2.697266 1.174683
vt 2.441406 0.995682
vt 3.162109 1.172241
vt 3.289062 1.187622
vt 2.703125 0.983902
vt 2.365234 0.789185
vt 3.179688 0.987373
vt 3.429688 0.989967
vt 2.714844 0.772461
vt 2.298828 0.577637
vt 3.193359 0.776489
vt 2.712891 0.562012
vt 3.564453 0.780396
vt 2.250000 0.355469
vt 3.203125 0.568115
vt 2.716797 0.349609
vt 3.669922 0.568604
vt 2.212891 0.116699
vt 3.207031 0.351074
vt 2.724609 0.117188
vt 3.750000 0.351074
vt 2.201172 0.000488
vt 3.207031 0.116699
vt 2.728516 0.000488
vt 3.816406 0.116699
vt 3.208984 0.000488
vt 3.845703 0.000488
vt 6.722656 1.563477
vt 7.113281 1.547852
vt 6.957031 1.789551
vt 7.027344 1.359863
vt 7.230469 1.358154
vt 6.554688 1.359863
vt 7.324219 1.181885
vt 7.023438 1.188965
vt 7.421875 0.989113
vt 6.578125 1.181885
vt 6.421875 1.177612
vt 7.023438 0.985619
vt 7.515625 0.787842
vt 6.570312 0.980179
vt 6.285156 0.979767
vt 7.035156 0.773071
vt 7.593750 0.580078
vt 6.562500 0.772583
vt 7.035156 0.562256
vt 6.152344 0.771606
vt 7.652344 0.361816
vt 6.550781 0.567139
vt 7.035156 0.347168
vt 6.050781 0.560547
vt 7.699219 0.124512
vt 6.550781 0.354492
vt 7.031250 0.115723
vt 5.972656 0.340332
vt 7.714844 0.000488
vt 6.554688 0.122559
vt 7.027344 0.000488
vt 5.910156 0.103516
vt 6.554688 0.001953
vt 5.886719 0.000488
s 1
usemtl MASTER_Roofing_Shingle_Green
f 1/1/1 2/2/2 3/3/3
f 4/4/4 1/1/1 3/3/3
f 4/4/4 3/3/3 5/5/5
f 6/6/6 1/1/1 4/4/4
f 7/7/7 4/4/4 5/5/5
f 7/7/7 5/5/5 8/8/8
f 9/9/9 6/6/6 4/4/4
f 5/5/5 10/10/10 8/8/8
f 8/8/8 10/10/10 11/11/11
f 10/10/10 12/12/12 11/11/11
f 9/9/9 13/13/13 6/6/6
f 13/13/13 14/14/14 6/6/6
f 15/15/15 13/13/13 9/9/9
f 16/16/16 15/15/15 9/9/9
f 16/16/16 17/17/17 15/15/15
f 17/17/17 18/18/18 15/15/15
f 17/17/17 19/19/19 18/18/18
f 19/19/19 20/20/20 18/18/18
f 19/19/19 21/21/21 20/20/20
f 21/21/21 22/22/22 20/20/20
f 21/21/21 19/19/19 23/23/23
f 19/19/19 11/11/11 23/23/23
f 11/11/11 12/12/12 23/23/23
f 12/12/12 24/24/24 23/23/23
f 21/21/21 25/25/25 22/22/22
f 21/21/21 23/23/23 25/25/25
f 25/25/25 26/26/26 22/22/22
f 23/23/23 24/24/24 27/27/27
f 23/23/23 27/27/27 25/25/25
f 24/24/24 28/28/28 27/27/27
f 25/25/25 29/29/29 26/26/26
f 29/29/29 30/30/30 26/26/26
f 25/25/25 27/27/27 31/31/31
f 27/27/27 28/28/28 31/31/31
f 29/29/29 25/25/25 31/31/31
f 28/28/28 32/32/32 31/31/31
f 29/29/29 33/33/33 30/30/30
f 33/33/33 34/34/34 30/30/30
f 31/31/31 35/35/35 29/29/29
f 31/31/31 32/32/32 35/35/35
f 35/35/35 33/33/33 29/29/29
f 32/32/32 36/36/36 35/35/35
f 34/34/34 33/33/33 37/37/37
f 37/37/37 33/33/33 35/35/35
f 38/38/37 34/34/34 37/37/37
f 39/39/38 37/37/37 35/35/35
f 39/39/38 35/35/35 36/36/36
f 40/40/39 39/39/38 36/36/36
f 41/41/40 40/42/41 36/43/42
f 41/41/40 36/43/42 42/44/43
f 42/44/43 36/43/42 32/45/44
f 43/46/45 41/41/40 42/44/43
f 32/45/44 28/47/46 42/44/43
f 28/47/46 44/48/47 42/44/43
f 43/46/45 42/44/43 44/48/47
f 44/48/47 28/47/46 24/49/48
f 45/50/49 43/46/45 44/48/47
f 43/46/45 45/50/49 46/51/50
f 47/52/51 44/48/47 24/49/48
f 45/50/49 44/48/47 47/52/51
f 24/49/48 12/53/52 47/52/51
f 45/50/49 48/54/53 46/51/50
f 48/54/53 45/50/49 47/52/51
f 48/54/53 49/55/54 46/51/50
f 12/53/52 50/56/55 47/52/51
f 50/56/55 12/53/52 10/57/56
f 48/54/53 47/52/51 51/58/57
f 47/52/51 50/56/55 51/58/57
f 49/55/54 48/54/53 51/58/57
f 52/59/58 50/56/55 10/57/56
f 53/60/59 49/55/54 51/58/57
f 10/57/56 5/61/60 52/59/58
f 51/58/57 54/62/61 53/60/59
f 5/61/60 55/63/62 52/59/58
f 54/62/61 56/64/63 53/60/59
f 55/63/62 5/61/60 3/65/64
f 56/64/63 54/62/61 57/66/65
f 58/67/66 55/63/62 3/65/64
f 59/68/67 56/64/63 57/66/65
f 3/65/64 2/69/68 58/67/66
f 59/68/67 57/66/65 60/70/69
f 2/69/68 61/71/70 58/67/66
f 62/72/71 59/68/67 60/70/69
f 61/71/70 63/73/72 58/67/66
f 63/73/72 60/70/69 58/67/66
f 64/74/73 62/72/71 60/70/69
f 63/73/72 64/74/73 60/70/69
f 65/75/74 34/76/75 38/77/76
f 66/78/77 34/76/75 65/75/74
f 66/78/77 30/79/78 34/76/75
f 67/80/79 66/78/77 65/75/74
f 30/79/78 66/78/77 26/81/80
f 66/78/77 68/82/81 26/81/80
f 68/82/81 66/78/77 67/80/79
f 22/83/82 26/81/80 68/82/81
f 69/84/83 68/82/81 67/80/79
f 67/80/79 70/85/84 69/84/83
f 71/86/85 22/83/82 68/82/81
f 71/86/85 68/82/81 69/84/83
f 22/83/82 71/86/85 20/87/86
f 69/84/83 70/85/84 72/88/87
f 72/88/87 71/86/85 69/84/83
f 70/85/84 73/89/88 72/88/87
f 71/86/85 74/90/89 20/87/86
f 18/91/90 20/87/86 74/90/89
f 72/88/87 75/92/91 71/86/85
f 75/92/91 74/90/89 71/86/85
f 75/92/91 72/88/87 73/89/88
f 76/93/92 18/91/90 74/90/89
f 77/94/93 75/92/91 73/89/88
f 18/91/90 76/93/92 15/95/94
f 75/92/91 77/94/93 78/96/95
f 76/93/92 79/97/96 15/95/94
f 77/94/93 80/98/97 78/96/95
f 13/99/98 15/95/94 79/97/96
f 81/100/99 78/96/95 80/98/97
f 82/101/100 13/99/98 79/97/96
f 83/102/101 81/100/99 80/98/97
f 13/99/98 82/101/100 14/103/102
f 84/104/103 81/100/99 83/102/101
f 82/101/100 85/105/104 14/103/102
f 86/106/105 84/104/103 83/102/101
f 85/105/104 82/101/100 87/107/106
f 82/101/100 84/104/103 87/107/106
f 84/104/103 86/106/105 88/108/107
f 87/107/106 84/104/103 88/108/107
