# Blender 3.6.18
# www.blender.org
mtllib Mesh.741.mtl
o Bistro_Research_Exterior_paris_building_05_5053
v 26.888092 16.991146 -50.898842
v 26.593365 16.991146 -50.485111
v 26.642151 16.991146 -50.450363
v 26.936878 16.991146 -50.864090
v 26.642151 16.895023 -50.450363
v 26.936878 16.895023 -50.864090
v 26.888092 16.895025 -50.898842
v 26.593365 16.895023 -50.485111
v 26.931522 14.291605 -50.861923
v 26.887409 14.291605 -50.893341
v 26.887407 16.899364 -50.893341
v 26.931519 16.899364 -50.861923
v 26.886330 16.899364 -50.798481
v 26.886330 14.291605 -50.798481
v 26.842218 14.291605 -50.829910
v 26.842218 16.899364 -50.829910
v 26.649776 16.892868 -50.532471
v 26.854118 16.892868 -50.819324
v 26.854118 14.294684 -50.819324
v 26.649780 14.294683 -50.532471
v 26.595699 14.291605 -50.483849
v 26.639812 14.291605 -50.452423
v 26.639812 16.899364 -50.452423
v 26.595697 16.899364 -50.483849
v 26.640890 16.899364 -50.547283
v 26.640890 14.291605 -50.547283
v 26.685003 14.291605 -50.515865
v 26.685003 16.899364 -50.515865
v 26.888092 14.291189 -50.898842
v 26.593365 14.291189 -50.485111
v 26.642151 14.291189 -50.450363
v 26.936878 14.291189 -50.864090
v 26.642151 14.195069 -50.450363
v 26.936878 14.195069 -50.864090
v 26.888092 14.195070 -50.898842
v 26.593365 14.195069 -50.485111
v 26.593390 16.991146 -50.485142
v 26.298666 16.991146 -50.071415
v 26.347450 16.991146 -50.036667
v 26.642178 16.991146 -50.450394
v 26.347450 16.895023 -50.036667
v 26.642178 16.895023 -50.450394
v 26.593390 16.895025 -50.485142
v 26.298666 16.895023 -50.071415
v 26.636824 14.291605 -50.448227
v 26.592707 14.291605 -50.479649
v 26.592707 16.899364 -50.479649
v 26.636820 16.899364 -50.448227
v 26.591631 16.899364 -50.384789
v 26.591631 14.291605 -50.384789
v 26.547518 14.291605 -50.416210
v 26.547518 16.899364 -50.416210
v 26.354355 16.892868 -50.117764
v 26.558697 16.892868 -50.404617
v 26.558697 14.294684 -50.404617
v 26.354355 14.294683 -50.117764
v 26.303324 14.291605 -50.073418
v 26.347435 14.291605 -50.041996
v 26.347435 16.899364 -50.041996
v 26.303324 16.899364 -50.073418
v 26.348516 16.899364 -50.136852
v 26.348516 14.291605 -50.136852
v 26.392628 14.291605 -50.105431
v 26.392628 16.899364 -50.105431
v 26.593390 14.291189 -50.485142
v 26.298666 14.291189 -50.071415
v 26.347450 14.291189 -50.036667
v 26.642178 14.291189 -50.450394
v 26.347450 14.195069 -50.036667
v 26.642178 14.195069 -50.450394
v 26.593390 14.195070 -50.485142
v 26.298666 14.195069 -50.071415
vn -0.0039 1.0000 -0.0039
vn 0.8153 -0.0040 0.5790
vn 0.8153 -0.0039 0.5790
vn -0.8143 -0.0039 -0.5805
vn 0.5753 -0.0039 -0.8179
vn -0.5842 -0.0039 0.8116
vn -0.0039 -1.0000 -0.0039
vt 0.327881 0.353027
vt 0.327881 0.432129
vt 0.318604 0.432129
vt 0.318604 0.353027
vt 0.315430 0.432129
vt 0.300537 0.432129
vt 0.300537 0.352539
vt 0.315430 0.352539
vt 0.270020 0.352051
vt 0.284912 0.352051
vt 0.284912 0.431641
vt 0.270020 0.431641
vt 0.269775 0.345215
vt 0.269775 0.335938
vt 0.284912 0.335938
vt 0.284912 0.345215
vt 0.288086 0.345215
vt 0.288086 0.335938
vt 0.303223 0.335938
vt 0.303223 0.345215
vt 0.287842 0.352539
vt 0.297363 0.352539
vt 0.297363 0.432129
vt 0.287842 0.432129
vt 0.858398 0.978256
vt 0.848633 0.978256
vt 0.848633 0.570801
vt 0.858398 0.570801
vt 0.812012 0.571289
vt 0.812012 0.978668
vt 0.799805 0.978668
vt 0.799805 0.571289
vt 0.845215 0.572021
vt 0.845215 0.979340
vt 0.833008 0.979340
vt 0.833008 0.572021
vt 0.827637 0.980072
vt 0.817871 0.980072
vt 0.817871 0.572754
vt 0.827637 0.572754
vt 0.377197 0.011230
vt 0.432373 0.011230
vt 0.432373 0.416992
vt 0.377197 0.416992
s 1
usemtl MASTER_Building_Details
f 1/1/1 2/2/1 3/3/1
f 3/3/1 4/4/1 1/1/1
f 3/5/2 5/6/2 6/7/2
f 6/7/2 4/8/3 3/5/2
f 1/9/4 7/10/4 8/11/4
f 8/11/4 2/12/4 1/9/4
f 1/13/5 4/14/5 6/15/5
f 6/15/5 7/16/5 1/13/5
f 3/17/6 2/18/6 8/19/6
f 8/19/6 5/20/6 3/17/6
f 7/21/7 6/22/7 5/23/7
f 5/23/7 8/24/7 7/21/7
f 9/25/5 10/26/5 11/27/5
f 11/27/5 12/28/5 9/25/5
f 9/29/3 12/30/3 13/31/3
f 13/31/3 14/32/3 9/29/3
f 11/33/4 10/34/4 15/35/4
f 15/35/4 16/36/4 11/33/4
f 15/37/6 14/38/6 13/39/6
f 13/39/6 16/40/6 15/37/6
f 17/41/4 18/42/4 19/43/4
f 19/43/4 20/44/4 17/41/4
f 21/25/6 22/26/6 23/27/6
f 23/27/6 24/28/6 21/25/6
f 21/29/4 24/30/4 25/31/4
f 25/31/4 26/32/4 21/29/4
f 23/33/3 22/34/3 27/35/3
f 27/35/3 28/36/3 23/33/3
f 27/37/5 26/38/5 25/39/5
f 25/39/5 28/40/5 27/37/5
f 29/1/1 30/2/1 31/3/1
f 31/3/1 32/4/1 29/1/1
f 31/5/3 33/6/2 34/7/3
f 34/7/3 32/8/3 31/5/3
f 29/9/4 35/10/4 36/11/4
f 36/11/4 30/12/4 29/9/4
f 29/13/5 32/14/5 34/15/5
f 34/15/5 35/16/5 29/13/5
f 31/17/6 30/18/6 36/19/6
f 36/19/6 33/20/6 31/17/6
f 35/21/7 34/22/7 33/23/7
f 33/23/7 36/24/7 35/21/7
f 37/1/1 38/2/1 39/3/1
f 39/3/1 40/4/1 37/1/1
f 39/5/2 41/6/2 42/7/2
f 42/7/2 40/8/3 39/5/2
f 37/9/4 43/10/4 44/11/4
f 44/11/4 38/12/4 37/9/4
f 37/13/5 40/14/5 42/15/5
f 42/15/5 43/16/5 37/13/5
f 39/17/6 38/18/6 44/19/6
f 44/19/6 41/20/6 39/17/6
f 43/21/7 42/22/7 41/23/7
f 41/23/7 44/24/7 43/21/7
f 45/25/5 46/26/5 47/27/5
f 47/27/5 48/28/5 45/25/5
f 45/29/2 48/30/2 49/31/2
f 49/31/3 50/32/3 45/29/3
f 47/33/4 46/34/4 51/35/4
f 51/35/4 52/36/4 47/33/4
f 51/37/6 50/38/6 49/39/6
f 49/39/6 52/40/6 51/37/6
f 53/41/4 54/42/4 55/43/4
f 55/43/4 56/44/4 53/41/4
f 57/25/6 58/26/6 59/27/6
f 59/27/6 60/28/6 57/25/6
f 57/29/4 60/30/4 61/31/4
f 61/31/4 62/32/4 57/29/4
f 59/33/3 58/34/3 63/35/3
f 63/35/3 64/36/3 59/33/3
f 63/37/5 62/38/5 61/39/5
f 61/39/5 64/40/5 63/37/5
f 65/1/1 66/2/1 67/3/1
f 67/3/1 68/4/1 65/1/1
f 67/5/2 69/6/2 70/7/3
f 70/7/3 68/8/3 67/5/2
f 65/9/4 71/10/4 72/11/4
f 72/11/4 66/12/4 65/9/4
f 65/13/5 68/14/5 70/15/5
f 70/15/5 71/16/5 65/13/5
f 67/17/6 66/18/6 72/19/6
f 72/19/6 69/20/6 67/17/6
f 71/21/7 70/22/7 69/23/7
f 69/23/7 72/24/7 71/21/7
