# Blender 3.6.18
# www.blender.org
mtllib Mesh.413.mtl
o Bistro_Research_Exterior_paris_building_11_5751
v 10.483031 5.634692 24.402231
v 10.524563 5.634692 24.300667
v 10.862160 5.634692 24.557259
v 10.903690 5.634692 24.455696
v 10.808636 6.568564 23.605955
v 10.811992 6.712574 23.597748
v 11.187764 6.568564 23.760983
v 11.191120 6.712574 23.752777
v 10.835272 6.756301 23.540813
v 10.836493 6.845217 23.537827
v 11.214400 6.756301 23.695843
v 11.215622 6.845217 23.692856
v 10.830657 6.861206 23.552101
v 10.461900 6.861206 24.453907
v 11.209785 6.861207 23.707129
v 10.841029 6.861207 24.608934
v 10.818306 6.731626 23.582304
v 10.829110 6.737230 23.555883
v 11.197434 6.731627 23.737333
v 11.208239 6.737230 23.710913
v 10.456120 6.845222 24.468044
v 10.476700 5.650676 24.417713
v 10.835249 6.845222 24.623074
v 10.855828 5.650676 24.572742
v 11.224371 6.845206 23.713732
v 10.856121 6.845207 24.614302
v 10.447372 6.845206 24.447163
v 10.815622 6.845206 23.546591
v 10.802275 6.550213 23.621510
v 11.181404 6.550214 23.776539
v 11.126065 6.528211 23.911871
v 10.746936 6.528211 23.756844
v 11.067395 6.494164 24.055349
v 10.688267 6.494164 23.900320
v 11.014043 6.440791 24.185825
v 10.634914 6.440791 24.030796
v 10.968665 6.358429 24.296799
v 10.589538 6.358429 24.141769
v 10.937021 6.230557 24.374184
v 10.557892 6.230557 24.219156
v 10.919874 6.057203 24.416117
v 10.540747 6.057203 24.261089
v 10.912395 5.853528 24.434410
v 10.533266 5.853528 24.279381
v 10.909940 5.650684 24.440413
v 10.530811 5.650683 24.285383
v 11.223113 6.753569 23.716810
v 10.787710 6.566491 23.614853
v 11.196459 6.566491 23.781994
v 10.814364 6.753569 23.549669
v 10.918691 5.650692 24.461287
v 10.921158 5.854558 24.455252
v 10.928703 6.060017 24.436798
v 10.946221 6.237128 24.393959
v 10.979061 6.369829 24.313648
v 11.026025 6.455071 24.198793
v 11.080474 6.509541 24.065638
v 11.139773 6.543953 23.920620
v 10.731025 6.543953 23.753479
v 10.671726 6.509541 23.898497
v 10.617278 6.455071 24.031654
v 10.570313 6.369829 24.146507
v 10.537473 6.237128 24.226818
v 10.519957 6.060017 24.269657
v 10.512409 5.854558 24.288113
v 10.509943 5.650692 24.294146
v 10.467953 5.650692 24.396833
v 10.791797 6.741864 23.604860
v 10.876700 5.650692 24.563974
v 11.200544 6.741864 23.772001
vn -0.0039 -1.0000 -0.0039
vn 0.3712 -0.0664 -0.9262
vn 0.3717 -0.0430 -0.9273
vn -0.0039 1.0000 -0.0039
vn 0.0664 -0.9807 -0.1836
vn 0.0664 -0.9807 -0.1837
vn -0.3811 -0.0511 0.9231
vn -0.3810 -0.0510 0.9232
vn 0.8841 0.4440 -0.1454
vn 0.6030 0.7528 -0.2641
vn 0.5335 0.4386 0.7232
vn 0.2496 0.7488 0.6141
vn -0.8898 0.4351 0.1372
vn -0.6165 0.7421 0.2631
vn -0.5342 0.4406 -0.7214
vn -0.2543 0.7471 -0.6141
vn -0.2914 -0.3303 -0.8977
vn -0.4015 -0.6743 -0.6197
vn 0.8331 -0.3325 -0.4420
vn 0.7172 -0.6781 -0.1607
vn -0.1444 0.4410 -0.8858
vn 0.7176 0.4431 -0.5373
vn -0.7269 0.4362 0.5305
vn 0.1304 0.4386 0.8891
vn 0.0508 -0.9882 -0.1445
vn 0.0666 -0.9835 -0.1685
vn 0.1055 -0.9572 -0.2696
vn 0.1677 -0.8856 -0.4331
vn 0.2699 -0.7002 -0.6610
vn 0.2699 -0.7001 -0.6610
vn 0.3395 -0.4097 -0.8467
vn 0.3718 -0.1759 -0.9115
vn 0.3717 -0.1760 -0.9115
vn 0.3718 -0.0352 -0.9276
vn 0.3719 -0.0352 -0.9276
vn 0.7157 -0.4185 -0.5592
vn 0.8643 -0.4538 -0.2170
vn -0.2302 -0.7297 -0.6439
vn -0.4796 -0.4640 -0.7448
vn -0.1291 -0.4419 -0.8877
vn 0.6083 -0.7339 -0.3022
vn 0.7107 -0.4437 -0.5458
vn 0.8608 -0.4678 -0.2005
vn -0.2219 -0.7124 -0.6657
vn -0.4714 -0.4480 -0.7597
vn -0.1286 -0.4168 -0.8998
vn 0.6157 -0.7176 -0.3255
vn 0.8678 -0.4751 -0.1453
vn 0.7055 -0.4769 -0.5242
vn 0.9204 -0.0509 -0.3877
vn 0.9154 -0.1297 -0.3811
vn 0.9006 -0.2871 -0.3264
vn 0.8469 -0.4924 -0.2009
vn 0.7770 -0.6286 -0.0351
vn 0.7284 -0.6811 0.0748
vn 0.6997 -0.6997 0.1446
vn -0.6039 -0.6975 -0.3857
vn -0.5808 -0.6743 -0.4561
vn -0.5808 -0.6743 -0.4560
vn -0.5320 -0.6253 -0.5709
vn -0.5321 -0.6253 -0.5709
vn -0.4710 -0.4866 -0.7358
vn -0.4177 -0.2850 -0.8627
vn -0.3944 -0.1288 -0.9099
vn -0.3877 -0.0509 -0.9204
vn -0.3878 -0.0509 -0.9204
vn -0.5269 -0.4723 -0.7066
vn -0.1443 -0.4719 -0.8697
vn -0.8675 -0.4785 0.1361
vn -0.7097 -0.4822 0.5136
vn -0.9255 -0.0039 -0.3788
vn 0.5222 -0.4830 0.7028
vn 0.1380 -0.4850 0.8636
vn 0.9206 -0.3800 -0.0901
vn -0.6024 -0.3770 -0.7035
vn 0.9271 -0.0039 0.3748
vn 0.9271 -0.0040 0.3748
vn -0.2533 -0.7678 -0.5885
vn 0.5897 -0.7693 -0.2460
vn -0.5969 -0.7686 0.2302
vn 0.2545 -0.7713 0.5834
vt 0.591797 1.385010
vt 0.625977 1.385010
vt 0.591797 1.512695
vt 0.625977 1.512695
vt 0.576172 1.385010
vt 0.621094 1.385010
vt 0.576172 1.512695
vt 0.621094 1.512695
vt 0.634766 1.385010
vt 0.662598 1.385010
vt 0.634766 1.512695
vt 0.662598 1.512695
vt 0.120972 1.385010
vt 0.425293 1.385010
vt 0.120972 1.512695
vt 0.425293 1.512695
vt 0.868652 1.385010
vt 0.877441 1.385010
vt 0.868652 1.512695
vt 0.877441 1.512695
vt 0.336914 1.385010
vt 0.709961 1.385010
vt 0.336914 1.512695
vt 0.709961 1.512695
vt 0.121155 1.517578
vt 0.425049 1.517578
vt 0.425049 1.379883
vt 0.121155 1.379883
vt 0.627441 1.385010
vt 0.627441 1.512695
vt 0.667969 1.385010
vt 0.667969 1.512695
vt 0.331787 1.385010
vt 0.331787 1.512695
vt 0.855469 1.385010
vt 0.855469 1.512695
vt 0.809570 1.512695
vt 0.809570 1.385010
vt 0.761230 1.512695
vt 0.761230 1.385010
vt 0.717285 1.512695
vt 0.717285 1.385010
vt 0.679688 1.512695
vt 0.679688 1.385010
vt 0.510742 1.385010
vt 0.510742 1.512695
vt 0.470703 1.512695
vt 0.470703 1.385010
vt 0.416748 1.512695
vt 0.416748 1.385010
vt 0.353027 1.512695
vt 0.353027 1.385010
vt 0.289551 1.512695
vt 0.289551 1.385010
vt 0.883301 0.663086
vt 0.878906 0.668213
vt 0.878418 0.663086
vt 0.882324 0.635254
vt 0.877441 0.634521
vt 0.570801 1.385010
vt 0.575684 1.379883
vt 0.570801 1.512695
vt 0.575684 1.517578
vt 0.628906 1.385010
vt 0.634277 1.379883
vt 0.628906 1.512695
vt 0.634277 1.517578
vt 0.625977 0.290039
vt 0.631348 0.290039
vt 0.628418 0.353516
vt 0.633301 0.353516
vt 0.634277 0.417969
vt 0.639160 0.416992
vt 0.648926 0.473145
vt 0.653320 0.471191
vt 0.675781 0.514648
vt 0.679688 0.510986
vt 0.714844 0.541260
vt 0.717285 0.536865
vt 0.759766 0.558350
vt 0.761230 0.553467
vt 0.808594 0.569092
vt 0.809570 0.563965
vt 0.855469 0.575928
vt 0.855469 0.571045
vt 0.144165 0.575928
vt 0.144409 0.571045
vt 0.191040 0.569092
vt 0.190063 0.563965
vt 0.239990 0.558350
vt 0.238525 0.553467
vt 0.284912 0.541260
vt 0.282471 0.536865
vt 0.323730 0.514648
vt 0.320068 0.510986
vt 0.350830 0.473145
vt 0.346191 0.471191
vt 0.365234 0.417969
vt 0.360352 0.416992
vt 0.371338 0.353516
vt 0.366455 0.353516
vt 0.373535 0.290039
vt 0.368408 0.290039
vt 0.408203 0.290039
vt 0.413086 0.290039
vt 0.425049 0.663086
vt 0.430176 0.663086
vt 0.425293 0.668213
vt 0.140869 0.630859
vt 0.122253 0.634521
vt 0.121155 0.663086
vt 0.574219 0.668213
vt 0.569336 0.663086
vt 0.574707 0.663086
vt 0.591309 0.290039
vt 0.586426 0.290039
vt 0.116211 0.663086
vt 0.120972 0.668213
vt 0.117188 0.635254
vt 0.868652 0.627686
vt 0.877441 0.629395
vt 0.858887 0.630859
vt 0.863281 0.621582
vt 0.860352 0.576660
vt 0.136353 0.621582
vt 0.139160 0.576660
vt 0.131226 0.627686
vt 0.122253 0.629395
vt 0.625977 1.379883
vt 0.631348 1.385010
vt 0.591309 1.379883
vt 0.631348 1.512695
vt 0.586426 1.385010
vt 0.625977 1.517578
vt 0.586426 1.512695
vt 0.591309 1.517578
s 1
usemtl MASTER_Concrete_Plaster
f 1/1/1 2/2/1 3/3/1
f 2/2/1 4/4/1 3/3/1
f 5/5/2 6/6/2 7/7/2
f 6/6/2 8/8/2 7/7/2
f 9/9/3 10/10/3 11/11/3
f 10/10/3 12/12/3 11/11/3
f 13/13/4 14/14/4 15/15/4
f 14/14/4 16/16/4 15/15/4
f 17/17/5 18/18/6 19/19/5
f 18/18/6 20/20/5 19/19/5
f 21/21/7 22/22/7 23/23/8
f 22/22/7 24/24/7 23/23/8
f 25/25/9 15/15/10 26/26/11
f 15/15/10 16/16/12 26/26/11
f 27/27/13 14/14/14 28/28/15
f 14/14/14 13/13/16 28/28/15
f 6/6/17 17/29/18 8/8/19
f 17/29/18 19/30/20 8/8/19
f 10/10/21 13/31/16 12/12/22
f 13/31/16 15/32/10 12/12/22
f 14/33/14 21/21/23 16/34/12
f 21/21/23 23/23/24 16/34/12
f 29/35/25 30/36/25 31/37/26
f 32/38/26 29/35/25 31/37/26
f 32/38/26 31/37/26 33/39/27
f 34/40/27 32/38/26 33/39/27
f 34/40/27 33/39/27 35/41/28
f 36/42/28 34/40/27 35/41/28
f 36/42/28 35/41/28 37/43/29
f 38/44/30 36/42/28 37/43/29
f 38/45/30 37/46/29 39/47/31
f 40/48/31 38/45/30 39/47/31
f 40/48/31 39/47/31 41/49/32
f 42/50/33 40/48/31 41/49/32
f 42/50/33 41/49/32 43/51/2
f 44/52/2 42/50/33 43/51/2
f 44/52/2 43/51/2 45/53/34
f 46/54/35 44/52/2 45/53/34
f 12/55/22 15/56/10 25/57/9
f 11/58/36 12/55/22 25/57/9
f 47/59/37 11/58/36 25/57/9
f 29/60/38 48/61/39 5/5/40
f 29/60/38 5/5/40 30/62/41
f 5/5/40 7/7/42 30/62/41
f 30/62/41 7/7/42 49/63/43
f 18/64/44 50/65/45 9/9/46
f 20/66/47 18/64/44 9/9/46
f 11/11/36 20/66/47 9/9/46
f 20/66/47 11/11/36 47/67/37
f 51/68/48 45/69/49 52/70/50
f 45/69/49 43/71/50 52/70/50
f 52/70/50 43/71/50 53/72/51
f 43/71/50 41/73/51 53/72/51
f 53/72/51 41/73/51 54/74/52
f 41/73/51 39/75/52 54/74/52
f 54/74/52 39/75/52 55/76/53
f 39/75/52 37/77/53 55/76/53
f 55/76/53 37/77/53 56/78/54
f 37/77/53 35/79/54 56/78/54
f 56/78/54 35/79/54 57/80/55
f 35/79/54 33/81/55 57/80/55
f 57/80/55 33/81/55 58/82/56
f 33/81/55 31/83/56 58/82/56
f 58/82/56 31/83/56 49/84/43
f 31/83/56 30/85/41 49/84/43
f 48/86/39 29/87/38 59/88/57
f 29/87/38 32/89/57 59/88/57
f 59/88/57 32/89/57 60/90/58
f 32/89/57 34/91/59 60/90/58
f 60/90/58 34/91/59 61/92/60
f 34/91/59 36/93/61 61/92/60
f 61/92/60 36/93/61 62/94/62
f 36/93/61 38/95/62 62/94/62
f 62/94/62 38/95/62 63/96/63
f 38/95/62 40/97/63 63/96/63
f 63/96/63 40/97/63 64/98/64
f 40/97/63 42/99/64 64/98/64
f 64/98/64 42/99/64 65/100/65
f 42/99/64 44/101/66 65/100/65
f 65/100/65 44/101/66 66/102/67
f 44/101/66 46/103/68 66/102/67
f 67/104/69 22/105/70 27/106/13
f 22/105/70 21/107/23 27/106/13
f 14/108/14 27/106/13 21/107/23
f 66/102/71 67/104/71 65/100/71
f 65/100/71 67/104/71 64/98/71
f 67/104/71 27/106/71 64/98/71
f 27/106/71 63/96/71 64/98/71
f 62/94/71 63/96/71 27/106/71
f 61/92/71 62/94/71 27/106/71
f 60/90/71 61/92/71 27/106/71
f 59/88/71 60/90/71 27/106/71
f 48/86/71 59/88/71 27/106/71
f 68/109/71 48/86/71 27/106/71
f 50/110/71 68/109/71 27/106/71
f 28/111/71 50/110/71 27/106/71
f 16/112/12 23/113/24 26/114/11
f 26/114/11 23/113/24 69/115/72
f 23/113/24 24/116/73 69/115/72
f 10/117/21 28/111/15 13/118/16
f 28/111/15 10/117/21 50/110/45
f 10/117/21 9/119/46 50/110/45
f 19/120/20 20/121/47 47/59/37
f 70/122/74 19/120/20 47/59/37
f 8/123/19 19/120/20 70/122/74
f 7/124/42 8/123/19 70/122/74
f 49/84/43 7/124/42 70/122/74
f 6/125/17 5/126/40 48/86/39
f 68/109/75 6/125/17 48/86/39
f 6/125/17 68/109/75 17/127/18
f 18/128/44 17/127/18 68/109/75
f 50/110/45 18/128/44 68/109/75
f 49/84/76 70/122/76 58/82/76
f 58/82/76 70/122/76 57/80/76
f 47/59/77 25/57/76 70/122/76
f 70/122/76 25/57/76 57/80/76
f 25/57/76 26/114/76 57/80/76
f 26/114/76 56/78/76 57/80/76
f 55/76/76 56/78/76 26/114/76
f 54/74/76 55/76/76 26/114/76
f 53/72/76 54/74/76 26/114/76
f 52/70/76 53/72/76 26/114/76
f 51/68/76 52/70/76 26/114/76
f 69/115/76 51/68/76 26/114/76
f 2/2/78 66/129/67 46/130/68
f 66/129/67 2/2/78 67/131/69
f 2/2/78 46/130/68 4/4/79
f 2/2/78 1/1/80 67/131/69
f 46/130/68 45/132/49 4/4/79
f 22/133/70 67/131/69 1/1/80
f 51/134/48 4/4/79 45/132/49
f 24/135/73 22/133/70 1/1/80
f 3/3/81 4/4/79 51/134/48
f 3/3/81 24/135/73 1/1/80
f 69/136/72 3/3/81 51/134/48
f 24/135/73 3/3/81 69/136/72
