# Blender 3.6.18
# www.blender.org
mtllib Mesh.427.mtl
o Bistro_Research_Exterior_paris_building_11_5719
v 8.855948 10.160341 23.049643
v 10.100900 10.160342 23.558712
v 10.123260 10.150637 23.504030
v 8.878309 10.150636 22.994961
v 10.126248 10.149340 23.496721
v 8.881296 10.149339 22.987652
v 8.880405 10.098518 22.989834
v 10.125357 10.098519 23.498901
v 10.122368 10.097247 23.506212
v 8.877417 10.097247 22.997143
v 10.099563 10.087550 23.561981
v 8.854611 10.087550 23.052914
v 10.126108 10.141347 23.497066
v 8.881157 10.141347 22.987995
v 10.125498 10.106510 23.498558
v 8.880546 10.106510 22.989487
vn 0.0590 0.9864 -0.1533
vn 0.0590 0.9864 -0.1532
vn 0.2867 0.6245 -0.7265
vn 0.2772 -0.6676 -0.6910
vn 0.0585 -0.9866 -0.1521
vn 0.3716 -0.0509 -0.9270
vn 0.3716 -0.0508 -0.9270
vt 0.410156 0.525879
vt -0.009987 0.525879
vt -0.009987 0.507568
vt 0.410156 0.507568
vt -0.009987 0.505127
vt 0.410156 0.505127
vt 0.589355 0.505859
vt 1.009766 0.505859
vt 1.009766 0.508301
vt 0.589355 0.508301
vt 1.009766 0.527100
vt 0.589355 0.527100
vt 0.589355 0.379883
vt 1.009766 0.379883
vt 1.009766 0.382324
vt 0.589355 0.382324
vt 1.009766 0.393555
vt 0.589355 0.393555
vt 1.009766 0.395996
vt 0.589355 0.395996
s 1
usemtl MASTER_Wood_Painted_Green
f 1/1/1 2/2/1 3/3/2
f 4/4/1 1/1/1 3/3/2
f 4/4/1 3/3/2 5/5/3
f 6/6/3 4/4/1 5/5/3
f 7/7/4 8/8/4 9/9/5
f 10/10/5 7/7/4 9/9/5
f 10/10/5 9/9/5 11/11/5
f 12/12/5 10/10/5 11/11/5
f 6/13/3 5/14/3 13/15/6
f 14/16/7 6/13/3 13/15/6
f 14/16/7 13/15/6 15/17/7
f 16/18/7 14/16/7 15/17/7
f 16/18/7 15/17/7 8/19/4
f 7/20/4 16/18/7 8/19/4
