# Blender 3.6.18
# www.blender.org
mtllib Mesh.650.mtl
o Bistro_Research_Exterior_paris_building_05_43__5243
v 37.408909 2.671884 16.612671
v 35.660263 2.671884 15.908301
v 37.408909 2.704893 16.612671
v 35.660263 2.704893 15.908301
v 37.442085 2.671882 16.691999
v 35.581364 2.671882 15.942485
v 37.444702 2.678672 16.698263
v 35.575134 2.678672 15.945185
v 35.575134 2.704891 15.945185
v 37.444702 2.704891 16.698263
v 35.785297 2.704890 15.573653
v 35.654736 2.704893 15.895261
v 35.785297 2.671881 15.573653
v 35.654736 2.671884 15.895261
v 35.730209 2.671881 15.551465
v 35.575809 2.671882 15.929437
v 35.569576 2.678672 15.932133
v 35.723907 2.678671 15.548929
v 35.723907 2.704890 15.548929
v 35.569576 2.704891 15.932133
v 37.550747 2.704890 16.284792
v 37.550747 2.671881 16.284792
v 37.421936 2.704893 16.607105
v 37.421936 2.671884 16.607105
v 37.605839 2.671881 16.306984
v 37.455135 2.671882 16.686441
v 37.612133 2.678671 16.309523
v 37.457756 2.678672 16.692707
v 37.612133 2.704890 16.309523
v 37.457756 2.704891 16.692707
v 35.553867 2.713715 15.951456
v 37.455685 2.713715 16.717522
v 35.530891 2.728844 15.958230
v 37.467552 2.728844 16.738333
v 37.470863 2.747317 16.744144
v 35.524475 2.747317 15.960121
v 37.464462 2.763402 16.732916
v 35.536869 2.763402 15.956466
v 37.444702 2.770911 16.698263
v 35.575134 2.770911 15.945185
v 37.406353 2.770913 16.606438
v 35.666424 2.770913 15.905581
v 37.399090 2.767634 16.588699
v 35.683956 2.767634 15.897827
v 37.394211 2.759139 16.576794
v 35.695724 2.759139 15.892628
v 37.391758 2.747317 16.570803
v 35.701641 2.747317 15.890010
v 37.391960 2.734396 16.571295
v 35.701157 2.734396 15.890224
v 37.395573 2.723299 16.580116
v 35.692440 2.723299 15.894079
v 37.401627 2.713717 16.594904
v 35.677826 2.713717 15.900538
v 35.707809 2.713715 15.542445
v 35.548309 2.713715 15.938402
v 35.690262 2.728844 15.535378
v 35.525330 2.728844 15.945176
v 35.685429 2.747316 15.533431
v 35.518917 2.747317 15.947069
v 35.531315 2.763402 15.943416
v 35.694912 2.763402 15.537250
v 35.569576 2.770911 15.932133
v 35.723907 2.770910 15.548929
v 35.660892 2.770913 15.892541
v 35.789772 2.770910 15.575457
v 35.678444 2.767634 15.884793
v 35.802521 2.767631 15.580589
v 35.690216 2.759139 15.879597
v 35.811073 2.759136 15.584035
v 35.696140 2.747317 15.876980
v 35.815376 2.747314 15.585770
v 35.815025 2.734392 15.585626
v 35.695660 2.734396 15.877195
v 35.808685 2.723296 15.583073
v 35.686932 2.723299 15.881046
v 35.798065 2.713715 15.578794
v 35.672306 2.713717 15.887504
v 37.628231 2.713715 16.316006
v 37.468735 2.713715 16.711967
v 37.645775 2.728844 16.323076
v 37.480606 2.728844 16.732779
v 37.650612 2.747316 16.325022
v 37.483921 2.747317 16.738588
v 37.477516 2.763402 16.727360
v 37.641129 2.763402 16.321203
v 37.457756 2.770911 16.692707
v 37.612133 2.770910 16.309523
v 37.419376 2.770913 16.600872
v 37.546272 2.770910 16.282990
v 37.412098 2.767634 16.583126
v 37.533527 2.767631 16.277853
v 37.407215 2.759139 16.571218
v 37.524975 2.759136 16.274408
v 37.404758 2.747317 16.565228
v 37.520668 2.747314 16.272676
v 37.521027 2.734392 16.272816
v 37.404964 2.734396 16.565716
v 37.527363 2.723296 16.275370
v 37.408581 2.723299 16.574541
v 37.537987 2.713715 16.279650
v 37.414646 2.713717 16.589331
vn -0.0039 -1.0000 -0.0039
vn 0.3721 -0.0039 -0.9282
vn -0.0040 -1.0000 -0.0039
vn -0.3816 -0.0040 0.9243
vn -0.3815 -0.0040 0.9244
vn -0.3815 -0.0039 0.9244
vn 0.9269 -0.0040 0.3752
vn 0.9271 -0.0040 0.3748
vn -0.0047 -1.0000 -0.0019
vn -0.9255 -0.0039 -0.3788
vn -0.9255 -0.0039 -0.3787
vn -0.9282 -0.0039 -0.3721
vn -0.0058 -1.0000 0.0007
vn -0.0038 -1.0000 -0.0040
vn -0.0039 -1.0000 -0.0040
vn 0.9283 -0.0040 0.3718
vn 0.9271 -0.0039 0.3748
vn 0.9276 -0.0039 0.3737
vn -0.2713 -0.7038 0.6566
vn -0.3666 -0.2248 0.9028
vn -0.3666 -0.2247 0.9028
vn -0.1143 0.9577 0.2640
vn -0.1143 0.9577 0.2641
vn -0.0039 1.0000 -0.0039
vn 0.0827 0.9728 -0.2166
vn 0.0827 0.9727 -0.2166
vn 0.3411 0.3646 -0.8664
vn 0.3719 -0.0352 -0.9276
vn 0.3718 -0.0352 -0.9276
vn 0.3153 -0.5255 -0.7902
vn 0.2376 -0.7672 -0.5958
vn 0.2375 -0.7672 -0.5958
vn 0.1993 -0.8403 -0.5042
vn -0.5821 -0.7774 -0.2383
vn -0.5835 -0.7774 -0.2349
vn -0.8916 -0.2761 -0.3590
vn -0.8905 -0.2761 -0.3616
vn -0.2239 0.9704 -0.0904
vn -0.2240 0.9704 -0.0903
vn 0.2166 0.9727 0.0827
vn 0.6346 0.7292 0.2562
vn 0.9265 -0.0355 0.3746
vn 0.7905 -0.5231 0.3186
vn 0.5944 -0.7675 0.2401
vn 0.5943 -0.7675 0.2401
vn 0.4983 -0.8436 0.2001
vn 0.5776 -0.7824 0.2327
vn 0.5780 -0.7824 0.2320
vn 0.5779 -0.7824 0.2320
vn 0.8914 -0.2788 0.3573
vn 0.2150 0.9728 0.0866
vn -0.6392 0.7255 -0.2549
vn -0.9276 -0.0352 -0.3718
vn -0.7945 -0.5198 -0.3139
vn -0.7935 -0.5198 -0.3166
vn -0.6033 -0.7589 -0.2452
vn -0.5092 -0.8357 -0.2060
vn -0.5092 -0.8356 -0.2060
vt 0.794434 0.161133
vt 0.205444 0.161133
vt 0.794434 0.150879
vt 0.205444 0.150879
vt 0.794434 0.037109
vt 0.812988 0.056641
vt 0.205444 0.037109
vt 0.186523 0.056641
vt 0.814453 0.059082
vt 0.185059 0.059082
vt 0.185059 0.067383
vt 0.814453 0.067383
vt 0.042969 0.436523
vt 0.150635 0.436523
vt 0.043030 0.447266
vt 0.151245 0.447266
vt 0.154663 0.436035
vt 0.043152 0.465820
vt 0.155273 0.445312
vt 0.170288 0.466309
vt 0.173950 0.463867
vt 0.175537 0.467285
vt 0.171631 0.468750
vt 0.043213 0.468750
vt 0.043365 0.476562
vt 0.172363 0.476562
vt 0.176758 0.475098
vt 0.177979 0.234375
vt 0.177856 0.245117
vt 0.070190 0.234375
vt 0.065613 0.243164
vt 0.066101 0.233887
vt 0.069519 0.245117
vt 0.177734 0.263672
vt 0.046967 0.261719
vt 0.050537 0.264160
vt 0.177612 0.266602
vt 0.049255 0.266602
vt 0.045380 0.265137
vt 0.177490 0.274414
vt 0.044128 0.272949
vt 0.048492 0.274414
vt 0.179565 0.072266
vt 0.820312 0.072266
vt 0.173706 0.079102
vt 0.826172 0.079102
vt 0.827637 0.084961
vt 0.172119 0.084961
vt 0.824707 0.090332
vt 0.175293 0.090332
vt 0.814941 0.098633
vt 0.185059 0.098633
vt 0.792969 0.120605
vt 0.206909 0.120605
vt 0.788574 0.125000
vt 0.211060 0.125000
vt 0.786133 0.128906
vt 0.213867 0.128906
vt 0.784668 0.132812
vt 0.215332 0.132812
vt 0.784668 0.137207
vt 0.215210 0.137207
vt 0.786621 0.141113
vt 0.213135 0.141113
vt 0.790039 0.145996
vt 0.209717 0.145996
vt 0.043274 0.482910
vt 0.176270 0.483398
vt 0.042999 0.490234
vt 0.180054 0.480957
vt 0.180542 0.490723
vt 0.042877 0.496094
vt 0.184448 0.489258
vt 0.181519 0.496094
vt 0.185547 0.496582
vt 0.179443 0.501709
vt 0.042999 0.501953
vt 0.183105 0.503906
vt 0.171997 0.511475
vt 0.043213 0.511963
vt 0.175293 0.514648
vt 0.149902 0.533447
vt 0.043365 0.534180
vt 0.153198 0.536377
vt 0.145752 0.537842
vt 0.043427 0.538574
vt 0.149292 0.540527
vt 0.142822 0.542236
vt 0.043427 0.542480
vt 0.146851 0.543945
vt 0.141479 0.546631
vt 0.043457 0.546631
vt 0.145752 0.547119
vt 0.043457 0.551025
vt 0.141602 0.551025
vt 0.145874 0.550049
vt 0.043396 0.555176
vt 0.143555 0.555420
vt 0.147461 0.553467
vt 0.043335 0.559814
vt 0.147095 0.560303
vt 0.043304 0.564941
vt 0.150635 0.557861
vt 0.151367 0.565430
vt 0.154785 0.562744
vt 0.177612 0.280762
vt 0.040863 0.278809
vt 0.044617 0.281250
vt 0.177856 0.288086
vt 0.036407 0.287109
vt 0.040375 0.288574
vt 0.177979 0.293945
vt 0.035370 0.294434
vt 0.039368 0.293945
vt 0.037781 0.301758
vt 0.041473 0.299805
vt 0.177856 0.299805
vt 0.045624 0.312500
vt 0.048920 0.309570
vt 0.177612 0.310059
vt 0.067688 0.334473
vt 0.070923 0.331543
vt 0.177490 0.332031
vt 0.071655 0.338379
vt 0.075134 0.335938
vt 0.177490 0.336426
vt 0.074036 0.341797
vt 0.078003 0.340332
vt 0.177490 0.340332
vt 0.075134 0.345215
vt 0.079407 0.344727
vt 0.177490 0.344727
vt 0.074951 0.348145
vt 0.177490 0.348633
vt 0.079285 0.349121
vt 0.073364 0.351562
vt 0.177490 0.353027
vt 0.077271 0.353516
vt 0.070190 0.355957
vt 0.177612 0.357910
vt 0.073730 0.358398
vt 0.066101 0.360840
vt 0.177612 0.362793
vt 0.069519 0.363281
s 1
usemtl MASTER_Black_Metal
f 1/1/1 2/2/1 3/3/2
f 2/2/1 4/4/2 3/3/2
f 1/5/1 5/6/1 2/7/1
f 5/6/1 6/8/3 2/7/1
f 6/8/3 5/6/1 7/9/4
f 8/10/5 6/8/3 7/9/4
f 8/10/5 7/9/4 9/11/6
f 7/9/4 10/12/4 9/11/6
f 11/13/7 12/14/8 13/15/1
f 12/14/8 14/16/1 13/15/1
f 12/14/8 4/17/2 14/16/1
f 13/15/1 14/16/1 15/18/9
f 4/17/2 2/19/1 14/16/1
f 14/16/1 2/19/1 16/20/1
f 14/16/1 16/20/1 15/18/9
f 2/19/1 6/21/3 16/20/1
f 6/21/3 8/22/5 16/20/1
f 16/20/1 17/23/10 15/18/9
f 8/22/5 17/23/10 16/20/1
f 17/23/10 18/24/10 15/18/9
f 18/24/10 17/23/10 19/25/10
f 17/23/10 20/26/11 19/25/10
f 17/23/10 8/22/5 20/26/11
f 8/22/5 9/27/6 20/26/11
f 21/28/12 22/29/13 23/30/12
f 1/31/1 3/32/2 23/30/12
f 22/29/13 24/33/14 23/30/12
f 24/33/14 1/31/1 23/30/12
f 22/29/13 25/34/15 24/33/14
f 5/35/1 1/31/1 24/33/14
f 25/34/15 26/36/1 24/33/14
f 26/36/1 5/35/1 24/33/14
f 25/34/15 27/37/16 26/36/1
f 5/35/1 26/36/1 28/38/17
f 27/37/16 28/38/17 26/36/1
f 7/39/4 5/35/1 28/38/17
f 27/37/16 29/40/18 28/38/17
f 7/39/4 28/38/17 10/41/4
f 29/40/18 30/42/8 28/38/17
f 28/38/17 30/42/8 10/41/4
usemtl MASTER_Wood_Brown
f 9/11/6 10/12/4 31/43/19
f 10/12/4 32/44/19 31/43/19
f 31/43/19 32/44/19 33/45/19
f 32/44/19 34/46/19 33/45/19
f 34/46/19 35/47/20 33/45/19
f 35/47/20 36/48/21 33/45/19
f 35/47/20 37/49/22 36/48/21
f 37/49/22 38/50/23 36/48/21
f 37/49/22 39/51/24 38/50/23
f 39/51/24 40/52/24 38/50/23
f 39/51/24 41/53/24 40/52/24
f 41/53/24 42/54/24 40/52/24
f 41/53/24 43/55/25 42/54/24
f 43/55/25 44/56/26 42/54/24
f 43/55/25 45/57/27 44/56/26
f 45/57/27 46/58/27 44/56/26
f 45/57/27 47/59/28 46/58/27
f 47/59/28 48/60/29 46/58/27
f 47/59/28 49/61/30 48/60/29
f 49/61/30 50/62/30 48/60/29
f 49/61/30 51/63/31 50/62/30
f 51/63/31 52/64/32 50/62/30
f 51/63/31 53/65/33 52/64/32
f 53/65/33 54/66/33 52/64/32
f 53/65/33 3/3/2 54/66/33
f 3/3/2 4/4/2 54/66/33
f 19/25/10 20/26/11 55/67/34
f 20/26/11 56/68/34 55/67/34
f 20/26/11 9/27/6 56/68/34
f 55/67/34 56/68/34 57/69/35
f 9/27/6 31/70/19 56/68/34
f 56/68/34 58/71/34 57/69/35
f 56/68/34 31/70/19 58/71/34
f 57/69/35 58/71/34 59/72/36
f 31/70/19 33/73/19 58/71/34
f 58/71/34 33/73/19 60/74/37
f 58/71/34 60/74/37 59/72/36
f 33/73/19 36/75/21 60/74/37
f 59/72/36 60/74/37 61/76/38
f 60/74/37 36/75/21 61/76/38
f 62/77/39 59/72/36 61/76/38
f 36/75/21 38/78/23 61/76/38
f 62/77/39 61/76/38 63/79/24
f 61/76/38 38/78/23 63/79/24
f 64/80/24 62/77/39 63/79/24
f 38/78/23 40/81/24 63/79/24
f 64/80/24 63/79/24 65/82/24
f 63/79/24 40/81/24 65/82/24
f 66/83/24 64/80/24 65/82/24
f 40/81/24 42/84/24 65/82/24
f 66/83/24 65/82/24 67/85/40
f 65/82/24 42/84/24 67/85/40
f 68/86/40 66/83/24 67/85/40
f 42/84/24 44/87/26 67/85/40
f 68/86/40 67/85/40 69/88/41
f 67/85/40 44/87/26 69/88/41
f 70/89/41 68/86/40 69/88/41
f 44/87/26 46/90/27 69/88/41
f 70/89/41 69/88/41 71/91/42
f 69/88/41 46/90/27 71/91/42
f 72/92/42 70/89/41 71/91/42
f 46/90/27 48/93/29 71/91/42
f 72/92/42 71/91/42 73/94/43
f 71/91/42 48/93/29 74/95/43
f 71/91/42 74/95/43 73/94/43
f 48/93/29 50/96/30 74/95/43
f 73/94/43 74/95/43 75/97/44
f 74/95/43 50/96/30 76/98/45
f 74/95/43 76/98/45 75/97/44
f 50/96/30 52/99/32 76/98/45
f 75/97/44 76/98/45 77/100/46
f 76/98/45 52/99/32 78/101/46
f 76/98/45 78/101/46 77/100/46
f 77/100/46 78/101/46 11/102/7
f 52/99/32 54/103/33 78/101/46
f 78/101/46 12/104/8 11/102/7
f 78/101/46 54/103/33 12/104/8
f 54/103/33 4/105/2 12/104/8
f 29/40/18 79/106/47 30/42/8
f 10/41/4 30/42/8 32/107/19
f 79/106/47 80/108/48 30/42/8
f 30/42/8 80/108/48 32/107/19
f 79/106/47 81/109/49 80/108/48
f 32/107/19 80/108/48 34/110/19
f 81/109/49 82/111/48 80/108/48
f 80/108/48 82/111/48 34/110/19
f 81/109/49 83/112/50 82/111/48
f 34/110/19 82/111/48 35/113/20
f 82/111/48 84/114/50 35/113/20
f 83/112/50 84/114/50 82/111/48
f 35/113/20 84/114/50 37/115/22
f 85/116/40 84/114/50 83/112/50
f 84/114/50 85/116/40 37/115/22
f 86/117/51 85/116/40 83/112/50
f 37/115/22 85/116/40 39/118/24
f 87/119/24 85/116/40 86/117/51
f 85/116/40 87/119/24 39/118/24
f 88/120/24 87/119/24 86/117/51
f 39/118/24 87/119/24 41/121/24
f 89/122/24 87/119/24 88/120/24
f 87/119/24 89/122/24 41/121/24
f 90/123/24 89/122/24 88/120/24
f 41/121/24 89/122/24 43/124/25
f 91/125/38 89/122/24 90/123/24
f 89/122/24 91/125/38 43/124/25
f 92/126/38 91/125/38 90/123/24
f 43/124/25 91/125/38 45/127/27
f 93/128/52 91/125/38 92/126/38
f 91/125/38 93/128/52 45/127/27
f 94/129/52 93/128/52 92/126/38
f 45/127/27 93/128/52 47/130/28
f 95/131/53 93/128/52 94/129/52
f 93/128/52 95/131/53 47/130/28
f 96/132/53 95/131/53 94/129/52
f 47/130/28 95/131/53 49/133/30
f 96/132/53 97/134/54 95/131/53
f 95/131/53 98/135/55 49/133/30
f 97/134/54 98/135/55 95/131/53
f 51/136/31 49/133/30 98/135/55
f 97/134/54 99/137/56 98/135/55
f 100/138/56 51/136/31 98/135/55
f 99/137/56 100/138/56 98/135/55
f 53/139/33 51/136/31 100/138/56
f 99/137/56 101/140/57 100/138/56
f 102/141/58 53/139/33 100/138/56
f 101/140/57 102/141/58 100/138/56
f 3/142/2 53/139/33 102/141/58
f 101/140/57 21/143/12 102/141/58
f 23/144/12 3/142/2 102/141/58
f 21/143/12 23/144/12 102/141/58
