# Blender 3.6.18
# www.blender.org
mtllib Mesh.139.mtl
o Bistro_Research_Exterior_Paris_Streetlight_Glass_01a___7__6331
v 34.698174 7.220439 29.960733
v 34.599854 7.220439 29.895479
v 34.582932 6.636995 29.945835
v 34.658340 6.636995 29.995882
v 34.750690 7.220439 30.066402
v 34.698620 6.636995 30.076929
v 34.743336 7.220439 30.184174
v 34.692982 6.636995 30.167252
v 34.678085 7.220439 30.282490
v 34.642937 6.636995 30.242661
v 34.572414 7.220439 30.335009
v 34.561893 6.636995 30.282942
v 34.454643 7.220439 30.327656
v 34.471561 6.636995 30.277302
v 34.356327 7.220439 30.262403
v 34.396156 6.636995 30.227255
v 34.303810 7.220439 30.156736
v 34.355877 6.636995 30.146210
v 34.311157 7.220439 30.038967
v 34.361519 6.636995 30.055883
v 34.376415 7.220439 29.940647
v 34.411560 6.636995 29.980478
v 34.482079 7.220439 29.888130
v 34.492607 6.636995 29.940197
v 34.636414 6.636995 29.947096
v 34.589424 6.636995 29.926521
v 34.608315 7.220439 29.870296
v 34.669575 7.220439 29.897120
v 34.718086 7.220439 29.943155
v 34.673618 6.636995 29.982405
v 34.704025 6.636995 30.023710
v 34.757732 7.220439 29.997015
v 34.776730 7.220439 30.061136
v 34.718590 6.636995 30.072887
v 34.724266 6.636995 30.123867
v 34.784130 7.220439 30.127605
v 34.768520 7.220439 30.192635
v 34.712299 6.636995 30.173744
v 34.691723 6.636995 30.220728
v 34.741695 7.220439 30.253897
v 34.695663 7.220439 30.302410
v 34.656414 6.636995 30.257938
v 34.615112 6.636995 30.288342
v 34.641800 7.220439 30.342052
v 34.577679 7.220439 30.361048
v 34.565926 6.636995 30.302916
v 34.514950 6.636995 30.308588
v 34.511211 7.220439 30.368448
v 34.446182 7.220439 30.352839
v 34.465073 6.636995 30.296619
v 34.418087 6.636995 30.276043
v 34.384918 7.220439 30.326017
v 34.336411 7.220439 30.279980
v 34.380882 6.636995 30.240736
v 34.350475 6.636995 30.199427
v 34.296764 7.220439 30.226122
v 34.277767 7.220439 30.161997
v 34.335907 6.636995 30.150248
v 34.330231 6.636995 30.099270
v 34.270370 7.220439 30.095531
v 34.285976 7.220439 30.030504
v 34.342201 6.636995 30.049395
v 34.362774 6.636995 30.002407
v 34.312801 7.220439 29.969240
v 34.358833 7.220439 29.920731
v 34.398083 6.636995 29.965200
v 34.439388 6.636995 29.934793
v 34.412693 7.220439 29.881083
v 34.476818 7.220439 29.862089
v 34.488571 6.636995 29.920225
v 34.539547 6.636995 29.914549
v 34.543285 7.220439 29.854687
vn -0.7498 0.0903 0.6555
vn -0.3196 0.0908 0.9432
vn -0.7497 0.0903 0.6555
vn -0.9772 0.0903 0.1923
vn -0.9440 0.0901 -0.3173
vn -0.6599 0.0899 -0.7459
vn -0.6600 0.0898 -0.7459
vn -0.1998 0.0901 -0.9757
vn 0.3102 0.0903 -0.9464
vn 0.7424 0.0903 -0.6638
vn 0.9753 0.0908 -0.2014
vn 0.9753 0.0908 -0.2013
vn 0.9455 0.0910 0.3125
vn 0.6594 0.0908 0.7463
vn 0.6593 0.0908 0.7463
vn 0.1938 0.0910 0.9768
vn 0.5434 -0.1056 -0.8328
vn 0.3098 -0.1059 -0.9449
vn 0.3097 -0.1059 -0.9449
vn 0.5435 -0.1056 -0.8328
vn 0.7412 -0.1059 -0.6628
vn 0.7413 -0.1059 -0.6628
vn 0.8902 -0.1059 -0.4431
vn 0.9738 -0.1065 -0.2011
vn 0.9926 -0.1059 0.0589
vn 0.9441 -0.1067 0.3121
vn 0.9441 -0.1067 0.3120
vn 0.8303 -0.1062 0.5470
vn 0.6584 -0.1065 0.7451
vn 0.6584 -0.1064 0.7451
vn 0.4368 -0.1062 0.8933
vn 0.1935 -0.1066 0.9753
vn -0.0667 -0.1059 0.9921
vn -0.3192 -0.1064 0.9417
vn -0.5525 -0.1058 0.8268
vn -0.7486 -0.1058 0.6545
vn -0.8948 -0.1055 0.4337
vn -0.8948 -0.1055 0.4338
vn -0.9757 -0.1058 0.1920
vn -0.9923 -0.1051 -0.0662
vn -0.9923 -0.1051 -0.0661
vn -0.9426 -0.1056 -0.3168
vn -0.8292 -0.1051 -0.5489
vn -0.6590 -0.1053 -0.7448
vn -0.4400 -0.1052 -0.8918
vn -0.4401 -0.1051 -0.8918
vn -0.1995 -0.1056 -0.9742
vn -0.1995 -0.1057 -0.9742
vn 0.0584 -0.1051 -0.9927
vt 0.092773 0.097168
vt 0.016220 0.097168
vt 0.016220 0.904419
vt 0.092773 0.904419
vt 0.172852 0.097168
vt 0.172852 0.904419
vt 0.252930 0.097168
vt 0.252930 0.904419
vt 0.333008 0.097168
vt 0.333008 0.904419
vt 0.413086 0.097168
vt 0.413086 0.904419
vt 0.493164 0.097168
vt 0.493164 0.904419
vt 0.573242 0.097168
vt 0.573242 0.904419
vt 0.653320 0.097168
vt 0.653320 0.904419
vt 0.733398 0.097168
vt 0.733398 0.904419
vt 0.813477 0.097168
vt 0.813477 0.904419
vt 0.893555 0.097168
vt 0.893555 0.904419
vt 0.984375 0.097168
vt 0.984375 0.904419
vt 0.054504 0.904419
vt 0.054504 0.097168
vt 0.132812 0.904419
vt 0.132812 0.097168
vt 0.212891 0.904419
vt 0.212891 0.097168
vt 0.292969 0.904419
vt 0.292969 0.097168
vt 0.373047 0.904419
vt 0.373047 0.097168
vt 0.453125 0.904419
vt 0.453125 0.097168
vt 0.533203 0.904419
vt 0.533203 0.097168
vt 0.613281 0.904419
vt 0.613281 0.097168
vt 0.693359 0.904419
vt 0.693359 0.097168
vt 0.773438 0.904419
vt 0.773438 0.097168
vt 0.853516 0.904419
vt 0.853516 0.097168
vt 0.938965 0.904419
vt 0.938965 0.097168
s 1
usemtl Emissive_StreetLight
f 1/1/1 2/2/2 3/3/2
f 3/3/2 4/4/3 1/1/1
f 5/5/4 1/1/1 4/4/3
f 4/4/3 6/6/4 5/5/4
f 7/7/5 5/5/4 6/6/4
f 6/6/4 8/8/5 7/7/5
f 9/9/6 7/7/5 8/8/5
f 8/8/5 10/10/7 9/9/6
f 11/11/8 9/9/6 10/10/7
f 10/10/7 12/12/8 11/11/8
f 13/13/9 11/11/8 12/12/8
f 12/12/8 14/14/9 13/13/9
f 15/15/10 13/13/9 14/14/9
f 14/14/9 16/16/10 15/15/10
f 17/17/11 15/15/10 16/16/10
f 16/16/10 18/18/12 17/17/11
f 19/19/13 17/17/11 18/18/12
f 18/18/12 20/20/13 19/19/13
f 21/21/14 19/19/13 20/20/13
f 20/20/13 22/22/15 21/21/14
f 23/23/16 21/21/14 22/22/15
f 22/22/15 24/24/16 23/23/16
f 2/25/2 23/23/16 24/24/16
f 24/24/16 3/26/2 2/25/2
f 25/27/17 26/3/18 27/2/19
f 27/2/19 28/28/20 25/27/17
f 25/27/17 28/28/20 29/1/21
f 29/1/21 30/4/22 25/27/17
f 31/29/23 30/4/22 29/1/21
f 29/1/21 32/30/23 31/29/23
f 31/29/23 32/30/23 33/5/24
f 33/5/24 34/6/24 31/29/23
f 35/31/25 34/6/24 33/5/24
f 33/5/24 36/32/25 35/31/25
f 35/31/25 36/32/25 37/7/26
f 37/7/26 38/8/27 35/31/25
f 39/33/28 38/8/27 37/7/26
f 37/7/26 40/34/28 39/33/28
f 39/33/28 40/34/28 41/9/29
f 41/9/29 42/10/30 39/33/28
f 43/35/31 42/10/30 41/9/29
f 41/9/29 44/36/31 43/35/31
f 43/35/31 44/36/31 45/11/32
f 45/11/32 46/12/32 43/35/31
f 47/37/33 46/12/32 45/11/32
f 45/11/32 48/38/33 47/37/33
f 47/37/33 48/38/33 49/13/34
f 49/13/34 50/14/34 47/37/33
f 51/39/35 50/14/34 49/13/34
f 49/13/34 52/40/35 51/39/35
f 51/39/35 52/40/35 53/15/36
f 53/15/36 54/16/36 51/39/35
f 55/41/37 54/16/36 53/15/36
f 53/15/36 56/42/38 55/41/37
f 55/41/37 56/42/38 57/17/39
f 57/17/39 58/18/39 55/41/37
f 59/43/40 58/18/39 57/17/39
f 57/17/39 60/44/41 59/43/40
f 59/43/40 60/44/41 61/19/42
f 61/19/42 62/20/42 59/43/40
f 63/45/43 62/20/42 61/19/42
f 61/19/42 64/46/43 63/45/43
f 63/45/43 64/46/43 65/21/44
f 65/21/44 66/22/44 63/45/43
f 67/47/45 66/22/44 65/21/44
f 65/21/44 68/48/46 67/47/45
f 67/47/45 68/48/46 69/23/47
f 69/23/47 70/24/48 67/47/45
f 71/49/49 70/24/48 69/23/47
f 69/23/47 72/50/49 71/49/49
f 71/49/49 72/50/49 27/25/19
f 27/25/19 26/26/18 71/49/49
