# Blender 3.6.18
# www.blender.org
mtllib Mesh.1148.mtl
o Bistro_Research_Exterior_Paris_Building_01_paris_buildi_393fe71
v 3.328028 17.654779 -1.802991
v 3.328028 17.765499 -1.802991
v 2.822673 17.654779 -1.602620
v 2.822674 17.765499 -1.602621
v 2.399766 17.765499 -4.143044
v 2.399766 17.654779 -4.143044
v 1.896426 17.765499 -3.943481
v 1.896426 17.654779 -3.943481
v 2.806470 17.765499 -1.609621
v 2.806470 17.654779 -1.609622
v 1.889427 17.654779 -3.927280
v 1.889427 17.765499 -3.927279
v 2.404392 17.642300 -4.131462
v 1.901028 17.642298 -3.931880
v 3.323426 17.642300 -1.814592
v 2.818071 17.642298 -1.614222
v 3.323426 17.777979 -1.814592
v 2.818071 17.777979 -1.614222
v 1.901028 17.777979 -3.931880
v 2.404392 17.777979 -4.131462
vn 0.3665 -0.1062 0.9243
vn 0.3662 0.0984 0.9253
vn 0.3427 -0.1064 0.9334
vn 0.3429 0.0985 0.9342
vn -0.3668 0.0974 -0.9252
vn -0.3700 -0.1051 -0.9231
vn -0.3864 0.0976 -0.9172
vn -0.3861 -0.1053 -0.9164
vn -0.9319 -0.0039 0.3627
vn -0.9319 -0.0039 0.3626
vn -0.0018 -1.0000 -0.0047
vn -0.0039 -1.0000 -0.0039
vn -0.0019 1.0000 -0.0047
vn -0.0039 1.0000 -0.0039
vt 0.762207 0.997995
vt 0.762207 0.965454
vt 0.922363 0.997997
vt 0.922363 0.965454
vt 0.922852 0.596191
vt 0.922852 0.628906
vt 0.763672 0.596191
vt 0.763672 0.628906
vt 0.001999 0.965454
vt 0.007122 0.965454
vt 0.001999 0.998001
vt 0.007122 0.998001
vt 0.739746 0.998001
vt 0.739746 0.965454
vt 0.744629 0.965454
vt 0.744629 0.998001
vt 0.746094 0.703369
vt 0.741211 0.703613
vt 0.746094 0.543457
vt 0.741211 0.544189
vt 0.741699 0.539307
vt 0.007385 0.702393
vt 0.007004 0.537598
vt 0.007385 0.542480
vt 0.002396 0.702148
vt 0.002396 0.541748
vt 0.002132 0.721191
vt 0.007126 0.721191
vt 0.002132 0.881775
vt 0.007465 0.881775
vt 0.006470 0.885803
vt 0.741211 0.886475
vt 0.741211 0.881775
vt 0.740723 0.722412
vt 0.745605 0.881775
vt 0.745605 0.722412
s 1
usemtl MASTER_Concrete_Smooth
f 1/1/1 2/2/2 3/3/3
f 2/2/2 4/4/4 3/3/3
f 5/5/5 6/6/6 7/7/7
f 6/6/6 8/8/8 7/7/7
f 4/9/4 9/10/9 3/11/3
f 9/10/9 10/12/10 3/11/3
f 10/12/10 9/10/9 11/13/10
f 9/10/9 12/14/10 11/13/10
f 11/13/10 12/14/10 7/15/7
f 8/16/8 11/13/10 7/15/7
f 6/17/6 13/18/11 8/19/8
f 13/18/11 14/20/12 8/19/8
f 11/21/10 8/19/8 14/20/12
f 13/18/11 15/22/12 14/20/12
f 11/21/10 14/20/12 10/23/10
f 15/22/12 16/24/12 14/20/12
f 14/20/12 16/24/12 10/23/10
f 16/24/12 15/22/12 1/25/1
f 3/26/3 10/23/10 16/24/12
f 3/26/3 16/24/12 1/25/1
f 2/27/2 17/28/13 4/29/4
f 17/28/13 18/30/14 4/29/4
f 18/30/14 9/31/9 4/29/4
f 9/31/9 18/30/14 12/32/10
f 18/30/14 17/28/13 19/33/14
f 18/30/14 19/33/14 12/32/10
f 17/28/13 20/34/14 19/33/14
f 19/33/14 7/35/7 12/32/10
f 19/33/14 20/34/14 5/36/5
f 7/35/7 19/33/14 5/36/5
