# Blender 3.6.18
# www.blender.org
mtllib Mesh.366.mtl
o Bistro_Research_Exterior_paris_building_11_5857
v -5.217291 13.095370 29.078976
v -5.226045 13.079372 29.058111
v -5.213636 13.110058 29.070038
v -5.576438 13.110047 29.957289
v -5.593671 13.079386 29.957155
v -5.572806 13.095385 29.948408
v -5.611416 13.478084 29.081356
v -5.701513 13.367448 29.007095
v -5.856588 13.478086 29.680937
v -5.968698 13.367448 29.660505
v -5.284423 13.583502 29.243216
v -5.512692 13.583485 29.149897
v -5.508990 13.583494 29.792402
v -5.737236 13.583475 29.699049
v -5.536782 13.571950 29.137234
v -5.763372 13.571940 29.691397
v -5.232108 12.343616 29.072920
v -5.587623 12.343630 29.942347
v -5.656309 12.343635 28.899467
v -6.005374 12.343629 29.771444
v -5.650355 13.079391 28.884615
v -5.650363 12.359634 28.884615
v -5.226052 12.359617 29.058111
v -5.217298 12.359616 29.078976
v -5.572815 12.359630 29.948406
v -6.011313 13.079385 29.786301
v -5.593679 12.359630 29.957157
v -6.011321 12.359630 29.786299
v -6.020184 12.359630 29.765387
v -5.671119 12.359635 28.893414
v -5.671112 13.095389 28.893415
v -6.009071 13.110047 29.780294
v -5.971440 13.356176 29.679476
v -5.535745 13.356175 29.857761
v -5.847841 13.478086 29.701817
v -5.525944 13.478088 29.833851
v -5.753230 13.568035 29.714329
v -5.516641 13.568058 29.811113
v -5.513554 13.567953 29.128098
v -5.276911 13.567972 29.224844
v -5.590549 13.478084 29.072599
v -5.268483 13.478085 29.204218
v -5.689660 13.356179 28.990374
v -5.253878 13.356177 29.168442
v -5.652565 13.110078 28.890568
v -6.020176 13.095385 29.765388
v -5.708413 13.340178 28.994068
v -5.982331 13.340178 29.663710
vn 0.9465 -0.2160 -0.2396
vn 0.7552 0.0509 -0.6535
vn 0.7334 -0.0431 -0.6785
vn 0.0513 -0.0433 0.9977
vn 0.0826 0.0590 0.9948
vn 0.5092 -0.2171 0.8328
vn -0.6610 0.7002 -0.2699
vn -0.6530 0.7077 -0.2698
vn -0.6610 0.7001 -0.2699
vn -0.0039 1.0000 -0.0039
vn -0.6712 0.6869 -0.2787
vn -0.0039 -1.0000 -0.0039
vn 0.3721 -0.0039 -0.9282
vn 0.9271 -0.0039 0.3748
vn -0.3815 -0.0039 0.9243
vn -0.6032 -0.7589 0.2452
vn -0.8757 -0.4632 0.1362
vn -0.2537 -0.7610 -0.5971
vn -0.5316 -0.4617 -0.7101
vn -0.3539 0.1594 -0.9216
vn -0.1210 0.0976 -0.9878
vn -0.1439 -0.4627 -0.8748
vn 0.5232 -0.4682 0.7121
vn 0.1372 -0.4663 0.8739
vn -0.3509 0.3981 0.8476
vn -0.3509 0.3982 0.8476
vn -0.3587 0.3351 0.8712
vn -0.3667 0.3036 0.8794
vn -0.3741 0.2166 0.9018
vn -0.3728 0.2315 0.8986
vn -0.3733 0.2554 0.8919
vn 0.3628 0.2379 -0.9010
vn 0.3627 0.2379 -0.9010
vn 0.3566 0.2860 -0.8894
vn 0.3556 0.2696 -0.8949
vn 0.3480 0.3636 -0.8641
vn 0.3476 0.3476 -0.8709
vn 0.3416 0.3966 -0.8521
vn 0.3416 0.3965 -0.8521
vn 0.8729 -0.4658 -0.1448
vn 0.5971 -0.7610 -0.2537
vn 0.7091 -0.4662 -0.5289
vn -0.8433 0.5374 0.0039
vn -0.8428 0.4742 0.2547
vn -0.6953 0.6482 0.3103
vn -0.6878 0.6485 0.3262
vn -0.5478 0.8158 0.1853
vn -0.4763 0.7675 0.4290
vn -0.2326 0.7925 0.5638
vn -0.3495 0.8992 0.2631
vn -0.2627 0.8118 -0.5216
vn -0.0591 0.8937 -0.4449
vn 0.2320 0.7824 -0.5780
vn -0.0591 0.8936 -0.4449
vn -0.0354 0.7596 -0.6494
vn -0.2699 0.6610 -0.7001
vn -0.2625 0.6543 -0.7092
vn -0.5978 0.5510 -0.5822
vn -0.4258 0.4883 -0.7618
vn 0.2464 -0.7625 0.5983
vn -0.7130 -0.4636 0.5260
vn -0.8983 0.1530 0.4119
vn -0.7744 0.0983 0.6250
vn -0.7570 0.2393 0.6080
vn 0.0512 -0.0434 0.9977
vn -0.1131 0.2456 -0.9628
vn -0.5959 0.3700 -0.7127
vn -0.9271 0.3638 0.0899
vn -0.9255 -0.0039 -0.3788
vn -0.9282 -0.0039 -0.3721
vt -0.885742 0.557861
vt -0.890625 0.562744
vt -0.888672 0.553223
vt -0.588867 0.553223
vt -0.586914 0.562744
vt -0.591797 0.557861
vt -0.838379 0.462402
vt -0.849121 0.427734
vt -0.635742 0.462402
vt -0.628418 0.427734
vt -0.830078 0.576172
vt -0.830078 0.499512
vt -0.644531 0.576172
vt -0.644531 0.499512
vt 1.831055 0.409180
vt 1.837891 0.438477
vt 1.643555 0.409180
vt 1.635742 0.438477
vt 1.885742 0.571289
vt 1.591797 0.571289
vt 1.885742 0.428223
vt 1.591797 0.430176
vt 0.427734 0.562744
vt 0.570801 0.562744
vt 0.427734 0.787598
vt 0.570801 0.787720
vt -0.885742 0.787720
vt -0.591797 0.787598
vt 0.428711 0.562744
vt 0.569824 0.562744
vt 0.428711 0.787598
vt 0.569824 0.787598
vt 1.591797 0.792603
vt 1.591797 0.787598
vt 1.885742 0.792603
vt 1.885742 0.787598
vt 1.885742 0.557861
vt 1.890625 0.562744
vt 1.890625 0.787598
vt 0.423828 0.557861
vt 0.423828 0.787598
vt 0.569824 0.553223
vt 0.423828 0.553223
vt 0.570801 0.476562
vt 0.423828 0.476562
vt 0.532227 0.438477
vt 0.423828 0.438477
vt 0.503418 0.410156
vt 0.423828 0.410156
vt 0.496094 0.410156
vt 0.575684 0.410156
vt 0.467285 0.438477
vt 0.575684 0.438477
vt 0.428955 0.476562
vt 0.575684 0.476562
vt 0.427734 0.553223
vt 0.575684 0.553223
vt 0.575684 0.787720
vt 0.570801 0.792603
vt 0.575684 0.557861
vt -0.622559 0.429199
vt -0.630859 0.467773
vt -0.644043 0.490723
vt -0.638184 0.496582
vt -0.638184 0.576172
vt -0.831055 0.490723
vt -0.836426 0.576172
vt -0.836426 0.496582
vt -0.843262 0.467773
vt -0.855469 0.429199
vt 1.885742 0.576172
vt 1.591797 0.576172
vt 1.586914 0.571289
vt 0.428711 0.792603
vt 0.569824 0.792603
vt 0.574707 0.787598
vt 0.574707 0.557861
vt 0.422852 0.557861
vt 1.890625 0.428223
vt 1.885742 0.423340
vt 1.890625 0.571289
vt 1.855469 0.476562
vt 1.888672 0.553223
vt 1.851562 0.481445
vt 1.848633 0.472656
vt 1.627930 0.472656
vt 1.625977 0.481445
vt 1.622070 0.476562
vt 1.588867 0.553223
vt 1.591797 0.557861
s 1
usemtl MASTER_Concrete_Plaster
f 1/1/1 2/2/2 3/3/3
f 4/4/4 5/5/5 6/6/6
f 7/7/7 8/8/8 9/9/9
f 8/8/8 10/10/8 9/9/9
f 11/11/10 12/12/10 13/13/10
f 12/12/10 14/14/10 13/13/10
f 15/15/11 7/16/7 16/17/11
f 7/16/7 9/18/9 16/17/11
f 17/19/12 18/20/12 19/21/12
f 18/20/12 20/22/12 19/21/12
f 21/23/13 2/24/13 22/25/13
f 2/24/13 23/26/13 22/25/13
f 1/1/14 6/6/14 24/27/14
f 6/6/14 25/28/14 24/27/14
f 5/29/15 26/30/15 27/31/15
f 26/30/15 28/32/15 27/31/15
f 20/33/16 29/34/17 19/35/18
f 29/34/17 30/36/19 19/35/18
f 31/37/20 21/38/21 30/36/19
f 21/38/21 22/39/22 30/36/19
f 6/40/6 5/29/5 25/41/23
f 5/29/5 27/31/24 25/41/23
f 32/42/25 4/43/26 33/44/27
f 4/43/26 34/45/28 33/44/27
f 33/44/27 34/45/28 35/46/29
f 34/45/28 36/47/30 35/46/29
f 35/46/29 36/47/30 37/48/31
f 36/47/30 38/49/31 37/48/31
f 39/50/32 40/51/33 41/52/34
f 40/51/33 42/53/35 41/52/34
f 41/52/34 42/53/35 43/54/36
f 42/53/35 44/55/37 43/54/36
f 43/54/36 44/55/37 45/56/38
f 44/55/37 3/57/39 45/56/38
f 24/58/40 17/59/41 23/26/42
f 1/60/1 24/58/40 23/26/42
f 2/24/2 1/60/1 23/26/42
f 10/10/43 33/61/44 9/9/45
f 33/61/44 35/62/46 9/9/45
f 9/9/45 35/62/46 16/63/47
f 35/62/46 37/64/48 16/63/47
f 38/65/49 13/13/49 37/64/48
f 13/13/49 14/14/50 37/64/48
f 37/64/48 14/14/50 16/63/47
f 15/66/51 16/63/47 14/14/50
f 12/12/52 15/66/51 14/14/50
f 11/11/53 40/67/53 12/12/54
f 40/67/53 39/68/55 12/12/52
f 15/66/51 12/12/52 39/68/55
f 15/66/51 39/68/55 7/7/56
f 39/68/55 41/69/57 7/7/56
f 7/7/56 41/69/57 8/8/58
f 41/69/57 43/70/59 8/8/58
f 17/19/41 24/71/40 18/20/60
f 24/71/40 25/72/23 18/20/60
f 27/73/24 18/20/60 25/72/23
f 18/74/60 27/31/24 20/75/16
f 27/31/24 28/32/61 20/75/16
f 29/76/17 20/75/16 28/32/61
f 46/77/62 29/76/17 28/32/61
f 26/30/63 46/77/62 28/32/61
f 46/77/62 26/30/63 32/42/64
f 4/43/65 32/42/64 26/30/63
f 5/29/5 4/43/65 26/30/63
f 45/56/66 21/23/21 31/78/20
f 21/23/21 45/56/66 2/24/2
f 45/56/66 3/57/3 2/24/2
f 22/79/22 19/21/18 30/80/19
f 19/21/18 22/79/22 17/19/41
f 22/79/22 23/81/42 17/19/41
f 43/82/59 45/83/66 31/37/20
f 47/84/67 43/82/59 31/37/20
f 43/82/59 47/84/67 8/85/58
f 10/86/43 8/85/58 47/84/67
f 48/87/68 10/86/43 47/84/67
f 48/87/68 33/88/44 10/86/43
f 32/89/64 33/88/44 48/87/68
f 46/90/62 32/89/64 48/87/68
f 47/84/69 31/37/69 48/87/69
f 31/37/69 46/90/69 48/87/69
f 46/90/69 31/37/69 29/34/70
f 31/37/69 30/36/70 29/34/70
