# Blender 3.6.18
# www.blender.org
mtllib Mesh.383.mtl
o Bistro_Research_Exterior_paris_building_11_5817
v 4.041646 8.887002 21.984713
v 4.103629 8.886961 22.092916
v 4.057715 8.842438 21.976944
v 4.112211 8.842229 22.073950
v 4.005837 8.886860 21.861568
v 4.020847 8.842257 21.865662
v 5.773658 8.887002 22.692944
v 5.767636 8.842438 22.676144
v 5.653620 8.886961 22.726719
v 5.660784 8.842229 22.707172
v 5.885490 8.886860 22.630173
v 5.871914 8.842257 22.622576
v 4.105098 8.885841 22.123285
v 4.091129 8.901842 22.115097
v 4.007160 8.885855 22.363976
v 3.992350 8.901855 22.357920
v 4.166057 8.388450 21.931852
v 4.180854 8.404449 21.937979
v 3.992388 8.388444 22.357840
v 4.007196 8.404444 22.363897
v 5.547369 8.388444 22.993683
v 5.532558 8.404444 22.987631
v 5.721930 8.388450 22.568060
v 5.707079 8.404449 22.562063
v 5.532532 8.885855 22.987709
v 5.547341 8.901855 22.993765
v 5.631294 8.885841 22.747358
v 5.646997 8.901842 22.751303
v 4.180836 8.700322 21.937971
v 4.137309 8.774562 22.045689
v 4.007181 8.508883 22.363930
v 4.114269 8.837413 22.102030
v 4.007165 8.748673 22.363962
v 3.559267 8.885855 22.180832
v 3.733514 8.885841 21.755058
v 3.559267 8.625271 22.180832
v 3.733545 8.672010 21.754982
v 3.559268 8.404444 22.180832
v 3.733514 8.404449 21.755058
v 4.172109 8.699725 21.917004
v 4.172144 8.404449 21.916925
v 4.054079 8.771195 21.866175
v 3.950242 8.403755 21.825069
v 4.005860 8.830385 21.846401
v 3.878320 8.404444 21.794249
v 3.878197 8.678462 21.794199
v 3.754485 8.404449 21.746052
v 3.984800 8.885844 21.840317
v 3.754477 8.674147 21.746050
v 3.878175 8.885855 21.794191
v 3.754485 8.885842 21.746052
v 3.940078 8.388446 21.838255
v 3.771810 8.388438 22.267687
v 3.872241 8.388444 21.809048
v 3.696284 8.388429 22.236858
v 3.574077 8.388443 22.186888
v 3.748426 8.388448 21.760864
v 5.532536 8.748673 22.987696
v 5.639642 8.837413 22.725767
v 5.532547 8.508883 22.987663
v 5.662682 8.774562 22.669422
v 5.707098 8.700322 22.562071
v 4.175726 8.719587 21.927942
v 4.133867 8.785799 22.020327
v 5.682906 8.785799 22.653740
v 5.717771 8.719587 22.558493
v 5.728017 8.699725 22.553225
v 5.728045 8.404449 22.553144
v 4.064670 8.787385 21.882584
v 3.981889 8.901842 21.856453
v 3.872118 8.901855 21.809000
v 3.748426 8.901845 21.760864
v 4.023564 8.901855 21.997000
v 6.145767 8.404449 22.723864
v 6.139712 8.388448 22.738678
v 6.023641 8.404444 22.671486
v 6.017608 8.388444 22.686304
v 5.950731 8.403755 22.643085
v 5.948745 8.388446 22.659613
v 5.777950 8.901855 22.714380
v 5.906162 8.901842 22.643301
v 5.980422 8.885855 23.170858
v 5.980422 8.625271 23.170858
v 6.154420 8.885841 22.744984
v 6.154451 8.672010 22.744907
v 5.980421 8.404444 23.170858
v 6.154420 8.404449 22.744984
v 5.842651 8.901896 23.114523
v 5.965612 8.901860 23.164804
v 6.139712 8.901845 22.738676
v 6.017732 8.901855 22.686354
v 5.835248 8.901871 23.111494
v 5.767917 8.388438 23.083908
v 5.843404 8.388429 23.114832
v 5.965611 8.388443 23.164804
v 3.574077 8.901860 22.186888
v 6.145767 8.885842 22.723864
v 6.023786 8.885855 22.671543
v 5.915390 8.885844 22.629749
v 5.896101 8.830385 22.619335
v 5.828790 8.787385 22.603945
v 5.847843 8.771195 22.599657
v 6.145774 8.674147 22.723867
v 3.697037 8.901896 22.237167
v 3.704441 8.901871 22.240191
v 6.023764 8.678462 22.671535
v 4.098192 8.792098 21.961220
v 5.749774 8.792098 22.636564
vn 0.8594 0.3414 -0.3806
vn 0.8074 0.3584 -0.4687
vn 0.8016 0.4778 -0.3593
vn 0.7678 0.4685 -0.4371
vn 0.9006 0.3264 -0.2871
vn 0.8509 0.4353 -0.2941
vn -0.3554 0.3397 -0.8708
vn -0.3250 0.4738 -0.8184
vn -0.2624 0.3564 -0.8968
vn -0.2540 0.4651 -0.8480
vn -0.4494 0.3244 -0.8324
vn -0.4107 0.4341 -0.8018
vn 0.8187 0.5656 0.0989
vn 0.6582 0.7528 0.0118
vn 0.6535 0.7089 0.2654
vn 0.6535 0.7089 0.2653
vn 0.5983 -0.7625 -0.2464
vn 0.8739 -0.4664 -0.1372
vn 0.6498 -0.7128 0.2639
vn 0.8739 -0.4663 -0.1371
vn -0.6530 -0.7077 -0.2698
vn -0.2609 -0.7595 -0.5959
vn -0.5316 -0.4618 -0.7101
vn -0.2610 -0.7595 -0.5959
vn -0.6566 0.7038 -0.2713
vn -0.6552 0.5610 -0.5060
vn -0.4890 0.7473 -0.4499
vn -0.6551 0.5610 -0.5061
vn 0.9271 -0.0039 0.3748
vn 0.9271 -0.0040 0.3748
vn -0.9255 -0.0039 -0.3788
vn 0.3788 -0.0039 -0.9255
vn 0.3788 0.0039 -0.9255
vn 0.3721 -0.0039 -0.9282
vn 0.3558 -0.0039 -0.9345
vn 0.3653 0.0039 -0.9309
vn -0.0039 -1.0000 -0.0039
vn 0.7091 -0.4662 -0.5289
vn 0.9625 0.1532 -0.2239
vn 0.8238 0.1458 -0.5479
vn 0.8643 0.3354 -0.3749
vn 0.9327 0.3581 0.0433
vn 0.9250 0.3739 0.0669
vn 0.9662 0.2563 -0.0276
vn 0.9577 0.2877 -0.0118
vn 0.7938 0.5884 -0.1540
vn -0.4670 0.5848 -0.6633
vn -0.6760 0.2540 -0.6917
vn -0.6776 0.2859 -0.6776
vn -0.6989 0.3553 -0.6208
vn -0.7127 0.3700 -0.5959
vn -0.5346 0.1522 -0.8313
vn -0.3631 0.3319 -0.8706
vn -0.2151 0.1447 -0.9658
vn -0.1448 -0.4658 -0.8729
vn 0.5938 0.3264 -0.7354
vn 0.6744 0.2406 -0.6981
vn 0.6787 0.2393 -0.6944
vn 0.6594 0.5804 -0.4778
vn 0.4972 0.5520 -0.6694
vn 0.4526 0.7438 -0.4919
vn 0.2640 0.7053 -0.6580
vn -0.2628 0.7492 -0.6080
vn -0.1520 0.4560 -0.8769
vn 0.5232 0.8222 -0.2242
vn 0.5165 0.8241 -0.2326
vn 0.2624 -0.7167 -0.6462
vn 0.2610 -0.7131 -0.6507
vn 0.2611 -0.7131 -0.6507
vn -0.1515 -0.4621 -0.8738
vn -0.2613 -0.7526 -0.6044
vn 0.7130 -0.4636 -0.5260
vn 0.6007 -0.7577 -0.2552
vn 0.2611 -0.7130 -0.6507
vn 0.2538 -0.7145 -0.6520
vn -0.2233 0.8188 -0.5289
vn -0.2159 0.8202 -0.5298
vn -0.1452 0.5766 -0.8041
vn 0.0118 0.7415 -0.6709
vn -0.0039 1.0000 -0.0039
vn -0.5316 -0.4617 -0.7101
vn -0.3949 -0.0039 -0.9187
vn -0.5335 0.4556 -0.7126
vn 0.2626 0.7016 -0.6624
vn 0.6042 0.7543 -0.2567
vn 0.7156 0.4575 -0.5279
vn 0.1058 0.5525 -0.8268
vn -0.0039 0.2380 -0.9713
vn -0.0039 0.2379 -0.9713
vn 0.0899 0.3243 -0.9417
vn 0.0821 0.3245 -0.9423
vn 0.8771 0.4602 -0.1377
vn 0.9243 -0.0039 -0.3815
vn 0.8739 -0.4663 -0.1372
vn 0.3653 -0.0039 -0.9309
vn 0.3721 0.0039 -0.9282
vn 0.3882 -0.0039 -0.9216
vn 0.5854 0.7583 -0.2868
vn 0.6970 0.6498 -0.3032
vn 0.6582 0.6818 -0.3192
vn 0.6486 0.6800 -0.3420
vn -0.2233 0.7561 -0.6151
vn -0.2554 0.6797 -0.6876
vn -0.2944 0.6477 -0.7027
vn -0.2319 0.6799 -0.6957
vt 3.623047 -0.618164
vt 3.591797 -0.618164
vt 3.619141 -0.631836
vt 3.591797 -0.631836
vt 0.537598 -0.618164
vt 0.541504 -0.631836
vt 0.568848 -0.618164
vt 0.569336 -0.631836
vt 3.039062 -0.618164
vt 3.042969 -0.631836
vt 3.068359 -0.618164
vt 3.068359 -0.631836
vt 0.462158 -0.618164
vt 0.430664 -0.618164
vt 0.458008 -0.631836
vt 0.430176 -0.631836
vt 3.587891 0.495117
vt 3.593750 0.494141
vt 3.587891 0.576172
vt 3.593750 0.576172
vt -2.593750 0.432617
vt -2.587891 0.432617
vt -2.593750 0.576172
vt -2.587891 0.576172
vt -2.068359 0.576172
vt -2.072266 0.576172
vt -2.068359 0.432617
vt -2.072266 0.432617
vt 3.072266 0.576172
vt 3.068359 0.576172
vt 3.072266 0.495117
vt 3.068359 0.494141
vt 0.567383 -0.769531
vt 0.567383 -0.676758
vt 0.423828 -0.769531
vt 0.531250 -0.653320
vt 0.423828 -0.736328
vt 0.512207 -0.633789
vt 0.423828 -0.661133
vt 0.504883 -0.619141
vt 0.423828 -0.619141
vt 0.575684 -0.619141
vt 0.432129 -0.619141
vt 0.575684 -0.700195
vt 0.432129 -0.685547
vt 0.575684 -0.769531
vt 0.432129 -0.769531
vt 3.593750 -0.676758
vt 3.593750 -0.769531
vt 3.632812 -0.654297
vt 3.667969 -0.769531
vt 3.650391 -0.635742
vt 3.693359 -0.769531
vt 3.693359 -0.683594
vt 3.734375 -0.769531
vt 3.656250 -0.619141
vt 3.734375 -0.684570
vt 3.693359 -0.619141
vt 3.734375 -0.619141
vt -2.669922 0.432129
vt -2.667969 0.576172
vt -2.693359 0.431641
vt -2.693359 0.576172
vt -2.734375 0.576172
vt -2.734375 0.432617
vt 0.494629 -0.619141
vt 0.575684 -0.661133
vt 0.487549 -0.633789
vt 0.575684 -0.736328
vt 0.468506 -0.653320
vt 0.432129 -0.676758
vt 0.567383 -0.774414
vt 0.572754 -0.769531
vt 0.572754 -0.676758
vt 0.569824 -0.670898
vt 0.538086 -0.650391
vt 0.520020 -0.631836
vt 0.513672 -0.618164
vt 0.505859 -0.613281
vt 0.493896 -0.613281
vt 0.486084 -0.618164
vt 0.479492 -0.631836
vt 0.461426 -0.650391
vt 0.429932 -0.670898
vt 0.427002 -0.676758
vt 0.427002 -0.769531
vt 0.432129 -0.774414
vt 3.591797 -0.670898
vt 3.628906 -0.649414
vt 3.642578 -0.631836
vt 3.648438 -0.618164
vt 3.656250 -0.613281
vt 3.693359 -0.613281
vt 3.734375 -0.613281
vt 3.648438 0.431152
vt 3.656250 0.432617
vt 3.623047 0.462402
vt 3.626953 0.468262
vt 3.591797 0.486328
vt -2.593750 0.427246
vt -2.667969 0.427246
vt -2.693359 0.426758
vt -2.734375 0.427246
vt -1.927734 0.427246
vt -1.927734 0.432617
vt -1.968750 0.426758
vt -1.968750 0.431641
vt -1.993164 0.427246
vt -1.992188 0.432129
vt -2.068359 0.427246
vt 3.068359 0.486328
vt 3.039062 0.462402
vt 3.035156 0.468262
vt 3.013672 0.431152
vt 3.005859 0.432617
vt 0.423828 -0.700195
vt 0.567383 -0.619141
vt 0.567383 -0.685547
vt 2.968750 0.576172
vt 2.927734 0.576172
vt 2.927734 0.432617
vt 2.968750 0.431641
vt 2.970703 0.576172
vt -1.994141 0.576172
vt -1.968750 0.576172
vt -1.927734 0.576172
vt 0.575684 -0.774414
vt 0.427002 -0.684570
vt 0.427002 -0.619141
vt 0.432129 -0.613281
vt 0.575684 -0.613281
vt 2.968750 -0.613281
vt 2.927734 -0.613281
vt 2.927734 -0.619141
vt 2.968750 -0.619141
vt 3.005859 -0.613281
vt 3.003906 -0.619141
vt 3.013672 -0.618164
vt 3.017578 -0.631836
vt 3.011719 -0.635742
vt 3.033203 -0.649414
vt 3.027344 -0.654297
vt 3.070312 -0.670898
vt 3.068359 -0.676758
vt 0.567383 -0.613281
vt 0.423828 -0.613281
vt 0.572754 -0.619141
vt 0.572754 -0.684570
vt 0.423828 -0.774414
vt 3.734375 0.432617
vt 3.734375 0.576172
vt 3.693359 0.576172
vt 3.693359 0.431641
vt 3.689453 0.576172
vt 3.068359 -0.769531
vt 2.992188 -0.769531
vt 2.968750 -0.683594
vt 2.968750 -0.769531
vt 2.927734 -0.769531
vt 2.927734 -0.684570
vt 3.591797 0.430176
vt 3.628906 0.430176
vt 3.609375 0.449219
vt 3.642578 0.430664
vt 3.591797 0.461914
vt 3.619141 0.458496
vt 3.591797 0.479980
vt 3.070312 0.430176
vt 3.052734 0.449219
vt 3.033203 0.430176
vt 3.068359 0.461914
vt 3.017578 0.430664
vt 3.068359 0.479980
vt 3.042969 0.458496
s 1
usemtl MASTER_Concrete_Plaster
f 1/1/1 2/2/2 3/3/3
f 2/2/2 4/4/4 3/3/3
f 1/5/1 3/6/3 5/7/5
f 3/6/3 6/8/6 5/7/5
f 7/9/7 8/10/8 9/11/9
f 8/10/8 10/12/10 9/11/9
f 7/13/7 11/14/11 8/15/8
f 11/14/11 12/16/12 8/15/8
f 13/17/13 14/18/14 15/19/15
f 14/18/14 16/20/16 15/19/16
f 17/21/17 18/22/18 19/23/19
f 18/22/20 20/24/19 19/23/19
f 21/25/21 22/26/21 23/27/22
f 22/26/21 24/28/23 23/27/24
f 25/29/25 26/30/25 27/31/26
f 26/30/25 28/32/27 27/31/28
f 18/33/29 29/34/30 20/35/30
f 29/34/30 30/36/29 20/35/30
f 30/36/30 31/37/29 20/35/29
f 30/36/30 32/38/30 31/37/29
f 32/38/30 33/39/29 31/37/29
f 33/39/29 32/38/30 13/40/29
f 15/41/29 33/39/29 13/40/29
f 34/42/31 35/43/31 36/44/31
f 35/43/31 37/45/31 36/44/31
f 38/46/31 36/44/31 37/45/31
f 39/47/31 38/46/31 37/45/31
f 40/48/32 41/49/32 42/50/32
f 41/49/32 43/51/32 42/50/32
f 42/50/32 43/51/32 44/52/33
f 43/51/32 45/53/34 44/52/33
f 45/53/34 46/54/34 44/52/33
f 45/53/34 47/55/35 46/54/34
f 48/56/33 44/52/33 46/54/34
f 47/55/35 49/57/35 46/54/34
f 50/58/36 48/56/33 46/54/34
f 50/58/36 46/54/34 49/57/35
f 51/59/35 50/58/36 49/57/35
f 17/21/37 19/23/37 52/60/37
f 19/23/37 53/61/37 52/60/37
f 52/60/37 53/61/37 54/62/37
f 53/61/37 55/63/37 54/62/37
f 54/62/37 55/63/37 56/64/37
f 57/65/37 54/62/37 56/64/37
f 25/42/31 27/66/31 58/67/31
f 27/66/31 59/68/31 58/67/31
f 60/69/31 58/67/31 59/68/31
f 61/70/31 60/69/31 59/68/31
f 61/70/31 62/71/31 60/69/31
f 62/71/31 24/47/31 60/69/31
f 24/47/31 22/46/31 60/69/31
f 18/33/18 17/72/17 41/73/38
f 18/33/18 41/73/38 29/34/39
f 41/73/38 40/74/40 29/34/39
f 63/75/41 29/34/39 40/74/40
f 30/36/42 29/34/39 63/75/41
f 64/76/43 30/36/42 63/75/41
f 30/36/42 64/76/43 32/38/44
f 64/76/43 4/77/45 32/38/44
f 32/38/44 4/77/45 13/40/13
f 4/77/45 2/78/46 13/40/13
f 2/78/46 14/79/14 13/40/13
f 27/66/28 28/80/27 9/81/47
f 27/66/28 9/81/47 59/68/48
f 9/81/47 10/82/49 59/68/48
f 59/68/48 10/82/49 61/70/50
f 10/82/49 65/83/51 61/70/50
f 62/71/52 61/70/50 65/83/51
f 66/84/53 62/71/52 65/83/51
f 62/71/52 66/84/53 67/85/54
f 62/71/52 67/85/54 24/47/23
f 67/85/54 68/86/55 24/47/23
f 24/47/23 68/86/55 23/87/24
f 63/88/41 40/48/40 69/89/56
f 40/48/40 42/50/56 69/89/56
f 6/90/57 69/89/56 42/50/56
f 44/52/58 6/90/57 42/50/56
f 5/91/59 6/90/57 44/52/58
f 48/56/60 5/91/59 44/52/58
f 48/56/60 70/92/61 5/91/59
f 71/93/62 70/92/61 48/56/60
f 50/58/62 71/93/62 48/56/60
f 72/94/63 71/93/62 50/58/62
f 51/59/64 72/94/63 50/58/62
f 5/95/59 70/96/61 1/97/65
f 70/96/61 73/98/66 1/97/65
f 1/97/65 73/98/66 2/99/46
f 73/98/66 14/18/14 2/99/46
f 41/100/38 17/21/17 43/101/67
f 17/21/17 52/60/67 43/101/67
f 43/101/67 52/60/67 45/102/68
f 52/60/67 54/62/69 45/102/68
f 45/102/68 54/62/69 47/103/70
f 54/62/69 57/65/71 47/103/70
f 74/104/72 75/105/73 76/106/74
f 75/105/73 77/107/68 76/106/74
f 76/106/74 77/107/68 78/108/75
f 77/107/68 79/109/75 78/108/75
f 78/108/75 79/109/75 68/110/55
f 79/109/75 23/27/24 68/110/55
f 9/111/47 28/32/27 7/112/76
f 28/32/27 80/113/77 7/112/76
f 7/112/76 80/113/77 11/114/78
f 80/113/77 81/115/79 11/114/78
f 82/41/30 83/116/30 84/117/29
f 83/116/30 85/118/30 84/117/29
f 85/118/30 83/116/30 86/35/30
f 87/33/30 85/118/30 86/35/30
f 88/119/80 89/120/80 90/121/80
f 91/122/80 88/119/80 90/121/80
f 88/119/80 91/122/80 92/123/80
f 91/122/80 81/115/80 92/123/80
f 81/115/80 80/113/80 92/123/80
f 92/123/80 80/113/80 26/30/80
f 80/113/80 28/32/80 26/30/80
f 23/27/37 79/109/37 21/25/37
f 79/109/37 93/124/37 21/25/37
f 79/109/37 77/107/37 93/124/37
f 77/107/37 94/125/37 93/124/37
f 95/126/37 94/125/37 77/107/37
f 75/105/37 95/126/37 77/107/37
f 57/87/71 56/127/21 38/46/21
f 39/47/81 57/87/71 38/46/21
f 57/87/71 39/47/81 47/86/70
f 47/86/70 39/47/81 49/128/82
f 39/47/81 37/45/82 49/128/82
f 49/128/82 37/45/82 51/129/64
f 37/45/82 35/43/83 51/129/64
f 51/129/64 35/43/83 72/130/63
f 96/131/25 72/130/63 35/43/83
f 34/42/25 96/131/25 35/43/83
f 91/132/84 90/133/85 97/134/86
f 98/135/84 91/132/84 97/134/86
f 81/136/79 91/132/84 98/135/84
f 99/137/87 81/136/79 98/135/84
f 99/137/87 11/138/78 81/136/79
f 12/139/88 11/138/78 99/137/87
f 100/140/89 12/139/88 99/137/87
f 101/141/90 12/139/88 100/140/89
f 102/142/91 101/141/90 100/140/89
f 101/141/90 102/142/91 66/143/53
f 102/142/91 67/144/54 66/143/53
f 90/145/85 89/146/15 82/41/15
f 84/117/92 90/145/85 82/41/16
f 90/145/85 84/117/92 97/147/86
f 97/147/86 84/117/92 103/148/93
f 84/117/92 85/118/93 103/148/93
f 103/148/93 85/118/93 74/73/72
f 85/118/93 87/33/94 74/73/72
f 87/33/94 75/72/73 74/73/72
f 95/149/19 75/72/73 87/33/94
f 86/35/19 95/149/19 87/33/18
f 72/150/80 96/151/80 104/152/80
f 71/153/80 72/150/80 104/152/80
f 71/153/80 104/152/80 73/98/80
f 70/96/80 71/153/80 73/98/80
f 104/152/80 105/154/80 73/98/80
f 105/154/80 16/20/80 73/98/80
f 16/20/80 14/18/80 73/98/80
f 67/144/95 102/142/95 68/155/95
f 102/142/95 78/156/95 68/155/95
f 78/156/95 102/142/95 106/157/32
f 76/158/32 78/156/95 106/157/32
f 102/142/95 100/140/96 106/157/32
f 76/158/32 106/157/32 74/159/97
f 106/157/32 100/140/96 99/137/96
f 106/157/32 103/160/97 74/159/97
f 98/135/33 106/157/32 99/137/96
f 103/160/97 106/157/32 98/135/33
f 97/134/97 103/160/97 98/135/33
f 63/161/98 69/162/99 107/163/100
f 107/163/100 69/162/99 6/164/6
f 107/163/100 64/165/101 63/161/98
f 3/166/3 107/163/100 6/164/6
f 4/167/4 64/165/101 107/163/100
f 3/166/3 4/167/4 107/163/100
f 66/168/102 108/169/103 101/170/104
f 108/169/103 66/168/102 65/171/105
f 12/172/12 101/170/104 108/169/103
f 108/169/103 65/171/105 10/173/10
f 8/174/8 12/172/12 108/169/103
f 8/174/8 108/169/103 10/173/10
