# Blender 3.6.18
# www.blender.org
mtllib Mesh.888.mtl
o Bistro_Research_Exterior_Paris_Building_01_paris_buildi_4dc3255
v 3.182362 4.184312 -15.200476
v 3.181922 4.184312 -15.199659
v 3.182365 1.907288 -15.200476
v 3.181925 1.907288 -15.199659
v 3.220681 4.184312 -15.276264
v 3.220307 4.184312 -15.275485
v 3.220685 1.907288 -15.276264
v 3.220310 1.907288 -15.275485
v 3.185718 4.184312 -15.206701
v 3.185722 1.907288 -15.206701
v 3.223773 4.184312 -15.282694
v 3.223777 1.907288 -15.282694
v 3.178566 4.184312 -15.193434
v 3.178569 1.907288 -15.193434
v 3.217215 4.184312 -15.269053
v 3.217218 1.907288 -15.269053
v 3.274321 4.184312 -15.150487
v 3.274328 1.907288 -15.150485
v 3.273875 4.184312 -15.149674
v 3.273883 1.907288 -15.149672
v 3.317084 4.184312 -15.223859
v 3.317092 1.907288 -15.223858
v 3.316634 4.184312 -15.223123
v 3.316642 1.907288 -15.223119
v 3.277720 4.184312 -15.156691
v 3.277728 1.907288 -15.156685
v 3.320799 4.184312 -15.229951
v 3.320807 1.907288 -15.229950
v 3.270476 4.184312 -15.143472
v 3.270484 1.907288 -15.143469
v 3.312919 4.184312 -15.217031
v 3.312927 1.907288 -15.217027
v 3.272377 4.184312 -15.256491
v 3.272382 1.907288 -15.256489
v 3.230818 1.907288 -15.278897
v 3.230815 4.184312 -15.278897
v 3.185610 1.907288 -15.189636
v 3.185607 4.184312 -15.189636
v 3.224612 1.907288 -15.168608
v 3.224607 4.184312 -15.168610
v 3.166990 4.184312 -15.230126
v 3.166993 1.907287 -15.230126
v 3.171988 1.907287 -15.223879
v 3.171985 4.184312 -15.223879
v 3.180726 1.907288 -15.212948
v 3.180723 4.184312 -15.212948
v 3.188172 4.184312 -15.271382
v 3.188175 1.907288 -15.271382
v 3.184521 1.907288 -15.264266
v 3.184517 4.184312 -15.264266
v 3.170647 1.907288 -15.237245
v 3.170644 4.184312 -15.237245
v 3.209243 1.907288 -15.269693
v 3.209240 4.184312 -15.269693
v 3.196149 1.907288 -15.270743
v 3.196146 4.184312 -15.270743
v 3.285680 4.184312 -15.155895
v 3.285688 1.907288 -15.155892
v 3.299604 4.184312 -15.154505
v 3.299613 1.907288 -15.154503
v 3.307565 4.184312 -15.153711
v 3.307573 1.907288 -15.153709
v 3.311551 4.184312 -15.160650
v 3.311558 1.907288 -15.160645
v 3.326682 4.184312 -15.186986
v 3.326690 1.907288 -15.186984
v 3.330668 4.184312 -15.193923
v 3.330675 1.907288 -15.193921
v 3.325794 4.184312 -15.200269
v 3.325802 1.907288 -15.200264
v 3.317792 4.184312 -15.210686
v 3.317800 1.907288 -15.210682
v 3.313783 4.184312 -15.233797
v 3.313792 1.907288 -15.233794
v 3.263460 4.184312 -15.147317
v 3.263469 1.907288 -15.147313
vn 0.8789 -0.0039 0.4769
vn 0.8789 -0.0040 0.4769
vn 0.9029 -0.0039 0.4298
vn -0.8774 -0.0039 -0.4797
vn -0.9966 -0.0039 0.0821
vn -0.9966 -0.0000 0.0821
vn -0.9013 -0.0039 -0.4331
vn -0.3092 -0.0039 -0.9510
vn -0.3092 -0.0040 -0.9510
vn -0.3092 -0.0038 -0.9510
vn -0.9584 -0.0039 0.2856
vn -0.9583 -0.0039 0.2856
vn -0.4949 -0.0039 -0.8690
vn -0.4949 -0.0000 -0.8689
vn -0.8547 -0.0039 -0.5191
vn -0.8547 -0.0040 -0.5191
vn 0.4613 -0.0040 0.8872
vn 0.8561 -0.0040 0.5168
vn 0.8561 -0.0039 0.5168
vn 0.9646 -0.0039 -0.2638
vn 0.2805 -0.0039 0.9599
vn 0.2804 -0.0039 0.9599
vn 0.9982 -0.0040 -0.0592
vn 0.9982 -0.0039 -0.0592
vn 0.4736 -0.0039 -0.8807
vn -0.4830 -0.0039 0.8756
vn -0.9952 -0.0039 0.0976
vn -0.7843 -0.0039 0.6204
vn -0.4890 -0.0039 -0.8723
vn -0.4889 -0.0039 -0.8723
vn -0.8889 -0.0039 -0.4581
vn -0.8889 -0.0039 -0.4582
vn 0.0743 -0.0039 -0.9972
vn -0.1061 -0.0039 0.9943
vn 0.4551 -0.0039 0.8904
vn 0.4551 -0.0040 0.8904
vn 0.8670 -0.0039 0.4982
vn 0.9972 -0.0040 -0.0749
vn 0.7881 -0.0039 -0.6156
vn 0.4737 -0.0039 -0.8807
vt 0.333740 0.515381
vt 0.333740 0.515625
vt -0.377441 0.515381
vt -0.377441 0.515625
vt 0.333740 0.488770
vt 0.333740 0.489258
vt -0.377441 0.488770
vt -0.377441 0.489258
vt 0.666016 0.515625
vt 0.666016 0.513184
vt 1.376953 0.515625
vt 1.376953 0.513184
vt 0.666016 0.489258
vt 0.666016 0.486816
vt 1.376953 0.489258
vt 1.376953 0.486816
vt 0.666016 0.517822
vt 0.666016 0.515381
vt 1.376953 0.517822
vt 1.376953 0.515381
vt 0.666016 0.491211
vt 0.666016 0.488770
vt 1.376953 0.491211
vt 1.376953 0.488770
vt 0.333740 0.524414
vt -0.377441 0.524414
vt -0.377441 0.509521
vt 0.333740 0.509521
vt -0.377441 0.507080
vt 0.333740 0.507080
vt 0.666016 0.507812
vt 1.376953 0.507812
vt 1.376953 0.510254
vt 0.666016 0.510254
vt 1.376953 0.524170
vt 0.666016 0.524170
vt 0.666016 0.499512
vt 1.376953 0.499512
vt 1.376953 0.501465
vt 0.666016 0.501465
vt 1.376953 0.505615
vt 0.666016 0.505615
vt 0.666016 0.495117
vt 1.376953 0.495117
vt 1.376953 0.497559
vt 0.666016 0.497559
vt 1.376953 0.507080
vt 0.666016 0.507080
vt 1.376953 0.509521
vt 0.666016 0.509521
vt 0.333740 0.507324
vt -0.377441 0.507324
vt -0.377441 0.504883
vt 0.333740 0.504883
vt -0.377441 0.501221
vt 0.333740 0.501221
vt -0.377441 0.499023
vt 0.333740 0.499023
s 1
usemtl MASTER_Wood_Painted3
f 1/1/1 2/2/1 3/3/1
f 2/2/2 4/4/1 3/3/2
f 5/5/3 6/6/3 7/7/3
f 6/6/3 8/8/3 7/7/3
f 2/9/4 9/10/5 4/11/4
f 9/10/6 10/12/5 4/11/4
f 6/13/7 11/14/8 8/15/7
f 11/14/9 12/16/10 8/15/7
f 13/17/11 1/18/4 14/19/11
f 1/18/4 3/20/4 14/19/12
f 15/21/13 5/22/7 16/23/14
f 5/22/7 7/24/7 16/23/13
f 17/1/4 18/3/4 19/2/4
f 18/3/4 20/4/4 19/2/4
f 21/5/15 22/7/15 23/6/15
f 22/7/15 24/8/16 23/6/15
f 19/9/1 20/11/1 25/10/17
f 20/11/1 26/12/17 25/10/17
f 23/13/18 24/15/19 27/14/20
f 24/15/19 28/16/20 27/14/20
f 29/17/21 30/19/22 17/18/1
f 30/19/22 18/20/1 17/18/1
f 31/21/23 32/23/24 21/22/18
f 32/23/24 22/24/18 21/22/18
f 33/25/25 34/26/25 35/27/25
f 36/28/25 33/25/25 35/27/25
f 36/28/25 35/27/25 12/29/10
f 11/30/9 36/28/25 12/29/10
f 13/31/11 14/32/11 37/33/26
f 38/34/26 13/31/11 37/33/26
f 38/34/26 37/33/26 39/35/26
f 40/36/26 38/34/26 39/35/26
f 41/37/27 42/38/27 43/39/28
f 44/40/28 41/37/27 43/39/28
f 44/40/28 43/39/28 45/41/28
f 46/42/28 44/40/28 45/41/28
f 46/42/28 45/41/28 10/32/5
f 9/31/6 46/42/28 10/32/5
f 47/43/29 48/44/30 49/45/31
f 50/46/31 47/43/29 49/45/31
f 50/46/31 49/45/31 51/47/32
f 52/48/31 50/46/31 51/47/32
f 52/48/31 51/47/32 42/49/27
f 41/50/27 52/48/31 42/49/27
f 15/51/13 16/52/14 53/53/33
f 54/54/33 15/51/13 53/53/33
f 54/54/33 53/53/33 55/55/33
f 56/56/33 54/54/33 55/55/33
f 56/56/33 55/55/33 48/57/30
f 47/58/29 56/56/33 48/57/30
f 25/31/17 26/32/17 57/42/34
f 26/32/17 58/41/34 57/42/34
f 57/42/34 58/41/34 59/40/34
f 58/41/34 60/39/34 59/40/34
f 59/40/34 60/39/34 61/37/35
f 60/39/34 62/38/36 61/37/35
f 61/50/35 62/49/36 63/48/37
f 62/49/36 64/47/37 63/48/37
f 63/48/37 64/47/37 65/46/37
f 64/47/37 66/45/37 65/46/37
f 65/46/37 66/45/37 67/43/38
f 66/45/37 68/44/38 67/43/38
f 67/58/38 68/57/38 69/56/39
f 68/57/38 70/55/39 69/56/39
f 69/56/39 70/55/39 71/54/39
f 70/55/39 72/53/39 71/54/39
f 71/54/39 72/53/39 31/51/23
f 72/53/39 32/52/24 31/51/23
f 27/30/20 28/29/20 73/28/40
f 28/29/20 74/27/25 73/28/40
f 73/28/40 74/27/25 33/25/25
f 74/27/25 34/26/25 33/25/25
f 40/36/26 39/35/26 75/34/26
f 39/35/26 76/33/26 75/34/26
f 75/34/26 76/33/26 29/31/21
f 76/33/26 30/32/22 29/31/21
