# Blender 3.6.18
# www.blender.org
mtllib Mesh.936.mtl
o Bistro_Research_Exterior_Paris_Building_01_paris_buildi_f1ba802
v -2.008491 1.163816 -5.996891
v -2.006841 1.203549 -5.999951
v -1.899902 1.163816 -6.198298
v -2.006841 1.124082 -5.999951
v -2.001942 1.242075 -6.009037
v -2.001942 1.085556 -6.009038
v -1.993943 1.278223 -6.023874
v -1.993943 1.049408 -6.023875
v -1.983086 1.310895 -6.044012
v -1.983086 1.016736 -6.044011
v -1.969702 1.339098 -6.068836
v -1.969702 0.988533 -6.068836
v -1.954197 1.361975 -6.097595
v -1.954197 0.965656 -6.097595
v -1.937042 1.378831 -6.129412
v -1.937042 0.948800 -6.129412
v -1.918759 1.389154 -6.163323
v -1.918758 0.938477 -6.163323
v -1.899902 1.392630 -6.198298
v -1.899902 0.935001 -6.198298
v -1.881046 1.389154 -6.233271
v -1.881046 0.938477 -6.233271
v -1.862763 1.378831 -6.267182
v -1.862763 0.948800 -6.267182
v -1.845608 1.361975 -6.299001
v -1.845608 0.965656 -6.299001
v -1.830103 1.339098 -6.327760
v -1.830103 0.988534 -6.327760
v -1.816718 1.310895 -6.352584
v -1.816718 1.016737 -6.352584
v -1.805862 1.278223 -6.372721
v -1.805861 1.049409 -6.372721
v -1.797862 1.242075 -6.387558
v -1.797862 1.085557 -6.387558
v -1.792963 1.203549 -6.396644
v -1.792963 1.124082 -6.396644
v -1.791313 1.163816 -6.399704
vn -0.8774 -0.0039 -0.4797
vt 1.000000 0.500000
vt 0.992188 0.586914
vt 0.499756 0.500244
vt 0.992188 0.413574
vt 0.969727 0.671143
vt 0.969727 0.329102
vt 0.932617 0.750000
vt 0.932617 0.250000
vt 0.882812 0.821411
vt 0.882812 0.178711
vt 0.821289 0.883057
vt 0.821289 0.117188
vt 0.750000 0.933044
vt 0.749512 0.067383
vt 0.670898 0.969849
vt 0.670898 0.030273
vt 0.586426 0.992405
vt 0.586426 0.007812
vt 0.500000 1.000000
vt 0.499756 0.000000
vt 0.413086 0.992405
vt 0.413086 0.007812
vt 0.328857 0.969849
vt 0.328857 0.030273
vt 0.250000 0.933044
vt 0.249878 0.067383
vt 0.178589 0.883057
vt 0.178589 0.117188
vt 0.116943 0.821411
vt 0.116943 0.178711
vt 0.066956 0.750122
vt 0.066956 0.250488
vt 0.030151 0.671143
vt 0.030151 0.329102
vt 0.007595 0.586914
vt 0.007595 0.413574
vt 0.000000 0.500244
s 1
usemtl MASTER_Focus_Ornament
f 1/1/1 2/2/1 3/3/1
f 4/4/1 1/1/1 3/3/1
f 2/2/1 5/5/1 3/3/1
f 6/6/1 4/4/1 3/3/1
f 5/5/1 7/7/1 3/3/1
f 8/8/1 6/6/1 3/3/1
f 7/7/1 9/9/1 3/3/1
f 10/10/1 8/8/1 3/3/1
f 9/9/1 11/11/1 3/3/1
f 12/12/1 10/10/1 3/3/1
f 11/11/1 13/13/1 3/3/1
f 14/14/1 12/12/1 3/3/1
f 13/13/1 15/15/1 3/3/1
f 16/16/1 14/14/1 3/3/1
f 15/15/1 17/17/1 3/3/1
f 18/18/1 16/16/1 3/3/1
f 17/17/1 19/19/1 3/3/1
f 20/20/1 18/18/1 3/3/1
f 19/19/1 21/21/1 3/3/1
f 22/22/1 20/20/1 3/3/1
f 21/21/1 23/23/1 3/3/1
f 24/24/1 22/22/1 3/3/1
f 23/23/1 25/25/1 3/3/1
f 26/26/1 24/24/1 3/3/1
f 25/25/1 27/27/1 3/3/1
f 28/28/1 26/26/1 3/3/1
f 27/27/1 29/29/1 3/3/1
f 30/30/1 28/28/1 3/3/1
f 29/29/1 31/31/1 3/3/1
f 32/32/1 30/30/1 3/3/1
f 31/31/1 33/33/1 3/3/1
f 34/34/1 32/32/1 3/3/1
f 33/33/1 35/35/1 3/3/1
f 36/36/1 34/34/1 3/3/1
f 35/35/1 37/37/1 3/3/1
f 37/37/1 36/36/1 3/3/1
