# Blender 3.6.18
# www.blender.org
mtllib Mesh.909.mtl
o Bistro_Research_Exterior_Paris_Building_01_paris_buildi_bc763d0
v 9.509130 6.368321 5.750651
v 9.520921 6.363070 5.755315
v 9.517369 6.368322 5.764292
v 9.509032 6.372036 5.760994
v 9.515899 6.381001 5.768011
v 9.504246 6.381001 5.748720
v 9.505580 6.381002 5.759628
v 9.509130 6.393681 5.750651
v 9.509032 6.389967 5.760994
v 9.520921 6.398933 5.755315
v 9.517369 6.393681 5.764292
v 9.532712 6.393681 5.759978
v 9.525707 6.389967 5.767590
v 9.537595 6.381001 5.761910
v 9.529161 6.381002 5.768955
v 9.532712 6.368321 5.759978
v 9.525707 6.372036 5.767590
vn -0.7538 -0.6210 0.2148
vn -0.1759 -0.8797 0.4418
vn -0.2714 -0.6884 0.6726
vn -0.7202 -0.4866 0.4944
vn -0.3721 -0.0039 0.9282
vn -0.9936 -0.0039 0.1130
vn -0.9074 -0.0039 0.4203
vn -0.7575 0.6162 0.2159
vn -0.7230 0.4807 0.4963
vn -0.1772 0.8779 0.4449
vn -0.2729 0.6842 0.6763
vn 0.3990 0.6202 0.6754
vn 0.1775 0.4853 0.8561
vn 0.6413 -0.0039 0.7672
vn 0.3653 -0.0039 0.9309
vn 0.3970 -0.6250 0.6722
vn 0.1769 -0.4913 0.8529
vt 0.874512 0.375000
vt 0.999512 0.375000
vt 0.999512 0.750000
vt 0.874512 0.750000
vt 0.874512 1.000000
vt 0.750000 0.375000
vt 0.750000 0.750000
vt 0.750000 1.000000
vt 0.625000 0.375000
vt 0.625000 0.750000
vt 0.625000 1.000000
vt 0.500000 0.375000
vt 0.500000 0.750000
vt 0.500000 1.000000
vt 0.375000 0.375000
vt 0.375000 0.750000
vt 0.375000 1.000000
vt 0.250000 0.375000
vt 0.250000 0.750000
vt 0.250000 1.000000
vt 0.125000 0.375000
vt 0.125000 0.750000
vt 0.125000 1.000000
vt 0.000000 0.375000
vt 0.000000 0.750000
vt 0.000000 1.000000
s 1
usemtl MASTER_Glass_Exterior
f 1/1/1 2/2/2 3/3/3
f 4/4/4 1/1/1 3/3/3
f 5/5/5 4/4/4 3/3/3
f 6/6/6 1/1/1 4/4/4
f 7/7/7 6/6/6 4/4/4
f 5/8/5 7/7/7 4/4/4
f 8/9/8 6/6/6 7/7/7
f 9/10/9 8/9/8 7/7/7
f 5/11/5 9/10/9 7/7/7
f 10/12/10 8/9/8 9/10/9
f 11/13/11 10/12/10 9/10/9
f 5/14/5 11/13/11 9/10/9
f 12/15/12 10/12/10 11/13/11
f 13/16/13 12/15/12 11/13/11
f 5/17/5 13/16/13 11/13/11
f 14/18/14 12/15/12 13/16/13
f 15/19/15 14/18/14 13/16/13
f 5/20/5 15/19/15 13/16/13
f 16/21/16 14/18/14 15/19/15
f 17/22/17 16/21/16 15/19/15
f 5/23/5 17/22/17 15/19/15
f 2/24/2 16/21/16 17/22/17
f 3/25/3 2/24/2 17/22/17
f 5/26/5 3/25/3 17/22/17
