# Blender 3.6.18
# www.blender.org
mtllib Mesh.692.mtl
o Bistro_Research_Exterior_paris_building_05_5155
v 16.108938 4.887901 -33.330673
v 16.108936 5.115894 -33.330673
v 16.351870 4.887901 -33.737064
v 16.351870 5.115894 -33.737064
v 18.752161 2.280170 -36.388203
v 18.752157 2.344836 -36.388203
v 20.546431 2.280170 -39.400948
v 20.546431 2.344836 -39.400951
v 18.752161 3.055770 -36.388203
v 18.752157 3.120437 -36.388203
v 20.546431 3.055770 -39.400948
v 20.546431 3.120437 -39.400951
v 18.810396 1.560732 -36.353390
v 18.810394 1.625398 -36.353390
v 20.604668 1.560732 -39.366138
v 20.604668 1.625398 -39.366138
v 20.017019 4.887901 -39.868366
v 20.017019 5.115894 -39.868366
v 20.259951 4.887901 -40.274757
v 20.259951 5.115894 -40.274761
v 20.002499 1.530850 -39.853970
v 20.265806 1.530850 -40.294449
v 20.008202 1.519732 -39.863514
v 20.260103 1.519732 -40.284904
v 16.221373 2.622375 -33.533840
v 16.145926 2.622375 -33.407635
v 16.145926 3.259634 -33.407635
v 16.221373 3.259634 -33.533840
v 16.296856 2.622375 -33.660114
v 16.296856 3.259634 -33.660114
v 16.357725 1.530849 -33.756756
v 16.352020 1.519732 -33.747211
v 16.100122 1.519732 -33.325821
v 16.094419 1.530849 -33.316280
v 16.094418 4.240664 -33.316277
v 16.357725 4.240664 -33.756752
v 16.352018 4.251782 -33.747208
v 16.100122 4.251782 -33.325817
v 16.172220 3.352425 -33.463795
v 16.101048 3.352425 -33.344730
v 16.127388 3.352425 -33.328983
v 16.198561 3.352425 -33.448044
v 16.208227 3.374716 -33.464218
v 16.181887 3.374716 -33.479965
v 16.193176 3.386674 -33.498852
v 16.219517 3.386674 -33.483105
v 16.230761 3.393734 -33.501915
v 16.204420 3.393734 -33.517662
v 16.216009 3.396229 -33.537048
v 16.242350 3.396229 -33.521297
v 16.253944 3.393734 -33.540691
v 16.227604 3.393734 -33.556442
v 16.238848 3.386674 -33.575253
v 16.265188 3.386674 -33.559502
v 16.276476 3.374716 -33.578384
v 16.250134 3.374716 -33.594135
v 16.259804 3.352425 -33.610310
v 16.286146 3.352425 -33.594563
v 16.331015 3.352425 -33.729435
v 16.357355 3.352425 -33.713688
v 16.362364 3.342666 -33.722065
v 16.336021 3.342666 -33.737816
v 16.336021 2.539342 -33.737816
v 16.362364 2.539342 -33.722065
v 16.331015 2.529582 -33.729435
v 16.357355 2.529582 -33.713688
v 16.286146 2.529582 -33.594563
v 16.259804 2.529582 -33.610310
v 16.276476 2.507292 -33.578384
v 16.250134 2.507292 -33.594135
v 16.238848 2.495333 -33.575253
v 16.265188 2.495333 -33.559502
v 16.253944 2.488273 -33.540691
v 16.227604 2.488273 -33.556442
v 16.216009 2.485779 -33.537048
v 16.242350 2.485779 -33.521297
v 16.230761 2.488273 -33.501915
v 16.204420 2.488273 -33.517662
v 16.193176 2.495333 -33.498852
v 16.219517 2.495333 -33.483105
v 16.208227 2.507292 -33.464218
v 16.181887 2.507292 -33.479965
v 16.172220 2.529582 -33.463795
v 16.198561 2.529582 -33.448044
v 16.127388 2.529582 -33.328983
v 16.101048 2.529582 -33.344730
v 16.096039 2.539342 -33.336353
v 16.122379 2.539342 -33.320606
v 16.096039 3.342666 -33.336353
v 16.122379 3.342666 -33.320606
v 20.008202 4.251783 -39.863510
v 20.260103 4.251783 -40.284904
v 20.002499 4.240665 -39.853966
v 20.265806 4.240665 -40.294449
v 16.163914 2.536643 -33.468918
v 16.096062 2.536627 -33.355412
v 16.091202 2.545308 -33.347282
v 16.091202 3.336699 -33.347282
v 16.109434 2.580838 -33.377777
v 16.096062 3.345381 -33.355412
v 16.109434 3.301170 -33.377777
v 16.163914 3.345364 -33.468918
v 16.173597 3.367652 -33.485119
v 16.207632 3.310312 -33.542053
v 16.184898 3.379611 -33.504025
v 16.196144 3.386670 -33.522835
v 16.207634 3.389165 -33.542057
v 16.219322 3.386672 -33.561611
v 16.230568 3.379610 -33.580421
v 16.241846 3.367651 -33.599285
v 16.251501 3.345359 -33.615440
v 16.320789 3.345342 -33.731350
v 16.324106 3.339061 -33.736897
v 16.302557 3.310138 -33.700851
v 16.324106 2.542947 -33.736897
v 16.305872 3.303532 -33.706402
v 16.320789 2.536666 -33.731350
v 16.305872 2.578476 -33.706402
v 16.251501 2.536648 -33.615440
v 16.302557 2.571869 -33.700851
v 16.241846 2.514356 -33.599285
v 16.207632 2.571696 -33.542053
v 16.230568 2.502398 -33.580421
v 16.219322 2.495337 -33.561611
v 16.207634 2.492842 -33.542057
v 16.196144 2.495338 -33.522835
v 16.184898 2.502396 -33.504025
v 16.173597 2.514355 -33.485119
v 16.112032 2.571900 -33.382126
v 16.208824 2.579230 -33.541340
v 16.113916 2.588157 -33.382633
v 16.116539 2.579409 -33.386967
v 16.300436 2.579430 -33.694588
v 16.218586 2.611227 -33.535507
v 16.138969 2.611223 -33.402321
v 16.136360 2.620019 -33.397980
v 16.297525 2.611231 -33.667564
v 16.136360 3.261989 -33.397980
v 16.303720 2.585796 -33.700153
v 16.300833 2.617657 -33.673119
v 16.303720 3.296213 -33.700153
v 16.300833 3.264350 -33.673119
v 16.297525 3.270777 -33.667564
v 16.300436 3.302578 -33.694588
v 16.218586 3.270781 -33.535507
v 16.208824 3.302777 -33.541340
v 16.116539 3.302598 -33.386967
v 16.138969 3.270785 -33.402321
v 16.112032 3.310107 -33.382126
v 16.113916 3.293850 -33.382633
vn -0.8582 -0.0039 -0.5133
vn -0.8602 -0.0039 -0.5099
vn -0.4908 0.8441 0.2159
vn -0.4845 0.8626 0.1458
vn -0.2005 0.9238 0.3263
vn -0.2238 0.9068 0.3572
vn -0.3269 0.7759 0.5396
vn -0.5300 0.7577 0.3808
vn -0.4455 0.8791 0.1695
vn -0.2090 0.9187 0.3351
vn -0.1139 0.9777 0.1767
vn -0.3653 0.9308 0.0118
vn -0.2624 0.9515 -0.1606
vn -0.0039 1.0000 -0.0039
vn 0.1060 0.9771 -0.1844
vn -0.1611 0.9315 -0.3262
vn -0.0588 0.8825 -0.4667
vn 0.2009 0.9177 -0.3427
vn 0.3185 0.7745 -0.5465
vn 0.0902 0.7570 -0.6472
vn -0.0353 0.8428 -0.5370
vn 0.2157 0.9058 -0.3647
vn -0.0825 0.8759 -0.4753
vn 0.1924 0.9228 -0.3338
vn 0.4675 0.3811 -0.7976
vn 0.1841 0.3644 -0.9129
vn 0.1836 -0.3712 -0.9102
vn 0.4661 -0.3878 -0.7952
vn -0.0820 -0.8778 -0.4720
vn 0.1910 -0.9240 -0.3314
vn 0.2141 -0.9072 -0.3621
vn -0.0351 -0.8451 -0.5335
vn 0.3165 -0.7777 -0.5432
vn 0.0897 -0.7603 -0.6433
vn -0.0584 -0.8842 -0.4635
vn 0.1994 -0.9190 -0.3402
vn 0.1052 -0.9775 -0.1830
vn -0.1600 -0.9325 -0.3238
vn -0.2604 -0.9523 -0.1594
vn -0.0039 -1.0000 -0.0039
vn -0.1130 -0.9780 0.1754
vn -0.3626 -0.9319 0.0117
vn -0.4424 -0.8809 0.1684
vn -0.2075 -0.9199 0.3327
vn -0.3249 -0.7790 0.5363
vn -0.5268 -0.7610 0.3786
vn -0.4875 -0.8463 0.2145
vn -0.2222 -0.9082 0.3547
vn -0.1990 -0.9249 0.3239
vn -0.4812 -0.8646 0.1448
vn -0.7345 -0.3810 0.5616
vn -0.4752 -0.3888 0.7893
vn -0.7366 0.3742 0.5633
vn -0.4766 0.3821 0.7917
vn -0.8682 -0.3309 -0.3698
vn -0.8240 -0.4647 -0.3241
vn -0.9846 -0.1673 -0.0506
vn -0.9859 0.1597 -0.0507
vn -0.8240 0.0195 -0.5663
vn -0.8270 0.4585 -0.3253
vn -0.8238 -0.0273 -0.5662
vn -0.8704 0.3240 -0.3708
vn -0.9074 0.4046 -0.1139
vn -0.8541 -0.0975 -0.5109
vn -0.8518 0.4436 -0.2787
vn -0.8078 0.4644 -0.3629
vn -0.7563 0.4742 -0.4507
vn -0.6993 0.4649 -0.5430
vn -0.6436 0.4486 -0.6202
vn -0.5209 0.4113 -0.7480
vn -0.7337 0.3300 -0.5940
vn -0.6451 0.4653 -0.6060
vn -0.4965 0.1838 -0.8484
vn -0.8679 -0.0506 -0.4942
vn -0.4958 -0.1913 -0.8471
vn -0.8821 -0.0272 -0.4702
vn -0.6428 -0.4714 -0.6038
vn -0.8823 0.0194 -0.4703
vn -0.7318 -0.3369 -0.5924
vn -0.8682 0.0428 -0.4944
vn -0.5192 -0.4177 -0.7456
vn -0.8547 0.0899 -0.5112
vn -0.6413 -0.4547 -0.6180
vn -0.6967 -0.4710 -0.5410
vn -0.7535 -0.4802 -0.4490
vn -0.8049 -0.4705 -0.3617
vn -0.8488 -0.4498 -0.2777
vn -0.9045 -0.4111 -0.1135
vn -0.8451 0.0350 -0.5335
vn -0.8309 0.2535 -0.4954
vn -0.7137 0.0585 -0.6980
vn -0.7985 0.1597 -0.5804
vn -0.8785 0.1835 -0.4412
vn -0.8076 0.3316 -0.4877
vn -0.7625 0.2464 -0.5983
vn -0.6112 0.0429 -0.7903
vn -0.8665 0.2705 -0.4195
vn -0.6110 -0.0506 -0.7900
vn -0.9405 0.0741 -0.3317
vn -0.9793 0.0663 -0.1912
vn -0.9399 -0.0819 -0.3315
vn -0.9788 -0.0740 -0.1910
vn -0.8647 -0.2777 -0.4186
vn -0.8772 -0.1910 -0.4405
vn -0.8055 -0.3385 -0.4864
vn -0.8292 -0.2608 -0.4944
vn -0.7975 -0.1673 -0.5797
vn -0.7610 -0.2537 -0.5971
vn -0.8448 -0.0428 -0.5334
vn -0.7133 -0.0663 -0.6977
vn -0.7769 0.1445 -0.6129
vn -0.7744 0.1907 -0.6032
vn -0.7140 0.0507 -0.6984
vn -0.8232 0.2770 -0.4955
vn -0.7136 -0.0585 -0.6981
vn -0.7759 -0.1521 -0.6122
vn -0.8836 0.2141 -0.4165
vn -0.7733 -0.1982 -0.6023
vn -0.9065 0.1452 -0.3964
vn -0.8214 -0.2842 -0.4944
vn -0.9423 0.0821 -0.3245
vn -0.8215 -0.2842 -0.4944
vn -0.9417 -0.0899 -0.3243
vn -0.8821 -0.2215 -0.4158
vn -0.9054 -0.1530 -0.3959
vt 0.605957 0.159668
vt 0.605957 0.262207
vt 0.392822 0.159668
vt 0.392822 0.262207
vt -0.070923 0.358887
vt -0.070923 0.379883
vt -1.166016 0.359863
vt -1.166016 0.379395
vt -0.089050 0.626221
vt -0.089050 0.646973
vt -1.184570 0.626953
vt -1.184570 0.646484
vt -0.063477 0.940460
vt -0.063477 0.961304
vt -1.159180 0.941101
vt -1.159180 0.960663
vt 0.606445 0.159180
vt 0.606445 0.262207
vt 0.392334 0.159180
vt 0.392334 0.262207
vt 2.162109 0.718262
vt 2.162109 0.557861
vt 2.166016 0.714844
vt 2.166016 0.561279
vt -0.121460 0.322266
vt -0.121399 0.486816
vt -0.834961 0.486816
vt -0.834473 0.322266
vt -0.121399 0.158203
vt -0.834961 0.158203
vt 2.119141 0.808960
vt 2.121094 0.812378
vt 2.121094 0.965790
vt 2.119141 0.969269
vt 1.272461 0.969101
vt 1.272461 0.808838
vt 1.268555 0.812256
vt 1.268555 0.965637
vt -1.208008 0.026367
vt -1.357422 0.026367
vt -1.357422 -0.005859
vt -1.208008 -0.005859
vt -1.188477 -0.005859
vt -1.188477 0.026367
vt -1.164062 0.026367
vt -1.164062 -0.005859
vt -1.140625 -0.005859
vt -1.140625 0.026367
vt -1.116211 0.026367
vt -1.116211 -0.005859
vt -1.091797 -0.005859
vt -1.091797 0.026367
vt -1.068359 0.026367
vt -1.068359 -0.005859
vt -1.044922 -0.005859
vt -1.044922 0.026367
vt -1.024414 0.026367
vt -1.024414 -0.005859
vt -0.875488 0.026367
vt -0.875488 -0.005859
vt -0.864746 -0.005859
vt -0.864746 0.026367
vt -0.000506 0.026367
vt -0.000506 -0.005859
vt 0.009995 0.026367
vt 0.009995 -0.005859
vt 0.159302 -0.005859
vt 0.159302 0.026367
vt 0.179565 -0.005859
vt 0.179565 0.026367
vt 0.203247 0.026367
vt 0.203247 -0.005859
vt 0.226929 -0.005859
vt 0.226929 0.026367
vt 0.251221 0.026367
vt 0.251221 -0.005859
vt 0.275391 -0.005859
vt 0.275391 0.026367
vt 0.299072 0.026367
vt 0.299072 -0.005859
vt 0.322754 -0.005859
vt 0.322754 0.026367
vt 0.343018 0.026367
vt 0.343018 -0.005859
vt 0.492432 -0.005859
vt 0.492432 0.026367
vt 0.502930 0.026367
vt 0.502930 -0.005859
vt 1.367188 0.026367
vt 1.367188 -0.005859
vt 1.377930 -0.005859
vt 1.377930 0.026367
vt 1.312500 0.714600
vt 1.312500 0.561279
vt 1.316406 0.718018
vt 1.316406 0.557861
vt -0.024582 0.418457
vt -0.011040 0.418945
vt -0.013565 0.575684
vt -0.025330 0.566406
vt -0.026703 0.588135
vt -0.034851 0.576172
vt -0.921387 0.576416
vt -0.929199 0.588379
vt -0.074463 0.537109
vt -0.930664 0.566650
vt -0.942383 0.576172
vt -0.881836 0.537109
vt -0.931641 0.417969
vt -0.944824 0.420898
vt -0.956543 0.395996
vt -0.969238 0.399902
vt -0.982910 0.374512
vt -0.892090 0.322266
vt -0.969727 0.371582
vt -0.977539 0.347168
vt -0.991211 0.348633
vt -0.993652 0.322266
vt -0.980469 0.322266
vt -0.977539 0.296875
vt -0.991211 0.295898
vt -0.982910 0.270508
vt -0.969727 0.272461
vt -0.956543 0.248047
vt -0.969238 0.244629
vt -0.944824 0.223633
vt -0.931641 0.226074
vt -0.942871 0.068359
vt -0.930664 0.074707
vt -0.923828 0.068359
vt -0.929199 0.055664
vt -0.892090 0.114746
vt -0.032257 0.068359
vt -0.026718 0.056152
vt -0.013443 0.068359
vt -0.884277 0.107422
vt -0.025436 0.074707
vt -0.071777 0.107422
vt -0.024567 0.226562
vt -0.011292 0.223633
vt -0.064209 0.114746
vt 0.000176 0.248535
vt 0.013031 0.245117
vt 0.026901 0.270508
vt -0.063965 0.322754
vt 0.013588 0.272461
vt 0.021469 0.296875
vt 0.034882 0.296387
vt 0.037659 0.322754
vt 0.024231 0.322754
vt 0.021439 0.347656
vt 0.034821 0.349121
vt 0.026764 0.374512
vt 0.013542 0.372070
vt 0.000087 0.396484
vt 0.012817 0.400391
vt -0.011642 0.423340
vt -0.064270 0.531250
vt -0.071899 0.322266
vt -0.082458 0.530029
vt -0.072205 0.523926
vt -0.072205 0.122070
vt -0.109192 0.322266
vt -0.109192 0.496094
vt -0.118713 0.501221
vt -0.109253 0.150391
vt -0.837402 0.501221
vt -0.079712 0.114258
vt -0.116089 0.143066
vt -0.876465 0.114258
vt -0.840332 0.143555
vt -0.847168 0.150391
vt -0.883789 0.122070
vt -0.846680 0.322266
vt -0.884277 0.322266
vt -0.883789 0.523926
vt -0.847168 0.496094
vt -0.891602 0.531250
vt -0.873535 0.530029
s 1
usemtl MASTER_Wood_Painted3
f 1/1/1 2/2/1 3/3/1
f 2/2/1 4/4/1 3/3/1
f 5/5/2 6/6/2 7/7/2
f 6/6/2 8/8/2 7/7/2
f 9/9/2 10/10/2 11/11/2
f 10/10/2 12/12/2 11/11/2
f 13/13/2 14/14/2 15/15/2
f 14/14/2 16/16/2 15/15/2
f 17/17/1 18/18/1 19/19/1
f 18/18/1 20/20/1 19/19/1
f 21/21/1 22/22/1 23/23/1
f 22/22/1 24/24/1 23/23/1
f 25/25/1 26/26/1 27/27/1
f 28/28/1 25/25/1 27/27/1
f 25/25/1 28/28/1 29/29/1
f 28/28/1 30/30/1 29/29/1
f 31/31/1 32/32/1 33/33/1
f 34/34/1 31/31/1 33/33/1
f 34/34/1 35/35/1 31/31/1
f 35/35/1 36/36/1 31/31/1
f 37/37/1 36/36/1 35/35/1
f 38/38/1 37/37/1 35/35/1
f 39/39/3 40/40/4 41/41/5
f 42/42/6 39/39/3 41/41/5
f 39/39/3 42/42/6 43/43/7
f 44/44/8 39/39/3 43/43/7
f 45/45/9 44/44/8 43/43/7
f 46/46/10 45/45/9 43/43/7
f 45/45/9 46/46/10 47/47/11
f 48/48/12 45/45/9 47/47/11
f 49/49/13 48/48/12 47/47/11
f 50/50/14 49/49/13 47/47/11
f 49/49/13 50/50/14 51/51/15
f 52/52/16 49/49/13 51/51/15
f 53/53/17 52/52/16 51/51/15
f 54/54/18 53/53/17 51/51/15
f 53/53/17 54/54/18 55/55/19
f 56/56/20 53/53/17 55/55/19
f 57/57/21 56/56/20 55/55/19
f 58/58/22 57/57/21 55/55/19
f 59/59/23 57/57/21 58/58/22
f 60/60/24 59/59/23 58/58/22
f 60/60/24 61/61/25 59/59/23
f 61/61/25 62/62/26 59/59/23
f 62/62/26 61/61/25 63/63/27
f 61/61/25 64/64/28 63/63/27
f 65/65/29 63/63/27 64/64/28
f 66/66/30 65/65/29 64/64/28
f 66/66/30 67/67/31 65/65/29
f 67/67/31 68/68/32 65/65/29
f 67/67/31 69/69/33 68/68/32
f 69/69/33 70/70/34 68/68/32
f 70/70/34 69/69/33 71/71/35
f 69/69/33 72/72/36 71/71/35
f 72/72/36 73/73/37 71/71/35
f 73/73/37 74/74/38 71/71/35
f 74/74/38 73/73/37 75/75/39
f 73/73/37 76/76/40 75/75/39
f 76/76/40 77/77/41 75/75/39
f 77/77/41 78/78/42 75/75/39
f 78/78/42 77/77/41 79/79/43
f 77/77/41 80/80/44 79/79/43
f 80/80/44 81/81/45 79/79/43
f 81/81/45 82/82/46 79/79/43
f 82/82/46 81/81/45 83/83/47
f 81/81/45 84/84/48 83/83/47
f 84/84/48 85/85/49 83/83/47
f 85/85/49 86/86/50 83/83/47
f 87/87/51 86/86/50 85/85/49
f 88/88/52 87/87/51 85/85/49
f 87/87/51 88/88/52 89/89/53
f 88/88/52 90/90/54 89/89/53
f 90/90/54 41/91/5 89/89/53
f 41/91/5 40/92/4 89/89/53
f 91/93/1 92/94/1 93/95/1
f 92/94/1 94/96/1 93/95/1
f 93/95/1 94/96/1 22/22/1
f 21/21/1 93/95/1 22/22/1
f 95/97/55 83/98/47 86/99/50
f 96/100/56 95/97/55 86/99/50
f 86/99/50 87/101/51 96/100/56
f 87/101/51 97/102/57 96/100/56
f 98/103/58 97/102/57 87/101/51
f 89/104/53 98/103/58 87/101/51
f 97/102/57 99/105/59 96/100/56
f 100/106/60 98/103/58 89/104/53
f 40/107/4 100/106/60 89/104/53
f 98/103/58 101/108/61 97/102/57
f 101/108/61 99/105/59 97/102/57
f 98/103/58 100/106/60 101/108/61
f 100/106/60 40/107/4 102/109/62
f 40/107/4 39/110/3 102/109/62
f 102/109/62 39/110/3 103/111/63
f 39/110/3 44/112/8 103/111/63
f 44/112/8 45/113/9 103/111/63
f 102/109/62 104/114/64 100/106/60
f 104/114/64 102/109/62 103/111/63
f 45/113/9 105/115/65 103/111/63
f 105/115/65 104/114/64 103/111/63
f 105/115/65 45/113/9 106/116/66
f 104/114/64 105/115/65 106/116/66
f 45/113/9 48/117/12 106/116/66
f 48/117/12 49/118/13 106/116/66
f 49/118/13 107/119/67 106/116/66
f 107/119/67 104/114/64 106/116/66
f 107/119/67 49/118/13 108/120/68
f 104/114/64 107/119/67 108/120/68
f 49/118/13 52/121/16 108/120/68
f 52/121/16 53/122/17 108/120/68
f 53/122/17 109/123/69 108/120/68
f 109/123/69 104/114/64 108/120/68
f 109/123/69 53/122/17 110/124/70
f 104/114/64 109/123/69 110/124/70
f 53/122/17 56/125/20 110/124/70
f 56/125/20 57/126/21 110/124/70
f 57/126/21 111/127/71 110/124/70
f 111/127/71 104/114/64 110/124/70
f 111/127/71 57/126/21 59/128/23
f 112/129/72 111/127/71 59/128/23
f 111/127/71 112/129/72 104/114/64
f 113/130/73 112/129/72 59/128/23
f 62/131/26 113/130/73 59/128/23
f 112/129/72 114/132/74 104/114/64
f 112/129/72 113/130/73 114/132/74
f 113/130/73 62/131/26 115/133/75
f 62/131/26 63/134/27 115/133/75
f 63/134/27 65/135/29 115/133/75
f 113/130/73 116/136/76 114/132/74
f 65/135/29 117/137/77 115/133/75
f 113/130/73 115/133/75 118/138/78
f 116/136/76 113/130/73 118/138/78
f 117/137/77 65/135/29 119/139/79
f 65/135/29 68/140/32 119/139/79
f 117/137/77 120/141/80 115/133/75
f 120/141/80 118/138/78 115/133/75
f 121/142/81 119/139/79 68/140/32
f 70/143/34 121/142/81 68/140/32
f 121/142/81 70/143/34 71/144/35
f 119/139/79 122/145/82 117/137/77
f 119/139/79 121/142/81 122/145/82
f 122/145/82 120/141/80 117/137/77
f 123/146/83 121/142/81 71/144/35
f 122/145/82 121/142/81 123/146/83
f 124/147/84 123/146/83 71/144/35
f 123/146/83 124/147/84 122/145/82
f 74/148/38 124/147/84 71/144/35
f 124/147/84 74/148/38 75/149/39
f 125/150/85 124/147/84 75/149/39
f 122/145/82 124/147/84 125/150/85
f 126/151/86 125/150/85 75/149/39
f 125/150/85 126/151/86 122/145/82
f 78/152/42 126/151/86 75/149/39
f 126/151/86 78/152/42 79/153/43
f 127/154/87 126/151/86 79/153/43
f 122/145/82 126/151/86 127/154/87
f 128/155/88 127/154/87 79/153/43
f 127/154/87 128/155/88 122/145/82
f 82/156/46 128/155/88 79/153/43
f 128/155/88 82/156/46 83/157/47
f 95/97/55 128/155/88 83/157/47
f 122/145/82 128/155/88 95/97/55
f 95/97/55 96/100/56 122/145/82
f 96/100/56 129/158/89 122/145/82
f 99/105/59 129/158/89 96/100/56
f 130/159/90 122/145/82 129/158/89
f 120/141/80 122/145/82 130/159/90
f 129/158/89 99/105/59 131/160/91
f 99/105/59 101/108/61 131/160/91
f 132/161/92 130/159/90 129/158/89
f 132/161/92 129/158/89 131/160/91
f 133/162/93 120/141/80 130/159/90
f 120/141/80 133/162/93 118/138/78
f 130/159/90 132/161/92 134/163/94
f 130/159/90 134/163/94 133/162/93
f 132/161/92 135/164/95 134/163/94
f 136/165/96 135/164/95 132/161/92
f 131/160/91 136/165/96 132/161/92
f 134/163/94 137/166/97 133/162/93
f 138/167/98 136/165/96 131/160/91
f 133/162/93 137/166/97 139/168/99
f 133/162/93 139/168/99 118/138/78
f 137/166/97 140/169/100 139/168/99
f 116/136/76 118/138/78 139/168/99
f 141/170/101 139/168/99 140/169/100
f 141/170/101 116/136/76 139/168/99
f 142/171/102 141/170/101 140/169/100
f 141/170/101 142/171/102 143/172/103
f 116/136/76 141/170/101 144/173/104
f 144/173/104 141/170/101 143/172/103
f 114/132/74 116/136/76 144/173/104
f 144/173/104 143/172/103 145/174/105
f 144/173/104 146/175/106 114/132/74
f 146/175/106 144/173/104 145/174/105
f 146/175/106 104/114/64 114/132/74
f 146/175/106 145/174/105 147/176/107
f 145/174/105 148/177/108 147/176/107
f 147/176/107 148/177/108 138/167/98
f 149/178/109 104/114/64 146/175/106
f 147/176/107 149/178/109 146/175/106
f 104/114/64 149/178/109 100/106/60
f 100/106/60 149/178/109 101/108/61
f 150/179/110 147/176/107 138/167/98
f 147/176/107 150/179/110 149/178/109
f 150/179/110 101/108/61 149/178/109
f 150/179/110 138/167/98 131/160/91
f 101/108/61 150/179/110 131/160/91
f 26/26/111 135/164/112 136/165/113
f 134/163/114 135/164/112 26/26/111
f 136/165/113 138/167/115 26/26/111
f 25/25/114 134/163/114 26/26/111
f 138/167/115 27/27/116 26/26/111
f 137/166/117 134/163/114 25/25/114
f 27/27/116 138/167/115 148/177/118
f 29/29/119 137/166/117 25/25/114
f 27/27/116 148/177/118 145/174/120
f 140/169/121 137/166/117 29/29/119
f 28/28/122 27/27/116 145/174/120
f 140/169/121 29/29/119 142/171/123
f 28/28/122 145/174/120 143/172/124
f 29/29/119 30/30/125 142/171/123
f 30/30/125 28/28/122 143/172/124
f 142/171/123 30/30/125 143/172/124
