# Blender 3.6.18
# www.blender.org
mtllib Mesh.1158.mtl
o Bistro_Research_Exterior_Paris_Building_01_paris_buildi_66b38fd
v 3.822747 11.138927 -16.792273
v 3.810826 11.124376 -16.786488
v 3.805583 11.135026 -16.776972
v 3.824621 8.004408 -16.795731
v 3.814253 7.995028 -16.796286
v 3.810825 8.004408 -16.786484
v 3.787302 7.995028 -16.793402
v 3.767780 7.987662 -16.777071
v 3.779876 8.004408 -16.783173
v 2.774800 10.837214 -14.944531
v 2.787817 10.856449 -14.953246
v 2.794428 10.846730 -14.963555
v 2.750885 11.386867 -14.900395
v 2.755929 11.384026 -14.890015
v 2.760398 11.393406 -14.898261
v 2.834952 10.874399 -14.969408
v 2.825592 10.860455 -14.969336
v 2.821261 10.871180 -14.959451
v 4.267038 11.393404 -16.858242
v 3.923342 11.393404 -17.044456
v 3.103871 11.393405 -14.712234
v 4.271508 11.384024 -16.866489
v 4.271508 10.811212 -16.866489
v 3.927810 11.384024 -17.052704
v 3.927810 10.811212 -17.052704
v 4.267039 10.801831 -16.858242
v 4.239938 10.801832 -16.808239
v 3.923342 10.801831 -17.044456
v 3.896013 10.801832 -16.994020
v 4.235468 10.792453 -16.799995
v 4.235467 7.926637 -16.799994
v 3.891541 10.792453 -16.985769
v 3.891779 7.926636 -16.986282
v 4.096741 11.040880 -16.544058
v 3.752847 11.040880 -16.729813
v 4.096739 7.926637 -16.544058
v 3.753085 7.926637 -16.730330
v 4.092272 11.050260 -16.535812
v 3.278865 11.050262 -15.035082
v 3.748382 11.050260 -16.721573
v 2.935143 11.050261 -15.220751
v 3.274394 7.926639 -15.026834
v 2.930911 7.926639 -15.213014
v 3.274395 11.040881 -15.026835
v 2.930672 11.040882 -15.212498
v 3.140322 10.792455 -14.779490
v 2.796867 10.792455 -14.965569
v 3.140322 7.926639 -14.779492
v 2.796838 7.926639 -14.965590
v 3.135853 10.801833 -14.771244
v 3.103870 10.801833 -14.712234
v 2.792398 10.801833 -14.957322
v 2.760397 10.801833 -14.898261
v 3.099401 11.384026 -14.703985
v 3.099401 10.811214 -14.703987
v 2.755929 10.811214 -14.890015
v 2.821261 11.297105 -14.959450
v 2.787817 11.314843 -14.953246
v 2.857717 10.860455 -15.028623
v 2.824603 10.846730 -15.019242
v 2.865571 10.851181 -15.040015
v 2.865571 8.004410 -15.040014
v 2.828487 10.835808 -15.029513
v 2.828486 8.004409 -15.029513
v 2.868234 7.995031 -15.050518
v 2.904417 7.995030 -15.117267
v 2.838304 7.995030 -15.042042
v 2.892160 7.995030 -15.141423
v 2.910764 8.004409 -15.125487
v 2.910764 11.124379 -15.125488
v 2.896677 8.004409 -15.153250
v 2.896678 11.107271 -15.153250
v 2.915872 11.135028 -15.135091
v 2.901878 11.118028 -15.162671
v 3.774820 11.118027 -16.773680
v 3.779878 11.107270 -16.783175
v 3.863371 7.995028 -16.886908
v 3.854109 7.995028 -16.916687
v 3.870716 8.004408 -16.894873
v 3.870718 10.864710 -16.894875
v 3.859245 8.004408 -16.931755
v 3.859246 10.849328 -16.931755
v 3.875974 10.873982 -16.907682
v 3.903395 10.873982 -16.958288
v 3.865731 10.860248 -16.940619
v 3.891192 10.860248 -16.987606
v 3.909313 10.884705 -16.967314
v 3.909312 11.297099 -16.967316
v 3.896218 10.869965 -16.998772
v 3.896217 11.314849 -16.998772
v 3.903685 11.308011 -16.957972
v 2.826014 11.308014 -14.969268
v 3.891079 11.325089 -16.988249
v 2.793830 11.325092 -14.963297
v 3.067625 10.801833 -14.758596
v 2.810631 10.801833 -14.897830
v 3.067625 7.926639 -14.758597
v 2.810602 7.926639 -14.897852
v 3.915977 7.926639 -16.957747
v 3.916006 10.801833 -16.957726
v 3.942374 7.927217 -17.006403
v 3.943056 10.837207 -17.007645
v 3.955094 7.927314 -17.010176
v 3.955095 10.842166 -17.010176
v 4.093317 7.927314 -16.935287
v 4.093318 10.842166 -16.935287
v 2.912703 11.138923 -15.112870
v 3.869032 8.004408 -16.877668
v 2.879065 8.004410 -15.050817
v 2.910538 8.004409 -15.108879
v 3.916327 10.808300 -17.051199
v 3.880062 10.808315 -16.984270
v 3.859690 10.849206 -16.946674
v 3.895849 10.849221 -17.013405
v 3.859313 7.987817 -16.945988
v 3.747532 11.057334 -16.739693
v 2.919253 11.056873 -15.211113
v 2.816386 7.988218 -15.021290
v 2.895471 7.988158 -15.167229
v 2.792413 10.806792 -14.977036
v 2.751477 10.806786 -14.901486
v 2.775392 11.336851 -14.945622
v 3.916580 11.386420 -17.051664
v 2.815670 10.837206 -15.019958
v 2.875912 10.873983 -15.045000
v 3.767617 11.105744 -16.776758
v 3.880679 7.933846 -16.985477
v 3.879065 7.926636 -16.982506
v 2.919627 7.933510 -15.211871
v 2.918196 7.926639 -15.209238
v 2.833778 11.296455 -14.967240
v 2.806177 10.806792 -14.909298
v 2.833226 10.842166 -14.959218
v 2.833225 7.927314 -14.959217
v 2.806828 7.926735 -14.910564
v 3.871746 10.887166 -16.882675
v 3.908448 10.887921 -16.950407
v 3.909487 11.296778 -16.952324
v 3.895596 11.337295 -17.012938
v 3.749308 7.926637 -16.743044
v 2.791666 7.933450 -14.975726
v 2.793060 7.926639 -14.978308
v 2.895603 11.106208 -15.167464
v 3.747608 7.934004 -16.739901
vn -0.8635 0.0195 -0.5040
vn -0.5041 0.0039 -0.8636
vn -0.4042 0.8828 -0.2393
vn -0.8774 -0.0039 -0.4797
vn -0.5193 0.7223 -0.4568
vn -0.4991 0.7662 -0.4047
vn -0.4581 0.0039 -0.8889
vn -0.5426 0.0351 -0.8393
vn -0.6132 0.5507 -0.5663
vn -0.7588 0.3420 0.5543
vn -0.5199 0.8405 -0.1525
vn -0.6600 0.5194 -0.5428
vn -0.5569 0.0429 -0.8295
vn -0.0039 1.0000 -0.0039
vn 0.4736 -0.0039 -0.8807
vn -0.0039 -1.0000 -0.0039
vn -0.4830 -0.0039 0.8756
vn -0.1841 -0.0039 -0.9829
vn -0.4358 0.8676 -0.2395
vn -0.2762 -0.0039 -0.9611
vn -0.2763 -0.0039 -0.9611
vn -0.8936 -0.0039 0.4488
vn -0.4906 0.8282 -0.2708
vn -0.4907 0.8282 -0.2709
vn -0.1130 -0.0039 -0.9936
vn -0.9562 -0.0039 0.2927
vn -0.4294 0.8706 -0.2403
vn -0.9255 -0.0039 0.3788
vn -0.4875 -0.8306 -0.2691
vn -0.8014 -0.0039 -0.5981
vn -0.4201 0.8833 -0.2080
vn -0.8966 0.0196 -0.4424
vn -0.6690 0.7160 -0.1995
vn -0.5050 0.7164 -0.4815
vn -0.6716 0.7266 -0.1453
vn -0.8775 -0.0039 -0.4796
vn 0.2379 -0.7603 -0.6044
vn -0.8775 -0.0039 -0.4797
vn 0.2233 -0.7562 -0.6151
vn -0.7895 0.5774 -0.2082
vn -0.8319 0.5117 -0.2148
vn -0.6220 0.7550 -0.2073
vn -0.5197 -0.8478 -0.1055
vn -0.3700 -0.8452 -0.3856
vn -0.4899 0.7643 -0.4193
vn -0.6000 0.7803 -0.1765
vn -0.3801 -0.7641 0.5212
vn -0.3696 -0.7665 0.5253
vn -0.5424 -0.0429 -0.8390
vn -0.4102 0.8399 -0.3555
vn 0.0898 0.3475 -0.9334
vn 0.3346 0.7045 -0.6258
vn -0.4102 0.8399 -0.3554
vn 0.3346 0.7046 -0.6258
vn -0.3432 0.7061 0.6194
vn -0.3432 0.7061 0.6193
vn 0.3327 -0.7085 -0.6224
vn 0.0896 -0.3544 -0.9308
vn -0.0506 -0.1052 -0.9932
vn -0.8485 -0.0977 0.5201
vn -0.3413 -0.7101 0.6159
vn -0.8485 -0.0978 0.5201
vn -0.0585 -0.0974 -0.9935
vn -0.8871 -0.1055 0.4494
vn -0.9983 0.0039 0.0587
vn -0.9972 0.0039 0.0743
vn -0.9996 0.0039 -0.0274
vn -0.9998 0.0039 -0.0196
vn -0.2453 -0.0039 -0.9694
vn -0.5805 0.0039 -0.8143
vn -0.5520 0.0039 -0.8338
vn -0.5574 0.0039 -0.8302
vn -0.5845 0.6080 -0.5374
vn -0.6766 0.4967 -0.5436
vn -0.7348 0.5383 -0.4126
vn -0.1053 -0.0039 -0.9944
vn -0.7567 -0.3490 0.5528
vn -0.8730 -0.0504 -0.4850
vn -0.5567 -0.0506 -0.8292
vn -0.7209 -0.5650 -0.4014
vn -0.7353 -0.5408 -0.4085
vn -0.9381 -0.0039 -0.3464
vn -0.9487 -0.0039 0.3162
vn -0.8550 0.4646 -0.2303
vn -0.8158 0.5270 -0.2381
vn -0.9989 0.0431 -0.0196
vn -0.9987 0.0431 0.0274
vn -0.9985 -0.0509 -0.0196
vn -0.8796 -0.0508 -0.4730
vn -0.7290 -0.5653 -0.3860
vn -0.9983 -0.0509 0.0274
vn -0.7434 -0.5411 -0.3931
vn -0.8807 -0.0039 -0.4736
vn -0.9146 -0.0039 0.4043
vn -0.7466 0.5355 -0.3948
vn -0.9987 0.0039 0.0509
vn -0.8774 -0.0039 0.4797
vt 0.480469 0.636475
vt 0.475342 0.633057
vt 0.478516 0.629395
vt 0.015030 0.672363
vt 0.011276 0.670410
vt 0.014351 0.666992
vt 0.011528 0.668945
vt 0.008537 0.661133
vt 0.014221 0.664795
vt 0.071655 0.290039
vt 0.069092 0.282715
vt 0.074280 0.282715
vt 0.031799 0.671631
vt 0.028091 0.671631
vt 0.030502 0.668213
vt 0.043335 0.657715
vt 0.041870 0.662354
vt 0.038422 0.660400
vt 0.673828 0.538330
vt 0.664062 0.660645
vt -0.089539 0.478516
vt -0.099182 0.600342
vt 0.133545 0.481445
vt 0.133545 0.671875
vt 0.019302 0.481445
vt 0.019302 0.671875
vt 0.066406 0.207031
vt 0.067078 0.188477
vt 0.192261 0.211426
vt 0.192871 0.192871
vt 0.730469 0.569824
vt -0.222412 0.569824
vt 0.730469 0.455566
vt -0.222412 0.455566
vt 1.261719 0.428711
vt 1.261719 0.543213
vt 0.223999 0.428711
vt 0.223999 0.543213
vt 0.541504 0.329102
vt 0.006790 0.309082
vt 0.545898 0.206543
vt 0.011177 0.186523
vt 0.224243 0.476562
vt 0.224243 0.362305
vt 1.259766 0.476562
vt 1.259766 0.362305
vt 0.734375 0.376953
vt 0.734375 0.491699
vt -0.220215 0.376953
vt -0.220215 0.491699
vt 0.454834 0.183594
vt 0.475830 0.182617
vt 0.459717 0.305664
vt 0.480713 0.305176
vt 0.093811 0.338379
vt -0.020599 0.338379
vt 0.093811 0.147461
vt -0.020599 0.147461
vt 0.009544 0.221680
vt 0.009544 0.081543
vt 0.020523 0.227539
vt 0.020523 0.076660
vt 0.063599 0.662354
vt 0.035461 0.671387
vt 0.055878 0.671387
vt 0.751953 0.400391
vt -0.148315 0.400391
vt 0.747070 0.388672
vt -0.148315 0.388672
vt 0.452637 0.649414
vt 0.477783 0.649414
vt 0.445557 0.656738
vt 0.482666 0.656738
vt -0.335205 -0.104492
vt 0.699219 -0.104492
vt -0.335205 -0.095703
vt 0.693359 -0.095703
vt -0.043182 0.640625
vt 0.591309 0.641846
vt -0.037201 0.649170
vt 0.584961 0.650635
vt 1.197266 0.606934
vt 0.190430 0.606934
vt 1.191406 0.596924
vt 0.190430 0.596924
vt 0.448486 0.664062
vt 0.483154 0.664062
vt 0.443359 0.671631
vt 0.490479 0.671631
vt -0.335205 0.481934
vt 0.612793 0.481934
vt -0.335205 0.494141
vt 0.607910 0.494141
vt 0.445801 0.631592
vt 0.465088 0.631592
vt 0.453857 0.639893
vt 0.471680 0.639893
vt 0.619629 0.505859
vt 0.756348 0.505859
vt 0.614746 0.516357
vt 0.762207 0.516357
vt 0.630859 0.681396
vt -0.143921 0.652588
vt 0.638184 0.672852
vt -0.150635 0.643555
vt 0.711914 0.670166
vt 0.711914 0.755859
vt -0.246216 0.670166
vt -0.246216 0.755859
vt 0.243530 0.631348
vt 1.201172 0.631348
vt 0.243774 0.647461
vt 1.212891 0.647949
vt 0.267334 0.535645
vt 1.187500 0.535645
vt 0.267334 0.585205
vt 1.187500 0.585205
vt -0.050323 0.637939
vt 0.598633 0.639404
vt 0.449951 0.660889
vt 0.481445 0.660889
vt 1.202148 0.610596
vt 0.190430 0.611328
vt 0.014015 0.367676
vt 0.017975 0.370117
vt 0.013802 0.392578
vt 0.017776 0.391602
vt 0.195190 0.212402
vt 0.196045 0.187988
vt 0.433105 0.653809
vt 0.437500 0.653564
vt 0.432861 0.677734
vt 0.437256 0.670410
vt 0.435303 0.674805
vt 0.500000 0.674805
vt 0.551270 0.203613
vt 0.006256 0.183594
vt 0.436035 0.659912
vt 0.490723 0.659912
vt 0.454346 0.309082
vt 0.481201 0.308105
vt 0.024597 0.234375
vt 0.024796 0.070312
vt -0.100220 0.603271
vt 0.665039 0.663574
vt 0.666992 0.660889
vt 0.676758 0.538574
vt -0.092468 0.478027
vt -0.102112 0.600098
vt 0.149414 0.643555
vt 0.149414 0.647705
vt 0.027344 0.643555
vt 0.027344 0.647705
vt 0.067200 0.185547
vt 0.192993 0.189941
vt 0.464355 0.248047
vt 0.460205 0.248047
vt 0.464355 0.125977
vt 0.460205 0.125977
vt 0.003851 0.309082
vt 0.008232 0.186523
vt 0.354980 0.273926
vt 0.354980 0.269531
vt 0.474854 0.275879
vt 0.474854 0.271484
vt 0.008125 0.078125
vt 0.018356 0.073730
vt 0.480957 0.648926
vt 0.486816 0.657471
vt 0.445068 0.663574
vt 0.438965 0.672119
vt 0.040741 0.647705
vt 0.042450 0.643555
vt 0.050507 0.647705
vt 0.054535 0.643555
vt 1.185547 0.532715
vt 0.267334 0.532715
vt 0.015572 0.480469
vt 0.017822 0.478516
vt 0.015488 0.672852
vt 0.017822 0.675049
vt 0.747559 0.383789
vt -0.153442 0.384277
vt -0.151367 0.392578
vt -0.151367 0.402344
vt -0.148315 0.405762
vt 0.759277 0.404297
vt 0.027069 0.675049
vt 0.054688 0.675049
vt 0.059357 0.673584
vt 0.067993 0.663330
vt 1.201172 0.605225
vt 1.195312 0.595215
vt 1.191406 0.592773
vt 0.185059 0.593018
vt 0.733398 0.457031
vt 0.735840 0.451660
vt -0.219971 0.452148
vt -0.222412 0.451660
vt 1.262695 0.363770
vt 1.264648 0.358398
vt 0.226440 0.358398
vt 0.224243 0.357910
vt 0.363037 0.279297
vt 0.363037 0.283691
vt 0.360107 0.280762
vt 0.482910 0.285645
vt 0.483154 0.281250
vt 0.005436 0.221191
vt 0.005051 0.082520
vt 0.007980 0.225098
vt 0.018555 0.230469
vt 0.708496 0.761841
vt 0.720215 0.778320
vt -0.244019 0.778320
vt -0.244141 0.762329
vt -0.244263 0.758057
vt 0.707031 0.758057
vt -0.338379 0.479492
vt -0.335205 0.476562
vt 0.620605 0.478027
vt -0.335205 0.449219
vt 0.704102 0.448242
vt 0.616211 0.486328
vt 0.611328 0.497070
vt 0.607910 0.499023
vt 0.616211 0.502930
vt 0.620605 0.500244
vt -0.340820 0.499023
vt -0.338379 0.489258
vt 0.611328 0.512695
vt 0.607910 0.521240
vt 0.756348 0.500977
vt 0.760254 0.502930
vt 0.760254 -0.156250
vt 0.765625 0.512939
vt 0.756348 -0.157227
vt 0.704102 -0.108398
vt 0.769531 0.520996
vt 0.769531 -0.164062
vt 0.765625 -0.158203
vt 0.762207 -0.162109
vt 0.594238 0.533691
vt 0.786133 0.533936
vt 0.594238 0.511475
vt 0.786133 -0.178711
vt -0.358643 0.511963
vt 0.604004 -0.165039
vt -0.361084 0.510986
vt -0.361084 0.431641
vt 0.595215 -0.182617
vt 0.785156 -0.182617
vt 0.593750 -0.178711
vt 0.604004 -0.139648
vt 0.593750 -0.153320
vt -0.340576 -0.138672
vt 0.588867 -0.157227
vt 0.592285 -0.160156
vt -0.361084 -0.157227
vt -0.358887 -0.154297
vt -0.361084 -0.153320
vt -0.340576 -0.090820
vt -0.361084 -0.077148
vt -0.358887 -0.076172
vt -0.338379 -0.099609
vt 0.692871 -0.090820
vt 0.676758 -0.076172
vt 0.692871 0.442871
vt 0.676758 0.430664
vt 0.696777 -0.091797
vt 0.696777 0.441895
vt 0.702637 -0.101562
vt -0.340820 0.442871
vt 0.671387 0.427246
vt 0.674316 0.424805
vt -0.361084 0.427246
vt -0.358643 0.430664
vt -0.335205 -0.110352
vt -0.338379 -0.107422
vt -0.335205 -0.128906
vt 0.616211 -0.130859
vt 0.616211 -0.156250
vt 0.611816 -0.136719
vt 0.611816 -0.156250
vt 0.608398 -0.132812
s 1
usemtl MASTER_Concrete_Smooth
f 1/1/1 2/2/2 3/3/3
f 4/4/4 5/5/5 6/6/2
f 7/7/6 8/8/4 9/9/7
f 10/10/4 11/11/8 12/12/9
f 13/13/4 14/14/10 15/15/11
f 16/16/4 17/17/12 18/18/13
f 19/19/14 20/20/14 21/21/14
f 20/20/14 15/22/14 21/21/14
f 22/23/15 23/24/15 24/25/15
f 23/24/15 25/26/15 24/25/15
f 26/27/16 27/28/16 28/29/16
f 27/28/16 29/30/16 28/29/16
f 30/31/15 31/32/15 32/33/15
f 31/32/15 33/34/15 32/33/15
f 34/35/17 35/36/17 36/37/17
f 35/36/17 37/38/17 36/37/17
f 38/39/16 39/40/16 40/41/16
f 39/40/16 41/42/16 40/41/16
f 42/43/15 43/44/15 44/45/15
f 43/44/15 45/46/15 44/45/15
f 46/47/17 47/48/17 48/49/17
f 47/48/17 49/50/17 48/49/17
f 50/51/16 51/52/16 52/53/16
f 51/52/16 53/54/16 52/53/16
f 54/55/17 14/56/17 55/57/17
f 14/56/17 56/58/17 55/57/17
f 57/59/18 18/60/18 58/61/18
f 18/60/18 11/62/18 58/61/18
f 17/17/19 59/63/19 12/64/19
f 59/63/19 60/65/19 12/64/19
f 61/66/20 62/67/21 63/68/21
f 62/67/21 64/69/21 63/68/21
f 65/70/14 66/71/14 67/72/14
f 66/71/14 68/73/14 67/72/14
f 69/74/22 70/75/22 71/76/22
f 70/75/22 72/77/22 71/76/22
f 73/78/23 3/79/23 74/80/23
f 3/79/23 75/81/24 74/80/23
f 2/82/25 6/83/25 76/84/25
f 6/83/25 9/85/25 76/84/25
f 5/86/14 77/87/14 7/88/14
f 77/87/14 78/89/14 7/88/14
f 79/90/26 80/91/26 81/92/26
f 80/91/26 82/93/26 81/92/26
f 83/94/27 84/95/27 85/96/27
f 84/95/27 86/97/27 85/96/27
f 87/98/28 88/99/28 89/100/28
f 88/99/28 90/101/28 89/100/28
f 91/102/29 92/103/29 93/104/29
f 92/103/29 94/105/29 93/104/29
f 95/106/17 96/107/17 97/108/17
f 96/107/17 98/109/17 97/108/17
f 99/110/4 100/111/4 101/112/30
f 100/111/4 102/113/30 101/112/30
f 103/114/15 104/115/15 105/116/15
f 104/115/15 106/117/15 105/116/15
f 73/78/31 107/118/32 3/79/3
f 107/118/32 1/119/1 3/79/3
f 5/86/5 4/120/4 77/87/33
f 4/120/4 108/121/4 77/87/33
f 2/82/2 1/122/1 6/83/2
f 1/122/1 4/123/4 6/83/2
f 65/124/34 109/125/4 66/126/35
f 109/125/4 110/127/4 66/126/35
f 111/128/36 28/29/37 112/129/38
f 28/29/37 29/30/39 112/129/38
f 113/130/36 85/131/40 114/132/4
f 85/131/40 86/133/41 114/132/4
f 8/134/4 7/88/6 115/135/4
f 7/88/6 78/89/42 115/135/4
f 116/136/4 40/41/43 117/137/4
f 40/41/43 41/42/44 117/137/4
f 118/138/4 67/72/45 119/139/4
f 67/72/45 68/73/46 119/139/4
f 120/140/4 52/53/47 121/141/4
f 52/53/47 53/54/48 121/141/4
f 122/142/4 58/61/49 10/143/4
f 58/61/49 11/62/8 10/143/4
f 13/144/4 15/22/11 123/145/4
f 15/22/11 20/20/50 123/145/4
f 24/146/51 20/20/50 22/147/52
f 20/20/53 19/19/54 22/147/54
f 54/148/55 21/21/55 14/149/10
f 21/21/56 15/22/11 14/149/10
f 23/150/57 26/151/57 25/152/58
f 26/151/57 28/153/37 25/152/58
f 27/28/57 30/154/57 29/30/39
f 30/154/57 32/155/59 29/30/39
f 40/156/43 35/157/60 38/158/61
f 35/157/62 34/159/61 38/158/61
f 39/40/57 44/160/57 41/42/44
f 44/160/57 45/161/63 41/42/44
f 52/162/47 47/163/64 50/164/61
f 47/163/64 46/165/61 50/164/61
f 18/60/13 17/166/12 11/62/8
f 17/166/12 12/167/9 11/62/8
f 66/71/35 69/168/65 68/73/46
f 69/168/65 71/169/66 68/73/46
f 6/170/2 5/86/5 9/171/7
f 5/86/5 7/88/6 9/171/7
f 77/172/33 79/173/67 78/174/42
f 79/173/67 81/175/68 78/174/42
f 102/176/30 104/115/69 101/177/30
f 104/115/69 103/114/69 101/177/30
f 123/178/4 20/179/50 24/25/51
f 123/178/4 24/25/51 111/180/36
f 24/25/51 25/26/58 111/180/36
f 25/26/58 28/181/37 111/180/36
f 124/182/4 63/68/70 118/183/4
f 63/68/70 64/69/70 118/183/4
f 67/184/45 118/183/4 64/69/70
f 65/185/34 67/184/45 64/69/70
f 62/67/71 65/185/34 64/69/70
f 65/185/34 62/67/71 109/186/4
f 125/187/4 109/186/4 62/67/71
f 61/66/72 125/187/4 62/67/71
f 10/188/4 12/64/9 124/189/4
f 12/64/9 60/65/73 124/189/4
f 63/190/70 124/189/4 60/65/73
f 61/191/72 63/190/70 60/65/73
f 59/63/74 61/191/72 60/65/73
f 3/192/3 2/82/2 75/193/75
f 2/82/2 76/84/7 75/193/75
f 76/84/7 126/194/4 75/193/75
f 126/194/4 76/84/7 8/195/4
f 76/84/7 9/85/7 8/195/4
f 29/196/39 32/33/59 112/197/38
f 112/197/38 32/33/59 127/198/4
f 32/33/59 33/34/76 127/198/4
f 128/199/4 127/198/4 33/34/76
f 41/200/44 45/46/63 117/201/4
f 117/201/4 45/46/63 129/202/4
f 45/46/63 43/44/25 129/202/4
f 130/203/4 129/202/4 43/44/25
f 53/204/48 56/205/77 121/206/4
f 56/205/77 53/204/48 55/207/61
f 53/204/48 51/208/61 55/207/61
f 131/209/78 16/210/4 18/60/13
f 57/59/79 131/209/78 18/60/13
f 131/209/78 57/59/79 92/211/80
f 92/211/80 57/59/79 94/212/81
f 57/59/79 58/61/49 94/212/81
f 132/213/82 133/214/4 134/215/4
f 135/216/82 132/213/82 134/215/4
f 135/216/82 98/217/83 132/213/82
f 98/217/83 96/218/83 132/213/82
f 79/90/67 77/219/33 108/220/4
f 79/90/67 108/220/4 80/91/67
f 108/220/4 136/221/4 80/91/67
f 136/221/4 108/220/4 4/222/4
f 1/223/1 136/221/4 4/222/4
f 136/221/4 83/224/84 80/91/67
f 80/91/67 83/224/84 82/93/68
f 83/224/84 85/225/40 82/93/68
f 85/225/40 113/226/36 82/93/68
f 83/224/84 136/221/4 84/227/85
f 81/92/68 82/93/68 113/226/36
f 136/221/4 137/228/36 84/227/85
f 81/92/68 115/229/4 78/230/42
f 115/229/4 81/92/68 113/226/36
f 87/98/86 84/227/85 137/228/36
f 84/227/85 87/98/86 86/231/41
f 87/98/86 89/100/87 86/231/41
f 87/98/86 137/228/36 88/99/88
f 89/100/87 114/232/4 86/231/41
f 137/228/36 138/233/89 88/99/88
f 138/233/89 137/228/36 136/221/4
f 1/223/1 138/233/89 136/221/4
f 138/233/89 91/234/90 88/99/88
f 88/99/88 91/234/90 90/101/91
f 91/234/90 138/233/89 92/235/80
f 91/234/90 93/236/92 90/101/91
f 138/233/89 131/237/78 92/235/80
f 138/233/89 1/223/1 131/237/78
f 1/223/1 107/238/32 131/237/78
f 89/100/87 90/101/91 139/239/4
f 93/236/92 139/239/4 90/101/91
f 114/232/4 89/100/87 139/239/4
f 139/239/4 93/236/92 122/240/4
f 93/236/92 94/241/81 122/240/4
f 58/242/49 122/240/4 94/241/81
f 111/243/36 114/232/4 139/239/4
f 123/244/4 111/243/36 139/239/4
f 123/244/4 139/239/4 122/240/4
f 111/243/36 112/245/38 114/232/4
f 13/246/4 123/244/4 122/240/4
f 112/245/38 113/226/36 114/232/4
f 112/245/38 127/247/4 113/226/36
f 13/246/4 122/240/4 10/248/4
f 127/247/4 115/229/4 113/226/36
f 127/247/4 128/249/4 115/229/4
f 128/249/4 140/250/93 115/229/4
f 56/251/77 14/252/10 13/246/4
f 121/253/4 56/251/77 13/246/4
f 121/253/4 13/246/4 10/248/4
f 121/253/4 10/248/4 124/254/4
f 120/255/4 121/253/4 124/254/4
f 120/255/4 124/254/4 118/256/4
f 47/257/64 52/258/47 120/255/4
f 49/259/94 47/257/64 120/255/4
f 141/260/4 120/255/4 118/256/4
f 141/260/4 49/259/94 120/255/4
f 49/259/94 141/260/4 142/261/93
f 141/260/4 118/256/4 119/262/4
f 142/261/93 141/260/4 119/262/4
f 130/263/4 142/261/93 119/262/4
f 129/264/4 130/263/4 119/262/4
f 71/76/66 119/262/4 68/265/46
f 129/264/4 119/262/4 143/266/4
f 119/262/4 71/76/66 143/266/4
f 117/267/4 129/264/4 143/266/4
f 71/76/66 72/77/66 143/266/4
f 117/267/4 143/266/4 126/268/4
f 116/269/4 117/267/4 126/268/4
f 74/270/95 143/266/4 72/77/66
f 143/266/4 74/270/95 126/268/4
f 74/270/95 75/271/75 126/268/4
f 73/272/31 74/270/95 72/77/66
f 70/75/96 73/272/31 72/77/66
f 116/269/4 126/268/4 8/273/4
f 73/272/31 70/75/96 107/238/32
f 35/274/60 40/275/43 116/269/4
f 37/276/97 35/274/60 116/269/4
f 144/277/4 116/269/4 8/273/4
f 144/277/4 37/276/97 116/269/4
f 144/277/4 8/273/4 115/229/4
f 37/276/97 144/277/4 140/250/93
f 140/250/93 144/277/4 115/229/4
f 110/278/4 107/238/32 70/75/96
f 69/74/65 110/278/4 70/75/96
f 69/74/65 66/279/35 110/278/4
f 110/278/4 109/280/4 107/238/32
f 109/280/4 125/281/4 107/238/32
f 107/238/32 125/281/4 131/237/78
f 125/281/4 16/282/4 131/237/78
f 16/282/4 125/281/4 59/283/74
f 17/284/12 16/282/4 59/283/74
f 125/281/4 61/285/72 59/283/74
