# Blender 3.6.18
# www.blender.org
mtllib Mesh.146.mtl
o Bistro_Research_Exterior_Paris_Streetlight_Glass_01a___10__6317
v 78.919777 7.220441 54.744587
v 78.806435 7.220441 54.777435
v 78.833923 6.636996 54.822895
v 78.920853 6.636996 54.797699
v 79.034355 7.220441 54.772816
v 79.008720 6.636996 54.819347
v 79.119453 7.220441 54.854542
v 79.074013 6.636996 54.882034
v 79.152313 7.220441 54.967873
v 79.099197 6.636996 54.968956
v 79.124092 7.220441 55.082455
v 79.077560 6.636996 55.056835
v 79.042358 7.220441 55.167564
v 79.014862 6.636996 55.122112
v 78.929016 7.220441 55.200417
v 78.927940 6.636996 55.147308
v 78.814438 7.220441 55.172192
v 78.840065 6.636996 55.125660
v 78.729332 7.220441 55.090462
v 78.774788 6.636996 55.062981
v 78.696487 7.220441 54.977123
v 78.749588 6.636996 54.976040
v 78.724709 7.220441 54.862549
v 78.771240 6.636996 54.888172
v 78.869446 6.636996 54.782898
v 78.823380 6.636996 54.805458
v 78.792694 7.220441 54.754707
v 78.852753 7.220441 54.725288
v 78.919235 7.220441 54.718029
v 78.920441 6.636996 54.777325
v 78.971611 6.636996 54.780830
v 78.985954 7.220441 54.722591
v 79.047165 7.220441 54.749542
v 79.018555 6.636996 54.801495
v 79.061127 6.636996 54.830112
v 79.102669 7.220441 54.786846
v 79.142197 7.220441 54.840797
v 79.091438 6.636996 54.871487
v 79.114006 6.636996 54.917557
v 79.171608 7.220441 54.900864
v 79.178871 7.220441 54.967346
v 79.119576 6.636996 54.968544
v 79.116066 6.636996 55.019718
v 79.174309 7.220441 55.034065
v 79.147362 7.220441 55.095268
v 79.095406 6.636996 55.066658
v 79.066780 6.636996 55.109230
v 79.110046 7.220441 55.150768
v 79.056107 7.220441 55.190300
v 79.025414 6.636996 55.139545
v 78.979347 6.636996 55.162106
v 78.996040 7.220441 55.219715
v 78.929558 7.220441 55.226974
v 78.928352 6.636996 55.167675
v 78.877182 6.636996 55.164173
v 78.862839 7.220441 55.222412
v 78.801628 7.220441 55.195465
v 78.830238 6.636996 55.143509
v 78.787674 6.636996 55.114891
v 78.746132 7.220441 55.158150
v 78.706589 7.220441 55.104206
v 78.757347 6.636996 55.073517
v 78.734795 6.636996 55.027451
v 78.677185 7.220441 55.044144
v 78.669922 7.220441 54.977657
v 78.729225 6.636996 54.976460
v 78.732719 6.636996 54.925289
v 78.674492 7.220441 54.910950
v 78.701431 7.220441 54.849735
v 78.753395 6.636996 54.878342
v 78.782013 6.636996 54.835777
v 78.738747 7.220441 54.794231
vn 0.0197 0.0905 0.9957
vn 0.5146 0.0903 0.8526
vn 0.5147 0.0904 0.8526
vn -0.4843 0.0906 0.8702
vn -0.8547 0.0898 0.5113
vn -0.9958 0.0898 0.0195
vn -0.8721 0.0899 -0.4810
vn -0.8721 0.0900 -0.4810
vn -0.5170 0.0894 -0.8513
vn -0.0273 0.0898 -0.9956
vn -0.0274 0.0898 -0.9956
vn 0.4750 0.0903 -0.8754
vn 0.8491 0.0900 -0.5204
vn 0.9955 0.0905 -0.0275
vn 0.9955 0.0905 -0.0276
vn 0.8735 0.0909 0.4782
vn -0.2768 -0.1053 -0.9551
vn -0.5162 -0.1048 -0.8500
vn -0.0273 -0.1053 -0.9941
vn 0.2310 -0.1057 -0.9672
vn 0.4742 -0.1058 -0.8740
vn 0.6872 -0.1061 -0.7187
vn 0.6872 -0.1060 -0.7187
vn 0.8478 -0.1055 -0.5196
vn 0.8479 -0.1055 -0.5196
vn 0.9545 -0.1061 -0.2789
vn 0.9545 -0.1060 -0.2789
vn 0.9940 -0.1061 -0.0275
vn 0.9667 -0.1065 0.2328
vn 0.8721 -0.1065 0.4775
vn 0.8721 -0.1066 0.4775
vn 0.7148 -0.1066 0.6911
vn 0.5139 -0.1059 0.8513
vn 0.2716 -0.1063 0.9565
vn 0.0196 -0.1061 0.9942
vn -0.2402 -0.1063 0.9649
vn -0.4836 -0.1061 0.8688
vn -0.4836 -0.1061 0.8689
vn -0.6952 -0.1060 0.7109
vn -0.8534 -0.1052 0.5105
vn -0.9572 -0.1055 0.2696
vn -0.9943 -0.1052 0.0195
vn -0.9654 -0.1055 -0.2384
vn -0.8708 -0.1054 -0.4803
vn -0.7148 -0.1055 -0.6914
vn -0.7148 -0.1054 -0.6913
vt 0.092773 0.097168
vt 0.016220 0.097168
vt 0.016220 0.904419
vt 0.092773 0.904419
vt 0.172852 0.097168
vt 0.172852 0.904419
vt 0.252930 0.097168
vt 0.252930 0.904419
vt 0.333008 0.097168
vt 0.333008 0.904419
vt 0.413086 0.097168
vt 0.413086 0.904419
vt 0.493164 0.097168
vt 0.493164 0.904419
vt 0.573242 0.097168
vt 0.573242 0.904419
vt 0.653320 0.097168
vt 0.653320 0.904419
vt 0.733398 0.097168
vt 0.733398 0.904419
vt 0.813477 0.097168
vt 0.813477 0.904419
vt 0.893555 0.097168
vt 0.893555 0.904419
vt 0.984375 0.097168
vt 0.984375 0.904419
vt 0.054504 0.904419
vt 0.054504 0.097168
vt 0.132812 0.904419
vt 0.132812 0.097168
vt 0.212891 0.904419
vt 0.212891 0.097168
vt 0.292969 0.904419
vt 0.292969 0.097168
vt 0.373047 0.904419
vt 0.373047 0.097168
vt 0.453125 0.904419
vt 0.453125 0.097168
vt 0.533203 0.904419
vt 0.533203 0.097168
vt 0.613281 0.904419
vt 0.613281 0.097168
vt 0.693359 0.904419
vt 0.693359 0.097168
vt 0.773438 0.904419
vt 0.773438 0.097168
vt 0.853516 0.904419
vt 0.853516 0.097168
vt 0.938965 0.904419
vt 0.938965 0.097168
s 1
usemtl Emissive_StreetLight
f 1/1/1 2/2/2 3/3/3
f 3/3/3 4/4/1 1/1/1
f 5/5/4 1/1/1 4/4/1
f 4/4/1 6/6/4 5/5/4
f 7/7/5 5/5/4 6/6/4
f 6/6/4 8/8/5 7/7/5
f 9/9/6 7/7/5 8/8/5
f 8/8/5 10/10/6 9/9/6
f 11/11/7 9/9/6 10/10/6
f 10/10/6 12/12/8 11/11/7
f 13/13/9 11/11/7 12/12/8
f 12/12/8 14/14/9 13/13/9
f 15/15/10 13/13/9 14/14/9
f 14/14/9 16/16/11 15/15/10
f 17/17/12 15/15/10 16/16/11
f 16/16/11 18/18/12 17/17/12
f 19/19/13 17/17/12 18/18/12
f 18/18/12 20/20/13 19/19/13
f 21/21/14 19/19/13 20/20/13
f 20/20/13 22/22/15 21/21/14
f 23/23/16 21/21/14 22/22/15
f 22/22/15 24/24/16 23/23/16
f 2/25/2 23/23/16 24/24/16
f 24/24/16 3/26/3 2/25/2
f 25/27/17 26/3/18 27/2/18
f 27/2/18 28/28/17 25/27/17
f 25/27/17 28/28/17 29/1/19
f 29/1/19 30/4/19 25/27/17
f 31/29/20 30/4/19 29/1/19
f 29/1/19 32/30/20 31/29/20
f 31/29/20 32/30/20 33/5/21
f 33/5/21 34/6/21 31/29/20
f 35/31/22 34/6/21 33/5/21
f 33/5/21 36/32/23 35/31/22
f 35/31/22 36/32/23 37/7/24
f 37/7/24 38/8/25 35/31/22
f 39/33/26 38/8/25 37/7/24
f 37/7/24 40/34/27 39/33/26
f 39/33/26 40/34/27 41/9/28
f 41/9/28 42/10/28 39/33/26
f 43/35/29 42/10/28 41/9/28
f 41/9/28 44/36/29 43/35/29
f 43/35/29 44/36/29 45/11/30
f 45/11/30 46/12/31 43/35/29
f 47/37/32 46/12/31 45/11/30
f 45/11/30 48/38/32 47/37/32
f 47/37/32 48/38/32 49/13/33
f 49/13/33 50/14/33 47/37/32
f 51/39/34 50/14/33 49/13/33
f 49/13/33 52/40/34 51/39/34
f 51/39/34 52/40/34 53/15/35
f 53/15/35 54/16/35 51/39/34
f 55/41/36 54/16/35 53/15/35
f 53/15/35 56/42/36 55/41/36
f 55/41/36 56/42/36 57/17/37
f 57/17/37 58/18/38 55/41/36
f 59/43/39 58/18/38 57/17/37
f 57/17/37 60/44/39 59/43/39
f 59/43/39 60/44/39 61/19/40
f 61/19/40 62/20/40 59/43/39
f 63/45/41 62/20/40 61/19/40
f 61/19/40 64/46/41 63/45/41
f 63/45/41 64/46/41 65/21/42
f 65/21/42 66/22/42 63/45/41
f 67/47/43 66/22/42 65/21/42
f 65/21/42 68/48/43 67/47/43
f 67/47/43 68/48/43 69/23/44
f 69/23/44 70/24/44 67/47/43
f 71/49/45 70/24/44 69/23/44
f 69/23/44 72/50/46 71/49/45
f 71/49/45 72/50/46 27/25/18
f 27/25/18 26/26/18 71/49/45
