# Blender 3.6.18
# www.blender.org
mtllib Mesh.478.mtl
o Bistro_Research_Exterior_paris_building_11_5607
v 0.684320 16.274096 19.421999
v 0.700831 16.384731 19.308289
v 1.556653 16.274092 19.778702
v 1.625870 16.384731 19.686543
v 0.571357 16.168678 19.768986
v 0.664724 16.168695 19.540731
v 1.396598 16.168686 20.106432
v 1.489895 16.168703 19.878162
v 0.698955 16.412001 19.295290
v 0.602122 16.830423 19.251783
v 1.636588 16.412001 19.678610
v 1.736284 16.830429 19.723160
v 0.672510 16.180231 19.514654
v 1.502391 16.180241 19.854008
v 0.412296 16.846439 19.703917
v 1.557854 16.846428 20.172342
v 0.591833 16.846422 19.264889
v 1.734601 16.846428 19.739727
v 1.745686 16.830944 19.744226
v 1.568927 16.830944 20.176872
v 0.401120 16.830931 19.699347
v 0.580644 16.830912 19.260355
v 1.641965 16.396002 19.698137
v 1.463975 16.396006 20.133951
v 1.565436 16.274092 19.799580
v 1.434383 16.274092 20.121876
v 1.511501 16.184286 19.877203
v 1.414802 16.184261 20.113874
v 0.649677 16.184198 19.524817
v 0.552884 16.184181 19.761431
v 0.663449 16.274096 19.430750
v 0.531644 16.274096 19.752739
v 0.681383 16.396000 19.305353
v 0.503010 16.396002 19.741007
vn 0.2612 -0.7056 -0.6588
vn 0.2611 -0.7130 -0.6507
vn -0.0039 -1.0000 -0.0039
vn 0.3788 -0.0039 -0.9255
vn 0.2700 -0.6925 -0.6690
vn 0.2699 -0.6925 -0.6690
vn -0.0039 1.0000 -0.0039
vn 0.9262 0.3508 -0.1380
vn 0.6824 0.6902 -0.2407
vn 0.7320 0.6133 0.2968
vn 0.6824 0.6903 -0.2406
vn -0.7339 0.6083 -0.3022
vn -0.5669 0.3480 -0.7467
vn -0.3262 0.6878 -0.6485
vn -0.5668 0.3479 -0.7467
vn 0.8945 -0.2562 0.3665
vn 0.8945 -0.2561 0.3665
vn 0.8978 -0.2470 0.3646
vn 0.9012 -0.2322 0.3660
vn -0.8952 -0.2463 -0.3714
vn 0.5899 -0.5430 -0.5977
vn 0.7797 -0.4506 -0.4349
vn 0.6986 -0.6596 -0.2771
vn 0.7092 -0.6543 -0.2625
vn 0.5183 -0.8144 -0.2611
vn 0.6456 -0.7629 -0.0352
vn 0.5692 -0.7889 0.2316
vn 0.6455 -0.7629 -0.0352
vn 0.5691 -0.7890 0.2316
vn 0.4417 -0.8952 -0.0586
vn -0.1908 -0.8138 -0.5490
vn -0.2776 -0.8954 -0.3480
vn -0.5646 -0.7904 -0.2375
vn -0.4312 -0.7653 -0.4778
vn -0.3159 -0.6591 -0.6825
vn -0.3315 -0.6513 -0.6825
vn -0.0117 -0.5429 -0.8397
vn -0.2541 -0.4496 -0.8563
vn 0.7267 -0.3182 -0.6088
vn -0.0971 -0.3147 -0.9442
vn 0.7343 0.3573 -0.5772
vn -0.1212 0.3558 -0.9267
vt -0.886230 0.462402
vt -0.895020 0.427734
vt -0.591797 0.462402
vt -0.583008 0.427734
vt -0.877930 0.576172
vt -0.877930 0.499512
vt -0.599609 0.576172
vt -0.599609 0.499512
vt 1.896484 0.481445
vt 1.929688 0.612061
vt 1.580078 0.481445
vt 1.545898 0.612061
vt 1.878906 0.409180
vt 1.885742 0.438477
vt 1.598633 0.409180
vt 1.591797 0.438477
vt 1.931641 0.576172
vt 1.544922 0.576172
vt 1.931641 0.428223
vt 1.544922 0.430176
vt 0.569824 0.612305
vt 0.569824 0.616943
vt 0.423828 0.612305
vt 0.423828 0.616943
vt 0.575684 0.612305
vt 0.575684 0.616943
vt 0.427734 0.612305
vt 0.427734 0.616943
vt 0.570801 0.476562
vt 0.423828 0.476562
vt 0.532227 0.438477
vt 0.423828 0.438477
vt 0.503418 0.410156
vt 0.423828 0.410156
vt 0.496094 0.410156
vt 0.575684 0.410156
vt 0.467285 0.438477
vt 0.575684 0.438477
vt 0.428955 0.476562
vt 0.575684 0.476562
vt -0.576660 0.429199
vt -0.586914 0.467773
vt -0.598633 0.490723
vt -0.593262 0.496582
vt -0.593262 0.576172
vt -0.878906 0.490723
vt -0.884277 0.576172
vt -0.884277 0.496582
vt -0.891602 0.467773
vt -0.900879 0.429199
vt 1.576172 0.476562
vt 1.583008 0.472656
vt 1.541016 0.612305
vt 1.894531 0.472656
vt 1.544922 0.616943
vt 1.900391 0.476562
vt 1.931641 0.616943
vt 1.935547 0.612305
s 1
usemtl MASTER_Concrete_Plaster
f 1/1/1 2/2/2 3/3/1
f 2/2/2 4/4/2 3/3/1
f 5/5/3 6/6/3 7/7/3
f 6/6/3 8/8/3 7/7/3
f 9/9/4 10/10/4 11/11/4
f 10/10/4 12/12/4 11/11/4
f 13/13/5 1/14/1 14/15/6
f 1/14/1 3/16/1 14/15/6
f 15/17/7 16/18/7 17/19/7
f 16/18/7 18/20/7 17/19/7
f 19/21/8 18/22/9 20/23/10
f 18/22/11 16/24/10 20/23/10
f 21/25/12 15/26/12 22/27/13
f 15/26/12 17/28/14 22/27/15
f 19/21/16 20/23/17 23/29/17
f 20/23/17 24/30/17 23/29/17
f 23/29/17 24/30/17 25/31/17
f 24/30/17 26/32/18 25/31/17
f 25/31/17 26/32/18 27/33/19
f 26/32/18 28/34/19 27/33/19
f 29/35/20 30/36/20 31/37/20
f 30/36/20 32/38/20 31/37/20
f 31/37/20 32/38/20 33/39/20
f 32/38/20 34/40/20 33/39/20
f 33/39/20 34/40/20 22/27/20
f 34/40/20 21/25/20 22/27/20
f 4/4/21 23/41/22 3/3/23
f 23/41/22 25/42/24 3/3/23
f 3/3/23 25/42/24 14/43/25
f 25/42/24 27/44/26 14/43/25
f 28/45/27 7/7/27 27/44/28
f 7/7/29 8/8/30 27/44/26
f 27/44/26 8/8/30 14/43/25
f 13/46/31 14/43/25 8/8/30
f 6/6/32 13/46/31 8/8/30
f 5/5/33 30/47/33 6/6/32
f 30/47/33 29/48/34 6/6/32
f 13/46/31 6/6/32 29/48/34
f 13/46/31 29/48/34 1/1/35
f 29/48/34 31/49/36 1/1/35
f 1/1/35 31/49/36 2/2/37
f 31/49/36 33/50/38 2/2/37
f 11/11/39 23/51/22 4/52/21
f 19/53/8 23/51/22 11/11/39
f 11/11/39 4/52/21 9/9/40
f 12/12/41 19/53/8 11/11/39
f 4/52/21 2/54/37 9/9/40
f 12/12/41 18/55/9 19/53/8
f 33/56/38 9/9/40 2/54/37
f 17/57/14 18/55/9 12/12/41
f 9/9/40 33/56/38 10/10/42
f 10/10/42 17/57/14 12/12/41
f 33/56/38 22/58/15 10/10/42
f 22/58/15 17/57/14 10/10/42
