# Blender 3.6.18
# www.blender.org
mtllib Mesh.125.mtl
o Bistro_Research_Exterior_Paris_StreetLight_Glass_01B___5__6359
v -43.208237 5.431099 -33.558525
v -43.115444 5.431099 -33.485626
v -43.094555 4.847655 -33.534470
v -43.165726 4.847655 -33.590382
v -43.252151 5.431099 -33.668049
v -43.199409 4.847655 -33.674385
v -43.235420 5.431099 -33.784859
v -43.186577 4.847655 -33.763969
v -43.162521 5.431099 -33.877651
v -43.130665 4.847655 -33.835140
v -43.052998 5.431099 -33.921558
v -43.046661 4.847655 -33.868820
v -42.936188 5.431099 -33.904835
v -42.957077 4.847655 -33.855991
v -42.843395 5.431099 -33.831936
v -42.885910 4.847655 -33.800079
v -42.799484 5.431099 -33.722412
v -42.852226 4.847655 -33.716076
v -42.816212 5.431099 -33.605602
v -42.865059 4.847655 -33.626492
v -42.889111 5.431099 -33.512810
v -42.920967 4.847655 -33.555321
v -42.998634 5.431099 -33.468895
v -43.004971 4.847655 -33.521637
v -43.147762 4.847655 -33.539997
v -43.102570 4.847655 -33.515736
v -43.125889 5.431099 -33.461201
v -43.184814 5.431099 -33.492832
v -43.229496 5.431099 -33.542591
v -43.182034 4.847655 -33.578163
v -43.209042 4.847655 -33.621769
v -43.264713 5.431099 -33.599445
v -43.278526 5.431099 -33.664879
v -43.219639 4.847655 -33.671955
v -43.221230 4.847655 -33.723225
v -43.280602 5.431099 -33.731728
v -43.259846 5.431099 -33.795303
v -43.205311 4.847655 -33.771980
v -43.181053 4.847655 -33.817173
v -43.228218 5.431099 -33.854225
v -43.178455 5.431099 -33.898907
v -43.142883 4.847655 -33.851444
v -43.099277 4.847655 -33.878456
v -43.121601 5.431099 -33.934124
v -43.056168 5.431099 -33.947941
v -43.049095 4.847655 -33.889050
v -42.997826 4.847655 -33.890636
v -42.989323 5.431099 -33.950008
v -42.925743 5.431099 -33.929260
v -42.949066 4.847655 -33.874725
v -42.903873 4.847655 -33.850464
v -42.866821 5.431099 -33.897625
v -42.822140 5.431099 -33.847870
v -42.869602 4.847655 -33.812298
v -42.842590 4.847655 -33.768692
v -42.786922 5.431099 -33.791012
v -42.773106 5.431099 -33.725574
v -42.831997 4.847655 -33.718506
v -42.830410 4.847655 -33.667236
v -42.771038 5.431099 -33.658733
v -42.791790 5.431099 -33.595158
v -42.846325 4.847655 -33.618477
v -42.870583 4.847655 -33.573284
v -42.823421 5.431099 -33.536236
v -42.873177 5.431099 -33.491554
v -42.908749 4.847655 -33.539017
v -42.952354 4.847655 -33.512005
v -42.930035 5.431099 -33.456333
v -42.995468 5.431099 -33.442520
v -43.002541 4.847655 -33.501411
v -43.053810 4.847655 -33.499821
v -43.062313 5.431099 -33.440453
vn 0.7953 0.0901 -0.5994
vn 0.3867 0.0898 -0.9178
vn 0.3866 0.0898 -0.9178
vn 0.7954 0.0901 -0.5994
vn 0.9884 0.0906 -0.1221
vn 0.9884 0.0906 -0.1220
vn 0.9166 0.0905 0.3895
vn 0.5944 0.0906 0.7990
vn 0.5944 0.0905 0.7991
vn 0.1143 0.0907 0.9893
vn -0.3961 0.0902 0.9138
vn -0.8019 0.0900 0.5906
vn -0.8019 0.0900 0.5907
vn -0.9895 0.0899 0.1134
vn -0.9895 0.0900 0.1134
vn -0.9151 0.0896 -0.3932
vn -0.5957 0.0896 -0.7982
vn -0.5958 0.0896 -0.7982
vn -0.1211 0.0899 -0.9886
vn -0.6159 -0.1059 0.7807
vn -0.3955 -0.1057 0.9124
vn -0.8007 -0.1055 0.5898
vn -0.8007 -0.1055 0.5897
vn -0.9257 -0.1055 0.3633
vn -0.9257 -0.1055 0.3632
vn -0.9880 -0.1054 0.1132
vn -0.9880 -0.1054 0.1133
vn -0.9840 -0.1050 -0.1439
vn -0.9137 -0.1050 -0.3927
vn -0.7837 -0.1053 -0.6121
vn -0.7837 -0.1052 -0.6122
vn -0.5948 -0.1050 -0.7970
vn -0.3700 -0.1052 -0.9231
vn -0.1210 -0.1054 -0.9871
vn -0.1209 -0.1053 -0.9871
vn 0.1363 -0.1051 -0.9851
vn 0.3861 -0.1053 -0.9164
vn 0.6072 -0.1058 -0.7874
vn 0.6072 -0.1058 -0.7875
vn 0.7941 -0.1057 -0.5985
vn 0.7941 -0.1056 -0.5985
vn 0.9219 -0.1059 -0.3727
vn 0.9869 -0.1061 -0.1219
vn 0.9848 -0.1059 0.1373
vn 0.9152 -0.1061 0.3888
vn 0.9152 -0.1061 0.3889
vn 0.7844 -0.1064 0.6110
vn 0.5935 -0.1061 0.7978
vn 0.3659 -0.1062 0.9246
vn 0.1141 -0.1062 0.9878
vn 0.1141 -0.1063 0.9878
vn -0.1450 -0.1058 0.9838
vt 0.092773 0.097168
vt 0.016220 0.097168
vt 0.016220 0.904419
vt 0.092773 0.904419
vt 0.172852 0.097168
vt 0.172852 0.904419
vt 0.252930 0.097168
vt 0.252930 0.904419
vt 0.333008 0.097168
vt 0.333008 0.904419
vt 0.413086 0.097168
vt 0.413086 0.904419
vt 0.493164 0.097168
vt 0.493164 0.904419
vt 0.573242 0.097168
vt 0.573242 0.904419
vt 0.653320 0.097168
vt 0.653320 0.904419
vt 0.733398 0.097168
vt 0.733398 0.904419
vt 0.813477 0.097168
vt 0.813477 0.904419
vt 0.893555 0.097168
vt 0.893555 0.904419
vt 0.984375 0.097168
vt 0.984375 0.904419
vt 0.054504 0.904419
vt 0.054504 0.097168
vt 0.132812 0.904419
vt 0.132812 0.097168
vt 0.212891 0.904419
vt 0.212891 0.097168
vt 0.292969 0.904419
vt 0.292969 0.097168
vt 0.373047 0.904419
vt 0.373047 0.097168
vt 0.453125 0.904419
vt 0.453125 0.097168
vt 0.533203 0.904419
vt 0.533203 0.097168
vt 0.613281 0.904419
vt 0.613281 0.097168
vt 0.693359 0.904419
vt 0.693359 0.097168
vt 0.773438 0.904419
vt 0.773438 0.097168
vt 0.853516 0.904419
vt 0.853516 0.097168
vt 0.938965 0.904419
vt 0.938965 0.097168
s 1
usemtl Emissive_StreetLight
f 1/1/1 2/2/2 3/3/3
f 3/3/3 4/4/4 1/1/1
f 5/5/5 1/1/1 4/4/4
f 4/4/4 6/6/6 5/5/5
f 7/7/7 5/5/5 6/6/6
f 6/6/6 8/8/7 7/7/7
f 9/9/8 7/7/7 8/8/7
f 8/8/7 10/10/9 9/9/8
f 11/11/10 9/9/8 10/10/9
f 10/10/9 12/12/10 11/11/10
f 13/13/11 11/11/10 12/12/10
f 12/12/10 14/14/11 13/13/11
f 15/15/12 13/13/11 14/14/11
f 14/14/11 16/16/13 15/15/12
f 17/17/14 15/15/12 16/16/13
f 16/16/13 18/18/15 17/17/14
f 19/19/16 17/17/14 18/18/15
f 18/18/15 20/20/16 19/19/16
f 21/21/17 19/19/16 20/20/16
f 20/20/16 22/22/18 21/21/17
f 23/23/19 21/21/17 22/22/18
f 22/22/18 24/24/19 23/23/19
f 2/25/2 23/23/19 24/24/19
f 24/24/19 3/26/3 2/25/2
f 25/27/20 26/3/21 27/2/21
f 27/2/21 28/28/20 25/27/20
f 25/27/20 28/28/20 29/1/22
f 29/1/22 30/4/23 25/27/20
f 31/29/24 30/4/23 29/1/22
f 29/1/22 32/30/25 31/29/24
f 31/29/24 32/30/25 33/5/26
f 33/5/26 34/6/27 31/29/24
f 35/31/28 34/6/27 33/5/26
f 33/5/26 36/32/28 35/31/28
f 35/31/28 36/32/28 37/7/29
f 37/7/29 38/8/29 35/31/28
f 39/33/30 38/8/29 37/7/29
f 37/7/29 40/34/31 39/33/30
f 39/33/30 40/34/31 41/9/32
f 41/9/32 42/10/32 39/33/30
f 43/35/33 42/10/32 41/9/32
f 41/9/32 44/36/33 43/35/33
f 43/35/33 44/36/33 45/11/34
f 45/11/34 46/12/35 43/35/33
f 47/37/36 46/12/35 45/11/34
f 45/11/34 48/38/36 47/37/36
f 47/37/36 48/38/36 49/13/37
f 49/13/37 50/14/37 47/37/36
f 51/39/38 50/14/37 49/13/37
f 49/13/37 52/40/39 51/39/38
f 51/39/38 52/40/39 53/15/40
f 53/15/40 54/16/41 51/39/38
f 55/41/42 54/16/41 53/15/40
f 53/15/40 56/42/42 55/41/42
f 55/41/42 56/42/42 57/17/43
f 57/17/43 58/18/43 55/41/42
f 59/43/44 58/18/43 57/17/43
f 57/17/43 60/44/44 59/43/44
f 59/43/44 60/44/44 61/19/45
f 61/19/45 62/20/46 59/43/44
f 63/45/47 62/20/46 61/19/45
f 61/19/45 64/46/47 63/45/47
f 63/45/47 64/46/47 65/21/48
f 65/21/48 66/22/48 63/45/47
f 67/47/49 66/22/48 65/21/48
f 65/21/48 68/48/49 67/47/49
f 67/47/49 68/48/49 69/23/50
f 69/23/50 70/24/51 67/47/49
f 71/49/52 70/24/51 69/23/50
f 69/23/50 72/50/52 71/49/52
f 71/49/52 72/50/52 27/25/21
f 27/25/21 26/26/21 71/49/52
