# Blender 3.6.18
# www.blender.org
mtllib Mesh.774.mtl
o Bistro_Research_Exterior_paris_building_03_mirrored_8__4983
v 84.510353 20.687624 89.450378
v 82.508965 20.687605 89.711060
v 82.505341 20.764244 89.691666
v 84.520302 20.764242 89.429985
v 82.501030 20.832811 89.660980
v 84.534645 20.832813 89.396782
v 82.786400 20.687611 91.685097
v 84.770805 20.687656 91.413696
v 84.787842 20.764242 91.429108
v 82.788246 20.764244 91.704651
v 84.810410 20.832813 91.457375
v 82.792557 20.832811 91.735352
v 82.100845 20.687626 72.305878
v 80.099457 20.687607 72.566559
v 80.095825 20.764246 72.547165
v 82.110794 20.764244 72.285477
v 80.091515 20.832813 72.516479
v 82.125137 20.832815 72.252274
v 80.376884 20.687613 74.540596
v 82.361290 20.687658 74.269196
v 82.378326 20.764244 74.284607
v 80.378731 20.764246 74.560150
v 82.400894 20.832815 74.312866
v 80.383041 20.832813 74.590843
v 83.286079 20.687624 80.739281
v 81.284691 20.687605 80.999954
v 81.281067 20.764244 80.980560
v 83.296028 20.764242 80.718872
v 81.276756 20.832811 80.949867
v 83.310371 20.832813 80.685669
v 81.562119 20.687611 82.973991
v 83.546532 20.687656 82.702591
v 83.563560 20.764242 82.717995
v 81.563972 20.764244 82.993546
v 83.586128 20.832813 82.746254
v 81.568283 20.832811 83.024231
v 82.354301 0.369033 68.805061
v 82.299141 0.313107 68.812805
v 82.123749 0.313107 67.564789
v 82.178902 0.369033 67.557045
v 82.291245 16.115549 68.813919
v 82.115845 16.115549 67.565903
v 82.235641 16.171473 68.821732
v 82.060249 16.171474 67.573723
v 82.052681 16.115549 67.518303
v 82.115738 0.369033 67.509445
v 81.099266 0.313107 67.708778
v 81.091492 0.369033 67.653397
v 81.091484 16.115549 67.653397
v 81.099266 16.171474 67.708778
v 81.043884 16.115549 67.716560
v 81.043884 0.369033 67.716560
v 81.274666 0.313107 68.956795
v 81.219276 0.369033 68.964577
v 81.219284 16.115549 68.964569
v 81.274658 16.171474 68.956787
v 81.282448 16.115549 69.012169
v 81.282448 0.369033 69.012169
v 82.306709 0.369033 68.868225
v 82.243652 16.115549 68.877083
v 67.676292 16.064125 70.798424
v 67.731651 16.120050 70.790451
v 67.565796 16.120050 69.610291
v 67.510399 16.064125 69.618080
v 67.683464 1.840226 70.849419
v 67.510399 1.840226 69.618073
v 67.738869 1.784300 70.841835
v 67.565796 1.784300 69.610291
v 67.558006 1.840226 69.554916
v 67.558014 16.064125 69.554909
v 68.232155 16.120050 69.516647
v 68.224373 16.064125 69.461258
v 68.224373 1.840224 69.461258
v 68.232155 1.784298 69.516647
v 68.287537 1.840224 69.508865
v 68.287529 16.064125 69.508865
v 68.398018 16.120050 70.696793
v 68.453415 16.064125 70.689217
v 68.460587 1.840224 70.740196
v 68.405228 1.784298 70.748177
v 82.490112 20.923944 89.583313
v 84.624649 20.926567 89.291069
v 84.625038 20.866985 89.288612
v 82.490112 20.866989 89.583313
v 82.492584 20.849171 89.600914
v 84.631233 20.849195 89.299370
v 84.936089 20.923923 91.519493
v 82.805389 20.923946 91.826645
v 82.805389 20.866989 91.826645
v 84.936607 20.866985 91.522194
v 84.938301 20.849197 91.512222
v 82.802917 20.849180 91.809052
v 80.080597 20.923946 72.438828
v 82.215141 20.926569 72.146576
v 82.215538 20.866987 72.144112
v 80.080597 20.866991 72.438828
v 80.083069 20.849173 72.456406
v 82.221733 20.849197 72.154861
v 82.526573 20.923925 74.374992
v 80.395882 20.923948 74.682137
v 80.395882 20.866991 74.682137
v 82.527100 20.866987 74.377693
v 82.528786 20.849199 74.367706
v 80.393402 20.849182 74.664551
v 81.265839 20.923944 80.872215
v 83.400375 20.926567 80.579964
v 83.400772 20.866985 80.577515
v 81.265839 20.866989 80.872215
v 81.268311 20.849171 80.889793
v 83.406967 20.849195 80.588264
v 83.711815 20.923923 82.808388
v 81.581116 20.923946 83.115524
v 81.581116 20.866989 83.115524
v 83.712334 20.866985 82.811081
v 83.714027 20.849197 82.801102
v 81.578644 20.849180 83.097939
v 82.802917 20.941704 91.809052
v 84.933540 20.941679 91.501595
v 84.951340 20.923939 91.499680
v 82.492584 20.941704 89.600914
v 84.644592 20.926565 89.305992
v 84.626938 20.944324 89.308960
v 84.530884 20.687895 89.466148
v 84.540268 20.764242 89.445290
v 84.786057 20.687899 91.393059
v 84.555183 20.831892 89.414070
v 84.803070 20.764242 91.409088
v 84.825676 20.831892 91.435280
v 84.951599 20.866989 91.501755
v 84.645210 20.866989 89.304062
v 80.393402 20.941706 74.664551
v 82.524025 20.941681 74.357094
v 82.541832 20.923941 74.355179
v 80.083069 20.941706 72.456406
v 82.235085 20.926567 72.161491
v 82.217430 20.944326 72.164459
v 82.121376 20.687897 72.321640
v 82.130753 20.764244 72.300797
v 82.376549 20.687901 74.248558
v 82.145676 20.831894 72.269577
v 82.393570 20.764244 74.264580
v 82.416168 20.831894 74.290787
v 82.542091 20.866991 74.357254
v 82.235703 20.866991 72.159554
v 81.578644 20.941704 83.097939
v 83.709259 20.941679 82.790489
v 83.727066 20.923939 82.788567
v 81.268311 20.941704 80.889801
v 83.420319 20.926565 80.594879
v 83.402672 20.944324 80.597847
v 83.306610 20.687895 80.755035
v 83.315994 20.764242 80.734192
v 83.561783 20.687899 82.681946
v 83.330910 20.831892 80.702965
v 83.578804 20.764242 82.697975
v 83.601402 20.831892 82.724174
v 83.727325 20.866989 82.790642
v 83.420937 20.866989 80.592941
v 82.796043 20.849045 91.760178
v 84.849983 20.849026 91.469269
v 84.567902 20.849026 89.373116
v 82.497536 20.849054 89.636147
v 82.512253 20.670404 89.733002
v 84.510719 20.670404 89.472626
v 84.764961 20.670404 91.392319
v 82.783508 20.670406 91.663124
v 80.386528 20.849047 74.615677
v 82.440475 20.849028 74.324768
v 82.158394 20.849028 72.228607
v 80.088020 20.849056 72.491653
v 80.102737 20.670406 72.588493
v 82.101212 20.670406 72.328125
v 82.355446 20.670406 74.247810
v 80.373993 20.670408 74.518623
v 81.571777 20.849045 83.049065
v 83.625710 20.849026 82.758163
v 83.343628 20.849026 80.662003
v 81.273262 20.849054 80.925041
v 81.287979 20.670404 81.021896
v 83.286446 20.670404 80.761520
v 83.540680 20.670404 82.681206
v 81.559235 20.670406 82.952011
vn -0.1127 -0.4082 -0.9059
vn -0.1207 -0.4014 -0.9079
vn -0.1290 -0.3323 -0.9343
vn -0.1127 -0.3305 -0.9371
vn -0.1130 -0.5339 -0.8379
vn -0.1053 -0.5344 -0.8387
vn 0.1217 -0.4042 0.9065
vn 0.1294 -0.4038 0.9056
vn 0.1299 -0.3348 0.9333
vn 0.1222 -0.3351 0.9342
vn 0.1220 -0.5314 0.8383
vn 0.1142 -0.5318 0.8391
vn -0.1207 -0.4013 -0.9079
vn 0.1300 -0.3348 0.9333
vn 0.1220 -0.5313 0.8383
vn 0.1143 -0.5318 0.8391
vn -0.1128 -0.3305 -0.9370
vn -0.1054 -0.5344 -0.8386
vn 0.1299 -0.3347 0.9333
vn 0.9951 -0.0039 -0.0983
vn 0.4985 -0.8125 0.3023
vn 0.3884 -0.8121 -0.4355
vn 0.9826 -0.0040 -0.1854
vn 0.9951 0.0039 -0.0983
vn 0.9826 0.0040 -0.1855
vn 0.5099 0.8104 0.2886
vn 0.4069 0.8098 -0.4227
vn -0.0898 -0.0039 -0.9960
vn -0.4942 -0.8132 -0.3074
vn -0.1916 -0.0039 -0.9815
vn -0.5146 0.8053 -0.2946
vn -0.9959 -0.0039 0.0899
vn -0.9959 -0.0039 0.0898
vn -0.3938 -0.8150 0.4251
vn -0.9843 -0.0039 0.1765
vn -0.9843 -0.0040 0.1765
vn -0.4148 0.8099 0.4148
vn 0.0827 -0.0039 0.9966
vn 0.1855 -0.0040 0.9826
vn -0.9906 -0.0039 0.1370
vn -0.7037 0.7037 0.0983
vn -0.5613 0.7968 -0.2237
vn -0.9960 -0.0039 0.0898
vn -0.9904 -0.0117 0.1377
vn -0.6998 -0.7076 0.0978
vn -0.5587 -0.8010 -0.2149
vn -0.2140 -0.0039 -0.9768
vn -0.2141 -0.0039 -0.9768
vn 0.4689 0.8000 -0.3744
vn -0.0665 -0.0039 -0.9978
vn -0.0666 -0.0039 -0.9978
vn 0.4734 -0.8021 -0.3639
vn 0.9826 -0.0039 -0.1855
vn 0.6991 0.7070 -0.1066
vn 0.9893 -0.0039 -0.1458
vn 0.9892 -0.0118 -0.1458
vn 0.6952 -0.7109 -0.1060
vn -0.1363 0.2375 -0.9618
vn -0.1286 0.2378 -0.9628
vn -0.1283 -0.1750 -0.9762
vn -0.1346 -0.1762 -0.9751
vn -0.0428 -0.9622 -0.2688
vn 0.0975 -0.9869 -0.1287
vn 0.1381 0.2486 0.9587
vn 0.1382 0.2486 0.9587
vn 0.1372 -0.1685 0.9761
vn 0.1460 -0.1697 0.9746
vn 0.1288 -0.9876 0.0898
vn 0.0361 -0.9645 0.2615
vn -0.1284 -0.1750 -0.9762
vn 0.1460 -0.1696 0.9746
vn -0.1286 0.2377 -0.9628
vn -0.1346 -0.1761 -0.9751
vn -0.0429 -0.9622 -0.2688
vn 0.0975 -0.9869 -0.1288
vn 0.1381 0.2485 0.9587
vn 0.1372 -0.1686 0.9761
vn 0.0362 -0.9645 0.2615
vn -0.0039 1.0000 0.0040
vn 0.0040 1.0000 0.0040
vn 0.9640 0.2321 -0.1298
vn -0.0011 0.9999 -0.0122
vn 0.9619 0.2316 -0.1453
vn 0.0040 0.9999 -0.0118
vn 0.9273 -0.3483 -0.1370
vn 0.9636 -0.2242 -0.1456
vn 0.9292 -0.3490 -0.1216
vn 0.8984 -0.4197 -0.1295
vn 0.9667 -0.2249 -0.1223
vn 0.9001 -0.4205 -0.1140
vn 0.9754 -0.1777 -0.1303
vn 0.9733 -0.1773 -0.1458
vn -0.0040 1.0000 0.0040
vn 0.0039 1.0000 0.0040
vn -0.0010 0.9999 -0.0123
vn 0.0039 0.9999 -0.0119
vn 0.9636 -0.2242 -0.1455
vn 0.9292 -0.3490 -0.1215
vn 0.8984 -0.4198 -0.1294
vn 0.9001 -0.4206 -0.1140
vn -0.0040 1.0000 0.0039
vn 0.9640 0.2322 -0.1298
vn -0.0011 0.9999 -0.0123
vn 0.8984 -0.4198 -0.1295
vn 0.9733 -0.1774 -0.1458
vn 0.0283 -0.9781 0.2064
vn 0.0981 -0.9929 0.0667
vn 0.0740 -0.9925 -0.0973
vn -0.0353 -0.9759 -0.2156
vn -0.0039 -0.9999 -0.0117
vn 0.0039 -0.9999 -0.0118
vn 0.0071 -1.0000 -0.0004
vn -0.0008 -1.0000 0.0035
vn 0.0739 -0.9925 -0.0973
vn -0.0039 -0.9999 -0.0118
vn 0.0282 -0.9781 0.2064
vn -0.0353 -0.9759 -0.2155
vt 0.718262 0.851074
vt 0.087708 0.851074
vt 0.087402 0.875000
vt 0.722168 0.875000
vt 0.087402 0.896362
vt 0.728027 0.896362
vt 0.912109 0.851074
vt 0.286377 0.851074
vt 0.281738 0.875000
vt 0.912109 0.875000
vt 0.275879 0.896362
vt 0.912109 0.896362
vt -0.331543 0.079102
vt -0.333984 0.054688
vt 0.057129 0.054688
vt 0.059601 0.079102
vt -0.331543 4.964844
vt 0.059601 4.964844
vt -0.328857 4.990234
vt 0.062073 4.990234
vt 0.084167 4.964844
vt 0.077271 4.986328
vt 0.066528 0.058105
vt 0.084167 0.079102
vt 0.076233 0.054688
vt 0.397217 0.054688
vt 0.395264 0.079590
vt 0.395264 4.964844
vt 0.092041 4.990234
vt 0.393066 4.990234
vt 0.419678 4.966797
vt 0.406738 4.986328
vt 0.408203 0.058105
vt 0.419678 0.079590
vt 0.419922 0.054688
vt 0.811035 0.054688
vt 0.811035 0.079590
vt 0.811035 4.966797
vt 0.419678 4.990234
vt 0.810547 4.990234
vt 0.835449 4.966797
vt 0.823242 4.986328
vt 0.823242 0.058105
vt 0.835449 0.079590
vt 0.835449 0.054688
vt 1.156250 0.054688
vt 1.146484 0.079590
vt 1.168945 0.058105
vt 1.170898 0.079590
vt 1.170898 4.966797
vt 1.146484 4.966797
vt 1.148438 4.986328
vt 0.835449 4.990234
vt 1.136719 4.990234
vt 2.222656 4.494141
vt 2.214844 4.519531
vt 1.844727 4.519531
vt 1.844727 4.494141
vt 2.222656 0.080078
vt 1.844727 0.080078
vt 2.230469 0.055664
vt 1.844727 0.055664
vt 1.820312 0.080078
vt 1.833008 0.059082
vt 1.833008 4.515625
vt 1.820312 4.494141
vt 1.820312 4.519531
vt 1.611328 4.519531
vt 1.611328 4.494141
vt 1.611328 0.080078
vt 1.820312 0.055664
vt 1.611328 0.055664
vt 1.586914 0.080078
vt 1.599609 0.059082
vt 1.599609 4.515625
vt 1.586914 4.494141
vt 1.586914 4.517578
vt 1.217773 4.517578
vt 1.208984 4.494141
vt 1.208984 0.080078
vt 1.586914 0.055664
vt 1.201172 0.055664
vt 0.087402 0.924866
vt 0.760254 0.925659
vt 0.760742 0.907043
vt 0.087402 0.907043
vt 0.087402 0.901489
vt 0.762207 0.901489
vt 0.239746 0.924805
vt 0.912109 0.924866
vt 0.912109 0.907043
vt 0.239746 0.907043
vt 0.238770 0.901489
vt 0.912109 0.901489
vt 0.917480 0.912598
vt 0.915527 0.240234
vt 0.912109 0.912598
vt 0.909668 0.240234
vt 0.909668 0.234375
vt 0.215454 0.912598
vt 0.217773 0.233887
vt 0.218018 0.239746
vt 0.209961 0.912598
vt 0.212280 0.239746
vt 0.262451 0.851074
vt 0.256592 0.851074
vt 0.250732 0.875000
vt 0.256348 0.875000
vt 0.241089 0.896362
vt 0.869629 0.851074
vt 0.247437 0.896057
vt 0.875488 0.875000
vt 0.875488 0.851074
vt 0.884277 0.896057
vt 0.880859 0.875000
vt 0.890625 0.896362
vt 0.909668 0.924866
vt 0.915527 0.924805
vt 0.916016 0.907043
vt 0.910645 0.907043
vt 0.913086 0.901489
vt 0.217773 0.925659
vt 0.215210 0.901489
vt 0.217285 0.907043
vt 0.212280 0.925659
vt 0.211548 0.907043
vt 0.086548 0.239258
vt 0.087585 0.912598
vt 0.103027 0.912598
vt 0.110840 0.912598
vt 0.109131 0.276367
vt 0.103699 0.264648
vt 0.115295 0.270508
vt 0.784668 0.237793
vt 0.752441 0.266602
vt 0.764648 0.260742
vt 0.784180 0.912598
vt 0.758789 0.271973
vt 0.772949 0.912598
vt 0.765137 0.912598
vt 0.749512 0.912292
vt 0.743164 0.281738
vt 0.742676 0.912231
vt 0.736328 0.282715
vt 0.737305 0.276367
vt 0.130005 0.281250
vt 0.131226 0.287598
vt 0.133545 0.912231
vt 0.124329 0.286621
vt 0.126587 0.912292
s 1
usemtl MASTER_Concrete_Grooved
f 1/1/1 2/2/2 3/3/3
f 4/4/4 1/1/1 3/3/3
f 4/4/4 3/3/3 5/5/5
f 6/6/6 4/4/4 5/5/5
f 7/7/7 8/8/8 9/9/9
f 10/10/10 7/7/7 9/9/9
f 10/10/10 9/9/9 11/11/11
f 12/12/12 10/10/10 11/11/11
f 13/1/1 14/2/13 15/3/3
f 16/4/4 13/1/1 15/3/3
f 16/4/4 15/3/3 17/5/5
f 18/6/6 16/4/4 17/5/5
f 19/7/7 20/8/8 21/9/14
f 22/10/10 19/7/7 21/9/14
f 22/10/10 21/9/14 23/11/15
f 24/12/16 22/10/10 23/11/15
f 25/1/1 26/2/2 27/3/3
f 28/4/17 25/1/1 27/3/3
f 28/4/17 27/3/3 29/5/5
f 30/6/18 28/4/17 29/5/5
f 31/7/7 32/8/8 33/9/19
f 34/10/10 31/7/7 33/9/19
f 34/10/10 33/9/19 35/11/15
f 36/12/12 34/10/10 35/11/15
f 37/13/20 38/14/21 39/15/22
f 40/16/23 37/13/20 39/15/22
f 41/17/24 37/13/20 40/16/23
f 42/18/25 41/17/24 40/16/23
f 43/19/26 41/17/24 42/18/25
f 44/20/27 43/19/26 42/18/25
f 45/21/28 42/18/25 40/16/23
f 42/18/25 45/21/28 44/22/27
f 39/23/22 46/24/28 40/16/23
f 46/24/28 45/21/28 40/16/23
f 46/24/28 39/25/22 47/26/29
f 48/27/30 46/24/28 47/26/29
f 45/21/28 46/24/28 48/27/30
f 49/28/30 45/21/28 48/27/30
f 45/21/28 49/28/30 44/29/27
f 49/28/30 50/30/31 44/29/27
f 49/28/30 48/27/30 51/31/32
f 49/28/30 51/31/32 50/32/31
f 48/27/30 47/33/29 52/34/33
f 48/27/30 52/34/33 51/31/32
f 47/35/29 53/36/34 52/34/33
f 53/36/34 54/37/35 52/34/33
f 52/34/33 54/37/35 51/31/32
f 54/37/35 55/38/36 51/31/32
f 51/31/32 55/38/36 50/39/31
f 55/38/36 56/40/37 50/39/31
f 55/38/36 54/37/35 57/41/38
f 56/42/37 55/38/36 57/41/38
f 54/37/35 53/43/34 58/44/38
f 54/37/35 58/44/38 57/41/38
f 53/45/34 38/46/21 58/44/38
f 38/46/21 59/47/39 58/44/38
f 58/44/38 59/47/39 57/41/38
f 38/48/21 37/49/20 59/47/39
f 37/49/20 41/50/24 59/47/39
f 59/47/39 60/51/39 57/41/38
f 41/50/24 60/51/39 59/47/39
f 41/50/24 43/52/26 60/51/39
f 56/53/37 57/41/38 60/51/39
f 43/54/26 56/53/37 60/51/39
f 61/55/40 62/56/41 63/57/42
f 64/58/43 61/55/40 63/57/42
f 65/59/44 61/55/40 64/58/43
f 66/60/33 65/59/44 64/58/43
f 65/59/44 66/60/33 67/61/45
f 66/60/33 68/62/46 67/61/45
f 69/63/47 66/60/33 64/58/43
f 66/60/33 69/63/47 68/64/46
f 63/65/42 70/66/48 64/58/43
f 70/66/48 69/63/47 64/58/43
f 70/66/48 63/67/42 71/68/49
f 72/69/50 70/66/48 71/68/49
f 70/66/48 72/69/50 69/63/47
f 72/69/50 73/70/51 69/63/47
f 69/63/47 73/70/51 68/71/46
f 73/70/51 74/72/52 68/71/46
f 73/70/51 72/69/50 75/73/53
f 73/70/51 75/73/53 74/74/52
f 72/69/50 71/75/49 76/76/53
f 72/69/50 76/76/53 75/73/53
f 71/77/49 77/78/54 76/76/53
f 77/78/54 78/79/55 76/76/53
f 76/76/53 78/79/55 75/73/53
f 78/79/55 79/80/56 75/73/53
f 75/73/53 79/80/56 74/81/52
f 79/80/56 80/82/57 74/81/52
f 81/83/58 82/84/59 83/85/60
f 84/86/61 81/83/58 83/85/60
f 84/86/61 83/85/60 85/87/62
f 83/85/60 86/88/63 85/87/62
f 87/89/64 88/90/65 89/91/66
f 90/92/67 87/89/64 89/91/66
f 90/92/67 89/91/66 91/93/68
f 89/91/66 92/94/69 91/93/68
f 93/83/58 94/84/59 95/85/70
f 96/86/61 93/83/58 95/85/70
f 96/86/61 95/85/70 97/87/62
f 95/85/70 98/88/63 97/87/62
f 99/89/64 100/90/65 101/91/66
f 102/92/71 99/89/64 101/91/66
f 102/92/71 101/91/66 103/93/68
f 101/91/66 104/94/69 103/93/68
f 105/83/58 106/84/72 107/85/70
f 108/86/73 105/83/58 107/85/70
f 108/86/73 107/85/70 109/87/74
f 107/85/70 110/88/75 109/87/74
f 111/89/76 112/90/65 113/91/77
f 114/92/67 111/89/76 113/91/77
f 114/92/67 113/91/77 115/93/68
f 113/91/77 116/94/78 115/93/68
f 88/95/65 87/96/64 117/97/79
f 87/96/64 118/98/80 117/97/79
f 118/98/80 87/96/64 119/99/81
f 117/97/79 118/98/80 120/100/82
f 118/98/80 119/99/81 121/101/83
f 118/98/80 122/102/84 120/100/82
f 122/102/84 118/98/80 121/101/83
f 81/103/58 120/100/82 122/102/84
f 82/104/59 122/102/84 121/101/83
f 82/104/59 81/103/58 122/102/84
f 123/105/85 1/106/1 4/107/4
f 124/108/86 123/105/85 4/107/4
f 4/107/4 6/109/6 124/108/86
f 125/110/87 123/105/85 124/108/86
f 6/109/6 126/111/88 124/108/86
f 127/112/89 125/110/87 124/108/86
f 127/112/89 124/108/86 126/111/88
f 8/113/8 125/110/87 127/112/89
f 128/114/90 127/112/89 126/111/88
f 9/115/9 8/113/8 127/112/89
f 127/112/89 128/114/90 9/115/9
f 128/114/90 11/116/11 9/115/9
f 119/117/81 87/118/64 90/119/67
f 129/120/91 119/117/81 90/119/67
f 90/119/67 91/121/68 129/120/91
f 121/122/83 119/117/81 129/120/91
f 129/120/91 91/121/68 86/123/63
f 130/124/92 121/122/83 129/120/91
f 130/124/92 129/120/91 86/123/63
f 82/125/59 121/122/83 130/124/92
f 86/123/63 83/126/60 130/124/92
f 83/126/60 82/125/59 130/124/92
f 100/95/65 99/96/64 131/97/93
f 99/96/64 132/98/94 131/97/93
f 132/98/94 99/96/64 133/99/81
f 131/97/93 132/98/94 134/100/95
f 132/98/94 133/99/81 135/101/83
f 132/98/94 136/102/96 134/100/95
f 136/102/96 132/98/94 135/101/83
f 93/103/58 134/100/95 136/102/96
f 94/104/59 136/102/96 135/101/83
f 94/104/59 93/103/58 136/102/96
f 137/105/85 13/106/1 16/107/4
f 138/108/97 137/105/85 16/107/4
f 16/107/4 18/109/6 138/108/97
f 139/110/98 137/105/85 138/108/97
f 18/109/6 140/111/99 138/108/97
f 141/112/89 139/110/98 138/108/97
f 141/112/89 138/108/97 140/111/99
f 20/113/8 139/110/98 141/112/89
f 142/114/100 141/112/89 140/111/99
f 21/115/14 20/113/8 141/112/89
f 141/112/89 142/114/100 21/115/14
f 142/114/100 23/116/15 21/115/14
f 133/117/81 99/118/64 102/119/71
f 143/120/91 133/117/81 102/119/71
f 102/119/71 103/121/68 143/120/91
f 135/122/83 133/117/81 143/120/91
f 143/120/91 103/121/68 98/123/63
f 144/124/92 135/122/83 143/120/91
f 144/124/92 143/120/91 98/123/63
f 94/125/59 135/122/83 144/124/92
f 98/123/63 95/126/70 144/124/92
f 95/126/70 94/125/59 144/124/92
f 112/95/65 111/96/76 145/97/101
f 111/96/76 146/98/94 145/97/101
f 146/98/94 111/96/76 147/99/102
f 145/97/101 146/98/94 148/100/103
f 146/98/94 147/99/102 149/101/83
f 146/98/94 150/102/84 148/100/103
f 150/102/84 146/98/94 149/101/83
f 105/103/58 148/100/103 150/102/84
f 106/104/72 150/102/84 149/101/83
f 106/104/72 105/103/58 150/102/84
f 151/105/85 25/106/1 28/107/17
f 152/108/97 151/105/85 28/107/17
f 28/107/17 30/109/18 152/108/97
f 153/110/98 151/105/85 152/108/97
f 30/109/18 154/111/104 152/108/97
f 155/112/89 153/110/98 152/108/97
f 155/112/89 152/108/97 154/111/104
f 32/113/8 153/110/98 155/112/89
f 156/114/100 155/112/89 154/111/104
f 33/115/19 32/113/8 155/112/89
f 155/112/89 156/114/100 33/115/19
f 156/114/100 35/116/15 33/115/19
f 147/117/102 111/118/76 114/119/67
f 157/120/91 147/117/102 114/119/67
f 114/119/67 115/121/68 157/120/91
f 149/122/83 147/117/102 157/120/91
f 157/120/91 115/121/68 110/123/75
f 158/124/105 149/122/83 157/120/91
f 158/124/105 157/120/91 110/123/75
f 106/125/72 149/122/83 158/124/105
f 110/123/75 107/126/70 158/124/105
f 107/126/70 106/125/72 158/124/105
f 91/127/68 92/128/69 159/129/106
f 159/129/106 12/130/12 11/131/11
f 160/132/107 91/127/68 159/129/106
f 160/132/107 159/129/106 11/131/11
f 160/132/107 11/131/11 128/133/90
f 86/134/63 91/127/68 160/132/107
f 160/132/107 128/133/90 126/135/88
f 161/136/108 86/134/63 160/132/107
f 161/136/108 160/132/107 126/135/88
f 85/137/62 86/134/63 161/136/108
f 6/138/6 161/136/108 126/135/88
f 162/139/109 85/137/62 161/136/108
f 161/136/108 6/138/6 5/140/5
f 162/139/109 161/136/108 5/140/5
f 2/141/2 1/142/1 163/143/110
f 1/142/1 164/144/111 163/143/110
f 1/142/1 123/145/85 164/144/111
f 164/144/111 123/145/85 125/146/87
f 163/143/110 164/144/111 165/147/112
f 165/147/112 164/144/111 125/146/87
f 166/148/113 163/143/110 165/147/112
f 125/146/87 8/149/8 165/147/112
f 7/150/7 166/148/113 165/147/112
f 8/149/8 7/150/7 165/147/112
f 103/127/68 104/128/69 167/129/106
f 167/129/106 24/130/16 23/131/15
f 168/132/107 103/127/68 167/129/106
f 168/132/107 167/129/106 23/131/15
f 168/132/107 23/131/15 142/133/100
f 98/134/63 103/127/68 168/132/107
f 168/132/107 142/133/100 140/135/99
f 169/136/114 98/134/63 168/132/107
f 169/136/114 168/132/107 140/135/99
f 97/137/62 98/134/63 169/136/114
f 18/138/6 169/136/114 140/135/99
f 170/139/109 97/137/62 169/136/114
f 169/136/114 18/138/6 17/140/5
f 170/139/109 169/136/114 17/140/5
f 14/141/13 13/142/1 171/143/115
f 13/142/1 172/144/111 171/143/115
f 13/142/1 137/145/85 172/144/111
f 172/144/111 137/145/85 139/146/98
f 171/143/115 172/144/111 173/147/112
f 173/147/112 172/144/111 139/146/98
f 174/148/113 171/143/115 173/147/112
f 139/146/98 20/149/8 173/147/112
f 19/150/7 174/148/113 173/147/112
f 20/149/8 19/150/7 173/147/112
f 115/127/68 116/128/78 175/129/116
f 175/129/116 36/130/12 35/131/15
f 176/132/107 115/127/68 175/129/116
f 176/132/107 175/129/116 35/131/15
f 176/132/107 35/131/15 156/133/100
f 110/134/75 115/127/68 176/132/107
f 176/132/107 156/133/100 154/135/104
f 177/136/108 110/134/75 176/132/107
f 177/136/108 176/132/107 154/135/104
f 109/137/74 110/134/75 177/136/108
f 30/138/18 177/136/108 154/135/104
f 178/139/117 109/137/74 177/136/108
f 177/136/108 30/138/18 29/140/5
f 178/139/117 177/136/108 29/140/5
f 26/141/2 25/142/1 179/143/110
f 25/142/1 180/144/111 179/143/110
f 25/142/1 151/145/85 180/144/111
f 180/144/111 151/145/85 153/146/98
f 179/143/110 180/144/111 181/147/112
f 181/147/112 180/144/111 153/146/98
f 182/148/113 179/143/110 181/147/112
f 153/146/98 32/149/8 181/147/112
f 31/150/7 182/148/113 181/147/112
f 32/149/8 31/150/7 181/147/112
