# Blender 3.6.18
# www.blender.org
mtllib Mesh.355.mtl
o Bistro_Research_Exterior_paris_building_11_5879
v -2.337117 13.735184 21.773848
v -2.337117 16.112118 21.773848
v -2.388127 16.112118 21.742502
v -2.388127 13.735184 21.742502
v -2.394943 16.112118 21.738314
v -2.394943 13.735186 21.738314
v -2.373529 13.735186 21.692167
v -2.373529 16.112118 21.692167
v -2.365737 16.112118 21.693979
v -2.365737 13.735185 21.693979
v -2.306297 16.112118 21.707809
v -2.306297 13.735185 21.707809
v -2.391576 16.112116 21.731060
v -2.391576 13.735184 21.731058
v -2.376896 16.112116 21.699423
v -2.376896 13.735185 21.699423
vn -0.5283 -0.0039 0.8491
vn -0.5282 -0.0039 0.8491
vn -0.9584 -0.0039 0.2855
vn -0.9584 -0.0039 0.2856
vn -0.4394 -0.0039 -0.8983
vn 0.2231 -0.0039 -0.9748
vn 0.2232 -0.0039 -0.9748
vn -0.9058 -0.0039 -0.4237
vt 0.801758 0.525879
vt 0.059052 0.525879
vt 0.059052 0.507568
vt 0.801758 0.507568
vt 0.059052 0.505127
vt 0.801758 0.505127
vt 0.198120 0.505859
vt 0.940918 0.505859
vt 0.940918 0.508301
vt 0.198120 0.508301
vt 0.940918 0.527100
vt 0.198120 0.527100
vt 0.198120 0.379883
vt 0.940918 0.379883
vt 0.940918 0.382324
vt 0.198120 0.382324
vt 0.940918 0.393555
vt 0.198120 0.393555
vt 0.940918 0.395996
vt 0.198120 0.395996
s 1
usemtl MASTER_Wood_Painted_Green
f 1/1/1 2/2/1 3/3/2
f 4/4/2 1/1/1 3/3/2
f 4/4/2 3/3/2 5/5/3
f 6/6/4 4/4/2 5/5/3
f 7/7/5 8/8/5 9/9/6
f 10/10/6 7/7/5 9/9/6
f 10/10/6 9/9/6 11/11/6
f 12/12/7 10/10/6 11/11/6
f 6/13/4 5/14/3 13/15/8
f 14/16/8 6/13/4 13/15/8
f 14/16/8 13/15/8 15/17/8
f 16/18/8 14/16/8 15/17/8
f 16/18/8 15/17/8 8/19/5
f 7/20/5 16/18/8 8/19/5
