# Blender 3.6.18
# www.blender.org
mtllib Mesh.1138.mtl
o Bistro_Research_Exterior_Paris_Building_01_paris_buildi_26eeff8
v -1.543006 8.795577 -6.406696
v -1.553855 8.794839 -6.413209
v -1.555071 8.807665 -6.413987
v -1.544508 8.810590 -6.407526
v -1.558595 8.819083 -6.416060
v -1.548868 8.824738 -6.410101
v -1.564127 8.829172 -6.419319
v -1.555701 8.837209 -6.414133
v -1.571387 8.837598 -6.423598
v -1.564655 8.847604 -6.419415
v -1.580085 8.844023 -6.428728
v -1.575390 8.855531 -6.425744
v -1.589937 8.848117 -6.434539
v -1.587559 8.860586 -6.432917
v -1.600690 8.849557 -6.440880
v -1.600787 8.862358 -6.440716
v -1.611444 8.848117 -6.447220
v -1.614014 8.860586 -6.448516
v -1.621298 8.844022 -6.453029
v -1.626182 8.855531 -6.455692
v -1.629997 8.837598 -6.458157
v -1.636916 8.847604 -6.462022
v -1.637255 8.829173 -6.462438
v -1.645872 8.837209 -6.467301
v -1.642784 8.819084 -6.465702
v -1.652708 8.824738 -6.471328
v -1.646305 8.807665 -6.467782
v -1.657070 8.810590 -6.473898
v -1.647574 8.794839 -6.468470
v -1.658525 8.795577 -6.474810
v -1.647574 8.484289 -6.468470
v -1.658525 8.483552 -6.474810
v -1.675134 8.483552 -6.446641
v -1.664285 8.484289 -6.440128
v -1.675134 8.795577 -6.446640
v -1.664285 8.794839 -6.440128
v -1.673632 8.810590 -6.445810
v -1.663069 8.807664 -6.439351
v -1.669272 8.824738 -6.443237
v -1.659545 8.819083 -6.437277
v -1.662439 8.837210 -6.439203
v -1.654013 8.829172 -6.434018
v -1.653485 8.847604 -6.433922
v -1.646753 8.837598 -6.429739
v -1.642750 8.855532 -6.427594
v -1.638055 8.844022 -6.424609
v -1.630580 8.860586 -6.420420
v -1.628203 8.848117 -6.418797
v -1.617353 8.862358 -6.412621
v -1.617450 8.849557 -6.412457
v -1.604126 8.860586 -6.404821
v -1.606696 8.848117 -6.406116
v -1.591957 8.855531 -6.397645
v -1.596842 8.844022 -6.400309
v -1.581224 8.847604 -6.391315
v -1.588143 8.837598 -6.395180
v -1.572268 8.837210 -6.386035
v -1.580884 8.829172 -6.390899
v -1.565432 8.824738 -6.382008
v -1.575355 8.819083 -6.387635
v -1.561069 8.810590 -6.379439
v -1.571835 8.807664 -6.385555
v -1.559615 8.795577 -6.378527
v -1.570566 8.794839 -6.384868
vn 0.5134 -0.0039 -0.8582
vn 0.5133 -0.0039 -0.8582
vn 0.5133 0.0039 -0.8582
vn 0.5134 0.0040 -0.8582
vn 0.5075 0.0118 -0.8616
vn 0.5041 0.0117 -0.8636
vn 0.4982 0.0118 -0.8670
vn 0.4982 0.0039 -0.8670
vn 0.4890 0.0039 -0.8723
vn 0.4890 -0.0039 -0.8723
vn 0.4982 -0.0039 -0.8670
vn 0.4983 -0.0039 -0.8670
vn -0.5225 -0.0039 0.8526
vn -0.5226 -0.0039 0.8526
vn -0.5225 0.0039 0.8526
vn -0.5226 0.0039 0.8526
vn -0.5168 0.0118 0.8560
vn -0.5133 0.0118 0.8581
vn -0.5075 0.0118 0.8616
vn -0.5075 0.0039 0.8616
vn -0.4982 0.0039 0.8670
vn -0.4983 0.0039 0.8670
vn -0.4982 -0.0039 0.8670
vn -0.4983 -0.0039 0.8670
vn -0.4983 -0.0040 0.8670
vn 0.8616 -0.0040 0.5075
vn 0.8599 -0.0589 0.5070
vn 0.8601 -0.0589 0.5067
vn 0.8601 -0.0589 0.5066
vn 0.8388 -0.2323 0.4923
vn 0.8388 -0.2324 0.4923
vn 0.7739 -0.4439 0.4518
vn 0.6689 -0.6297 0.3951
vn 0.5377 -0.7809 0.3179
vn 0.5376 -0.7810 0.3179
vn 0.3714 -0.9032 0.2150
vn 0.3715 -0.9032 0.2151
vn 0.1918 -0.9748 0.1135
vn -0.0039 -1.0000 -0.0039
vn -0.1992 -0.9725 -0.1211
vn -0.3775 -0.8990 -0.2218
vn -0.5418 -0.7757 -0.3236
vn -0.5418 -0.7757 -0.3235
vn -0.6711 -0.6245 -0.3995
vn -0.7743 -0.4397 -0.4552
vn -0.8379 -0.2299 -0.4950
vn -0.8561 -0.1133 -0.5043
vn -0.8386 -0.2299 -0.4939
vn -0.8561 -0.1134 -0.5043
vn 0.8581 0.1068 0.5022
vn 0.8404 0.2249 0.4932
vn 0.7766 0.4376 0.4533
vn 0.6721 0.6250 0.3969
vn 0.6722 0.6250 0.3970
vn 0.5409 0.7779 0.3198
vn 0.3741 0.9018 0.2166
vn 0.3741 0.9017 0.2166
vn 0.1933 0.9744 0.1144
vn -0.0039 1.0000 -0.0039
vn -0.2007 0.9720 -0.1220
vn -0.3801 0.8976 -0.2234
vn -0.3802 0.8975 -0.2234
vn -0.5451 0.7726 -0.3255
vn -0.6743 0.6197 -0.4015
vn -0.6743 0.6198 -0.4015
vn -0.7769 0.4333 -0.4568
vn -0.7769 0.4334 -0.4568
vn -0.8394 0.2225 -0.4958
vn -0.8591 0.0505 -0.5093
vn -0.8602 -0.0039 -0.5099
vt 9.546875 -24.875000
vt 8.125000 -24.796875
vt 7.906250 -26.687500
vt 9.296875 -27.015625
vt 7.296875 -28.406250
vt 8.578125 -29.031250
vt 6.335938 -29.906250
vt 7.449219 -30.796875
vt 5.078125 -31.156250
vt 5.968750 -32.281250
vt 3.570312 -32.125000
vt 4.195312 -33.406250
vt 1.862305 -32.718750
vt 2.185547 -34.125000
vt 0.000001 -32.937500
vt 0.000002 -34.375000
vt -1.862305 -32.718750
vt -2.185547 -34.125000
vt -3.570312 -32.125000
vt -4.195312 -33.406250
vt -5.078125 -31.156250
vt -5.968750 -32.281250
vt -6.335938 -29.906250
vt -7.449219 -30.796875
vt -7.296875 -28.406250
vt -8.578125 -29.031250
vt -7.906250 -26.687500
vt -9.296875 -27.015625
vt -8.125000 -24.796875
vt -9.546875 -24.875000
vt -8.125000 20.437500
vt -9.546875 20.515625
s 1
usemtl MASTER_Grain_Metal
f 1/1/1 2/2/2 3/3/2
f 4/4/2 1/1/1 3/3/2
f 4/4/2 3/3/2 5/5/3
f 6/6/3 4/4/2 5/5/3
f 6/6/3 5/5/3 7/7/3
f 8/8/4 6/6/3 7/7/3
f 8/8/4 7/7/3 9/9/3
f 10/10/3 8/8/4 9/9/3
f 10/10/3 9/9/3 11/11/5
f 12/12/5 10/10/3 11/11/5
f 12/12/5 11/11/5 13/13/6
f 14/14/6 12/12/5 13/13/6
f 14/14/6 13/13/6 15/15/6
f 16/16/6 14/14/6 15/15/6
f 16/16/6 15/15/6 17/17/7
f 18/18/7 16/16/6 17/17/7
f 18/18/7 17/17/7 19/19/7
f 20/20/7 18/18/7 19/19/7
f 20/20/7 19/19/7 21/21/8
f 22/22/8 20/20/7 21/21/8
f 22/22/8 21/21/8 23/23/9
f 24/24/9 22/22/8 23/23/9
f 24/24/9 23/23/9 25/25/9
f 26/26/9 24/24/9 25/25/9
f 26/26/9 25/25/9 27/27/10
f 28/28/10 26/26/9 27/27/10
f 28/28/10 27/27/10 29/29/11
f 30/30/11 28/28/10 29/29/11
f 30/30/11 29/29/11 31/31/12
f 32/32/12 30/30/11 31/31/12
f 33/32/13 34/31/13 35/30/13
f 34/31/14 36/29/14 35/30/14
f 35/30/14 36/29/14 37/28/14
f 36/29/14 38/27/14 37/28/14
f 37/28/14 38/27/14 39/26/15
f 38/27/14 40/25/16 39/26/15
f 39/26/15 40/25/16 41/24/15
f 40/25/16 42/23/16 41/24/15
f 41/24/15 42/23/16 43/22/15
f 42/23/16 44/21/15 43/22/15
f 43/22/15 44/21/15 45/20/17
f 44/21/15 46/19/17 45/20/17
f 45/20/17 46/19/17 47/18/18
f 46/19/17 48/17/18 47/18/18
f 47/18/18 48/17/18 49/16/18
f 48/17/18 50/15/18 49/16/18
f 49/16/18 50/15/18 51/14/19
f 50/15/18 52/13/19 51/14/19
f 51/14/19 52/13/19 53/12/19
f 52/13/19 54/11/19 53/12/19
f 53/12/19 54/11/19 55/10/20
f 54/11/19 56/9/20 55/10/20
f 55/10/20 56/9/20 57/8/21
f 56/9/20 58/7/21 57/8/21
f 57/8/21 58/7/21 59/6/22
f 58/7/21 60/5/22 59/6/22
f 59/6/22 60/5/22 61/4/23
f 60/5/22 62/3/24 61/4/23
f 61/4/23 62/3/24 63/1/25
f 62/3/24 64/2/24 63/1/24
f 34/31/26 31/31/26 36/29/27
f 31/31/26 29/29/28 36/29/29
f 36/29/29 29/29/28 38/27/30
f 29/29/28 27/27/31 38/27/30
f 38/27/30 27/27/31 40/25/32
f 27/27/31 25/25/32 40/25/32
f 40/25/32 25/25/32 42/23/33
f 25/25/32 23/23/33 42/23/33
f 42/23/33 23/23/33 44/21/34
f 23/23/33 21/21/35 44/21/34
f 44/21/34 21/21/35 46/19/36
f 21/21/35 19/19/37 46/19/36
f 46/19/36 19/19/37 48/17/38
f 19/19/37 17/17/38 48/17/38
f 48/17/38 17/17/38 50/15/39
f 17/17/38 15/15/39 50/15/39
f 50/15/39 15/15/39 52/13/40
f 15/15/39 13/13/40 52/13/40
f 52/13/40 13/13/40 54/11/41
f 13/13/40 11/11/41 54/11/41
f 54/11/41 11/11/41 56/9/42
f 11/11/41 9/9/43 56/9/42
f 56/9/42 9/9/43 58/7/44
f 9/9/43 7/7/44 58/7/44
f 58/7/44 7/7/44 60/5/45
f 7/7/44 5/5/45 60/5/45
f 60/5/45 5/5/45 62/3/46
f 5/5/45 3/3/46 62/3/46
f 62/3/46 3/3/46 64/2/47
f 3/3/48 2/2/49 64/2/49
f 63/1/50 1/1/50 4/4/51
f 61/4/51 63/1/50 4/4/51
f 61/4/51 4/4/51 6/6/52
f 59/6/52 61/4/51 6/6/52
f 59/6/52 6/6/52 8/8/53
f 57/8/54 59/6/52 8/8/53
f 57/8/54 8/8/53 10/10/55
f 55/10/55 57/8/54 10/10/55
f 55/10/55 10/10/55 12/12/56
f 53/12/57 55/10/55 12/12/56
f 53/12/57 12/12/56 14/14/58
f 51/14/58 53/12/57 14/14/58
f 51/14/58 14/14/58 16/16/59
f 49/16/59 51/14/58 16/16/59
f 49/16/59 16/16/59 18/18/60
f 47/18/60 49/16/59 18/18/60
f 47/18/60 18/18/60 20/20/61
f 45/20/62 47/18/60 20/20/61
f 45/20/62 20/20/61 22/22/63
f 43/22/63 45/20/62 22/22/63
f 43/22/63 22/22/63 24/24/64
f 41/24/65 43/22/63 24/24/64
f 41/24/65 24/24/64 26/26/66
f 39/26/67 41/24/65 26/26/66
f 39/26/67 26/26/66 28/28/68
f 37/28/68 39/26/67 28/28/68
f 37/28/68 28/28/68 30/30/69
f 35/30/69 37/28/68 30/30/69
f 35/30/69 30/30/69 32/32/70
f 33/32/70 35/30/69 32/32/70
