# Blender 3.6.18
# www.blender.org
mtllib Mesh.913.mtl
o Bistro_Research_Exterior_Paris_Building_01_paris_buildi_6e95363
v -2.867651 3.974882 -4.070364
v -2.858952 3.969630 -4.074549
v -2.853455 3.974882 -4.063123
v -2.863765 3.978595 -4.062284
v -2.871255 3.987561 -4.068631
v -2.851178 3.987561 -4.058390
v -2.862154 3.987561 -4.058938
v -2.853455 4.000241 -4.063123
v -2.863765 3.996527 -4.062284
v -2.858952 4.005493 -4.074549
v -2.867651 4.000241 -4.070364
v -2.864448 4.000241 -4.085975
v -2.871538 3.996527 -4.078444
v -2.866725 3.987561 -4.090708
v -2.873148 3.987561 -4.081790
v -2.864448 3.974882 -4.085976
v -2.871538 3.978595 -4.078444
v -2.496882 3.974881 -3.321910
v -2.491385 3.969629 -3.310483
v -2.500085 3.974880 -3.306298
v -2.503972 3.978595 -3.314378
v -2.503689 3.987560 -3.304565
v -2.499159 3.987561 -3.326642
v -2.505582 3.987560 -3.317724
v -2.496882 4.000240 -3.321909
v -2.503972 3.996526 -3.314378
v -2.491385 4.005492 -3.310483
v -2.500085 4.000240 -3.306298
v -2.485888 4.000240 -3.299057
v -2.496198 3.996526 -3.298218
v -2.483612 3.987561 -3.294324
v -2.494588 3.987560 -3.294872
v -2.485888 3.974881 -3.299057
v -2.496198 3.978595 -3.298218
v -2.853457 2.044813 -4.063124
v -2.858953 2.050066 -4.074551
v -2.867653 2.044813 -4.070365
v -2.863766 2.041100 -4.062286
v -2.871256 2.032134 -4.068632
v -2.851180 2.032134 -4.058392
v -2.862156 2.032134 -4.058939
v -2.853457 2.019454 -4.063125
v -2.863766 2.023168 -4.062286
v -2.858953 2.014202 -4.074551
v -2.867653 2.019454 -4.070366
v -2.864450 2.019454 -4.085977
v -2.871539 2.023168 -4.078445
v -2.866726 2.032134 -4.090710
v -2.873149 2.032134 -4.081792
v -2.864450 2.044813 -4.085977
v -2.871539 2.041100 -4.078445
v -2.500086 2.044812 -3.306300
v -2.491387 2.050065 -3.310485
v -2.496883 2.044812 -3.321911
v -2.503973 2.041099 -3.314379
v -2.503690 2.032133 -3.304566
v -2.499160 2.032133 -3.326644
v -2.505583 2.032133 -3.317726
v -2.496883 2.019453 -3.321911
v -2.503973 2.023167 -3.314379
v -2.491387 2.014201 -3.310485
v -2.500086 2.019453 -3.306300
v -2.485890 2.019453 -3.299059
v -2.496200 2.023167 -3.298220
v -2.483613 2.032133 -3.294326
v -2.494590 2.032133 -3.294874
v -2.485890 2.044812 -3.299058
v -2.496200 2.041099 -3.298220
vn -0.6607 -0.6842 0.3089
vn -0.4336 -0.8788 0.1992
vn -0.1685 -0.6229 0.7639
vn -0.4499 -0.4891 0.7473
vn -0.9044 -0.0039 0.4267
vn -0.0513 -0.0039 0.9987
vn -0.3653 -0.0039 0.9309
vn -0.1693 0.6181 0.7677
vn -0.4517 0.4831 0.7501
vn -0.4365 0.8770 0.2006
vn -0.6642 0.6800 0.3105
vn -0.7023 0.6159 -0.3570
vn -0.8673 0.4827 -0.1216
vn -0.8079 -0.0039 -0.5893
vn -0.9540 -0.0039 -0.2998
vn -0.6989 -0.6208 -0.3553
vn -0.8640 -0.4887 -0.1212
vn -0.4335 -0.8788 0.1992
vn -0.7022 0.6160 -0.3570
vn -0.4366 0.8770 0.2006
vn -0.4516 0.4831 0.7501
vn -0.1684 -0.6229 0.7640
vn -0.4499 -0.4890 0.7473
vn -0.6643 0.6800 0.3105
vn -0.9044 -0.0039 0.4268
vn -0.0513 -0.0040 0.9987
vn -0.6607 -0.6842 0.3088
vn -0.8673 0.4827 -0.1217
vt 0.000000 0.750000
vt 0.000000 0.375000
vt 0.125000 0.375000
vt 0.125000 0.750000
vt 0.000000 1.000000
vt 0.250000 0.375000
vt 0.250000 0.750000
vt 0.125000 1.000000
vt 0.375000 0.375000
vt 0.375000 0.750000
vt 0.250000 1.000000
vt 0.500000 0.375000
vt 0.500000 0.750000
vt 0.375000 1.000000
vt 0.625000 0.375000
vt 0.625000 0.750000
vt 0.500000 1.000000
vt 0.750000 0.375000
vt 0.750000 0.750000
vt 0.625000 1.000000
vt 0.874512 0.375000
vt 0.874512 0.750000
vt 0.750000 1.000000
vt 0.999512 0.375000
vt 0.999512 0.750000
vt 0.874512 1.000000
s 1
usemtl MASTER_Metal
f 1/1/1 2/2/2 3/3/3
f 3/3/3 4/4/4 1/1/1
f 5/5/5 1/1/1 4/4/4
f 4/4/4 3/3/3 6/6/6
f 6/6/6 7/7/7 4/4/4
f 5/8/5 4/4/4 7/7/7
f 7/7/7 6/6/6 8/9/8
f 8/9/8 9/10/9 7/7/7
f 5/11/5 7/7/7 9/10/9
f 9/10/9 8/9/8 10/12/10
f 10/12/10 11/13/11 9/10/9
f 5/14/5 9/10/9 11/13/11
f 11/13/11 10/12/10 12/15/12
f 12/15/12 13/16/13 11/13/11
f 5/17/5 11/13/11 13/16/13
f 13/16/13 12/15/12 14/18/14
f 14/18/14 15/19/15 13/16/13
f 5/20/5 13/16/13 15/19/15
f 15/19/15 14/18/14 16/21/16
f 16/21/16 17/22/17 15/19/15
f 5/23/5 15/19/15 17/22/17
f 17/22/17 16/21/16 2/24/2
f 2/24/2 1/25/1 17/22/17
f 5/26/5 17/22/17 1/25/1
f 18/3/16 19/2/18 20/1/1
f 20/1/1 21/4/17 18/3/16
f 22/5/5 21/4/17 20/1/1
f 23/6/14 18/3/16 21/4/17
f 21/4/17 24/7/15 23/6/14
f 22/8/5 24/7/15 21/4/17
f 25/9/19 23/6/14 24/7/15
f 24/7/15 26/10/13 25/9/19
f 22/11/5 26/10/13 24/7/15
f 27/12/20 25/9/19 26/10/13
f 26/10/13 28/13/11 27/12/20
f 22/14/5 28/13/11 26/10/13
f 29/15/8 27/12/20 28/13/11
f 28/13/11 30/16/21 29/15/8
f 22/17/5 30/16/21 28/13/11
f 31/18/6 29/15/8 30/16/21
f 30/16/21 32/19/7 31/18/6
f 22/20/5 32/19/7 30/16/21
f 33/21/22 31/18/6 32/19/7
f 32/19/7 34/22/23 33/21/22
f 22/23/5 34/22/23 32/19/7
f 19/24/18 33/21/22 34/22/23
f 34/22/23 20/25/1 19/24/18
f 22/26/5 20/25/1 34/22/23
f 35/3/8 36/2/10 37/1/24
f 37/1/24 38/4/21 35/3/8
f 39/5/25 38/4/21 37/1/24
f 40/6/26 35/3/8 38/4/21
f 38/4/21 41/7/7 40/6/26
f 39/8/25 41/7/7 38/4/21
f 42/9/3 40/6/26 41/7/7
f 41/7/7 43/10/23 42/9/3
f 39/11/25 43/10/23 41/7/7
f 44/12/2 42/9/3 43/10/23
f 43/10/23 45/13/27 44/12/2
f 39/14/25 45/13/27 43/10/23
f 46/15/16 44/12/2 45/13/27
f 45/13/27 47/16/17 46/15/16
f 39/17/25 47/16/17 45/13/27
f 48/18/14 46/15/16 47/16/17
f 47/16/17 49/19/15 48/18/14
f 39/20/25 49/19/15 47/16/17
f 50/21/12 48/18/14 49/19/15
f 49/19/15 51/22/28 50/21/12
f 39/23/25 51/22/28 49/19/15
f 36/24/10 50/21/12 51/22/28
f 51/22/28 37/25/24 36/24/10
f 39/26/25 37/25/24 51/22/28
f 52/1/11 53/2/10 54/3/12
f 54/3/12 55/4/13 52/1/11
f 56/5/5 52/1/11 55/4/13
f 55/4/13 54/3/12 57/6/14
f 57/6/14 58/7/15 55/4/13
f 56/8/5 55/4/13 58/7/15
f 58/7/15 57/6/14 59/9/16
f 59/9/16 60/10/17 58/7/15
f 56/11/5 58/7/15 60/10/17
f 60/10/17 59/9/16 61/12/2
f 61/12/2 62/13/1 60/10/17
f 56/14/5 60/10/17 62/13/1
f 62/13/1 61/12/2 63/15/3
f 63/15/3 64/16/23 62/13/1
f 56/17/5 62/13/1 64/16/23
f 64/16/23 63/15/3 65/18/6
f 65/18/6 66/19/7 64/16/23
f 56/20/5 64/16/23 66/19/7
f 66/19/7 65/18/6 67/21/8
f 67/21/8 68/22/21 66/19/7
f 56/23/5 66/19/7 68/22/21
f 68/22/21 67/21/8 53/24/10
f 53/24/10 52/25/11 68/22/21
f 56/26/5 68/22/21 52/25/11
