# Blender 3.6.18
# www.blender.org
mtllib Mesh.684.mtl
o Bistro_Research_Exterior_paris_building_05_10__5171
v 39.307209 16.991144 17.306061
v 39.778389 16.991144 17.495857
v 39.800770 16.991144 17.440296
v 39.329590 16.991144 17.250502
v 39.800770 16.895021 17.440296
v 39.329590 16.895021 17.250502
v 39.307209 16.895023 17.306061
v 39.778389 16.895021 17.495857
v 39.332947 14.291602 17.255201
v 39.312714 14.291602 17.305437
v 39.312714 16.899363 17.305437
v 39.332947 16.899363 17.255201
v 39.405197 16.899363 17.284304
v 39.405197 14.291602 17.284304
v 39.384964 14.291602 17.334539
v 39.384964 16.899363 17.334539
v 39.719154 16.892866 17.452087
v 39.392471 16.892866 17.320496
v 39.392471 14.294682 17.320496
v 39.719154 14.294681 17.452087
v 39.779076 14.291602 17.493294
v 39.799313 14.291602 17.443056
v 39.799313 16.899363 17.443056
v 39.779076 16.899363 17.493294
v 39.706825 16.899363 17.464191
v 39.706825 14.291602 17.464191
v 39.727066 14.291602 17.413954
v 39.727066 16.899363 17.413954
v 39.307209 14.291186 17.306061
v 39.778389 14.291186 17.495857
v 39.800770 14.291186 17.440296
v 39.329590 14.291186 17.250502
v 39.800770 14.195066 17.440296
v 39.329590 14.195066 17.250502
v 39.307209 14.195067 17.306061
v 39.778389 14.195066 17.495857
v 39.778355 16.991144 17.495840
v 40.249535 16.991144 17.685637
v 40.271912 16.991144 17.630075
v 39.800732 16.991144 17.440283
v 40.271912 16.895021 17.630075
v 39.800732 16.895021 17.440283
v 39.778355 16.895023 17.495840
v 40.249535 16.895021 17.685637
v 39.804092 14.291602 17.444979
v 39.783859 14.291602 17.495218
v 39.783859 16.899363 17.495218
v 39.804092 16.899363 17.444979
v 39.876343 16.899363 17.474081
v 39.876343 14.291602 17.474081
v 39.856106 14.291602 17.524319
v 39.856106 16.899363 17.524319
v 40.191448 16.892866 17.642330
v 39.864765 16.892866 17.510736
v 39.864765 14.294682 17.510736
v 40.191448 14.294681 17.642330
v 40.246502 14.291602 17.681576
v 40.266739 14.291602 17.631338
v 40.266739 16.899363 17.631338
v 40.246502 16.899363 17.681576
v 40.174252 16.899363 17.652473
v 40.174252 14.291602 17.652473
v 40.194489 14.291602 17.602238
v 40.194489 16.899363 17.602238
v 39.778355 14.291186 17.495840
v 40.249535 14.291186 17.685637
v 40.271912 14.291186 17.630075
v 39.800732 14.291186 17.440283
v 40.271912 14.195066 17.630075
v 39.800732 14.195066 17.440283
v 39.778355 14.195067 17.495840
v 40.249535 14.195066 17.685637
vn -0.0039 1.0000 -0.0039
vn 0.3721 -0.0039 -0.9282
vn -0.3815 -0.0039 0.9243
vn -0.9255 -0.0039 -0.3788
vn 0.9271 -0.0039 0.3748
vn -0.0039 -1.0000 -0.0039
vn 0.9271 -0.0040 0.3748
vn -0.3816 -0.0039 0.9243
vt 0.327881 0.353027
vt 0.327881 0.432129
vt 0.318604 0.432129
vt 0.318604 0.353027
vt 0.315430 0.432129
vt 0.300537 0.432129
vt 0.300537 0.352539
vt 0.315430 0.352539
vt 0.270020 0.352051
vt 0.284912 0.352051
vt 0.284912 0.431641
vt 0.270020 0.431641
vt 0.269775 0.345215
vt 0.269775 0.335938
vt 0.284912 0.335938
vt 0.284912 0.345215
vt 0.288086 0.345215
vt 0.288086 0.335938
vt 0.303223 0.335938
vt 0.303223 0.345215
vt 0.287842 0.352539
vt 0.297363 0.352539
vt 0.297363 0.432129
vt 0.287842 0.432129
vt 0.858398 0.978256
vt 0.848633 0.978256
vt 0.848633 0.570801
vt 0.858398 0.570801
vt 0.812012 0.571289
vt 0.812012 0.978668
vt 0.799805 0.978668
vt 0.799805 0.571289
vt 0.845215 0.572021
vt 0.845215 0.979340
vt 0.833008 0.979340
vt 0.833008 0.572021
vt 0.827637 0.980072
vt 0.817871 0.980072
vt 0.817871 0.572754
vt 0.827637 0.572754
vt 0.377197 0.011230
vt 0.432373 0.011230
vt 0.432373 0.416992
vt 0.377197 0.416992
s 1
usemtl MASTER_Building_Details
f 1/1/1 2/2/1 3/3/1
f 3/3/1 4/4/1 1/1/1
f 3/5/2 5/6/2 6/7/2
f 6/7/2 4/8/2 3/5/2
f 1/9/3 7/10/3 8/11/3
f 8/11/3 2/12/3 1/9/3
f 1/13/4 4/14/4 6/15/4
f 6/15/4 7/16/4 1/13/4
f 3/17/5 2/18/5 8/19/5
f 8/19/5 5/20/5 3/17/5
f 7/21/6 6/22/6 5/23/6
f 5/23/6 8/24/6 7/21/6
f 9/25/4 10/26/4 11/27/4
f 11/27/4 12/28/4 9/25/4
f 9/29/2 12/30/2 13/31/2
f 13/31/2 14/32/2 9/29/2
f 11/33/3 10/34/3 15/35/3
f 15/35/3 16/36/3 11/33/3
f 15/37/5 14/38/5 13/39/5
f 13/39/5 16/40/5 15/37/5
f 17/41/3 18/42/3 19/43/3
f 19/43/3 20/44/3 17/41/3
f 21/25/5 22/26/5 23/27/7
f 23/27/7 24/28/7 21/25/5
f 21/29/8 24/30/8 25/31/8
f 25/31/8 26/32/8 21/29/8
f 23/33/2 22/34/2 27/35/2
f 27/35/2 28/36/2 23/33/2
f 27/37/4 26/38/4 25/39/4
f 25/39/4 28/40/4 27/37/4
f 29/1/1 30/2/1 31/3/1
f 31/3/1 32/4/1 29/1/1
f 31/5/2 33/6/2 34/7/2
f 34/7/2 32/8/2 31/5/2
f 29/9/3 35/10/3 36/11/3
f 36/11/3 30/12/3 29/9/3
f 29/13/4 32/14/4 34/15/4
f 34/15/4 35/16/4 29/13/4
f 31/17/5 30/18/5 36/19/5
f 36/19/5 33/20/5 31/17/5
f 35/21/6 34/22/6 33/23/6
f 33/23/6 36/24/6 35/21/6
f 37/1/1 38/2/1 39/3/1
f 39/3/1 40/4/1 37/1/1
f 39/5/2 41/6/2 42/7/2
f 42/7/2 40/8/2 39/5/2
f 37/9/3 43/10/3 44/11/3
f 44/11/3 38/12/3 37/9/3
f 37/13/4 40/14/4 42/15/4
f 42/15/4 43/16/4 37/13/4
f 39/17/7 38/18/5 44/19/5
f 44/19/5 41/20/5 39/17/7
f 43/21/6 42/22/6 41/23/6
f 41/23/6 44/24/6 43/21/6
f 45/25/4 46/26/4 47/27/4
f 47/27/4 48/28/4 45/25/4
f 45/29/2 48/30/2 49/31/2
f 49/31/2 50/32/2 45/29/2
f 47/33/8 46/34/8 51/35/8
f 51/35/8 52/36/8 47/33/8
f 51/37/5 50/38/5 49/39/5
f 49/39/5 52/40/5 51/37/5
f 53/41/3 54/42/3 55/43/3
f 55/43/3 56/44/3 53/41/3
f 57/25/7 58/26/5 59/27/5
f 59/27/5 60/28/5 57/25/7
f 57/29/3 60/30/3 61/31/3
f 61/31/8 62/32/8 57/29/8
f 59/33/2 58/34/2 63/35/2
f 63/35/2 64/36/2 59/33/2
f 63/37/4 62/38/4 61/39/4
f 61/39/4 64/40/4 63/37/4
f 65/1/1 66/2/1 67/3/1
f 67/3/1 68/4/1 65/1/1
f 67/5/2 69/6/2 70/7/2
f 70/7/2 68/8/2 67/5/2
f 65/9/3 71/10/3 72/11/3
f 72/11/3 66/12/3 65/9/3
f 65/13/4 68/14/4 70/15/4
f 70/15/4 71/16/4 65/13/4
f 67/17/5 66/18/5 72/19/5
f 72/19/5 69/20/5 67/17/5
f 71/21/6 70/22/6 69/23/6
f 69/23/6 72/24/6 71/21/6
