# Blender 3.6.18
# www.blender.org
mtllib Mesh.1084.mtl
o Bistro_Research_Exterior_Paris_Building_01_paris_buildi_245ae19
v 2.605169 25.211775 -10.707870
v 1.140929 24.995546 -11.502967
v 2.613879 25.163860 -10.723660
v 1.159347 24.947632 -11.513487
v 2.626487 25.128420 -10.746517
v 1.186004 24.912189 -11.528715
v 2.626487 25.076479 -10.746517
v 1.186004 24.860249 -11.528715
v 1.203191 24.847265 -11.534104
v 2.621347 25.063496 -10.764084
v 1.957880 24.995546 -13.007374
v 3.432001 25.211777 -12.206828
v 1.959086 24.947632 -12.986195
v 3.423290 25.163860 -12.191035
v 1.960831 24.912189 -12.955547
v 3.410683 25.128420 -12.168181
v 1.960831 24.860249 -12.955547
v 3.410683 25.076479 -12.168181
v 3.393000 25.063496 -12.163009
v 1.962873 24.847265 -12.939631
v 1.194767 24.847265 -11.544853
v 1.944833 24.847265 -12.937832
v 9.711455 25.211775 3.734440
v 9.123729 24.995544 5.293527
v 9.694621 25.163860 3.727968
v 9.110793 24.947630 5.276717
v 9.670259 25.128420 3.718597
v 9.092067 24.912189 5.252390
v 9.670259 25.076479 3.718597
v 9.092067 24.860249 5.252390
v 9.084381 24.847263 5.236099
v 9.653559 25.063494 3.726088
v 7.521865 24.995544 4.689636
v 8.113641 25.211775 3.120016
v 7.542682 24.947630 4.685549
v 8.130474 25.163860 3.126489
v 7.572804 24.912189 4.679636
v 8.154836 25.128420 3.135857
v 7.572804 24.860249 4.679636
v 8.154836 25.076477 3.135857
v 8.162375 25.063494 3.152668
v 7.588292 24.847263 4.675441
v 9.074883 24.847263 5.245912
v 7.592537 24.847263 4.693066
v 1.135714 24.995546 -11.520574
v 1.154132 24.947632 -11.531094
v 1.940272 24.995546 -13.002160
v 1.941479 24.947632 -12.980981
v 1.180790 24.912189 -11.546323
v 1.943223 24.912189 -12.950334
v 1.943223 24.860249 -12.950334
v 1.180790 24.860249 -11.546323
v 9.106998 24.995544 5.301097
v 9.094062 24.947630 5.284287
v 7.529435 24.995544 4.706367
v 7.550251 24.947630 4.702279
v 9.075338 24.912189 5.259959
v 7.580373 24.912189 4.696367
v 7.580373 24.860249 4.696367
v 9.075338 24.860249 5.259959
v 3.456738 25.211777 -12.251675
v 1.918158 24.995527 -13.105781
v 1.042517 24.995527 -11.492311
v 2.575033 25.211775 -10.653236
v 8.065837 25.211775 3.101632
v 7.429803 24.995527 4.742424
v 9.147722 24.995527 5.389562
v 9.769690 25.211775 3.756832
v 1.037321 24.995527 -11.509959
v 1.900611 24.995527 -13.100671
v 9.130948 24.995527 5.397119
v 7.437262 24.995525 4.759107
v 1.913293 25.008509 -13.117875
v 1.913151 25.041273 -13.117952
v 3.463010 25.257523 -12.263043
v 3.463010 25.224760 -12.263043
v 2.568761 25.224760 -10.641867
v 2.568761 25.257523 -10.641867
v 1.029541 25.041271 -11.490908
v 1.029579 25.008509 -11.490887
v 7.418488 25.008509 4.748892
v 7.418430 25.041271 4.749045
v 8.053718 25.257521 3.096972
v 8.053718 25.224758 3.096972
v 9.781811 25.224758 3.761494
v 9.781811 25.257523 3.761494
v 9.150884 25.041271 5.402225
v 9.150899 25.008509 5.402185
v 1.024368 25.041271 -11.508591
v 1.024407 25.008509 -11.508569
v 1.895584 25.041273 -13.112814
v 1.895726 25.008509 -13.112736
v 9.134072 25.041271 5.409763
v 9.134090 25.008509 5.409722
v 7.425919 25.041271 4.765744
v 7.425977 25.008507 4.765594
v 2.575033 25.270508 -10.653236
v 1.047100 25.054256 -11.496052
v 3.456738 25.270508 -12.251675
v 1.041927 25.054256 -11.513734
v 1.900726 25.054256 -13.095148
v 1.918293 25.054256 -13.100287
v 9.769690 25.270508 3.756832
v 9.143390 25.054255 5.385533
v 8.065837 25.270508 3.101632
v 9.126579 25.054255 5.393072
v 7.442717 25.054255 4.758238
v 7.435228 25.054255 4.741539
vn -0.4113 -0.3486 0.8422
vn -0.6997 -0.4026 0.5902
vn -0.3720 -0.4660 0.8028
vn -0.6482 -0.5225 0.5539
vn -0.4200 -0.3337 0.8440
vn -0.7003 -0.3638 0.6142
vn -0.1606 -0.4740 0.8657
vn -0.1990 -0.9249 0.3239
vn 0.1765 -0.8827 0.4355
vn 0.1208 -0.4013 -0.9079
vn 0.4822 -0.3489 -0.8036
vn 0.1132 -0.5192 -0.8471
vn 0.4708 -0.4630 -0.7510
vn 0.1285 -0.3623 -0.9232
vn 0.4817 -0.3329 -0.8107
vn 0.1054 -0.4020 -0.9095
vn 0.6382 -0.4737 -0.6069
vn 0.4595 -0.8836 -0.0903
vn 0.1368 -0.9184 -0.3713
vn -0.4736 -0.8805 -0.0196
vn -0.3236 -0.8772 -0.3548
vn 0.8919 -0.3497 0.2868
vn 0.6841 -0.4073 0.6050
vn 0.8458 -0.4682 0.2558
vn 0.6408 -0.5228 0.5622
vn 0.8982 -0.3334 0.2864
vn 0.7070 -0.3673 0.6043
vn 0.8802 -0.4733 0.0352
vn 0.6809 -0.4054 0.6100
vn 0.3478 -0.9263 0.1446
vn 0.4042 -0.8828 -0.2393
vn -0.9159 -0.4014 -0.0039
vn -0.8616 -0.3470 -0.3704
vn -0.8547 -0.5190 -0.0039
vn -0.8055 -0.4631 -0.3697
vn -0.9319 -0.3626 -0.0117
vn -0.8656 -0.3300 -0.3765
vn -0.9158 -0.4014 0.0117
vn -0.6868 -0.4695 -0.5549
vn -0.1526 -0.8800 -0.4498
vn -0.3864 -0.9172 -0.0976
vn 0.0432 -0.8832 0.4671
vn -0.3087 -0.8790 0.3633
vn -0.9359 -0.3485 -0.0509
vn -0.8871 -0.4494 -0.1055
vn -0.5496 -0.3469 -0.7600
vn -0.5662 -0.4491 -0.6912
vn -0.9403 -0.3004 -0.1600
vn -0.6427 -0.3000 -0.7050
vn -0.5482 -0.3694 -0.7504
vn -0.9271 -0.3638 -0.0900
vn 0.0749 -0.3506 0.9335
vn 0.0197 -0.4518 0.8919
vn -0.6782 -0.3489 0.6468
vn -0.6073 -0.4506 0.6543
vn -0.0274 -0.3020 0.9529
vn -0.6167 -0.3025 0.7267
vn -0.6716 -0.3731 0.6401
vn 0.0353 -0.3651 0.9303
vn 0.1447 -0.9893 -0.0196
vn 0.0898 -0.9959 -0.0117
vn 0.0431 -0.9990 -0.0117
vn 0.0430 -0.9957 0.0820
vn 0.0665 -0.9894 0.1290
vn 0.0118 -0.9993 0.0353
vn -0.0429 -0.9874 -0.1522
vn -0.0273 -0.9949 -0.0975
vn -0.0117 -0.9990 -0.0431
vn 0.0742 -0.9955 -0.0586
vn 0.1211 -0.9886 -0.0899
vn 0.0274 -0.9992 -0.0274
vn -0.0039 -1.0000 -0.0039
vn 0.0820 -0.3708 -0.9251
vn 0.1207 -0.0039 -0.9927
vn 0.4797 -0.0039 -0.8774
vn 0.4882 -0.3086 -0.8163
vn 0.4422 -0.6143 -0.6535
vn 0.4422 -0.6144 -0.6535
vn 0.1760 -0.6922 -0.7000
vn -0.4342 -0.3012 0.8489
vn -0.4890 -0.0039 0.8723
vn -0.7743 -0.0039 0.6328
vn -0.7402 -0.3721 0.5600
vn -0.4988 -0.6795 0.5381
vn -0.3249 -0.5989 0.7320
vn -0.9276 -0.3718 0.0352
vn -0.9999 -0.0040 0.0117
vn -0.9319 -0.0039 -0.3626
vn -0.8740 -0.3069 -0.3768
vn -0.7062 -0.6126 -0.3550
vn -0.7197 -0.6885 -0.0895
vn 0.9031 -0.3036 0.3037
vn 0.9335 -0.0039 0.3584
vn 0.7380 -0.0039 0.6748
vn 0.6560 -0.3732 0.6560
vn 0.6031 -0.6819 0.4139
vn 0.7681 -0.6026 0.2166
vn -0.9936 -0.0039 -0.1130
vn -0.9333 -0.3476 -0.0898
vn -0.7142 -0.6908 -0.1132
vn -0.6290 -0.0039 -0.7774
vn -0.4876 -0.6904 -0.5344
vn -0.5739 -0.3552 -0.7379
vn 0.0277 -0.0039 0.9996
vn 0.0355 -0.3513 0.9356
vn -0.0196 -0.6951 0.7187
vn -0.6872 -0.0039 0.7265
vn -0.4654 -0.6923 0.5515
vn -0.6530 -0.3558 0.6686
vn -0.4114 0.7249 0.5525
vn -0.2796 0.9254 0.2560
vn -0.5166 0.8006 0.3037
vn -0.3422 0.9085 0.2399
vn 0.0669 0.9250 -0.3740
vn -0.3961 0.9138 -0.0902
vn -0.6015 0.7981 -0.0354
vn -0.3497 0.7977 -0.4912
vn -0.2865 0.9143 -0.2865
vn 0.0196 0.9072 -0.4202
vn 0.2463 0.7233 -0.6451
vn -0.0197 0.7984 -0.6018
vn 0.6023 0.7283 0.3268
vn 0.2885 0.9287 0.2332
vn 0.3757 0.8029 0.4628
vn 0.2872 0.9087 0.3029
vn -0.3814 0.9240 -0.0275
vn -0.0354 0.9169 0.3975
vn 0.0513 0.8013 0.5961
vn -0.4446 0.7988 0.4053
vn -0.2475 0.9152 0.3181
vn -0.4201 0.9070 0.0275
vn -0.6691 0.7239 -0.1683
vn -0.5944 0.7991 0.0905
vn -0.6691 0.7239 -0.1682
vt -1.505859 0.712891
vt -1.505859 0.095215
vt -1.487305 0.711426
vt -1.487305 0.098145
vt -1.470703 0.710449
vt -1.470703 0.103516
vt -1.452148 0.709229
vt -1.452148 0.103027
vt -1.445312 0.107910
vt -1.445312 0.704346
vt -2.468750 0.097656
vt -2.468750 0.718994
vt -2.488281 0.101074
vt -2.488281 0.717529
vt -2.503906 0.106445
vt -2.503906 0.716797
vt -2.523438 0.105957
vt -2.523438 0.715576
vt -2.531250 0.710693
vt -2.531250 0.109375
vt 2.044922 0.703369
vt 2.044922 0.108398
vt 2.080078 0.113281
vt 2.080078 0.698486
vt 2.699219 0.108887
vt 2.705078 0.694580
vt 2.703125 0.110840
vt 2.708984 0.690918
vt -1.768555 -0.013672
vt -1.761719 0.003418
vt -1.767578 0.006348
vt -1.774414 -0.011719
vt -2.388672 0.009277
vt -1.777344 -0.028320
vt -2.380859 -0.008789
vt -2.394531 0.005859
vt -2.386719 -0.010742
vt -1.784180 -0.026367
vt -2.371094 -0.023438
vt -2.378906 -0.025391
vt -1.778320 -0.046875
vt -2.371094 -0.042969
vt -2.376953 -0.043945
vt -2.375000 -0.051758
vt -2.367188 -0.048828
vt -1.784180 -0.045898
vt -1.786133 -0.051758
vt -1.781250 -0.054688
vt -2.281250 0.716309
vt -2.281250 0.207031
vt -2.263672 0.715820
vt -2.263672 0.181641
vt -1.643555 0.208984
vt -1.643555 0.715332
vt -1.661133 0.184082
vt -1.661133 0.714600
vt -1.701172 0.129883
vt -1.683594 0.154785
vt -1.688477 0.157227
vt -1.706055 0.132324
vt -2.234375 0.159180
vt -2.214844 0.134766
vt -2.238281 0.155762
vt -2.218750 0.131836
vt -2.257812 0.178711
vt -2.244141 0.176758
vt -2.244141 0.717529
vt -2.257812 0.716309
vt -1.666016 0.715088
vt -1.678711 0.716064
vt -1.678711 0.179199
vt -1.666016 0.181152
vt -1.681641 0.162109
vt -1.686523 0.173828
vt -1.687500 0.162598
vt -2.238281 0.173828
vt -2.236328 0.163086
vt -2.242188 0.161621
vt -1.686523 0.717529
vt -1.686523 0.186523
vt -2.238281 0.718018
vt -1.690430 0.182617
vt -2.234375 0.180176
vt -2.238281 0.184082
s 1
usemtl MASTER_Concrete_Plaster1_BLENDSHADER
f 1/1/1 2/2/2 3/3/3
f 2/2/2 4/4/4 3/3/3
f 5/5/5 3/3/3 4/4/4
f 6/6/6 5/5/5 4/4/4
f 5/5/5 6/6/6 7/7/7
f 6/6/6 8/8/2 7/7/7
f 8/8/2 9/9/8 7/7/7
f 9/9/8 10/10/9 7/7/7
f 11/11/10 12/12/11 13/13/12
f 12/12/11 14/14/13 13/13/12
f 15/15/14 13/13/12 14/14/13
f 16/16/15 15/15/14 14/14/13
f 15/15/14 16/16/15 17/17/16
f 16/16/15 18/18/17 17/17/16
f 18/18/17 19/19/18 17/17/16
f 19/19/18 20/20/19 17/17/16
f 18/21/17 7/22/7 10/23/9
f 19/24/18 18/21/17 10/23/9
f 10/23/9 9/25/8 19/24/18
f 9/25/8 20/26/19 19/24/18
f 9/25/8 21/27/20 20/26/19
f 21/27/20 22/28/21 20/26/19
f 23/1/22 24/2/23 25/3/24
f 24/2/23 26/4/25 25/3/24
f 27/5/26 25/3/24 26/4/25
f 28/6/27 27/5/26 26/4/25
f 27/5/26 28/6/27 29/7/28
f 28/6/27 30/8/29 29/7/28
f 30/8/29 31/9/30 29/7/28
f 31/9/30 32/10/31 29/7/28
f 33/11/32 34/12/33 35/13/34
f 34/12/33 36/14/35 35/13/34
f 37/15/36 35/13/34 36/14/35
f 38/16/37 37/15/36 36/14/35
f 37/15/36 38/16/37 39/17/38
f 38/16/37 40/18/39 39/17/38
f 40/18/39 41/19/40 39/17/38
f 41/19/40 42/20/41 39/17/38
f 40/21/39 29/22/28 32/23/31
f 41/24/40 40/21/39 32/23/31
f 32/23/31 31/25/30 41/24/40
f 31/25/30 42/26/41 41/24/40
f 31/25/30 43/27/42 42/26/41
f 43/27/42 44/28/43 42/26/41
f 4/29/4 2/30/2 45/31/44
f 46/32/45 4/29/4 45/31/44
f 45/31/44 47/33/46 46/32/45
f 4/29/4 46/32/45 6/34/6
f 47/33/46 48/35/47 46/32/45
f 48/35/47 47/33/46 11/36/10
f 13/37/12 48/35/47 11/36/10
f 46/32/45 49/38/48 6/34/6
f 50/39/49 48/35/47 13/37/12
f 48/35/47 50/39/49 46/32/45
f 50/39/49 49/38/48 46/32/45
f 15/40/14 50/39/49 13/37/12
f 6/34/6 49/38/48 8/41/2
f 50/39/49 15/40/14 51/42/50
f 15/40/14 17/43/16 51/42/50
f 17/43/16 20/44/19 51/42/50
f 20/44/19 22/45/21 51/42/50
f 49/38/48 50/39/49 52/46/51
f 50/39/49 51/42/50 52/46/51
f 51/42/50 22/45/21 52/46/51
f 49/38/48 52/46/51 8/41/2
f 22/45/21 21/47/20 52/46/51
f 52/46/51 21/47/20 8/41/2
f 21/47/20 9/48/8 8/41/2
f 26/29/25 24/30/23 53/31/52
f 54/32/53 26/29/25 53/31/52
f 53/31/52 55/33/54 54/32/53
f 26/29/25 54/32/53 28/34/27
f 55/33/54 56/35/55 54/32/53
f 56/35/55 55/33/54 33/36/32
f 35/37/34 56/35/55 33/36/32
f 54/32/53 57/38/56 28/34/27
f 58/39/57 56/35/55 35/37/34
f 56/35/55 58/39/57 54/32/53
f 58/39/57 57/38/56 54/32/53
f 37/40/36 58/39/57 35/37/34
f 28/34/27 57/38/56 30/41/29
f 58/39/57 37/40/36 59/42/58
f 37/40/36 39/43/38 59/42/58
f 39/43/38 42/44/41 59/42/58
f 42/44/41 44/45/43 59/42/58
f 57/38/56 58/39/57 60/46/59
f 58/39/57 59/42/58 60/46/59
f 59/42/58 44/45/43 60/46/59
f 57/38/56 60/46/59 30/41/29
f 44/45/43 43/47/42 60/46/59
f 60/46/59 43/47/42 30/41/29
f 43/47/42 31/48/30 30/41/29
usemtl MASTER_Roofing_Shingle_Grey
f 12/49/60 11/50/61 61/51/60
f 11/50/61 62/52/62 61/51/60
f 2/53/63 1/54/64 63/55/65
f 1/54/64 64/56/64 63/55/65
f 34/49/66 33/50/67 65/51/66
f 33/50/67 66/52/68 65/51/66
f 24/53/69 23/54/70 67/55/71
f 23/54/70 68/56/70 67/55/71
f 2/57/63 63/58/65 69/59/72
f 45/60/72 2/57/63 69/59/72
f 45/60/72 69/59/72 70/61/72
f 47/62/72 45/60/72 70/61/72
f 47/62/72 70/61/72 62/63/62
f 11/64/61 47/62/72 62/63/62
f 24/57/69 67/58/71 71/59/72
f 53/60/72 24/57/69 71/59/72
f 53/60/72 71/59/72 72/61/72
f 55/62/72 53/60/72 72/61/72
f 55/62/72 72/61/72 66/63/68
f 33/64/67 55/62/72 66/63/68
f 73/65/73 74/66/74 75/67/75
f 76/68/76 73/65/73 75/67/75
f 76/68/76 61/51/77 73/65/73
f 61/51/78 62/52/79 73/65/73
f 77/69/80 78/70/81 79/71/82
f 80/72/83 77/69/80 79/71/82
f 80/72/83 63/55/84 77/69/80
f 63/55/84 64/56/85 77/69/80
f 81/65/86 82/66/87 83/67/88
f 84/68/89 81/65/86 83/67/88
f 84/68/89 65/51/90 81/65/86
f 65/51/90 66/52/91 81/65/86
f 85/69/92 86/70/93 87/71/94
f 88/72/95 85/69/92 87/71/94
f 88/72/95 67/55/96 85/69/92
f 67/55/96 68/56/97 85/69/92
f 80/73/83 79/71/82 89/74/98
f 90/75/99 80/73/83 89/74/98
f 80/73/83 90/75/99 63/58/84
f 90/75/99 69/59/100 63/58/84
f 90/75/99 89/74/98 91/76/101
f 70/61/102 69/59/100 90/75/99
f 92/77/103 90/75/99 91/76/101
f 92/77/103 70/61/102 90/75/99
f 92/77/103 91/76/101 74/66/74
f 73/78/73 92/77/103 74/66/74
f 92/77/103 73/78/73 70/61/102
f 73/78/73 62/63/79 70/61/102
f 88/73/95 87/71/94 93/74/104
f 94/75/105 88/73/95 93/74/104
f 88/73/95 94/75/105 67/58/96
f 94/75/105 71/59/106 67/58/96
f 94/75/105 93/74/104 95/76/107
f 72/61/108 71/59/106 94/75/105
f 96/77/109 94/75/105 95/76/107
f 96/77/109 72/61/108 94/75/105
f 96/77/109 95/76/107 82/66/87
f 81/78/86 96/77/109 82/66/87
f 96/77/109 81/78/86 72/61/108
f 81/78/86 66/63/91 72/61/108
f 78/70/110 97/79/111 79/71/112
f 97/79/111 98/80/113 79/71/112
f 97/79/111 99/81/114 98/80/113
f 98/80/113 100/82/115 79/71/112
f 100/82/115 89/74/116 79/71/112
f 89/74/116 100/82/115 91/76/117
f 101/83/118 100/82/115 98/80/113
f 100/82/115 101/83/118 91/76/117
f 99/81/114 102/84/119 98/80/113
f 102/84/119 101/83/118 98/80/113
f 101/83/118 102/84/119 91/76/117
f 102/84/119 99/81/114 75/67/120
f 102/84/119 74/66/121 91/76/117
f 74/66/121 102/84/119 75/67/120
f 86/70/122 103/79/123 87/71/124
f 103/79/123 104/80/125 87/71/124
f 103/79/123 105/81/126 104/80/125
f 104/80/125 106/82/127 87/71/124
f 106/82/127 93/74/128 87/71/124
f 93/74/128 106/82/127 95/76/129
f 107/83/130 106/82/127 104/80/125
f 106/82/127 107/83/130 95/76/129
f 105/81/126 108/84/131 104/80/125
f 108/84/131 107/83/130 104/80/125
f 107/83/130 108/84/131 95/76/129
f 108/84/131 105/81/126 83/67/132
f 108/84/131 82/66/133 95/76/129
f 82/66/133 108/84/131 83/67/134
