# Blender 3.6.18
# www.blender.org
mtllib Mesh.737.mtl
o Bistro_Research_Exterior_paris_building_05_5061
v 17.664948 16.990107 -36.213856
v 18.166550 16.990107 -36.294022
v 18.157095 16.990107 -36.353168
v 17.655495 16.990107 -36.273006
v 18.157095 16.893988 -36.353168
v 17.655495 16.893988 -36.273006
v 17.664948 16.893988 -36.213856
v 18.166550 16.893988 -36.294022
v 17.660795 14.290565 -36.270710
v 17.669342 14.290566 -36.217228
v 17.669342 16.898327 -36.217228
v 17.660795 16.898327 -36.270710
v 17.737707 16.898327 -36.283001
v 17.737707 14.290565 -36.283001
v 17.746254 14.290566 -36.229523
v 17.746254 16.898327 -36.229523
v 17.732342 16.891829 -36.262199
v 18.080120 16.891829 -36.317783
v 18.080120 14.293645 -36.317783
v 17.732342 14.293645 -36.262199
v 18.157450 14.290565 -36.295235
v 18.148903 14.290566 -36.348717
v 18.148903 16.898327 -36.348717
v 18.157450 16.898327 -36.295235
v 18.080538 16.898327 -36.282944
v 18.080538 14.290565 -36.282944
v 18.071991 14.290566 -36.336422
v 18.071991 16.898327 -36.336422
v 17.664948 14.290150 -36.213856
v 18.166550 14.290150 -36.294022
v 18.157095 14.290150 -36.353168
v 17.655495 14.290150 -36.273006
v 18.157095 14.194030 -36.353168
v 17.655495 14.194030 -36.273006
v 17.664948 14.194030 -36.213856
v 18.166550 14.194030 -36.294022
v 18.158884 14.460618 -36.304749
v 18.152708 14.460618 -36.343388
v 18.152706 14.589516 -36.343391
v 18.158882 14.589516 -36.304749
v 18.148884 14.589516 -36.342785
v 18.155062 14.589516 -36.304138
v 18.155062 14.460618 -36.304134
v 18.148886 14.460618 -36.342785
v 18.206333 14.460618 -36.266365
v 18.174639 14.460618 -36.289322
v 18.174639 14.589516 -36.289322
v 18.206331 14.589516 -36.266365
v 18.172369 14.589516 -36.286186
v 18.204062 14.589516 -36.263233
v 18.204062 14.460618 -36.263233
v 18.172371 14.460618 -36.286190
v 17.921337 16.990107 -35.852829
v 18.219339 16.990107 -36.264202
v 18.170832 16.990107 -36.299343
v 17.872829 16.990107 -35.887970
v 18.170832 16.893988 -36.299343
v 17.872829 16.893988 -35.887970
v 17.921337 16.893988 -35.852829
v 18.219339 16.893988 -36.264202
v 17.878201 14.290565 -35.890091
v 17.922062 14.290566 -35.858318
v 17.922062 16.898327 -35.858318
v 17.878201 16.898327 -35.890091
v 17.923895 16.898327 -35.953175
v 17.923895 14.290565 -35.953171
v 17.967754 14.290566 -35.921402
v 17.967754 16.898327 -35.921402
v 18.156517 16.891829 -36.208954
v 18.156517 14.293645 -36.208954
v 17.949902 14.293645 -35.923740
v 17.949902 16.891829 -35.923740
v 18.212048 14.290565 -36.258621
v 18.168186 14.290566 -36.290398
v 18.168186 16.898327 -36.290398
v 18.212046 16.898327 -36.258621
v 18.166353 16.898327 -36.195545
v 18.166353 14.290565 -36.195545
v 18.122494 14.290566 -36.227318
v 18.122494 16.898327 -36.227318
v 17.921337 14.290150 -35.852829
v 18.219339 14.290150 -36.264202
v 18.170832 14.290150 -36.299343
v 17.872829 14.290150 -35.887970
v 18.170832 14.194030 -36.299343
v 17.872829 14.194030 -35.887970
v 17.921337 14.194030 -35.852829
v 18.219339 14.194030 -36.264202
v 18.206333 16.661915 -36.266365
v 18.174639 16.661915 -36.289322
v 18.174639 16.790812 -36.289322
v 18.206331 16.790812 -36.266365
v 18.172369 16.790812 -36.286186
v 18.204062 16.790812 -36.263233
v 18.204062 16.661915 -36.263233
v 18.172371 16.661915 -36.286190
v 18.158884 16.661915 -36.304749
v 18.152708 16.661915 -36.343388
v 18.152706 16.790812 -36.343391
v 18.158882 16.790812 -36.304749
v 18.148884 16.790812 -36.342785
v 18.155062 16.790812 -36.304138
v 18.155062 16.661915 -36.304134
v 18.148886 16.661915 -36.342785
v 18.153290 14.460976 -36.294563
v 18.158310 14.460976 -36.286396
v 18.158310 14.589179 -36.286396
v 18.153290 14.589179 -36.294563
v 18.155512 14.460976 -36.303890
v 18.155512 14.589179 -36.303890
v 18.163681 14.460976 -36.308910
v 18.163681 14.589179 -36.308910
v 18.173004 14.460976 -36.306686
v 18.173004 14.589179 -36.306686
v 18.178026 14.460976 -36.298519
v 18.178026 14.589179 -36.298519
v 18.175798 14.460976 -36.289192
v 18.175798 14.589179 -36.289192
v 18.167633 14.460976 -36.284172
v 18.167633 14.589179 -36.284172
v 18.153290 16.662273 -36.294563
v 18.158310 16.662273 -36.286396
v 18.158310 16.790478 -36.286396
v 18.153290 16.790478 -36.294563
v 18.155512 16.662273 -36.303890
v 18.155512 16.790478 -36.303890
v 18.163681 16.662273 -36.308910
v 18.163681 16.790478 -36.308910
v 18.173004 16.662273 -36.306686
v 18.173004 16.790478 -36.306686
v 18.178026 16.662273 -36.298519
v 18.178026 16.790478 -36.298519
v 18.175798 16.662273 -36.289192
v 18.175798 16.790478 -36.289192
v 18.167633 16.662273 -36.284172
v 18.167633 16.790478 -36.284172
v 18.165657 14.460976 -36.296543
v 18.165657 14.589179 -36.296543
v 18.165657 16.662273 -36.296543
v 18.165657 16.790478 -36.296543
vn -0.0039 1.0000 -0.0039
vn -0.1600 -0.0039 -0.9871
vn 0.1535 -0.0039 0.9881
vn -0.9883 -0.0039 0.1524
vn -0.9883 -0.0039 0.1523
vn 0.9869 -0.0040 -0.1612
vn 0.9869 -0.0039 -0.1612
vn -0.0039 -1.0000 -0.0039
vn 0.1536 -0.0039 0.9881
vn 0.5842 -0.0039 -0.8116
vn 0.8089 -0.0039 0.5879
vn 0.8089 -0.0040 0.5879
vn -0.8079 -0.0039 -0.5893
vn -0.5931 -0.0039 0.8051
vn -0.5930 -0.0039 0.8052
vn -0.5931 -0.0039 0.8052
vn 0.1535 -0.0040 0.9881
vt 0.327881 0.353027
vt 0.327881 0.432129
vt 0.318604 0.432129
vt 0.318604 0.353027
vt 0.315430 0.432129
vt 0.300537 0.432129
vt 0.300537 0.352539
vt 0.315430 0.352539
vt 0.270020 0.352051
vt 0.284912 0.352051
vt 0.284912 0.431641
vt 0.270020 0.431641
vt 0.269775 0.345215
vt 0.269775 0.335938
vt 0.284912 0.335938
vt 0.284912 0.345215
vt 0.288086 0.345215
vt 0.288086 0.335938
vt 0.303223 0.335938
vt 0.303223 0.345215
vt 0.287842 0.352539
vt 0.297363 0.352539
vt 0.297363 0.432129
vt 0.287842 0.432129
vt 0.858398 0.978256
vt 0.848633 0.978256
vt 0.848633 0.570801
vt 0.858398 0.570801
vt 0.812012 0.571289
vt 0.812012 0.978668
vt 0.799805 0.978668
vt 0.799805 0.571289
vt 0.845215 0.572021
vt 0.845215 0.979340
vt 0.833008 0.979340
vt 0.833008 0.572021
vt 0.827637 0.980072
vt 0.817871 0.980072
vt 0.817871 0.572754
vt 0.827637 0.572754
vt 0.377197 0.011230
vt 0.432373 0.011230
vt 0.432373 0.416992
vt 0.377197 0.416992
vt 0.360107 0.465332
vt 0.354004 0.465332
vt 0.354004 0.445312
vt 0.360107 0.445312
vt 0.354004 0.442871
vt 0.360107 0.442871
vt 0.360107 0.443359
vt 0.354004 0.443359
vt 0.362061 0.445312
vt 0.362061 0.465332
vt 0.361328 0.465332
vt 0.361328 0.445312
vt 0.360107 0.467285
vt 0.354004 0.467285
vt 0.354004 0.466797
vt 0.360107 0.466797
vt 0.352051 0.465332
vt 0.352051 0.445312
vt 0.352783 0.445312
vt 0.352783 0.465332
vt 0.327637 0.464355
vt 0.326172 0.464355
vt 0.326172 0.443848
vt 0.327637 0.443848
vt 0.329102 0.464355
vt 0.329102 0.443848
vt 0.330566 0.464355
vt 0.330566 0.443848
vt 0.332031 0.464355
vt 0.332031 0.443848
vt 0.333496 0.464355
vt 0.333496 0.443848
vt 0.334473 0.464355
vt 0.334473 0.443848
vt 0.335938 0.464355
vt 0.335938 0.443848
vt 0.337402 0.464355
vt 0.337402 0.443848
vt 0.326172 0.466797
vt 0.327393 0.465820
vt 0.328125 0.467773
vt 0.326172 0.468262
vt 0.328857 0.465820
vt 0.327148 0.469238
vt 0.329834 0.466797
vt 0.328857 0.469238
vt 0.329834 0.468262
vt 0.333252 0.465820
vt 0.334717 0.465820
vt 0.333984 0.467773
vt 0.332275 0.466797
vt 0.335938 0.466797
vt 0.332275 0.468262
vt 0.335938 0.468750
vt 0.333252 0.469727
vt 0.334717 0.469727
s 1
usemtl MASTER_Building_Details
f 1/1/1 2/2/1 3/3/1
f 3/3/1 4/4/1 1/1/1
f 3/5/2 5/6/2 6/7/2
f 6/7/2 4/8/2 3/5/2
f 1/9/3 7/10/3 8/11/3
f 8/11/3 2/12/3 1/9/3
f 1/13/4 4/14/5 6/15/4
f 6/15/4 7/16/5 1/13/4
f 3/17/6 2/18/7 8/19/7
f 8/19/7 5/20/7 3/17/6
f 7/21/8 6/22/8 5/23/8
f 5/23/8 8/24/8 7/21/8
f 9/25/4 10/26/4 11/27/4
f 11/27/4 12/28/5 9/25/4
f 9/29/2 12/30/2 13/31/2
f 13/31/2 14/32/2 9/29/2
f 11/33/3 10/34/3 15/35/3
f 15/35/3 16/36/3 11/33/3
f 15/37/7 14/38/7 13/39/7
f 13/39/7 16/40/7 15/37/7
f 17/41/2 18/42/2 19/43/2
f 19/43/2 20/44/2 17/41/2
f 21/25/7 22/26/7 23/27/7
f 23/27/7 24/28/7 21/25/7
f 21/29/3 24/30/3 25/31/3
f 25/31/3 26/32/3 21/29/3
f 23/33/2 22/34/2 27/35/2
f 27/35/2 28/36/2 23/33/2
f 27/37/4 26/38/4 25/39/4
f 25/39/4 28/40/5 27/37/4
f 29/1/1 30/2/1 31/3/1
f 31/3/1 32/4/1 29/1/1
f 31/5/2 33/6/2 34/7/2
f 34/7/2 32/8/2 31/5/2
f 29/9/3 35/10/3 36/11/3
f 36/11/3 30/12/3 29/9/3
f 29/13/5 32/14/5 34/15/4
f 34/15/4 35/16/5 29/13/5
f 31/17/6 30/18/7 36/19/7
f 36/19/7 33/20/7 31/17/6
f 35/21/8 34/22/8 33/23/8
f 33/23/8 36/24/8 35/21/8
f 37/45/7 38/46/6 39/47/6
f 39/47/6 40/48/7 37/45/7
f 41/49/1 42/50/1 40/51/1
f 40/51/1 39/52/1 41/49/1
f 42/53/9 43/54/3 37/55/3
f 37/55/3 40/56/3 42/53/9
f 43/57/8 44/58/8 38/59/8
f 38/59/8 37/60/8 43/57/8
f 44/61/2 41/62/2 39/63/2
f 39/63/2 38/64/2 44/61/2
f 45/45/10 46/46/10 47/47/10
f 47/47/10 48/48/10 45/45/10
f 49/49/1 50/50/1 48/51/1
f 48/51/1 47/52/1 49/49/1
f 50/53/11 51/54/11 45/55/12
f 45/55/12 48/56/11 50/53/11
f 51/57/8 52/58/8 46/59/8
f 46/59/8 45/60/8 51/57/8
f 52/61/13 49/62/13 47/63/13
f 47/63/13 46/64/13 52/61/13
f 53/1/1 54/2/1 55/3/1
f 55/3/1 56/4/1 53/1/1
f 55/5/13 57/6/13 58/7/13
f 58/7/13 56/8/13 55/5/13
f 53/9/12 59/10/12 60/11/12
f 60/11/12 54/12/12 53/9/12
f 53/13/14 56/14/14 58/15/15
f 58/15/15 59/16/16 53/13/14
f 55/17/10 54/18/10 60/19/10
f 60/19/10 57/20/10 55/17/10
f 59/21/8 58/22/8 57/23/8
f 57/23/8 60/24/8 59/21/8
f 61/25/15 62/26/15 63/27/15
f 63/27/15 64/28/15 61/25/15
f 61/29/13 64/30/13 65/31/13
f 65/31/13 66/32/13 61/29/13
f 63/33/11 62/34/11 67/35/11
f 67/35/11 68/36/11 63/33/11
f 67/37/10 66/38/10 65/39/10
f 65/39/10 68/40/10 67/37/10
f 69/41/13 70/44/13 71/43/13
f 71/43/13 72/42/13 69/41/13
f 73/25/10 74/26/10 75/27/10
f 75/27/10 76/28/10 73/25/10
f 73/29/12 76/30/12 77/31/12
f 77/31/12 78/32/12 73/29/12
f 75/33/13 74/34/13 79/35/13
f 79/35/13 80/36/13 75/33/13
f 79/37/15 78/38/15 77/39/15
f 77/39/15 80/40/15 79/37/15
f 81/1/1 82/2/1 83/3/1
f 83/3/1 84/4/1 81/1/1
f 83/5/13 85/6/13 86/7/13
f 86/7/13 84/8/13 83/5/13
f 81/9/12 87/10/12 88/11/12
f 88/11/12 82/12/12 81/9/12
f 81/13/15 84/14/15 86/15/15
f 86/15/15 87/16/16 81/13/15
f 83/17/10 82/18/10 88/19/10
f 88/19/10 85/20/10 83/17/10
f 87/21/8 86/22/8 85/23/8
f 85/23/8 88/24/8 87/21/8
f 89/45/10 90/46/10 91/47/10
f 91/47/10 92/48/10 89/45/10
f 93/49/1 94/50/1 92/51/1
f 92/51/1 91/52/1 93/49/1
f 94/53/11 95/54/11 89/55/12
f 89/55/12 92/56/11 94/53/11
f 95/57/8 96/58/8 90/59/8
f 90/59/8 89/60/8 95/57/8
f 96/61/13 93/62/13 91/63/13
f 91/63/13 90/64/13 96/61/13
f 97/45/7 98/46/7 99/47/6
f 99/47/6 100/48/7 97/45/7
f 101/49/1 102/50/1 100/51/1
f 100/51/1 99/52/1 101/49/1
f 102/53/3 103/54/3 97/55/3
f 97/55/3 100/56/17 102/53/3
f 103/57/8 104/58/8 98/59/8
f 98/59/8 97/60/8 103/57/8
f 104/61/2 101/62/2 99/63/2
f 99/63/2 98/64/2 104/61/2
f 105/65/4 106/66/16 107/67/16
f 107/67/16 108/68/5 105/65/4
f 109/69/13 105/65/4 108/68/5
f 108/68/5 110/70/13 109/69/13
f 111/71/2 109/69/13 110/70/13
f 110/70/13 112/72/2 111/71/2
f 113/73/10 111/71/2 112/72/2
f 112/72/2 114/74/10 113/73/10
f 115/75/7 113/73/10 114/74/10
f 114/74/10 116/76/7 115/75/7
f 117/77/11 115/75/7 116/76/7
f 116/76/7 118/78/12 117/77/11
f 119/79/17 117/77/11 118/78/12
f 118/78/12 120/80/3 119/79/17
f 106/81/16 119/79/17 120/80/3
f 120/80/3 107/82/16 106/81/16
f 121/65/4 122/66/16 123/67/14
f 123/67/14 124/68/4 121/65/4
f 125/69/13 121/65/4 124/68/4
f 124/68/4 126/70/13 125/69/13
f 127/71/2 125/69/13 126/70/13
f 126/70/13 128/72/2 127/71/2
f 129/73/10 127/71/2 128/72/2
f 128/72/2 130/74/10 129/73/10
f 131/75/7 129/73/10 130/74/10
f 130/74/10 132/76/7 131/75/7
f 133/77/11 131/75/7 132/76/7
f 132/76/7 134/78/12 133/77/11
f 135/79/3 133/77/11 134/78/12
f 134/78/12 136/80/17 135/79/3
f 122/81/16 135/79/3 136/80/17
f 136/80/17 123/82/14 122/81/16
f 111/83/8 113/84/8 137/85/8
f 109/86/8 111/83/8 137/85/8
f 113/84/8 115/87/8 137/85/8
f 105/88/8 109/86/8 137/85/8
f 115/87/8 117/89/8 137/85/8
f 106/90/8 105/88/8 137/85/8
f 117/89/8 119/91/8 137/85/8
f 119/91/8 106/90/8 137/85/8
f 114/92/1 112/93/1 138/94/1
f 116/95/1 114/92/1 138/94/1
f 112/93/1 110/96/1 138/94/1
f 118/97/1 116/95/1 138/94/1
f 110/96/1 108/98/1 138/94/1
f 120/99/1 118/97/1 138/94/1
f 108/98/1 107/100/1 138/94/1
f 107/100/1 120/99/1 138/94/1
f 127/83/8 129/84/8 139/85/8
f 125/86/8 127/83/8 139/85/8
f 129/84/8 131/87/8 139/85/8
f 121/88/8 125/86/8 139/85/8
f 131/87/8 133/89/8 139/85/8
f 122/90/8 121/88/8 139/85/8
f 133/89/8 135/91/8 139/85/8
f 135/91/8 122/90/8 139/85/8
f 130/92/1 128/93/1 140/94/1
f 132/95/1 130/92/1 140/94/1
f 128/93/1 126/96/1 140/94/1
f 134/97/1 132/95/1 140/94/1
f 126/96/1 124/98/1 140/94/1
f 136/99/1 134/97/1 140/94/1
f 124/98/1 123/100/1 140/94/1
f 123/100/1 136/99/1 140/94/1
