# Blender 3.6.18
# www.blender.org
mtllib Mesh.749.mtl
o Bistro_Research_Exterior_paris_building_05_5037
v 22.066668 22.435297 -42.537422
v 21.655035 22.435297 -42.835068
v 21.619936 22.435297 -42.786530
v 22.031567 22.435297 -42.488884
v 21.619936 22.339176 -42.786530
v 22.031567 22.339176 -42.488884
v 22.066668 22.339178 -42.537422
v 21.655035 22.339176 -42.835068
v 22.029440 19.735756 -42.494255
v 22.061174 19.735756 -42.538147
v 22.061174 22.343517 -42.538147
v 22.029440 22.343517 -42.494255
v 21.966324 22.343517 -42.539898
v 21.966324 19.735756 -42.539898
v 21.998058 19.735756 -42.583782
v 21.998058 22.343517 -42.583782
v 21.984814 22.337021 -42.550823
v 21.699417 22.337021 -42.757195
v 21.699417 19.738836 -42.757191
v 21.984814 19.738834 -42.550823
v 21.660616 19.735756 -42.827778
v 21.628881 19.735756 -42.783894
v 21.628881 22.343517 -42.783894
v 21.660618 22.343517 -42.827778
v 21.723736 22.343517 -42.782143
v 21.723736 19.735756 -42.782143
v 21.691999 19.735756 -42.738251
v 21.691999 22.343517 -42.738251
v 22.066668 19.735340 -42.537422
v 21.655035 19.735340 -42.835068
v 21.619936 19.735340 -42.786530
v 22.031567 19.735340 -42.488884
v 21.619936 19.639219 -42.786530
v 22.031567 19.639219 -42.488884
v 22.066668 19.639221 -42.537422
v 21.655035 19.639219 -42.835068
v 21.652884 19.905809 -42.822063
v 21.629951 19.905809 -42.790344
v 21.629953 20.034706 -42.790348
v 21.652884 20.034706 -42.822060
v 21.633089 20.034706 -42.788078
v 21.656023 20.034706 -42.819794
v 21.656021 19.905809 -42.819794
v 21.633087 19.905809 -42.788078
v 21.646420 19.905809 -42.882748
v 21.652630 19.905809 -42.844112
v 21.652632 20.034706 -42.844112
v 21.646420 20.034706 -42.882748
v 21.656452 20.034706 -42.844727
v 21.650240 20.034706 -42.883362
v 21.650242 19.905809 -42.883362
v 21.656450 19.905809 -42.844727
v 22.140274 22.435297 -42.974068
v 21.638742 22.435297 -42.893467
v 21.648247 22.435297 -42.834332
v 22.149780 22.435297 -42.914932
v 21.648247 22.339176 -42.834332
v 22.149780 22.339176 -42.914932
v 22.140274 22.339178 -42.974068
v 21.638742 22.339176 -42.893467
v 22.144480 19.735756 -42.917225
v 22.135881 19.735756 -42.970695
v 22.135881 22.343517 -42.970695
v 22.144480 22.343517 -42.917225
v 22.067575 22.343517 -42.904861
v 22.067575 19.735756 -42.904861
v 22.058981 19.735756 -42.958340
v 22.058981 22.343517 -42.958340
v 21.722233 22.337021 -42.888184
v 22.069963 22.337021 -42.944069
v 22.069963 19.738836 -42.944069
v 21.722233 19.738834 -42.888187
v 21.647844 19.735756 -42.892265
v 21.656437 19.735756 -42.838787
v 21.656437 22.343517 -42.838787
v 21.647844 22.343517 -42.892265
v 21.724745 22.343517 -42.904625
v 21.724745 19.735756 -42.904625
v 21.733339 19.735756 -42.851151
v 21.733339 22.343517 -42.851151
v 22.140274 19.735340 -42.974068
v 21.638742 19.735340 -42.893467
v 21.648247 19.735340 -42.834332
v 22.149780 19.735340 -42.914932
v 21.648247 19.639219 -42.834332
v 22.149780 19.639219 -42.914932
v 22.140274 19.639221 -42.974068
v 21.638742 19.639219 -42.893467
v 21.646420 22.107107 -42.882748
v 21.652630 22.107107 -42.844112
v 21.652632 22.236004 -42.844112
v 21.646420 22.236004 -42.882748
v 21.656452 22.236004 -42.844727
v 21.650240 22.236004 -42.883362
v 21.650242 22.107107 -42.883362
v 21.656450 22.107107 -42.844727
v 21.652884 22.107107 -42.822063
v 21.629951 22.107107 -42.790344
v 21.629953 22.236004 -42.790348
v 21.652884 22.236004 -42.822060
v 21.633089 22.236004 -42.788078
v 21.656023 22.236004 -42.819794
v 21.656021 22.107107 -42.819794
v 21.633087 22.107107 -42.788078
v 21.664038 19.906164 -42.825314
v 21.666254 19.906164 -42.834644
v 21.666254 20.034370 -42.834644
v 21.664038 20.034370 -42.825314
v 21.655874 19.906164 -42.820286
v 21.655874 20.034370 -42.820286
v 21.646545 19.906164 -42.822502
v 21.646545 20.034370 -42.822502
v 21.641521 19.906164 -42.830666
v 21.641521 20.034370 -42.830666
v 21.643738 19.906164 -42.839993
v 21.643738 20.034370 -42.839993
v 21.651899 19.906164 -42.845020
v 21.651899 20.034370 -42.845020
v 21.661228 19.906164 -42.842804
v 21.661226 20.034370 -42.842804
v 21.664038 22.107466 -42.825314
v 21.666254 22.107466 -42.834644
v 21.666254 22.235668 -42.834644
v 21.664038 22.235668 -42.825314
v 21.655874 22.107466 -42.820286
v 21.655874 22.235668 -42.820286
v 21.646545 22.107466 -42.822502
v 21.646545 22.235668 -42.822502
v 21.641521 22.107466 -42.830666
v 21.641521 22.235668 -42.830666
v 21.643738 22.107466 -42.839993
v 21.643738 22.235668 -42.839993
v 21.651899 22.107466 -42.845020
v 21.651899 22.235668 -42.845020
v 21.661228 22.107466 -42.842804
v 21.661226 22.235668 -42.842804
v 21.653885 19.906164 -42.832653
v 21.653885 20.034370 -42.832653
v 21.653885 22.107466 -42.832653
v 21.653885 22.235668 -42.832653
vn -0.0039 1.0000 -0.0039
vn -0.5931 -0.0039 0.8052
vn 0.5842 -0.0039 -0.8116
vn 0.8089 -0.0040 0.5879
vn 0.8089 -0.0039 0.5879
vn -0.8079 -0.0039 -0.5893
vn -0.0039 -1.0000 -0.0039
vn -0.5931 -0.0039 0.8051
vn 0.5842 -0.0040 -0.8116
vn -0.9883 -0.0039 0.1524
vn -0.9883 -0.0039 0.1523
vn -0.1600 -0.0039 -0.9871
vn 0.1535 -0.0039 0.9881
vn 0.9869 -0.0039 -0.1612
vn 0.9869 -0.0040 -0.1612
vn -0.5930 -0.0039 0.8052
vn 0.1536 -0.0039 0.9881
vn -0.1600 -0.0040 -0.9871
vt 0.327881 0.353027
vt 0.327881 0.432129
vt 0.318604 0.432129
vt 0.318604 0.353027
vt 0.315430 0.432129
vt 0.300537 0.432129
vt 0.300537 0.352539
vt 0.315430 0.352539
vt 0.270020 0.352051
vt 0.284912 0.352051
vt 0.284912 0.431641
vt 0.270020 0.431641
vt 0.269775 0.345215
vt 0.269775 0.335938
vt 0.284912 0.335938
vt 0.284912 0.345215
vt 0.288086 0.345215
vt 0.288086 0.335938
vt 0.303223 0.335938
vt 0.303223 0.345215
vt 0.287842 0.352539
vt 0.297363 0.352539
vt 0.297363 0.432129
vt 0.287842 0.432129
vt 0.858398 0.978256
vt 0.848633 0.978256
vt 0.848633 0.570801
vt 0.858398 0.570801
vt 0.812012 0.571289
vt 0.812012 0.978668
vt 0.799805 0.978668
vt 0.799805 0.571289
vt 0.845215 0.572021
vt 0.845215 0.979340
vt 0.833008 0.979340
vt 0.833008 0.572021
vt 0.827637 0.980072
vt 0.817871 0.980072
vt 0.817871 0.572754
vt 0.827637 0.572754
vt 0.377197 0.011230
vt 0.432373 0.011230
vt 0.432373 0.416992
vt 0.377197 0.416992
vt 0.360107 0.465332
vt 0.354004 0.465332
vt 0.354004 0.445312
vt 0.360107 0.445312
vt 0.354004 0.442871
vt 0.360107 0.442871
vt 0.360107 0.443359
vt 0.354004 0.443359
vt 0.362061 0.445312
vt 0.362061 0.465332
vt 0.361328 0.465332
vt 0.361328 0.445312
vt 0.360107 0.467285
vt 0.354004 0.467285
vt 0.354004 0.466797
vt 0.360107 0.466797
vt 0.352051 0.465332
vt 0.352051 0.445312
vt 0.352783 0.445312
vt 0.352783 0.465332
vt 0.327637 0.464355
vt 0.326172 0.464355
vt 0.326172 0.443848
vt 0.327637 0.443848
vt 0.329102 0.464355
vt 0.329102 0.443848
vt 0.330566 0.464355
vt 0.330566 0.443848
vt 0.332031 0.464355
vt 0.332031 0.443848
vt 0.333496 0.464355
vt 0.333496 0.443848
vt 0.334473 0.464355
vt 0.334473 0.443848
vt 0.335938 0.464355
vt 0.335938 0.443848
vt 0.337402 0.464355
vt 0.337402 0.443848
vt 0.326172 0.466797
vt 0.327393 0.465820
vt 0.328125 0.467773
vt 0.326172 0.468262
vt 0.328857 0.465820
vt 0.327148 0.469238
vt 0.329834 0.466797
vt 0.328857 0.469238
vt 0.329834 0.468262
vt 0.333252 0.465820
vt 0.334717 0.465820
vt 0.333984 0.467773
vt 0.332275 0.466797
vt 0.335938 0.466797
vt 0.332275 0.468262
vt 0.335938 0.468750
vt 0.333252 0.469727
vt 0.334717 0.469727
s 1
usemtl MASTER_Building_Details
f 1/1/1 2/2/1 3/3/1
f 3/3/1 4/4/1 1/1/1
f 3/5/2 5/6/2 6/7/2
f 6/7/2 4/8/2 3/5/2
f 1/9/3 7/10/3 8/11/3
f 8/11/3 2/12/3 1/9/3
f 1/13/4 4/14/5 6/15/5
f 6/15/5 7/16/5 1/13/4
f 3/17/6 2/18/6 8/19/6
f 8/19/6 5/20/6 3/17/6
f 7/21/7 6/22/7 5/23/7
f 5/23/7 8/24/7 7/21/7
f 9/25/4 10/26/5 11/27/5
f 11/27/5 12/28/5 9/25/4
f 9/29/8 12/30/8 13/31/8
f 13/31/8 14/32/8 9/29/8
f 11/33/3 10/34/3 15/35/3
f 15/35/9 16/36/9 11/33/9
f 15/37/6 14/38/6 13/39/6
f 13/39/6 16/40/6 15/37/6
f 17/41/8 18/42/8 19/43/2
f 19/43/2 20/44/2 17/41/8
f 21/25/6 22/26/6 23/27/6
f 23/27/6 24/28/6 21/25/6
f 21/29/9 24/30/9 25/31/9
f 25/31/3 26/32/3 21/29/3
f 23/33/2 22/34/2 27/35/2
f 27/35/8 28/36/8 23/33/8
f 27/37/5 26/38/5 25/39/4
f 25/39/4 28/40/4 27/37/5
f 29/1/1 30/2/1 31/3/1
f 31/3/1 32/4/1 29/1/1
f 31/5/2 33/6/2 34/7/2
f 34/7/2 32/8/2 31/5/2
f 29/9/3 35/10/3 36/11/3
f 36/11/3 30/12/3 29/9/3
f 29/13/4 32/14/5 34/15/4
f 34/15/4 35/16/5 29/13/4
f 31/17/6 30/18/6 36/19/6
f 36/19/6 33/20/6 31/17/6
f 35/21/7 34/22/7 33/23/7
f 33/23/7 36/24/7 35/21/7
f 37/45/6 38/46/6 39/47/6
f 39/47/6 40/48/6 37/45/6
f 41/49/1 42/50/1 40/51/1
f 40/51/1 39/52/1 41/49/1
f 42/53/3 43/54/3 37/55/3
f 37/55/3 40/56/3 42/53/3
f 43/57/7 44/58/7 38/59/7
f 38/59/7 37/60/7 43/57/7
f 44/61/2 41/62/2 39/63/2
f 39/63/2 38/64/2 44/61/2
f 45/45/10 46/46/10 47/47/10
f 47/47/10 48/48/11 45/45/10
f 49/49/1 50/50/1 48/51/1
f 48/51/1 47/52/1 49/49/1
f 50/53/12 51/54/12 45/55/12
f 45/55/12 48/56/12 50/53/12
f 51/57/7 52/58/7 46/59/7
f 46/59/7 45/60/7 51/57/7
f 52/61/13 49/62/13 47/63/13
f 47/63/13 46/64/13 52/61/13
f 53/1/1 54/2/1 55/3/1
f 55/3/1 56/4/1 53/1/1
f 55/5/13 57/6/13 58/7/13
f 58/7/13 56/8/13 55/5/13
f 53/9/12 59/10/12 60/11/12
f 60/11/12 54/12/12 53/9/12
f 53/13/14 56/14/14 58/15/14
f 58/15/14 59/16/14 53/13/14
f 55/17/10 54/18/10 60/19/10
f 60/19/10 57/20/10 55/17/10
f 59/21/7 58/22/7 57/23/7
f 57/23/7 60/24/7 59/21/7
f 61/25/15 62/26/14 63/27/14
f 63/27/14 64/28/14 61/25/15
f 61/29/13 64/30/13 65/31/13
f 65/31/13 66/32/13 61/29/13
f 63/33/12 62/34/12 67/35/12
f 67/35/12 68/36/12 63/33/12
f 67/37/11 66/38/11 65/39/11
f 65/39/11 68/40/11 67/37/11
f 69/41/12 70/42/12 71/43/12
f 71/43/12 72/44/12 69/41/12
f 73/25/11 74/26/11 75/27/11
f 75/27/11 76/28/11 73/25/11
f 73/29/12 76/30/12 77/31/12
f 77/31/12 78/32/12 73/29/12
f 75/33/13 74/34/13 79/35/13
f 79/35/13 80/36/13 75/33/13
f 79/37/15 78/38/14 77/39/14
f 77/39/14 80/40/14 79/37/15
f 81/1/1 82/2/1 83/3/1
f 83/3/1 84/4/1 81/1/1
f 83/5/13 85/6/13 86/7/13
f 86/7/13 84/8/13 83/5/13
f 81/9/12 87/10/12 88/11/12
f 88/11/12 82/12/12 81/9/12
f 81/13/14 84/14/14 86/15/14
f 86/15/14 87/16/14 81/13/14
f 83/17/10 82/18/10 88/19/10
f 88/19/10 85/20/10 83/17/10
f 87/21/7 86/22/7 85/23/7
f 85/23/7 88/24/7 87/21/7
f 89/45/10 90/46/10 91/47/10
f 91/47/10 92/48/11 89/45/10
f 93/49/1 94/50/1 92/51/1
f 92/51/1 91/52/1 93/49/1
f 94/53/12 95/54/12 89/55/12
f 89/55/12 92/56/12 94/53/12
f 95/57/7 96/58/7 90/59/7
f 90/59/7 89/60/7 95/57/7
f 96/61/13 93/62/13 91/63/13
f 91/63/13 90/64/13 96/61/13
f 97/45/6 98/46/6 99/47/6
f 99/47/6 100/48/6 97/45/6
f 101/49/1 102/50/1 100/51/1
f 100/51/1 99/52/1 101/49/1
f 102/53/3 103/54/3 97/55/3
f 97/55/3 100/56/3 102/53/3
f 103/57/7 104/58/7 98/59/7
f 98/59/7 97/60/7 103/57/7
f 104/61/16 101/62/2 99/63/2
f 99/63/2 98/64/16 104/61/16
f 105/65/4 106/66/14 107/67/14
f 107/67/14 108/68/4 105/65/4
f 109/69/13 105/65/4 108/68/4
f 108/68/4 110/70/13 109/69/13
f 111/71/16 109/69/13 110/70/13
f 110/70/13 112/72/16 111/71/16
f 113/73/11 111/71/16 112/72/16
f 112/72/16 114/74/10 113/73/11
f 115/75/6 113/73/11 114/74/10
f 114/74/10 116/76/6 115/75/6
f 117/77/12 115/75/6 116/76/6
f 116/76/6 118/78/12 117/77/12
f 119/79/3 117/77/12 118/78/12
f 118/78/12 120/80/3 119/79/3
f 106/81/14 119/79/3 120/80/3
f 120/80/3 107/82/14 106/81/14
f 121/65/4 122/66/14 123/67/14
f 123/67/14 124/68/4 121/65/4
f 125/69/13 121/65/4 124/68/4
f 124/68/4 126/70/17 125/69/13
f 127/71/8 125/69/13 126/70/17
f 126/70/17 128/72/16 127/71/8
f 129/73/11 127/71/8 128/72/16
f 128/72/16 130/74/10 129/73/11
f 131/75/6 129/73/11 130/74/10
f 130/74/10 132/76/6 131/75/6
f 133/77/18 131/75/6 132/76/6
f 132/76/6 134/78/12 133/77/18
f 135/79/3 133/77/18 134/78/12
f 134/78/12 136/80/3 135/79/3
f 122/81/14 135/79/3 136/80/3
f 136/80/3 123/82/14 122/81/14
f 111/83/7 113/84/7 137/85/7
f 109/86/7 111/83/7 137/85/7
f 113/84/7 115/87/7 137/85/7
f 105/88/7 109/86/7 137/85/7
f 115/87/7 117/89/7 137/85/7
f 106/90/7 105/88/7 137/85/7
f 117/89/7 119/91/7 137/85/7
f 119/91/7 106/90/7 137/85/7
f 114/92/1 112/93/1 138/94/1
f 116/95/1 114/92/1 138/94/1
f 112/93/1 110/96/1 138/94/1
f 118/97/1 116/95/1 138/94/1
f 110/96/1 108/98/1 138/94/1
f 120/99/1 118/97/1 138/94/1
f 108/98/1 107/100/1 138/94/1
f 107/100/1 120/99/1 138/94/1
f 127/83/7 129/84/7 139/85/7
f 125/86/7 127/83/7 139/85/7
f 129/84/7 131/87/7 139/85/7
f 121/88/7 125/86/7 139/85/7
f 131/87/7 133/89/7 139/85/7
f 122/90/7 121/88/7 139/85/7
f 133/89/7 135/91/7 139/85/7
f 135/91/7 122/90/7 139/85/7
f 130/92/1 128/93/1 140/94/1
f 132/95/1 130/92/1 140/94/1
f 128/93/1 126/96/1 140/94/1
f 134/97/1 132/95/1 140/94/1
f 126/96/1 124/98/1 140/94/1
f 136/99/1 134/97/1 140/94/1
f 124/98/1 123/100/1 140/94/1
f 123/100/1 136/99/1 140/94/1
