# Blender 3.6.18
# www.blender.org
mtllib Mesh.1180.mtl
o Bistro_Research_Exterior_Paris_Building_01_Bistro_bottom_4141
v 11.908710 4.294232 6.321769
v 11.909572 4.294231 6.322111
v 11.908703 0.857383 6.321771
v 11.909565 0.857383 6.322112
v 11.828988 4.294232 6.292511
v 11.829805 4.294232 6.292793
v 11.828981 0.857384 6.292512
v 11.829798 0.857384 6.292795
v 11.916150 4.294231 6.324712
v 11.916142 0.857383 6.324714
v 11.950025 4.294232 6.217335
v 11.950022 0.857384 6.217326
v 11.950887 4.294232 6.217677
v 11.950885 0.857384 6.217667
v 11.871861 4.294232 6.184137
v 11.871858 0.857384 6.184127
v 11.872650 4.294232 6.184490
v 11.872648 0.857384 6.184479
v 11.918921 0.857383 6.317689
v 11.918929 4.294232 6.317688
v 11.936796 0.857383 6.272490
v 11.936803 4.294231 6.272494
v 11.954685 4.294231 6.227303
v 11.954681 0.857384 6.227293
v 11.957464 4.294232 6.220279
v 11.957460 0.857384 6.220269
v 11.836540 0.857384 6.295126
v 11.836549 4.294232 6.295125
v 11.836993 0.857384 6.302741
v 11.837002 4.294231 6.302739
v 11.837736 0.857384 6.315245
v 11.837745 4.294232 6.315243
v 11.838189 0.857384 6.322859
v 11.838198 4.294232 6.322857
v 11.845683 0.857384 6.325659
v 11.845690 4.294232 6.325658
v 11.874135 0.857384 6.336292
v 11.874144 4.294231 6.336290
v 11.881630 0.857383 6.339092
v 11.881637 4.294232 6.339091
v 11.887096 0.857383 6.333778
v 11.887103 4.294232 6.333777
v 11.896659 0.857383 6.324484
v 11.896667 4.294232 6.324482
v 11.902125 0.857383 6.319170
v 11.902133 4.294232 6.319168
v 11.943448 4.294232 6.214733
v 11.943446 0.857384 6.214724
v 11.943095 4.294232 6.207118
v 11.943093 0.857384 6.207108
v 11.942481 4.294232 6.193797
v 11.942477 0.857384 6.193787
v 11.942128 4.294231 6.186182
v 11.942125 0.857384 6.186171
v 11.934746 4.294232 6.183096
v 11.934744 0.857384 6.183087
v 11.906722 4.294232 6.171387
v 11.906717 0.857384 6.171377
v 11.899340 4.294232 6.168303
v 11.899337 0.857384 6.168293
v 11.893800 4.294232 6.173547
v 11.893797 0.857384 6.173537
v 11.884704 4.294232 6.182158
v 11.884701 0.857384 6.182148
v 11.879165 4.294232 6.187402
v 11.879161 0.857384 6.187392
v 11.865347 4.294232 6.181225
v 11.865345 0.857384 6.181215
v 11.862569 4.294232 6.188249
v 11.862566 0.857384 6.188239
v 11.843793 4.294231 6.235700
v 11.843788 0.857384 6.235696
v 11.825016 0.857384 6.283155
v 11.825025 4.294232 6.283154
v 11.822238 0.857384 6.290180
v 11.822246 4.294232 6.290178
vn 0.3626 -0.0039 -0.9319
vn 0.3256 -0.0039 -0.9455
vn 0.3680 -0.0040 0.9298
vn -0.3721 -0.0039 0.9282
vn 0.3680 -0.0039 0.9298
vn -0.4138 -0.0039 0.9104
vn 0.9309 -0.0039 0.3653
vn 0.9044 -0.0039 -0.4267
vn 0.9044 -0.0039 -0.4268
vn -0.3351 -0.0040 0.9422
vn -0.7881 -0.0039 0.6156
vn -0.3351 -0.0039 0.9422
vn -0.7881 -0.0000 0.6156
vn -0.9983 -0.0039 0.0587
vn -0.7986 -0.0039 0.6019
vn -0.3584 -0.0039 0.9336
vn -0.3585 -0.0039 0.9335
vn -0.3584 -0.0039 0.9335
vn 0.1855 -0.0039 0.9826
vn 0.6992 -0.0040 0.7150
vn 0.6992 -0.0039 0.7150
vn 0.1778 -0.0040 0.9841
vn 0.1778 -0.0000 0.9841
vn 0.1779 -0.0039 0.9840
vn 0.8014 -0.0039 -0.5981
vn 0.9987 -0.0039 -0.0513
vn 0.9987 -0.0040 -0.0513
vn 0.8051 -0.0039 -0.5931
vn 0.8052 -0.0039 -0.5930
vn 0.3788 -0.0039 -0.9255
vn -0.1676 -0.0039 -0.9859
vn -0.6874 -0.0039 -0.7263
vn -0.1524 -0.0039 -0.9883
vn 0.4043 -0.0039 -0.9146
vn -0.3558 -0.0039 -0.9345
vn -0.3558 -0.0039 -0.9346
vn -0.9293 -0.0039 -0.3694
vn -0.8968 -0.0039 0.4425
vn -0.8968 -0.0040 0.4425
vt 0.646484 0.568848
vt 0.646484 0.569092
vt -0.427246 0.568848
vt -0.427246 0.569092
vt 0.646484 0.606934
vt 0.646484 0.607178
vt -0.427246 0.606934
vt -0.427246 0.607178
vt 0.646484 0.566162
vt -0.427246 0.566162
vt 0.646484 0.689209
vt -0.427246 0.689209
vt 0.646484 0.688965
vt -0.427246 0.688965
vt 0.646484 0.651123
vt -0.427246 0.651123
vt 0.646484 0.650879
vt -0.427246 0.650879
vt 0.646484 0.728760
vt -0.427246 0.728760
vt -0.427246 0.726318
vt 0.646484 0.726318
vt -0.427246 0.710205
vt 0.646484 0.710205
vt 0.646484 0.694092
vt -0.427246 0.694092
vt 0.646484 0.691650
vt -0.427246 0.691650
vt -0.427246 0.604492
vt 0.646484 0.604492
vt -0.427246 0.602051
vt 0.646484 0.602051
vt -0.427246 0.597900
vt 0.646484 0.597900
vt -0.427246 0.595459
vt 0.646484 0.595459
vt -0.427246 0.592773
vt 0.646484 0.592773
vt -0.427246 0.583496
vt 0.646484 0.583496
vt -0.427246 0.580811
vt 0.646484 0.580811
vt -0.427246 0.578369
vt 0.646484 0.578369
vt -0.427246 0.573975
vt 0.646484 0.573975
vt -0.427246 0.571533
vt 0.646484 0.571533
vt 0.646484 0.686279
vt -0.427246 0.686279
vt 0.646484 0.683838
vt -0.427246 0.683838
vt 0.646484 0.679443
vt -0.427246 0.679443
vt 0.646484 0.677002
vt -0.427246 0.677002
vt 0.646484 0.674561
vt -0.427246 0.674561
vt 0.646484 0.665039
vt -0.427246 0.665039
vt 0.646484 0.662598
vt -0.427246 0.662598
vt 0.646484 0.660156
vt -0.427246 0.660156
vt 0.646484 0.656006
vt -0.427246 0.656006
vt 0.646484 0.653564
vt -0.427246 0.653564
vt 0.646484 0.648438
vt -0.427246 0.648438
vt 0.646484 0.645752
vt -0.427246 0.645752
vt 0.646484 0.628906
vt -0.427246 0.628906
vt -0.427246 0.612061
vt 0.646484 0.612061
vt -0.427246 0.609619
vt 0.646484 0.609619
s 1
usemtl MASTER_Wood_Painted3
f 1/1/1 2/2/1 3/3/1
f 2/2/1 4/4/1 3/3/1
f 5/5/2 6/6/2 7/7/2
f 6/6/2 8/8/2 7/7/2
f 9/9/3 1/1/4 10/10/5
f 1/1/4 3/3/4 10/10/5
f 11/11/4 12/12/4 13/13/4
f 12/12/4 14/14/4 13/13/4
f 15/15/6 16/16/6 17/17/6
f 16/16/6 18/18/6 17/17/6
f 9/19/3 10/20/5 19/21/7
f 20/22/7 9/19/3 19/21/7
f 20/22/7 19/21/7 21/23/7
f 22/24/7 20/22/7 21/23/7
f 22/24/7 21/23/7 23/25/7
f 21/23/7 24/26/7 23/25/7
f 23/25/7 24/26/7 25/27/8
f 24/26/7 26/28/9 25/27/8
f 25/27/8 26/28/9 11/11/1
f 26/28/9 12/12/1 11/11/1
f 5/5/10 7/7/10 27/29/11
f 28/30/11 5/5/12 27/29/13
f 28/30/11 27/29/13 29/31/14
f 30/32/14 28/30/11 29/31/14
f 30/32/14 29/31/14 31/33/14
f 32/34/14 30/32/14 31/33/14
f 32/34/14 31/33/14 33/35/15
f 34/36/15 32/34/14 33/35/15
f 34/36/15 33/35/15 35/37/16
f 36/38/17 34/36/15 35/37/16
f 36/38/17 35/37/16 37/39/18
f 38/40/18 36/38/17 37/39/18
f 38/40/18 37/39/18 39/41/19
f 40/42/19 38/40/18 39/41/19
f 40/42/19 39/41/19 41/43/20
f 42/44/20 40/42/19 41/43/20
f 42/44/20 41/43/20 43/45/20
f 44/46/21 42/44/20 43/45/20
f 44/46/21 43/45/20 45/47/22
f 46/48/23 44/46/21 45/47/22
f 46/48/23 45/47/22 4/4/4
f 2/2/4 46/48/24 4/4/4
f 13/13/1 14/14/1 47/49/25
f 14/14/1 48/50/25 47/49/25
f 47/49/25 48/50/25 49/51/26
f 48/50/25 50/52/26 49/51/26
f 49/51/26 50/52/26 51/53/26
f 50/52/26 52/54/27 51/53/26
f 51/53/26 52/54/27 53/55/28
f 52/54/27 54/56/29 53/55/28
f 53/55/28 54/56/29 55/57/30
f 54/56/29 56/58/30 55/57/30
f 55/57/30 56/58/30 57/59/30
f 56/58/30 58/60/30 57/59/30
f 57/59/30 58/60/30 59/61/31
f 58/60/30 60/62/31 59/61/31
f 59/61/31 60/62/31 61/63/32
f 60/62/31 62/64/32 61/63/32
f 61/63/32 62/64/32 63/65/32
f 62/64/32 64/66/32 63/65/32
f 63/65/32 64/66/32 65/67/33
f 64/66/32 66/68/33 65/67/33
f 65/67/33 66/68/33 15/15/34
f 66/68/33 16/16/34 15/15/34
f 17/17/34 18/18/34 67/69/35
f 18/18/34 68/70/36 67/69/35
f 67/69/35 68/70/36 69/71/37
f 68/70/36 70/72/37 69/71/37
f 69/71/37 70/72/37 71/73/37
f 70/72/37 72/74/37 71/73/37
f 71/73/37 72/74/37 73/75/37
f 74/76/37 71/73/37 73/75/37
f 74/76/37 73/75/37 75/77/38
f 76/78/38 74/76/37 75/77/38
f 76/78/38 75/77/38 8/8/12
f 6/6/12 76/78/39 8/8/12
