# Blender 3.6.18
# www.blender.org
mtllib Mesh.618.mtl
o Bistro_Research_Exterior_paris_building_05_9__5309
v 36.987225 4.901754 16.184063
v 37.459660 4.901754 16.117161
v 37.451767 4.901754 16.061455
v 36.979340 4.901754 16.128353
v 37.451767 4.811467 16.061455
v 36.979340 4.811467 16.128353
v 36.987225 4.811468 16.184063
v 37.459660 4.811467 16.117161
v 36.984276 2.366021 16.130600
v 36.991409 2.366021 16.180971
v 36.991409 4.815543 16.180971
v 36.984276 4.815543 16.130600
v 37.056721 4.815543 16.120340
v 37.056721 2.366021 16.120340
v 37.063850 2.366021 16.170712
v 37.063850 4.815543 16.170712
v 37.390915 4.809440 16.109375
v 37.063358 4.809440 16.155760
v 37.063358 2.368914 16.155758
v 37.390915 2.368913 16.109375
v 37.459015 2.366021 16.114754
v 37.451878 2.366021 16.064384
v 37.451878 4.815543 16.064384
v 37.459015 4.815543 16.114756
v 37.386574 4.815543 16.125013
v 37.386574 2.366021 16.125011
v 37.379436 2.366021 16.074642
v 37.379436 4.815543 16.074642
v 36.987225 2.365631 16.184061
v 37.459660 2.365631 16.117161
v 37.451767 2.365631 16.061453
v 36.979340 2.365631 16.128353
v 37.451767 2.275343 16.061453
v 36.979340 2.275343 16.128353
v 36.987225 2.275344 16.184061
v 37.459660 2.275343 16.117161
v 37.467728 4.901754 16.117340
v 37.014091 4.901754 16.265259
v 37.031536 4.901754 16.318750
v 37.485168 4.901754 16.170830
v 37.031536 4.811467 16.318750
v 37.485168 4.811467 16.170830
v 37.467728 4.811468 16.117340
v 37.014091 4.811467 16.265259
v 37.479916 2.366021 16.169474
v 37.464142 2.366021 16.121107
v 37.464142 4.815543 16.121107
v 37.479916 4.815543 16.169476
v 37.410358 4.815543 16.192158
v 37.410358 2.366021 16.192158
v 37.394588 2.366021 16.143789
v 37.394588 4.815543 16.143791
v 37.082035 4.809441 16.261351
v 37.396557 4.809441 16.158792
v 37.396557 2.368914 16.158791
v 37.082035 2.368913 16.261351
v 37.018723 2.366021 16.266350
v 37.034492 2.366021 16.314718
v 37.034492 4.815543 16.314718
v 37.018723 4.815543 16.266350
v 37.088284 4.815543 16.243670
v 37.088284 2.366021 16.243668
v 37.104057 2.366021 16.292034
v 37.104057 4.815543 16.292036
v 37.467728 2.365631 16.117338
v 37.014091 2.365631 16.265257
v 37.031536 2.365631 16.318750
v 37.485168 2.365631 16.170828
v 37.031536 2.275343 16.318750
v 37.485168 2.275343 16.170828
v 37.467728 2.275344 16.117338
v 37.014091 2.275343 16.265257
vn -0.0039 1.0000 -0.0039
vn -0.1447 -0.0039 -0.9895
vn 0.1381 -0.0040 0.9904
vn -0.9906 -0.0039 0.1370
vn -0.9906 -0.0039 0.1371
vn 0.9893 -0.0039 -0.1458
vn -0.0039 -1.0000 -0.0039
vn 0.1381 -0.0039 0.9904
vn 0.3115 -0.0039 0.9502
vn -0.3162 -0.0039 -0.9487
vn 0.9479 -0.0039 -0.3186
vn -0.9510 -0.0039 0.3092
vt 0.327881 0.353027
vt 0.327881 0.432129
vt 0.318604 0.432129
vt 0.318604 0.353027
vt 0.315430 0.432129
vt 0.300537 0.432129
vt 0.300537 0.352539
vt 0.315430 0.352539
vt 0.270020 0.352051
vt 0.284912 0.352051
vt 0.284912 0.431641
vt 0.270020 0.431641
vt 0.269775 0.345215
vt 0.269775 0.335938
vt 0.284912 0.335938
vt 0.284912 0.345215
vt 0.288086 0.345215
vt 0.288086 0.335938
vt 0.303223 0.335938
vt 0.303223 0.345215
vt 0.287842 0.352539
vt 0.297363 0.352539
vt 0.297363 0.432129
vt 0.287842 0.432129
vt 0.858398 0.978256
vt 0.848633 0.978256
vt 0.848633 0.570801
vt 0.858398 0.570801
vt 0.812012 0.571289
vt 0.812012 0.978668
vt 0.799805 0.978668
vt 0.799805 0.571289
vt 0.845215 0.572021
vt 0.845215 0.979340
vt 0.833008 0.979340
vt 0.833008 0.572021
vt 0.827637 0.980072
vt 0.817871 0.980072
vt 0.817871 0.572754
vt 0.827637 0.572754
vt 0.377197 0.011230
vt 0.432373 0.011230
vt 0.432373 0.416992
vt 0.377197 0.416992
s 1
usemtl MASTER_Building_Details
f 1/1/1 2/2/1 3/3/1
f 3/3/1 4/4/1 1/1/1
f 3/5/2 5/6/2 6/7/2
f 6/7/2 4/8/2 3/5/2
f 1/9/3 7/10/3 8/11/3
f 8/11/3 2/12/3 1/9/3
f 1/13/4 4/14/4 6/15/4
f 6/15/4 7/16/5 1/13/4
f 3/17/6 2/18/6 8/19/6
f 8/19/6 5/20/6 3/17/6
f 7/21/7 6/22/7 5/23/7
f 5/23/7 8/24/7 7/21/7
f 9/25/4 10/26/4 11/27/4
f 11/27/4 12/28/4 9/25/4
f 9/29/2 12/30/2 13/31/2
f 13/31/2 14/32/2 9/29/2
f 11/33/3 10/34/3 15/35/3
f 15/35/8 16/36/8 11/33/8
f 15/37/6 14/38/6 13/39/6
f 13/39/6 16/40/6 15/37/6
f 17/41/8 18/42/3 19/43/3
f 19/43/3 20/44/3 17/41/8
f 21/25/6 22/26/6 23/27/6
f 23/27/6 24/28/6 21/25/6
f 21/29/8 24/30/8 25/31/8
f 25/31/3 26/32/3 21/29/3
f 23/33/2 22/34/2 27/35/2
f 27/35/2 28/36/2 23/33/2
f 27/37/4 26/38/4 25/39/5
f 25/39/5 28/40/4 27/37/4
f 29/1/1 30/2/1 31/3/1
f 31/3/1 32/4/1 29/1/1
f 31/5/2 33/6/2 34/7/2
f 34/7/2 32/8/2 31/5/2
f 29/9/3 35/10/3 36/11/3
f 36/11/3 30/12/3 29/9/3
f 29/13/4 32/14/4 34/15/4
f 34/15/4 35/16/4 29/13/4
f 31/17/6 30/18/6 36/19/6
f 36/19/6 33/20/6 31/17/6
f 35/21/7 34/22/7 33/23/7
f 33/23/7 36/24/7 35/21/7
f 37/1/1 38/2/1 39/3/1
f 39/3/1 40/4/1 37/1/1
f 39/5/9 41/6/9 42/7/9
f 42/7/9 40/8/9 39/5/9
f 37/9/10 43/10/10 44/11/10
f 44/11/10 38/12/10 37/9/10
f 37/13/11 40/14/11 42/15/11
f 42/15/11 43/16/11 37/13/11
f 39/17/12 38/18/12 44/19/12
f 44/19/12 41/20/12 39/17/12
f 43/21/7 42/22/7 41/23/7
f 41/23/7 44/24/7 43/21/7
f 45/25/11 46/26/11 47/27/11
f 47/27/11 48/28/11 45/25/11
f 45/29/9 48/30/9 49/31/9
f 49/31/9 50/32/9 45/29/9
f 47/33/10 46/34/10 51/35/10
f 51/35/10 52/36/10 47/33/10
f 51/37/12 50/38/12 49/39/12
f 49/39/12 52/40/12 51/37/12
f 53/41/10 54/42/10 55/43/10
f 55/43/10 56/44/10 53/41/10
f 57/25/12 58/26/12 59/27/12
f 59/27/12 60/28/12 57/25/12
f 57/29/10 60/30/10 61/31/10
f 61/31/10 62/32/10 57/29/10
f 59/33/9 58/34/9 63/35/9
f 63/35/9 64/36/9 59/33/9
f 63/37/11 62/38/11 61/39/11
f 61/39/11 64/40/11 63/37/11
f 65/1/1 66/2/1 67/3/1
f 67/3/1 68/4/1 65/1/1
f 67/5/9 69/6/9 70/7/9
f 70/7/9 68/8/9 67/5/9
f 65/9/10 71/10/10 72/11/10
f 72/11/10 66/12/10 65/9/10
f 65/13/11 68/14/11 70/15/11
f 70/15/11 71/16/11 65/13/11
f 67/17/12 66/18/12 72/19/12
f 72/19/12 69/20/12 67/17/12
f 71/21/7 70/22/7 69/23/7
f 69/23/7 72/24/7 71/21/7
