# Blender 3.6.18
# www.blender.org
mtllib Mesh.720.mtl
o Bistro_Research_Exterior_paris_building_05_5095
v 20.973248 17.066969 -39.684582
v 20.973248 14.191689 -39.684582
v 20.513577 14.191689 -38.909004
v 20.513575 17.066969 -38.909004
v 20.039728 17.066969 -38.109505
v 20.502092 17.066969 -38.889629
v 20.502092 14.191689 -38.889626
v 20.039732 14.191689 -38.109505
vn -0.8602 -0.0039 -0.5099
vt 0.251221 0.988487
vt 0.251221 0.225098
vt 0.497803 0.225098
vt 0.497803 0.988487
vt 0.249146 0.988487
vt 0.002602 0.988487
vt 0.002602 0.225098
vt 0.249146 0.225098
s 1
usemtl MASTER_Curtains
f 1/1/1 2/2/1 3/3/1
f 3/3/1 4/4/1 1/1/1
f 5/5/1 6/6/1 7/7/1
f 7/7/1 8/8/1 5/5/1
