# Blender 3.6.18
# www.blender.org
mtllib Mesh.453.mtl
o Bistro_Research_Exterior_paris_building_11_5663
v -2.069960 11.123057 21.127098
v -2.166522 11.123057 21.087612
v -2.561579 11.123957 22.329372
v -2.658140 11.123958 22.289888
v -2.564607 11.115962 22.336777
v -2.661168 11.115962 22.297293
v -2.564607 8.381990 22.336779
v -2.661168 8.381990 22.297295
v -2.561579 8.373991 22.329374
v -2.658140 8.373991 22.289888
v -2.069960 8.373991 21.127096
v -2.166522 8.373991 21.087610
v -2.066932 8.381990 21.119692
v -2.163494 8.381990 21.080208
v -2.066932 11.115052 21.119692
v -2.163494 11.115051 21.080208
v -2.178277 11.115065 21.095024
v -2.220318 11.006575 21.195126
v -2.661332 11.115949 22.276356
v -2.621191 11.007308 22.175480
v -2.665615 11.104639 22.286831
v -2.625474 10.995998 22.185955
v -2.665615 8.393303 22.286833
v -2.625474 8.501868 22.185955
v -2.661333 8.381989 22.276360
v -2.621192 8.490555 22.175482
v -2.178279 8.381989 21.095028
v -2.220319 8.490555 21.195127
v -2.173996 8.393303 21.084557
v -2.216037 8.501868 21.184658
v -2.173997 11.103747 21.084557
v -2.216037 10.995257 21.184656
v -2.216840 10.995358 21.205769
v -2.202434 10.987016 21.220678
v -2.611255 10.996080 22.170328
v -2.590528 10.987726 22.169783
v -2.614520 10.987461 22.178310
v -2.593793 10.979107 22.177765
v -2.614520 8.510401 22.178312
v -2.593793 8.518750 22.177767
v -2.611255 8.501777 22.170328
v -2.590529 8.510125 22.169783
v -2.216841 8.501777 21.205769
v -2.202434 8.510125 21.220678
v -2.213576 8.510401 21.197786
v -2.199170 8.518750 21.212698
v -2.213576 10.986730 21.197786
v -2.199170 10.978386 21.212696
v -2.201006 10.975804 21.236288
v -2.223961 10.916894 21.290590
v -2.578572 10.976495 22.159639
v -2.556902 10.917504 22.104813
v -2.582855 10.965186 22.170116
v -2.561185 10.906195 22.115288
v -2.582855 8.532660 22.170116
v -2.561185 8.591612 22.115288
v -2.578573 8.521347 22.159643
v -2.556903 8.580298 22.104816
v -2.201008 8.521347 21.236290
v -2.223962 8.580298 21.290592
v -2.196726 8.532660 21.225819
v -2.219681 8.591612 21.280123
v -2.196726 10.964487 21.225817
v -2.219681 10.905578 21.280121
v -2.218419 10.908899 21.297922
v -2.154342 10.908899 21.324123
v -2.547812 10.909501 22.103470
v -2.483736 10.909501 22.129671
v -2.550840 10.901507 22.110874
v -2.486764 10.901507 22.137075
v -2.550840 8.596297 22.110876
v -2.486764 8.596297 22.137077
v -2.547812 8.588297 22.103472
v -2.483736 8.588297 22.129673
v -2.218419 8.588297 21.297922
v -2.154342 8.588297 21.324123
v -2.215390 8.596297 21.290518
v -2.151314 8.596297 21.316719
v -2.215391 10.900893 21.290518
v -2.151314 10.900893 21.316719
vn -0.0039 1.0000 -0.0039
vn -0.0040 1.0000 -0.0040
vn -0.3815 -0.0039 0.9243
vn -0.3816 -0.0040 0.9243
vn -0.0039 -1.0000 -0.0039
vn 0.3721 -0.0039 -0.9282
vn -0.9255 0.0039 -0.3788
vn -0.9282 -0.0039 -0.3721
vn -0.9254 -0.0117 -0.3788
vn -0.9227 -0.0039 -0.3854
vn -0.9227 -0.0039 -0.3855
vn -0.3771 -0.9137 -0.1516
vn -0.3772 -0.9137 -0.1516
vn -0.0274 -0.0039 -0.9996
vn -0.3798 0.9124 -0.1527
vn -0.7226 -0.0039 0.6913
vn -0.7225 -0.0039 0.6913
vn -0.9255 0.0118 -0.3785
vn -0.9293 -0.0039 -0.3694
vn -0.9253 -0.0195 -0.3787
vn -0.9187 -0.0039 -0.3948
vn -0.9187 -0.0039 -0.3949
vn 0.2640 0.7053 -0.6580
vn -0.3489 0.6468 -0.6782
vn -0.2924 0.4874 -0.8227
vn -0.7881 0.4352 -0.4352
vn -0.7260 0.6475 0.2315
vn -0.8660 0.4350 -0.2468
vn -0.7858 0.4887 0.3792
vn -0.2727 0.7074 0.6521
vn -0.9930 0.0974 0.0662
vn -0.7827 -0.4946 0.3778
vn -0.9923 -0.1051 0.0661
vn -0.7223 -0.6520 0.2304
vn -0.2712 -0.7113 0.6484
vn -0.7223 -0.6521 0.2304
vn -0.2712 -0.7113 0.6485
vn -0.8630 -0.4413 -0.2460
vn -0.3539 -0.6496 -0.6729
vn -0.7854 -0.4415 -0.4337
vn -0.2913 -0.4933 -0.8196
vn 0.2625 -0.7092 -0.6543
vn -0.6590 -0.1053 -0.7448
vn -0.6595 0.0975 -0.7454
vn -0.8542 -0.5188 -0.0351
vn -0.9413 -0.2929 0.1680
vn -0.8769 -0.4794 0.0351
vn -0.9184 -0.3713 0.1368
vn -0.6016 -0.4774 -0.6404
vn -0.5568 -0.3699 -0.7437
vn -0.6351 -0.5182 -0.5728
vn -0.5492 -0.2922 -0.7829
vn -0.5584 0.3631 -0.7459
vn -0.6038 0.4714 -0.6428
vn -0.5505 0.2850 -0.7847
vn -0.6377 0.5125 -0.5751
vn -0.8802 0.4733 0.0352
vn -0.9210 0.3645 0.1372
vn -0.8577 0.5130 -0.0352
vn -0.9434 0.2858 0.1683
vn -0.6902 -0.7057 0.1599
vn -0.8045 -0.4121 0.4278
vn -0.8045 -0.4120 0.4278
vn -0.3788 -0.7068 -0.5974
vn -0.2695 -0.4103 -0.8712
vn -0.3788 -0.7068 -0.5975
vn -0.2705 0.4037 -0.8740
vn -0.3809 0.7029 -0.6008
vn -0.2704 0.4037 -0.8740
vn -0.6940 0.7018 0.1607
vn -0.8071 0.4055 0.4292
vn -0.9315 -0.2611 -0.2534
vn -0.9853 -0.1206 -0.1207
vn -0.9862 0.1131 -0.1208
vn -0.8410 -0.2621 -0.4733
vn -0.9333 0.2539 -0.2538
vn -0.8427 0.2548 -0.4743
vn -0.7868 0.1135 -0.6067
vn -0.7861 -0.1212 -0.6062
vn -0.9000 -0.3234 -0.2922
vn -0.9950 -0.0741 -0.0663
vn -0.8456 -0.3234 -0.4247
vn -0.9022 -0.3866 -0.1913
vn -0.9956 0.0664 -0.0664
vn -0.9858 -0.1675 0.0117
vn -0.9023 0.3164 -0.2929
vn -0.9871 0.1599 0.0117
vn -0.8477 0.3164 -0.4258
vn -0.9049 0.3800 -0.1919
vn -0.7545 0.0665 -0.6529
vn -0.7767 0.3786 -0.5035
vn -0.7541 -0.0742 -0.6525
vn -0.6940 0.1607 -0.7018
vn -0.6931 -0.1684 -0.7009
vn -0.7744 -0.3852 -0.5020
vt 0.387451 0.517822
vt 0.387451 0.485352
vt 0.793457 0.517822
vt 0.793457 0.485352
vt -0.199585 0.517822
vt -0.199585 0.485352
vt 0.654297 0.517822
vt 0.654297 0.485352
vt 0.206421 0.517822
vt 0.206421 0.485352
vt 0.612305 0.517822
vt 0.612305 0.485352
vt 0.345215 0.517822
vt 0.345215 0.485352
vt 1.199219 0.517822
vt 1.199219 0.485352
vt 0.390869 1.199341
vt 0.424805 1.165405
vt 0.789551 1.199585
vt 0.755859 1.165649
vt 0.793457 1.196045
vt 0.759277 1.162109
vt 0.793457 0.349121
vt 0.759277 0.382812
vt 0.789551 0.345703
vt 0.755859 0.379395
vt 0.390869 0.345703
vt 0.424805 0.379395
vt 0.387451 0.349121
vt 0.421387 0.382812
vt 0.387451 1.195801
vt 0.421387 1.161865
vt 0.572266 0.484863
vt 0.569336 0.490723
vt 0.246582 0.484863
vt 0.249146 0.490723
vt 1.159180 0.484863
vt 1.156250 0.490723
vt 0.385254 0.484863
vt 0.387939 0.490723
vt 0.752930 0.484863
vt 0.750488 0.490723
vt 0.427490 0.484863
vt 0.430176 0.490723
vt 0.614258 0.484863
vt 0.611816 0.490723
vt -0.159180 0.484863
vt -0.156616 0.490723
vt 0.434570 1.155884
vt 0.452881 1.137451
vt 0.746094 1.156006
vt 0.727539 1.137573
vt 0.749512 1.152466
vt 0.731445 1.134033
vt 0.749512 0.392578
vt 0.731445 0.411133
vt 0.746094 0.389160
vt 0.727539 0.407715
vt 0.434570 0.389160
vt 0.452881 0.407715
vt 0.430908 0.392578
vt 0.449463 0.411133
vt 0.430908 1.152344
vt 0.449463 1.133911
vt 0.545410 0.495117
vt 0.545410 0.516846
vt 0.273438 0.495117
vt 0.273438 0.516846
vt 1.131836 0.495117
vt 1.131836 0.516846
vt 0.412109 0.495117
vt 0.412109 0.516846
vt 0.726074 0.495117
vt 0.726074 0.516846
vt 0.454346 0.495117
vt 0.454346 0.516846
vt 0.587402 0.495117
vt 0.587402 0.516846
vt -0.132446 0.495117
vt -0.132446 0.516846
vt 1.201172 0.517822
vt 1.201172 0.485352
vt 0.390869 0.482910
vt 0.789551 0.482910
vt 0.795898 0.485352
vt 0.795898 0.517822
vt -0.196045 0.482910
vt 0.650879 0.482910
vt 0.656738 0.485352
vt 0.656738 0.517822
vt 0.209961 0.482910
vt 0.608887 0.482910
vt 0.614746 0.485352
vt 0.614746 0.517822
vt 0.348633 0.482910
vt 1.195312 0.482910
vt -0.161987 0.484863
vt -0.159302 0.490723
vt 0.246460 0.490723
vt 0.243896 0.484863
vt 0.385254 0.490723
vt 0.382568 0.484863
vt 0.614258 0.490723
vt 0.617188 0.484863
vt -0.134888 0.495117
vt -0.134888 0.516846
vt 0.270752 0.516846
vt 0.270752 0.495117
vt 0.409668 0.516846
vt 0.409668 0.495117
vt 0.451904 0.516846
vt 0.451904 0.495117
vt 0.385010 1.199341
vt 0.387451 1.201782
vt 0.424805 1.159180
vt 0.424805 0.385742
vt 0.427490 1.161987
vt 0.427490 0.382812
vt 0.752930 1.162109
vt 0.752930 0.382812
vt 0.385010 0.345703
vt 0.387451 0.343262
vt 0.755859 0.385742
vt 0.755859 1.159424
vt 0.793457 0.343262
vt 0.795898 0.345703
vt 0.795898 1.199585
vt 0.793457 1.202148
vt 0.430176 1.159302
vt 0.750488 1.159546
vt 0.427490 1.156616
vt 0.753418 1.156860
vt 0.427490 0.388184
vt 0.430176 0.385742
vt 0.750488 0.385742
vt 0.753418 0.388184
vt 0.729004 0.412598
vt 0.729004 1.132568
vt 0.726074 0.410156
vt 0.726074 1.135132
vt 0.454346 0.410156
vt 0.454346 1.134888
vt 0.451904 0.412598
vt 0.451904 1.132446
s 1
usemtl MASTER_Wood_Painted_Green
f 1/1/1 2/2/2 3/3/1
f 2/2/2 4/4/1 3/3/1
f 5/5/3 6/6/4 7/7/3
f 6/6/4 8/8/3 7/7/3
f 9/9/5 10/10/5 11/11/5
f 10/10/5 12/12/5 11/11/5
f 13/13/6 14/14/6 15/15/6
f 14/14/6 16/16/6 15/15/6
f 17/17/7 18/18/7 19/19/7
f 18/18/7 20/20/7 19/19/7
f 21/21/8 22/22/8 23/23/8
f 22/22/8 24/24/8 23/23/8
f 25/25/9 26/26/9 27/27/9
f 26/26/9 28/28/9 27/27/9
f 29/29/10 30/30/11 31/31/10
f 30/30/11 32/32/10 31/31/10
f 33/33/12 34/34/12 35/35/13
f 34/34/12 36/36/13 35/35/13
f 37/37/14 38/38/14 39/39/14
f 38/38/14 40/40/14 39/39/14
f 41/41/15 42/42/15 43/43/15
f 42/42/15 44/44/15 43/43/15
f 45/45/16 46/46/16 47/47/17
f 46/46/16 48/48/17 47/47/17
f 49/49/18 50/50/18 51/51/18
f 50/50/18 52/52/18 51/51/18
f 53/53/19 54/54/19 55/55/19
f 54/54/19 56/56/19 55/55/19
f 57/57/20 58/58/20 59/59/20
f 58/58/20 60/60/20 59/59/20
f 61/61/21 62/62/21 63/63/22
f 62/62/21 64/64/22 63/63/22
f 65/65/5 66/66/5 67/67/5
f 66/66/5 68/68/5 67/67/5
f 69/69/6 70/70/6 71/71/6
f 70/70/6 72/72/6 71/71/6
f 73/73/1 74/74/1 75/75/1
f 74/74/1 76/76/1 75/75/1
f 77/77/3 78/78/3 79/79/3
f 78/78/3 80/80/3 79/79/3
f 1/81/23 15/15/23 2/82/24
f 15/15/23 16/16/25 2/82/24
f 2/2/24 17/83/26 4/4/27
f 17/83/26 19/84/28 4/4/27
f 4/4/27 6/85/29 3/3/30
f 6/85/29 5/86/30 3/3/30
f 6/6/29 21/87/31 8/8/32
f 21/87/31 23/88/33 8/8/32
f 8/8/32 10/89/34 7/7/35
f 10/89/36 9/90/35 7/7/37
f 10/10/34 25/91/38 12/12/39
f 25/91/38 27/92/40 12/12/39
f 12/12/39 14/93/41 11/11/42
f 14/93/41 13/94/42 11/11/42
f 14/14/41 29/95/43 16/16/25
f 29/95/43 31/96/44 16/16/25
f 33/97/45 47/47/46 34/98/47
f 47/47/46 48/48/48 34/98/47
f 36/36/49 38/99/50 35/35/51
f 38/99/50 37/100/52 35/35/51
f 40/40/53 42/101/54 39/39/55
f 42/101/54 41/102/56 39/39/55
f 44/103/57 46/46/58 43/104/59
f 46/46/58 45/45/60 43/104/59
f 65/105/61 79/79/62 66/106/35
f 79/79/63 80/80/35 66/106/37
f 68/68/42 70/107/42 67/67/64
f 70/107/42 69/108/65 67/67/66
f 72/72/23 74/109/23 71/71/67
f 74/109/23 73/110/68 71/71/69
f 76/76/30 78/111/30 75/75/70
f 78/111/30 77/112/71 75/75/70
f 16/113/25 31/31/44 2/114/24
f 31/31/44 17/17/26 2/114/24
f 17/17/26 31/31/44 18/18/72
f 31/31/44 32/32/73 18/18/72
f 32/32/73 47/115/46 18/18/72
f 45/116/60 47/115/46 32/32/73
f 47/115/46 33/117/45 18/18/72
f 30/30/74 45/116/60 32/32/73
f 18/18/72 33/117/45 20/20/75
f 43/118/59 45/116/60 30/30/74
f 33/117/45 35/119/51 20/20/75
f 28/28/76 43/118/59 30/30/74
f 41/120/56 43/118/59 28/28/76
f 28/28/76 30/30/74 27/27/40
f 30/30/74 29/29/43 27/27/40
f 27/27/40 29/29/43 14/121/41
f 12/122/39 27/27/40 14/121/41
f 26/26/77 41/120/56 28/28/76
f 39/123/55 41/120/56 26/26/77
f 24/24/78 39/123/55 26/26/77
f 37/124/52 39/123/55 24/24/78
f 24/24/78 26/26/77 23/23/33
f 26/26/77 25/25/38 23/23/33
f 23/23/33 25/25/38 10/125/34
f 8/126/32 23/23/33 10/125/34
f 22/22/79 37/124/52 24/24/78
f 35/119/51 37/124/52 22/22/79
f 20/20/75 35/119/51 22/22/79
f 20/20/75 22/22/79 19/19/28
f 22/22/79 21/21/31 19/19/28
f 19/19/28 21/21/31 6/127/29
f 4/128/27 19/19/28 6/127/29
f 34/129/47 49/49/80 36/130/49
f 63/63/81 49/49/80 34/129/47
f 48/131/48 63/63/81 34/129/47
f 49/49/80 51/51/82 36/130/49
f 49/49/80 63/63/81 50/50/83
f 36/130/49 51/51/82 38/132/50
f 61/61/84 63/63/81 48/131/48
f 46/133/58 61/61/84 48/131/48
f 63/63/81 64/64/85 50/50/83
f 59/59/86 61/61/84 46/133/58
f 44/134/57 59/59/86 46/133/58
f 62/62/87 61/61/84 59/59/86
f 57/57/88 59/59/86 44/134/57
f 42/135/54 57/57/88 44/134/57
f 60/60/89 62/62/87 59/59/86
f 55/55/90 57/57/88 42/135/54
f 40/136/53 55/55/90 42/135/54
f 58/58/91 57/57/88 55/55/90
f 53/53/92 55/55/90 40/136/53
f 38/132/50 53/53/92 40/136/53
f 51/51/82 53/53/92 38/132/50
f 56/56/93 58/58/91 55/55/90
f 54/54/94 53/53/92 51/51/82
f 52/52/95 54/54/94 51/51/82
f 56/56/93 71/137/69 58/58/91
f 69/138/65 71/137/69 56/56/93
f 54/54/94 69/138/65 56/56/93
f 71/137/69 73/139/68 58/58/91
f 58/58/91 73/139/68 60/60/89
f 67/140/66 69/138/65 54/54/94
f 52/52/95 67/140/66 54/54/94
f 73/139/68 75/141/70 60/60/89
f 65/142/61 67/140/66 52/52/95
f 60/60/89 75/141/70 62/62/87
f 50/50/83 65/142/61 52/52/95
f 75/141/70 77/143/71 62/62/87
f 79/144/62 65/142/61 50/50/83
f 62/62/87 77/143/71 64/64/85
f 64/64/85 79/144/62 50/50/83
f 77/143/71 79/144/62 64/64/85
