# Blender 3.6.18
# www.blender.org
mtllib Mesh.1137.mtl
o Bistro_Research_Exterior_Paris_Building_01_paris_buildi_10ca414
v 5.681609 26.851444 -9.575617
v 9.972630 26.851435 0.200870
v 8.759084 26.984133 -15.212324
v 18.031082 26.726158 -10.270363
v 24.255865 26.735643 -6.892112
v 19.876087 26.851480 4.122894
vn 0.0040 1.0000 0.0039
vn 0.0040 1.0000 -0.0039
vn 0.0040 1.0000 0.0040
vn 0.0039 1.0000 -0.0040
vn -0.0040 0.9999 -0.0119
vt -1.961914 -1.326172
vt 1.373047 -1.291016
vt -3.205078 0.249512
vt -0.646484 2.308594
vt 1.087891 3.681641
vt 3.714844 1.072388
s 1
usemtl MASTER_Roofing_Shingle_Grey
f 1/1/1 2/2/2 3/3/3
f 2/2/2 4/4/4 3/3/3
f 4/4/4 2/2/2 5/5/5
f 2/2/2 6/6/5 5/5/5
