# Blender 3.6.18
# www.blender.org
mtllib Mesh.959.mtl
o Bistro_Research_Exterior_Paris_Building_01_paris_buildi_596b52e
v 5.645818 6.510746 4.368844
v 5.881366 6.510745 4.462009
v 5.651833 6.530233 4.353638
v 5.887381 6.530232 4.446803
v 5.817375 6.656733 4.623797
v 5.823390 6.676221 4.608590
v 5.581827 6.656733 4.530632
v 5.587842 6.676222 4.515425
v 5.887100 6.761283 4.439951
v 5.772715 6.761282 4.394709
v 5.853963 6.734518 4.524723
v 5.739239 6.734518 4.479346
v 5.851385 6.718973 4.531241
v 5.892334 6.749345 4.426720
v 5.736660 6.718973 4.485865
v 5.658330 6.761282 4.349466
v 5.624515 6.734519 4.433969
v 5.621936 6.718974 4.440488
v 5.663563 6.749345 4.336235
v 5.679488 6.572559 4.357786
v 5.865187 6.572559 4.431234
v 5.629016 6.687704 4.485391
v 5.814715 6.687704 4.558840
v 5.634902 6.508593 4.335203
v 5.913157 6.508593 4.445260
v 5.837531 6.681127 4.636466
v 5.559275 6.681127 4.526409
v 5.927938 6.485868 4.448546
v 5.933953 6.505356 4.433341
v 5.934331 6.513966 4.444525
v 5.928316 6.494477 4.459731
v 5.856085 6.692475 4.642352
v 5.850070 6.672987 4.657559
v 5.848159 6.701085 4.650252
v 5.842144 6.681598 4.665459
v 5.834445 6.703955 4.648506
v 5.828431 6.684467 4.663713
v 5.555442 6.703957 4.538154
v 5.549428 6.684469 4.553360
v 5.544244 6.701085 4.530046
v 5.538229 6.681598 4.545253
v 5.543866 6.692475 4.518862
v 5.537851 6.672987 4.534069
v 5.622112 6.513966 4.321034
v 5.616097 6.494477 4.336240
v 5.630038 6.505356 4.313135
v 5.624023 6.485867 4.328341
v 5.643752 6.502486 4.314880
v 5.637738 6.482997 4.330087
v 5.922755 6.502485 4.425233
v 5.916740 6.482997 4.440439
v 5.921901 6.749345 4.438414
v 5.946926 6.692255 4.375145
v 5.917358 6.692254 4.363451
v 5.802973 6.692255 4.318208
v 5.777948 6.749345 4.381477
v 5.688588 6.692255 4.272966
v 5.633996 6.749345 4.324541
v 5.659020 6.692255 4.261271
v 5.696190 6.689202 4.588185
v 5.581133 6.689203 4.542677
v 5.551485 6.689202 4.530951
v 5.592328 6.718974 4.428777
v 5.811248 6.689203 4.633693
v 5.840896 6.689203 4.645420
v 5.880993 6.718974 4.542952
v 5.934205 6.597578 4.408419
v 5.921735 6.504776 4.441034
v 5.645539 6.597578 4.294245
v 5.632325 6.504775 4.326565
v 5.892087 6.504776 4.429308
v 5.777030 6.504775 4.383800
v 5.789871 6.597578 4.351332
v 5.904596 6.597578 4.396708
v 5.661973 6.504775 4.338292
v 5.675147 6.597578 4.305955
v 5.904841 6.502611 4.460870
v 5.833723 6.664860 4.640678
v 5.829760 6.669165 4.644628
v 5.641778 6.496871 4.349465
v 5.634921 6.498306 4.348592
v 5.630958 6.502611 4.352542
v 5.559839 6.664860 4.532351
v 5.560029 6.669167 4.537942
v 5.565628 6.670601 4.541996
v 5.822903 6.670600 4.643754
vn -0.2871 0.6410 0.7118
vn -0.2870 0.6410 0.7118
vn -0.9293 -0.0039 -0.3694
vn 0.2769 -0.6435 -0.7137
vn 0.9309 -0.0039 0.3653
vn -0.1067 0.9605 0.2569
vn 0.9335 -0.0039 0.3584
vn 0.9335 -0.0039 0.3585
vn -0.3428 0.4059 0.8472
vn -0.9282 -0.0039 -0.3720
vn -0.9282 -0.0039 -0.3721
vn -0.2387 -0.7707 0.5908
vn -0.3737 -0.0748 0.9245
vn -0.8052 -0.5641 0.1828
vn 0.0351 -0.9946 -0.0975
vn 0.4515 -0.5693 0.6871
vn 0.9705 -0.2082 0.1218
vn 0.9705 -0.2083 0.1218
vn 0.9630 -0.1061 0.2476
vn 0.8728 0.0987 0.4779
vn 0.8728 0.0988 0.4779
vn 0.4557 0.4556 0.7647
vn 0.4556 0.4557 0.7647
vn -0.1302 0.6351 0.7614
vn -0.1302 0.6351 0.7613
vn -0.4296 0.6346 0.6425
vn -0.4296 0.6346 0.6424
vn -0.5690 0.6083 0.5533
vn -0.9715 0.1990 -0.1287
vn -0.9715 0.1990 -0.1288
vn -0.9625 0.0974 -0.2533
vn -0.8708 -0.1054 -0.4803
vn -0.4575 -0.4575 -0.7625
vn 0.1211 -0.6366 -0.7616
vn 0.4189 -0.6381 -0.6460
vn 0.5586 -0.6132 -0.5586
vn 0.5585 -0.6132 -0.5585
vn 0.2316 0.7654 -0.6005
vn 0.2315 0.7654 -0.6005
vn -0.0985 0.9657 0.2404
vn -0.0986 0.9657 0.2404
vn 0.3397 -0.3553 -0.8708
vn 0.3397 -0.3554 -0.8708
vn 0.2315 0.7653 -0.6005
vn -0.2386 -0.7707 0.5908
vn -0.2387 -0.7708 0.5907
vt 0.666016 0.905579
vt 0.982422 0.905579
vt 0.666016 0.937378
vt 0.982422 0.937378
vt 0.621094 0.562988
vt 0.621094 0.846924
vt 0.589355 0.562988
vt 0.589355 0.846924
vt 0.987793 0.985191
vt 0.671387 0.985191
vt 0.987793 0.953400
vt 0.671387 0.953400
vt 0.924316 0.406738
vt 0.924316 0.123047
vt 0.956055 0.406738
vt 0.956055 0.123047
vt 0.836914 0.436035
vt 0.990723 0.436035
vt 0.836914 0.554199
vt 0.990723 0.554199
vt 0.079041 0.406738
vt 0.224243 0.406738
vt 0.092773 0.424805
vt 0.211182 0.424805
vt 0.080078 0.370117
vt 0.233765 0.370117
vt 0.080078 0.391602
vt 0.233765 0.391602
vt 0.737793 0.576416
vt 0.987305 0.576416
vt 0.737793 0.800171
vt 0.987305 0.800171
vt 0.016449 0.510986
vt 0.390137 0.510986
vt 0.078613 0.591064
vt 0.328125 0.591064
vt 0.013008 0.631836
vt 0.348389 0.631836
vt 0.068787 0.716553
vt 0.292480 0.716553
vt 0.811035 0.171387
vt 0.437256 0.171387
vt 0.749023 0.091309
vt 0.499268 0.091309
vt 0.336670 0.861938
vt 0.671875 0.861938
vt 0.392334 0.946625
vt 0.616211 0.946625
vt 0.809082 0.050293
vt 0.809082 0.082031
vt 0.791504 0.082031
vt 0.791504 0.050293
vt 0.444580 0.082031
vt 0.444580 0.050293
vt 0.427002 0.082031
vt 0.427002 0.050293
vt 0.409424 0.082031
vt 0.409424 0.050293
vt 0.034393 0.082031
vt 0.034393 0.050293
vt 0.016754 0.082031
vt 0.016754 0.050293
vt 0.809082 0.007324
vt 0.809082 0.039062
vt 0.791504 0.039062
vt 0.791504 0.007324
vt 0.444580 0.039062
vt 0.444580 0.007324
vt 0.427002 0.039062
vt 0.427002 0.007324
vt 0.409424 0.039062
vt 0.409424 0.007324
vt 0.034393 0.039062
vt 0.034393 0.007324
vt 0.016754 0.039062
vt 0.016754 0.007324
vt 0.503418 0.354492
vt 0.503418 0.243164
vt 0.543457 0.243164
vt 0.543457 0.354492
vt 0.665039 0.243164
vt 0.665039 0.354492
vt 0.543457 0.377441
vt 0.665039 0.377441
vt 0.075195 0.336426
vt 0.217651 0.336426
vt 0.075012 0.206543
vt 0.217529 0.206543
vt 0.074890 0.166992
vt 0.217407 0.166992
vt 0.362549 0.166992
vt 0.362793 0.206543
vt 0.103027 0.732666
vt 0.213989 0.732666
vt 0.061066 0.851929
vt 0.297119 0.851929
vt 0.378418 0.968811
vt 0.019943 0.968811
vt 0.412109 0.564697
vt 0.565918 0.564697
vt 0.565918 0.688721
vt 0.565918 0.815063
vt 0.412109 0.815063
vt 0.412109 0.688721
vt 0.372314 0.564697
vt 0.372314 0.815063
vt 0.372314 0.688721
vt 0.747070 0.229492
vt 0.769531 0.185059
vt 0.783203 0.189941
vt 0.462646 0.185059
vt 0.787598 0.203613
vt 0.488281 0.229492
vt 0.747070 0.461426
vt 0.448975 0.189941
vt 0.787598 0.487305
vt 0.444336 0.203613
vt 0.783203 0.501221
vt 0.444336 0.487305
vt 0.769531 0.505615
vt 0.488281 0.461426
vt 0.448975 0.501221
vt 0.462646 0.505615
vt 0.428711 0.121094
vt 0.428711 0.468262
vt 0.402100 0.136719
vt 0.423096 0.104004
vt 0.402100 0.452148
vt 0.423096 0.484863
vt 0.375244 0.152344
vt 0.406494 0.098633
vt 0.375244 0.436523
vt 0.399170 0.460449
vt 0.406494 0.490234
vt 0.045135 0.125488
vt 0.031555 0.098633
vt 0.058746 0.152344
vt 0.036774 0.128418
vt 0.014816 0.104004
vt 0.033966 0.136719
vt 0.009216 0.121094
vt 0.033966 0.452148
vt 0.009216 0.468262
vt 0.058746 0.436523
vt 0.036774 0.460449
vt 0.014816 0.484863
vt 0.045135 0.463379
vt 0.031555 0.490234
vt 0.390869 0.463379
s 1
usemtl MASTER_Focus
f 1/1/1 2/2/1 3/3/1
f 2/2/1 4/4/2 3/3/1
f 2/5/3 5/6/3 4/7/3
f 5/6/3 6/8/3 4/7/3
f 5/9/4 7/10/4 6/11/4
f 7/10/4 8/12/4 6/11/4
f 7/13/5 1/14/5 8/15/5
f 1/14/5 3/16/5 8/15/5
f 9/17/6 10/18/6 11/19/6
f 10/18/6 12/20/6 11/19/6
f 13/21/7 14/22/7 11/23/7
f 14/22/7 9/24/8 11/23/7
f 15/25/9 13/26/9 12/27/9
f 13/26/9 11/28/9 12/27/9
f 16/17/6 17/19/6 10/18/6
f 17/19/6 12/20/6 10/18/6
f 18/21/10 17/23/11 19/22/11
f 17/23/11 16/24/11 19/22/11
f 15/25/9 12/27/9 18/26/9
f 12/27/9 17/28/9 18/26/9
f 20/29/12 21/30/12 22/31/12
f 21/30/12 23/32/12 22/31/12
f 24/33/13 25/34/13 20/35/13
f 25/34/13 21/36/13 20/35/13
f 25/37/14 26/38/14 21/39/14
f 26/38/14 23/40/14 21/39/14
f 26/41/15 27/42/15 23/43/15
f 27/42/15 22/44/15 23/43/15
f 27/45/16 24/46/16 22/47/16
f 24/46/16 20/48/16 22/47/16
f 28/49/17 29/50/18 30/51/19
f 31/52/19 28/49/17 30/51/19
f 31/52/19 30/51/19 32/53/20
f 33/54/21 31/52/19 32/53/20
f 33/54/21 32/53/20 34/55/22
f 35/56/23 33/54/21 34/55/22
f 35/56/23 34/55/22 36/57/24
f 37/58/25 35/56/23 36/57/24
f 37/58/25 36/57/24 38/59/26
f 39/60/27 37/58/25 38/59/26
f 39/60/27 38/59/26 40/61/28
f 41/62/28 39/60/27 40/61/28
f 41/63/29 40/64/30 42/65/31
f 43/66/31 41/63/29 42/65/31
f 43/66/31 42/65/31 44/67/32
f 45/68/32 43/66/31 44/67/32
f 45/68/32 44/67/32 46/69/33
f 47/70/33 45/68/32 46/69/33
f 47/70/33 46/69/33 48/71/34
f 49/72/34 47/70/33 48/71/34
f 49/72/34 48/71/34 50/73/35
f 51/74/35 49/72/34 50/73/35
f 51/74/35 50/73/35 29/75/36
f 28/76/37 51/74/35 29/75/36
f 52/77/38 53/78/38 54/79/38
f 14/80/38 52/77/38 54/79/38
f 14/80/38 54/79/38 55/81/39
f 56/82/38 14/80/38 55/81/39
f 14/80/38 56/82/38 9/83/38
f 56/82/38 10/84/38 9/83/38
f 16/83/38 10/84/38 56/82/38
f 19/80/38 16/83/38 56/82/38
f 56/82/38 55/81/39 19/80/38
f 55/81/39 57/79/38 19/80/38
f 19/80/38 57/79/38 58/77/38
f 57/79/38 59/78/38 58/77/38
f 60/85/40 15/86/40 61/87/41
f 15/86/40 18/88/40 61/87/41
f 61/87/41 18/88/40 62/89/40
f 18/88/40 63/90/40 62/89/40
f 63/90/40 18/88/40 58/91/40
f 18/88/40 19/92/40 58/91/40
f 60/85/40 64/87/40 15/86/40
f 64/87/40 13/88/40 15/86/40
f 64/87/40 65/89/40 13/88/40
f 65/89/40 66/90/40 13/88/40
f 66/90/40 52/91/40 13/88/40
f 52/91/40 14/92/40 13/88/40
f 53/93/5 52/94/5 67/95/5
f 52/94/5 66/96/5 67/95/5
f 66/96/5 65/97/5 67/95/5
f 65/97/5 68/98/5 67/95/5
f 59/93/11 69/95/11 58/94/11
f 69/95/11 63/96/11 58/94/11
f 63/96/11 69/95/11 62/97/11
f 69/95/11 70/98/11 62/97/11
f 71/99/42 72/100/43 73/101/43
f 55/102/43 54/103/43 73/101/43
f 74/104/43 71/99/42 73/101/43
f 54/103/43 74/104/43 73/101/43
f 68/105/42 71/99/42 74/104/43
f 54/103/43 53/106/43 74/104/43
f 67/107/43 68/105/42 74/104/43
f 53/106/43 67/107/43 74/104/43
f 73/101/43 72/100/43 75/99/43
f 55/102/43 73/101/43 57/103/43
f 76/104/43 73/101/43 75/99/43
f 73/101/43 76/104/43 57/103/43
f 76/104/43 75/99/43 70/105/43
f 57/103/43 76/104/43 59/106/43
f 69/107/43 76/104/43 70/105/43
f 76/104/43 69/107/43 59/106/43
f 3/108/38 48/109/38 46/110/44
f 50/111/38 48/109/38 3/108/38
f 3/108/38 46/110/44 44/112/38
f 4/113/38 50/111/38 3/108/38
f 3/108/38 44/112/38 8/114/38
f 4/113/38 29/115/38 50/111/38
f 44/112/38 42/116/38 8/114/38
f 4/113/38 30/117/38 29/115/38
f 8/114/38 42/116/38 40/118/38
f 32/119/44 30/117/38 4/113/38
f 8/114/38 40/118/38 38/120/39
f 6/121/38 32/119/44 4/113/38
f 8/114/38 38/120/39 6/121/38
f 6/121/38 34/122/38 32/119/44
f 38/120/39 36/123/38 6/121/38
f 6/121/38 36/123/38 34/122/38
f 31/124/12 33/125/12 77/126/12
f 31/124/12 77/126/12 28/127/12
f 33/125/12 78/128/12 77/126/12
f 33/125/12 35/129/12 78/128/12
f 28/127/12 77/126/12 2/130/12
f 51/131/12 28/127/12 2/130/12
f 78/128/12 5/132/12 77/126/12
f 5/132/12 2/130/12 77/126/12
f 35/129/12 79/133/12 78/128/12
f 79/133/12 5/132/12 78/128/12
f 35/129/12 37/134/12 79/133/12
f 51/131/12 2/130/12 80/135/12
f 49/136/12 51/131/12 80/135/12
f 2/130/12 1/137/12 80/135/12
f 49/136/12 80/135/12 81/138/12
f 80/135/12 1/137/12 81/138/12
f 47/139/12 49/136/12 81/138/12
f 47/139/12 81/138/12 82/140/12
f 81/138/12 1/137/12 82/140/12
f 45/141/12 47/139/12 82/140/12
f 82/140/12 1/137/12 83/142/12
f 45/141/12 82/140/12 83/142/12
f 43/143/12 45/141/12 83/142/12
f 1/137/12 7/144/45 83/142/12
f 43/143/12 83/142/12 84/145/12
f 83/142/12 7/144/45 84/145/12
f 41/146/12 43/143/12 84/145/12
f 41/146/12 84/145/12 85/147/12
f 84/145/12 7/144/45 85/147/12
f 39/148/12 41/146/12 85/147/12
f 85/147/12 7/144/45 86/149/46
f 39/148/12 85/147/12 86/149/46
f 7/144/45 5/132/12 86/149/46
f 37/134/12 39/148/12 86/149/46
f 86/149/46 5/132/12 79/133/12
f 37/134/12 86/149/46 79/133/12
