# Blender 3.6.18
# www.blender.org
mtllib Mesh.829.mtl
o Bistro_Research_Exterior_Paris_Building_01_paris_buildi_455da39
v 0.451801 3.784919 -10.176689
v 0.451801 3.783967 -10.176689
v 1.655231 3.784919 -12.408774
v 1.655231 3.783967 -12.408774
v 0.449831 3.872122 -10.177752
v 0.449867 3.871235 -10.177732
v 1.653261 3.872122 -12.409837
v 1.653297 3.871235 -12.409818
v 0.616728 3.784919 -10.087037
v 1.835452 3.784919 -12.310809
v 0.616728 3.783966 -10.087037
v 1.835452 3.783967 -12.310809
v 0.641076 3.812451 -10.073693
v 1.859799 3.812451 -12.297465
v 0.641612 3.843645 -10.073399
v 1.860336 3.843646 -12.297171
v 0.618691 3.872122 -10.085960
v 1.837414 3.872122 -12.309733
v 0.618656 3.871235 -10.085980
v 1.837379 3.871235 -12.309752
v 0.503458 3.879444 -10.148838
v 1.706887 3.879444 -12.380924
v 1.660013 3.879444 -12.406197
v 0.456583 3.879443 -10.174110
v 1.652971 3.879444 -12.409993
v 0.449541 3.879443 -10.177908
v 1.655231 3.776702 -12.408774
v 0.451801 3.776701 -10.176689
v 1.662273 3.776701 -12.404977
v 0.458843 3.776701 -10.172892
v 1.709354 3.776703 -12.379595
v 0.505924 3.776703 -10.147510
v 1.653587 3.863914 -12.409660
v 0.450157 3.863913 -10.177576
v 1.647142 3.860604 -12.413136
v 0.443712 3.860604 -10.181050
v 1.636558 3.855170 -12.418842
v 0.433128 3.855170 -10.186757
v 1.630112 3.851861 -12.422317
v 0.426682 3.851861 -10.190232
v 1.630254 3.843646 -12.422241
v 0.426824 3.843645 -10.190156
v 1.630792 3.812451 -12.421949
v 0.427363 3.812451 -10.189865
v 1.630934 3.804235 -12.421874
v 0.427504 3.804235 -10.189789
v 1.637415 3.801021 -12.418381
v 0.433985 3.801021 -10.186296
v 1.648751 3.795398 -12.412269
v 0.445321 3.795398 -10.180183
v 1.655231 3.792184 -12.408774
v 0.451801 3.792184 -10.176689
v 0.562807 3.776703 -10.116588
v 1.781531 3.776703 -12.340360
v 0.609713 3.776702 -10.090881
v 1.828436 3.776702 -12.314653
v 0.616728 3.776701 -10.087037
v 1.835452 3.776701 -12.310809
v 0.616728 3.792184 -10.087037
v 1.835452 3.792184 -12.310809
v 0.623185 3.795398 -10.083499
v 1.841908 3.795398 -12.307270
v 0.634478 3.801021 -10.077309
v 1.853202 3.801021 -12.301081
v 0.640935 3.804235 -10.073771
v 1.859658 3.804236 -12.297543
v 0.641754 3.851861 -10.073320
v 1.860477 3.851861 -12.297093
v 0.635332 3.855170 -10.076840
v 1.854056 3.855170 -12.300612
v 0.624788 3.860604 -10.082620
v 1.843511 3.860604 -12.306391
v 0.618367 3.863913 -10.086138
v 1.837090 3.863913 -12.309912
v 0.618980 3.879443 -10.085802
v 1.837704 3.879443 -12.309575
v 0.611965 3.879443 -10.089647
v 1.830688 3.879443 -12.313419
v 0.565264 3.879444 -10.115241
v 1.783988 3.879444 -12.339013
vn 0.8789 -0.0039 0.4769
vn 0.8814 0.0435 0.4704
vn 0.8814 0.0435 0.4703
vn -0.8774 -0.0039 -0.4797
vn 0.8789 -0.0257 0.4762
vn 0.8792 -0.0230 0.4759
vn 0.8788 -0.0197 0.4768
vn -0.8766 0.0429 -0.4792
vn -0.8767 0.0428 -0.4792
vn -0.0039 1.0000 -0.0039
vn -0.6469 0.6782 -0.3488
vn -0.8796 -0.0508 -0.4730
vn -0.6468 0.6782 -0.3489
vn -0.6289 -0.6993 -0.3399
vn -0.6289 -0.6992 -0.3399
vn -0.6290 -0.6992 -0.3398
vn -0.0039 -1.0000 -0.0039
vn -0.7545 0.5121 -0.4104
vn -0.7545 0.5121 -0.4105
vn -0.7560 0.5121 -0.4076
vn -0.3659 0.9088 -0.2006
vn -0.7505 0.5226 -0.4046
vn -0.7504 0.5226 -0.4047
vn -0.8806 -0.0196 -0.4735
vn -0.8805 -0.0196 -0.4736
vn -0.7345 -0.5480 -0.4003
vn -0.3545 -0.9154 -0.1909
vn -0.7376 -0.5425 -0.4020
vn -0.7394 -0.5425 -0.3987
vn -0.8775 -0.0039 -0.4796
vn 0.6242 -0.7027 0.3415
vn 0.6241 -0.7027 0.3415
vn 0.8789 -0.0040 0.4769
vn 0.7340 -0.5457 0.4043
vn 0.7340 -0.5456 0.4043
vn 0.3476 -0.9179 0.1914
vn 0.7295 -0.5560 0.3983
vn 0.7470 0.5256 0.4071
vn 0.7470 0.5257 0.4071
vn 0.3596 0.9128 0.1936
vn 0.3596 0.9128 0.1937
vn 0.7535 0.5168 0.4064
vn 0.7535 0.5168 0.4063
vn 0.8778 -0.0512 0.4763
vn 0.6422 0.6816 0.3506
vt 0.453125 0.764160
vt 0.453125 0.764404
vt -0.338867 0.764160
vt -0.338867 0.764404
vt 0.453125 0.802368
vt 0.453125 0.802612
vt -0.338867 0.802368
vt -0.338867 0.802612
vt 0.463867 0.556152
vt -0.328125 0.550537
vt 0.463867 0.555908
vt -0.328125 0.550049
vt 0.463867 0.539551
vt -0.327881 0.538086
vt 0.463867 0.528564
vt -0.327881 0.530029
vt 0.463867 0.512207
vt -0.328125 0.518066
vt -0.328125 0.517822
vt 0.453125 0.824219
vt -0.338867 0.824219
vt -0.338867 0.807617
vt 0.453125 0.807617
vt -0.338867 0.805054
vt 0.453125 0.805054
vt -0.338867 0.761719
vt 0.453125 0.761719
vt -0.338867 0.759155
vt 0.453125 0.759155
vt -0.338867 0.742432
vt 0.453125 0.742432
vt -0.338867 0.799805
vt 0.453125 0.799805
vt -0.338867 0.797363
vt 0.453125 0.797363
vt -0.338867 0.793213
vt 0.453125 0.793213
vt -0.338867 0.790771
vt 0.453125 0.790771
vt -0.338867 0.788208
vt 0.453125 0.788208
vt -0.338867 0.778809
vt 0.453125 0.778809
vt -0.338867 0.776245
vt 0.453125 0.776245
vt -0.338867 0.773804
vt 0.453125 0.773804
vt -0.338867 0.769409
vt 0.453125 0.769409
vt -0.338867 0.766968
vt 0.453125 0.766968
vt 0.463623 0.577637
vt -0.328125 0.572266
vt 0.463867 0.561035
vt -0.328125 0.555664
vt 0.463867 0.558594
vt -0.328125 0.552979
vt 0.463867 0.553467
vt -0.328125 0.547607
vt 0.463867 0.551025
vt -0.328125 0.545166
vt 0.463867 0.546631
vt -0.327881 0.540771
vt 0.463867 0.543457
vt -0.327881 0.539062
vt 0.463867 0.524414
vt -0.327881 0.529053
vt 0.463867 0.521240
vt -0.327881 0.527344
vt 0.463867 0.517090
vt -0.328125 0.523193
vt 0.463867 0.514648
vt -0.328125 0.520508
vt 0.463867 0.509766
vt -0.328125 0.515137
vt 0.463867 0.507324
vt -0.328125 0.512695
vt 0.463867 0.490723
vt -0.328125 0.496094
s 1
usemtl MASTER_Wood_Painted3
f 1/1/1 2/2/1 3/3/1
f 2/2/1 4/4/1 3/3/1
f 5/5/2 6/6/2 7/7/2
f 6/6/3 8/8/3 7/7/3
f 9/9/4 10/10/4 11/11/4
f 10/10/4 12/12/4 11/11/4
f 13/13/5 14/14/6 15/15/7
f 14/14/6 16/16/7 15/15/7
f 17/17/8 18/18/9 19/17/8
f 18/18/9 20/19/9 19/17/8
f 21/20/10 22/21/10 23/22/10
f 24/23/10 21/20/10 23/22/10
f 24/23/10 23/22/10 25/24/11
f 26/25/11 24/23/10 25/24/11
f 26/25/11 25/24/11 8/8/12
f 6/6/12 26/25/13 8/8/12
f 1/1/4 3/3/4 27/26/14
f 28/27/15 1/1/4 27/26/16
f 28/27/15 27/26/16 29/28/17
f 30/29/17 28/27/15 29/28/17
f 30/29/17 29/28/17 31/30/17
f 32/31/17 30/29/17 31/30/17
f 5/5/12 7/7/12 33/32/18
f 34/33/19 5/5/12 33/32/20
f 34/33/19 33/32/20 35/34/21
f 36/35/21 34/33/19 35/34/21
f 36/35/21 35/34/21 37/36/21
f 38/37/21 36/35/21 37/36/21
f 38/37/21 37/36/21 39/38/22
f 40/39/23 38/37/21 39/38/22
f 40/39/23 39/38/22 41/40/24
f 42/41/24 40/39/23 41/40/24
f 42/41/24 41/40/24 43/42/25
f 44/43/24 42/41/24 43/42/25
f 44/43/24 43/42/25 45/44/26
f 46/45/26 44/43/24 45/44/26
f 46/45/26 45/44/26 47/46/27
f 48/47/27 46/45/26 47/46/27
f 48/47/27 47/46/27 49/48/27
f 50/49/27 48/47/27 49/48/27
f 50/49/27 49/48/27 51/50/28
f 52/51/29 50/49/27 51/50/28
f 52/51/29 51/50/28 4/4/4
f 2/2/30 52/51/28 4/4/30
f 53/52/17 54/53/17 55/54/17
f 54/53/17 56/55/17 55/54/17
f 55/54/17 56/55/17 57/56/31
f 56/55/17 58/57/32 57/56/31
f 57/56/31 58/57/32 9/9/1
f 58/57/32 10/10/1 9/9/1
f 11/11/33 12/12/1 59/58/34
f 12/12/1 60/59/35 59/58/34
f 59/58/34 60/59/35 61/60/36
f 60/59/35 62/61/36 61/60/36
f 61/60/36 62/61/36 63/62/36
f 62/61/36 64/63/36 63/62/36
f 63/62/36 64/63/36 65/64/37
f 64/63/36 66/65/37 65/64/37
f 65/64/37 66/65/37 13/13/5
f 66/65/37 14/14/6 13/13/5
f 15/15/7 16/16/7 67/66/38
f 16/16/7 68/67/39 67/66/38
f 67/66/38 68/67/39 69/68/40
f 68/67/39 70/69/40 69/68/40
f 69/68/40 70/69/40 71/70/40
f 70/69/40 72/71/41 71/70/40
f 71/70/40 72/71/41 73/72/42
f 72/71/41 74/73/43 73/72/42
f 73/72/42 74/73/43 17/17/44
f 74/73/43 18/18/44 17/17/44
f 19/17/44 20/19/44 75/74/45
f 20/19/44 76/75/45 75/74/45
f 75/74/45 76/75/45 77/76/10
f 76/75/45 78/77/10 77/76/10
f 77/76/10 78/77/10 79/78/10
f 78/77/10 80/79/10 79/78/10
