# Blender 3.6.18
# www.blender.org
mtllib Mesh.922.mtl
o Bistro_Research_Exterior_Paris_Building_01_paris_buildi_592ff99
v -0.167709 6.637235 -10.052385
v -0.161610 6.631420 -10.049097
v -0.166326 6.646142 -10.051641
v -0.154129 6.634514 -10.045064
v -0.152746 6.643421 -10.044319
v -0.158845 6.649236 -10.047606
v -0.130423 6.600837 -10.030138
v -0.124324 6.595023 -10.026850
v -0.116843 6.598115 -10.022817
v -0.121560 6.612837 -10.025360
v -0.129041 6.609744 -10.029393
v -0.115461 6.607024 -10.022072
v -0.145666 6.646142 -10.089960
v -0.138185 6.649235 -10.085927
v -0.147048 6.637234 -10.090706
v -0.132086 6.643421 -10.082639
v -0.140950 6.631421 -10.087418
v -0.133468 6.634514 -10.083385
v -0.101630 6.637235 -10.174947
v -0.096107 6.631421 -10.170589
v -0.088914 6.634514 -10.166022
v -0.099959 6.646141 -10.174736
v -0.091153 6.634440 -10.187360
v -0.092766 6.649235 -10.170168
v -0.088329 6.643040 -10.188516
v -0.087244 6.643422 -10.165811
v -0.082290 6.646440 -10.182582
v -0.079074 6.641242 -10.175490
v -0.081899 6.632643 -10.174335
v -0.087938 6.629241 -10.180269
v -0.074202 6.628325 -10.177765
v -0.078286 6.623827 -10.184572
v -0.077590 6.626830 -10.193406
v -0.069422 6.635827 -10.179793
v -0.068778 6.616211 -10.183082
v -0.068726 6.638830 -10.188627
v -0.066569 6.622211 -10.176569
v -0.059914 6.628211 -10.178303
v -0.072810 6.634331 -10.195434
v -0.055468 6.628211 -10.186550
v -0.057677 6.622211 -10.193062
v -0.064332 6.616210 -10.191329
v -0.046376 6.617508 -10.176538
v -0.047309 6.610006 -10.181646
v -0.055240 6.605508 -10.181317
v -0.053375 6.620512 -10.171102
v -0.043956 6.609839 -10.161771
v -0.061305 6.616014 -10.170773
v -0.051647 6.615039 -10.160560
v -0.062238 6.608511 -10.175880
v -0.059924 6.611638 -10.162344
v -0.060510 6.603038 -10.165339
v -0.052819 6.597840 -10.166550
v -0.044542 6.601241 -10.164765
v -0.057470 6.595022 -10.150850
v -0.049701 6.598116 -10.147351
v -0.048606 6.607023 -10.146071
v -0.064145 6.600837 -10.153069
v -0.095287 6.598116 -10.062799
v -0.063050 6.609745 -10.151790
v -0.102768 6.595023 -10.066833
v -0.108867 6.600837 -10.070121
v -0.055281 6.612838 -10.148291
v -0.107484 6.609744 -10.069374
v -0.100003 6.612837 -10.065341
v -0.093905 6.607024 -10.062054
vn -0.4830 -0.0039 0.8756
vn -0.6778 0.6386 -0.3644
vn -0.8234 -0.3473 -0.4488
vn 0.1453 0.9859 0.0825
vn 0.1454 0.9859 0.0825
vn -0.1517 -0.9844 -0.0895
vn 0.8261 0.3438 0.4466
vn 0.6720 -0.6484 0.3576
vn 0.6720 -0.6485 0.3576
vn -0.7995 -0.3159 -0.5109
vn -0.2228 -0.9735 -0.0508
vn 0.6019 -0.6412 0.4760
vn -0.6076 0.6311 -0.4822
vn -0.6576 -0.3385 -0.6731
vn 0.1535 0.9881 0.0039
vn -0.3469 0.5496 -0.7600
vn 0.7827 0.3816 0.4917
vn 0.2786 0.9455 -0.1687
vn 0.6606 0.4549 0.5973
vn 0.3406 -0.5597 0.7555
vn -0.3691 -0.9284 0.0427
vn -0.0749 -0.3271 0.9420
vn -0.5425 -0.8313 0.1210
vn -0.4318 -0.4629 -0.7741
vn 0.4767 0.5554 0.6814
vn -0.7153 -0.6919 0.0977
vn 0.5089 0.8166 -0.2722
vn 0.3121 0.6913 0.6518
vn 0.0667 0.3179 -0.9458
vn 0.7334 0.6392 -0.2313
vn 0.4736 -0.0039 -0.8807
vn -0.2141 -0.6424 -0.7359
vn 0.8852 0.4603 -0.0669
vn 0.7424 -0.3260 -0.5853
vn -0.0664 -0.8161 -0.5740
vn 0.1852 0.8313 0.5240
vn 0.9255 0.3348 0.1772
vn -0.7512 0.3186 0.5782
vn 0.1611 0.9315 0.3262
vn -0.8297 -0.5571 -0.0351
vn -0.8253 0.5515 0.1213
vn -0.8617 -0.4562 -0.2223
vn -0.0272 -0.9436 -0.3301
vn 0.8184 -0.5600 -0.1292
vn -0.0974 -0.9859 -0.1364
vn 0.7284 -0.6417 0.2402
vn 0.8703 0.3111 0.3819
vn -0.8380 -0.3859 -0.3859
vn -0.7343 0.6322 -0.2474
vn 0.1541 0.9760 0.1541
vn 0.8260 0.3438 0.4466
vt 0.000000 1.000000
s 1
usemtl MASTER_Light_Bulb
f 1/1/1 2/1/1 3/1/1
f 2/1/1 4/1/1 3/1/1
f 4/1/1 5/1/1 3/1/1
f 5/1/1 6/1/1 3/1/1
f 7/1/1 8/1/1 9/1/1
f 7/1/1 9/1/1 10/1/1
f 11/1/1 7/1/1 10/1/1
f 12/1/1 10/1/1 9/1/1
f 3/1/2 13/1/2 1/1/3
f 14/1/4 13/1/2 3/1/2
f 6/1/5 14/1/4 3/1/2
f 13/1/2 15/1/3 1/1/3
f 1/1/3 15/1/3 2/1/6
f 16/1/7 14/1/4 6/1/5
f 5/1/7 16/1/7 6/1/5
f 15/1/3 17/1/6 2/1/6
f 2/1/6 17/1/6 4/1/8
f 4/1/8 18/1/9 5/1/7
f 17/1/6 18/1/9 4/1/8
f 18/1/9 16/1/7 5/1/7
f 15/1/3 19/1/10 17/1/6
f 17/1/6 20/1/11 18/1/9
f 19/1/10 20/1/11 17/1/6
f 18/1/9 21/1/12 16/1/7
f 20/1/11 21/1/12 18/1/9
f 22/1/13 19/1/10 15/1/3
f 13/1/2 22/1/13 15/1/3
f 19/1/10 23/1/14 20/1/11
f 24/1/15 22/1/13 13/1/2
f 14/1/4 24/1/15 13/1/2
f 22/1/13 25/1/16 19/1/10
f 25/1/16 23/1/14 19/1/10
f 16/1/7 26/1/17 14/1/4
f 26/1/17 24/1/15 14/1/4
f 21/1/12 26/1/17 16/1/7
f 24/1/15 27/1/18 22/1/13
f 27/1/18 25/1/16 22/1/13
f 26/1/17 28/1/19 24/1/15
f 28/1/19 27/1/18 24/1/15
f 21/1/12 29/1/20 26/1/17
f 29/1/20 28/1/19 26/1/17
f 20/1/11 30/1/21 21/1/12
f 30/1/21 29/1/20 21/1/12
f 23/1/14 30/1/21 20/1/11
f 29/1/20 31/1/22 28/1/19
f 30/1/21 32/1/23 29/1/20
f 32/1/23 31/1/22 29/1/20
f 23/1/14 33/1/24 30/1/21
f 33/1/24 32/1/23 30/1/21
f 31/1/22 34/1/25 28/1/19
f 28/1/19 34/1/25 27/1/18
f 32/1/23 35/1/26 31/1/22
f 34/1/25 36/1/27 27/1/18
f 27/1/18 36/1/27 25/1/16
f 31/1/22 37/1/1 34/1/25
f 35/1/26 37/1/1 31/1/22
f 34/1/25 38/1/28 36/1/27
f 37/1/1 38/1/28 34/1/25
f 36/1/27 39/1/29 25/1/16
f 25/1/16 39/1/29 23/1/14
f 39/1/29 33/1/24 23/1/14
f 36/1/27 40/1/30 39/1/29
f 38/1/28 40/1/30 36/1/27
f 39/1/29 41/1/31 33/1/24
f 40/1/30 41/1/31 39/1/29
f 33/1/24 42/1/32 32/1/23
f 41/1/31 42/1/32 33/1/24
f 42/1/32 35/1/26 32/1/23
f 40/1/30 43/1/33 41/1/31
f 41/1/31 44/1/34 42/1/32
f 43/1/33 44/1/34 41/1/31
f 42/1/32 45/1/35 35/1/26
f 44/1/34 45/1/35 42/1/32
f 46/1/36 43/1/33 40/1/30
f 38/1/28 46/1/36 40/1/30
f 43/1/33 47/1/37 44/1/34
f 48/1/38 46/1/36 38/1/28
f 37/1/1 48/1/38 38/1/28
f 46/1/36 49/1/39 43/1/33
f 49/1/39 47/1/37 43/1/33
f 35/1/26 50/1/40 37/1/1
f 50/1/40 48/1/38 37/1/1
f 45/1/35 50/1/40 35/1/26
f 48/1/38 51/1/41 46/1/36
f 51/1/41 49/1/39 46/1/36
f 50/1/40 52/1/42 48/1/38
f 52/1/42 51/1/41 48/1/38
f 45/1/35 53/1/43 50/1/40
f 53/1/43 52/1/42 50/1/40
f 44/1/34 54/1/44 45/1/35
f 54/1/44 53/1/43 45/1/35
f 47/1/37 54/1/44 44/1/34
f 53/1/43 55/1/45 52/1/42
f 54/1/44 56/1/46 53/1/43
f 56/1/46 55/1/45 53/1/43
f 47/1/37 57/1/47 54/1/44
f 57/1/47 56/1/46 54/1/44
f 55/1/45 58/1/48 52/1/42
f 52/1/42 58/1/48 51/1/41
f 56/1/46 59/1/9 55/1/45
f 58/1/48 60/1/49 51/1/41
f 51/1/41 60/1/49 49/1/39
f 55/1/45 61/1/6 58/1/48
f 59/1/9 61/1/6 55/1/45
f 58/1/48 62/1/3 60/1/49
f 61/1/6 62/1/3 58/1/48
f 60/1/49 63/1/50 49/1/39
f 49/1/39 63/1/50 47/1/37
f 63/1/50 57/1/47 47/1/37
f 60/1/49 64/1/2 63/1/50
f 62/1/3 64/1/2 60/1/49
f 63/1/50 65/1/4 57/1/47
f 64/1/2 65/1/4 63/1/50
f 57/1/47 66/1/51 56/1/46
f 65/1/4 66/1/51 57/1/47
f 66/1/51 59/1/9 56/1/46
f 64/1/2 11/1/2 65/1/4
f 7/1/3 11/1/2 64/1/2
f 62/1/3 7/1/3 64/1/2
f 11/1/2 10/1/4 65/1/4
f 65/1/4 10/1/4 66/1/51
f 8/1/6 7/1/3 62/1/3
f 61/1/6 8/1/6 62/1/3
f 10/1/4 12/1/51 66/1/51
f 66/1/51 12/1/51 59/1/9
f 9/1/8 8/1/6 61/1/6
f 12/1/51 9/1/8 59/1/9
f 59/1/9 9/1/8 61/1/6
