# Blender 3.6.18
# www.blender.org
mtllib Mesh.1061.mtl
o Bistro_Research_Exterior_Paris_Building_01_paris_buildi_5219fdf
v 13.292599 7.810866 6.519702
v 13.292598 7.921586 6.519703
v 13.091874 7.810866 7.024917
v 13.091874 7.921585 7.024916
v 13.075665 7.921585 7.031909
v 13.075666 7.810866 7.031909
v 10.759952 7.810866 6.109969
v 10.759952 7.921585 6.109969
v 10.752960 7.921585 6.093764
v 10.752960 7.810866 6.093765
v 10.952889 7.810866 5.590570
v 10.952889 7.921586 5.590570
v 10.964492 7.798386 5.595146
v 10.764559 7.798386 6.098372
v 13.280998 7.798386 6.515097
v 13.080274 7.798386 7.020310
v 13.280998 7.934065 6.515097
v 13.080274 7.934065 7.020310
v 10.764560 7.934065 6.098372
v 10.964492 7.934065 5.595146
vn 0.9241 -0.1062 0.3671
vn 0.9253 0.0984 0.3662
vn 0.9180 -0.1064 0.3821
vn 0.9187 0.0986 0.3824
vn -0.3748 -0.0039 0.9271
vn -0.3748 -0.0040 0.9271
vn -0.9327 0.0976 -0.3473
vn -0.9319 -0.1053 -0.3470
vn -0.9231 -0.1051 -0.3700
vn -0.9249 0.0975 -0.3675
vn -0.0047 -1.0000 -0.0020
vn -0.0039 -1.0000 -0.0039
vn -0.0048 1.0000 -0.0018
vn -0.0040 1.0000 -0.0039
vn -0.0039 1.0000 -0.0039
vt 1.201172 1.932129
vt 1.201172 1.891602
vt 1.399414 1.932129
vt 1.399414 1.891602
vt 1.406250 1.891602
vt 1.406250 1.932129
vt 2.314453 1.932129
vt 2.314453 1.891602
vt 2.320312 1.891602
vt 2.320312 1.932129
vt 2.519531 1.932129
vt 2.519531 1.891602
vt 2.380859 1.758301
vt 2.375000 1.758301
vt 2.380859 1.565430
vt 2.375000 1.561035
vt 2.376953 1.554688
vt 1.466797 1.758301
vt 1.467773 1.554688
vt 1.466797 1.561035
vt 1.460938 1.758301
vt 1.460938 1.554688
vt 1.463867 1.270996
vt 1.469727 1.270996
vt 1.463867 1.466553
vt 1.469727 1.468506
vt 1.468750 1.474609
vt 2.378906 1.474609
vt 2.378906 1.468506
vt 2.378906 1.270996
vt 2.384766 1.472412
vt 2.384766 1.270996
s 1
usemtl MASTER_Concrete_Smooth
f 1/1/1 2/2/2 3/3/3
f 2/2/2 4/4/4 3/3/3
f 4/4/4 5/5/5 3/3/3
f 5/5/5 6/6/5 3/3/3
f 6/6/5 5/5/5 7/7/5
f 5/5/5 8/8/6 7/7/5
f 7/7/5 8/8/6 9/9/7
f 10/10/8 7/7/5 9/9/7
f 11/11/9 10/10/8 9/9/7
f 12/12/10 11/11/9 9/9/7
f 11/13/9 13/14/11 10/15/8
f 13/14/11 14/16/12 10/15/8
f 7/17/5 10/15/8 14/16/12
f 13/14/11 15/18/12 14/16/12
f 7/17/5 14/16/12 6/19/5
f 15/18/12 16/20/12 14/16/12
f 14/16/12 16/20/12 6/19/5
f 16/20/12 15/18/12 1/21/1
f 3/22/3 6/19/5 16/20/12
f 3/22/3 16/20/12 1/21/1
f 2/23/2 17/24/13 4/25/4
f 17/24/13 18/26/14 4/25/4
f 18/26/14 5/27/5 4/25/4
f 5/27/5 18/26/14 8/28/6
f 18/26/14 17/24/13 19/29/15
f 18/26/14 19/29/15 8/28/6
f 17/24/13 20/30/15 19/29/15
f 19/29/15 9/31/7 8/28/6
f 19/29/15 20/30/15 12/32/10
f 9/31/7 19/29/15 12/32/10
