# Blender 3.6.18
# www.blender.org
mtllib Mesh.1097.mtl
o Bistro_Research_Exterior_Paris_Building_01_paris_buildi_33ede94
v 3.092294 10.938260 2.545584
v 2.250145 10.938260 2.223718
v 3.092295 8.062981 2.545584
v 2.250146 8.062981 2.223718
v 3.960421 8.062981 2.877380
v 3.960419 10.938260 2.877380
v 3.113337 8.062981 2.553628
v 3.113337 10.938260 2.553628
vn -0.3653 -0.0039 0.9309
vt 0.497803 0.988487
vt 0.251221 0.988487
vt 0.497803 0.225098
vt 0.251221 0.225098
vt 0.249146 0.225098
vt 0.249146 0.988487
vt 0.002602 0.225098
vt 0.002602 0.988487
s 1
usemtl MASTER_Curtains
f 1/1/1 2/2/1 3/3/1
f 2/2/1 4/4/1 3/3/1
f 5/5/1 6/6/1 7/7/1
f 6/6/1 8/8/1 7/7/1
