# Blender 3.6.18
# www.blender.org
mtllib Mesh.1029.mtl
o Bistro_Research_Exterior_Paris_Building_01_paris_buildi_60971b3
v 11.687306 11.625685 6.482522
v 11.781708 11.625685 6.246177
v 11.845062 11.024966 6.271492
v 11.778098 11.024966 6.439146
v 11.790030 11.024903 6.459930
v 11.699218 11.625749 6.503317
v 11.768729 11.562135 6.522653
v 12.026184 11.562136 6.625509
v 12.089888 11.625749 6.659394
v 11.839787 11.087853 6.488155
v 12.053933 11.024905 6.565364
v 12.076900 11.024967 6.558522
v 12.143859 11.024966 6.390882
v 12.207241 11.625687 6.416204
v 12.112846 11.625686 6.652531
v 11.998429 11.087853 6.551536
v 11.984585 11.099656 6.541949
v 12.017406 11.546297 6.614674
v 11.990865 11.105925 6.545295
v 11.856427 11.099655 6.490748
v 11.976619 11.117830 6.522805
v 11.849570 11.105925 6.488845
v 11.875392 11.117830 6.482363
v 11.868541 11.124100 6.480458
v 11.782557 11.546296 6.520846
v 11.969686 11.127257 6.521285
v 11.787505 11.552565 6.523661
v 11.806897 11.531957 6.509908
v 12.011882 11.552565 6.613303
v 11.811853 11.538226 6.512719
v 12.001775 11.538226 6.588595
v 12.007303 11.531957 6.589972
v 11.982897 11.124101 6.526145
v 11.997951 11.523994 6.585180
v 11.993713 11.528800 6.584126
v 11.820775 11.528800 6.515035
v 11.974498 11.132063 6.523845
v 11.816977 11.523994 6.512879
v 11.893710 11.486452 6.583455
v 11.897338 11.479096 6.585895
v 11.889400 11.479096 6.582723
v 11.915341 11.169919 6.540898
v 11.876212 11.132062 6.484578
v 11.907334 11.169919 6.537700
v 11.912539 11.162084 6.536292
v 11.881464 11.127256 6.486039
v 11.864126 11.010287 6.279110
v 11.797853 11.010288 6.445038
v 12.124795 11.010289 6.383265
v 12.058524 11.010288 6.549181
v 12.191587 11.640365 6.409949
v 12.096405 11.640364 6.648250
v 11.797361 11.640363 6.252432
v 11.702172 11.640363 6.490749
vn -0.9223 -0.1129 -0.3697
vn -0.9227 -0.1129 -0.3686
vn -0.9223 -0.1128 -0.3697
vn -0.3716 -0.1291 0.9194
vn -0.3717 -0.1291 0.9193
vn 0.9238 -0.1140 0.3656
vn 0.9226 -0.1140 0.3685
vn -0.2941 0.6313 0.7176
vn -0.9254 -0.0118 0.3788
vn -0.9254 -0.0117 0.3788
vn 0.4072 -0.0119 0.9133
vn 0.4072 -0.0118 0.9133
vn -0.2624 -0.7167 0.6462
vn -0.2233 -0.8031 0.5524
vn 0.4072 -0.0119 0.9132
vn -0.9254 -0.0117 0.3787
vn 0.1143 -0.1537 0.9815
vn -0.2872 0.6492 0.7043
vn -0.7621 -0.1524 0.6292
vn -0.7621 -0.1524 0.6293
vn -0.0047 -1.0000 -0.0019
vn -0.0039 -1.0000 -0.0039
vn -0.0047 1.0000 -0.0020
vn -0.0039 1.0000 -0.0039
vt 0.202637 0.280273
vt 0.124939 0.261719
vt 0.168823 0.077148
vt 0.223999 0.089844
vt 0.231567 0.090820
vt 0.210083 0.280762
vt 0.232422 0.261230
vt 0.320068 0.261230
vt 0.342285 0.280762
vt 0.249146 0.110352
vt 0.320801 0.090820
vt 0.328369 0.089844
vt 0.383545 0.077148
vt 0.427490 0.261719
vt 0.349854 0.280273
vt 0.303223 0.110352
vt 0.298096 0.113770
vt 0.316650 0.255859
vt 0.300781 0.115723
vt 0.254150 0.113770
vt 0.293213 0.119629
vt 0.251465 0.115723
vt 0.259033 0.119629
vt 0.257080 0.121582
vt 0.235840 0.255859
vt 0.291260 0.122070
vt 0.238037 0.258301
vt 0.242554 0.250488
vt 0.314453 0.258301
vt 0.244141 0.251953
vt 0.308105 0.251953
vt 0.309814 0.250488
vt 0.295410 0.121582
vt 0.307617 0.248047
vt 0.305664 0.250000
vt 0.246704 0.250000
vt 0.293457 0.123535
vt 0.244873 0.248047
vt 0.276123 0.235352
vt 0.276855 0.234863
vt 0.275391 0.234863
vt 0.277100 0.137695
vt 0.258789 0.123535
vt 0.275391 0.137695
vt 0.276123 0.136230
vt 0.260986 0.122070
vt 0.663574 0.433594
vt 0.671387 0.433594
vt 0.664062 0.491211
vt 0.671875 0.489746
vt 0.670898 0.496582
vt 0.760254 0.433105
vt 0.761230 0.496582
vt 0.760254 0.489746
vt 0.768555 0.433594
vt 0.768066 0.491211
vt 0.706055 0.096680
vt 0.713379 0.096680
vt 0.707031 0.177246
vt 0.713379 0.177246
vt 0.713379 0.183105
vt 0.847168 0.096680
vt 0.847168 0.183105
vt 0.846680 0.177246
vt 0.854492 0.096680
vt 0.853516 0.177246
s 1
usemtl MASTER_Concrete_Smooth
f 1/1/1 2/2/2 3/3/3
f 4/4/3 1/1/1 3/3/3
f 1/1/1 4/4/3 5/5/4
f 6/6/4 1/1/1 5/5/4
f 6/6/4 5/5/4 7/7/5
f 6/6/4 7/7/5 8/8/4
f 9/9/5 6/6/4 8/8/4
f 5/5/4 10/10/4 7/7/5
f 5/5/4 11/11/4 10/10/4
f 11/11/4 12/12/6 9/9/5
f 12/12/6 13/13/7 14/14/6
f 15/15/6 12/12/6 14/14/6
f 12/12/6 15/15/6 9/9/5
f 11/11/4 9/9/5 16/16/5
f 11/11/4 16/16/5 10/10/4
f 9/9/5 8/8/4 16/16/5
f 10/10/4 16/16/5 17/17/8
f 16/16/5 8/8/4 18/18/9
f 16/16/5 19/19/10 17/17/8
f 19/19/10 16/16/5 18/18/9
f 20/20/8 10/10/4 17/17/8
f 17/17/8 19/19/10 21/21/8
f 10/10/4 20/20/8 22/22/11
f 7/7/5 10/10/4 22/22/11
f 20/20/8 17/17/8 23/23/8
f 17/17/8 21/21/8 23/23/8
f 22/22/11 20/20/8 24/24/11
f 20/20/8 23/23/8 24/24/11
f 25/25/12 7/7/5 22/22/11
f 23/23/8 21/21/8 26/26/13
f 7/7/5 25/25/12 27/27/14
f 8/8/4 7/7/5 27/27/14
f 25/25/12 22/22/11 28/28/15
f 22/22/11 24/24/11 28/28/15
f 29/29/14 8/8/4 27/27/14
f 8/8/4 29/29/14 18/18/9
f 27/27/14 25/25/12 30/30/14
f 25/25/12 28/28/15 30/30/14
f 29/29/14 27/27/14 31/31/14
f 27/27/14 30/30/14 31/31/14
f 18/18/9 29/29/14 32/32/10
f 29/29/14 31/31/14 32/32/10
f 18/18/9 32/32/10 33/33/16
f 19/19/10 18/18/9 33/33/16
f 19/19/10 33/33/16 21/21/8
f 21/21/8 33/33/16 26/26/13
f 32/32/10 31/31/14 34/34/17
f 33/33/16 32/32/10 34/34/17
f 31/31/14 30/30/14 35/35/18
f 31/31/14 35/35/18 34/34/17
f 30/30/14 36/36/18 35/35/18
f 30/30/14 28/28/15 36/36/18
f 37/37/17 33/33/16 34/34/17
f 33/33/16 37/37/17 26/26/13
f 28/28/15 38/38/19 36/36/18
f 28/28/15 24/24/11 38/38/19
f 35/35/18 36/36/18 39/39/18
f 36/36/18 38/38/19 39/39/18
f 35/35/18 39/39/18 40/40/17
f 34/34/17 35/35/18 40/40/17
f 38/38/19 41/41/20 39/39/18
f 39/39/18 41/41/20 40/40/17
f 34/34/17 40/40/17 42/42/17
f 40/40/17 41/41/20 42/42/17
f 37/37/17 34/34/17 42/42/17
f 38/38/19 43/43/19 41/41/20
f 24/24/11 43/43/19 38/38/19
f 41/41/20 44/44/19 42/42/17
f 43/43/19 44/44/19 41/41/20
f 37/37/17 42/42/17 45/45/13
f 45/45/13 42/42/17 44/44/19
f 26/26/13 37/37/17 45/45/13
f 43/43/19 46/46/13 44/44/19
f 46/46/13 45/45/13 44/44/19
f 46/46/13 43/43/19 24/24/11
f 46/46/13 26/26/13 45/45/13
f 23/23/8 46/46/13 24/24/11
f 46/46/13 23/23/8 26/26/13
f 3/47/3 47/48/21 4/49/3
f 47/48/21 48/50/22 4/49/3
f 4/49/3 48/50/22 5/51/4
f 47/48/21 49/52/22 48/50/22
f 5/51/4 48/50/22 11/53/4
f 49/52/22 50/54/22 48/50/22
f 48/50/22 50/54/22 11/53/4
f 50/54/22 49/52/22 13/55/7
f 50/54/22 12/56/6 11/53/4
f 12/56/6 50/54/22 13/55/7
f 14/57/6 51/58/23 15/59/6
f 51/58/23 52/60/24 15/59/6
f 9/61/5 15/59/6 52/60/24
f 52/60/24 51/58/23 53/62/24
f 9/61/5 52/60/24 6/63/4
f 54/64/24 52/60/24 53/62/24
f 52/60/24 54/64/24 6/63/4
f 54/64/24 53/62/24 2/65/2
f 6/63/4 54/64/24 1/66/1
f 1/66/1 54/64/24 2/65/2
