# Blender 3.6.18
# www.blender.org
mtllib Mesh.679.mtl
o Bistro_Research_Exterior_paris_building_05_15__5181
v 49.019512 16.990105 21.620327
v 48.701344 16.990105 21.224352
v 48.654648 16.990105 21.261871
v 48.972828 16.990105 21.657845
v 48.654648 16.893986 21.261871
v 48.972828 16.893986 21.657845
v 49.019512 16.893986 21.620327
v 48.701344 16.893986 21.224352
v 48.972195 14.290564 21.652103
v 49.014412 14.290565 21.618181
v 49.014412 16.898325 21.618179
v 48.972195 16.898325 21.652103
v 48.923409 16.898325 21.591385
v 48.923409 14.290564 21.591385
v 48.965626 14.290565 21.557465
v 48.965626 16.898325 21.557465
v 48.944134 16.891827 21.585739
v 48.723530 16.891827 21.311201
v 48.723530 14.293643 21.311201
v 48.944134 14.293643 21.585739
v 48.704800 14.290564 21.232857
v 48.662575 14.290565 21.266783
v 48.662575 16.898325 21.266783
v 48.704800 16.898325 21.232857
v 48.753586 16.898325 21.293573
v 48.753586 14.290564 21.293573
v 48.711361 14.290565 21.327497
v 48.711361 16.898325 21.327497
v 49.019512 14.290148 21.620327
v 48.701344 14.290148 21.224352
v 48.654648 14.290148 21.261871
v 48.972828 14.290148 21.657845
v 48.654648 14.194028 21.261871
v 48.972828 14.194028 21.657845
v 49.019512 14.194028 21.620327
v 48.701344 14.194028 21.224352
v 48.695827 14.460616 21.236324
v 48.665321 14.460616 21.260839
v 48.665321 14.589514 21.260839
v 48.695827 14.589514 21.236324
v 48.667744 14.589514 21.263855
v 48.698250 14.589514 21.239344
v 48.698250 14.460616 21.239344
v 48.667744 14.460616 21.263855
v 48.705654 14.460616 21.176090
v 48.701420 14.460616 21.214996
v 48.701420 14.589514 21.214994
v 48.705654 14.589514 21.176090
v 48.705269 14.589514 21.215418
v 48.709507 14.589514 21.176510
v 48.709503 14.460616 21.176514
v 48.705265 14.460616 21.215416
v 49.206074 16.990105 21.218735
v 48.701088 16.990105 21.163723
v 48.694603 16.990105 21.223269
v 49.199581 16.990105 21.278280
v 48.694603 16.893986 21.223269
v 49.199581 16.893986 21.278280
v 49.206074 16.893986 21.218735
v 48.701088 16.893986 21.163723
v 49.195076 14.290564 21.274668
v 49.200943 14.290565 21.220825
v 49.200943 16.898325 21.220825
v 49.195076 16.898325 21.274668
v 49.117641 16.898325 21.266232
v 49.117641 14.290564 21.266232
v 49.123512 14.290565 21.212391
v 49.123512 16.898325 21.212391
v 48.780209 16.891827 21.190918
v 48.780209 14.293643 21.190918
v 49.130325 14.293643 21.229059
v 49.130325 16.891827 21.229059
v 48.709545 14.290564 21.167292
v 48.703682 14.290565 21.221134
v 48.703678 16.898325 21.221134
v 48.709545 16.898325 21.167292
v 48.786980 16.898325 21.175728
v 48.786980 14.290564 21.175728
v 48.781113 14.290565 21.229567
v 48.781113 16.898325 21.229567
v 49.206074 14.290148 21.218735
v 48.701088 14.290148 21.163723
v 48.694603 14.290148 21.223269
v 49.199581 14.290148 21.278280
v 48.694603 14.194028 21.223269
v 49.199581 14.194028 21.278280
v 49.206074 14.194028 21.218735
v 48.701088 14.194028 21.163723
v 48.705654 16.661913 21.176090
v 48.701420 16.661913 21.214996
v 48.701420 16.790810 21.214994
v 48.705654 16.790810 21.176090
v 48.705269 16.790810 21.215418
v 48.709507 16.790810 21.176510
v 48.709503 16.661913 21.176514
v 48.705265 16.661913 21.215416
v 48.695827 16.661913 21.236324
v 48.665321 16.661913 21.260839
v 48.665321 16.790810 21.260839
v 48.695827 16.790810 21.236324
v 48.667744 16.790810 21.263855
v 48.698250 16.790810 21.239344
v 48.698250 16.661913 21.239344
v 48.667744 16.661913 21.263855
v 48.707439 14.460974 21.236139
v 48.712051 14.460974 21.227732
v 48.712051 14.589177 21.227732
v 48.707439 14.589177 21.236139
v 48.698242 14.460974 21.238827
v 48.698242 14.589177 21.238827
v 48.689835 14.460974 21.234221
v 48.689835 14.589177 21.234221
v 48.687145 14.460974 21.225019
v 48.687145 14.589177 21.225019
v 48.691753 14.460974 21.216610
v 48.691753 14.589177 21.216610
v 48.700958 14.460974 21.213923
v 48.700958 14.589177 21.213923
v 48.709362 14.460974 21.218531
v 48.709362 14.589177 21.218531
v 48.707439 16.662271 21.236139
v 48.712051 16.662271 21.227732
v 48.712051 16.790476 21.227732
v 48.707439 16.790476 21.236139
v 48.698242 16.662271 21.238827
v 48.698242 16.790476 21.238827
v 48.689835 16.662271 21.234221
v 48.689835 16.790476 21.234221
v 48.687145 16.662271 21.225019
v 48.687145 16.790476 21.225019
v 48.691753 16.662271 21.216610
v 48.691753 16.790476 21.216610
v 48.700958 16.662271 21.213923
v 48.700958 16.790476 21.213923
v 48.709362 16.662271 21.218531
v 48.709362 16.790476 21.218531
v 48.699600 14.460974 21.226374
v 48.699600 14.589177 21.226374
v 48.699600 16.662271 21.226374
v 48.699600 16.790476 21.226374
vn -0.0039 1.0000 -0.0039
vn -0.7812 -0.0039 0.6242
vn -0.7813 -0.0040 0.6242
vn 0.7743 -0.0039 -0.6328
vn 0.6281 -0.0039 0.7782
vn 0.6281 -0.0040 0.7782
vn -0.6290 -0.0039 -0.7774
vn -0.0039 -1.0000 -0.0039
vn -0.7813 -0.0039 0.6242
vn 0.6280 -0.0039 0.7782
vn 0.6281 -0.0040 0.7781
vn -0.9936 -0.0039 -0.1130
vn 0.1053 -0.0039 -0.9944
vn -0.1139 -0.0039 0.9935
vn 0.9943 -0.0039 0.1061
vn -0.6289 -0.0039 -0.7774
vt 0.327881 0.353027
vt 0.327881 0.432129
vt 0.318604 0.432129
vt 0.318604 0.353027
vt 0.315430 0.432129
vt 0.300537 0.432129
vt 0.300537 0.352539
vt 0.315430 0.352539
vt 0.270020 0.352051
vt 0.284912 0.352051
vt 0.284912 0.431641
vt 0.270020 0.431641
vt 0.269775 0.345215
vt 0.269775 0.335938
vt 0.284912 0.335938
vt 0.284912 0.345215
vt 0.288086 0.345215
vt 0.288086 0.335938
vt 0.303223 0.335938
vt 0.303223 0.345215
vt 0.287842 0.352539
vt 0.297363 0.352539
vt 0.297363 0.432129
vt 0.287842 0.432129
vt 0.858398 0.978256
vt 0.848633 0.978256
vt 0.848633 0.570801
vt 0.858398 0.570801
vt 0.812012 0.571289
vt 0.812012 0.978668
vt 0.799805 0.978668
vt 0.799805 0.571289
vt 0.845215 0.572021
vt 0.845215 0.979340
vt 0.833008 0.979340
vt 0.833008 0.572021
vt 0.827637 0.980072
vt 0.817871 0.980072
vt 0.817871 0.572754
vt 0.827637 0.572754
vt 0.377197 0.011230
vt 0.432373 0.011230
vt 0.432373 0.416992
vt 0.377197 0.416992
vt 0.360107 0.465332
vt 0.354004 0.465332
vt 0.354004 0.445312
vt 0.360107 0.445312
vt 0.354004 0.442871
vt 0.360107 0.442871
vt 0.360107 0.443359
vt 0.354004 0.443359
vt 0.362061 0.445312
vt 0.362061 0.465332
vt 0.361328 0.465332
vt 0.361328 0.445312
vt 0.360107 0.467285
vt 0.354004 0.467285
vt 0.354004 0.466797
vt 0.360107 0.466797
vt 0.352051 0.465332
vt 0.352051 0.445312
vt 0.352783 0.445312
vt 0.352783 0.465332
vt 0.327637 0.464355
vt 0.326172 0.464355
vt 0.326172 0.443848
vt 0.327637 0.443848
vt 0.329102 0.464355
vt 0.329102 0.443848
vt 0.330566 0.464355
vt 0.330566 0.443848
vt 0.332031 0.464355
vt 0.332031 0.443848
vt 0.333496 0.464355
vt 0.333496 0.443848
vt 0.334473 0.464355
vt 0.334473 0.443848
vt 0.335938 0.464355
vt 0.335938 0.443848
vt 0.337402 0.464355
vt 0.337402 0.443848
vt 0.326172 0.466797
vt 0.327393 0.465820
vt 0.328125 0.467773
vt 0.326172 0.468262
vt 0.328857 0.465820
vt 0.327148 0.469238
vt 0.329834 0.466797
vt 0.328857 0.469238
vt 0.329834 0.468262
vt 0.333252 0.465820
vt 0.334717 0.465820
vt 0.333984 0.467773
vt 0.332275 0.466797
vt 0.335938 0.466797
vt 0.332275 0.468262
vt 0.335938 0.468750
vt 0.333252 0.469727
vt 0.334717 0.469727
s 1
usemtl MASTER_Building_Details
f 1/1/1 2/2/1 3/3/1
f 3/3/1 4/4/1 1/1/1
f 3/5/2 5/6/3 6/7/3
f 6/7/3 4/8/2 3/5/2
f 1/9/4 7/10/4 8/11/4
f 8/11/4 2/12/4 1/9/4
f 1/13/5 4/14/6 6/15/6
f 6/15/6 7/16/5 1/13/5
f 3/17/7 2/18/7 8/19/7
f 8/19/7 5/20/7 3/17/7
f 7/21/8 6/22/8 5/23/8
f 5/23/8 8/24/8 7/21/8
f 9/25/5 10/26/5 11/27/5
f 11/27/5 12/28/5 9/25/5
f 9/29/2 12/30/2 13/31/2
f 13/31/2 14/32/2 9/29/2
f 11/33/4 10/34/4 15/35/4
f 15/35/4 16/36/4 11/33/4
f 15/37/7 14/38/7 13/39/7
f 13/39/7 16/40/7 15/37/7
f 17/41/2 18/42/2 19/43/2
f 19/43/2 20/44/3 17/41/2
f 21/25/7 22/26/7 23/27/7
f 23/27/7 24/28/7 21/25/7
f 21/29/4 24/30/4 25/31/4
f 25/31/4 26/32/4 21/29/4
f 23/33/9 22/34/9 27/35/9
f 27/35/2 28/36/2 23/33/2
f 27/37/10 26/38/11 25/39/5
f 25/39/5 28/40/5 27/37/10
f 29/1/1 30/2/1 31/3/1
f 31/3/1 32/4/1 29/1/1
f 31/5/2 33/6/2 34/7/2
f 34/7/2 32/8/3 31/5/2
f 29/9/4 35/10/4 36/11/4
f 36/11/4 30/12/4 29/9/4
f 29/13/6 32/14/6 34/15/5
f 34/15/5 35/16/6 29/13/6
f 31/17/7 30/18/7 36/19/7
f 36/19/7 33/20/7 31/17/7
f 35/21/8 34/22/8 33/23/8
f 33/23/8 36/24/8 35/21/8
f 37/45/7 38/46/7 39/47/7
f 39/47/7 40/48/7 37/45/7
f 41/49/1 42/50/1 40/51/1
f 40/51/1 39/52/1 41/49/1
f 42/53/4 43/54/4 37/55/4
f 37/55/4 40/56/4 42/53/4
f 43/57/8 44/58/8 38/59/8
f 38/59/8 37/60/8 43/57/8
f 44/61/2 41/62/2 39/63/9
f 39/63/9 38/64/2 44/61/2
f 45/45/12 46/46/12 47/47/12
f 47/47/12 48/48/12 45/45/12
f 49/49/1 50/50/1 48/51/1
f 48/51/1 47/52/1 49/49/1
f 50/53/13 51/54/13 45/55/13
f 45/55/13 48/56/13 50/53/13
f 51/57/8 52/58/8 46/59/8
f 46/59/8 45/60/8 51/57/8
f 52/61/14 49/62/14 47/63/14
f 47/63/14 46/64/14 52/61/14
f 53/1/1 54/2/1 55/3/1
f 55/3/1 56/4/1 53/1/1
f 55/5/14 57/6/14 58/7/14
f 58/7/14 56/8/14 55/5/14
f 53/9/13 59/10/13 60/11/13
f 60/11/13 54/12/13 53/9/13
f 53/13/15 56/14/15 58/15/15
f 58/15/15 59/16/15 53/13/15
f 55/17/12 54/18/12 60/19/12
f 60/19/12 57/20/12 55/17/12
f 59/21/8 58/22/8 57/23/8
f 57/23/8 60/24/8 59/21/8
f 61/25/15 62/26/15 63/27/15
f 63/27/15 64/28/15 61/25/15
f 61/29/14 64/30/14 65/31/14
f 65/31/14 66/32/14 61/29/14
f 63/33/13 62/34/13 67/35/13
f 67/35/13 68/36/13 63/33/13
f 67/37/12 66/38/12 65/39/12
f 65/39/12 68/40/12 67/37/12
f 69/41/14 70/44/14 71/43/14
f 71/43/14 72/42/14 69/41/14
f 73/25/12 74/26/12 75/27/12
f 75/27/12 76/28/12 73/25/12
f 73/29/13 76/30/13 77/31/13
f 77/31/13 78/32/13 73/29/13
f 75/33/14 74/34/14 79/35/14
f 79/35/14 80/36/14 75/33/14
f 79/37/15 78/38/15 77/39/15
f 77/39/15 80/40/15 79/37/15
f 81/1/1 82/2/1 83/3/1
f 83/3/1 84/4/1 81/1/1
f 83/5/14 85/6/14 86/7/14
f 86/7/14 84/8/14 83/5/14
f 81/9/13 87/10/13 88/11/13
f 88/11/13 82/12/13 81/9/13
f 81/13/15 84/14/15 86/15/15
f 86/15/15 87/16/15 81/13/15
f 83/17/12 82/18/12 88/19/12
f 88/19/12 85/20/12 83/17/12
f 87/21/8 86/22/8 85/23/8
f 85/23/8 88/24/8 87/21/8
f 89/45/12 90/46/12 91/47/12
f 91/47/12 92/48/12 89/45/12
f 93/49/1 94/50/1 92/51/1
f 92/51/1 91/52/1 93/49/1
f 94/53/13 95/54/13 89/55/13
f 89/55/13 92/56/13 94/53/13
f 95/57/8 96/58/8 90/59/8
f 90/59/8 89/60/8 95/57/8
f 96/61/14 93/62/14 91/63/14
f 91/63/14 90/64/14 96/61/14
f 97/45/16 98/46/7 99/47/7
f 99/47/7 100/48/7 97/45/16
f 101/49/1 102/50/1 100/51/1
f 100/51/1 99/52/1 101/49/1
f 102/53/4 103/54/4 97/55/4
f 97/55/4 100/56/4 102/53/4
f 103/57/8 104/58/8 98/59/8
f 98/59/8 97/60/8 103/57/8
f 104/61/9 101/62/2 99/63/2
f 99/63/2 98/64/2 104/61/9
f 105/65/10 106/66/15 107/67/15
f 107/67/15 108/68/6 105/65/10
f 109/69/14 105/65/10 108/68/6
f 108/68/6 110/70/14 109/69/14
f 111/71/2 109/69/14 110/70/14
f 110/70/14 112/72/2 111/71/2
f 113/73/12 111/71/2 112/72/2
f 112/72/2 114/74/12 113/73/12
f 115/75/7 113/73/12 114/74/12
f 114/74/12 116/76/16 115/75/7
f 117/77/13 115/75/7 116/76/16
f 116/76/16 118/78/13 117/77/13
f 119/79/4 117/77/13 118/78/13
f 118/78/13 120/80/4 119/79/4
f 106/81/15 119/79/4 120/80/4
f 120/80/4 107/82/15 106/81/15
f 121/65/10 122/66/15 123/67/15
f 123/67/15 124/68/6 121/65/10
f 125/69/14 121/65/10 124/68/6
f 124/68/6 126/70/14 125/69/14
f 127/71/2 125/69/14 126/70/14
f 126/70/14 128/72/2 127/71/2
f 129/73/12 127/71/2 128/72/2
f 128/72/2 130/74/12 129/73/12
f 131/75/7 129/73/12 130/74/12
f 130/74/12 132/76/7 131/75/7
f 133/77/13 131/75/7 132/76/7
f 132/76/7 134/78/13 133/77/13
f 135/79/4 133/77/13 134/78/13
f 134/78/13 136/80/4 135/79/4
f 122/81/15 135/79/4 136/80/4
f 136/80/4 123/82/15 122/81/15
f 111/83/8 113/84/8 137/85/8
f 109/86/8 111/83/8 137/85/8
f 113/84/8 115/87/8 137/85/8
f 105/88/8 109/86/8 137/85/8
f 115/87/8 117/89/8 137/85/8
f 106/90/8 105/88/8 137/85/8
f 117/89/8 119/91/8 137/85/8
f 119/91/8 106/90/8 137/85/8
f 114/92/1 112/93/1 138/94/1
f 116/95/1 114/92/1 138/94/1
f 112/93/1 110/96/1 138/94/1
f 118/97/1 116/95/1 138/94/1
f 110/96/1 108/98/1 138/94/1
f 120/99/1 118/97/1 138/94/1
f 108/98/1 107/100/1 138/94/1
f 107/100/1 120/99/1 138/94/1
f 127/83/8 129/84/8 139/85/8
f 125/86/8 127/83/8 139/85/8
f 129/84/8 131/87/8 139/85/8
f 121/88/8 125/86/8 139/85/8
f 131/87/8 133/89/8 139/85/8
f 122/90/8 121/88/8 139/85/8
f 133/89/8 135/91/8 139/85/8
f 135/91/8 122/90/8 139/85/8
f 130/92/1 128/93/1 140/94/1
f 132/95/1 130/92/1 140/94/1
f 128/93/1 126/96/1 140/94/1
f 134/97/1 132/95/1 140/94/1
f 126/96/1 124/98/1 140/94/1
f 136/99/1 134/97/1 140/94/1
f 124/98/1 123/100/1 140/94/1
f 123/100/1 136/99/1 140/94/1
