# Blender 3.6.18
# www.blender.org
mtllib Mesh.1131.mtl
o Bistro_Research_Exterior_Paris_Building_01_paris_buildi_a9f9914
v 2.873534 17.575033 -1.930136
v 2.876080 19.477079 -1.930924
v 3.256358 17.574816 -2.081925
v 3.258905 19.477079 -2.082712
v 2.873535 20.949284 -1.930135
v 3.256357 20.932533 -2.081928
v 2.139130 20.949179 -3.791121
v 2.521953 20.932533 -3.942905
v 2.137530 19.477077 -3.790593
v 2.521959 19.477077 -3.942894
v 2.135499 17.575033 -3.789940
v 2.521953 17.574816 -3.942906
v -0.103517 12.864892 -9.418386
v -0.104021 12.433432 -9.418182
v 0.424126 12.433393 -8.089248
v 0.424632 12.864420 -8.089449
v 0.976315 12.433352 -6.699818
v 0.424939 13.876738 -8.089571
v -0.103211 13.877081 -9.418506
v 0.976819 12.863923 -6.700025
v 1.585029 12.433304 -5.168158
v 0.977127 13.876389 -6.700146
v 0.425325 15.151293 -8.089725
v -0.102823 15.151464 -9.418657
v -0.102434 16.433990 -9.418810
v 0.977515 15.151115 -6.700300
v 0.425715 16.433990 -8.089880
v 0.425283 16.808590 -8.091533
v -0.102150 16.808590 -9.419206
v 0.977905 16.433990 -6.700455
v 1.586231 15.150920 -5.168640
v 1.586620 16.433990 -5.168795
v 1.585844 13.875994 -5.168486
v 1.985826 15.150791 -4.163173
v 1.585536 12.863379 -5.168364
v 1.984625 12.433275 -4.162693
v 1.985439 13.875739 -4.163020
v 1.985131 12.863021 -4.162898
v 2.143267 12.433263 -3.763515
v 2.143773 12.862878 -3.763720
v 2.506027 12.433235 -2.850736
v 2.144081 13.875636 -3.763841
v 2.506531 12.862553 -2.850941
v 2.866450 12.433207 -1.943833
v 2.506839 13.875404 -2.851063
v 2.866954 12.862230 -1.944039
v 3.443634 12.433166 -0.491510
v 3.444140 12.861713 -0.491711
v 4.006850 12.433123 0.925660
v 2.867261 13.875172 -1.944161
v 4.007356 12.861206 0.925459
v 4.596363 12.433077 2.409011
v 3.444449 13.874802 -0.491833
v 4.596871 12.860679 2.408807
v 4.838294 12.433241 3.010475
v 4.007664 13.874438 0.925336
v 4.838683 12.859312 3.010318
v 5.119140 12.433432 3.708680
v 5.119390 12.857726 3.708577
v 4.597179 13.874061 2.408684
v 4.838921 13.873196 3.010223
v 5.119544 13.872192 3.708515
v 5.119739 15.149445 3.708436
v 4.597568 15.149946 2.408530
v 4.839219 15.149715 3.010104
v 5.119934 16.434864 3.708359
v 4.008051 15.150140 0.925183
v 4.597959 16.433990 2.408375
v 4.839520 16.434393 3.009985
v 4.008442 16.433990 0.925028
v 4.841286 16.808813 3.010237
v 5.120565 16.809071 3.708111
v 4.600705 16.808588 2.409057
v 5.121336 17.265116 3.707809
v 4.010238 16.808590 0.920417
v 4.843442 17.265116 3.010543
v 3.445228 16.433990 -0.492142
v 5.122436 18.359264 3.707371
v 4.604052 17.265114 2.409889
v 4.846537 18.359222 3.010983
v 4.012425 17.265114 0.914798
v 4.847854 19.476480 3.010462
v 5.122270 19.476234 3.707428
v 5.123077 20.245760 3.707108
v 4.608866 18.359186 2.411084
v 4.611461 19.476690 2.410063
v 4.848806 20.246269 3.010087
v 5.123815 20.948208 3.706814
v 4.423936 19.732344 1.904669
v 4.380480 19.504271 1.796893
v 4.438909 19.985159 1.941806
v 4.312790 19.323273 1.629027
v 4.423937 20.237980 1.904668
v 4.015572 18.359179 0.906701
v 4.227499 19.207066 1.417507
v 4.132956 19.167023 1.183027
v 4.038410 19.207064 0.948554
v 4.612536 20.246702 2.409641
v 3.455173 18.359186 -0.491851
v 3.953120 19.323273 0.737034
v 3.885433 19.504269 0.569170
v 3.841975 19.732338 0.461389
v 4.613518 20.949593 2.409257
v 4.380479 20.466049 1.796893
v 4.312790 20.647049 1.629027
v 4.227501 20.763256 1.417504
v 4.849675 20.948952 3.009744
v 5.124353 21.473057 3.706601
v 5.124541 22.075495 3.706528
v 4.846187 22.075495 3.007245
v 4.845912 21.475246 3.007358
v 4.606400 22.075495 2.404851
v 4.606053 21.477137 2.405000
v 4.011147 22.075495 0.909460
v 4.010832 21.477261 0.909615
v 3.451960 22.075495 -0.495343
v 4.015564 20.949593 0.906695
v 4.132955 20.803299 1.183027
v 4.038408 20.763256 0.948556
v 3.953120 20.647049 0.737034
v 3.451670 21.477379 -0.495184
v 2.873912 22.075495 -1.947509
v 3.458418 20.949593 -0.493322
v 3.885433 20.466049 0.569170
v 3.841974 20.237980 0.461389
v 2.873653 21.477629 -1.947340
v 2.139135 22.075495 -3.791112
v 3.457003 19.477091 -0.492674
v 3.827002 19.985159 0.424252
v 2.139131 21.477779 -3.791112
v 1.980985 22.075495 -4.188517
v 1.980981 21.477776 -4.188518
v 1.582629 22.075495 -5.189518
v 1.980980 20.949265 -4.188526
v 1.582628 21.477768 -5.189522
v 0.979770 22.075495 -6.704392
v 1.979475 19.477081 -4.187998
v 0.979769 21.477894 -6.704396
v 0.431400 22.075495 -8.093425
v 1.582627 20.949488 -5.189521
v 0.427826 21.478010 -8.092049
v -0.095073 22.075495 -9.424996
v -0.101079 21.473858 -9.420830
v 0.979770 20.949486 -6.704395
v 0.425330 20.949488 -8.097623
v -0.101128 20.948074 -9.420740
v -0.101265 19.476255 -9.420484
v 0.934346 20.769682 -6.818012
v 0.839800 20.729639 -7.052485
v 1.028892 20.729639 -6.583537
v 0.754510 20.613432 -7.264007
v 1.114179 20.613432 -6.372012
v 0.686824 20.432432 -7.431871
v 1.181869 20.432432 -6.204147
v 0.643365 20.204361 -7.539651
v 1.225325 20.204361 -6.096374
v 0.424744 19.476725 -8.097113
v 0.628390 19.951542 -7.576789
v -0.101318 18.359737 -9.420379
v 0.643365 19.698723 -7.539651
v 1.581360 19.477091 -5.188997
v 1.240299 19.951542 -6.059235
v 1.225325 19.698725 -6.096371
v 1.977562 17.798014 -4.187344
v 1.579747 18.359665 -5.188340
v 1.181870 19.470655 -6.204147
v 1.114179 19.289656 -6.372013
v 2.139639 17.264456 -3.778545
v 0.979780 18.359665 -6.704390
v 1.028891 19.173447 -6.583535
v 0.934346 19.133406 -6.818013
v 0.839801 19.173449 -7.052487
v 1.981390 17.264643 -4.176735
v 1.582787 17.265116 -5.179707
v 0.423996 18.359665 -8.096451
v 0.754510 19.289656 -7.264007
v 0.686824 19.470654 -7.431871
v 0.978958 17.265116 -6.702648
v 0.424758 17.265116 -8.093546
v -0.101805 17.265116 -9.419685
v 0.978379 16.808590 -6.701444
v 1.584892 16.808590 -5.173713
v 1.984041 16.808378 -4.169371
v 1.986216 16.433990 -4.163328
v 2.142506 16.808294 -3.770636
v 2.144469 15.150738 -3.763994
v 2.144859 16.433990 -3.764149
v 2.507227 15.150621 -2.851216
v 2.507138 16.808296 -2.852796
v 2.507617 16.433990 -2.851372
v 2.867649 15.150507 -1.944315
v 3.444837 15.150320 -0.491987
v 2.868039 16.433990 -1.944469
v 2.869424 16.808296 -1.940863
v 3.447731 16.808590 -0.492069
v 3.450783 17.265114 -0.491979
v 2.871111 17.264456 -1.936467
v 2.505708 17.575033 -2.857036
v 2.506556 17.264456 -2.854531
vn -0.3694 -0.0039 -0.9293
vn -0.0431 -0.9990 0.0117
vn -0.0431 -0.9990 0.0118
vn 0.3653 -0.0039 0.9309
vn -0.9309 -0.0039 0.3653
vn -0.9309 -0.0040 0.3653
vn -0.9282 -0.0039 0.3721
vn -0.9282 -0.0040 0.3721
vn -0.9312 -0.0008 0.3646
vn -0.9309 0.0039 0.3653
vn -0.9319 -0.0039 0.3626
vn -0.9319 0.0039 0.3626
vn -0.9319 -0.0039 0.3627
vn -0.9345 -0.0039 0.3558
vn -0.9371 0.0039 0.3490
vn -0.9345 0.0039 0.3558
vn -0.9406 -0.0039 0.3396
vn -0.9371 -0.0039 0.3490
vn -0.9282 0.0039 0.3721
vn -0.9282 0.0039 0.3720
vn -0.9319 -0.0117 0.3626
vn -0.9345 -0.0117 0.3558
vn -0.9318 -0.0195 0.3626
vn -0.9300 -0.0432 0.3650
vn -0.9308 -0.0118 0.3653
vn -0.9307 -0.0196 0.3652
vn -0.9300 -0.0432 0.3649
vn -0.9278 -0.0274 0.3719
vn -0.9308 -0.0118 0.3652
vt 0.986328 -4.316406
vt 0.986816 -3.722656
vt 0.857422 -4.316406
vt 0.857422 -3.718750
vt 0.988281 -3.257812
vt 0.859375 -3.265625
vt 0.986328 -3.261719
vt 0.359131 -3.261719
vt 0.986328 -3.394531
vt 0.358887 -3.394531
vt 0.359131 -3.722656
vt 0.488281 -3.265625
vt 0.488770 -3.718750
vt 0.358643 -4.316406
vt 0.489014 -4.316406
vt -1.540039 -5.792969
vt -1.540039 -5.929688
vt -1.091797 -5.929688
vt -1.091797 -5.796875
vt -0.623047 -5.929688
vt -1.091797 -5.476562
vt -1.540039 -5.476562
vt -0.623047 -5.796875
vt -0.106384 -5.929688
vt -0.623047 -5.476562
vt -1.091797 -5.078125
vt -1.540039 -5.078125
vt -1.540039 -4.675781
vt -0.623047 -5.078125
vt -1.091797 -4.675781
vt -1.092773 -4.558594
vt -1.540039 -4.558594
vt -0.623047 -4.675781
vt -0.106384 -5.078125
vt -0.106384 -4.675781
vt -0.106384 -5.476562
vt 0.232910 -5.078125
vt -0.106384 -5.796875
vt 0.232910 -5.929688
vt 0.232910 -5.476562
vt 0.232910 -5.796875
vt 0.367676 -5.929688
vt 0.367676 -5.796875
vt 0.675781 -5.929688
vt 0.367676 -5.476562
vt 0.675781 -5.796875
vt 0.981934 -5.929688
vt 0.675781 -5.476562
vt 0.981934 -5.796875
vt 1.471680 -5.929688
vt 1.471680 -5.796875
vt 1.950195 -5.929688
vt 0.981934 -5.476562
vt 1.950195 -5.796875
vt 2.449219 -5.929688
vt 1.471680 -5.476562
vt 2.449219 -5.796875
vt 2.654297 -5.929688
vt 1.950195 -5.476562
vt 2.654297 -5.796875
vt 2.888672 -5.929688
vt 2.888672 -5.796875
vt 2.449219 -5.476562
vt 2.654297 -5.480469
vt 2.888672 -5.480469
vt 2.888672 -5.078125
vt 2.449219 -5.078125
vt 2.654297 -5.078125
vt 2.888672 -4.675781
vt 1.950195 -5.078125
vt 2.449219 -4.675781
vt 2.654297 -4.675781
vt 1.950195 -4.675781
vt 2.654297 -4.558594
vt 2.888672 -4.558594
vt 2.451172 -4.558594
vt 2.888672 -4.414062
vt 1.949219 -4.558594
vt 2.654297 -4.414062
vt 1.471680 -4.675781
vt 2.888672 -4.070312
vt 2.451172 -4.414062
vt 2.654297 -4.070312
vt 1.947266 -4.414062
vt 2.654297 -3.722656
vt 2.888672 -3.722656
vt 2.888672 -3.480469
vt 2.453125 -4.070312
vt 2.453125 -3.722656
vt 2.654297 -3.480469
vt 2.888672 -3.257812
vt 2.283203 -3.640625
vt 2.246094 -3.710938
vt 2.294922 -3.562500
vt 2.189453 -3.769531
vt 2.283203 -3.480469
vt 1.945312 -4.070312
vt 2.119141 -3.804688
vt 2.039062 -3.816406
vt 1.959961 -3.804688
vt 2.453125 -3.480469
vt 1.472656 -4.066406
vt 1.888672 -3.769531
vt 1.832031 -3.710938
vt 1.795898 -3.640625
vt 2.453125 -3.257812
vt 2.246094 -3.410156
vt 2.189453 -3.355469
vt 2.119141 -3.316406
vt 2.654297 -3.257812
vt 2.888672 -3.093750
vt 2.888672 -2.906250
vt 2.654297 -2.906250
vt 2.654297 -3.093750
vt 2.449219 -2.906250
vt 2.449219 -3.093750
vt 1.945312 -2.906250
vt 1.945312 -3.093750
vt 1.471680 -2.906250
vt 1.945312 -3.257812
vt 2.039062 -3.304688
vt 1.959961 -3.316406
vt 1.888672 -3.355469
vt 1.471680 -3.093750
vt 0.981445 -2.906250
vt 1.472656 -3.257812
vt 1.832031 -3.410156
vt 1.795898 -3.480469
vt 0.981445 -3.093750
vt 0.359131 -2.906250
vt 1.472656 -3.718750
vt 1.783203 -3.562500
vt 0.359131 -3.093750
vt 0.224976 -2.906250
vt 0.224976 -3.093750
vt -0.112854 -2.906250
vt 0.224976 -3.257812
vt -0.112854 -3.093750
vt -0.624023 -2.906250
vt 0.224976 -3.722656
vt 0.358887 -4.316406
vt -0.624023 -3.093750
vt -1.091797 -2.906250
vt -0.112854 -3.257812
vt -1.091797 -3.093750
vt -1.541016 -2.906250
vt -1.541016 -3.093750
vt -0.624023 -3.257812
vt -1.093750 -3.257812
vt -1.541016 -3.257812
vt -1.541016 -3.722656
vt -0.662598 -3.316406
vt -0.741699 -3.328125
vt -0.583008 -3.328125
vt -0.813477 -3.363281
vt -0.511719 -3.363281
vt -0.870117 -3.421875
vt -0.455078 -3.421875
vt -0.906738 -3.492188
vt -0.418457 -3.492188
vt -1.093750 -3.722656
vt -0.918945 -3.570312
vt -1.541016 -4.070312
vt -0.906738 -3.652344
vt -0.112854 -3.722656
vt -0.406006 -3.570312
vt -0.418457 -3.652344
vt 0.224976 -4.246094
vt -0.112854 -4.070312
vt -0.455078 -3.722656
vt -0.511719 -3.781250
vt 0.362793 -4.414062
vt -0.624023 -4.070312
vt -0.583008 -3.816406
vt -0.662598 -3.828125
vt -0.741699 -3.816406
vt 0.228516 -4.414062
vt -0.109985 -4.414062
vt -1.093750 -4.070312
vt -0.813477 -3.781250
vt -0.870117 -3.722656
vt -0.623535 -4.414062
vt -1.092773 -4.414062
vt -1.541016 -4.414062
vt -0.623535 -4.558594
vt -0.107971 -4.558594
vt 0.230957 -4.558594
vt 0.232910 -4.675781
vt 0.365479 -4.558594
vt 0.367676 -5.078125
vt 0.367676 -4.675781
vt 0.675781 -5.078125
vt 0.675293 -4.558594
vt 0.675781 -4.675781
vt 0.981934 -5.078125
vt 1.471680 -5.078125
vt 0.981934 -4.675781
vt 0.982910 -4.558594
vt 1.471680 -4.558594
vt 1.472656 -4.414062
vt 0.984375 -4.414062
vt 0.673828 -4.316406
vt 0.674316 -4.414062
s 1
usemtl MASTER_Concrete_Plaster1_BLENDSHADER
f 1/1/1 2/2/1 3/3/1
f 2/2/1 4/4/1 3/3/1
f 2/2/1 5/5/1 4/4/1
f 5/5/1 6/6/1 4/4/1
f 5/7/2 7/8/2 6/9/2
f 7/8/3 8/10/3 6/9/3
f 7/8/4 9/11/4 8/12/4
f 9/11/4 10/13/4 8/12/4
f 9/11/4 11/14/4 10/13/4
f 11/14/4 12/15/4 10/13/4
f 13/16/5 14/17/5 15/18/5
f 16/19/5 13/16/5 15/18/5
f 16/19/5 15/18/5 17/20/5
f 13/16/5 16/19/5 18/21/5
f 19/22/5 13/16/5 18/21/5
f 20/23/5 16/19/5 17/20/5
f 20/23/5 17/20/5 21/24/6
f 18/21/5 16/19/5 22/25/5
f 16/19/5 20/23/5 22/25/5
f 19/22/5 18/21/5 23/26/5
f 24/27/5 19/22/5 23/26/5
f 25/28/5 24/27/5 23/26/5
f 23/26/5 18/21/5 26/29/5
f 18/21/5 22/25/5 26/29/5
f 27/30/5 25/28/5 23/26/5
f 27/30/5 23/26/5 26/29/5
f 25/28/5 27/30/5 28/31/5
f 29/32/5 25/28/5 28/31/5
f 30/33/5 27/30/5 26/29/5
f 30/33/5 26/29/5 31/34/5
f 26/29/5 22/25/5 31/34/5
f 32/35/5 30/33/5 31/34/5
f 22/25/5 33/36/5 31/34/5
f 22/25/5 20/23/5 33/36/5
f 32/35/5 31/34/5 34/37/5
f 31/34/5 33/36/5 34/37/5
f 20/23/5 35/38/5 33/36/5
f 35/38/5 20/23/5 21/24/6
f 35/38/5 21/24/6 36/39/5
f 33/36/5 35/38/5 37/40/5
f 33/36/5 37/40/5 34/37/5
f 38/41/5 35/38/5 36/39/5
f 35/38/5 38/41/5 37/40/5
f 38/41/5 36/39/5 39/42/5
f 40/43/5 38/41/5 39/42/5
f 38/41/5 40/43/5 37/40/5
f 39/42/5 41/44/5 40/43/5
f 37/40/5 42/45/5 34/37/5
f 40/43/5 42/45/5 37/40/5
f 41/44/5 43/46/5 40/43/5
f 41/44/5 44/47/5 43/46/5
f 42/45/5 40/43/5 45/48/5
f 40/43/5 43/46/5 45/48/5
f 44/47/5 46/49/5 43/46/5
f 43/46/5 46/49/5 45/48/5
f 44/47/5 47/50/5 46/49/5
f 47/50/5 48/51/5 46/49/5
f 47/50/5 49/52/6 48/51/5
f 46/49/5 50/53/5 45/48/5
f 46/49/5 48/51/5 50/53/5
f 49/52/6 51/54/5 48/51/5
f 49/52/6 52/55/5 51/54/5
f 48/51/5 53/56/5 50/53/5
f 48/51/5 51/54/5 53/56/5
f 52/55/5 54/57/5 51/54/5
f 52/55/5 55/58/7 54/57/5
f 51/54/5 56/59/5 53/56/5
f 51/54/5 54/57/5 56/59/5
f 55/58/7 57/60/7 54/57/5
f 55/58/7 58/61/7 57/60/7
f 58/61/7 59/62/7 57/60/7
f 54/57/5 57/60/7 60/63/5
f 54/57/5 60/63/5 56/59/5
f 57/60/7 59/62/7 61/64/7
f 57/60/7 61/64/7 60/63/5
f 59/62/7 62/65/7 61/64/7
f 62/65/7 63/66/7 61/64/7
f 60/63/5 64/67/5 56/59/5
f 64/67/5 60/63/5 61/64/7
f 63/66/7 65/68/8 61/64/7
f 65/68/8 64/67/5 61/64/7
f 63/66/7 66/69/5 65/68/8
f 64/67/5 67/70/5 56/59/5
f 56/59/5 67/70/5 53/56/5
f 68/71/5 64/67/5 65/68/8
f 64/67/5 68/71/5 67/70/5
f 66/69/5 69/72/5 65/68/8
f 69/72/5 68/71/5 65/68/8
f 68/71/5 70/73/9 67/70/5
f 69/72/5 66/69/5 71/74/10
f 66/69/5 72/75/5 71/74/10
f 68/71/5 69/72/5 73/76/10
f 69/72/5 71/74/10 73/76/10
f 70/73/9 68/71/5 73/76/10
f 72/75/5 74/77/5 71/74/10
f 75/78/10 70/73/9 73/76/10
f 74/77/5 76/79/5 71/74/10
f 77/80/5 70/73/9 75/78/10
f 74/77/5 78/81/11 76/79/5
f 79/82/12 73/76/10 71/74/10
f 76/79/5 79/82/12 71/74/10
f 75/78/10 73/76/10 79/82/12
f 78/81/11 80/83/11 76/79/5
f 81/84/10 75/78/10 79/82/12
f 80/83/11 78/81/11 82/85/11
f 78/81/11 83/86/13 82/85/11
f 83/86/13 84/87/11 82/85/11
f 80/83/11 85/88/12 76/79/5
f 85/88/12 79/82/12 76/79/5
f 80/83/11 82/85/11 86/89/14
f 85/88/12 80/83/11 86/89/14
f 84/87/11 87/90/13 82/85/11
f 86/89/14 82/85/11 87/90/13
f 84/87/11 88/91/11 87/90/13
f 89/92/15 85/88/12 86/89/14
f 90/93/16 85/88/12 89/92/15
f 89/92/15 86/89/14 91/94/17
f 92/95/12 85/88/12 90/93/16
f 91/94/17 86/89/14 93/96/18
f 94/97/10 85/88/12 92/95/12
f 85/88/12 94/97/10 79/82/12
f 95/98/12 94/97/10 92/95/12
f 94/97/10 81/84/10 79/82/12
f 96/99/19 94/97/10 95/98/12
f 97/100/20 94/97/10 96/99/19
f 93/96/18 86/89/14 98/101/14
f 98/101/14 86/89/14 87/90/13
f 99/102/7 94/97/10 97/100/20
f 94/97/10 99/102/7 81/84/10
f 100/103/7 99/102/7 97/100/20
f 101/104/7 99/102/7 100/103/7
f 102/105/7 99/102/7 101/104/7
f 93/96/18 98/101/14 103/106/21
f 103/106/21 98/101/14 87/90/13
f 93/96/18 103/106/21 104/107/22
f 104/107/22 103/106/21 105/108/23
f 105/108/23 103/106/21 106/109/24
f 107/110/11 103/106/21 87/90/13
f 88/91/11 107/110/11 87/90/13
f 88/91/11 108/111/11 107/110/11
f 108/111/11 109/112/5 110/113/5
f 111/114/11 108/111/11 110/113/5
f 108/111/11 111/114/11 107/110/11
f 111/114/11 110/113/5 112/115/5
f 111/114/11 113/116/25 107/110/11
f 113/116/25 111/114/11 112/115/5
f 113/116/25 103/106/21 107/110/11
f 113/116/25 112/115/5 114/117/5
f 115/118/25 113/116/25 114/117/5
f 103/106/21 113/116/25 115/118/25
f 115/118/25 114/117/5 116/119/5
f 117/120/26 103/106/21 115/118/25
f 103/106/21 117/120/26 106/109/24
f 117/120/26 118/121/27 106/109/24
f 118/121/27 117/120/26 119/122/28
f 119/122/28 117/120/26 120/123/25
f 121/124/5 115/118/25 116/119/5
f 117/120/26 115/118/25 121/124/5
f 121/124/5 116/119/5 122/125/5
f 117/120/26 123/126/8 120/123/25
f 123/126/8 117/120/26 121/124/5
f 120/123/25 123/126/8 124/127/7
f 124/127/7 123/126/8 125/128/7
f 126/129/5 121/124/5 122/125/5
f 121/124/5 126/129/5 123/126/8
f 126/129/5 122/125/5 127/130/5
f 125/128/7 123/126/8 128/131/7
f 125/128/7 128/131/7 129/132/7
f 129/132/7 128/131/7 102/105/7
f 102/105/7 128/131/7 99/102/7
f 128/131/7 123/126/8 2/2/7
f 99/102/7 128/131/7 2/2/7
f 123/126/8 5/7/7 2/2/7
f 126/129/5 5/7/7 123/126/8
f 1/1/5 99/102/7 2/2/7
f 126/129/5 130/133/5 5/7/7
f 130/133/5 126/129/5 127/130/5
f 127/130/5 131/134/5 130/133/5
f 130/133/5 7/8/5 5/7/7
f 131/134/5 132/135/5 130/133/5
f 130/133/5 132/135/5 7/8/5
f 131/134/5 133/136/5 132/135/5
f 132/135/5 134/137/5 7/8/5
f 133/136/5 135/138/5 132/135/5
f 132/135/5 135/138/5 134/137/5
f 133/136/5 136/139/5 135/138/5
f 7/8/5 134/137/5 137/140/5
f 9/11/5 7/8/5 137/140/5
f 11/141/5 9/11/5 137/140/5
f 136/139/5 138/142/6 135/138/5
f 136/139/5 139/143/12 138/142/6
f 135/138/5 140/144/5 134/137/5
f 140/144/5 135/138/5 138/142/6
f 134/137/5 140/144/5 137/140/5
f 139/143/12 141/145/5 138/142/6
f 139/143/12 142/146/12 141/145/5
f 142/146/12 143/147/10 141/145/5
f 144/148/5 138/142/6 141/145/5
f 144/148/5 140/144/5 138/142/6
f 141/145/5 143/147/10 145/149/11
f 145/149/11 144/148/5 141/145/5
f 143/147/10 146/150/5 145/149/11
f 146/150/5 147/151/5 145/149/11
f 148/152/7 144/148/5 149/153/10
f 150/154/29 144/148/5 148/152/7
f 149/153/10 144/148/5 151/155/10
f 140/144/5 144/148/5 150/154/29
f 144/148/5 145/149/11 151/155/10
f 152/156/25 140/144/5 150/154/29
f 151/155/10 145/149/11 153/157/12
f 154/158/25 140/144/5 152/156/25
f 153/157/12 145/149/11 155/159/11
f 156/160/11 140/144/5 154/158/25
f 155/159/11 145/149/11 157/161/11
f 147/151/5 157/161/11 145/149/11
f 155/159/11 157/161/11 158/162/14
f 147/151/5 159/163/11 157/161/11
f 158/162/14 157/161/11 160/164/13
f 156/160/11 161/165/13 140/144/5
f 162/166/14 161/165/13 156/160/11
f 140/144/5 161/165/13 137/140/5
f 163/167/11 161/165/13 162/166/14
f 164/168/5 137/140/5 161/165/13
f 164/168/5 11/141/5 137/140/5
f 163/167/11 165/169/11 161/165/13
f 165/169/11 164/168/5 161/165/13
f 166/170/12 165/169/11 163/167/11
f 167/171/11 165/169/11 166/170/12
f 11/141/5 164/168/5 168/172/5
f 169/173/5 165/169/11 167/171/11
f 170/174/5 169/173/5 167/171/11
f 171/175/7 169/173/5 170/174/5
f 172/176/5 169/173/5 171/175/7
f 164/168/5 165/169/11 173/177/5
f 164/168/5 173/177/5 168/172/5
f 165/169/11 169/173/5 174/178/13
f 165/169/11 174/178/13 173/177/5
f 175/179/5 169/173/5 172/176/5
f 176/180/5 175/179/5 172/176/5
f 177/181/5 175/179/5 176/180/5
f 160/164/13 175/179/5 177/181/5
f 160/164/13 157/161/11 175/179/5
f 159/163/11 175/179/5 157/161/11
f 169/173/5 175/179/5 178/182/5
f 169/173/5 178/182/5 174/178/13
f 175/179/5 159/163/11 179/183/5
f 175/179/5 179/183/5 178/182/5
f 159/163/11 180/184/11 179/183/5
f 180/184/11 29/32/5 179/183/5
f 29/32/5 28/31/5 179/183/5
f 179/183/5 28/31/5 178/182/5
f 28/31/5 181/185/5 178/182/5
f 178/182/5 181/185/5 174/178/13
f 28/31/5 27/30/5 181/185/5
f 27/30/5 30/33/5 181/185/5
f 181/185/5 182/186/5 174/178/13
f 181/185/5 30/33/5 182/186/5
f 174/178/13 182/186/5 173/177/5
f 30/33/5 32/35/5 182/186/5
f 182/186/5 183/187/5 173/177/5
f 182/186/5 32/35/5 183/187/5
f 168/172/5 173/177/5 183/187/5
f 32/35/5 184/188/5 183/187/5
f 184/188/5 32/35/5 34/37/5
f 185/189/5 168/172/5 183/187/5
f 184/188/5 34/37/5 186/190/5
f 42/45/5 186/190/5 34/37/5
f 184/188/5 187/191/5 183/187/5
f 187/191/5 184/188/5 186/190/5
f 187/191/5 185/189/5 183/187/5
f 186/190/5 42/45/5 188/192/5
f 187/191/5 186/190/5 188/192/5
f 42/45/5 45/48/5 188/192/5
f 45/48/5 50/53/5 188/192/5
f 185/189/5 187/191/5 189/193/5
f 190/194/5 187/191/5 188/192/5
f 187/191/5 190/194/5 189/193/5
f 50/53/5 191/195/5 188/192/5
f 190/194/5 188/192/5 191/195/5
f 192/196/5 191/195/5 50/53/5
f 53/56/5 192/196/5 50/53/5
f 67/70/5 192/196/5 53/56/5
f 67/70/5 70/73/9 192/196/5
f 70/73/9 77/80/5 192/196/5
f 192/196/5 77/80/5 191/195/5
f 193/197/5 190/194/5 191/195/5
f 77/80/5 193/197/5 191/195/5
f 190/194/5 193/197/5 189/193/5
f 193/197/5 77/80/5 194/198/5
f 193/197/5 194/198/5 189/193/5
f 77/80/5 195/199/10 194/198/5
f 195/199/10 77/80/5 75/78/10
f 195/199/10 75/78/10 81/84/10
f 196/200/10 195/199/10 81/84/10
f 195/199/10 196/200/10 194/198/5
f 99/102/7 196/200/10 81/84/10
f 196/200/10 99/102/7 197/201/5
f 196/200/10 197/201/5 194/198/5
f 99/102/7 1/1/5 197/201/5
f 1/1/5 198/202/11 197/201/5
f 194/198/5 197/201/5 199/203/11
f 198/202/11 199/203/11 197/201/5
f 189/193/5 194/198/5 199/203/11
f 198/202/11 11/141/5 199/203/11
f 185/189/5 189/193/5 199/203/11
f 11/141/5 168/172/5 199/203/11
f 168/172/5 185/189/5 199/203/11
