# Blender 3.6.18
# www.blender.org
mtllib Mesh.944.mtl
o Bistro_Research_Exterior_Paris_Building_01_paris_buildi_0fe4517
v -1.755690 6.510736 -6.939595
v -1.875900 6.510735 -6.716633
v -1.741296 6.530223 -6.931835
v -1.861507 6.530223 -6.708871
v -2.029043 6.656723 -6.799199
v -2.014649 6.676211 -6.791439
v -1.908832 6.656724 -7.022161
v -1.894438 6.676213 -7.014402
v -1.854668 6.761273 -6.708345
v -1.796293 6.761273 -6.816618
v -1.934957 6.734509 -6.751218
v -1.876408 6.734509 -6.859812
v -1.941127 6.718964 -6.754545
v -1.842144 6.749335 -6.701592
v -1.882578 6.718963 -6.863140
v -1.737917 6.761273 -6.924891
v -1.817859 6.734508 -6.968407
v -1.824029 6.718963 -6.971734
v -1.725393 6.749335 -6.918139
v -1.748666 6.572550 -6.904858
v -1.843436 6.572550 -6.729083
v -1.869453 6.687693 -6.969981
v -1.964223 6.687694 -6.794203
v -1.720998 6.508582 -6.946480
v -1.863004 6.508583 -6.683092
v -2.043994 6.681118 -6.780674
v -1.901988 6.681118 -7.044061
v -1.868006 6.485858 -6.668801
v -1.853612 6.505346 -6.661041
v -1.864763 6.513956 -6.661980
v -1.879157 6.494468 -6.669740
v -2.052021 6.692466 -6.762940
v -2.066414 6.672977 -6.770700
v -2.058934 6.701076 -6.771739
v -2.073328 6.681588 -6.779500
v -2.055588 6.703946 -6.785154
v -2.069982 6.684458 -6.792913
v -1.913200 6.703947 -7.049249
v -1.927594 6.684458 -7.057008
v -1.903833 6.701076 -7.059416
v -1.918226 6.681587 -7.067175
v -1.892681 6.692465 -7.058476
v -1.907075 6.672977 -7.066236
v -1.705424 6.513956 -6.957516
v -1.719818 6.494467 -6.965277
v -1.698511 6.505345 -6.948716
v -1.712905 6.485857 -6.956477
v -1.701857 6.502476 -6.935303
v -1.716251 6.482987 -6.943063
v -1.844245 6.502475 -6.671208
v -1.858639 6.482987 -6.678967
v -1.857234 6.749335 -6.673605
v -1.797345 6.692245 -6.641315
v -1.782255 6.692245 -6.669304
v -1.723880 6.692245 -6.777576
v -1.783769 6.749336 -6.809865
v -1.665504 6.692245 -6.885849
v -1.710303 6.749335 -6.946127
v -1.650414 6.692245 -6.913837
v -1.979431 6.689192 -6.915358
v -1.920712 6.689193 -7.024268
v -1.905582 6.689193 -7.052331
v -1.808919 6.718964 -6.999760
v -2.038150 6.689193 -6.806448
v -2.053281 6.689194 -6.778385
v -1.956238 6.718963 -6.726519
v -1.828893 6.597568 -6.657860
v -1.859816 6.504766 -6.674078
v -1.681574 6.597568 -6.931102
v -1.712117 6.504765 -6.948024
v -1.844686 6.504766 -6.702141
v -1.785967 6.504766 -6.811051
v -1.755234 6.597568 -6.794481
v -1.813783 6.597568 -6.685887
v -1.727248 6.504766 -6.919960
v -1.696685 6.597568 -6.903076
v -1.877529 6.502601 -6.693187
v -2.047728 6.664851 -6.784949
v -2.051185 6.669156 -6.789350
v -1.735971 6.496861 -6.941329
v -1.734297 6.498296 -6.948036
v -1.737754 6.502601 -6.952436
v -1.907954 6.664851 -7.044199
v -1.913529 6.669156 -7.044669
v -1.918213 6.670591 -7.039585
v -2.049512 6.670590 -6.796056
vn -0.6778 0.6386 -0.3644
vn 0.4736 -0.0039 -0.8807
vn 0.6720 -0.6485 0.3576
vn -0.4830 -0.0039 0.8756
vn -0.2560 0.9568 -0.1378
vn -0.2559 0.9568 -0.1378
vn -0.4769 -0.0039 0.8789
vn -0.8044 0.4041 -0.4355
vn -0.8044 0.4042 -0.4355
vn -0.5641 -0.7664 -0.3073
vn -0.8783 -0.0742 -0.4723
vn -0.0972 -0.5637 -0.8203
vn 0.0898 -0.9950 0.0429
vn 0.0897 -0.9950 0.0429
vn -0.7370 -0.5654 0.3704
vn -0.2400 -0.2085 0.9481
vn -0.3659 -0.1062 0.9246
vn -0.5799 0.0986 0.8087
vn -0.8163 0.4492 0.3632
vn -0.7454 0.6284 -0.2225
vn -0.7454 0.6283 -0.2225
vn -0.5906 0.6297 -0.5046
vn -0.5906 0.6298 -0.5046
vn -0.4905 0.6083 -0.6240
vn -0.4906 0.6083 -0.6240
vn 0.2312 0.1998 -0.9522
vn 0.3567 0.0980 -0.9291
vn 0.5705 -0.1062 -0.8144
vn 0.8084 -0.4570 -0.3710
vn 0.8084 -0.4569 -0.3710
vn 0.7395 -0.6378 0.2152
vn 0.5849 -0.6398 0.4985
vn 0.4846 -0.6185 0.6185
vn 0.4846 -0.6186 0.6185
vn 0.5635 0.7684 0.3034
vn -0.2321 0.9640 -0.1299
vn -0.2321 0.9640 -0.1298
vn -0.2322 0.9640 -0.1299
vn -0.4769 -0.0040 0.8789
vn 0.8215 -0.3576 0.4441
vn 0.8215 -0.3577 0.4441
vn -0.5641 -0.7664 -0.3074
vt 0.666016 0.905579
vt 0.982422 0.905579
vt 0.666016 0.937378
vt 0.982422 0.937378
vt 0.621094 0.562988
vt 0.621094 0.846924
vt 0.589355 0.562988
vt 0.589355 0.846924
vt 0.987793 0.985191
vt 0.671387 0.985191
vt 0.987793 0.953400
vt 0.671387 0.953400
vt 0.924316 0.406738
vt 0.924316 0.123047
vt 0.956055 0.406738
vt 0.956055 0.123047
vt 0.836914 0.436035
vt 0.990723 0.436035
vt 0.836914 0.554199
vt 0.990723 0.554199
vt 0.079041 0.406738
vt 0.224243 0.406738
vt 0.092773 0.424805
vt 0.211182 0.424805
vt 0.080078 0.370117
vt 0.233765 0.370117
vt 0.080078 0.391602
vt 0.233765 0.391602
vt 0.737793 0.576416
vt 0.987305 0.576416
vt 0.737793 0.800171
vt 0.987305 0.800171
vt 0.016449 0.510986
vt 0.390137 0.510986
vt 0.078613 0.591064
vt 0.328125 0.591064
vt 0.013008 0.631836
vt 0.348389 0.631836
vt 0.068787 0.716553
vt 0.292480 0.716553
vt 0.811035 0.171387
vt 0.437256 0.171387
vt 0.749023 0.091309
vt 0.499268 0.091309
vt 0.336670 0.861938
vt 0.671875 0.861938
vt 0.392334 0.946625
vt 0.616211 0.946625
vt 0.809082 0.050293
vt 0.809082 0.082031
vt 0.791504 0.082031
vt 0.791504 0.050293
vt 0.444580 0.082031
vt 0.444580 0.050293
vt 0.427002 0.082031
vt 0.427002 0.050293
vt 0.409424 0.082031
vt 0.409424 0.050293
vt 0.034393 0.082031
vt 0.034393 0.050293
vt 0.016754 0.082031
vt 0.016754 0.050293
vt 0.809082 0.007324
vt 0.809082 0.039062
vt 0.791504 0.039062
vt 0.791504 0.007324
vt 0.444580 0.039062
vt 0.444580 0.007324
vt 0.427002 0.039062
vt 0.427002 0.007324
vt 0.409424 0.039062
vt 0.409424 0.007324
vt 0.034393 0.039062
vt 0.034393 0.007324
vt 0.016754 0.039062
vt 0.016754 0.007324
vt 0.503418 0.354492
vt 0.503418 0.243164
vt 0.543457 0.243164
vt 0.543457 0.354492
vt 0.665039 0.243164
vt 0.665039 0.354492
vt 0.543457 0.377441
vt 0.665039 0.377441
vt 0.075195 0.336426
vt 0.217651 0.336426
vt 0.075012 0.206543
vt 0.217529 0.206543
vt 0.074890 0.166992
vt 0.217407 0.166992
vt 0.362549 0.166992
vt 0.362793 0.206543
vt 0.103027 0.732666
vt 0.213989 0.732666
vt 0.061066 0.851929
vt 0.297119 0.851929
vt 0.378418 0.968811
vt 0.019943 0.968811
vt 0.412109 0.564697
vt 0.565918 0.564697
vt 0.565918 0.688721
vt 0.565918 0.815063
vt 0.412109 0.815063
vt 0.412109 0.688721
vt 0.372314 0.564697
vt 0.372314 0.815063
vt 0.372314 0.688721
vt 0.747070 0.229492
vt 0.769531 0.185059
vt 0.783203 0.189941
vt 0.462646 0.185059
vt 0.787598 0.203613
vt 0.488281 0.229492
vt 0.747070 0.461426
vt 0.448975 0.189941
vt 0.787598 0.487305
vt 0.444336 0.203613
vt 0.783203 0.501221
vt 0.444336 0.487305
vt 0.769531 0.505615
vt 0.488281 0.461426
vt 0.448975 0.501221
vt 0.462646 0.505615
vt 0.428711 0.121094
vt 0.428711 0.468262
vt 0.402100 0.136719
vt 0.423096 0.104004
vt 0.402100 0.452148
vt 0.423096 0.484863
vt 0.375244 0.152344
vt 0.406494 0.098633
vt 0.375244 0.436523
vt 0.399170 0.460449
vt 0.406494 0.490234
vt 0.045135 0.125488
vt 0.031555 0.098633
vt 0.058746 0.152344
vt 0.036774 0.128418
vt 0.014816 0.104004
vt 0.033966 0.136719
vt 0.009216 0.121094
vt 0.033966 0.452148
vt 0.009216 0.468262
vt 0.058746 0.436523
vt 0.036774 0.460449
vt 0.014816 0.484863
vt 0.045135 0.463379
vt 0.031555 0.490234
vt 0.390869 0.463379
s 1
usemtl MASTER_Focus
f 1/1/1 2/2/1 3/3/1
f 2/2/1 4/4/1 3/3/1
f 2/5/2 5/6/2 4/7/2
f 5/6/2 6/8/2 4/7/2
f 5/9/3 7/10/3 6/11/3
f 7/10/3 8/12/3 6/11/3
f 7/13/4 1/14/4 8/15/4
f 1/14/4 3/16/4 8/15/4
f 9/17/5 10/18/5 11/19/5
f 10/18/5 12/20/6 11/19/5
f 13/21/7 14/22/7 11/23/7
f 14/22/7 9/24/7 11/23/7
f 15/25/8 13/26/8 12/27/8
f 13/26/8 11/28/8 12/27/8
f 16/17/5 17/19/6 10/18/5
f 17/19/6 12/20/6 10/18/5
f 18/21/2 17/23/2 19/22/2
f 17/23/2 16/24/2 19/22/2
f 15/25/8 12/27/8 18/26/9
f 12/27/8 17/28/8 18/26/9
f 20/29/10 21/30/10 22/31/10
f 21/30/10 23/32/10 22/31/10
f 24/33/11 25/34/11 20/35/11
f 25/34/11 21/36/11 20/35/11
f 25/37/12 26/38/12 21/39/12
f 26/38/12 23/40/12 21/39/12
f 26/41/13 27/42/13 23/43/13
f 27/42/13 22/44/13 23/43/14
f 27/45/15 24/46/15 22/47/15
f 24/46/15 20/48/15 22/47/15
f 28/49/16 29/50/16 30/51/17
f 31/52/17 28/49/16 30/51/17
f 31/52/17 30/51/17 32/53/18
f 33/54/18 31/52/17 32/53/18
f 33/54/18 32/53/18 34/55/19
f 35/56/19 33/54/18 34/55/19
f 35/56/19 34/55/19 36/57/20
f 37/58/21 35/56/19 36/57/20
f 37/58/21 36/57/20 38/59/22
f 39/60/23 37/58/21 38/59/22
f 39/60/23 38/59/22 40/61/24
f 41/62/25 39/60/23 40/61/24
f 41/63/26 40/64/26 42/65/27
f 43/66/27 41/63/26 42/65/27
f 43/66/27 42/65/27 44/67/28
f 45/68/28 43/66/27 44/67/28
f 45/68/28 44/67/28 46/69/29
f 47/70/30 45/68/28 46/69/29
f 47/70/30 46/69/29 48/71/31
f 49/72/31 47/70/30 48/71/31
f 49/72/31 48/71/31 50/73/32
f 51/74/32 49/72/31 50/73/32
f 51/74/32 50/73/32 29/75/33
f 28/76/34 51/74/32 29/75/33
f 52/77/35 53/78/35 54/79/35
f 14/80/35 52/77/35 54/79/35
f 14/80/35 54/79/35 55/81/35
f 56/82/35 14/80/35 55/81/35
f 14/80/35 56/82/35 9/83/35
f 56/82/35 10/84/35 9/83/35
f 16/83/35 10/84/35 56/82/35
f 19/80/35 16/83/35 56/82/35
f 56/82/35 55/81/35 19/80/35
f 55/81/35 57/79/35 19/80/35
f 19/80/35 57/79/35 58/77/35
f 57/79/35 59/78/35 58/77/35
f 60/85/36 15/86/36 61/87/37
f 15/86/36 18/88/37 61/87/37
f 61/87/37 18/88/37 62/89/36
f 18/88/37 63/90/36 62/89/36
f 63/90/36 18/88/37 58/91/38
f 18/88/37 19/92/38 58/91/38
f 60/85/36 64/87/37 15/86/36
f 64/87/37 13/88/36 15/86/36
f 64/87/37 65/89/38 13/88/36
f 65/89/37 66/90/36 13/88/36
f 66/90/36 52/91/36 13/88/36
f 52/91/36 14/92/36 13/88/36
f 53/93/7 52/94/7 67/95/39
f 52/94/7 66/96/7 67/95/39
f 66/96/7 65/97/7 67/95/39
f 65/97/7 68/98/39 67/95/39
f 59/93/2 69/95/2 58/94/2
f 69/95/2 63/96/2 58/94/2
f 63/96/2 69/95/2 62/97/2
f 69/95/2 70/98/2 62/97/2
f 71/99/40 72/100/41 73/101/41
f 55/102/41 54/103/40 73/101/41
f 74/104/41 71/99/40 73/101/41
f 54/103/40 74/104/41 73/101/41
f 68/105/40 71/99/40 74/104/41
f 54/103/40 53/106/41 74/104/41
f 67/107/41 68/105/40 74/104/41
f 53/106/41 67/107/41 74/104/41
f 73/101/41 72/100/41 75/99/40
f 55/102/41 73/101/41 57/103/40
f 76/104/41 73/101/41 75/99/40
f 73/101/41 76/104/41 57/103/40
f 76/104/41 75/99/40 70/105/41
f 57/103/40 76/104/41 59/106/40
f 69/107/41 76/104/41 70/105/41
f 76/104/41 69/107/41 59/106/40
f 3/108/35 48/109/35 46/110/35
f 50/111/35 48/109/35 3/108/35
f 3/108/35 46/110/35 44/112/35
f 4/113/35 50/111/35 3/108/35
f 3/108/35 44/112/35 8/114/35
f 4/113/35 29/115/35 50/111/35
f 44/112/35 42/116/35 8/114/35
f 4/113/35 30/117/35 29/115/35
f 8/114/35 42/116/35 40/118/35
f 32/119/35 30/117/35 4/113/35
f 8/114/35 40/118/35 38/120/35
f 6/121/35 32/119/35 4/113/35
f 8/114/35 38/120/35 6/121/35
f 6/121/35 34/122/35 32/119/35
f 38/120/35 36/123/35 6/121/35
f 6/121/35 36/123/35 34/122/35
f 31/124/42 33/125/10 77/126/42
f 31/124/42 77/126/42 28/127/10
f 33/125/10 78/128/10 77/126/42
f 33/125/10 35/129/10 78/128/10
f 28/127/10 77/126/42 2/130/10
f 51/131/10 28/127/10 2/130/10
f 78/128/10 5/132/10 77/126/42
f 5/132/10 2/130/10 77/126/42
f 35/129/10 79/133/10 78/128/10
f 79/133/10 5/132/10 78/128/10
f 35/129/10 37/134/10 79/133/10
f 51/131/10 2/130/10 80/135/42
f 49/136/10 51/131/10 80/135/42
f 2/130/10 1/137/10 80/135/42
f 49/136/10 80/135/42 81/138/10
f 80/135/42 1/137/10 81/138/10
f 47/139/10 49/136/10 81/138/10
f 47/139/10 81/138/10 82/140/42
f 81/138/10 1/137/10 82/140/42
f 45/141/10 47/139/10 82/140/42
f 82/140/42 1/137/10 83/142/10
f 45/141/10 82/140/42 83/142/10
f 43/143/10 45/141/10 83/142/10
f 1/137/10 7/144/10 83/142/10
f 43/143/10 83/142/10 84/145/10
f 83/142/10 7/144/10 84/145/10
f 41/146/10 43/143/10 84/145/10
f 41/146/10 84/145/10 85/147/10
f 84/145/10 7/144/10 85/147/10
f 39/148/10 41/146/10 85/147/10
f 85/147/10 7/144/10 86/149/10
f 39/148/10 85/147/10 86/149/10
f 7/144/10 5/132/10 86/149/10
f 37/134/10 39/148/10 86/149/10
f 86/149/10 5/132/10 79/133/10
f 37/134/10 86/149/10 79/133/10
