# Blender 3.6.18
# www.blender.org
mtllib Mesh.070.mtl
o Bistro_Research_Exterior_Paris_StreetSign_01A_6469
v -2.411225 7.846214 -5.248565
v -2.434424 7.846214 -5.261024
v -2.434424 7.903824 -5.261024
v -2.411225 7.903824 -5.248566
v -2.365051 7.390540 -5.390197
v -2.365051 7.846214 -5.390197
v -2.341851 7.846214 -5.377738
v -2.341851 7.390540 -5.377738
v -2.743792 7.846214 -4.629333
v -2.743792 7.903824 -4.629333
v -2.766991 7.903824 -4.641793
v -2.766991 7.846214 -4.641793
v -2.836365 7.390540 -4.512621
v -2.813166 7.390540 -4.500161
v -2.813166 7.846214 -4.500161
v -2.836365 7.846214 -4.512621
v -2.454525 7.909643 -5.223598
v -2.431326 7.909643 -5.211139
v -2.463980 7.915389 -5.205994
v -2.440780 7.915389 -5.193534
v -2.473176 7.923974 -5.188871
v -2.449976 7.923974 -5.176412
v -2.483493 7.939506 -5.169660
v -2.460294 7.939506 -5.157200
v -2.494796 7.960697 -5.148614
v -2.471597 7.960697 -5.136155
v -2.513177 7.995913 -5.114389
v -2.489978 7.995913 -5.101930
v -2.526400 8.015845 -5.089769
v -2.503200 8.015845 -5.077310
v -2.538092 8.029577 -5.067997
v -2.514893 8.029577 -5.055538
v -2.552916 8.042633 -5.040397
v -2.529716 8.042634 -5.027937
v -2.547448 8.051882 -4.994922
v -2.570698 8.051890 -5.007288
v -2.588385 8.056903 -4.974354
v -2.565165 8.056903 -4.961933
v -2.600708 8.057952 -4.951409
v -2.577509 8.057952 -4.938950
v -2.589852 8.056903 -4.915966
v -2.613031 8.056903 -4.928463
v -2.630718 8.051890 -4.895531
v -2.607569 8.051882 -4.882977
v -2.648500 8.042633 -4.862421
v -2.625301 8.042634 -4.849962
v -2.640124 8.029577 -4.822361
v -2.663323 8.029577 -4.834821
v -2.651817 8.015845 -4.800590
v -2.675016 8.015845 -4.813049
v -2.665039 7.995913 -4.775970
v -2.688238 7.995913 -4.788429
v -2.683420 7.960697 -4.741745
v -2.706620 7.960697 -4.754204
v -2.694723 7.939506 -4.720699
v -2.717922 7.939506 -4.733159
v -2.705041 7.923974 -4.701487
v -2.728240 7.923974 -4.713946
v -2.714237 7.915389 -4.684364
v -2.737436 7.915389 -4.696824
v -2.723691 7.909643 -4.666760
v -2.746891 7.909643 -4.679220
v -2.600708 7.390540 -4.951409
v -2.577508 7.390540 -4.938950
vn 0.4675 -0.0039 -0.8840
vn -0.0039 1.0000 -0.0039
vn -0.4769 -0.0040 0.8789
vn -0.4769 -0.0039 0.8789
vn 0.0592 0.9907 -0.1223
vn 0.0904 0.9786 -0.1847
vn 0.0592 0.9907 -0.1224
vn 0.1612 0.9394 -0.3026
vn 0.2313 0.8662 -0.4429
vn 0.2939 0.7799 -0.5526
vn 0.3104 0.7427 -0.5934
vn 0.2957 0.7768 -0.5560
vn 0.2474 0.8444 -0.4752
vn 0.2003 0.8993 -0.3888
vn 0.1457 0.9490 -0.2796
vn 0.0828 0.9820 -0.1696
vn 0.0354 0.9959 -0.0827
vn -0.0433 0.9963 0.0748
vn -0.0907 0.9826 0.1618
vn -0.0908 0.9826 0.1618
vn -0.1537 0.9499 0.2720
vn -0.2084 0.9006 0.3815
vn -0.2557 0.8458 0.4682
vn -0.2557 0.8458 0.4681
vn -0.3042 0.7784 0.5492
vn -0.3190 0.7443 0.5868
vn -0.3024 0.7814 0.5458
vn -0.2395 0.8676 0.4358
vn -0.2394 0.8676 0.4358
vn -0.1692 0.9404 0.2951
vn -0.0983 0.9793 0.1770
vn -0.0671 0.9912 0.1145
vn -0.8807 -0.0039 -0.4736
vn -0.0039 -1.0000 -0.0039
vt 0.863770 0.041504
vt 0.863770 0.067871
vt 0.806152 0.067871
vt 0.806152 0.041504
vt 0.922852 0.034668
vt 0.467773 0.034668
vt 0.467773 0.008301
vt 0.922852 0.008301
vt 0.008751 0.684082
vt 0.008751 0.657715
vt 0.155273 0.657715
vt 0.155273 0.684082
vt 0.871582 0.041992
vt 0.929199 0.041992
vt 0.929199 0.068359
vt 0.871582 0.068359
vt 0.003078 0.034668
vt 0.003078 0.008301
vt 0.458496 0.008301
vt 0.458496 0.034668
vt 0.155273 0.649414
vt 0.008751 0.649414
vt 0.008751 0.623291
vt 0.155273 0.623291
vt 0.792969 0.041504
vt 0.792969 0.067871
vt 0.750488 0.067871
vt 0.750488 0.041504
vt 0.729492 0.067871
vt 0.729492 0.041504
vt 0.708496 0.067871
vt 0.708496 0.041504
vt 0.681641 0.067871
vt 0.681641 0.041504
vt 0.649414 0.067871
vt 0.649414 0.041504
vt 0.597168 0.067871
vt 0.597168 0.041504
vt 0.562988 0.067871
vt 0.562988 0.041504
vt 0.534180 0.067871
vt 0.534180 0.041504
vt 0.500488 0.067871
vt 0.500488 0.041504
vt 0.461914 0.041504
vt 0.461914 0.067871
vt 0.424316 0.067871
vt 0.424316 0.041504
vt 0.398193 0.067871
vt 0.398193 0.041504
vt 0.372070 0.041504
vt 0.372070 0.067871
vt 0.334473 0.067871
vt 0.334229 0.041504
vt 0.295654 0.067871
vt 0.295654 0.041504
vt 0.261719 0.041504
vt 0.261719 0.067871
vt 0.233398 0.041504
vt 0.233398 0.067871
vt 0.199097 0.041504
vt 0.199097 0.067871
vt 0.146729 0.041504
vt 0.146729 0.067871
vt 0.114807 0.041504
vt 0.114807 0.067871
vt 0.088013 0.041504
vt 0.088013 0.067871
vt 0.066772 0.041504
vt 0.066772 0.067871
vt 0.046021 0.041504
vt 0.046021 0.067871
vt 0.003178 0.041504
vt 0.003178 0.067871
vt 0.149536 0.549561
vt 0.003073 0.549561
vt 0.003099 0.094238
vt 0.192017 0.613037
vt 0.149536 0.607178
vt 0.500488 0.094238
vt 0.212036 0.618652
vt 0.231445 0.627197
vt 0.253174 0.642822
vt 0.277100 0.664062
vt 0.315918 0.699219
vt 0.343750 0.719238
vt 0.368652 0.732910
vt 0.399902 0.745850
vt 0.437500 0.755127
vt 0.474854 0.760132
vt 0.500488 0.761230
vt 0.526855 0.760132
vt 0.563965 0.755127
vt 0.601562 0.745850
vt 0.632812 0.732910
vt 0.657715 0.719238
vt 0.685547 0.699219
vt 0.724609 0.664062
vt 0.748535 0.642822
vt 0.770020 0.627197
vt 0.789551 0.618652
vt 0.809570 0.613037
vt 0.852051 0.549561
vt 0.852051 0.607178
vt 0.998535 0.094238
vt 0.998535 0.549561
vt 0.003103 0.098633
vt 0.003103 0.072266
vt 0.500488 0.072266
vt 0.500488 0.098633
vt 0.998535 0.098633
vt 0.998535 0.072266
s 1
usemtl Paris_StreetSign_01
f 1/1/1 2/2/1 3/3/1
f 3/3/1 4/4/1 1/1/1
f 5/5/1 6/6/1 7/7/1
f 7/7/1 8/8/1 5/5/1
f 2/9/2 1/10/2 7/11/2
f 7/11/2 6/12/2 2/9/2
f 9/13/3 10/14/3 11/15/3
f 11/15/3 12/16/3 9/13/3
f 13/17/4 14/18/4 15/19/4
f 15/19/3 16/20/3 13/17/3
f 12/21/2 16/22/2 15/23/2
f 15/23/2 9/24/2 12/21/2
f 4/25/5 3/26/5 17/27/6
f 17/27/6 18/28/6 4/25/7
f 18/28/6 17/27/6 19/29/8
f 19/29/8 20/30/8 18/28/6
f 20/30/8 19/29/8 21/31/9
f 21/31/9 22/32/9 20/30/8
f 22/32/9 21/31/9 23/33/10
f 23/33/10 24/34/10 22/32/9
f 24/34/10 23/33/10 25/35/11
f 25/35/11 26/36/11 24/34/10
f 26/36/11 25/35/11 27/37/12
f 27/37/12 28/38/12 26/36/11
f 28/38/12 27/37/12 29/39/13
f 29/39/13 30/40/13 28/38/12
f 30/40/13 29/39/13 31/41/14
f 32/42/14 30/40/13 31/41/14
f 32/42/14 31/41/14 33/43/15
f 33/43/15 34/44/15 32/42/14
f 35/45/16 34/44/15 33/43/15
f 33/43/15 36/46/16 35/45/16
f 35/45/16 36/46/16 37/47/17
f 37/47/17 38/48/17 35/45/16
f 38/48/17 37/47/17 39/49/2
f 39/49/2 40/50/2 38/48/17
f 41/51/18 40/50/2 39/49/2
f 39/49/2 42/52/18 41/51/18
f 41/51/18 42/52/18 43/53/19
f 43/53/19 44/54/20 41/51/18
f 44/54/20 43/53/19 45/55/21
f 45/55/21 46/56/21 44/54/20
f 47/57/22 46/56/21 45/55/21
f 45/55/21 48/58/22 47/57/22
f 48/58/22 49/59/23 47/57/22
f 48/58/22 50/60/24 49/59/23
f 51/61/25 49/59/23 50/60/24
f 50/60/24 52/62/25 51/61/25
f 53/63/26 51/61/25 52/62/25
f 52/62/25 54/64/26 53/63/26
f 55/65/27 53/63/26 54/64/26
f 54/64/26 56/66/27 55/65/27
f 57/67/28 55/65/27 56/66/27
f 56/66/27 58/68/29 57/67/28
f 59/69/30 57/67/28 58/68/29
f 58/68/29 60/70/30 59/69/30
f 61/71/31 59/69/30 60/70/30
f 60/70/30 62/72/31 61/71/31
f 10/73/32 61/71/31 62/72/31
f 62/72/31 11/74/32 10/73/32
f 2/75/33 6/76/33 5/77/33
f 17/78/33 3/79/33 2/75/33
f 5/77/33 63/80/33 2/75/33
f 2/75/33 63/80/33 17/78/33
f 19/81/33 17/78/33 63/80/33
f 21/82/33 19/81/33 63/80/33
f 23/83/33 21/82/33 63/80/33
f 25/84/33 23/83/33 63/80/33
f 27/85/33 25/84/33 63/80/33
f 29/86/33 27/85/33 63/80/33
f 29/86/33 63/80/33 31/87/33
f 33/88/33 31/87/33 63/80/33
f 36/89/33 33/88/33 63/80/33
f 37/90/33 36/89/33 63/80/33
f 39/91/33 37/90/33 63/80/33
f 39/91/33 63/80/33 42/92/33
f 63/80/33 43/93/33 42/92/33
f 43/93/33 63/80/33 45/94/33
f 45/94/33 63/80/33 48/95/33
f 48/95/33 63/80/33 50/96/33
f 50/96/33 63/80/33 52/97/33
f 52/97/33 63/80/33 54/98/33
f 54/98/33 63/80/33 56/99/33
f 56/99/33 63/80/33 58/100/33
f 58/100/33 63/80/33 60/101/33
f 60/101/33 63/80/33 62/102/33
f 62/102/33 63/80/33 12/103/33
f 12/103/33 11/104/33 62/102/33
f 12/103/33 63/80/33 13/105/33
f 13/105/33 16/106/33 12/103/33
f 5/107/34 8/108/34 64/109/34
f 64/109/34 63/110/34 5/107/34
f 13/111/34 63/110/34 64/109/34
f 64/109/34 14/112/34 13/111/34
