# Blender 3.6.18
# www.blender.org
mtllib Mesh.391.mtl
o Bistro_Research_Exterior_paris_building_11_5799
v 4.182811 9.319677 22.329132
v 5.427762 9.319678 22.838200
v 5.450122 9.309972 22.783518
v 4.205171 9.309971 22.274448
v 5.453110 9.308675 22.776211
v 4.208158 9.308674 22.267139
v 4.207268 9.257854 22.269321
v 5.452219 9.257854 22.778391
v 5.449230 9.256583 22.785702
v 4.204278 9.256583 22.276632
v 5.426425 9.246886 22.841473
v 4.181474 9.246886 22.332401
v 5.452970 9.300683 22.776554
v 4.208019 9.300683 22.267483
v 5.452359 9.265846 22.778046
v 4.207407 9.265846 22.268978
vn 0.0590 0.9864 -0.1533
vn 0.2867 0.6244 -0.7266
vn 0.2867 0.6245 -0.7265
vn 0.2772 -0.6676 -0.6910
vn 0.0585 -0.9866 -0.1521
vn 0.3716 -0.0509 -0.9270
vn 0.3716 -0.0508 -0.9270
vt 0.410156 0.525879
vt -0.009987 0.525879
vt -0.009987 0.507568
vt 0.410156 0.507568
vt -0.009987 0.505127
vt 0.410156 0.505127
vt 0.589355 0.505859
vt 1.009766 0.505859
vt 1.009766 0.508301
vt 0.589355 0.508301
vt 1.009766 0.527100
vt 0.589355 0.527100
vt 0.589355 0.379883
vt 1.009766 0.379883
vt 1.009766 0.382324
vt 0.589355 0.382324
vt 1.009766 0.393555
vt 0.589355 0.393555
vt 1.009766 0.395996
vt 0.589355 0.395996
s 1
usemtl MASTER_Wood_Painted_Green
f 1/1/1 2/2/1 3/3/1
f 4/4/1 1/1/1 3/3/1
f 4/4/1 3/3/1 5/5/2
f 6/6/3 4/4/1 5/5/2
f 7/7/4 8/8/4 9/9/5
f 10/10/5 7/7/4 9/9/5
f 10/10/5 9/9/5 11/11/5
f 12/12/5 10/10/5 11/11/5
f 6/13/3 5/14/2 13/15/6
f 14/16/7 6/13/3 13/15/6
f 14/16/7 13/15/6 15/17/6
f 16/18/7 14/16/7 15/17/6
f 16/18/7 15/17/6 8/19/4
f 7/20/4 16/18/7 8/19/4
