# Blender 3.6.18
# www.blender.org
mtllib Mesh.718.mtl
o Bistro_Research_Exterior_paris_building_05_5099
v 20.973568 22.561029 -39.685116
v 20.973568 19.685749 -39.685116
v 20.513897 19.685749 -38.909542
v 20.513899 22.561029 -38.909542
v 20.040052 22.561029 -38.110043
v 20.502411 22.561029 -38.890163
v 20.502413 19.685749 -38.890163
v 20.040051 19.685749 -38.110043
vn -0.8602 -0.0039 -0.5099
vt 0.251221 0.988487
vt 0.251221 0.225098
vt 0.497803 0.225098
vt 0.497803 0.988487
vt 0.249146 0.988487
vt 0.002602 0.988487
vt 0.002602 0.225098
vt 0.249146 0.225098
s 1
usemtl MASTER_Curtains
f 1/1/1 2/2/1 3/3/1
f 3/3/1 4/4/1 1/1/1
f 5/5/1 6/6/1 7/7/1
f 7/7/1 8/8/1 5/5/1
