# Blender 3.6.18
# www.blender.org
mtllib Mesh.860.mtl
o Bistro_Research_Exterior_Paris_Building_01_paris_buildi_159e465
v 2.029241 1.633321 -13.660524
v 2.186288 1.633649 -13.575480
v 2.190578 1.640187 -13.577552
v 2.033218 1.640187 -13.662392
v 4.051265 1.640186 -17.028683
v 2.031044 1.629787 -13.680274
v 2.056101 1.581568 -13.704838
v 3.893906 1.640185 -17.113520
v 4.049321 1.634438 -17.035015
v 3.895351 1.632832 -17.116203
v 3.877771 1.629786 -17.105511
v 3.856333 1.584612 -17.065748
v 3.871022 1.581566 -17.071079
v 2.052482 1.584614 -13.720037
v 3.862596 1.574212 -17.055450
v 2.064527 1.574214 -13.720464
v 2.100574 1.578120 -13.684777
v 3.891374 1.574212 -17.039934
v 3.914985 1.578379 -17.043755
v 2.093306 1.574214 -13.704948
v 3.899965 1.565535 -17.021873
v 2.113117 1.565537 -13.707698
v 2.151594 1.532587 -13.708999
v 3.903351 1.533909 -16.984118
v 3.920025 1.532586 -16.989012
v 2.146520 1.533910 -13.725617
v 3.914926 1.525232 -16.971590
v 3.993956 1.532560 -16.949121
v 3.984782 1.525232 -16.933929
v 2.233202 1.525233 -13.685168
v 2.163347 1.525233 -13.722832
v 2.225549 1.532562 -13.669154
v 3.895351 0.760130 -17.116201
v 4.049321 0.758524 -17.035015
v 4.051264 0.752776 -17.028681
v 3.893905 0.752776 -17.113520
v 2.190578 0.752778 -13.577553
v 3.877771 0.763177 -17.105511
v 3.871022 0.811396 -17.071077
v 2.033218 0.752778 -13.662393
v 2.188358 0.760107 -13.575259
v 2.026709 0.759158 -13.661336
v 2.031044 0.763178 -13.680274
v 2.052482 0.808351 -13.720037
v 2.056101 0.811398 -13.704839
v 3.856333 0.808350 -17.065748
v 2.064527 0.818752 -13.720464
v 3.862596 0.818750 -17.055452
v 3.914985 0.814583 -17.043755
v 2.093306 0.818752 -13.704948
v 2.089943 0.812372 -13.687698
v 2.105677 0.817123 -13.684612
v 3.891374 0.818750 -17.039936
v 2.113117 0.827428 -13.707697
v 3.899965 0.827427 -17.021872
v 3.920025 0.860376 -16.989010
v 2.146520 0.859055 -13.725616
v 2.151593 0.860378 -13.708999
v 3.903351 0.859053 -16.984118
v 2.163347 0.867732 -13.722832
v 2.225549 0.860403 -13.669153
v 2.233202 0.867732 -13.685168
v 3.984782 0.867730 -16.933929
v 3.914926 0.867730 -16.971592
v 3.993956 0.860402 -16.949121
v 2.185641 0.763178 -13.568398
v 2.028281 0.763178 -13.653239
v 2.185641 1.629787 -13.568398
v 2.024063 0.777886 -13.667329
v 2.028281 1.629787 -13.653239
v 2.024063 1.615080 -13.667328
v 2.045501 1.569906 -13.707093
v 2.045501 0.823060 -13.707093
v 2.059591 1.563814 -13.711311
v 2.059591 0.829152 -13.711311
v 2.088369 1.563814 -13.695795
v 2.088369 0.829152 -13.695797
v 2.106688 1.551993 -13.695776
v 2.106688 0.840973 -13.695777
v 2.140092 1.520366 -13.713699
v 2.140092 0.872599 -13.713698
v 2.158410 1.514833 -13.713678
v 2.228265 1.514834 -13.676015
v 2.228265 0.878132 -13.676016
v 2.158410 0.878132 -13.713677
v 4.056201 1.629786 -17.037834
v 3.898842 1.629786 -17.122675
v 4.056200 0.763176 -17.037834
v 3.884752 1.615078 -17.118458
v 3.898841 0.763176 -17.122675
v 3.884752 0.777884 -17.118456
v 3.863313 0.823058 -17.078693
v 3.863313 1.569904 -17.078693
v 3.867532 0.829150 -17.064606
v 3.867532 1.563812 -17.064606
v 3.896310 0.829150 -17.049088
v 3.896311 1.563812 -17.049091
v 3.906394 0.840971 -17.033796
v 3.906394 1.551991 -17.033794
v 3.909779 0.872598 -16.996040
v 3.909779 1.520364 -16.996038
v 3.919862 0.878130 -16.980743
v 3.989717 0.878130 -16.943081
v 3.989718 1.514832 -16.943083
v 3.919863 1.514832 -16.980745
vn -0.4210 0.4839 0.7672
vn -0.0004 1.0000 -0.0021
vn -0.0039 1.0000 -0.0039
vn -0.8775 -0.0039 -0.4796
vn -0.8763 -0.4791 0.0506
vn 0.3966 0.5065 -0.7656
vn 0.3965 0.5065 -0.7656
vn -0.8774 -0.0039 -0.4797
vn -0.3852 -0.5019 -0.7744
vn -0.0039 -1.0000 -0.0039
vn -0.6433 -0.7603 0.0897
vn -0.2455 -0.7520 -0.6117
vn -0.7368 -0.5497 -0.3938
vn -0.7368 -0.5497 -0.3937
vn -0.1835 -0.9253 0.3319
vn -0.7368 -0.5496 -0.3938
vn 0.1755 -0.9242 -0.3393
vn 0.3950 -0.5123 -0.7626
vn -0.0042 -1.0000 -0.0041
vn -0.3867 0.4961 -0.7774
vn -0.4205 -0.4598 0.7821
vn -0.8888 0.4581 -0.0118
vn -0.2469 0.7486 -0.6153
vn -0.1858 0.9290 0.3202
vn -0.6482 0.7504 0.1296
vn -0.7399 0.5442 -0.3954
vn 0.1768 0.9230 -0.3417
vn -0.1849 0.9242 0.3343
vn -0.7400 0.5442 -0.3954
vn -0.1848 0.9242 0.3343
vn 0.1767 0.9230 -0.3417
vn -0.2155 -0.8893 0.4035
vn -0.4830 -0.0039 0.8756
vn -0.4830 -0.0040 0.8756
vn -0.4721 -0.4175 -0.7764
vn -0.2320 0.8770 0.4208
vn -0.4333 0.4568 -0.7769
vn 0.4736 -0.0039 -0.8807
vn 0.4261 -0.3714 -0.8249
vn -0.1053 0.3861 -0.9164
vn -0.0897 -0.4250 -0.9007
vn -0.4736 -0.0039 -0.8807
vn -0.4737 -0.0039 -0.8807
vn 0.4327 -0.3859 -0.8147
vn 0.4340 0.3793 -0.8172
vn 0.4745 -0.0039 -0.8802
vn 0.2320 0.8612 -0.4522
vn 0.4696 -0.0039 -0.8829
vn -0.8629 0.4959 0.0976
vn 0.2304 -0.8632 -0.4492
vn -0.8596 -0.5017 0.0972
vn -0.8045 0.4200 0.4199
vn -0.8019 -0.4264 0.4185
vn -0.9966 -0.0039 0.0821
vn -0.9966 -0.0039 0.0820
vn -0.4431 0.3804 0.8118
vn -0.4418 -0.3871 0.8093
vn -0.4431 0.3804 0.8117
vt -1.283203 1.338867
vt -1.284180 1.283936
vt -1.282227 1.281250
vt -1.282227 1.337158
vt -0.057495 1.281250
vt -1.277344 1.340332
vt -1.267578 1.357178
vt -0.057495 1.337158
vt -0.055481 1.283936
vt -0.056061 1.338379
vt -0.061951 1.340332
vt -0.076233 1.354492
vt -0.072266 1.357422
vt -1.263672 1.354492
vt -0.078125 1.357666
vt -1.261719 1.357666
vt -1.267578 1.373779
vt -0.078125 1.367920
vt -0.074097 1.373535
vt -1.261719 1.367920
vt -0.082275 1.373779
vt -1.257812 1.373047
vt -1.252930 1.385986
vt -0.091370 1.382812
vt -0.087158 1.385986
vt -1.248047 1.381348
vt -0.093262 1.387939
vt -0.086121 1.413574
vt -0.093445 1.412842
vt -1.248047 1.413330
vt -1.247070 1.387939
vt -1.253906 1.413330
vt 0.426025 1.473389
vt 0.425781 1.418945
vt 0.427734 1.416260
vt 0.427734 1.471924
vt 1.652344 1.416260
vt 0.432129 1.475342
vt 0.443848 1.492188
vt 1.652344 1.472168
vt 1.654297 1.416504
vt 1.652344 1.475342
vt 1.647461 1.475342
vt 1.633789 1.489502
vt 1.638672 1.490723
vt 0.446289 1.489258
vt 1.631836 1.492676
vt 0.448242 1.492676
vt 0.444824 1.508301
vt 1.631836 1.502930
vt 1.637695 1.504395
vt 1.635742 1.508789
vt 0.449463 1.502930
vt 1.627930 1.508301
vt 0.452637 1.508301
vt 0.457764 1.521484
vt 1.619141 1.517578
vt 1.623047 1.520996
vt 0.461426 1.517578
vt 1.616211 1.522461
vt 1.622070 1.547852
vt 1.616211 1.547363
vt 0.463623 1.547363
vt 0.463623 1.522461
vt 0.458008 1.547852
vt 0.496826 1.282227
vt 0.497803 1.339844
vt 0.495361 1.340332
vt 0.495117 1.284912
vt 0.225708 1.340332
vt 0.490723 1.280762
vt 0.480469 1.264648
vt 0.225830 1.284912
vt 0.223267 1.339844
vt 0.224121 1.282715
vt 0.230225 1.281006
vt 0.244385 1.267578
vt 0.240234 1.265137
vt 0.476318 1.267578
vt 0.246338 1.263672
vt 0.474609 1.263428
vt 0.480469 1.252930
vt 0.246094 1.253418
vt 0.240845 1.250244
vt 0.474854 1.253662
vt 0.479492 1.248413
vt 0.249634 1.247559
vt 0.471191 1.247803
vt 0.465332 1.232300
vt 0.259766 1.236206
vt 0.255615 1.232666
vt 0.461182 1.235962
vt 0.261475 1.230835
vt 0.255615 1.206055
vt 0.261475 1.206177
vt 0.459473 1.206299
vt 0.459473 1.230713
vt 0.465332 1.206055
vt 0.109375 0.119629
vt 0.108643 0.064941
vt 0.111023 0.062012
vt 0.111084 0.117676
vt 0.381104 0.062500
vt 0.115723 0.121094
vt 0.125977 0.136719
vt 0.381104 0.117188
vt 0.383301 0.065430
vt 0.382812 0.118652
vt 0.376465 0.120605
vt 0.362549 0.133789
vt 0.366699 0.136230
vt 0.130005 0.134277
vt 0.360596 0.137695
vt 0.131714 0.138184
vt 0.125732 0.152832
vt 0.360596 0.148438
vt 0.366211 0.153320
vt 0.131226 0.147949
vt 0.356934 0.154297
vt 0.135010 0.154297
vt 0.140747 0.169434
vt 0.346680 0.165527
vt 0.350830 0.169434
vt 0.144897 0.166016
vt 0.344971 0.170898
vt 0.351074 0.195801
vt 0.344971 0.195801
vt 0.146606 0.195801
vt 0.146606 0.171387
vt 0.140625 0.195801
s 1
usemtl MASTER_Wood_Painted3
f 1/1/1 2/2/1 3/3/2
f 4/4/3 1/1/1 3/3/2
f 4/4/3 3/3/2 5/5/3
f 4/4/3 6/6/4 1/1/1
f 7/7/5 1/1/1 6/6/4
f 8/8/3 4/4/3 5/5/3
f 5/5/3 9/9/6 8/8/3
f 9/9/6 10/10/7 8/8/3
f 8/8/3 11/11/8 4/4/3
f 10/10/7 11/11/8 8/8/3
f 11/11/8 6/6/4 4/4/3
f 11/11/8 10/10/7 12/12/8
f 10/10/7 13/13/9 12/12/8
f 14/14/8 6/6/4 11/11/8
f 12/12/8 14/14/8 11/11/8
f 14/14/8 7/7/5 6/6/4
f 13/13/9 15/15/10 12/12/8
f 12/12/8 15/15/10 14/14/8
f 14/14/8 16/16/10 7/7/5
f 15/15/10 16/16/10 14/14/8
f 17/17/11 7/7/5 16/16/10
f 15/15/10 13/13/9 18/18/10
f 13/13/9 19/19/12 18/18/10
f 20/20/10 16/16/10 15/15/10
f 18/18/10 20/20/10 15/15/10
f 20/20/10 17/17/11 16/16/10
f 19/19/12 21/21/13 18/18/10
f 18/18/10 21/21/13 20/20/10
f 17/17/11 20/20/10 22/22/14
f 21/21/13 22/22/14 20/20/10
f 23/23/15 17/17/11 22/22/14
f 21/21/13 19/19/12 24/24/16
f 19/19/12 25/25/17 24/24/16
f 26/26/14 22/22/14 21/21/13
f 24/24/16 26/26/14 21/21/13
f 26/26/14 23/23/15 22/22/14
f 25/25/17 27/27/10 24/24/16
f 24/24/16 27/27/10 26/26/14
f 25/25/17 28/28/17 29/29/10
f 27/27/10 25/25/17 29/29/10
f 29/29/10 30/30/10 27/27/10
f 26/26/14 31/31/10 23/23/15
f 27/27/10 31/31/10 26/26/14
f 30/30/10 31/31/10 27/27/10
f 32/32/15 23/23/15 31/31/10
f 30/30/10 32/32/15 31/31/10
f 33/33/18 34/34/18 35/35/19
f 36/36/10 33/33/18 35/35/19
f 36/36/10 35/35/19 37/37/10
f 36/36/10 38/38/8 33/33/18
f 39/39/20 33/33/18 38/38/8
f 40/40/10 36/36/10 37/37/10
f 37/37/10 41/41/21 40/40/10
f 41/41/21 42/42/21 40/40/10
f 40/40/10 43/43/8 36/36/10
f 42/42/21 43/43/8 40/40/10
f 43/43/8 38/38/8 36/36/10
f 43/43/8 42/42/21 44/44/8
f 42/42/21 45/45/22 44/44/8
f 46/46/8 38/38/8 43/43/8
f 44/44/8 46/46/8 43/43/8
f 46/46/8 39/39/20 38/38/8
f 45/45/22 47/47/3 44/44/8
f 44/44/8 47/47/3 46/46/8
f 46/46/8 48/48/3 39/39/20
f 47/47/3 48/48/3 46/46/8
f 49/49/23 39/39/20 48/48/3
f 47/47/3 45/45/22 50/50/3
f 45/45/22 51/51/24 50/50/3
f 51/51/24 52/52/25 50/50/3
f 53/53/3 48/48/3 47/47/3
f 50/50/3 53/53/3 47/47/3
f 53/53/3 49/49/23 48/48/3
f 52/52/25 54/54/26 50/50/3
f 50/50/3 54/54/26 53/53/3
f 49/49/23 53/53/3 55/55/26
f 54/54/26 55/55/26 53/53/3
f 56/56/27 49/49/23 55/55/26
f 57/57/26 54/54/26 52/52/25
f 58/58/28 57/57/26 52/52/25
f 59/59/29 55/55/26 54/54/26
f 57/57/26 59/59/29 54/54/26
f 59/59/29 56/56/27 55/55/26
f 57/57/26 58/58/28 60/60/3
f 57/57/26 60/60/3 59/59/29
f 58/58/28 61/61/30 62/62/3
f 60/60/3 58/58/28 62/62/3
f 62/62/3 63/63/3 60/60/3
f 59/59/29 64/64/3 56/56/27
f 60/60/3 64/64/3 59/59/29
f 63/63/3 64/64/3 60/60/3
f 65/65/31 56/56/27 64/64/3
f 63/63/3 65/65/31 64/64/3
f 42/66/32 41/67/32 66/68/33
f 67/69/34 42/66/32 66/68/33
f 67/69/34 66/68/33 68/70/33
f 67/69/34 69/71/8 42/66/32
f 45/72/35 42/66/32 69/71/8
f 70/73/33 67/69/34 68/70/33
f 68/70/33 2/74/36 70/73/33
f 2/74/36 1/75/36 70/73/33
f 70/73/33 71/76/8 67/69/34
f 1/75/36 71/76/8 70/73/33
f 71/76/8 69/71/8 67/69/34
f 72/77/8 71/76/8 1/75/36
f 7/78/37 72/77/8 1/75/36
f 73/79/4 69/71/8 71/76/8
f 72/77/8 73/79/4 71/76/8
f 73/79/4 45/72/35 69/71/8
f 72/77/8 7/78/37 74/80/38
f 72/77/8 74/80/38 73/79/4
f 73/79/4 75/81/38 45/72/35
f 74/80/38 75/81/38 73/79/4
f 51/82/39 45/72/35 75/81/38
f 74/80/38 7/78/37 76/83/38
f 7/78/37 17/84/40 76/83/38
f 77/85/38 75/81/38 74/80/38
f 77/85/38 51/82/39 75/81/38
f 76/83/38 77/85/38 74/80/38
f 51/82/39 77/85/38 52/86/41
f 17/84/40 78/87/42 76/83/38
f 76/83/38 78/87/42 77/85/38
f 77/85/38 79/88/43 52/86/41
f 78/87/42 79/88/43 77/85/38
f 52/86/41 79/88/43 58/89/44
f 80/90/42 78/87/42 17/84/40
f 23/91/45 80/90/42 17/84/40
f 81/92/42 79/88/43 78/87/42
f 80/90/42 81/92/42 78/87/42
f 79/88/43 81/92/42 58/89/44
f 80/90/42 23/91/45 82/93/38
f 80/90/42 82/93/38 81/92/42
f 23/91/45 32/94/45 83/95/46
f 82/93/38 23/91/45 83/95/46
f 83/95/46 84/96/38 82/93/38
f 85/97/38 58/89/44 81/92/42
f 82/93/38 85/97/38 81/92/42
f 84/96/38 85/97/38 82/93/38
f 61/98/44 58/89/44 85/97/38
f 84/96/38 61/98/44 85/97/38
f 10/99/47 9/100/47 86/101/48
f 87/102/38 10/99/47 86/101/48
f 87/102/38 86/101/48 88/103/38
f 87/102/38 89/104/8 10/99/47
f 13/105/49 10/99/47 89/104/8
f 90/106/38 87/102/38 88/103/38
f 88/103/38 34/107/50 90/106/38
f 34/107/50 33/108/50 90/106/38
f 90/106/38 91/109/8 87/102/38
f 33/108/50 91/109/8 90/106/38
f 91/109/8 89/104/8 87/102/38
f 91/109/8 33/108/50 92/110/8
f 33/108/50 39/111/51 92/110/8
f 93/112/8 89/104/8 91/109/8
f 92/110/8 93/112/8 91/109/8
f 93/112/8 13/105/49 89/104/8
f 39/111/51 94/113/33 92/110/8
f 92/110/8 94/113/33 93/112/8
f 93/112/8 95/114/33 13/105/49
f 94/113/33 95/114/33 93/112/8
f 19/115/52 13/105/49 95/114/33
f 94/113/33 39/111/51 96/116/33
f 39/111/51 49/117/53 96/116/33
f 97/118/33 95/114/33 94/113/33
f 96/116/33 97/118/33 94/113/33
f 97/118/33 19/115/52 95/114/33
f 49/117/53 98/119/54 96/116/33
f 96/116/33 98/119/54 97/118/33
f 19/115/52 97/118/33 99/120/55
f 98/119/54 99/120/55 97/118/33
f 25/121/56 19/115/52 99/120/55
f 98/119/54 49/117/53 100/122/54
f 49/117/53 56/123/57 100/122/54
f 101/124/54 99/120/55 98/119/54
f 100/122/54 101/124/54 98/119/54
f 101/124/54 25/121/56 99/120/55
f 56/123/57 102/125/34 100/122/54
f 100/122/54 102/125/34 101/124/54
f 56/123/57 65/126/57 103/127/33
f 102/125/34 56/123/57 103/127/33
f 103/127/33 104/128/33 102/125/34
f 101/124/54 105/129/33 25/121/56
f 102/125/34 105/129/33 101/124/54
f 104/128/33 105/129/33 102/125/34
f 28/130/56 25/121/56 105/129/33
f 104/128/33 28/130/58 105/129/33
