# Blender 3.6.18
# www.blender.org
mtllib Mesh.658.mtl
o Bistro_Research_Exterior_paris_building_05_35__5225
v 53.756275 17.066967 22.380138
v 53.756275 14.191688 22.380138
v 54.593803 14.191687 22.713844
v 54.593803 17.066967 22.713844
v 55.457176 17.066967 23.057844
v 54.614735 17.066967 22.722185
v 54.614735 14.191687 22.722185
v 55.457176 14.191687 23.057844
vn -0.3748 -0.0039 0.9271
vt 0.251221 0.988487
vt 0.251221 0.225098
vt 0.497803 0.225098
vt 0.497803 0.988487
vt 0.249146 0.988487
vt 0.002602 0.988487
vt 0.002602 0.225098
vt 0.249146 0.225098
s 1
usemtl MASTER_Curtains
f 1/1/1 2/2/1 3/3/1
f 3/3/1 4/4/1 1/1/1
f 5/5/1 6/6/1 7/7/1
f 7/7/1 8/8/1 5/5/1
