# Blender 3.6.18
# www.blender.org
mtllib Mesh.748.mtl
o Bistro_Research_Exterior_paris_building_05_5039
v 22.656271 22.435297 -43.779346
v 22.448608 22.435297 -44.242924
v 22.393944 22.435297 -44.218441
v 22.601604 22.435297 -43.754856
v 22.393944 22.339176 -44.218441
v 22.601604 22.339176 -43.754856
v 22.656271 22.339178 -43.779346
v 22.448608 22.339176 -44.242924
v 22.602446 19.735756 -43.760571
v 22.651875 19.735756 -43.782715
v 22.651875 22.343517 -43.782715
v 22.602446 22.343517 -43.760571
v 22.570604 22.343517 -43.831654
v 22.570604 19.735756 -43.831654
v 22.620033 19.735756 -43.853794
v 22.620029 22.343517 -43.853794
v 22.592085 22.337021 -43.831879
v 22.448105 22.337021 -44.153290
v 22.448105 19.738836 -44.153290
v 22.592085 19.738834 -43.831879
v 22.449799 19.735756 -44.233826
v 22.400370 19.735756 -44.211681
v 22.400370 22.343517 -44.211681
v 22.449799 22.343517 -44.233826
v 22.481642 22.343517 -44.162739
v 22.481642 19.735756 -44.162739
v 22.432215 19.735756 -44.140602
v 22.432215 22.343517 -44.140602
v 22.656271 19.735340 -43.779346
v 22.448608 19.735340 -44.242924
v 22.393944 19.735340 -44.218441
v 22.601604 19.735340 -43.754856
v 22.393944 19.639219 -44.218441
v 22.601604 19.639219 -43.754856
v 22.656271 19.639221 -43.779346
v 22.448608 19.639219 -44.242924
v 22.440243 19.905809 -44.232735
v 22.404528 19.905809 -44.216740
v 22.404528 20.034706 -44.216740
v 22.440245 20.034706 -44.232735
v 22.406109 20.034706 -44.213207
v 22.441822 20.034706 -44.229206
v 22.441826 19.905809 -44.229210
v 22.406111 19.905809 -44.213203
v 22.464987 19.905809 -44.288528
v 22.451046 19.905809 -44.251961
v 22.451046 20.034706 -44.251961
v 22.464991 20.034706 -44.288525
v 22.454662 20.034706 -44.250580
v 22.468603 20.034706 -44.287151
v 22.468605 19.905809 -44.287148
v 22.454662 19.905809 -44.250580
v 22.938341 22.435297 -44.120686
v 22.463697 22.435297 -44.301647
v 22.442362 22.435297 -44.245682
v 22.917002 22.435297 -44.064716
v 22.442362 22.339176 -44.245682
v 22.917002 22.339176 -44.064716
v 22.938341 22.339178 -44.120686
v 22.463697 22.339176 -44.301647
v 22.913555 19.735756 -44.069355
v 22.932850 19.735756 -44.119961
v 22.932850 22.343517 -44.119961
v 22.913555 22.343517 -44.069355
v 22.840778 22.343517 -44.097099
v 22.840778 19.735756 -44.097099
v 22.860071 19.735756 -44.147709
v 22.860071 22.343517 -44.147709
v 22.533363 22.337021 -44.255325
v 22.862446 22.337021 -44.129856
v 22.862446 19.738836 -44.129856
v 22.533363 19.738834 -44.255322
v 22.470978 19.735756 -44.296051
v 22.451683 19.735756 -44.245449
v 22.451683 22.343517 -44.245449
v 22.470978 22.343517 -44.296051
v 22.543758 22.343517 -44.268307
v 22.543756 19.735756 -44.268307
v 22.524462 19.735756 -44.217701
v 22.524462 22.343517 -44.217701
v 22.938341 19.735340 -44.120686
v 22.463697 19.735340 -44.301647
v 22.442362 19.735340 -44.245682
v 22.917002 19.735340 -44.064716
v 22.442362 19.639219 -44.245682
v 22.917002 19.639219 -44.064716
v 22.938341 19.639221 -44.120686
v 22.463697 19.639219 -44.301647
v 22.464987 22.107107 -44.288528
v 22.451046 22.107107 -44.251961
v 22.451046 22.236004 -44.251961
v 22.464991 22.236004 -44.288525
v 22.454662 22.236004 -44.250580
v 22.468603 22.236004 -44.287151
v 22.468605 22.107107 -44.287148
v 22.454662 22.107107 -44.250580
v 22.440243 22.107107 -44.232735
v 22.404528 22.107107 -44.216740
v 22.404528 22.236004 -44.216740
v 22.440245 22.236004 -44.232735
v 22.406109 22.236004 -44.213207
v 22.441822 22.236004 -44.229206
v 22.441826 22.107107 -44.229210
v 22.406111 22.107107 -44.213203
v 22.451530 19.906164 -44.229984
v 22.458115 19.906164 -44.236950
v 22.458115 20.034370 -44.236950
v 22.451530 20.034370 -44.229984
v 22.441946 19.906164 -44.229710
v 22.441946 20.034370 -44.229710
v 22.434978 19.906164 -44.236290
v 22.434978 20.034370 -44.236290
v 22.434704 19.906164 -44.245872
v 22.434704 20.034370 -44.245872
v 22.441288 19.906164 -44.252842
v 22.441288 20.034370 -44.252842
v 22.450872 19.906164 -44.253117
v 22.450872 20.034370 -44.253117
v 22.457838 19.906164 -44.246529
v 22.457838 20.034370 -44.246529
v 22.451530 22.107466 -44.229984
v 22.458115 22.107466 -44.236950
v 22.458115 22.235668 -44.236950
v 22.451530 22.235668 -44.229984
v 22.441946 22.107466 -44.229710
v 22.441946 22.235668 -44.229710
v 22.434978 22.107466 -44.236290
v 22.434978 22.235668 -44.236290
v 22.434704 22.107466 -44.245872
v 22.434704 22.235668 -44.245872
v 22.441288 22.107466 -44.252842
v 22.441288 22.235668 -44.252842
v 22.450872 22.107466 -44.253117
v 22.450872 22.235668 -44.253117
v 22.457838 22.107466 -44.246529
v 22.457838 22.235668 -44.246529
v 22.446407 19.906164 -44.241413
v 22.446407 20.034370 -44.241413
v 22.446407 22.107466 -44.241413
v 22.446407 22.235668 -44.241413
vn -0.0039 1.0000 -0.0039
vn -0.9146 -0.0039 0.4043
vn 0.9104 -0.0039 -0.4138
vn 0.4072 -0.0040 0.9133
vn 0.4072 -0.0039 0.9133
vn -0.4108 -0.0039 -0.9117
vn -0.0039 -1.0000 -0.0039
vn -0.4109 -0.0039 -0.9117
vn -0.9345 -0.0039 -0.3558
vn 0.3490 -0.0039 -0.9371
vn 0.3489 -0.0039 -0.9371
vn -0.3584 -0.0039 0.9335
vn -0.3585 -0.0040 0.9335
vn -0.3585 -0.0039 0.9335
vn 0.9362 -0.0040 0.3515
vn 0.9362 -0.0039 0.3516
vn 0.9362 -0.0040 0.3516
vn 0.4073 -0.0039 0.9133
vt 0.327881 0.353027
vt 0.327881 0.432129
vt 0.318604 0.432129
vt 0.318604 0.353027
vt 0.315430 0.432129
vt 0.300537 0.432129
vt 0.300537 0.352539
vt 0.315430 0.352539
vt 0.270020 0.352051
vt 0.284912 0.352051
vt 0.284912 0.431641
vt 0.270020 0.431641
vt 0.269775 0.345215
vt 0.269775 0.335938
vt 0.284912 0.335938
vt 0.284912 0.345215
vt 0.288086 0.345215
vt 0.288086 0.335938
vt 0.303223 0.335938
vt 0.303223 0.345215
vt 0.287842 0.352539
vt 0.297363 0.352539
vt 0.297363 0.432129
vt 0.287842 0.432129
vt 0.858398 0.978256
vt 0.848633 0.978256
vt 0.848633 0.570801
vt 0.858398 0.570801
vt 0.812012 0.571289
vt 0.812012 0.978668
vt 0.799805 0.978668
vt 0.799805 0.571289
vt 0.845215 0.572021
vt 0.845215 0.979340
vt 0.833008 0.979340
vt 0.833008 0.572021
vt 0.827637 0.980072
vt 0.817871 0.980072
vt 0.817871 0.572754
vt 0.827637 0.572754
vt 0.377197 0.011230
vt 0.432373 0.011230
vt 0.432373 0.416992
vt 0.377197 0.416992
vt 0.360107 0.465332
vt 0.354004 0.465332
vt 0.354004 0.445312
vt 0.360107 0.445312
vt 0.354004 0.442871
vt 0.360107 0.442871
vt 0.360107 0.443359
vt 0.354004 0.443359
vt 0.362061 0.445312
vt 0.362061 0.465332
vt 0.361328 0.465332
vt 0.361328 0.445312
vt 0.360107 0.467285
vt 0.354004 0.467285
vt 0.354004 0.466797
vt 0.360107 0.466797
vt 0.352051 0.465332
vt 0.352051 0.445312
vt 0.352783 0.445312
vt 0.352783 0.465332
vt 0.327637 0.464355
vt 0.326172 0.464355
vt 0.326172 0.443848
vt 0.327637 0.443848
vt 0.329102 0.464355
vt 0.329102 0.443848
vt 0.330566 0.464355
vt 0.330566 0.443848
vt 0.332031 0.464355
vt 0.332031 0.443848
vt 0.333496 0.464355
vt 0.333496 0.443848
vt 0.334473 0.464355
vt 0.334473 0.443848
vt 0.335938 0.464355
vt 0.335938 0.443848
vt 0.337402 0.464355
vt 0.337402 0.443848
vt 0.326172 0.466797
vt 0.327393 0.465820
vt 0.328125 0.467773
vt 0.326172 0.468262
vt 0.328857 0.465820
vt 0.327148 0.469238
vt 0.329834 0.466797
vt 0.328857 0.469238
vt 0.329834 0.468262
vt 0.333252 0.465820
vt 0.334717 0.465820
vt 0.333984 0.467773
vt 0.332275 0.466797
vt 0.335938 0.466797
vt 0.332275 0.468262
vt 0.335938 0.468750
vt 0.333252 0.469727
vt 0.334717 0.469727
s 1
usemtl MASTER_Building_Details
f 1/1/1 2/2/1 3/3/1
f 3/3/1 4/4/1 1/1/1
f 3/5/2 5/6/2 6/7/2
f 6/7/2 4/8/2 3/5/2
f 1/9/3 7/10/3 8/11/3
f 8/11/3 2/12/3 1/9/3
f 1/13/4 4/14/4 6/15/4
f 6/15/4 7/16/5 1/13/4
f 3/17/6 2/18/6 8/19/6
f 8/19/6 5/20/6 3/17/6
f 7/21/7 6/22/7 5/23/7
f 5/23/7 8/24/7 7/21/7
f 9/25/4 10/26/4 11/27/4
f 11/27/4 12/28/4 9/25/4
f 9/29/2 12/30/2 13/31/2
f 13/31/2 14/32/2 9/29/2
f 11/33/3 10/34/3 15/35/3
f 15/35/3 16/36/3 11/33/3
f 15/37/8 14/38/8 13/39/6
f 13/39/6 16/40/6 15/37/8
f 17/41/2 18/42/2 19/43/2
f 19/43/2 20/44/2 17/41/2
f 21/25/6 22/26/8 23/27/6
f 23/27/6 24/28/6 21/25/6
f 21/29/3 24/30/3 25/31/3
f 25/31/3 26/32/3 21/29/3
f 23/33/2 22/34/2 27/35/2
f 27/35/2 28/36/2 23/33/2
f 27/37/5 26/38/5 25/39/5
f 25/39/5 28/40/5 27/37/5
f 29/1/1 30/2/1 31/3/1
f 31/3/1 32/4/1 29/1/1
f 31/5/2 33/6/2 34/7/2
f 34/7/2 32/8/2 31/5/2
f 29/9/3 35/10/3 36/11/3
f 36/11/3 30/12/3 29/9/3
f 29/13/4 32/14/4 34/15/4
f 34/15/4 35/16/4 29/13/4
f 31/17/6 30/18/6 36/19/6
f 36/19/6 33/20/8 31/17/6
f 35/21/7 34/22/7 33/23/7
f 33/23/7 36/24/7 35/21/7
f 37/45/6 38/46/8 39/47/8
f 39/47/8 40/48/8 37/45/6
f 41/49/1 42/50/1 40/51/1
f 40/51/1 39/52/1 41/49/1
f 42/53/3 43/54/3 37/55/3
f 37/55/3 40/56/3 42/53/3
f 43/57/7 44/58/7 38/59/7
f 38/59/7 37/60/7 43/57/7
f 44/61/2 41/62/2 39/63/2
f 39/63/2 38/64/2 44/61/2
f 45/45/9 46/46/9 47/47/9
f 47/47/9 48/48/9 45/45/9
f 49/49/1 50/50/1 48/51/1
f 48/51/1 47/52/1 49/49/1
f 50/53/10 51/54/10 45/55/11
f 45/55/11 48/56/10 50/53/10
f 51/57/7 52/58/7 46/59/7
f 46/59/7 45/60/7 51/57/7
f 52/61/12 49/62/12 47/63/12
f 47/63/12 46/64/12 52/61/12
f 53/1/1 54/2/1 55/3/1
f 55/3/1 56/4/1 53/1/1
f 55/5/13 57/6/13 58/7/13
f 58/7/13 56/8/14 55/5/13
f 53/9/10 59/10/10 60/11/10
f 60/11/10 54/12/10 53/9/10
f 53/13/15 56/14/16 58/15/15
f 58/15/15 59/16/17 53/13/15
f 55/17/9 54/18/9 60/19/9
f 60/19/9 57/20/9 55/17/9
f 59/21/7 58/22/7 57/23/7
f 57/23/7 60/24/7 59/21/7
f 61/25/17 62/26/17 63/27/15
f 63/27/15 64/28/15 61/25/17
f 61/29/12 64/30/12 65/31/12
f 65/31/14 66/32/14 61/29/14
f 63/33/10 62/34/10 67/35/10
f 67/35/10 68/36/10 63/33/10
f 67/37/9 66/38/9 65/39/9
f 65/39/9 68/40/9 67/37/9
f 69/41/10 70/42/10 71/43/10
f 71/43/10 72/44/10 69/41/10
f 73/25/9 74/26/9 75/27/9
f 75/27/9 76/28/9 73/25/9
f 73/29/10 76/30/10 77/31/10
f 77/31/10 78/32/10 73/29/10
f 75/33/14 74/34/14 79/35/14
f 79/35/13 80/36/13 75/33/13
f 79/37/15 78/38/15 77/39/15
f 77/39/15 80/40/15 79/37/15
f 81/1/1 82/2/1 83/3/1
f 83/3/1 84/4/1 81/1/1
f 83/5/13 85/6/13 86/7/13
f 86/7/13 84/8/14 83/5/13
f 81/9/10 87/10/10 88/11/10
f 88/11/10 82/12/10 81/9/10
f 81/13/15 84/14/16 86/15/15
f 86/15/15 87/16/17 81/13/15
f 83/17/9 82/18/9 88/19/9
f 88/19/9 85/20/9 83/17/9
f 87/21/7 86/22/7 85/23/7
f 85/23/7 88/24/7 87/21/7
f 89/45/9 90/46/9 91/47/9
f 91/47/9 92/48/9 89/45/9
f 93/49/1 94/50/1 92/51/1
f 92/51/1 91/52/1 93/49/1
f 94/53/10 95/54/10 89/55/10
f 89/55/10 92/56/10 94/53/10
f 95/57/7 96/58/7 90/59/7
f 90/59/7 89/60/7 95/57/7
f 96/61/12 93/62/12 91/63/12
f 91/63/12 90/64/13 96/61/12
f 97/45/8 98/46/8 99/47/6
f 99/47/6 100/48/6 97/45/8
f 101/49/1 102/50/1 100/51/1
f 100/51/1 99/52/1 101/49/1
f 102/53/3 103/54/3 97/55/3
f 97/55/3 100/56/3 102/53/3
f 103/57/7 104/58/7 98/59/7
f 98/59/7 97/60/7 103/57/7
f 104/61/2 101/62/2 99/63/2
f 99/63/2 98/64/2 104/61/2
f 105/65/4 106/66/16 107/67/15
f 107/67/15 108/68/4 105/65/4
f 109/69/12 105/65/4 108/68/4
f 108/68/4 110/70/13 109/69/12
f 111/71/2 109/69/12 110/70/13
f 110/70/13 112/72/2 111/71/2
f 113/73/9 111/71/2 112/72/2
f 112/72/2 114/74/9 113/73/9
f 115/75/8 113/73/9 114/74/9
f 114/74/9 116/76/8 115/75/8
f 117/77/10 115/75/8 116/76/8
f 116/76/8 118/78/10 117/77/10
f 119/79/3 117/77/10 118/78/10
f 118/78/10 120/80/3 119/79/3
f 106/81/16 119/79/3 120/80/3
f 120/80/3 107/82/15 106/81/16
f 121/65/4 122/66/15 123/67/15
f 123/67/15 124/68/18 121/65/4
f 125/69/14 121/65/4 124/68/18
f 124/68/18 126/70/13 125/69/14
f 127/71/2 125/69/14 126/70/13
f 126/70/13 128/72/2 127/71/2
f 129/73/9 127/71/2 128/72/2
f 128/72/2 130/74/9 129/73/9
f 131/75/6 129/73/9 130/74/9
f 130/74/9 132/76/6 131/75/6
f 133/77/10 131/75/6 132/76/6
f 132/76/6 134/78/10 133/77/10
f 135/79/3 133/77/10 134/78/10
f 134/78/10 136/80/3 135/79/3
f 122/81/15 135/79/3 136/80/3
f 136/80/3 123/82/15 122/81/15
f 111/83/7 113/84/7 137/85/7
f 109/86/7 111/83/7 137/85/7
f 113/84/7 115/87/7 137/85/7
f 105/88/7 109/86/7 137/85/7
f 115/87/7 117/89/7 137/85/7
f 106/90/7 105/88/7 137/85/7
f 117/89/7 119/91/7 137/85/7
f 119/91/7 106/90/7 137/85/7
f 114/92/1 112/93/1 138/94/1
f 116/95/1 114/92/1 138/94/1
f 112/93/1 110/96/1 138/94/1
f 118/97/1 116/95/1 138/94/1
f 110/96/1 108/98/1 138/94/1
f 120/99/1 118/97/1 138/94/1
f 108/98/1 107/100/1 138/94/1
f 107/100/1 120/99/1 138/94/1
f 127/83/7 129/84/7 139/85/7
f 125/86/7 127/83/7 139/85/7
f 129/84/7 131/87/7 139/85/7
f 121/88/7 125/86/7 139/85/7
f 131/87/7 133/89/7 139/85/7
f 122/90/7 121/88/7 139/85/7
f 133/89/7 135/91/7 139/85/7
f 135/91/7 122/90/7 139/85/7
f 130/92/1 128/93/1 140/94/1
f 132/95/1 130/92/1 140/94/1
f 128/93/1 126/96/1 140/94/1
f 134/97/1 132/95/1 140/94/1
f 126/96/1 124/98/1 140/94/1
f 136/99/1 134/97/1 140/94/1
f 124/98/1 123/100/1 140/94/1
f 123/100/1 136/99/1 140/94/1
