# Blender 3.6.18
# www.blender.org
mtllib Mesh.437.mtl
o Bistro_Research_Exterior_paris_building_11_5699
v -5.880897 8.462289 30.027079
v -5.880896 11.027602 30.027079
v -5.644003 8.462257 30.121290
v -5.644002 11.027615 30.121292
v -6.231986 8.462291 30.301716
v -6.231988 11.027601 30.301723
v -6.169734 8.462291 30.149479
v -6.169736 11.027601 30.149485
v -6.223271 8.462291 30.322681
v -5.798646 8.462257 30.499565
v -6.223274 11.027601 30.322687
v -5.798648 11.027615 30.499571
v -5.909947 8.462287 30.028570
v -6.020646 8.462257 30.086378
v -5.909946 11.027603 30.028570
v -6.020647 11.027615 30.086384
v -6.148521 11.027603 30.129557
v -6.148520 8.462288 30.129551
v -5.381965 8.462289 28.806921
v -5.146930 8.462257 28.905680
v -5.381965 11.027602 28.806921
v -5.146929 11.027615 28.905682
v -5.440038 8.462291 28.364979
v -5.502289 8.462291 28.517208
v -5.440034 11.027601 28.364967
v -5.502285 11.027601 28.517206
v -5.419133 8.462291 28.356125
v -5.419130 11.027601 28.356115
v -4.992227 8.462257 28.527433
v -4.992223 11.027615 28.527428
v -5.401645 8.462287 28.785498
v -5.401645 11.027603 28.785498
v -5.440126 8.462257 28.666691
v -5.440125 11.027615 28.666691
v -5.501112 11.027603 28.546291
v -5.501114 8.462288 28.546297
v -6.006390 8.446254 30.093641
v -6.148932 8.446286 30.140879
v -6.006390 11.043616 30.093643
v -5.894860 11.043606 30.038744
v -6.148934 11.043603 30.140881
v -5.792588 11.043619 30.484768
v -6.217218 11.043603 30.307877
v -5.894861 8.446280 30.038746
v -6.217215 8.446284 30.307871
v -5.792586 8.446249 30.484756
v -4.998279 8.446249 28.542246
v -5.425189 8.446284 28.370935
v -5.425185 11.043603 28.370930
v -4.998275 11.043619 28.542240
v -5.424866 8.446254 28.671501
v -5.383755 8.446280 28.788813
v -5.383754 11.043606 28.788811
v -5.424864 11.043616 28.671497
v -5.493471 11.043603 28.537922
v -5.493474 8.446286 28.537928
v -5.724895 11.043657 30.319355
v -5.697111 11.043657 30.251173
v -5.650058 11.043620 30.136103
v -5.650058 8.446246 30.136101
v -5.697110 8.446158 30.251167
v -5.724891 8.446158 30.319342
v -5.140874 11.043620 28.890873
v -5.093821 11.043657 28.775801
v -5.065873 11.043657 28.707685
v -5.065877 8.446158 28.707697
v -5.093823 8.446158 28.775805
v -5.140874 8.446246 28.890871
vn 0.3653 -0.0039 -0.9309
vn -0.9255 -0.0039 -0.3788
vn -0.3882 -0.0039 0.9216
vn -0.4643 -0.0039 -0.8857
vn -0.3949 -0.0039 -0.9187
vn -0.3232 -0.0039 -0.9463
vn -0.9533 -0.0039 0.3021
vn -0.9255 -0.0039 0.3788
vn -0.8936 -0.0039 0.4488
vn -0.2916 -0.6027 -0.7427
vn -0.3156 -0.6350 -0.7051
vn -0.5268 -0.3629 -0.7687
vn -0.5104 -0.5883 -0.6272
vn -0.2930 0.5977 -0.7462
vn -0.3171 0.6303 -0.7086
vn -0.1917 0.4342 -0.8802
vn -0.0431 0.6621 -0.7482
vn -0.5282 0.3561 -0.7708
vn -0.5127 0.5832 -0.6301
vn -0.2800 0.7059 0.6507
vn -0.7185 0.4594 0.5222
vn -0.6068 0.7556 0.2466
vn -0.1910 -0.4405 -0.8772
vn -0.0429 -0.6664 -0.7443
vn -0.7159 -0.4655 0.5203
vn -0.6032 -0.7589 0.2452
vn -0.2784 -0.7098 0.6470
vn -0.6032 -0.7590 0.2452
vn 0.2612 -0.7056 -0.6588
vn -0.1439 -0.4627 -0.8748
vn -0.2525 -0.7575 -0.6021
vn -0.1444 0.4565 -0.8779
vn -0.2540 0.7541 -0.6056
vn 0.2626 0.7016 -0.6624
vn -0.7285 -0.6039 0.3234
vn -0.7172 -0.6388 0.2783
vn -0.7499 -0.4437 0.4908
vn -0.5520 -0.6694 0.4972
vn -0.7525 0.4373 0.4925
vn -0.5549 0.6651 0.4998
vn -0.7320 0.5989 0.3249
vn -0.7208 0.6342 0.2797
vn -0.9180 0.3555 0.1758
vn -0.8089 0.5822 0.0820
vn -0.9154 -0.3623 0.1753
vn -0.8052 -0.5874 0.0817
vn -0.0039 1.0000 -0.0039
vn -0.0039 -1.0000 -0.0039
vn -0.0431 0.6620 -0.7482
vn 0.2553 0.7030 -0.6638
vn 0.0903 0.4595 -0.8836
vn 0.2553 0.7030 -0.6637
vn 0.0900 -0.4656 -0.8804
vn 0.2539 -0.7070 -0.6601
vn -0.5515 -0.4654 0.6923
vn -0.5535 0.4592 0.6948
vn -0.5535 0.4593 0.6948
vn -0.8766 -0.4636 0.1286
vn -0.8798 0.4575 0.1290
vn -0.7126 -0.4556 -0.5335
vn -0.7151 0.4494 -0.5354
vn -0.8855 0.4486 -0.1209
vn -0.5335 0.4556 -0.7126
vn -0.8824 -0.4548 -0.1205
vn -0.5316 -0.4618 -0.7101
vt 0.503418 -0.586914
vt 0.503418 0.214844
vt 0.423828 -0.586914
vt 0.423828 0.214844
vt 0.509277 -0.586914
vt 0.509277 0.214844
vt 0.458252 -0.586914
vt 0.458252 0.214844
vt 0.432129 -0.586914
vt 0.575684 -0.586914
vt 0.432129 0.214844
vt 0.575684 0.214844
vt 0.392578 -0.586914
vt 0.422363 -0.586914
vt 0.392578 0.214844
vt 0.422363 0.214844
vt 0.568848 0.214844
vt 0.537109 0.214844
vt 0.568848 -0.586914
vt 0.537109 -0.586914
vt 0.496094 -0.586914
vt 0.496094 0.214844
vt -0.144043 -0.586914
vt -0.092712 -0.586914
vt -0.144043 0.214844
vt -0.092712 0.214844
vt 0.567383 -0.586914
vt 0.567383 0.214844
vt -0.027023 -0.586914
vt -0.027023 0.214844
vt -0.056824 -0.586914
vt -0.056824 0.214844
vt 0.430908 0.214844
vt 0.430908 -0.586914
vt 0.462646 0.214844
vt 0.462646 -0.586914
vt 0.531738 -0.591797
vt 0.567383 -0.591797
vt 0.422363 0.462891
vt 0.422852 0.468262
vt 0.392578 0.488281
vt 0.393799 0.493652
vt 0.567383 0.219727
vt 0.531738 0.219727
vt 0.575684 0.219727
vt 0.432129 0.219727
vt 0.606934 0.488281
vt 0.605957 0.493652
vt 0.577148 0.462891
vt 0.576660 0.468262
vt 0.432129 -0.591797
vt 0.575684 -0.591797
vt 0.423828 -0.591797
vt 0.423828 0.219727
vt 1.056641 0.462891
vt 1.056641 0.468262
vt 1.026367 0.488281
vt 1.027344 0.493652
vt -0.027023 0.488281
vt -0.028183 0.493652
vt -0.056824 0.462891
vt -0.057251 0.468262
vt 0.467773 0.219727
vt 0.467773 -0.591797
vt 0.509766 0.432617
vt 0.510254 0.576172
vt 0.454834 0.576172
vt 0.453369 0.432617
vt 0.431641 0.576172
vt 0.392822 0.576172
vt 0.606934 0.576172
vt 0.567871 0.576172
vt 0.546387 0.432617
vt 0.544922 0.576172
vt 0.489990 0.432617
vt 0.489258 0.576172
vt -0.027390 0.576172
vt -0.066223 0.576172
vt -0.087769 0.432617
vt -0.089233 0.576172
vt -0.144043 0.432617
vt -0.145020 0.576172
vt 1.143555 0.432617
vt 1.144531 0.576172
vt 1.088867 0.576172
vt 1.086914 0.432617
vt 1.065430 0.576172
vt 1.027344 0.576172
vt 0.506348 0.219727
vt 0.511719 0.214844
vt 0.511719 -0.586914
vt 0.506348 -0.591797
vt 0.493408 -0.591797
vt 0.488037 -0.586914
vt 0.488037 0.214844
vt 0.493408 0.219727
vt 0.509766 -0.591797
vt 0.514648 -0.586914
vt 0.453369 -0.591797
vt 0.514648 0.214844
vt 0.449951 -0.586914
vt 0.509766 0.219727
vt 0.449951 0.214844
vt 0.453369 0.219727
vt -0.084412 0.214844
vt -0.087769 0.219727
vt -0.084412 -0.586914
vt -0.144043 0.219727
vt -0.087769 -0.591797
vt -0.149048 0.214844
vt -0.144043 -0.591797
vt -0.149048 -0.586914
s 1
usemtl MASTER_Concrete_Plaster
f 1/1/1 2/2/1 3/3/1
f 2/2/1 4/4/1 3/3/1
f 5/5/2 6/6/2 7/7/2
f 6/6/2 8/8/2 7/7/2
f 9/9/3 10/10/3 11/11/3
f 10/10/3 12/12/3 11/11/3
f 13/13/4 14/14/5 15/15/4
f 14/14/5 16/16/5 15/15/4
f 17/17/6 16/18/5 18/19/6
f 16/18/5 14/20/5 18/19/6
f 19/21/3 20/10/3 21/22/3
f 20/10/3 22/12/3 21/22/3
f 23/23/2 24/24/2 25/25/2
f 24/24/2 26/26/2 25/25/2
f 27/27/1 28/28/1 29/3/1
f 28/28/1 30/4/1 29/3/1
f 31/29/7 32/30/7 33/31/8
f 32/30/7 34/32/8 33/31/8
f 35/33/9 36/34/9 34/35/8
f 36/34/9 33/36/8 34/35/8
f 14/20/10 37/37/11 18/19/12
f 37/37/11 38/38/13 18/19/12
f 16/39/14 39/40/15 15/41/16
f 39/40/15 40/42/17 15/41/16
f 17/17/18 41/43/19 16/18/14
f 41/43/19 39/44/15 16/18/14
f 12/12/20 42/45/20 11/11/21
f 42/45/20 43/46/22 11/11/21
f 13/47/23 44/48/24 14/49/10
f 44/48/24 37/50/11 14/49/10
f 9/9/25 45/51/26 10/10/27
f 45/51/28 46/52/27 10/10/27
f 29/3/29 47/53/29 27/27/30
f 47/53/29 48/38/31 27/27/30
f 28/28/32 49/43/33 30/4/34
f 49/43/33 50/54/34 30/4/34
f 33/55/35 51/56/36 31/57/37
f 51/56/36 52/58/38 31/57/37
f 32/59/39 53/60/40 34/61/41
f 53/60/40 54/62/42 34/61/41
f 34/35/41 54/63/42 35/33/43
f 54/63/42 55/46/44 35/33/43
f 36/34/45 56/51/46 33/36/35
f 56/51/46 51/64/36 33/36/35
f 43/65/47 42/66/47 57/67/47
f 41/68/47 43/65/47 57/67/47
f 41/68/47 57/67/47 58/69/47
f 39/40/47 41/68/47 58/69/47
f 39/40/47 58/69/47 59/70/47
f 40/42/47 39/40/47 59/70/47
f 44/48/48 60/71/48 37/50/48
f 60/71/48 61/72/48 37/50/48
f 37/50/48 61/72/48 38/73/48
f 61/72/48 62/74/48 38/73/48
f 38/73/48 62/74/48 45/75/48
f 62/74/48 46/76/48 45/75/48
f 53/60/47 63/77/47 54/62/47
f 63/77/47 64/78/47 54/62/47
f 54/62/47 64/78/47 55/79/47
f 64/78/47 65/80/47 55/79/47
f 55/79/47 65/80/47 49/81/47
f 65/80/47 50/82/47 49/81/47
f 48/83/48 47/84/48 66/85/48
f 56/86/48 48/83/48 66/85/48
f 56/86/48 66/85/48 67/87/48
f 51/56/48 56/86/48 67/87/48
f 51/56/48 67/87/48 68/88/48
f 52/58/48 51/56/48 68/88/48
f 40/89/49 59/54/50 4/4/50
f 2/2/51 40/89/17 4/4/52
f 15/90/16 40/89/17 2/2/51
f 13/91/23 15/90/16 2/2/51
f 1/1/53 13/91/23 2/2/51
f 44/92/24 13/91/23 1/1/53
f 60/53/54 44/92/24 1/1/53
f 3/3/54 60/53/54 1/1/53
f 52/93/38 68/52/27 20/10/27
f 19/21/55 52/93/38 20/10/27
f 31/94/37 52/93/38 19/21/55
f 32/95/39 31/94/37 19/21/55
f 21/22/56 32/95/39 19/21/55
f 53/96/40 32/95/39 21/22/56
f 63/45/20 53/96/40 21/22/56
f 22/12/20 63/45/20 21/22/57
f 5/5/58 45/97/26 9/98/25
f 38/99/13 45/97/26 5/5/58
f 5/5/58 9/98/25 6/6/59
f 7/7/60 38/99/13 5/5/58
f 9/98/25 11/100/21 6/6/59
f 7/7/60 18/101/12 38/99/13
f 11/100/21 43/102/22 6/6/59
f 17/103/18 18/101/12 7/7/60
f 6/6/59 43/102/22 8/8/61
f 8/8/61 17/103/18 7/7/60
f 43/102/22 41/104/19 8/8/61
f 41/104/19 17/103/18 8/8/61
f 26/26/62 35/105/43 55/106/44
f 36/107/45 35/105/43 26/26/62
f 26/26/62 55/106/44 25/25/63
f 24/24/64 36/107/45 26/26/62
f 55/106/44 49/108/33 25/25/63
f 24/24/64 56/109/46 36/107/45
f 49/108/33 28/110/32 25/25/63
f 48/111/31 56/109/46 24/24/64
f 25/25/63 28/110/32 23/23/65
f 23/23/65 48/111/31 24/24/64
f 28/110/32 27/112/30 23/23/65
f 27/112/30 48/111/31 23/23/65
