# Blender 3.6.18
# www.blender.org
mtllib Mesh.1051.mtl
o Bistro_Research_Exterior_Paris_Building_01_paris_buildi_040bbca
v 13.297015 17.663897 6.526781
v 13.297014 17.774616 6.526780
v 13.096290 17.663897 7.031994
v 13.096291 17.774616 7.031994
v 13.080085 17.774616 7.038987
v 13.080085 17.663897 7.038987
v 10.764370 17.663897 6.117047
v 10.764370 17.774616 6.117047
v 10.757379 17.774616 6.100842
v 10.757379 17.663897 6.100842
v 10.957307 17.663897 5.597648
v 10.957307 17.774616 5.597648
v 10.968909 17.651417 5.602223
v 10.768977 17.651415 6.105449
v 13.285416 17.651417 6.522174
v 13.084692 17.651415 7.027388
v 13.285416 17.787096 6.522174
v 13.084692 17.787096 7.027388
v 10.768978 17.787096 6.105449
v 10.968909 17.787096 5.602223
vn 0.9241 -0.1062 0.3671
vn 0.9253 0.0984 0.3662
vn 0.9179 -0.1064 0.3822
vn 0.9187 0.0986 0.3825
vn -0.3748 -0.0039 0.9271
vn -0.9327 0.0976 -0.3473
vn -0.9319 -0.1053 -0.3470
vn -0.9231 -0.1051 -0.3700
vn -0.9249 0.0974 -0.3675
vn -0.0047 -1.0000 -0.0019
vn -0.0039 -1.0000 -0.0039
vn -0.0048 1.0000 -0.0018
vn -0.0039 1.0000 -0.0039
vt -0.076294 0.426758
vt -0.076294 0.386719
vt 0.121887 0.426758
vt 0.121887 0.386719
vt 0.128296 0.386719
vt 0.128296 0.426758
vt 1.037109 0.426758
vt 1.037109 0.386719
vt 1.042969 0.386719
vt 1.042969 0.426758
vt 1.240234 0.426758
vt 1.240234 0.386719
vt 1.103516 0.252930
vt 1.097656 0.252930
vt 1.103516 0.060059
vt 1.097656 0.055664
vt 1.098633 0.049316
vt 0.189087 0.252930
vt 0.189575 0.049316
vt 0.189087 0.055664
vt 0.182861 0.252930
vt 0.182861 0.049316
vt 0.185791 -0.234375
vt 0.192017 -0.234375
vt 0.185791 -0.038086
vt 0.192017 -0.036133
vt 0.190674 -0.030273
vt 1.100586 -0.030273
vt 1.100586 -0.036133
vt 1.100586 -0.234375
vt 1.106445 -0.033203
vt 1.106445 -0.234375
s 1
usemtl MASTER_Concrete_Smooth
f 1/1/1 2/2/2 3/3/3
f 2/2/2 4/4/4 3/3/3
f 4/4/4 5/5/5 3/3/3
f 5/5/5 6/6/5 3/3/3
f 6/6/5 5/5/5 7/7/5
f 5/5/5 8/8/5 7/7/5
f 7/7/5 8/8/5 9/9/6
f 10/10/7 7/7/5 9/9/6
f 11/11/8 10/10/7 9/9/6
f 12/12/9 11/11/8 9/9/6
f 11/13/8 13/14/10 10/15/7
f 13/14/10 14/16/11 10/15/7
f 7/17/5 10/15/7 14/16/11
f 13/14/10 15/18/11 14/16/11
f 7/17/5 14/16/11 6/19/5
f 15/18/11 16/20/11 14/16/11
f 14/16/11 16/20/11 6/19/5
f 16/20/11 15/18/11 1/21/1
f 3/22/3 6/19/5 16/20/11
f 3/22/3 16/20/11 1/21/1
f 2/23/2 17/24/12 4/25/4
f 17/24/12 18/26/13 4/25/4
f 18/26/13 5/27/5 4/25/4
f 5/27/5 18/26/13 8/28/5
f 18/26/13 17/24/12 19/29/13
f 18/26/13 19/29/13 8/28/5
f 17/24/12 20/30/13 19/29/13
f 19/29/13 9/31/6 8/28/5
f 19/29/13 20/30/13 12/32/9
f 9/31/6 19/29/13 12/32/9
