# Blender 3.6.18
# www.blender.org
mtllib Mesh.421.mtl
o Bistro_Research_Exterior_paris_building_11_5731
v 8.777548 8.915383 22.848610
v 8.777548 11.027603 22.848610
v 8.683334 8.915352 23.085503
v 8.683334 11.027616 23.085505
v 8.423602 8.915385 22.465094
v 8.423594 11.027602 22.465090
v 8.655149 8.915385 22.559772
v 8.655143 11.027602 22.559769
v 8.402640 8.915383 22.473806
v 8.225752 8.915352 22.898430
v 8.402631 11.027602 22.473803
v 8.225745 11.027616 22.898428
v 8.776055 8.915381 22.819559
v 8.718248 8.915352 22.708860
v 8.776055 11.027604 22.819559
v 8.718245 11.027616 22.708860
v 8.675072 11.027604 22.580986
v 8.675077 8.915381 22.580988
v 10.301549 8.915383 23.471786
v 10.202789 8.915352 23.706820
v 10.301549 11.027603 23.471786
v 10.202789 11.027616 23.706821
v 10.822806 8.915385 23.446144
v 10.591258 8.915385 23.351460
v 10.822813 11.027602 23.446146
v 10.591264 11.027602 23.351460
v 10.831656 8.915383 23.467049
v 10.831665 11.027602 23.467051
v 10.660346 8.915352 23.893953
v 10.660354 11.027616 23.893953
v 10.322969 8.915381 23.452105
v 10.322969 11.027604 23.452105
v 10.441777 8.915352 23.413624
v 10.441781 11.027616 23.413626
v 10.562181 11.027604 23.352638
v 10.562175 8.915381 23.352636
v 8.710987 8.899347 22.723118
v 8.663753 8.899381 22.580576
v 8.710983 11.043617 22.723116
v 8.765883 11.043607 22.834646
v 8.663746 11.043604 22.580574
v 8.240554 11.043617 22.904486
v 8.417441 11.043604 22.479858
v 8.765883 8.899373 22.834648
v 8.417450 8.899380 22.479862
v 8.240561 8.899346 22.904490
v 10.645535 8.899346 23.887899
v 10.816846 8.899380 23.460993
v 10.816854 11.043604 23.460995
v 10.645542 11.043617 23.887903
v 10.436969 8.899347 23.428885
v 10.319656 8.899373 23.469995
v 10.319656 11.043607 23.469995
v 10.436973 11.043617 23.428886
v 10.570550 11.043604 23.360279
v 10.570544 8.899381 23.360277
v 8.485271 11.043658 23.004610
v 8.553455 11.043658 23.032396
v 8.668524 11.043621 23.079449
v 8.668524 8.899341 23.079449
v 8.553458 8.899252 23.032396
v 8.485283 8.899252 23.004614
v 10.217598 11.043621 23.712875
v 10.332668 11.043658 23.759930
v 10.400784 11.043658 23.787876
v 10.400773 8.899252 23.787872
v 10.332664 8.899252 23.759928
v 10.217598 8.899341 23.712873
vn 0.9298 -0.0040 0.3680
vn 0.9298 -0.0039 0.3680
vn 0.3721 -0.0039 -0.9282
vn -0.9227 -0.0039 -0.3854
vn 0.8840 -0.0039 -0.4675
vn 0.9175 -0.0039 -0.3977
vn 0.9455 -0.0039 -0.3256
vn -0.3092 -0.0039 -0.9510
vn -0.3854 -0.0039 -0.9227
vn -0.4550 -0.0039 -0.8905
vn 0.7392 -0.6062 -0.2933
vn 0.7012 -0.6385 -0.3173
vn 0.7654 -0.3651 -0.5299
vn 0.6225 -0.5912 -0.5129
vn 0.7427 0.6013 -0.2947
vn 0.7047 0.6338 -0.3189
vn 0.8784 0.4373 -0.1930
vn 0.7447 0.6660 -0.0433
vn 0.7676 0.3582 -0.5314
vn 0.6254 0.5860 -0.5152
vn -0.6552 0.7023 -0.2785
vn -0.5279 0.4575 -0.7156
vn -0.6552 0.7022 -0.2786
vn -0.2540 0.7541 -0.6056
vn 0.8754 -0.4436 -0.1923
vn 0.7409 -0.6703 -0.0431
vn -0.5260 -0.4636 -0.7130
vn -0.2525 -0.7575 -0.6021
vn -0.6516 -0.7062 -0.2770
vn 0.6543 -0.7092 0.2625
vn 0.8730 -0.4658 -0.1448
vn 0.5971 -0.7610 -0.2537
vn 0.8729 -0.4658 -0.1448
vn 0.8761 0.4597 -0.1453
vn 0.6006 0.7577 -0.2552
vn 0.6580 0.7053 0.2640
vn 0.6007 0.7577 -0.2552
vn 0.6579 0.7053 0.2640
vn -0.3303 -0.6023 -0.7267
vn -0.2855 -0.6374 -0.7157
vn -0.4967 -0.4419 -0.7470
vn -0.5030 -0.6668 -0.5498
vn -0.4984 0.4356 -0.7496
vn -0.5057 0.6624 -0.5527
vn -0.3319 0.5973 -0.7301
vn -0.2869 0.6328 -0.7192
vn -0.1833 0.3550 -0.9167
vn -0.0898 0.5818 -0.8083
vn -0.1828 -0.3618 -0.9142
vn -0.0894 -0.5870 -0.8047
vn -0.0039 1.0000 -0.0039
vn -0.0039 -1.0000 -0.0039
vn 0.7448 0.6659 -0.0433
vn 0.6593 0.7067 0.2566
vn 0.8819 0.4627 0.0909
vn 0.8786 -0.4689 0.0906
vn 0.6557 -0.7106 0.2552
vn -0.6963 -0.4629 -0.5485
vn -0.6988 0.4568 -0.5505
vn -0.1362 -0.4632 -0.8757
vn -0.1367 0.4570 -0.8789
vn 0.5279 -0.4575 -0.7156
vn 0.5297 0.4513 -0.7181
vn 0.1132 0.4490 -0.8863
vn 0.7087 0.4581 -0.5365
vn 0.1128 -0.4552 -0.8832
vn 0.7062 -0.4643 -0.5345
vt 0.503418 -0.445312
vt 0.503418 0.214844
vt 0.423828 -0.445312
vt 0.423828 0.214844
vt 0.587402 -0.445312
vt 0.587402 0.214844
vt 0.509277 -0.445312
vt 0.509277 0.214844
vt 0.432129 -0.445312
vt 0.575684 -0.445312
vt 0.432129 0.214844
vt 0.575684 0.214844
vt 0.443848 -0.445312
vt 0.473633 -0.445312
vt 0.443848 0.214844
vt 0.473633 0.214844
vt 0.568848 0.214844
vt 0.537109 0.214844
vt 0.568848 -0.445312
vt 0.537109 -0.445312
vt 0.496094 -0.445312
vt 0.496094 0.214844
vt -0.222168 -0.445312
vt -0.143921 -0.445312
vt -0.222168 0.214844
vt -0.143921 0.214844
vt 0.567383 -0.445312
vt 0.567383 0.214844
vt -0.078308 -0.445312
vt -0.078308 0.214844
vt -0.108093 -0.445312
vt -0.108093 0.214844
vt 0.430908 0.214844
vt 0.430908 -0.445312
vt 0.462646 0.214844
vt 0.462646 -0.445312
vt 0.531738 -0.450195
vt 0.567383 -0.450195
vt 0.473633 0.462891
vt 0.474121 0.468262
vt 0.443848 0.488281
vt 0.445068 0.493652
vt 0.567383 0.219727
vt 0.531738 0.219727
vt 0.575684 0.219727
vt 0.432129 0.219727
vt 0.555664 0.488281
vt 0.554688 0.493652
vt 0.525879 0.462891
vt 0.525391 0.468262
vt 0.432129 -0.450195
vt 0.575684 -0.450195
vt 0.423828 -0.450195
vt 0.423828 0.219727
vt 1.107422 0.462891
vt 1.108398 0.468262
vt 1.078125 0.488281
vt 1.079102 0.493652
vt -0.078308 0.488281
vt -0.079468 0.493652
vt -0.108093 0.462891
vt -0.108521 0.468262
vt 0.467773 0.219727
vt 0.467773 -0.450195
vt 0.587402 0.432617
vt 0.588379 0.576172
vt 0.505859 0.576172
vt 0.504395 0.432617
vt 0.483154 0.576172
vt 0.444092 0.576172
vt 0.555664 0.576172
vt 0.516602 0.576172
vt 0.495117 0.432617
vt 0.493652 0.576172
vt 0.412109 0.432617
vt 0.411133 0.576172
vt -0.078674 0.576172
vt -0.117493 0.576172
vt -0.139038 0.432617
vt -0.140503 0.576172
vt -0.222168 0.432617
vt -0.223145 0.576172
vt 1.221680 0.432617
vt 1.222656 0.576172
vt 1.139648 0.576172
vt 1.138672 0.432617
vt 1.117188 0.576172
vt 1.078125 0.576172
vt 0.506348 0.219727
vt 0.511719 0.214844
vt 0.511719 -0.445312
vt 0.506348 -0.450195
vt 0.493408 -0.450195
vt 0.488037 -0.445312
vt 0.488037 0.214844
vt 0.493408 0.219727
vt 0.587402 -0.450195
vt 0.592773 -0.445312
vt 0.504395 -0.450195
vt 0.592773 0.214844
vt 0.500977 -0.445312
vt 0.587402 0.219727
vt 0.500977 0.214844
vt 0.504395 0.219727
vt -0.135742 0.214844
vt -0.139038 0.219727
vt -0.135742 -0.445312
vt -0.222168 0.219727
vt -0.139038 -0.450195
vt -0.227173 0.214844
vt -0.222168 -0.450195
vt -0.227173 -0.445312
s 1
usemtl MASTER_Concrete_Plaster
f 1/1/1 2/2/1 3/3/1
f 2/2/2 4/4/2 3/3/2
f 5/5/3 6/6/3 7/7/3
f 6/6/3 8/8/3 7/7/3
f 9/9/4 10/10/4 11/11/4
f 10/10/4 12/12/4 11/11/4
f 13/13/5 14/14/6 15/15/5
f 14/14/6 16/16/6 15/15/5
f 17/17/7 16/18/6 18/19/7
f 16/18/6 14/20/6 18/19/7
f 19/21/4 20/10/4 21/22/4
f 20/10/4 22/12/4 21/22/4
f 23/23/3 24/24/3 25/25/3
f 24/24/3 26/26/3 25/25/3
f 27/27/2 28/28/2 29/3/2
f 28/28/2 30/4/2 29/3/2
f 31/29/8 32/30/8 33/31/9
f 32/30/8 34/32/9 33/31/9
f 35/33/10 36/34/10 34/35/9
f 36/34/10 33/36/9 34/35/9
f 14/20/11 37/37/12 18/19/13
f 37/37/12 38/38/14 18/19/13
f 16/39/15 39/40/16 15/41/17
f 39/40/16 40/42/18 15/41/17
f 17/17/19 41/43/20 16/18/15
f 41/43/20 39/44/16 16/18/15
f 12/12/21 42/45/21 11/11/22
f 42/45/23 43/46/24 11/11/22
f 13/47/25 44/48/26 14/49/11
f 44/48/26 37/50/12 14/49/11
f 9/9/27 45/51/28 10/10/29
f 45/51/28 46/52/29 10/10/29
f 29/3/30 47/53/30 27/27/31
f 47/53/30 48/38/32 27/27/33
f 28/28/34 49/43/35 30/4/36
f 49/43/37 50/54/38 30/4/38
f 33/55/39 51/56/40 31/57/41
f 51/56/40 52/58/42 31/57/41
f 32/59/43 53/60/44 34/61/45
f 53/60/44 54/62/46 34/61/45
f 34/35/45 54/63/46 35/33/47
f 54/63/46 55/46/48 35/33/47
f 36/34/49 56/51/50 33/36/39
f 56/51/50 51/64/40 33/36/39
f 43/65/51 42/66/51 57/67/51
f 41/68/51 43/65/51 57/67/51
f 41/68/51 57/67/51 58/69/51
f 39/40/51 41/68/51 58/69/51
f 39/40/51 58/69/51 59/70/51
f 40/42/51 39/40/51 59/70/51
f 44/48/52 60/71/52 37/50/52
f 60/71/52 61/72/52 37/50/52
f 37/50/52 61/72/52 38/73/52
f 61/72/52 62/74/52 38/73/52
f 38/73/52 62/74/52 45/75/52
f 62/74/52 46/76/52 45/75/52
f 53/60/51 63/77/51 54/62/51
f 63/77/51 64/78/51 54/62/51
f 54/62/51 64/78/51 55/79/51
f 64/78/51 65/80/51 55/79/51
f 55/79/51 65/80/51 49/81/51
f 65/80/51 50/82/51 49/81/51
f 48/83/52 47/84/52 66/85/52
f 56/86/52 48/83/52 66/85/52
f 56/86/52 66/85/52 67/87/52
f 51/56/52 56/86/52 67/87/52
f 51/56/52 67/87/52 68/88/52
f 52/58/52 51/56/52 68/88/52
f 40/89/53 59/54/54 4/4/54
f 2/2/55 40/89/18 4/4/54
f 15/90/17 40/89/18 2/2/55
f 13/91/25 15/90/17 2/2/55
f 1/1/56 13/91/25 2/2/55
f 44/92/26 13/91/25 1/1/56
f 60/53/57 44/92/26 1/1/56
f 3/3/57 60/53/57 1/1/56
f 52/93/42 68/52/29 20/10/29
f 19/21/58 52/93/42 20/10/29
f 31/94/41 52/93/42 19/21/58
f 32/95/43 31/94/41 19/21/58
f 21/22/59 32/95/43 19/21/58
f 53/96/44 32/95/43 21/22/59
f 63/45/23 53/96/44 21/22/59
f 22/12/21 63/45/21 21/22/59
f 5/5/60 45/97/28 9/98/27
f 38/99/14 45/97/28 5/5/60
f 5/5/60 9/98/27 6/6/61
f 7/7/62 38/99/14 5/5/60
f 9/98/27 11/100/22 6/6/61
f 7/7/62 18/101/13 38/99/14
f 11/100/22 43/102/24 6/6/61
f 17/103/19 18/101/13 7/7/62
f 6/6/61 43/102/24 8/8/63
f 8/8/63 17/103/19 7/7/62
f 43/102/24 41/104/20 8/8/63
f 41/104/20 17/103/19 8/8/63
f 26/26/64 35/105/47 55/106/48
f 36/107/49 35/105/47 26/26/64
f 26/26/64 55/106/48 25/25/65
f 24/24/66 36/107/49 26/26/64
f 55/106/48 49/108/35 25/25/65
f 24/24/66 56/109/50 36/107/49
f 49/108/35 28/110/34 25/25/65
f 48/111/32 56/109/50 24/24/66
f 25/25/65 28/110/34 23/23/67
f 23/23/67 48/111/32 24/24/66
f 28/110/34 27/112/33 23/23/67
f 27/112/33 48/111/32 23/23/67
