# Blender 3.6.18
# www.blender.org
mtllib Mesh.417.mtl
o Bistro_Research_Exterior_paris_building_11_5743
v 9.142200 16.274094 22.880486
v 9.158712 16.384731 22.766777
v 10.014534 16.274090 23.237188
v 10.083751 16.384731 23.145029
v 9.029238 16.168676 23.227474
v 9.122605 16.168694 22.999222
v 9.854479 16.168686 23.564919
v 9.947777 16.168703 23.336651
v 9.156837 16.412001 22.753777
v 9.060003 16.830423 22.710272
v 10.094469 16.412001 23.137096
v 10.194164 16.830429 23.181646
v 9.130391 16.180229 22.973141
v 9.960273 16.180239 23.312492
v 8.870177 16.846439 23.162405
v 10.015735 16.846428 23.630831
v 9.049714 16.846422 22.723377
v 10.192482 16.846428 23.198215
v 10.203567 16.830944 23.202715
v 10.026808 16.830944 23.635361
v 8.859001 16.830931 23.157835
v 9.038525 16.830912 22.718842
v 10.099846 16.396002 23.156626
v 9.921856 16.396006 23.592440
v 10.023317 16.274090 23.258066
v 9.892264 16.274090 23.580362
v 9.969381 16.184284 23.335691
v 9.872684 16.184259 23.572363
v 9.107559 16.184198 22.983301
v 9.010766 16.184179 23.219915
v 9.121329 16.274094 22.889238
v 8.989525 16.274094 23.211227
v 9.139264 16.396000 22.763840
v 8.960891 16.396002 23.199495
vn 0.2612 -0.7056 -0.6588
vn 0.2610 -0.7131 -0.6507
vn 0.2611 -0.7130 -0.6507
vn -0.0039 -1.0000 -0.0039
vn 0.3788 -0.0039 -0.9255
vn 0.2699 -0.6925 -0.6690
vn 0.2700 -0.6925 -0.6690
vn -0.0039 1.0000 -0.0039
vn 0.9262 0.3508 -0.1380
vn 0.6824 0.6903 -0.2406
vn 0.7320 0.6133 0.2968
vn 0.6824 0.6902 -0.2406
vn -0.7339 0.6083 -0.3022
vn -0.5669 0.3479 -0.7467
vn -0.3262 0.6878 -0.6485
vn 0.8945 -0.2561 0.3665
vn 0.8978 -0.2470 0.3646
vn 0.9012 -0.2322 0.3660
vn -0.8952 -0.2463 -0.3714
vn -0.8952 -0.2463 -0.3713
vn 0.5899 -0.5430 -0.5977
vn 0.7797 -0.4506 -0.4349
vn 0.6986 -0.6596 -0.2771
vn 0.7092 -0.6543 -0.2625
vn 0.5183 -0.8144 -0.2611
vn 0.6455 -0.7629 -0.0352
vn 0.5691 -0.7890 0.2316
vn 0.4418 -0.8952 -0.0586
vn -0.1908 -0.8138 -0.5490
vn -0.2776 -0.8954 -0.3480
vn -0.5646 -0.7904 -0.2375
vn -0.4312 -0.7653 -0.4778
vn -0.3159 -0.6591 -0.6825
vn -0.3315 -0.6513 -0.6825
vn -0.0117 -0.5429 -0.8397
vn -0.2541 -0.4497 -0.8563
vn 0.7267 -0.3182 -0.6088
vn -0.0971 -0.3147 -0.9442
vn 0.7342 0.3573 -0.5773
vn -0.1212 0.3558 -0.9267
vt -0.886230 0.462402
vt -0.895020 0.427734
vt -0.591797 0.462402
vt -0.583008 0.427734
vt -0.877930 0.576172
vt -0.877930 0.499512
vt -0.599609 0.576172
vt -0.599609 0.499512
vt 1.896484 0.481445
vt 1.929688 0.612061
vt 1.580078 0.481445
vt 1.545898 0.612061
vt 1.878906 0.409180
vt 1.885742 0.438477
vt 1.598633 0.409180
vt 1.591797 0.438477
vt 1.931641 0.576172
vt 1.544922 0.576172
vt 1.931641 0.428223
vt 1.544922 0.430176
vt 0.569824 0.612305
vt 0.569824 0.616943
vt 0.423828 0.612305
vt 0.423828 0.616943
vt 0.575684 0.612305
vt 0.575684 0.616943
vt 0.427734 0.612305
vt 0.427734 0.616943
vt 0.570801 0.476562
vt 0.423828 0.476562
vt 0.532227 0.438477
vt 0.423828 0.438477
vt 0.503418 0.410156
vt 0.423828 0.410156
vt 0.496094 0.410156
vt 0.575684 0.410156
vt 0.467285 0.438477
vt 0.575684 0.438477
vt 0.428955 0.476562
vt 0.575684 0.476562
vt -0.576660 0.429199
vt -0.586914 0.467773
vt -0.598633 0.490723
vt -0.593262 0.496582
vt -0.593262 0.576172
vt -0.878906 0.490723
vt -0.884277 0.576172
vt -0.884277 0.496582
vt -0.891602 0.467773
vt -0.900879 0.429199
vt 1.576172 0.476562
vt 1.583008 0.472656
vt 1.541016 0.612305
vt 1.894531 0.472656
vt 1.544922 0.616943
vt 1.900391 0.476562
vt 1.931641 0.616943
vt 1.935547 0.612305
s 1
usemtl MASTER_Concrete_Plaster
f 1/1/1 2/2/2 3/3/1
f 2/2/2 4/4/3 3/3/1
f 5/5/4 6/6/4 7/7/4
f 6/6/4 8/8/4 7/7/4
f 9/9/5 10/10/5 11/11/5
f 10/10/5 12/12/5 11/11/5
f 13/13/6 1/14/1 14/15/7
f 1/14/1 3/16/1 14/15/7
f 15/17/8 16/18/8 17/19/8
f 16/18/8 18/20/8 17/19/8
f 19/21/9 18/22/10 20/23/11
f 18/22/12 16/24/11 20/23/11
f 21/25/13 15/26/13 22/27/14
f 15/26/13 17/28/15 22/27/14
f 19/21/16 20/23/16 23/29/16
f 20/23/16 24/30/16 23/29/16
f 23/29/16 24/30/16 25/31/16
f 24/30/16 26/32/17 25/31/16
f 25/31/16 26/32/17 27/33/18
f 26/32/17 28/34/18 27/33/18
f 29/35/19 30/36/19 31/37/19
f 30/36/19 32/38/20 31/37/19
f 31/37/19 32/38/20 33/39/19
f 32/38/20 34/40/19 33/39/19
f 33/39/19 34/40/19 22/27/19
f 34/40/19 21/25/19 22/27/19
f 4/4/21 23/41/22 3/3/23
f 23/41/22 25/42/24 3/3/23
f 3/3/23 25/42/24 14/43/25
f 25/42/24 27/44/26 14/43/25
f 28/45/27 7/7/27 27/44/26
f 7/7/27 8/8/28 27/44/26
f 27/44/26 8/8/28 14/43/25
f 13/46/29 14/43/25 8/8/28
f 6/6/30 13/46/29 8/8/28
f 5/5/31 30/47/31 6/6/30
f 30/47/31 29/48/32 6/6/30
f 13/46/29 6/6/30 29/48/32
f 13/46/29 29/48/32 1/1/33
f 29/48/32 31/49/34 1/1/33
f 1/1/33 31/49/34 2/2/35
f 31/49/34 33/50/36 2/2/35
f 11/11/37 23/51/22 4/52/21
f 19/53/9 23/51/22 11/11/37
f 11/11/37 4/52/21 9/9/38
f 12/12/39 19/53/9 11/11/37
f 4/52/21 2/54/35 9/9/38
f 12/12/39 18/55/10 19/53/9
f 33/56/36 9/9/38 2/54/35
f 17/57/15 18/55/10 12/12/39
f 9/9/38 33/56/36 10/10/40
f 10/10/40 17/57/15 12/12/39
f 33/56/36 22/58/14 10/10/40
f 22/58/14 17/57/15 10/10/40
