# Blender 3.6.18
# www.blender.org
mtllib Mesh.1173.mtl
o Bistro_Research_Exterior_Paris_Building_01_paris_buildi_a03aa82
v 0.763936 7.783537 -11.028937
v 0.763936 11.072625 -11.028937
v 1.198144 7.783537 -10.792214
v 1.198144 11.072625 -10.792213
v 1.721280 11.072624 -12.784932
v 2.155487 11.072624 -12.548207
v 1.721280 7.783537 -12.784932
v 2.155487 7.783537 -12.548207
v 3.007807 7.783538 -15.131248
v 3.007807 11.072625 -15.131247
v 3.441426 7.783538 -14.893448
v 3.441426 11.072625 -14.893447
v 4.015085 11.072624 -16.946363
v 4.448705 11.072624 -16.708565
v 4.015086 7.783537 -16.946363
v 4.448706 7.783537 -16.708565
v -0.084015 11.145922 -9.495461
v -0.083308 11.992458 -9.500651
v 0.219274 11.992460 -10.046459
v 0.218821 11.119744 -10.043122
v -0.084015 7.780634 -9.495461
v 0.425975 11.992462 -10.419313
v 0.218821 7.781671 -10.043123
v -0.084016 6.833431 -9.495460
v 0.218820 6.833431 -10.043122
v 0.425694 11.101863 -10.417243
v 0.425694 7.782379 -10.417242
v 0.425693 6.833431 -10.417242
v 0.763937 11.992465 -11.028938
v 1.721279 11.992464 -12.784929
v 0.763936 6.833432 -11.028937
v 1.721280 6.833432 -12.784930
v 2.421062 11.992464 -14.068498
v 2.421064 6.833432 -14.068499
v 2.421064 11.072624 -14.068498
v 3.007806 11.992465 -15.131248
v 2.421064 7.783537 -14.068499
v 4.015083 11.992465 -16.946360
v 3.007807 6.833433 -15.131248
v 4.015084 6.833433 -16.946362
v 4.351289 11.992464 -17.587030
v 4.351290 11.072624 -17.587030
v 4.351290 6.833432 -17.587029
v 4.351290 7.783537 -17.587030
vn 0.4736 -0.0039 -0.8807
vn -0.0039 -1.0000 -0.0039
vn -0.4830 -0.0039 0.8756
vn -0.0039 1.0000 -0.0039
vn -0.8742 -0.0039 -0.4856
vn -0.8741 -0.0039 -0.4857
vn -0.8774 -0.0039 -0.4797
vn -0.8807 -0.0039 -0.4736
vn -0.8857 -0.0039 -0.4643
vt -1.491211 1.526367
vt -1.491211 2.485352
vt -1.638672 1.526367
vt -1.638672 2.485352
vt -2.085938 2.485352
vt -1.491211 2.340820
vt -2.085938 2.340820
vt -2.085938 1.526367
vt -1.938477 2.485352
vt -1.938477 1.526367
vt -2.085938 1.670410
vt -1.491211 1.670410
vt -2.880859 1.526367
vt -2.880859 2.485352
vt -3.027344 1.526367
vt -3.027344 2.485352
vt -3.496094 2.485352
vt -2.880859 2.340820
vt -3.498047 2.340820
vt -3.496094 1.526367
vt -3.349609 2.485352
vt -3.349609 1.526367
vt -3.498047 1.670410
vt -2.880859 1.670410
vt -0.971191 2.505859
vt -0.972656 2.752930
vt -1.157227 2.752930
vt -1.156250 2.499023
vt -0.971191 1.525391
vt -1.284180 2.752930
vt -1.156250 1.525879
vt -0.971191 1.249634
vt -1.156250 1.249634
vt -1.284180 2.493164
vt -1.284180 1.525879
vt -1.284180 1.249634
vt -1.491211 2.752930
vt -2.085938 2.752930
vt -1.491211 1.249512
vt -2.085938 1.249512
vt -2.519531 2.752930
vt -2.519531 1.249512
vt -2.519531 2.485352
vt -2.880859 2.752930
vt -2.519531 1.526367
vt -3.496094 2.752930
vt -2.880859 1.249512
vt -3.496094 1.249512
vt -3.712891 2.752930
vt -3.712891 2.485352
vt -3.712891 1.249512
vt -3.712891 1.526367
s 1
usemtl MASTER_Concrete
f 1/1/1 2/2/1 3/3/1
f 2/2/1 4/4/1 3/3/1
f 2/2/2 5/5/2 4/6/2
f 5/5/2 6/7/2 4/6/2
f 5/5/3 7/8/3 6/9/3
f 7/8/3 8/10/3 6/9/3
f 7/8/4 1/1/4 8/11/4
f 1/1/4 3/12/4 8/11/4
f 9/13/1 10/14/1 11/15/1
f 10/14/1 12/16/1 11/15/1
f 10/14/2 13/17/2 12/18/2
f 13/17/2 14/19/2 12/18/2
f 13/17/3 15/20/3 14/21/3
f 15/20/3 16/22/3 14/21/3
f 15/20/4 9/13/4 16/23/4
f 9/13/4 11/24/4 16/23/4
f 17/25/5 18/26/5 19/27/5
f 20/28/5 17/25/5 19/27/5
f 17/25/5 20/28/5 21/29/5
f 20/28/5 19/27/5 22/30/6
f 20/28/5 23/31/5 21/29/5
f 21/29/5 23/31/5 24/32/5
f 23/31/5 25/33/5 24/32/5
f 26/34/5 20/28/5 22/30/6
f 20/28/5 26/34/5 23/31/5
f 23/31/5 27/35/5 25/33/5
f 26/34/5 27/35/5 23/31/5
f 27/35/5 28/36/5 25/33/5
f 2/2/7 26/34/5 22/30/6
f 26/34/5 2/2/7 27/35/5
f 29/37/7 2/2/7 22/30/6
f 2/2/7 29/37/7 30/38/7
f 27/35/5 1/1/7 28/36/5
f 2/2/7 1/1/7 27/35/5
f 1/1/7 31/39/7 28/36/5
f 5/5/7 2/2/7 30/38/7
f 31/39/7 1/1/7 32/40/7
f 5/5/7 30/38/7 33/41/7
f 1/1/7 7/8/7 32/40/7
f 32/40/7 7/8/7 34/42/7
f 35/43/7 5/5/7 33/41/7
f 7/8/7 5/5/7 35/43/7
f 10/14/5 35/43/7 33/41/7
f 36/44/5 10/14/5 33/41/7
f 37/45/7 7/8/7 35/43/7
f 35/43/7 10/14/5 37/45/7
f 7/8/7 37/45/7 34/42/7
f 10/14/5 36/44/5 38/46/7
f 37/45/7 9/13/5 34/42/7
f 10/14/5 9/13/5 37/45/7
f 9/13/5 39/47/6 34/42/7
f 13/17/8 10/14/5 38/46/7
f 39/47/6 9/13/5 40/48/7
f 13/17/8 38/46/7 41/49/9
f 9/13/5 15/20/8 40/48/7
f 42/50/9 13/17/8 41/49/9
f 15/20/8 13/17/8 42/50/9
f 40/48/7 15/20/8 43/51/9
f 44/52/9 15/20/8 42/50/9
f 15/20/8 44/52/9 43/51/9
