# Blender 3.6.18
# www.blender.org
mtllib Mesh.619.mtl
o Bistro_Research_Exterior_paris_building_05_8__5307
v 36.360321 4.899261 15.709694
v 36.337902 4.899261 15.657033
v 35.913738 4.899261 15.899806
v 35.891327 4.899261 15.847146
v 35.913738 4.807418 15.899806
v 36.360321 4.807418 15.709694
v 36.337902 4.807418 15.657033
v 35.891327 4.807418 15.847146
v 36.354877 4.811564 15.708787
v 36.354877 2.319849 15.708786
v 36.334602 4.811564 15.661173
v 36.334602 2.319849 15.661172
v 36.286404 2.319849 15.737936
v 36.286404 4.811564 15.737937
v 36.266132 4.811564 15.690323
v 36.266132 2.319849 15.690322
v 36.286572 4.805357 15.717416
v 35.976944 4.805357 15.849227
v 36.286572 2.322791 15.717415
v 35.976944 2.322792 15.849226
v 35.900043 4.811564 15.846171
v 35.900040 2.319849 15.846170
v 35.920311 4.811564 15.893785
v 35.920311 2.319849 15.893785
v 35.968517 2.319849 15.817020
v 35.968517 4.811564 15.817021
v 35.988789 4.811564 15.864635
v 35.988785 2.319849 15.864635
v 36.360321 2.319452 15.709693
v 36.337902 2.319452 15.657032
v 35.913738 2.319452 15.899805
v 35.891327 2.319452 15.847145
v 35.913738 2.227609 15.899805
v 36.360321 2.227609 15.709693
v 36.337902 2.227610 15.657032
v 35.891327 2.227609 15.847145
v 35.915554 2.605495 15.889725
v 35.900909 2.605495 15.855318
v 35.915554 2.482334 15.889727
v 35.900909 2.482334 15.855318
v 35.904305 2.605495 15.853872
v 35.918953 2.605495 15.888276
v 35.904312 2.482334 15.853872
v 35.918961 2.482334 15.888276
v 35.882740 2.605495 15.844656
v 35.848053 2.605495 15.830684
v 35.882736 2.482334 15.844656
v 35.848049 2.482334 15.830686
v 35.849434 2.605495 15.827254
v 35.884113 2.605495 15.841225
v 35.849434 2.482334 15.827255
v 35.884117 2.482334 15.841227
v 36.069927 4.899261 15.402856
v 36.016842 4.899261 15.381473
v 35.888580 4.899261 15.853067
v 35.835495 4.899261 15.831680
v 35.888580 4.807418 15.853067
v 36.069927 4.807418 15.402856
v 36.016842 4.807418 15.381473
v 35.835495 4.807418 15.831680
v 36.065437 4.811564 15.406063
v 36.065437 2.319849 15.406063
v 36.017437 4.811564 15.386729
v 36.017437 2.319849 15.386729
v 36.037632 2.319849 15.475097
v 36.037632 4.811564 15.475098
v 35.989632 4.811564 15.455762
v 35.989632 2.319849 15.455761
v 35.880993 4.805357 15.765957
v 36.006725 4.805357 15.453812
v 35.880993 2.322791 15.765956
v 36.006725 2.322792 15.453811
v 35.840965 4.811564 15.824828
v 35.840965 2.319849 15.824827
v 35.888966 4.811564 15.844165
v 35.888966 2.319849 15.844164
v 35.868771 2.319849 15.755795
v 35.868771 4.811564 15.755795
v 35.916775 4.811564 15.775131
v 35.916775 2.319849 15.775130
v 36.069927 2.319452 15.402855
v 36.016842 2.319452 15.381472
v 35.888580 2.319452 15.853066
v 35.835495 2.319452 15.831679
v 35.888580 2.227609 15.853066
v 36.069927 2.227609 15.402855
v 36.016842 2.227610 15.381472
v 35.835495 2.227609 15.831679
v 35.882740 4.708834 15.844657
v 35.848053 4.708834 15.830685
v 35.882736 4.585673 15.844657
v 35.848049 4.585673 15.830687
v 35.849434 4.708834 15.827255
v 35.884113 4.708834 15.841226
v 35.849434 4.585673 15.827256
v 35.884117 4.585673 15.841228
v 35.915554 4.708834 15.889726
v 35.900909 4.708834 15.855319
v 35.915554 4.585673 15.889728
v 35.900909 4.585673 15.855319
v 35.904305 4.708834 15.853873
v 35.918953 4.708834 15.888277
v 35.904312 4.585673 15.853873
v 35.918961 4.585673 15.888277
v 35.897205 2.482675 15.838175
v 35.897205 2.605175 15.838175
v 35.903744 2.605175 15.844586
v 35.903744 2.482675 15.844586
v 35.903835 2.605175 15.853745
v 35.903835 2.482675 15.853745
v 35.897419 2.605175 15.860287
v 35.897419 2.482675 15.860287
v 35.888256 2.605175 15.860378
v 35.888256 2.482675 15.860378
v 35.881725 2.605175 15.853963
v 35.881725 2.482675 15.853963
v 35.881626 2.605175 15.844805
v 35.881626 2.482675 15.844805
v 35.888046 2.605175 15.838264
v 35.888046 2.482675 15.838263
v 35.897205 4.586016 15.838176
v 35.897205 4.708515 15.838176
v 35.903744 4.708515 15.844587
v 35.903744 4.586016 15.844587
v 35.903835 4.708515 15.853746
v 35.903835 4.586016 15.853746
v 35.897419 4.708515 15.860288
v 35.897419 4.586016 15.860288
v 35.888256 4.708515 15.860379
v 35.888256 4.586016 15.860379
v 35.881725 4.708515 15.853964
v 35.881725 4.586016 15.853964
v 35.881626 4.708515 15.844806
v 35.881626 4.586016 15.844806
v 35.888046 4.708515 15.838265
v 35.888046 4.586016 15.838264
v 35.892731 2.482675 15.849272
v 35.892731 2.605175 15.849272
v 35.892731 4.586016 15.849274
v 35.892731 4.708515 15.849274
vn -0.0039 1.0000 -0.0039
vn 0.3911 -0.0039 0.9204
vn 0.3911 -0.0040 0.9204
vn -0.3949 -0.0039 -0.9187
vn 0.9175 -0.0039 -0.3977
vn -0.9216 -0.0039 0.3882
vn -0.0039 -1.0000 -0.0039
vn -0.3948 -0.0039 -0.9187
vn -0.9215 -0.0039 0.3882
vn -0.3815 -0.0039 0.9243
vn -0.9255 -0.0039 -0.3788
vn 0.9271 -0.0039 0.3748
vn 0.9271 -0.0040 0.3748
vn 0.3721 -0.0039 -0.9282
vn 0.3720 -0.0040 -0.9282
vn -0.3816 -0.0039 0.9243
vn -0.3815 -0.0039 0.9244
vn -0.0040 -1.0000 -0.0039
vn -0.0040 1.0000 -0.0039
vt 0.318604 0.353027
vt 0.327881 0.353027
vt 0.318604 0.432129
vt 0.327881 0.432129
vt 0.315430 0.432129
vt 0.300537 0.432129
vt 0.315430 0.352539
vt 0.300537 0.352539
vt 0.270020 0.352051
vt 0.284912 0.352051
vt 0.270020 0.431641
vt 0.284912 0.431641
vt 0.284912 0.345215
vt 0.269775 0.345215
vt 0.284912 0.335938
vt 0.269775 0.335938
vt 0.303223 0.345215
vt 0.288086 0.345215
vt 0.303223 0.335938
vt 0.288086 0.335938
vt 0.287842 0.432129
vt 0.287842 0.352539
vt 0.297363 0.432129
vt 0.297363 0.352539
vt 0.858398 0.570801
vt 0.858398 0.978256
vt 0.848633 0.570801
vt 0.848633 0.978256
vt 0.799805 0.571289
vt 0.812012 0.571289
vt 0.799805 0.978668
vt 0.812012 0.978668
vt 0.833008 0.572021
vt 0.845215 0.572021
vt 0.833008 0.979340
vt 0.845215 0.979340
vt 0.827637 0.572754
vt 0.827637 0.980072
vt 0.817871 0.572754
vt 0.817871 0.980072
vt 0.377197 0.011230
vt 0.432373 0.011230
vt 0.377197 0.416992
vt 0.432373 0.416992
vt 0.354004 0.445312
vt 0.360107 0.445312
vt 0.354004 0.465332
vt 0.360107 0.465332
vt 0.360107 0.443359
vt 0.354004 0.443359
vt 0.360107 0.442871
vt 0.354004 0.442871
vt 0.361328 0.465332
vt 0.361328 0.445312
vt 0.362061 0.465332
vt 0.362061 0.445312
vt 0.354004 0.466797
vt 0.360107 0.466797
vt 0.354004 0.467285
vt 0.360107 0.467285
vt 0.352783 0.445312
vt 0.352783 0.465332
vt 0.352051 0.445312
vt 0.352051 0.465332
vt 0.326172 0.464355
vt 0.326172 0.443848
vt 0.327637 0.443848
vt 0.327637 0.464355
vt 0.329102 0.443848
vt 0.329102 0.464355
vt 0.330566 0.443848
vt 0.330566 0.464355
vt 0.332031 0.443848
vt 0.332031 0.464355
vt 0.333496 0.443848
vt 0.333496 0.464355
vt 0.334473 0.443848
vt 0.334473 0.464355
vt 0.335938 0.443848
vt 0.335938 0.464355
vt 0.337402 0.443848
vt 0.337402 0.464355
vt 0.326172 0.466797
vt 0.327393 0.465820
vt 0.328125 0.467773
vt 0.326172 0.468262
vt 0.328857 0.465820
vt 0.327148 0.469238
vt 0.329834 0.466797
vt 0.328857 0.469238
vt 0.329834 0.468262
vt 0.333252 0.465820
vt 0.334717 0.465820
vt 0.333984 0.467773
vt 0.332275 0.466797
vt 0.335938 0.466797
vt 0.332275 0.468262
vt 0.335938 0.468750
vt 0.333252 0.469727
vt 0.334717 0.469727
s 1
usemtl MASTER_Building_Details
f 1/1/1 2/2/1 3/3/1
f 2/2/1 4/4/1 3/3/1
f 3/5/2 5/6/2 1/7/3
f 5/6/2 6/8/2 1/7/3
f 2/9/4 7/10/4 4/11/4
f 7/10/4 8/12/4 4/11/4
f 7/13/5 2/14/5 6/15/5
f 2/14/5 1/16/5 6/15/5
f 5/17/6 3/18/6 8/19/6
f 3/18/6 4/20/6 8/19/6
f 8/21/7 7/22/7 5/23/7
f 7/22/7 6/24/7 5/23/7
f 9/25/5 10/26/5 11/27/5
f 10/26/5 12/28/5 11/27/5
f 13/29/3 10/30/3 14/31/3
f 10/30/2 9/32/2 14/31/2
f 15/33/4 11/34/4 16/35/4
f 11/34/4 12/36/4 16/35/4
f 15/37/6 16/38/6 14/39/6
f 16/38/6 13/40/6 14/39/6
f 17/41/2 18/42/2 19/43/2
f 18/42/2 20/44/3 19/43/2
f 21/25/6 22/26/6 23/27/6
f 22/26/6 24/28/6 23/27/6
f 25/29/4 22/30/4 26/31/4
f 22/30/4 21/32/4 26/31/4
f 27/33/2 23/34/2 28/35/2
f 23/34/3 24/36/3 28/35/3
f 27/37/5 28/38/5 26/39/5
f 28/38/5 25/40/5 26/39/5
f 29/1/1 30/2/1 31/3/1
f 30/2/1 32/4/1 31/3/1
f 31/5/2 33/6/2 29/7/2
f 33/6/2 34/8/2 29/7/2
f 30/9/4 35/10/4 32/11/8
f 35/10/4 36/12/4 32/11/8
f 35/13/5 30/14/5 34/15/5
f 30/14/5 29/16/5 34/15/5
f 33/17/6 31/18/6 36/19/6
f 31/18/6 32/20/6 36/19/6
f 36/21/7 35/22/7 33/23/7
f 35/22/7 34/24/7 33/23/7
f 37/45/9 38/46/6 39/47/6
f 38/46/6 40/48/6 39/47/6
f 38/49/1 37/50/1 41/51/1
f 37/50/1 42/52/1 41/51/1
f 40/53/4 38/54/4 43/55/4
f 38/54/4 41/56/4 43/55/4
f 39/57/7 40/58/7 44/59/7
f 40/58/7 43/60/7 44/59/7
f 37/61/2 39/62/2 42/63/2
f 39/62/3 44/64/3 42/63/3
f 45/45/10 46/46/10 47/47/10
f 46/46/10 48/48/10 47/47/10
f 46/49/1 45/50/1 49/51/1
f 45/50/1 50/52/1 49/51/1
f 48/53/11 46/54/11 51/55/11
f 46/54/11 49/56/11 51/55/11
f 47/57/7 48/58/7 52/59/7
f 48/58/7 51/60/7 52/59/7
f 45/61/12 47/62/12 50/63/12
f 47/62/13 52/64/13 50/63/13
f 53/1/1 54/2/1 55/3/1
f 54/2/1 56/4/1 55/3/1
f 55/5/12 57/6/12 53/7/12
f 57/6/12 58/8/12 53/7/12
f 54/9/11 59/10/11 56/11/11
f 59/10/11 60/12/11 56/11/11
f 59/13/14 54/14/14 58/15/14
f 54/14/14 53/16/14 58/15/14
f 57/17/10 55/18/10 60/19/10
f 55/18/10 56/20/10 60/19/10
f 60/21/7 59/22/7 57/23/7
f 59/22/7 58/24/7 57/23/7
f 61/25/14 62/26/14 63/27/14
f 62/26/14 64/28/15 63/27/14
f 65/29/13 62/30/13 66/31/13
f 62/30/12 61/32/12 66/31/12
f 67/33/11 63/34/11 68/35/11
f 63/34/11 64/36/11 68/35/11
f 67/37/16 68/38/16 66/39/16
f 68/38/16 65/40/16 66/39/16
f 69/41/11 70/42/11 71/43/11
f 70/42/11 72/44/11 71/43/11
f 73/25/10 74/26/17 75/27/10
f 74/26/17 76/28/16 75/27/10
f 77/29/11 74/30/11 78/31/11
f 74/30/11 73/32/11 78/31/11
f 79/33/12 75/34/12 80/35/12
f 75/34/12 76/36/12 80/35/12
f 79/37/14 80/38/14 78/39/14
f 80/38/14 77/40/14 78/39/14
f 81/1/1 82/2/1 83/3/1
f 82/2/1 84/4/1 83/3/1
f 83/5/12 85/6/12 81/7/12
f 85/6/12 86/8/12 81/7/12
f 82/9/11 87/10/11 84/11/11
f 87/10/11 88/12/11 84/11/11
f 87/13/14 82/14/14 86/15/14
f 82/14/14 81/16/14 86/15/14
f 85/17/10 83/18/10 88/19/10
f 83/18/10 84/20/10 88/19/10
f 88/21/7 87/22/7 85/23/7
f 87/22/7 86/24/7 85/23/7
f 89/45/10 90/46/10 91/47/16
f 90/46/10 92/48/10 91/47/16
f 90/49/1 89/50/1 93/51/1
f 89/50/1 94/52/1 93/51/1
f 92/53/11 90/54/11 95/55/11
f 90/54/11 93/56/11 95/55/11
f 91/57/7 92/58/7 96/59/7
f 92/58/7 95/60/7 96/59/7
f 89/61/12 91/62/12 94/63/12
f 91/62/13 96/64/13 94/63/13
f 97/45/6 98/46/6 99/47/6
f 98/46/6 100/48/6 99/47/6
f 98/49/1 97/50/1 101/51/1
f 97/50/1 102/52/1 101/51/1
f 100/53/4 98/54/4 103/55/4
f 98/54/4 101/56/4 103/55/4
f 99/57/7 100/58/7 104/59/7
f 100/58/7 103/60/7 104/59/7
f 97/61/2 99/62/2 102/63/2
f 99/62/3 104/64/3 102/63/3
f 105/65/14 106/66/14 107/67/5
f 108/68/5 105/65/14 107/67/5
f 108/68/5 107/67/5 109/69/12
f 110/70/12 108/68/5 109/69/12
f 110/70/12 109/69/12 111/71/2
f 112/72/2 110/70/12 111/71/2
f 112/72/2 111/71/2 113/73/10
f 114/74/10 112/72/2 113/73/10
f 114/74/10 113/73/10 115/75/9
f 116/76/9 114/74/10 115/75/9
f 116/76/9 115/75/9 117/77/11
f 118/78/11 116/76/9 117/77/11
f 118/78/11 117/77/11 119/79/4
f 120/80/4 118/78/11 119/79/4
f 120/80/4 119/79/4 106/81/14
f 105/82/14 120/80/4 106/81/14
f 121/65/14 122/66/14 123/67/5
f 124/68/5 121/65/14 123/67/5
f 124/68/5 123/67/5 125/69/12
f 126/70/12 124/68/5 125/69/12
f 126/70/12 125/69/12 127/71/2
f 128/72/2 126/70/12 127/71/2
f 128/72/2 127/71/2 129/73/10
f 130/74/10 128/72/2 129/73/10
f 130/74/10 129/73/10 131/75/9
f 132/76/9 130/74/10 131/75/9
f 132/76/9 131/75/9 133/77/11
f 134/78/11 132/76/9 133/77/11
f 134/78/11 133/77/11 135/79/4
f 136/80/4 134/78/11 135/79/4
f 136/80/4 135/79/4 122/81/14
f 121/82/14 136/80/4 122/81/14
f 112/83/7 114/84/18 137/85/7
f 110/86/7 112/83/7 137/85/7
f 114/84/18 116/87/7 137/85/7
f 108/88/7 110/86/7 137/85/7
f 116/87/7 118/89/7 137/85/7
f 105/90/7 108/88/7 137/85/7
f 118/89/7 120/91/7 137/85/7
f 120/91/7 105/90/7 137/85/7
f 113/92/1 111/93/1 138/94/1
f 115/95/1 113/92/1 138/94/1
f 111/93/1 109/96/1 138/94/1
f 117/97/1 115/95/1 138/94/1
f 109/96/1 107/98/19 138/94/1
f 119/99/1 117/97/1 138/94/1
f 107/98/19 106/100/1 138/94/1
f 106/100/1 119/99/1 138/94/1
f 128/83/7 130/84/18 139/85/7
f 126/86/7 128/83/7 139/85/7
f 130/84/18 132/87/7 139/85/7
f 124/88/7 126/86/7 139/85/7
f 132/87/7 134/89/7 139/85/7
f 121/90/7 124/88/7 139/85/7
f 134/89/7 136/91/7 139/85/7
f 136/91/7 121/90/7 139/85/7
f 129/92/1 127/93/1 140/94/1
f 131/95/1 129/92/1 140/94/1
f 127/93/1 125/96/1 140/94/1
f 133/97/1 131/95/1 140/94/1
f 125/96/1 123/98/19 140/94/1
f 135/99/1 133/97/1 140/94/1
f 123/98/19 122/100/1 140/94/1
f 122/100/1 135/99/1 140/94/1
