# Blender 3.6.18
# www.blender.org
mtllib Mesh.1121.mtl
o Bistro_Research_Exterior_Paris_Building_01_paris_buildi_f66e99a
v 2.796952 16.153444 -14.540328
v 2.796952 13.135479 -14.540328
v 2.764704 16.153444 -14.557912
v 2.759308 16.164715 -14.548018
v 2.791555 16.164715 -14.530434
v 2.764704 13.135479 -14.557912
v 2.791555 13.124209 -14.530434
v 2.094030 16.164715 -13.328060
v 2.126278 16.164715 -13.310475
v 2.759308 13.124209 -14.548018
v 2.126278 13.124205 -13.310475
v 2.088634 16.153442 -13.318166
v 2.120882 16.153442 -13.300582
v 2.094030 13.124205 -13.328060
v 2.120882 13.135478 -13.300582
v 2.088634 13.135478 -13.318166
v 2.084252 13.133337 -13.347475
v 2.077309 13.147840 -13.334740
v 2.077309 16.141079 -13.334740
v 2.737693 13.133340 -14.545722
v 2.092700 13.181396 -13.391517
v 2.744636 13.147844 -14.558456
v 2.700117 13.181400 -14.505375
v 2.707060 13.195903 -14.518109
v 2.744636 16.141079 -14.558456
v 2.707060 16.093019 -14.518109
v 2.691495 13.201799 -14.503363
v 2.737693 16.155586 -14.545722
v 2.700117 16.107525 -14.505375
v 2.691495 16.087124 -14.503363
v 2.092700 16.107525 -13.391517
v 2.084252 16.155584 -13.347475
v 2.085752 16.093018 -13.378781
v 2.089718 16.087124 -13.399855
v 2.085752 13.195901 -13.378781
v 2.089718 13.201796 -13.399855
vn 0.4736 -0.0039 -0.8807
vn -0.0040 1.0000 -0.0039
vn -0.0039 1.0000 -0.0039
vn 0.0007 -1.0000 -0.0014
vn 0.0008 1.0000 -0.0014
vn -0.0039 -1.0000 -0.0039
vn -0.4829 -0.0039 0.8757
vn -0.4830 -0.0039 0.8756
vn -0.4787 -0.0039 0.8779
vn -0.8428 -0.2758 -0.4622
vn -0.9815 -0.0039 -0.1916
vn -0.7301 -0.0039 -0.6833
vn -0.8774 -0.0039 -0.4797
vn -0.8446 0.2686 -0.4632
vn -0.8446 0.2685 -0.4632
vt 0.267578 0.708008
vt 0.267578 -0.255859
vt 0.276367 0.704346
vt 0.279541 0.707520
vt 0.275879 0.716309
vt 0.276611 -0.251953
vt 0.275879 -0.263672
vt 0.719727 0.707520
vt 0.723145 0.716309
vt 0.279785 -0.254883
vt 0.723633 -0.263672
vt 0.722656 0.704346
vt 0.731445 0.708008
vt 0.719727 -0.254883
vt 0.731934 -0.255859
vt 0.722656 -0.251953
vt 0.715332 -0.251953
vt 0.719238 -0.248047
vt 0.719238 0.700195
vt 0.283936 -0.251953
vt 0.702148 -0.237305
vt 0.280273 -0.248047
vt 0.300537 -0.237305
vt 0.296387 -0.233398
vt 0.280273 0.699951
vt 0.296387 0.685059
vt 0.302490 -0.231445
vt 0.283691 0.703613
vt 0.300537 0.689209
vt 0.302490 0.683105
vt 0.702148 0.689209
vt 0.715332 0.703857
vt 0.706543 0.685059
vt 0.700195 0.683105
vt 0.706055 -0.232422
vt 0.700195 -0.231445
s 1
usemtl MASTER_Concrete
f 1/1/1 2/2/1 3/3/1
f 1/1/1 3/3/1 4/4/2
f 5/5/3 1/1/1 4/4/2
f 2/2/1 6/6/1 3/3/1
f 2/2/1 7/7/4 6/6/1
f 5/5/3 4/4/2 8/8/3
f 9/9/5 5/5/3 8/8/3
f 7/7/4 10/10/6 6/6/1
f 7/7/4 11/11/6 10/10/6
f 9/9/5 8/8/3 12/12/7
f 13/13/8 9/9/5 12/12/7
f 11/11/6 14/14/6 10/10/6
f 11/11/6 15/15/9 14/14/6
f 15/15/9 13/13/8 16/16/8
f 15/15/9 16/16/8 14/14/6
f 13/13/8 12/12/7 16/16/8
f 10/10/6 14/14/6 17/17/10
f 16/16/8 18/18/11 14/14/6
f 18/18/11 17/17/10 14/14/6
f 16/16/8 12/12/7 19/19/11
f 18/18/11 16/16/8 19/19/11
f 20/20/10 10/10/6 17/17/10
f 10/10/6 20/20/10 6/6/1
f 17/17/10 18/18/11 21/21/10
f 20/20/10 22/22/12 6/6/1
f 3/3/1 6/6/1 22/22/12
f 20/20/10 17/17/10 23/23/10
f 17/17/10 21/21/10 23/23/10
f 22/22/12 20/20/10 24/24/12
f 20/20/10 23/23/10 24/24/12
f 25/25/12 3/3/1 22/22/12
f 3/3/1 25/25/12 4/4/2
f 22/22/12 24/24/12 26/26/12
f 25/25/12 22/22/12 26/26/12
f 23/23/10 27/27/13 24/24/12
f 26/26/12 24/24/12 27/27/13
f 25/25/12 28/28/14 4/4/2
f 8/8/3 4/4/2 28/28/14
f 25/25/12 26/26/12 29/29/14
f 28/28/14 25/25/12 29/29/14
f 26/26/12 30/30/13 29/29/14
f 30/30/13 26/26/12 27/27/13
f 28/28/14 29/29/14 31/31/14
f 31/31/14 29/29/14 30/30/13
f 32/32/15 8/8/3 28/28/14
f 32/32/15 28/28/14 31/31/14
f 8/8/3 32/32/15 12/12/7
f 32/32/15 19/19/11 12/12/7
f 32/32/15 31/31/14 33/33/11
f 19/19/11 32/32/15 33/33/11
f 34/34/13 31/31/14 30/30/13
f 31/31/14 34/34/13 33/33/11
f 30/30/13 27/27/13 34/34/13
f 19/19/11 33/33/11 35/35/11
f 35/35/11 33/33/11 34/34/13
f 18/18/11 19/19/11 35/35/11
f 18/18/11 35/35/11 21/21/10
f 27/27/13 36/36/13 34/34/13
f 36/36/13 35/35/11 34/34/13
f 35/35/11 36/36/13 21/21/10
f 27/27/13 23/23/10 36/36/13
f 23/23/10 21/21/10 36/36/13
