# Blender 3.6.18
# www.blender.org
mtllib Mesh.138.mtl
o Bistro_Research_Exterior_Paris_Streetlight_Glass_01a___8__6333
v 53.515297 7.220440 38.528358
v 53.470207 7.220440 38.419312
v 53.428047 6.636996 38.451618
v 53.462616 6.636996 38.535255
v 53.499809 7.220440 38.645340
v 53.450745 6.636996 38.624973
v 53.427910 7.220440 38.738903
v 53.395596 6.636996 38.696739
v 53.318859 7.220440 38.783985
v 53.311954 6.636996 38.731319
v 53.201878 7.220440 38.768505
v 53.222240 6.636996 38.719444
v 53.108311 7.220440 38.696606
v 53.150478 6.636996 38.664295
v 53.063229 7.220440 38.587559
v 53.115906 6.636996 38.580662
v 53.078712 7.220440 38.470577
v 53.127773 6.636996 38.490940
v 53.150608 7.220440 38.377010
v 53.182922 6.636996 38.419178
v 53.259663 7.220440 38.331928
v 53.266556 6.636996 38.384598
v 53.376640 7.220440 38.347408
v 53.356281 6.636996 38.396473
v 53.471687 6.636996 38.482540
v 53.444214 6.636996 38.439228
v 53.491295 7.220440 38.403152
v 53.527115 7.220440 38.459621
v 53.541634 7.220440 38.524910
v 53.482826 6.636996 38.532612
v 53.484959 6.636996 38.583862
v 53.544418 7.220440 38.591728
v 53.524342 7.220440 38.655521
v 53.469566 6.636996 38.632786
v 53.445786 6.636996 38.678238
v 53.493347 7.220440 38.714779
v 53.444073 7.220440 38.759995
v 53.407990 6.636996 38.712914
v 53.364674 6.636996 38.740387
v 53.387596 7.220440 38.795818
v 53.322311 7.220440 38.810329
v 53.314610 6.636996 38.751522
v 53.263367 6.636996 38.753654
v 53.255482 7.220440 38.813114
v 53.191700 7.220440 38.793041
v 53.214428 6.636996 38.738258
v 53.168983 6.636996 38.714485
v 53.132431 7.220440 38.762043
v 53.087227 7.220440 38.712765
v 53.134300 6.636996 38.676689
v 53.106831 6.636996 38.633377
v 53.051403 7.220440 38.656292
v 53.036888 7.220440 38.591007
v 53.095703 6.636996 38.583305
v 53.093567 6.636996 38.532055
v 53.034107 7.220440 38.524189
v 53.054180 7.220440 38.460396
v 53.108959 6.636996 38.483131
v 53.132732 6.636996 38.437683
v 53.085171 7.220440 38.401134
v 53.134457 7.220440 38.355923
v 53.170528 6.636996 38.403004
v 53.213840 6.636996 38.375534
v 53.190929 7.220440 38.320099
v 53.256210 7.220440 38.305588
v 53.263916 6.636996 38.364395
v 53.315163 6.636996 38.362263
v 53.323029 7.220440 38.302803
v 53.386826 7.220440 38.322872
v 53.364094 6.636996 38.377655
v 53.409538 6.636996 38.401428
v 53.446083 7.220440 38.353870
vn -0.9886 0.0899 0.1211
vn -0.7953 0.0901 0.5994
vn -0.7953 0.0901 0.5995
vn -0.9178 0.0898 -0.3867
vn -0.6044 0.0897 -0.7916
vn -0.1289 0.0898 -0.9876
vn -0.1289 0.0899 -0.9876
vn 0.3800 0.0901 -0.9206
vn 0.7887 0.0902 -0.6082
vn 0.7887 0.0902 -0.6081
vn 0.9874 0.0905 -0.1299
vn 0.9874 0.0905 -0.1297
vn 0.9194 0.0908 0.3827
vn 0.6032 0.0907 0.7924
vn 0.1221 0.0905 0.9884
vn 0.1221 0.0906 0.9884
vn -0.3894 0.0905 0.9166
vn 0.9179 -0.1064 -0.3822
vn 0.7875 -0.1058 -0.6072
vn 0.7874 -0.1058 -0.6072
vn 0.9180 -0.1064 -0.3821
vn 0.9859 -0.1061 -0.1296
vn 0.9859 -0.1060 0.1296
vn 0.9859 -0.1061 0.1296
vn 0.9180 -0.1064 0.3822
vn 0.7912 -0.1063 0.6023
vn 0.6023 -0.1063 0.7912
vn 0.3754 -0.1067 0.9207
vn 0.1219 -0.1061 0.9869
vn 0.1219 -0.1062 0.9869
vn -0.1373 -0.1059 0.9848
vn -0.3889 -0.1061 0.9152
vn -0.6072 -0.1058 0.7875
vn -0.7941 -0.1056 0.5985
vn -0.9219 -0.1059 0.3727
vn -0.9871 -0.1053 0.1210
vn -0.9871 -0.1053 0.1209
vn -0.9851 -0.1051 -0.1363
vn -0.9164 -0.1053 -0.3861
vn -0.7904 -0.1051 -0.6035
vn -0.6035 -0.1051 -0.7904
vn -0.3794 -0.1056 -0.9192
vn -0.1286 -0.1052 -0.9861
vn -0.1286 -0.1053 -0.9861
vn 0.1286 -0.1052 -0.9861
vn 0.3794 -0.1056 -0.9192
vn 0.5985 -0.1056 -0.7941
vt 0.092773 0.097168
vt 0.016220 0.097168
vt 0.016220 0.904419
vt 0.092773 0.904419
vt 0.172852 0.097168
vt 0.172852 0.904419
vt 0.252930 0.097168
vt 0.252930 0.904419
vt 0.333008 0.097168
vt 0.333008 0.904419
vt 0.413086 0.097168
vt 0.413086 0.904419
vt 0.493164 0.097168
vt 0.493164 0.904419
vt 0.573242 0.097168
vt 0.573242 0.904419
vt 0.653320 0.097168
vt 0.653320 0.904419
vt 0.733398 0.097168
vt 0.733398 0.904419
vt 0.813477 0.097168
vt 0.813477 0.904419
vt 0.893555 0.097168
vt 0.893555 0.904419
vt 0.984375 0.097168
vt 0.984375 0.904419
vt 0.054504 0.904419
vt 0.054504 0.097168
vt 0.132812 0.904419
vt 0.132812 0.097168
vt 0.212891 0.904419
vt 0.212891 0.097168
vt 0.292969 0.904419
vt 0.292969 0.097168
vt 0.373047 0.904419
vt 0.373047 0.097168
vt 0.453125 0.904419
vt 0.453125 0.097168
vt 0.533203 0.904419
vt 0.533203 0.097168
vt 0.613281 0.904419
vt 0.613281 0.097168
vt 0.693359 0.904419
vt 0.693359 0.097168
vt 0.773438 0.904419
vt 0.773438 0.097168
vt 0.853516 0.904419
vt 0.853516 0.097168
vt 0.938965 0.904419
vt 0.938965 0.097168
s 1
usemtl Emissive_StreetLight
f 1/1/1 2/2/2 3/3/3
f 3/3/3 4/4/1 1/1/1
f 5/5/4 1/1/1 4/4/1
f 4/4/1 6/6/4 5/5/4
f 7/7/5 5/5/4 6/6/4
f 6/6/4 8/8/5 7/7/5
f 9/9/6 7/7/5 8/8/5
f 8/8/5 10/10/7 9/9/6
f 11/11/8 9/9/6 10/10/7
f 10/10/7 12/12/8 11/11/8
f 13/13/9 11/11/8 12/12/8
f 12/12/8 14/14/10 13/13/9
f 15/15/11 13/13/9 14/14/10
f 14/14/10 16/16/12 15/15/11
f 17/17/13 15/15/11 16/16/12
f 16/16/12 18/18/13 17/17/13
f 19/19/14 17/17/13 18/18/13
f 18/18/13 20/20/14 19/19/14
f 21/21/15 19/19/14 20/20/14
f 20/20/14 22/22/16 21/21/15
f 23/23/17 21/21/15 22/22/16
f 22/22/16 24/24/17 23/23/17
f 2/25/2 23/23/17 24/24/17
f 24/24/17 3/26/3 2/25/2
f 25/27/18 26/3/19 27/2/20
f 27/2/20 28/28/21 25/27/18
f 25/27/18 28/28/21 29/1/22
f 29/1/22 30/4/22 25/27/18
f 31/29/23 30/4/22 29/1/22
f 29/1/22 32/30/24 31/29/23
f 31/29/23 32/30/24 33/5/25
f 33/5/25 34/6/25 31/29/23
f 35/31/26 34/6/25 33/5/25
f 33/5/25 36/32/26 35/31/26
f 35/31/26 36/32/26 37/7/27
f 37/7/27 38/8/27 35/31/26
f 39/33/28 38/8/27 37/7/27
f 37/7/27 40/34/28 39/33/28
f 39/33/28 40/34/28 41/9/29
f 41/9/29 42/10/30 39/33/28
f 43/35/31 42/10/30 41/9/29
f 41/9/29 44/36/31 43/35/31
f 43/35/31 44/36/31 45/11/32
f 45/11/32 46/12/32 43/35/31
f 47/37/33 46/12/32 45/11/32
f 45/11/32 48/38/33 47/37/33
f 47/37/33 48/38/33 49/13/34
f 49/13/34 50/14/34 47/37/33
f 51/39/35 50/14/34 49/13/34
f 49/13/34 52/40/35 51/39/35
f 51/39/35 52/40/35 53/15/36
f 53/15/36 54/16/37 51/39/35
f 55/41/38 54/16/37 53/15/36
f 53/15/36 56/42/38 55/41/38
f 55/41/38 56/42/38 57/17/39
f 57/17/39 58/18/39 55/41/38
f 59/43/40 58/18/39 57/17/39
f 57/17/39 60/44/40 59/43/40
f 59/43/40 60/44/40 61/19/41
f 61/19/41 62/20/41 59/43/40
f 63/45/42 62/20/41 61/19/41
f 61/19/41 64/46/42 63/45/42
f 63/45/42 64/46/42 65/21/43
f 65/21/43 66/22/44 63/45/42
f 67/47/45 66/22/44 65/21/43
f 65/21/43 68/48/45 67/47/45
f 67/47/45 68/48/45 69/23/46
f 69/23/46 70/24/46 67/47/45
f 71/49/47 70/24/46 69/23/46
f 69/23/46 72/50/47 71/49/47
f 71/49/47 72/50/47 27/25/20
f 27/25/20 26/26/19 71/49/47
