# Blender 3.6.18
# www.blender.org
mtllib Mesh.179.mtl
o Bistro_Research_Exterior_Paris_Street_6251
v 16.250875 0.207835 13.953814
v 16.065685 0.201697 13.888655
v 16.258347 0.233854 13.935269
v 16.068621 0.229963 13.867643
v 16.073805 0.384287 13.869576
v 16.263744 0.387342 13.936402
v 16.251112 0.409443 13.956304
v 16.269165 0.381294 13.962770
v 16.068438 0.403054 13.888828
v 16.056904 0.379540 13.886491
v 16.105896 0.404120 14.358131
v 15.922005 0.407057 14.289036
v 16.056381 0.233229 13.885283
v 15.916067 0.205378 14.289857
v 15.901237 0.383962 14.279804
v 15.897599 0.237331 14.279834
v 15.739284 0.230346 14.718279
v 15.754682 0.202705 14.727823
v 15.738208 0.376789 14.724552
v 15.759553 0.403868 14.729365
v 15.531099 0.230324 15.278146
v 15.554516 0.210617 15.288867
v 15.533621 0.376886 15.277712
v 15.556696 0.411496 15.292318
v 15.391326 0.381064 15.681638
v 15.393756 0.234841 15.679646
v 15.419469 0.211729 15.686139
v 15.410471 0.233921 15.703373
v 15.408180 0.380542 15.708434
v 15.412208 0.413062 15.689339
v 15.583464 0.385408 15.768363
v 15.590189 0.402613 15.750191
v 15.588037 0.238591 15.773464
v 15.591393 0.200984 15.747235
v 15.613814 0.378599 15.758026
v 15.735833 0.408935 15.355940
v 15.945341 0.404390 14.801887
v 15.759069 0.380251 15.363607
v 15.611214 0.232426 15.753996
v 15.739374 0.207155 15.357804
v 15.963090 0.374491 14.801291
v 15.756042 0.233095 15.353946
v 15.961322 0.227779 14.801971
v 15.942446 0.202922 14.797358
v 16.126476 0.381674 14.361631
v 16.121931 0.235070 14.368387
v 16.100395 0.203257 14.362098
v 16.265688 0.234936 13.961390
v 16.923502 0.207494 12.094571
v 16.741709 0.207108 12.027949
v 16.933048 0.225042 12.070656
v 16.746464 0.234069 11.998700
v 16.747356 0.388008 11.999449
v 16.935020 0.379664 12.072319
v 16.924541 0.409398 12.085455
v 16.943474 0.375161 12.101961
v 16.747704 0.408653 12.027430
v 16.728680 0.378138 12.020572
v 16.781355 0.408403 12.490005
v 16.595615 0.408444 12.426283
v 16.723719 0.232241 12.015327
v 16.599804 0.206421 12.420197
v 16.575607 0.376992 12.413997
v 16.579243 0.230114 12.415293
v 16.415108 0.237809 12.858622
v 16.435343 0.207319 12.871502
v 16.420076 0.384695 12.860002
v 16.436621 0.407691 12.865732
v 16.215689 0.236013 13.421643
v 16.235641 0.203811 13.430767
v 16.207777 0.382852 13.415761
v 16.233990 0.405476 13.422482
v 16.074492 0.382174 13.821556
v 16.068756 0.235579 13.810831
v 16.092628 0.207722 13.822784
v 16.087185 0.235594 13.836927
v 16.088354 0.382691 13.850233
v 16.093094 0.408198 13.823978
v 16.258533 0.380201 13.910787
v 16.271646 0.402795 13.887577
v 16.262552 0.233077 13.907351
v 16.264837 0.200880 13.889739
v 16.287186 0.381408 13.893781
v 16.420313 0.407654 13.493008
v 16.620693 0.406984 12.932695
v 16.438166 0.381812 13.500788
v 16.291872 0.234229 13.894216
v 16.418602 0.206353 13.487589
v 16.634062 0.375485 12.941995
v 16.438860 0.235063 13.502500
v 16.643143 0.229027 12.936495
v 16.624802 0.205984 12.933230
v 16.796593 0.381052 12.497780
v 16.795502 0.234736 12.492993
v 16.781618 0.207279 12.490750
v 16.940895 0.228376 12.091421
v 15.562861 0.215024 15.801516
v 15.587007 0.218299 15.786730
v 15.580471 0.302123 15.806611
v 15.597655 0.301390 15.780627
v 15.597091 0.207485 15.761792
v 15.582685 0.357579 15.809000
v 15.603381 0.306516 15.767305
v 15.602156 0.362127 15.784180
v 15.568420 0.389264 15.805121
v 15.604575 0.355886 15.772247
v 15.601962 0.404101 15.784873
v 15.604786 0.396629 15.759737
v 15.388675 0.397430 15.727896
v 15.391935 0.393278 15.738859
v 15.384411 0.382200 15.736000
v 15.392864 0.400529 15.714508
v 15.389658 0.389378 15.724435
v 15.375177 0.355640 15.735045
v 15.405837 0.401386 15.704665
v 15.415302 0.400015 15.694364
v 15.384055 0.364429 15.725643
v 15.387427 0.233721 15.737760
v 15.390985 0.390015 15.717677
v 15.403046 0.387066 15.694283
v 15.404803 0.385556 15.684157
v 15.384479 0.365167 15.713855
v 15.400442 0.362175 15.698187
v 15.407290 0.361956 15.678158
v 15.405313 0.237402 15.676377
v 15.376241 0.237428 15.712077
v 15.433198 0.212843 15.688898
v 15.389584 0.211768 15.715076
v 15.397970 0.217759 15.735431
v 16.246939 0.207552 13.932367
v 16.263449 0.215739 13.907804
v 16.253443 0.301168 13.936242
v 16.275869 0.298848 13.915287
v 16.269999 0.210548 13.893882
v 16.255123 0.350943 13.942280
v 16.277626 0.306328 13.896221
v 16.280590 0.358221 13.920545
v 16.246965 0.394974 13.935050
v 16.277521 0.353232 13.896756
v 16.265249 0.402978 13.918708
v 16.272116 0.401471 13.896621
v 16.069502 0.397775 13.857918
v 16.063150 0.390637 13.873137
v 16.062128 0.384550 13.868127
v 16.075165 0.402731 13.848578
v 16.061190 0.390250 13.861000
v 16.053308 0.361483 13.860992
v 16.081860 0.394922 13.827966
v 16.095686 0.396940 13.826579
v 16.080795 0.386932 13.814784
v 16.065035 0.365369 13.862587
v 16.058907 0.235696 13.865599
v 16.067751 0.395734 13.838164
v 16.069323 0.364175 13.845578
v 16.079237 0.393159 13.830938
v 16.072596 0.216410 13.847702
v 16.069435 0.215282 13.870332
v 16.078917 0.363858 13.824693
v 16.084982 0.362509 13.809296
v 16.079218 0.232672 13.809242
v 16.059250 0.235446 13.840041
v 16.098701 0.217324 13.819706
vn 0.7066 -0.6442 -0.2928
vn -0.4397 -0.6032 -0.6654
vn 0.6838 -0.2930 -0.6682
vn -0.2541 -0.2776 -0.9265
vn -0.2079 0.3490 -0.9138
vn 0.7023 0.3570 -0.6159
vn 0.4617 0.8721 -0.1618
vn 0.9607 0.2649 0.0830
vn -0.3093 0.8418 -0.4424
vn -0.8308 0.2536 -0.4954
vn 0.4213 0.8938 0.1536
vn -0.4053 0.9012 -0.1535
vn -0.8603 -0.1752 -0.4788
vn -0.8132 -0.4942 -0.3074
vn -0.8820 0.3332 -0.3332
vn -0.9057 -0.2449 -0.3460
vn -0.8899 -0.3147 -0.3303
vn -0.7370 -0.6200 -0.2691
vn -0.8820 0.3410 -0.3253
vn -0.4025 0.9027 -0.1524
vn -0.8669 -0.3926 -0.3071
vn -0.6484 -0.7260 -0.2291
vn -0.8905 0.3177 -0.3256
vn -0.4119 0.8983 -0.1530
vn -0.9606 0.2627 0.0902
vn -0.9211 -0.3770 0.0972
vn -0.5513 -0.7546 0.3558
vn -0.5838 -0.3330 0.7405
vn -0.5920 0.2549 0.7645
vn -0.4904 0.8357 0.2472
vn 0.0275 0.3420 0.9393
vn 0.2251 0.8491 0.4778
vn 0.0746 -0.2630 0.9619
vn 0.3351 -0.6583 0.6741
vn 0.7391 0.2965 0.6048
vn 0.4058 0.9023 0.1458
vn 0.4369 0.8862 0.1542
vn 0.8889 0.3200 0.3279
vn 0.7514 -0.2872 0.5941
vn 0.7914 -0.5394 0.2874
vn 0.8991 0.2891 0.3287
vn 0.8949 -0.3035 0.3272
vn 0.8905 -0.3178 0.3256
vn 0.7668 -0.5780 0.2792
vn 0.8949 0.3035 0.3272
vn 0.8950 -0.3115 0.3193
vn 0.7684 -0.5793 0.2719
vn 0.9629 -0.2633 0.0589
vn 0.6551 -0.7415 -0.1451
vn -0.3243 -0.7853 -0.5274
vn 0.6402 -0.4124 -0.6481
vn -0.1448 -0.3641 -0.9200
vn -0.1992 0.3633 -0.9101
vn 0.7118 0.2871 -0.6410
vn 0.5015 0.8332 -0.2330
vn 0.9705 0.2318 0.0668
vn -0.2787 0.8518 -0.4436
vn -0.8250 0.2698 -0.4966
vn 0.4611 0.8710 0.1695
vn -0.4366 0.8851 -0.1613
vn -0.7673 -0.3311 -0.5492
vn -0.7205 -0.6426 -0.2609
vn -0.8941 0.3006 -0.3319
vn -0.8813 -0.3455 -0.3223
vn -0.8883 -0.3248 -0.3248
vn -0.7476 -0.6068 -0.2700
vn -0.3963 0.9065 -0.1452
vn -0.7460 -0.6054 -0.2773
vn -0.8769 0.3624 -0.3157
vn -0.3739 0.9172 -0.1378
vn -0.9478 0.3081 0.0819
vn -0.9550 -0.2923 0.0507
vn -0.6818 -0.6117 0.4013
vn -0.6141 -0.2543 0.7471
vn -0.5938 0.3264 0.7354
vn -0.4512 0.8748 0.1765
vn 0.0277 0.3279 0.9443
vn 0.2733 0.8515 0.4475
vn 0.0355 -0.2563 0.9659
vn 0.2400 -0.6334 0.7357
vn 0.7230 0.3042 0.6203
vn 0.4366 0.8851 0.1613
vn 0.4673 0.8678 0.1688
vn 0.7301 -0.2881 0.6196
vn 0.7203 -0.6416 0.2637
vn 0.9102 0.2640 0.3192
vn 0.8866 -0.3270 0.3271
vn 0.8987 -0.3022 0.3179
vn 0.7581 -0.5931 0.2710
vn 0.9079 0.2633 0.3262
vn 0.9049 -0.2806 0.3201
vn 0.7995 -0.5316 0.2796
vn 0.9555 -0.2949 0.0118
vn 0.6985 -0.1144 0.7064
vn 0.8243 -0.1065 0.5561
vn 0.7603 -0.0985 0.6421
vn 0.8615 -0.0905 0.4996
vn 0.9166 -0.0905 0.3895
vn 0.7224 0.0276 0.6909
vn 0.9355 -0.0829 0.3434
vn 0.8871 0.0118 0.4613
vn 0.2254 0.7236 0.6524
vn 0.9699 -0.0432 0.2395
vn 0.5874 0.7215 0.3666
vn 0.6744 0.7375 -0.0355
vn -0.7248 0.6700 0.1606
vn -0.5471 0.7833 0.2952
vn -0.9303 0.2708 -0.2473
vn -0.6322 0.7343 -0.2474
vn -0.9690 0.2001 -0.1451
vn -0.7595 0.0039 -0.6505
vn -0.3644 0.8502 -0.3801
vn -0.3036 0.9108 -0.2799
vn -0.9674 0.1449 -0.2076
vn -0.9150 -0.2609 0.3076
vn -0.9115 0.1760 -0.3717
vn -0.8174 0.3168 -0.4811
vn -0.9052 0.2312 -0.3566
vn -0.9476 0.1287 -0.2925
vn -0.8671 0.0661 -0.4938
vn -0.9539 0.0117 -0.2998
vn -0.6790 -0.3143 -0.6635
vn -0.9425 -0.2620 -0.2073
vn -0.5106 -0.6041 -0.6119
vn -0.7537 -0.6287 -0.1914
vn -0.8108 -0.4582 0.3642
vn 0.7614 -0.1302 0.6351
vn 0.8861 -0.1300 0.4450
vn 0.7135 -0.1222 0.6899
vn 0.9001 -0.1140 0.4205
vn 0.9649 -0.1221 0.2324
vn 0.6448 0.0356 0.7635
vn 0.9950 -0.0747 0.0669
vn 0.9016 0.0984 0.4213
vn 0.2491 0.7157 0.6524
vn 0.9977 0.0671 -0.0040
vn 0.5410 0.7779 0.3198
vn 0.6510 0.7536 -0.0908
vn -0.4753 0.8602 0.1846
vn -0.5238 0.8073 0.2717
vn -0.8009 0.3868 -0.4571
vn -0.2948 0.9549 -0.0354
vn -0.9179 0.3476 -0.1914
vn -0.0898 0.0273 -0.9956
vn -0.1998 0.9127 -0.3564
vn -0.1774 0.9818 0.0670
vn -0.9007 0.2612 -0.3471
vn -0.7665 0.0195 -0.6420
vn -0.9546 -0.2688 -0.1286
vn -0.7853 0.4259 -0.4493
vn -0.9292 -0.0117 -0.3694
vn -0.6592 0.4954 -0.5656
vn -0.7210 -0.6509 -0.2377
vn -0.8433 -0.5324 -0.0738
vn -0.9087 0.0117 -0.4173
vn -0.9486 0.0117 -0.3162
vn -0.7750 -0.3933 -0.4946
vn -0.9023 -0.2929 -0.3164
vn -0.5463 -0.7322 -0.4068
vt 0.824707 0.590088
vt 0.824707 0.658936
vt 0.812500 0.590332
vt 0.812500 0.658936
vt 0.761230 0.659424
vt 0.761230 0.589355
vt 0.750000 0.590820
vt 0.751953 0.579590
vt 0.750000 0.658203
vt 0.751465 0.669434
vt 0.602051 0.590332
vt 0.602051 0.658936
vt 0.762207 0.669434
vt 0.762207 0.721680
vt 0.751465 0.720459
vt 0.752930 0.732178
vt 0.603027 0.734619
vt 0.602539 0.671143
vt 0.603027 0.722412
vt 0.437744 0.722900
vt 0.437744 0.735107
vt 0.437500 0.671387
vt 0.437500 0.658936
vt 0.228638 0.722412
vt 0.228516 0.734863
vt 0.228882 0.671143
vt 0.229004 0.658936
vt 0.080444 0.669922
vt 0.081299 0.720947
vt 0.079956 0.732666
vt 0.070984 0.722412
vt 0.069397 0.670410
vt 0.082275 0.658447
vt 0.070984 0.659912
vt 0.071045 0.589600
vt 0.019592 0.659180
vt 0.082397 0.591064
vt 0.019592 0.590332
vt 0.007298 0.590332
vt 0.007298 0.659180
vt 0.080566 0.579834
vt 0.229004 0.590332
vt 0.069885 0.579590
vt 0.070374 0.527344
vt 0.437500 0.590332
vt 0.228760 0.578125
vt 0.080750 0.528809
vt 0.079590 0.516846
vt 0.228271 0.514404
vt 0.437500 0.577881
vt 0.228394 0.526855
vt 0.437500 0.526367
vt 0.437500 0.514160
vt 0.602539 0.578125
vt 0.602539 0.526855
vt 0.603027 0.514404
vt 0.750977 0.528320
vt 0.762695 0.579102
vt 0.752441 0.516602
vt 0.761230 0.526855
vt 0.723633 1.897949
vt 0.718262 1.884277
vt 0.759766 1.880371
vt 0.756836 1.867188
vt 0.714844 1.876465
vt 0.783691 1.867676
vt 0.754883 1.859863
vt 0.780273 1.855957
vt 0.813965 1.861328
vt 0.775391 1.850098
vt 0.801270 1.847656
vt 0.798340 1.833496
vt 0.901367 1.846680
vt 0.901367 1.854980
vt 0.912598 1.852539
vt 0.897461 1.835938
vt 0.911621 1.848145
vt 0.924316 1.849121
vt 0.893555 1.825195
vt 0.891113 1.821289
vt 0.923340 1.844727
vt 0.983398 1.829590
vt 0.907227 1.834473
vt 0.902832 1.822754
vt 0.901855 1.818359
vt 0.919434 1.831543
vt 0.915039 1.819336
vt 0.913086 1.814453
vt 0.972656 1.795898
vt 0.978027 1.814453
vt 0.983887 1.790039
vt 0.987793 1.809082
vt 0.993652 1.826172
s 1
usemtl Pavement_Curbstones
f 1/1/1 2/2/2 3/3/3
f 2/2/2 4/4/4 3/3/3
f 3/3/3 4/4/4 5/5/5
f 6/6/6 3/3/3 5/5/5
f 7/7/7 6/6/6 5/5/5
f 7/7/7 8/8/8 6/6/6
f 9/9/9 7/7/7 5/5/5
f 10/10/10 9/9/9 5/5/5
f 7/7/7 9/9/9 11/11/11
f 8/8/8 7/7/7 11/11/11
f 12/12/12 9/9/9 10/10/10
f 9/9/9 12/12/12 11/11/11
f 10/10/10 5/13/5 4/14/4
f 13/15/13 10/10/10 4/14/4
f 4/14/4 2/16/2 13/15/13
f 13/15/13 2/16/2 14/17/14
f 10/10/10 13/15/13 15/18/15
f 15/18/15 12/12/12 10/10/10
f 16/19/16 13/15/13 14/17/14
f 13/15/13 16/19/16 15/18/15
f 16/19/16 14/17/14 17/20/17
f 14/17/14 18/21/18 17/20/17
f 15/18/15 16/19/16 19/22/19
f 16/19/16 17/20/17 19/22/19
f 20/23/20 12/12/12 15/18/15
f 19/22/19 20/23/20 15/18/15
f 17/20/17 18/21/18 21/24/21
f 18/21/18 22/25/22 21/24/21
f 19/22/19 17/20/17 23/26/23
f 17/20/17 21/24/21 23/26/23
f 23/26/23 24/27/24 19/22/19
f 24/27/24 20/23/20 19/22/19
f 23/26/23 21/24/21 25/28/25
f 23/26/23 25/28/25 24/27/24
f 21/24/21 22/25/22 26/29/26
f 21/24/21 26/29/26 25/28/25
f 22/25/22 27/30/27 26/29/26
f 27/30/27 28/31/28 26/29/26
f 26/29/26 28/31/28 29/32/29
f 25/28/25 26/29/26 29/32/29
f 25/28/25 30/33/30 24/27/24
f 25/28/25 29/34/29 30/33/30
f 30/33/30 29/34/29 31/35/31
f 31/35/31 29/34/29 28/36/28
f 24/27/24 30/33/30 32/37/32
f 32/37/32 30/33/30 31/35/31
f 33/38/33 31/35/31 28/36/28
f 34/39/34 33/38/33 28/36/28
f 27/40/27 34/39/34 28/36/28
f 32/37/32 31/35/31 35/41/35
f 36/42/36 24/27/24 32/37/32
f 36/42/36 32/37/32 35/41/35
f 20/23/20 24/27/24 36/42/36
f 35/41/35 31/43/31 33/44/33
f 37/45/37 20/23/20 36/42/36
f 12/12/12 20/23/20 37/45/37
f 11/11/11 12/12/12 37/45/37
f 38/46/38 36/42/36 35/41/35
f 37/45/37 36/42/36 38/46/38
f 39/47/39 35/41/35 33/44/33
f 35/41/35 39/47/39 38/46/38
f 39/47/39 33/44/33 34/48/34
f 39/47/39 34/48/34 40/49/40
f 41/50/41 37/45/37 38/46/38
f 11/11/11 37/45/37 41/50/41
f 39/47/39 42/51/42 38/46/38
f 42/51/42 39/47/39 40/49/40
f 38/46/38 42/51/42 41/50/41
f 42/51/42 40/49/40 43/52/43
f 42/51/42 43/52/43 41/50/41
f 40/49/40 44/53/44 43/52/43
f 45/54/45 11/11/11 41/50/41
f 41/50/41 43/52/43 45/54/45
f 45/54/45 8/8/8 11/11/11
f 43/52/43 44/53/44 46/55/46
f 43/52/43 46/55/46 45/54/45
f 45/54/45 46/55/46 8/8/8
f 44/53/44 47/56/47 46/55/46
f 46/55/46 48/57/48 8/8/8
f 46/55/46 47/56/47 48/57/48
f 8/8/8 48/57/48 6/58/6
f 47/56/47 1/59/1 48/57/48
f 48/57/48 3/60/3 6/58/6
f 3/60/3 48/57/48 1/59/1
f 49/1/49 50/2/50 51/3/51
f 50/2/50 52/4/52 51/3/51
f 51/3/51 52/4/52 53/5/53
f 54/6/54 51/3/51 53/5/53
f 55/7/55 54/6/54 53/5/53
f 55/7/55 56/8/56 54/6/54
f 57/9/57 55/7/55 53/5/53
f 58/10/58 57/9/57 53/5/53
f 55/7/55 57/9/57 59/11/59
f 56/8/56 55/7/55 59/11/59
f 60/12/60 57/9/57 58/10/58
f 57/9/57 60/12/60 59/11/59
f 58/10/58 53/13/53 52/14/52
f 61/15/61 58/10/58 52/14/52
f 52/14/52 50/16/50 61/15/61
f 61/15/61 50/16/50 62/17/62
f 58/10/58 61/15/61 63/18/63
f 63/18/63 60/12/60 58/10/58
f 64/19/64 61/15/61 62/17/62
f 61/15/61 64/19/64 63/18/63
f 64/19/64 62/17/62 65/20/65
f 62/17/62 66/21/66 65/20/65
f 63/18/63 64/19/64 67/22/19
f 64/19/64 65/20/65 67/22/19
f 68/23/67 60/12/60 63/18/63
f 67/22/19 68/23/67 63/18/63
f 65/20/65 66/21/66 69/24/65
f 66/21/66 70/25/68 69/24/65
f 67/22/19 65/20/65 71/26/69
f 65/20/65 69/24/65 71/26/69
f 71/26/69 72/27/70 67/22/19
f 72/27/70 68/23/67 67/22/19
f 71/26/69 69/24/65 73/28/71
f 71/26/69 73/28/71 72/27/70
f 69/24/65 70/25/68 74/29/72
f 69/24/65 74/29/72 73/28/71
f 70/25/68 75/30/73 74/29/72
f 75/30/73 76/31/74 74/29/72
f 74/29/72 76/31/74 77/32/75
f 73/28/71 74/29/72 77/32/75
f 73/28/71 78/33/76 72/27/70
f 73/28/71 77/34/75 78/33/76
f 78/33/76 77/34/75 79/35/77
f 79/35/77 77/34/75 76/36/74
f 72/27/70 78/33/76 80/37/78
f 80/37/78 78/33/76 79/35/77
f 81/38/79 79/35/77 76/36/74
f 82/39/80 81/38/79 76/36/74
f 75/40/73 82/39/80 76/36/74
f 80/37/78 79/35/77 83/41/81
f 84/42/82 72/27/70 80/37/78
f 84/42/82 80/37/78 83/41/81
f 68/23/67 72/27/70 84/42/82
f 83/41/81 79/43/77 81/44/79
f 85/45/83 68/23/67 84/42/82
f 60/12/60 68/23/67 85/45/83
f 59/11/59 60/12/60 85/45/83
f 86/46/45 84/42/82 83/41/81
f 85/45/83 84/42/82 86/46/45
f 87/47/84 83/41/81 81/44/79
f 83/41/81 87/47/84 86/46/45
f 87/47/84 81/44/79 82/48/80
f 87/47/84 82/48/80 88/49/85
f 89/50/86 85/45/83 86/46/45
f 59/11/59 85/45/83 89/50/86
f 87/47/84 90/51/87 86/46/45
f 90/51/87 87/47/84 88/49/85
f 86/46/45 90/51/87 89/50/86
f 90/51/87 88/49/85 91/52/88
f 90/51/87 91/52/88 89/50/86
f 88/49/85 92/53/89 91/52/88
f 93/54/90 59/11/59 89/50/86
f 89/50/86 91/52/88 93/54/90
f 93/54/90 56/8/56 59/11/59
f 91/52/88 92/53/89 94/55/91
f 91/52/88 94/55/91 93/54/90
f 93/54/90 94/55/91 56/8/56
f 92/53/89 95/56/92 94/55/91
f 94/55/91 96/57/93 56/8/56
f 94/55/91 95/56/92 96/57/93
f 56/8/56 96/57/93 54/58/54
f 95/56/92 49/59/49 96/57/93
f 96/57/93 51/60/51 54/58/54
f 51/60/51 96/57/93 49/59/49
f 97/61/94 98/62/95 99/63/96
f 98/62/95 100/64/97 99/63/96
f 98/62/95 101/65/98 100/64/97
f 99/63/96 100/64/97 102/66/99
f 101/65/98 103/67/100 100/64/97
f 100/64/97 104/68/101 102/66/99
f 100/64/97 103/67/100 104/68/101
f 102/66/99 104/68/101 105/69/102
f 103/67/100 106/70/103 104/68/101
f 104/68/101 106/70/103 107/71/104
f 104/68/101 107/71/104 105/69/102
f 106/70/103 108/72/105 107/71/104
f 105/69/102 107/71/104 109/73/106
f 109/73/106 110/74/107 105/69/102
f 111/75/108 110/74/107 109/73/106
f 107/71/104 108/72/105 112/76/109
f 107/71/104 112/76/109 109/73/106
f 113/77/110 111/75/108 109/73/106
f 113/77/110 109/73/106 112/76/109
f 114/78/111 111/75/108 113/77/110
f 108/72/105 115/79/112 112/76/109
f 116/80/113 115/79/112 108/72/105
f 117/81/114 114/78/111 113/77/110
f 118/82/115 114/78/111 117/81/114
f 119/83/116 113/77/110 112/76/109
f 117/81/114 113/77/110 119/83/116
f 119/83/116 112/76/109 115/79/112
f 120/84/117 115/79/112 116/80/113
f 120/84/117 119/83/116 115/79/112
f 121/85/118 120/84/117 116/80/113
f 122/86/119 117/81/114 119/83/116
f 119/83/116 120/84/117 122/86/119
f 118/82/115 117/81/114 122/86/119
f 120/84/117 121/85/118 123/87/120
f 120/84/117 123/87/120 122/86/119
f 121/85/118 124/88/121 123/87/120
f 123/87/120 124/88/121 125/89/122
f 126/90/123 122/86/119 123/87/120
f 125/89/122 126/90/123 123/87/120
f 126/90/123 118/82/115 122/86/119
f 125/89/122 127/91/124 126/90/123
f 127/91/124 128/92/125 126/90/123
f 126/90/123 128/92/125 118/82/115
f 128/92/125 129/93/126 118/82/115
f 130/61/127 131/62/128 132/63/129
f 131/62/128 133/64/130 132/63/129
f 131/62/128 134/65/131 133/64/130
f 132/63/129 133/64/130 135/66/132
f 134/65/131 136/67/133 133/64/130
f 133/64/130 137/68/134 135/66/132
f 133/64/130 136/67/133 137/68/134
f 135/66/132 137/68/134 138/69/135
f 136/67/133 139/70/136 137/68/134
f 137/68/134 139/70/136 140/71/137
f 137/68/134 140/71/137 138/69/135
f 139/70/136 141/72/138 140/71/137
f 138/69/135 140/71/137 142/73/139
f 142/73/139 143/74/140 138/69/135
f 144/75/141 143/74/140 142/73/139
f 140/71/137 141/72/138 145/76/142
f 140/71/137 145/76/142 142/73/139
f 146/77/143 144/75/141 142/73/139
f 146/77/143 142/73/139 145/76/142
f 147/78/144 144/75/141 146/77/143
f 141/72/138 148/79/145 145/76/142
f 149/80/146 148/79/145 141/72/138
f 150/85/147 148/79/145 149/80/146
f 151/81/148 147/78/144 146/77/143
f 152/82/149 147/78/144 151/81/148
f 153/83/150 146/77/143 145/76/142
f 151/81/148 146/77/143 153/83/150
f 153/83/150 145/76/142 148/79/145
f 154/86/151 151/81/148 153/83/150
f 152/82/149 151/81/148 154/86/151
f 155/84/152 153/83/150 148/79/145
f 153/83/150 155/84/152 154/86/151
f 155/84/152 148/79/145 150/85/147
f 156/92/153 157/93/154 152/82/149
f 155/84/152 150/85/147 158/87/155
f 155/84/152 158/87/155 154/86/151
f 150/85/147 159/88/156 158/87/155
f 158/87/155 159/88/156 160/89/157
f 161/90/158 152/82/149 154/86/151
f 161/90/158 154/86/151 158/87/155
f 161/90/158 156/92/153 152/82/149
f 160/89/157 161/90/158 158/87/155
f 162/91/159 156/92/153 161/90/158
f 160/89/157 162/91/159 161/90/158
