# Blender 3.6.18
# www.blender.org
mtllib Mesh.740.mtl
o Bistro_Research_Exterior_paris_building_05_5055
v 19.524534 16.990107 -38.509075
v 19.061790 16.990107 -38.299557
v 19.086496 16.990107 -38.244991
v 19.549242 16.990107 -38.454510
v 19.086496 16.893988 -38.244991
v 19.549242 16.893988 -38.454510
v 19.524534 16.893988 -38.509075
v 19.061790 16.893988 -38.299557
v 19.543522 14.290565 -38.455330
v 19.521183 14.290566 -38.504669
v 19.521183 16.898327 -38.504669
v 19.543522 16.898327 -38.455330
v 19.472567 16.898327 -38.423203
v 19.472569 14.290565 -38.423203
v 19.450230 14.290566 -38.472542
v 19.450230 16.898327 -38.472542
v 19.472263 16.891829 -38.444683
v 19.151426 16.891829 -38.299412
v 19.151426 14.293645 -38.299412
v 19.472263 14.293645 -38.444683
v 19.070890 14.290565 -38.300789
v 19.093227 14.290566 -38.251446
v 19.093227 16.898327 -38.251446
v 19.070890 16.898327 -38.300789
v 19.141840 16.898327 -38.332912
v 19.141840 14.290565 -38.332912
v 19.164181 14.290566 -38.283573
v 19.164181 16.898327 -38.283573
v 19.524534 14.290150 -38.509075
v 19.061790 14.290150 -38.299557
v 19.086496 14.290150 -38.244991
v 19.549242 14.290150 -38.454510
v 19.086496 14.194030 -38.244991
v 19.549242 14.194030 -38.454510
v 19.524534 14.194030 -38.509075
v 19.061790 14.194030 -38.299557
v 19.072012 14.460618 -38.291229
v 19.088154 14.460618 -38.255581
v 19.088154 14.589516 -38.255581
v 19.072012 14.589516 -38.291233
v 19.091681 14.589516 -38.257179
v 19.075539 14.589516 -38.292831
v 19.075537 14.460618 -38.292828
v 19.091679 14.460618 -38.257175
v 19.016125 14.460618 -38.315746
v 19.052748 14.460618 -38.301960
v 19.052748 14.589516 -38.301956
v 19.016127 14.589516 -38.315750
v 19.054111 14.589516 -38.305580
v 19.017488 14.589516 -38.319374
v 19.017488 14.460618 -38.319374
v 19.054111 14.460618 -38.305580
v 19.182064 16.990107 -38.789776
v 19.003006 16.990107 -38.314407
v 19.059061 16.990107 -38.293293
v 19.238117 16.990107 -38.768661
v 19.059061 16.893988 -38.293293
v 19.238117 16.893988 -38.768661
v 19.182064 16.893988 -38.789776
v 19.003006 16.893988 -38.314407
v 19.233496 14.290565 -38.765198
v 19.182812 14.290566 -38.784286
v 19.182812 16.898327 -38.784286
v 19.233496 16.898327 -38.765198
v 19.206039 16.898327 -38.692307
v 19.206039 14.290565 -38.692307
v 19.155355 14.290566 -38.711395
v 19.155355 16.898327 -38.711395
v 19.049051 16.891829 -38.384258
v 19.173197 16.891829 -38.713840
v 19.173197 14.293645 -38.713840
v 19.049051 14.293645 -38.384258
v 19.008574 14.290565 -38.321712
v 19.059256 14.290566 -38.302620
v 19.059256 16.898327 -38.302620
v 19.008574 16.898327 -38.321712
v 19.036026 16.898327 -38.394604
v 19.036026 14.290565 -38.394604
v 19.086710 14.290566 -38.375511
v 19.086710 16.898327 -38.375511
v 19.182064 14.290150 -38.789776
v 19.003006 14.290150 -38.314407
v 19.059061 14.290150 -38.293293
v 19.238117 14.290150 -38.768661
v 19.059061 14.194030 -38.293293
v 19.238117 14.194030 -38.768661
v 19.182064 14.194030 -38.789776
v 19.003006 14.194030 -38.314407
v 19.016125 16.661915 -38.315746
v 19.052748 16.661915 -38.301960
v 19.052748 16.790812 -38.301956
v 19.016127 16.790812 -38.315750
v 19.054111 16.790812 -38.305580
v 19.017488 16.790812 -38.319374
v 19.017488 16.661915 -38.319374
v 19.054111 16.661915 -38.305580
v 19.072012 16.661915 -38.291229
v 19.088154 16.661915 -38.255581
v 19.088154 16.790812 -38.255581
v 19.072012 16.790812 -38.291233
v 19.091681 16.790812 -38.257179
v 19.075539 16.790812 -38.292831
v 19.075537 16.661915 -38.292828
v 19.091679 16.661915 -38.257175
v 19.074724 14.460976 -38.302528
v 19.067730 14.460976 -38.309082
v 19.067730 14.589179 -38.309082
v 19.074724 14.589179 -38.302528
v 19.075037 14.460976 -38.292946
v 19.075037 14.589179 -38.292946
v 19.068481 14.460976 -38.285950
v 19.068481 14.589179 -38.285950
v 19.058899 14.460976 -38.285641
v 19.058899 14.589179 -38.285641
v 19.051903 14.460976 -38.292194
v 19.051903 14.589179 -38.292194
v 19.051592 14.460976 -38.301781
v 19.051592 14.589179 -38.301781
v 19.058151 14.460976 -38.308773
v 19.058151 14.589179 -38.308773
v 19.074724 16.662273 -38.302528
v 19.067730 16.662273 -38.309082
v 19.067730 16.790478 -38.309082
v 19.074724 16.790478 -38.302528
v 19.075037 16.662273 -38.292946
v 19.075037 16.790478 -38.292946
v 19.068481 16.662273 -38.285950
v 19.068481 16.790478 -38.285950
v 19.058899 16.662273 -38.285641
v 19.058899 16.790478 -38.285641
v 19.051903 16.662273 -38.292194
v 19.051903 16.790478 -38.292194
v 19.051592 16.662273 -38.301781
v 19.051592 16.790478 -38.301781
v 19.058151 16.662273 -38.308773
v 19.058151 16.790478 -38.308773
v 19.063313 14.460976 -38.297359
v 19.063313 14.589179 -38.297359
v 19.063313 16.662273 -38.297359
v 19.063313 16.790478 -38.297359
vn -0.0039 1.0000 -0.0039
vn 0.4138 -0.0039 0.9104
vn 0.4138 -0.0040 0.9104
vn -0.4173 -0.0039 -0.9087
vn -0.4173 -0.0039 -0.9088
vn 0.9074 -0.0039 -0.4203
vn -0.9117 -0.0039 0.4109
vn -0.9117 -0.0039 0.4108
vn -0.0039 -1.0000 -0.0039
vn -0.3585 -0.0039 0.9335
vn -0.3584 -0.0039 0.9335
vn -0.3585 -0.0040 0.9335
vn -0.9345 -0.0039 -0.3558
vn 0.9362 -0.0040 0.3515
vn 0.9362 -0.0040 0.3516
vn 0.9362 -0.0039 0.3516
vn 0.3490 -0.0039 -0.9371
vn -0.3584 -0.0039 0.9336
vn 0.3489 -0.0040 -0.9371
vn -0.9346 -0.0039 -0.3558
vt 0.327881 0.353027
vt 0.327881 0.432129
vt 0.318604 0.432129
vt 0.318604 0.353027
vt 0.315430 0.432129
vt 0.300537 0.432129
vt 0.300537 0.352539
vt 0.315430 0.352539
vt 0.270020 0.352051
vt 0.284912 0.352051
vt 0.284912 0.431641
vt 0.270020 0.431641
vt 0.269775 0.345215
vt 0.269775 0.335938
vt 0.284912 0.335938
vt 0.284912 0.345215
vt 0.288086 0.345215
vt 0.288086 0.335938
vt 0.303223 0.335938
vt 0.303223 0.345215
vt 0.287842 0.352539
vt 0.297363 0.352539
vt 0.297363 0.432129
vt 0.287842 0.432129
vt 0.858398 0.978256
vt 0.848633 0.978256
vt 0.848633 0.570801
vt 0.858398 0.570801
vt 0.812012 0.571289
vt 0.812012 0.978668
vt 0.799805 0.978668
vt 0.799805 0.571289
vt 0.845215 0.572021
vt 0.845215 0.979340
vt 0.833008 0.979340
vt 0.833008 0.572021
vt 0.827637 0.980072
vt 0.817871 0.980072
vt 0.817871 0.572754
vt 0.827637 0.572754
vt 0.377197 0.011230
vt 0.432373 0.011230
vt 0.432373 0.416992
vt 0.377197 0.416992
vt 0.360107 0.465332
vt 0.354004 0.465332
vt 0.354004 0.445312
vt 0.360107 0.445312
vt 0.354004 0.442871
vt 0.360107 0.442871
vt 0.360107 0.443359
vt 0.354004 0.443359
vt 0.362061 0.445312
vt 0.362061 0.465332
vt 0.361328 0.465332
vt 0.361328 0.445312
vt 0.360107 0.467285
vt 0.354004 0.467285
vt 0.354004 0.466797
vt 0.360107 0.466797
vt 0.352051 0.465332
vt 0.352051 0.445312
vt 0.352783 0.445312
vt 0.352783 0.465332
vt 0.327637 0.464355
vt 0.326172 0.464355
vt 0.326172 0.443848
vt 0.327637 0.443848
vt 0.329102 0.464355
vt 0.329102 0.443848
vt 0.330566 0.464355
vt 0.330566 0.443848
vt 0.332031 0.464355
vt 0.332031 0.443848
vt 0.333496 0.464355
vt 0.333496 0.443848
vt 0.334473 0.464355
vt 0.334473 0.443848
vt 0.335938 0.464355
vt 0.335938 0.443848
vt 0.337402 0.464355
vt 0.337402 0.443848
vt 0.326172 0.466797
vt 0.327393 0.465820
vt 0.328125 0.467773
vt 0.326172 0.468262
vt 0.328857 0.465820
vt 0.327148 0.469238
vt 0.329834 0.466797
vt 0.328857 0.469238
vt 0.329834 0.468262
vt 0.333252 0.465820
vt 0.334717 0.465820
vt 0.333984 0.467773
vt 0.332275 0.466797
vt 0.335938 0.466797
vt 0.332275 0.468262
vt 0.335938 0.468750
vt 0.333252 0.469727
vt 0.334717 0.469727
s 1
usemtl MASTER_Building_Details
f 1/1/1 2/2/1 3/3/1
f 3/3/1 4/4/1 1/1/1
f 3/5/2 5/6/3 6/7/2
f 6/7/2 4/8/2 3/5/2
f 1/9/4 7/10/4 8/11/5
f 8/11/5 2/12/5 1/9/4
f 1/13/6 4/14/6 6/15/6
f 6/15/6 7/16/6 1/13/6
f 3/17/7 2/18/8 8/19/8
f 8/19/8 5/20/7 3/17/7
f 7/21/9 6/22/9 5/23/9
f 5/23/9 8/24/9 7/21/9
f 9/25/6 10/26/6 11/27/6
f 11/27/6 12/28/6 9/25/6
f 9/29/3 12/30/3 13/31/3
f 13/31/2 14/32/2 9/29/2
f 11/33/4 10/34/4 15/35/4
f 15/35/5 16/36/5 11/33/5
f 15/37/8 14/38/8 13/39/7
f 13/39/7 16/40/8 15/37/8
f 17/41/2 18/42/3 19/43/2
f 19/43/2 20/44/3 17/41/2
f 21/25/7 22/26/7 23/27/8
f 23/27/8 24/28/8 21/25/7
f 21/29/4 24/30/4 25/31/4
f 25/31/4 26/32/4 21/29/4
f 23/33/2 22/34/2 27/35/2
f 27/35/2 28/36/2 23/33/2
f 27/37/6 26/38/6 25/39/6
f 25/39/6 28/40/6 27/37/6
f 29/1/1 30/2/1 31/3/1
f 31/3/1 32/4/1 29/1/1
f 31/5/3 33/6/2 34/7/3
f 34/7/3 32/8/3 31/5/3
f 29/9/4 35/10/4 36/11/4
f 36/11/4 30/12/4 29/9/4
f 29/13/6 32/14/6 34/15/6
f 34/15/6 35/16/6 29/13/6
f 31/17/8 30/18/8 36/19/8
f 36/19/8 33/20/7 31/17/8
f 35/21/9 34/22/9 33/23/9
f 33/23/9 36/24/9 35/21/9
f 37/45/8 38/46/8 39/47/7
f 39/47/7 40/48/7 37/45/8
f 41/49/1 42/50/1 40/51/1
f 40/51/1 39/52/1 41/49/1
f 42/53/4 43/54/4 37/55/4
f 37/55/4 40/56/4 42/53/4
f 43/57/9 44/58/9 38/59/9
f 38/59/9 37/60/9 43/57/9
f 44/61/2 41/62/2 39/63/2
f 39/63/2 38/64/2 44/61/2
f 45/45/10 46/46/10 47/47/11
f 47/47/11 48/48/12 45/45/10
f 49/49/1 50/50/1 48/51/1
f 48/51/1 47/52/1 49/49/1
f 50/53/13 51/54/13 45/55/13
f 45/55/13 48/56/13 50/53/13
f 51/57/9 52/58/9 46/59/9
f 46/59/9 45/60/9 51/57/9
f 52/61/14 49/62/15 47/63/15
f 47/63/15 46/64/16 52/61/14
f 53/1/1 54/2/1 55/3/1
f 55/3/1 56/4/1 53/1/1
f 55/5/14 57/6/16 58/7/16
f 58/7/16 56/8/16 55/5/14
f 53/9/13 59/10/13 60/11/13
f 60/11/13 54/12/13 53/9/13
f 53/13/17 56/14/17 58/15/17
f 58/15/17 59/16/17 53/13/17
f 55/17/11 54/18/11 60/19/11
f 60/19/11 57/20/18 55/17/11
f 59/21/9 58/22/9 57/23/9
f 57/23/9 60/24/9 59/21/9
f 61/25/17 62/26/19 63/27/17
f 63/27/17 64/28/19 61/25/17
f 61/29/16 64/30/16 65/31/16
f 65/31/15 66/32/15 61/29/15
f 63/33/13 62/34/13 67/35/13
f 67/35/13 68/36/13 63/33/13
f 67/37/11 66/38/12 65/39/11
f 65/39/11 68/40/12 67/37/11
f 69/41/13 70/42/13 71/43/13
f 71/43/13 72/44/13 69/41/13
f 73/25/11 74/26/11 75/27/11
f 75/27/11 76/28/11 73/25/11
f 73/29/13 76/30/13 77/31/13
f 77/31/20 78/32/20 73/29/20
f 75/33/15 74/34/15 79/35/15
f 79/35/16 80/36/16 75/33/16
f 79/37/17 78/38/17 77/39/17
f 77/39/17 80/40/17 79/37/17
f 81/1/1 82/2/1 83/3/1
f 83/3/1 84/4/1 81/1/1
f 83/5/16 85/6/16 86/7/16
f 86/7/16 84/8/15 83/5/16
f 81/9/13 87/10/13 88/11/13
f 88/11/13 82/12/13 81/9/13
f 81/13/17 84/14/17 86/15/17
f 86/15/17 87/16/17 81/13/17
f 83/17/18 82/18/18 88/19/11
f 88/19/11 85/20/11 83/17/18
f 87/21/9 86/22/9 85/23/9
f 85/23/9 88/24/9 87/21/9
f 89/45/11 90/46/11 91/47/10
f 91/47/10 92/48/11 89/45/11
f 93/49/1 94/50/1 92/51/1
f 92/51/1 91/52/1 93/49/1
f 94/53/13 95/54/13 89/55/13
f 89/55/13 92/56/13 94/53/13
f 95/57/9 96/58/9 90/59/9
f 90/59/9 89/60/9 95/57/9
f 96/61/16 93/62/16 91/63/16
f 91/63/16 90/64/16 96/61/16
f 97/45/7 98/46/7 99/47/7
f 99/47/7 100/48/7 97/45/7
f 101/49/1 102/50/1 100/51/1
f 100/51/1 99/52/1 101/49/1
f 102/53/5 103/54/4 97/55/4
f 97/55/4 100/56/5 102/53/5
f 103/57/9 104/58/9 98/59/9
f 98/59/9 97/60/9 103/57/9
f 104/61/2 101/62/2 99/63/3
f 99/63/3 98/64/2 104/61/2
f 105/65/6 106/66/17 107/67/17
f 107/67/17 108/68/6 105/65/6
f 109/69/16 105/65/6 108/68/6
f 108/68/6 110/70/16 109/69/16
f 111/71/2 109/69/16 110/70/16
f 110/70/16 112/72/2 111/71/2
f 113/73/10 111/71/2 112/72/2
f 112/72/2 114/74/18 113/73/10
f 115/75/8 113/73/10 114/74/18
f 114/74/18 116/76/7 115/75/8
f 117/77/13 115/75/8 116/76/7
f 116/76/7 118/78/13 117/77/13
f 119/79/5 117/77/13 118/78/13
f 118/78/13 120/80/5 119/79/5
f 106/81/17 119/79/5 120/80/5
f 120/80/5 107/82/17 106/81/17
f 121/65/6 122/66/17 123/67/17
f 123/67/17 124/68/6 121/65/6
f 125/69/14 121/65/6 124/68/6
f 124/68/6 126/70/16 125/69/14
f 127/71/2 125/69/14 126/70/16
f 126/70/16 128/72/2 127/71/2
f 129/73/12 127/71/2 128/72/2
f 128/72/2 130/74/12 129/73/12
f 131/75/7 129/73/12 130/74/12
f 130/74/12 132/76/7 131/75/7
f 133/77/13 131/75/7 132/76/7
f 132/76/7 134/78/13 133/77/13
f 135/79/5 133/77/13 134/78/13
f 134/78/13 136/80/5 135/79/5
f 122/81/17 135/79/5 136/80/5
f 136/80/5 123/82/17 122/81/17
f 111/83/9 113/84/9 137/85/9
f 109/86/9 111/83/9 137/85/9
f 113/84/9 115/87/9 137/85/9
f 105/88/9 109/86/9 137/85/9
f 115/87/9 117/89/9 137/85/9
f 106/90/9 105/88/9 137/85/9
f 117/89/9 119/91/9 137/85/9
f 119/91/9 106/90/9 137/85/9
f 114/92/1 112/93/1 138/94/1
f 116/95/1 114/92/1 138/94/1
f 112/93/1 110/96/1 138/94/1
f 118/97/1 116/95/1 138/94/1
f 110/96/1 108/98/1 138/94/1
f 120/99/1 118/97/1 138/94/1
f 108/98/1 107/100/1 138/94/1
f 107/100/1 120/99/1 138/94/1
f 127/83/9 129/84/9 139/85/9
f 125/86/9 127/83/9 139/85/9
f 129/84/9 131/87/9 139/85/9
f 121/88/9 125/86/9 139/85/9
f 131/87/9 133/89/9 139/85/9
f 122/90/9 121/88/9 139/85/9
f 133/89/9 135/91/9 139/85/9
f 135/91/9 122/90/9 139/85/9
f 130/92/1 128/93/1 140/94/1
f 132/95/1 130/92/1 140/94/1
f 128/93/1 126/96/1 140/94/1
f 134/97/1 132/95/1 140/94/1
f 126/96/1 124/98/1 140/94/1
f 136/99/1 134/97/1 140/94/1
f 124/98/1 123/100/1 140/94/1
f 123/100/1 136/99/1 140/94/1
