# Blender 3.6.18
# www.blender.org
mtllib Mesh.969.mtl
o Bistro_Research_Exterior_Paris_Building_01_paris_buildi_35564b1
v 12.293533 6.666198 6.946815
v 12.289766 6.648457 6.956339
v 12.280370 6.666198 6.941609
v 12.276602 6.648456 6.951133
v 12.282232 6.648457 6.975390
v 12.269068 6.648456 6.970184
v 12.278464 6.666198 6.984915
v 12.265301 6.666198 6.979709
v 12.282232 6.683939 6.975390
v 12.269068 6.683939 6.970183
v 12.289766 6.683939 6.956340
v 12.276602 6.683939 6.951133
v 12.606784 6.666198 7.070713
v 12.603016 6.683939 7.080238
v 12.619947 6.666197 7.075920
v 12.616180 6.683939 7.085446
v 12.595481 6.683939 7.099289
v 12.608646 6.683939 7.104496
v 12.591714 6.666198 7.108814
v 12.604879 6.666197 7.114020
v 12.595481 6.648456 7.099289
v 12.608646 6.648457 7.104496
v 12.603016 6.648456 7.080239
v 12.616180 6.648457 7.085444
v 12.586390 6.668421 7.122808
v 12.572107 6.668421 7.117158
v 12.587991 6.652188 7.118763
v 12.573707 6.652188 7.113115
v 12.592360 6.640306 7.107714
v 12.578076 6.640305 7.102064
v 12.598330 6.635956 7.092619
v 12.584047 6.635956 7.086969
v 12.673212 6.635956 6.903295
v 12.653313 6.635956 6.911845
v 12.510871 6.635956 6.855505
v 12.516487 6.635956 6.841306
v 12.653313 6.700884 6.911845
v 12.510871 6.700885 6.855505
v 12.653313 6.668421 6.911845
v 12.510871 6.668420 6.855505
v 12.516487 6.700885 6.841306
v 12.673212 6.700885 6.903295
v 12.516487 6.668420 6.841306
v 12.673212 6.668421 6.903294
v 12.272938 6.668420 6.998830
v 12.287221 6.668420 7.004478
v 12.288821 6.684653 7.000434
v 12.274538 6.684652 6.994785
v 12.293192 6.696536 6.989385
v 12.278908 6.696535 6.983735
v 12.299162 6.700885 6.974290
v 12.284879 6.700885 6.968640
v 12.368428 6.700885 6.799166
v 12.359760 6.700885 6.779317
v 12.359760 6.635956 6.779317
v 12.359760 6.668421 6.779317
v 12.573707 6.684652 7.113113
v 12.587991 6.684653 7.118763
v 12.578076 6.696535 7.102064
v 12.592360 6.696536 7.107714
v 12.584047 6.700884 7.086969
v 12.598330 6.700885 7.092619
v 12.274538 6.652188 6.994785
v 12.288821 6.652189 7.000434
v 12.278908 6.640305 6.983735
v 12.293192 6.640305 6.989385
v 12.284879 6.635955 6.968641
v 12.299162 6.635955 6.974289
v 12.368428 6.635955 6.799165
v 12.368428 6.668420 6.799165
v 12.598330 6.668421 7.092618
v 12.284879 6.668420 6.968640
v 12.584047 6.668421 7.086970
v 12.299162 6.668420 6.974290
vn 0.3152 -0.5019 -0.8054
vn -0.0039 -1.0000 -0.0039
vn -0.3242 -0.5038 0.8007
vn -0.3254 0.4980 0.8038
vn -0.3255 0.4980 0.8038
vn -0.0039 1.0000 -0.0039
vn 0.3164 0.4961 -0.8086
vn -0.3721 -0.0039 0.9282
vn -0.1847 -0.8686 0.4598
vn -0.0510 -0.9922 0.1137
vn 0.3626 -0.0039 -0.9319
vn -0.1860 0.8666 0.4630
vn -0.0514 0.9921 0.1146
vn -0.0514 0.9921 0.1147
vn -0.0510 -0.9922 0.1138
vn -0.9293 -0.0039 -0.3694
vn 0.9309 -0.0039 0.3653
vn 0.9309 -0.0040 0.3653
vt 0.256104 0.292480
vt 0.256104 0.318359
vt 0.238403 0.292480
vt 0.238403 0.318359
vt 0.333740 0.281738
vt 0.333740 0.307129
vt 0.316162 0.281738
vt 0.316162 0.307129
vt 0.259033 0.337402
vt 0.259033 0.363281
vt 0.241455 0.337402
vt 0.241455 0.363281
vt 0.284424 0.336914
vt 0.284424 0.311035
vt 0.302246 0.336914
vt 0.302246 0.311035
vt 0.296631 0.253906
vt 0.296631 0.228027
vt 0.314209 0.253906
vt 0.314209 0.228027
vt 0.332275 0.260254
vt 0.332275 0.234375
vt 0.350098 0.260254
vt 0.350098 0.234375
vt 0.995117 0.410645
vt 0.976074 0.410645
vt 0.995117 0.389648
vt 0.976074 0.389648
vt 0.995605 0.368652
vt 0.976074 0.368652
vt 0.995605 0.347656
vt 0.976074 0.347656
vt 0.995117 0.093262
vt 0.975586 0.112305
vt 0.784180 0.112305
vt 0.784180 0.093262
vt 0.987793 0.078125
vt 0.819824 0.078125
vt 0.987793 0.042969
vt 0.819824 0.042969
vt 0.987793 0.007324
vt 0.819824 0.007324
vt 0.503418 0.387207
vt 0.662598 0.387207
vt 0.503418 0.417969
vt 0.662598 0.417969
vt 0.503418 0.448730
vt 0.662598 0.448730
vt 0.820801 0.234375
vt 0.801270 0.234375
vt 0.801270 0.255371
vt 0.820801 0.255371
vt 0.801758 0.276367
vt 0.820801 0.276367
vt 0.801758 0.297363
vt 0.820801 0.297363
vt 0.801270 0.532715
vt 0.820312 0.551758
vt 0.609863 0.551758
vt 0.609863 0.532715
vt 0.252197 0.277344
vt 0.230103 0.264648
vt 0.230103 0.238770
vt 0.252197 0.226074
vt 0.274414 0.238770
vt 0.274414 0.264648
vt 0.832520 0.377441
vt 0.832520 0.123047
vt 0.872559 0.123047
vt 0.872559 0.377441
vt 0.837891 0.397949
vt 0.913574 0.123047
vt 0.852539 0.412598
vt 0.913574 0.377441
vt 0.872559 0.417969
vt 0.908203 0.397949
vt 0.893066 0.412598
vt 0.987305 0.894348
vt 0.758789 0.894348
vt 0.987305 0.855225
vt 0.758789 0.815796
vt 0.987305 0.815796
vt 0.758789 0.855225
vt 0.739258 0.889099
vt 0.739258 0.821045
vt 0.724609 0.874756
vt 0.724609 0.835327
vt 0.719238 0.855103
s 1
usemtl MASTER_Focus
f 1/1/1 2/2/1 3/3/1
f 2/2/1 4/4/1 3/3/1
f 2/5/2 5/6/2 4/7/2
f 5/6/2 6/8/2 4/7/2
f 5/9/3 7/10/3 6/11/3
f 7/10/3 8/12/3 6/11/3
f 7/13/4 9/14/4 8/15/4
f 9/14/5 10/16/5 8/15/5
f 9/17/6 11/18/6 10/19/6
f 11/18/6 12/20/6 10/19/6
f 11/21/7 1/22/7 12/23/7
f 1/22/7 3/24/7 12/23/7
f 13/1/7 14/2/7 15/3/7
f 14/2/7 16/4/7 15/3/7
f 14/5/6 17/6/6 16/7/6
f 17/6/6 18/8/6 16/7/6
f 17/9/5 19/10/5 18/11/5
f 19/10/4 20/12/4 18/11/4
f 19/13/3 21/14/3 20/15/3
f 21/14/3 22/16/3 20/15/3
f 21/17/2 23/18/2 22/19/2
f 23/18/2 24/20/2 22/19/2
f 23/21/1 13/22/1 24/23/1
f 13/22/1 15/24/1 24/23/1
f 25/25/8 26/26/8 27/27/3
f 26/26/8 28/28/3 27/27/3
f 27/27/3 28/28/3 29/29/9
f 28/28/3 30/30/9 29/29/9
f 29/29/9 30/30/9 31/31/10
f 30/30/9 32/32/10 31/31/10
f 31/31/10 32/32/10 33/33/2
f 32/32/10 34/34/2 33/33/2
f 34/34/2 35/35/2 33/33/2
f 35/35/2 36/36/2 33/33/2
f 37/37/8 38/38/8 39/39/8
f 38/38/8 40/40/8 39/39/8
f 34/41/8 39/39/8 40/40/8
f 35/42/8 34/41/8 40/40/8
f 41/43/11 42/44/11 43/45/11
f 42/44/11 44/46/11 43/45/11
f 43/45/11 44/46/11 36/47/11
f 44/46/11 33/48/11 36/47/11
f 45/49/8 46/50/8 47/51/4
f 48/52/4 45/49/8 47/51/4
f 48/52/4 47/51/4 49/53/12
f 50/54/12 48/52/4 49/53/12
f 50/54/12 49/53/12 51/55/13
f 52/56/13 50/54/12 51/55/13
f 52/56/13 51/55/13 53/57/6
f 54/58/6 52/56/13 53/57/6
f 41/59/6 54/58/6 53/57/6
f 38/60/6 41/59/6 53/57/6
f 36/47/11 55/48/11 56/46/11
f 43/45/11 36/47/11 56/46/11
f 43/45/11 56/46/11 54/44/11
f 41/43/11 43/45/11 54/44/11
f 57/51/5 26/50/8 25/49/8
f 58/52/4 57/51/5 25/49/8
f 59/53/12 57/51/5 58/52/4
f 60/54/12 59/53/12 58/52/4
f 61/55/14 59/53/12 60/54/12
f 62/56/14 61/55/14 60/54/12
f 37/57/6 61/55/14 62/56/14
f 42/58/6 37/57/6 62/56/14
f 37/57/6 42/58/6 41/59/6
f 38/60/6 37/57/6 41/59/6
f 45/25/8 63/27/3 46/26/8
f 63/27/3 64/28/3 46/26/8
f 63/27/3 65/29/9 64/28/3
f 65/29/9 66/30/9 64/28/3
f 65/29/9 67/31/10 66/30/9
f 67/31/10 68/32/15 66/30/9
f 67/31/10 55/33/2 68/32/15
f 55/33/2 69/34/2 68/32/15
f 69/34/2 55/33/2 35/35/2
f 55/33/2 36/36/2 35/35/2
f 53/37/8 70/39/8 38/38/8
f 70/39/8 40/40/8 38/38/8
f 40/40/8 70/39/8 69/41/8
f 35/42/8 40/40/8 69/41/8
f 8/61/16 10/62/16 12/63/16
f 3/64/16 8/61/16 12/63/16
f 3/64/16 4/65/16 8/61/16
f 4/65/16 6/66/16 8/61/16
f 20/61/17 22/62/17 24/63/17
f 15/64/17 20/61/17 24/63/17
f 15/64/17 16/65/17 20/61/17
f 16/65/17 18/66/17 20/61/17
f 31/67/17 33/68/17 44/69/17
f 71/70/17 31/67/17 44/69/17
f 29/71/17 31/67/17 71/70/17
f 71/70/17 44/69/17 42/72/17
f 27/73/17 29/71/17 71/70/17
f 62/74/17 71/70/17 42/72/17
f 25/75/17 27/73/17 71/70/17
f 71/70/17 62/74/17 60/76/17
f 25/75/17 71/70/17 58/77/17
f 71/70/17 60/76/17 58/77/17
f 56/69/16 55/68/16 67/67/16
f 72/70/16 56/69/16 67/67/16
f 54/72/16 56/69/16 72/70/16
f 65/71/16 72/70/16 67/67/16
f 52/74/16 54/72/16 72/70/16
f 63/73/16 72/70/16 65/71/16
f 72/70/16 50/76/16 52/74/16
f 45/75/16 72/70/16 63/73/16
f 72/70/16 48/77/16 50/76/16
f 45/75/16 48/77/16 72/70/16
f 34/78/16 32/79/16 39/80/16
f 61/81/16 37/82/16 39/80/16
f 32/79/16 73/83/16 39/80/16
f 73/83/16 61/81/16 39/80/16
f 73/83/16 32/79/16 30/84/16
f 59/85/16 61/81/16 73/83/16
f 73/83/16 30/84/16 28/86/16
f 59/85/16 73/83/16 57/87/16
f 73/83/16 28/86/16 26/88/16
f 73/83/16 26/88/16 57/87/16
f 69/78/17 70/80/17 68/79/17
f 70/80/17 53/82/17 51/81/17
f 70/80/17 74/83/18 68/79/17
f 74/83/18 70/80/17 51/81/17
f 74/83/18 66/84/17 68/79/17
f 49/85/17 74/83/18 51/81/17
f 74/83/18 64/86/17 66/84/17
f 49/85/17 47/87/17 74/83/18
f 74/83/18 46/88/17 64/86/17
f 74/83/18 47/87/17 46/88/17
