# Blender 3.6.18
# www.blender.org
mtllib Mesh.839.mtl
o Bistro_Research_Exterior_Paris_Building_01_paris_buildi_5d897a3
v -2.510028 4.126962 -5.185787
v -2.501527 4.121709 -5.181211
v -2.507537 4.126962 -5.170047
v -2.514277 4.130675 -5.177893
v -2.513549 4.139641 -5.187683
v -2.510026 4.139641 -5.165422
v -2.516038 4.139641 -5.174623
v -2.507537 4.152320 -5.170046
v -2.514277 4.148607 -5.177893
v -2.501527 4.157572 -5.181211
v -2.510028 4.152321 -5.185787
v -2.495517 4.152320 -5.192376
v -2.505778 4.148607 -5.193682
v -2.493028 4.139641 -5.197000
v -2.504018 4.139641 -5.196952
v -2.495517 4.126962 -5.192376
v -2.505778 4.130675 -5.193682
v -2.760387 4.126961 -4.700339
v -2.766397 4.121709 -4.689175
v -2.774897 4.126961 -4.693751
v -2.770647 4.130675 -4.701645
v -2.778418 4.139640 -4.695646
v -2.757897 4.139640 -4.704964
v -2.768887 4.139641 -4.704915
v -2.760387 4.152320 -4.700339
v -2.770647 4.148607 -4.701645
v -2.766397 4.157572 -4.689174
v -2.774897 4.152320 -4.693751
v -2.772407 4.152320 -4.678010
v -2.779147 4.148607 -4.685856
v -2.774896 4.139640 -4.673385
v -2.780907 4.139641 -4.682586
v -2.772407 4.126961 -4.678010
v -2.779147 4.130675 -4.685856
v -2.507537 1.892734 -5.170049
v -2.501527 1.897986 -5.181213
v -2.510027 1.892734 -5.185789
v -2.514277 1.889020 -5.177895
v -2.513548 1.880054 -5.187685
v -2.510026 1.880054 -5.165424
v -2.516037 1.880054 -5.174625
v -2.507537 1.867375 -5.170049
v -2.514277 1.871089 -5.177895
v -2.501527 1.862123 -5.181213
v -2.510027 1.867375 -5.185789
v -2.495517 1.867375 -5.192378
v -2.505777 1.871089 -5.193684
v -2.493027 1.880054 -5.197003
v -2.504017 1.880055 -5.196954
v -2.495517 1.892734 -5.192378
v -2.505778 1.889021 -5.193684
v -2.774897 1.892734 -4.693752
v -2.766396 1.897986 -4.689177
v -2.760386 1.892734 -4.700341
v -2.770647 1.889020 -4.701648
v -2.778418 1.880054 -4.695648
v -2.757897 1.880054 -4.704966
v -2.768887 1.880054 -4.704917
v -2.760386 1.867374 -4.700341
v -2.770647 1.871088 -4.701648
v -2.766396 1.862122 -4.689177
v -2.774897 1.867374 -4.693753
v -2.772406 1.867374 -4.678012
v -2.779147 1.871088 -4.685858
v -2.774896 1.880054 -4.673388
v -2.780907 1.880054 -4.682588
v -2.772406 1.892734 -4.678012
v -2.779147 1.889020 -4.685858
vn -0.6434 -0.6824 -0.3470
vn -0.4243 -0.8759 -0.2297
vn -0.7160 -0.6221 0.3169
vn -0.8699 -0.4876 0.0741
vn -0.8807 -0.0039 -0.4736
vn -0.8398 -0.0039 0.5429
vn -0.9671 -0.0039 0.2545
vn -0.7194 0.6172 0.3185
vn -0.8732 0.4816 0.0744
vn -0.4272 0.8741 -0.2312
vn -0.6468 0.6782 -0.3489
vn -0.1291 0.6142 -0.7785
vn -0.4185 0.4810 -0.7704
vn -0.0117 -0.0039 -0.9999
vn -0.3162 -0.0039 -0.9487
vn -0.1285 -0.6191 -0.7748
vn -0.4168 -0.4870 -0.7675
vn -0.4169 -0.4870 -0.7675
vn -0.0118 -0.0039 -0.9999
vn -0.4184 0.4810 -0.7704
vn -0.7194 0.6173 0.3185
vn -0.7195 0.6172 0.3184
vn -0.1285 -0.6190 -0.7748
vn -0.8807 -0.0040 -0.4736
vt 0.000000 0.750000
vt 0.000000 0.375000
vt 0.125000 0.375000
vt 0.125000 0.750000
vt 0.000000 1.000000
vt 0.250000 0.375000
vt 0.250000 0.750000
vt 0.125000 1.000000
vt 0.375000 0.375000
vt 0.375000 0.750000
vt 0.250000 1.000000
vt 0.500000 0.375000
vt 0.500000 0.750000
vt 0.375000 1.000000
vt 0.625000 0.375000
vt 0.625000 0.750000
vt 0.500000 1.000000
vt 0.750000 0.375000
vt 0.750000 0.750000
vt 0.625000 1.000000
vt 0.874512 0.375000
vt 0.874512 0.750000
vt 0.750000 1.000000
vt 0.999512 0.375000
vt 0.999512 0.750000
vt 0.874512 1.000000
s 1
usemtl MASTER_Metal
f 1/1/1 2/2/2 3/3/3
f 3/3/3 4/4/4 1/1/1
f 5/5/5 1/1/1 4/4/4
f 4/4/4 3/3/3 6/6/6
f 6/6/6 7/7/7 4/4/4
f 5/8/5 4/4/4 7/7/7
f 7/7/7 6/6/6 8/9/8
f 8/9/8 9/10/9 7/7/7
f 5/11/5 7/7/7 9/10/9
f 9/10/9 8/9/8 10/12/10
f 10/12/10 11/13/11 9/10/9
f 5/14/5 9/10/9 11/13/11
f 11/13/11 10/12/10 12/15/12
f 12/15/12 13/16/13 11/13/11
f 5/17/5 11/13/11 13/16/13
f 13/16/13 12/15/12 14/18/14
f 14/18/14 15/19/15 13/16/13
f 5/20/5 13/16/13 15/19/15
f 15/19/15 14/18/14 16/21/16
f 16/21/16 17/22/17 15/19/15
f 5/23/5 15/19/15 17/22/17
f 17/22/17 16/21/16 2/24/2
f 2/24/2 1/25/1 17/22/17
f 5/26/5 17/22/17 1/25/1
f 18/3/16 19/2/2 20/1/1
f 20/1/1 21/4/18 18/3/16
f 22/5/5 21/4/18 20/1/1
f 23/6/19 18/3/16 21/4/18
f 21/4/18 24/7/15 23/6/19
f 22/8/5 24/7/15 21/4/18
f 25/9/12 23/6/19 24/7/15
f 24/7/15 26/10/20 25/9/12
f 22/11/5 26/10/20 24/7/15
f 27/12/10 25/9/12 26/10/20
f 26/10/20 28/13/11 27/12/10
f 22/14/5 28/13/11 26/10/20
f 29/15/21 27/12/10 28/13/11
f 28/13/11 30/16/9 29/15/21
f 22/17/5 30/16/9 28/13/11
f 31/18/6 29/15/21 30/16/9
f 30/16/9 32/19/7 31/18/6
f 22/20/5 32/19/7 30/16/9
f 33/21/3 31/18/6 32/19/7
f 32/19/7 34/22/4 33/21/3
f 22/23/5 34/22/4 32/19/7
f 19/24/2 33/21/3 34/22/4
f 34/22/4 20/25/1 19/24/2
f 22/26/5 20/25/1 34/22/4
f 35/3/22 36/2/10 37/1/11
f 37/1/11 38/4/9 35/3/22
f 39/5/5 38/4/9 37/1/11
f 40/6/6 35/3/22 38/4/9
f 38/4/9 41/7/7 40/6/6
f 39/8/5 41/7/7 38/4/9
f 42/9/3 40/6/6 41/7/7
f 41/7/7 43/10/4 42/9/3
f 39/11/5 43/10/4 41/7/7
f 44/12/2 42/9/3 43/10/4
f 43/10/4 45/13/1 44/12/2
f 39/14/5 45/13/1 43/10/4
f 46/15/23 44/12/2 45/13/1
f 45/13/1 47/16/17 46/15/23
f 39/17/5 47/16/17 45/13/1
f 48/18/19 46/15/23 47/16/17
f 47/16/17 49/19/15 48/18/19
f 39/20/5 49/19/15 47/16/17
f 50/21/12 48/18/19 49/19/15
f 49/19/15 51/22/20 50/21/12
f 39/23/5 51/22/20 49/19/15
f 36/24/10 50/21/12 51/22/20
f 51/22/20 37/25/11 36/24/10
f 39/26/5 37/25/11 51/22/20
f 52/1/11 53/2/10 54/3/12
f 54/3/12 55/4/20 52/1/11
f 56/5/24 52/1/11 55/4/20
f 55/4/20 54/3/12 57/6/19
f 57/6/19 58/7/15 55/4/20
f 56/8/24 55/4/20 58/7/15
f 58/7/15 57/6/19 59/9/23
f 59/9/23 60/10/18 58/7/15
f 56/11/24 58/7/15 60/10/18
f 60/10/18 59/9/23 61/12/2
f 61/12/2 62/13/1 60/10/18
f 56/14/24 60/10/18 62/13/1
f 62/13/1 61/12/2 63/15/3
f 63/15/3 64/16/4 62/13/1
f 56/17/24 62/13/1 64/16/4
f 64/16/4 63/15/3 65/18/6
f 65/18/6 66/19/7 64/16/4
f 56/20/24 64/16/4 66/19/7
f 66/19/7 65/18/6 67/21/21
f 67/21/21 68/22/9 66/19/7
f 56/23/24 66/19/7 68/22/9
f 68/22/9 67/21/21 53/24/10
f 53/24/10 52/25/11 68/22/9
f 56/26/24 68/22/9 52/25/11
