# Blender 3.6.18
# www.blender.org
mtllib Mesh.974.mtl
o Bistro_Research_Exterior_Paris_Building_01_paris_buildi_c070f6f
v 2.299098 17.787018 -3.532954
v 2.299647 18.625807 -3.533609
v 2.291294 17.787018 -3.552735
v 2.292143 18.625807 -3.552631
v 2.327583 17.787018 -3.543200
v 2.327246 18.626228 -3.544058
v 2.319442 18.626228 -3.563839
v 2.319103 17.787018 -3.564697
v 2.844316 17.787018 -2.150862
v 2.844865 18.625807 -2.151517
v 2.836513 17.787018 -2.170643
v 2.837361 18.625807 -2.170539
v 2.872802 17.787018 -2.161108
v 2.872464 18.626228 -2.161966
v 2.864660 18.626228 -2.181747
v 2.864322 17.787018 -2.182604
v 2.281651 18.483829 -3.693404
v 2.929160 18.483829 -2.052011
v 2.231736 18.484205 -3.673714
v 2.879246 18.484205 -2.032320
v 2.929160 18.509094 -2.052011
v 2.281651 18.509094 -3.693404
v 2.879246 18.508720 -2.032320
v 2.231737 18.508720 -3.673714
v 2.281651 17.766918 -3.693404
v 2.929160 17.766918 -2.052011
v 2.231736 17.767296 -3.673714
v 2.879246 17.767296 -2.032320
v 2.929160 17.792185 -2.052011
v 2.281651 17.792185 -3.693404
v 2.879246 17.791809 -2.032320
v 2.231736 17.791809 -3.673714
v 2.874882 18.487654 -2.030599
v 2.227372 18.487654 -3.671992
v 2.227372 18.505272 -3.671992
v 2.874882 18.505272 -2.030599
v 2.874882 17.770742 -2.030599
v 2.227372 17.770742 -3.671992
v 2.227372 17.788363 -3.671992
v 2.874882 17.788363 -2.030599
v 2.306157 18.623491 -3.720810
v 2.967997 18.623491 -2.043091
v 2.223226 18.623491 -3.688095
v 2.885066 18.623491 -2.010376
v 2.294199 18.683430 -3.716093
v 2.264692 18.693159 -3.704453
v 2.956039 18.683430 -2.038374
v 2.926531 18.693159 -2.026733
v 2.235184 18.683430 -3.692812
v 2.897024 18.683430 -2.015093
v 2.307951 18.655643 -3.721518
v 2.969791 18.655643 -2.043799
v 2.305263 18.665106 -3.720458
v 2.967102 18.665106 -2.042738
v 2.224121 18.665106 -3.688448
v 2.885961 18.665106 -2.010729
v 2.221432 18.655645 -3.687387
v 2.883272 18.655643 -2.009668
vn -0.9319 -0.0039 0.3626
vn 0.3420 -0.0039 0.9397
vn 0.3421 -0.0039 0.9397
vn -0.0197 0.9998 0.0040
vn -0.3854 -0.0039 -0.9227
vn -0.0198 0.9998 0.0039
vn -0.3855 -0.0039 -0.9227
vn -0.0118 -0.9999 -0.0039
vn -0.2533 -0.9625 0.0974
vn -0.0119 0.9999 -0.0040
vn -0.2552 0.9619 0.0981
vn -0.0118 0.9999 -0.0039
vn -0.2552 0.9619 0.0982
vn -0.7982 -0.5179 0.3076
vn -0.8015 0.5121 0.3089
vn -0.8014 0.5122 0.3088
vn -0.8014 0.5121 0.3089
vn -0.0039 -1.0000 -0.0039
vn 0.5067 0.8366 -0.2082
vn -0.0039 1.0000 -0.0039
vn -0.5133 0.8346 0.1998
vn 0.9250 -0.0669 -0.3739
vn 0.9238 0.1140 -0.3656
vn 0.9250 -0.0669 -0.3740
vn 0.8388 0.4293 -0.3348
vn -0.8433 0.4275 0.3256
vn -0.8433 0.4276 0.3256
vn -0.9275 0.1135 0.3562
vn -0.9275 0.1135 0.3561
vn -0.9288 -0.0666 0.3645
vn -0.9288 -0.0667 0.3645
vt 0.901367 0.146973
vt 0.384277 0.146484
vt 0.901367 0.133301
vt 0.384277 0.133789
vt 1.141602 0.509033
vt 0.440430 0.509033
vt 1.141602 0.495117
vt 0.440674 0.495605
vt 0.515137 0.660889
vt 0.497070 0.660889
vt 0.514648 0.647217
vt 0.497314 0.647217
vt 0.501465 0.532959
vt -0.199463 0.532959
vt 0.500977 0.519043
vt -0.199463 0.518799
vt 1.048828 0.418457
vt 0.532227 0.418457
vt 1.048828 0.404785
vt 0.532227 0.405273
vt 1.127930 0.455078
vt 0.426758 0.455078
vt 1.127930 0.440918
vt 0.427246 0.441406
vt 0.147583 0.915405
vt 0.129517 0.915405
vt 0.147217 0.901855
vt 0.129883 0.901855
vt 1.127930 0.481934
vt 0.427002 0.481934
vt 1.126953 0.468262
vt 0.427002 0.467773
vt 1.308594 0.368652
vt -0.186890 0.368652
vt 1.308594 0.344238
vt -0.186890 0.344238
vt 1.062500 0.489746
vt -0.432861 0.489746
vt 1.062500 0.464844
vt -0.432861 0.464844
vt 1.308594 0.287109
vt -0.186768 0.287109
vt 1.308594 0.262695
vt -0.186768 0.262695
vt 1.062500 0.462402
vt -0.432861 0.462402
vt 1.062500 0.437988
vt -0.432861 0.437988
vt -0.294189 -0.017578
vt 0.923828 0.076660
vt 0.923828 0.079102
vt -0.294434 -0.014648
vt -0.295166 -0.002930
vt 0.922852 0.090820
vt 0.922363 0.093262
vt -0.295410 -0.000977
vt 0.925293 0.083008
vt -0.295410 0.129395
vt -0.295410 0.127441
vt 0.925293 0.081055
vt 0.924805 0.068848
vt -0.295898 0.115234
vt -0.295898 0.113281
vt 0.924805 0.066895
vt 1.331055 0.346680
vt -0.196655 0.346680
vt 1.331055 0.305664
vt -0.196655 0.305664
vt -0.164307 0.390137
vt -0.164307 0.374023
vt 1.298828 0.390137
vt 1.298828 0.374023
vt -0.410156 0.510498
vt -0.410156 0.494629
vt 1.052734 0.510498
vt 1.052734 0.494629
vt -0.022766 0.257324
vt -0.022766 0.236816
vt 1.157227 0.257324
vt 1.157227 0.236816
vt -0.022766 0.230957
vt 1.157227 0.230957
vt 1.157227 0.219238
vt -0.022766 0.219238
vt 0.913086 0.399902
vt 0.913086 0.411621
vt -0.270020 0.399902
vt -0.270020 0.411621
vt 0.913086 0.417480
vt -0.270020 0.417480
vt -0.270020 0.437988
vt 0.913086 0.437988
s 1
usemtl MASTER_Grain_Metal
f 1/1/1 2/2/1 3/3/1
f 2/2/1 4/4/1 3/3/1
f 5/5/2 6/6/2 1/7/2
f 6/6/3 2/8/3 1/7/3
f 6/9/4 7/10/4 2/11/4
f 7/10/4 4/12/4 2/11/4
f 7/13/5 8/14/5 4/15/5
f 8/14/5 3/16/5 4/15/5
f 9/17/1 10/18/1 11/19/1
f 10/18/1 12/20/1 11/19/1
f 13/21/2 14/22/2 9/23/2
f 14/22/3 10/24/3 9/23/3
f 14/25/6 15/26/6 10/27/6
f 15/26/4 12/28/4 10/27/4
f 15/29/5 16/30/7 12/31/5
f 16/30/7 11/32/5 12/31/5
f 17/33/8 18/34/8 19/35/9
f 18/34/8 20/36/9 19/35/9
f 21/37/10 22/38/10 23/39/11
f 22/38/10 24/40/11 23/39/11
f 25/41/8 26/42/8 27/43/9
f 26/42/8 28/44/9 27/43/9
f 29/45/12 30/46/10 31/47/13
f 30/46/10 32/48/11 31/47/13
f 19/49/9 20/50/9 33/51/14
f 34/52/14 19/49/9 33/51/14
f 34/52/14 33/51/14 35/53/15
f 33/51/14 36/54/16 35/53/15
f 36/54/16 23/55/11 35/53/15
f 23/55/11 24/56/11 35/53/15
f 27/57/9 28/58/9 37/59/14
f 38/60/14 27/57/9 37/59/14
f 38/60/14 37/59/14 39/61/16
f 37/59/14 40/62/17 39/61/16
f 40/62/17 31/63/13 39/61/16
f 31/63/13 32/64/11 39/61/16
usemtl MASTER_Wood_Polished
f 41/65/18 42/66/18 43/67/18
f 42/66/18 44/68/18 43/67/18
f 45/69/19 46/70/20 47/71/19
f 46/70/20 48/72/20 47/71/19
f 46/73/20 49/74/21 48/75/20
f 49/74/21 50/76/21 48/75/20
f 41/77/22 51/78/23 42/79/22
f 51/78/23 52/80/23 42/79/24
f 51/78/23 53/81/25 52/80/23
f 53/81/25 54/82/25 52/80/23
f 54/82/25 53/81/25 47/83/19
f 53/81/25 45/84/19 47/83/19
f 49/85/21 55/86/26 50/87/21
f 55/86/26 56/88/27 50/87/21
f 56/88/27 55/86/26 57/89/28
f 58/90/29 56/88/27 57/89/28
f 44/91/30 58/90/29 57/89/28
f 43/92/31 44/91/30 57/89/28
