# Blender 3.6.18
# www.blender.org
mtllib Mesh.680.mtl
o Bistro_Research_Exterior_paris_building_05_14__5179
v 50.782967 16.990105 21.872799
v 51.061783 16.990105 22.297409
v 51.111851 16.990105 22.264532
v 50.833042 16.990105 21.839920
v 51.111851 16.893986 22.264532
v 50.833042 16.893986 21.839920
v 50.782967 16.893986 21.872799
v 51.061783 16.893986 22.297409
v 50.833115 14.290564 21.845694
v 50.787846 14.290565 21.875425
v 50.787846 16.898325 21.875425
v 50.833115 16.898325 21.845694
v 50.875870 16.898325 21.910807
v 50.875870 14.290564 21.910807
v 50.830593 14.290565 21.940531
v 50.830593 16.898325 21.940531
v 50.854694 16.891827 21.914440
v 51.048012 16.891827 22.208838
v 51.048012 14.293643 22.208838
v 50.854694 14.293643 21.914440
v 51.059155 14.290564 22.288612
v 51.104424 14.290565 22.258886
v 51.104424 16.898325 22.258886
v 51.059155 16.898325 22.288612
v 51.016399 16.898325 22.223505
v 51.016399 14.290564 22.223507
v 51.061680 14.290565 22.193781
v 51.061680 16.898325 22.193781
v 50.782967 14.290148 21.872799
v 51.061783 14.290148 22.297409
v 51.111851 14.290148 22.264532
v 50.833042 14.290148 21.839920
v 51.111851 14.194028 22.264532
v 50.833042 14.194028 21.839920
v 50.782967 14.194028 21.872799
v 51.061783 14.194028 22.297409
v 51.068420 14.460615 22.286018
v 51.101128 14.460616 22.264540
v 51.101128 14.589513 22.264540
v 51.068417 14.589513 22.286018
v 51.099003 14.589513 22.261303
v 51.066296 14.589513 22.282784
v 51.066296 14.460615 22.282784
v 51.099003 14.460616 22.261303
v 51.052864 14.460615 22.345036
v 51.060814 14.460615 22.306715
v 51.060814 14.589513 22.306715
v 51.052864 14.589513 22.345034
v 51.057022 14.589513 22.305931
v 51.049080 14.589513 22.344248
v 51.049084 14.460615 22.344248
v 51.057022 14.460615 22.305931
v 50.558834 16.990105 22.254690
v 51.056232 16.990105 22.357786
v 51.068386 16.990105 22.299133
v 50.570992 16.990105 22.196037
v 51.068386 16.893986 22.299133
v 50.570992 16.893986 22.196037
v 50.558834 16.893986 22.254690
v 51.056232 16.893986 22.357786
v 50.575134 14.290564 22.200068
v 50.564137 14.290565 22.253101
v 50.564137 16.898325 22.253101
v 50.575134 16.898325 22.200068
v 50.651402 16.898325 22.215874
v 50.651402 14.290564 22.215874
v 50.640400 14.290565 22.268908
v 50.640400 16.898325 22.268908
v 50.980083 16.891827 22.323141
v 50.635220 16.891827 22.251663
v 50.635216 14.293643 22.251663
v 50.980083 14.293643 22.323141
v 51.048149 14.290564 22.353420
v 51.059147 14.290565 22.300390
v 51.059147 16.898325 22.300390
v 51.048149 16.898325 22.353420
v 50.971882 16.898325 22.337614
v 50.971882 14.290564 22.337614
v 50.982880 14.290565 22.284580
v 50.982880 16.898325 22.284580
v 50.558834 14.290148 22.254690
v 51.056232 14.290148 22.357786
v 51.068386 14.290148 22.299133
v 50.570992 14.290148 22.196037
v 51.068386 14.194028 22.299133
v 50.570992 14.194028 22.196037
v 50.558834 14.194028 22.254690
v 51.056232 14.194028 22.357786
v 51.052864 16.661913 22.345036
v 51.060814 16.661913 22.306715
v 51.060814 16.790810 22.306715
v 51.052864 16.790810 22.345034
v 51.057022 16.790810 22.305931
v 51.049080 16.790810 22.344248
v 51.049084 16.661913 22.344248
v 51.057022 16.661913 22.305931
v 51.068420 16.661913 22.286018
v 51.101128 16.661913 22.264540
v 51.101128 16.790810 22.264540
v 51.068417 16.790810 22.286018
v 51.099003 16.790810 22.261303
v 51.066296 16.790810 22.282784
v 51.066296 16.661913 22.282784
v 51.099003 16.661913 22.261303
v 51.056839 14.460973 22.285095
v 51.051449 14.460973 22.293022
v 51.051449 14.589176 22.293022
v 51.056839 14.589176 22.285095
v 51.066254 14.460973 22.283300
v 51.066254 14.589176 22.283300
v 51.074181 14.460973 22.288689
v 51.074181 14.589176 22.288689
v 51.075974 14.460973 22.298107
v 51.075974 14.589176 22.298107
v 51.070587 14.460973 22.306034
v 51.070587 14.589176 22.306034
v 51.061169 14.460973 22.307829
v 51.061169 14.589176 22.307829
v 51.053242 14.460973 22.302439
v 51.053242 14.589176 22.302439
v 51.056839 16.662271 22.285095
v 51.051449 16.662271 22.293022
v 51.051449 16.790476 22.293022
v 51.056839 16.790476 22.285095
v 51.066254 16.662271 22.283300
v 51.066254 16.790476 22.283300
v 51.074181 16.662271 22.288689
v 51.074181 16.790476 22.288689
v 51.075974 16.662271 22.298107
v 51.075974 16.790476 22.298107
v 51.070587 16.662271 22.306034
v 51.070587 16.790476 22.306034
v 51.061169 16.662271 22.307829
v 51.061169 16.790476 22.307829
v 51.053242 16.662271 22.302439
v 51.053242 16.790476 22.302439
v 51.063713 14.460973 22.295563
v 51.063713 14.589176 22.295563
v 51.063713 16.662271 22.295563
v 51.063713 16.790476 22.295563
vn -0.0039 1.0000 -0.0039
vn 0.8338 -0.0039 -0.5520
vn -0.8398 -0.0039 0.5429
vn -0.5484 -0.0039 -0.8362
vn -0.5484 -0.0038 -0.8362
vn 0.5465 -0.0039 0.8374
vn -0.0039 -1.0000 -0.0039
vn 0.5465 -0.0039 0.8375
vn 0.8339 -0.0039 -0.5520
vn 0.9797 -0.0039 0.2006
vn 0.9797 -0.0039 0.2007
vn 0.9797 -0.0040 0.2006
vn -0.2082 -0.0039 0.9781
vn 0.1991 -0.0039 -0.9800
vn -0.9784 -0.0039 -0.2066
vt 0.327881 0.353027
vt 0.327881 0.432129
vt 0.318604 0.432129
vt 0.318604 0.353027
vt 0.315430 0.432129
vt 0.300537 0.432129
vt 0.300537 0.352539
vt 0.315430 0.352539
vt 0.270020 0.352051
vt 0.284912 0.352051
vt 0.284912 0.431641
vt 0.270020 0.431641
vt 0.269775 0.345215
vt 0.269775 0.335938
vt 0.284912 0.335938
vt 0.284912 0.345215
vt 0.288086 0.345215
vt 0.288086 0.335938
vt 0.303223 0.335938
vt 0.303223 0.345215
vt 0.287842 0.352539
vt 0.297363 0.352539
vt 0.297363 0.432129
vt 0.287842 0.432129
vt 0.858398 0.978256
vt 0.848633 0.978256
vt 0.848633 0.570801
vt 0.858398 0.570801
vt 0.812012 0.571289
vt 0.812012 0.978668
vt 0.799805 0.978668
vt 0.799805 0.571289
vt 0.845215 0.572021
vt 0.845215 0.979340
vt 0.833008 0.979340
vt 0.833008 0.572021
vt 0.827637 0.980072
vt 0.817871 0.980072
vt 0.817871 0.572754
vt 0.827637 0.572754
vt 0.377197 0.011230
vt 0.432373 0.011230
vt 0.432373 0.416992
vt 0.377197 0.416992
vt 0.360107 0.465332
vt 0.354004 0.465332
vt 0.354004 0.445312
vt 0.360107 0.445312
vt 0.354004 0.442871
vt 0.360107 0.442871
vt 0.360107 0.443359
vt 0.354004 0.443359
vt 0.362061 0.445312
vt 0.362061 0.465332
vt 0.361328 0.465332
vt 0.361328 0.445312
vt 0.360107 0.467285
vt 0.354004 0.467285
vt 0.354004 0.466797
vt 0.360107 0.466797
vt 0.352051 0.465332
vt 0.352051 0.445312
vt 0.352783 0.445312
vt 0.352783 0.465332
vt 0.327637 0.464355
vt 0.326172 0.464355
vt 0.326172 0.443848
vt 0.327637 0.443848
vt 0.329102 0.464355
vt 0.329102 0.443848
vt 0.330566 0.464355
vt 0.330566 0.443848
vt 0.332031 0.464355
vt 0.332031 0.443848
vt 0.333496 0.464355
vt 0.333496 0.443848
vt 0.334473 0.464355
vt 0.334473 0.443848
vt 0.335938 0.464355
vt 0.335938 0.443848
vt 0.337402 0.464355
vt 0.337402 0.443848
vt 0.326172 0.466797
vt 0.327393 0.465820
vt 0.328125 0.467773
vt 0.326172 0.468262
vt 0.328857 0.465820
vt 0.327148 0.469238
vt 0.329834 0.466797
vt 0.328857 0.469238
vt 0.329834 0.468262
vt 0.333252 0.465820
vt 0.334717 0.465820
vt 0.333984 0.467773
vt 0.332275 0.466797
vt 0.335938 0.466797
vt 0.332275 0.468262
vt 0.335938 0.468750
vt 0.333252 0.469727
vt 0.334717 0.469727
s 1
usemtl MASTER_Building_Details
f 1/1/1 2/2/1 3/3/1
f 3/3/1 4/4/1 1/1/1
f 3/5/2 5/6/2 6/7/2
f 6/7/2 4/8/2 3/5/2
f 1/9/3 7/10/3 8/11/3
f 8/11/3 2/12/3 1/9/3
f 1/13/4 4/14/4 6/15/4
f 6/15/4 7/16/5 1/13/4
f 3/17/6 2/18/6 8/19/6
f 8/19/6 5/20/6 3/17/6
f 7/21/7 6/22/7 5/23/7
f 5/23/7 8/24/7 7/21/7
f 9/25/4 10/26/4 11/27/4
f 11/27/4 12/28/4 9/25/4
f 9/29/2 12/30/2 13/31/2
f 13/31/2 14/32/2 9/29/2
f 11/33/3 10/34/3 15/35/3
f 15/35/3 16/36/3 11/33/3
f 15/37/8 14/38/8 13/39/6
f 13/39/6 16/40/6 15/37/8
f 17/41/2 18/42/2 19/43/9
f 19/43/9 20/44/9 17/41/2
f 21/25/6 22/26/6 23/27/8
f 23/27/8 24/28/8 21/25/6
f 21/29/3 24/30/3 25/31/3
f 25/31/3 26/32/3 21/29/3
f 23/33/9 22/34/9 27/35/9
f 27/35/9 28/36/9 23/33/9
f 27/37/4 26/38/4 25/39/4
f 25/39/4 28/40/4 27/37/4
f 29/1/1 30/2/1 31/3/1
f 31/3/1 32/4/1 29/1/1
f 31/5/2 33/6/2 34/7/9
f 34/7/9 32/8/2 31/5/2
f 29/9/3 35/10/3 36/11/3
f 36/11/3 30/12/3 29/9/3
f 29/13/5 32/14/4 34/15/5
f 34/15/5 35/16/4 29/13/5
f 31/17/6 30/18/6 36/19/6
f 36/19/6 33/20/8 31/17/6
f 35/21/7 34/22/7 33/23/7
f 33/23/7 36/24/7 35/21/7
f 37/45/6 38/46/6 39/47/8
f 39/47/8 40/48/6 37/45/6
f 41/49/1 42/50/1 40/51/1
f 40/51/1 39/52/1 41/49/1
f 42/53/3 43/54/3 37/55/3
f 37/55/3 40/56/3 42/53/3
f 43/57/7 44/58/7 38/59/7
f 38/59/7 37/60/7 43/57/7
f 44/61/2 41/62/9 39/63/2
f 39/63/2 38/64/9 44/61/2
f 45/45/10 46/46/11 47/47/12
f 47/47/12 48/48/11 45/45/10
f 49/49/1 50/50/1 48/51/1
f 48/51/1 47/52/1 49/49/1
f 50/53/13 51/54/13 45/55/13
f 45/55/13 48/56/13 50/53/13
f 51/57/7 52/58/7 46/59/7
f 46/59/7 45/60/7 51/57/7
f 52/61/14 49/62/14 47/63/14
f 47/63/14 46/64/14 52/61/14
f 53/1/1 54/2/1 55/3/1
f 55/3/1 56/4/1 53/1/1
f 55/5/14 57/6/14 58/7/14
f 58/7/14 56/8/14 55/5/14
f 53/9/13 59/10/13 60/11/13
f 60/11/13 54/12/13 53/9/13
f 53/13/15 56/14/15 58/15/15
f 58/15/15 59/16/15 53/13/15
f 55/17/11 54/18/10 60/19/10
f 60/19/10 57/20/10 55/17/11
f 59/21/7 58/22/7 57/23/7
f 57/23/7 60/24/7 59/21/7
f 61/25/15 62/26/15 63/27/15
f 63/27/15 64/28/15 61/25/15
f 61/29/14 64/30/14 65/31/14
f 65/31/14 66/32/14 61/29/14
f 63/33/13 62/34/13 67/35/13
f 67/35/13 68/36/13 63/33/13
f 67/37/11 66/38/11 65/39/11
f 65/39/11 68/40/11 67/37/11
f 69/41/13 70/42/13 71/43/13
f 71/43/13 72/44/13 69/41/13
f 73/25/11 74/26/11 75/27/11
f 75/27/11 76/28/11 73/25/11
f 73/29/13 76/30/13 77/31/13
f 77/31/13 78/32/13 73/29/13
f 75/33/14 74/34/14 79/35/14
f 79/35/14 80/36/14 75/33/14
f 79/37/15 78/38/15 77/39/15
f 77/39/15 80/40/15 79/37/15
f 81/1/1 82/2/1 83/3/1
f 83/3/1 84/4/1 81/1/1
f 83/5/14 85/6/14 86/7/14
f 86/7/14 84/8/14 83/5/14
f 81/9/13 87/10/13 88/11/13
f 88/11/13 82/12/13 81/9/13
f 81/13/15 84/14/15 86/15/15
f 86/15/15 87/16/15 81/13/15
f 83/17/11 82/18/11 88/19/11
f 88/19/11 85/20/11 83/17/11
f 87/21/7 86/22/7 85/23/7
f 85/23/7 88/24/7 87/21/7
f 89/45/10 90/46/11 91/47/11
f 91/47/11 92/48/11 89/45/10
f 93/49/1 94/50/1 92/51/1
f 92/51/1 91/52/1 93/49/1
f 94/53/13 95/54/13 89/55/13
f 89/55/13 92/56/13 94/53/13
f 95/57/7 96/58/7 90/59/7
f 90/59/7 89/60/7 95/57/7
f 96/61/14 93/62/14 91/63/14
f 91/63/14 90/64/14 96/61/14
f 97/45/6 98/46/6 99/47/8
f 99/47/8 100/48/6 97/45/6
f 101/49/1 102/50/1 100/51/1
f 100/51/1 99/52/1 101/49/1
f 102/53/3 103/54/3 97/55/3
f 97/55/3 100/56/3 102/53/3
f 103/57/7 104/58/7 98/59/7
f 98/59/7 97/60/7 103/57/7
f 104/61/2 101/62/2 99/63/2
f 99/63/2 98/64/9 104/61/2
f 105/65/4 106/66/15 107/67/15
f 107/67/15 108/68/4 105/65/4
f 109/69/14 105/65/4 108/68/4
f 108/68/4 110/70/14 109/69/14
f 111/71/2 109/69/14 110/70/14
f 110/70/14 112/72/2 111/71/2
f 113/73/11 111/71/2 112/72/2
f 112/72/2 114/74/11 113/73/11
f 115/75/6 113/73/11 114/74/11
f 114/74/11 116/76/8 115/75/6
f 117/77/13 115/75/6 116/76/8
f 116/76/8 118/78/13 117/77/13
f 119/79/3 117/77/13 118/78/13
f 118/78/13 120/80/3 119/79/3
f 106/81/15 119/79/3 120/80/3
f 120/80/3 107/82/15 106/81/15
f 121/65/4 122/66/15 123/67/15
f 123/67/15 124/68/4 121/65/4
f 125/69/14 121/65/4 124/68/4
f 124/68/4 126/70/14 125/69/14
f 127/71/9 125/69/14 126/70/14
f 126/70/14 128/72/2 127/71/9
f 129/73/11 127/71/9 128/72/2
f 128/72/2 130/74/11 129/73/11
f 131/75/6 129/73/11 130/74/11
f 130/74/11 132/76/6 131/75/6
f 133/77/13 131/75/6 132/76/6
f 132/76/6 134/78/13 133/77/13
f 135/79/3 133/77/13 134/78/13
f 134/78/13 136/80/3 135/79/3
f 122/81/15 135/79/3 136/80/3
f 136/80/3 123/82/15 122/81/15
f 111/83/7 113/84/7 137/85/7
f 109/86/7 111/83/7 137/85/7
f 113/84/7 115/87/7 137/85/7
f 105/88/7 109/86/7 137/85/7
f 115/87/7 117/89/7 137/85/7
f 106/90/7 105/88/7 137/85/7
f 117/89/7 119/91/7 137/85/7
f 119/91/7 106/90/7 137/85/7
f 114/92/1 112/93/1 138/94/1
f 116/95/1 114/92/1 138/94/1
f 112/93/1 110/96/1 138/94/1
f 118/97/1 116/95/1 138/94/1
f 110/96/1 108/98/1 138/94/1
f 120/99/1 118/97/1 138/94/1
f 108/98/1 107/100/1 138/94/1
f 107/100/1 120/99/1 138/94/1
f 127/83/7 129/84/7 139/85/7
f 125/86/7 127/83/7 139/85/7
f 129/84/7 131/87/7 139/85/7
f 121/88/7 125/86/7 139/85/7
f 131/87/7 133/89/7 139/85/7
f 122/90/7 121/88/7 139/85/7
f 133/89/7 135/91/7 139/85/7
f 135/91/7 122/90/7 139/85/7
f 130/92/1 128/93/1 140/94/1
f 132/95/1 130/92/1 140/94/1
f 128/93/1 126/96/1 140/94/1
f 134/97/1 132/95/1 140/94/1
f 126/96/1 124/98/1 140/94/1
f 136/99/1 134/97/1 140/94/1
f 124/98/1 123/100/1 140/94/1
f 123/100/1 136/99/1 140/94/1
