# Blender 3.6.18
# www.blender.org
mtllib Mesh.1152.mtl
o Bistro_Research_Exterior_Paris_Building_01_paris_buildi_82a81a0
v 3.888036 21.024965 -16.740927
v 3.876115 21.010414 -16.735142
v 3.870872 21.021063 -16.725626
v 3.889910 17.890446 -16.744385
v 3.879542 17.881065 -16.744940
v 3.876114 17.890446 -16.735142
v 3.852591 17.881067 -16.742056
v 3.833069 17.873699 -16.725725
v 3.845165 17.890444 -16.731827
v 2.840089 20.723255 -14.893188
v 2.853106 20.742489 -14.901902
v 2.859717 20.732767 -14.912211
v 2.816174 21.272905 -14.849051
v 2.821218 21.270063 -14.838671
v 2.825687 21.279442 -14.846916
v 2.900241 20.760437 -14.918064
v 2.890881 20.746492 -14.917992
v 2.886550 20.757217 -14.908107
v 4.332327 21.279442 -16.806898
v 3.988631 21.279442 -16.993113
v 3.169160 21.279440 -14.660890
v 4.336797 21.270063 -16.815145
v 4.336797 20.697248 -16.815145
v 3.993099 21.270063 -17.001358
v 3.993099 20.697248 -17.001358
v 4.332328 20.687870 -16.806898
v 4.305227 20.687870 -16.756893
v 3.988631 20.687870 -16.993113
v 3.961302 20.687870 -16.942675
v 4.300757 20.678492 -16.748648
v 4.300756 17.812675 -16.748648
v 3.956830 20.678492 -16.934425
v 3.957068 17.812674 -16.934938
v 4.162031 20.926918 -16.492714
v 3.818136 20.926918 -16.678469
v 4.162028 17.812675 -16.492714
v 3.818374 17.812675 -16.678984
v 4.157561 20.936298 -16.484468
v 3.344154 20.936302 -14.983738
v 3.813671 20.936298 -16.670229
v 3.000432 20.936300 -15.169407
v 3.339683 17.812675 -14.975490
v 2.996200 17.812675 -15.161669
v 3.339684 20.926918 -14.975492
v 2.995961 20.926918 -15.161154
v 3.205611 20.678493 -14.728148
v 2.862156 20.678493 -14.914225
v 3.205611 17.812675 -14.728148
v 2.862127 17.812675 -14.914246
v 3.201142 20.687872 -14.719900
v 3.169159 20.687872 -14.660890
v 2.857687 20.687872 -14.905978
v 2.825686 20.687872 -14.846916
v 3.164690 21.270063 -14.652641
v 3.164690 20.697250 -14.652643
v 2.821218 20.697250 -14.838671
v 2.886550 21.183144 -14.908106
v 2.853106 21.200882 -14.901902
v 2.923007 20.746492 -14.977279
v 2.889892 20.732769 -14.967900
v 2.930861 20.737215 -14.988671
v 2.930860 17.890448 -14.988669
v 2.893776 20.721848 -14.978169
v 2.893775 17.890446 -14.978168
v 2.933523 17.881069 -14.999173
v 2.969706 17.881067 -15.065922
v 2.903593 17.881067 -14.990697
v 2.957449 17.881067 -15.090079
v 2.976052 17.890448 -15.074142
v 2.976054 21.010418 -15.074144
v 2.961966 17.890448 -15.101905
v 2.961967 20.993309 -15.101906
v 2.981161 21.021065 -15.083747
v 2.967167 21.004065 -15.111327
v 3.840109 21.004063 -16.722334
v 3.845167 20.993307 -16.731829
v 3.928660 17.881067 -16.835564
v 3.919398 17.881067 -16.865345
v 3.936005 17.890444 -16.843529
v 3.936007 20.750750 -16.843529
v 3.924534 17.890446 -16.880409
v 3.924535 20.735369 -16.880411
v 3.941263 20.760021 -16.856337
v 3.968684 20.760021 -16.906942
v 3.931020 20.746288 -16.889271
v 3.956481 20.746288 -16.936258
v 3.974602 20.770742 -16.915968
v 3.974602 21.183138 -16.915968
v 3.961507 20.756004 -16.947428
v 3.961506 21.200888 -16.947426
v 3.968974 21.194050 -16.906626
v 2.891303 21.194054 -14.917925
v 3.956368 21.211128 -16.936903
v 2.859119 21.211132 -14.911953
v 3.132914 20.687872 -14.707253
v 2.875920 20.687872 -14.846486
v 3.132914 17.812675 -14.707253
v 2.875891 17.812675 -14.846507
v 3.981266 17.812675 -16.906403
v 3.981295 20.687872 -16.906380
v 4.007663 17.813255 -16.955057
v 4.008345 20.723246 -16.956299
v 4.020383 17.813353 -16.958834
v 4.020384 20.728205 -16.958832
v 4.158606 17.813353 -16.883944
v 4.158607 20.728205 -16.883944
v 2.977992 21.024961 -15.061526
v 3.934321 17.890444 -16.826324
v 2.944354 17.890448 -14.999472
v 2.975827 17.890446 -15.057534
v 3.981616 20.694340 -16.999853
v 3.945351 20.694357 -16.932924
v 3.924979 20.735245 -16.895327
v 3.961139 20.735260 -16.962059
v 3.924603 17.873856 -16.894644
v 3.812821 20.943373 -16.688347
v 2.984542 20.942913 -15.159769
v 2.881675 17.874254 -14.969945
v 2.960759 17.874197 -15.115884
v 2.857702 20.692833 -14.925694
v 2.816766 20.692825 -14.850142
v 2.840681 21.222889 -14.894279
v 3.981869 21.272457 -17.000319
v 2.880959 20.723246 -14.968615
v 2.941201 20.760021 -14.993656
v 3.832906 20.991783 -16.725414
v 3.945968 17.819885 -16.934132
v 3.944354 17.812674 -16.931162
v 2.984915 17.819548 -15.160526
v 2.983485 17.812675 -15.157893
v 2.899067 21.182493 -14.915896
v 2.871466 20.692833 -14.857954
v 2.898515 20.728205 -14.907875
v 2.898514 17.813353 -14.907873
v 2.872118 17.812775 -14.859220
v 3.937035 20.773205 -16.831329
v 3.973737 20.773960 -16.899061
v 3.974776 21.182817 -16.900978
v 3.960885 21.223333 -16.961592
v 3.814597 17.812675 -16.691700
v 2.856955 17.819487 -14.924381
v 2.858349 17.812675 -14.926961
v 2.960892 20.992245 -15.116121
v 3.812897 17.820040 -16.688557
vn -0.8635 0.0196 -0.5040
vn -0.5041 0.0039 -0.8636
vn -0.4041 0.8828 -0.2393
vn -0.8774 -0.0039 -0.4797
vn -0.5193 0.7223 -0.4568
vn -0.4991 0.7663 -0.4047
vn -0.4581 0.0039 -0.8889
vn -0.5426 0.0351 -0.8393
vn -0.6132 0.5507 -0.5663
vn -0.8774 -0.0038 -0.4797
vn -0.7588 0.3420 0.5543
vn -0.5199 0.8405 -0.1525
vn -0.6600 0.5194 -0.5428
vn -0.5569 0.0428 -0.8295
vn -0.0039 1.0000 -0.0039
vn 0.4736 -0.0039 -0.8807
vn -0.0039 -1.0000 -0.0039
vn -0.4830 -0.0039 0.8756
vn -0.1841 -0.0039 -0.9829
vn -0.4358 0.8676 -0.2395
vn -0.2763 -0.0039 -0.9611
vn -0.2762 -0.0039 -0.9611
vn -0.8936 -0.0039 0.4488
vn -0.4906 0.8282 -0.2708
vn -0.1130 -0.0039 -0.9936
vn -0.9562 -0.0039 0.2927
vn -0.4294 0.8706 -0.2403
vn -0.9255 -0.0039 0.3788
vn -0.4875 -0.8306 -0.2691
vn -0.8014 -0.0039 -0.5981
vn -0.4201 0.8833 -0.2081
vn -0.8966 0.0196 -0.4424
vn -0.6690 0.7160 -0.1995
vn -0.5050 0.7164 -0.4815
vn -0.6716 0.7266 -0.1453
vn -0.8775 -0.0039 -0.4796
vn 0.2379 -0.7603 -0.6044
vn 0.2233 -0.7562 -0.6151
vn -0.7895 0.5774 -0.2082
vn -0.8319 0.5116 -0.2148
vn -0.6220 0.7550 -0.2073
vn -0.5196 -0.8478 -0.1055
vn -0.3700 -0.8452 -0.3856
vn -0.4899 0.7643 -0.4194
vn -0.5999 0.7803 -0.1765
vn -0.3801 -0.7641 0.5212
vn -0.3696 -0.7665 0.5253
vn -0.5424 -0.0429 -0.8390
vn -0.4102 0.8399 -0.3555
vn 0.0898 0.3476 -0.9333
vn 0.3346 0.7045 -0.6259
vn -0.4102 0.8399 -0.3554
vn 0.3346 0.7046 -0.6258
vn -0.3432 0.7061 0.6194
vn -0.3432 0.7061 0.6193
vn 0.3327 -0.7085 -0.6224
vn 0.0895 -0.3544 -0.9308
vn 0.0896 -0.3544 -0.9308
vn 0.2233 -0.7561 -0.6151
vn -0.0506 -0.1052 -0.9932
vn -0.8485 -0.0978 0.5201
vn -0.3413 -0.7101 0.6159
vn -0.8485 -0.0977 0.5201
vn -0.3413 -0.7100 0.6159
vn -0.0584 -0.0974 -0.9935
vn -0.8871 -0.1055 0.4494
vn -0.9983 0.0039 0.0587
vn -0.9972 0.0039 0.0743
vn -0.9996 0.0039 -0.0274
vn -0.9998 0.0039 -0.0196
vn -0.2453 -0.0039 -0.9694
vn -0.5805 0.0039 -0.8143
vn -0.5805 0.0039 -0.8142
vn -0.5520 0.0039 -0.8339
vn -0.5574 0.0039 -0.8302
vn -0.5845 0.6080 -0.5374
vn -0.6766 0.4967 -0.5436
vn -0.7348 0.5383 -0.4126
vn -0.1053 -0.0039 -0.9944
vn -0.7567 -0.3489 0.5528
vn -0.3696 -0.7665 0.5252
vn -0.8730 -0.0504 -0.4850
vn -0.5567 -0.0506 -0.8292
vn -0.7209 -0.5650 -0.4014
vn -0.7353 -0.5408 -0.4085
vn -0.9381 -0.0039 -0.3464
vn -0.9487 -0.0039 0.3162
vn -0.8550 0.4646 -0.2303
vn -0.8158 0.5270 -0.2381
vn -0.9989 0.0431 -0.0196
vn -0.9987 0.0431 0.0274
vn -0.9985 -0.0509 -0.0196
vn -0.8796 -0.0508 -0.4730
vn -0.7290 -0.5653 -0.3860
vn -0.9983 -0.0509 0.0274
vn -0.7435 -0.5410 -0.3931
vn -0.8807 -0.0039 -0.4737
vn -0.9146 -0.0039 0.4043
vn -0.8807 -0.0039 -0.4736
vn -0.7466 0.5355 -0.3948
vn -0.9987 0.0039 0.0509
vn -0.8774 -0.0039 0.4797
vt 0.480469 0.636475
vt 0.475342 0.633057
vt 0.478516 0.629395
vt 0.015030 0.672363
vt 0.011276 0.670410
vt 0.014351 0.666992
vt 0.011528 0.668945
vt 0.008537 0.661133
vt 0.014221 0.664795
vt 0.071655 0.290039
vt 0.069092 0.282715
vt 0.074280 0.282715
vt 0.031799 0.671631
vt 0.028091 0.671631
vt 0.030502 0.668213
vt 0.043335 0.657715
vt 0.041870 0.662354
vt 0.038422 0.660400
vt 0.673828 0.538330
vt 0.664062 0.660645
vt -0.089539 0.478516
vt -0.099182 0.600342
vt 0.133545 0.481445
vt 0.133545 0.671875
vt 0.019302 0.481445
vt 0.019302 0.671875
vt 0.066406 0.207031
vt 0.067078 0.188477
vt 0.192261 0.211426
vt 0.192871 0.192871
vt 0.730469 0.569824
vt -0.222412 0.569824
vt 0.730469 0.455566
vt -0.222412 0.455566
vt 1.261719 0.428711
vt 1.261719 0.543213
vt 0.223999 0.428711
vt 0.223999 0.543213
vt 0.541504 0.329102
vt 0.006790 0.309082
vt 0.545898 0.206543
vt 0.011177 0.186523
vt 0.224243 0.476562
vt 0.224243 0.362305
vt 1.259766 0.476562
vt 1.259766 0.362305
vt 0.734375 0.376953
vt 0.734375 0.491699
vt -0.220215 0.376953
vt -0.220215 0.491699
vt 0.454834 0.183594
vt 0.475830 0.182617
vt 0.459717 0.305664
vt 0.480713 0.305176
vt 0.093811 0.338379
vt -0.020599 0.338379
vt 0.093811 0.147461
vt -0.020599 0.147461
vt 0.009544 0.221680
vt 0.009544 0.081543
vt 0.020523 0.227539
vt 0.020523 0.076660
vt 0.063599 0.662354
vt 0.035461 0.671387
vt 0.055878 0.671387
vt 0.751953 0.400391
vt -0.148315 0.400391
vt 0.747070 0.388672
vt -0.148315 0.388672
vt 0.452637 0.649414
vt 0.477783 0.649414
vt 0.445557 0.656738
vt 0.482666 0.656738
vt -0.335205 -0.104492
vt 0.699219 -0.104492
vt -0.335205 -0.095703
vt 0.693359 -0.095703
vt -0.043182 0.640625
vt 0.591309 0.641846
vt -0.037201 0.649170
vt 0.584961 0.650635
vt 1.197266 0.606934
vt 0.190430 0.606934
vt 1.191406 0.596924
vt 0.190430 0.596924
vt 0.448486 0.664062
vt 0.483154 0.664062
vt 0.443359 0.671631
vt 0.490479 0.671631
vt -0.335205 0.481934
vt 0.612793 0.481934
vt -0.335205 0.494141
vt 0.607910 0.494141
vt 0.445801 0.631592
vt 0.465088 0.631592
vt 0.453857 0.639893
vt 0.471680 0.639893
vt 0.619629 0.505859
vt 0.756348 0.505859
vt 0.614746 0.516357
vt 0.762207 0.516357
vt 0.630859 0.681396
vt -0.143921 0.652588
vt 0.638184 0.672852
vt -0.150635 0.643555
vt 0.711914 0.670166
vt 0.711914 0.755859
vt -0.246216 0.670166
vt -0.246216 0.755859
vt 0.243530 0.631348
vt 1.201172 0.631348
vt 0.243774 0.647461
vt 1.212891 0.647949
vt 0.267334 0.535645
vt 1.187500 0.535645
vt 0.267334 0.585205
vt 1.187500 0.585205
vt -0.050323 0.637939
vt 0.598633 0.639404
vt 0.449951 0.660889
vt 0.481445 0.660889
vt 1.202148 0.610596
vt 0.190430 0.611328
vt 0.014015 0.367676
vt 0.017975 0.370117
vt 0.013802 0.392578
vt 0.017776 0.391602
vt 0.195190 0.212402
vt 0.196045 0.187988
vt 0.433105 0.653809
vt 0.437500 0.653564
vt 0.432861 0.677734
vt 0.437256 0.670410
vt 0.435303 0.674805
vt 0.500000 0.674805
vt 0.551270 0.203613
vt 0.006256 0.183594
vt 0.436035 0.659912
vt 0.490723 0.659912
vt 0.454346 0.309082
vt 0.481201 0.308105
vt 0.024597 0.234375
vt 0.024796 0.070312
vt -0.100220 0.603271
vt 0.665039 0.663574
vt 0.666992 0.660889
vt 0.676758 0.538574
vt -0.092468 0.478027
vt -0.102112 0.600098
vt 0.149414 0.643555
vt 0.149414 0.647705
vt 0.027344 0.643555
vt 0.027344 0.647705
vt 0.067200 0.185547
vt 0.192993 0.189941
vt 0.464355 0.248047
vt 0.460205 0.248047
vt 0.464355 0.125977
vt 0.460205 0.125977
vt 0.003851 0.309082
vt 0.008232 0.186523
vt 0.354980 0.273926
vt 0.354980 0.269531
vt 0.474854 0.275879
vt 0.474854 0.271484
vt 0.008125 0.078125
vt 0.018356 0.073730
vt 0.480957 0.648926
vt 0.486816 0.657471
vt 0.445068 0.663574
vt 0.438965 0.672119
vt 0.040741 0.647705
vt 0.042450 0.643555
vt 0.050507 0.647705
vt 0.054535 0.643555
vt 1.185547 0.532715
vt 0.267334 0.532715
vt 0.015572 0.480469
vt 0.017822 0.478516
vt 0.015488 0.672852
vt 0.017822 0.675049
vt 0.747559 0.383789
vt -0.153442 0.384277
vt -0.151367 0.392578
vt -0.151367 0.402344
vt -0.148315 0.405762
vt 0.759277 0.404297
vt 0.027069 0.675049
vt 0.054688 0.675049
vt 0.059357 0.673584
vt 0.067993 0.663330
vt 1.201172 0.605225
vt 1.195312 0.595215
vt 1.191406 0.592773
vt 0.185059 0.593018
vt 0.733398 0.457031
vt 0.735840 0.451660
vt -0.219971 0.452148
vt -0.222412 0.451660
vt 1.262695 0.363770
vt 1.264648 0.358398
vt 0.226440 0.358398
vt 0.224243 0.357910
vt 0.363037 0.279297
vt 0.363037 0.283691
vt 0.360107 0.280762
vt 0.482910 0.285645
vt 0.483154 0.281250
vt 0.005436 0.221191
vt 0.005051 0.082520
vt 0.007980 0.225098
vt 0.018555 0.230469
vt 0.708496 0.761841
vt 0.720215 0.778320
vt -0.244019 0.778320
vt -0.244141 0.762329
vt -0.244263 0.758057
vt 0.707031 0.758057
vt -0.338379 0.479492
vt -0.335205 0.476562
vt 0.620605 0.478027
vt -0.335205 0.449219
vt 0.704102 0.448242
vt 0.616211 0.486328
vt 0.611328 0.497070
vt 0.607910 0.499023
vt 0.616211 0.502930
vt 0.620605 0.500244
vt -0.340820 0.499023
vt -0.338379 0.489258
vt 0.611328 0.512695
vt 0.607910 0.521240
vt 0.756348 0.500977
vt 0.760254 0.502930
vt 0.760254 -0.156250
vt 0.765625 0.512939
vt 0.756348 -0.157227
vt 0.704102 -0.108398
vt 0.769531 0.520996
vt 0.769531 -0.164062
vt 0.765625 -0.158203
vt 0.762207 -0.162109
vt 0.594238 0.533691
vt 0.786133 0.533936
vt 0.594238 0.511475
vt 0.786133 -0.178711
vt -0.358643 0.511963
vt 0.604004 -0.165039
vt -0.361084 0.510986
vt -0.361084 0.431641
vt 0.595215 -0.182617
vt 0.785156 -0.182617
vt 0.593750 -0.178711
vt 0.604004 -0.139648
vt 0.593750 -0.153320
vt -0.340576 -0.138672
vt 0.588867 -0.157227
vt 0.592285 -0.160156
vt -0.361084 -0.157227
vt -0.358887 -0.154297
vt -0.361084 -0.153320
vt -0.340576 -0.090820
vt -0.361084 -0.077148
vt -0.358887 -0.076172
vt -0.338379 -0.099609
vt 0.692871 -0.090820
vt 0.676758 -0.076172
vt 0.692871 0.442871
vt 0.676758 0.430664
vt 0.696777 -0.091797
vt 0.696777 0.441895
vt 0.702637 -0.101562
vt -0.340820 0.442871
vt 0.671387 0.427246
vt 0.674316 0.424805
vt -0.361084 0.427246
vt -0.358643 0.430664
vt -0.335205 -0.110352
vt -0.338379 -0.107422
vt -0.335205 -0.128906
vt 0.616211 -0.130859
vt 0.616211 -0.156250
vt 0.611816 -0.136719
vt 0.611816 -0.156250
vt 0.608398 -0.132812
s 1
usemtl MASTER_Concrete_Smooth
f 1/1/1 2/2/2 3/3/3
f 4/4/4 5/5/5 6/6/2
f 7/7/6 8/8/4 9/9/7
f 10/10/4 11/11/8 12/12/9
f 13/13/10 14/14/11 15/15/12
f 16/16/4 17/17/13 18/18/14
f 19/19/15 20/20/15 21/21/15
f 20/20/15 15/22/15 21/21/15
f 22/23/16 23/24/16 24/25/16
f 23/24/16 25/26/16 24/25/16
f 26/27/17 27/28/17 28/29/17
f 27/28/17 29/30/17 28/29/17
f 30/31/16 31/32/16 32/33/16
f 31/32/16 33/34/16 32/33/16
f 34/35/18 35/36/18 36/37/18
f 35/36/18 37/38/18 36/37/18
f 38/39/17 39/40/17 40/41/17
f 39/40/17 41/42/17 40/41/17
f 42/43/16 43/44/16 44/45/16
f 43/44/16 45/46/16 44/45/16
f 46/47/18 47/48/18 48/49/18
f 47/48/18 49/50/18 48/49/18
f 50/51/17 51/52/17 52/53/17
f 51/52/17 53/54/17 52/53/17
f 54/55/18 14/56/18 55/57/18
f 14/56/18 56/58/18 55/57/18
f 57/59/19 18/60/19 58/61/19
f 18/60/19 11/62/19 58/61/19
f 17/17/20 59/63/20 12/64/20
f 59/63/20 60/65/20 12/64/20
f 61/66/21 62/67/21 63/68/22
f 62/67/21 64/69/21 63/68/22
f 65/70/15 66/71/15 67/72/15
f 66/71/15 68/73/15 67/72/15
f 69/74/23 70/75/23 71/76/23
f 70/75/23 72/77/23 71/76/23
f 73/78/24 3/79/24 74/80/24
f 3/79/24 75/81/24 74/80/24
f 2/82/25 6/83/25 76/84/25
f 6/83/25 9/85/25 76/84/25
f 5/86/15 77/87/15 7/88/15
f 77/87/15 78/89/15 7/88/15
f 79/90/26 80/91/26 81/92/26
f 80/91/26 82/93/26 81/92/26
f 83/94/27 84/95/27 85/96/27
f 84/95/27 86/97/27 85/96/27
f 87/98/28 88/99/28 89/100/28
f 88/99/28 90/101/28 89/100/28
f 91/102/29 92/103/29 93/104/29
f 92/103/29 94/105/29 93/104/29
f 95/106/18 96/107/18 97/108/18
f 96/107/18 98/109/18 97/108/18
f 99/110/4 100/111/4 101/112/30
f 100/111/4 102/113/30 101/112/30
f 103/114/16 104/115/16 105/116/16
f 104/115/16 106/117/16 105/116/16
f 73/78/31 107/118/32 3/79/3
f 107/118/32 1/119/1 3/79/3
f 5/86/5 4/120/4 77/87/33
f 4/120/4 108/121/4 77/87/33
f 2/82/2 1/122/1 6/83/2
f 1/122/1 4/123/4 6/83/2
f 65/124/34 109/125/4 66/126/35
f 109/125/4 110/127/36 66/126/35
f 111/128/36 28/29/37 112/129/4
f 28/29/37 29/30/38 112/129/4
f 113/130/4 85/131/39 114/132/4
f 85/131/39 86/133/40 114/132/4
f 8/134/4 7/88/6 115/135/4
f 7/88/6 78/89/41 115/135/4
f 116/136/4 40/41/42 117/137/4
f 40/41/42 41/42/43 117/137/4
f 118/138/4 67/72/44 119/139/4
f 67/72/44 68/73/45 119/139/4
f 120/140/4 52/53/46 121/141/4
f 52/53/46 53/54/47 121/141/4
f 122/142/4 58/61/48 10/143/4
f 58/61/48 11/62/8 10/143/4
f 13/144/10 15/22/12 123/145/4
f 15/22/12 20/20/49 123/145/4
f 24/146/50 20/20/49 22/147/51
f 20/20/52 19/19/53 22/147/53
f 54/148/54 21/21/54 14/149/11
f 21/21/55 15/22/12 14/149/11
f 23/150/56 26/151/56 25/152/57
f 26/151/56 28/153/37 25/152/58
f 27/28/56 30/154/56 29/30/59
f 30/154/56 32/155/60 29/30/38
f 40/156/42 35/157/61 38/158/62
f 35/157/63 34/159/64 38/158/64
f 39/40/56 44/160/56 41/42/43
f 44/160/56 45/161/65 41/42/43
f 52/162/46 47/163/66 50/164/62
f 47/163/66 46/165/62 50/164/62
f 18/60/14 17/166/13 11/62/8
f 17/166/13 12/167/9 11/62/8
f 66/71/35 69/168/67 68/73/45
f 69/168/67 71/169/68 68/73/45
f 6/170/2 5/86/5 9/171/7
f 5/86/5 7/88/6 9/171/7
f 77/172/33 79/173/69 78/174/41
f 79/173/69 81/175/70 78/174/41
f 102/176/30 104/115/71 101/177/30
f 104/115/71 103/114/71 101/177/30
f 123/178/4 20/179/49 24/25/50
f 123/178/4 24/25/50 111/180/36
f 24/25/50 25/26/58 111/180/36
f 25/26/58 28/181/37 111/180/36
f 124/182/4 63/68/72 118/183/4
f 63/68/72 64/69/73 118/183/4
f 67/184/44 118/183/4 64/69/73
f 65/185/34 67/184/44 64/69/73
f 62/67/74 65/185/34 64/69/73
f 65/185/34 62/67/74 109/186/4
f 125/187/4 109/186/4 62/67/74
f 61/66/75 125/187/4 62/67/74
f 10/188/4 12/64/9 124/189/4
f 12/64/9 60/65/76 124/189/4
f 63/190/72 124/189/4 60/65/76
f 61/191/75 63/190/72 60/65/76
f 59/63/77 61/191/75 60/65/76
f 3/192/3 2/82/2 75/193/78
f 2/82/2 76/84/7 75/193/78
f 76/84/7 126/194/36 75/193/78
f 126/194/36 76/84/7 8/195/4
f 76/84/7 9/85/7 8/195/4
f 29/196/38 32/33/60 112/197/4
f 112/197/4 32/33/60 127/198/36
f 32/33/60 33/34/79 127/198/36
f 128/199/4 127/198/36 33/34/79
f 41/200/43 45/46/65 117/201/4
f 117/201/4 45/46/65 129/202/4
f 45/46/65 43/44/25 129/202/4
f 130/203/4 129/202/4 43/44/25
f 53/204/47 56/205/80 121/206/4
f 56/205/80 53/204/47 55/207/64
f 53/204/81 51/208/62 55/207/62
f 131/209/82 16/210/4 18/60/14
f 57/59/83 131/209/82 18/60/14
f 131/209/82 57/59/83 92/211/84
f 92/211/84 57/59/83 94/212/85
f 57/59/83 58/61/48 94/212/85
f 132/213/86 133/214/4 134/215/4
f 135/216/86 132/213/86 134/215/4
f 135/216/86 98/217/87 132/213/86
f 98/217/87 96/218/87 132/213/86
f 79/90/69 77/219/33 108/220/4
f 79/90/69 108/220/4 80/91/69
f 108/220/4 136/221/4 80/91/69
f 136/221/4 108/220/4 4/222/4
f 1/223/1 136/221/4 4/222/4
f 136/221/4 83/224/88 80/91/69
f 80/91/69 83/224/88 82/93/70
f 83/224/88 85/225/39 82/93/70
f 85/225/39 113/226/4 82/93/70
f 83/224/88 136/221/4 84/227/89
f 81/92/70 82/93/70 113/226/4
f 136/221/4 137/228/4 84/227/89
f 81/92/70 115/229/4 78/230/41
f 115/229/4 81/92/70 113/226/4
f 87/98/90 84/227/89 137/228/4
f 84/227/89 87/98/90 86/231/40
f 87/98/90 89/100/91 86/231/40
f 87/98/90 137/228/4 88/99/92
f 89/100/91 114/232/4 86/231/40
f 137/228/4 138/233/93 88/99/92
f 138/233/93 137/228/4 136/221/4
f 1/223/1 138/233/93 136/221/4
f 138/233/93 91/234/94 88/99/92
f 88/99/92 91/234/94 90/101/95
f 91/234/94 138/233/93 92/235/84
f 91/234/94 93/236/96 90/101/95
f 138/233/93 131/237/82 92/235/84
f 138/233/93 1/223/1 131/237/82
f 1/223/1 107/238/32 131/237/82
f 89/100/91 90/101/95 139/239/4
f 93/236/96 139/239/4 90/101/95
f 114/232/4 89/100/91 139/239/4
f 139/239/4 93/236/96 122/240/4
f 93/236/96 94/241/85 122/240/4
f 58/242/48 122/240/4 94/241/85
f 111/243/36 114/232/4 139/239/4
f 123/244/4 111/243/36 139/239/4
f 123/244/4 139/239/4 122/240/4
f 111/243/36 112/245/4 114/232/4
f 13/246/10 123/244/4 122/240/4
f 112/245/4 113/226/4 114/232/4
f 112/245/4 127/247/36 113/226/4
f 13/246/10 122/240/4 10/248/4
f 127/247/36 115/229/4 113/226/4
f 127/247/36 128/249/4 115/229/4
f 128/249/4 140/250/97 115/229/4
f 56/251/80 14/252/11 13/246/10
f 121/253/4 56/251/80 13/246/10
f 121/253/4 13/246/10 10/248/4
f 121/253/4 10/248/4 124/254/4
f 120/255/4 121/253/4 124/254/4
f 120/255/4 124/254/4 118/256/4
f 47/257/66 52/258/46 120/255/4
f 49/259/98 47/257/66 120/255/4
f 141/260/4 120/255/4 118/256/4
f 141/260/4 49/259/98 120/255/4
f 49/259/98 141/260/4 142/261/99
f 141/260/4 118/256/4 119/262/4
f 142/261/99 141/260/4 119/262/4
f 130/263/4 142/261/99 119/262/4
f 129/264/4 130/263/4 119/262/4
f 71/76/68 119/262/4 68/265/45
f 129/264/4 119/262/4 143/266/36
f 119/262/4 71/76/68 143/266/36
f 117/267/4 129/264/4 143/266/36
f 71/76/68 72/77/68 143/266/36
f 117/267/4 143/266/36 126/268/36
f 116/269/4 117/267/4 126/268/36
f 74/270/100 143/266/36 72/77/68
f 143/266/36 74/270/100 126/268/36
f 74/270/100 75/271/78 126/268/36
f 73/272/31 74/270/100 72/77/68
f 70/75/101 73/272/31 72/77/68
f 116/269/4 126/268/36 8/273/4
f 73/272/31 70/75/101 107/238/32
f 35/274/61 40/275/42 116/269/4
f 37/276/102 35/274/61 116/269/4
f 144/277/4 116/269/4 8/273/4
f 144/277/4 37/276/102 116/269/4
f 144/277/4 8/273/4 115/229/4
f 37/276/102 144/277/4 140/250/97
f 140/250/97 144/277/4 115/229/4
f 110/278/36 107/238/32 70/75/101
f 69/74/67 110/278/36 70/75/101
f 69/74/67 66/279/35 110/278/36
f 110/278/36 109/280/4 107/238/32
f 109/280/4 125/281/4 107/238/32
f 107/238/32 125/281/4 131/237/82
f 125/281/4 16/282/4 131/237/82
f 16/282/4 125/281/4 59/283/77
f 17/284/13 16/282/4 59/283/77
f 125/281/4 61/285/75 59/283/77
