# Blender 3.6.18
# www.blender.org
mtllib Mesh.1109.mtl
o Bistro_Research_Exterior_Paris_Building_01_paris_buildi_c8765b7
v -2.213375 12.744032 -4.399643
v 0.430472 12.744031 1.486597
v 0.139169 12.744032 -8.864944
v 4.980317 12.744031 3.314982
v 4.085673 15.404208 1.245876
v 0.857721 15.403095 -7.195481
v -0.637845 15.404953 -4.439585
v 1.835354 15.404952 0.405581
v 0.602599 14.499643 -6.522728
v -0.082326 14.499643 -5.255672
v -0.082326 12.890730 -5.255671
v 0.602600 12.890729 -6.522729
v 2.677755 14.499642 0.632036
v 4.009793 14.499641 1.179964
v 4.009795 12.890728 1.179962
v 2.677755 12.890729 0.632036
v 0.083496 14.499642 -2.892022
v 0.706830 14.499642 -1.593557
v 0.706833 12.890730 -1.593557
v 0.083495 12.890729 -2.892023
vn -0.0039 1.0000 -0.0039
vn -0.9345 -0.0039 0.3558
vn -0.0039 -1.0000 -0.0039
vn 0.8754 0.1070 0.4714
vn 0.8754 0.1069 0.4714
vn 0.4853 -0.1776 0.8561
vn 0.4853 -0.1775 0.8561
vn 0.0820 -0.9957 0.0429
vn 0.9859 -0.1296 -0.1060
vn 0.9859 -0.1296 -0.1061
vn 0.3551 0.0663 -0.9325
vn 0.9028 -0.0197 -0.4297
vn 0.0273 -0.9956 -0.0898
vn -0.2382 -0.1679 -0.9566
vn 0.8868 -0.0907 -0.4532
vn 0.8868 -0.0906 -0.4532
vn 0.9326 -0.3424 -0.1141
vn 0.9326 -0.3423 -0.1141
vn 0.0820 -0.9957 -0.0430
vn 0.0820 -0.9957 -0.0429
vn 0.6520 -0.2538 -0.7145
vt 1.442383 0.755615
vt -0.571289 0.658936
vt 2.472656 -0.438477
vt -1.622070 -0.455078
vt -0.927246 0.216309
vt 1.800781 0.216309
vt -1.595703 1.078796
vt 2.339844 1.078796
vt 1.875977 0.979218
vt -1.043945 1.062256
vt 1.194336 0.228516
vt -0.547363 0.465820
vt 2.064453 0.491699
vt 1.750977 0.146973
vt 0.198975 0.240234
vt 0.216431 1.105042
vt -0.299072 0.534424
vt -0.299072 1.057373
vt -1.241211 1.105042
vt -0.712891 1.057373
vt 0.182983 0.656982
vt 1.195312 0.656982
vt 0.148560 0.984383
vt 0.718262 1.141357
vt -1.078125 0.361816
vt -1.387695 0.709473
vt 1.204102 0.252930
vt 1.508789 1.140137
vt 0.981934 0.554443
vt 0.981934 1.091248
vt -0.014122 1.140137
vt 0.536133 1.091248
vt 0.940430 0.812866
vt 1.023438 -0.165039
vt 1.436523 0.684814
vt 1.436523 0.219238
vt 0.591797 -0.213867
vt 0.129150 -0.162109
vt 0.165039 0.189941
vt 0.165039 0.655518
vt 2.121094 1.105042
vt 1.340820 1.057373
vt 0.920410 1.057373
vt 0.920410 0.534424
s 1
usemtl MASTER_Concrete
f 1/1/1 2/2/1 3/3/1
f 2/2/1 4/4/1 3/3/1
f 5/5/2 6/6/2 4/7/2
f 6/6/2 3/8/2 4/7/2
f 6/9/3 5/10/3 7/11/3
f 5/10/3 8/12/3 7/11/3
f 6/9/4 7/11/4 9/13/4
f 7/11/5 10/14/5 9/13/5
f 7/15/6 1/16/7 10/17/6
f 1/16/7 11/18/7 10/17/7
f 1/16/8 3/19/8 11/18/8
f 3/19/8 12/20/8 11/18/8
f 3/21/9 6/22/9 12/23/9
f 6/22/10 9/24/10 12/23/10
f 8/12/11 5/10/11 13/25/11
f 5/10/11 14/26/11 13/25/11
f 5/27/12 4/28/12 14/29/12
f 4/28/12 15/30/12 14/29/12
f 4/28/13 2/31/13 15/30/13
f 2/31/13 16/32/13 15/30/13
f 2/33/14 8/34/14 16/35/14
f 8/34/14 13/36/14 16/35/14
f 7/11/15 8/12/15 17/37/15
f 8/12/16 18/38/16 17/37/16
f 8/34/17 2/33/17 18/39/17
f 2/33/18 19/40/18 18/39/18
f 2/41/19 1/16/19 19/42/19
f 1/16/19 20/43/20 19/42/20
f 1/16/21 7/15/21 20/43/21
f 7/15/21 17/44/21 20/43/21
