# Blender 3.6.18
# www.blender.org
mtllib Mesh.750.mtl
o Bistro_Research_Exterior_paris_building_05_5035
v 22.722828 16.990107 -43.749393
v 22.402262 16.990107 -44.143433
v 22.355797 16.990107 -44.105629
v 22.676365 16.990107 -43.711594
v 22.355797 16.893988 -44.105629
v 22.676365 16.893988 -43.711594
v 22.722828 16.893988 -43.749393
v 22.402262 16.893988 -44.143433
v 22.675699 14.290565 -43.717331
v 22.717712 14.290566 -43.751511
v 22.717712 16.898327 -43.751511
v 22.675699 16.898327 -43.717331
v 22.626545 16.898327 -43.777748
v 22.626545 14.290565 -43.777748
v 22.668556 14.290566 -43.811928
v 22.668556 16.898327 -43.811928
v 22.647234 16.891829 -43.783520
v 22.424973 16.891829 -44.056717
v 22.424973 14.293645 -44.056717
v 22.647234 14.293645 -43.783520
v 22.405767 14.290565 -44.134949
v 22.363754 14.290566 -44.100769
v 22.363754 16.898327 -44.100769
v 22.405767 16.898327 -44.134949
v 22.454924 16.898327 -44.074528
v 22.454924 14.290565 -44.074528
v 22.412909 14.290566 -44.040348
v 22.412909 16.898327 -44.040348
v 22.722828 14.290150 -43.749393
v 22.402262 14.290150 -44.143433
v 22.355797 14.290150 -44.105629
v 22.676365 14.290150 -43.711594
v 22.355797 14.194030 -44.105629
v 22.676365 14.194030 -43.711594
v 22.722828 14.194030 -43.749393
v 22.402262 14.194030 -44.143433
v 22.396816 14.460618 -44.131428
v 22.366459 14.460618 -44.106728
v 22.366459 14.589516 -44.106724
v 22.396818 14.589516 -44.131424
v 22.368902 14.589516 -44.103725
v 22.399258 14.589516 -44.128426
v 22.399258 14.460618 -44.128422
v 22.368902 14.460618 -44.103725
v 22.406277 14.460618 -44.191711
v 22.402277 14.460618 -44.152786
v 22.402277 14.589516 -44.152786
v 22.406281 14.589516 -44.191715
v 22.406128 14.589516 -44.152393
v 22.410130 14.589516 -44.191322
v 22.410128 14.460618 -44.191319
v 22.406126 14.460618 -44.152390
v 22.906942 16.990107 -44.152107
v 22.401640 16.990107 -44.204060
v 22.395512 16.990107 -44.144470
v 22.900816 16.990107 -44.092522
v 22.395512 16.893988 -44.144470
v 22.900816 16.893988 -44.092522
v 22.906942 16.893988 -44.152107
v 22.401640 16.893988 -44.204060
v 22.896288 14.290565 -44.096107
v 22.901827 14.290566 -44.149986
v 22.901827 16.898327 -44.149986
v 22.896288 16.898327 -44.096107
v 22.818810 16.898327 -44.104076
v 22.818810 14.290565 -44.104076
v 22.824348 14.290566 -44.157951
v 22.824348 16.898327 -44.157951
v 22.480915 16.891829 -44.177341
v 22.831261 16.891829 -44.141327
v 22.831261 14.293645 -44.141327
v 22.480915 14.293645 -44.177341
v 22.410118 14.290565 -44.200539
v 22.404577 14.290566 -44.146664
v 22.404579 16.898327 -44.146664
v 22.410118 16.898327 -44.200539
v 22.487595 16.898327 -44.192574
v 22.487595 14.290565 -44.192574
v 22.482056 14.290566 -44.138699
v 22.482058 16.898327 -44.138699
v 22.906942 14.290150 -44.152107
v 22.401640 14.290150 -44.204060
v 22.395512 14.290150 -44.144470
v 22.900816 14.290150 -44.092522
v 22.395512 14.194030 -44.144470
v 22.900816 14.194030 -44.092522
v 22.906942 14.194030 -44.152107
v 22.401640 14.194030 -44.204060
v 22.406277 16.661915 -44.191711
v 22.402277 16.661915 -44.152786
v 22.402277 16.790812 -44.152786
v 22.406281 16.790812 -44.191715
v 22.406128 16.790812 -44.152393
v 22.410130 16.790812 -44.191322
v 22.410128 16.661915 -44.191319
v 22.406126 16.661915 -44.152390
v 22.396816 16.661915 -44.131428
v 22.366459 16.661915 -44.106728
v 22.366459 16.790812 -44.106724
v 22.396818 16.790812 -44.131424
v 22.368902 16.790812 -44.103725
v 22.399258 16.790812 -44.128426
v 22.399258 16.661915 -44.128422
v 22.368902 16.661915 -44.103725
v 22.408432 14.460976 -44.131683
v 22.412987 14.460976 -44.140114
v 22.412987 14.589179 -44.140114
v 22.408432 14.589179 -44.131683
v 22.399246 14.460976 -44.128937
v 22.399246 14.589179 -44.128937
v 22.390810 14.460976 -44.133492
v 22.390810 14.589179 -44.133492
v 22.388067 14.460976 -44.142677
v 22.388067 14.589179 -44.142677
v 22.392626 14.460976 -44.151112
v 22.392626 14.589179 -44.151112
v 22.401808 14.460976 -44.153858
v 22.401808 14.589179 -44.153858
v 22.410244 14.460976 -44.149303
v 22.410244 14.589179 -44.149303
v 22.408432 16.662273 -44.131683
v 22.412987 16.662273 -44.140114
v 22.412987 16.790478 -44.140114
v 22.408432 16.790478 -44.131683
v 22.399246 16.662273 -44.128937
v 22.399246 16.790478 -44.128937
v 22.390810 16.662273 -44.133492
v 22.390810 16.790478 -44.133492
v 22.388067 16.662273 -44.142677
v 22.388067 16.790478 -44.142677
v 22.392626 16.662273 -44.151112
v 22.392626 16.790478 -44.151112
v 22.401808 16.662273 -44.153858
v 22.401808 16.790478 -44.153858
v 22.410244 16.662273 -44.149303
v 22.410244 16.790478 -44.149303
v 22.400528 14.460976 -44.141396
v 22.400528 14.589179 -44.141396
v 22.400528 16.662273 -44.141396
v 22.400528 16.790478 -44.141396
vn -0.0039 1.0000 -0.0039
vn -0.7812 -0.0039 0.6242
vn -0.7813 -0.0039 0.6242
vn 0.7743 -0.0039 -0.6328
vn 0.6280 -0.0040 0.7782
vn 0.6281 -0.0040 0.7782
vn -0.6290 -0.0039 -0.7774
vn -0.0039 -1.0000 -0.0039
vn 0.6281 -0.0039 0.7782
vn -0.9944 -0.0039 -0.1053
vn 0.0976 -0.0039 -0.9952
vn -0.1061 -0.0039 0.9943
vn 0.9951 -0.0039 0.0983
vn 0.9951 -0.0040 0.0983
vn 0.9951 -0.0039 0.0984
vn 0.6281 -0.0039 0.7781
vn 0.7743 -0.0040 -0.6328
vt 0.327881 0.353027
vt 0.327881 0.432129
vt 0.318604 0.432129
vt 0.318604 0.353027
vt 0.315430 0.432129
vt 0.300537 0.432129
vt 0.300537 0.352539
vt 0.315430 0.352539
vt 0.270020 0.352051
vt 0.284912 0.352051
vt 0.284912 0.431641
vt 0.270020 0.431641
vt 0.269775 0.345215
vt 0.269775 0.335938
vt 0.284912 0.335938
vt 0.284912 0.345215
vt 0.288086 0.345215
vt 0.288086 0.335938
vt 0.303223 0.335938
vt 0.303223 0.345215
vt 0.287842 0.352539
vt 0.297363 0.352539
vt 0.297363 0.432129
vt 0.287842 0.432129
vt 0.858398 0.978256
vt 0.848633 0.978256
vt 0.848633 0.570801
vt 0.858398 0.570801
vt 0.812012 0.571289
vt 0.812012 0.978668
vt 0.799805 0.978668
vt 0.799805 0.571289
vt 0.845215 0.572021
vt 0.845215 0.979340
vt 0.833008 0.979340
vt 0.833008 0.572021
vt 0.827637 0.980072
vt 0.817871 0.980072
vt 0.817871 0.572754
vt 0.827637 0.572754
vt 0.377197 0.011230
vt 0.432373 0.011230
vt 0.432373 0.416992
vt 0.377197 0.416992
vt 0.360107 0.465332
vt 0.354004 0.465332
vt 0.354004 0.445312
vt 0.360107 0.445312
vt 0.354004 0.442871
vt 0.360107 0.442871
vt 0.360107 0.443359
vt 0.354004 0.443359
vt 0.362061 0.445312
vt 0.362061 0.465332
vt 0.361328 0.465332
vt 0.361328 0.445312
vt 0.360107 0.467285
vt 0.354004 0.467285
vt 0.354004 0.466797
vt 0.360107 0.466797
vt 0.352051 0.465332
vt 0.352051 0.445312
vt 0.352783 0.445312
vt 0.352783 0.465332
vt 0.327637 0.464355
vt 0.326172 0.464355
vt 0.326172 0.443848
vt 0.327637 0.443848
vt 0.329102 0.464355
vt 0.329102 0.443848
vt 0.330566 0.464355
vt 0.330566 0.443848
vt 0.332031 0.464355
vt 0.332031 0.443848
vt 0.333496 0.464355
vt 0.333496 0.443848
vt 0.334473 0.464355
vt 0.334473 0.443848
vt 0.335938 0.464355
vt 0.335938 0.443848
vt 0.337402 0.464355
vt 0.337402 0.443848
vt 0.326172 0.466797
vt 0.327393 0.465820
vt 0.328125 0.467773
vt 0.326172 0.468262
vt 0.328857 0.465820
vt 0.327148 0.469238
vt 0.329834 0.466797
vt 0.328857 0.469238
vt 0.329834 0.468262
vt 0.333252 0.465820
vt 0.334717 0.465820
vt 0.333984 0.467773
vt 0.332275 0.466797
vt 0.335938 0.466797
vt 0.332275 0.468262
vt 0.335938 0.468750
vt 0.333252 0.469727
vt 0.334717 0.469727
s 1
usemtl MASTER_Building_Details
f 1/1/1 2/2/1 3/3/1
f 3/3/1 4/4/1 1/1/1
f 3/5/2 5/6/2 6/7/2
f 6/7/2 4/8/3 3/5/2
f 1/9/4 7/10/4 8/11/4
f 8/11/4 2/12/4 1/9/4
f 1/13/5 4/14/5 6/15/6
f 6/15/6 7/16/6 1/13/5
f 3/17/7 2/18/7 8/19/7
f 8/19/7 5/20/7 3/17/7
f 7/21/8 6/22/8 5/23/8
f 5/23/8 8/24/8 7/21/8
f 9/25/5 10/26/5 11/27/9
f 11/27/9 12/28/9 9/25/5
f 9/29/2 12/30/2 13/31/2
f 13/31/2 14/32/2 9/29/2
f 11/33/4 10/34/4 15/35/4
f 15/35/4 16/36/4 11/33/4
f 15/37/7 14/38/7 13/39/7
f 13/39/7 16/40/7 15/37/7
f 17/41/3 18/42/2 19/43/3
f 19/43/3 20/44/3 17/41/3
f 21/25/7 22/26/7 23/27/7
f 23/27/7 24/28/7 21/25/7
f 21/29/4 24/30/4 25/31/4
f 25/31/4 26/32/4 21/29/4
f 23/33/3 22/34/3 27/35/3
f 27/35/3 28/36/3 23/33/3
f 27/37/9 26/38/9 25/39/9
f 25/39/9 28/40/9 27/37/9
f 29/1/1 30/2/1 31/3/1
f 31/3/1 32/4/1 29/1/1
f 31/5/2 33/6/2 34/7/2
f 34/7/2 32/8/3 31/5/2
f 29/9/4 35/10/4 36/11/4
f 36/11/4 30/12/4 29/9/4
f 29/13/9 32/14/5 34/15/5
f 34/15/5 35/16/9 29/13/9
f 31/17/7 30/18/7 36/19/7
f 36/19/7 33/20/7 31/17/7
f 35/21/8 34/22/8 33/23/8
f 33/23/8 36/24/8 35/21/8
f 37/45/7 38/46/7 39/47/7
f 39/47/7 40/48/7 37/45/7
f 41/49/1 42/50/1 40/51/1
f 40/51/1 39/52/1 41/49/1
f 42/53/4 43/54/4 37/55/4
f 37/55/4 40/56/4 42/53/4
f 43/57/8 44/58/8 38/59/8
f 38/59/8 37/60/8 43/57/8
f 44/61/2 41/62/3 39/63/2
f 39/63/2 38/64/3 44/61/2
f 45/45/10 46/46/10 47/47/10
f 47/47/10 48/48/10 45/45/10
f 49/49/1 50/50/1 48/51/1
f 48/51/1 47/52/1 49/49/1
f 50/53/11 51/54/11 45/55/11
f 45/55/11 48/56/11 50/53/11
f 51/57/8 52/58/8 46/59/8
f 46/59/8 45/60/8 51/57/8
f 52/61/12 49/62/12 47/63/12
f 47/63/12 46/64/12 52/61/12
f 53/1/1 54/2/1 55/3/1
f 55/3/1 56/4/1 53/1/1
f 55/5/12 57/6/12 58/7/12
f 58/7/12 56/8/12 55/5/12
f 53/9/11 59/10/11 60/11/11
f 60/11/11 54/12/11 53/9/11
f 53/13/13 56/14/13 58/15/14
f 58/15/14 59/16/15 53/13/13
f 55/17/10 54/18/10 60/19/10
f 60/19/10 57/20/10 55/17/10
f 59/21/8 58/22/8 57/23/8
f 57/23/8 60/24/8 59/21/8
f 61/25/13 62/26/13 63/27/13
f 63/27/13 64/28/13 61/25/13
f 61/29/12 64/30/12 65/31/12
f 65/31/12 66/32/12 61/29/12
f 63/33/11 62/34/11 67/35/11
f 67/35/11 68/36/11 63/33/11
f 67/37/10 66/38/10 65/39/10
f 65/39/10 68/40/10 67/37/10
f 69/41/11 70/42/11 71/43/11
f 71/43/11 72/44/11 69/41/11
f 73/25/10 74/26/10 75/27/10
f 75/27/10 76/28/10 73/25/10
f 73/29/11 76/30/11 77/31/11
f 77/31/11 78/32/11 73/29/11
f 75/33/12 74/34/12 79/35/12
f 79/35/12 80/36/12 75/33/12
f 79/37/15 78/38/13 77/39/13
f 77/39/13 80/40/13 79/37/15
f 81/1/1 82/2/1 83/3/1
f 83/3/1 84/4/1 81/1/1
f 83/5/12 85/6/12 86/7/12
f 86/7/12 84/8/12 83/5/12
f 81/9/11 87/10/11 88/11/11
f 88/11/11 82/12/11 81/9/11
f 81/13/13 84/14/13 86/15/13
f 86/15/13 87/16/13 81/13/13
f 83/17/10 82/18/10 88/19/10
f 88/19/10 85/20/10 83/17/10
f 87/21/8 86/22/8 85/23/8
f 85/23/8 88/24/8 87/21/8
f 89/45/10 90/46/10 91/47/10
f 91/47/10 92/48/10 89/45/10
f 93/49/1 94/50/1 92/51/1
f 92/51/1 91/52/1 93/49/1
f 94/53/11 95/54/11 89/55/11
f 89/55/11 92/56/11 94/53/11
f 95/57/8 96/58/8 90/59/8
f 90/59/8 89/60/8 95/57/8
f 96/61/12 93/62/12 91/63/12
f 91/63/12 90/64/12 96/61/12
f 97/45/7 98/46/7 99/47/7
f 99/47/7 100/48/7 97/45/7
f 101/49/1 102/50/1 100/51/1
f 100/51/1 99/52/1 101/49/1
f 102/53/4 103/54/4 97/55/4
f 97/55/4 100/56/4 102/53/4
f 103/57/8 104/58/8 98/59/8
f 98/59/8 97/60/8 103/57/8
f 104/61/3 101/62/2 99/63/2
f 99/63/2 98/64/3 104/61/3
f 105/65/16 106/66/13 107/67/15
f 107/67/15 108/68/6 105/65/16
f 109/69/12 105/65/16 108/68/6
f 108/68/6 110/70/12 109/69/12
f 111/71/3 109/69/12 110/70/12
f 110/70/12 112/72/3 111/71/3
f 113/73/10 111/71/3 112/72/3
f 112/72/3 114/74/10 113/73/10
f 115/75/7 113/73/10 114/74/10
f 114/74/10 116/76/7 115/75/7
f 117/77/11 115/75/7 116/76/7
f 116/76/7 118/78/11 117/77/11
f 119/79/4 117/77/11 118/78/11
f 118/78/11 120/80/4 119/79/4
f 106/81/13 119/79/4 120/80/4
f 120/80/4 107/82/15 106/81/13
f 121/65/16 122/66/13 123/67/13
f 123/67/13 124/68/6 121/65/16
f 125/69/12 121/65/16 124/68/6
f 124/68/6 126/70/12 125/69/12
f 127/71/2 125/69/12 126/70/12
f 126/70/12 128/72/2 127/71/2
f 129/73/10 127/71/2 128/72/2
f 128/72/2 130/74/10 129/73/10
f 131/75/7 129/73/10 130/74/10
f 130/74/10 132/76/7 131/75/7
f 133/77/11 131/75/7 132/76/7
f 132/76/7 134/78/11 133/77/11
f 135/79/17 133/77/11 134/78/11
f 134/78/11 136/80/4 135/79/17
f 122/81/13 135/79/17 136/80/4
f 136/80/4 123/82/13 122/81/13
f 111/83/8 113/84/8 137/85/8
f 109/86/8 111/83/8 137/85/8
f 113/84/8 115/87/8 137/85/8
f 105/88/8 109/86/8 137/85/8
f 115/87/8 117/89/8 137/85/8
f 106/90/8 105/88/8 137/85/8
f 117/89/8 119/91/8 137/85/8
f 119/91/8 106/90/8 137/85/8
f 114/92/1 112/93/1 138/94/1
f 116/95/1 114/92/1 138/94/1
f 112/93/1 110/96/1 138/94/1
f 118/97/1 116/95/1 138/94/1
f 110/96/1 108/98/1 138/94/1
f 120/99/1 118/97/1 138/94/1
f 108/98/1 107/100/1 138/94/1
f 107/100/1 120/99/1 138/94/1
f 127/83/8 129/84/8 139/85/8
f 125/86/8 127/83/8 139/85/8
f 129/84/8 131/87/8 139/85/8
f 121/88/8 125/86/8 139/85/8
f 131/87/8 133/89/8 139/85/8
f 122/90/8 121/88/8 139/85/8
f 133/89/8 135/91/8 139/85/8
f 135/91/8 122/90/8 139/85/8
f 130/92/1 128/93/1 140/94/1
f 132/95/1 130/92/1 140/94/1
f 128/93/1 126/96/1 140/94/1
f 134/97/1 132/95/1 140/94/1
f 126/96/1 124/98/1 140/94/1
f 136/99/1 134/97/1 140/94/1
f 124/98/1 123/100/1 140/94/1
f 123/100/1 136/99/1 140/94/1
