# Blender 3.6.18
# www.blender.org
mtllib Mesh.964.mtl
o Bistro_Research_Exterior_Paris_Building_01_paris_buildi_9edfa2f
v 12.551733 6.727516 7.048980
v 12.539896 6.731726 7.047330
v 12.561330 6.759868 7.028351
v 12.568217 6.750266 7.033275
v 12.569118 6.763604 7.027949
v 12.552996 6.735033 7.059103
v 12.572929 6.752527 7.033036
v 12.578110 6.765948 7.029260
v 12.567266 6.755369 7.044863
v 12.545620 6.737657 7.058074
v 12.579370 6.754206 7.033976
v 12.588652 6.767231 7.032115
v 12.570693 6.757022 7.044688
v 12.562946 6.761390 7.041776
v 12.587558 6.755201 7.036188
v 12.599794 6.766545 7.037276
v 12.576164 6.758448 7.045485
v 12.568307 6.763958 7.041502
v 12.560736 6.763052 7.035582
v 12.540683 6.736412 7.053638
v 12.567723 6.766407 7.035215
v 12.576112 6.768593 7.036435
v 12.575377 6.765780 7.042540
v 12.586018 6.769796 7.039122
v 12.583333 6.759314 7.047423
v 12.584017 6.766838 7.044875
v 12.596158 6.769173 7.043833
v 12.595474 6.754714 7.039851
v 12.609444 6.762387 7.045713
v 12.604607 6.765533 7.051243
v 12.601445 6.752141 7.045068
v 12.613949 6.753811 7.057217
v 12.589653 6.758921 7.050348
v 12.604384 6.746585 7.052487
v 12.611387 6.741298 7.071877
v 12.593717 6.757166 7.053900
v 12.592369 6.766359 7.048730
v 12.598782 6.763654 7.054309
v 12.595682 6.753388 7.058897
v 12.602235 6.736073 7.064800
v 12.589965 6.692667 7.122359
v 12.608500 6.758071 7.061231
v 12.601703 6.757937 7.061875
v 12.606136 6.746408 7.074857
v 12.593814 6.744266 7.069579
v 12.599524 6.747526 7.073995
v 12.584449 6.697164 7.125910
v 12.581297 6.688574 7.114069
v 12.588170 6.686694 7.127267
v 12.572472 6.695770 7.119754
v 12.579542 6.682734 7.118870
v 12.587415 6.679963 7.131199
v 12.577871 6.698321 7.124919
v 12.570182 6.688147 7.126017
v 12.578809 6.676153 7.122709
v 12.587840 6.675292 7.132853
v 12.575559 6.690615 7.131251
v 12.579211 6.671859 7.124219
v 12.589328 6.670526 7.133172
v 12.569219 6.679557 7.131024
v 12.580589 6.667479 7.124504
v 12.594510 6.660673 7.130760
v 12.569900 6.672080 7.133641
v 12.574583 6.681931 7.136316
v 12.582264 6.690097 7.131784
v 12.581308 6.682131 7.136494
v 12.581908 6.675436 7.138854
v 12.575280 6.674220 7.139023
v 12.584054 6.668606 7.139280
v 12.577729 6.666352 7.139531
v 12.572280 6.664453 7.134126
v 12.590596 6.656346 7.136180
v 12.585455 6.658224 7.122238
v 12.608776 6.640303 7.120912
v 12.604561 6.636366 7.126547
v 12.599832 6.637694 7.112316
v 12.613473 6.629740 7.119745
v 12.579195 6.651302 7.130908
v 12.605206 6.625673 7.110957
v 12.614093 6.620725 7.124843
v 12.593122 6.631424 7.121289
v 12.584839 6.652829 7.136220
v 12.598697 6.633052 7.126647
v 12.595836 6.625319 7.120574
v 12.605979 6.614760 7.117098
v 12.610465 6.611509 7.136439
v 12.607435 6.629513 7.125943
v 12.601004 6.627862 7.126066
v 12.607909 6.624319 7.128741
v 12.596170 6.620461 7.123280
v 12.601235 6.624184 7.128114
v 12.604699 6.616603 7.138493
v 12.602175 6.604906 7.129492
v 12.605932 6.604721 7.147924
v 12.600867 6.610770 7.148384
v 12.598601 6.599332 7.138953
v 12.599744 6.598945 7.154932
v 12.592952 6.613056 7.132780
v 12.594934 6.595685 7.143390
v 12.592511 6.594808 7.157797
v 12.590476 6.609036 7.139688
v 12.598119 6.617170 7.137108
v 12.595068 6.612412 7.145308
v 12.587432 6.605916 7.143491
v 12.591056 6.593688 7.145159
v 12.584778 6.591312 7.157928
v 12.595065 6.605325 7.154994
v 12.590465 6.607971 7.150768
v 12.588656 6.601744 7.157545
v 12.584884 6.604795 7.144755
v 12.585794 6.605496 7.152668
v 12.582030 6.598744 7.157657
v 12.586024 6.591413 7.145245
v 12.576580 6.588877 7.156157
v 12.574766 6.596582 7.156087
v 12.580111 6.589656 7.143967
v 12.559559 6.586663 7.148204
v 12.565474 6.587801 7.137055
v 12.558722 6.594507 7.148561
v 12.577204 6.602009 7.143855
v 12.564130 6.600388 7.137626
v 12.581622 6.603322 7.144809
v 12.575000 6.601522 7.151468
v 12.560443 6.599679 7.144575
v 12.580842 6.603258 7.152742
vn 0.5047 -0.7004 -0.5047
vn -0.6587 -0.0117 -0.7523
vn -0.4554 0.1985 -0.8679
vn 0.3949 -0.7626 -0.5123
vn -0.0979 0.3797 -0.9199
vn 0.6438 0.0671 0.7623
vn 0.3234 -0.8456 -0.4247
vn 0.0981 0.4277 -0.8986
vn 0.4375 -0.0907 0.8947
vn -0.3121 0.6835 0.6598
vn 0.2468 -0.8737 -0.4192
vn 0.2868 0.4518 -0.8447
vn 0.0745 -0.3411 0.9371
vn -0.3349 0.6895 0.6422
vn 0.1829 -0.8754 -0.4474
vn 0.5551 0.4291 -0.7126
vn -0.1139 -0.4046 0.9074
vn -0.2874 0.6812 0.6733
vn -0.6325 0.7740 -0.0275
vn -0.7874 0.6150 0.0431
vn -0.3488 0.9365 -0.0353
vn -0.1931 0.9811 -0.0118
vn -0.2787 0.6791 0.6791
vn -0.0434 0.9989 0.0197
vn -0.3032 -0.4214 0.8547
vn -0.2729 0.6842 0.6763
vn 0.1462 0.9835 0.1066
vn 0.1288 -0.8545 -0.5033
vn 0.8487 0.2961 -0.4382
vn 0.3583 0.8857 0.2952
vn 0.0898 -0.8084 -0.5818
vn 0.9955 0.0275 -0.0905
vn -0.5632 -0.3899 0.7286
vn 0.0507 -0.7764 -0.6282
vn 0.9774 -0.1609 0.1374
vn -0.8513 -0.2393 0.4669
vn -0.2728 0.6998 0.6602
vn -0.2726 0.7150 0.6438
vn -0.9944 -0.0039 0.1053
vn -0.0039 -0.7376 -0.6752
vn 0.9651 -0.1851 0.1852
vn 0.4532 0.7211 0.5241
vn -0.2881 0.7301 0.6196
vn 0.4141 0.6113 0.6744
vn -0.9758 0.1763 -0.1293
vn -0.3275 0.7458 0.5801
vn 0.3669 0.5563 0.7456
vn -0.0273 -0.6749 -0.7374
vn 0.9848 -0.1059 0.1373
vn -0.9663 0.2073 -0.1526
vn -0.0117 -0.5716 -0.8204
vn 0.9968 0.0276 0.0749
vn -0.3676 0.6996 0.6127
vn -0.9872 0.1366 -0.0819
vn -0.0116 -0.4237 -0.9057
vn 0.9791 0.2005 0.0354
vn -0.4059 0.5714 0.7133
vn -0.0428 -0.2138 -0.9759
vn 0.9267 0.3747 0.0276
vn -1.0000 0.0039 -0.0039
vn -0.1052 0.0351 -0.9938
vn 0.8613 0.5074 0.0275
vn -0.9802 -0.1835 0.0742
vn -0.4276 0.3806 0.8200
vn 0.3358 0.4939 0.8021
vn 0.3206 0.3997 0.8588
vn 0.3275 0.2486 0.9116
vn -0.4049 0.1062 0.9082
vn 0.3833 0.0751 0.9206
vn -0.3093 -0.2075 0.9280
vn -0.9151 -0.3933 0.0896
vn 0.4547 -0.0435 0.8896
vn -0.1837 0.2228 -0.9574
vn 0.8626 0.5003 -0.0748
vn 0.4768 0.0197 0.8788
vn -0.0976 0.2147 -0.9718
vn 0.9664 0.2170 -0.1380
vn -0.8486 -0.5279 0.0352
vn 0.0896 -0.1908 -0.9775
vn 0.9960 -0.0670 0.0592
vn -0.8763 -0.4791 -0.0507
vn -0.1917 -0.4342 0.8802
vn -0.2166 -0.3741 0.9017
vn -0.9518 -0.2781 -0.1293
vn 0.1290 -0.6527 -0.7465
vn 0.9602 -0.1541 0.2331
vn 0.4065 0.2960 0.8644
vn -0.3961 0.0903 0.9138
vn 0.3589 0.5720 0.7376
vn -0.9772 -0.0506 -0.2063
vn -0.4529 0.6104 0.6498
vn 0.3360 0.7154 0.6126
vn 0.0508 -0.8328 -0.5513
vn 0.8920 -0.1847 0.4126
vn 0.3122 0.6835 0.6598
vn 0.1055 -0.8478 -0.5197
vn 0.6888 -0.3660 0.6258
vn -0.9566 0.0898 -0.2772
vn 0.1605 -0.8182 -0.5520
vn 0.4126 -0.5384 0.7348
vn -0.9087 0.2067 -0.3627
vn -0.4135 0.8152 0.4056
vn -0.3654 0.8527 0.3733
vn -0.7148 0.3632 -0.5976
vn 0.2220 -0.7595 -0.6115
vn 0.1691 -0.6647 0.7277
vn 0.1776 0.5486 0.8170
vn -0.3344 0.8617 0.3817
vn -0.0435 0.4229 0.9051
vn -0.4415 0.5900 -0.6760
vn -0.3493 0.8596 0.3729
vn -0.2240 0.3340 0.9156
vn 0.3157 -0.6977 -0.6431
vn -0.0743 -0.7320 0.6772
vn -0.3659 0.2872 0.8852
vn 0.3555 -0.6914 -0.6289
vn -0.1998 -0.7562 0.6230
vn 0.3866 -0.6599 -0.6442
vn -0.4436 0.2787 0.8518
vn 0.0669 0.7438 -0.6651
vn 0.1933 0.7611 -0.6191
vn -0.1844 0.6710 -0.7181
vn -0.3264 0.8613 0.3894
vn -0.2947 0.8763 0.3812
vn -0.3644 0.8502 0.3800
vt 0.600586 0.567383
vt 0.595703 0.567383
vt 0.595703 0.596191
vt 0.600586 0.596191
vt 0.595703 0.601318
vt 0.605957 0.567383
vt 0.600586 0.601318
vt 0.595703 0.607422
vt 0.605957 0.596191
vt 0.609375 0.567383
vt 0.600586 0.607422
vt 0.595703 0.614990
vt 0.605957 0.601318
vt 0.609375 0.596191
vt 0.600586 0.614990
vt 0.595703 0.622803
vt 0.605957 0.607422
vt 0.609375 0.601318
vt 0.613281 0.596191
vt 0.613281 0.567383
vt 0.616699 0.567383
vt 0.616699 0.596191
vt 0.613281 0.601318
vt 0.616699 0.601318
vt 0.613281 0.607422
vt 0.616699 0.607422
vt 0.609375 0.607422
vt 0.613281 0.614990
vt 0.616699 0.614990
vt 0.605957 0.614990
vt 0.609375 0.614990
vt 0.613281 0.622803
vt 0.616699 0.622803
vt 0.600586 0.622803
vt 0.595703 0.630615
vt 0.613281 0.630615
vt 0.616699 0.630615
vt 0.600586 0.630615
vt 0.595703 0.639648
vt 0.605957 0.622803
vt 0.600586 0.639648
vt 0.595703 0.653320
vt 0.605957 0.630615
vt 0.609375 0.622803
vt 0.609375 0.630615
vt 0.605957 0.639648
vt 0.600586 0.653320
vt 0.595703 0.713379
vt 0.613281 0.639648
vt 0.616699 0.639648
vt 0.609375 0.639648
vt 0.613281 0.653320
vt 0.616699 0.653320
vt 0.605957 0.653320
vt 0.609375 0.653320
vt 0.613281 0.713379
vt 0.616699 0.713379
vt 0.600586 0.713379
vt 0.595703 0.720703
vt 0.605957 0.713379
vt 0.600586 0.720703
vt 0.595703 0.728027
vt 0.609375 0.713379
vt 0.605957 0.720703
vt 0.600586 0.728027
vt 0.595703 0.733154
vt 0.609375 0.720703
vt 0.600586 0.733154
vt 0.595703 0.738525
vt 0.605957 0.728027
vt 0.600586 0.738525
vt 0.595703 0.749268
vt 0.605957 0.733154
vt 0.609375 0.728027
vt 0.613281 0.720703
vt 0.616699 0.720703
vt 0.613281 0.728027
vt 0.616699 0.728027
vt 0.613281 0.733154
vt 0.616699 0.733154
vt 0.609375 0.733154
vt 0.613281 0.738525
vt 0.616699 0.738525
vt 0.609375 0.738525
vt 0.605957 0.738525
vt 0.613281 0.749268
vt 0.616699 0.749268
vt 0.600586 0.749268
vt 0.595703 0.770874
vt 0.613281 0.770874
vt 0.616699 0.770874
vt 0.600586 0.770874
vt 0.595703 0.778442
vt 0.605957 0.749268
vt 0.600586 0.778442
vt 0.595703 0.784912
vt 0.605957 0.770874
vt 0.609375 0.749268
vt 0.609375 0.770874
vt 0.605957 0.778442
vt 0.600586 0.784912
vt 0.595703 0.792236
vt 0.613281 0.778442
vt 0.616699 0.778442
vt 0.609375 0.778442
vt 0.613281 0.784912
vt 0.616699 0.784912
vt 0.605957 0.784912
vt 0.609375 0.784912
vt 0.613281 0.792236
vt 0.616699 0.792236
vt 0.600586 0.792236
vt 0.595703 0.807129
vt 0.613281 0.807129
vt 0.616699 0.807129
vt 0.600586 0.807129
vt 0.595703 0.812744
vt 0.605957 0.792236
vt 0.600586 0.812744
vt 0.595703 0.817505
vt 0.605957 0.807129
vt 0.609375 0.792236
vt 0.609375 0.807129
vt 0.605957 0.812744
vt 0.600586 0.817505
vt 0.595703 0.822510
vt 0.613281 0.812744
vt 0.616699 0.812744
vt 0.609375 0.812744
vt 0.613281 0.817505
vt 0.616699 0.817505
vt 0.605957 0.817505
vt 0.609375 0.817505
vt 0.613281 0.822510
vt 0.616699 0.822510
vt 0.600586 0.822510
vt 0.595703 0.828003
vt 0.613281 0.828003
vt 0.616699 0.828003
vt 0.600586 0.828003
vt 0.595703 0.841797
vt 0.600586 0.841797
vt 0.616699 0.841797
vt 0.613281 0.841797
vt 0.605957 0.828003
vt 0.605957 0.841797
vt 0.605957 0.822510
vt 0.609375 0.828003
vt 0.609375 0.841797
vt 0.609375 0.822510
s 1
usemtl MASTER_Focus
f 1/1/1 2/2/2 3/3/3
f 4/4/4 1/1/1 3/3/3
f 4/4/4 3/3/3 5/5/5
f 6/6/6 1/1/1 4/4/4
f 7/7/7 4/4/4 5/5/5
f 7/7/7 5/5/5 8/8/8
f 9/9/9 6/6/6 4/4/4
f 9/9/9 4/4/4 7/7/7
f 10/10/10 6/6/6 9/9/9
f 11/11/11 7/7/7 8/8/8
f 11/11/11 8/8/8 12/12/12
f 13/13/13 9/9/9 7/7/7
f 13/13/13 7/7/7 11/11/11
f 14/14/14 10/10/10 9/9/9
f 14/14/14 9/9/9 13/13/13
f 15/15/15 11/11/11 12/12/12
f 15/15/15 12/12/12 16/16/16
f 17/17/17 13/13/13 11/11/11
f 17/17/17 11/11/11 15/15/15
f 18/18/18 14/14/14 13/13/13
f 18/18/18 13/13/13 17/17/17
f 10/10/10 14/14/14 19/19/19
f 20/20/20 10/10/10 19/19/19
f 2/21/2 20/20/20 19/19/19
f 3/22/3 2/21/2 19/19/19
f 19/19/19 14/14/14 21/23/21
f 3/22/3 19/19/19 21/23/21
f 14/14/14 18/18/18 21/23/21
f 5/24/5 3/22/3 21/23/21
f 5/24/5 21/23/21 22/25/22
f 21/23/21 18/18/18 22/25/22
f 8/26/8 5/24/5 22/25/22
f 18/18/18 23/27/23 22/25/22
f 23/27/23 18/18/18 17/17/17
f 8/26/8 22/25/22 24/28/24
f 22/25/22 23/27/23 24/28/24
f 12/29/12 8/26/8 24/28/24
f 23/27/23 17/17/17 25/30/25
f 25/30/25 17/17/17 15/15/15
f 23/27/23 26/31/26 24/28/24
f 26/31/26 23/27/23 25/30/25
f 12/29/12 24/28/24 27/32/27
f 24/28/24 26/31/26 27/32/27
f 16/33/16 12/29/12 27/32/27
f 25/30/25 15/15/15 28/34/28
f 28/34/28 15/15/15 16/16/16
f 28/34/28 16/16/16 29/35/29
f 16/33/16 27/32/27 30/36/30
f 29/37/29 16/33/16 30/36/30
f 31/38/31 28/34/28 29/35/29
f 31/38/31 29/35/29 32/39/32
f 33/40/33 25/30/25 28/34/28
f 33/40/33 28/34/28 31/38/31
f 26/31/26 25/30/25 33/40/33
f 34/41/34 31/38/31 32/39/32
f 34/41/34 32/39/32 35/42/35
f 36/43/36 33/40/33 31/38/31
f 36/43/36 31/38/31 34/41/34
f 37/44/37 26/31/26 33/40/33
f 37/44/37 33/40/33 36/43/36
f 26/31/26 37/44/37 27/32/27
f 27/32/27 37/44/37 30/36/30
f 38/45/38 37/44/37 36/43/36
f 37/44/37 38/45/38 30/36/30
f 39/46/39 36/43/36 34/41/34
f 38/45/38 36/43/36 39/46/39
f 40/47/40 34/41/34 35/42/35
f 39/46/39 34/41/34 40/47/40
f 40/47/40 35/42/35 41/48/41
f 30/36/30 38/45/38 42/49/42
f 29/37/29 30/36/30 42/49/42
f 32/50/32 29/37/29 42/49/42
f 43/51/43 38/45/38 39/46/39
f 38/45/38 43/51/43 42/49/42
f 32/50/32 42/49/42 44/52/44
f 42/49/42 43/51/43 44/52/44
f 35/53/35 32/50/32 44/52/44
f 43/51/43 39/46/39 45/54/45
f 45/54/45 39/46/39 40/47/40
f 43/51/43 46/55/46 44/52/44
f 46/55/46 43/51/43 45/54/45
f 35/53/35 44/52/44 47/56/47
f 44/52/44 46/55/46 47/56/47
f 41/57/41 35/53/35 47/56/47
f 45/54/45 40/47/40 48/58/48
f 48/58/48 40/47/40 41/48/41
f 48/58/48 41/48/41 49/59/49
f 50/60/50 45/54/45 48/58/48
f 46/55/46 45/54/45 50/60/50
f 51/61/51 48/58/48 49/59/49
f 50/60/50 48/58/48 51/61/51
f 51/61/51 49/59/49 52/62/52
f 53/63/53 46/55/46 50/60/50
f 46/55/46 53/63/53 47/56/47
f 54/64/54 50/60/50 51/61/51
f 53/63/53 50/60/50 54/64/54
f 55/65/55 51/61/51 52/62/52
f 54/64/54 51/61/51 55/65/55
f 55/65/55 52/62/52 56/66/56
f 57/67/57 53/63/53 54/64/54
f 58/68/58 55/65/55 56/66/56
f 58/68/58 56/66/56 59/69/59
f 60/70/60 54/64/54 55/65/55
f 60/70/60 55/65/55 58/68/58
f 57/67/57 54/64/54 60/70/60
f 61/71/61 58/68/58 59/69/59
f 61/71/61 59/69/59 62/72/62
f 63/73/63 60/70/60 58/68/58
f 63/73/63 58/68/58 61/71/61
f 64/74/64 57/67/57 60/70/60
f 64/74/64 60/70/60 63/73/63
f 53/63/53 57/67/57 65/75/65
f 57/67/57 64/74/64 65/75/65
f 47/56/47 53/63/53 65/75/65
f 41/57/41 47/56/47 65/75/65
f 49/76/49 41/57/41 65/75/65
f 49/76/49 65/75/65 66/77/66
f 64/74/64 66/77/66 65/75/65
f 52/78/52 49/76/49 66/77/66
f 52/78/52 66/77/66 67/79/67
f 66/77/66 64/74/64 67/79/67
f 56/80/56 52/78/52 67/79/67
f 64/74/64 68/81/68 67/79/67
f 68/81/68 64/74/64 63/73/63
f 56/80/56 67/79/67 69/82/69
f 59/83/59 56/80/56 69/82/69
f 68/81/68 70/84/70 67/79/67
f 70/84/70 69/82/69 67/79/67
f 68/81/68 63/73/63 71/85/71
f 70/84/70 68/81/68 71/85/71
f 71/85/71 63/73/63 61/71/61
f 59/83/59 69/82/69 72/86/72
f 69/82/69 70/84/70 72/86/72
f 62/87/62 59/83/59 72/86/72
f 71/85/71 61/71/61 73/88/73
f 73/88/73 61/71/61 62/72/62
f 73/88/73 62/72/62 74/89/74
f 62/87/62 72/86/72 75/90/75
f 74/91/74 62/87/62 75/90/75
f 76/92/76 73/88/73 74/89/74
f 76/92/76 74/89/74 77/93/77
f 78/94/78 71/85/71 73/88/73
f 78/94/78 73/88/73 76/92/76
f 70/84/70 71/85/71 78/94/78
f 79/95/79 76/92/76 77/93/77
f 79/95/79 77/93/77 80/96/80
f 81/97/81 78/94/78 76/92/76
f 81/97/81 76/92/76 79/95/79
f 82/98/82 70/84/70 78/94/78
f 82/98/82 78/94/78 81/97/81
f 70/84/70 82/98/82 72/86/72
f 72/86/72 82/98/82 75/90/75
f 83/99/83 82/98/82 81/97/81
f 82/98/82 83/99/83 75/90/75
f 84/100/84 81/97/81 79/95/79
f 83/99/83 81/97/81 84/100/84
f 85/101/85 79/95/79 80/96/80
f 84/100/84 79/95/79 85/101/85
f 85/101/85 80/96/80 86/102/86
f 75/90/75 83/99/83 87/103/87
f 74/91/74 75/90/75 87/103/87
f 77/104/77 74/91/74 87/103/87
f 88/105/88 83/99/83 84/100/84
f 83/99/83 88/105/88 87/103/87
f 77/104/77 87/103/87 89/106/89
f 87/103/87 88/105/88 89/106/89
f 80/107/80 77/104/77 89/106/89
f 88/105/88 84/100/84 90/108/90
f 90/108/90 84/100/84 85/101/85
f 88/105/88 91/109/91 89/106/89
f 91/109/91 88/105/88 90/108/90
f 80/107/80 89/106/89 92/110/92
f 89/106/89 91/109/91 92/110/92
f 86/111/86 80/107/80 92/110/92
f 90/108/90 85/101/85 93/112/93
f 93/112/93 85/101/85 86/102/86
f 93/112/93 86/102/86 94/113/94
f 86/111/86 92/110/92 95/114/95
f 94/115/94 86/111/86 95/114/95
f 96/116/96 93/112/93 94/113/94
f 96/116/96 94/113/94 97/117/97
f 98/118/98 90/108/90 93/112/93
f 98/118/98 93/112/93 96/116/96
f 91/109/91 90/108/90 98/118/98
f 99/119/99 96/116/96 97/117/97
f 99/119/99 97/117/97 100/120/100
f 101/121/101 98/118/98 96/116/96
f 101/121/101 96/116/96 99/119/99
f 102/122/102 91/109/91 98/118/98
f 102/122/102 98/118/98 101/121/101
f 91/109/91 102/122/102 92/110/92
f 92/110/92 102/122/102 95/114/95
f 103/123/103 102/122/102 101/121/101
f 102/122/102 103/123/103 95/114/95
f 104/124/104 101/121/101 99/119/99
f 103/123/103 101/121/101 104/124/104
f 105/125/105 99/119/99 100/120/100
f 104/124/104 99/119/99 105/125/105
f 105/125/105 100/120/100 106/126/106
f 95/114/95 103/123/103 107/127/107
f 94/115/94 95/114/95 107/127/107
f 97/128/97 94/115/94 107/127/107
f 108/129/108 103/123/103 104/124/104
f 103/123/103 108/129/108 107/127/107
f 97/128/97 107/127/107 109/130/109
f 107/127/107 108/129/108 109/130/109
f 100/131/100 97/128/97 109/130/109
f 108/129/108 104/124/104 110/132/110
f 110/132/110 104/124/104 105/125/105
f 108/129/108 111/133/111 109/130/109
f 111/133/111 108/129/108 110/132/110
f 100/131/100 109/130/109 112/134/112
f 109/130/109 111/133/111 112/134/112
f 106/135/106 100/131/100 112/134/112
f 110/132/110 105/125/105 113/136/113
f 113/136/113 105/125/105 106/126/106
f 113/136/113 106/126/106 114/137/114
f 106/135/106 112/134/112 115/138/115
f 114/139/114 106/135/106 115/138/115
f 116/140/116 113/136/113 114/137/114
f 116/140/116 114/137/114 117/141/117
f 118/142/118 116/140/116 117/141/117
f 117/143/117 114/139/114 119/144/119
f 114/139/114 115/138/115 119/144/119
f 120/145/120 116/140/116 118/142/118
f 121/146/121 120/145/120 118/142/118
f 122/147/122 113/136/113 116/140/116
f 120/145/120 122/147/122 116/140/116
f 122/147/122 110/132/110 113/136/113
f 111/133/111 110/132/110 122/147/122
f 123/148/123 120/145/120 121/146/121
f 124/149/124 123/148/123 121/146/121
f 123/148/123 124/149/124 119/144/119
f 115/138/115 123/148/123 119/144/119
f 125/150/125 122/147/122 120/145/120
f 123/148/123 125/150/125 120/145/120
f 125/150/125 111/133/111 122/147/122
f 125/150/125 123/148/123 115/138/115
f 111/133/111 125/150/125 112/134/112
f 112/134/112 125/150/125 115/138/115
