# Blender 3.6.18
# www.blender.org
mtllib Mesh.503.mtl
o Bistro_Research_Exterior_paris_building_11_5555
v 3.055115 1.440880 21.734161
v 3.684742 1.440880 21.991402
v 3.295883 1.440880 21.144793
v 3.925510 1.440878 21.402031
v 3.326017 0.351999 21.071030
v 3.326016 1.355353 21.071030
v 3.955643 0.351999 21.328268
v 3.955643 1.355353 21.328268
v 3.303867 1.431616 21.125250
v 3.933493 1.431614 21.382490
v 3.322793 1.377205 21.078917
v 3.952420 1.377205 21.336157
v 3.286236 1.428292 21.133221
v 3.042796 1.428292 21.729128
v 3.697061 1.428292 21.996433
v 3.940500 1.428290 21.400524
v 3.308938 0.351999 21.077650
v 3.308937 1.367941 21.077648
v 3.963201 1.367941 21.344955
v 3.963201 0.351999 21.344955
v 3.042797 0.351999 21.729128
v 3.042796 1.367941 21.729128
v 3.697061 0.351999 21.996433
v 3.697061 1.367941 21.996433
vn -0.0039 1.0000 -0.0039
vn 0.3720 -0.0039 -0.9282
vn 0.3721 -0.0039 -0.9282
vn 0.2714 0.6727 -0.6884
vn -0.3264 0.8613 -0.3894
vn -0.4810 0.7000 -0.5279
vn -0.6379 0.7241 -0.2622
vn 0.6346 0.7292 0.2562
vn 0.5010 0.8639 -0.0513
vn 0.6346 0.7291 0.2562
vn 0.7104 0.7025 -0.0432
vn -0.3626 -0.0039 -0.9319
vn -0.0818 0.1910 -0.9782
vn -0.2922 0.3234 -0.9000
vn 0.5635 0.7684 -0.3034
vn 0.6642 0.4441 -0.6013
vn 0.8353 0.3255 -0.4431
vn -0.0664 0.4415 -0.8948
vn -0.1996 0.7632 -0.6145
vn 0.7358 0.1928 -0.6492
vn 0.9074 -0.0039 -0.4203
vn 0.8353 0.3255 -0.4432
vn -0.9255 -0.0039 -0.3788
vn 0.9271 -0.0039 0.3748
vt 0.600098 0.612061
vt 0.399414 0.612061
vt 0.600098 0.413086
vt 0.399414 0.413086
vt 0.600098 0.330078
vt 0.600098 0.643555
vt 0.399414 0.330078
vt 0.399414 0.643555
vt 0.600098 0.667480
vt 0.399414 0.667480
vt 0.600098 0.650391
vt 0.399414 0.650391
vt 0.412842 0.670166
vt 0.410645 0.666260
vt 0.611816 0.670166
vt 0.611816 0.666260
vt 0.395264 0.612061
vt 0.395508 0.411133
vt 0.387939 0.330078
vt 0.391846 0.330078
vt 0.387939 0.643555
vt 0.391846 0.647461
vt 0.593262 0.667480
vt 0.588867 0.666260
vt 0.609375 0.650635
vt 0.607910 0.647461
vt 0.390625 0.650391
vt 0.406250 0.667480
vt 0.399414 0.406738
vt 0.600098 0.406738
vt 0.604004 0.411133
vt 0.604492 0.647461
vt 0.395508 0.647461
vt 0.395508 0.330078
vt 0.611816 0.330078
vt 0.611816 0.647461
vt 0.607910 0.330078
vt 0.387939 0.647461
vt 0.387939 0.666260
s 1
usemtl MASTER_Concrete_Plaster
f 1/1/1 2/2/1 3/3/1
f 2/2/1 4/4/1 3/3/1
f 5/5/2 6/6/3 7/7/2
f 6/6/3 8/8/2 7/7/2
f 9/9/4 10/10/4 11/11/4
f 10/10/4 12/12/4 11/11/4
f 3/13/5 13/14/6 1/15/7
f 13/14/6 14/16/7 1/15/7
f 2/2/8 15/17/8 4/4/9
f 15/17/10 16/18/11 4/4/9
f 5/19/12 17/20/12 6/21/13
f 17/20/12 18/22/14 6/21/13
f 10/23/15 16/24/11 12/25/16
f 16/24/11 19/26/17 12/25/16
f 11/27/18 18/22/14 9/28/19
f 18/22/14 13/14/6 9/28/19
f 4/4/9 16/18/11 10/29/15
f 4/4/9 10/29/15 3/3/5
f 10/29/15 9/30/19 3/3/5
f 3/3/5 9/30/19 13/31/6
f 18/32/14 11/11/18 6/6/13
f 6/6/13 11/11/18 8/8/20
f 11/11/18 12/12/16 8/8/20
f 12/12/16 19/33/17 8/8/20
f 8/8/20 19/33/17 7/7/21
f 19/33/22 20/34/21 7/7/21
f 21/35/23 22/36/23 17/20/23
f 22/36/23 18/22/23 17/20/23
f 13/14/23 18/22/23 22/36/23
f 14/16/23 13/14/23 22/36/23
f 20/37/24 19/26/24 23/19/24
f 19/26/24 24/38/24 23/19/24
f 15/39/24 24/38/24 19/26/24
f 16/24/24 15/39/24 19/26/24
