# Blender 3.6.18
# www.blender.org
mtllib Mesh.1098.mtl
o Bistro_Research_Exterior_Paris_Building_01_paris_buildi_6d534a9
v 2.974082 20.796198 -3.048762
v 2.636914 20.796198 -3.884901
v 2.974082 17.887264 -3.048762
v 2.636914 17.887264 -3.884902
v 3.321650 17.887264 -2.186830
v 3.321649 20.796198 -2.186829
v 2.982507 17.887264 -3.027868
v 2.982507 20.796198 -3.027868
vn -0.9282 -0.0039 0.3720
vn -0.9282 -0.0039 0.3721
vt 0.497803 0.988487
vt 0.251221 0.988487
vt 0.497803 0.225098
vt 0.251221 0.225098
vt 0.249146 0.225098
vt 0.249146 0.988487
vt 0.002602 0.225098
vt 0.002602 0.988487
s 1
usemtl MASTER_Curtains
f 1/1/1 2/2/1 3/3/2
f 2/2/1 4/4/1 3/3/2
f 5/5/2 6/6/2 7/7/1
f 6/6/2 8/8/2 7/7/1
