# Blender 3.6.18
# www.blender.org
mtllib Mesh.354.mtl
o Bistro_Research_Exterior_paris_building_11_5881
v -4.004253 13.735183 25.850899
v -4.004252 16.112118 25.850899
v -4.055263 16.112118 25.819553
v -4.055263 13.735183 25.819555
v -4.062078 16.112118 25.815367
v -4.062079 13.735185 25.815367
v -4.040665 13.735185 25.769220
v -4.040664 16.112118 25.769220
v -4.032872 16.112118 25.771032
v -4.032873 13.735184 25.771032
v -3.973433 16.112118 25.784863
v -3.973433 13.735184 25.784859
v -4.058711 16.112116 25.808111
v -4.058712 13.735183 25.808111
v -4.044032 16.112116 25.776474
v -4.044032 13.735184 25.776474
vn -0.5283 -0.0039 0.8491
vn -0.5282 -0.0039 0.8491
vn -0.9584 -0.0039 0.2856
vn -0.4394 -0.0039 -0.8983
vn 0.2231 -0.0039 -0.9748
vn -0.9058 -0.0039 -0.4237
vt 0.801758 0.525879
vt 0.059052 0.525879
vt 0.059052 0.507568
vt 0.801758 0.507568
vt 0.059052 0.505127
vt 0.801758 0.505127
vt 0.198120 0.505859
vt 0.940918 0.505859
vt 0.940918 0.508301
vt 0.198120 0.508301
vt 0.940918 0.527100
vt 0.198120 0.527100
vt 0.198120 0.379883
vt 0.940918 0.379883
vt 0.940918 0.382324
vt 0.198120 0.382324
vt 0.940918 0.393555
vt 0.198120 0.393555
vt 0.940918 0.395996
vt 0.198120 0.395996
s 1
usemtl MASTER_Wood_Painted_Green
f 1/1/1 2/2/2 3/3/2
f 4/4/1 1/1/1 3/3/2
f 4/4/1 3/3/2 5/5/3
f 6/6/3 4/4/1 5/5/3
f 7/7/4 8/8/4 9/9/5
f 10/10/5 7/7/4 9/9/5
f 10/10/5 9/9/5 11/11/5
f 12/12/5 10/10/5 11/11/5
f 6/13/3 5/14/3 13/15/6
f 14/16/6 6/13/3 13/15/6
f 14/16/6 13/15/6 15/17/6
f 16/18/6 14/16/6 15/17/6
f 16/18/6 15/17/6 8/19/4
f 7/20/4 16/18/6 8/19/4
