# Blender 3.6.18
# www.blender.org
mtllib Mesh.1177.mtl
o Bistro_Research_Exterior_Paris_Building_01_paris_buildi_ac92a05
v 2.595215 8.465672 2.725814
v 2.537354 8.443448 2.872865
v 2.583418 8.518138 2.711509
v 2.513801 8.491397 2.888439
v 3.320125 8.443447 3.180865
v 3.377986 8.465672 3.033812
v 3.326751 8.491396 3.208313
v 3.396369 8.518137 3.031383
v 2.507761 8.512890 2.890656
v 2.456817 8.670475 2.906113
v 2.578279 8.539977 2.711440
v 2.535142 8.700561 2.707054
v 3.400176 8.539975 3.034835
v 3.434736 8.700561 3.061020
v 3.329660 8.512889 3.214051
v 3.356411 8.670475 3.260079
v 2.575210 8.537954 2.706470
v 2.502383 8.509981 2.891559
v 2.577745 8.523715 2.704973
v 2.504689 8.495653 2.890643
v 3.332982 8.509979 3.218377
v 3.405809 8.537954 3.033288
v 3.331916 8.495652 3.216135
v 3.404973 8.523714 3.030464
v 3.398110 8.541422 3.022968
v 3.432671 8.702007 3.049152
v 3.390716 8.542295 3.013389
v 3.425276 8.702880 3.039574
v 2.556679 8.702881 2.697804
v 2.599816 8.542296 2.702192
v 2.587876 8.541423 2.704162
v 2.544740 8.702008 2.699775
v 3.346813 8.669027 3.267358
v 3.320062 8.511442 3.221330
v 3.334873 8.668155 3.269329
v 3.308121 8.510570 3.223300
v 2.517221 8.510570 2.912102
v 2.466278 8.668155 2.927558
v 2.458882 8.669027 2.917981
v 2.509827 8.511443 2.902524
v 2.551641 8.434580 2.882046
v 2.612776 8.458063 2.726673
v 3.303413 8.434578 3.177849
v 3.364549 8.458061 3.022476
v 2.514318 8.704383 2.692526
v 2.431374 8.672522 2.903323
v 2.427733 8.676262 2.903397
v 2.511305 8.708364 2.691000
v 2.510514 8.723708 2.693008
v 2.426943 8.691606 2.905405
v 2.433558 8.699946 2.903389
v 2.513201 8.730540 2.700977
v 3.376933 8.672522 3.275376
v 3.459877 8.704382 3.064577
v 3.463121 8.708364 3.065514
v 3.379549 8.676262 3.277911
v 3.378759 8.691606 3.279919
v 3.462330 8.723707 3.067523
v 3.454934 8.730539 3.071525
v 3.375290 8.699946 3.273937
v 2.515866 8.489949 2.900306
v 2.506958 8.494153 2.903890
v 2.523261 8.489077 2.909884
v 2.504698 8.508486 2.904817
v 2.512961 8.507631 2.915518
v 2.515164 8.493293 2.914586
v 3.308912 8.507630 3.228703
v 3.307935 8.493292 3.226520
v 3.305212 8.489077 3.217561
v 3.317153 8.489948 3.215591
v 3.322254 8.508484 3.226504
v 3.321229 8.494152 3.224284
v 3.394304 8.519584 3.019515
v 3.402692 8.525444 3.017248
v 3.386909 8.520456 3.009936
v 3.403482 8.539686 3.020061
v 3.395205 8.540777 3.009390
v 3.394475 8.526534 3.006581
v 2.599255 8.540778 2.696205
v 2.601703 8.526535 2.694648
v 2.604955 8.520458 2.702258
v 2.593015 8.519585 2.704229
v 2.585927 8.539687 2.698374
v 2.588421 8.525445 2.696854
v 3.460228 8.706503 3.048730
v 3.463499 8.710527 3.049130
v 3.453710 8.707882 3.035731
v 3.456945 8.711945 3.035723
v 3.462708 8.725870 3.051138
v 3.455209 8.732674 3.055326
v 3.456154 8.727288 3.037730
v 3.448623 8.734069 3.042075
v 2.537888 8.734070 2.683725
v 2.536126 8.711946 2.673405
v 2.535337 8.727289 2.675414
v 2.524038 8.732675 2.688934
v 2.538488 8.707884 2.675615
v 2.522193 8.710528 2.678751
v 2.524860 8.706504 2.680688
v 2.521403 8.725872 2.680759
v 2.431020 8.670458 2.919179
v 2.427354 8.674098 2.919782
v 2.437536 8.669105 2.932181
v 2.433908 8.672680 2.933189
v 2.426564 8.689442 2.921790
v 2.433282 8.697813 2.919588
v 2.433119 8.688024 2.935197
v 2.439867 8.696418 2.932839
v 3.350603 8.696418 3.291190
v 3.354727 8.672680 3.295506
v 3.353936 8.688024 3.297514
v 3.364454 8.697812 3.285979
v 3.352758 8.669106 3.292298
v 3.368659 8.674099 3.290161
v 3.366388 8.670458 3.287220
v 3.367871 8.689442 3.292169
v 3.376822 8.467782 3.022083
v 3.371080 8.468953 3.012775
v 2.614604 8.468954 2.715123
v 2.603665 8.468004 2.717528
v 2.538177 8.441919 2.884638
v 2.544170 8.441899 2.894129
v 3.300646 8.441897 3.191783
v 3.311631 8.443029 3.189538
v 3.410167 8.729748 3.059952
v 3.417418 8.728875 3.069475
v 2.553851 8.729750 2.723015
v 3.419397 8.727428 3.081309
v 2.542055 8.728876 2.725042
v 3.355949 8.703057 3.242559
v 3.398689 8.704108 3.089388
v 3.346437 8.701611 3.249872
v 3.348440 8.684807 3.217093
v 3.395209 8.704386 3.075999
v 3.336900 8.681989 3.224189
v 3.387315 8.706364 3.065820
v 3.324081 8.682074 3.226529
v 2.566576 8.706364 2.742881
v 3.334641 8.700738 3.251899
v 2.503341 8.682073 2.903591
v 2.478325 8.700737 2.914961
v 2.553863 8.704386 2.744952
v 2.495553 8.681988 2.893141
v 2.471072 8.701610 2.905438
v 2.532543 8.727430 2.732355
v 2.469094 8.703057 2.893605
v 2.542192 8.704110 2.752379
v 2.491944 8.684808 2.880085
vn -0.8716 -0.3010 -0.3870
vn -0.8716 -0.3010 -0.3869
vn -0.8716 -0.3009 -0.3870
vn 0.9031 -0.3037 0.3037
vn 0.9031 -0.3036 0.3036
vn -0.8866 -0.2539 -0.3867
vn -0.8866 -0.2539 -0.3866
vn 0.9121 -0.2566 0.3198
vn -0.4915 0.8689 -0.0590
vn -0.9167 -0.1287 -0.3783
vn -0.9167 -0.1287 -0.3784
vn -0.9166 -0.1287 -0.3784
vn -0.4640 -0.8305 -0.3080
vn 0.3914 0.8738 0.2886
vn 0.9308 -0.1296 0.3417
vn 0.5446 -0.8346 0.0823
vn 0.5447 -0.8346 0.0823
vn 0.9637 -0.1849 -0.1927
vn 0.3645 0.0666 -0.9288
vn 0.3644 0.0666 -0.9288
vn 0.3644 0.0667 -0.9288
vn -0.5781 -0.1824 -0.7953
vn 0.6039 -0.3197 0.7302
vn -0.3653 -0.2082 0.9073
vn -0.3652 -0.2082 0.9073
vn -0.9409 -0.3162 0.1211
vn -0.9409 -0.3162 0.1210
vn 0.0509 -0.9893 -0.1369
vn 0.0508 -0.9893 -0.1368
vn -0.0665 -0.9821 -0.1761
vn -0.9293 -0.0039 -0.3694
vn -0.9293 -0.0039 -0.3693
vn -0.0591 0.9897 0.1301
vn 0.1606 -0.9829 -0.0901
vn 0.9309 -0.0039 0.3653
vn -0.0592 0.9897 0.1302
vn -0.0592 0.9897 0.1301
vn -0.4328 -0.9008 -0.0351
vn -0.9750 -0.1684 0.1449
vn -0.1835 -0.8705 0.4567
vn -0.9750 -0.1683 0.1449
vn -0.3494 0.8755 0.3337
vn -0.3653 -0.1218 0.9229
vn -0.2009 0.8469 0.4924
vn -0.3653 -0.1217 0.9229
vn 0.3325 -0.9036 0.2699
vn 0.6095 -0.1690 0.7746
vn 0.0197 0.8755 0.4829
vn 0.6095 -0.1691 0.7746
vn 0.5190 -0.8313 -0.1990
vn 0.9839 -0.0274 -0.1764
vn 0.2612 -0.6980 -0.6668
vn 0.9839 -0.0275 -0.1764
vn 0.2476 0.9630 -0.1061
vn 0.3564 0.1606 -0.9204
vn 0.0982 0.9619 -0.2552
vn 0.2613 -0.6980 -0.6668
vn -0.2526 -0.8276 -0.5012
vn -0.6029 -0.0272 -0.7973
vn -0.1217 0.9613 -0.2472
vn -0.6029 -0.0272 -0.7974
vn 0.1597 -0.9777 -0.1364
vn 0.9987 0.0434 0.0276
vn 0.1210 -0.9409 -0.3162
vn 0.3577 0.1375 -0.9237
vn 0.9987 0.0434 0.0277
vn -0.0591 0.9897 0.1302
vn 0.3577 0.1376 -0.9237
vn -0.7516 0.0429 -0.6582
vn -0.0272 -0.9765 -0.2140
vn -0.0665 -0.9894 -0.1290
vn -0.9981 -0.0509 -0.0353
vn -0.0274 -0.9979 0.0587
vn -0.3667 -0.1459 0.9188
vn -0.9981 -0.0509 -0.0352
vn -0.3668 -0.1459 0.9188
vn 0.7518 -0.0512 0.6574
vn 0.1214 -0.9913 -0.0509
vn 0.9255 -0.3348 -0.1772
vn 0.3560 -0.1682 -0.9192
vn 0.3559 -0.1682 -0.9192
vn -0.5785 -0.3223 -0.7493
vn -0.5785 -0.3222 -0.7493
vn -0.8925 -0.4482 0.0507
vn -0.3336 -0.4356 0.8360
vn -0.3336 -0.4357 0.8360
vn 0.6153 -0.4507 0.6467
vn -0.7713 0.5990 -0.2153
vn 0.0354 0.9863 0.1611
vn -0.1452 0.9853 0.0903
vn 0.7070 0.6043 0.3673
vt 0.918945 0.151855
vt 0.869141 0.151855
vt 0.924316 0.135254
vt 0.864258 0.135254
vt 0.861328 0.374512
vt 0.811523 0.374512
vt 0.866211 0.357910
vt 0.806152 0.357910
vt 0.863770 0.126465
vt 0.860352 0.074707
vt 0.924316 0.126465
vt 0.927734 0.074707
vt 0.805664 0.349121
vt 0.802246 0.297363
vt 0.866699 0.349121
vt 0.870117 0.297363
vt 0.925781 0.127930
vt 0.862793 0.127930
vt 0.925781 0.132324
vt 0.862793 0.132324
vt 0.867676 0.350586
vt 0.804688 0.350586
vt 0.867676 0.355469
vt 0.804688 0.355469
vt 0.527344 0.504150
vt 0.515137 0.554688
vt 0.511230 0.554199
vt 0.523438 0.503418
vt 0.506836 0.553711
vt 0.519531 0.503418
vt 0.227905 0.503418
vt 0.240601 0.553711
vt 0.236206 0.554199
vt 0.224121 0.503418
vt 0.232300 0.554688
vt 0.220337 0.504150
vt 0.232056 0.349609
vt 0.220093 0.298828
vt 0.223877 0.298340
vt 0.236084 0.349121
vt 0.227661 0.298340
vt 0.240356 0.348633
vt 0.506836 0.348633
vt 0.519531 0.298340
vt 0.523438 0.298340
vt 0.511230 0.349121
vt 0.526855 0.298828
vt 0.515137 0.349609
vt 0.196655 0.736328
vt 0.190796 0.734863
vt 0.190796 0.685059
vt 0.196655 0.683594
vt 0.448975 0.736328
vt 0.448975 0.683594
vt 0.454834 0.734863
vt 0.454834 0.685059
vt 0.951172 0.496582
vt 1.018555 0.496582
vt 0.949219 0.504150
vt 1.020508 0.504150
vt 1.020508 0.505859
vt 0.948730 0.505859
vt 0.948730 0.510742
vt 1.020508 0.510742
vt 1.018555 0.513672
vt 0.950684 0.513672
vt 0.789551 0.499512
vt 0.856934 0.499512
vt 0.787598 0.507324
vt 0.858887 0.507324
vt 0.859375 0.508789
vt 0.787109 0.508789
vt 0.787109 0.513672
vt 0.859375 0.513672
vt 0.857422 0.516602
vt 0.789062 0.516602
vt 0.512695 0.359863
vt 0.508789 0.358398
vt 0.514160 0.356445
vt 0.510254 0.354980
vt 0.515137 0.351562
vt 0.504883 0.357422
vt 0.511230 0.351074
vt 0.507324 0.350098
vt 0.506348 0.354492
vt 0.239990 0.350098
vt 0.240723 0.354492
vt 0.242065 0.357422
vt 0.238159 0.358398
vt 0.236084 0.351074
vt 0.236938 0.354980
vt 0.234497 0.359863
vt 0.233154 0.356445
vt 0.232056 0.351562
vt 0.514160 0.561523
vt 0.512695 0.564941
vt 0.509277 0.563477
vt 0.510254 0.560303
vt 0.515137 0.556641
vt 0.505371 0.562500
vt 0.511230 0.556152
vt 0.507324 0.555664
vt 0.506836 0.559814
vt 0.240234 0.555664
vt 0.240845 0.559814
vt 0.242310 0.562500
vt 0.238403 0.563477
vt 0.236328 0.556152
vt 0.237183 0.560303
vt 0.234741 0.564941
vt 0.233398 0.561523
vt 0.232300 0.556641
vt 0.557129 0.822266
vt 0.553711 0.819946
vt 0.563965 0.817261
vt 0.560059 0.814331
vt 0.548828 0.818359
vt 0.561035 0.812988
vt 0.565430 0.814941
vt 0.566406 0.809326
vt 0.556152 0.813110
vt 0.257080 0.818359
vt 0.557129 0.812012
vt 0.561523 0.808350
vt 0.567871 0.805786
vt 0.562012 0.805176
vt 0.557129 0.807617
vt 0.556152 0.804565
vt 0.249878 0.804565
vt 0.249268 0.812134
vt 0.249023 0.807617
vt 0.244019 0.805176
vt 0.250000 0.813110
vt 0.252686 0.819946
vt 0.245239 0.812988
vt 0.245972 0.814331
vt 0.249268 0.822266
vt 0.242310 0.817261
vt 0.240845 0.814941
vt 0.244629 0.808350
vt 0.239746 0.809326
vt 0.238525 0.805908
vt 0.249146 0.859375
vt 0.252441 0.861694
vt 0.242188 0.864380
vt 0.245972 0.867310
vt 0.257080 0.863281
vt 0.245239 0.868652
vt 0.240723 0.866699
vt 0.239624 0.872314
vt 0.249878 0.868530
vt 0.548828 0.863281
vt 0.249146 0.869629
vt 0.244629 0.873291
vt 0.238403 0.875732
vt 0.243896 0.876465
vt 0.248901 0.874023
vt 0.249756 0.877075
vt 0.556152 0.877075
vt 0.556641 0.869507
vt 0.557129 0.874023
vt 0.562012 0.876465
vt 0.556152 0.868530
vt 0.553223 0.861694
vt 0.560547 0.868652
vt 0.560059 0.867310
vt 0.556641 0.859375
vt 0.563965 0.864380
vt 0.565430 0.866699
vt 0.561523 0.873291
vt 0.566406 0.872314
vt 0.567383 0.875732
vt 0.506836 0.581787
vt 0.503906 0.579590
vt 0.500488 0.583496
vt 0.500977 0.578613
vt 0.246826 0.578613
vt 0.247192 0.583496
vt 0.243774 0.579590
vt 0.240845 0.581787
vt 0.506348 0.376465
vt 0.503418 0.374512
vt 0.500000 0.378418
vt 0.500488 0.373535
vt 0.246582 0.373535
vt 0.246948 0.378418
vt 0.243530 0.374023
vt 0.240601 0.376465
vt 0.559082 0.153809
vt 0.246338 0.153809
vt 0.549805 0.144043
vt 0.553223 0.141602
vt 0.562988 0.150391
vt 0.255615 0.144043
vt 0.242432 0.150391
vt 0.555664 0.137695
vt 0.564941 0.144531
vt 0.251953 0.141602
vt 0.240356 0.144531
vt 0.555664 0.081055
vt 0.564941 0.073730
vt 0.547852 0.131348
vt 0.553223 0.077148
vt 0.562988 0.068359
vt 0.547852 0.087402
vt 0.545410 0.134766
vt 0.545410 0.083984
vt 0.542969 0.136719
vt 0.542969 0.081543
vt 0.262451 0.136719
vt 0.549805 0.074219
vt 0.559082 0.064941
vt 0.262451 0.081543
vt 0.255615 0.074219
vt 0.246338 0.064941
vt 0.259766 0.134766
vt 0.259766 0.083984
vt 0.251953 0.077148
vt 0.242432 0.068359
vt 0.249756 0.137695
vt 0.240356 0.073730
vt 0.249756 0.081055
vt 0.257568 0.131348
vt 0.257568 0.087402
s 1
usemtl MASTER_Plastic
f 1/1/1 2/2/1 3/3/2
f 2/2/1 4/4/3 3/3/2
f 5/5/4 6/6/5 7/7/4
f 6/6/5 8/8/4 7/7/4
f 9/9/6 10/10/7 11/11/6
f 10/10/7 12/12/6 11/11/6
f 13/13/8 14/14/8 15/15/8
f 14/14/8 16/16/8 15/15/8
f 9/9/9 11/11/9 17/17/10
f 18/18/11 9/9/9 17/17/10
f 18/18/11 17/17/10 19/19/10
f 20/20/12 18/18/11 19/19/10
f 20/20/12 19/19/10 3/3/13
f 4/4/13 20/20/12 3/3/13
f 13/13/14 15/15/14 21/21/15
f 22/22/15 13/13/14 21/21/15
f 22/22/15 21/21/15 23/23/15
f 24/24/15 22/22/15 23/23/15
f 24/24/15 23/23/15 7/7/16
f 8/8/17 24/24/15 7/7/16
f 14/25/8 13/26/8 25/27/18
f 26/28/18 14/25/8 25/27/18
f 26/28/18 25/27/18 27/29/19
f 28/30/20 26/28/18 27/29/19
f 29/31/21 28/30/20 27/29/19
f 30/32/19 29/31/21 27/29/19
f 30/32/19 31/33/22 29/31/21
f 31/33/22 32/34/22 29/31/21
f 31/33/22 11/35/6 32/34/22
f 11/35/6 12/36/6 32/34/22
f 15/37/8 16/38/8 33/39/23
f 34/40/23 15/37/8 33/39/23
f 34/40/23 33/39/23 35/41/24
f 36/42/24 34/40/23 35/41/24
f 36/42/24 35/41/24 37/43/24
f 35/41/24 38/44/25 37/43/24
f 37/43/24 38/44/25 39/45/26
f 40/46/27 37/43/24 39/45/26
f 40/46/27 39/45/26 10/47/7
f 9/48/6 40/46/27 10/47/7
f 41/49/28 2/50/1 1/51/1
f 42/52/29 41/49/28 1/51/1
f 43/53/29 41/49/28 42/52/29
f 44/54/29 43/53/29 42/52/29
f 43/53/29 44/54/29 5/55/4
f 44/54/29 6/56/5 5/55/4
f 12/57/6 10/58/7 45/59/30
f 10/58/7 46/60/30 45/59/30
f 45/59/30 46/60/30 47/61/31
f 48/62/31 45/59/30 47/61/31
f 48/62/31 47/61/31 49/63/31
f 47/61/31 50/64/32 49/63/31
f 49/63/31 50/64/32 51/65/33
f 52/66/33 49/63/31 51/65/33
f 16/67/8 14/68/8 53/69/34
f 14/68/8 54/70/34 53/69/34
f 53/69/34 54/70/34 55/71/35
f 56/72/35 53/69/34 55/71/35
f 56/72/35 55/71/35 57/73/35
f 55/71/35 58/74/35 57/73/35
f 57/73/35 58/74/35 59/75/36
f 60/76/37 57/73/35 59/75/36
f 4/77/13 61/78/38 20/79/12
f 61/78/38 62/80/39 20/79/12
f 18/81/11 20/79/12 62/80/39
f 61/78/38 63/82/40 62/80/39
f 64/83/41 18/81/11 62/80/39
f 18/81/11 64/83/41 9/48/9
f 64/83/41 40/46/42 9/48/9
f 64/83/41 65/84/43 40/46/42
f 65/84/43 64/83/41 62/80/39
f 65/84/43 37/43/44 40/46/42
f 36/42/44 37/43/44 65/84/43
f 66/85/45 65/84/43 62/80/39
f 63/82/40 66/85/45 62/80/39
f 67/86/45 36/42/44 65/84/43
f 67/86/45 65/84/43 66/85/45
f 68/87/43 66/85/45 63/82/40
f 68/87/43 67/86/45 66/85/45
f 69/88/40 68/87/43 63/82/40
f 69/88/40 70/89/46 68/87/43
f 67/86/45 71/90/47 36/42/44
f 71/90/47 34/40/48 36/42/44
f 67/86/45 68/87/43 72/91/49
f 70/89/46 72/91/49 68/87/43
f 71/90/47 67/86/45 72/91/49
f 70/89/46 7/92/16 72/91/49
f 7/92/16 23/93/15 72/91/49
f 23/93/15 21/94/15 72/91/49
f 21/94/15 71/90/47 72/91/49
f 71/90/47 21/94/15 34/40/48
f 21/94/15 15/37/14 34/40/48
f 24/95/15 8/96/17 73/97/50
f 74/98/51 24/95/15 73/97/50
f 22/99/15 24/95/15 74/98/51
f 74/98/51 73/97/50 75/100/52
f 76/101/53 22/99/15 74/98/51
f 13/26/14 22/99/15 76/101/53
f 25/27/54 13/26/14 76/101/53
f 25/27/54 76/101/53 77/102/55
f 77/102/55 76/101/53 74/98/51
f 27/29/56 25/27/54 77/102/55
f 30/32/56 27/29/56 77/102/55
f 78/103/55 77/102/55 74/98/51
f 78/103/55 74/98/51 75/100/52
f 79/104/55 30/32/56 77/102/55
f 79/104/55 77/102/55 78/103/55
f 80/105/55 78/103/55 75/100/52
f 80/105/55 79/104/55 78/103/55
f 81/106/57 80/105/55 75/100/52
f 81/106/57 82/107/58 80/105/55
f 79/104/55 83/108/59 30/32/56
f 83/108/59 31/33/60 30/32/56
f 79/104/55 80/105/55 84/109/61
f 82/107/58 84/109/61 80/105/55
f 83/108/59 79/104/55 84/109/61
f 82/107/58 3/110/13 84/109/61
f 3/110/13 19/111/10 84/109/61
f 19/111/10 17/112/10 84/109/61
f 17/112/10 83/108/59 84/109/61
f 83/108/59 17/112/10 31/33/60
f 17/112/10 11/35/9 31/33/60
f 14/113/8 26/114/18 54/115/34
f 26/114/18 85/116/62 54/115/34
f 26/114/18 28/117/20 85/116/62
f 54/115/34 85/116/62 86/118/63
f 55/119/35 54/115/34 86/118/63
f 55/119/35 86/118/63 58/120/35
f 28/117/20 87/121/64 85/116/62
f 28/117/20 29/122/21 87/121/64
f 86/118/63 85/116/62 88/123/65
f 85/116/62 87/121/64 88/123/65
f 86/118/63 89/124/66 58/120/35
f 86/118/63 88/123/65 89/124/66
f 59/125/36 58/120/35 90/126/36
f 58/120/35 89/124/66 90/126/36
f 89/124/66 91/127/65 90/126/36
f 88/123/65 91/127/65 89/124/66
f 91/127/65 92/128/67 90/126/36
f 92/128/67 91/127/65 93/129/33
f 88/123/65 94/130/68 91/127/65
f 88/123/65 87/121/64 94/130/68
f 91/127/65 95/131/68 93/129/33
f 94/130/68 95/131/68 91/127/65
f 93/129/33 95/131/68 96/132/33
f 87/121/64 97/133/64 94/130/68
f 29/122/21 97/133/64 87/121/64
f 29/122/21 32/134/22 97/133/64
f 94/130/68 98/135/69 95/131/68
f 94/130/68 97/133/64 98/135/69
f 32/134/22 99/136/70 97/133/64
f 97/133/64 99/136/70 98/135/69
f 32/134/22 12/137/6 99/136/70
f 12/137/6 45/138/30 99/136/70
f 99/136/70 45/138/30 48/139/31
f 98/135/69 99/136/70 48/139/31
f 98/135/69 100/140/69 95/131/68
f 98/135/69 48/139/31 100/140/69
f 95/131/68 100/140/69 96/132/33
f 48/139/31 49/141/31 100/140/69
f 100/140/69 49/141/31 96/132/33
f 49/141/31 52/142/33 96/132/33
f 10/143/7 39/144/26 46/145/30
f 39/144/26 101/146/71 46/145/30
f 39/144/26 38/147/25 101/146/71
f 46/145/30 101/146/71 102/148/72
f 47/149/31 46/145/30 102/148/72
f 47/149/31 102/148/72 50/150/32
f 38/147/25 103/151/73 101/146/71
f 38/147/25 35/152/24 103/151/73
f 102/148/72 101/146/71 104/153/74
f 101/146/71 103/151/73 104/153/74
f 102/148/72 105/154/75 50/150/32
f 102/148/72 104/153/74 105/154/75
f 51/155/33 50/150/32 106/156/37
f 50/150/32 105/154/75 106/156/37
f 105/154/75 107/157/74 106/156/37
f 104/153/74 107/157/74 105/154/75
f 107/157/74 108/158/67 106/156/37
f 108/158/67 107/157/74 109/159/37
f 104/153/74 110/160/76 107/157/74
f 104/153/74 103/151/73 110/160/76
f 107/157/74 111/161/74 109/159/37
f 110/160/76 111/161/74 107/157/74
f 109/159/37 111/161/74 112/162/37
f 103/151/73 113/163/73 110/160/76
f 35/152/24 113/163/73 103/151/73
f 35/152/24 33/164/23 113/163/73
f 110/160/76 114/165/77 111/161/74
f 110/160/76 113/163/73 114/165/77
f 33/164/23 115/166/78 113/163/73
f 113/163/73 115/166/78 114/165/77
f 33/164/23 16/167/8 115/166/78
f 16/167/8 53/168/34 115/166/78
f 115/166/78 53/168/34 56/169/35
f 114/165/77 115/166/78 56/169/35
f 114/165/77 116/170/77 111/161/74
f 114/165/77 56/169/35 116/170/77
f 111/161/74 116/170/77 112/162/37
f 56/169/35 57/171/35 116/170/77
f 116/170/77 57/171/35 112/162/37
f 57/171/35 60/172/37 112/162/37
f 8/96/4 6/173/5 117/174/79
f 73/97/79 8/96/4 117/174/79
f 117/174/79 6/173/5 44/175/29
f 73/97/79 117/174/79 118/176/80
f 118/176/80 117/174/79 44/175/29
f 75/100/80 73/97/79 118/176/80
f 119/177/81 118/176/80 44/175/29
f 118/176/80 119/177/81 75/100/80
f 42/178/29 119/177/81 44/175/29
f 119/177/81 81/106/80 75/100/80
f 42/178/29 120/179/82 119/177/81
f 119/177/81 120/179/82 81/106/80
f 1/180/1 120/179/82 42/178/29
f 120/179/82 82/107/83 81/106/80
f 1/180/1 3/110/2 120/179/82
f 3/110/2 82/107/83 120/179/82
f 2/181/1 121/182/84 4/77/3
f 121/182/84 61/78/84 4/77/3
f 2/181/1 41/183/28 121/182/84
f 63/82/85 61/78/84 121/182/84
f 41/183/28 122/184/86 121/182/84
f 122/184/86 63/82/85 121/182/84
f 123/185/86 122/184/86 41/183/28
f 122/184/86 123/185/86 63/82/85
f 43/186/29 123/185/86 41/183/28
f 123/185/86 69/88/86 63/82/85
f 43/186/29 124/187/87 123/185/86
f 123/185/86 124/187/87 69/88/86
f 43/186/29 5/188/4 124/187/87
f 124/187/87 70/89/87 69/88/86
f 5/188/4 7/92/4 124/187/87
f 7/92/4 70/89/87 124/187/87
f 92/189/67 93/190/33 125/191/33
f 92/189/67 125/191/33 126/192/33
f 90/193/36 92/189/67 126/192/33
f 93/190/33 127/194/37 125/191/33
f 93/190/33 96/195/33 127/194/37
f 90/193/36 126/192/33 128/196/33
f 59/197/36 90/193/36 128/196/33
f 96/195/33 129/198/33 127/194/37
f 96/195/33 52/199/33 129/198/33
f 59/197/36 128/196/33 130/200/37
f 60/201/37 59/197/36 130/200/37
f 128/196/33 126/192/33 131/202/88
f 60/201/37 130/200/37 132/203/37
f 112/204/37 60/201/37 132/203/37
f 130/200/37 128/196/33 133/205/88
f 128/196/33 131/202/88 133/205/88
f 126/192/33 134/206/89 131/202/88
f 131/202/88 134/206/89 133/205/88
f 126/192/33 125/191/33 134/206/89
f 130/200/37 133/205/88 135/207/89
f 134/206/89 135/207/89 133/205/88
f 132/203/37 130/200/37 135/207/89
f 125/191/33 136/208/33 134/206/89
f 134/206/89 136/208/33 135/207/89
f 125/191/33 127/194/37 136/208/33
f 132/203/37 135/207/89 137/209/37
f 136/208/33 137/209/37 135/207/89
f 127/194/37 138/210/37 136/208/33
f 136/208/33 138/210/37 137/209/37
f 127/194/37 129/198/33 138/210/37
f 139/211/33 132/203/37 137/209/37
f 112/204/37 132/203/37 139/211/33
f 109/212/37 112/204/37 139/211/33
f 138/210/37 140/213/37 137/209/37
f 139/211/33 137/209/37 140/213/37
f 109/212/37 139/211/33 141/214/33
f 141/214/33 139/211/33 140/213/37
f 108/215/67 109/212/37 141/214/33
f 138/210/37 142/216/90 140/213/37
f 129/198/33 142/216/90 138/210/37
f 141/214/33 140/213/37 143/217/90
f 142/216/90 143/217/90 140/213/37
f 108/215/67 141/214/33 144/218/33
f 144/218/33 141/214/33 143/217/90
f 106/219/37 108/215/67 144/218/33
f 129/198/33 145/220/37 142/216/90
f 52/199/33 145/220/37 129/198/33
f 52/199/33 51/221/33 145/220/37
f 51/221/33 106/219/37 146/222/33
f 51/221/33 146/222/33 145/220/37
f 106/219/37 144/218/33 146/222/33
f 145/220/37 147/223/91 142/216/90
f 145/220/37 146/222/33 147/223/91
f 142/216/90 147/223/91 143/217/90
f 146/222/33 144/218/33 148/224/91
f 146/222/33 148/224/91 147/223/91
f 144/218/33 143/217/90 148/224/91
f 147/223/91 148/224/91 143/217/90
