# Blender 3.6.18
# www.blender.org
mtllib Mesh.972.mtl
o Bistro_Research_Exterior_Paris_Building_01_paris_buildi_a28edb2
v 3.859481 7.943113 -16.514584
v 3.860336 8.781900 -16.514578
v 3.869775 7.943113 -16.533190
v 3.870235 8.781900 -16.532469
v 3.885511 7.943113 -16.499128
v 3.885958 8.782321 -16.499937
v 3.896252 8.782321 -16.518541
v 3.896698 7.943113 -16.519348
v 3.140221 7.943113 -15.214540
v 3.141076 8.781900 -15.214536
v 3.150516 7.943113 -15.233150
v 3.150975 8.781900 -15.232428
v 3.166251 7.943113 -15.199088
v 3.166698 8.782320 -15.199893
v 3.176993 8.782320 -15.218501
v 3.177438 7.943113 -15.219307
v 3.972156 8.639923 -16.630138
v 3.117952 8.639923 -15.086190
v 3.925205 8.640299 -16.656115
v 3.071001 8.640299 -15.112166
v 3.117952 8.665188 -15.086190
v 3.972156 8.665189 -16.630138
v 3.071001 8.664812 -15.112166
v 3.925205 8.664813 -16.656115
v 3.972156 7.923014 -16.630140
v 3.117953 7.923013 -15.086190
v 3.925205 7.923389 -16.656116
v 3.071001 7.923389 -15.112166
v 3.117952 7.948279 -15.086190
v 3.972156 7.948279 -16.630140
v 3.071001 7.947902 -15.112166
v 3.925205 7.947902 -16.656116
v 3.066896 8.643745 -15.114438
v 3.921100 8.643745 -16.658388
v 3.921100 8.661366 -16.658388
v 3.066896 8.661365 -15.114438
v 3.066896 7.926836 -15.114438
v 3.921100 7.926836 -16.658386
v 3.921100 7.944456 -16.658386
v 3.066896 7.944456 -15.114438
v 4.008891 8.779584 -16.628674
v 3.135783 8.779584 -15.050557
v 3.930884 8.779584 -16.671833
v 3.057776 8.779584 -15.093712
v 3.997644 8.839524 -16.634897
v 3.969888 8.849252 -16.650253
v 3.124535 8.839524 -15.056778
v 3.096780 8.849252 -15.072138
v 3.942132 8.839524 -16.665609
v 3.069024 8.839525 -15.087491
v 4.010579 8.811738 -16.627739
v 3.137471 8.811738 -15.049622
v 4.008050 8.821199 -16.629137
v 3.134942 8.821199 -15.051022
v 3.931726 8.821199 -16.671364
v 3.058618 8.821199 -15.093246
v 3.929197 8.811738 -16.672762
v 3.056088 8.811738 -15.094647
vn -0.8742 -0.0039 -0.4856
vn -0.5075 -0.0040 0.8616
vn -0.5075 -0.0039 0.8616
vn -0.0197 0.9997 -0.0118
vn -0.0198 0.9997 -0.0119
vn 0.4581 -0.0039 -0.8889
vn -0.8741 -0.0039 -0.4856
vn 0.4582 -0.0039 -0.8889
vn -0.0118 -0.9999 -0.0039
vn -0.2375 -0.9618 -0.1363
vn -0.0119 0.9999 -0.0040
vn -0.2393 0.9612 -0.1373
vn -0.7491 -0.5162 -0.4153
vn -0.7495 -0.5162 -0.4145
vn -0.7521 0.5104 -0.4169
vn -0.7524 0.5104 -0.4163
vn -0.7494 -0.5162 -0.4146
vn -0.7521 0.5105 -0.4169
vn -0.7524 0.5105 -0.4163
vn -0.0039 -1.0000 -0.0039
vn 0.4765 0.8387 0.2637
vn -0.0039 1.0000 -0.0039
vn 0.4764 0.8387 0.2638
vn -0.4815 0.8338 -0.2701
vn 0.8718 -0.0671 0.4852
vn 0.8714 0.1143 0.4771
vn 0.8714 0.1144 0.4771
vn 0.7908 0.4288 0.4367
vn 0.7908 0.4289 0.4367
vn -0.7910 0.4248 -0.4403
vn -0.7910 0.4247 -0.4403
vn -0.8700 0.1131 -0.4799
vn -0.8704 -0.0664 -0.4879
vt 0.901367 0.146973
vt 0.384277 0.146484
vt 0.901367 0.133301
vt 0.384277 0.133789
vt 1.141602 0.509033
vt 0.440430 0.509033
vt 1.141602 0.495117
vt 0.440674 0.495605
vt 0.515137 0.660889
vt 0.497070 0.660889
vt 0.514648 0.647217
vt 0.497314 0.647217
vt 0.501465 0.532959
vt -0.199463 0.532959
vt 0.500977 0.519043
vt -0.199463 0.518799
vt 1.048828 0.418457
vt 0.532227 0.418457
vt 1.048828 0.404785
vt 0.532227 0.405273
vt 1.127930 0.455078
vt 0.426758 0.455078
vt 1.127930 0.440918
vt 0.427246 0.441406
vt 0.147583 0.915405
vt 0.129517 0.915405
vt 0.147217 0.901855
vt 0.129883 0.901855
vt 1.127930 0.481934
vt 0.427002 0.481934
vt 1.126953 0.468262
vt 0.427002 0.467773
vt 1.308594 0.368652
vt -0.186890 0.368652
vt 1.308594 0.344238
vt -0.186890 0.344238
vt 1.062500 0.489746
vt -0.432861 0.489746
vt 1.062500 0.464844
vt -0.432861 0.464844
vt 1.308594 0.287109
vt -0.186768 0.287109
vt 1.308594 0.262695
vt -0.186768 0.262695
vt 1.062500 0.462402
vt -0.432861 0.462402
vt 1.062500 0.437988
vt -0.432861 0.437988
vt -0.294189 -0.017578
vt 0.923828 0.076660
vt 0.923828 0.079102
vt -0.294434 -0.014648
vt -0.295166 -0.002930
vt 0.922852 0.090820
vt 0.922363 0.093262
vt -0.295410 -0.000977
vt 0.925293 0.083008
vt -0.295410 0.129395
vt -0.295410 0.127441
vt 0.925293 0.081055
vt 0.924805 0.068848
vt -0.295898 0.115234
vt -0.295898 0.113281
vt 0.924805 0.066895
vt 1.331055 0.346680
vt -0.196655 0.346680
vt 1.331055 0.305664
vt -0.196655 0.305664
vt -0.164307 0.390137
vt -0.164307 0.374023
vt 1.298828 0.390137
vt 1.298828 0.374023
vt -0.410156 0.510498
vt -0.410156 0.494629
vt 1.052734 0.510498
vt 1.052734 0.494629
vt -0.022766 0.257324
vt -0.022766 0.236816
vt 1.157227 0.257324
vt 1.157227 0.236816
vt -0.022766 0.230957
vt 1.157227 0.230957
vt 1.157227 0.219238
vt -0.022766 0.219238
vt 0.913086 0.399902
vt 0.913086 0.411621
vt -0.270020 0.399902
vt -0.270020 0.411621
vt 0.913086 0.417480
vt -0.270020 0.417480
vt -0.270020 0.437988
vt 0.913086 0.437988
s 1
usemtl MASTER_Grain_Metal
f 1/1/1 2/2/1 3/3/1
f 2/2/1 4/4/1 3/3/1
f 5/5/2 6/6/2 1/7/2
f 6/6/3 2/8/3 1/7/3
f 6/9/4 7/10/4 2/11/4
f 7/10/5 4/12/5 2/11/5
f 7/13/6 8/14/6 4/15/6
f 8/14/6 3/16/6 4/15/6
f 9/17/1 10/18/7 11/19/1
f 10/18/7 12/20/7 11/19/1
f 13/21/3 14/22/3 9/23/3
f 14/22/3 10/24/3 9/23/3
f 14/25/5 15/26/5 10/27/5
f 15/26/5 12/28/5 10/27/5
f 15/29/6 16/30/6 12/31/8
f 16/30/6 11/32/6 12/31/8
f 17/33/9 18/34/9 19/35/10
f 18/34/9 20/36/10 19/35/10
f 21/37/11 22/38/11 23/39/12
f 22/38/11 24/40/12 23/39/12
f 25/41/9 26/42/9 27/43/10
f 26/42/9 28/44/10 27/43/10
f 29/45/11 30/46/11 31/47/12
f 30/46/11 32/48/12 31/47/12
f 19/49/10 20/50/10 33/51/13
f 34/52/14 19/49/10 33/51/13
f 34/52/14 33/51/13 35/53/15
f 33/51/13 36/54/16 35/53/15
f 36/54/16 23/55/12 35/53/15
f 23/55/12 24/56/12 35/53/15
f 27/57/10 28/58/10 37/59/13
f 38/60/17 27/57/10 37/59/13
f 38/60/17 37/59/13 39/61/18
f 37/59/13 40/62/19 39/61/18
f 40/62/19 31/63/12 39/61/18
f 31/63/12 32/64/12 39/61/18
usemtl MASTER_Wood_Polished
f 41/65/20 42/66/20 43/67/20
f 42/66/20 44/68/20 43/67/20
f 45/69/21 46/70/22 47/71/23
f 46/70/22 48/72/22 47/71/23
f 46/73/22 49/74/24 48/75/22
f 49/74/24 50/76/24 48/75/22
f 41/77/25 51/78/26 42/79/25
f 51/78/27 52/80/27 42/79/25
f 51/78/27 53/81/28 52/80/27
f 53/81/28 54/82/29 52/80/27
f 54/82/29 53/81/28 47/83/23
f 53/81/28 45/84/21 47/83/23
f 49/85/24 55/86/30 50/87/24
f 55/86/30 56/88/31 50/87/24
f 56/88/31 55/86/30 57/89/32
f 58/90/32 56/88/31 57/89/32
f 44/91/33 58/90/32 57/89/32
f 43/92/33 44/91/33 57/89/32
