# Blender 3.6.18
# www.blender.org
mtllib Mesh.1107.mtl
o Bistro_Research_Exterior_Paris_Building_01_paris_buildi_e297770
v 5.675723 17.333174 3.597733
v 7.509214 17.333176 -1.485639
v 5.675716 21.984867 3.597733
v 7.509212 21.984867 -1.485640
v 16.565563 17.333176 1.972653
v 16.565353 21.984867 1.972614
v 14.533745 21.984867 7.121167
v 14.534839 17.333174 7.128341
v 6.784454 17.779661 4.035092
v 6.784451 20.893906 4.035092
v 9.989965 21.984867 5.313800
v 8.392859 20.893909 4.660583
v 9.990502 17.333174 5.317294
v 8.392861 17.779663 4.660586
v 11.286943 20.893908 5.819340
v 12.895350 20.893906 6.444832
v 12.895356 17.779661 6.444833
v 11.286946 17.779663 5.819340
vn 0.9422 -0.0039 0.3351
vn -0.3584 -0.0039 0.9335
vn -0.3585 -0.0040 0.9335
vn -0.9293 -0.0039 -0.3694
vn 0.3626 -0.0039 -0.9319
vn 0.3617 -0.0003 -0.9323
vn 0.3617 0.0010 -0.9323
vn 0.3643 0.0007 -0.9313
vn 0.3688 -0.0024 -0.9295
vn 0.3721 -0.0039 -0.9282
vn 0.3625 -0.0273 -0.9316
vn 0.3626 0.0117 -0.9319
vn 0.3788 -0.0039 -0.9255
vn 0.3648 -0.0510 -0.9297
vn 0.3558 -0.0039 -0.9345
vn -0.0039 1.0000 -0.0039
vn -0.0039 -1.0000 -0.0039
vt -0.112244 1.276611
vt -0.112244 -0.281250
vt 1.543945 1.276611
vt 1.543945 -0.281250
vt 1.622070 1.689453
vt -1.156250 1.689453
vt 1.622070 0.023438
vt -1.156250 0.023438
vt 1.553711 0.927551
vt -0.117798 0.927551
vt 1.553711 -0.652344
vt -0.117798 -0.655273
vt -0.620117 1.660645
vt -0.620117 -0.013672
vt -0.279053 1.425781
vt -0.279053 0.359375
vt 0.705566 -0.013672
vt 0.216064 0.359375
vt 0.705566 1.660645
vt 0.216064 1.425781
vt 2.101562 -0.013672
vt 1.104492 0.359375
vt 1.600586 0.359375
vt 2.101562 1.660645
vt 1.600586 1.425781
vt 1.104492 1.425781
vt 1.839844 -0.435547
vt 1.717773 1.291260
vt 0.314697 -0.537109
vt -1.300781 1.046844
vt -1.132812 -0.632812
vt 1.755859 -0.525391
vt 1.808594 1.203369
vt 0.281250 1.245850
vt -1.270508 -0.398438
vt -1.168945 1.286133
s 1
usemtl MASTER_Concrete_Smooth
f 1/1/1 2/2/1 3/3/1
f 2/2/1 4/4/1 3/3/1
f 2/5/2 5/6/3 4/7/3
f 5/6/3 6/8/2 4/7/3
f 6/9/4 5/10/4 7/11/4
f 5/10/4 8/12/4 7/11/4
f 1/13/5 3/14/5 9/15/5
f 3/14/6 10/16/7 9/15/5
f 3/14/6 11/17/8 10/16/7
f 11/17/8 12/18/9 10/16/7
f 11/17/8 13/19/10 12/18/9
f 13/19/10 14/20/10 12/18/9
f 13/19/11 1/13/11 14/20/11
f 1/13/11 9/15/11 14/20/11
f 11/17/12 7/21/12 15/22/12
f 7/21/12 16/23/12 15/22/12
f 7/21/13 8/24/13 16/23/13
f 8/24/13 17/25/13 16/23/13
f 8/24/14 13/19/14 17/25/14
f 13/19/14 18/26/14 17/25/14
f 13/19/15 11/17/15 18/26/15
f 11/17/15 15/22/15 18/26/15
f 8/27/16 5/28/16 13/29/16
f 5/28/16 2/30/16 13/29/16
f 2/30/16 1/31/16 13/29/16
f 6/32/17 7/33/17 11/34/17
f 4/35/17 6/32/17 11/34/17
f 4/35/17 11/34/17 3/36/17
