# Blender 3.6.18
# www.blender.org
mtllib Mesh.795.mtl
o Bistro_Research_Exterior_paris_building_03_4937
v -15.035244 13.105587 11.878619
v -15.035244 15.948374 11.878617
v -14.771833 16.057760 12.182708
v -14.782576 13.105587 12.170307
v -14.456980 16.145020 12.546184
v -14.456980 13.105587 12.546185
v -14.120420 16.145020 12.934718
v -14.120420 13.105587 12.934719
v -13.805568 16.057758 13.298192
v -13.794827 13.105587 13.310596
v -13.554464 15.948374 13.588075
v -13.554465 13.105587 13.588076
v -12.218429 13.105587 15.130440
v -12.218428 15.948372 15.130439
v -11.955017 16.057760 15.434528
v -11.965759 13.105584 15.422130
v -11.640164 16.145020 15.798005
v -11.640164 13.105584 15.798005
v -11.471885 16.145020 15.992272
v -11.471885 13.105584 15.992272
v -10.737648 15.948374 16.839895
v -10.737650 13.105587 16.839897
v -10.978010 13.105587 16.562416
v -10.988751 16.057758 16.550014
v -11.303605 13.105584 16.186541
v -11.303604 16.145020 16.186541
v -12.260497 7.927514 15.166881
v -12.260496 10.770301 15.166880
v -11.997086 10.879688 15.470967
v -12.007827 7.927514 15.458570
v -11.682232 10.966949 15.834442
v -11.682232 7.927514 15.834445
v -11.345672 10.966948 16.222979
v -11.345673 7.927515 16.222980
v -11.030820 10.879686 16.586456
v -11.020079 7.927514 16.598856
v -10.779716 10.770302 16.876337
v -10.779718 7.927514 16.876337
v -15.077311 7.927513 11.915061
v -15.077311 10.770300 11.915059
v -14.813900 10.879687 12.219148
v -14.824640 7.927513 12.206749
v -14.499047 10.966947 12.582623
v -14.499047 7.927514 12.582625
v -14.330768 10.966948 12.776892
v -14.330768 7.927514 12.776894
v -13.596531 10.770301 13.624516
v -13.596532 7.927514 13.624517
v -13.836893 7.927514 13.347037
v -13.847634 10.879684 13.334635
v -14.162487 7.927514 12.971162
v -14.162485 10.966948 12.971161
v -17.894127 7.927514 8.663239
v -17.894127 10.770300 8.663239
v -17.630718 10.879687 8.967327
v -17.641459 7.927513 8.954928
v -17.315865 10.966948 9.330803
v -17.315865 7.927513 9.330804
v -16.979303 10.966948 9.719338
v -16.979303 7.927513 9.719340
v -16.664452 10.879685 10.082814
v -16.653709 7.927514 10.095218
v -16.413349 10.770300 10.372696
v -16.413349 7.927514 10.372697
v -17.852062 13.105584 8.626799
v -17.852062 15.948373 8.626797
v -17.588652 16.057760 8.930885
v -17.599392 13.105586 8.918487
v -17.273798 16.145021 9.294362
v -17.273798 13.105584 9.294362
v -17.105516 16.145021 9.488628
v -17.105516 13.105586 9.488631
v -16.371279 15.948374 10.336253
v -16.371281 13.105584 10.336254
v -16.611643 13.105584 10.058774
v -16.622383 16.057756 10.046371
v -16.937237 13.105586 9.682899
v -16.937237 16.145021 9.682898
v -12.260497 2.619202 15.166880
v -12.260496 5.461988 15.166880
v -11.997086 5.571375 15.470967
v -12.007828 2.619200 15.458569
v -11.682232 5.658636 15.834444
v -11.682234 2.619200 15.834444
v -11.345673 5.658636 16.222979
v -11.345674 2.619201 16.222979
v -11.030820 5.571372 16.586454
v -11.020080 2.619201 16.598856
v -10.779717 5.461988 16.876337
v -10.779718 2.619201 16.876337
v -15.090432 2.619202 11.899913
v -15.090431 5.461988 11.899911
v -14.827023 5.571375 12.204000
v -14.837764 2.619201 12.191600
v -14.512169 5.658636 12.567476
v -14.512170 2.619202 12.567477
v -14.175608 5.658636 12.956011
v -14.175608 2.619202 12.956013
v -13.860758 5.571372 13.319487
v -13.850016 2.619202 13.331889
v -13.609654 5.461989 13.609367
v -13.609655 2.619202 13.609370
v -14.410443 13.105586 21.740919
v -14.410441 15.948371 21.740919
v -14.714530 16.057758 22.004333
v -14.702130 13.105586 21.993589
v -15.078006 16.145018 22.319185
v -15.078006 13.105586 22.319185
v -15.466543 16.145018 22.655745
v -15.466540 13.105586 22.655743
v -15.830016 16.057756 22.970598
v -15.842417 13.105586 22.981337
v -16.119896 15.948371 23.221701
v -16.119898 13.105586 23.221697
v -17.662266 13.105586 24.557737
v -17.662262 15.948367 24.557739
v -17.966354 16.057756 24.821150
v -17.953955 13.105586 24.810404
v -18.329828 16.145020 25.136002
v -18.329830 13.105583 25.136002
v -18.524097 16.145018 25.304281
v -18.524099 13.105586 25.304279
v -19.371719 15.948369 26.038517
v -19.371719 13.105586 26.038513
v -19.094240 13.105586 25.798153
v -19.081841 16.057756 25.787415
v -18.718365 13.105586 25.472561
v -18.718367 16.145016 25.472567
v -11.158625 13.105587 18.924107
v -11.158624 15.948372 18.924109
v -11.462712 16.057758 19.187521
v -11.450313 13.105584 19.176777
v -11.826187 16.145018 19.502371
v -11.826189 13.105586 19.502371
v -12.020453 16.145018 19.670652
v -12.020457 13.105584 19.670649
v -12.868078 15.948372 20.404886
v -12.868079 13.105587 20.404886
v -12.590600 13.105586 20.164526
v -12.578197 16.057756 20.153784
v -12.214725 13.105587 19.838930
v -12.214723 16.145018 19.838932
v -20.927771 13.105586 27.386408
v -20.927771 15.948369 27.386404
v -21.231857 16.057756 27.649818
v -21.219458 13.105587 27.639074
v -21.595333 16.145020 27.964672
v -21.595335 13.105587 27.964664
v -21.789600 16.145018 28.132948
v -21.789604 13.105586 28.132948
v -22.637224 15.948373 28.867186
v -22.637226 13.105588 28.867184
v -22.359749 13.105583 28.626822
v -22.347343 16.057758 28.616081
v -21.983871 13.105586 28.301229
v -21.983868 16.145016 28.301231
v -23.627399 13.105586 30.889421
v -23.627396 15.948373 30.889421
v -23.931486 16.057758 31.152836
v -23.919086 13.105586 31.142090
v -24.294962 16.145018 31.467690
v -24.294964 13.105583 31.467690
v -24.683498 16.145020 31.804247
v -24.683496 13.105586 31.804247
v -25.046974 16.057756 32.119102
v -25.059376 13.105586 32.129841
v -25.336853 15.948373 32.370201
v -25.336853 13.105586 32.370197
v -26.866293 13.105583 33.695038
v -26.866291 15.948371 33.695042
v -27.170376 16.057758 33.958450
v -27.157982 13.105583 33.947704
v -27.533854 16.145020 34.273304
v -27.533857 13.105586 34.273304
v -27.922392 16.145020 34.609859
v -27.922392 13.105583 34.609859
v -28.285866 16.057755 34.924721
v -28.298267 13.105583 34.935455
v -28.575745 15.948371 35.175819
v -28.575747 13.105588 35.175816
vn 0.7528 -0.0040 -0.6582
vn 0.7528 -0.0039 -0.6582
vn 0.6537 -0.0040 0.7567
vn 0.6537 -0.0039 0.7567
vt 0.489258 0.301758
vt 0.489258 0.906433
vt 0.405518 0.929749
vt 0.408936 0.301758
vt 0.305420 0.948273
vt 0.305420 0.301758
vt 0.198364 0.948273
vt 0.198364 0.301758
vt 0.098328 0.929749
vt 0.094910 0.301758
vt 0.018509 0.906433
vt 0.018509 0.301758
vt 0.535645 0.338379
vt 0.535645 0.944397
vt 0.596680 0.967682
vt 0.596680 0.338379
vt 0.694824 0.986244
vt 0.694824 0.338379
vt 0.746094 0.986244
vt 0.746094 0.338379
vt 0.488037 0.301758
vt 0.488037 0.906433
vt 0.404297 0.929749
vt 0.407715 0.301758
vt 0.304199 0.948273
vt 0.304199 0.301758
vt 0.197266 0.948273
vt 0.197266 0.301758
vt 0.097107 0.929749
vt 0.093689 0.301758
vt 0.017303 0.906433
vt 0.017303 0.301758
vt 0.535645 0.942169
vt 0.596680 0.965454
vt 0.694336 0.984009
vt 0.694336 0.338379
vt 0.746094 0.984009
vt 0.486572 0.300293
vt 0.486572 0.905090
vt 0.402832 0.928406
vt 0.406250 0.300293
vt 0.302734 0.946960
vt 0.302734 0.300293
vt 0.195801 0.946960
vt 0.195801 0.300293
vt 0.095703 0.928406
vt 0.092285 0.300293
vt 0.015915 0.905090
vt 0.015915 0.300293
vt 0.996094 0.337402
vt 0.996094 0.942169
vt 0.914062 0.965454
vt 0.917480 0.337402
vt 0.816406 0.984009
vt 0.816406 0.337402
vt 0.764160 0.984009
vt 0.764160 0.337402
vt 0.994141 0.942169
vt 0.994141 0.337402
vt 0.919434 0.337402
vt 0.916016 0.965454
vt 0.818359 0.337402
vt 0.818359 0.984009
vt 0.766113 0.337402
vt 0.766113 0.984009
s 1
usemtl MASTER_Curtains
f 1/1/1 2/2/1 3/3/1
f 4/4/1 1/1/1 3/3/1
f 4/4/1 3/3/1 5/5/2
f 6/6/1 4/4/1 5/5/2
f 6/6/1 5/5/2 7/7/1
f 8/8/2 6/6/1 7/7/1
f 7/7/1 9/9/1 8/8/2
f 9/9/1 10/10/1 8/8/2
f 9/9/1 11/11/1 10/10/1
f 11/11/1 12/12/1 10/10/1
f 13/13/1 14/14/1 15/15/2
f 16/16/2 13/13/1 15/15/2
f 16/16/2 15/15/2 17/17/2
f 18/18/2 16/16/2 17/17/2
f 18/18/2 17/17/2 19/19/1
f 20/20/2 18/18/2 19/19/1
f 21/14/1 22/13/1 23/16/2
f 24/15/2 21/14/1 23/16/2
f 24/15/2 23/16/2 25/18/1
f 26/17/1 24/15/2 25/18/1
f 25/18/1 20/20/2 26/17/1
f 20/20/2 19/19/1 26/17/1
f 27/21/1 28/22/2 29/23/1
f 30/24/1 27/21/1 29/23/1
f 30/24/1 29/23/1 31/25/2
f 32/26/2 30/24/1 31/25/2
f 32/26/2 31/25/2 33/27/1
f 34/28/1 32/26/2 33/27/1
f 33/27/1 35/29/2 34/28/1
f 35/29/2 36/30/2 34/28/1
f 35/29/2 37/31/2 36/30/2
f 37/31/2 38/32/1 36/30/2
f 39/13/2 40/33/2 41/34/1
f 42/16/1 39/13/2 41/34/1
f 42/16/1 41/34/1 43/35/2
f 44/36/2 42/16/1 43/35/2
f 44/36/2 43/35/2 45/37/2
f 46/20/2 44/36/2 45/37/2
f 47/33/1 48/13/2 49/16/1
f 50/34/2 47/33/1 49/16/1
f 50/34/2 49/16/1 51/36/1
f 52/35/1 50/34/2 51/36/1
f 51/36/1 46/20/2 52/35/1
f 46/20/2 45/37/2 52/35/1
f 53/38/1 54/39/2 55/40/1
f 56/41/2 53/38/1 55/40/1
f 56/41/2 55/40/1 57/42/2
f 58/43/1 56/41/2 57/42/2
f 58/43/1 57/42/2 59/44/2
f 60/45/1 58/43/1 59/44/2
f 59/44/2 61/46/1 60/45/1
f 61/46/1 62/47/2 60/45/1
f 61/46/1 63/48/1 62/47/2
f 63/48/1 64/49/1 62/47/2
f 65/50/1 66/51/1 67/52/1
f 68/53/2 65/50/1 67/52/1
f 68/53/2 67/52/1 69/54/2
f 70/55/1 68/53/2 69/54/2
f 70/55/1 69/54/2 71/56/2
f 72/57/2 70/55/1 71/56/2
f 73/58/1 74/59/2 75/60/2
f 76/61/2 73/58/1 75/60/2
f 76/61/2 75/60/2 77/62/2
f 78/63/1 76/61/2 77/62/2
f 77/62/2 72/64/2 78/63/1
f 72/64/2 71/65/2 78/63/1
f 79/21/1 80/22/1 81/23/2
f 82/24/2 79/21/1 81/23/2
f 82/24/2 81/23/2 83/25/1
f 84/26/1 82/24/2 83/25/1
f 84/26/1 83/25/1 85/27/2
f 86/28/2 84/26/1 85/27/2
f 85/27/2 87/29/2 86/28/2
f 87/29/2 88/30/2 86/28/2
f 87/29/2 89/31/2 88/30/2
f 89/31/2 90/32/1 88/30/2
f 91/21/1 92/22/2 93/23/1
f 94/24/2 91/21/1 93/23/1
f 94/24/2 93/23/1 95/25/2
f 96/26/1 94/24/2 95/25/2
f 96/26/1 95/25/2 97/27/2
f 98/28/2 96/26/1 97/27/2
f 97/27/2 99/29/2 98/28/2
f 99/29/2 100/30/2 98/28/2
f 99/29/2 101/31/1 100/30/2
f 101/31/1 102/32/2 100/30/2
f 103/1/3 104/2/3 105/3/4
f 106/4/4 103/1/3 105/3/4
f 106/4/4 105/3/4 107/5/4
f 108/6/4 106/4/4 107/5/4
f 108/6/4 107/5/4 109/7/4
f 110/8/3 108/6/4 109/7/4
f 109/7/4 111/9/4 110/8/3
f 111/9/4 112/10/3 110/8/3
f 111/9/4 113/11/4 112/10/3
f 113/11/4 114/12/3 112/10/3
f 115/13/4 116/14/3 117/15/3
f 118/16/4 115/13/4 117/15/3
f 118/16/4 117/15/3 119/17/3
f 120/18/3 118/16/4 119/17/3
f 120/18/3 119/17/3 121/19/4
f 122/20/4 120/18/3 121/19/4
f 123/14/3 124/13/4 125/16/3
f 126/15/3 123/14/3 125/16/3
f 126/15/3 125/16/3 127/18/4
f 128/17/4 126/15/3 127/18/4
f 127/18/4 122/20/4 128/17/4
f 122/20/4 121/19/4 128/17/4
f 129/50/4 130/51/4 131/52/3
f 132/53/4 129/50/4 131/52/3
f 132/53/4 131/52/3 133/54/4
f 134/55/3 132/53/4 133/54/4
f 134/55/3 133/54/4 135/56/4
f 136/57/3 134/55/3 135/56/4
f 137/58/4 138/59/3 139/60/4
f 140/61/4 137/58/4 139/60/4
f 140/61/4 139/60/4 141/62/4
f 142/63/3 140/61/4 141/62/4
f 141/62/4 136/64/3 142/63/3
f 136/64/3 135/65/4 142/63/3
f 143/50/3 144/51/4 145/52/4
f 146/53/3 143/50/3 145/52/4
f 146/53/3 145/52/4 147/54/3
f 148/55/3 146/53/3 147/54/3
f 148/55/3 147/54/3 149/56/3
f 150/57/4 148/55/3 149/56/3
f 151/58/4 152/59/4 153/60/3
f 154/61/4 151/58/4 153/60/3
f 154/61/4 153/60/3 155/62/3
f 156/63/4 154/61/4 155/62/3
f 155/62/3 150/64/4 156/63/4
f 150/64/4 149/65/3 156/63/4
f 157/1/4 158/2/3 159/3/3
f 160/4/4 157/1/4 159/3/3
f 160/4/4 159/3/3 161/5/3
f 162/6/4 160/4/4 161/5/3
f 162/6/4 161/5/3 163/7/3
f 164/8/4 162/6/4 163/7/3
f 163/7/3 165/9/4 164/8/4
f 165/9/4 166/10/4 164/8/4
f 165/9/4 167/11/3 166/10/4
f 167/11/3 168/12/4 166/10/4
f 169/1/3 170/2/4 171/3/3
f 172/4/3 169/1/3 171/3/3
f 172/4/3 171/3/3 173/5/3
f 174/6/4 172/4/3 173/5/3
f 174/6/4 173/5/3 175/7/3
f 176/8/4 174/6/4 175/7/3
f 175/7/3 177/9/3 176/8/4
f 177/9/3 178/10/3 176/8/4
f 177/9/3 179/11/3 178/10/3
f 179/11/3 180/12/3 178/10/3
