# Blender 3.6.18
# www.blender.org
mtllib Mesh.557.mtl
o Bistro_Research_Exterior_paris_building_09_5441
v 1.212436 15.355830 -34.391041
v 2.685002 15.355830 -35.993565
v 1.212436 16.165749 -34.391041
v 2.685002 16.165749 -35.993565
v 1.702696 15.320592 -39.208210
v 0.100172 15.320592 -40.680779
v 1.702696 16.130510 -39.208210
v 0.100172 16.130510 -40.680779
v -2.083495 15.355830 -42.189713
v -3.686020 15.355830 -43.662277
v -2.083495 16.165749 -42.189713
v -3.686020 16.165749 -43.662277
v -5.384116 15.355831 -45.691891
v -6.986641 15.355831 -47.164452
v -5.384116 16.165749 -45.691891
v -6.986641 16.165749 -47.164452
v -2.365009 15.355830 -31.177454
v -0.892445 15.355830 -32.779984
v -2.365009 16.165749 -31.177454
v -0.892445 16.165749 -32.779984
v -6.154068 15.355830 -27.053988
v -4.681505 15.355830 -28.656511
v -6.154068 16.165749 -27.053988
v -4.681505 16.165749 -28.656511
v -9.401839 15.355830 -23.519588
v -7.929276 15.355830 -25.122112
v -9.401839 16.165749 -23.519588
v -7.929276 16.165749 -25.122112
v -13.201118 15.355829 -19.385010
v -11.728555 15.355829 -20.987534
v -13.201118 16.165747 -19.385010
v -11.728555 16.165747 -20.987534
v -16.110140 15.355829 -15.539672
v -14.637576 15.355829 -17.142197
v -16.110140 16.165747 -15.539672
v -14.637576 16.165747 -17.142197
v -20.548307 15.355829 -16.946112
v -18.945784 15.355829 -15.473546
v -20.548307 16.165747 -16.946112
v -18.945784 16.165747 -15.473546
v -23.848930 15.355829 -20.448290
v -22.246405 15.355829 -18.975727
v -23.848930 16.165747 -20.448290
v -22.246405 16.165747 -18.975727
v -27.635117 15.320592 -23.429790
v -26.032593 15.320591 -21.957228
v -27.635117 16.130510 -23.429790
v -26.032593 16.130508 -21.957228
v -23.856348 20.127607 -20.442539
v -22.253826 20.127607 -18.969976
v -23.856348 20.937523 -20.442539
v -22.253826 20.937523 -18.969976
v -20.555716 20.127607 -16.940371
v -18.953192 20.127607 -15.467802
v -20.555716 20.937523 -16.940369
v -18.953192 20.937523 -15.467802
v -27.642540 20.092369 -23.424038
v -26.040016 20.092369 -21.951475
v -27.642540 20.902285 -23.424038
v -26.040016 20.902285 -21.951475
v -16.144403 20.127607 -15.571136
v -14.671840 20.127607 -17.173660
v -16.144403 20.937523 -15.571136
v -14.671840 20.937523 -17.173658
v -13.172964 20.127607 -19.359148
v -11.700400 20.127607 -20.961674
v -13.172964 20.937523 -19.359148
v -11.700400 20.937523 -20.961674
v -9.383739 20.127607 -23.482775
v -7.911175 20.127607 -25.085299
v -9.383739 20.937523 -23.482775
v -7.911175 20.937523 -25.085299
v -6.135967 20.127607 -27.017181
v -4.663404 20.127607 -28.619707
v -6.135967 20.937523 -27.017181
v -4.663404 20.937523 -28.619707
v -2.346904 20.127607 -31.140644
v -0.874342 20.127607 -32.743168
v -2.346904 20.937523 -31.140644
v -0.874342 20.937523 -32.743168
v 1.177049 20.127607 -34.421265
v 2.649614 20.127607 -36.023792
v 1.177049 20.937523 -34.421265
v 2.649614 20.937523 -36.023792
v 1.710122 20.092369 -39.213963
v 0.107599 20.092369 -40.686531
v 1.710122 20.902285 -39.213963
v 0.107599 20.902285 -40.686531
v -2.076074 20.127607 -42.195457
v -3.678598 20.127607 -43.668022
v -2.076074 20.937523 -42.195457
v -3.678598 20.937523 -43.668022
v -5.376708 20.127607 -45.697636
v -6.979230 20.127607 -47.170200
v -5.376708 20.937523 -45.697636
v -6.979230 20.937523 -47.170200
v -27.394785 9.139763 -23.706587
v -25.792261 9.139763 -22.234024
v -27.394785 9.949681 -23.706587
v -25.792261 9.949681 -22.234024
v -23.804817 9.139763 -20.407761
v -22.202295 9.139762 -18.935196
v -23.804817 9.949681 -20.407761
v -22.202295 9.949680 -18.935196
v -20.315744 9.139762 -17.201639
v -18.713224 9.139762 -15.729075
v -20.315744 9.949680 -17.201639
v -18.713224 9.949680 -15.729074
v -16.448723 9.139762 -15.850801
v -14.976156 9.139762 -17.453320
v -16.448723 9.949680 -15.850800
v -14.976156 9.949680 -17.453320
v -13.201118 9.139762 -19.385010
v -11.728556 9.139763 -20.987534
v -13.201118 9.949680 -19.385010
v -11.728556 9.949681 -20.987534
v -9.401839 9.139763 -23.519588
v -7.929276 9.139763 -25.122112
v -9.401839 9.949681 -23.519588
v -7.929276 9.949681 -25.122112
v -6.154068 9.139763 -27.053988
v -4.681504 9.139763 -28.656513
v -6.154068 9.949681 -27.053988
v -4.681504 9.949681 -28.656513
v -2.365008 9.139763 -31.177454
v -0.892445 9.139763 -32.779980
v -2.365008 9.949681 -31.177454
v -0.892445 9.949681 -32.779980
v 0.873858 9.139763 -34.702156
v 2.346424 9.139763 -36.304684
v 0.873858 9.949681 -34.702156
v 2.346424 9.949681 -36.304684
v 1.382361 9.143052 -39.502567
v -0.220164 9.143052 -40.975132
v 1.382361 9.952971 -39.502567
v -0.220164 9.952971 -40.975132
v -2.151701 9.143053 -42.750031
v -3.754225 9.143053 -44.222595
v -2.151701 9.952971 -42.750031
v -3.754225 9.952971 -44.222595
v -5.689067 9.142278 -45.972111
v -7.291591 9.142278 -47.444675
v -5.689067 9.952196 -45.972111
v -7.291591 9.952196 -47.444675
vn 0.7380 -0.0040 0.6748
vn 0.6709 -0.0039 -0.7415
vn -0.6791 -0.0039 0.7340
vn 0.7380 -0.0039 0.6748
vt 0.002100 0.249023
vt 0.578613 0.249023
vt 0.002100 0.485352
vt 0.578613 0.485352
vt 0.002100 0.004883
vt 0.578613 0.004883
vt 0.002100 0.241211
vt 0.578613 0.241211
s 1
usemtl MASTER_Forge_Metal
f 1/1/1 2/2/1 3/3/1
f 2/2/1 4/4/1 3/3/1
f 5/1/2 6/2/2 7/3/2
f 6/2/2 8/4/2 7/3/2
f 9/1/2 10/2/2 11/3/2
f 10/2/2 12/4/2 11/3/2
f 13/1/2 14/2/2 15/3/2
f 14/2/2 16/4/2 15/3/2
f 17/1/1 18/2/1 19/3/1
f 18/2/1 20/4/1 19/3/1
f 21/1/1 22/2/1 23/3/1
f 22/2/1 24/4/1 23/3/1
f 25/1/1 26/2/1 27/3/1
f 26/2/1 28/4/1 27/3/1
f 29/1/1 30/2/1 31/3/1
f 30/2/1 32/4/1 31/3/1
f 33/1/1 34/2/1 35/3/1
f 34/2/1 36/4/1 35/3/1
f 37/1/3 38/2/3 39/3/3
f 38/2/3 40/4/3 39/3/3
f 41/1/3 42/2/3 43/3/3
f 42/2/3 44/4/3 43/3/3
f 45/1/3 46/2/3 47/3/3
f 46/2/3 48/4/3 47/3/3
f 49/1/3 50/2/3 51/3/3
f 50/2/3 52/4/3 51/3/3
f 53/1/3 54/2/3 55/3/3
f 54/2/3 56/4/3 55/3/3
f 57/1/3 58/2/3 59/3/3
f 58/2/3 60/4/3 59/3/3
f 61/1/1 62/2/1 63/3/1
f 62/2/1 64/4/1 63/3/1
f 65/1/1 66/2/4 67/3/1
f 66/2/4 68/4/1 67/3/1
f 69/1/1 70/2/1 71/3/1
f 70/2/1 72/4/1 71/3/1
f 73/1/1 74/2/1 75/3/1
f 74/2/1 76/4/1 75/3/1
f 77/1/1 78/2/1 79/3/1
f 78/2/1 80/4/1 79/3/1
f 81/1/4 82/2/1 83/3/1
f 82/2/1 84/4/4 83/3/1
f 85/1/2 86/2/2 87/3/2
f 86/2/2 88/4/2 87/3/2
f 89/1/2 90/2/2 91/3/2
f 90/2/2 92/4/2 91/3/2
f 93/1/2 94/2/2 95/3/2
f 94/2/2 96/4/2 95/3/2
f 97/5/3 98/6/3 99/7/3
f 98/6/3 100/8/3 99/7/3
f 101/5/3 102/6/3 103/7/3
f 102/6/3 104/8/3 103/7/3
f 105/5/3 106/6/3 107/7/3
f 106/6/3 108/8/3 107/7/3
f 109/5/1 110/6/4 111/7/1
f 110/6/4 112/8/1 111/7/1
f 113/5/1 114/6/4 115/7/1
f 114/6/4 116/8/4 115/7/1
f 117/5/1 118/6/1 119/7/1
f 118/6/1 120/8/1 119/7/1
f 121/5/1 122/6/1 123/7/4
f 122/6/1 124/8/1 123/7/4
f 125/5/1 126/6/1 127/7/1
f 126/6/1 128/8/4 127/7/1
f 129/5/1 130/6/1 131/7/1
f 130/6/1 132/8/1 131/7/1
f 133/5/2 134/6/2 135/7/2
f 134/6/2 136/8/2 135/7/2
f 137/5/2 138/6/2 139/7/2
f 138/6/2 140/8/2 139/7/2
f 141/5/2 142/6/2 143/7/2
f 142/6/2 144/8/2 143/7/2
