# Blender 3.6.18
# www.blender.org
mtllib Mesh.681.mtl
o Bistro_Research_Exterior_paris_building_05_13__5177
v 37.400360 16.991144 16.521730
v 37.854820 16.991144 16.748661
v 37.881580 16.991144 16.695070
v 37.427120 16.991144 16.468142
v 37.881580 16.895021 16.695070
v 37.427120 16.895021 16.468142
v 37.400360 16.895023 16.521730
v 37.854820 16.895021 16.748661
v 37.430092 14.291602 16.473097
v 37.405895 14.291602 16.521551
v 37.405895 16.899363 16.521551
v 37.430092 16.899363 16.473097
v 37.499775 16.899363 16.507891
v 37.499775 14.291602 16.507891
v 37.475574 14.291602 16.556347
v 37.475574 16.899363 16.556347
v 37.799278 16.892866 16.700283
v 37.484184 16.892866 16.542950
v 37.484184 14.294682 16.542950
v 37.799278 14.294681 16.700283
v 37.855709 14.291602 16.746159
v 37.879906 14.291602 16.697702
v 37.879906 16.899363 16.697702
v 37.855709 16.899363 16.746159
v 37.786026 16.899363 16.711365
v 37.786026 14.291602 16.711367
v 37.810219 14.291602 16.662907
v 37.810219 16.899363 16.662907
v 37.400360 14.291186 16.521730
v 37.854820 14.291186 16.748661
v 37.881580 14.291186 16.695070
v 37.427120 14.291186 16.468142
v 37.881580 14.195066 16.695070
v 37.427120 14.195066 16.468142
v 37.400360 14.195067 16.521730
v 37.854820 14.195066 16.748661
v 37.854786 16.991144 16.748644
v 38.309246 16.991144 16.975571
v 38.336006 16.991144 16.921982
v 37.881546 16.991144 16.695055
v 38.336006 16.895021 16.921984
v 37.881546 16.895021 16.695055
v 37.854786 16.895023 16.748644
v 38.309246 16.895021 16.975571
v 37.884518 14.291602 16.700008
v 37.860321 14.291602 16.748465
v 37.860321 16.899363 16.748465
v 37.884518 16.899363 16.700008
v 37.954201 16.899363 16.734804
v 37.954201 14.291602 16.734804
v 37.930004 14.291602 16.783258
v 37.930004 16.899363 16.783258
v 38.254818 16.892866 16.927752
v 37.939724 16.892866 16.770414
v 37.939724 14.294682 16.770414
v 38.254818 14.294681 16.927752
v 38.306549 14.291602 16.971283
v 38.330750 14.291602 16.922827
v 38.330750 16.899363 16.922827
v 38.306549 16.899363 16.971283
v 38.236870 16.899363 16.936485
v 38.236870 14.291602 16.936485
v 38.261063 14.291602 16.888033
v 38.261063 16.899363 16.888031
v 37.854786 14.291186 16.748644
v 38.309246 14.291186 16.975571
v 38.336006 14.291186 16.921982
v 37.881546 14.291186 16.695055
v 38.336006 14.195066 16.921984
v 37.881546 14.195066 16.695055
v 37.854786 14.195067 16.748644
v 38.309246 14.195066 16.975571
vn -0.0039 1.0000 -0.0039
vn 0.4425 -0.0039 -0.8968
vn -0.4519 -0.0039 0.8921
vn -0.4519 -0.0039 0.8920
vn -0.8936 -0.0039 -0.4488
vn 0.8952 -0.0039 0.4456
vn -0.0039 -1.0000 -0.0039
vn 0.8952 -0.0040 0.4456
vt 0.327881 0.353027
vt 0.327881 0.432129
vt 0.318604 0.432129
vt 0.318604 0.353027
vt 0.315430 0.432129
vt 0.300537 0.432129
vt 0.300537 0.352539
vt 0.315430 0.352539
vt 0.270020 0.352051
vt 0.284912 0.352051
vt 0.284912 0.431641
vt 0.270020 0.431641
vt 0.269775 0.345215
vt 0.269775 0.335938
vt 0.284912 0.335938
vt 0.284912 0.345215
vt 0.288086 0.345215
vt 0.288086 0.335938
vt 0.303223 0.335938
vt 0.303223 0.345215
vt 0.287842 0.352539
vt 0.297363 0.352539
vt 0.297363 0.432129
vt 0.287842 0.432129
vt 0.858398 0.978256
vt 0.848633 0.978256
vt 0.848633 0.570801
vt 0.858398 0.570801
vt 0.812012 0.571289
vt 0.812012 0.978668
vt 0.799805 0.978668
vt 0.799805 0.571289
vt 0.845215 0.572021
vt 0.845215 0.979340
vt 0.833008 0.979340
vt 0.833008 0.572021
vt 0.827637 0.980072
vt 0.817871 0.980072
vt 0.817871 0.572754
vt 0.827637 0.572754
vt 0.377197 0.011230
vt 0.432373 0.011230
vt 0.432373 0.416992
vt 0.377197 0.416992
s 1
usemtl MASTER_Building_Details
f 1/1/1 2/2/1 3/3/1
f 3/3/1 4/4/1 1/1/1
f 3/5/2 5/6/2 6/7/2
f 6/7/2 4/8/2 3/5/2
f 1/9/3 7/10/4 8/11/3
f 8/11/3 2/12/3 1/9/3
f 1/13/5 4/14/5 6/15/5
f 6/15/5 7/16/5 1/13/5
f 3/17/6 2/18/6 8/19/6
f 8/19/6 5/20/6 3/17/6
f 7/21/7 6/22/7 5/23/7
f 5/23/7 8/24/7 7/21/7
f 9/25/5 10/26/5 11/27/5
f 11/27/5 12/28/5 9/25/5
f 9/29/2 12/30/2 13/31/2
f 13/31/2 14/32/2 9/29/2
f 11/33/3 10/34/3 15/35/3
f 15/35/3 16/36/3 11/33/3
f 15/37/6 14/38/6 13/39/6
f 13/39/6 16/40/6 15/37/6
f 17/41/3 18/42/4 19/43/3
f 19/43/3 20/44/3 17/41/3
f 21/25/6 22/26/6 23/27/8
f 23/27/8 24/28/8 21/25/6
f 21/29/3 24/30/3 25/31/3
f 25/31/3 26/32/3 21/29/3
f 23/33/2 22/34/2 27/35/2
f 27/35/2 28/36/2 23/33/2
f 27/37/5 26/38/5 25/39/5
f 25/39/5 28/40/5 27/37/5
f 29/1/1 30/2/1 31/3/1
f 31/3/1 32/4/1 29/1/1
f 31/5/2 33/6/2 34/7/2
f 34/7/2 32/8/2 31/5/2
f 29/9/3 35/10/3 36/11/3
f 36/11/3 30/12/3 29/9/3
f 29/13/5 32/14/5 34/15/5
f 34/15/5 35/16/5 29/13/5
f 31/17/6 30/18/6 36/19/6
f 36/19/6 33/20/6 31/17/6
f 35/21/7 34/22/7 33/23/7
f 33/23/7 36/24/7 35/21/7
f 37/1/1 38/2/1 39/3/1
f 39/3/1 40/4/1 37/1/1
f 39/5/2 41/6/2 42/7/2
f 42/7/2 40/8/2 39/5/2
f 37/9/3 43/10/4 44/11/3
f 44/11/3 38/12/3 37/9/3
f 37/13/5 40/14/5 42/15/5
f 42/15/5 43/16/5 37/13/5
f 39/17/8 38/18/6 44/19/6
f 44/19/6 41/20/6 39/17/8
f 43/21/7 42/22/7 41/23/7
f 41/23/7 44/24/7 43/21/7
f 45/25/5 46/26/5 47/27/5
f 47/27/5 48/28/5 45/25/5
f 45/29/2 48/30/2 49/31/2
f 49/31/2 50/32/2 45/29/2
f 47/33/4 46/34/4 51/35/4
f 51/35/4 52/36/4 47/33/4
f 51/37/6 50/38/6 49/39/6
f 49/39/6 52/40/6 51/37/6
f 53/41/3 54/42/3 55/43/3
f 55/43/3 56/44/3 53/41/3
f 57/25/6 58/26/6 59/27/6
f 59/27/6 60/28/6 57/25/6
f 57/29/4 60/30/4 61/31/4
f 61/31/4 62/32/4 57/29/4
f 59/33/2 58/34/2 63/35/2
f 63/35/2 64/36/2 59/33/2
f 63/37/5 62/38/5 61/39/5
f 61/39/5 64/40/5 63/37/5
f 65/1/1 66/2/1 67/3/1
f 67/3/1 68/4/1 65/1/1
f 67/5/2 69/6/2 70/7/2
f 70/7/2 68/8/2 67/5/2
f 65/9/4 71/10/3 72/11/3
f 72/11/3 66/12/3 65/9/4
f 65/13/5 68/14/5 70/15/5
f 70/15/5 71/16/5 65/13/5
f 67/17/6 66/18/6 72/19/6
f 72/19/6 69/20/6 67/17/6
f 71/21/7 70/22/7 69/23/7
f 69/23/7 72/24/7 71/21/7
