# Blender 3.6.18
# www.blender.org
mtllib Mesh.1089.mtl
o Bistro_Research_Exterior_Paris_Building_01_paris_buildi_d3660a4
v -1.181270 10.984097 -1.604566
v -1.679622 10.984097 -2.684535
v -1.181269 7.190809 -1.604565
v -1.679622 7.190809 -2.684536
v -0.590685 7.190809 -0.264138
v -0.590687 10.984097 -0.264137
v -1.091958 7.190809 -1.350435
v -1.091959 10.984097 -1.350434
vn -0.9117 -0.0039 0.4108
vn -0.9117 -0.0039 0.4109
vt 0.497803 0.988487
vt 0.251221 0.988487
vt 0.497803 0.225098
vt 0.251221 0.225098
vt 0.249146 0.225098
vt 0.249146 0.988487
vt 0.002602 0.225098
vt 0.002602 0.988487
s 1
usemtl MASTER_Curtains
f 1/1/1 2/2/1 3/3/2
f 2/2/1 4/4/1 3/3/2
f 5/5/1 6/6/1 7/7/1
f 6/6/1 8/8/1 7/7/1
