# Blender 3.6.18
# www.blender.org
mtllib Mesh.207.mtl
o Bistro_Research_Exterior_Paris_Street_6183
v -10.852263 0.385074 -22.939583
v -11.031439 0.385074 -22.733622
v -5.823596 0.385074 -18.603964
v -6.002771 0.385074 -18.398001
v 2.324312 0.386579 -19.035477
v 2.118275 0.386579 -18.804110
v 4.193633 0.386579 -17.517269
v 3.995696 0.386579 -17.296457
v -20.724310 0.388379 8.124394
v -20.604210 0.388379 8.399982
v -13.726822 0.388379 5.180506
v -13.606721 0.388379 5.456090
v -8.756698 0.388378 20.862980
v -8.483323 0.388378 21.009214
v -5.171978 0.388378 14.171111
v -4.898603 0.388378 14.317343
v 1.443160 0.388378 24.417595
v 1.733094 0.388378 24.531105
v 3.989096 0.388378 17.966370
v 4.279027 0.388378 18.079882
v 15.815722 0.386578 16.010107
v 16.182386 0.386578 15.008392
v 15.539270 0.386578 15.891578
v 15.905465 0.386578 14.891185
v 8.154311 0.393730 19.418898
v 6.295213 0.393730 23.890102
v 8.426189 0.393730 19.547153
v 6.583871 0.393730 24.006523
v -32.404797 0.390854 -25.587782
v -32.396805 0.390854 -25.862501
v -43.187695 0.401438 -25.601061
v -43.168636 0.401438 -25.327000
v -47.889336 0.390854 -25.487154
v -47.897316 0.390854 -25.212435
v -32.170071 0.390854 -25.724306
v -31.970345 0.390854 -25.915735
v -39.708775 0.401439 -33.440910
v -39.889111 0.401439 -33.230614
v -43.080441 0.390854 -36.719658
v -43.280174 0.390854 -36.528225
v -13.027233 0.388380 -9.366243
v -12.897504 0.388380 -9.612853
v -14.918637 0.388380 -10.693524
v -15.048365 0.388380 -10.446916
v -15.008136 0.397975 -10.741377
v -15.137861 0.397975 -10.494768
v -15.104446 0.388380 -10.792873
v -15.234173 0.388380 -10.546265
v -19.153770 0.388380 -12.642019
v -19.024044 0.388380 -12.888628
v -8.317602 0.387076 -25.741724
v -8.513541 0.387076 -25.540758
v -5.423790 0.387076 -22.820721
v -5.227850 0.387076 -23.021687
v -5.355873 0.379624 -22.778774
v -5.168279 0.379624 -22.969248
v -4.880903 0.379624 -22.342798
v -4.684964 0.379624 -22.543762
v -4.827150 0.387076 -22.295473
v -4.631211 0.387076 -22.496439
v -3.386847 0.387076 -21.400972
v -3.582786 0.387076 -21.200008
v 0.405856 0.386578 -2.265619
v 0.424174 0.386578 -2.543972
v -6.236525 0.386578 -3.013104
v -6.273547 0.386578 -2.731562
v -6.622141 0.394883 -3.040264
v -6.660247 0.394883 -2.758537
v -6.837886 0.386578 -3.055459
v -6.876597 0.386578 -2.773629
v -9.136443 0.386578 -3.217354
v -9.181608 0.386578 -2.934424
v 0.475592 0.386578 -1.335113
v 0.258709 0.386578 -1.523738
v -3.845644 0.386578 3.079326
v -3.632417 0.386578 3.265684
v -3.933053 0.394883 3.177354
v -3.719903 0.394883 3.363663
v -4.138807 0.386578 3.408106
v -3.925840 0.386578 3.594304
v -6.428796 0.386578 5.976342
v -6.217868 0.386578 6.161276
v -27.712811 0.395044 -0.777677
v -24.456322 0.397811 -3.914079
v -24.466137 0.401401 -3.942369
v -27.720657 0.398634 -0.807855
v -24.131771 0.405170 -4.218761
v -24.637978 0.401401 -4.106073
v -27.878378 0.398634 -0.985119
v -27.912474 0.392183 -1.002083
v -24.673864 0.394950 -4.121321
v -24.141764 0.408761 -4.246873
v -23.895206 0.395930 -4.446707
v -24.314905 0.408761 -4.409333
v -24.350954 0.402309 -4.424424
v -23.905107 0.399521 -4.474910
v -21.987158 0.397854 -6.279537
v -24.077578 0.399521 -4.638011
v -24.113541 0.393069 -4.653182
v -21.996519 0.400265 -6.308259
v -21.825165 0.404525 -6.430205
v -22.165106 0.400265 -6.475087
v -22.200577 0.393814 -6.490730
v -21.834484 0.404539 -6.458969
v -21.625757 0.394711 -6.624479
v -22.002758 0.404539 -6.626095
v -22.038195 0.398087 -6.641775
v -21.635023 0.397736 -6.653288
v -16.534027 0.390140 -11.510516
v -16.541872 0.393731 -11.540692
v -16.699593 0.393731 -11.717956
v -21.802948 0.397736 -6.820756
v -21.838335 0.391284 -6.836480
v -16.733688 0.387279 -11.734921
vn -0.0039 1.0000 -0.0039
vn -0.0040 1.0000 -0.0040
vn 0.0355 0.9992 0.0197
vn -0.0039 1.0000 -0.0040
vn -0.0434 0.9987 -0.0276
vn 0.0276 0.9992 0.0276
vn 0.0356 0.9987 0.0355
vn 0.0276 0.9992 0.0277
vn -0.0434 0.9984 -0.0355
vn -0.0434 0.9981 -0.0434
vn 0.0039 1.0000 -0.0040
vn 0.0040 1.0000 -0.0039
vn -0.0118 0.9999 -0.0039
vn -0.0277 0.9996 -0.0040
vn -0.0197 0.9998 -0.0039
vn 0.0197 0.9994 -0.0277
vn 0.0040 0.9998 -0.0197
vn 0.0119 0.9997 -0.0197
vn -0.0119 0.9999 0.0040
vn -0.0118 0.9999 0.0040
vn 0.0909 0.9917 0.0909
vn 0.0830 0.9924 0.0910
vn 0.0355 0.9981 0.0513
vn 0.0512 0.9974 0.0513
vn 0.0830 0.9924 0.0909
vn -0.0747 0.9955 -0.0590
vn -0.0747 0.9944 -0.0747
vn -0.1302 0.9829 -0.1303
vn -0.1292 0.9832 -0.1292
vn 0.0513 0.9981 0.0355
vn 0.0988 0.9923 0.0751
vn -0.0590 0.9955 -0.0748
vn 0.0434 0.9984 0.0355
vn 0.0433 0.9973 0.0591
vn -0.1222 0.9817 -0.1459
vn 0.0040 0.9996 0.0277
vn 0.0276 0.9990 0.0355
vn -0.1293 0.9831 -0.1293
vn 0.0197 0.9997 0.0118
vn 0.0748 0.9963 0.0433
vn -0.1303 0.9829 -0.1303
vn 0.0434 0.9987 0.0277
vn 0.0824 0.9932 0.0824
vn -0.0591 0.9965 -0.0591
vt 1.187500 0.538574
vt 1.188477 0.455078
vt 3.232422 0.544189
vt 3.232422 0.459961
vt 2.494141 0.551025
vt 2.490234 0.450195
vt 3.236328 0.550781
vt 3.232422 0.459473
vt 0.315430 0.546631
vt 0.316650 0.454590
vt 2.646484 0.546143
vt 2.648438 0.454102
vt 0.316650 0.549561
vt 2.648438 0.549072
vt 0.316895 0.550049
vt 2.519531 0.548340
vt 2.519531 0.456543
vt 3.193359 0.458008
vt 3.519531 0.454590
vt 3.199219 0.550049
vt 3.525391 0.546631
vt 1.862305 0.548584
vt 0.316650 0.550049
vt 1.856445 0.459473
vt 5.070312 0.458008
vt 5.074219 0.542480
vt 1.759766 0.542236
vt 1.763672 0.457520
vt 0.315918 0.542236
vt 0.311279 0.457520
vt 5.074219 0.457520
vt 5.078125 0.542480
vt 1.762695 0.542480
vt 1.767578 0.457520
vt 0.318115 0.542480
vt 0.315186 0.457520
vt 3.322266 0.459473
vt 3.320312 0.545166
vt 2.617188 0.543945
vt 2.617188 0.458496
vt 2.585938 0.543945
vt 2.585938 0.458496
vt 2.552734 0.543945
vt 2.552734 0.458496
vt 1.188477 0.456055
vt 1.187500 0.541748
vt 3.322266 0.461426
vt 3.326172 0.547607
vt 2.056641 0.543945
vt 2.052734 0.458496
vt 2.033203 0.539795
vt 2.027344 0.458496
vt 1.834961 0.543457
vt 1.830078 0.458008
vt 1.812500 0.543213
vt 1.807617 0.458008
vt 1.296875 0.456543
vt 1.301758 0.541992
vt 5.074219 0.458984
vt 5.074219 0.544434
vt 3.023438 0.544434
vt 3.019531 0.457520
vt 2.906250 0.544434
vt 2.900391 0.457520
vt 2.839844 0.544434
vt 2.833984 0.457520
vt 2.130859 0.544434
vt 2.123047 0.457031
vt 5.074219 0.454590
vt 3.175781 0.542725
vt 3.175781 0.455566
vt 3.134766 0.542725
vt 3.134766 0.455566
vt 3.041016 0.542725
vt 3.041016 0.456055
vt 1.981445 0.542725
vt 1.980469 0.456543
vt 0.312256 0.456543
vt 1.701172 0.458496
vt 1.704102 0.466797
vt 0.316895 0.464844
vt 1.837891 0.457031
vt 1.701172 0.532959
vt 0.319824 0.530518
vt 0.315674 0.541504
vt 1.696289 0.543945
vt 1.840820 0.465332
vt 1.938477 0.457031
vt 1.836914 0.531494
vt 1.832031 0.542480
vt 1.942383 0.465332
vt 2.750000 0.457031
vt 1.938477 0.531494
vt 1.933594 0.542480
vt 2.753906 0.465332
vt 2.818359 0.456543
vt 2.751953 0.531494
vt 2.748047 0.542725
vt 2.822266 0.464844
vt 2.904297 0.456543
vt 2.820312 0.530518
vt 2.816406 0.541504
vt 2.908203 0.465332
vt 5.070312 0.456055
vt 5.074219 0.464844
vt 5.078125 0.530518
vt 2.906250 0.531250
vt 2.902344 0.542236
vt 5.074219 0.541504
s 1
usemtl Pavement_Cobblestone_Small_BLENDSHADER
f 1/1/1 2/2/1 3/3/1
f 2/2/1 4/4/1 3/3/1
f 5/5/1 6/6/1 7/7/1
f 6/6/1 8/8/1 7/7/1
f 9/9/1 10/10/1 11/11/1
f 10/10/1 12/12/1 11/11/1
f 13/13/1 14/10/1 15/14/1
f 14/10/1 16/12/1 15/14/1
f 17/15/1 18/10/1 19/16/1
f 18/10/1 20/17/1 19/16/1
f 21/18/1 22/19/1 23/20/1
f 22/19/1 24/21/1 23/20/1
f 25/22/1 26/23/1 27/24/1
f 26/23/1 28/10/1 27/24/1
f 29/25/1 30/26/1 31/27/1
f 32/28/2 29/25/1 31/27/1
f 31/27/1 33/29/2 32/28/2
f 33/29/2 34/30/2 32/28/2
f 35/31/2 36/32/2 37/33/2
f 38/34/2 35/31/2 37/33/2
f 37/33/2 39/35/2 38/34/2
f 39/35/2 40/36/2 38/34/2
f 41/37/1 42/38/1 43/39/3
f 44/40/3 41/37/1 43/39/3
f 44/40/3 43/39/3 45/41/4
f 46/42/1 44/40/3 45/41/4
f 46/42/1 45/41/4 47/43/5
f 48/44/5 46/42/1 47/43/5
f 49/45/1 48/44/5 47/43/5
f 50/46/1 49/45/1 47/43/5
f 51/47/1 52/48/1 53/49/6
f 54/50/6 51/47/1 53/49/6
f 54/50/6 53/49/6 55/51/7
f 56/52/8 54/50/6 55/51/7
f 56/52/8 55/51/7 57/53/9
f 58/54/10 56/52/8 57/53/9
f 58/54/10 57/53/9 59/55/10
f 60/56/9 58/54/10 59/55/10
f 61/57/1 60/56/9 59/55/10
f 62/58/1 61/57/1 59/55/10
f 63/59/1 64/60/1 65/61/11
f 66/62/12 63/59/1 65/61/11
f 66/62/12 65/61/11 67/63/13
f 68/64/13 66/62/12 67/63/13
f 68/64/13 67/63/13 69/65/14
f 70/66/15 68/64/13 69/65/14
f 70/66/15 69/65/14 71/67/1
f 72/68/1 70/66/15 71/67/1
f 73/69/1 74/26/1 75/70/16
f 76/71/16 73/69/1 75/70/16
f 76/71/16 75/70/16 77/72/17
f 78/73/18 76/71/16 77/72/17
f 78/73/18 77/72/17 79/74/19
f 80/75/20 78/73/18 79/74/19
f 80/75/20 79/74/19 81/76/1
f 82/77/1 80/75/20 81/76/1
f 83/78/21 84/79/22 85/80/23
f 86/81/24 83/78/21 85/80/23
f 84/79/22 87/82/25 85/80/23
f 86/81/24 85/80/23 88/83/26
f 89/84/27 86/81/24 88/83/26
f 90/85/28 89/84/27 88/83/26
f 91/86/29 90/85/28 88/83/26
f 87/82/25 92/87/30 85/80/23
f 85/80/23 92/87/30 88/83/26
f 87/82/25 93/88/31 92/87/30
f 91/86/29 88/83/26 94/89/32
f 92/87/30 94/89/32 88/83/26
f 95/90/28 91/86/29 94/89/32
f 93/88/31 96/91/33 92/87/30
f 94/89/32 92/87/30 96/91/33
f 93/88/31 97/92/34 96/91/33
f 95/90/28 94/89/32 98/93/32
f 98/93/32 94/89/32 96/91/33
f 99/94/35 95/90/28 98/93/32
f 97/92/34 100/95/36 96/91/33
f 98/93/32 96/91/33 100/95/36
f 97/92/34 101/96/37 100/95/36
f 99/94/35 98/93/32 102/97/26
f 102/97/26 98/93/32 100/95/36
f 103/98/38 99/94/35 102/97/26
f 101/96/37 104/99/39 100/95/36
f 102/97/26 100/95/36 104/99/39
f 101/96/37 105/100/40 104/99/39
f 103/98/38 102/97/26 106/101/32
f 106/101/32 102/97/26 104/99/39
f 107/102/41 103/98/38 106/101/32
f 105/100/40 108/103/42 104/99/39
f 106/101/32 104/99/39 108/103/42
f 105/100/40 109/104/43 108/103/42
f 109/104/43 110/105/6 108/103/42
f 110/105/6 111/106/44 108/103/42
f 107/102/41 106/101/32 112/107/32
f 112/107/32 106/101/32 108/103/42
f 111/106/44 112/107/32 108/103/42
f 113/108/35 107/102/41 112/107/32
f 111/106/44 114/109/41 112/107/32
f 114/109/41 113/108/35 112/107/32
