# Blender 3.6.18
# www.blender.org
mtllib Mesh.621.mtl
o Bistro_Research_Exterior_paris_building_05_71__5303
v 52.578796 0.578413 22.764818
v 49.760586 0.578413 21.629618
v 52.573860 0.559897 22.777073
v 49.755650 0.559897 21.641872
v 53.261951 2.267926 21.695547
v 53.257317 2.280405 21.707136
v 53.267471 2.267886 21.711227
v 53.243313 2.267886 21.771212
v 53.233154 2.280405 21.767118
v 53.228462 2.267926 21.778685
v 49.574654 4.032997 20.210274
v 49.569962 4.020517 20.221836
v 49.559807 4.033037 20.217747
v 49.535648 4.033037 20.277731
v 49.545803 4.020517 20.281822
v 49.541168 4.032997 20.293411
v 52.575432 0.541779 22.772402
v 49.757778 0.541778 21.637428
v 52.580101 0.560013 22.760105
v 49.762962 0.560013 21.625338
v 56.865879 6.791471 24.340441
v 48.636395 6.791471 21.025532
v 56.539623 6.362057 25.139683
v 48.317562 6.362056 21.827765
v 48.318478 6.315938 21.836191
v 48.651237 6.750714 21.010094
v 56.533119 6.315938 25.145121
v 56.865883 6.750714 24.319021
v 57.310249 27.551340 22.792807
v 56.704239 23.938335 24.296661
v 58.581093 30.379339 19.639503
v 58.537899 24.394115 19.622112
v 35.048138 27.551340 13.825414
v 36.318684 30.379335 10.672017
v 34.442131 23.938335 15.329278
v 36.311100 23.979652 10.668964
v 39.537994 27.548016 15.143726
v 38.712440 27.548016 17.191097
v 40.642689 27.041739 15.589145
v 39.817139 27.041742 17.636517
v 38.468796 27.061073 14.712603
v 37.643242 27.061077 16.759974
v 39.788544 27.000496 17.624987
v 38.712368 27.500313 17.191067
v 40.614105 27.000492 15.577620
v 39.537918 27.500313 15.143697
v 37.671692 27.019770 16.771446
v 38.497250 27.019766 14.724076
v 49.974335 0.822240 20.467894
v 53.227123 0.814367 21.778147
v 49.975849 2.273660 20.468504
v 53.260616 0.814367 21.695009
v 50.009335 2.273660 20.385366
v 50.007824 0.822240 20.384756
v 52.795296 5.478683 21.604202
v 49.542503 5.486557 20.293951
v 52.793781 4.027265 21.603590
v 49.575989 5.486557 20.210812
v 52.827267 4.027265 21.520454
v 52.828785 5.478683 21.521063
v 49.746773 4.462582 21.403955
v 50.721138 4.465662 20.783382
v 52.832695 4.462538 22.634842
v 52.578339 4.465662 21.551218
v 52.972195 27.548016 20.555138
v 52.146648 27.548016 22.602509
v 54.076897 27.041737 21.000557
v 53.251339 27.041740 23.047930
v 51.902996 27.061071 20.124012
v 51.077438 27.061075 22.171387
v 53.222752 27.000496 23.036400
v 52.146568 27.500307 22.602482
v 54.048302 27.000492 20.989031
v 52.972122 27.500307 20.555111
v 51.105896 27.019768 22.182861
v 51.931446 27.019764 20.135487
v 43.347404 24.064989 19.314930
v 43.388988 24.064987 19.211763
v 43.490692 24.912725 19.252762
v 43.449112 24.912727 19.355928
v 44.001171 26.410858 19.458473
v 43.959579 26.410862 19.561638
v 45.390179 27.486597 20.018305
v 45.348618 27.486616 20.121481
v 46.737885 26.410862 20.680763
v 46.779419 26.410858 20.577578
v 47.248421 24.912727 20.886324
v 47.289951 24.912725 20.783136
v 47.350147 24.064989 20.927269
v 47.391682 24.064987 20.824081
v 50.004707 2.286139 20.396955
v 49.980545 2.286139 20.456940
v 53.241978 0.814327 21.770676
v 53.266140 0.814327 21.710690
v 52.822575 4.014784 21.532019
v 52.798412 4.014785 21.592003
v 49.536980 5.486596 20.278269
v 49.561142 5.486596 20.218285
v 48.242889 24.064987 18.903467
v 48.138710 24.912727 18.861591
v 47.416874 24.064989 20.954123
v 47.312714 24.912727 20.912197
v 47.620796 26.463055 18.653282
v 46.794876 26.463055 20.703705
v 46.174438 27.579393 18.071325
v 45.348618 27.579475 20.121481
v 44.723286 26.459137 17.486141
v 43.897354 26.459133 19.536556
v 44.205589 24.912727 17.277298
v 43.379585 24.912727 19.327898
v 43.275444 24.064989 19.285919
v 44.101467 24.064987 17.235268
v 47.363007 30.379339 15.120763
v 46.091663 27.551344 18.273848
v 38.525806 27.234655 15.395240
v 38.033085 24.394121 16.616772
v 37.977928 23.938335 16.753531
v 40.130619 27.234655 16.041674
v 39.636955 24.394121 17.262829
v 39.582741 23.938335 17.399963
v 43.866779 23.938335 19.125612
v 44.795742 26.335300 18.400892
v 43.975822 24.912655 18.830013
v 46.011951 27.120781 18.471512
v 43.917847 24.394121 18.987209
v 47.040115 26.384851 19.278500
v 47.189522 23.938335 20.464045
v 47.247055 24.394121 20.328243
v 51.389481 23.938335 22.155825
v 51.936718 27.234659 20.797272
v 47.312389 24.912655 20.174013
v 53.557167 27.234657 21.450008
v 51.444576 24.394121 22.019043
v 53.064598 24.394121 22.671600
v 53.009430 23.938335 22.808357
vn -0.3115 0.5796 0.7531
vn -0.3115 0.5796 0.7530
vn 0.6627 0.3333 -0.6706
vn 0.4698 0.8647 -0.1777
vn 0.9496 0.3113 0.0355
vn 0.7100 0.3133 0.6307
vn 0.2171 0.8642 0.4538
vn 0.0118 0.3351 0.9421
vn -0.0195 -0.3395 -0.9404
vn -0.2223 -0.8617 -0.4562
vn -0.7086 -0.3171 -0.6303
vn -0.9478 -0.3159 -0.0429
vn -0.4734 -0.8646 0.1682
vn -0.6688 -0.3403 0.6610
vn -0.3657 -0.2635 0.8927
vn -0.3657 -0.2635 0.8926
vn 0.2998 -0.5879 -0.7514
vn -0.1695 0.8945 0.4138
vn -0.1694 0.8945 0.4137
vn 0.1595 -0.8987 -0.4085
vn -0.8954 -0.1290 -0.4262
vn 0.9415 -0.1298 0.3109
vn 0.9414 -0.1300 0.3112
vn -0.3731 0.1532 0.9151
vn 0.9308 -0.0118 0.3653
vn -0.9282 -0.0039 -0.3721
vn -0.0040 1.0000 -0.0040
vn -0.0039 1.0000 -0.0039
vn 0.3599 0.9214 0.1463
vn -0.3663 0.9177 -0.1536
vn -0.3704 -0.9163 -0.1521
vn -0.0039 -1.0000 -0.0039
vn -0.0048 -1.0000 -0.0019
vn 0.3641 -0.9200 0.1449
vn -0.3815 -0.0039 0.9243
vn 0.7427 -0.6012 0.2947
vn 0.7427 -0.6013 0.2947
vn -0.7444 -0.5966 -0.2999
vn -0.7446 -0.5962 -0.3002
vn -0.7445 -0.5962 -0.3002
vn -0.3815 -0.0039 0.9244
vn 0.0356 -0.0039 0.9994
vn -0.3506 0.3822 0.8550
vn 0.7188 -0.0039 -0.6952
vn 0.3414 0.3806 -0.8594
vn 0.3721 -0.0039 -0.9282
vn -0.7264 -0.0039 0.6872
vn -0.3496 -0.3889 0.8524
vn -0.0431 -0.0039 -0.9991
vn 0.3404 -0.3873 -0.8568
vn -0.7445 -0.5963 -0.3002
vn 0.9208 -0.1304 0.3675
vn 0.9021 -0.2403 0.3585
vn 0.7356 -0.6098 0.2950
vn 0.7357 -0.6097 0.2951
vn -0.7375 -0.6048 -0.3005
vn -0.9010 -0.2380 -0.3626
vn -0.9010 -0.2379 -0.3627
vn -0.9193 -0.1291 -0.3717
vn -0.9010 -0.2379 -0.3626
vn -0.9194 -0.1291 -0.3716
vn 0.1376 0.9237 -0.3577
vn -0.1457 0.9252 0.3504
vn 0.7380 -0.0039 0.6748
vn 0.9998 -0.0039 0.0198
vn 0.1366 -0.9248 -0.3551
vn -0.1446 -0.9263 0.3479
vn -0.9996 -0.0039 -0.0274
vn -0.7376 -0.0039 -0.6752
vn 0.9208 0.1304 0.3675
vn 0.9038 0.2328 0.3591
vn 0.9038 0.2329 0.3592
vn 0.7392 0.6048 0.2965
vn -0.7410 0.5998 -0.3019
vn -0.9027 0.2306 -0.3634
vn -0.9194 0.1291 -0.3717
vn -0.9194 0.1291 -0.3716
vn -0.3816 -0.0039 0.9243
vn -0.2401 0.7675 0.5943
vn -0.2401 0.7675 0.5944
vn -0.3036 0.6033 0.7374
vn -0.2965 0.6048 0.7392
vn -0.2953 0.6182 0.7284
vn -0.3440 0.4310 0.8342
vn -0.3578 0.3421 0.8689
vn -0.3497 0.4048 0.8449
vn -0.3574 0.3024 0.8836
vn -0.3428 0.4374 0.8314
vn -0.3586 0.3744 0.8551
vn -0.3416 0.4437 0.8285
vn -0.3358 0.4385 0.8336
vn -0.3424 0.3739 0.8619
vn -0.3417 0.4281 0.8366
vn -0.3509 0.3430 0.8713
vn -0.3428 0.4059 0.8472
vt 0.227417 0.302734
vt 0.693359 0.303223
vt 0.213867 0.310547
vt 0.055206 0.437012
vt 0.050537 0.439941
vt 0.050537 0.434570
vt 0.002638 -0.001953
vt 0.002638 0.002930
vt -0.002033 0.000000
vt 0.226807 0.322266
vt 0.679688 0.318848
vt 0.239502 0.332520
vt 0.672852 0.333008
vt 0.111084 0.309082
vt -2.667969 0.309082
vt 0.108521 0.004883
vt -2.666016 0.005859
vt -2.660156 -0.012695
vt -2.660156 -0.322266
vt 0.103699 -0.012695
vt 0.103699 -0.322266
vt -2.683594 -0.002930
vt -2.683594 0.309082
vt 0.126587 0.309082
vt 0.125610 -0.002930
vt -2.660156 -0.008789
vt 2.515625 0.660400
vt 2.009766 -0.465820
vt 3.574219 1.541504
vt 3.574219 -0.323242
vt 2.943359 0.660645
vt 1.883789 1.541504
vt 3.449219 -0.464844
vt 1.883789 -0.464844
vt 0.188477 1.468750
vt -0.528320 1.468994
vt 0.188354 1.086548
vt -0.528320 1.086792
vt -0.473633 1.762207
vt 0.243408 1.761719
vt -0.473389 2.136719
vt 0.243530 2.135742
vt 1.259766 0.830933
vt 1.259766 1.203125
vt 0.542480 0.830688
vt 0.542480 1.202881
vt 1.259766 1.621582
vt 1.258789 1.986328
vt 0.542480 1.621094
vt 0.542480 1.985840
vt 1.358398 0.838135
vt 1.359375 1.218018
vt 1.375000 0.841675
vt 1.374023 1.212402
vt 0.162109 1.062744
vt -0.558594 1.062744
vt 0.162109 1.037170
vt -0.558594 1.037170
vt -0.529785 1.731934
vt 0.187012 1.731934
vt -0.529785 1.746582
vt 0.187012 1.746582
vt 1.296875 1.214233
vt 1.291992 0.850830
vt 1.310547 1.208740
vt 1.307617 0.854248
vt 0.547852 1.036011
vt 0.545410 -0.059570
vt 1.000977 1.035492
vt 0.999512 -0.059570
vt 0.112305 -0.059570
vt 0.566406 -0.059570
vt 0.110535 1.035492
vt 0.563965 1.036011
vt 0.432617 0.701416
vt 0.572754 0.259277
vt 1.116211 0.713135
vt 0.983398 0.275391
vt 6.273438 -0.387695
vt 6.308594 -0.387695
vt 6.308594 -0.118164
vt 6.273438 -0.119141
vt 6.308594 0.388184
vt 6.273438 0.387207
vt 6.308594 0.975937
vt 6.273438 0.975922
vt 6.273438 1.564453
vt 6.308594 1.563477
vt 6.273438 2.071289
vt 6.308594 2.070312
vt 6.273438 2.339844
vt 6.308594 2.338867
vt 0.109558 -0.090820
vt 0.109558 1.066284
vt 0.105469 1.066223
vt 0.105469 -0.090820
vt 0.084106 1.066223
vt 0.084106 -0.090820
vt 0.080017 1.066284
vt 0.080017 -0.090820
vt 0.027725 0.431641
vt 0.027725 -0.042969
vt 0.031799 -0.042969
vt 0.031799 0.431641
vt 0.052948 -0.042969
vt 0.052948 0.435547
vt 0.031799 0.435547
vt 0.052948 0.431641
vt 0.057007 -0.042969
vt 0.057007 0.431641
vt 5.558594 2.344727
vt 5.558594 2.078125
vt 6.250000 2.344727
vt 6.250000 2.077148
vt 5.558594 1.568848
vt 6.250000 1.566895
vt 5.554688 0.976028
vt 6.246094 0.975937
vt 5.558594 0.381348
vt 6.250000 0.382812
vt 5.558594 -0.126953
vt 6.250000 -0.125977
vt 6.250000 -0.393555
vt 5.558594 -0.393555
vt 3.367188 1.826172
vt -0.353271 1.826172
vt -0.353516 0.444336
vt 7.144531 0.444824
vt 7.144531 1.826172
vt 3.365234 0.444824
vt 0.837402 0.333984
vt 0.837402 -0.645508
vt -0.353516 -0.794922
vt 0.837402 -0.794922
vt 1.377930 0.333984
vt 1.377930 -0.645508
vt 1.377930 -0.794922
vt 2.820312 -0.794922
vt 3.005859 0.020508
vt 2.818359 -0.475586
vt 3.365234 0.294434
vt 2.818359 -0.645508
vt 3.757812 0.037598
vt 3.939453 -0.794922
vt 3.941406 -0.645508
vt 5.355469 -0.794922
vt 5.355469 0.333984
vt 3.941406 -0.475586
vt 5.898438 0.333984
vt 5.355469 -0.645508
vt 5.898438 -0.645508
vt 5.898438 -0.794922
vt 7.144531 -0.794922
s 1
usemtl MASTER_Roofing_Shingle_Grey
f 1/1/1 2/2/1 3/3/2
f 2/2/1 4/2/1 3/3/2
f 5/4/3 6/5/4 7/6/5
f 8/7/6 9/8/7 10/9/8
f 11/4/9 12/5/10 13/6/11
f 14/7/12 15/8/13 16/9/14
f 3/3/15 4/2/15 17/10/16
f 4/2/15 18/11/15 17/10/16
f 17/10/17 18/11/17 19/12/17
f 18/11/17 20/13/17 19/12/17
f 21/14/18 22/15/18 23/16/18
f 22/15/19 24/17/19 23/16/19
f 25/18/20 26/19/20 27/20/20
f 26/19/20 28/21/20 27/20/20
f 25/22/21 24/17/21 26/23/21
f 24/17/21 22/15/21 26/23/21
f 28/24/22 21/14/23 27/25/23
f 21/14/23 23/16/23 27/25/23
f 27/20/24 23/16/24 25/18/24
f 23/16/24 24/26/24 25/18/24
f 29/27/25 30/28/25 31/29/25
f 30/28/25 32/30/25 31/29/25
f 33/31/26 34/32/26 35/33/26
f 34/32/26 36/34/26 35/33/26
f 37/35/27 38/36/28 39/37/29
f 38/36/28 40/38/29 39/37/29
f 41/39/30 42/40/30 37/41/27
f 42/40/30 38/42/28 37/41/27
f 43/43/31 44/44/32 45/45/31
f 44/44/33 46/46/32 45/45/31
f 44/47/33 47/48/34 46/49/32
f 47/48/34 48/50/34 46/49/32
f 40/51/35 38/52/35 43/53/35
f 38/52/35 44/54/35 43/53/35
f 39/55/36 40/56/37 45/57/36
f 40/56/37 43/58/37 45/57/36
f 42/59/38 41/60/39 47/61/40
f 41/60/39 48/62/39 47/61/40
f 38/63/35 42/64/41 44/65/35
f 42/64/41 47/66/41 44/65/35
f 49/67/35 50/68/42 51/69/43
f 50/68/42 10/70/8 51/69/43
f 5/71/3 52/72/44 53/73/45
f 52/72/44 54/74/46 53/73/45
f 55/67/35 56/68/47 57/69/48
f 56/68/47 16/70/14 57/69/48
f 11/71/9 58/72/49 59/73/50
f 58/72/49 60/74/46 59/73/50
f 61/75/32 62/76/32 63/77/32
f 62/76/32 64/78/32 63/77/32
f 65/35/27 66/36/28 67/37/29
f 66/36/28 68/38/29 67/37/29
f 69/39/30 70/40/30 65/41/27
f 70/40/30 66/42/28 65/41/27
f 71/43/31 72/44/32 73/45/31
f 72/44/33 74/46/32 73/45/31
f 72/47/33 75/48/34 74/49/32
f 75/48/34 76/50/34 74/49/32
f 68/51/35 66/52/35 71/53/35
f 66/52/35 72/54/35 71/53/35
f 67/55/37 68/56/37 73/57/37
f 68/56/37 71/58/37 73/57/37
f 70/59/51 69/60/40 75/61/51
f 69/60/40 76/62/38 75/61/51
f 66/63/35 70/64/35 72/65/35
f 70/64/35 75/66/35 72/65/35
f 77/79/52 78/80/52 79/81/53
f 80/82/53 77/79/52 79/81/53
f 80/82/53 79/81/53 81/83/54
f 82/84/55 80/82/53 81/83/54
f 82/84/55 81/83/54 83/85/32
f 84/86/32 82/84/55 83/85/32
f 84/86/32 83/85/32 85/87/56
f 83/85/32 86/88/56 85/87/56
f 85/87/56 86/88/56 87/89/57
f 86/88/56 88/90/58 87/89/57
f 87/89/57 88/90/58 89/91/59
f 88/90/60 90/92/61 89/91/61
f 5/93/3 53/94/45 91/95/62
f 6/96/4 5/93/3 91/95/62
f 6/96/4 91/95/62 92/97/63
f 9/98/7 6/96/4 92/97/63
f 92/97/63 51/99/43 9/98/7
f 51/99/43 10/100/8 9/98/7
f 10/101/8 50/102/42 93/103/64
f 8/104/6 10/101/8 93/103/64
f 93/103/64 94/105/65 8/104/6
f 6/106/4 9/107/7 8/104/6
f 7/108/5 6/106/4 8/104/6
f 94/105/65 7/108/5 8/104/6
f 94/105/65 52/109/44 7/108/5
f 52/109/44 5/110/3 7/108/5
f 11/93/9 59/94/50 95/95/66
f 12/96/10 11/93/9 95/95/66
f 12/96/10 95/95/66 96/97/67
f 15/98/13 12/96/10 96/97/67
f 96/97/67 57/99/48 15/98/13
f 57/99/48 16/100/14 15/98/13
f 16/101/14 56/102/47 97/103/68
f 14/104/12 16/101/14 97/103/68
f 97/103/68 98/105/69 14/104/12
f 12/106/10 15/107/13 14/104/12
f 13/108/11 12/106/10 14/104/12
f 98/105/69 13/108/11 14/104/12
f 98/105/69 58/109/49 13/108/11
f 58/109/49 11/110/9 13/108/11
f 99/111/70 100/112/71 101/113/70
f 100/112/71 102/114/72 101/113/70
f 100/112/71 103/115/73 102/114/72
f 103/115/73 104/116/73 102/114/72
f 103/115/73 105/117/28 104/116/73
f 105/117/28 106/118/28 104/116/73
f 106/118/28 105/117/28 107/119/74
f 108/120/74 106/118/28 107/119/74
f 108/120/74 107/119/74 109/121/75
f 110/122/75 108/120/74 109/121/75
f 111/123/76 110/122/75 109/121/75
f 112/124/77 111/123/77 109/121/75
f 110/122/35 111/123/35 77/79/35
f 80/82/35 110/122/35 77/79/78
f 110/122/35 80/82/35 82/84/78
f 108/120/78 110/122/35 82/84/78
f 106/118/35 108/120/78 82/84/78
f 84/86/35 106/118/35 82/84/78
f 84/86/35 85/87/78 106/118/35
f 85/87/78 104/116/78 106/118/35
f 104/116/78 85/87/78 102/114/78
f 85/87/78 87/89/35 102/114/78
f 87/89/35 89/91/78 102/114/78
f 89/91/78 101/113/78 102/114/78
f 113/125/79 34/126/80 33/127/81
f 29/128/82 31/129/79 113/125/79
f 114/130/83 113/125/79 33/127/81
f 114/130/83 29/128/82 113/125/79
f 114/130/83 33/127/81 115/131/84
f 115/131/84 33/127/81 116/132/85
f 33/127/81 35/133/86 116/132/85
f 35/133/86 117/134/87 116/132/85
f 118/135/88 114/130/83 115/131/84
f 119/136/85 116/132/85 117/134/87
f 120/137/87 119/136/85 117/134/87
f 119/136/85 120/137/87 121/138/87
f 122/139/88 118/135/88 119/136/85
f 114/130/83 118/135/88 122/139/88
f 123/140/89 122/139/88 119/136/85
f 124/141/90 114/130/83 122/139/88
f 123/140/89 119/136/85 125/142/87
f 125/142/87 119/136/85 121/138/87
f 114/130/83 124/141/90 126/143/91
f 121/138/87 127/144/87 125/142/87
f 127/144/87 128/145/87 125/142/87
f 127/144/87 129/146/87 128/145/87
f 130/147/91 114/130/83 126/143/91
f 29/128/82 114/130/83 130/147/91
f 130/147/91 126/143/91 131/148/92
f 132/149/93 29/128/82 130/147/91
f 133/150/94 130/147/91 131/148/92
f 133/150/94 131/148/92 128/145/87
f 129/146/87 133/150/94 128/145/87
f 29/128/82 132/149/93 134/151/94
f 129/146/87 135/152/87 133/150/94
f 135/152/87 134/151/94 133/150/94
f 30/153/95 29/128/82 134/151/94
f 135/152/87 30/153/95 134/151/94
