# Blender 3.6.18
# www.blender.org
mtllib Mesh.683.mtl
o Bistro_Research_Exterior_paris_building_05_11__5173
v 41.808884 16.991144 18.308090
v 42.280064 16.991144 18.497885
v 42.302448 16.991144 18.442326
v 41.831268 16.991144 18.252531
v 42.302448 16.895021 18.442326
v 41.831268 16.895021 18.252531
v 41.808884 16.895023 18.308090
v 42.280064 16.895021 18.497885
v 41.834621 14.291602 18.257231
v 41.814388 14.291602 18.307467
v 41.814388 16.899363 18.307467
v 41.834621 16.899363 18.257231
v 41.906872 16.899363 18.286333
v 41.906872 14.291602 18.286333
v 41.886639 14.291602 18.336569
v 41.886639 16.899363 18.336569
v 42.220829 16.892866 18.454117
v 41.894142 16.892866 18.322525
v 41.894142 14.294682 18.322525
v 42.220829 14.294681 18.454117
v 42.280750 14.291602 18.495323
v 42.300991 14.291602 18.445087
v 42.300991 16.899363 18.445087
v 42.280750 16.899363 18.495323
v 42.208504 16.899363 18.466221
v 42.208504 14.291602 18.466221
v 42.228741 14.291602 18.415983
v 42.228741 16.899363 18.415983
v 41.808884 14.291186 18.308090
v 42.280064 14.291186 18.497885
v 42.302448 14.291186 18.442326
v 41.831268 14.291186 18.252531
v 42.302448 14.195066 18.442326
v 41.831268 14.195066 18.252531
v 41.808884 14.195067 18.308090
v 42.280064 14.195066 18.497885
v 42.280029 16.991144 18.497871
v 42.751209 16.991144 18.687668
v 42.773586 16.991144 18.632107
v 42.302410 16.991144 18.442312
v 42.773586 16.895021 18.632107
v 42.302410 16.895021 18.442312
v 42.280029 16.895023 18.497871
v 42.751209 16.895021 18.687668
v 42.305767 14.291602 18.447010
v 42.285534 14.291602 18.497248
v 42.285534 16.899363 18.497248
v 42.305767 16.899363 18.447010
v 42.378017 16.899363 18.476112
v 42.378017 14.291602 18.476112
v 42.357780 14.291602 18.526348
v 42.357780 16.899363 18.526348
v 42.693123 16.892866 18.644360
v 42.366440 16.892866 18.512768
v 42.366440 14.294682 18.512768
v 42.693123 14.294681 18.644360
v 42.748177 14.291602 18.683605
v 42.768414 14.291602 18.633369
v 42.768414 16.899363 18.633369
v 42.748177 16.899363 18.683605
v 42.675926 16.899363 18.654505
v 42.675926 14.291602 18.654505
v 42.696167 14.291602 18.604267
v 42.696167 16.899363 18.604267
v 42.280029 14.291186 18.497871
v 42.751209 14.291186 18.687668
v 42.773586 14.291186 18.632107
v 42.302410 14.291186 18.442312
v 42.773586 14.195066 18.632107
v 42.302410 14.195066 18.442312
v 42.280029 14.195067 18.497871
v 42.751209 14.195066 18.687668
vn -0.0039 1.0000 -0.0039
vn 0.3721 -0.0039 -0.9282
vn -0.3815 -0.0039 0.9243
vn -0.9255 -0.0039 -0.3788
vn 0.9271 -0.0039 0.3748
vn -0.0039 -1.0000 -0.0039
vn 0.9271 -0.0040 0.3748
vn -0.3816 -0.0039 0.9243
vn -0.3815 -0.0039 0.9244
vt 0.327881 0.353027
vt 0.327881 0.432129
vt 0.318604 0.432129
vt 0.318604 0.353027
vt 0.315430 0.432129
vt 0.300537 0.432129
vt 0.300537 0.352539
vt 0.315430 0.352539
vt 0.270020 0.352051
vt 0.284912 0.352051
vt 0.284912 0.431641
vt 0.270020 0.431641
vt 0.269775 0.345215
vt 0.269775 0.335938
vt 0.284912 0.335938
vt 0.284912 0.345215
vt 0.288086 0.345215
vt 0.288086 0.335938
vt 0.303223 0.335938
vt 0.303223 0.345215
vt 0.287842 0.352539
vt 0.297363 0.352539
vt 0.297363 0.432129
vt 0.287842 0.432129
vt 0.858398 0.978256
vt 0.848633 0.978256
vt 0.848633 0.570801
vt 0.858398 0.570801
vt 0.812012 0.571289
vt 0.812012 0.978668
vt 0.799805 0.978668
vt 0.799805 0.571289
vt 0.845215 0.572021
vt 0.845215 0.979340
vt 0.833008 0.979340
vt 0.833008 0.572021
vt 0.827637 0.980072
vt 0.817871 0.980072
vt 0.817871 0.572754
vt 0.827637 0.572754
vt 0.377197 0.011230
vt 0.432373 0.011230
vt 0.432373 0.416992
vt 0.377197 0.416992
s 1
usemtl MASTER_Building_Details
f 1/1/1 2/2/1 3/3/1
f 3/3/1 4/4/1 1/1/1
f 3/5/2 5/6/2 6/7/2
f 6/7/2 4/8/2 3/5/2
f 1/9/3 7/10/3 8/11/3
f 8/11/3 2/12/3 1/9/3
f 1/13/4 4/14/4 6/15/4
f 6/15/4 7/16/4 1/13/4
f 3/17/5 2/18/5 8/19/5
f 8/19/5 5/20/5 3/17/5
f 7/21/6 6/22/6 5/23/6
f 5/23/6 8/24/6 7/21/6
f 9/25/4 10/26/4 11/27/4
f 11/27/4 12/28/4 9/25/4
f 9/29/2 12/30/2 13/31/2
f 13/31/2 14/32/2 9/29/2
f 11/33/3 10/34/3 15/35/3
f 15/35/3 16/36/3 11/33/3
f 15/37/5 14/38/5 13/39/5
f 13/39/5 16/40/5 15/37/5
f 17/41/3 18/42/3 19/43/3
f 19/43/3 20/44/3 17/41/3
f 21/25/7 22/26/5 23/27/5
f 23/27/5 24/28/5 21/25/7
f 21/29/8 24/30/8 25/31/8
f 25/31/3 26/32/3 21/29/3
f 23/33/2 22/34/2 27/35/2
f 27/35/2 28/36/2 23/33/2
f 27/37/4 26/38/4 25/39/4
f 25/39/4 28/40/4 27/37/4
f 29/1/1 30/2/1 31/3/1
f 31/3/1 32/4/1 29/1/1
f 31/5/2 33/6/2 34/7/2
f 34/7/2 32/8/2 31/5/2
f 29/9/3 35/10/3 36/11/3
f 36/11/3 30/12/3 29/9/3
f 29/13/4 32/14/4 34/15/4
f 34/15/4 35/16/4 29/13/4
f 31/17/5 30/18/5 36/19/5
f 36/19/5 33/20/5 31/17/5
f 35/21/6 34/22/6 33/23/6
f 33/23/6 36/24/6 35/21/6
f 37/1/1 38/2/1 39/3/1
f 39/3/1 40/4/1 37/1/1
f 39/5/2 41/6/2 42/7/2
f 42/7/2 40/8/2 39/5/2
f 37/9/3 43/10/3 44/11/3
f 44/11/3 38/12/3 37/9/3
f 37/13/4 40/14/4 42/15/4
f 42/15/4 43/16/4 37/13/4
f 39/17/5 38/18/5 44/19/5
f 44/19/5 41/20/5 39/17/5
f 43/21/6 42/22/6 41/23/6
f 41/23/6 44/24/6 43/21/6
f 45/25/4 46/26/4 47/27/4
f 47/27/4 48/28/4 45/25/4
f 45/29/2 48/30/2 49/31/2
f 49/31/2 50/32/2 45/29/2
f 47/33/8 46/34/8 51/35/8
f 51/35/9 52/36/9 47/33/9
f 51/37/5 50/38/5 49/39/5
f 49/39/5 52/40/5 51/37/5
f 53/41/3 54/42/3 55/43/3
f 55/43/3 56/44/3 53/41/3
f 57/25/5 58/26/5 59/27/5
f 59/27/5 60/28/5 57/25/5
f 57/29/3 60/30/3 61/31/3
f 61/31/3 62/32/3 57/29/3
f 59/33/2 58/34/2 63/35/2
f 63/35/2 64/36/2 59/33/2
f 63/37/4 62/38/4 61/39/4
f 61/39/4 64/40/4 63/37/4
f 65/1/1 66/2/1 67/3/1
f 67/3/1 68/4/1 65/1/1
f 67/5/2 69/6/2 70/7/2
f 70/7/2 68/8/2 67/5/2
f 65/9/3 71/10/3 72/11/3
f 72/11/3 66/12/3 65/9/3
f 65/13/4 68/14/4 70/15/4
f 70/15/4 71/16/4 65/13/4
f 67/17/5 66/18/5 72/19/7
f 72/19/7 69/20/5 67/17/5
f 71/21/6 70/22/6 69/23/6
f 69/23/6 72/24/6 71/21/6
