# Blender 3.6.18
# www.blender.org
mtllib Mesh.825.mtl
o Bistro_Research_Exterior_Paris_Building_01_paris_buildi_f58ac26
v 1.250492 4.435148 1.995514
v 4.675663 4.435147 3.347280
v 1.250492 0.743673 1.995514
v 4.675664 0.743672 3.347280
v 5.708334 4.436336 3.771785
v 9.135223 4.436335 5.124863
v 5.708334 0.742330 3.771785
v 9.135223 0.743672 5.124864
v 10.187626 4.437335 5.502503
v 13.617756 4.437335 6.856109
v 10.187627 0.742330 5.502501
v 13.617757 0.743673 6.856109
vn 0.3626 -0.0039 -0.9319
vn 0.3627 -0.0039 -0.9319
vt -0.000312 0.000488
vt 1.000000 0.000488
vt -0.000312 0.998384
vt 1.000000 0.998384
s 1
usemtl MASTER_Glass_Exterior
f 1/1/1 2/2/1 3/3/1
f 2/2/1 4/4/1 3/3/1
f 5/1/2 6/2/1 7/3/2
f 6/2/1 8/4/2 7/3/2
f 9/1/1 10/2/1 11/3/1
f 10/2/1 12/4/1 11/3/1
