# Blender 3.6.18
# www.blender.org
mtllib Mesh.1135.mtl
o Bistro_Research_Exterior_Paris_Building_01_paris_buildi_81c4312
v -0.139201 12.503866 -9.429655
v -2.840972 12.503866 -4.399629
v -0.024328 12.503866 -9.368046
v -2.690975 12.503866 -4.396027
v -0.024328 12.356985 -9.368046
v -2.690975 12.356985 -4.396027
v -0.168148 12.356985 -9.445181
v -2.873810 12.356985 -4.400417
v -0.168148 12.471018 -9.445181
v -2.873810 12.471018 -4.400417
v 0.078714 12.503865 1.731321
v 0.176086 12.503865 1.627307
v 0.176086 12.356984 1.627307
v 0.056266 12.356984 1.755301
v 0.056266 12.471017 1.755301
v 5.032465 12.503865 3.697903
v 5.080614 12.503865 3.576768
v 5.080614 12.356984 3.576768
v 5.020332 12.356984 3.728428
v 5.020332 12.471017 3.728428
vn -0.0039 1.0000 -0.0039
vn 0.8822 -0.0039 0.4708
vn -0.8807 -0.0039 -0.4736
vn 0.8999 -0.0039 -0.4362
vn -0.9044 -0.0039 0.4267
vn 0.3653 -0.0039 -0.9309
vn -0.3748 -0.0039 0.9271
vn -0.6434 0.6824 -0.3470
vn -0.6705 0.6705 0.3176
vn -0.2714 0.6961 0.6646
vn -0.2714 0.6961 0.6647
vt -2.164062 0.741455
vt -0.314453 0.740479
vt -2.164062 0.779663
vt -0.336426 0.779663
vt -2.164062 0.822754
vt -0.336426 0.822754
vt -2.164062 0.694092
vt -0.309814 0.694092
vt -2.164062 0.727783
vt -0.309814 0.727539
vt -0.417969 0.740479
vt 1.702148 0.740967
vt -0.396973 0.779907
vt 1.685547 0.779785
vt -0.396973 0.822998
vt 1.685547 0.822998
vt -0.422607 0.694092
vt 1.705078 0.694092
vt -0.422607 0.727783
vt 1.705078 0.727783
vt 1.645508 0.740967
vt 3.220703 0.735840
vt 1.661133 0.779907
vt 3.220703 0.774170
vt 1.661133 0.822998
vt 3.220703 0.817261
vt 1.641602 0.694580
vt 3.220703 0.688965
vt 1.641602 0.728027
vt 3.220703 0.722412
s 1
usemtl MASTER_Roofing_Shingle_Green
f 1/1/1 2/2/1 3/3/1
f 2/2/1 4/4/1 3/3/1
f 3/3/2 4/4/2 5/5/2
f 4/4/2 6/6/2 5/5/2
f 7/7/3 8/8/3 9/9/3
f 8/8/3 10/10/3 9/9/3
f 2/11/1 11/12/1 4/13/1
f 11/12/1 12/14/1 4/13/1
f 4/13/4 12/14/4 6/15/4
f 12/14/4 13/16/4 6/15/4
f 8/17/5 14/18/5 10/19/5
f 14/18/5 15/20/5 10/19/5
f 11/21/1 16/22/1 12/23/1
f 16/22/1 17/24/1 12/23/1
f 12/23/6 17/24/6 13/25/6
f 17/24/6 18/26/6 13/25/6
f 14/27/7 19/28/7 15/29/7
f 19/28/7 20/30/7 15/29/7
f 1/1/8 9/9/8 2/2/8
f 9/9/8 10/10/8 2/2/8
f 2/11/9 10/19/9 11/12/9
f 10/19/9 15/20/9 11/12/9
f 11/21/10 15/29/10 16/22/10
f 15/29/11 20/30/11 16/22/11
