# Blender 3.6.18
# www.blender.org
mtllib Mesh.474.mtl
o Bistro_Research_Exterior_paris_building_11_5615
v 0.978873 13.014503 19.828650
v 0.978873 15.980775 19.828650
v 1.016755 15.980775 19.774662
v 1.016755 13.014503 19.774662
v 1.021350 15.980776 19.768114
v 1.021350 13.014503 19.768114
v 1.091464 13.014503 19.796839
v 1.091464 15.980773 19.796839
v 1.090070 15.980774 19.804718
v 1.090070 13.014503 19.804718
v 1.077990 15.980775 19.872995
v 1.077990 13.014503 19.872995
v 1.028753 15.980775 19.771145
v 1.028753 13.014503 19.771145
v 1.084061 15.980773 19.793806
v 1.084061 13.014503 19.793806
vn -0.8179 -0.0039 -0.5753
vn -0.2855 -0.0039 -0.9584
vn 0.8723 -0.0039 -0.4890
vn 0.9856 -0.0039 0.1689
vn 0.3720 -0.0039 -0.9282
vn 0.3721 -0.0039 -0.9282
vt 0.276367 0.525879
vt -0.649902 0.525879
vt -0.649902 0.505859
vt 0.276367 0.505859
vt -0.649902 0.503418
vt 0.276367 0.503418
vt 0.723145 0.503418
vt 1.649414 0.503418
vt 1.649414 0.505859
vt 0.723145 0.505859
vt 1.649414 0.527100
vt 0.723145 0.527100
vt 0.723145 0.349121
vt 1.649414 0.349121
vt 1.649414 0.351562
vt 0.723145 0.351562
vt 1.649414 0.370117
vt 0.723145 0.370117
vt 1.649414 0.372559
vt 0.723145 0.372559
s 1
usemtl MASTER_Wood_Painted_Green
f 1/1/1 2/2/1 3/3/1
f 4/4/1 1/1/1 3/3/1
f 4/4/1 3/3/1 5/5/2
f 6/6/2 4/4/1 5/5/2
f 7/7/3 8/8/3 9/9/4
f 10/10/4 7/7/3 9/9/4
f 10/10/4 9/9/4 11/11/4
f 12/12/4 10/10/4 11/11/4
f 6/13/2 5/14/2 13/15/5
f 14/16/6 6/13/2 13/15/5
f 14/16/6 13/15/5 15/17/6
f 16/18/6 14/16/6 15/17/6
f 16/18/6 15/17/6 8/19/3
f 7/20/3 16/18/6 8/19/3
