# Blender 3.6.18
# www.blender.org
mtllib Mesh.410.mtl
o Bistro_Research_Exterior_paris_building_11_5757
v 8.545177 4.754148 23.874403
v 9.790129 4.754148 24.383474
v 9.812489 4.744442 24.328791
v 8.567537 4.744442 23.819721
v 9.815477 4.743145 24.321482
v 8.570525 4.743144 23.812414
v 8.569634 4.692325 23.814592
v 9.814586 4.692325 24.323664
v 9.811596 4.691054 24.330975
v 8.566644 4.691053 23.821903
v 9.788792 4.681356 24.386744
v 8.543839 4.681356 23.877672
v 9.815336 4.735153 24.321825
v 8.570385 4.735153 23.812757
v 9.814726 4.700316 24.323320
v 8.569774 4.700316 23.814249
vn 0.0590 0.9864 -0.1533
vn 0.0589 0.9864 -0.1533
vn 0.2867 0.6244 -0.7265
vn 0.2867 0.6244 -0.7266
vn 0.2772 -0.6676 -0.6910
vn 0.0585 -0.9866 -0.1521
vn 0.3716 -0.0508 -0.9270
vt 0.410156 0.525879
vt -0.009987 0.525879
vt -0.009987 0.507568
vt 0.410156 0.507568
vt -0.009987 0.505127
vt 0.410156 0.505127
vt 0.589355 0.505859
vt 1.009766 0.505859
vt 1.009766 0.508301
vt 0.589355 0.508301
vt 1.009766 0.527100
vt 0.589355 0.527100
vt 0.589355 0.379883
vt 1.009766 0.379883
vt 1.009766 0.382324
vt 0.589355 0.382324
vt 1.009766 0.393555
vt 0.589355 0.393555
vt 1.009766 0.395996
vt 0.589355 0.395996
s 1
usemtl MASTER_Wood_Painted_Green
f 1/1/1 2/2/1 3/3/2
f 4/4/1 1/1/1 3/3/2
f 4/4/1 3/3/2 5/5/3
f 6/6/4 4/4/1 5/5/3
f 7/7/5 8/8/5 9/9/6
f 10/10/6 7/7/5 9/9/6
f 10/10/6 9/9/6 11/11/6
f 12/12/6 10/10/6 11/11/6
f 6/13/4 5/14/3 13/15/7
f 14/16/7 6/13/4 13/15/7
f 14/16/7 13/15/7 15/17/7
f 16/18/7 14/16/7 15/17/7
f 16/18/7 15/17/7 8/19/5
f 7/20/5 16/18/7 8/19/5
