# Blender 3.6.18
# www.blender.org
mtllib Mesh.1002.mtl
o Bistro_Research_Exterior_Paris_Building_01_paris_buildi_acd8190
v 6.730628 13.937279 4.136943
v 6.731274 13.967013 4.135281
v 8.411687 13.937279 4.790253
v 8.412333 13.967013 4.788591
v 6.730227 13.982213 4.137975
v 8.411286 13.982213 4.791285
v 6.725919 13.994801 4.149060
v 8.406978 13.994801 4.802371
v 8.395488 14.004526 4.831937
v 6.714428 14.004528 4.178626
v 8.383998 13.998225 4.852808
v 6.702938 13.998225 4.199497
v 8.379690 13.984450 4.869358
v 6.698630 13.984452 4.216047
v 6.697583 13.967012 4.221972
v 8.378642 13.967012 4.875282
v 8.378642 13.937281 4.875282
v 6.697583 13.937282 4.221972
v 6.699151 13.934860 4.217937
v 8.380210 13.934861 4.871247
v 8.410067 13.934860 4.794424
v 6.729007 13.934861 4.141113
vn 0.3550 -0.0663 -0.9325
vn 0.3551 -0.0663 -0.9325
vn 0.3481 0.1839 -0.9192
vn 0.1081 0.9545 -0.2781
vn 0.1061 0.9545 -0.2789
vn 0.1081 0.9544 -0.2781
vn 0.1060 0.9545 -0.2789
vn -0.2323 0.7757 0.5867
vn -0.2323 0.7758 0.5867
vn -0.3488 0.3174 0.8818
vn -0.3653 -0.0039 0.9309
vn -0.3623 -0.0039 0.9321
vn -0.0039 -1.0000 -0.0039
vt 0.235840 0.369629
vt 0.235840 0.358887
vt 0.897461 0.369629
vt 0.897461 0.358887
vt 0.235840 0.353516
vt 0.897461 0.353516
vt 0.235840 0.348145
vt 0.897461 0.348145
vt 0.897461 0.341309
vt 0.235840 0.341309
vt 0.897461 0.335938
vt 0.235840 0.335938
vt 0.897461 0.330078
vt 0.235840 0.330078
vt 0.235840 0.323730
vt 0.897461 0.323730
vt 0.897461 0.312988
vt 0.235840 0.312988
vt 0.235840 0.312012
vt 0.897461 0.312012
vt 0.897461 0.295410
vt 0.235840 0.295410
vt 0.235840 0.294434
vt 0.897461 0.294434
s 1
usemtl MASTER_Wood_Polished
f 1/1/1 2/2/2 3/3/2
f 2/2/2 4/4/2 3/3/2
f 2/2/2 5/5/3 4/4/2
f 5/5/3 6/6/3 4/4/2
f 5/5/3 7/7/4 6/6/3
f 7/7/4 8/8/5 6/6/3
f 9/9/6 8/8/5 7/7/4
f 10/10/7 9/9/6 7/7/4
f 11/11/8 9/9/6 10/10/7
f 12/12/9 11/11/8 10/10/7
f 13/13/10 11/11/8 12/12/9
f 14/14/10 13/13/10 12/12/9
f 13/13/10 14/14/10 15/15/11
f 16/16/11 13/13/10 15/15/11
f 17/17/12 16/16/11 15/15/11
f 18/18/11 17/17/12 15/15/11
f 18/18/11 19/19/13 17/17/12
f 19/19/13 20/20/13 17/17/12
f 21/21/13 20/20/13 19/19/13
f 22/22/13 21/21/13 19/19/13
f 21/21/13 22/22/13 1/23/1
f 3/24/2 21/21/13 1/23/1
