# Blender 3.6.18
# www.blender.org
mtllib Mesh.460.mtl
o Bistro_Research_Exterior_paris_building_11_5647
v 7.032019 6.761579 22.379826
v 7.034523 6.824715 22.373703
v 7.411147 6.761579 22.534853
v 7.413651 6.824715 22.528730
v 7.029098 6.840628 22.386969
v 6.801359 6.840628 22.943909
v 7.408226 6.840628 22.541996
v 7.180489 6.840628 23.098938
v 6.801359 6.268683 22.943909
v 7.002152 6.268683 22.452862
v 7.180489 6.268683 23.098938
v 7.381280 6.268683 22.607891
v 7.007565 6.284592 22.439627
v 7.004694 6.355545 22.446646
v 7.386693 6.284593 22.594654
v 7.383822 6.355545 22.601675
v 6.795304 6.824627 22.958719
v 6.795304 6.284683 22.958719
v 7.174432 6.824628 23.113747
v 7.174432 6.284683 23.113747
v 7.009526 6.735411 22.434832
v 7.025424 6.742868 22.395948
v 7.388654 6.735411 22.589859
v 7.404553 6.742868 22.550978
v 7.195298 6.284683 23.104994
v 7.395409 6.284683 22.615614
v 7.369763 6.399556 22.678331
v 7.357469 6.408827 22.666126
v 7.365601 6.409092 22.688511
v 7.354171 6.416189 22.674191
v 7.195298 6.824628 23.104994
v 7.356171 6.447132 22.711571
v 7.347107 6.452592 22.691465
v 6.986661 6.284683 22.448473
v 6.786550 6.284683 22.937855
v 6.956852 6.409093 22.521370
v 6.975042 6.416189 22.519161
v 6.961016 6.399556 22.511190
v 6.978339 6.408827 22.511097
v 6.947423 6.447132 22.544432
v 6.967979 6.452592 22.536436
v 7.003360 6.716623 22.449913
v 7.382488 6.716623 22.604940
v 7.364156 6.398190 22.649773
v 6.985027 6.398190 22.494745
v 7.373102 6.385368 22.627893
v 6.993974 6.385368 22.472862
v 7.377811 6.378865 22.616375
v 6.998684 6.378865 22.461346
v 7.382193 6.693508 22.605659
v 7.003065 6.693508 22.450632
v 7.379554 6.653945 22.612114
v 7.000425 6.653945 22.457087
v 7.372630 6.613468 22.629045
v 6.993502 6.613468 22.474018
v 7.359282 6.571621 22.661690
v 6.980154 6.571621 22.506660
v 7.347189 6.529944 22.691263
v 6.968061 6.529944 22.536236
v 7.343955 6.490389 22.699171
v 6.964827 6.490390 22.544142
v 7.392312 6.361239 22.623186
v 6.983565 6.361239 22.456047
v 7.011030 6.759313 22.388878
v 7.419778 6.759313 22.556021
v 7.385066 6.371244 22.640909
v 7.375958 6.384297 22.663183
v 7.352567 6.490355 22.720387
v 7.356367 6.536830 22.711094
v 7.369370 6.581650 22.679293
v 7.382267 6.622081 22.647751
v 7.388532 6.658702 22.632433
v 7.390965 6.695174 22.626482
v 7.391614 6.746103 22.624893
v 6.967210 6.384297 22.496042
v 6.976318 6.371244 22.473768
v 6.786550 6.824628 22.937855
v 7.013621 6.824628 22.382544
v 7.422368 6.824628 22.549685
v 6.943820 6.490355 22.553246
v 6.947619 6.536830 22.543955
v 6.960622 6.581650 22.512152
v 6.973520 6.622081 22.480610
v 6.979784 6.658702 22.465292
v 6.982217 6.695174 22.459343
v 6.982866 6.746103 22.457754
vn 0.3727 -0.1059 -0.9219
vn -0.0039 1.0000 -0.0039
vn -0.0039 -1.0000 -0.0039
vn 0.3727 0.1059 -0.9219
vn -0.3815 -0.0039 0.9243
vn 0.0584 -0.9842 -0.1673
vn 0.5232 -0.4682 0.7121
vn 0.2463 -0.7625 0.5983
vn 0.8974 -0.4193 -0.1372
vn 0.6125 -0.7374 -0.2848
vn 0.7551 0.6128 -0.2332
vn 0.8010 0.5011 -0.3275
vn 0.7978 0.5070 -0.3262
vn 0.5251 0.4620 0.7147
vn 0.1377 0.4602 0.8771
vn 0.1372 -0.4663 0.8739
vn 0.8884 0.2645 -0.3751
vn 0.8865 0.2719 -0.3743
vn -0.5476 -0.4156 -0.7263
vn -0.2448 -0.7342 -0.6332
vn -0.8757 -0.4632 0.1362
vn -0.6033 -0.7589 0.2452
vn -0.3484 0.4971 -0.7947
vn -0.3470 0.5030 -0.7916
vn -0.3878 0.6072 -0.6934
vn -0.3812 0.6091 -0.6955
vn -0.3792 0.2619 -0.8875
vn -0.3784 0.2692 -0.8856
vn -0.1366 0.4099 -0.9018
vn -0.2461 0.7306 -0.6369
vn 0.7249 0.4114 -0.5525
vn 0.6161 0.7338 -0.2864
vn -0.1362 -0.4163 -0.8989
vn 0.7226 -0.4179 -0.5507
vn -0.2929 -0.3164 -0.9023
vn -0.4099 -0.6754 -0.6130
vn 0.8374 -0.3184 -0.4442
vn 0.7181 -0.6789 -0.1530
vn 0.2953 0.6182 -0.7284
vn 0.2154 0.8107 -0.5444
vn 0.1840 0.8654 -0.4660
vn 0.1841 0.8654 -0.4660
vn 0.1766 0.8827 -0.4354
vn 0.1689 0.8839 -0.4361
vn 0.1689 0.8839 -0.4360
vn 0.3719 -0.0352 -0.9276
vn 0.3718 -0.0352 -0.9276
vn 0.3549 -0.3003 -0.8853
vn 0.3549 -0.3003 -0.8854
vn 0.3159 -0.5344 -0.7840
vn 0.2925 -0.6278 -0.7214
vn 0.3395 -0.4253 -0.8390
vn 0.3721 -0.0039 -0.9282
vn 0.3494 0.3337 -0.8755
vn 0.8623 0.4056 -0.3032
vn 0.7273 0.3578 -0.5857
vn -0.1212 0.3558 -0.9267
vn -0.4108 0.4031 -0.8178
vn -0.1921 0.6154 -0.7644
vn 0.6646 0.6174 -0.4208
vn -0.2302 -0.7297 -0.6438
vn -0.4701 -0.4779 -0.7420
vn -0.1367 -0.4570 -0.8789
vn 0.6083 -0.7339 -0.3022
vn 0.7058 -0.4562 -0.5420
vn 0.8510 -0.4823 -0.2078
vn 0.7774 0.6274 -0.0434
vn 0.7774 0.6275 -0.0434
vn 0.7838 0.6105 -0.1142
vn 0.7807 0.6142 -0.1149
vn 0.9243 -0.0040 -0.3816
vn 0.9243 -0.0039 -0.3815
vn 0.9008 -0.2950 -0.3186
vn 0.8610 -0.4443 -0.2477
vn 0.8610 -0.4442 -0.2477
vn 0.8801 -0.3794 -0.2855
vn 0.9099 -0.2088 -0.3585
vn 0.9099 -0.2088 -0.3584
vn 0.9178 -0.0748 -0.3900
vn 0.9239 -0.3735 -0.0826
vn -0.4822 0.6076 -0.6311
vn -0.5290 0.6232 -0.5760
vn -0.5290 0.6231 -0.5761
vn 0.2478 0.7592 0.6018
vn -0.7185 0.4594 0.5222
vn -0.6068 0.7556 0.2466
vn -0.8789 0.4570 0.1367
vn -0.5494 0.4091 -0.7286
vn -0.7159 -0.4656 0.5203
vn 0.8988 0.4158 -0.1386
vn -0.4014 -0.0039 -0.9159
vn -0.4260 -0.2931 -0.8559
vn -0.4490 -0.4412 -0.7770
vn -0.4312 -0.3769 -0.8198
vn -0.4014 -0.2065 -0.8923
vn -0.3938 -0.0741 -0.9162
vn -0.6042 -0.3703 -0.7056
vn -0.9255 -0.0039 -0.3788
vn 0.9271 -0.0039 0.3748
vn 0.9271 -0.0040 0.3748
vt 0.636719 1.385010
vt 0.656250 1.385010
vt 0.636719 1.512695
vt 0.656250 1.512695
vt 0.233643 1.385010
vt 0.421631 1.385010
vt 0.233643 1.512695
vt 0.421631 1.512695
vt 0.578125 1.385010
vt 0.743652 1.385010
vt 0.578125 1.512695
vt 0.743652 1.512695
vt 0.487793 1.385010
vt 0.509766 1.385010
vt 0.487793 1.512695
vt 0.509766 1.512695
vt 0.343262 1.385010
vt 0.511719 1.385010
vt 0.343262 1.512695
vt 0.511719 1.512695
vt 0.750000 1.385010
vt 0.763184 1.385010
vt 0.750000 1.512695
vt 0.763184 1.512695
vt 0.578125 1.517578
vt 0.743164 1.517578
vt 0.277588 1.517578
vt 0.275391 1.512695
vt 0.281006 1.517578
vt 0.278076 1.512695
vt 0.578125 0.656738
vt 0.573242 0.656738
vt 0.578125 0.488281
vt 0.573242 0.488281
vt 0.526367 1.517578
vt 0.528809 1.512695
vt 0.538574 1.517578
vt 0.540039 1.512695
vt 0.743164 1.379883
vt 0.578125 1.379883
vt 0.281006 1.379883
vt 0.278076 1.385010
vt 0.277588 1.379883
vt 0.275391 1.385010
vt 0.538574 1.379883
vt 0.540039 1.385010
vt 0.526367 1.379883
vt 0.528809 1.385010
vt 0.661133 1.385010
vt 0.661133 1.512695
vt 0.482666 1.385010
vt 0.482666 1.512695
vt 0.622559 1.385010
vt 0.628418 1.385010
vt 0.622559 1.512695
vt 0.628418 1.512695
vt 0.270020 1.512695
vt 0.270020 1.385010
vt 0.262451 1.512695
vt 0.262451 1.385010
vt 0.258545 1.512695
vt 0.258545 1.385010
vt 0.615234 1.512695
vt 0.615234 1.385010
vt 0.603027 1.512695
vt 0.603027 1.385010
vt 0.590332 1.512695
vt 0.590332 1.385010
vt 0.577148 1.512695
vt 0.577148 1.385010
vt 0.564453 1.512695
vt 0.564453 1.385010
vt 0.551758 1.512695
vt 0.551758 1.385010
vt 0.743164 0.488281
vt 0.743652 0.482910
vt 0.748535 0.488281
vt 0.740723 0.511963
vt 0.746094 0.510010
vt 0.511719 1.379883
vt 0.517090 1.385010
vt 0.517090 1.512695
vt 0.511719 1.517578
vt 0.630859 1.385010
vt 0.635742 1.379883
vt 0.630859 1.512695
vt 0.635742 1.517578
vt 0.741211 0.517334
vt 0.734863 0.515137
vt 0.737305 0.519531
vt 0.727051 0.519043
vt 0.729492 0.523438
vt 0.722168 0.523926
vt 0.724121 0.526855
vt 0.710938 0.538818
vt 0.715820 0.540527
vt 0.708008 0.552246
vt 0.712891 0.552246
vt 0.710938 0.566650
vt 0.715820 0.564697
vt 0.721680 0.580811
vt 0.725586 0.577637
vt 0.732422 0.593506
vt 0.736816 0.590820
vt 0.737793 0.604736
vt 0.742188 0.603271
vt 0.739746 0.616211
vt 0.744629 0.615723
vt 0.740234 0.632080
vt 0.744629 0.623047
vt 0.750000 0.628906
vt 0.763184 0.636230
vt 0.763184 0.631104
vt 0.258789 0.511963
vt 0.253662 0.510010
vt 0.256348 0.488281
vt 0.251221 0.488281
vt 0.255859 0.482910
vt 0.277588 0.523926
vt 0.275391 0.526855
vt 0.272461 0.519043
vt 0.270020 0.523438
vt 0.264893 0.515137
vt 0.262451 0.519531
vt 0.258545 0.517334
vt 0.426514 1.512695
vt 0.421631 1.517578
vt 0.426514 1.385010
vt 0.421631 1.379883
vt 0.234131 1.379883
vt 0.343262 1.379883
vt 0.229126 0.656738
vt 0.234131 0.656738
vt 0.233643 0.661621
vt 0.236328 0.636230
vt 0.231201 0.636963
vt 0.766113 0.661621
vt 0.578125 0.661621
vt 0.765625 0.656738
vt 0.770508 0.656738
vt 0.768555 0.636963
vt 0.286621 0.552246
vt 0.283936 0.540527
vt 0.288818 0.538818
vt 0.291748 0.552246
vt 0.283936 0.564697
vt 0.288574 0.566650
vt 0.273926 0.577637
vt 0.277832 0.580811
vt 0.262939 0.590820
vt 0.267090 0.593506
vt 0.257324 0.603271
vt 0.261963 0.604736
vt 0.255127 0.615723
vt 0.260010 0.616211
vt 0.254883 0.623047
vt 0.259521 0.632080
vt 0.249756 0.628906
vt 0.236572 0.631104
vt 0.421631 0.488281
vt 0.421631 0.656738
vt 0.281006 0.526855
vt 0.718750 0.526855
s 1
usemtl MASTER_Concrete_Plaster
f 1/1/1 2/2/1 3/3/1
f 2/2/1 4/4/1 3/3/1
f 5/5/2 6/6/2 7/7/2
f 6/6/2 8/8/2 7/7/2
f 9/9/3 10/10/3 11/11/3
f 10/10/3 12/12/3 11/11/3
f 13/13/4 14/14/4 15/15/4
f 14/14/4 16/16/4 15/15/4
f 17/17/5 18/18/5 19/19/5
f 18/18/5 20/20/5 19/19/5
f 21/21/6 22/22/6 23/23/6
f 22/22/6 24/24/6 23/23/6
f 25/25/7 11/11/8 26/26/9
f 11/11/8 12/12/10 26/26/9
f 27/27/11 28/28/11 29/29/12
f 28/28/11 30/30/13 29/29/12
f 31/31/14 19/32/15 25/33/7
f 19/32/15 20/34/16 25/33/7
f 29/35/12 30/36/13 32/37/17
f 30/36/13 33/38/18 32/37/17
f 34/39/19 10/10/20 35/40/21
f 10/10/20 9/9/22 35/40/21
f 36/41/23 37/42/24 38/43/25
f 37/42/24 39/44/26 38/43/25
f 40/45/27 41/46/28 36/47/23
f 41/46/28 37/48/24 36/47/23
f 2/2/29 5/49/30 4/4/31
f 5/49/30 7/50/32 4/4/31
f 10/51/20 13/13/33 12/52/10
f 13/13/33 15/15/34 12/52/10
f 42/53/35 21/54/36 43/55/37
f 21/54/36 23/56/38 43/55/37
f 37/42/39 30/30/39 28/28/40
f 39/44/40 37/42/39 28/28/40
f 39/44/40 28/28/40 44/57/41
f 45/58/42 39/44/40 44/57/41
f 45/58/42 44/57/41 46/59/43
f 47/60/43 45/58/42 46/59/43
f 47/60/43 46/59/43 48/61/44
f 49/62/45 47/60/43 48/61/44
f 42/53/46 43/55/47 50/63/1
f 51/64/1 42/53/46 50/63/1
f 51/64/1 50/63/1 52/65/48
f 53/66/49 51/64/1 52/65/48
f 53/66/49 52/65/48 54/67/50
f 55/68/50 53/66/49 54/67/50
f 55/68/50 54/67/50 56/69/51
f 57/70/51 55/68/50 56/69/51
f 57/70/51 56/69/51 58/71/52
f 59/72/52 57/70/51 58/71/52
f 59/72/52 58/71/52 60/73/53
f 61/74/53 59/72/52 60/73/53
f 61/74/53 60/73/53 33/38/54
f 41/46/54 61/74/53 33/38/54
f 41/46/54 33/38/54 30/36/39
f 37/48/39 41/46/54 30/36/39
f 26/75/9 12/76/10 15/77/34
f 26/75/9 15/77/34 62/78/55
f 15/77/34 16/79/56 62/78/55
f 14/14/57 63/80/58 49/81/59
f 14/14/57 49/81/59 16/16/56
f 49/81/59 48/82/60 16/16/56
f 62/83/55 16/16/56 48/82/60
f 22/84/61 64/85/62 1/1/63
f 24/86/64 22/84/61 1/1/63
f 3/3/65 24/86/64 1/1/63
f 24/86/64 3/3/65 65/87/66
f 62/78/55 48/88/60 66/89/67
f 48/88/60 46/90/68 66/89/67
f 66/89/67 46/90/68 67/91/69
f 46/90/68 44/92/70 67/91/69
f 67/91/69 44/92/70 27/93/11
f 44/92/70 28/94/11 27/93/11
f 32/95/17 33/96/18 68/97/71
f 33/96/18 60/98/72 68/97/71
f 68/97/71 60/98/72 69/99/73
f 60/98/72 58/100/73 69/99/73
f 69/99/73 58/100/73 70/101/74
f 58/100/73 56/102/75 70/101/74
f 70/101/74 56/102/75 71/103/76
f 56/102/75 54/104/76 71/103/76
f 71/103/76 54/104/76 72/105/77
f 54/104/76 52/106/78 72/105/77
f 72/105/77 52/106/78 73/107/79
f 52/106/78 50/108/79 73/107/79
f 73/107/79 50/108/79 74/109/80
f 50/108/79 43/110/37 74/109/80
f 43/110/37 23/111/38 74/109/80
f 74/109/80 23/111/38 65/112/66
f 23/111/38 24/113/64 65/112/66
f 63/114/58 14/115/57 34/116/19
f 14/115/57 13/117/33 34/116/19
f 10/118/20 34/116/19 13/117/33
f 38/119/25 39/120/26 75/121/81
f 39/120/26 45/122/81 75/121/81
f 75/121/81 45/122/81 76/123/82
f 45/122/81 47/124/83 76/123/82
f 76/123/82 47/124/83 63/114/58
f 47/124/83 49/125/59 63/114/58
f 8/8/84 19/126/15 31/127/14
f 17/128/85 19/126/15 8/8/84
f 6/6/86 17/128/85 8/8/84
f 6/6/86 77/129/87 17/128/85
f 77/129/87 6/6/86 78/130/88
f 6/6/86 5/5/30 78/130/88
f 20/20/16 11/82/8 25/83/7
f 11/82/8 20/20/16 9/81/22
f 20/20/16 18/18/89 9/81/22
f 18/18/89 35/80/21 9/81/22
f 35/80/21 18/18/89 77/131/87
f 18/18/89 17/17/85 77/131/87
f 2/132/29 78/133/88 5/134/30
f 78/133/88 2/132/29 64/135/62
f 2/132/29 1/136/63 64/135/62
f 7/137/32 8/138/84 31/31/14
f 79/139/90 7/137/32 31/31/14
f 4/140/31 7/137/32 79/139/90
f 3/141/65 4/140/31 79/139/90
f 65/112/66 3/141/65 79/139/90
f 61/142/91 41/143/28 40/144/27
f 80/145/91 61/142/91 40/144/27
f 59/146/92 61/142/91 80/145/91
f 81/147/92 59/146/92 80/145/91
f 57/148/93 59/146/92 81/147/92
f 82/149/93 57/148/93 81/147/92
f 55/150/94 57/148/93 82/149/93
f 83/151/94 55/150/94 82/149/93
f 53/152/95 55/150/94 83/151/94
f 84/153/95 53/152/95 83/151/94
f 51/154/96 53/152/95 84/153/95
f 85/155/96 51/154/96 84/153/95
f 42/156/35 51/154/96 85/155/96
f 86/157/97 42/156/35 85/155/96
f 42/156/35 86/157/97 21/158/36
f 22/159/61 21/158/36 86/157/97
f 64/135/62 22/159/61 86/157/97
f 64/135/98 86/157/98 78/133/98
f 78/133/98 86/157/98 35/160/98
f 77/161/98 78/133/98 35/160/98
f 86/157/98 85/155/98 35/160/98
f 85/155/98 84/153/98 35/160/98
f 84/153/98 83/151/98 35/160/98
f 83/151/98 82/149/98 35/160/98
f 82/149/98 81/147/98 35/160/98
f 81/147/98 80/145/98 35/160/98
f 80/145/98 40/144/98 35/160/98
f 40/144/98 36/162/98 35/160/98
f 36/162/98 38/119/98 35/160/98
f 38/119/98 75/121/98 35/160/98
f 75/121/98 76/123/98 35/160/98
f 76/123/98 63/114/98 35/160/98
f 63/114/98 34/116/98 35/160/98
f 62/78/99 66/89/100 26/75/99
f 66/89/100 67/91/99 26/75/99
f 67/91/99 27/93/99 26/75/99
f 27/93/99 29/163/99 26/75/99
f 26/75/99 29/163/99 31/31/99
f 25/33/99 26/75/99 31/31/99
f 29/163/99 32/95/99 31/31/99
f 32/95/99 68/97/99 31/31/99
f 68/97/99 69/99/99 31/31/99
f 69/99/99 70/101/99 31/31/99
f 70/101/99 71/103/99 31/31/99
f 71/103/99 72/105/99 31/31/99
f 72/105/99 73/107/99 31/31/99
f 73/107/99 74/109/100 31/31/99
f 74/109/100 65/112/99 31/31/99
f 65/112/99 79/139/99 31/31/99
