# Blender 3.6.18
# www.blender.org
mtllib Mesh.633.mtl
o Bistro_Research_Exterior_paris_building_05_5__5279
v 46.408836 22.435295 19.986792
v 46.178707 22.435295 20.439636
v 46.232101 22.435295 20.466772
v 46.462242 22.435295 20.013929
v 46.232101 22.339174 20.466772
v 46.462242 22.339174 20.013929
v 46.408836 22.339176 19.986792
v 46.178707 22.339174 20.439636
v 46.457264 19.735754 20.016865
v 46.408978 19.735754 19.992327
v 46.408978 22.343515 19.992327
v 46.457264 22.343515 20.016865
v 46.421978 22.343515 20.086302
v 46.421978 19.735754 20.086302
v 46.373695 19.735754 20.061762
v 46.373695 22.343515 20.061762
v 46.408306 22.337019 20.069729
v 46.248745 22.337019 20.383701
v 46.248745 19.738834 20.383701
v 46.408306 19.738832 20.069731
v 46.185032 19.735754 20.432989
v 46.233318 19.735754 20.457527
v 46.233318 22.343515 20.457527
v 46.185032 22.343515 20.432989
v 46.220322 22.343515 20.363554
v 46.220322 19.735754 20.363554
v 46.268604 19.735754 20.388090
v 46.268604 22.343515 20.388090
v 46.408836 19.735338 19.986792
v 46.178707 19.735338 20.439636
v 46.232101 19.735338 20.466772
v 46.462242 19.735338 20.013929
v 46.232101 19.639217 20.466772
v 46.462242 19.639217 20.013929
v 46.408836 19.639219 19.986792
v 46.178707 19.639217 20.439636
v 46.191887 19.905807 20.439743
v 46.226772 19.905807 20.457472
v 46.226772 20.034704 20.457470
v 46.191887 20.034704 20.439741
v 46.228527 20.034704 20.454023
v 46.193634 20.034704 20.436291
v 46.193634 19.905807 20.436293
v 46.228527 19.905807 20.454023
v 46.132935 19.905807 20.455547
v 46.170143 19.905807 20.443415
v 46.170143 20.034704 20.443415
v 46.132935 20.034704 20.455545
v 46.168945 20.034704 20.439737
v 46.131737 20.034704 20.451868
v 46.131737 19.905807 20.451868
v 46.168945 19.905807 20.439739
v 45.966061 22.435295 19.981852
v 46.123539 22.435295 20.464796
v 46.180481 22.435295 20.446228
v 46.023010 22.435295 19.963284
v 46.180481 22.339174 20.446228
v 46.023010 22.339174 19.963284
v 45.966061 22.339176 19.981852
v 46.123539 22.339174 20.464796
v 46.021564 19.735754 19.968878
v 45.970078 19.735754 19.985668
v 45.970078 22.343515 19.985668
v 46.021564 22.343515 19.968880
v 46.045712 22.343515 20.042929
v 46.045712 19.735754 20.042929
v 45.994221 19.735754 20.059719
v 45.994221 22.343515 20.059719
v 46.115803 22.337019 20.381495
v 46.006615 22.337019 20.046658
v 46.006615 19.738834 20.046658
v 46.115803 19.738832 20.381495
v 46.123314 19.735754 20.455618
v 46.174812 19.735754 20.438828
v 46.174809 22.343515 20.438828
v 46.123314 22.343515 20.455618
v 46.099171 22.343515 20.381567
v 46.099171 19.735754 20.381567
v 46.150661 19.735754 20.364777
v 46.150661 22.343515 20.364777
v 45.966061 19.735338 19.981852
v 46.123539 19.735338 20.464796
v 46.180481 19.735338 20.446228
v 46.023010 19.735338 19.963284
v 46.180481 19.639217 20.446228
v 46.023010 19.639217 19.963284
v 45.966061 19.639219 19.981852
v 46.123539 19.639217 20.464796
v 46.132935 22.107105 20.455547
v 46.170143 22.107105 20.443415
v 46.170143 22.236002 20.443415
v 46.132935 22.236002 20.455545
v 46.168945 22.236002 20.439737
v 46.131737 22.236002 20.451868
v 46.131737 22.107105 20.451868
v 46.168945 22.107105 20.439739
v 46.191887 22.107105 20.439743
v 46.226772 22.107105 20.457472
v 46.226772 22.236002 20.457470
v 46.191887 22.236002 20.439741
v 46.228527 22.236002 20.454023
v 46.193634 22.236002 20.436291
v 46.193634 22.107105 20.436293
v 46.228527 22.107105 20.454023
v 46.186939 19.906162 20.429228
v 46.177380 19.906162 20.428488
v 46.177380 20.034369 20.428488
v 46.186939 20.034369 20.429228
v 46.193172 19.906162 20.436510
v 46.193172 20.034369 20.436510
v 46.192432 19.906162 20.446070
v 46.192432 20.034369 20.446070
v 46.185143 19.906162 20.452301
v 46.185143 20.034369 20.452301
v 46.175587 19.906162 20.451561
v 46.175587 20.034369 20.451561
v 46.169353 19.906162 20.444279
v 46.169353 20.034369 20.444279
v 46.170097 19.906162 20.434717
v 46.170097 20.034369 20.434719
v 46.186939 22.107464 20.429228
v 46.177380 22.107464 20.428488
v 46.177380 22.235666 20.428488
v 46.186939 22.235666 20.429228
v 46.193172 22.107464 20.436510
v 46.193172 22.235666 20.436510
v 46.192432 22.107464 20.446070
v 46.192432 22.235666 20.446070
v 46.185143 22.107464 20.452301
v 46.185143 22.235666 20.452301
v 46.175587 22.107464 20.451561
v 46.175587 22.235666 20.451561
v 46.169353 22.107464 20.444279
v 46.169353 22.235666 20.444279
v 46.170097 22.107464 20.434717
v 46.170097 22.235666 20.434719
v 46.181259 19.906162 20.440393
v 46.181259 20.034369 20.440393
v 46.181259 22.107464 20.440393
v 46.181259 22.235666 20.440393
vn -0.0039 1.0000 -0.0039
vn 0.8920 -0.0039 0.4519
vn -0.8905 -0.0039 -0.4550
vn 0.4488 -0.0039 -0.8936
vn -0.4581 -0.0039 0.8889
vn -0.0039 -1.0000 -0.0039
vn 0.8921 -0.0039 0.4519
vn -0.4582 -0.0039 0.8889
vn 0.4487 -0.0039 -0.8936
vn 0.3115 -0.0039 0.9502
vn -0.9510 -0.0039 0.3092
vn 0.9479 -0.0039 -0.3186
vn -0.3162 -0.0039 -0.9487
vn 0.3115 -0.0040 0.9502
vn 0.8921 -0.0040 0.4519
vt 0.327881 0.353027
vt 0.327881 0.432129
vt 0.318604 0.432129
vt 0.318604 0.353027
vt 0.315430 0.432129
vt 0.300537 0.432129
vt 0.300537 0.352539
vt 0.315430 0.352539
vt 0.270020 0.352051
vt 0.284912 0.352051
vt 0.284912 0.431641
vt 0.270020 0.431641
vt 0.269775 0.345215
vt 0.269775 0.335938
vt 0.284912 0.335938
vt 0.284912 0.345215
vt 0.288086 0.345215
vt 0.288086 0.335938
vt 0.303223 0.335938
vt 0.303223 0.345215
vt 0.287842 0.352539
vt 0.297363 0.352539
vt 0.297363 0.432129
vt 0.287842 0.432129
vt 0.858398 0.978256
vt 0.848633 0.978256
vt 0.848633 0.570801
vt 0.858398 0.570801
vt 0.812012 0.571289
vt 0.812012 0.978668
vt 0.799805 0.978668
vt 0.799805 0.571289
vt 0.845215 0.572021
vt 0.845215 0.979340
vt 0.833008 0.979340
vt 0.833008 0.572021
vt 0.827637 0.980072
vt 0.817871 0.980072
vt 0.817871 0.572754
vt 0.827637 0.572754
vt 0.377197 0.011230
vt 0.432373 0.011230
vt 0.432373 0.416992
vt 0.377197 0.416992
vt 0.360107 0.465332
vt 0.354004 0.465332
vt 0.354004 0.445312
vt 0.360107 0.445312
vt 0.354004 0.442871
vt 0.360107 0.442871
vt 0.360107 0.443359
vt 0.354004 0.443359
vt 0.362061 0.445312
vt 0.362061 0.465332
vt 0.361328 0.465332
vt 0.361328 0.445312
vt 0.360107 0.467285
vt 0.354004 0.467285
vt 0.354004 0.466797
vt 0.360107 0.466797
vt 0.352051 0.465332
vt 0.352051 0.445312
vt 0.352783 0.445312
vt 0.352783 0.465332
vt 0.327637 0.464355
vt 0.326172 0.464355
vt 0.326172 0.443848
vt 0.327637 0.443848
vt 0.329102 0.464355
vt 0.329102 0.443848
vt 0.330566 0.464355
vt 0.330566 0.443848
vt 0.332031 0.464355
vt 0.332031 0.443848
vt 0.333496 0.464355
vt 0.333496 0.443848
vt 0.334473 0.464355
vt 0.334473 0.443848
vt 0.335938 0.464355
vt 0.335938 0.443848
vt 0.337402 0.464355
vt 0.337402 0.443848
vt 0.326172 0.466797
vt 0.327393 0.465820
vt 0.328125 0.467773
vt 0.326172 0.468262
vt 0.328857 0.465820
vt 0.327148 0.469238
vt 0.329834 0.466797
vt 0.328857 0.469238
vt 0.329834 0.468262
vt 0.333252 0.465820
vt 0.334717 0.465820
vt 0.333984 0.467773
vt 0.332275 0.466797
vt 0.335938 0.466797
vt 0.332275 0.468262
vt 0.335938 0.468750
vt 0.333252 0.469727
vt 0.334717 0.469727
s 1
usemtl MASTER_Building_Details
f 1/1/1 2/2/1 3/3/1
f 3/3/1 4/4/1 1/1/1
f 3/5/2 5/6/2 6/7/2
f 6/7/2 4/8/2 3/5/2
f 1/9/3 7/10/3 8/11/3
f 8/11/3 2/12/3 1/9/3
f 1/13/4 4/14/4 6/15/4
f 6/15/4 7/16/4 1/13/4
f 3/17/5 2/18/5 8/19/5
f 8/19/5 5/20/5 3/17/5
f 7/21/6 6/22/6 5/23/6
f 5/23/6 8/24/6 7/21/6
f 9/25/4 10/26/4 11/27/4
f 11/27/4 12/28/4 9/25/4
f 9/29/7 12/30/7 13/31/7
f 13/31/7 14/32/7 9/29/7
f 11/33/3 10/34/3 15/35/3
f 15/35/3 16/36/3 11/33/3
f 15/37/5 14/38/5 13/39/8
f 13/39/8 16/40/5 15/37/5
f 17/41/2 18/42/2 19/43/2
f 19/43/2 20/44/2 17/41/2
f 21/25/5 22/26/5 23/27/8
f 23/27/8 24/28/5 21/25/5
f 21/29/3 24/30/3 25/31/3
f 25/31/3 26/32/3 21/29/3
f 23/33/2 22/34/7 27/35/2
f 27/35/2 28/36/2 23/33/2
f 27/37/4 26/38/9 25/39/4
f 25/39/4 28/40/4 27/37/4
f 29/1/1 30/2/1 31/3/1
f 31/3/1 32/4/1 29/1/1
f 31/5/2 33/6/2 34/7/2
f 34/7/2 32/8/2 31/5/2
f 29/9/3 35/10/3 36/11/3
f 36/11/3 30/12/3 29/9/3
f 29/13/4 32/14/4 34/15/4
f 34/15/4 35/16/4 29/13/4
f 31/17/5 30/18/5 36/19/8
f 36/19/8 33/20/5 31/17/5
f 35/21/6 34/22/6 33/23/6
f 33/23/6 36/24/6 35/21/6
f 37/45/5 38/46/5 39/47/5
f 39/47/5 40/48/5 37/45/5
f 41/49/1 42/50/1 40/51/1
f 40/51/1 39/52/1 41/49/1
f 42/53/3 43/54/3 37/55/3
f 37/55/3 40/56/3 42/53/3
f 43/57/6 44/58/6 38/59/6
f 38/59/6 37/60/6 43/57/6
f 44/61/2 41/62/7 39/63/7
f 39/63/7 38/64/2 44/61/2
f 45/45/10 46/46/10 47/47/10
f 47/47/10 48/48/10 45/45/10
f 49/49/1 50/50/1 48/51/1
f 48/51/1 47/52/1 49/49/1
f 50/53/11 51/54/11 45/55/11
f 45/55/11 48/56/11 50/53/11
f 51/57/6 52/58/6 46/59/6
f 46/59/6 45/60/6 51/57/6
f 52/61/12 49/62/12 47/63/12
f 47/63/12 46/64/12 52/61/12
f 53/1/1 54/2/1 55/3/1
f 55/3/1 56/4/1 53/1/1
f 55/5/12 57/6/12 58/7/12
f 58/7/12 56/8/12 55/5/12
f 53/9/11 59/10/11 60/11/11
f 60/11/11 54/12/11 53/9/11
f 53/13/13 56/14/13 58/15/13
f 58/15/13 59/16/13 53/13/13
f 55/17/10 54/18/14 60/19/10
f 60/19/10 57/20/14 55/17/10
f 59/21/6 58/22/6 57/23/6
f 57/23/6 60/24/6 59/21/6
f 61/25/13 62/26/13 63/27/13
f 63/27/13 64/28/13 61/25/13
f 61/29/12 64/30/12 65/31/12
f 65/31/12 66/32/12 61/29/12
f 63/33/11 62/34/11 67/35/11
f 67/35/11 68/36/11 63/33/11
f 67/37/10 66/38/10 65/39/10
f 65/39/10 68/40/10 67/37/10
f 69/41/11 70/42/11 71/43/11
f 71/43/11 72/44/11 69/41/11
f 73/25/10 74/26/10 75/27/10
f 75/27/10 76/28/10 73/25/10
f 73/29/11 76/30/11 77/31/11
f 77/31/11 78/32/11 73/29/11
f 75/33/12 74/34/12 79/35/12
f 79/35/12 80/36/12 75/33/12
f 79/37/13 78/38/13 77/39/13
f 77/39/13 80/40/13 79/37/13
f 81/1/1 82/2/1 83/3/1
f 83/3/1 84/4/1 81/1/1
f 83/5/12 85/6/12 86/7/12
f 86/7/12 84/8/12 83/5/12
f 81/9/11 87/10/11 88/11/11
f 88/11/11 82/12/11 81/9/11
f 81/13/13 84/14/13 86/15/13
f 86/15/13 87/16/13 81/13/13
f 83/17/10 82/18/14 88/19/10
f 88/19/10 85/20/14 83/17/10
f 87/21/6 86/22/6 85/23/6
f 85/23/6 88/24/6 87/21/6
f 89/45/10 90/46/10 91/47/10
f 91/47/10 92/48/10 89/45/10
f 93/49/1 94/50/1 92/51/1
f 92/51/1 91/52/1 93/49/1
f 94/53/11 95/54/11 89/55/11
f 89/55/11 92/56/11 94/53/11
f 95/57/6 96/58/6 90/59/6
f 90/59/6 89/60/6 95/57/6
f 96/61/12 93/62/12 91/63/12
f 91/63/12 90/64/12 96/61/12
f 97/45/5 98/46/5 99/47/5
f 99/47/5 100/48/5 97/45/5
f 101/49/1 102/50/1 100/51/1
f 100/51/1 99/52/1 101/49/1
f 102/53/3 103/54/3 97/55/3
f 97/55/3 100/56/3 102/53/3
f 103/57/6 104/58/6 98/59/6
f 98/59/6 97/60/6 103/57/6
f 104/61/2 101/62/7 99/63/7
f 99/63/7 98/64/2 104/61/2
f 105/65/4 106/66/13 107/67/13
f 107/67/13 108/68/4 105/65/4
f 109/69/12 105/65/4 108/68/4
f 108/68/4 110/70/12 109/69/12
f 111/71/2 109/69/12 110/70/12
f 110/70/12 112/72/15 111/71/2
f 113/73/10 111/71/2 112/72/15
f 112/72/15 114/74/10 113/73/10
f 115/75/8 113/73/10 114/74/10
f 114/74/10 116/76/5 115/75/8
f 117/77/11 115/75/8 116/76/5
f 116/76/5 118/78/11 117/77/11
f 119/79/3 117/77/11 118/78/11
f 118/78/11 120/80/3 119/79/3
f 106/81/13 119/79/3 120/80/3
f 120/80/3 107/82/13 106/81/13
f 121/65/4 122/66/13 123/67/13
f 123/67/13 124/68/4 121/65/4
f 125/69/12 121/65/4 124/68/4
f 124/68/4 126/70/12 125/69/12
f 127/71/2 125/69/12 126/70/12
f 126/70/12 128/72/7 127/71/2
f 129/73/10 127/71/2 128/72/7
f 128/72/7 130/74/10 129/73/10
f 131/75/8 129/73/10 130/74/10
f 130/74/10 132/76/5 131/75/8
f 133/77/11 131/75/8 132/76/5
f 132/76/5 134/78/11 133/77/11
f 135/79/3 133/77/11 134/78/11
f 134/78/11 136/80/3 135/79/3
f 122/81/13 135/79/3 136/80/3
f 136/80/3 123/82/13 122/81/13
f 111/83/6 113/84/6 137/85/6
f 109/86/6 111/83/6 137/85/6
f 113/84/6 115/87/6 137/85/6
f 105/88/6 109/86/6 137/85/6
f 115/87/6 117/89/6 137/85/6
f 106/90/6 105/88/6 137/85/6
f 117/89/6 119/91/6 137/85/6
f 119/91/6 106/90/6 137/85/6
f 114/92/1 112/93/1 138/94/1
f 116/95/1 114/92/1 138/94/1
f 112/93/1 110/96/1 138/94/1
f 118/97/1 116/95/1 138/94/1
f 110/96/1 108/98/1 138/94/1
f 120/99/1 118/97/1 138/94/1
f 108/98/1 107/100/1 138/94/1
f 107/100/1 120/99/1 138/94/1
f 127/83/6 129/84/6 139/85/6
f 125/86/6 127/83/6 139/85/6
f 129/84/6 131/87/6 139/85/6
f 121/88/6 125/86/6 139/85/6
f 131/87/6 133/89/6 139/85/6
f 122/90/6 121/88/6 139/85/6
f 133/89/6 135/91/6 139/85/6
f 135/91/6 122/90/6 139/85/6
f 130/92/1 128/93/1 140/94/1
f 132/95/1 130/92/1 140/94/1
f 128/93/1 126/96/1 140/94/1
f 134/97/1 132/95/1 140/94/1
f 126/96/1 124/98/1 140/94/1
f 136/99/1 134/97/1 140/94/1
f 124/98/1 123/100/1 140/94/1
f 123/100/1 136/99/1 140/94/1
