# Blender 3.6.18
# www.blender.org
mtllib Mesh.407.mtl
o Bistro_Research_Exterior_paris_building_11_5763
v 8.404011 3.480808 23.529985
v 8.465996 3.480768 23.638189
v 8.420081 3.436244 23.522219
v 8.474578 3.436036 23.619223
v 8.368203 3.480667 23.406841
v 8.383214 3.436063 23.410933
v 10.136024 3.480808 24.238214
v 10.130002 3.436244 24.221416
v 10.015986 3.480768 24.271992
v 10.023151 3.436036 24.252445
v 10.247857 3.480667 24.175444
v 10.234281 3.436063 24.167845
v 8.467465 3.479648 23.668558
v 8.453494 3.495649 23.660368
v 8.369526 3.479661 23.909245
v 8.354715 3.495662 23.903191
v 8.528424 2.982256 23.477123
v 8.543221 2.998256 23.483252
v 8.354754 2.982250 23.903111
v 8.369563 2.998251 23.909170
v 9.909735 2.982250 24.538954
v 9.894924 2.998251 24.532902
v 10.084296 2.982256 24.113331
v 10.069446 2.998256 24.107336
v 9.894899 3.479661 24.532982
v 9.909707 3.495662 24.539040
v 9.993661 3.479648 24.292629
v 10.009364 3.495649 24.296574
v 8.543202 3.294128 23.483244
v 8.499675 3.368369 23.590960
v 8.369547 3.102690 23.909203
v 8.476635 3.431219 23.647305
v 8.369532 3.342480 23.909233
v 7.921633 3.479661 23.726103
v 8.095881 3.479648 23.300329
v 7.921633 3.219078 23.726103
v 8.095911 3.265816 23.300253
v 7.921634 2.998251 23.726105
v 8.095881 2.998256 23.300331
v 8.534475 3.293531 23.462273
v 8.534511 2.998256 23.462198
v 8.416446 3.365002 23.411446
v 8.312608 2.997562 23.370342
v 8.368227 3.424192 23.391674
v 8.240685 2.998251 23.339521
v 8.240563 3.272269 23.339470
v 8.116852 2.998256 23.291325
v 8.347166 3.479650 23.385590
v 8.116843 3.267953 23.291321
v 8.240541 3.479661 23.339462
v 8.116852 3.479649 23.291325
v 8.302444 2.982253 23.383526
v 8.134176 2.982244 23.812958
v 8.234608 2.982250 23.354321
v 8.058650 2.982236 23.782129
v 7.936444 2.982249 23.732159
v 8.110792 2.982255 23.306135
v 9.894903 3.342480 24.532969
v 10.002008 3.431219 24.271038
v 9.894914 3.102690 24.532934
v 10.025047 3.368369 24.214697
v 10.069465 3.294128 24.107344
v 8.538093 3.313394 23.473211
v 8.496233 3.379605 23.565599
v 10.045272 3.379605 24.199011
v 10.080137 3.313394 24.103764
v 10.090384 3.293531 24.098495
v 10.090411 2.998256 24.098417
v 8.427036 3.381192 23.427855
v 8.344255 3.495649 23.401726
v 8.234484 3.495663 23.354271
v 8.110793 3.495651 23.306135
v 8.385930 3.495662 23.542273
v 10.508133 2.998256 24.269136
v 10.502079 2.982255 24.283951
v 10.386007 2.998251 24.216757
v 10.379975 2.982250 24.231577
v 10.313097 2.997562 24.188356
v 10.311110 2.982253 24.204884
v 10.140317 3.495662 24.259653
v 10.268528 3.495649 24.188574
v 10.342789 3.479661 24.716131
v 10.342789 3.219078 24.716131
v 10.516787 3.479648 24.290255
v 10.516817 3.265816 24.290180
v 10.342788 2.998251 24.716129
v 10.516787 2.998256 24.290255
v 10.205018 3.495704 24.659796
v 10.327979 3.495666 24.710075
v 10.502079 3.495651 24.283951
v 10.380098 3.495663 24.231628
v 10.197616 3.495677 24.656765
v 10.130282 2.982244 24.629181
v 10.205770 2.982236 24.660103
v 10.327978 2.982249 24.710075
v 7.936442 3.495666 23.732159
v 10.508133 3.479649 24.269136
v 10.386152 3.479661 24.216818
v 10.277757 3.479650 24.175020
v 10.258468 3.424192 24.164606
v 10.191156 3.381192 24.149216
v 10.210210 3.365002 24.144928
v 10.508142 3.267953 24.269140
v 8.059403 3.495704 23.782438
v 8.066807 3.495677 23.785461
v 10.386130 3.272269 24.216808
v 8.460557 3.385905 23.506491
v 10.112140 3.385905 24.181835
vn 0.8594 0.3414 -0.3806
vn 0.8074 0.3584 -0.4687
vn 0.8016 0.4778 -0.3593
vn 0.7678 0.4685 -0.4370
vn 0.9006 0.3264 -0.2871
vn 0.8509 0.4352 -0.2941
vn -0.3554 0.3397 -0.8708
vn -0.3250 0.4738 -0.8184
vn -0.2624 0.3564 -0.8968
vn -0.2540 0.4651 -0.8480
vn -0.4494 0.3243 -0.8324
vn -0.4107 0.4341 -0.8018
vn 0.8187 0.5656 0.0989
vn 0.6582 0.7528 0.0118
vn 0.6535 0.7089 0.2654
vn 0.6535 0.7089 0.2653
vn 0.5982 -0.7625 -0.2463
vn 0.8739 -0.4664 -0.1372
vn 0.6498 -0.7128 0.2639
vn -0.6530 -0.7077 -0.2698
vn -0.2610 -0.7595 -0.5959
vn -0.5316 -0.4617 -0.7101
vn -0.6566 0.7038 -0.2713
vn -0.6551 0.5610 -0.5061
vn -0.4890 0.7473 -0.4499
vn -0.6552 0.5610 -0.5061
vn 0.9271 -0.0039 0.3748
vn 0.9271 -0.0040 0.3748
vn -0.9255 -0.0039 -0.3788
vn 0.3788 -0.0039 -0.9255
vn 0.3788 0.0039 -0.9255
vn 0.3721 -0.0039 -0.9282
vn 0.3558 -0.0039 -0.9345
vn 0.3653 0.0039 -0.9309
vn -0.0039 -1.0000 -0.0039
vn 0.7091 -0.4662 -0.5289
vn 0.9625 0.1532 -0.2239
vn 0.8238 0.1459 -0.5478
vn 0.8642 0.3354 -0.3749
vn 0.9327 0.3581 0.0433
vn 0.9250 0.3739 0.0669
vn 0.9662 0.2563 -0.0276
vn 0.9576 0.2877 -0.0118
vn 0.7938 0.5884 -0.1540
vn -0.4670 0.5848 -0.6633
vn -0.6761 0.2540 -0.6917
vn -0.6776 0.2859 -0.6776
vn -0.6989 0.3553 -0.6208
vn -0.7127 0.3700 -0.5959
vn -0.5347 0.1522 -0.8312
vn -0.3631 0.3319 -0.8706
vn -0.2151 0.1447 -0.9658
vn -0.1448 -0.4658 -0.8729
vn 0.5938 0.3264 -0.7354
vn 0.6744 0.2406 -0.6981
vn 0.6787 0.2393 -0.6944
vn 0.6594 0.5804 -0.4778
vn 0.4972 0.5520 -0.6694
vn 0.4526 0.7438 -0.4919
vn 0.2640 0.7053 -0.6580
vn 0.2640 0.7052 -0.6580
vn -0.2628 0.7492 -0.6080
vn -0.1520 0.4560 -0.8769
vn 0.5232 0.8222 -0.2242
vn 0.5165 0.8241 -0.2326
vn 0.2624 -0.7167 -0.6462
vn 0.2611 -0.7130 -0.6507
vn 0.2610 -0.7131 -0.6507
vn -0.1515 -0.4621 -0.8738
vn -0.2613 -0.7526 -0.6044
vn 0.7130 -0.4637 -0.5260
vn 0.6007 -0.7577 -0.2552
vn 0.2538 -0.7145 -0.6520
vn -0.2233 0.8188 -0.5289
vn -0.2158 0.8202 -0.5298
vn -0.1451 0.5766 -0.8041
vn 0.0118 0.7415 -0.6709
vn -0.0039 1.0000 -0.0039
vn -0.6530 -0.7077 -0.2697
vn -0.3949 -0.0039 -0.9187
vn -0.5335 0.4556 -0.7126
vn 0.2626 0.7016 -0.6624
vn 0.6043 0.7543 -0.2566
vn 0.7156 0.4575 -0.5278
vn 0.1058 0.5525 -0.8268
vn -0.0039 0.2380 -0.9713
vn -0.0039 0.2379 -0.9713
vn 0.0899 0.3243 -0.9417
vn 0.0821 0.3245 -0.9423
vn 0.6043 0.7543 -0.2567
vn 0.8771 0.4602 -0.1376
vn 0.9243 -0.0039 -0.3815
vn 0.8739 -0.4663 -0.1372
vn 0.3653 -0.0039 -0.9309
vn 0.3721 0.0039 -0.9282
vn 0.3882 -0.0039 -0.9216
vn 0.3883 -0.0039 -0.9215
vn 0.5854 0.7583 -0.2868
vn 0.6970 0.6498 -0.3032
vn 0.6582 0.6818 -0.3193
vn 0.6486 0.6800 -0.3420
vn -0.2233 0.7562 -0.6151
vn -0.2554 0.6797 -0.6876
vn -0.2944 0.6477 -0.7027
vn -0.2319 0.6799 -0.6957
vt 3.623047 -0.618164
vt 3.591797 -0.618164
vt 3.619141 -0.631836
vt 3.591797 -0.631836
vt 0.537598 -0.618164
vt 0.541504 -0.631836
vt 0.568848 -0.618164
vt 0.569336 -0.631836
vt 3.039062 -0.618164
vt 3.042969 -0.631836
vt 3.068359 -0.618164
vt 3.068359 -0.631836
vt 0.462158 -0.618164
vt 0.430664 -0.618164
vt 0.458008 -0.631836
vt 0.430176 -0.631836
vt 3.587891 0.495117
vt 3.593750 0.494141
vt 3.587891 0.576172
vt 3.593750 0.576172
vt -2.593750 0.432617
vt -2.587891 0.432617
vt -2.593750 0.576172
vt -2.587891 0.576172
vt -2.068359 0.576172
vt -2.072266 0.576172
vt -2.068359 0.432617
vt -2.072266 0.432617
vt 3.072266 0.576172
vt 3.068359 0.576172
vt 3.072266 0.495117
vt 3.068359 0.494141
vt 0.567383 -0.769531
vt 0.567383 -0.676758
vt 0.423828 -0.769531
vt 0.531250 -0.653320
vt 0.423828 -0.736328
vt 0.512207 -0.633789
vt 0.423828 -0.661133
vt 0.504883 -0.619141
vt 0.423828 -0.619141
vt 0.575684 -0.619141
vt 0.432129 -0.619141
vt 0.575684 -0.700195
vt 0.432129 -0.685547
vt 0.575684 -0.769531
vt 0.432129 -0.769531
vt 3.593750 -0.676758
vt 3.593750 -0.769531
vt 3.632812 -0.654297
vt 3.667969 -0.769531
vt 3.650391 -0.635742
vt 3.693359 -0.769531
vt 3.693359 -0.683594
vt 3.734375 -0.769531
vt 3.656250 -0.619141
vt 3.734375 -0.684570
vt 3.693359 -0.619141
vt 3.734375 -0.619141
vt -2.669922 0.432129
vt -2.667969 0.576172
vt -2.693359 0.431641
vt -2.693359 0.576172
vt -2.734375 0.576172
vt -2.734375 0.432617
vt 0.494629 -0.619141
vt 0.575684 -0.661133
vt 0.487549 -0.633789
vt 0.575684 -0.736328
vt 0.468506 -0.653320
vt 0.432129 -0.676758
vt 0.567383 -0.774414
vt 0.572754 -0.769531
vt 0.572754 -0.676758
vt 0.569824 -0.670898
vt 0.538086 -0.650391
vt 0.520020 -0.631836
vt 0.513672 -0.618164
vt 0.505859 -0.613281
vt 0.493896 -0.613281
vt 0.486084 -0.618164
vt 0.479492 -0.631836
vt 0.461426 -0.650391
vt 0.429932 -0.670898
vt 0.427002 -0.676758
vt 0.427002 -0.769531
vt 0.432129 -0.774414
vt 3.591797 -0.670898
vt 3.628906 -0.649414
vt 3.642578 -0.631836
vt 3.648438 -0.618164
vt 3.656250 -0.613281
vt 3.693359 -0.613281
vt 3.734375 -0.613281
vt 3.648438 0.431152
vt 3.656250 0.432617
vt 3.623047 0.462402
vt 3.626953 0.468262
vt 3.591797 0.486328
vt -2.593750 0.427246
vt -2.667969 0.427246
vt -2.693359 0.426758
vt -2.734375 0.427246
vt -1.927734 0.427246
vt -1.927734 0.432617
vt -1.968750 0.426758
vt -1.968750 0.431641
vt -1.993164 0.427246
vt -1.992188 0.432129
vt -2.068359 0.427246
vt 3.068359 0.486328
vt 3.039062 0.462402
vt 3.035156 0.468262
vt 3.013672 0.431152
vt 3.005859 0.432617
vt 0.423828 -0.700195
vt 0.567383 -0.619141
vt 0.567383 -0.685547
vt 2.968750 0.576172
vt 2.927734 0.576172
vt 2.927734 0.432617
vt 2.968750 0.431641
vt 2.970703 0.576172
vt -1.994141 0.576172
vt -1.968750 0.576172
vt -1.927734 0.576172
vt 0.575684 -0.774414
vt 0.427002 -0.684570
vt 0.427002 -0.619141
vt 0.432129 -0.613281
vt 0.575684 -0.613281
vt 2.968750 -0.613281
vt 2.927734 -0.613281
vt 2.927734 -0.619141
vt 2.968750 -0.619141
vt 3.005859 -0.613281
vt 3.003906 -0.619141
vt 3.013672 -0.618164
vt 3.017578 -0.631836
vt 3.011719 -0.635742
vt 3.033203 -0.649414
vt 3.027344 -0.654297
vt 3.070312 -0.670898
vt 3.068359 -0.676758
vt 0.567383 -0.613281
vt 0.423828 -0.613281
vt 0.572754 -0.619141
vt 0.572754 -0.684570
vt 0.423828 -0.774414
vt 3.734375 0.432617
vt 3.734375 0.576172
vt 3.693359 0.576172
vt 3.693359 0.431641
vt 3.689453 0.576172
vt 3.068359 -0.769531
vt 2.992188 -0.769531
vt 2.968750 -0.683594
vt 2.968750 -0.769531
vt 2.927734 -0.769531
vt 2.927734 -0.684570
vt 3.591797 0.430176
vt 3.628906 0.430176
vt 3.609375 0.449219
vt 3.642578 0.430664
vt 3.591797 0.461914
vt 3.619141 0.458496
vt 3.591797 0.479980
vt 3.070312 0.430176
vt 3.052734 0.449219
vt 3.033203 0.430176
vt 3.068359 0.461914
vt 3.017578 0.430664
vt 3.068359 0.479980
vt 3.042969 0.458496
s 1
usemtl MASTER_Concrete_Plaster
f 1/1/1 2/2/2 3/3/3
f 2/2/2 4/4/4 3/3/3
f 1/5/1 3/6/3 5/7/5
f 3/6/3 6/8/6 5/7/5
f 7/9/7 8/10/8 9/11/9
f 8/10/8 10/12/10 9/11/9
f 7/13/7 11/14/11 8/15/8
f 11/14/11 12/16/12 8/15/8
f 13/17/13 14/18/14 15/19/15
f 14/18/14 16/20/16 15/19/16
f 17/21/17 18/22/18 19/23/19
f 18/22/18 20/24/19 19/23/19
f 21/25/20 22/26/20 23/27/21
f 22/26/20 24/28/22 23/27/21
f 25/29/23 26/30/23 27/31/24
f 26/30/23 28/32/25 27/31/26
f 18/33/27 29/34/28 20/35/28
f 29/34/28 30/36/28 20/35/28
f 30/36/27 31/37/27 20/35/28
f 30/36/27 32/38/27 31/37/27
f 32/38/27 33/39/27 31/37/27
f 33/39/27 32/38/27 13/40/28
f 15/41/27 33/39/27 13/40/28
f 34/42/29 35/43/29 36/44/29
f 35/43/29 37/45/29 36/44/29
f 38/46/29 36/44/29 37/45/29
f 39/47/29 38/46/29 37/45/29
f 40/48/30 41/49/30 42/50/30
f 41/49/30 43/51/30 42/50/30
f 42/50/30 43/51/30 44/52/31
f 43/51/30 45/53/32 44/52/31
f 45/53/32 46/54/32 44/52/31
f 45/53/32 47/55/33 46/54/32
f 48/56/31 44/52/31 46/54/32
f 47/55/33 49/57/33 46/54/32
f 50/58/34 48/56/31 46/54/32
f 50/58/34 46/54/32 49/57/33
f 51/59/33 50/58/34 49/57/33
f 17/21/35 19/23/35 52/60/35
f 19/23/35 53/61/35 52/60/35
f 52/60/35 53/61/35 54/62/35
f 53/61/35 55/63/35 54/62/35
f 54/62/35 55/63/35 56/64/35
f 57/65/35 54/62/35 56/64/35
f 25/42/29 27/66/29 58/67/29
f 27/66/29 59/68/29 58/67/29
f 60/69/29 58/67/29 59/68/29
f 61/70/29 60/69/29 59/68/29
f 61/70/29 62/71/29 60/69/29
f 62/71/29 24/47/29 60/69/29
f 24/47/29 22/46/29 60/69/29
f 18/33/18 17/72/17 41/73/36
f 18/33/18 41/73/36 29/34/37
f 41/73/36 40/74/38 29/34/37
f 63/75/39 29/34/37 40/74/38
f 30/36/40 29/34/37 63/75/39
f 64/76/41 30/36/40 63/75/39
f 30/36/40 64/76/41 32/38/42
f 64/76/41 4/77/43 32/38/42
f 32/38/42 4/77/43 13/40/13
f 4/77/43 2/78/44 13/40/13
f 2/78/44 14/79/14 13/40/13
f 27/66/26 28/80/25 9/81/45
f 27/66/26 9/81/45 59/68/46
f 9/81/45 10/82/47 59/68/46
f 59/68/46 10/82/47 61/70/48
f 10/82/47 65/83/49 61/70/48
f 62/71/50 61/70/48 65/83/49
f 66/84/51 62/71/50 65/83/49
f 62/71/50 66/84/51 67/85/52
f 62/71/50 67/85/52 24/47/22
f 67/85/52 68/86/53 24/47/22
f 24/47/22 68/86/53 23/87/21
f 63/88/39 40/48/38 69/89/54
f 40/48/38 42/50/54 69/89/54
f 6/90/55 69/89/54 42/50/54
f 44/52/56 6/90/55 42/50/54
f 5/91/57 6/90/55 44/52/56
f 48/56/58 5/91/57 44/52/56
f 48/56/58 70/92/59 5/91/57
f 71/93/60 70/92/59 48/56/58
f 50/58/61 71/93/60 48/56/58
f 72/94/62 71/93/60 50/58/61
f 51/59/63 72/94/62 50/58/61
f 5/95/57 70/96/59 1/97/64
f 70/96/59 73/98/65 1/97/64
f 1/97/64 73/98/65 2/99/44
f 73/98/65 14/18/14 2/99/44
f 41/100/36 17/21/17 43/101/66
f 17/21/17 52/60/66 43/101/66
f 43/101/66 52/60/66 45/102/67
f 52/60/66 54/62/68 45/102/67
f 45/102/67 54/62/68 47/103/69
f 54/62/68 57/65/70 47/103/69
f 74/104/71 75/105/72 76/106/67
f 75/105/72 77/107/68 76/106/67
f 76/106/67 77/107/68 78/108/73
f 77/107/68 79/109/73 78/108/73
f 78/108/73 79/109/73 68/110/53
f 79/109/73 23/27/21 68/110/53
f 9/111/45 28/32/25 7/112/74
f 28/32/25 80/113/75 7/112/74
f 7/112/74 80/113/75 11/114/76
f 80/113/75 81/115/77 11/114/76
f 82/41/28 83/116/28 84/117/28
f 83/116/28 85/118/28 84/117/28
f 85/118/28 83/116/28 86/35/28
f 87/33/27 85/118/27 86/35/27
f 88/119/78 89/120/78 90/121/78
f 91/122/78 88/119/78 90/121/78
f 88/119/78 91/122/78 92/123/78
f 91/122/78 81/115/78 92/123/78
f 81/115/78 80/113/78 92/123/78
f 92/123/78 80/113/78 26/30/78
f 80/113/78 28/32/78 26/30/78
f 23/27/35 79/109/35 21/25/35
f 79/109/35 93/124/35 21/25/35
f 79/109/35 77/107/35 93/124/35
f 77/107/35 94/125/35 93/124/35
f 95/126/35 94/125/35 77/107/35
f 75/105/35 95/126/35 77/107/35
f 57/87/70 56/127/20 38/46/20
f 39/47/22 57/87/70 38/46/79
f 57/87/70 39/47/22 47/86/69
f 47/86/69 39/47/22 49/128/80
f 39/47/22 37/45/80 49/128/80
f 49/128/80 37/45/80 51/129/63
f 37/45/80 35/43/81 51/129/63
f 51/129/63 35/43/81 72/130/62
f 96/131/23 72/130/62 35/43/81
f 34/42/23 96/131/23 35/43/81
f 91/132/82 90/133/83 97/134/84
f 98/135/82 91/132/82 97/134/84
f 81/136/77 91/132/82 98/135/82
f 99/137/85 81/136/77 98/135/82
f 99/137/85 11/138/76 81/136/77
f 12/139/86 11/138/76 99/137/85
f 100/140/87 12/139/86 99/137/85
f 101/141/88 12/139/86 100/140/87
f 102/142/89 101/141/88 100/140/87
f 101/141/88 102/142/89 66/143/51
f 102/142/89 67/144/52 66/143/51
f 90/145/90 89/146/15 82/41/15
f 84/117/91 90/145/83 82/41/15
f 90/145/83 84/117/91 97/147/84
f 97/147/84 84/117/91 103/148/92
f 84/117/91 85/118/92 103/148/92
f 103/148/92 85/118/92 74/73/71
f 85/118/92 87/33/93 74/73/71
f 87/33/93 75/72/72 74/73/71
f 95/149/19 75/72/72 87/33/93
f 86/35/19 95/149/19 87/33/18
f 72/150/78 96/151/78 104/152/78
f 71/153/78 72/150/78 104/152/78
f 71/153/78 104/152/78 73/98/78
f 70/96/78 71/153/78 73/98/78
f 104/152/78 105/154/78 73/98/78
f 105/154/78 16/20/78 73/98/78
f 16/20/78 14/18/78 73/98/78
f 67/144/94 102/142/94 68/155/94
f 102/142/94 78/156/94 68/155/94
f 78/156/94 102/142/94 106/157/30
f 76/158/30 78/156/94 106/157/30
f 102/142/94 100/140/95 106/157/30
f 76/158/30 106/157/30 74/159/96
f 106/157/30 100/140/95 99/137/95
f 106/157/30 103/160/96 74/159/96
f 98/135/31 106/157/30 99/137/95
f 103/160/96 106/157/30 98/135/31
f 97/134/97 103/160/96 98/135/31
f 63/161/98 69/162/99 107/163/100
f 107/163/100 69/162/99 6/164/6
f 107/163/100 64/165/101 63/161/98
f 3/166/3 107/163/100 6/164/6
f 4/167/4 64/165/101 107/163/100
f 3/166/3 4/167/4 107/163/100
f 66/168/102 108/169/103 101/170/104
f 108/169/103 66/168/102 65/171/105
f 12/172/12 101/170/104 108/169/103
f 108/169/103 65/171/105 10/173/10
f 8/174/8 12/172/12 108/169/103
f 8/174/8 108/169/103 10/173/10
