# Blender 3.6.18
# www.blender.org
mtllib Mesh.808.mtl
o Bistro_Research_Exterior_paris_building_02_4907
v 13.399594 11.284141 23.351192
v 20.029192 11.284140 25.896057
v 13.398743 5.889866 23.350973
v 20.029177 6.028464 25.896111
v 28.244240 11.284140 29.049517
v 13.398793 0.482390 23.351036
v 28.245209 5.856722 29.050009
v 20.029146 0.481907 25.896191
v 28.245119 0.482505 29.050005
v 31.538250 11.284141 20.498062
v 24.908648 11.284141 17.953196
v 31.539103 5.889867 20.498281
v 24.908667 6.028465 17.953146
v 16.693605 11.284141 14.799734
v 31.539051 0.482390 20.498220
v 16.692633 5.856722 14.799244
v 24.908699 0.481908 17.953064
v 16.692728 0.482505 14.799246
vn 0.3558 -0.0039 -0.9345
vn 0.3559 -0.0039 -0.9345
vn -0.3653 -0.0039 0.9309
vn -0.3652 -0.0039 0.9309
vt 2.718750 2.187500
vt 0.499756 2.187500
vt 2.718750 0.502441
vt 0.499756 0.545654
vt -2.248047 2.187500
vt 2.718750 -1.187500
vt -2.250000 0.492188
vt 0.499756 -1.187500
vt -2.250000 -1.187500
s 1
usemtl MASTER_Brick_Large_Beige_BLENDSHADER
f 1/1/1 2/2/2 3/3/1
f 2/2/2 4/4/2 3/3/1
f 4/4/2 2/2/2 5/5/1
f 6/6/1 3/3/1 4/4/2
f 7/7/1 4/4/2 5/5/1
f 8/8/1 6/6/1 4/4/2
f 4/4/2 7/7/1 9/9/1
f 8/8/1 4/4/2 9/9/1
f 10/1/3 11/2/3 12/3/3
f 11/2/3 13/4/4 12/3/3
f 13/4/4 11/2/3 14/5/4
f 15/6/3 12/3/3 13/4/4
f 16/7/4 13/4/4 14/5/4
f 17/8/3 15/6/3 13/4/4
f 13/4/4 16/7/4 18/9/3
f 17/8/3 13/4/4 18/9/3
