# Blender 3.6.18
# www.blender.org
mtllib Mesh.352.mtl
o Bistro_Research_Exterior_paris_building_11_5885
v -5.510494 8.563362 29.534477
v -5.510494 10.940295 29.534477
v -5.561504 10.940295 29.503132
v -5.561505 8.563362 29.503134
v -5.568320 10.940295 29.498945
v -5.568320 8.563362 29.498945
v -5.546906 8.563362 29.452801
v -5.546906 10.940295 29.452801
v -5.539114 10.940295 29.454611
v -5.539114 8.563362 29.454611
v -5.479674 10.940295 29.468441
v -5.479674 8.563362 29.468441
v -5.564953 10.940295 29.491692
v -5.564953 8.563362 29.491692
v -5.550273 10.940295 29.460056
v -5.550274 8.563362 29.460056
vn -0.5282 -0.0039 0.8491
vn -0.5283 -0.0039 0.8491
vn -0.9584 -0.0039 0.2855
vn -0.4394 -0.0038 -0.8983
vn -0.4394 -0.0039 -0.8983
vn 0.2232 -0.0039 -0.9748
vn 0.2231 -0.0039 -0.9748
vn -0.9058 -0.0039 -0.4237
vt 0.801758 0.525879
vt 0.059052 0.525879
vt 0.059052 0.507568
vt 0.801758 0.507568
vt 0.059052 0.505127
vt 0.801758 0.505127
vt 0.198120 0.505859
vt 0.940918 0.505859
vt 0.940918 0.508301
vt 0.198120 0.508301
vt 0.940918 0.527100
vt 0.198120 0.527100
vt 0.198120 0.379883
vt 0.940918 0.379883
vt 0.940918 0.382324
vt 0.198120 0.382324
vt 0.940918 0.393555
vt 0.198120 0.393555
vt 0.940918 0.395996
vt 0.198120 0.395996
s 1
usemtl MASTER_Wood_Painted_Green
f 1/1/1 2/2/1 3/3/2
f 4/4/1 1/1/1 3/3/2
f 4/4/1 3/3/2 5/5/3
f 6/6/3 4/4/1 5/5/3
f 7/7/4 8/8/5 9/9/6
f 10/10/7 7/7/4 9/9/6
f 10/10/7 9/9/6 11/11/7
f 12/12/6 10/10/7 11/11/7
f 6/13/3 5/14/3 13/15/8
f 14/16/8 6/13/3 13/15/8
f 14/16/8 13/15/8 15/17/8
f 16/18/8 14/16/8 15/17/8
f 16/18/8 15/17/8 8/19/5
f 7/20/4 16/18/8 8/19/5
