# Blender 3.6.18
# www.blender.org
mtllib Mesh.476.mtl
o Bistro_Research_Exterior_paris_building_11_5611
v 0.319667 13.971608 19.390123
v 0.319667 16.083828 19.390123
v 0.225453 13.971577 19.627014
v 0.225453 16.083841 19.627016
v -0.034279 13.971610 19.006605
v -0.034286 16.083826 19.006603
v 0.197268 13.971610 19.101284
v 0.197262 16.083828 19.101282
v -0.055242 13.971610 19.015318
v -0.232129 13.971577 19.439941
v -0.055249 16.083828 19.015316
v -0.232136 16.083841 19.439939
v 0.318174 13.971606 19.361071
v 0.260368 13.971577 19.250372
v 0.318174 16.083828 19.361071
v 0.260364 16.083841 19.250372
v 0.217190 16.083828 19.122498
v 0.217196 13.971607 19.122501
v 1.843669 13.971608 20.013298
v 1.744908 13.971577 20.248331
v 1.843669 16.083828 20.013298
v 1.744908 16.083841 20.248333
v 2.364924 13.971610 19.987656
v 2.133377 13.971610 19.892973
v 2.364932 16.083826 19.987659
v 2.133383 16.083828 19.892975
v 2.373775 13.971610 20.008560
v 2.373782 16.083828 20.008564
v 2.202465 13.971577 20.435467
v 2.202472 16.083841 20.435469
v 1.865088 13.971606 19.993616
v 1.865088 16.083828 19.993616
v 1.983896 13.971577 19.955135
v 1.983899 16.083841 19.955137
v 2.104300 16.083828 19.894150
v 2.104294 13.971607 19.894148
v 0.253106 13.955573 19.264629
v 0.205871 13.955606 19.122089
v 0.253102 16.099844 19.264629
v 0.308002 16.099833 19.376158
v 0.205865 16.099831 19.122086
v -0.217327 16.099844 19.445999
v -0.040439 16.099831 19.021372
v 0.308002 13.955601 19.376160
v -0.040432 13.955606 19.021374
v -0.217320 13.955571 19.446001
v 2.187654 13.955571 20.429413
v 2.358965 13.955606 20.002504
v 2.358973 16.099831 20.002506
v 2.187661 16.099844 20.429415
v 1.979088 13.955573 19.970396
v 1.861776 13.955601 20.011509
v 1.861776 16.099833 20.011507
v 1.979091 16.099844 19.970398
v 2.112669 16.099831 19.901793
v 2.112663 13.955606 19.901789
v 0.027391 16.099884 19.546122
v 0.095574 16.099884 19.573910
v 0.210643 16.099846 19.620962
v 0.210643 13.955566 19.620960
v 0.095578 13.955479 19.573910
v 0.027402 13.955479 19.546125
v 1.759718 16.099846 20.254389
v 1.874787 16.099884 20.301443
v 1.942903 16.099884 20.329388
v 1.942892 13.955479 20.329384
v 1.874783 13.955479 20.301439
v 1.759717 13.955566 20.254387
vn 0.9298 -0.0040 0.3680
vn 0.3721 -0.0039 -0.9282
vn -0.9227 -0.0039 -0.3854
vn 0.8840 -0.0039 -0.4675
vn 0.9175 -0.0039 -0.3977
vn 0.9175 -0.0040 -0.3977
vn 0.9455 -0.0039 -0.3256
vn 0.9298 -0.0039 0.3680
vn -0.3092 -0.0039 -0.9510
vn -0.3854 -0.0039 -0.9227
vn -0.4550 -0.0039 -0.8905
vn 0.7392 -0.6062 -0.2933
vn 0.7012 -0.6385 -0.3173
vn 0.7654 -0.3651 -0.5299
vn 0.6225 -0.5912 -0.5129
vn 0.7427 0.6013 -0.2947
vn 0.7047 0.6338 -0.3189
vn 0.8784 0.4372 -0.1930
vn 0.7447 0.6659 -0.0433
vn 0.7676 0.3582 -0.5314
vn 0.6254 0.5860 -0.5152
vn -0.6552 0.7022 -0.2786
vn -0.5279 0.4575 -0.7156
vn -0.6552 0.7023 -0.2785
vn -0.2540 0.7541 -0.6056
vn 0.8754 -0.4435 -0.1924
vn 0.7409 -0.6703 -0.0431
vn -0.5260 -0.4637 -0.7130
vn -0.2525 -0.7575 -0.6021
vn -0.6516 -0.7062 -0.2770
vn 0.6544 -0.7092 0.2625
vn 0.8730 -0.4658 -0.1448
vn 0.6543 -0.7092 0.2625
vn 0.5971 -0.7610 -0.2537
vn 0.8729 -0.4658 -0.1448
vn 0.8761 0.4597 -0.1454
vn 0.6007 0.7577 -0.2552
vn 0.6580 0.7053 0.2640
vn -0.3303 -0.6023 -0.7267
vn -0.2855 -0.6375 -0.7157
vn -0.4967 -0.4419 -0.7470
vn -0.5030 -0.6668 -0.5498
vn -0.4984 0.4356 -0.7496
vn -0.5057 0.6624 -0.5527
vn -0.3318 0.5974 -0.7301
vn -0.2869 0.6328 -0.7192
vn -0.1833 0.3550 -0.9167
vn -0.0898 0.5818 -0.8084
vn -0.1828 -0.3618 -0.9142
vn -0.0894 -0.5870 -0.8047
vn -0.0039 1.0000 -0.0039
vn -0.0039 -1.0000 -0.0039
vn 0.7448 0.6659 -0.0434
vn 0.6593 0.7067 0.2566
vn 0.8818 0.4627 0.0910
vn 0.8786 -0.4688 0.0906
vn 0.6557 -0.7106 0.2552
vn 0.8786 -0.4689 0.0906
vn -0.5031 -0.6668 -0.5498
vn -0.6963 -0.4629 -0.5485
vn -0.6988 0.4568 -0.5504
vn -0.6988 0.4568 -0.5505
vn -0.1362 -0.4632 -0.8757
vn -0.1367 0.4570 -0.8789
vn 0.5279 -0.4575 -0.7156
vn 0.5298 0.4513 -0.7181
vn 0.1132 0.4490 -0.8863
vn 0.7087 0.4581 -0.5365
vn 0.1129 -0.4552 -0.8832
vn 0.7062 -0.4643 -0.5345
vt 0.503418 -0.445312
vt 0.503418 0.214844
vt 0.423828 -0.445312
vt 0.423828 0.214844
vt 0.587402 -0.445312
vt 0.587402 0.214844
vt 0.509277 -0.445312
vt 0.509277 0.214844
vt 0.432129 -0.445312
vt 0.575684 -0.445312
vt 0.432129 0.214844
vt 0.575684 0.214844
vt 0.443848 -0.445312
vt 0.473633 -0.445312
vt 0.443848 0.214844
vt 0.473633 0.214844
vt 0.568848 0.214844
vt 0.537109 0.214844
vt 0.568848 -0.445312
vt 0.537109 -0.445312
vt 0.496094 -0.445312
vt 0.496094 0.214844
vt -0.222168 -0.445312
vt -0.143921 -0.445312
vt -0.222168 0.214844
vt -0.143921 0.214844
vt 0.567383 -0.445312
vt 0.567383 0.214844
vt -0.078308 -0.445312
vt -0.078308 0.214844
vt -0.108093 -0.445312
vt -0.108093 0.214844
vt 0.430908 0.214844
vt 0.430908 -0.445312
vt 0.462646 0.214844
vt 0.462646 -0.445312
vt 0.531738 -0.450195
vt 0.567383 -0.450195
vt 0.473633 0.462891
vt 0.474121 0.468262
vt 0.443848 0.488281
vt 0.445068 0.493652
vt 0.567383 0.219727
vt 0.531738 0.219727
vt 0.575684 0.219727
vt 0.432129 0.219727
vt 0.555664 0.488281
vt 0.554688 0.493652
vt 0.525879 0.462891
vt 0.525391 0.468262
vt 0.432129 -0.450195
vt 0.575684 -0.450195
vt 0.423828 -0.450195
vt 0.423828 0.219727
vt 1.107422 0.462891
vt 1.108398 0.468262
vt 1.078125 0.488281
vt 1.079102 0.493652
vt -0.078308 0.488281
vt -0.079468 0.493652
vt -0.108093 0.462891
vt -0.108521 0.468262
vt 0.467773 0.219727
vt 0.467773 -0.450195
vt 0.587402 0.432617
vt 0.588379 0.576172
vt 0.505859 0.576172
vt 0.504395 0.432617
vt 0.483154 0.576172
vt 0.444092 0.576172
vt 0.555664 0.576172
vt 0.516602 0.576172
vt 0.495117 0.432617
vt 0.493652 0.576172
vt 0.412109 0.432617
vt 0.411133 0.576172
vt -0.078674 0.576172
vt -0.117493 0.576172
vt -0.139038 0.432617
vt -0.140503 0.576172
vt -0.222168 0.432617
vt -0.223145 0.576172
vt 1.221680 0.432617
vt 1.222656 0.576172
vt 1.139648 0.576172
vt 1.138672 0.432617
vt 1.117188 0.576172
vt 1.078125 0.576172
vt 0.506348 0.219727
vt 0.511719 0.214844
vt 0.511719 -0.445312
vt 0.506348 -0.450195
vt 0.493408 -0.450195
vt 0.488037 -0.445312
vt 0.488037 0.214844
vt 0.493408 0.219727
vt 0.587402 -0.450195
vt 0.592773 -0.445312
vt 0.504395 -0.450195
vt 0.592773 0.214844
vt 0.500977 -0.445312
vt 0.587402 0.219727
vt 0.500977 0.214844
vt 0.504395 0.219727
vt -0.135742 0.214844
vt -0.139038 0.219727
vt -0.135742 -0.445312
vt -0.222168 0.219727
vt -0.139038 -0.450195
vt -0.227173 0.214844
vt -0.222168 -0.450195
vt -0.227173 -0.445312
s 1
usemtl MASTER_Concrete_Plaster
f 1/1/1 2/2/1 3/3/1
f 2/2/1 4/4/1 3/3/1
f 5/5/2 6/6/2 7/7/2
f 6/6/2 8/8/2 7/7/2
f 9/9/3 10/10/3 11/11/3
f 10/10/3 12/12/3 11/11/3
f 13/13/4 14/14/5 15/15/4
f 14/14/5 16/16/6 15/15/4
f 17/17/7 16/18/6 18/19/7
f 16/18/6 14/20/5 18/19/7
f 19/21/3 20/10/3 21/22/3
f 20/10/3 22/12/3 21/22/3
f 23/23/2 24/24/2 25/25/2
f 24/24/2 26/26/2 25/25/2
f 27/27/8 28/28/8 29/3/8
f 28/28/8 30/4/8 29/3/8
f 31/29/9 32/30/9 33/31/10
f 32/30/9 34/32/10 33/31/10
f 35/33/11 36/34/11 34/35/10
f 36/34/11 33/36/10 34/35/10
f 14/20/12 37/37/13 18/19/14
f 37/37/13 38/38/15 18/19/14
f 16/39/16 39/40/17 15/41/18
f 39/40/17 40/42/19 15/41/18
f 17/17/20 41/43/21 16/18/16
f 41/43/21 39/44/17 16/18/16
f 12/12/22 42/45/22 11/11/23
f 42/45/24 43/46/25 11/11/23
f 13/47/26 44/48/27 14/49/12
f 44/48/27 37/50/13 14/49/12
f 9/9/28 45/51/29 10/10/30
f 45/51/29 46/52/30 10/10/30
f 29/3/31 47/53/31 27/27/32
f 47/53/33 48/38/34 27/27/35
f 28/28/36 49/43/37 30/4/38
f 49/43/37 50/54/38 30/4/38
f 33/55/39 51/56/40 31/57/41
f 51/56/40 52/58/42 31/57/41
f 32/59/43 53/60/44 34/61/45
f 53/60/44 54/62/46 34/61/45
f 34/35/45 54/63/46 35/33/47
f 54/63/46 55/46/48 35/33/47
f 36/34/49 56/51/50 33/36/39
f 56/51/50 51/64/40 33/36/39
f 43/65/51 42/66/51 57/67/51
f 41/68/51 43/65/51 57/67/51
f 41/68/51 57/67/51 58/69/51
f 39/40/51 41/68/51 58/69/51
f 39/40/51 58/69/51 59/70/51
f 40/42/51 39/40/51 59/70/51
f 44/48/52 60/71/52 37/50/52
f 60/71/52 61/72/52 37/50/52
f 37/50/52 61/72/52 38/73/52
f 61/72/52 62/74/52 38/73/52
f 38/73/52 62/74/52 45/75/52
f 62/74/52 46/76/52 45/75/52
f 53/60/51 63/77/51 54/62/51
f 63/77/51 64/78/51 54/62/51
f 54/62/51 64/78/51 55/79/51
f 64/78/51 65/80/51 55/79/51
f 55/79/51 65/80/51 49/81/51
f 65/80/51 50/82/51 49/81/51
f 48/83/52 47/84/52 66/85/52
f 56/86/52 48/83/52 66/85/52
f 56/86/52 66/85/52 67/87/52
f 51/56/52 56/86/52 67/87/52
f 51/56/52 67/87/52 68/88/52
f 52/58/52 51/56/52 68/88/52
f 40/89/53 59/54/54 4/4/54
f 2/2/55 40/89/19 4/4/54
f 15/90/18 40/89/19 2/2/55
f 13/91/26 15/90/18 2/2/55
f 1/1/56 13/91/26 2/2/55
f 44/92/27 13/91/26 1/1/56
f 60/53/57 44/92/27 1/1/56
f 3/3/57 60/53/57 1/1/58
f 52/93/59 68/52/30 20/10/30
f 19/21/60 52/93/42 20/10/30
f 31/94/41 52/93/42 19/21/60
f 32/95/43 31/94/41 19/21/60
f 21/22/61 32/95/43 19/21/60
f 53/96/44 32/95/43 21/22/61
f 63/45/22 53/96/44 21/22/61
f 22/12/22 63/45/22 21/22/62
f 5/5/63 45/97/29 9/98/28
f 38/99/15 45/97/29 5/5/63
f 5/5/63 9/98/28 6/6/64
f 7/7/65 38/99/15 5/5/63
f 9/98/28 11/100/23 6/6/64
f 7/7/65 18/101/14 38/99/15
f 11/100/23 43/102/25 6/6/64
f 17/103/20 18/101/14 7/7/65
f 6/6/64 43/102/25 8/8/66
f 8/8/66 17/103/20 7/7/65
f 43/102/25 41/104/21 8/8/66
f 41/104/21 17/103/20 8/8/66
f 26/26/67 35/105/47 55/106/48
f 36/107/49 35/105/47 26/26/67
f 26/26/67 55/106/48 25/25/68
f 24/24/69 36/107/49 26/26/67
f 55/106/48 49/108/37 25/25/68
f 24/24/69 56/109/50 36/107/49
f 49/108/37 28/110/36 25/25/68
f 48/111/34 56/109/50 24/24/69
f 25/25/68 28/110/36 23/23/70
f 23/23/70 48/111/34 24/24/69
f 28/110/36 27/112/35 23/23/70
f 27/112/35 48/111/34 23/23/70
