# Blender 3.6.18
# www.blender.org
mtllib Mesh.1088.mtl
o Bistro_Research_Exterior_Paris_Building_01_paris_buildi_6a0ff93
v -1.135843 11.138927 -7.695872
v -1.147764 11.124376 -7.690088
v -1.153007 11.135026 -7.680573
v -1.133969 8.004407 -7.699330
v -1.144337 7.995028 -7.699886
v -1.147765 8.004407 -7.690086
v -1.171288 7.995028 -7.697001
v -1.190810 7.987661 -7.680671
v -1.178714 8.004408 -7.686773
v -2.183790 10.837214 -5.848133
v -2.170773 10.856449 -5.856848
v -2.164162 10.846730 -5.867157
v -2.207705 11.386867 -5.803997
v -2.202661 11.384026 -5.793617
v -2.198193 11.393406 -5.801864
v -2.123638 10.874399 -5.873009
v -2.132998 10.860455 -5.872938
v -2.137330 10.871180 -5.863051
v -0.691551 11.393404 -7.761845
v -1.035248 11.393404 -7.948057
v -1.854719 11.393405 -5.615834
v -0.687082 11.384024 -7.770091
v -0.687082 10.811212 -7.770091
v -1.030780 11.384024 -7.956304
v -1.030780 10.811212 -7.956304
v -0.691551 10.801831 -7.761844
v -0.718652 10.801832 -7.711841
v -1.035248 10.801831 -7.948057
v -1.062577 10.801832 -7.897620
v -0.723121 10.792453 -7.703595
v -0.723123 7.926636 -7.703593
v -1.067049 10.792453 -7.889369
v -1.066811 7.926636 -7.889884
v -0.861849 11.040880 -7.447660
v -1.205743 11.040880 -7.633415
v -0.861851 7.926636 -7.447658
v -1.205505 7.926636 -7.633929
v -0.866318 11.050260 -7.439414
v -1.679725 11.050262 -5.938684
v -1.210209 11.050260 -7.625174
v -2.023447 11.050261 -6.124352
v -1.684196 7.926638 -5.930436
v -2.027679 7.926638 -6.116615
v -1.684195 11.040881 -5.930437
v -2.027918 11.040882 -6.116100
v -1.818268 10.792455 -5.683094
v -2.161723 10.792455 -5.869170
v -1.818268 7.926638 -5.683094
v -2.161752 7.926638 -5.869193
v -1.822737 10.801833 -5.674847
v -1.854720 10.801833 -5.615834
v -2.166192 10.801833 -5.860923
v -2.198193 10.801833 -5.801863
v -1.859189 11.384026 -5.607588
v -1.859189 10.811214 -5.607588
v -2.202661 10.811214 -5.793617
v -2.137329 11.297105 -5.863052
v -2.170773 11.314843 -5.856848
v -2.100873 10.860455 -5.932224
v -2.133987 10.846730 -5.922845
v -2.093019 10.851181 -5.943617
v -2.093020 8.004410 -5.943616
v -2.130103 10.835808 -5.933115
v -2.130104 8.004409 -5.933114
v -2.090356 7.995030 -5.954119
v -2.054173 7.995029 -6.020868
v -2.120286 7.995029 -5.945643
v -2.066431 7.995029 -6.045025
v -2.047827 8.004409 -6.029089
v -2.047826 11.124379 -6.029090
v -2.061913 8.004409 -6.056851
v -2.061913 11.107271 -6.056852
v -2.042718 11.135028 -6.038691
v -2.056712 11.118028 -6.066272
v -1.183770 11.118027 -7.677280
v -1.178712 11.107270 -7.686775
v -1.095219 7.995028 -7.790508
v -1.104481 7.995027 -7.820288
v -1.087874 8.004408 -7.798473
v -1.087872 10.864710 -7.798475
v -1.099345 8.004408 -7.835355
v -1.099344 10.849328 -7.835358
v -1.082616 10.873982 -7.811284
v -1.055194 10.873982 -7.861888
v -1.092859 10.860248 -7.844217
v -1.067398 10.860248 -7.891206
v -1.049277 10.884705 -7.870914
v -1.049278 11.297099 -7.870914
v -1.062373 10.869965 -7.902374
v -1.062373 11.314849 -7.902374
v -1.054905 11.308011 -7.861571
v -2.132576 11.308014 -5.872871
v -1.067511 11.325089 -7.891849
v -2.164760 11.325092 -5.866898
v -1.890965 10.801833 -5.662199
v -2.147959 10.801833 -5.801431
v -1.890965 7.926638 -5.662199
v -2.147988 7.926638 -5.801454
v -1.042613 7.926638 -7.861349
v -1.042584 10.801833 -7.861325
v -1.016216 7.927216 -7.910002
v -1.015535 10.837207 -7.911247
v -1.003496 7.927313 -7.913778
v -1.003495 10.842166 -7.913778
v -0.865273 7.927313 -7.838889
v -0.865272 10.842166 -7.838890
v -2.045887 11.138923 -6.016471
v -1.089558 8.004408 -7.781270
v -2.079525 8.004410 -5.954418
v -2.048052 8.004409 -6.012478
v -1.042263 10.808300 -7.954799
v -1.078528 10.808315 -7.887871
v -1.098900 10.849206 -7.850274
v -1.062741 10.849221 -7.917006
v -1.099277 7.987817 -7.849588
v -1.211058 11.057334 -7.643294
v -2.039337 11.056873 -6.114713
v -2.142204 7.988217 -5.924891
v -2.063119 7.988157 -6.070829
v -2.166178 10.806792 -5.880638
v -2.207114 10.806786 -5.805088
v -2.183199 11.336851 -5.849225
v -1.042010 11.386420 -7.955266
v -2.142920 10.837206 -5.923559
v -2.082678 10.873983 -5.948602
v -1.190973 11.105744 -7.680361
v -1.077911 7.933846 -7.889077
v -1.079525 7.926636 -7.886107
v -2.038964 7.933510 -6.115470
v -2.040394 7.926638 -6.112837
v -2.124812 11.296455 -5.870843
v -2.152413 10.806792 -5.812898
v -2.125364 10.842166 -5.862820
v -2.125365 7.927313 -5.862819
v -2.151762 7.926735 -5.814166
v -1.086845 10.887166 -7.786275
v -1.050142 10.887921 -7.854008
v -1.049104 11.296778 -7.855924
v -1.062995 11.337295 -7.916538
v -1.209283 7.926636 -7.646646
v -2.166924 7.933450 -5.879327
v -2.165530 7.926638 -5.881907
v -2.062987 11.106208 -6.071065
v -1.210982 7.934003 -7.643502
vn -0.8635 0.0195 -0.5040
vn -0.5041 0.0039 -0.8636
vn -0.4041 0.8828 -0.2394
vn -0.8774 -0.0039 -0.4797
vn -0.5193 0.7223 -0.4568
vn -0.4991 0.7663 -0.4047
vn -0.4581 0.0039 -0.8889
vn -0.5426 0.0351 -0.8393
vn -0.6132 0.5507 -0.5663
vn -0.7588 0.3420 0.5543
vn -0.5199 0.8405 -0.1525
vn -0.6600 0.5194 -0.5428
vn -0.5569 0.0428 -0.8295
vn -0.0039 1.0000 -0.0039
vn 0.4736 -0.0039 -0.8807
vn -0.0039 -1.0000 -0.0039
vn -0.4830 -0.0039 0.8756
vn -0.4829 -0.0039 0.8756
vn -0.1841 -0.0039 -0.9829
vn -0.1840 -0.0039 -0.9829
vn -0.4358 0.8676 -0.2395
vn -0.2763 -0.0039 -0.9611
vn -0.8936 -0.0039 0.4488
vn -0.4906 0.8282 -0.2709
vn -0.4906 0.8282 -0.2708
vn -0.1130 -0.0039 -0.9936
vn -0.9562 -0.0039 0.2927
vn -0.4294 0.8706 -0.2403
vn -0.9255 -0.0039 0.3788
vn -0.4875 -0.8306 -0.2691
vn -0.8014 -0.0039 -0.5981
vn -0.4201 0.8833 -0.2081
vn -0.8966 0.0196 -0.4424
vn -0.6690 0.7160 -0.1995
vn -0.5050 0.7164 -0.4815
vn -0.6716 0.7266 -0.1453
vn 0.2379 -0.7604 -0.6044
vn 0.2233 -0.7562 -0.6151
vn -0.7895 0.5774 -0.2082
vn -0.8319 0.5117 -0.2148
vn -0.6220 0.7551 -0.2074
vn -0.5197 -0.8478 -0.1055
vn -0.3700 -0.8452 -0.3856
vn -0.4899 0.7643 -0.4194
vn -0.6000 0.7803 -0.1765
vn -0.3801 -0.7641 0.5212
vn -0.3696 -0.7665 0.5252
vn -0.5424 -0.0429 -0.8390
vn -0.4102 0.8399 -0.3555
vn 0.0898 0.3476 -0.9333
vn 0.3346 0.7046 -0.6258
vn -0.3432 0.7061 0.6193
vn -0.7588 0.3421 0.5543
vn -0.3432 0.7061 0.6194
vn 0.3327 -0.7085 -0.6224
vn 0.0896 -0.3544 -0.9308
vn 0.2233 -0.7561 -0.6151
vn -0.0506 -0.1052 -0.9932
vn -0.8485 -0.0977 0.5201
vn -0.3413 -0.7101 0.6159
vn -0.8485 -0.0978 0.5200
vn -0.3700 -0.8452 -0.3857
vn -0.0584 -0.0974 -0.9935
vn -0.8871 -0.1055 0.4494
vn -0.3413 -0.7100 0.6159
vn -0.9983 0.0039 0.0587
vn -0.9972 0.0039 0.0743
vn -0.9996 0.0039 -0.0274
vn -0.9998 0.0039 -0.0196
vn -0.2453 -0.0039 -0.9694
vn -0.5805 0.0039 -0.8142
vn -0.5520 0.0039 -0.8339
vn -0.5574 0.0039 -0.8302
vn -0.5844 0.6080 -0.5374
vn -0.6766 0.4967 -0.5436
vn -0.7348 0.5383 -0.4126
vn -0.8775 -0.0039 -0.4797
vn -0.1053 -0.0039 -0.9944
vn -0.8775 -0.0039 -0.4796
vn -0.7567 -0.3490 0.5528
vn -0.8730 -0.0504 -0.4850
vn -0.5567 -0.0506 -0.8292
vn -0.7209 -0.5650 -0.4014
vn -0.7353 -0.5408 -0.4085
vn -0.9381 -0.0039 -0.3464
vn -0.9487 -0.0039 0.3162
vn -0.8550 0.4646 -0.2304
vn -0.8158 0.5270 -0.2381
vn -0.9989 0.0431 -0.0196
vn -0.9987 0.0431 0.0274
vn -0.9985 -0.0509 -0.0196
vn -0.8796 -0.0508 -0.4730
vn -0.7290 -0.5653 -0.3860
vn -0.9983 -0.0509 0.0274
vn -0.7434 -0.5411 -0.3931
vn -0.8807 -0.0039 -0.4736
vn -0.9146 -0.0039 0.4043
vn -0.7466 0.5355 -0.3948
vn -0.9987 0.0039 0.0509
vn -0.8774 -0.0039 0.4797
vt 0.480469 0.636475
vt 0.475342 0.633057
vt 0.478516 0.629395
vt 0.015030 0.672363
vt 0.011276 0.670410
vt 0.014351 0.666992
vt 0.011528 0.668945
vt 0.008537 0.661133
vt 0.014221 0.664795
vt 0.071655 0.290039
vt 0.069092 0.282715
vt 0.074280 0.282715
vt 0.031799 0.671631
vt 0.028091 0.671631
vt 0.030502 0.668213
vt 0.043335 0.657715
vt 0.041870 0.662354
vt 0.038422 0.660400
vt 0.673828 0.538330
vt 0.664062 0.660645
vt -0.089539 0.478516
vt -0.099182 0.600342
vt 0.133545 0.481445
vt 0.133545 0.671875
vt 0.019302 0.481445
vt 0.019302 0.671875
vt 0.066406 0.207031
vt 0.067078 0.188477
vt 0.192261 0.211426
vt 0.192871 0.192871
vt 0.730469 0.569824
vt -0.222412 0.569824
vt 0.730469 0.455566
vt -0.222412 0.455566
vt 1.261719 0.428711
vt 1.261719 0.543213
vt 0.223999 0.428711
vt 0.223999 0.543213
vt 0.541504 0.329102
vt 0.006790 0.309082
vt 0.545898 0.206543
vt 0.011177 0.186523
vt 0.224243 0.476562
vt 0.224243 0.362305
vt 1.259766 0.476562
vt 1.259766 0.362305
vt 0.734375 0.376953
vt 0.734375 0.491699
vt -0.220215 0.376953
vt -0.220215 0.491699
vt 0.454834 0.183594
vt 0.475830 0.182617
vt 0.459717 0.305664
vt 0.480713 0.305176
vt 0.093811 0.338379
vt -0.020599 0.338379
vt 0.093811 0.147461
vt -0.020599 0.147461
vt 0.009544 0.221680
vt 0.009544 0.081543
vt 0.020523 0.227539
vt 0.020523 0.076660
vt 0.063599 0.662354
vt 0.035461 0.671387
vt 0.055878 0.671387
vt 0.751953 0.400391
vt -0.148315 0.400391
vt 0.747070 0.388672
vt -0.148315 0.388672
vt 0.452637 0.649414
vt 0.477783 0.649414
vt 0.445557 0.656738
vt 0.482666 0.656738
vt -0.335205 -0.104492
vt 0.699219 -0.104492
vt -0.335205 -0.095703
vt 0.693359 -0.095703
vt -0.043182 0.640625
vt 0.591309 0.641846
vt -0.037201 0.649170
vt 0.584961 0.650635
vt 1.197266 0.606934
vt 0.190430 0.606934
vt 1.191406 0.596924
vt 0.190430 0.596924
vt 0.448486 0.664062
vt 0.483154 0.664062
vt 0.443359 0.671631
vt 0.490479 0.671631
vt -0.335205 0.481934
vt 0.612793 0.481934
vt -0.335205 0.494141
vt 0.607910 0.494141
vt 0.445801 0.631592
vt 0.465088 0.631592
vt 0.453857 0.639893
vt 0.471680 0.639893
vt 0.619629 0.505859
vt 0.756348 0.505859
vt 0.614746 0.516357
vt 0.762207 0.516357
vt 0.630859 0.681396
vt -0.143921 0.652588
vt 0.638184 0.672852
vt -0.150635 0.643555
vt 0.711914 0.670166
vt 0.711914 0.755859
vt -0.246216 0.670166
vt -0.246216 0.755859
vt 0.243530 0.631348
vt 1.201172 0.631348
vt 0.243774 0.647461
vt 1.212891 0.647949
vt 0.267334 0.535645
vt 1.187500 0.535645
vt 0.267334 0.585205
vt 1.187500 0.585205
vt -0.050323 0.637939
vt 0.598633 0.639404
vt 0.449951 0.660889
vt 0.481445 0.660889
vt 1.202148 0.610596
vt 0.190430 0.611328
vt 0.014015 0.367676
vt 0.017975 0.370117
vt 0.013802 0.392578
vt 0.017776 0.391602
vt 0.195190 0.212402
vt 0.196045 0.187988
vt 0.433105 0.653809
vt 0.437500 0.653564
vt 0.432861 0.677734
vt 0.437256 0.670410
vt 0.435303 0.674805
vt 0.500000 0.674805
vt 0.551270 0.203613
vt 0.006256 0.183594
vt 0.436035 0.659912
vt 0.490723 0.659912
vt 0.454346 0.309082
vt 0.481201 0.308105
vt 0.024597 0.234375
vt 0.024796 0.070312
vt -0.100220 0.603271
vt 0.665039 0.663574
vt 0.666992 0.660889
vt 0.676758 0.538574
vt -0.092468 0.478027
vt -0.102112 0.600098
vt 0.149414 0.643555
vt 0.149414 0.647705
vt 0.027344 0.643555
vt 0.027344 0.647705
vt 0.067200 0.185547
vt 0.192993 0.189941
vt 0.464355 0.248047
vt 0.460205 0.248047
vt 0.464355 0.125977
vt 0.460205 0.125977
vt 0.003851 0.309082
vt 0.008232 0.186523
vt 0.354980 0.273926
vt 0.354980 0.269531
vt 0.474854 0.275879
vt 0.474854 0.271484
vt 0.008125 0.078125
vt 0.018356 0.073730
vt 0.480957 0.648926
vt 0.486816 0.657471
vt 0.445068 0.663574
vt 0.438965 0.672119
vt 0.040741 0.647705
vt 0.042450 0.643555
vt 0.050507 0.647705
vt 0.054535 0.643555
vt 1.185547 0.532715
vt 0.267334 0.532715
vt 0.015572 0.480469
vt 0.017822 0.478516
vt 0.015488 0.672852
vt 0.017822 0.675049
vt 0.747559 0.383789
vt -0.153442 0.384277
vt -0.151367 0.392578
vt -0.151367 0.402344
vt -0.148315 0.405762
vt 0.759277 0.404297
vt 0.027069 0.675049
vt 0.054688 0.675049
vt 0.059357 0.673584
vt 0.067993 0.663330
vt 1.201172 0.605225
vt 1.195312 0.595215
vt 1.191406 0.592773
vt 0.185059 0.593018
vt 0.733398 0.457031
vt 0.735840 0.451660
vt -0.219971 0.452148
vt -0.222412 0.451660
vt 1.262695 0.363770
vt 1.264648 0.358398
vt 0.226440 0.358398
vt 0.224243 0.357910
vt 0.363037 0.279297
vt 0.363037 0.283691
vt 0.360107 0.280762
vt 0.482910 0.285645
vt 0.483154 0.281250
vt 0.005436 0.221191
vt 0.005051 0.082520
vt 0.007980 0.225098
vt 0.018555 0.230469
vt 0.708496 0.761841
vt 0.720215 0.778320
vt -0.244019 0.778320
vt -0.244141 0.762329
vt -0.244263 0.758057
vt 0.707031 0.758057
vt -0.338379 0.479492
vt -0.335205 0.476562
vt 0.620605 0.478027
vt -0.335205 0.449219
vt 0.704102 0.448242
vt 0.616211 0.486328
vt 0.611328 0.497070
vt 0.607910 0.499023
vt 0.616211 0.502930
vt 0.620605 0.500244
vt -0.340820 0.499023
vt -0.338379 0.489258
vt 0.611328 0.512695
vt 0.607910 0.521240
vt 0.756348 0.500977
vt 0.760254 0.502930
vt 0.760254 -0.156250
vt 0.765625 0.512939
vt 0.756348 -0.157227
vt 0.704102 -0.108398
vt 0.769531 0.520996
vt 0.769531 -0.164062
vt 0.765625 -0.158203
vt 0.762207 -0.162109
vt 0.594238 0.533691
vt 0.786133 0.533936
vt 0.594238 0.511475
vt 0.786133 -0.178711
vt -0.358643 0.511963
vt 0.604004 -0.165039
vt -0.361084 0.510986
vt -0.361084 0.431641
vt 0.595215 -0.182617
vt 0.785156 -0.182617
vt 0.593750 -0.178711
vt 0.604004 -0.139648
vt 0.593750 -0.153320
vt -0.340576 -0.138672
vt 0.588867 -0.157227
vt 0.592285 -0.160156
vt -0.361084 -0.157227
vt -0.358887 -0.154297
vt -0.361084 -0.153320
vt -0.340576 -0.090820
vt -0.361084 -0.077148
vt -0.358887 -0.076172
vt -0.338379 -0.099609
vt 0.692871 -0.090820
vt 0.676758 -0.076172
vt 0.692871 0.442871
vt 0.676758 0.430664
vt 0.696777 -0.091797
vt 0.696777 0.441895
vt 0.702637 -0.101562
vt -0.340820 0.442871
vt 0.671387 0.427246
vt 0.674316 0.424805
vt -0.361084 0.427246
vt -0.358643 0.430664
vt -0.335205 -0.110352
vt -0.338379 -0.107422
vt -0.335205 -0.128906
vt 0.616211 -0.130859
vt 0.616211 -0.156250
vt 0.611816 -0.136719
vt 0.611816 -0.156250
vt 0.608398 -0.132812
s 1
usemtl MASTER_Concrete_Smooth
f 1/1/1 2/2/2 3/3/3
f 4/4/4 5/5/5 6/6/2
f 7/7/6 8/8/4 9/9/7
f 10/10/4 11/11/8 12/12/9
f 13/13/4 14/14/10 15/15/11
f 16/16/4 17/17/12 18/18/13
f 19/19/14 20/20/14 21/21/14
f 20/20/14 15/22/14 21/21/14
f 22/23/15 23/24/15 24/25/15
f 23/24/15 25/26/15 24/25/15
f 26/27/16 27/28/16 28/29/16
f 27/28/16 29/30/16 28/29/16
f 30/31/15 31/32/15 32/33/15
f 31/32/15 33/34/15 32/33/15
f 34/35/17 35/36/18 36/37/17
f 35/36/18 37/38/17 36/37/17
f 38/39/16 39/40/16 40/41/16
f 39/40/16 41/42/16 40/41/16
f 42/43/15 43/44/15 44/45/15
f 43/44/15 45/46/15 44/45/15
f 46/47/17 47/48/17 48/49/17
f 47/48/17 49/50/17 48/49/17
f 50/51/16 51/52/16 52/53/16
f 51/52/16 53/54/16 52/53/16
f 54/55/17 14/56/17 55/57/17
f 14/56/17 56/58/17 55/57/17
f 57/59/19 18/60/20 58/61/19
f 18/60/20 11/62/20 58/61/19
f 17/17/21 59/63/21 12/64/21
f 59/63/21 60/65/21 12/64/21
f 61/66/22 62/67/22 63/68/22
f 62/67/22 64/69/22 63/68/22
f 65/70/14 66/71/14 67/72/14
f 66/71/14 68/73/14 67/72/14
f 69/74/23 70/75/23 71/76/23
f 70/75/23 72/77/23 71/76/23
f 73/78/24 3/79/25 74/80/25
f 3/79/25 75/81/25 74/80/25
f 2/82/26 6/83/26 76/84/26
f 6/83/26 9/85/26 76/84/26
f 5/86/14 77/87/14 7/88/14
f 77/87/14 78/89/14 7/88/14
f 79/90/27 80/91/27 81/92/27
f 80/91/27 82/93/27 81/92/27
f 83/94/28 84/95/28 85/96/28
f 84/95/28 86/97/28 85/96/28
f 87/98/29 88/99/29 89/100/29
f 88/99/29 90/101/29 89/100/29
f 91/102/30 92/103/30 93/104/30
f 92/103/30 94/105/30 93/104/30
f 95/106/17 96/107/17 97/108/17
f 96/107/17 98/109/17 97/108/17
f 99/110/4 100/111/4 101/112/31
f 100/111/4 102/113/31 101/112/31
f 103/114/15 104/115/15 105/116/15
f 104/115/15 106/117/15 105/116/15
f 73/78/32 107/118/33 3/79/3
f 107/118/33 1/119/1 3/79/3
f 5/86/5 4/120/4 77/87/34
f 4/120/4 108/121/4 77/87/34
f 2/82/2 1/122/1 6/83/2
f 1/122/1 4/123/4 6/83/2
f 65/124/35 109/125/4 66/126/36
f 109/125/4 110/127/4 66/126/36
f 111/128/4 28/29/37 112/129/4
f 28/29/37 29/30/38 112/129/4
f 113/130/4 85/131/39 114/132/4
f 85/131/39 86/133/40 114/132/4
f 8/134/4 7/88/6 115/135/4
f 7/88/6 78/89/41 115/135/4
f 116/136/4 40/41/42 117/137/4
f 40/41/42 41/42/43 117/137/4
f 118/138/4 67/72/44 119/139/4
f 67/72/44 68/73/45 119/139/4
f 120/140/4 52/53/46 121/141/4
f 52/53/46 53/54/47 121/141/4
f 122/142/4 58/61/48 10/143/4
f 58/61/48 11/62/8 10/143/4
f 13/144/4 15/22/11 123/145/4
f 15/22/11 20/20/49 123/145/4
f 24/146/50 20/20/49 22/147/51
f 20/20/49 19/19/51 22/147/51
f 54/148/52 21/21/52 14/149/53
f 21/21/54 15/22/11 14/149/10
f 23/150/55 26/151/55 25/152/56
f 26/151/55 28/153/37 25/152/56
f 27/28/55 30/154/55 29/30/57
f 30/154/55 32/155/58 29/30/38
f 40/156/42 35/157/59 38/158/60
f 35/157/61 34/159/60 38/158/60
f 39/40/55 44/160/55 41/42/62
f 44/160/55 45/161/63 41/42/43
f 52/162/46 47/163/64 50/164/65
f 47/163/64 46/165/60 50/164/60
f 18/60/13 17/166/12 11/62/8
f 17/166/12 12/167/9 11/62/8
f 66/71/36 69/168/66 68/73/45
f 69/168/66 71/169/67 68/73/45
f 6/170/2 5/86/5 9/171/7
f 5/86/5 7/88/6 9/171/7
f 77/172/34 79/173/68 78/174/41
f 79/173/68 81/175/69 78/174/41
f 102/176/31 104/115/70 101/177/31
f 104/115/70 103/114/70 101/177/31
f 123/178/4 20/179/49 24/25/50
f 123/178/4 24/25/50 111/180/4
f 24/25/50 25/26/56 111/180/4
f 25/26/56 28/181/37 111/180/4
f 124/182/4 63/68/71 118/183/4
f 63/68/71 64/69/71 118/183/4
f 67/184/44 118/183/4 64/69/71
f 65/185/35 67/184/44 64/69/71
f 62/67/72 65/185/35 64/69/71
f 65/185/35 62/67/72 109/186/4
f 125/187/4 109/186/4 62/67/72
f 61/66/73 125/187/4 62/67/72
f 10/188/4 12/64/9 124/189/4
f 12/64/9 60/65/74 124/189/4
f 63/190/71 124/189/4 60/65/74
f 61/191/73 63/190/71 60/65/74
f 59/63/75 61/191/73 60/65/74
f 3/192/3 2/82/2 75/193/76
f 2/82/2 76/84/7 75/193/76
f 76/84/7 126/194/4 75/193/76
f 126/194/4 76/84/7 8/195/4
f 76/84/7 9/85/7 8/195/4
f 29/196/38 32/33/58 112/197/4
f 112/197/4 32/33/58 127/198/77
f 32/33/58 33/34/78 127/198/77
f 128/199/4 127/198/77 33/34/78
f 41/200/43 45/46/63 117/201/4
f 117/201/4 45/46/63 129/202/79
f 45/46/63 43/44/26 129/202/79
f 130/203/77 129/202/79 43/44/26
f 53/204/47 56/205/80 121/206/4
f 56/205/80 53/204/47 55/207/60
f 53/204/47 51/208/65 55/207/65
f 131/209/81 16/210/4 18/60/13
f 57/59/82 131/209/81 18/60/13
f 131/209/81 57/59/82 92/211/83
f 92/211/83 57/59/82 94/212/84
f 57/59/82 58/61/48 94/212/84
f 132/213/85 133/214/4 134/215/4
f 135/216/85 132/213/85 134/215/4
f 135/216/85 98/217/86 132/213/85
f 98/217/86 96/218/86 132/213/85
f 79/90/68 77/219/34 108/220/4
f 79/90/68 108/220/4 80/91/68
f 108/220/4 136/221/4 80/91/68
f 136/221/4 108/220/4 4/222/4
f 1/223/1 136/221/4 4/222/4
f 136/221/4 83/224/87 80/91/68
f 80/91/68 83/224/87 82/93/69
f 83/224/87 85/225/39 82/93/69
f 85/225/39 113/226/4 82/93/69
f 83/224/87 136/221/4 84/227/88
f 81/92/69 82/93/69 113/226/4
f 136/221/4 137/228/4 84/227/88
f 81/92/69 115/229/4 78/230/41
f 115/229/4 81/92/69 113/226/4
f 87/98/89 84/227/88 137/228/4
f 84/227/88 87/98/89 86/231/40
f 87/98/89 89/100/90 86/231/40
f 87/98/89 137/228/4 88/99/91
f 89/100/90 114/232/4 86/231/40
f 137/228/4 138/233/92 88/99/91
f 138/233/92 137/228/4 136/221/4
f 1/223/1 138/233/92 136/221/4
f 138/233/92 91/234/93 88/99/91
f 88/99/91 91/234/93 90/101/94
f 91/234/93 138/233/92 92/235/83
f 91/234/93 93/236/95 90/101/94
f 138/233/92 131/237/81 92/235/83
f 138/233/92 1/223/1 131/237/81
f 1/223/1 107/238/33 131/237/81
f 89/100/90 90/101/94 139/239/4
f 93/236/95 139/239/4 90/101/94
f 114/232/4 89/100/90 139/239/4
f 139/239/4 93/236/95 122/240/4
f 93/236/95 94/241/84 122/240/4
f 58/242/48 122/240/4 94/241/84
f 111/243/4 114/232/4 139/239/4
f 123/244/4 111/243/4 139/239/4
f 123/244/4 139/239/4 122/240/4
f 111/243/4 112/245/4 114/232/4
f 13/246/4 123/244/4 122/240/4
f 112/245/4 113/226/4 114/232/4
f 112/245/4 127/247/77 113/226/4
f 13/246/4 122/240/4 10/248/4
f 127/247/77 115/229/4 113/226/4
f 127/247/77 128/249/4 115/229/4
f 128/249/4 140/250/96 115/229/4
f 56/251/80 14/252/10 13/246/4
f 121/253/4 56/251/80 13/246/4
f 121/253/4 13/246/4 10/248/4
f 121/253/4 10/248/4 124/254/4
f 120/255/4 121/253/4 124/254/4
f 120/255/4 124/254/4 118/256/4
f 47/257/64 52/258/46 120/255/4
f 49/259/97 47/257/64 120/255/4
f 141/260/4 120/255/4 118/256/4
f 141/260/4 49/259/97 120/255/4
f 49/259/97 141/260/4 142/261/96
f 141/260/4 118/256/4 119/262/4
f 142/261/96 141/260/4 119/262/4
f 130/263/77 142/261/96 119/262/4
f 129/264/79 130/263/77 119/262/4
f 71/76/67 119/262/4 68/265/45
f 129/264/79 119/262/4 143/266/4
f 119/262/4 71/76/67 143/266/4
f 117/267/4 129/264/79 143/266/4
f 71/76/67 72/77/67 143/266/4
f 117/267/4 143/266/4 126/268/4
f 116/269/4 117/267/4 126/268/4
f 74/270/98 143/266/4 72/77/67
f 143/266/4 74/270/98 126/268/4
f 74/270/98 75/271/76 126/268/4
f 73/272/32 74/270/98 72/77/67
f 70/75/99 73/272/32 72/77/67
f 116/269/4 126/268/4 8/273/4
f 73/272/32 70/75/99 107/238/33
f 35/274/59 40/275/42 116/269/4
f 37/276/100 35/274/59 116/269/4
f 144/277/4 116/269/4 8/273/4
f 144/277/4 37/276/100 116/269/4
f 144/277/4 8/273/4 115/229/4
f 37/276/100 144/277/4 140/250/96
f 140/250/96 144/277/4 115/229/4
f 110/278/4 107/238/33 70/75/99
f 69/74/66 110/278/4 70/75/99
f 69/74/66 66/279/36 110/278/4
f 110/278/4 109/280/4 107/238/33
f 109/280/4 125/281/4 107/238/33
f 107/238/33 125/281/4 131/237/81
f 125/281/4 16/282/4 131/237/81
f 16/282/4 125/281/4 59/283/75
f 17/284/12 16/282/4 59/283/75
f 125/281/4 61/285/73 59/283/75
