# Blender 3.6.18
# www.blender.org
mtllib Mesh.1095.mtl
o Bistro_Research_Exterior_Paris_Building_01_paris_buildi_34ba108
v 12.146762 10.938260 5.951731
v 11.304614 10.938260 5.629865
v 12.146762 8.062981 5.951731
v 11.304614 8.062981 5.629865
v 13.014889 8.062981 6.283527
v 13.014888 10.938260 6.283528
v 12.167806 8.062981 5.959774
v 12.167806 10.938260 5.959774
vn -0.3653 -0.0039 0.9309
vt 0.497803 0.988487
vt 0.251221 0.988487
vt 0.497803 0.225098
vt 0.251221 0.225098
vt 0.249146 0.225098
vt 0.249146 0.988487
vt 0.002602 0.225098
vt 0.002602 0.988487
s 1
usemtl MASTER_Curtains
f 1/1/1 2/2/1 3/3/1
f 2/2/1 4/4/1 3/3/1
f 5/5/1 6/6/1 7/7/1
f 6/6/1 8/8/1 7/7/1
