# Blender 3.6.18
# www.blender.org
mtllib Mesh.1000.mtl
o Bistro_Research_Exterior_Paris_Building_01_paris_buildi_d634ab4
v 6.854684 17.826744 4.250323
v 6.853826 18.635347 4.249989
v 6.844709 17.826744 4.273844
v 6.844529 18.634995 4.272964
v 6.840360 18.634926 4.276414
v 6.840468 17.826744 4.277261
v 6.825440 17.826744 4.271420
v 6.826093 18.634926 4.270869
v 6.825347 18.634995 4.265510
v 6.824620 17.826744 4.266037
v 6.833145 17.826744 4.241952
v 6.834005 18.635347 4.242286
v 8.239528 17.826742 4.788515
v 8.238668 18.635347 4.788181
v 8.229552 17.826744 4.812036
v 8.229372 18.634993 4.811156
v 8.225204 18.634926 4.814605
v 8.225311 17.826742 4.815453
v 8.210283 17.826742 4.809613
v 8.210937 18.634926 4.809061
v 8.210192 18.634993 4.803701
v 8.209463 17.826744 4.804229
v 8.217989 17.826742 4.780144
v 8.218848 18.635347 4.780478
v 6.713226 18.492949 4.182054
v 8.357888 18.492949 4.821218
v 6.693789 18.493324 4.232067
v 8.338450 18.493324 4.871232
v 8.336751 18.496773 4.875605
v 6.692090 18.496773 4.236440
v 6.692090 18.514393 4.236440
v 8.336750 18.514391 4.875605
v 8.338450 18.517838 4.871232
v 6.693789 18.517839 4.232067
v 6.713226 18.518213 4.182054
v 8.357887 18.518213 4.821218
v 6.713226 17.806644 4.182054
v 8.357887 17.806643 4.821218
v 6.693789 17.807022 4.232067
v 8.338450 17.807020 4.871232
v 8.336750 17.810467 4.875605
v 6.692090 17.810467 4.236440
v 6.692090 17.828089 4.236440
v 8.336751 17.828087 4.875605
v 8.338450 17.831533 4.871232
v 6.693789 17.831533 4.232067
v 6.713226 17.831909 4.182054
v 8.357887 17.831909 4.821218
v 6.699038 18.624289 4.170549
v 6.699038 18.632610 4.170548
v 8.380665 18.632610 4.823621
v 8.380666 18.624289 4.823621
v 8.378824 18.621429 4.828387
v 6.697247 18.621431 4.175333
v 6.681478 18.621431 4.217457
v 8.362928 18.621431 4.869555
v 8.361086 18.624289 4.874322
v 6.679687 18.624289 4.222242
v 6.679687 18.632608 4.222242
v 8.361087 18.632610 4.874322
vn 0.9243 -0.0039 0.3815
vn 0.9243 -0.0039 0.3816
vn 0.9244 -0.0039 0.3815
vn -0.3653 0.0013 0.9309
vn -0.3653 -0.0039 0.9309
vn -0.9381 -0.0039 -0.3464
vn -0.0039 -1.0000 0.0039
vn -0.0020 -1.0000 0.0047
vn -0.3622 -0.0039 0.9321
vn -0.0018 1.0000 0.0047
vn -0.0040 1.0000 0.0039
vn -0.0018 -1.0000 0.0047
vn -0.3623 -0.0039 0.9321
vn -0.3653 -0.0040 0.9309
vn -0.0020 1.0000 0.0047
vn -0.0040 1.0000 0.0040
vn -0.0039 1.0000 0.0040
vn 0.3618 -0.0039 -0.9322
vn 0.3559 -0.0039 -0.9345
vn 0.3558 -0.0039 -0.9345
vn -0.0039 -1.0000 -0.0039
vn -0.0020 -1.0000 -0.0032
vn -0.3616 -0.0039 0.9323
vt 0.960449 0.530762
vt 0.647461 0.530273
vt 0.960449 0.525391
vt 0.647461 0.525146
vt 0.647461 0.523682
vt 0.960449 0.523926
vt 0.960449 0.517822
vt 0.647461 0.517822
vt 0.647461 0.516602
vt 0.960449 0.516357
vt 0.960449 0.510986
vt 0.647461 0.511230
vt 0.960449 0.417480
vt 0.647461 0.416992
vt 0.960449 0.412109
vt 0.647461 0.411621
vt 0.647461 0.410156
vt 0.960449 0.410645
vt 0.960449 0.404297
vt 0.647461 0.404297
vt 0.647461 0.402832
vt 0.960449 0.402832
vt 0.960449 0.397461
vt 0.647461 0.397949
vt 1.385742 0.067871
vt 2.089844 0.067871
vt 1.385742 0.079590
vt 2.089844 0.079590
vt 2.089844 0.081543
vt 1.385742 0.081543
vt 1.385742 0.088379
vt 2.089844 0.088379
vt 2.089844 0.089844
vt 1.385742 0.089844
vt 1.385742 0.101562
vt 2.089844 0.101562
vt 2.085938 0.278809
vt 1.383789 0.278809
vt 2.085938 0.267090
vt 1.383789 0.267090
vt 1.383789 0.265137
vt 2.085938 0.265137
vt 2.085938 0.258301
vt 1.383789 0.258301
vt 1.383789 0.256836
vt 2.085938 0.256836
vt 2.085938 0.245117
vt 1.383789 0.245117
vt 0.220337 0.269531
vt 0.220337 0.266113
vt 0.913086 0.266113
vt 0.913086 0.269043
vt 0.913086 0.270996
vt 0.220337 0.270996
vt 0.220581 0.280273
vt 0.913086 0.279785
vt 0.913086 0.281738
vt 0.220581 0.281738
vt 0.220581 0.284668
vt 0.913086 0.284668
s 1
usemtl MASTER_Grain_Metal
f 1/1/1 2/2/1 3/3/2
f 2/2/1 4/4/3 3/3/2
f 3/3/2 4/4/3 5/5/4
f 6/6/5 3/3/2 5/5/4
f 6/6/5 5/5/4 7/7/4
f 5/5/4 8/8/5 7/7/4
f 8/8/5 9/9/6 7/7/4
f 9/9/6 10/10/6 7/7/4
f 11/11/6 10/10/6 9/9/6
f 12/12/6 11/11/6 9/9/6
f 13/13/1 14/14/1 15/15/1
f 14/14/1 16/16/2 15/15/1
f 15/15/1 16/16/2 17/17/4
f 18/18/5 15/15/1 17/17/4
f 18/18/5 17/17/4 19/19/4
f 17/17/4 20/20/5 19/19/4
f 20/20/5 21/21/6 19/19/4
f 21/21/6 22/22/6 19/19/4
f 23/23/6 22/22/6 21/21/6
f 24/24/6 23/23/6 21/21/6
f 25/25/7 26/26/7 27/27/8
f 26/26/7 28/28/7 27/27/8
f 27/27/8 28/28/7 29/29/9
f 30/30/5 27/27/8 29/29/9
f 30/30/5 29/29/9 31/31/9
f 29/29/9 32/32/5 31/31/9
f 32/32/5 33/33/10 31/31/9
f 33/33/10 34/34/11 31/31/9
f 35/35/11 34/34/11 33/33/10
f 36/36/11 35/35/11 33/33/10
f 37/37/7 38/38/7 39/39/12
f 38/38/7 40/40/7 39/39/12
f 39/39/12 40/40/7 41/41/13
f 42/42/5 39/39/12 41/41/13
f 42/42/5 41/41/13 43/43/13
f 41/41/13 44/44/14 43/43/13
f 44/44/14 45/45/15 43/43/13
f 45/45/15 46/46/16 43/43/13
f 47/47/17 46/46/16 45/45/15
f 48/48/11 47/47/17 45/45/15
f 49/49/18 50/50/19 51/51/20
f 52/52/20 49/49/18 51/51/20
f 49/49/18 52/52/20 53/53/21
f 54/54/21 49/49/18 53/53/21
f 54/54/21 53/53/21 55/55/22
f 53/53/21 56/56/21 55/55/22
f 56/56/21 57/57/23 55/55/22
f 57/57/23 58/58/5 55/55/22
f 58/58/5 57/57/23 59/59/5
f 57/57/23 60/60/5 59/59/5
