# Blender 3.6.18
# www.blender.org
mtllib Mesh.1103.mtl
o Bistro_Research_Exterior_Paris_Building_01_paris_buildi_c665131
v 3.877951 10.938261 -15.786545
v 4.318926 10.938261 -16.572899
v 3.877951 8.062982 -15.786546
v 4.318926 8.062982 -16.572899
v 3.423370 8.062982 -14.975934
v 3.423370 10.938261 -14.975934
v 3.866932 8.062982 -15.766895
v 3.866930 10.938261 -15.766894
vn -0.8723 -0.0039 -0.4890
vt 0.497803 0.988487
vt 0.251221 0.988487
vt 0.497803 0.225098
vt 0.251221 0.225098
vt 0.249146 0.225098
vt 0.249146 0.988487
vt 0.002602 0.225098
vt 0.002602 0.988487
s 1
usemtl MASTER_Curtains
f 1/1/1 2/2/1 3/3/1
f 2/2/1 4/4/1 3/3/1
f 5/5/1 6/6/1 7/7/1
f 6/6/1 8/8/1 7/7/1
