# Blender 3.6.18
# www.blender.org
mtllib Mesh.904.mtl
o Bistro_Research_Exterior_Paris_Building_01_paris_buildi_fa09de2
v -1.268531 4.422584 -6.787766
v -1.689395 4.147629 -6.007222
v -1.689395 1.972920 -6.007222
v -1.268531 1.972920 -6.787766
v -0.847667 4.422584 -7.568311
v -0.847667 1.972920 -7.568311
v -0.426803 4.147629 -8.348856
v -0.426802 1.972920 -8.348856
vn 0.8789 -0.0039 0.4769
vn 0.8790 -0.0039 0.4769
vt 0.666504 1.000000
vt 1.000000 1.000000
vt 1.000000 0.000000
vt 0.666504 0.000000
vt 0.333252 1.000000
vt 0.333252 0.000000
vt 0.000000 1.000000
vt 0.000000 0.000000
s 1
usemtl MASTER_Glass_Exterior
f 1/1/1 2/2/1 3/3/1
f 4/4/1 1/1/1 3/3/1
f 5/5/2 1/1/1 4/4/1
f 6/6/1 5/5/2 4/4/1
f 5/5/2 6/6/1 7/7/1
f 6/6/1 8/8/2 7/7/1
