# Blender 3.6.18
# www.blender.org
mtllib Mesh.1015.mtl
o Bistro_Research_Exterior_Paris_Building_01_paris_buildi_4304c25
v 6.717383 8.782002 4.109184
v 6.718029 8.811736 4.107522
v 8.398442 8.782001 4.762495
v 8.399088 8.811736 4.760832
v 6.716982 8.826935 4.110216
v 8.398042 8.826935 4.763526
v 6.712674 8.839523 4.121301
v 8.393733 8.839522 4.774611
v 8.382242 8.849249 4.804178
v 6.701183 8.849250 4.150867
v 8.370752 8.842948 4.825048
v 6.689693 8.842948 4.171739
v 8.366445 8.829173 4.841599
v 6.685385 8.829174 4.188288
v 6.684338 8.811736 4.194213
v 8.365396 8.811736 4.847523
v 8.365396 8.782003 4.847524
v 6.684338 8.782004 4.194213
v 6.685906 8.779582 4.190178
v 8.366965 8.779582 4.843489
v 8.396822 8.779582 4.766665
v 6.715762 8.779583 4.113355
vn 0.3550 -0.0663 -0.9325
vn 0.3550 -0.0664 -0.9325
vn 0.3481 0.1838 -0.9192
vn 0.3481 0.1839 -0.9192
vn 0.1081 0.9545 -0.2781
vn 0.1061 0.9545 -0.2789
vn 0.1060 0.9545 -0.2789
vn -0.2323 0.7757 0.5867
vn -0.3488 0.3175 0.8818
vn -0.3653 -0.0039 0.9309
vn -0.3623 -0.0039 0.9321
vn -0.0039 -1.0000 -0.0039
vt 0.235840 0.369629
vt 0.235840 0.358887
vt 0.897461 0.369629
vt 0.897461 0.358887
vt 0.235840 0.353516
vt 0.897461 0.353516
vt 0.235840 0.348145
vt 0.897461 0.348145
vt 0.897461 0.341309
vt 0.235840 0.341309
vt 0.897461 0.335938
vt 0.235840 0.335938
vt 0.897461 0.330078
vt 0.235840 0.330078
vt 0.235840 0.323730
vt 0.897461 0.323730
vt 0.897461 0.312988
vt 0.235840 0.312988
vt 0.235840 0.312012
vt 0.897461 0.312012
vt 0.897461 0.295410
vt 0.235840 0.295410
vt 0.235840 0.294434
vt 0.897461 0.294434
s 1
usemtl MASTER_Wood_Polished
f 1/1/1 2/2/2 3/3/1
f 2/2/2 4/4/1 3/3/1
f 2/2/2 5/5/3 4/4/1
f 5/5/3 6/6/4 4/4/1
f 5/5/3 7/7/5 6/6/4
f 7/7/5 8/8/6 6/6/4
f 9/9/5 8/8/6 7/7/5
f 10/10/7 9/9/5 7/7/5
f 11/11/8 9/9/5 10/10/7
f 12/12/8 11/11/8 10/10/7
f 13/13/9 11/11/8 12/12/8
f 14/14/9 13/13/9 12/12/8
f 13/13/9 14/14/9 15/15/10
f 16/16/10 13/13/9 15/15/10
f 17/17/11 16/16/10 15/15/10
f 18/18/10 17/17/11 15/15/10
f 18/18/10 19/19/12 17/17/11
f 19/19/12 20/20/12 17/17/11
f 21/21/12 20/20/12 19/19/12
f 22/22/12 21/21/12 19/19/12
f 21/21/12 22/22/12 1/23/1
f 3/24/1 21/21/12 1/23/1
