# Blender 3.6.18
# www.blender.org
mtllib Mesh.977.mtl
o Bistro_Research_Exterior_Paris_Building_01_paris_buildi_bf348de
v 3.930866 17.829147 -16.448854
v 3.931721 18.667936 -16.448849
v 3.941160 17.829147 -16.467463
v 3.941620 18.667936 -16.466742
v 3.956896 17.829147 -16.433399
v 3.957342 18.668356 -16.434206
v 3.967637 18.668356 -16.452814
v 3.968083 17.829147 -16.453619
v 3.211606 17.829147 -15.148814
v 3.212461 18.667936 -15.148807
v 3.221901 17.829147 -15.167420
v 3.222360 18.667936 -15.166697
v 3.237636 17.829147 -15.133360
v 3.238083 18.668356 -15.134164
v 3.248377 18.668356 -15.152772
v 3.248823 17.829147 -15.153579
v 4.043541 18.525957 -16.564411
v 3.189337 18.525957 -15.020460
v 3.996590 18.526335 -16.590387
v 3.142386 18.526335 -15.046436
v 3.189337 18.551224 -15.020460
v 4.043540 18.551224 -16.564411
v 3.142386 18.550848 -15.046438
v 3.996590 18.550848 -16.590387
v 4.043541 17.809048 -16.564411
v 3.189337 17.809048 -15.020460
v 3.996590 17.809425 -16.590387
v 3.142386 17.809425 -15.046436
v 3.189337 17.834312 -15.020460
v 4.043540 17.834312 -16.564411
v 3.142386 17.833939 -15.046436
v 3.996590 17.833939 -16.590387
v 3.138281 18.529781 -15.048709
v 3.992485 18.529781 -16.592661
v 3.992484 18.547401 -16.592661
v 3.138281 18.547401 -15.048709
v 3.138281 17.812872 -15.048709
v 3.992485 17.812872 -16.592659
v 3.992485 17.830492 -16.592659
v 3.138281 17.830492 -15.048709
v 4.080276 18.665621 -16.562946
v 3.207168 18.665621 -14.984827
v 4.002269 18.665621 -16.606102
v 3.129161 18.665621 -15.027985
v 4.069029 18.725559 -16.569166
v 4.041273 18.735289 -16.584524
v 3.195920 18.725559 -14.991050
v 3.168164 18.735289 -15.006406
v 4.013517 18.725559 -16.599880
v 3.140409 18.725559 -15.021762
v 4.081964 18.697773 -16.562010
v 3.208855 18.697773 -14.983892
v 4.079434 18.707235 -16.563412
v 3.206326 18.707235 -14.985291
v 4.003110 18.707235 -16.605637
v 3.130002 18.707235 -15.027520
v 4.000581 18.697775 -16.607037
v 3.127473 18.697775 -15.028918
vn -0.8742 -0.0039 -0.4856
vn -0.5075 -0.0040 0.8616
vn -0.5075 -0.0039 0.8616
vn -0.0198 0.9997 -0.0119
vn -0.0197 0.9997 -0.0118
vn 0.4582 -0.0039 -0.8889
vn 0.4581 -0.0039 -0.8889
vn -0.8742 -0.0038 -0.4856
vn -0.0118 -0.9999 -0.0039
vn -0.2375 -0.9618 -0.1363
vn -0.0118 0.9999 -0.0040
vn -0.2393 0.9612 -0.1373
vn -0.0119 0.9999 -0.0040
vn -0.7491 -0.5162 -0.4153
vn -0.7494 -0.5162 -0.4147
vn -0.7521 0.5105 -0.4169
vn -0.7525 0.5105 -0.4161
vn -0.7525 0.5105 -0.4162
vn -0.0039 -1.0000 -0.0039
vn 0.4766 0.8387 0.2636
vn -0.0039 1.0000 -0.0039
vn 0.4764 0.8387 0.2638
vn -0.4815 0.8338 -0.2701
vn 0.8718 -0.0671 0.4852
vn 0.8714 0.1144 0.4771
vn 0.7908 0.4289 0.4367
vn 0.7908 0.4288 0.4367
vn -0.7910 0.4247 -0.4403
vn -0.8700 0.1132 -0.4799
vn -0.8700 0.1131 -0.4799
vn -0.8704 -0.0663 -0.4879
vt 0.901367 0.146973
vt 0.384277 0.146484
vt 0.901367 0.133301
vt 0.384277 0.133789
vt 1.141602 0.509033
vt 0.440430 0.509033
vt 1.141602 0.495117
vt 0.440674 0.495605
vt 0.515137 0.660889
vt 0.497070 0.660889
vt 0.514648 0.647217
vt 0.497314 0.647217
vt 0.501465 0.532959
vt -0.199463 0.532959
vt 0.500977 0.519043
vt -0.199463 0.518799
vt 1.048828 0.418457
vt 0.532227 0.418457
vt 1.048828 0.404785
vt 0.532227 0.405273
vt 1.127930 0.455078
vt 0.426758 0.455078
vt 1.127930 0.440918
vt 0.427246 0.441406
vt 0.147583 0.915405
vt 0.129517 0.915405
vt 0.147217 0.901855
vt 0.129883 0.901855
vt 1.127930 0.481934
vt 0.427002 0.481934
vt 1.126953 0.468262
vt 0.427002 0.467773
vt 1.308594 0.368652
vt -0.186890 0.368652
vt 1.308594 0.344238
vt -0.186890 0.344238
vt 1.062500 0.489746
vt -0.432861 0.489746
vt 1.062500 0.464844
vt -0.432861 0.464844
vt 1.308594 0.287109
vt -0.186768 0.287109
vt 1.308594 0.262695
vt -0.186768 0.262695
vt 1.062500 0.462402
vt -0.432861 0.462402
vt 1.062500 0.437988
vt -0.432861 0.437988
vt -0.294189 -0.017578
vt 0.923828 0.076660
vt 0.923828 0.079102
vt -0.294434 -0.014648
vt -0.295166 -0.002930
vt 0.922852 0.090820
vt 0.922363 0.093262
vt -0.295410 -0.000977
vt 0.925293 0.083008
vt -0.295410 0.129395
vt -0.295410 0.127441
vt 0.925293 0.081055
vt 0.924805 0.068848
vt -0.295898 0.115234
vt -0.295898 0.113281
vt 0.924805 0.066895
vt 1.331055 0.346680
vt -0.196655 0.346680
vt 1.331055 0.305664
vt -0.196655 0.305664
vt -0.164307 0.390137
vt -0.164307 0.374023
vt 1.298828 0.390137
vt 1.298828 0.374023
vt -0.410156 0.510498
vt -0.410156 0.494629
vt 1.052734 0.510498
vt 1.052734 0.494629
vt -0.022766 0.257324
vt -0.022766 0.236816
vt 1.157227 0.257324
vt 1.157227 0.236816
vt -0.022766 0.230957
vt 1.157227 0.230957
vt 1.157227 0.219238
vt -0.022766 0.219238
vt 0.913086 0.399902
vt 0.913086 0.411621
vt -0.270020 0.399902
vt -0.270020 0.411621
vt 0.913086 0.417480
vt -0.270020 0.417480
vt -0.270020 0.437988
vt 0.913086 0.437988
s 1
usemtl MASTER_Grain_Metal
f 1/1/1 2/2/1 3/3/1
f 2/2/1 4/4/1 3/3/1
f 5/5/2 6/6/2 1/7/2
f 6/6/3 2/8/3 1/7/3
f 6/9/4 7/10/4 2/11/4
f 7/10/5 4/12/5 2/11/5
f 7/13/6 8/14/7 4/15/7
f 8/14/7 3/16/7 4/15/7
f 9/17/1 10/18/8 11/19/1
f 10/18/8 12/20/8 11/19/1
f 13/21/3 14/22/3 9/23/3
f 14/22/3 10/24/3 9/23/3
f 14/25/4 15/26/4 10/27/4
f 15/26/4 12/28/4 10/27/4
f 15/29/7 16/30/7 12/31/7
f 16/30/7 11/32/7 12/31/7
f 17/33/9 18/34/9 19/35/10
f 18/34/9 20/36/10 19/35/10
f 21/37/11 22/38/11 23/39/12
f 22/38/11 24/40/12 23/39/12
f 25/41/9 26/42/9 27/43/10
f 26/42/9 28/44/10 27/43/10
f 29/45/11 30/46/13 31/47/12
f 30/46/13 32/48/12 31/47/12
f 19/49/10 20/50/10 33/51/14
f 34/52/15 19/49/10 33/51/14
f 34/52/15 33/51/14 35/53/16
f 33/51/14 36/54/17 35/53/16
f 36/54/17 23/55/12 35/53/16
f 23/55/12 24/56/12 35/53/16
f 27/57/10 28/58/10 37/59/14
f 38/60/15 27/57/10 37/59/14
f 38/60/15 37/59/14 39/61/16
f 37/59/14 40/62/18 39/61/16
f 40/62/18 31/63/12 39/61/16
f 31/63/12 32/64/12 39/61/16
usemtl MASTER_Wood_Polished
f 41/65/19 42/66/19 43/67/19
f 42/66/19 44/68/19 43/67/19
f 45/69/20 46/70/21 47/71/22
f 46/70/21 48/72/21 47/71/22
f 46/73/21 49/74/23 48/75/21
f 49/74/23 50/76/23 48/75/21
f 41/77/24 51/78/25 42/79/24
f 51/78/25 52/80/25 42/79/24
f 51/78/25 53/81/26 52/80/25
f 53/81/26 54/82/27 52/80/25
f 54/82/27 53/81/26 47/83/22
f 53/81/26 45/84/20 47/83/22
f 49/85/23 55/86/28 50/87/23
f 55/86/28 56/88/28 50/87/23
f 56/88/28 55/86/28 57/89/29
f 58/90/30 56/88/28 57/89/29
f 44/91/31 58/90/30 57/89/29
f 43/92/31 44/91/31 57/89/29
