# Blender 3.6.18
# www.blender.org
mtllib Mesh.620.mtl
o Bistro_Research_Exterior_paris_building_05_7__5305
v 45.508331 16.991144 19.803862
v 45.979511 16.991144 19.993658
v 46.001884 16.991144 19.938097
v 45.530704 16.991144 19.748302
v 46.001884 16.895021 19.938097
v 45.530704 16.895021 19.748302
v 45.508331 16.895023 19.803862
v 45.979511 16.895021 19.993658
v 45.534069 14.291602 19.753002
v 45.513828 14.291602 19.803240
v 45.513828 16.899363 19.803240
v 45.534069 16.899363 19.753002
v 45.606319 16.899363 19.782104
v 45.606319 14.291602 19.782104
v 45.586075 14.291602 19.832340
v 45.586075 16.899363 19.832340
v 45.920273 16.892866 19.949888
v 45.593590 16.892866 19.818298
v 45.593590 14.294682 19.818298
v 45.920273 14.294681 19.949888
v 45.980190 14.291602 19.991095
v 46.000431 14.291602 19.940861
v 46.000431 16.899363 19.940861
v 45.980190 16.899363 19.991095
v 45.907948 16.899363 19.961992
v 45.907948 14.291602 19.961992
v 45.928181 14.291602 19.911757
v 45.928181 16.899363 19.911757
v 45.508331 14.291186 19.803862
v 45.979511 14.291186 19.993658
v 46.001884 14.291186 19.938097
v 45.530704 14.291186 19.748302
v 46.001884 14.195066 19.938097
v 45.530704 14.195066 19.748302
v 45.508331 14.195067 19.803862
v 45.979511 14.195066 19.993658
v 45.979469 16.991144 19.993643
v 46.450649 16.991144 20.183439
v 46.473034 16.991144 20.127878
v 46.001854 16.991144 19.938084
v 46.473034 16.895021 20.127878
v 46.001854 16.895021 19.938084
v 45.979469 16.895023 19.993643
v 46.450649 16.895021 20.183439
v 46.005211 14.291602 19.942781
v 45.984974 14.291602 19.993019
v 45.984974 16.899363 19.993019
v 46.005211 16.899363 19.942781
v 46.077457 16.899363 19.971886
v 46.077457 14.291602 19.971886
v 46.057224 14.291602 20.022121
v 46.057224 16.899363 20.022121
v 46.392570 16.892866 20.140131
v 46.065876 16.892866 20.008541
v 46.065876 14.294682 20.008541
v 46.392570 14.294681 20.140131
v 46.447620 14.291602 20.179377
v 46.467854 14.291602 20.129141
v 46.467854 16.899363 20.129141
v 46.447620 16.899363 20.179377
v 46.375370 16.899363 20.150274
v 46.375370 14.291602 20.150274
v 46.395603 14.291602 20.100040
v 46.395603 16.899363 20.100039
v 45.979469 14.291186 19.993643
v 46.450649 14.291186 20.183439
v 46.473034 14.291186 20.127878
v 46.001854 14.291186 19.938084
v 46.473034 14.195066 20.127878
v 46.001854 14.195066 19.938084
v 45.979469 14.195067 19.993643
v 46.450649 14.195066 20.183439
vn -0.0039 1.0000 -0.0039
vn 0.3721 -0.0039 -0.9282
vn -0.3815 -0.0039 0.9243
vn -0.9255 -0.0039 -0.3788
vn 0.9271 -0.0040 0.3748
vn 0.9271 -0.0039 0.3748
vn -0.0039 -1.0000 -0.0039
vn -0.3816 -0.0039 0.9243
vn -0.3815 -0.0039 0.9244
vt 0.327881 0.353027
vt 0.327881 0.432129
vt 0.318604 0.432129
vt 0.318604 0.353027
vt 0.315430 0.432129
vt 0.300537 0.432129
vt 0.300537 0.352539
vt 0.315430 0.352539
vt 0.270020 0.352051
vt 0.284912 0.352051
vt 0.284912 0.431641
vt 0.270020 0.431641
vt 0.269775 0.345215
vt 0.269775 0.335938
vt 0.284912 0.335938
vt 0.284912 0.345215
vt 0.288086 0.345215
vt 0.288086 0.335938
vt 0.303223 0.335938
vt 0.303223 0.345215
vt 0.287842 0.352539
vt 0.297363 0.352539
vt 0.297363 0.432129
vt 0.287842 0.432129
vt 0.858398 0.978256
vt 0.848633 0.978256
vt 0.848633 0.570801
vt 0.858398 0.570801
vt 0.812012 0.571289
vt 0.812012 0.978668
vt 0.799805 0.978668
vt 0.799805 0.571289
vt 0.845215 0.572021
vt 0.845215 0.979340
vt 0.833008 0.979340
vt 0.833008 0.572021
vt 0.827637 0.980072
vt 0.817871 0.980072
vt 0.817871 0.572754
vt 0.827637 0.572754
vt 0.377197 0.011230
vt 0.432373 0.011230
vt 0.432373 0.416992
vt 0.377197 0.416992
s 1
usemtl MASTER_Building_Details
f 1/1/1 2/2/1 3/3/1
f 3/3/1 4/4/1 1/1/1
f 3/5/2 5/6/2 6/7/2
f 6/7/2 4/8/2 3/5/2
f 1/9/3 7/10/3 8/11/3
f 8/11/3 2/12/3 1/9/3
f 1/13/4 4/14/4 6/15/4
f 6/15/4 7/16/4 1/13/4
f 3/17/5 2/18/6 8/19/6
f 8/19/6 5/20/6 3/17/5
f 7/21/7 6/22/7 5/23/7
f 5/23/7 8/24/7 7/21/7
f 9/25/4 10/26/4 11/27/4
f 11/27/4 12/28/4 9/25/4
f 9/29/2 12/30/2 13/31/2
f 13/31/2 14/32/2 9/29/2
f 11/33/8 10/34/8 15/35/8
f 15/35/3 16/36/3 11/33/3
f 15/37/6 14/38/6 13/39/5
f 13/39/5 16/40/5 15/37/6
f 17/41/3 18/42/3 19/43/3
f 19/43/3 20/44/3 17/41/3
f 21/25/5 22/26/5 23/27/6
f 23/27/6 24/28/6 21/25/5
f 21/29/9 24/30/9 25/31/9
f 25/31/9 26/32/9 21/29/9
f 23/33/2 22/34/2 27/35/2
f 27/35/2 28/36/2 23/33/2
f 27/37/4 26/38/4 25/39/4
f 25/39/4 28/40/4 27/37/4
f 29/1/1 30/2/1 31/3/1
f 31/3/1 32/4/1 29/1/1
f 31/5/2 33/6/2 34/7/2
f 34/7/2 32/8/2 31/5/2
f 29/9/3 35/10/3 36/11/3
f 36/11/3 30/12/3 29/9/3
f 29/13/4 32/14/4 34/15/4
f 34/15/4 35/16/4 29/13/4
f 31/17/6 30/18/6 36/19/6
f 36/19/6 33/20/6 31/17/6
f 35/21/7 34/22/7 33/23/7
f 33/23/7 36/24/7 35/21/7
f 37/1/1 38/2/1 39/3/1
f 39/3/1 40/4/1 37/1/1
f 39/5/2 41/6/2 42/7/2
f 42/7/2 40/8/2 39/5/2
f 37/9/3 43/10/3 44/11/3
f 44/11/3 38/12/3 37/9/3
f 37/13/4 40/14/4 42/15/4
f 42/15/4 43/16/4 37/13/4
f 39/17/5 38/18/5 44/19/6
f 44/19/6 41/20/6 39/17/5
f 43/21/7 42/22/7 41/23/7
f 41/23/7 44/24/7 43/21/7
f 45/25/4 46/26/4 47/27/4
f 47/27/4 48/28/4 45/25/4
f 45/29/2 48/30/2 49/31/2
f 49/31/2 50/32/2 45/29/2
f 47/33/3 46/34/3 51/35/3
f 51/35/3 52/36/3 47/33/3
f 51/37/6 50/38/6 49/39/6
f 49/39/6 52/40/6 51/37/6
f 53/41/3 54/42/3 55/43/9
f 55/43/9 56/44/9 53/41/3
f 57/25/6 58/26/6 59/27/6
f 59/27/6 60/28/6 57/25/6
f 57/29/3 60/30/3 61/31/3
f 61/31/8 62/32/8 57/29/8
f 59/33/2 58/34/2 63/35/2
f 63/35/2 64/36/2 59/33/2
f 63/37/4 62/38/4 61/39/4
f 61/39/4 64/40/4 63/37/4
f 65/1/1 66/2/1 67/3/1
f 67/3/1 68/4/1 65/1/1
f 67/5/2 69/6/2 70/7/2
f 70/7/2 68/8/2 67/5/2
f 65/9/3 71/10/3 72/11/3
f 72/11/3 66/12/3 65/9/3
f 65/13/4 68/14/4 70/15/4
f 70/15/4 71/16/4 65/13/4
f 67/17/6 66/18/6 72/19/6
f 72/19/6 69/20/6 67/17/6
f 71/21/7 70/22/7 69/23/7
f 69/23/7 72/24/7 71/21/7
