# Blender 3.6.18
# www.blender.org
mtllib Mesh.929.mtl
o Bistro_Research_Exterior_Paris_Building_01_paris_buildi_7a13f6e
v 4.520545 0.645099 -17.504007
v 4.110857 0.645098 -17.724857
v -2.617249 0.645117 -4.263154
v -3.141820 0.645116 -4.276361
v -2.052277 0.645118 -3.075634
v -2.472561 0.645118 -2.875682
v -0.476235 0.645121 0.212567
v -0.897819 0.645120 0.409767
v 0.142827 0.645120 1.536037
v -0.201434 0.645120 1.902558
v 18.079826 0.645116 8.594646
v 17.909391 0.645115 9.027742
v 4.089731 0.621098 -17.736246
v 4.089731 0.603231 -17.736246
v -3.154425 0.621116 -4.298091
v -3.154425 0.603249 -4.298091
v -3.155502 0.621116 -4.255294
v -3.155502 0.603249 -4.255294
v -2.494233 0.621118 -2.865371
v -2.494234 0.603251 -2.865370
v -0.919558 0.621120 0.419936
v -0.919559 0.603253 0.419937
v -0.228034 0.621120 1.898312
v -0.228034 0.603253 1.898313
v 4.132715 0.546956 -17.713078
v 4.132476 0.409134 -17.713205
v -3.099695 0.546974 -4.296711
v -3.099997 0.409152 -4.296721
v -3.100773 0.546974 -4.253913
v -3.101074 0.409153 -4.253922
v -2.450139 0.546976 -2.886347
v -2.450383 0.409154 -2.886231
v -0.875327 0.546978 0.399245
v -0.875572 0.409156 0.399362
v -0.192048 0.546978 1.860000
v -0.192246 0.409156 1.860212
v -0.159546 0.546978 1.890528
v -0.159745 0.409156 1.890740
v 17.918484 0.546973 9.004637
v 17.918392 0.409151 9.004891
v 4.153547 0.385134 -17.701849
v 4.520546 0.385134 -17.504005
v -3.087463 0.385153 -4.274993
v -2.617250 0.385152 -4.263152
v -2.428768 0.385154 -2.896515
v -2.052277 0.385153 -3.075634
v -0.853891 0.385156 0.389219
v -0.476234 0.385155 0.212568
v -0.165693 0.385156 1.864508
v 0.142828 0.385155 1.536037
v 17.927153 0.385151 8.982614
v 18.079828 0.385150 8.594649
v -0.195533 0.621120 1.928840
v -0.195532 0.603253 1.928840
v 17.900602 0.621115 9.050075
v 17.900602 0.603248 9.050075
v 17.900602 0.645115 9.050075
v -0.195533 0.645120 1.928840
v -0.217866 0.645120 1.920051
v -0.217866 0.621120 1.920052
v -0.217865 0.603253 1.920051
v -0.217865 0.579253 1.920051
v -0.195532 0.579253 1.928840
v -0.201634 0.575525 1.902771
v 17.900602 0.579248 9.050075
v 17.909271 0.575243 9.028055
v -0.198064 0.574705 1.898971
v 17.909843 0.574978 9.026602
v -0.159499 0.570978 1.890478
v -0.181833 0.570978 1.881690
v 17.918507 0.570973 9.004579
v -0.181879 0.546978 1.881739
v -0.182078 0.409156 1.881951
v -0.182124 0.385156 1.882002
v -0.159790 0.385156 1.890790
v 17.918364 0.385151 9.004950
v 4.089731 0.645098 -17.736246
v -3.154425 0.645116 -4.298091
v -3.165814 0.645116 -4.276966
v -3.165814 0.621116 -4.276966
v -3.165814 0.603249 -4.276966
v 4.089731 0.579231 -17.736246
v -3.154425 0.579249 -4.298091
v -3.165814 0.579249 -4.276966
v 4.110561 0.575226 -17.725016
v -3.142090 0.575667 -4.276367
v 4.111941 0.574961 -17.724276
v -3.134736 0.574557 -4.276182
v 4.132771 0.570956 -17.713045
v -3.099624 0.570974 -4.296709
v -3.111012 0.570974 -4.275584
v -3.111084 0.546974 -4.275586
v -3.111385 0.409152 -4.275595
v 4.132421 0.385134 -17.713236
v -3.100067 0.385153 -4.296723
v -3.111456 0.385153 -4.275597
v -0.919558 0.645120 0.419936
v -0.228034 0.645120 1.898312
v -0.919559 0.579253 0.419937
v -0.228034 0.579253 1.898313
v -0.898125 0.575248 0.409910
v -0.896704 0.574983 0.409245
v -0.875269 0.570978 0.399218
v -0.192001 0.570978 1.859951
v -0.875629 0.385156 0.399388
v -0.192293 0.385156 1.860262
v -2.450439 0.385154 -2.886204
v -3.101144 0.385153 -4.253924
v -2.450082 0.570976 -2.886374
v -3.100702 0.570974 -4.253911
v -2.471452 0.574981 -2.876208
v -2.472866 0.575246 -2.875535
v -2.494234 0.579251 -2.865369
v -3.155502 0.579249 -4.255294
v -2.494233 0.645118 -2.865371
v -3.155502 0.645116 -4.255294
vn -0.0039 1.0000 -0.0039
vn -0.8774 -0.0039 -0.4797
vn -0.9044 -0.0039 0.4268
vn -0.9044 -0.0039 0.4267
vn -0.9074 -0.0039 0.4203
vn -0.3721 -0.0039 0.9282
vn -0.0039 -1.0000 -0.0039
vn -0.2639 0.7053 0.6580
vn -0.2640 0.7053 0.6580
vn -0.5368 0.6308 0.5603
vn -0.6872 -0.0039 0.7265
vn -0.5590 -0.5824 0.5902
vn -0.2856 -0.6456 0.7082
vn -0.1133 -0.9880 0.1054
vn -0.0663 -0.9862 0.1520
vn -0.1132 -0.9880 0.1054
vn -0.4649 -0.7384 0.4884
vn -0.5341 -0.6355 0.5575
vn -0.2625 -0.7092 0.6543
vn -0.6242 0.7027 -0.3415
vn -0.7878 0.6153 -0.0274
vn -0.9996 -0.0039 -0.0274
vn -0.6744 -0.6432 -0.3625
vn -0.8202 -0.5714 -0.0272
vn -0.1518 -0.9850 -0.0818
vn -0.1523 -0.9883 -0.0039
vn -0.6744 -0.6433 -0.3626
vn -0.6503 -0.7594 -0.0195
vn -0.6208 -0.7066 -0.3396
vn -0.6207 -0.7066 -0.3396
vn -0.7840 -0.6202 -0.0273
vn -0.6477 0.7027 0.2944
vn -0.6936 -0.6466 0.3174
vn -0.6936 -0.6466 0.3175
vn -0.1520 -0.9862 0.0662
vn -0.6442 -0.7066 0.2928
vn -0.6427 -0.7050 0.2999
vn -0.6919 -0.6450 0.3244
vn -0.6919 -0.6450 0.3245
vn -0.1520 -0.9862 0.0663
vn -0.6416 0.7046 0.3031
vt 5.835938 1.758301
vt 5.835938 1.907227
vt 0.661133 1.757812
vt 0.578613 1.907715
vt 0.488281 1.758789
vt 0.569824 1.908691
vt 0.035797 1.758789
vt 0.035797 1.907715
vt 0.015732 1.910156
vt 0.015732 1.760254
vt -0.491943 1.910156
vt -0.556641 1.759766
vt -0.629395 1.910156
vt -0.564453 1.759766
vt -7.328125 1.910156
vt -7.328125 1.760254
vt 5.835938 1.802734
vt 5.835938 1.809082
vt 0.583008 1.802734
vt 0.583008 1.809082
vt 0.564941 1.803711
vt 0.564941 1.810059
vt 0.035797 1.803711
vt 0.035797 1.810059
vt 0.015732 1.802734
vt 0.015732 1.809082
vt -0.551270 1.802734
vt -0.551270 1.809082
vt 5.835938 1.842285
vt 5.835938 1.889648
vt 0.591797 1.842773
vt 0.591797 1.890137
vt 0.556641 1.843750
vt 0.556641 1.891113
vt 0.035889 1.843750
vt 0.035919 1.891113
vt 0.015762 1.842773
vt 0.015762 1.890625
vt -0.544434 1.842773
vt -0.544434 1.890625
vt -0.576660 1.842773
vt -0.576660 1.890625
vt -7.328125 1.842773
vt -7.328125 1.890625
vt 5.835938 1.767090
vt 5.835938 1.910645
vt 0.582031 1.766113
vt 0.655273 1.910645
vt 0.556152 1.767090
vt 0.483154 1.911621
vt 0.030365 1.768066
vt 0.030380 1.911621
vt 0.015778 1.905273
vt 0.015778 1.760254
vt -0.549805 1.905762
vt -0.491943 1.760254
vt -0.571289 1.905762
vt -0.629395 1.760254
vt -7.328125 1.905273
vt -0.569824 1.802734
vt -0.569824 1.809082
vt -7.328125 1.802734
vt -7.328125 1.809082
vt -7.328125 1.794434
vt -0.569824 1.794434
vt -7.328125 1.786133
vt -0.564453 1.786621
vt -0.561523 1.794434
vt -0.561523 1.802734
vt -0.561523 1.809082
vt -0.561523 1.817383
vt -0.569824 1.817383
vt -0.564453 1.825195
vt -7.328125 1.817383
vt -7.328125 1.825684
vt -0.564941 1.826660
vt -7.328125 1.826172
vt -0.576660 1.834473
vt -0.568359 1.834473
vt -7.328125 1.834473
vt -0.568359 1.842773
vt -0.568359 1.890625
vt -0.568359 1.898926
vt -0.576660 1.898926
vt -0.571289 1.906738
vt -7.328125 1.898926
vt -7.328125 1.907227
vt 5.835938 1.786621
vt 5.835938 1.794922
vt 0.578613 1.787109
vt 0.583008 1.794434
vt 0.574707 1.794434
vt 0.574707 1.802734
vt 0.574707 1.809082
vt 5.835938 1.816895
vt 0.583008 1.817383
vt 0.574707 1.817383
vt 5.835938 1.825195
vt 0.578613 1.824707
vt 5.835938 1.825684
vt 0.579590 1.827148
vt 5.835938 1.833984
vt 0.591797 1.834473
vt 0.583496 1.834473
vt 0.583496 1.842773
vt 0.583496 1.890137
vt 5.835938 1.897949
vt 0.591797 1.898438
vt 0.583496 1.898438
vt 5.835938 1.906250
vt 0.587402 1.905762
vt 0.015732 1.786133
vt 0.015732 1.794434
vt -0.556641 1.786621
vt -0.551270 1.794434
vt -0.559570 1.794434
vt -0.559570 1.802734
vt -0.559570 1.809082
vt 0.015732 1.817383
vt -0.551270 1.817383
vt -0.559570 1.817383
vt 0.015747 1.825684
vt -0.556641 1.825195
vt 0.015747 1.826172
vt -0.556152 1.826660
vt 0.015762 1.834473
vt -0.544434 1.834473
vt -0.552734 1.834473
vt -0.552734 1.842773
vt -0.552734 1.890625
vt 0.015762 1.898926
vt -0.544434 1.898926
vt -0.552734 1.898926
vt 0.015778 1.907227
vt -0.549805 1.906738
vt 0.561523 1.906738
vt 0.035919 1.907715
vt 0.035919 1.899414
vt 0.556641 1.899414
vt 0.564941 1.899414
vt 0.564941 1.891113
vt 0.564941 1.843750
vt 0.564941 1.835449
vt 0.035889 1.835449
vt 0.556641 1.835449
vt 0.568848 1.828125
vt 0.035858 1.827148
vt 0.035828 1.826660
vt 0.569824 1.825684
vt 0.035828 1.818359
vt 0.565430 1.818359
vt 0.573242 1.818359
vt 0.573242 1.810059
vt 0.573242 1.803711
vt 0.573242 1.795410
vt 0.035797 1.795410
vt 0.564941 1.795410
vt 0.569824 1.788086
vt 0.035797 1.787109
s 1
usemtl MASTER_Concrete_Grooved
f 1/1/1 2/2/1 3/3/1
f 2/2/1 4/4/1 3/3/1
f 3/5/1 4/6/1 5/7/1
f 4/6/1 6/8/1 5/7/1
f 7/9/1 8/10/1 9/11/1
f 8/10/1 10/12/1 9/11/1
f 9/13/1 10/14/1 11/15/1
f 10/14/1 12/16/1 11/15/1
f 13/17/2 14/18/2 15/19/2
f 14/18/2 16/20/2 15/19/2
f 17/21/3 18/22/3 19/23/4
f 18/22/3 20/24/4 19/23/4
f 21/25/5 22/26/5 23/27/5
f 22/26/5 24/28/5 23/27/5
f 25/29/2 26/30/2 27/31/2
f 26/30/2 28/32/2 27/31/2
f 29/33/4 30/34/4 31/35/4
f 30/34/4 32/36/4 31/35/4
f 33/37/5 34/38/5 35/39/5
f 34/38/5 36/40/5 35/39/5
f 37/41/6 38/42/6 39/43/6
f 38/42/6 40/44/6 39/43/6
f 41/45/7 42/46/7 43/47/7
f 42/46/7 44/48/7 43/47/7
f 43/49/7 44/50/7 45/51/7
f 44/50/7 46/52/7 45/51/7
f 47/53/7 48/54/7 49/55/7
f 48/54/7 50/56/7 49/55/7
f 49/57/7 50/58/7 51/59/7
f 50/58/7 52/16/7 51/59/7
f 53/60/6 54/61/6 55/62/6
f 54/61/6 56/63/6 55/62/6
f 53/60/6 55/62/6 57/64/8
f 58/65/9 53/60/6 57/64/8
f 58/65/9 57/64/8 12/66/1
f 10/67/1 58/65/9 12/66/1
f 10/67/1 59/68/10 58/65/9
f 53/60/6 58/65/9 59/68/10
f 60/69/11 53/60/6 59/68/10
f 54/61/6 53/60/6 60/69/11
f 61/70/11 54/61/6 60/69/11
f 54/61/6 61/70/11 62/71/12
f 63/72/13 54/61/6 62/71/12
f 54/61/6 63/72/13 56/63/6
f 64/73/14 63/72/13 62/71/12
f 63/72/13 65/74/13 56/63/6
f 63/72/13 64/73/14 65/74/13
f 64/73/14 66/75/15 65/74/13
f 64/73/14 67/76/16 66/75/15
f 67/76/16 68/77/15 66/75/15
f 67/76/16 69/78/13 68/77/15
f 67/76/16 70/79/17 69/78/13
f 69/78/13 71/80/13 68/77/15
f 37/41/6 69/78/13 70/79/17
f 69/78/13 37/41/6 71/80/13
f 37/41/6 39/43/6 71/80/13
f 72/81/11 37/41/6 70/79/17
f 38/42/6 37/41/6 72/81/11
f 73/82/11 38/42/6 72/81/11
f 38/42/6 73/82/11 74/83/18
f 75/84/19 38/42/6 74/83/18
f 38/42/6 75/84/19 40/44/6
f 49/85/7 75/84/19 74/83/18
f 75/84/19 76/86/19 40/44/6
f 75/84/19 49/85/7 76/86/19
f 49/85/7 51/87/7 76/86/19
f 2/88/1 77/89/20 4/90/1
f 77/89/20 78/91/20 4/90/1
f 77/89/20 13/17/2 78/91/20
f 4/90/1 78/91/20 79/92/21
f 13/17/2 15/19/2 78/91/20
f 78/91/20 15/19/2 79/92/21
f 15/19/2 80/93/22 79/92/21
f 81/94/22 80/93/22 15/19/2
f 16/20/2 81/94/22 15/19/2
f 14/18/2 82/95/23 16/20/2
f 16/20/2 83/96/23 81/94/22
f 82/95/23 83/96/23 16/20/2
f 83/96/23 84/97/24 81/94/22
f 82/95/23 85/98/25 83/96/23
f 83/96/23 86/99/26 84/97/24
f 85/98/25 86/99/26 83/96/23
f 85/98/25 87/100/25 86/99/26
f 87/100/25 88/101/26 86/99/26
f 87/100/25 89/102/23 88/101/26
f 89/102/23 90/103/27 88/101/26
f 89/102/23 25/29/2 90/103/27
f 88/101/26 90/103/27 91/104/28
f 25/29/2 27/31/2 90/103/27
f 90/103/27 27/31/2 91/104/28
f 27/31/2 92/105/22 91/104/28
f 93/106/22 92/105/22 27/31/2
f 28/32/2 93/106/22 27/31/2
f 26/30/2 94/107/29 28/32/2
f 28/32/2 95/108/30 93/106/22
f 94/107/29 95/108/30 28/32/2
f 95/108/30 96/109/31 93/106/22
f 94/107/29 41/110/7 95/108/30
f 95/108/30 43/111/7 96/109/31
f 41/110/7 43/111/7 95/108/30
f 8/112/1 97/113/32 10/114/1
f 97/113/32 98/115/32 10/114/1
f 97/113/32 21/25/5 98/115/32
f 10/114/1 98/115/32 59/116/10
f 21/25/5 23/27/5 98/115/32
f 98/115/32 23/27/5 59/116/10
f 23/27/5 60/117/11 59/116/10
f 61/118/11 60/117/11 23/27/5
f 24/28/5 61/118/11 23/27/5
f 22/26/5 99/119/33 24/28/5
f 24/28/5 100/120/34 61/118/11
f 99/119/33 100/120/34 24/28/5
f 100/120/34 62/121/12 61/118/11
f 99/119/33 101/122/35 100/120/34
f 100/120/34 64/123/14 62/121/12
f 101/122/35 64/123/14 100/120/34
f 101/122/35 102/124/35 64/123/14
f 102/124/35 67/125/16 64/123/14
f 102/124/35 103/126/33 67/125/16
f 103/126/33 104/127/33 67/125/16
f 103/126/33 33/37/5 104/127/33
f 67/125/16 104/127/33 70/128/17
f 33/37/5 35/39/5 104/127/33
f 104/127/33 35/39/5 70/128/17
f 35/39/5 72/129/11 70/128/17
f 73/130/11 72/129/11 35/39/5
f 36/40/5 73/130/11 35/39/5
f 34/38/5 105/131/36 36/40/5
f 36/40/5 106/132/36 73/130/11
f 105/131/36 106/132/36 36/40/5
f 106/132/36 74/133/18 73/130/11
f 105/131/36 47/134/7 106/132/36
f 106/132/36 49/135/7 74/133/18
f 47/134/7 49/135/7 106/132/36
f 43/136/7 45/137/7 107/138/37
f 108/139/37 43/136/7 107/138/37
f 108/139/37 107/138/37 32/36/4
f 43/136/7 108/139/37 96/140/31
f 30/34/4 108/139/37 32/36/4
f 108/139/37 30/34/4 96/140/31
f 30/34/4 93/141/22 96/140/31
f 93/141/22 30/34/4 92/142/22
f 30/34/4 29/33/4 92/142/22
f 92/142/22 29/33/4 91/143/28
f 29/33/4 31/35/4 109/144/38
f 29/33/4 110/145/39 91/143/28
f 110/145/39 29/33/4 109/144/38
f 88/146/26 91/143/28 110/145/39
f 110/145/39 109/144/38 111/147/40
f 88/146/26 110/145/39 111/147/40
f 88/146/26 111/147/40 112/148/40
f 86/149/26 88/146/26 112/148/40
f 86/149/26 112/148/40 113/150/39
f 114/151/39 86/149/26 113/150/39
f 114/151/39 113/150/39 20/24/4
f 86/149/26 114/151/39 84/152/24
f 18/22/3 114/151/39 20/24/4
f 114/151/39 18/22/3 84/152/24
f 18/22/3 81/153/22 84/152/24
f 81/153/22 18/22/3 80/154/22
f 18/22/3 17/21/3 80/154/22
f 80/154/22 17/21/3 79/155/21
f 17/21/3 19/23/4 115/156/41
f 17/21/3 116/157/41 79/155/21
f 116/157/41 17/21/3 115/156/41
f 4/158/1 79/155/21 116/157/41
f 116/157/41 115/156/41 6/159/1
f 4/158/1 116/157/41 6/159/1
