# Blender 3.6.18
# www.blender.org
mtllib Mesh.756.mtl
o Bistro_Research_Exterior_paris_building_04_5021
v 8.935513 23.895346 -25.166897
v 8.935515 22.579523 -25.166895
v 8.636059 23.895344 -24.797045
v 8.636061 22.579523 -24.797043
v 8.607451 23.895342 -24.761713
v 8.607453 22.579523 -24.761713
v 8.307999 23.895346 -24.391859
v 8.307999 22.579521 -24.391855
v 8.279391 23.895344 -24.356527
v 8.279393 22.579523 -24.356525
v 7.979937 23.895344 -23.986673
v 7.979937 22.579525 -23.986675
v 7.951330 23.895344 -23.951342
v 7.951332 22.579523 -23.951342
v 7.651878 23.895344 -23.581488
v 7.651873 22.579525 -23.581490
v 7.623268 23.895344 -23.546156
v 7.623270 22.579521 -23.546156
v 7.323813 23.895344 -23.176302
v 7.323814 22.579525 -23.176304
v 7.295207 23.895344 -23.140970
v 7.295208 22.579523 -23.140974
v 6.995752 23.895344 -22.771118
v 6.995752 22.579525 -22.771118
v 6.967146 23.895344 -22.735786
v 6.967147 22.579523 -22.735788
v 6.667693 23.895344 -22.365932
v 6.667693 22.579523 -22.365932
v 6.639086 23.895344 -22.330601
v 6.639084 22.579523 -22.330603
v 6.339631 23.895344 -21.960747
v 6.339630 22.579523 -21.960747
v 6.311024 23.895344 -21.925415
v 6.311025 22.579525 -21.925417
v 6.011571 23.895342 -21.555561
v 6.011567 22.579523 -21.555561
v 5.982961 23.895344 -21.520229
v 5.982962 22.579523 -21.520231
v 5.683507 23.895344 -21.150375
v 5.683508 22.579523 -21.150375
v 5.654903 23.895344 -21.115046
v 5.654903 22.579523 -21.115047
v 5.355449 23.895344 -20.745192
v 5.355446 22.579523 -20.745192
v 5.326840 23.895344 -20.709860
v 5.326840 22.579523 -20.709862
v 5.027388 23.895346 -20.340004
v 5.027387 22.579523 -20.340010
v 4.998781 23.895346 -20.304674
v 4.998780 22.579523 -20.304676
v 4.699327 23.895344 -19.934822
v 4.699324 22.579523 -19.934822
v 4.670718 23.895344 -19.899488
v 4.670719 22.579525 -19.899490
v 4.371264 23.895344 -19.529636
v 4.371264 22.579523 -19.529636
v 4.342659 23.895344 -19.494307
v 4.342660 22.579523 -19.494308
v 4.043206 23.895344 -19.124453
v 4.043204 22.579523 -19.124454
v 9.476167 23.895344 -24.778412
v 9.476169 22.579523 -24.778412
v 8.975246 23.895342 -25.183981
v 8.975246 22.579523 -25.183983
v 4.536296 23.895344 -18.677223
v 4.035376 23.895344 -19.082798
v 4.536301 22.579523 -18.677223
v 4.035375 22.579523 -19.082798
v 14.958928 23.895346 -32.637131
v 14.958934 22.579521 -32.637127
v 14.659477 23.895346 -32.267281
v 14.659478 22.579523 -32.267277
v 14.630872 23.895346 -32.231945
v 14.630873 22.579523 -32.231945
v 14.331417 23.895346 -31.862095
v 14.331415 22.579523 -31.862093
v 14.302807 23.895344 -31.826757
v 14.302807 22.579523 -31.826761
v 14.003356 23.895344 -31.456905
v 14.003354 22.579525 -31.456905
v 13.974745 23.895344 -31.421576
v 13.974751 22.579525 -31.421574
v 13.675294 23.895342 -31.051723
v 13.675292 22.579525 -31.051722
v 13.646685 23.895344 -31.016392
v 13.646688 22.579523 -31.016390
v 13.347231 23.895344 -30.646536
v 13.347232 22.579525 -30.646536
v 13.318624 23.895344 -30.611202
v 13.318626 22.579523 -30.611208
v 13.019173 23.895344 -30.241350
v 13.019171 22.579525 -30.241350
v 12.990563 23.895344 -30.206018
v 12.990563 22.579523 -30.206024
v 12.691110 23.895342 -29.836168
v 12.691109 22.579523 -29.836168
v 12.662501 23.895344 -29.800837
v 12.662502 22.579523 -29.800837
v 12.363049 23.895344 -29.430983
v 12.363048 22.579523 -29.430983
v 12.334440 23.895344 -29.395647
v 12.334444 22.579523 -29.395651
v 12.034986 23.895344 -29.025797
v 12.034985 22.579523 -29.025797
v 12.006379 23.895344 -28.990465
v 12.006377 22.579523 -28.990467
v 11.706926 23.895344 -28.620611
v 11.706923 22.579523 -28.620611
v 11.678321 23.895346 -28.585279
v 11.678320 22.579523 -28.585281
v 11.378866 23.895344 -28.215427
v 11.378866 22.579525 -28.215427
v 11.350259 23.895344 -28.180098
v 11.350261 22.579525 -28.180098
v 11.050803 23.895344 -27.810242
v 11.050802 22.579523 -27.810242
v 11.022196 23.895344 -27.774908
v 11.022197 22.579523 -27.774912
v 10.722743 23.895344 -27.405056
v 10.722743 22.579523 -27.405056
v 10.694138 23.895344 -27.369720
v 10.694138 22.579523 -27.369726
v 10.394682 23.895344 -26.999872
v 10.394681 22.579523 -26.999872
v 10.366076 23.895344 -26.964542
v 10.366078 22.579525 -26.964542
v 10.066622 23.895344 -26.594687
v 10.066622 22.579523 -26.594687
v 15.499582 23.895344 -32.248650
v 15.499587 22.579523 -32.248642
v 14.998665 23.895344 -32.654217
v 14.998665 22.579521 -32.654217
v 10.559712 23.895344 -26.147461
v 10.058795 23.895344 -26.553032
v 10.559717 22.579523 -26.147459
v 10.058794 22.579523 -26.553034
v 12.125591 18.726198 -28.482328
v 12.125590 17.585131 -28.482327
v 10.528687 18.726196 -26.510014
v 10.528684 17.585131 -26.510004
v 9.112679 18.726196 -24.745718
v 9.112677 17.585131 -24.745714
v 7.515774 18.726196 -22.773399
v 7.515770 17.585131 -22.773396
v 6.099770 18.726196 -21.009115
v 6.099769 17.585131 -21.009111
v 4.502862 18.726196 -19.036798
v 4.502861 17.585131 -19.036793
v 15.138500 18.726196 -32.218941
v 15.138497 17.585131 -32.218933
v 13.541596 18.726196 -30.246618
v 13.541595 17.585131 -30.246614
v 15.138504 14.032552 -32.218941
v 15.138497 12.891486 -32.218937
v 13.541596 14.032552 -30.246618
v 13.541593 12.891486 -30.246616
v 12.125591 14.032552 -28.482330
v 12.125588 12.891486 -28.482328
v 10.528687 14.032552 -26.510015
v 10.528682 12.891486 -26.510010
v 9.112679 14.032552 -24.745718
v 9.112676 12.891486 -24.745716
v 7.515773 14.032552 -22.773401
v 7.515769 12.891486 -22.773397
v 6.099771 14.032551 -21.009117
v 6.099768 12.891485 -21.009111
v 4.502864 14.032551 -19.036798
v 4.502861 12.891485 -19.036797
v 6.099771 9.170445 -21.009115
v 6.099767 8.029379 -21.009111
v 4.502863 9.170444 -19.036797
v 4.502860 8.029379 -19.036797
v 9.112678 9.170445 -24.745718
v 9.112675 8.029379 -24.745718
v 7.515772 9.170445 -22.773399
v 7.515769 8.029379 -22.773397
v 12.125591 9.170445 -28.482332
v 12.125588 8.029379 -28.482328
v 10.528687 9.170445 -26.510014
v 10.528682 8.029379 -26.510014
v 15.138500 9.170445 -32.218941
v 15.138497 8.029379 -32.218941
v 13.541596 9.170445 -30.246618
v 13.541593 8.029379 -30.246616
vn -0.7774 -0.0039 -0.6290
vn 0.6242 -0.0039 -0.7812
vn -0.6328 -0.0039 0.7743
vt 0.011642 0.486328
vt 0.011642 0.245117
vt 0.122925 0.486328
vt 0.122925 0.245117
vt 0.120056 0.486328
vt 0.120056 0.245117
vt 0.238281 0.486328
vt 0.238281 0.245117
vt 0.002180 0.247559
vt 0.002180 0.002441
vt 0.580078 0.247559
vt 0.580078 0.002441
s 1
usemtl MASTER_Forge_Metal
f 1/1/1 2/2/1 3/3/1
f 2/2/1 4/4/1 3/3/1
f 5/1/1 6/2/1 7/3/1
f 6/2/1 8/4/1 7/3/1
f 9/1/1 10/2/1 11/3/1
f 10/2/1 12/4/1 11/3/1
f 13/1/1 14/2/1 15/3/1
f 14/2/1 16/4/1 15/3/1
f 17/1/1 18/2/1 19/3/1
f 18/2/1 20/4/1 19/3/1
f 21/1/1 22/2/1 23/3/1
f 22/2/1 24/4/1 23/3/1
f 25/1/1 26/2/1 27/3/1
f 26/2/1 28/4/1 27/3/1
f 29/1/1 30/2/1 31/3/1
f 30/2/1 32/4/1 31/3/1
f 33/1/1 34/2/1 35/3/1
f 34/2/1 36/4/1 35/3/1
f 37/1/1 38/2/1 39/3/1
f 38/2/1 40/4/1 39/3/1
f 41/1/1 42/2/1 43/3/1
f 42/2/1 44/4/1 43/3/1
f 45/1/1 46/2/1 47/3/1
f 46/2/1 48/4/1 47/3/1
f 49/1/1 50/2/1 51/3/1
f 50/2/1 52/4/1 51/3/1
f 53/1/1 54/2/1 55/3/1
f 54/2/1 56/4/1 55/3/1
f 57/1/1 58/2/1 59/3/1
f 58/2/1 60/4/1 59/3/1
f 61/5/2 62/6/2 63/7/2
f 62/6/2 64/8/2 63/7/2
f 65/7/3 66/5/3 67/8/3
f 66/5/3 68/6/3 67/8/3
f 69/1/1 70/2/1 71/3/1
f 70/2/1 72/4/1 71/3/1
f 73/1/1 74/2/1 75/3/1
f 74/2/1 76/4/1 75/3/1
f 77/1/1 78/2/1 79/3/1
f 78/2/1 80/4/1 79/3/1
f 81/1/1 82/2/1 83/3/1
f 82/2/1 84/4/1 83/3/1
f 85/1/1 86/2/1 87/3/1
f 86/2/1 88/4/1 87/3/1
f 89/1/1 90/2/1 91/3/1
f 90/2/1 92/4/1 91/3/1
f 93/1/1 94/2/1 95/3/1
f 94/2/1 96/4/1 95/3/1
f 97/1/1 98/2/1 99/3/1
f 98/2/1 100/4/1 99/3/1
f 101/1/1 102/2/1 103/3/1
f 102/2/1 104/4/1 103/3/1
f 105/1/1 106/2/1 107/3/1
f 106/2/1 108/4/1 107/3/1
f 109/1/1 110/2/1 111/3/1
f 110/2/1 112/4/1 111/3/1
f 113/1/1 114/2/1 115/3/1
f 114/2/1 116/4/1 115/3/1
f 117/1/1 118/2/1 119/3/1
f 118/2/1 120/4/1 119/3/1
f 121/1/1 122/2/1 123/3/1
f 122/2/1 124/4/1 123/3/1
f 125/1/1 126/2/1 127/3/1
f 126/2/1 128/4/1 127/3/1
f 129/5/2 130/6/2 131/7/2
f 130/6/2 132/8/2 131/7/2
f 133/7/3 134/5/3 135/8/3
f 134/5/3 136/6/3 135/8/3
f 137/9/1 138/10/1 139/11/1
f 138/10/1 140/12/1 139/11/1
f 141/9/1 142/10/1 143/11/1
f 142/10/1 144/12/1 143/11/1
f 145/9/1 146/10/1 147/11/1
f 146/10/1 148/12/1 147/11/1
f 149/9/1 150/10/1 151/11/1
f 150/10/1 152/12/1 151/11/1
f 153/9/1 154/10/1 155/11/1
f 154/10/1 156/12/1 155/11/1
f 157/9/1 158/10/1 159/11/1
f 158/10/1 160/12/1 159/11/1
f 161/9/1 162/10/1 163/11/1
f 162/10/1 164/12/1 163/11/1
f 165/9/1 166/10/1 167/11/1
f 166/10/1 168/12/1 167/11/1
f 169/9/1 170/10/1 171/11/1
f 170/10/1 172/12/1 171/11/1
f 173/9/1 174/10/1 175/11/1
f 174/10/1 176/12/1 175/11/1
f 177/9/1 178/10/1 179/11/1
f 178/10/1 180/12/1 179/11/1
f 181/9/1 182/10/1 183/11/1
f 182/10/1 184/12/1 183/11/1
