# Blender 3.6.18
# www.blender.org
mtllib Mesh.344.mtl
o Bistro_Research_Exterior_paris_building_11_5901
v 5.612289 11.475537 23.001076
v 5.612290 8.129838 23.001072
v 3.991892 11.475537 22.334375
v 3.991889 8.129838 22.334381
v 10.285427 16.531761 23.721586
v 10.285428 13.186060 23.721582
v 9.449901 16.531757 23.377876
v 9.449901 13.186058 23.377880
v 8.665030 16.531761 23.054886
v 8.665027 13.186060 23.054893
v 5.612289 16.531761 23.001076
v 5.612290 13.186060 23.001072
v 4.776763 16.531757 22.657366
v 4.776762 13.186059 22.657370
v 3.991892 16.531761 22.334375
v 3.991889 13.186061 22.334381
v 1.827546 16.531761 20.263098
v 1.827548 13.186061 20.263094
v 0.207149 16.531761 19.596399
v 0.207146 13.186061 19.596405
v 1.827546 11.475537 20.263098
v 1.827548 8.129838 20.263094
v 0.992020 11.475533 19.919390
v 0.992019 8.129836 19.919394
v 0.207149 11.475537 19.596399
v 0.207146 8.129838 19.596405
v 10.285427 11.475537 23.721586
v 10.285428 8.129838 23.721582
v 8.665030 11.475537 23.054886
v 8.665027 8.129838 23.054893
v 9.974654 6.069342 24.546347
v 9.974658 2.723643 24.546345
v 9.139130 6.069338 24.202639
v 9.139128 2.723640 24.202642
v 8.354259 6.069342 23.879648
v 8.354256 2.723643 23.879656
v 1.494089 6.069342 21.078583
v 1.494090 2.723643 21.078581
v 0.658563 6.069338 20.734875
v 0.658561 2.723640 20.734879
v -0.126308 6.069342 20.411884
v -0.126311 2.723643 20.411894
vn 0.3788 -0.0039 -0.9255
vt 0.036407 1.024597
vt 0.036407 0.370117
vt 0.459229 1.024597
vt 0.459229 0.370117
vt 0.964355 0.955261
vt 0.964355 0.300781
vt 0.746094 0.955261
vt 0.746094 0.300781
vt 0.538574 0.946320
vt 0.744141 0.946320
vt 0.538574 0.291992
vt 0.744141 0.291992
vt 0.538086 0.955261
vt 0.538086 0.300781
vt 0.744141 0.955261
vt 0.744141 0.300781
vt 0.537109 0.955261
vt 0.743652 0.955261
vt 0.537109 0.300781
vt 0.743652 0.300781
vt 0.014091 0.955261
vt 0.014091 0.300781
vt 0.437012 0.955261
vt 0.437012 0.300781
vt 0.765625 0.961731
vt 0.765625 0.307129
vt 0.983887 0.961731
vt 0.983887 0.307129
vt 0.992676 0.955261
vt 0.764160 0.955261
vt 0.992676 0.300781
vt 0.764160 0.300781
vt 0.765137 0.955261
vt 0.765137 0.300781
vt 0.982910 0.955261
vt 0.982910 0.300781
vt 0.990234 0.963196
vt 0.761719 0.963196
vt 0.990234 0.231934
vt 0.761719 0.231934
vt 0.232056 0.955261
vt 0.232056 0.300781
vt 0.486084 0.955261
vt 0.257812 0.955261
vt 0.486084 0.300781
vt 0.257812 0.300781
s 1
usemtl MASTER_Curtains
f 1/1/1 2/2/1 3/3/1
f 2/2/1 4/4/1 3/3/1
f 5/5/1 6/6/1 7/7/1
f 6/6/1 8/8/1 7/7/1
f 9/9/1 7/10/1 10/11/1
f 7/10/1 8/12/1 10/11/1
f 11/13/1 12/14/1 13/15/1
f 12/14/1 14/16/1 13/15/1
f 15/17/1 13/18/1 16/19/1
f 13/18/1 14/20/1 16/19/1
f 17/21/1 18/22/1 19/23/1
f 18/22/1 20/24/1 19/23/1
f 21/25/1 22/26/1 23/27/1
f 22/26/1 24/28/1 23/27/1
f 25/29/1 23/30/1 26/31/1
f 23/30/1 24/32/1 26/31/1
f 27/21/1 28/22/1 29/23/1
f 28/22/1 30/24/1 29/23/1
f 31/33/1 32/34/1 33/35/1
f 32/34/1 34/36/1 33/35/1
f 35/37/1 33/38/1 36/39/1
f 33/38/1 34/40/1 36/39/1
f 37/21/1 38/22/1 39/41/1
f 38/22/1 40/42/1 39/41/1
f 41/43/1 39/44/1 42/45/1
f 39/44/1 40/46/1 42/45/1
