# Blender 3.6.18
# www.blender.org
mtllib Mesh.776.mtl
o Bistro_Research_Exterior_paris_building_03_mirrored_6__4979
v 80.845184 24.159367 94.596336
v 79.261780 24.160646 83.335907
v 71.391380 24.064335 95.924995
v 78.997620 24.161886 81.462334
v 68.512169 24.125275 75.364113
v 77.941978 24.176640 74.030632
v 78.004852 24.103880 73.843262
v 78.105255 24.097651 73.958336
v 82.289841 17.664333 67.234474
v 82.169937 17.664333 67.144119
v 67.636131 17.664333 69.186707
v 68.487015 24.051428 75.186066
v 68.391968 24.021889 75.274284
v 67.545769 17.664333 69.306610
v 71.408157 17.664330 96.026085
v 85.942467 17.664330 93.987137
v 71.406433 23.958149 96.029984
v 80.915848 24.055458 94.693588
v 71.288246 17.664330 95.935692
v 71.286514 23.958174 95.939598
v 81.015480 24.080572 94.572395
v 86.032822 17.664330 93.867256
v 83.279442 20.707218 91.518700
v 84.737450 18.836079 91.313721
v 84.492874 18.836079 89.573425
v 83.034698 20.707428 89.778419
v 85.409317 17.664330 89.430763
v 79.432091 24.081669 83.311951
v 83.509041 18.845245 82.625008
v 84.450272 17.664330 82.606781
v 82.057236 20.708405 82.829063
v 83.254066 18.845245 80.810745
v 84.186958 17.664330 80.733238
v 79.167938 24.082766 81.438400
v 81.802078 20.708635 81.014832
v 80.848412 20.668896 74.406334
v 82.316704 18.773798 74.181396
v 83.262024 17.664333 74.152016
v 82.075958 18.774502 72.472305
v 80.606529 20.667749 72.678879
vn -0.0118 0.9999 -0.0040
vn -0.0118 0.9999 -0.0039
vn -0.0119 0.9999 -0.0040
vn -0.0119 0.9999 -0.0039
vn -0.1060 0.6792 -0.7263
vn 0.7769 0.6191 -0.1144
vn 0.7851 0.6115 -0.0986
vn -0.9906 -0.0039 0.1370
vn -0.9906 -0.0039 0.1371
vn 0.1381 -0.0007 0.9904
vn 0.1381 -0.0039 0.9904
vn 0.7765 0.6197 -0.1143
vn 0.7769 0.6192 -0.1144
vn 0.7769 0.6192 -0.1143
vn 0.7769 0.6191 -0.1143
vn 0.7731 0.6240 -0.1138
vn 0.7699 0.6278 -0.1145
vn 0.7768 0.6193 -0.1142
vn 0.7661 0.6325 -0.1139
vn 0.7590 0.6410 -0.1140
vn 0.7668 0.6331 -0.1062
vn 0.7844 0.6110 -0.1065
vt -11.875000 7.265625
vt -11.875000 3.619141
vt -8.812500 7.265625
vt -11.875000 3.013672
vt -8.820312 0.608398
vt -11.875000 0.605957
vt -11.906250 0.544922
vt -11.929688 0.583984
vt -11.937500 0.576904
vt -13.554688 -2.269531
vt -13.515625 -2.296875
vt -8.804688 -2.275391
vt -8.820312 0.546875
vt -8.781250 0.559326
vt -8.765625 -2.251953
vt -13.539062 -4.496094
vt -8.828125 -4.542969
vt -13.523438 -2.423828
vt -10.437500 -2.423828
vt -13.515625 -2.320312
vt -10.453125 -2.320312
vt -7.023438 4.039062
vt 1.621094 4.039062
vt -5.085938 6.078125
vt -5.054688 6.125000
vt 1.617188 6.109375
vt 1.624023 6.070312
vt 1.688477 4.041016
vt 1.681641 6.078125
vt -6.691406 4.017578
vt -6.722656 3.955078
vt -6.656250 3.927734
vt -6.722656 1.321045
vt -6.656250 1.299316
vt -3.000000 3.982422
vt -6.648438 3.980469
vt -5.777344 2.541992
vt -5.777344 1.778809
vt -5.210938 1.778809
vt -5.214844 2.541992
vt -5.207031 1.299561
vt -3.000000 3.921875
vt -2.962891 1.782715
vt -2.998047 1.300049
vt -2.962891 2.541992
vt -2.373047 1.784180
vt -2.390625 1.300781
vt -2.392578 3.919922
vt -2.375000 2.541992
vt -2.392578 3.980469
vt -0.233765 2.528320
vt -0.224243 1.760254
vt -0.255615 1.295898
vt 0.334229 1.760742
vt 1.994141 1.304199
vt 0.328125 2.526367
vt 0.026718 3.916016
vt 0.013367 3.976562
s 1
usemtl MASTER_Roofing_Shingle_Grey
f 1/1/1 2/2/2 3/3/3
f 2/2/2 4/4/3 3/3/3
f 4/4/3 5/5/4 3/3/3
f 4/4/3 6/6/1 5/5/4
f 7/7/5 6/6/1 8/8/6
f 5/5/4 6/6/1 7/7/5
f 7/7/5 8/9/6 9/10/7
f 10/11/5 7/7/5 9/10/7
f 7/7/5 10/11/5 11/12/5
f 12/13/5 5/5/4 7/7/5
f 12/13/5 7/7/5 11/12/5
f 12/13/5 13/14/8 5/5/4
f 11/12/5 14/15/9 12/13/5
f 14/15/9 13/14/8 12/13/5
f 15/16/10 16/17/11 17/18/11
f 16/17/11 18/19/11 17/18/11
f 3/20/3 17/18/11 18/19/11
f 1/21/1 3/20/3 18/19/11
f 14/22/9 19/23/8 13/24/8
f 5/25/4 13/24/8 3/26/3
f 19/23/8 20/27/8 13/24/8
f 13/24/8 20/27/8 3/26/3
f 19/23/8 15/28/10 20/27/8
f 20/27/8 17/29/11 3/26/3
f 15/28/10 17/29/11 20/27/8
f 1/30/1 18/31/11 21/32/6
f 21/32/6 18/31/11 16/33/11
f 22/34/12 21/32/6 16/33/11
f 2/35/2 1/36/1 21/32/6
f 23/37/13 21/32/6 22/34/12
f 24/38/14 23/37/13 22/34/12
f 25/39/14 24/38/14 22/34/12
f 26/40/13 21/32/6 23/37/13
f 27/41/14 25/39/14 22/34/12
f 28/42/15 21/32/6 26/40/13
f 28/42/15 2/35/2 21/32/6
f 29/43/14 25/39/14 27/41/14
f 25/39/14 29/43/14 26/40/13
f 30/44/14 29/43/14 27/41/14
f 29/43/14 31/45/14 26/40/13
f 31/45/14 28/42/15 26/40/13
f 32/46/16 29/43/14 30/44/14
f 33/47/17 32/46/16 30/44/14
f 34/48/15 28/42/15 31/45/14
f 28/42/15 34/48/15 2/35/2
f 35/49/18 34/48/15 31/45/14
f 34/48/15 4/50/3 2/35/2
f 36/51/6 35/49/18 32/46/16
f 34/48/15 35/49/18 36/51/6
f 37/52/19 32/46/16 33/47/17
f 37/52/19 36/51/6 32/46/16
f 38/53/20 37/52/19 33/47/17
f 39/54/21 37/52/19 38/53/20
f 9/55/7 39/54/21 38/53/20
f 9/55/7 40/56/22 39/54/21
f 9/55/7 8/57/6 40/56/22
f 8/57/6 36/51/6 40/56/22
f 8/57/6 34/48/15 36/51/6
f 34/48/15 8/57/6 4/50/3
f 8/57/6 6/58/1 4/50/3
