# Blender 3.6.18
# www.blender.org
mtllib Mesh.727.mtl
o Bistro_Research_Exterior_paris_building_05_5081
v 25.929335 11.839622 -47.975449
v 25.929335 8.964341 -47.975449
v 25.469666 8.964341 -47.199875
v 25.469666 11.839622 -47.199875
v 24.995817 11.839622 -46.400372
v 25.458181 11.839622 -47.180492
v 25.458181 8.964341 -47.180496
v 24.995817 8.964341 -46.400372
vn -0.8602 -0.0039 -0.5099
vt 0.251221 0.988487
vt 0.251221 0.225098
vt 0.497803 0.225098
vt 0.497803 0.988487
vt 0.249146 0.988487
vt 0.002602 0.988487
vt 0.002602 0.225098
vt 0.249146 0.225098
s 1
usemtl MASTER_Curtains
f 1/1/1 2/2/1 3/3/1
f 3/3/1 4/4/1 1/1/1
f 5/5/1 6/6/1 7/7/1
f 7/7/1 8/8/1 5/5/1
