# Blender 3.6.18
# www.blender.org
mtllib Mesh.412.mtl
o Bistro_Research_Exterior_paris_building_11_5753
v 9.956407 5.716862 24.341455
v 8.459744 5.717764 23.729462
v 9.916922 5.716862 24.438017
v 8.420260 5.717764 23.826025
v 8.452339 5.709768 23.726431
v 8.452340 2.975796 23.726433
v 8.412855 5.709768 23.822990
v 8.412855 2.975796 23.822996
v 8.459744 2.967796 23.729460
v 9.956407 2.967797 24.341455
v 8.420260 2.967796 23.826023
v 9.916922 2.967797 24.438017
v 9.963811 2.975796 24.344484
v 9.963811 5.708858 24.344486
v 9.924327 2.975796 24.441046
v 9.924327 5.708858 24.441044
v 9.848893 5.600364 24.287661
v 8.574153 5.601131 23.766409
v 9.948994 5.708869 24.329700
v 8.473276 5.709758 23.726269
v 8.563678 5.589821 23.762127
v 8.563678 3.095675 23.762127
v 8.462801 5.698447 23.721985
v 8.462801 2.987109 23.721985
v 8.574151 3.084362 23.766407
v 9.848890 3.084362 24.287657
v 8.473273 2.975796 23.726267
v 9.948991 2.975796 24.329699
v 9.859363 3.095675 24.291941
v 9.859363 5.589047 24.291943
v 9.959463 2.987109 24.333982
v 9.959462 5.697552 24.333982
v 9.823339 5.580802 24.305544
v 8.579850 5.581552 23.797071
v 9.838251 5.589147 24.291138
v 8.579305 5.589906 23.776344
v 8.571867 5.572931 23.793808
v 8.571867 3.112556 23.793810
v 8.571321 5.581285 23.773081
v 8.571321 3.104208 23.773081
v 8.579850 3.103932 23.797071
v 9.823339 3.103933 24.305542
v 8.579305 3.095583 23.776344
v 9.838250 3.095583 24.291136
v 9.831321 3.112557 24.308807
v 9.831321 5.572174 24.308807
v 9.846232 3.104208 24.294401
v 9.846232 5.580519 24.294401
v 9.753428 5.510671 24.284018
v 8.644820 5.511339 23.830698
v 9.807730 5.569589 24.306971
v 8.589993 5.570323 23.809029
v 8.634345 5.500029 23.826420
v 8.634345 3.185417 23.826416
v 8.579518 5.559012 23.804745
v 8.579518 3.126467 23.804747
v 8.644816 3.174104 23.830696
v 9.753426 3.174104 24.284016
v 8.589989 3.115154 23.809027
v 9.807727 3.115153 24.306971
v 9.763897 3.185417 24.288296
v 9.763897 5.499355 24.288298
v 9.818200 3.126467 24.311251
v 9.818199 5.558273 24.311249
v 9.719894 5.502675 24.353636
v 8.619961 5.503337 23.903866
v 9.746096 5.502675 24.289558
v 8.646161 5.503337 23.839788
v 8.612556 5.495342 23.900839
v 8.612556 3.190104 23.900837
v 8.638758 5.495342 23.836761
v 8.638758 3.190103 23.836761
v 8.619961 3.182103 23.903866
v 9.719894 3.182103 24.353636
v 8.646161 3.182103 23.839788
v 9.746096 3.182103 24.289560
v 9.727299 3.190103 24.356663
v 9.727299 5.494670 24.356665
v 9.753501 3.190104 24.292587
v 9.753501 5.494670 24.292591
vn -0.0039 1.0000 -0.0039
vn -0.9255 -0.0039 -0.3788
vn -0.0039 -1.0000 -0.0039
vn 0.9271 -0.0039 0.3748
vn 0.3721 0.0039 -0.9282
vn 0.3653 -0.0039 -0.9309
vn 0.3721 -0.0117 -0.9281
vn 0.3720 -0.0118 -0.9282
vn 0.3788 -0.0039 -0.9255
vn 0.1440 -0.9147 -0.3776
vn 0.9996 -0.0040 -0.0277
vn 0.1451 0.9134 -0.3803
vn 0.1450 0.9134 -0.3803
vn -0.6953 -0.0039 -0.7187
vn -0.6954 -0.0039 -0.7187
vn 0.3720 0.0118 -0.9281
vn 0.3721 0.0117 -0.9281
vn 0.3720 0.0117 -0.9281
vn 0.3626 -0.0039 -0.9319
vn 0.3627 -0.0039 -0.9319
vn 0.3720 -0.0196 -0.9280
vn 0.3882 -0.0039 -0.9216
vn 0.6535 0.7089 0.2654
vn 0.6739 0.6503 -0.3508
vn 0.8202 0.4906 -0.2943
vn 0.6739 0.6503 -0.3507
vn 0.4288 0.4367 -0.7908
vn -0.2389 0.6464 -0.7247
vn 0.2395 0.4358 -0.8676
vn -0.3859 0.4872 -0.7834
vn -0.6566 0.7038 -0.2713
vn -0.0740 0.0973 -0.9925
vn -0.3844 -0.4931 -0.7805
vn -0.0739 -0.1050 -0.9917
vn -0.2377 -0.6509 -0.7210
vn -0.6530 -0.7077 -0.2698
vn -0.2377 -0.6508 -0.7210
vn 0.2387 -0.4421 -0.8646
vn 0.6686 -0.6530 -0.3558
vn 0.4274 -0.4431 -0.7881
vn 0.8170 -0.4965 -0.2932
vn 0.6498 -0.7128 0.2639
vn 0.7412 -0.1059 -0.6628
vn 0.7418 0.0981 -0.6633
vn 0.0273 -0.5189 -0.8544
vn -0.1755 -0.2925 -0.9400
vn -0.0429 -0.4792 -0.8766
vn -0.1444 -0.3709 -0.9174
vn 0.6358 -0.4798 -0.6046
vn 0.7402 -0.3721 -0.5601
vn 0.5675 -0.5205 -0.6380
vn 0.7799 -0.2939 -0.5526
vn 0.7424 0.3653 -0.5617
vn 0.6382 0.4737 -0.6069
vn 0.7817 0.2868 -0.5538
vn 0.5698 0.5148 -0.6405
vn -0.0430 0.4732 -0.8799
vn -0.1448 0.3641 -0.9200
vn 0.0274 0.5132 -0.8579
vn -0.1759 0.2854 -0.9421
vn -0.1674 -0.7049 -0.6893
vn -0.4341 -0.4107 -0.8018
vn -0.4342 -0.4107 -0.8018
vn -0.6530 -0.7077 -0.2697
vn 0.5924 -0.7101 -0.3805
vn 0.8693 -0.4130 -0.2714
vn 0.5924 -0.7101 -0.3806
vn 0.8721 0.4065 -0.2723
vn 0.5957 0.7062 -0.3827
vn -0.1684 0.7009 -0.6931
vn -0.4355 0.4042 -0.8044
vn 0.2460 -0.2616 -0.9333
vn 0.1131 -0.1208 -0.9862
vn 0.1132 0.1131 -0.9871
vn 0.4672 -0.2631 -0.8441
vn 0.2465 0.2543 -0.9352
vn 0.4682 0.2557 -0.8458
vn 0.6017 0.1140 -0.7905
vn 0.6012 -0.1218 -0.7898
vn 0.2851 -0.3241 -0.9020
vn 0.0586 -0.0742 -0.9955
vn 0.4183 -0.3245 -0.8484
vn 0.1838 -0.3872 -0.9035
vn 0.0586 0.0664 -0.9961
vn -0.0195 -0.1675 -0.9857
vn 0.2858 0.3171 -0.9043
vn -0.0195 0.1599 -0.9869
vn 0.4194 0.3175 -0.8505
vn 0.1844 0.3805 -0.9062
vn 0.6484 0.0668 -0.7584
vn 0.4976 0.3801 -0.7797
vn 0.6480 -0.0746 -0.7580
vn 0.6978 0.1616 -0.6978
vn 0.6969 -0.1693 -0.6969
vn 0.4961 -0.3867 -0.7774
vt 0.337646 0.485352
vt 0.842773 0.485352
vt 0.337646 0.517822
vt 0.842773 0.517822
vt -0.199585 0.485352
vt 0.654297 0.485352
vt -0.199585 0.517822
vt 0.654297 0.517822
vt 0.156738 0.485352
vt 0.662109 0.485352
vt 0.156738 0.517822
vt 0.662109 0.517822
vt 0.345215 0.485352
vt 1.199219 0.485352
vt 0.345215 0.517822
vt 1.199219 0.517822
vt 0.375244 1.165405
vt 0.805664 1.165649
vt 0.341309 1.199341
vt 0.839355 1.199585
vt 0.809082 1.162109
vt 0.809082 0.382812
vt 0.842773 1.196045
vt 0.842773 0.349121
vt 0.805664 0.379395
vt 0.375244 0.379395
vt 0.839355 0.345703
vt 0.341309 0.345703
vt 0.371582 0.382812
vt 0.371582 1.161865
vt 0.337646 0.349121
vt 0.337646 1.195801
vt 0.619141 0.490723
vt 0.199463 0.490723
vt 0.621582 0.484863
vt 0.196899 0.484863
vt 1.156250 0.490723
vt 0.387939 0.490723
vt 1.159180 0.484863
vt 0.385254 0.484863
vt 0.800293 0.490723
vt 0.380615 0.490723
vt 0.802734 0.484863
vt 0.377930 0.484863
vt 0.611816 0.490723
vt -0.156616 0.490723
vt 0.614258 0.484863
vt -0.159180 0.484863
vt 0.403320 1.137451
vt 0.777344 1.137573
vt 0.384766 1.155762
vt 0.795898 1.156006
vt 0.780762 1.134033
vt 0.780762 0.411133
vt 0.799316 1.152466
vt 0.799316 0.392578
vt 0.777344 0.407715
vt 0.403320 0.407715
vt 0.795898 0.389160
vt 0.384766 0.389160
vt 0.399658 0.411133
vt 0.399658 1.133911
vt 0.381348 0.392578
vt 0.381348 1.152222
vt 0.594727 0.516846
vt 0.223755 0.516846
vt 0.594727 0.495117
vt 0.223755 0.495117
vt 1.131836 0.516846
vt 0.412109 0.516846
vt 1.131836 0.495117
vt 0.412109 0.495117
vt 0.775879 0.516846
vt 0.404785 0.516846
vt 0.775879 0.495117
vt 0.404785 0.495117
vt 0.587402 0.516846
vt -0.132446 0.516846
vt 0.587402 0.495117
vt -0.132446 0.495117
vt 1.201172 0.517822
vt 1.201172 0.485352
vt 0.341309 0.482910
vt 0.839355 0.482910
vt 0.845215 0.485352
vt 0.845215 0.517822
vt -0.196045 0.482910
vt 0.650879 0.482910
vt 0.656738 0.485352
vt 0.656738 0.517822
vt 0.160278 0.482910
vt 0.658203 0.482910
vt 0.664551 0.485352
vt 0.664551 0.517822
vt 0.348633 0.482910
vt 1.195312 0.482910
vt -0.161987 0.484863
vt -0.159302 0.490723
vt 0.196777 0.490723
vt 0.194214 0.484863
vt 0.385254 0.490723
vt 0.382568 0.484863
vt 0.377686 0.490723
vt 0.375244 0.484863
vt -0.134888 0.495117
vt -0.134888 0.516846
vt 0.221191 0.516846
vt 0.221191 0.495117
vt 0.409668 0.516846
vt 0.409668 0.495117
vt 0.402344 0.516846
vt 0.402344 0.495117
vt 0.335205 1.199341
vt 0.337646 1.201782
vt 0.375244 1.159180
vt 0.375244 0.385742
vt 0.377930 1.161987
vt 0.377930 0.382812
vt 0.802734 1.162109
vt 0.802734 0.382812
vt 0.335205 0.345703
vt 0.337646 0.343262
vt 0.805664 0.385742
vt 0.805664 1.159424
vt 0.842773 0.343262
vt 0.845215 0.345703
vt 0.845215 1.199585
vt 0.842773 1.202148
vt 0.380615 1.159302
vt 0.800293 1.159546
vt 0.377686 1.156616
vt 0.802734 1.156860
vt 0.377686 0.388184
vt 0.380615 0.385742
vt 0.800293 0.385742
vt 0.802734 0.388184
vt 0.778320 0.412598
vt 0.778320 1.132568
vt 0.775879 0.410156
vt 0.775879 1.135132
vt 0.404785 0.410156
vt 0.404785 1.134888
vt 0.402344 0.412598
vt 0.402344 1.132446
s 1
usemtl MASTER_Wood_Painted_Green
f 1/1/1 2/2/1 3/3/1
f 2/2/1 4/4/1 3/3/1
f 5/5/2 6/6/2 7/7/2
f 6/6/2 8/8/2 7/7/2
f 9/9/3 10/10/3 11/11/3
f 10/10/3 12/12/3 11/11/3
f 13/13/4 14/14/4 15/15/4
f 14/14/4 16/16/4 15/15/4
f 17/17/5 18/18/5 19/19/5
f 18/18/5 20/20/5 19/19/5
f 21/21/6 22/22/6 23/23/6
f 22/22/6 24/24/6 23/23/6
f 25/25/7 26/26/8 27/27/7
f 26/26/8 28/28/8 27/27/7
f 29/29/9 30/30/9 31/31/9
f 30/30/9 32/32/9 31/31/9
f 33/33/10 34/34/10 35/35/10
f 34/34/10 36/36/10 35/35/10
f 37/37/11 38/38/11 39/39/11
f 38/38/11 40/40/11 39/39/11
f 41/41/12 42/42/13 43/43/12
f 42/42/13 44/44/13 43/43/12
f 45/45/14 46/46/14 47/47/14
f 46/46/14 48/48/15 47/47/14
f 49/49/16 50/50/17 51/51/18
f 50/50/17 52/52/17 51/51/18
f 53/53/19 54/54/19 55/55/20
f 54/54/19 56/56/20 55/55/20
f 57/57/21 58/58/21 59/59/21
f 58/58/21 60/60/21 59/59/21
f 61/61/22 62/62/22 63/63/22
f 62/62/22 64/64/22 63/63/22
f 65/65/3 66/66/3 67/67/3
f 66/66/3 68/68/3 67/67/3
f 69/69/4 70/70/4 71/71/4
f 70/70/4 72/72/4 71/71/4
f 73/73/1 74/74/1 75/75/1
f 74/74/1 76/76/1 75/75/1
f 77/77/2 78/78/2 79/79/2
f 78/78/2 80/80/2 79/79/2
f 3/81/23 16/16/23 1/82/24
f 16/16/23 14/14/25 1/82/26
f 1/1/26 19/83/27 2/2/28
f 19/83/27 20/84/29 2/2/28
f 2/2/28 5/85/30 4/4/31
f 5/85/30 7/86/31 4/4/31
f 5/5/30 23/87/32 6/6/33
f 23/87/32 24/88/34 6/6/33
f 6/6/33 9/89/35 8/8/36
f 9/89/37 11/90/36 8/8/36
f 9/9/35 27/91/38 10/10/39
f 27/91/38 28/92/40 10/10/39
f 10/10/39 13/93/41 12/12/42
f 13/93/41 15/94/42 12/12/42
f 13/13/41 31/95/43 14/14/25
f 31/95/43 32/96/44 14/14/25
f 35/97/45 48/48/46 33/98/47
f 48/48/46 46/46/48 33/98/47
f 34/34/49 37/99/50 36/36/51
f 37/99/50 39/100/52 36/36/51
f 38/38/53 41/101/54 40/40/55
f 41/101/54 43/102/56 40/40/55
f 42/42/57 45/103/58 44/44/59
f 45/103/58 47/104/60 44/44/59
f 67/105/61 80/80/62 65/106/36
f 80/80/63 78/78/64 65/106/64
f 66/66/42 69/107/42 68/68/65
f 69/107/42 71/108/66 68/68/67
f 70/70/23 73/109/23 72/72/68
f 73/109/23 75/110/69 72/72/68
f 74/74/31 77/111/31 76/76/70
f 77/111/31 79/112/71 76/76/70
f 14/113/25 32/32/44 1/114/26
f 32/32/44 19/19/27 1/114/26
f 19/19/27 32/32/44 17/17/72
f 32/32/44 30/30/73 17/17/72
f 30/30/73 48/115/46 17/17/72
f 47/116/60 48/115/46 30/30/73
f 48/115/46 35/117/45 17/17/72
f 29/29/74 47/116/60 30/30/73
f 17/17/72 35/117/45 18/18/75
f 44/118/59 47/116/60 29/29/74
f 35/117/45 36/119/51 18/18/75
f 26/26/76 44/118/59 29/29/74
f 43/120/56 44/118/59 26/26/76
f 26/26/76 29/29/74 28/28/40
f 29/29/74 31/31/43 28/28/40
f 28/28/40 31/31/43 13/121/41
f 10/122/39 28/28/40 13/121/41
f 25/25/77 43/120/56 26/26/76
f 40/123/55 43/120/56 25/25/77
f 22/22/78 40/123/55 25/25/77
f 39/124/52 40/123/55 22/22/78
f 22/22/78 25/25/77 24/24/34
f 25/25/77 27/27/38 24/24/34
f 24/24/34 27/27/38 9/125/35
f 6/126/33 24/24/34 9/125/35
f 21/21/79 39/124/52 22/22/78
f 36/119/51 39/124/52 21/21/79
f 18/18/75 36/119/51 21/21/79
f 18/18/75 21/21/79 20/20/29
f 21/21/79 23/23/32 20/20/29
f 20/20/29 23/23/32 5/127/30
f 2/128/28 20/20/29 5/127/30
f 33/129/47 51/51/80 34/130/49
f 64/64/81 51/51/80 33/129/47
f 46/131/48 64/64/81 33/129/47
f 51/51/80 52/52/82 34/130/49
f 51/51/80 64/64/81 49/49/83
f 34/130/49 52/52/82 37/132/50
f 63/63/84 64/64/81 46/131/48
f 45/133/58 63/63/84 46/131/48
f 64/64/81 62/62/85 49/49/83
f 60/60/86 63/63/84 45/133/58
f 42/134/57 60/60/86 45/133/58
f 61/61/87 63/63/84 60/60/86
f 59/59/88 60/60/86 42/134/57
f 41/135/54 59/59/88 42/134/57
f 58/58/89 61/61/87 60/60/86
f 56/56/90 59/59/88 41/135/54
f 38/136/53 56/56/90 41/135/54
f 57/57/91 59/59/88 56/56/90
f 55/55/92 56/56/90 38/136/53
f 37/132/50 55/55/92 38/136/53
f 52/52/82 55/55/92 37/132/50
f 54/54/93 57/57/91 56/56/90
f 53/53/94 55/55/92 52/52/82
f 50/50/95 53/53/94 52/52/82
f 54/54/93 72/137/68 57/57/91
f 71/138/66 72/137/68 54/54/93
f 53/53/94 71/138/66 54/54/93
f 72/137/68 75/139/69 57/57/91
f 57/57/91 75/139/69 58/58/89
f 68/140/67 71/138/66 53/53/94
f 50/50/95 68/140/67 53/53/94
f 75/139/69 76/141/70 58/58/89
f 67/142/61 68/140/67 50/50/95
f 58/58/89 76/141/70 61/61/87
f 49/49/83 67/142/61 50/50/95
f 76/141/70 79/143/71 61/61/87
f 80/144/62 67/142/61 49/49/83
f 61/61/87 79/143/71 62/62/85
f 62/62/85 80/144/62 49/49/83
f 79/143/71 80/144/62 62/62/85
