# Blender 3.6.18
# www.blender.org
mtllib Mesh.1049.mtl
o Bistro_Research_Exterior_Paris_Building_01_paris_buildi_5b4ad15
v 8.797767 17.663897 4.734526
v 8.797767 17.774616 4.734526
v 8.597043 17.663897 5.239739
v 8.597043 17.774616 5.239739
v 8.580835 17.774616 5.246732
v 8.580836 17.663897 5.246732
v 6.265121 17.663897 4.324792
v 6.265121 17.774616 4.324792
v 6.258130 17.774616 4.308587
v 6.258130 17.663897 4.308588
v 6.458059 17.663897 3.805393
v 6.458059 17.774616 3.805393
v 6.469661 17.651417 3.809969
v 6.269729 17.651415 4.313193
v 8.786167 17.651417 4.729919
v 8.585443 17.651415 5.235134
v 8.786167 17.787096 4.729919
v 8.585443 17.787096 5.235134
v 6.269729 17.787096 4.313193
v 6.469661 17.787096 3.809969
vn 0.9241 -0.1062 0.3671
vn 0.9253 0.0984 0.3662
vn 0.9180 -0.1063 0.3822
vn 0.9187 0.0986 0.3824
vn -0.3748 -0.0039 0.9271
vn -0.3748 -0.0040 0.9271
vn -0.9327 0.0975 -0.3473
vn -0.9319 -0.1052 -0.3470
vn -0.9231 -0.1051 -0.3700
vn -0.9249 0.0974 -0.3675
vn -0.0047 -1.0000 -0.0019
vn -0.0039 -1.0000 -0.0039
vn -0.0048 1.0000 -0.0018
vn -0.0039 1.0000 -0.0039
vt -0.621094 1.298584
vt -0.621094 1.258301
vt -0.422852 1.298584
vt -0.422852 1.258301
vt -0.416504 1.258301
vt -0.416504 1.298584
vt 0.492432 1.298584
vt 0.492432 1.258301
vt 0.498779 1.258301
vt 0.498779 1.298584
vt 0.696289 1.298584
vt 0.696289 1.258301
vt 0.559082 1.124939
vt 0.552734 1.124939
vt 0.559082 0.931946
vt 0.552734 0.927490
vt 0.554688 0.921387
vt -0.355469 1.124939
vt -0.354980 0.921387
vt -0.355469 0.927490
vt -0.361816 1.124939
vt -0.361816 0.921265
vt -0.358887 0.637695
vt -0.352539 0.637695
vt -0.358887 0.833130
vt -0.352539 0.835083
vt -0.354004 0.841187
vt 0.555664 0.841187
vt 0.555664 0.835083
vt 0.555664 0.637695
vt 0.562012 0.838867
vt 0.562012 0.637695
s 1
usemtl MASTER_Concrete_Smooth
f 1/1/1 2/2/2 3/3/3
f 2/2/2 4/4/4 3/3/3
f 4/4/4 5/5/5 3/3/3
f 5/5/5 6/6/5 3/3/3
f 6/6/5 5/5/5 7/7/6
f 5/5/5 8/8/5 7/7/6
f 7/7/6 8/8/5 9/9/7
f 10/10/8 7/7/6 9/9/7
f 11/11/9 10/10/8 9/9/7
f 12/12/10 11/11/9 9/9/7
f 11/13/9 13/14/11 10/15/8
f 13/14/11 14/16/12 10/15/8
f 7/17/6 10/15/8 14/16/12
f 13/14/11 15/18/12 14/16/12
f 7/17/6 14/16/12 6/19/5
f 15/18/12 16/20/12 14/16/12
f 14/16/12 16/20/12 6/19/5
f 16/20/12 15/18/12 1/21/1
f 3/22/3 6/19/5 16/20/12
f 3/22/3 16/20/12 1/21/1
f 2/23/2 17/24/13 4/25/4
f 17/24/13 18/26/14 4/25/4
f 18/26/14 5/27/5 4/25/4
f 5/27/5 18/26/14 8/28/5
f 18/26/14 17/24/13 19/29/14
f 18/26/14 19/29/14 8/28/5
f 17/24/13 20/30/14 19/29/14
f 19/29/14 9/31/7 8/28/5
f 19/29/14 20/30/14 12/32/10
f 9/31/7 19/29/14 12/32/10
