# Blender 3.6.18
# www.blender.org
mtllib Mesh.560.mtl
o Bistro_Research_Exterior_paris_building_09_5435
v -25.073637 7.569698 -21.994289
v -25.075020 2.062437 -21.995560
v -25.088003 2.062437 -21.981430
v -25.086620 7.569698 -21.980162
v -25.086090 2.062437 -21.936216
v -25.084709 7.569698 -21.934946
v -24.363832 7.569698 -21.272528
v -24.363764 2.062437 -21.272467
v -24.318548 2.062437 -21.274376
v -24.318621 7.569698 -21.274439
v -24.305565 2.062437 -21.288506
v -24.305634 7.569698 -21.288567
v -22.295399 7.569698 -19.441359
v -22.296782 2.062437 -19.442625
v -22.309765 2.062437 -19.428497
v -22.308382 7.569698 -19.427229
v -22.307850 2.062437 -19.383284
v -22.306469 7.569698 -19.382017
v -21.585598 7.569698 -18.719597
v -21.585522 2.062436 -18.719534
v -21.540310 2.062436 -18.721445
v -21.540380 7.569698 -18.721506
v -21.527327 2.062436 -18.735575
v -21.527395 7.569698 -18.735634
vn -0.7376 -0.0039 -0.6752
vn -0.9994 0.0003 0.0353
vn -0.9994 -0.0039 0.0353
vn -0.6791 0.0001 0.7341
vn -0.6791 -0.0039 0.7340
vn -0.6791 -0.0000 0.7341
vn 0.0356 -0.0039 0.9994
vn 0.0355 -0.0000 0.9994
vn 0.7380 -0.0039 0.6748
vn 0.7380 -0.0040 0.6748
vn -0.6791 -0.0039 0.7341
vn 0.0355 -0.0039 0.9994
vn 0.0356 -0.0000 0.9994
vt 2.351562 0.955475
vt 2.349609 -0.106445
vt 2.357422 -0.106445
vt 2.357422 0.955475
vt 2.375000 -0.106445
vt 2.375000 0.955475
vt 2.582031 0.955475
vt 2.582031 -0.106445
vt 2.597656 -0.106445
vt 2.597656 0.955475
vt 2.605469 -0.106445
vt 2.605469 0.955475
s 1
usemtl MASTER_Concrete_Grooved
f 1/1/1 2/2/1 3/3/2
f 4/4/3 1/1/1 3/3/2
f 4/4/3 3/3/2 5/5/4
f 6/6/5 4/4/3 5/5/4
f 6/6/5 5/5/4 7/7/6
f 5/5/4 8/8/5 7/7/6
f 8/8/5 9/9/7 7/7/6
f 9/9/7 10/10/8 7/7/6
f 9/9/7 11/11/9 10/10/8
f 11/11/9 12/12/10 10/10/8
f 13/1/1 14/2/1 15/3/2
f 16/4/3 13/1/1 15/3/2
f 16/4/3 15/3/2 17/5/4
f 18/6/11 16/4/3 17/5/4
f 18/6/11 17/5/4 19/7/6
f 17/5/4 20/8/5 19/7/6
f 20/8/5 21/9/12 19/7/6
f 21/9/12 22/10/13 19/7/6
f 21/9/12 23/11/9 22/10/13
f 23/11/9 24/12/9 22/10/13
