# Blender 3.6.18
# www.blender.org
mtllib Mesh.1040.mtl
o Bistro_Research_Exterior_Paris_Building_01_paris_buildi_cb93680
v 1.146196 12.841125 -10.590884
v 1.146196 12.951843 -10.590884
v 0.668688 12.841125 -10.850727
v 0.668688 12.951844 -10.850727
v 0.663689 12.951844 -10.867657
v 0.663689 12.841125 -10.867656
v 1.784612 12.830831 -12.928301
v 1.784612 12.941549 -12.928301
v 1.801538 12.941549 -12.933298
v 1.801538 12.830831 -12.933298
v 2.277136 12.830831 -12.674488
v 2.277136 12.941549 -12.674488
v 2.271203 12.818350 -12.663518
v 1.795575 12.818350 -12.922335
v 1.152159 12.828645 -10.601850
v 0.674652 12.828644 -10.861690
v 1.152159 12.964324 -10.601850
v 0.674652 12.964324 -10.861690
v 1.795574 12.954030 -12.922335
v 2.271203 12.954031 -12.663518
vn -0.4836 -0.1062 0.8688
vn -0.4840 0.0984 0.8695
vn -0.4989 -0.1060 0.8602
vn -0.4993 0.0983 0.8609
vn -0.8765 0.0974 -0.4714
vn -0.8759 -0.1051 -0.4710
vn -0.8707 -0.1054 -0.4803
vn -0.8714 0.0977 -0.4807
vn 0.4497 0.0978 -0.8878
vn 0.4494 -0.1056 -0.8871
vn 0.4742 -0.1058 -0.8740
vn 0.4757 0.0981 -0.8741
vn -0.0039 -1.0000 -0.0039
vn 0.0004 1.0000 -0.0016
vn -0.0039 1.0000 -0.0039
vt 0.002003 0.718018
vt 0.001999 0.691650
vt 0.131470 0.718018
vt 0.131470 0.691650
vt 0.135620 0.691650
vt 0.135620 0.718018
vt 0.694824 0.720459
vt 0.694824 0.694092
vt 0.698730 0.694092
vt 0.698730 0.720459
vt 0.827637 0.720459
vt 0.827637 0.694092
vt 0.570801 0.475586
vt 0.567871 0.475586
vt 0.570801 0.346191
vt 0.566406 0.346191
vt 0.566406 0.342285
vt 0.006599 0.475586
vt 0.006599 0.342285
vt 0.006599 0.346191
vt 0.002823 0.475586
vt 0.002823 0.350586
vt 0.002823 0.498047
vt 0.006599 0.498047
vt 0.002823 0.627441
vt 0.006599 0.627441
vt 0.006599 0.631104
vt 0.566406 0.631104
vt 0.566406 0.627441
vt 0.566406 0.498047
vt 0.570801 0.627441
vt 0.570801 0.498047
s 1
usemtl MASTER_Concrete_Smooth
f 1/1/1 2/2/2 3/3/3
f 2/2/2 4/4/4 3/3/3
f 4/4/4 5/5/5 3/3/3
f 5/5/5 6/6/6 3/3/3
f 6/6/6 5/5/5 7/7/7
f 5/5/5 8/8/8 7/7/7
f 7/7/7 8/8/8 9/9/9
f 10/10/10 7/7/7 9/9/9
f 11/11/11 10/10/10 9/9/9
f 12/12/12 11/11/11 9/9/9
f 11/13/11 13/14/13 10/15/10
f 13/14/13 14/16/13 10/15/10
f 7/17/7 10/15/10 14/16/13
f 13/14/13 15/18/13 14/16/13
f 7/17/7 14/16/13 6/19/6
f 15/18/13 16/20/13 14/16/13
f 14/16/13 16/20/13 6/19/6
f 16/20/13 15/18/13 1/21/1
f 3/22/3 6/19/6 16/20/13
f 3/22/3 16/20/13 1/21/1
f 2/23/2 17/24/14 4/25/4
f 17/24/14 18/26/15 4/25/4
f 18/26/15 5/27/5 4/25/4
f 5/27/5 18/26/15 8/28/8
f 18/26/15 17/24/14 19/29/15
f 18/26/15 19/29/15 8/28/8
f 17/24/14 20/30/15 19/29/15
f 19/29/15 9/31/9 8/28/8
f 19/29/15 20/30/15 12/32/12
f 9/31/9 19/29/15 12/32/12
