# Blender 3.6.18
# www.blender.org
mtllib Mesh.1004.mtl
o Bistro_Research_Exterior_Paris_Building_01_paris_buildi_0dbb29b
v 11.233116 13.937279 5.921190
v 11.233762 13.967013 5.919527
v 12.914175 13.937279 6.574500
v 12.914822 13.967013 6.572837
v 11.232716 13.982213 5.922221
v 12.913775 13.982213 6.575531
v 11.228408 13.994801 5.933306
v 12.909468 13.994801 6.586617
v 12.897976 14.004526 6.616183
v 11.216916 14.004528 5.962873
v 12.886486 13.998225 6.637054
v 11.205427 13.998225 5.983744
v 12.882178 13.984450 6.653604
v 11.201118 13.984452 6.000293
v 11.200072 13.967012 6.006218
v 12.881131 13.967012 6.659528
v 12.881130 13.937281 6.659529
v 11.200072 13.937282 6.006218
v 11.201639 13.934860 6.002183
v 12.882699 13.934861 6.655493
v 12.912555 13.934860 6.578670
v 11.231496 13.934861 5.925360
vn 0.3551 -0.0663 -0.9325
vn 0.3550 -0.0663 -0.9325
vn 0.3481 0.1838 -0.9192
vn 0.1081 0.9545 -0.2781
vn 0.1060 0.9545 -0.2789
vn 0.1081 0.9544 -0.2781
vn 0.1061 0.9545 -0.2789
vn -0.2323 0.7758 0.5867
vn -0.3488 0.3174 0.8818
vn -0.3488 0.3175 0.8818
vn -0.3653 -0.0039 0.9309
vn -0.3622 -0.0039 0.9321
vn -0.0039 -1.0000 -0.0039
vt 0.235840 0.369629
vt 0.235840 0.358887
vt 0.897461 0.369629
vt 0.897461 0.358887
vt 0.235840 0.353516
vt 0.897461 0.353516
vt 0.235840 0.348145
vt 0.897461 0.348145
vt 0.897461 0.341309
vt 0.235840 0.341309
vt 0.897461 0.335938
vt 0.235840 0.335938
vt 0.897461 0.330078
vt 0.235840 0.330078
vt 0.235840 0.323730
vt 0.897461 0.323730
vt 0.897461 0.312988
vt 0.235840 0.312988
vt 0.235840 0.312012
vt 0.897461 0.312012
vt 0.897461 0.295410
vt 0.235840 0.295410
vt 0.235840 0.294434
vt 0.897461 0.294434
s 1
usemtl MASTER_Wood_Polished
f 1/1/1 2/2/1 3/3/1
f 2/2/1 4/4/2 3/3/1
f 2/2/1 5/5/3 4/4/2
f 5/5/3 6/6/3 4/4/2
f 5/5/3 7/7/4 6/6/3
f 7/7/4 8/8/5 6/6/3
f 9/9/6 8/8/5 7/7/4
f 10/10/7 9/9/6 7/7/4
f 11/11/8 9/9/6 10/10/7
f 12/12/8 11/11/8 10/10/7
f 13/13/9 11/11/8 12/12/8
f 14/14/10 13/13/9 12/12/8
f 13/13/9 14/14/10 15/15/11
f 16/16/11 13/13/9 15/15/11
f 17/17/12 16/16/11 15/15/11
f 18/18/11 17/17/12 15/15/11
f 18/18/11 19/19/13 17/17/12
f 19/19/13 20/20/13 17/17/12
f 21/21/13 20/20/13 19/19/13
f 22/22/13 21/21/13 19/19/13
f 21/21/13 22/22/13 1/23/1
f 3/24/1 21/21/13 1/23/1
