# Blender 3.6.18
# www.blender.org
mtllib Mesh.127.mtl
o Bistro_Research_Exterior_Paris_StreetLight_Glass_01B___3__6355
v -39.288872 6.598696 -18.671549
v -39.183559 6.598696 -18.724785
v -39.218979 6.015253 -18.764374
v -39.299747 6.015253 -18.723543
v -39.406689 6.598696 -18.678101
v -39.390110 6.015253 -18.728569
v -39.505447 6.598696 -18.742687
v -39.465858 6.015253 -18.778105
v -39.558681 6.598696 -18.847998
v -39.506687 6.015253 -18.858875
v -39.552128 6.598696 -18.965816
v -39.501663 6.015253 -18.949238
v -39.487545 6.598696 -19.064571
v -39.452122 6.015253 -19.024981
v -39.382233 6.598696 -19.117807
v -39.371357 6.015253 -19.065809
v -39.264416 6.598696 -19.111256
v -39.280991 6.015253 -19.060785
v -39.165653 6.598696 -19.046669
v -39.205250 6.015253 -19.011251
v -39.112423 6.598696 -18.941359
v -39.164421 6.015253 -18.930479
v -39.118973 6.598696 -18.823538
v -39.169449 6.015253 -18.840118
v -39.246498 6.015253 -18.718502
v -39.205391 6.015253 -18.749187
v -39.165848 6.598696 -18.704983
v -39.219440 6.598696 -18.664976
v -39.283432 6.598696 -18.645546
v -39.295582 6.015253 -18.703600
v -39.346516 6.015253 -18.697577
v -39.349846 6.598696 -18.637693
v -39.414978 6.598696 -18.652864
v -39.396473 6.015253 -18.709211
v -39.443600 6.015253 -18.729465
v -39.476425 6.598696 -18.679270
v -39.525249 6.598696 -18.724974
v -39.481045 6.015253 -18.764521
v -39.511730 6.015253 -18.805622
v -39.565254 6.598696 -18.778564
v -39.584686 6.598696 -18.842558
v -39.526627 6.015253 -18.854704
v -39.532650 6.015253 -18.905642
v -39.592537 6.598696 -18.908972
v -39.577366 6.598696 -18.974106
v -39.521019 6.015253 -18.955595
v -39.500763 6.015253 -19.002722
v -39.550964 6.598696 -19.035547
v -39.505257 6.598696 -19.084372
v -39.465710 6.015253 -19.040167
v -39.424606 6.015253 -19.070852
v -39.451668 6.598696 -19.124380
v -39.387672 6.598696 -19.143810
v -39.375530 6.015253 -19.085754
v -39.324589 6.015253 -19.091776
v -39.321259 6.598696 -19.151661
v -39.256123 6.598696 -19.136494
v -39.274635 6.015253 -19.080143
v -39.227509 6.015253 -19.059887
v -39.194683 6.598696 -19.110085
v -39.145863 6.598696 -19.064381
v -39.190063 6.015253 -19.024836
v -39.159382 6.015253 -18.983734
v -39.105854 6.598696 -19.010790
v -39.086418 6.598696 -18.946798
v -39.144474 6.015253 -18.934650
v -39.138451 6.015253 -18.883715
v -39.078568 6.598696 -18.880384
v -39.093735 6.598696 -18.815248
v -39.150089 6.015253 -18.833757
v -39.170341 6.015253 -18.786634
v -39.120148 6.598696 -18.753805
vn -0.2073 0.0900 -0.9741
vn -0.6644 0.0894 -0.7421
vn -0.6644 0.0893 -0.7421
vn 0.3079 0.0897 -0.9472
vn 0.7386 0.0899 -0.6682
vn 0.7385 0.0899 -0.6682
vn 0.9737 0.0907 -0.2089
vn 0.9737 0.0907 -0.2090
vn 0.9464 0.0903 0.3102
vn 0.6638 0.0903 0.7424
vn 0.6639 0.0904 0.7424
vn 0.2014 0.0908 0.9753
vn -0.3173 0.0901 0.9440
vn -0.7459 0.0898 0.6600
vn -0.9757 0.0901 0.1998
vn -0.9449 0.0894 -0.3150
vn 0.4462 -0.1066 0.8885
vn 0.6628 -0.1059 0.7413
vn 0.2011 -0.1064 0.9738
vn -0.0588 -0.1059 0.9926
vn -0.3168 -0.1056 0.9426
vn -0.5470 -0.1062 0.8304
vn -0.5470 -0.1063 0.8304
vn -0.7448 -0.1053 0.6590
vn -0.8902 -0.1059 0.4431
vn -0.9742 -0.1056 0.1995
vn -0.9927 -0.1051 -0.0584
vn -0.9435 -0.1048 -0.3145
vn -0.8328 -0.1055 -0.5435
vn -0.8328 -0.1056 -0.5435
vn -0.6634 -0.1047 -0.7409
vn -0.4494 -0.1055 -0.8871
vn -0.2070 -0.1055 -0.9726
vn 0.0506 -0.1052 -0.9932
vn 0.3075 -0.1051 -0.9457
vn 0.5379 -0.1060 -0.8363
vn 0.7374 -0.1053 -0.6672
vn 0.8854 -0.1062 -0.4525
vn 0.9722 -0.1063 -0.2086
vn 0.9931 -0.1060 0.0510
vn 0.9449 -0.1059 0.3097
vn 0.8339 -0.1067 0.5414
vn 0.8339 -0.1067 0.5415
vt 0.092773 0.097168
vt 0.016220 0.097168
vt 0.016220 0.904419
vt 0.092773 0.904419
vt 0.172852 0.097168
vt 0.172852 0.904419
vt 0.252930 0.097168
vt 0.252930 0.904419
vt 0.333008 0.097168
vt 0.333008 0.904419
vt 0.413086 0.097168
vt 0.413086 0.904419
vt 0.493164 0.097168
vt 0.493164 0.904419
vt 0.573242 0.097168
vt 0.573242 0.904419
vt 0.653320 0.097168
vt 0.653320 0.904419
vt 0.733398 0.097168
vt 0.733398 0.904419
vt 0.813477 0.097168
vt 0.813477 0.904419
vt 0.893555 0.097168
vt 0.893555 0.904419
vt 0.984375 0.097168
vt 0.984375 0.904419
vt 0.054504 0.904419
vt 0.054504 0.097168
vt 0.132812 0.904419
vt 0.132812 0.097168
vt 0.212891 0.904419
vt 0.212891 0.097168
vt 0.292969 0.904419
vt 0.292969 0.097168
vt 0.373047 0.904419
vt 0.373047 0.097168
vt 0.453125 0.904419
vt 0.453125 0.097168
vt 0.533203 0.904419
vt 0.533203 0.097168
vt 0.613281 0.904419
vt 0.613281 0.097168
vt 0.693359 0.904419
vt 0.693359 0.097168
vt 0.773438 0.904419
vt 0.773438 0.097168
vt 0.853516 0.904419
vt 0.853516 0.097168
vt 0.938965 0.904419
vt 0.938965 0.097168
s 1
usemtl Emissive_StreetLight
f 1/1/1 2/2/2 3/3/3
f 3/3/3 4/4/1 1/1/1
f 5/5/4 1/1/1 4/4/1
f 4/4/1 6/6/4 5/5/4
f 7/7/5 5/5/4 6/6/4
f 6/6/4 8/8/6 7/7/5
f 9/9/7 7/7/5 8/8/6
f 8/8/6 10/10/8 9/9/7
f 11/11/9 9/9/7 10/10/8
f 10/10/8 12/12/9 11/11/9
f 13/13/10 11/11/9 12/12/9
f 12/12/9 14/14/11 13/13/10
f 15/15/12 13/13/10 14/14/11
f 14/14/11 16/16/12 15/15/12
f 17/17/13 15/15/12 16/16/12
f 16/16/12 18/18/13 17/17/13
f 19/19/14 17/17/13 18/18/13
f 18/18/13 20/20/14 19/19/14
f 21/21/15 19/19/14 20/20/14
f 20/20/14 22/22/15 21/21/15
f 23/23/16 21/21/15 22/22/15
f 22/22/15 24/24/16 23/23/16
f 2/25/2 23/23/16 24/24/16
f 24/24/16 3/26/3 2/25/2
f 25/27/17 26/3/18 27/2/18
f 27/2/18 28/28/17 25/27/17
f 25/27/17 28/28/17 29/1/19
f 29/1/19 30/4/19 25/27/17
f 31/29/20 30/4/19 29/1/19
f 29/1/19 32/30/20 31/29/20
f 31/29/20 32/30/20 33/5/21
f 33/5/21 34/6/21 31/29/20
f 35/31/22 34/6/21 33/5/21
f 33/5/21 36/32/23 35/31/22
f 35/31/22 36/32/23 37/7/24
f 37/7/24 38/8/24 35/31/22
f 39/33/25 38/8/24 37/7/24
f 37/7/24 40/34/25 39/33/25
f 39/33/25 40/34/25 41/9/26
f 41/9/26 42/10/26 39/33/25
f 43/35/27 42/10/26 41/9/26
f 41/9/26 44/36/27 43/35/27
f 43/35/27 44/36/27 45/11/28
f 45/11/28 46/12/28 43/35/27
f 47/37/29 46/12/28 45/11/28
f 45/11/28 48/38/30 47/37/29
f 47/37/29 48/38/30 49/13/31
f 49/13/31 50/14/31 47/37/29
f 51/39/32 50/14/31 49/13/31
f 49/13/31 52/40/32 51/39/32
f 51/39/32 52/40/32 53/15/33
f 53/15/33 54/16/33 51/39/32
f 55/41/34 54/16/33 53/15/33
f 53/15/33 56/42/34 55/41/34
f 55/41/34 56/42/34 57/17/35
f 57/17/35 58/18/35 55/41/34
f 59/43/36 58/18/35 57/17/35
f 57/17/35 60/44/36 59/43/36
f 59/43/36 60/44/36 61/19/37
f 61/19/37 62/20/37 59/43/36
f 63/45/38 62/20/37 61/19/37
f 61/19/37 64/46/38 63/45/38
f 63/45/38 64/46/38 65/21/39
f 65/21/39 66/22/39 63/45/38
f 67/47/40 66/22/39 65/21/39
f 65/21/39 68/48/40 67/47/40
f 67/47/40 68/48/40 69/23/41
f 69/23/41 70/24/41 67/47/40
f 71/49/42 70/24/41 69/23/41
f 69/23/41 72/50/43 71/49/42
f 71/49/42 72/50/43 27/25/18
f 27/25/18 26/26/18 71/49/42
