# Blender 3.6.18
# www.blender.org
mtllib Mesh.896.mtl
o Bistro_Research_Exterior_Paris_Building_01_paris_buildi_23dae20
v 3.897135 0.762317 -17.121975
v 2.022506 0.762322 -13.644364
v 3.992332 0.762316 -17.070660
v 2.117704 0.762321 -13.593045
v 1.721029 0.762322 -13.085103
v -0.139856 0.762328 -9.633011
v 1.816226 0.762322 -13.033785
v -0.044659 0.762327 -9.581693
v 3.815115 0.707482 -17.166189
v 1.940487 0.707487 -13.688578
v 3.882595 0.757412 -17.129816
v 2.007965 0.757416 -13.652201
v 1.639010 0.707487 -13.129316
v -0.221875 0.707493 -9.677225
v 1.706488 0.757417 -13.092940
v -0.154397 0.757422 -9.640849
v 3.808486 0.651725 -17.169762
v 1.933857 0.651730 -13.692148
v 3.808486 0.693589 -17.169762
v 1.933857 0.693593 -13.692148
v 1.632380 0.651730 -13.132890
v -0.228505 0.651736 -9.680799
v 1.632380 0.693594 -13.132890
v -0.228505 0.693599 -9.680799
v 3.989963 0.642737 -17.071934
v 2.115335 0.642742 -13.594323
v 3.816396 0.642737 -17.165497
v 1.941769 0.642742 -13.687885
v 1.813857 0.642743 -13.035062
v -0.047028 0.642748 -9.582971
v 1.640292 0.642743 -13.128624
v -0.220593 0.642748 -9.676533
v -1.809846 0.762336 -3.262084
v -1.856072 0.762335 -3.359855
v -2.356691 0.762335 -3.123167
v -2.405068 0.762336 -2.980668
v -2.364913 0.753352 -3.119056
v -2.423108 0.756248 -2.957031
v -2.413867 0.757431 -2.958236
v -1.802786 0.757430 -3.247150
v -1.770020 0.707501 -3.177848
v -2.450553 0.707501 -2.856097
v -2.461729 0.696838 -2.849505
v -2.456642 0.693608 -2.844888
v -1.766801 0.693607 -3.171039
v -1.766801 0.651744 -3.171039
v -2.456642 0.651744 -2.844888
v -2.462533 0.648845 -2.847268
v -2.448963 0.642756 -2.858460
v -1.770642 0.642756 -3.179164
v -1.854922 0.642755 -3.357422
v -2.357978 0.642756 -3.119581
v -2.366007 0.651740 -3.116009
v 14.313073 0.762335 7.453605
v 14.352304 0.762334 7.352820
v -0.026451 0.762334 1.755890
v -0.104901 0.762335 1.841406
v -0.034974 0.753349 1.752789
v -0.124369 0.755401 1.849180
v -0.117162 0.757430 1.854358
v 14.307081 0.757430 7.469000
v 14.279274 0.707500 7.540433
v -0.173217 0.707500 1.914801
v -0.181435 0.697530 1.910714
v -0.179172 0.693607 1.920564
v 14.276542 0.693607 7.547453
v 14.276542 0.651743 7.547453
v -0.179172 0.651743 1.920564
v -0.183658 0.649689 1.913111
v -0.171969 0.642755 1.913723
v 14.279801 0.642755 7.539078
v 14.351328 0.642755 7.355330
v -0.028419 0.642755 1.758012
v -0.036647 0.651740 1.754592
v -0.342057 0.642748 -9.035669
v -2.905652 0.642755 -4.280292
v -0.515620 0.642749 -9.129237
v -3.125875 0.642755 -4.287305
v -2.909690 0.651740 -4.272374
v -3.134859 0.649573 -4.278561
v -3.136448 0.651743 -4.286633
v -0.523531 0.651736 -9.133502
v -0.523531 0.693600 -9.133502
v -3.136448 0.693607 -4.286633
v -3.131728 0.697425 -4.278475
v -3.127651 0.707500 -4.287078
v -0.516902 0.707493 -9.129929
v -0.449425 0.757423 -9.093553
v -3.041836 0.757430 -4.284721
v -3.043889 0.755517 -4.276062
v -3.023197 0.762335 -4.284484
v -0.434885 0.762328 -9.085712
v -0.339688 0.762328 -9.034393
v -2.902639 0.762334 -4.280209
v -2.907130 0.753350 -4.272305
v -0.318548 0.642753 0.317196
v -0.643001 0.642754 0.467681
v -0.401513 0.642753 0.138322
v -0.903587 0.642754 0.371192
v -0.650883 0.651737 0.471561
v -0.920988 0.648826 0.374489
v -0.919070 0.651742 0.368466
v -0.405295 0.651741 0.130169
v -0.405295 0.693605 0.130169
v -0.919070 0.693605 0.368466
v -0.918766 0.696823 0.375287
v -0.906448 0.707499 0.370913
v -0.402126 0.707498 0.137001
v -0.369872 0.757428 0.206542
v -0.803797 0.757428 0.407804
v -0.810640 0.756262 0.414146
v -0.780767 0.762334 0.415331
v -0.362921 0.762333 0.221528
v -0.317416 0.762333 0.319637
v -0.639396 0.762333 0.468976
v -0.647821 0.753350 0.472660
v -0.647273 0.642754 0.479570
v -0.909666 0.642754 0.388109
v -0.040675 0.642755 1.746645
v -0.923344 0.651742 0.380354
v -0.185148 0.642755 1.901500
v -0.191428 0.651743 1.909197
v -0.191427 0.693607 1.909197
v -0.923344 0.693605 0.380354
v -0.186128 0.707500 1.902827
v -0.912051 0.707499 0.386502
v -0.130076 0.757429 1.842384
v -0.809400 0.757428 0.423393
v -0.118081 0.762335 1.829183
v -0.038708 0.762334 1.744523
v -0.643668 0.762333 0.480865
v -0.786846 0.762334 0.432248
v -2.368640 0.762336 -3.127459
v -2.421986 0.762337 -2.986744
v -2.903080 0.762335 -4.264164
v -2.429471 0.757432 -2.963840
v -3.023690 0.762335 -4.266516
v -3.042314 0.757430 -4.267303
v -3.128131 0.707500 -4.269660
v -2.466157 0.707502 -2.861702
v -3.136889 0.693607 -4.270588
v -2.468592 0.693609 -2.849180
v -3.136889 0.651743 -4.270587
v -2.468592 0.651745 -2.849180
v -3.126369 0.642756 -4.269336
v -2.906093 0.642756 -4.264247
v -2.369928 0.642757 -3.123873
v -2.465880 0.642757 -2.864537
vn -0.0039 1.0000 -0.0039
vn -0.4825 0.8355 -0.2628
vn -0.8807 -0.0039 -0.4736
vn -0.8807 -0.0040 -0.4736
vn -0.0039 -1.0000 -0.0039
vn -0.2559 0.9568 -0.1378
vn -0.2560 0.9568 -0.1378
vn -0.7764 0.4721 -0.4175
vn -0.6207 -0.7066 -0.3396
vn -0.6208 -0.7066 -0.3396
vn -0.6207 -0.7066 -0.3397
vn -0.0022 1.0000 -0.0047
vn -0.6626 0.7097 -0.2392
vn -0.6627 0.7097 -0.2392
vn 0.2324 0.8389 0.4923
vn 0.2324 0.8388 0.4923
vn 0.2327 0.8389 0.4921
vn -0.3887 0.8676 0.3101
vn 0.4233 -0.0039 0.9060
vn 0.4274 -0.0039 0.9040
vn 0.4234 -0.0040 0.9060
vn -0.6590 -0.7136 -0.2378
vn -0.6590 -0.7136 -0.2379
vn -0.4972 0.7320 -0.4658
vn -0.4971 0.7320 -0.4658
vn -0.2007 0.8380 0.5075
vn -0.2006 0.8380 0.5075
vn -0.1979 0.8380 0.5085
vn -0.2007 0.8379 0.5075
vn -0.6480 0.7580 0.0746
vn -0.3653 -0.0039 0.9309
vn -0.3627 -0.0039 0.9319
vn -0.4943 -0.7356 -0.4632
vn -0.0047 -1.0000 -0.0025
vn -0.0196 -0.7339 0.6790
vn -0.8775 -0.0039 -0.4796
vn -0.8774 -0.0039 -0.4797
vn -0.5064 0.7812 0.3651
vn -0.0197 0.7303 0.6829
vn -0.0197 0.7302 0.6829
vn -0.0022 -1.0000 -0.0047
vn -0.2391 -0.7172 0.6545
vn -0.4238 -0.0039 -0.9058
vn -0.4237 -0.0039 -0.9058
vn -0.4208 -0.0039 -0.9072
vn -0.4903 0.8669 0.0902
vn -0.2314 0.8356 -0.4982
vn -0.2315 0.8356 -0.4982
vn -0.2312 0.8356 -0.4984
vn -0.2404 0.7134 0.6582
vn 0.2305 -0.7149 -0.6602
vn -0.9044 -0.0039 0.4268
vn -0.3172 0.8655 -0.3877
vn -0.0040 -1.0000 -0.0039
vn 0.4979 -0.7409 0.4508
vn 0.4978 -0.7409 0.4508
vn -0.9044 -0.0039 0.4267
vn -0.0356 0.7635 0.6448
vn -0.4983 0.8356 0.2314
vn -0.4982 0.8356 0.2314
vn 0.2318 0.7110 -0.6639
vn 0.5007 0.7373 0.4535
vn 0.5007 0.7373 0.4534
vn 0.6594 0.7147 0.2330
vn 0.0864 0.8712 0.4833
vn 0.0196 0.7263 -0.6871
vn -0.4982 0.8356 0.2315
vn -0.4827 0.7810 -0.3963
vn -0.9074 -0.0040 0.4203
vn -0.9074 -0.0039 0.4203
vn 0.6557 -0.7186 0.2317
vn 0.0195 -0.7300 -0.6832
vn -0.0039 -1.0000 -0.0040
vt -0.660645 0.655762
vt -1.915039 0.655762
vt -0.660645 0.621338
vt -1.915039 0.621338
vt 1.723633 1.181885
vt 0.479004 1.181763
vt 1.723633 1.147583
vt 0.479004 1.147461
vt -0.660645 0.690186
vt -1.915039 0.690186
vt -0.660645 0.661133
vt -1.915039 0.661133
vt 1.723633 1.216309
vt 0.479004 1.216309
vt 1.723633 1.187378
vt 0.479004 1.187256
vt -0.660645 0.708496
vt -1.915039 0.708496
vt -0.660645 0.695068
vt -1.915039 0.695068
vt 1.723633 1.234619
vt 0.479004 1.234619
vt 1.723633 1.221313
vt 0.479004 1.221313
vt -0.660645 0.774902
vt -1.915039 0.775024
vt -0.660645 0.712402
vt -1.915039 0.712402
vt 1.723633 1.301025
vt 0.479004 1.301270
vt 1.723633 1.238647
vt 0.479004 1.238647
vt 2.576172 1.273682
vt 2.576172 1.307861
vt 2.400391 1.307373
vt 2.367188 1.272705
vt 2.396484 1.308105
vt 2.359375 1.268311
vt 2.361328 1.267334
vt 2.576172 1.268066
vt 2.576172 1.239136
vt 2.337891 1.238281
vt 2.332031 1.235840
vt 2.333984 1.233276
vt 2.576172 1.234131
vt 2.576172 1.220825
vt 2.333984 1.219971
vt 2.332031 1.218262
vt 2.337891 1.215942
vt 2.576172 1.216797
vt 2.576172 1.154175
vt 2.400391 1.153564
vt 2.396484 1.152466
vt -1.970703 0.961914
vt -1.970703 0.927429
vt 2.947266 0.928467
vt 2.960938 0.962891
vt 2.951172 0.928162
vt 2.966797 0.967621
vt 2.962891 0.968109
vt -1.970703 0.967407
vt -1.970703 0.996557
vt 2.972656 0.996916
vt 2.976562 0.999191
vt 2.974609 1.001419
vt -1.970703 1.001422
vt -1.970703 1.014595
vt 2.974609 1.014244
vt 2.976562 1.015701
vt 2.972656 1.017685
vt -1.970703 1.018646
vt -1.970703 1.081482
vt 2.949219 1.080322
vt 2.953125 1.080688
vt -0.220459 1.309814
vt -1.934570 1.309814
vt -0.220459 1.247314
vt -1.965820 1.247314
vt -1.938477 1.310547
vt -1.969727 1.244873
vt -1.967773 1.243286
vt -0.220459 1.243286
vt -0.220459 1.229980
vt -1.967773 1.229980
vt -1.969727 1.227173
vt -1.965820 1.224976
vt -0.220337 1.224976
vt -0.220337 1.196045
vt -1.954102 1.195923
vt -1.957031 1.195312
vt -1.951172 1.190430
vt -0.220337 1.190552
vt -0.220337 1.156250
vt -1.934570 1.156128
vt -1.938477 1.155640
vt 2.826172 1.310303
vt 2.710938 1.309814
vt 2.826172 1.247559
vt 2.650391 1.246826
vt 2.707031 1.310791
vt 2.644531 1.244995
vt 2.644531 1.243408
vt 2.826172 1.243408
vt 2.826172 1.229858
vt 2.644531 1.230591
vt 2.644531 1.228638
vt 2.648438 1.226196
vt 2.826172 1.224731
vt 2.826172 1.195557
vt 2.673828 1.197021
vt 2.669922 1.196289
vt 2.679688 1.191772
vt 2.826172 1.190063
vt 2.826172 1.155518
vt 2.712891 1.156982
vt 2.708984 1.156128
vt -0.122681 1.224121
vt -0.058044 1.157959
vt -0.054230 1.158936
vt -0.116821 1.221802
vt 0.394043 1.160034
vt -0.120911 1.225830
vt -0.122559 1.241699
vt 0.418457 1.222778
vt 0.397949 1.159668
vt 0.422363 1.224854
vt 0.419922 1.226318
vt 0.419922 1.239136
vt 0.422607 1.241333
vt -0.120850 1.239136
vt 0.418945 1.243652
vt -0.117493 1.244019
vt -0.095520 1.273926
vt 0.409424 1.272461
vt 0.412354 1.272949
vt -0.092651 1.273193
vt 0.406982 1.277588
vt 0.397705 1.312500
vt 0.393799 1.312012
vt -0.053253 1.312988
vt -0.086975 1.278564
vt -0.057190 1.313965
vt 2.281250 1.273682
vt 2.242188 1.313477
vt 2.238281 1.312500
vt 2.271484 1.278076
vt 1.836914 1.312500
vt 2.277344 1.272705
vt 2.308594 1.241333
vt 1.820312 1.278076
vt 1.833008 1.312988
vt 1.814453 1.273193
vt 1.817383 1.272705
vt 1.804688 1.243774
vt 1.800781 1.241577
vt 2.302734 1.243774
vt 1.803711 1.239380
vt 2.306641 1.239380
vt 2.308594 1.224854
vt 1.803711 1.226562
vt 1.800781 1.224976
vt 2.306641 1.226440
vt 1.804688 1.223022
vt 1.832031 1.159546
vt 1.836914 1.160034
vt 2.240234 1.159912
vt 2.302734 1.223022
vt 2.244141 1.158936
s 1
usemtl MASTER_Wood_Painted3
f 1/1/1 2/2/1 3/3/1
f 2/2/1 4/4/1 3/3/1
f 5/5/1 6/6/1 7/7/1
f 6/6/1 8/8/1 7/7/1
f 9/9/2 10/10/2 11/11/2
f 10/10/2 12/12/2 11/11/2
f 13/13/2 14/14/2 15/15/2
f 14/14/2 16/16/2 15/15/2
f 17/17/3 18/18/3 19/19/3
f 18/18/3 20/20/4 19/19/3
f 21/21/3 22/22/3 23/23/3
f 22/22/3 24/24/3 23/23/3
f 25/25/5 26/26/5 27/27/5
f 26/26/5 28/28/5 27/27/5
f 29/29/5 30/30/5 31/31/5
f 30/30/5 32/32/5 31/31/5
f 1/1/6 11/11/6 2/2/6
f 11/11/6 12/12/6 2/2/6
f 5/5/6 15/15/6 6/6/6
f 15/15/7 16/16/7 6/6/7
f 9/9/8 19/19/8 10/10/8
f 19/19/8 20/20/8 10/10/8
f 13/13/8 23/23/8 14/14/8
f 23/23/8 24/24/8 14/14/8
f 17/17/9 27/27/9 18/18/9
f 27/27/10 28/28/9 18/18/9
f 21/21/11 31/31/11 22/22/11
f 31/31/9 32/32/9 22/22/9
f 33/33/12 34/34/1 35/35/1
f 36/36/1 33/33/12 35/35/1
f 35/35/1 37/37/13 36/36/1
f 37/37/13 38/38/14 36/36/1
f 36/36/1 39/39/15 33/33/12
f 38/38/14 39/39/15 36/36/1
f 39/39/15 40/40/16 33/33/12
f 41/41/17 40/40/16 39/39/15
f 39/39/15 38/38/14 42/42/16
f 42/42/16 41/41/17 39/39/15
f 38/38/14 43/43/18 42/42/16
f 42/42/16 44/44/19 41/41/17
f 43/43/18 44/44/19 42/42/16
f 44/44/19 45/45/19 41/41/17
f 46/46/20 45/45/19 44/44/19
f 44/44/19 43/43/18 47/47/21
f 47/47/21 46/46/20 44/44/19
f 43/43/18 48/48/22 47/47/21
f 47/47/21 49/49/5 46/46/20
f 48/48/22 49/49/5 47/47/21
f 49/49/5 50/50/5 46/46/20
f 51/51/5 50/50/5 49/49/5
f 52/52/5 51/51/5 49/49/5
f 49/49/5 48/48/22 52/52/5
f 48/48/22 53/53/23 52/52/5
f 54/54/1 55/55/1 56/56/1
f 57/57/1 54/54/1 56/56/1
f 56/56/1 58/58/24 57/57/1
f 58/58/25 59/59/24 57/57/1
f 57/57/1 60/60/26 54/54/1
f 59/59/24 60/60/26 57/57/1
f 60/60/26 61/61/27 54/54/1
f 62/62/28 61/61/27 60/60/26
f 60/60/26 59/59/24 63/63/29
f 63/63/29 62/62/28 60/60/26
f 59/59/24 64/64/30 63/63/29
f 63/63/29 65/65/31 62/62/28
f 64/64/30 65/65/31 63/63/29
f 65/65/31 66/66/31 62/62/28
f 67/67/32 66/66/31 65/65/31
f 65/65/31 64/64/30 68/68/31
f 68/68/31 67/67/32 65/65/31
f 64/64/30 69/69/33 68/68/31
f 68/68/31 70/70/5 67/67/32
f 69/69/33 70/70/5 68/68/31
f 70/70/5 71/71/5 67/67/32
f 72/72/5 71/71/5 70/70/5
f 73/73/5 72/72/5 70/70/5
f 70/70/5 69/69/33 73/73/5
f 69/69/33 74/74/33 73/73/5
f 75/75/5 76/76/5 77/77/34
f 76/76/5 78/78/5 77/77/34
f 76/76/5 79/79/35 78/78/5
f 79/79/35 80/80/35 78/78/5
f 77/77/34 78/78/5 81/81/36
f 80/80/35 81/81/36 78/78/5
f 82/82/37 77/77/34 81/81/36
f 82/82/37 81/81/36 83/83/37
f 81/81/36 80/80/35 84/84/37
f 81/81/36 84/84/37 83/83/37
f 80/80/35 85/85/38 84/84/37
f 83/83/37 84/84/37 86/86/2
f 86/86/2 84/84/37 85/85/38
f 87/87/2 83/83/37 86/86/2
f 87/87/2 86/86/2 88/88/2
f 86/86/2 85/85/38 89/89/2
f 86/86/2 89/89/2 88/88/2
f 85/85/38 90/90/39 89/89/2
f 88/88/2 89/89/2 91/91/1
f 91/91/1 89/89/2 90/90/39
f 92/92/1 88/88/2 91/91/1
f 92/92/1 91/91/1 93/93/1
f 91/91/1 94/94/1 93/93/1
f 91/91/1 90/90/39 94/94/1
f 90/90/39 95/95/40 94/94/1
f 96/96/5 97/97/5 98/98/41
f 97/97/5 99/99/5 98/98/41
f 97/97/5 100/100/42 99/99/5
f 100/100/42 101/101/42 99/99/5
f 98/98/41 99/99/5 102/102/43
f 99/99/5 101/101/42 102/102/43
f 103/103/44 98/98/41 102/102/43
f 103/103/44 102/102/43 104/104/45
f 102/102/43 101/101/42 105/105/44
f 102/102/43 105/105/44 104/104/45
f 101/101/42 106/106/46 105/105/44
f 104/104/45 105/105/44 107/107/47
f 105/105/44 106/106/46 107/107/47
f 108/108/48 104/104/45 107/107/47
f 108/108/48 107/107/47 109/109/49
f 107/107/47 106/106/46 110/110/47
f 107/107/47 110/110/47 109/109/49
f 106/106/46 111/111/50 110/110/47
f 109/109/49 110/110/47 112/112/1
f 110/110/47 111/111/50 112/112/1
f 113/113/1 109/109/49 112/112/1
f 113/113/1 112/112/1 114/114/1
f 112/112/1 115/115/1 114/114/1
f 112/112/1 111/111/50 115/115/1
f 111/111/50 116/116/50 115/115/1
f 101/117/51 100/118/51 117/119/5
f 118/120/5 101/117/51 117/119/5
f 117/119/5 119/121/5 118/120/5
f 101/117/51 118/120/5 120/122/52
f 106/123/53 101/117/51 120/122/52
f 119/121/5 121/124/54 118/120/5
f 119/121/5 74/125/55 121/124/54
f 74/125/56 69/126/56 121/124/54
f 118/120/5 121/124/54 122/127/52
f 121/124/54 69/126/56 122/127/52
f 120/122/52 118/120/5 122/127/52
f 122/127/52 69/126/56 123/128/57
f 69/126/56 64/129/58 123/128/57
f 120/122/52 122/127/52 124/130/52
f 122/127/52 123/128/57 124/130/52
f 124/130/52 106/123/53 120/122/52
f 123/128/57 64/129/58 125/131/59
f 124/130/52 123/128/57 125/131/59
f 106/123/53 124/130/52 126/132/60
f 126/132/60 124/130/52 125/131/59
f 111/133/61 106/123/53 126/132/60
f 125/131/59 64/129/58 127/134/60
f 64/129/58 59/135/62 127/134/60
f 126/132/60 125/131/59 128/136/60
f 125/131/59 127/134/60 128/136/60
f 128/136/60 111/133/61 126/132/60
f 127/134/60 59/135/62 129/137/1
f 128/136/60 127/134/60 129/137/1
f 59/135/62 58/138/63 130/139/1
f 129/137/1 59/135/62 130/139/1
f 129/137/1 130/139/1 131/140/1
f 111/133/61 128/136/60 132/141/1
f 132/141/1 128/136/60 129/137/1
f 132/141/1 129/137/1 131/140/1
f 116/142/61 111/133/61 132/141/1
f 131/140/1 116/142/61 132/141/1
f 38/143/64 37/144/64 133/145/1
f 134/146/1 38/143/64 133/145/1
f 134/146/1 133/145/1 135/147/1
f 134/146/1 136/148/60 38/143/64
f 43/149/65 38/143/64 136/148/60
f 137/150/1 134/146/1 135/147/1
f 135/147/1 95/151/66 137/150/1
f 95/151/66 90/152/66 137/150/1
f 137/150/1 138/153/67 134/146/1
f 90/152/66 138/153/67 137/150/1
f 138/153/67 136/148/60 134/146/1
f 138/153/67 90/152/66 139/154/60
f 90/152/66 85/155/68 139/154/60
f 140/156/67 136/148/60 138/153/67
f 139/154/60 140/156/67 138/153/67
f 140/156/67 43/149/65 136/148/60
f 85/155/68 141/157/69 139/154/60
f 139/154/60 141/157/69 140/156/67
f 140/156/67 142/158/70 43/149/65
f 141/157/69 142/158/70 140/156/67
f 48/159/71 43/149/65 142/158/70
f 141/157/69 85/155/68 143/160/70
f 85/155/68 80/161/72 143/160/70
f 144/162/70 142/158/70 141/157/69
f 143/160/70 144/162/70 141/157/69
f 144/162/70 48/159/71 142/158/70
f 80/161/72 145/163/73 143/160/70
f 143/160/70 145/163/73 144/162/70
f 80/161/72 79/164/72 146/165/5
f 145/163/73 80/161/72 146/165/5
f 146/165/5 147/166/5 145/163/73
f 48/159/71 144/162/70 148/167/5
f 145/163/73 148/167/5 144/162/70
f 147/166/5 148/167/5 145/163/73
f 53/168/71 48/159/71 148/167/5
f 147/166/5 53/168/71 148/167/5
