# Blender 3.6.18
# www.blender.org
mtllib Mesh.1145.mtl
o Bistro_Research_Exterior_Paris_Building_01_paris_buildi_a43ea04
v 7.618074 8.027264 4.229894
v 7.618075 10.974442 4.229895
v 7.628883 8.027264 4.202660
v 7.628903 10.974442 4.202611
v 7.606251 8.027264 4.236446
v 7.617725 8.027265 4.229755
v 7.606255 10.974442 4.236448
v 7.617734 10.974442 4.229759
v 7.547625 8.027264 4.201934
v 7.547627 10.974442 4.201935
v 7.572845 8.027264 4.138386
v 7.572847 10.974442 4.138386
v 7.713282 8.027266 4.194292
v 7.713282 10.974443 4.194292
v 7.713286 10.974442 4.194299
v 7.713285 8.027266 4.194298
v 7.688184 10.974442 4.257714
v 7.688177 8.027265 4.257710
v 7.676743 10.974442 4.264308
v 7.676740 8.027264 4.264307
v 7.620266 10.974442 4.241894
v 7.620262 8.027264 4.241892
v 7.549778 10.974442 4.214034
v 7.549774 8.027264 4.214031
v 7.640089 8.027266 4.173263
v 7.640089 10.974442 4.173264
v 7.642506 8.027266 4.167156
v 7.642506 10.974443 4.167156
v 8.342568 7.946735 4.475303
v 8.318547 7.946741 4.535417
v 8.342568 11.054977 4.475303
v 8.319499 11.054981 4.533393
v 8.326244 7.946741 4.553349
v 8.327224 11.054981 4.551335
v 8.420012 11.054975 4.588361
v 8.419469 7.946734 4.590549
v 8.392220 10.936732 4.499841
v 8.373058 10.940812 4.548089
v 7.628415 10.936732 4.201525
v 7.609793 10.940771 4.248221
v 8.367970 10.955694 4.560903
v 7.604682 10.955676 4.261040
v 7.604569 11.054896 4.261327
v 8.367901 11.054979 4.561088
v 8.409624 10.202569 4.467920
v 8.391465 10.204779 4.517694
v 7.645814 10.202576 4.169602
v 7.628183 10.204768 4.217813
v 8.389023 10.211617 4.523758
v 7.625731 10.211612 4.223891
v 7.624423 10.254690 4.223328
v 8.387750 10.254731 4.523103
v 8.389980 10.261295 4.516899
v 7.626658 10.261209 4.217142
v 7.647301 10.260830 4.165445
v 8.411086 10.261292 4.463753
v 8.409160 9.435995 4.467730
v 8.387566 9.438198 4.515263
v 7.645338 9.436003 4.169406
v 7.624296 9.438187 4.215389
v 8.385168 9.445033 4.521443
v 7.621876 9.445027 4.221576
v 7.623913 9.488119 4.223022
v 8.387240 9.488162 4.522797
v 8.389980 9.494719 4.516899
v 7.626658 9.494633 4.217142
v 7.647301 9.494252 4.165445
v 8.411086 9.494717 4.463753
v 8.409073 8.669416 4.467690
v 8.386569 8.671623 4.515364
v 7.645249 8.669422 4.169365
v 7.623301 8.671613 4.215491
v 8.384210 8.678449 4.521497
v 7.620917 8.678444 4.221629
v 7.623787 8.721549 4.223030
v 8.387115 8.721591 4.522804
v 8.389980 8.728141 4.516899
v 7.626658 8.728055 4.217142
v 7.647301 8.727675 4.165445
v 8.411086 8.728139 4.463753
v 6.934458 11.054978 3.921055
v 6.912397 11.054980 3.976143
v 6.934458 7.946736 3.921053
v 6.911774 7.946740 3.978300
v 6.894448 11.054979 3.983841
v 6.893870 7.946740 3.986016
v 6.799942 7.946731 3.948537
v 6.801301 11.054973 3.946674
v 6.883170 8.063979 3.900624
v 6.864961 8.063979 3.946352
v 7.630050 8.063979 4.197417
v 7.609856 8.063979 4.247952
v 6.859591 8.050199 3.959874
v 7.604612 8.050183 4.261123
v 7.603691 7.947153 4.263774
v 6.857609 7.946807 3.965136
v 6.900441 10.260368 3.868659
v 6.880264 10.261121 3.918911
v 6.878022 10.254647 3.925077
v 6.879364 10.211608 3.925547
v 6.881827 10.204756 3.919458
v 6.898931 10.202582 3.872808
v 6.900441 9.493792 3.868659
v 6.880264 9.494544 3.918911
v 6.877512 9.488077 3.924771
v 6.875510 9.445023 3.923232
v 6.877953 9.438175 3.917039
v 6.898442 9.436009 3.872605
v 6.900441 8.727214 3.868659
v 6.880264 8.727967 3.918911
v 6.877386 8.721508 3.924778
v 6.874552 8.678440 3.923285
v 6.876959 8.671601 3.917143
v 6.898350 8.669430 3.872563
v 8.376257 7.946736 4.556726
v 8.352235 7.946741 4.616840
v 8.376257 11.054977 4.556726
v 8.353188 11.054981 4.614816
v 8.359933 7.946741 4.634772
v 8.360911 11.054981 4.632758
v 8.453699 11.054975 4.669784
v 8.453156 7.946734 4.671972
v 8.403565 10.991712 4.580054
v 8.384405 10.995790 4.628303
v 6.760703 10.991712 3.932863
v 6.742082 10.995749 3.979560
v 8.379316 11.010674 4.641117
v 6.736970 11.010655 3.992378
v 6.736857 11.109875 3.992666
v 8.379249 11.109959 4.641302
v 6.856004 11.054978 3.957972
v 6.833943 11.054980 4.013061
v 6.856004 7.946736 3.957970
v 6.833320 7.946741 4.015217
v 6.815994 11.054979 4.020758
v 6.815416 7.946740 4.022933
v 6.721488 7.946731 3.985454
v 6.722847 11.054973 3.983591
v 8.371675 8.063980 4.551075
v 8.393856 8.063980 4.495735
v 8.366560 8.050179 4.563892
v 8.366700 7.947499 4.563936
v 6.863456 10.940728 3.949877
v 6.881535 10.936732 3.904732
v 6.858321 10.955660 3.962701
v 6.858163 11.054812 3.963090
v 7.684560 10.991761 4.219753
v 7.684560 8.008774 4.219753
v 8.393856 10.991761 4.495735
v 8.393856 8.008774 4.495735
v 7.570889 8.022575 4.174487
v 7.570889 10.991761 4.174487
v 6.883172 10.991761 3.900626
v 6.883170 8.022575 3.900624
v 6.883170 8.008774 3.900624
v 7.570889 8.008774 4.174487
vn -0.9293 -0.0038 -0.3694
vn -0.9293 -0.0039 -0.3694
vn 0.5016 -0.0040 0.8651
vn 0.5017 -0.0040 0.8651
vn 0.7948 -0.0039 -0.6068
vn 0.9869 -0.0039 -0.1612
vn 0.9904 -0.0039 -0.1381
vn 0.9335 -0.0040 0.3585
vn 0.9336 -0.0000 0.3584
vn -0.3748 -0.0000 0.9271
vn -0.3748 -0.0040 0.9271
vn -0.3748 -0.0039 0.9271
vn -0.9843 -0.0039 0.1765
vn -0.3721 -0.0039 0.9282
vn -0.7774 -0.0039 0.6290
vn -0.3720 -0.0039 0.9282
vn -0.9859 -0.0039 0.1676
vn -0.9859 -0.0039 0.1675
vn 0.9309 -0.0039 0.3653
vn -0.9282 -0.0039 -0.3721
vn -0.9282 0.0003 -0.3721
vn -0.3748 0.0007 0.9271
vn -0.0352 -0.9972 0.0665
vn -0.0360 -0.9969 0.0698
vn -0.0351 -0.9970 0.0696
vn -0.3731 -0.0040 0.9278
vn -0.0196 -0.9992 0.0353
vn -0.0196 -0.9992 0.0352
vn -0.3779 -0.0040 0.9258
vn -0.0040 1.0000 -0.0040
vn -0.0039 1.0000 -0.0087
vn -0.0050 1.0000 -0.0082
vn -0.3747 -0.0197 0.9269
vn -0.0039 1.0000 -0.0040
vn -0.0040 1.0000 -0.0087
vn -0.0039 1.0000 -0.0039
vn -0.3748 -0.0119 0.9270
vn -0.3748 -0.0118 0.9270
vn -0.0040 1.0000 -0.0039
vn 0.9298 -0.0040 0.3680
vn 0.9298 -0.0039 0.3680
vn 0.9298 0.0003 0.3680
vn -0.3813 0.0354 0.9238
vn -0.0039 0.9999 -0.0119
vn -0.0040 0.9999 -0.0119
vn -0.0039 0.9999 -0.0118
vn -0.3747 -0.0118 0.9271
vn -0.9999 -0.0039 0.0118
vn -0.7032 -0.0039 0.7110
vn -0.7031 -0.0039 0.7110
vn -0.1600 -0.9015 0.4020
vn -0.3493 -0.3729 0.8596
vn 0.7150 -0.0039 0.6992
vn 0.7150 -0.0039 0.6991
vn 0.0119 -0.0040 0.9999
vn 0.0118 -0.0040 0.9999
vn -0.3815 0.0118 0.9243
vn -0.3720 0.0117 0.9281
vn -0.3720 0.0118 0.9281
vn -0.0352 -0.9966 0.0742
vn -0.0352 -0.9966 0.0743
vn -0.3653 -0.0039 0.9309
vt -0.000000 0.276855
vt 1.043945 0.276855
vt -0.000000 0.183594
vt -0.000000 0.170898
vt 1.043945 0.184570
vt 1.043945 0.170898
vt -0.000000 0.152832
vt 1.043945 0.152832
vt 1.043945 0.154297
vt -0.000000 0.154297
vt 1.043945 0.265137
vt -0.000000 0.266113
vt -0.000002 0.296875
vt -0.000000 0.280762
vt 1.053711 0.296875
vt 1.053711 0.280762
vt -0.000000 0.264648
vt 1.053711 0.264160
vt 1.053711 0.172852
vt -0.000000 0.172852
vt 0.653809 0.152832
vt 0.653809 0.168457
vt 0.326904 0.152832
vt 0.326904 0.168457
vt 0.653809 0.185547
vt 0.326904 0.185547
vt 0.326904 0.276855
vt 0.653809 0.276855
vt 0.653809 0.916382
vt 0.653809 0.933044
vt 0.326904 0.916443
vt 0.326904 0.932983
vt 0.653809 0.939514
vt 0.326904 0.939514
vt 0.326904 0.968719
vt 0.653809 0.968719
vt 0.653809 0.975098
vt 0.326904 0.975128
vt 0.326904 0.991951
vt 0.653809 0.991997
vt 0.653809 0.932983
vt 0.326904 0.932922
vt 1.053711 0.152832
vt 1.053711 0.168945
vt -0.000000 0.168945
vt 1.053711 0.185059
vt -0.000000 0.185059
vt 1.053711 0.276855
vt -0.000000 0.296875
vt -0.000000 0.281250
vt 0.352051 0.296875
vt 0.352051 0.281250
vt 0.352051 0.264648
vt 0.352051 0.172852
vt -0.000047 0.991905
vt -0.000047 0.975174
vt -0.000047 0.968719
vt -0.000047 0.939514
vt -0.000047 0.932922
vt -0.000047 0.916504
vt 0.704102 0.280762
vt 0.704102 0.296875
vt 0.704102 0.264648
vt 0.704102 0.172852
vt -0.000000 0.168457
vt -0.000000 0.185547
vt 1.045898 0.738037
vt -0.017853 0.738037
vt 1.045898 0.436523
vt -0.017853 0.436523
vt 0.062622 0.380859
vt 1.122070 0.380859
vt 1.122070 0.682617
vt 0.062622 0.682617
vt 0.057709 0.682617
vt 0.057709 0.380859
s 1
usemtl MASTER_Wood_Painted3
f 1/1/1 2/2/2 3/1/2
f 2/2/2 4/2/1 3/1/2
f 5/3/3 6/4/3 7/5/3
f 6/4/4 8/6/4 7/5/4
f 9/1/2 10/2/2 11/1/2
f 10/2/2 12/2/2 11/1/2
f 13/7/5 14/8/5 15/9/6
f 16/10/7 13/7/5 15/9/6
f 15/9/6 17/6/8 16/10/7
f 17/6/8 18/4/9 16/10/7
f 18/4/9 17/6/8 19/5/10
f 20/3/11 18/4/9 19/5/10
f 20/3/11 19/5/10 21/11/12
f 22/12/12 20/3/11 21/11/12
f 21/11/12 2/2/13 22/12/12
f 2/2/13 1/1/13 22/12/11
f 5/3/14 7/5/14 23/11/15
f 24/12/15 5/3/16 23/11/15
f 23/11/15 10/2/17 24/12/15
f 10/2/18 9/1/18 24/12/15
f 8/6/19 6/4/19 25/10/19
f 26/9/19 8/6/19 25/10/19
f 25/10/19 27/7/19 26/9/19
f 27/7/19 28/8/19 26/9/19
f 29/13/20 30/14/20 31/15/20
f 30/14/20 32/16/21 31/15/20
f 30/14/20 33/17/22 32/16/21
f 33/17/22 34/18/11 32/16/21
f 35/19/12 34/18/11 33/17/22
f 36/20/12 35/19/12 33/17/22
f 37/21/23 38/22/23 39/23/24
f 38/22/23 40/24/25 39/23/24
f 38/22/23 41/25/12 40/24/25
f 41/25/12 42/26/12 40/24/25
f 43/27/26 42/26/12 41/25/12
f 44/28/14 43/27/26 41/25/12
f 45/29/27 46/30/27 47/31/27
f 46/30/27 48/32/28 47/31/27
f 46/30/27 49/33/29 48/32/28
f 49/33/29 50/34/12 48/32/28
f 51/35/12 50/34/12 49/33/29
f 52/36/11 51/35/12 49/33/29
f 52/36/11 53/37/30 51/35/12
f 53/37/30 54/38/31 51/35/12
f 54/38/31 53/37/30 55/39/32
f 53/37/30 56/40/30 55/39/32
f 57/29/27 58/41/28 59/31/27
f 58/41/28 60/42/27 59/31/27
f 58/41/28 61/33/33 60/42/27
f 61/33/33 62/34/33 60/42/27
f 63/35/33 62/34/33 61/33/33
f 64/36/33 63/35/33 61/33/33
f 64/36/33 65/37/34 63/35/33
f 65/37/34 66/38/35 63/35/33
f 66/38/35 65/37/34 67/39/32
f 65/37/34 68/40/36 67/39/32
f 69/29/27 70/30/27 71/31/27
f 70/30/27 72/32/27 71/31/27
f 70/30/27 73/33/37 72/32/27
f 73/33/37 74/34/38 72/32/27
f 75/35/38 74/34/38 73/33/37
f 76/36/38 75/35/38 73/33/37
f 76/36/38 77/37/39 75/35/38
f 77/37/39 78/38/31 75/35/38
f 78/38/31 77/37/39 79/39/32
f 77/37/39 80/40/30 79/39/32
f 81/43/40 82/44/40 83/7/41
f 82/44/40 84/45/42 83/7/41
f 82/44/40 85/46/22 84/45/42
f 85/46/22 86/47/12 84/45/42
f 87/1/11 86/47/12 85/46/22
f 88/48/11 87/1/11 85/46/22
f 89/49/36 90/50/36 91/51/36
f 90/50/36 92/52/36 91/51/36
f 90/50/36 93/17/43 92/52/36
f 93/17/43 94/53/43 92/52/36
f 95/54/43 94/53/43 93/17/43
f 96/20/43 95/54/43 93/17/43
f 97/55/44 98/56/45 55/39/32
f 98/56/45 54/38/31 55/39/32
f 54/38/31 98/56/45 99/57/12
f 51/35/12 54/38/31 99/57/12
f 51/35/12 99/57/12 50/34/12
f 99/57/12 100/58/11 50/34/12
f 50/34/12 100/58/11 101/59/27
f 48/32/28 50/34/12 101/59/27
f 48/32/28 101/59/27 47/31/27
f 101/59/27 102/60/27 47/31/27
f 103/55/44 104/56/46 67/39/32
f 104/56/46 66/38/35 67/39/32
f 66/38/35 104/56/46 105/57/33
f 63/35/33 66/38/35 105/57/33
f 63/35/33 105/57/33 62/34/33
f 105/57/33 106/58/33 62/34/33
f 62/34/33 106/58/33 107/59/27
f 60/42/27 62/34/33 107/59/27
f 60/42/27 107/59/27 59/31/27
f 107/59/27 108/60/28 59/31/27
f 109/55/44 110/56/45 79/39/32
f 110/56/45 78/38/31 79/39/32
f 78/38/31 110/56/45 111/57/47
f 75/35/38 78/38/31 111/57/47
f 75/35/38 111/57/47 74/34/38
f 111/57/47 112/58/37 74/34/38
f 74/34/38 112/58/37 113/59/27
f 72/32/27 74/34/38 113/59/27
f 72/32/27 113/59/27 71/31/27
f 113/59/27 114/60/27 71/31/27
f 115/13/20 116/14/48 117/15/20
f 116/14/48 118/16/48 117/15/20
f 116/14/48 119/17/49 118/16/48
f 119/17/49 120/18/50 118/16/48
f 121/19/12 120/18/50 119/17/49
f 122/20/12 121/19/12 119/17/49
f 123/21/23 124/22/51 125/23/23
f 124/22/51 126/24/51 125/23/23
f 124/22/51 127/25/52 126/24/51
f 127/25/52 128/26/52 126/24/51
f 129/27/14 128/26/52 127/25/52
f 130/28/14 129/27/14 127/25/52
f 131/43/40 132/44/53 133/7/41
f 132/44/53 134/45/54 133/7/41
f 132/44/53 135/46/55 134/45/54
f 135/46/55 136/47/56 134/45/54
f 137/1/11 136/47/56 135/46/55
f 138/48/11 137/1/11 135/46/55
f 139/61/36 140/62/36 91/51/36
f 92/52/36 139/61/36 91/51/36
f 92/52/36 94/53/57 139/61/36
f 94/53/57 141/63/57 139/61/36
f 142/64/58 141/63/57 94/53/57
f 95/54/59 142/64/58 94/53/57
f 143/65/60 144/7/61 39/23/24
f 40/24/25 143/65/60 39/23/24
f 40/24/25 42/26/12 143/65/60
f 42/26/12 145/66/12 143/65/60
f 146/1/12 145/66/12 42/26/12
f 43/27/26 146/1/12 42/26/12
usemtl MASTER_Glass_Dirty_MASKED
f 147/67/62 148/68/62 149/69/62
f 148/68/62 150/70/62 149/69/62
f 151/71/12 152/72/12 153/73/12
f 154/74/12 151/71/12 153/73/12
f 154/74/12 155/75/11 151/71/12
f 155/75/11 156/76/11 151/71/12
