# Blender 3.6.18
# www.blender.org
mtllib Mesh.886.mtl
o Bistro_Research_Exterior_Paris_Building_01_paris_buildi_4635dab
v 3.668708 3.252838 -15.985782
v 3.655983 3.252838 -15.992642
v 3.287711 3.252838 -15.284237
v 3.277124 3.252838 -15.289946
v 3.681380 3.252838 -15.978822
v 3.298254 3.252838 -15.278447
v 3.648926 3.184075 -15.996446
v 3.648926 3.186061 -15.996448
v 3.270067 3.184075 -15.293750
v 3.270067 3.186061 -15.293751
v 3.688407 3.184074 -15.974963
v 3.305282 3.184074 -15.274588
v 3.688407 3.186061 -15.974963
v 3.305282 3.186061 -15.274587
v 3.187905 3.186061 -15.141358
v 2.811079 3.186061 -14.442432
v 3.187905 3.184075 -15.141359
v 2.811079 3.184074 -14.442431
v 3.194962 3.252838 -15.137553
v 2.818136 3.252838 -14.438627
v 3.205086 3.252838 -15.132095
v 2.826134 3.252838 -14.434315
v 3.222194 3.184074 -15.122699
v 2.841125 3.184074 -14.426082
v 3.222194 3.186061 -15.122699
v 2.841125 3.186061 -14.426082
v 3.215167 3.252838 -15.126557
v 2.834098 3.252838 -14.429940
v 3.270067 3.192074 -15.293750
v 3.648926 3.192074 -15.996446
v 3.263220 3.193939 -15.297443
v 3.642079 3.193939 -16.000139
v 3.247535 3.198211 -15.305898
v 3.626394 3.198211 -16.008593
v 3.240687 3.200077 -15.309590
v 3.619546 3.200077 -16.012287
v 3.240691 3.208077 -15.309589
v 3.619550 3.208077 -16.012283
v 3.240696 3.218801 -15.309586
v 3.619555 3.218801 -16.012281
v 3.240700 3.226801 -15.309585
v 3.619559 3.226801 -16.012280
v 3.247527 3.228758 -15.305903
v 3.626386 3.228758 -16.008600
v 3.263255 3.233269 -15.297422
v 3.642114 3.233269 -16.000120
v 3.270082 3.235227 -15.293743
v 3.648941 3.235227 -15.996438
v 3.270082 3.243227 -15.293742
v 3.648941 3.243227 -15.996438
v 3.270082 3.244838 -15.293742
v 3.648941 3.244838 -15.996438
v 3.270082 3.252838 -15.293742
v 3.648941 3.252838 -15.996438
v 3.688392 3.252838 -15.974971
v 3.305267 3.252838 -15.274595
v 3.688392 3.244838 -15.974972
v 3.305267 3.244838 -15.274595
v 3.688392 3.243227 -15.974973
v 3.305267 3.243227 -15.274596
v 3.688392 3.235227 -15.974973
v 3.305267 3.235226 -15.274596
v 3.695191 3.233269 -15.971238
v 3.312066 3.233269 -15.270863
v 3.710852 3.228759 -15.962637
v 3.327727 3.228758 -15.262261
v 3.717651 3.226800 -15.958902
v 3.334526 3.226801 -15.258527
v 3.717655 3.218801 -15.958901
v 3.334529 3.218801 -15.258525
v 3.717660 3.208077 -15.958897
v 3.334535 3.208077 -15.258523
v 3.717664 3.200077 -15.958896
v 3.334538 3.200077 -15.258520
v 3.710844 3.198212 -15.962641
v 3.327720 3.198212 -15.262265
v 3.695226 3.193939 -15.971217
v 3.312100 3.193939 -15.270843
v 3.688407 3.192074 -15.974962
v 3.305282 3.192074 -15.274588
v 3.688407 3.178061 -15.974962
v 3.305282 3.178061 -15.274587
v 3.681395 3.178061 -15.978814
v 3.298270 3.178061 -15.278440
v 3.668708 3.178061 -15.985783
v 3.287711 3.178061 -15.284237
v 3.277109 3.178061 -15.289954
v 3.655968 3.178061 -15.992649
v 3.270067 3.178061 -15.293751
v 3.648926 3.178061 -15.996448
v 3.187905 3.192074 -15.141358
v 2.811079 3.192074 -14.442431
v 3.181057 3.193939 -15.145050
v 2.804231 3.193939 -14.446125
v 3.165372 3.198211 -15.153506
v 2.788546 3.198211 -14.454579
v 3.158525 3.200077 -15.157198
v 2.781699 3.200077 -14.458272
v 3.158529 3.208077 -15.157197
v 2.781703 3.208077 -14.458271
v 3.158534 3.218801 -15.157193
v 2.781708 3.218801 -14.458267
v 3.158538 3.226801 -15.157192
v 2.781711 3.226800 -14.458266
v 3.165365 3.228758 -15.153510
v 2.788539 3.228759 -14.454585
v 3.181093 3.233269 -15.145032
v 2.804266 3.233269 -14.446104
v 3.187920 3.235227 -15.141351
v 2.811094 3.235227 -14.442425
v 3.187920 3.243227 -15.141351
v 2.811094 3.243227 -14.442425
v 3.187920 3.244838 -15.141350
v 2.811094 3.244838 -14.442424
v 3.187920 3.252838 -15.141350
v 2.811094 3.252838 -14.442424
v 3.222179 3.252838 -15.122706
v 2.841110 3.252838 -14.426089
v 3.222179 3.244838 -15.122706
v 2.841110 3.244838 -14.426089
v 3.222179 3.243227 -15.122707
v 2.841110 3.243227 -14.426090
v 3.222179 3.235226 -15.122707
v 2.841110 3.235227 -14.426090
v 3.228978 3.233269 -15.118976
v 2.847909 3.233269 -14.422357
v 3.244639 3.228758 -15.110373
v 2.863570 3.228758 -14.413756
v 3.251439 3.226800 -15.106637
v 2.870369 3.226800 -14.410020
v 3.251442 3.218801 -15.106636
v 2.870373 3.218801 -14.410019
v 3.251447 3.208076 -15.106633
v 2.870378 3.208077 -14.410016
v 3.251451 3.200077 -15.106632
v 2.870382 3.200077 -14.410013
v 3.244632 3.198212 -15.110376
v 2.863563 3.198212 -14.413759
v 3.229013 3.193939 -15.118953
v 2.847944 3.193939 -14.422336
v 3.222194 3.192074 -15.122699
v 2.841125 3.192074 -14.426082
v 3.222194 3.178061 -15.122700
v 2.841125 3.178061 -14.426083
v 3.215182 3.178061 -15.126551
v 2.834113 3.178061 -14.429934
v 3.205086 3.178061 -15.132095
v 2.826134 3.178061 -14.434314
v 3.194947 3.178061 -15.137561
v 2.818120 3.178061 -14.438636
v 3.187905 3.178061 -15.141358
v 2.811079 3.178061 -14.442432
vn -0.0039 1.0000 -0.0039
vn 0.8789 -0.0039 0.4769
vn -0.8774 -0.0039 -0.4797
vn 0.8789 -0.0040 0.4769
vn -0.6889 -0.6188 -0.3775
vn -0.6914 -0.6188 -0.3729
vn -0.2068 -0.9718 -0.1132
vn -0.2069 -0.9718 -0.1132
vn -0.6995 0.6058 -0.3791
vn -0.2157 0.9689 -0.1216
vn -0.2157 0.9688 -0.1216
vn -0.6995 0.6057 -0.3791
vn -0.6242 0.7027 -0.3415
vn 0.6210 0.7080 0.3362
vn 0.6210 0.7080 0.3363
vn 0.6935 0.6143 0.3765
vn 0.6935 0.6142 0.3765
vn 0.2084 0.9714 0.1140
vn 0.2084 0.9714 0.1141
vn 0.2085 0.9714 0.1140
vn 0.6868 -0.6240 0.3728
vn 0.1995 -0.9742 0.1056
vn 0.1995 -0.9742 0.1057
vn 0.6175 -0.7120 0.3343
vn 0.6175 -0.7119 0.3343
vn -0.0039 -1.0000 -0.0039
vn -0.6207 -0.7066 -0.3396
vn -0.6207 -0.7066 -0.3397
vn -0.8775 -0.0039 -0.4796
vn -0.6996 0.6057 -0.3791
vn -0.6242 0.7027 -0.3416
vn 0.2085 0.9714 0.1141
vn 0.6935 0.6142 0.3764
vt 0.653809 0.874512
vt -0.000963 0.874512
vt -0.000962 0.874512
vt 0.653809 0.840942
vt 0.653809 0.841919
vt -0.000962 0.840942
vt -0.000962 0.841919
vt -0.142944 0.841919
vt -0.794434 0.841919
vt -0.142944 0.840942
vt -0.794434 0.840942
vt -0.142944 0.874512
vt -0.794434 0.874512
vt -0.000962 0.844849
vt 0.653809 0.844849
vt -0.000962 0.845703
vt 0.653809 0.845703
vt -0.000962 0.847778
vt 0.653809 0.847778
vt -0.000962 0.848755
vt 0.653809 0.848755
vt -0.000962 0.852661
vt 0.653809 0.852661
vt -0.000962 0.857910
vt 0.653809 0.857910
vt -0.000962 0.861816
vt 0.653809 0.861816
vt -0.000962 0.862793
vt 0.653809 0.862793
vt -0.000962 0.864990
vt 0.653809 0.864990
vt -0.000962 0.865845
vt 0.653809 0.865845
vt -0.000962 0.869873
vt 0.653809 0.869873
vt -0.000962 0.870605
vt 0.653809 0.870605
vt 0.653809 0.837891
vt -0.000962 0.837891
vt -0.142944 0.844849
vt -0.794434 0.844849
vt -0.142944 0.845703
vt -0.794434 0.845703
vt -0.142944 0.847778
vt -0.794434 0.847778
vt -0.142944 0.848755
vt -0.794434 0.848755
vt -0.142944 0.852661
vt -0.794434 0.852661
vt -0.142944 0.857910
vt -0.794434 0.857910
vt -0.142944 0.861816
vt -0.794434 0.861816
vt -0.142944 0.862793
vt -0.794434 0.862793
vt -0.142944 0.864990
vt -0.794434 0.864990
vt -0.142944 0.865845
vt -0.794434 0.865845
vt -0.142944 0.869873
vt -0.794434 0.869873
vt -0.142944 0.870605
vt -0.794434 0.870605
vt -0.142944 0.837891
vt -0.794434 0.838013
s 1
usemtl MASTER_Wood_Painted3
f 1/1/1 2/1/1 3/2/1
f 2/1/1 4/3/1 3/2/1
f 1/1/1 3/2/1 5/1/1
f 3/2/1 6/3/1 5/1/1
f 7/4/2 8/5/2 9/6/2
f 8/5/2 10/7/2 9/6/2
f 11/4/3 12/6/3 13/5/3
f 12/6/3 14/7/3 13/5/3
f 15/8/2 16/9/4 17/10/2
f 16/9/4 18/11/2 17/10/2
f 19/12/1 20/13/1 21/12/1
f 20/13/1 22/13/1 21/12/1
f 23/10/3 24/11/3 25/8/3
f 24/11/3 26/9/3 25/8/3
f 21/12/1 22/13/1 27/12/1
f 22/13/1 28/13/1 27/12/1
f 7/4/3 9/6/3 29/14/5
f 30/15/5 7/4/3 29/14/6
f 30/15/5 29/14/6 31/16/7
f 32/17/7 30/15/5 31/16/7
f 32/17/7 31/16/7 33/18/7
f 34/19/8 32/17/7 33/18/7
f 34/19/8 33/18/7 35/20/5
f 36/21/5 34/19/8 35/20/5
f 36/21/5 35/20/5 37/22/3
f 38/23/3 36/21/5 37/22/3
f 38/23/3 37/22/3 39/24/3
f 40/25/3 38/23/3 39/24/3
f 40/25/3 39/24/3 41/26/9
f 42/27/9 40/25/3 41/26/9
f 42/27/9 41/26/9 43/28/10
f 44/29/10 42/27/9 43/28/10
f 44/29/10 43/28/10 45/30/11
f 46/31/11 44/29/10 45/30/11
f 46/31/11 45/30/11 47/32/12
f 48/33/12 46/31/11 47/32/12
f 48/33/12 47/32/12 49/34/3
f 50/35/3 48/33/12 49/34/3
f 50/35/3 49/34/3 51/36/3
f 52/37/3 50/35/3 51/36/3
f 52/37/3 51/36/3 53/3/13
f 54/1/13 52/37/3 53/3/13
f 54/1/13 53/3/13 4/3/1
f 2/1/1 54/1/13 4/3/1
f 5/1/1 6/3/1 55/1/14
f 6/3/1 56/3/15 55/1/14
f 55/1/14 56/3/15 57/37/2
f 56/3/15 58/36/4 57/37/2
f 57/37/2 58/36/4 59/35/4
f 58/36/4 60/34/4 59/35/4
f 59/35/4 60/34/4 61/33/16
f 60/34/4 62/32/17 61/33/16
f 61/33/16 62/32/17 63/31/18
f 62/32/17 64/30/19 63/31/18
f 63/31/18 64/30/19 65/29/20
f 64/30/19 66/28/19 65/29/20
f 65/29/20 66/28/19 67/27/16
f 66/28/19 68/26/16 67/27/16
f 67/27/16 68/26/16 69/25/2
f 68/26/16 70/24/4 69/25/2
f 69/25/2 70/24/4 71/23/2
f 70/24/4 72/22/2 71/23/2
f 71/23/2 72/22/2 73/21/21
f 72/22/2 74/20/21 73/21/21
f 73/21/21 74/20/21 75/19/22
f 74/20/21 76/18/23 75/19/22
f 75/19/22 76/18/23 77/17/22
f 76/18/23 78/16/22 77/17/22
f 77/17/22 78/16/22 79/15/21
f 78/16/22 80/14/21 79/15/21
f 79/15/21 80/14/21 11/4/2
f 80/14/21 12/6/2 11/4/2
f 13/5/2 14/7/2 81/38/24
f 14/7/2 82/39/25 81/38/24
f 81/38/24 82/39/25 83/38/26
f 82/39/25 84/39/26 83/38/26
f 83/38/26 84/39/26 85/38/26
f 84/39/26 86/39/26 85/38/26
f 85/38/26 86/39/26 87/39/26
f 88/38/26 85/38/26 87/39/26
f 88/38/26 87/39/26 89/39/27
f 90/38/28 88/38/26 89/39/27
f 90/38/28 89/39/27 10/7/29
f 8/5/3 90/38/28 10/7/3
f 17/10/3 18/11/3 91/40/5
f 18/11/3 92/41/5 91/40/5
f 91/40/5 92/41/5 93/42/8
f 92/41/5 94/43/8 93/42/8
f 93/42/8 94/43/8 95/44/7
f 94/43/8 96/45/8 95/44/7
f 95/44/7 96/45/8 97/46/5
f 96/45/8 98/47/5 97/46/5
f 97/46/5 98/47/5 99/48/3
f 98/47/5 100/49/3 99/48/3
f 99/48/3 100/49/3 101/50/3
f 100/49/3 102/51/3 101/50/3
f 101/50/3 102/51/3 103/52/9
f 102/51/3 104/53/30 103/52/9
f 103/52/9 104/53/30 105/54/10
f 104/53/30 106/55/11 105/54/10
f 105/54/10 106/55/11 107/56/10
f 106/55/11 108/57/10 107/56/10
f 107/56/10 108/57/10 109/58/12
f 108/57/10 110/59/9 109/58/12
f 109/58/12 110/59/9 111/60/3
f 110/59/9 112/61/3 111/60/3
f 111/60/3 112/61/3 113/62/3
f 112/61/3 114/63/3 113/62/3
f 113/62/3 114/63/3 115/12/31
f 114/63/3 116/13/13 115/12/31
f 115/12/31 116/13/13 19/12/1
f 116/13/13 20/13/1 19/12/1
f 27/12/1 28/13/1 117/12/15
f 28/13/1 118/13/14 117/12/15
f 117/12/15 118/13/14 119/62/2
f 118/13/14 120/63/2 119/62/2
f 119/62/2 120/63/2 121/60/2
f 120/63/2 122/61/2 121/60/2
f 121/60/2 122/61/2 123/58/16
f 122/61/2 124/59/16 123/58/16
f 123/58/16 124/59/16 125/56/20
f 124/59/16 126/57/18 125/56/20
f 125/56/20 126/57/18 127/54/20
f 126/57/18 128/55/32 127/54/20
f 127/54/20 128/55/32 129/52/33
f 128/55/32 130/53/16 129/52/33
f 129/52/33 130/53/16 131/50/2
f 130/53/16 132/51/2 131/50/2
f 131/50/2 132/51/2 133/48/2
f 132/51/2 134/49/4 133/48/2
f 133/48/2 134/49/4 135/46/21
f 134/49/4 136/47/21 135/46/21
f 135/46/21 136/47/21 137/44/22
f 136/47/21 138/45/22 137/44/22
f 137/44/22 138/45/22 139/42/22
f 138/45/22 140/43/22 139/42/22
f 139/42/22 140/43/22 141/40/21
f 140/43/22 142/41/21 141/40/21
f 141/40/21 142/41/21 23/10/2
f 142/41/21 24/11/4 23/10/2
f 25/8/4 26/9/2 143/64/25
f 26/9/2 144/65/25 143/64/25
f 143/64/25 144/65/25 145/64/26
f 144/65/25 146/65/26 145/64/26
f 145/64/26 146/65/26 147/64/26
f 146/65/26 148/65/26 147/64/26
f 147/64/26 148/65/26 149/64/26
f 148/65/26 150/65/26 149/64/26
f 149/64/26 150/65/26 151/64/28
f 150/65/26 152/65/27 151/64/28
f 151/64/28 152/65/27 15/8/3
f 152/65/27 16/9/3 15/8/3
