# Blender 3.6.18
# www.blender.org
mtllib Mesh.678.mtl
o Bistro_Research_Exterior_paris_building_05_16__5183
v 55.222683 16.991144 23.716890
v 55.693867 16.991144 23.906685
v 55.716248 16.991144 23.851124
v 55.245064 16.991144 23.661329
v 55.716248 16.895021 23.851124
v 55.245064 16.895021 23.661329
v 55.222683 16.895023 23.716890
v 55.693867 16.895021 23.906685
v 55.248421 14.291601 23.666031
v 55.228191 14.291601 23.716267
v 55.228191 16.899363 23.716267
v 55.248421 16.899363 23.666031
v 55.320675 16.899363 23.695131
v 55.320675 14.291601 23.695131
v 55.300434 14.291601 23.745369
v 55.300434 16.899363 23.745369
v 55.634632 16.892866 23.862915
v 55.307949 16.892866 23.731327
v 55.307949 14.294681 23.731327
v 55.634632 14.294680 23.862915
v 55.694546 14.291601 23.904121
v 55.714790 14.291601 23.853884
v 55.714790 16.899363 23.853884
v 55.694546 16.899363 23.904121
v 55.622303 16.899363 23.875021
v 55.622303 14.291601 23.875021
v 55.642540 14.291601 23.824787
v 55.642540 16.899363 23.824783
v 55.222683 14.291185 23.716890
v 55.693867 14.291185 23.906685
v 55.716248 14.291185 23.851124
v 55.245064 14.291185 23.661329
v 55.716248 14.195065 23.851124
v 55.245064 14.195065 23.661329
v 55.222683 14.195066 23.716890
v 55.693867 14.195065 23.906685
v 55.693836 16.991144 23.906672
v 56.165012 16.991144 24.096468
v 56.187393 16.991144 24.040905
v 55.716209 16.991144 23.851110
v 56.187393 16.895021 24.040905
v 55.716209 16.895021 23.851110
v 55.693836 16.895023 23.906672
v 56.165012 16.895021 24.096468
v 55.719574 14.291601 23.855812
v 55.699333 14.291601 23.906048
v 55.699333 16.899363 23.906048
v 55.719574 16.899363 23.855812
v 55.791817 16.899363 23.884911
v 55.791817 14.291601 23.884911
v 55.771584 14.291601 23.935148
v 55.771584 16.899363 23.935148
v 56.106926 16.892866 24.053160
v 55.780235 16.892866 23.921570
v 55.780235 14.294681 23.921570
v 56.106926 14.294680 24.053160
v 56.161983 14.291601 24.092403
v 56.182213 14.291601 24.042170
v 56.182213 16.899363 24.042170
v 56.161983 16.899363 24.092403
v 56.089729 16.899363 24.063301
v 56.089729 14.291601 24.063301
v 56.109962 14.291601 24.013067
v 56.109962 16.899363 24.013067
v 55.693836 14.291185 23.906672
v 56.165012 14.291185 24.096468
v 56.187393 14.291185 24.040905
v 55.716209 14.291185 23.851110
v 56.187393 14.195065 24.040905
v 55.716209 14.195065 23.851110
v 55.693836 14.195066 23.906672
v 56.165012 14.195065 24.096468
vn -0.0039 1.0000 -0.0039
vn 0.3721 -0.0039 -0.9282
vn -0.3815 -0.0039 0.9244
vn -0.3815 -0.0039 0.9243
vn -0.9255 -0.0039 -0.3788
vn 0.9271 -0.0040 0.3748
vn 0.9271 -0.0039 0.3748
vn -0.0039 -1.0000 -0.0039
vn -0.3816 -0.0039 0.9243
vt 0.327881 0.353027
vt 0.327881 0.432129
vt 0.318604 0.432129
vt 0.318604 0.353027
vt 0.315430 0.432129
vt 0.300537 0.432129
vt 0.300537 0.352539
vt 0.315430 0.352539
vt 0.270020 0.352051
vt 0.284912 0.352051
vt 0.284912 0.431641
vt 0.270020 0.431641
vt 0.269775 0.345215
vt 0.269775 0.335938
vt 0.284912 0.335938
vt 0.284912 0.345215
vt 0.288086 0.345215
vt 0.288086 0.335938
vt 0.303223 0.335938
vt 0.303223 0.345215
vt 0.287842 0.352539
vt 0.297363 0.352539
vt 0.297363 0.432129
vt 0.287842 0.432129
vt 0.858398 0.978256
vt 0.848633 0.978256
vt 0.848633 0.570801
vt 0.858398 0.570801
vt 0.812012 0.571289
vt 0.812012 0.978668
vt 0.799805 0.978668
vt 0.799805 0.571289
vt 0.845215 0.572021
vt 0.845215 0.979340
vt 0.833008 0.979340
vt 0.833008 0.572021
vt 0.827637 0.980072
vt 0.817871 0.980072
vt 0.817871 0.572754
vt 0.827637 0.572754
vt 0.377197 0.011230
vt 0.432373 0.011230
vt 0.432373 0.416992
vt 0.377197 0.416992
s 1
usemtl MASTER_Building_Details
f 1/1/1 2/2/1 3/3/1
f 3/3/1 4/4/1 1/1/1
f 3/5/2 5/6/2 6/7/2
f 6/7/2 4/8/2 3/5/2
f 1/9/3 7/10/3 8/11/4
f 8/11/4 2/12/4 1/9/3
f 1/13/5 4/14/5 6/15/5
f 6/15/5 7/16/5 1/13/5
f 3/17/6 2/18/6 8/19/7
f 8/19/7 5/20/7 3/17/6
f 7/21/8 6/22/8 5/23/8
f 5/23/8 8/24/8 7/21/8
f 9/25/5 10/26/5 11/27/5
f 11/27/5 12/28/5 9/25/5
f 9/29/2 12/30/2 13/31/2
f 13/31/2 14/32/2 9/29/2
f 11/33/3 10/34/3 15/35/3
f 15/35/9 16/36/9 11/33/9
f 15/37/7 14/38/7 13/39/7
f 13/39/7 16/40/7 15/37/7
f 17/41/3 18/42/3 19/43/4
f 19/43/4 20/44/4 17/41/3
f 21/25/6 22/26/7 23/27/6
f 23/27/6 24/28/7 21/25/6
f 21/29/9 24/30/9 25/31/9
f 25/31/3 26/32/3 21/29/3
f 23/33/2 22/34/2 27/35/2
f 27/35/2 28/36/2 23/33/2
f 27/37/5 26/38/5 25/39/5
f 25/39/5 28/40/5 27/37/5
f 29/1/1 30/2/1 31/3/1
f 31/3/1 32/4/1 29/1/1
f 31/5/2 33/6/2 34/7/2
f 34/7/2 32/8/2 31/5/2
f 29/9/4 35/10/4 36/11/4
f 36/11/4 30/12/4 29/9/4
f 29/13/5 32/14/5 34/15/5
f 34/15/5 35/16/5 29/13/5
f 31/17/6 30/18/6 36/19/7
f 36/19/7 33/20/7 31/17/6
f 35/21/8 34/22/8 33/23/8
f 33/23/8 36/24/8 35/21/8
f 37/1/1 38/2/1 39/3/1
f 39/3/1 40/4/1 37/1/1
f 39/5/2 41/6/2 42/7/2
f 42/7/2 40/8/2 39/5/2
f 37/9/4 43/10/4 44/11/4
f 44/11/4 38/12/4 37/9/4
f 37/13/5 40/14/5 42/15/5
f 42/15/5 43/16/5 37/13/5
f 39/17/7 38/18/7 44/19/7
f 44/19/7 41/20/6 39/17/7
f 43/21/8 42/22/8 41/23/8
f 41/23/8 44/24/8 43/21/8
f 45/25/5 46/26/5 47/27/5
f 47/27/5 48/28/5 45/25/5
f 45/29/2 48/30/2 49/31/2
f 49/31/2 50/32/2 45/29/2
f 47/33/4 46/34/4 51/35/4
f 51/35/4 52/36/4 47/33/4
f 51/37/7 50/38/7 49/39/6
f 49/39/6 52/40/6 51/37/7
f 53/41/4 54/42/4 55/43/9
f 55/43/9 56/44/3 53/41/4
f 57/25/7 58/26/7 59/27/6
f 59/27/6 60/28/7 57/25/7
f 57/29/9 60/30/9 61/31/9
f 61/31/9 62/32/9 57/29/9
f 59/33/2 58/34/2 63/35/2
f 63/35/2 64/36/2 59/33/2
f 63/37/5 62/38/5 61/39/5
f 61/39/5 64/40/5 63/37/5
f 65/1/1 66/2/1 67/3/1
f 67/3/1 68/4/1 65/1/1
f 67/5/2 69/6/2 70/7/2
f 70/7/2 68/8/2 67/5/2
f 65/9/4 71/10/4 72/11/4
f 72/11/4 66/12/4 65/9/4
f 65/13/5 68/14/5 70/15/5
f 70/15/5 71/16/5 65/13/5
f 67/17/7 66/18/6 72/19/7
f 72/19/7 69/20/7 67/17/7
f 71/21/8 70/22/8 69/23/8
f 69/23/8 72/24/8 71/21/8
