# Blender 3.6.18
# www.blender.org
mtllib Mesh.133.mtl
o Bistro_Research_Exterior_Paris_StreetLight_Glass_01B___11__6343
v 28.440475 7.328279 -55.172073
v 28.352489 7.328279 -55.250706
v 28.328550 6.744836 -55.203285
v 28.396030 6.744836 -55.142979
v 28.477354 7.328279 -55.059986
v 28.424314 6.744836 -55.057014
v 28.453247 7.328279 -54.944477
v 28.405823 6.744836 -54.968414
v 28.374615 7.328279 -54.856487
v 28.345514 6.744836 -54.900936
v 28.262526 7.328279 -54.819607
v 28.259546 6.744836 -54.872646
v 28.147013 7.328279 -54.843716
v 28.170954 6.744836 -54.891140
v 28.059029 7.328279 -54.922348
v 28.103474 6.744836 -54.951447
v 28.022150 7.328279 -55.034443
v 28.075188 6.744836 -55.037418
v 28.046255 7.328279 -55.149956
v 28.093678 6.744836 -55.126011
v 28.124889 7.328279 -55.237934
v 28.153988 6.744836 -55.193497
v 28.236977 7.328279 -55.274815
v 28.239956 6.744836 -55.221775
v 28.381300 6.744836 -55.194397
v 28.337736 6.744836 -55.221474
v 28.364466 7.328279 -55.274422
v 28.421267 7.328279 -55.239120
v 28.462698 7.328279 -55.186619
v 28.413078 6.744836 -55.154140
v 28.437267 6.744836 -55.108906
v 28.494240 7.328279 -55.127651
v 28.503878 7.328279 -55.061474
v 28.444658 6.744836 -55.058155
v 28.442991 6.744836 -55.006886
v 28.501703 7.328279 -54.994633
v 28.476963 7.328279 -54.932499
v 28.424015 6.744836 -54.959232
v 28.396938 6.744836 -54.915668
v 28.441660 7.328279 -54.875698
v 28.389166 7.328279 -54.834263
v 28.356680 6.744836 -54.883888
v 28.311447 6.744836 -54.859703
v 28.330193 7.328279 -54.802731
v 28.264011 7.328279 -54.793083
v 28.260687 6.744836 -54.852303
v 28.209425 6.744836 -54.853970
v 28.197174 7.328279 -54.795258
v 28.135040 7.328279 -54.820011
v 28.161772 6.744836 -54.872952
v 28.118206 6.744836 -54.900021
v 28.078239 7.328279 -54.855305
v 28.036802 7.328279 -54.907799
v 28.086424 6.744836 -54.940292
v 28.062233 6.744836 -54.985519
v 28.005264 7.328279 -54.966774
v 27.995626 7.328279 -55.032955
v 28.054844 6.744836 -55.036278
v 28.056511 6.744836 -55.087540
v 27.997799 7.328279 -55.099789
v 28.022543 7.328279 -55.161926
v 28.075489 6.744836 -55.135197
v 28.102562 6.744836 -55.178757
v 28.057844 7.328279 -55.218731
v 28.110338 7.328279 -55.260162
v 28.142826 6.744836 -55.210541
v 28.188057 6.744836 -55.234730
v 28.169312 7.328279 -55.291702
v 28.235489 7.328279 -55.301338
v 28.238813 6.744836 -55.242119
v 28.290079 6.744836 -55.240456
v 28.302334 7.328279 -55.299168
vn -0.8340 0.0901 0.5443
vn -0.4532 0.0906 0.8868
vn -0.9947 0.0897 0.0507
vn -0.8884 0.0900 -0.4501
vn -0.5498 0.0897 -0.8305
vn -0.0584 0.0897 -0.9943
vn 0.4438 0.0903 -0.8916
vn 0.4439 0.0903 -0.8915
vn 0.8281 0.0903 -0.5533
vn 0.9942 0.0904 -0.0589
vn 0.8899 0.0910 0.4470
vn 0.5479 0.0907 0.8316
vn 0.5478 0.0907 0.8317
vn 0.0511 0.0904 0.9946
vn 0.6590 -0.1053 -0.7448
vn 0.4431 -0.1059 -0.8902
vn 0.4432 -0.1059 -0.8902
vn 0.6590 -0.1053 -0.7447
vn 0.8303 -0.1063 -0.5470
vn 0.9417 -0.1064 -0.3192
vn 0.9417 -0.1064 -0.3191
vn 0.9926 -0.1059 -0.0589
vn 0.9926 -0.1059 -0.0588
vn 0.9738 -0.1065 0.2011
vn 0.8885 -0.1066 0.4462
vn 0.7413 -0.1059 0.6628
vn 0.5415 -0.1067 0.8339
vn 0.5414 -0.1067 0.8339
vn 0.3121 -0.1066 0.9441
vn 0.3120 -0.1066 0.9441
vn 0.0510 -0.1060 0.9931
vn -0.2086 -0.1063 0.9722
vn -0.4525 -0.1063 0.8854
vn -0.6672 -0.1053 0.7374
vn -0.8363 -0.1060 0.5379
vn -0.9449 -0.1058 0.3097
vn -0.9932 -0.1052 0.0506
vn -0.9726 -0.1055 -0.2070
vn -0.8871 -0.1055 -0.4494
vn -0.7410 -0.1047 -0.6633
vn -0.5435 -0.1055 -0.8328
vn -0.5435 -0.1056 -0.8328
vn -0.3168 -0.1056 -0.9426
vn -0.0584 -0.1051 -0.9927
vn 0.1995 -0.1057 -0.9742
vn 0.1995 -0.1056 -0.9742
vt 0.092773 0.097168
vt 0.016220 0.097168
vt 0.016220 0.904419
vt 0.092773 0.904419
vt 0.172852 0.097168
vt 0.172852 0.904419
vt 0.252930 0.097168
vt 0.252930 0.904419
vt 0.333008 0.097168
vt 0.333008 0.904419
vt 0.413086 0.097168
vt 0.413086 0.904419
vt 0.493164 0.097168
vt 0.493164 0.904419
vt 0.573242 0.097168
vt 0.573242 0.904419
vt 0.653320 0.097168
vt 0.653320 0.904419
vt 0.733398 0.097168
vt 0.733398 0.904419
vt 0.813477 0.097168
vt 0.813477 0.904419
vt 0.893555 0.097168
vt 0.893555 0.904419
vt 0.984375 0.097168
vt 0.984375 0.904419
vt 0.054504 0.904419
vt 0.054504 0.097168
vt 0.132812 0.904419
vt 0.132812 0.097168
vt 0.212891 0.904419
vt 0.212891 0.097168
vt 0.292969 0.904419
vt 0.292969 0.097168
vt 0.373047 0.904419
vt 0.373047 0.097168
vt 0.453125 0.904419
vt 0.453125 0.097168
vt 0.533203 0.904419
vt 0.533203 0.097168
vt 0.613281 0.904419
vt 0.613281 0.097168
vt 0.693359 0.904419
vt 0.693359 0.097168
vt 0.773438 0.904419
vt 0.773438 0.097168
vt 0.853516 0.904419
vt 0.853516 0.097168
vt 0.938965 0.904419
vt 0.938965 0.097168
s 1
usemtl Emissive_StreetLight
f 1/1/1 2/2/2 3/3/2
f 3/3/2 4/4/1 1/1/1
f 5/5/3 1/1/1 4/4/1
f 4/4/1 6/6/3 5/5/3
f 7/7/4 5/5/3 6/6/3
f 6/6/3 8/8/4 7/7/4
f 9/9/5 7/7/4 8/8/4
f 8/8/4 10/10/5 9/9/5
f 11/11/6 9/9/5 10/10/5
f 10/10/5 12/12/6 11/11/6
f 13/13/7 11/11/6 12/12/6
f 12/12/6 14/14/8 13/13/7
f 15/15/9 13/13/7 14/14/8
f 14/14/8 16/16/9 15/15/9
f 17/17/10 15/15/9 16/16/9
f 16/16/9 18/18/10 17/17/10
f 19/19/11 17/17/10 18/18/10
f 18/18/10 20/20/11 19/19/11
f 21/21/12 19/19/11 20/20/11
f 20/20/11 22/22/13 21/21/12
f 23/23/14 21/21/12 22/22/13
f 22/22/13 24/24/14 23/23/14
f 2/25/2 23/23/14 24/24/14
f 24/24/14 3/26/2 2/25/2
f 25/27/15 26/3/16 27/2/17
f 27/2/17 28/28/18 25/27/15
f 25/27/15 28/28/18 29/1/19
f 29/1/19 30/4/19 25/27/15
f 31/29/20 30/4/19 29/1/19
f 29/1/19 32/30/21 31/29/20
f 31/29/20 32/30/21 33/5/22
f 33/5/22 34/6/23 31/29/20
f 35/31/24 34/6/23 33/5/22
f 33/5/22 36/32/24 35/31/24
f 35/31/24 36/32/24 37/7/25
f 37/7/25 38/8/25 35/31/24
f 39/33/26 38/8/25 37/7/25
f 37/7/25 40/34/26 39/33/26
f 39/33/26 40/34/26 41/9/27
f 41/9/27 42/10/28 39/33/26
f 43/35/29 42/10/28 41/9/27
f 41/9/27 44/36/30 43/35/29
f 43/35/29 44/36/30 45/11/31
f 45/11/31 46/12/31 43/35/29
f 47/37/32 46/12/31 45/11/31
f 45/11/31 48/38/32 47/37/32
f 47/37/32 48/38/32 49/13/33
f 49/13/33 50/14/33 47/37/32
f 51/39/34 50/14/33 49/13/33
f 49/13/33 52/40/34 51/39/34
f 51/39/34 52/40/34 53/15/35
f 53/15/35 54/16/35 51/39/34
f 55/41/36 54/16/35 53/15/35
f 53/15/35 56/42/36 55/41/36
f 55/41/36 56/42/36 57/17/37
f 57/17/37 58/18/37 55/41/36
f 59/43/38 58/18/37 57/17/37
f 57/17/37 60/44/38 59/43/38
f 59/43/38 60/44/38 61/19/39
f 61/19/39 62/20/39 59/43/38
f 63/45/40 62/20/39 61/19/39
f 61/19/39 64/46/40 63/45/40
f 63/45/40 64/46/40 65/21/41
f 65/21/41 66/22/42 63/45/40
f 67/47/43 66/22/42 65/21/41
f 65/21/41 68/48/43 67/47/43
f 67/47/43 68/48/43 69/23/44
f 69/23/44 70/24/44 67/47/43
f 71/49/45 70/24/44 69/23/44
f 69/23/44 72/50/46 71/49/45
f 71/49/45 72/50/46 27/25/17
f 27/25/17 26/26/16 71/49/45
