# Blender 3.6.18
# www.blender.org
mtllib Mesh.130.mtl
o Bistro_Research_Exterior_Paris_StreetLight_Glass_01B___14__6349
v 39.279484 7.528931 37.247807
v 39.351692 7.528931 37.154480
v 39.302696 6.945487 37.133953
v 39.247311 6.945487 37.205532
v 39.170288 7.528931 37.292526
v 39.163563 6.945487 37.239830
v 39.053352 7.528931 37.276653
v 39.073879 6.945487 37.227657
v 38.960030 7.528931 37.204449
v 39.002304 6.945487 37.172279
v 38.915306 7.528931 37.095249
v 38.968006 6.945487 37.088524
v 38.931183 7.528931 36.978317
v 38.980179 6.945487 36.998840
v 39.003387 7.528931 36.884995
v 39.035557 6.945487 36.927269
v 39.112583 7.528931 36.840271
v 39.119312 6.945487 36.892967
v 39.229519 7.528931 36.856144
v 39.208984 6.945487 36.905140
v 39.322842 7.528931 36.928352
v 39.280567 6.945487 36.960522
v 39.367565 7.528931 37.037548
v 39.314869 6.945487 37.044270
v 39.297562 6.945487 37.187199
v 39.321491 6.945487 37.141827
v 39.376194 7.528931 37.164745
v 39.344997 7.528931 37.223896
v 39.295570 7.528931 37.268948
v 39.259651 6.945487 37.221748
v 39.216248 6.945487 37.249081
v 39.238979 7.528931 37.304581
v 39.173645 7.528931 37.318878
v 39.166138 6.945487 37.260040
v 39.114883 6.945487 37.262005
v 39.106819 7.528931 37.321438
v 39.043091 7.528931 37.301159
v 39.066006 6.945487 37.246452
v 39.020634 6.945487 37.222530
v 38.983932 7.528931 37.269966
v 38.938889 7.528931 37.220535
v 38.986088 6.945487 37.184620
v 38.958755 6.945487 37.141209
v 38.903255 7.528931 37.163940
v 38.888958 7.528931 37.098610
v 38.947792 6.945487 37.091103
v 38.945827 6.945487 37.039848
v 38.886391 7.528931 37.031784
v 38.906677 7.528931 36.968052
v 38.961384 6.945487 36.990971
v 38.985306 6.945487 36.945602
v 38.937870 7.528931 36.908901
v 38.987297 7.528931 36.863850
v 39.023216 6.945487 36.911053
v 39.066624 6.945487 36.883720
v 39.043892 7.528931 36.828217
v 39.109226 7.528931 36.813919
v 39.116730 6.945487 36.872757
v 39.167988 6.945487 36.870792
v 39.176052 7.528931 36.811356
v 39.239780 7.528931 36.831638
v 39.216862 6.945487 36.886345
v 39.262234 6.945487 36.910271
v 39.298935 7.528931 36.862835
v 39.343983 7.528931 36.912262
v 39.296783 6.945487 36.948181
v 39.324116 6.945487 36.991589
v 39.379620 7.528931 36.968857
v 39.393913 7.528931 37.034191
v 39.335079 6.945487 37.041695
v 39.337044 6.945487 37.092949
v 39.396477 7.528931 37.101013
vn -0.6044 0.0897 -0.7916
vn -0.9178 0.0898 -0.3867
vn -0.1288 0.0898 -0.9876
vn 0.3800 0.0901 -0.9206
vn 0.7887 0.0902 -0.6082
vn 0.9874 0.0905 -0.1298
vn 0.9194 0.0908 0.3828
vn 0.9194 0.0908 0.3827
vn 0.6031 0.0907 0.7925
vn 0.1221 0.0906 0.9884
vn -0.3894 0.0905 0.9166
vn -0.3895 0.0905 0.9166
vn -0.7953 0.0901 0.5995
vn -0.7953 0.0901 0.5994
vn -0.9886 0.0899 0.1212
vn -0.9886 0.0899 0.1211
vn 0.7844 -0.1064 0.6110
vn 0.9180 -0.1064 0.3821
vn 0.9180 -0.1064 0.3822
vn 0.6023 -0.1063 0.7912
vn 0.3754 -0.1067 0.9207
vn 0.1219 -0.1062 0.9869
vn -0.1373 -0.1059 0.9848
vn -0.3888 -0.1060 0.9152
vn -0.3889 -0.1061 0.9152
vn -0.6159 -0.1059 0.7807
vn -0.7941 -0.1056 0.5985
vn -0.9219 -0.1059 0.3727
vn -0.9871 -0.1053 0.1209
vn -0.9851 -0.1051 -0.1363
vn -0.9851 -0.1052 -0.1363
vn -0.9164 -0.1053 -0.3861
vn -0.7837 -0.1053 -0.6121
vn -0.6035 -0.1051 -0.7904
vn -0.3794 -0.1056 -0.9192
vn -0.1286 -0.1052 -0.9861
vn 0.1286 -0.1052 -0.9861
vn 0.3794 -0.1056 -0.9192
vn 0.6072 -0.1058 -0.7874
vn 0.6072 -0.1058 -0.7875
vn 0.7874 -0.1058 -0.6072
vn 0.9180 -0.1064 -0.3822
vn 0.9859 -0.1061 -0.1296
vn 0.9859 -0.1061 0.1296
vt 0.092773 0.097168
vt 0.016220 0.097168
vt 0.016220 0.904419
vt 0.092773 0.904419
vt 0.172852 0.097168
vt 0.172852 0.904419
vt 0.252930 0.097168
vt 0.252930 0.904419
vt 0.333008 0.097168
vt 0.333008 0.904419
vt 0.413086 0.097168
vt 0.413086 0.904419
vt 0.493164 0.097168
vt 0.493164 0.904419
vt 0.573242 0.097168
vt 0.573242 0.904419
vt 0.653320 0.097168
vt 0.653320 0.904419
vt 0.733398 0.097168
vt 0.733398 0.904419
vt 0.813477 0.097168
vt 0.813477 0.904419
vt 0.893555 0.097168
vt 0.893555 0.904419
vt 0.984375 0.097168
vt 0.984375 0.904419
vt 0.054504 0.904419
vt 0.054504 0.097168
vt 0.132812 0.904419
vt 0.132812 0.097168
vt 0.212891 0.904419
vt 0.212891 0.097168
vt 0.292969 0.904419
vt 0.292969 0.097168
vt 0.373047 0.904419
vt 0.373047 0.097168
vt 0.453125 0.904419
vt 0.453125 0.097168
vt 0.533203 0.904419
vt 0.533203 0.097168
vt 0.613281 0.904419
vt 0.613281 0.097168
vt 0.693359 0.904419
vt 0.693359 0.097168
vt 0.773438 0.904419
vt 0.773438 0.097168
vt 0.853516 0.904419
vt 0.853516 0.097168
vt 0.938965 0.904419
vt 0.938965 0.097168
s 1
usemtl Emissive_StreetLight
f 1/1/1 2/2/2 3/3/2
f 3/3/2 4/4/1 1/1/1
f 5/5/3 1/1/1 4/4/1
f 4/4/1 6/6/3 5/5/3
f 7/7/4 5/5/3 6/6/3
f 6/6/3 8/8/4 7/7/4
f 9/9/5 7/7/4 8/8/4
f 8/8/4 10/10/5 9/9/5
f 11/11/6 9/9/5 10/10/5
f 10/10/5 12/12/6 11/11/6
f 13/13/7 11/11/6 12/12/6
f 12/12/6 14/14/8 13/13/7
f 15/15/9 13/13/7 14/14/8
f 14/14/8 16/16/9 15/15/9
f 17/17/10 15/15/9 16/16/9
f 16/16/9 18/18/10 17/17/10
f 19/19/11 17/17/10 18/18/10
f 18/18/10 20/20/12 19/19/11
f 21/21/13 19/19/11 20/20/12
f 20/20/12 22/22/14 21/21/13
f 23/23/15 21/21/13 22/22/14
f 22/22/14 24/24/16 23/23/15
f 2/25/2 23/23/15 24/24/16
f 24/24/16 3/26/2 2/25/2
f 25/27/17 26/3/18 27/2/19
f 27/2/19 28/28/17 25/27/17
f 25/27/17 28/28/17 29/1/20
f 29/1/20 30/4/20 25/27/17
f 31/29/21 30/4/20 29/1/20
f 29/1/20 32/30/21 31/29/21
f 31/29/21 32/30/21 33/5/22
f 33/5/22 34/6/22 31/29/21
f 35/31/23 34/6/22 33/5/22
f 33/5/22 36/32/23 35/31/23
f 35/31/23 36/32/23 37/7/24
f 37/7/24 38/8/25 35/31/23
f 39/33/26 38/8/25 37/7/24
f 37/7/24 40/34/26 39/33/26
f 39/33/26 40/34/26 41/9/27
f 41/9/27 42/10/27 39/33/26
f 43/35/28 42/10/27 41/9/27
f 41/9/27 44/36/28 43/35/28
f 43/35/28 44/36/28 45/11/29
f 45/11/29 46/12/29 43/35/28
f 47/37/30 46/12/29 45/11/29
f 45/11/29 48/38/31 47/37/30
f 47/37/30 48/38/31 49/13/32
f 49/13/32 50/14/32 47/37/30
f 51/39/33 50/14/32 49/13/32
f 49/13/32 52/40/33 51/39/33
f 51/39/33 52/40/33 53/15/34
f 53/15/34 54/16/34 51/39/33
f 55/41/35 54/16/34 53/15/34
f 53/15/34 56/42/35 55/41/35
f 55/41/35 56/42/35 57/17/36
f 57/17/36 58/18/36 55/41/35
f 59/43/37 58/18/36 57/17/36
f 57/17/36 60/44/37 59/43/37
f 59/43/37 60/44/37 61/19/38
f 61/19/38 62/20/38 59/43/37
f 63/45/39 62/20/38 61/19/38
f 61/19/38 64/46/40 63/45/39
f 63/45/39 64/46/40 65/21/41
f 65/21/41 66/22/41 63/45/39
f 67/47/42 66/22/41 65/21/41
f 65/21/41 68/48/42 67/47/42
f 67/47/42 68/48/42 69/23/43
f 69/23/43 70/24/43 67/47/42
f 71/49/44 70/24/43 69/23/43
f 69/23/43 72/50/44 71/49/44
f 71/49/44 72/50/44 27/25/19
f 27/25/19 26/26/18 71/49/44
