# Blender 3.6.18
# www.blender.org
mtllib Mesh.377.mtl
o Bistro_Research_Exterior_paris_building_11_5829
v -3.745482 16.321850 25.224659
v -3.842044 16.321850 25.185177
v -4.237101 16.322752 26.426933
v -4.333663 16.322752 26.387451
v -4.240129 16.314756 26.434340
v -4.336689 16.314758 26.394855
v -4.240129 13.580786 26.434343
v -4.336689 13.580785 26.394855
v -4.237101 13.572784 26.426935
v -4.333663 13.572783 26.387451
v -3.745482 13.572784 25.224659
v -3.842044 13.572783 25.185175
v -3.742455 13.580786 25.217255
v -3.839016 13.580785 25.177771
v -3.742455 16.313845 25.217255
v -3.839016 16.313845 25.177771
v -3.853800 16.313860 25.192583
v -3.895840 16.205366 25.292686
v -4.336854 16.314743 26.373919
v -4.296712 16.206102 26.273041
v -4.341137 16.303432 26.384394
v -4.300996 16.194790 26.283516
v -4.341137 13.592097 26.384394
v -4.300996 13.700663 26.283514
v -4.336855 13.580783 26.373922
v -4.296715 13.689350 26.273045
v -3.853801 13.580783 25.192587
v -3.895842 13.689350 25.292688
v -3.849519 13.592097 25.182117
v -3.891559 13.700663 25.282219
v -3.849519 16.302544 25.182117
v -3.891559 16.194052 25.282215
v -3.892362 16.194153 25.303328
v -3.877956 16.185808 25.318241
v -4.286777 16.194876 26.267887
v -4.266049 16.186520 26.267342
v -4.290042 16.186256 26.275873
v -4.269315 16.177902 26.275326
v -4.290042 13.709195 26.275877
v -4.269315 13.717544 26.275330
v -4.286777 13.700570 26.267889
v -4.266050 13.708920 26.267345
v -3.892363 13.700570 25.303329
v -3.877956 13.708920 25.318241
v -3.889098 13.709195 25.295349
v -3.874692 13.717544 25.310261
v -3.889098 16.185524 25.295347
v -3.874692 16.177181 25.310261
v -3.876529 16.174599 25.333847
v -3.899483 16.115688 25.388151
v -4.254093 16.175289 26.257200
v -4.232424 16.116299 26.202374
v -4.258377 16.163980 26.267679
v -4.236707 16.104990 26.212851
v -4.258377 13.731455 26.267679
v -4.236707 13.790406 26.212849
v -4.254095 13.720141 26.257206
v -4.232426 13.779094 26.202377
v -3.876530 13.720141 25.333853
v -3.899485 13.779094 25.388153
v -3.872248 13.731455 25.323381
v -3.895203 13.790406 25.377684
v -3.872248 16.163282 25.323380
v -3.895203 16.104372 25.377684
v -3.893941 16.107693 25.395485
v -3.829864 16.107693 25.421686
v -4.223334 16.108295 26.201033
v -4.159257 16.108295 26.227236
v -4.226362 16.100302 26.208437
v -4.162285 16.100300 26.234636
v -4.226362 13.795092 26.208439
v -4.162285 13.795093 26.234642
v -4.223334 13.787091 26.201035
v -4.159257 13.787092 26.227236
v -3.893941 13.787091 25.395485
v -3.829864 13.787092 25.421686
v -3.890913 13.795092 25.388081
v -3.826836 13.795093 25.414284
v -3.890913 16.099688 25.388081
v -3.826836 16.099688 25.414282
vn -0.0040 1.0000 -0.0040
vn -0.3815 -0.0039 0.9243
vn -0.0039 -1.0000 -0.0039
vn 0.3721 -0.0039 -0.9282
vn -0.9255 0.0039 -0.3788
vn -0.9282 -0.0039 -0.3721
vn -0.9254 -0.0117 -0.3788
vn -0.9227 -0.0039 -0.3854
vn -0.9227 -0.0039 -0.3855
vn -0.3771 -0.9137 -0.1516
vn -0.0274 -0.0039 -0.9996
vn -0.3798 0.9124 -0.1527
vn -0.7226 -0.0039 0.6913
vn -0.7225 -0.0039 0.6913
vn -0.9255 0.0118 -0.3785
vn -0.9254 0.0117 -0.3788
vn -0.9293 -0.0039 -0.3694
vn -0.9253 -0.0195 -0.3787
vn -0.9187 -0.0039 -0.3949
vn -0.0039 1.0000 -0.0039
vn 0.2640 0.7053 -0.6580
vn -0.3489 0.6468 -0.6782
vn -0.2924 0.4874 -0.8227
vn -0.7881 0.4353 -0.4352
vn -0.7260 0.6475 0.2315
vn -0.8660 0.4349 -0.2469
vn -0.7858 0.4887 0.3792
vn -0.2727 0.7074 0.6521
vn -0.7858 0.4886 0.3792
vn -0.9930 0.0973 0.0662
vn -0.7828 -0.4946 0.3777
vn -0.9923 -0.1051 0.0662
vn -0.7223 -0.6520 0.2304
vn -0.2712 -0.7113 0.6485
vn -0.7223 -0.6520 0.2303
vn -0.2712 -0.7113 0.6484
vn -0.8630 -0.4413 -0.2460
vn -0.3539 -0.6496 -0.6729
vn -0.7854 -0.4416 -0.4337
vn -0.2913 -0.4933 -0.8196
vn 0.2625 -0.7092 -0.6543
vn -0.2914 -0.4933 -0.8196
vn -0.6590 -0.1053 -0.7448
vn -0.6595 0.0976 -0.7454
vn -0.8542 -0.5188 -0.0351
vn -0.9413 -0.2929 0.1679
vn -0.8769 -0.4794 0.0351
vn -0.9184 -0.3713 0.1368
vn -0.6016 -0.4774 -0.6405
vn -0.5568 -0.3699 -0.7437
vn -0.6351 -0.5182 -0.5728
vn -0.5492 -0.2921 -0.7830
vn -0.5584 0.3632 -0.7459
vn -0.6038 0.4714 -0.6428
vn -0.5505 0.2850 -0.7847
vn -0.6377 0.5125 -0.5751
vn -0.8802 0.4734 0.0352
vn -0.9210 0.3645 0.1372
vn -0.8577 0.5130 -0.0352
vn -0.9434 0.2858 0.1683
vn -0.6902 -0.7058 0.1599
vn -0.8045 -0.4121 0.4278
vn -0.3788 -0.7068 -0.5975
vn -0.2696 -0.4102 -0.8712
vn -0.2705 0.4037 -0.8740
vn -0.3809 0.7029 -0.6007
vn -0.2704 0.4037 -0.8740
vn -0.6940 0.7018 0.1608
vn -0.8071 0.4055 0.4291
vn -0.9315 -0.2611 -0.2533
vn -0.9853 -0.1206 -0.1207
vn -0.9862 0.1130 -0.1208
vn -0.8410 -0.2620 -0.4733
vn -0.9333 0.2538 -0.2538
vn -0.8427 0.2547 -0.4743
vn -0.7868 0.1135 -0.6067
vn -0.7861 -0.1212 -0.6062
vn -0.9000 -0.3234 -0.2922
vn -0.9950 -0.0741 -0.0663
vn -0.8456 -0.3234 -0.4247
vn -0.9022 -0.3866 -0.1914
vn -0.9956 0.0664 -0.0664
vn -0.9858 -0.1675 0.0117
vn -0.9023 0.3164 -0.2929
vn -0.9871 0.1600 0.0117
vn -0.8477 0.3164 -0.4258
vn -0.9049 0.3800 -0.1919
vn -0.7545 0.0665 -0.6529
vn -0.7767 0.3786 -0.5035
vn -0.7541 -0.0742 -0.6525
vn -0.6940 0.1607 -0.7018
vn -0.6931 -0.1684 -0.7009
vn -0.7743 -0.3853 -0.5020
vt 0.387451 0.517822
vt 0.387451 0.485352
vt 0.793457 0.517822
vt 0.793457 0.485352
vt -0.199585 0.517822
vt -0.199585 0.485352
vt 0.654297 0.517822
vt 0.654297 0.485352
vt 0.206421 0.517822
vt 0.206421 0.485352
vt 0.612305 0.517822
vt 0.612305 0.485352
vt 0.345215 0.517822
vt 0.345215 0.485352
vt 1.199219 0.517822
vt 1.199219 0.485352
vt 0.390869 1.199341
vt 0.424805 1.165405
vt 0.789551 1.199585
vt 0.755859 1.165649
vt 0.793457 1.196045
vt 0.759277 1.162109
vt 0.793457 0.349121
vt 0.759277 0.382812
vt 0.789551 0.345703
vt 0.755859 0.379395
vt 0.390869 0.345703
vt 0.424805 0.379395
vt 0.387451 0.349121
vt 0.421387 0.382812
vt 0.387451 1.195801
vt 0.421387 1.161865
vt 0.572266 0.484863
vt 0.569336 0.490723
vt 0.246582 0.484863
vt 0.249146 0.490723
vt 1.159180 0.484863
vt 1.156250 0.490723
vt 0.385254 0.484863
vt 0.387939 0.490723
vt 0.752930 0.484863
vt 0.750488 0.490723
vt 0.427490 0.484863
vt 0.430176 0.490723
vt 0.614258 0.484863
vt 0.611816 0.490723
vt -0.159180 0.484863
vt -0.156616 0.490723
vt 0.434570 1.155884
vt 0.452881 1.137451
vt 0.746094 1.156006
vt 0.727539 1.137573
vt 0.749512 1.152466
vt 0.731445 1.134033
vt 0.749512 0.392578
vt 0.731445 0.411133
vt 0.746094 0.389160
vt 0.727539 0.407715
vt 0.434570 0.389160
vt 0.452881 0.407715
vt 0.430908 0.392578
vt 0.449463 0.411133
vt 0.430908 1.152344
vt 0.449463 1.133911
vt 0.545410 0.495117
vt 0.545410 0.516846
vt 0.273438 0.495117
vt 0.273438 0.516846
vt 1.131836 0.495117
vt 1.131836 0.516846
vt 0.412109 0.495117
vt 0.412109 0.516846
vt 0.726074 0.495117
vt 0.726074 0.516846
vt 0.454346 0.495117
vt 0.454346 0.516846
vt 0.587402 0.495117
vt 0.587402 0.516846
vt -0.132446 0.495117
vt -0.132446 0.516846
vt 1.201172 0.517822
vt 1.201172 0.485352
vt 0.390869 0.482910
vt 0.789551 0.482910
vt 0.795898 0.485352
vt 0.795898 0.517822
vt -0.196045 0.482910
vt 0.650879 0.482910
vt 0.656738 0.485352
vt 0.656738 0.517822
vt 0.209961 0.482910
vt 0.608887 0.482910
vt 0.614746 0.485352
vt 0.614746 0.517822
vt 0.348633 0.482910
vt 1.195312 0.482910
vt -0.161987 0.484863
vt -0.159302 0.490723
vt 0.246460 0.490723
vt 0.243896 0.484863
vt 0.385254 0.490723
vt 0.382568 0.484863
vt 0.614258 0.490723
vt 0.617188 0.484863
vt -0.134888 0.495117
vt -0.134888 0.516846
vt 0.270752 0.516846
vt 0.270752 0.495117
vt 0.409668 0.516846
vt 0.409668 0.495117
vt 0.451904 0.516846
vt 0.451904 0.495117
vt 0.385010 1.199341
vt 0.387451 1.201782
vt 0.424805 1.159180
vt 0.424805 0.385742
vt 0.427490 1.161987
vt 0.427490 0.382812
vt 0.752930 1.162109
vt 0.752930 0.382812
vt 0.385010 0.345703
vt 0.387451 0.343262
vt 0.755859 0.385742
vt 0.755859 1.159424
vt 0.793457 0.343262
vt 0.795898 0.345703
vt 0.795898 1.199585
vt 0.793457 1.202148
vt 0.430176 1.159302
vt 0.750488 1.159546
vt 0.427490 1.156616
vt 0.753418 1.156860
vt 0.427490 0.388184
vt 0.430176 0.385742
vt 0.750488 0.385742
vt 0.753418 0.388184
vt 0.729004 0.412598
vt 0.729004 1.132568
vt 0.726074 0.410156
vt 0.726074 1.135132
vt 0.454346 0.410156
vt 0.454346 1.134888
vt 0.451904 0.412598
vt 0.451904 1.132446
s 1
usemtl MASTER_Wood_Painted_Green
f 1/1/1 2/2/1 3/3/1
f 2/2/1 4/4/1 3/3/1
f 5/5/2 6/6/2 7/7/2
f 6/6/2 8/8/2 7/7/2
f 9/9/3 10/10/3 11/11/3
f 10/10/3 12/12/3 11/11/3
f 13/13/4 14/14/4 15/15/4
f 14/14/4 16/16/4 15/15/4
f 17/17/5 18/18/5 19/19/5
f 18/18/5 20/20/5 19/19/5
f 21/21/6 22/22/6 23/23/6
f 22/22/6 24/24/6 23/23/6
f 25/25/7 26/26/7 27/27/7
f 26/26/7 28/28/7 27/27/7
f 29/29/8 30/30/9 31/31/8
f 30/30/9 32/32/8 31/31/8
f 33/33/10 34/34/10 35/35/10
f 34/34/10 36/36/10 35/35/10
f 37/37/11 38/38/11 39/39/11
f 38/38/11 40/40/11 39/39/11
f 41/41/12 42/42/12 43/43/12
f 42/42/12 44/44/12 43/43/12
f 45/45/13 46/46/13 47/47/14
f 46/46/13 48/48/14 47/47/14
f 49/49/15 50/50/16 51/51/15
f 50/50/16 52/52/16 51/51/15
f 53/53/17 54/54/17 55/55/17
f 54/54/17 56/56/17 55/55/17
f 57/57/18 58/58/18 59/59/18
f 58/58/18 60/60/18 59/59/18
f 61/61/19 62/62/19 63/63/19
f 62/62/19 64/64/19 63/63/19
f 65/65/3 66/66/3 67/67/3
f 66/66/3 68/68/3 67/67/3
f 69/69/4 70/70/4 71/71/4
f 70/70/4 72/72/4 71/71/4
f 73/73/20 74/74/20 75/75/20
f 74/74/20 76/76/20 75/75/20
f 77/77/2 78/78/2 79/79/2
f 78/78/2 80/80/2 79/79/2
f 1/81/21 15/15/21 2/82/22
f 15/15/21 16/16/23 2/82/22
f 2/2/22 17/83/24 4/4/25
f 17/83/24 19/84/26 4/4/25
f 4/4/25 6/85/27 3/3/28
f 6/85/29 5/86/28 3/3/28
f 6/6/27 21/87/30 8/8/31
f 21/87/30 23/88/32 8/8/31
f 8/8/31 10/89/33 7/7/34
f 10/89/35 9/90/36 7/7/36
f 10/10/33 25/91/37 12/12/38
f 25/91/37 27/92/39 12/12/38
f 12/12/38 14/93/40 11/11/41
f 14/93/42 13/94/41 11/11/41
f 14/14/40 29/95/43 16/16/23
f 29/95/43 31/96/44 16/16/23
f 33/97/45 47/47/46 34/98/47
f 47/47/46 48/48/48 34/98/47
f 36/36/49 38/99/50 35/35/51
f 38/99/50 37/100/52 35/35/51
f 40/40/53 42/101/54 39/39/55
f 42/101/54 41/102/56 39/39/55
f 44/103/57 46/46/58 43/104/59
f 46/46/58 45/45/60 43/104/59
f 65/105/61 79/79/62 66/106/36
f 79/79/62 80/80/36 66/106/36
f 68/68/41 70/107/41 67/67/63
f 70/107/41 69/108/64 67/67/63
f 72/72/21 74/109/21 71/71/65
f 74/109/21 73/110/66 71/71/67
f 76/76/28 78/111/28 75/75/68
f 78/111/28 77/112/69 75/75/68
f 16/113/23 31/31/44 2/114/22
f 31/31/44 17/17/24 2/114/22
f 17/17/24 31/31/44 18/18/70
f 31/31/44 32/32/71 18/18/70
f 32/32/71 47/115/46 18/18/70
f 45/116/60 47/115/46 32/32/71
f 47/115/46 33/117/45 18/18/70
f 30/30/72 45/116/60 32/32/71
f 18/18/70 33/117/45 20/20/73
f 43/118/59 45/116/60 30/30/72
f 33/117/45 35/119/51 20/20/73
f 28/28/74 43/118/59 30/30/72
f 41/120/56 43/118/59 28/28/74
f 28/28/74 30/30/72 27/27/39
f 30/30/72 29/29/43 27/27/39
f 27/27/39 29/29/43 14/121/40
f 12/122/38 27/27/39 14/121/40
f 26/26/75 41/120/56 28/28/74
f 39/123/55 41/120/56 26/26/75
f 24/24/76 39/123/55 26/26/75
f 37/124/52 39/123/55 24/24/76
f 24/24/76 26/26/75 23/23/32
f 26/26/75 25/25/37 23/23/32
f 23/23/32 25/25/37 10/125/33
f 8/126/31 23/23/32 10/125/33
f 22/22/77 37/124/52 24/24/76
f 35/119/51 37/124/52 22/22/77
f 20/20/73 35/119/51 22/22/77
f 20/20/73 22/22/77 19/19/26
f 22/22/77 21/21/30 19/19/26
f 19/19/26 21/21/30 6/127/27
f 4/128/25 19/19/26 6/127/27
f 34/129/47 49/49/78 36/130/49
f 63/63/79 49/49/78 34/129/47
f 48/131/48 63/63/79 34/129/47
f 49/49/78 51/51/80 36/130/49
f 49/49/78 63/63/79 50/50/81
f 36/130/49 51/51/80 38/132/50
f 61/61/82 63/63/79 48/131/48
f 46/133/58 61/61/82 48/131/48
f 63/63/79 64/64/83 50/50/81
f 59/59/84 61/61/82 46/133/58
f 44/134/57 59/59/84 46/133/58
f 62/62/85 61/61/82 59/59/84
f 57/57/86 59/59/84 44/134/57
f 42/135/54 57/57/86 44/134/57
f 60/60/87 62/62/85 59/59/84
f 55/55/88 57/57/86 42/135/54
f 40/136/53 55/55/88 42/135/54
f 58/58/89 57/57/86 55/55/88
f 53/53/90 55/55/88 40/136/53
f 38/132/50 53/53/90 40/136/53
f 51/51/80 53/53/90 38/132/50
f 56/56/91 58/58/89 55/55/88
f 54/54/92 53/53/90 51/51/80
f 52/52/93 54/54/92 51/51/80
f 56/56/91 71/137/67 58/58/89
f 69/138/64 71/137/67 56/56/91
f 54/54/92 69/138/64 56/56/91
f 71/137/67 73/139/66 58/58/89
f 58/58/89 73/139/66 60/60/87
f 67/140/63 69/138/64 54/54/92
f 52/52/93 67/140/63 54/54/92
f 73/139/66 75/141/68 60/60/87
f 65/142/61 67/140/63 52/52/93
f 60/60/87 75/141/68 62/62/85
f 50/50/81 65/142/61 52/52/93
f 75/141/68 77/143/69 62/62/85
f 79/144/62 65/142/61 50/50/81
f 62/62/85 77/143/69 64/64/83
f 64/64/83 79/144/62 50/50/81
f 77/143/69 79/144/62 64/64/83
