# Blender 3.6.18
# www.blender.org
mtllib Mesh.451.mtl
o Bistro_Research_Exterior_paris_building_11_5667
v -2.712296 8.462290 22.278128
v -2.712295 11.027603 22.278128
v -2.475402 8.462258 22.372341
v -2.475401 11.027616 22.372343
v -3.063385 8.462292 22.552765
v -3.063387 11.027602 22.552773
v -3.001133 8.462292 22.400526
v -3.001135 11.027602 22.400532
v -3.054670 8.462292 22.573729
v -2.630045 8.462258 22.750614
v -3.054673 11.027602 22.573734
v -2.630047 11.027616 22.750620
v -2.741346 8.462288 22.279621
v -2.852046 8.462258 22.337427
v -2.741346 11.027604 22.279621
v -2.852046 11.027616 22.337433
v -2.979920 11.027604 22.380604
v -2.979918 8.462289 22.380598
v -2.213364 8.462290 21.057970
v -1.978329 8.462258 21.156727
v -2.213364 11.027603 21.057970
v -1.978329 11.027616 21.156729
v -2.271437 8.462292 20.616024
v -2.333688 8.462292 20.768259
v -2.271434 11.027602 20.616016
v -2.333685 11.027602 20.768253
v -2.250532 8.462292 20.607172
v -2.250529 11.027602 20.607164
v -1.823626 8.462258 20.778481
v -1.823623 11.027616 20.778475
v -2.233045 8.462288 21.036549
v -2.233044 11.027604 21.036549
v -2.271526 8.462258 20.917742
v -2.271523 11.027616 20.917740
v -2.332511 11.027604 20.797337
v -2.332513 8.462289 20.797342
v -2.837788 8.446255 22.344688
v -2.980330 8.446287 22.391926
v -2.837790 11.043617 22.344692
v -2.726259 11.043607 22.289793
v -2.980332 11.043604 22.391932
v -2.623987 11.043620 22.735813
v -3.048617 11.043604 22.558926
v -2.726260 8.446281 22.289795
v -3.048615 8.446285 22.558918
v -2.623985 8.446250 22.735806
v -1.829678 8.446250 20.793295
v -2.256588 8.446285 20.621983
v -2.256584 11.043604 20.621975
v -1.829674 11.043620 20.793287
v -2.256265 8.446255 20.922550
v -2.215154 8.446281 21.039862
v -2.215153 11.043607 21.039860
v -2.256263 11.043617 20.922546
v -2.324870 11.043604 20.788967
v -2.324873 8.446287 20.788973
v -2.556295 11.043658 22.570404
v -2.528510 11.043658 22.502224
v -2.481457 11.043621 22.387154
v -2.481457 8.446247 22.387152
v -2.528509 8.446159 22.502216
v -2.556291 8.446159 22.570393
v -1.972273 11.043621 21.141920
v -1.925220 11.043658 21.026850
v -1.897272 11.043658 20.958733
v -1.897276 8.446159 20.958746
v -1.925222 8.446159 21.026852
v -1.972273 8.446247 21.141918
vn 0.3653 -0.0039 -0.9309
vn -0.9255 -0.0039 -0.3788
vn -0.3882 -0.0039 0.9216
vn -0.4643 -0.0039 -0.8857
vn -0.3949 -0.0039 -0.9187
vn -0.3232 -0.0039 -0.9463
vn -0.9533 -0.0039 0.3021
vn -0.9255 -0.0039 0.3788
vn -0.8936 -0.0039 0.4488
vn -0.2916 -0.6027 -0.7428
vn -0.3156 -0.6350 -0.7051
vn -0.5268 -0.3629 -0.7687
vn -0.5104 -0.5883 -0.6272
vn -0.2930 0.5978 -0.7462
vn -0.3171 0.6303 -0.7086
vn -0.1917 0.4342 -0.8802
vn -0.0431 0.6620 -0.7482
vn -0.5282 0.3561 -0.7708
vn -0.5127 0.5832 -0.6301
vn -0.2800 0.7059 0.6507
vn -0.7185 0.4594 0.5222
vn -0.6068 0.7556 0.2466
vn -0.1910 -0.4406 -0.8772
vn -0.0429 -0.6664 -0.7444
vn -0.7159 -0.4655 0.5203
vn -0.6032 -0.7589 0.2452
vn -0.2784 -0.7098 0.6470
vn -0.2784 -0.7098 0.6471
vn 0.2612 -0.7056 -0.6588
vn -0.1439 -0.4627 -0.8748
vn -0.2525 -0.7575 -0.6021
vn -0.1444 0.4565 -0.8779
vn -0.2540 0.7541 -0.6057
vn 0.2626 0.7016 -0.6624
vn -0.2540 0.7541 -0.6056
vn -0.7285 -0.6039 0.3234
vn -0.7172 -0.6388 0.2783
vn -0.7499 -0.4436 0.4908
vn -0.5520 -0.6694 0.4972
vn -0.7525 0.4373 0.4925
vn -0.5549 0.6651 0.4998
vn -0.7320 0.5989 0.3249
vn -0.7208 0.6342 0.2797
vn -0.9180 0.3555 0.1758
vn -0.8089 0.5822 0.0821
vn -0.9154 -0.3623 0.1753
vn -0.8052 -0.5873 0.0817
vn -0.0039 1.0000 -0.0039
vn -0.0039 -1.0000 -0.0039
vn 0.2553 0.7030 -0.6638
vn 0.0903 0.4594 -0.8836
vn 0.0900 -0.4656 -0.8804
vn 0.2539 -0.7070 -0.6601
vn -0.5515 -0.4654 0.6923
vn -0.5535 0.4593 0.6948
vn -0.8766 -0.4636 0.1286
vn -0.8798 0.4575 0.1290
vn -0.7126 -0.4556 -0.5335
vn -0.7151 0.4494 -0.5354
vn -0.8855 0.4486 -0.1209
vn -0.5335 0.4556 -0.7126
vn -0.8824 -0.4548 -0.1205
vn -0.5316 -0.4618 -0.7101
vt 0.503418 -0.586914
vt 0.503418 0.214844
vt 0.423828 -0.586914
vt 0.423828 0.214844
vt 0.509277 -0.586914
vt 0.509277 0.214844
vt 0.458252 -0.586914
vt 0.458252 0.214844
vt 0.432129 -0.586914
vt 0.575684 -0.586914
vt 0.432129 0.214844
vt 0.575684 0.214844
vt 0.392578 -0.586914
vt 0.422363 -0.586914
vt 0.392578 0.214844
vt 0.422363 0.214844
vt 0.568848 0.214844
vt 0.537109 0.214844
vt 0.568848 -0.586914
vt 0.537109 -0.586914
vt 0.496094 -0.586914
vt 0.496094 0.214844
vt -0.144043 -0.586914
vt -0.092712 -0.586914
vt -0.144043 0.214844
vt -0.092712 0.214844
vt 0.567383 -0.586914
vt 0.567383 0.214844
vt -0.027023 -0.586914
vt -0.027023 0.214844
vt -0.056824 -0.586914
vt -0.056824 0.214844
vt 0.430908 0.214844
vt 0.430908 -0.586914
vt 0.462646 0.214844
vt 0.462646 -0.586914
vt 0.531738 -0.591797
vt 0.567383 -0.591797
vt 0.422363 0.462891
vt 0.422852 0.468262
vt 0.392578 0.488281
vt 0.393799 0.493652
vt 0.567383 0.219727
vt 0.531738 0.219727
vt 0.575684 0.219727
vt 0.432129 0.219727
vt 0.606934 0.488281
vt 0.605957 0.493652
vt 0.577148 0.462891
vt 0.576660 0.468262
vt 0.432129 -0.591797
vt 0.575684 -0.591797
vt 0.423828 -0.591797
vt 0.423828 0.219727
vt 1.056641 0.462891
vt 1.056641 0.468262
vt 1.026367 0.488281
vt 1.027344 0.493652
vt -0.027023 0.488281
vt -0.028183 0.493652
vt -0.056824 0.462891
vt -0.057251 0.468262
vt 0.467773 0.219727
vt 0.467773 -0.591797
vt 0.509766 0.432617
vt 0.510254 0.576172
vt 0.454834 0.576172
vt 0.453369 0.432617
vt 0.431641 0.576172
vt 0.392822 0.576172
vt 0.606934 0.576172
vt 0.567871 0.576172
vt 0.546387 0.432617
vt 0.544922 0.576172
vt 0.489990 0.432617
vt 0.489258 0.576172
vt -0.027390 0.576172
vt -0.066223 0.576172
vt -0.087769 0.432617
vt -0.089233 0.576172
vt -0.144043 0.432617
vt -0.145020 0.576172
vt 1.143555 0.432617
vt 1.144531 0.576172
vt 1.088867 0.576172
vt 1.086914 0.432617
vt 1.065430 0.576172
vt 1.027344 0.576172
vt 0.506348 0.219727
vt 0.511719 0.214844
vt 0.511719 -0.586914
vt 0.506348 -0.591797
vt 0.493408 -0.591797
vt 0.488037 -0.586914
vt 0.488037 0.214844
vt 0.493408 0.219727
vt 0.509766 -0.591797
vt 0.514648 -0.586914
vt 0.453369 -0.591797
vt 0.514648 0.214844
vt 0.449951 -0.586914
vt 0.509766 0.219727
vt 0.449951 0.214844
vt 0.453369 0.219727
vt -0.084412 0.214844
vt -0.087769 0.219727
vt -0.084412 -0.586914
vt -0.144043 0.219727
vt -0.087769 -0.591797
vt -0.149048 0.214844
vt -0.144043 -0.591797
vt -0.149048 -0.586914
s 1
usemtl MASTER_Concrete_Plaster
f 1/1/1 2/2/1 3/3/1
f 2/2/1 4/4/1 3/3/1
f 5/5/2 6/6/2 7/7/2
f 6/6/2 8/8/2 7/7/2
f 9/9/3 10/10/3 11/11/3
f 10/10/3 12/12/3 11/11/3
f 13/13/4 14/14/5 15/15/4
f 14/14/5 16/16/5 15/15/4
f 17/17/6 16/18/5 18/19/6
f 16/18/5 14/20/5 18/19/6
f 19/21/3 20/10/3 21/22/3
f 20/10/3 22/12/3 21/22/3
f 23/23/2 24/24/2 25/25/2
f 24/24/2 26/26/2 25/25/2
f 27/27/1 28/28/1 29/3/1
f 28/28/1 30/4/1 29/3/1
f 31/29/7 32/30/7 33/31/8
f 32/30/7 34/32/8 33/31/8
f 35/33/9 36/34/9 34/35/8
f 36/34/9 33/36/8 34/35/8
f 14/20/10 37/37/11 18/19/12
f 37/37/11 38/38/13 18/19/12
f 16/39/14 39/40/15 15/41/16
f 39/40/15 40/42/17 15/41/16
f 17/17/18 41/43/19 16/18/14
f 41/43/19 39/44/15 16/18/14
f 12/12/20 42/45/20 11/11/21
f 42/45/20 43/46/22 11/11/21
f 13/47/23 44/48/24 14/49/10
f 44/48/24 37/50/11 14/49/10
f 9/9/25 45/51/26 10/10/27
f 45/51/26 46/52/28 10/10/27
f 29/3/29 47/53/29 27/27/30
f 47/53/29 48/38/31 27/27/30
f 28/28/32 49/43/33 30/4/34
f 49/43/35 50/54/34 30/4/34
f 33/55/36 51/56/37 31/57/38
f 51/56/37 52/58/39 31/57/38
f 32/59/40 53/60/41 34/61/42
f 53/60/41 54/62/43 34/61/42
f 34/35/42 54/63/43 35/33/44
f 54/63/43 55/46/45 35/33/44
f 36/34/46 56/51/47 33/36/36
f 56/51/47 51/64/37 33/36/36
f 43/65/48 42/66/48 57/67/48
f 41/68/48 43/65/48 57/67/48
f 41/68/48 57/67/48 58/69/48
f 39/40/48 41/68/48 58/69/48
f 39/40/48 58/69/48 59/70/48
f 40/42/48 39/40/48 59/70/48
f 44/48/49 60/71/49 37/50/49
f 60/71/49 61/72/49 37/50/49
f 37/50/49 61/72/49 38/73/49
f 61/72/49 62/74/49 38/73/49
f 38/73/49 62/74/49 45/75/49
f 62/74/49 46/76/49 45/75/49
f 53/60/48 63/77/48 54/62/48
f 63/77/48 64/78/48 54/62/48
f 54/62/48 64/78/48 55/79/48
f 64/78/48 65/80/48 55/79/48
f 55/79/48 65/80/48 49/81/48
f 65/80/48 50/82/48 49/81/48
f 48/83/49 47/84/49 66/85/49
f 56/86/49 48/83/49 66/85/49
f 56/86/49 66/85/49 67/87/49
f 51/56/49 56/86/49 67/87/49
f 51/56/49 67/87/49 68/88/49
f 52/58/49 51/56/49 68/88/49
f 40/89/17 59/54/50 4/4/50
f 2/2/51 40/89/17 4/4/50
f 15/90/16 40/89/17 2/2/51
f 13/91/23 15/90/16 2/2/51
f 1/1/52 13/91/23 2/2/51
f 44/92/24 13/91/23 1/1/52
f 60/53/53 44/92/24 1/1/52
f 3/3/53 60/53/53 1/1/52
f 52/93/39 68/52/28 20/10/28
f 19/21/54 52/93/39 20/10/28
f 31/94/38 52/93/39 19/21/54
f 32/95/40 31/94/38 19/21/54
f 21/22/55 32/95/40 19/21/54
f 53/96/41 32/95/40 21/22/55
f 63/45/20 53/96/41 21/22/55
f 22/12/20 63/45/20 21/22/55
f 5/5/56 45/97/26 9/98/25
f 38/99/13 45/97/26 5/5/56
f 5/5/56 9/98/25 6/6/57
f 7/7/58 38/99/13 5/5/56
f 9/98/25 11/100/21 6/6/57
f 7/7/58 18/101/12 38/99/13
f 11/100/21 43/102/22 6/6/57
f 17/103/18 18/101/12 7/7/58
f 6/6/57 43/102/22 8/8/59
f 8/8/59 17/103/18 7/7/58
f 43/102/22 41/104/19 8/8/59
f 41/104/19 17/103/18 8/8/59
f 26/26/60 35/105/44 55/106/45
f 36/107/46 35/105/44 26/26/60
f 26/26/60 55/106/45 25/25/61
f 24/24/62 36/107/46 26/26/60
f 55/106/45 49/108/33 25/25/61
f 24/24/62 56/109/47 36/107/46
f 49/108/33 28/110/32 25/25/61
f 48/111/31 56/109/47 24/24/62
f 25/25/61 28/110/32 23/23/63
f 23/23/63 48/111/31 24/24/62
f 28/110/32 27/112/30 23/23/63
f 27/112/30 48/111/31 23/23/63
