# Blender 3.6.18
# www.blender.org
mtllib Mesh.043.mtl
o Bistro_Research_Exterior_Paris_Building_01_paris_buildi_e45b9eb
v 11.672156 5.294696 -27.189474
v 11.685829 5.284715 -27.177937
v 11.681270 5.294663 -27.200308
v 11.694942 5.284681 -27.188768
v 11.686028 5.264231 -27.177708
v 11.695142 5.264197 -27.188540
v 11.672551 5.253729 -27.189013
v 11.681665 5.253695 -27.199846
v 11.658878 5.263711 -27.200550
v 11.667994 5.263677 -27.211382
v 11.658680 5.284195 -27.200781
v 11.667795 5.284161 -27.211611
v 11.455282 5.295492 -26.931707
v 11.441809 5.284990 -26.943016
v 11.446171 5.295524 -26.920877
v 11.432695 5.285023 -26.932184
v 11.442006 5.264506 -26.942785
v 11.432894 5.264539 -26.931953
v 11.455679 5.254524 -26.931250
v 11.446566 5.254557 -26.920418
v 11.469155 5.265025 -26.919945
v 11.460041 5.265059 -26.909113
v 11.468957 5.285510 -26.920174
v 11.459843 5.285543 -26.909342
v 11.454000 5.239522 -26.932364
v 11.463886 5.239485 -26.944117
v 11.466375 5.244108 -26.921963
v 11.476265 5.244072 -26.933714
v 11.475352 5.256164 -26.914446
v 11.485243 5.256127 -26.926199
v 11.478523 5.272458 -26.911829
v 11.488413 5.272421 -26.923582
v 11.476555 5.476031 -26.914114
v 11.486591 5.460727 -26.925695
v 11.585208 5.460366 -27.042908
v 11.585061 5.475633 -27.043079
v 11.436912 5.459777 -26.967491
v 11.535529 5.459416 -27.084703
v 11.461752 5.460251 -26.946594
v 11.560369 5.459891 -27.063807
v 11.535382 5.474683 -27.084873
v 11.426876 5.475080 -26.955910
v 11.560223 5.475158 -27.063976
v 11.451715 5.475556 -26.935011
v 11.671011 5.238726 -27.190294
v 11.661121 5.238763 -27.178537
v 11.648660 5.242875 -27.189037
v 11.658547 5.242838 -27.200790
v 11.639452 5.254582 -27.196819
v 11.649342 5.254546 -27.208574
v 11.635967 5.270750 -27.199802
v 11.645857 5.270713 -27.211555
v 11.634147 5.459054 -27.201916
v 11.643888 5.474285 -27.213839
v 11.693567 5.475235 -27.172045
v 11.668727 5.474760 -27.192942
v 11.451426 5.243598 -26.954613
v 11.441536 5.243633 -26.942862
v 11.442219 5.255305 -26.962395
v 11.432329 5.255341 -26.950644
v 11.438735 5.271471 -26.965380
v 11.428844 5.271508 -26.953625
v 11.683388 5.243313 -27.179893
v 11.673500 5.243350 -27.168140
v 11.692365 5.255368 -27.172377
v 11.682475 5.255405 -27.160622
v 11.695536 5.271663 -27.169760
v 11.685646 5.271699 -27.158007
v 11.683826 5.460003 -27.160120
v 11.658987 5.459528 -27.181017
v 11.453685 5.271982 -26.932728
v 11.670696 5.271187 -27.190659
v 11.463573 5.271946 -26.944481
v 11.660807 5.271224 -27.178904
vn 0.3827 0.8687 0.3145
vn 0.7662 0.0093 0.6425
vn 0.3932 -0.8566 0.3340
vn 0.3932 -0.8567 0.3340
vn -0.3725 -0.8747 -0.3101
vn -0.7640 -0.0199 -0.6449
vn -0.7640 -0.0200 -0.6449
vn -0.3901 0.8574 -0.3357
vn 0.0164 -0.9998 0.0093
vn 0.6666 -0.4897 0.5620
vn 0.7597 -0.1239 0.6383
vn -0.0084 0.9999 -0.0067
vn -0.0084 0.9999 -0.0066
vn -0.6550 -0.5184 -0.5498
vn -0.7557 -0.1539 -0.6366
vn 0.3931 -0.8567 0.3340
vn 0.6468 -0.0034 -0.7627
vn 0.6468 -0.0034 -0.7626
vn -0.6407 -0.0072 0.7678
vn -0.6407 -0.0071 0.7678
vt 0.256104 0.292480
vt 0.256104 0.318359
vt 0.238403 0.292480
vt 0.238403 0.318359
vt 0.333740 0.281738
vt 0.333740 0.307129
vt 0.316162 0.281738
vt 0.316162 0.307129
vt 0.259033 0.337402
vt 0.259033 0.363281
vt 0.241455 0.337402
vt 0.241455 0.363281
vt 0.284424 0.336914
vt 0.284424 0.311035
vt 0.302246 0.336914
vt 0.302246 0.311035
vt 0.296631 0.253906
vt 0.296631 0.228027
vt 0.314209 0.253906
vt 0.314209 0.228027
vt 0.332275 0.260254
vt 0.332275 0.234375
vt 0.350098 0.260254
vt 0.350098 0.234375
vt 0.995117 0.410645
vt 0.976074 0.410645
vt 0.995117 0.389648
vt 0.976074 0.389648
vt 0.995605 0.368652
vt 0.976074 0.368652
vt 0.995605 0.347656
vt 0.976074 0.347656
vt 0.995117 0.093262
vt 0.975586 0.112305
vt 0.784180 0.112305
vt 0.784180 0.093262
vt 0.987793 0.078125
vt 0.819824 0.078125
vt 0.987793 0.042969
vt 0.819824 0.042969
vt 0.987793 0.007324
vt 0.819824 0.007324
vt 0.503418 0.387207
vt 0.662598 0.387207
vt 0.503418 0.417969
vt 0.662598 0.417969
vt 0.503418 0.448730
vt 0.662598 0.448730
vt 0.820801 0.234375
vt 0.801270 0.234375
vt 0.801270 0.255371
vt 0.820801 0.255371
vt 0.801758 0.276367
vt 0.820801 0.276367
vt 0.801758 0.297363
vt 0.820801 0.297363
vt 0.801270 0.532715
vt 0.820312 0.551758
vt 0.609863 0.551758
vt 0.609863 0.532715
vt 0.252197 0.277344
vt 0.230103 0.264648
vt 0.230103 0.238770
vt 0.252197 0.226074
vt 0.274414 0.238770
vt 0.274414 0.264648
vt 0.832520 0.377441
vt 0.832520 0.123047
vt 0.872559 0.123047
vt 0.872559 0.377441
vt 0.837891 0.397949
vt 0.913574 0.123047
vt 0.852539 0.412598
vt 0.913574 0.377441
vt 0.872559 0.417969
vt 0.908203 0.397949
vt 0.893066 0.412598
vt 0.987305 0.894348
vt 0.758789 0.894348
vt 0.987305 0.855225
vt 0.758789 0.815796
vt 0.987305 0.815796
vt 0.758789 0.855225
vt 0.739258 0.889099
vt 0.739258 0.821045
vt 0.724609 0.874756
vt 0.724609 0.835327
vt 0.719238 0.855103
s 1
usemtl MASTER_Focus
f 1/1/1 2/2/1 3/3/1
f 2/2/1 4/4/1 3/3/1
f 2/5/2 5/6/2 4/7/2
f 5/6/2 6/8/2 4/7/2
f 5/9/3 7/10/3 6/11/3
f 7/10/3 8/12/3 6/11/4
f 7/13/5 9/14/5 8/15/5
f 9/14/5 10/16/5 8/15/5
f 9/17/6 11/18/6 10/19/6
f 11/18/7 12/20/7 10/19/7
f 11/21/8 1/22/8 12/23/8
f 1/22/8 3/24/8 12/23/8
f 13/1/8 14/2/8 15/3/8
f 14/2/8 16/4/8 15/3/8
f 14/5/6 17/6/6 16/7/6
f 17/6/6 18/8/6 16/7/6
f 17/9/5 19/10/5 18/11/5
f 19/10/5 20/12/5 18/11/5
f 19/13/3 21/14/4 20/15/3
f 21/14/3 22/16/3 20/15/3
f 21/17/2 23/18/2 22/19/2
f 23/18/2 24/20/2 22/19/2
f 23/21/1 13/22/1 24/23/1
f 13/22/1 15/24/1 24/23/1
f 25/25/9 26/26/9 27/27/4
f 26/26/9 28/28/3 27/27/4
f 27/27/4 28/28/3 29/29/10
f 28/28/3 30/30/10 29/29/10
f 29/29/10 30/30/10 31/31/11
f 30/30/10 32/32/11 31/31/11
f 31/31/11 32/32/11 33/33/2
f 32/32/11 34/34/2 33/33/2
f 34/34/2 35/35/2 33/33/2
f 35/35/2 36/36/2 33/33/2
f 37/37/9 38/38/9 39/39/9
f 38/38/9 40/40/9 39/39/9
f 34/41/9 39/39/9 40/40/9
f 35/42/9 34/41/9 40/40/9
f 41/43/12 42/44/12 43/45/12
f 42/44/12 44/46/12 43/45/12
f 43/45/12 44/46/12 36/47/12
f 44/46/12 33/48/13 36/47/12
f 45/49/9 46/50/9 47/51/5
f 48/52/5 45/49/9 47/51/5
f 48/52/5 47/51/5 49/53/14
f 50/54/14 48/52/5 49/53/14
f 50/54/14 49/53/14 51/55/15
f 52/56/15 50/54/14 51/55/15
f 52/56/15 51/55/15 53/57/6
f 54/58/6 52/56/15 53/57/6
f 41/59/7 54/58/6 53/57/6
f 38/60/7 41/59/7 53/57/6
f 36/47/12 55/48/12 56/46/12
f 43/45/12 36/47/12 56/46/12
f 43/45/12 56/46/12 54/44/12
f 41/43/12 43/45/12 54/44/12
f 57/51/5 26/50/9 25/49/9
f 58/52/5 57/51/5 25/49/9
f 59/53/14 57/51/5 58/52/5
f 60/54/14 59/53/14 58/52/5
f 61/55/15 59/53/14 60/54/14
f 62/56/15 61/55/15 60/54/14
f 37/57/6 61/55/15 62/56/15
f 42/58/6 37/57/6 62/56/15
f 37/57/6 42/58/6 41/59/7
f 38/60/7 37/57/6 41/59/7
f 45/25/9 63/27/16 46/26/9
f 63/27/16 64/28/4 46/26/9
f 63/27/16 65/29/10 64/28/4
f 65/29/10 66/30/10 64/28/4
f 65/29/10 67/31/11 66/30/10
f 67/31/11 68/32/11 66/30/10
f 67/31/11 55/33/2 68/32/11
f 55/33/2 69/34/2 68/32/11
f 69/34/2 55/33/2 35/35/2
f 55/33/2 36/36/2 35/35/2
f 53/37/9 70/39/9 38/38/9
f 70/39/9 40/40/9 38/38/9
f 40/40/9 70/39/9 69/41/9
f 35/42/9 40/40/9 69/41/9
f 8/61/17 10/62/18 12/63/17
f 3/64/18 8/61/17 12/63/17
f 3/64/18 4/65/18 8/61/17
f 4/65/18 6/66/18 8/61/17
f 20/61/19 22/62/19 24/63/19
f 15/64/19 20/61/19 24/63/19
f 15/64/19 16/65/19 20/61/19
f 16/65/19 18/66/19 20/61/19
f 31/67/19 33/68/19 44/69/19
f 71/70/20 31/67/19 44/69/19
f 29/71/19 31/67/19 71/70/20
f 71/70/20 44/69/19 42/72/19
f 27/73/19 29/71/19 71/70/20
f 62/74/19 71/70/20 42/72/19
f 25/75/19 27/73/19 71/70/20
f 71/70/20 62/74/19 60/76/20
f 25/75/19 71/70/20 58/77/19
f 71/70/20 60/76/20 58/77/19
f 56/69/17 55/68/17 67/67/17
f 72/70/18 56/69/17 67/67/17
f 54/72/18 56/69/17 72/70/18
f 65/71/18 72/70/18 67/67/17
f 52/74/18 54/72/18 72/70/18
f 63/73/18 72/70/18 65/71/18
f 72/70/18 50/76/17 52/74/18
f 45/75/17 72/70/18 63/73/18
f 72/70/18 48/77/18 50/76/17
f 45/75/17 48/77/18 72/70/18
f 34/78/18 32/79/18 39/80/18
f 61/81/17 37/82/18 39/80/18
f 32/79/18 73/83/18 39/80/18
f 73/83/18 61/81/17 39/80/18
f 73/83/18 32/79/18 30/84/18
f 59/85/17 61/81/17 73/83/18
f 73/83/18 30/84/18 28/86/17
f 59/85/17 73/83/18 57/87/18
f 73/83/18 28/86/17 26/88/17
f 73/83/18 26/88/17 57/87/18
f 69/78/20 70/80/19 68/79/19
f 70/80/19 53/82/19 51/81/19
f 70/80/19 74/83/19 68/79/19
f 74/83/19 70/80/19 51/81/19
f 74/83/19 66/84/20 68/79/19
f 49/85/20 74/83/19 51/81/19
f 74/83/19 64/86/20 66/84/20
f 49/85/20 47/87/20 74/83/19
f 74/83/19 46/88/20 64/86/20
f 74/83/19 47/87/20 46/88/20
