# Blender 3.6.18
# www.blender.org
mtllib Mesh.1086.mtl
o Bistro_Research_Exterior_Paris_Building_01_paris_buildi_b62c023
v 2.067294 11.138927 2.632192
v 2.074572 11.124375 2.643265
v 2.084685 11.135025 2.647233
v 2.063623 8.004407 2.630781
v 2.064413 7.995027 2.641133
v 2.074574 8.004407 2.643265
v 2.070759 7.995027 2.667485
v 2.089476 7.987661 2.684731
v 2.081862 8.004407 2.673526
v 4.035031 10.837214 3.432408
v 4.024706 10.856448 3.420627
v 4.013629 10.846729 3.415405
v 4.081889 11.386866 3.450415
v 4.091529 11.384025 3.444072
v 4.082774 11.393405 3.440707
v 4.002585 10.874398 3.375978
v 4.003866 10.860454 3.385250
v 4.014229 10.871179 3.388267
v 1.944425 11.393403 2.200161
v 1.804219 11.393403 2.565052
v 4.222827 11.393404 3.076062
v 1.935670 11.384023 2.196796
v 1.935670 10.811211 2.196795
v 1.795464 11.384023 2.561687
v 1.795464 10.811211 2.561687
v 1.944425 10.801830 2.200161
v 1.997513 10.801831 2.220568
v 1.804219 10.801830 2.565051
v 1.857766 10.801831 2.585629
v 2.006268 10.792452 2.223934
v 2.006270 7.926636 2.223935
v 1.866527 10.792452 2.588996
v 1.865986 7.926635 2.588826
v 2.277993 11.040879 2.328402
v 2.138265 11.040879 2.693429
v 2.277995 7.926636 2.328403
v 2.137726 7.926636 2.693259
v 2.286747 11.050259 2.331767
v 3.880060 11.050261 2.944285
v 2.147016 11.050259 2.696791
v 3.740397 11.050261 3.309129
v 3.888816 7.926638 2.947651
v 3.748617 7.926638 3.312326
v 3.888815 11.040880 2.947650
v 3.749158 11.040881 3.312495
v 4.151419 10.792454 3.048614
v 4.011317 10.792454 3.413247
v 4.151419 7.926638 3.048614
v 4.011299 7.926638 3.413278
v 4.160174 10.801832 3.051979
v 4.222827 10.801832 3.076062
v 4.020073 10.801832 3.416611
v 4.082774 10.801832 3.440707
v 4.231582 11.384025 3.079427
v 4.231582 10.811213 3.079427
v 4.091529 10.811213 3.444072
v 4.014229 11.297104 3.388267
v 4.024706 11.314842 3.420627
v 3.940924 10.860454 3.361061
v 3.954505 10.846729 3.392684
v 3.928611 10.851180 3.354746
v 3.928612 8.004409 3.354747
v 3.943820 10.835807 3.390161
v 3.943822 8.004408 3.390162
v 3.917853 7.995029 3.353464
v 3.846985 7.995029 3.326216
v 3.930128 7.995029 3.382046
v 3.824617 7.995029 3.341494
v 3.838013 8.004408 3.320986
v 3.838012 11.124378 3.320985
v 3.812306 8.004408 3.338544
v 3.812304 11.107270 3.338543
v 3.827830 11.135027 3.317162
v 3.802290 11.118027 3.334605
v 2.091927 11.118026 2.677313
v 2.081859 11.107269 2.673525
v 1.968201 7.995027 2.604146
v 1.939869 7.995027 2.617181
v 1.959353 8.004407 2.597893
v 1.959350 10.864709 2.597891
v 1.924263 8.004407 2.614037
v 1.924260 10.849327 2.614036
v 1.945969 10.873981 2.594336
v 1.892243 10.873981 2.573688
v 1.914637 10.860247 2.608751
v 1.864750 10.860247 2.589580
v 1.882529 10.884704 2.568988
v 1.882529 11.297098 2.568988
v 1.853026 10.869964 2.586041
v 1.853027 11.314848 2.586042
v 1.892521 11.308010 2.573360
v 4.003879 11.308013 3.384823
v 1.864127 11.325089 2.589776
v 4.013963 11.325091 3.415965
v 4.181538 10.801832 3.117998
v 4.076707 10.801832 3.390839
v 4.181538 7.926638 3.117998
v 4.076689 7.926638 3.390870
v 1.891152 7.926638 2.561142
v 1.891171 10.801832 2.561111
v 1.839494 7.927216 2.541258
v 1.838171 10.837206 2.540744
v 1.834105 7.927313 2.529133
v 1.834104 10.842165 2.529132
v 1.890491 7.927313 2.382387
v 1.890490 10.842165 2.382387
v 3.850273 11.138922 3.317431
v 1.976629 8.004407 2.597337
v 3.916156 8.004409 3.342762
v 3.854513 8.004408 3.319061
v 1.798441 10.808299 2.572879
v 1.869496 10.808314 2.600185
v 1.909411 10.849205 2.615525
v 1.838564 10.849220 2.588299
v 1.910141 7.987816 2.615809
v 2.129157 11.057333 2.699976
v 3.752009 11.056872 3.323640
v 3.953541 7.988217 3.401096
v 3.798600 7.988157 3.341548
v 4.000522 10.806791 3.419147
v 4.080730 10.806785 3.449970
v 4.033872 11.336850 3.431963
v 1.797944 11.386419 2.572689
v 3.954953 10.837205 3.401635
v 3.922332 10.873982 3.345136
v 2.089805 11.105743 2.684854
v 1.868221 7.933846 2.599730
v 1.871375 7.926635 2.600946
v 3.751210 7.933509 3.323367
v 3.754006 7.926638 3.324445
v 4.004885 11.296454 3.376862
v 4.065912 10.806791 3.396739
v 4.012912 10.842165 3.376371
v 4.012913 7.927313 3.376372
v 4.064572 7.926734 3.396256
v 1.971315 10.887164 2.595295
v 1.899404 10.887920 2.567659
v 1.897370 11.296777 2.566877
v 1.839061 11.337294 2.588489
v 2.125605 7.926636 2.698649
v 4.001918 7.933449 3.419718
v 3.999179 7.926638 3.418669
v 3.798349 11.106207 3.341447
v 2.128942 7.934003 2.699927
vn -0.3976 0.0197 0.9173
vn -0.7948 0.0039 0.6069
vn -0.1854 0.8874 0.4220
vn -0.3653 -0.0039 0.9309
vn -0.3882 0.7253 0.5685
vn -0.3359 0.7707 0.5415
vn -0.8278 0.0039 0.5610
vn -0.7668 0.0354 0.6409
vn -0.4912 0.5541 0.6720
vn 0.6520 0.3438 0.6758
vn -0.0824 0.8440 0.5299
vn -0.4594 0.5222 0.7185
vn -0.7555 0.0431 0.6537
vn -0.0039 1.0000 -0.0039
vn -0.9319 -0.0039 -0.3626
vn -0.0039 -1.0000 -0.0039
vn 0.9335 -0.0039 0.3584
vn 0.9335 -0.0040 0.3584
vn -0.9533 -0.0039 0.3021
vn -0.1777 0.8730 0.4543
vn -0.9216 -0.0039 0.3882
vn 0.5647 -0.0039 0.8253
vn -0.2011 0.8322 0.5167
vn -0.2012 0.8322 0.5167
vn -0.9730 -0.0039 0.2306
vn -0.9731 -0.0039 0.2306
vn 0.4138 -0.0039 0.9104
vn -0.1778 0.8730 0.4543
vn -0.1777 0.8730 0.4542
vn 0.5016 -0.0039 0.8651
vn 0.5017 -0.0040 0.8651
vn -0.1998 -0.8346 0.5133
vn -0.4923 -0.0039 0.8704
vn -0.1536 0.8862 0.4372
vn -0.3256 0.0196 0.9453
vn -0.1066 0.7225 0.6831
vn -0.4138 0.7211 0.5556
vn -0.0591 0.7291 0.6818
vn -0.3653 -0.0040 0.9309
vn -0.6332 -0.7574 -0.1593
vn -0.6384 -0.7559 -0.1449
vn -0.1064 0.5794 0.8081
vn -0.1066 0.5174 0.8491
vn -0.1295 0.7576 0.6398
vn -0.0352 -0.8486 0.5279
vn -0.3325 -0.8489 0.4108
vn -0.3499 0.7665 0.5385
vn -0.0981 0.7813 0.6164
vn 0.5635 -0.7684 0.3034
vn 0.5680 -0.7717 0.2860
vn -0.7665 -0.0433 0.6408
vn -0.3022 0.8438 0.4435
vn -0.9370 0.3489 0.0196
vn -0.6638 0.7030 -0.2553
vn 0.6606 0.7081 0.2493
vn 0.6521 0.3438 0.6757
vn 0.6606 0.7081 0.2492
vn -0.6601 -0.7071 -0.2536
vn -0.9344 -0.3558 0.0195
vn -0.6600 -0.7071 -0.2536
vn -0.6601 -0.7070 -0.2538
vn -0.6601 -0.7070 -0.2539
vn -0.9801 -0.1054 0.1679
vn 0.6288 -0.0989 0.7712
vn 0.6570 -0.7120 0.2478
vn 0.6288 -0.0989 0.7713
vn -0.3325 -0.8490 0.4107
vn -0.9782 -0.0974 0.1832
vn 0.5651 -0.1067 0.8181
vn 0.6569 -0.7120 0.2478
vn 0.1855 0.0039 0.9826
vn 0.2082 0.0039 0.9781
vn 0.1061 0.0039 0.9943
vn -0.9309 -0.0039 0.3653
vn -0.7340 0.0039 0.6791
vn -0.7601 0.0039 0.6498
vn -0.7562 0.0039 0.6543
vn -0.4615 0.6113 0.6429
vn -0.4597 0.4989 0.7347
vn -0.3198 0.5409 0.7779
vn -0.9748 -0.0039 0.2231
vn 0.6503 -0.3508 0.6739
vn -0.3716 -0.0509 0.9270
vn -0.7552 -0.0509 0.6535
vn -0.3092 -0.5675 0.7631
vn -0.3185 -0.5465 0.7745
vn -0.2248 -0.0039 0.9744
vn -0.2249 -0.0040 0.9744
vn 0.4393 -0.0040 0.8983
vn -0.2249 -0.0039 0.9744
vn 0.1081 0.0039 0.9941
vn -0.1226 0.4705 0.8738
vn -0.1297 0.5308 0.8375
vn 0.1138 0.0431 0.9926
vn 0.1534 0.0432 0.9872
vn 0.1137 -0.0510 0.9922
vn -0.3580 -0.0511 0.9323
vn -0.2931 -0.5667 0.7700
vn 0.1533 -0.0511 0.9869
vn -0.2952 -0.5471 0.7833
vn -0.3585 -0.0039 0.9335
vn 0.5226 -0.0039 0.8526
vn -0.3584 -0.0039 0.9335
vn -0.2965 0.5416 0.7866
vn 0.1844 0.0039 0.9828
vn 0.5931 -0.0039 0.8052
vn 0.5931 -0.0039 0.8051
vt 0.480469 0.636475
vt 0.475342 0.633057
vt 0.478516 0.629395
vt 0.015030 0.672363
vt 0.011276 0.670410
vt 0.014351 0.666992
vt 0.011528 0.668945
vt 0.008537 0.661133
vt 0.014221 0.664795
vt 0.071655 0.290039
vt 0.069092 0.282715
vt 0.074280 0.282715
vt 0.031799 0.671631
vt 0.028091 0.671631
vt 0.030502 0.668213
vt 0.043335 0.657715
vt 0.041870 0.662354
vt 0.038422 0.660400
vt 0.673828 0.538330
vt 0.664062 0.660645
vt -0.089539 0.478516
vt -0.099182 0.600342
vt 0.133545 0.481445
vt 0.133545 0.671875
vt 0.019302 0.481445
vt 0.019302 0.671875
vt 0.066406 0.207031
vt 0.067078 0.188477
vt 0.192261 0.211426
vt 0.192871 0.192871
vt 0.730469 0.569824
vt -0.222412 0.569824
vt 0.730469 0.455566
vt -0.222412 0.455566
vt 1.261719 0.428711
vt 1.261719 0.543213
vt 0.223999 0.428711
vt 0.223999 0.543213
vt 0.541504 0.329102
vt 0.006790 0.309082
vt 0.545898 0.206543
vt 0.011177 0.186523
vt 0.224243 0.476562
vt 0.224243 0.362305
vt 1.259766 0.476562
vt 1.259766 0.362305
vt 0.734375 0.376953
vt 0.734375 0.491699
vt -0.220215 0.376953
vt -0.220215 0.491699
vt 0.454834 0.183594
vt 0.475830 0.182617
vt 0.459717 0.305664
vt 0.480713 0.305176
vt 0.093811 0.338379
vt -0.020599 0.338379
vt 0.093811 0.147461
vt -0.020599 0.147461
vt 0.009544 0.221680
vt 0.009544 0.081543
vt 0.020523 0.227539
vt 0.020523 0.076660
vt 0.063599 0.662354
vt 0.035461 0.671387
vt 0.055878 0.671387
vt 0.751953 0.400391
vt -0.148315 0.400391
vt 0.747070 0.388672
vt -0.148315 0.388672
vt 0.452637 0.649414
vt 0.477783 0.649414
vt 0.445557 0.656738
vt 0.482666 0.656738
vt -0.335205 -0.104492
vt 0.699219 -0.104492
vt -0.335205 -0.095703
vt 0.693359 -0.095703
vt -0.043182 0.640625
vt 0.591309 0.641846
vt -0.037201 0.649170
vt 0.584961 0.650635
vt 1.197266 0.606934
vt 0.190430 0.606934
vt 1.191406 0.596924
vt 0.190430 0.596924
vt 0.448486 0.664062
vt 0.483154 0.664062
vt 0.443359 0.671631
vt 0.490479 0.671631
vt -0.335205 0.481934
vt 0.612793 0.481934
vt -0.335205 0.494141
vt 0.607910 0.494141
vt 0.445801 0.631592
vt 0.465088 0.631592
vt 0.453857 0.639893
vt 0.471680 0.639893
vt 0.619629 0.505859
vt 0.756348 0.505859
vt 0.614746 0.516357
vt 0.762207 0.516357
vt 0.630859 0.681396
vt -0.143921 0.652588
vt 0.638184 0.672852
vt -0.150635 0.643555
vt 0.711914 0.670166
vt 0.711914 0.755859
vt -0.246216 0.670166
vt -0.246216 0.755859
vt 0.243530 0.631348
vt 1.201172 0.631348
vt 0.243774 0.647461
vt 1.212891 0.647949
vt 0.267334 0.535645
vt 1.187500 0.535645
vt 0.267334 0.585205
vt 1.187500 0.585205
vt -0.050323 0.637939
vt 0.598633 0.639404
vt 0.449951 0.660889
vt 0.481445 0.660889
vt 1.202148 0.610596
vt 0.190430 0.611328
vt 0.014015 0.367676
vt 0.017975 0.370117
vt 0.013802 0.392578
vt 0.017776 0.391602
vt 0.195190 0.212402
vt 0.196045 0.187988
vt 0.433105 0.653809
vt 0.437500 0.653564
vt 0.432861 0.677734
vt 0.437256 0.670410
vt 0.435303 0.674805
vt 0.500000 0.674805
vt 0.551270 0.203613
vt 0.006256 0.183594
vt 0.436035 0.659912
vt 0.490723 0.659912
vt 0.454346 0.309082
vt 0.481201 0.308105
vt 0.024597 0.234375
vt 0.024796 0.070312
vt -0.100220 0.603271
vt 0.665039 0.663574
vt 0.666992 0.660889
vt 0.676758 0.538574
vt -0.092468 0.478027
vt -0.102112 0.600098
vt 0.149414 0.643555
vt 0.149414 0.647705
vt 0.027344 0.643555
vt 0.027344 0.647705
vt 0.067200 0.185547
vt 0.192993 0.189941
vt 0.464355 0.248047
vt 0.460205 0.248047
vt 0.464355 0.125977
vt 0.460205 0.125977
vt 0.003851 0.309082
vt 0.008232 0.186523
vt 0.354980 0.273926
vt 0.354980 0.269531
vt 0.474854 0.275879
vt 0.474854 0.271484
vt 0.008125 0.078125
vt 0.018356 0.073730
vt 0.480957 0.648926
vt 0.486816 0.657471
vt 0.445068 0.663574
vt 0.438965 0.672119
vt 0.040741 0.647705
vt 0.042450 0.643555
vt 0.050507 0.647705
vt 0.054535 0.643555
vt 1.185547 0.532715
vt 0.267334 0.532715
vt 0.015572 0.480469
vt 0.017822 0.478516
vt 0.015488 0.672852
vt 0.017822 0.675049
vt 0.747559 0.383789
vt -0.153442 0.384277
vt -0.151367 0.392578
vt -0.151367 0.402344
vt -0.148315 0.405762
vt 0.759277 0.404297
vt 0.027069 0.675049
vt 0.054688 0.675049
vt 0.059357 0.673584
vt 0.067993 0.663330
vt 1.201172 0.605225
vt 1.195312 0.595215
vt 1.191406 0.592773
vt 0.185059 0.593018
vt 0.733398 0.457031
vt 0.735840 0.451660
vt -0.219971 0.452148
vt -0.222412 0.451660
vt 1.262695 0.363770
vt 1.264648 0.358398
vt 0.226440 0.358398
vt 0.224243 0.357910
vt 0.363037 0.279297
vt 0.363037 0.283691
vt 0.360107 0.280762
vt 0.482910 0.285645
vt 0.483154 0.281250
vt 0.005436 0.221191
vt 0.005051 0.082520
vt 0.007980 0.225098
vt 0.018555 0.230469
vt 0.708496 0.761841
vt 0.720215 0.778320
vt -0.244019 0.778320
vt -0.244141 0.762329
vt -0.244263 0.758057
vt 0.707031 0.758057
vt -0.338379 0.479492
vt -0.335205 0.476562
vt 0.620605 0.478027
vt -0.335205 0.449219
vt 0.704102 0.448242
vt 0.616211 0.486328
vt 0.611328 0.497070
vt 0.607910 0.499023
vt 0.616211 0.502930
vt 0.620605 0.500244
vt -0.340820 0.499023
vt -0.338379 0.489258
vt 0.611328 0.512695
vt 0.607910 0.521240
vt 0.756348 0.500977
vt 0.760254 0.502930
vt 0.760254 -0.156250
vt 0.765625 0.512939
vt 0.756348 -0.157227
vt 0.704102 -0.108398
vt 0.769531 0.520996
vt 0.769531 -0.164062
vt 0.765625 -0.158203
vt 0.762207 -0.162109
vt 0.594238 0.533691
vt 0.786133 0.533936
vt 0.594238 0.511475
vt 0.786133 -0.178711
vt -0.358643 0.511963
vt 0.604004 -0.165039
vt -0.361084 0.510986
vt -0.361084 0.431641
vt 0.595215 -0.182617
vt 0.785156 -0.182617
vt 0.593750 -0.178711
vt 0.604004 -0.139648
vt 0.593750 -0.153320
vt -0.340576 -0.138672
vt 0.588867 -0.157227
vt 0.592285 -0.160156
vt -0.361084 -0.157227
vt -0.358887 -0.154297
vt -0.361084 -0.153320
vt -0.340576 -0.090820
vt -0.361084 -0.077148
vt -0.358887 -0.076172
vt -0.338379 -0.099609
vt 0.692871 -0.090820
vt 0.676758 -0.076172
vt 0.692871 0.442871
vt 0.676758 0.430664
vt 0.696777 -0.091797
vt 0.696777 0.441895
vt 0.702637 -0.101562
vt -0.340820 0.442871
vt 0.671387 0.427246
vt 0.674316 0.424805
vt -0.361084 0.427246
vt -0.358643 0.430664
vt -0.335205 -0.110352
vt -0.338379 -0.107422
vt -0.335205 -0.128906
vt 0.616211 -0.130859
vt 0.616211 -0.156250
vt 0.611816 -0.136719
vt 0.611816 -0.156250
vt 0.608398 -0.132812
s 1
usemtl MASTER_Concrete_Smooth
f 1/1/1 2/2/2 3/3/3
f 4/4/4 5/5/5 6/6/2
f 7/7/6 8/8/4 9/9/7
f 10/10/4 11/11/8 12/12/9
f 13/13/4 14/14/10 15/15/11
f 16/16/4 17/17/12 18/18/13
f 19/19/14 20/20/14 21/21/14
f 20/20/14 15/22/14 21/21/14
f 22/23/15 23/24/15 24/25/15
f 23/24/15 25/26/15 24/25/15
f 26/27/16 27/28/16 28/29/16
f 27/28/16 29/30/16 28/29/16
f 30/31/15 31/32/15 32/33/15
f 31/32/15 33/34/15 32/33/15
f 34/35/17 35/36/17 36/37/17
f 35/36/17 37/38/17 36/37/17
f 38/39/16 39/40/16 40/41/16
f 39/40/16 41/42/16 40/41/16
f 42/43/15 43/44/15 44/45/15
f 43/44/15 45/46/15 44/45/15
f 46/47/18 47/48/18 48/49/18
f 47/48/18 49/50/18 48/49/18
f 50/51/16 51/52/16 52/53/16
f 51/52/16 53/54/16 52/53/16
f 54/55/17 14/56/17 55/57/17
f 14/56/17 56/58/17 55/57/17
f 57/59/19 18/60/19 58/61/19
f 18/60/19 11/62/19 58/61/19
f 17/17/20 59/63/20 12/64/20
f 59/63/20 60/65/20 12/64/20
f 61/66/21 62/67/21 63/68/21
f 62/67/21 64/69/21 63/68/21
f 65/70/14 66/71/14 67/72/14
f 66/71/14 68/73/14 67/72/14
f 69/74/22 70/75/22 71/76/22
f 70/75/22 72/77/22 71/76/22
f 73/78/23 3/79/23 74/80/24
f 3/79/23 75/81/24 74/80/24
f 2/82/25 6/83/26 76/84/25
f 6/83/26 9/85/26 76/84/25
f 5/86/14 77/87/14 7/88/14
f 77/87/14 78/89/14 7/88/14
f 79/90/27 80/91/27 81/92/27
f 80/91/27 82/93/27 81/92/27
f 83/94/28 84/95/29 85/96/28
f 84/95/29 86/97/28 85/96/28
f 87/98/30 88/99/31 89/100/31
f 88/99/31 90/101/30 89/100/31
f 91/102/32 92/103/32 93/104/32
f 92/103/32 94/105/32 93/104/32
f 95/106/18 96/107/18 97/108/18
f 96/107/17 98/109/17 97/108/17
f 99/110/4 100/111/4 101/112/33
f 100/111/4 102/113/33 101/112/33
f 103/114/15 104/115/15 105/116/15
f 104/115/15 106/117/15 105/116/15
f 73/78/34 107/118/35 3/79/3
f 107/118/35 1/119/1 3/79/3
f 5/86/5 4/120/4 77/87/36
f 4/120/4 108/121/4 77/87/36
f 2/82/2 1/122/1 6/83/2
f 1/122/1 4/123/4 6/83/2
f 65/124/37 109/125/4 66/126/38
f 109/125/4 110/127/39 66/126/38
f 111/128/4 28/29/40 112/129/4
f 28/29/40 29/30/41 112/129/4
f 113/130/4 85/131/42 114/132/4
f 85/131/42 86/133/43 114/132/4
f 8/134/4 7/88/6 115/135/4
f 7/88/6 78/89/44 115/135/4
f 116/136/4 40/41/45 117/137/4
f 40/41/45 41/42/46 117/137/4
f 118/138/4 67/72/47 119/139/4
f 67/72/47 68/73/48 119/139/4
f 120/140/4 52/53/49 121/141/4
f 52/53/49 53/54/50 121/141/4
f 122/142/4 58/61/51 10/143/4
f 58/61/51 11/62/8 10/143/4
f 13/144/4 15/22/11 123/145/4
f 15/22/11 20/20/52 123/145/4
f 24/146/53 20/20/52 22/147/54
f 20/20/52 19/19/54 22/147/54
f 54/148/55 21/21/55 14/149/56
f 21/21/57 15/22/11 14/149/10
f 23/150/58 26/151/58 25/152/59
f 26/151/60 28/153/40 25/152/59
f 27/28/61 30/154/61 29/30/41
f 30/154/62 32/155/63 29/30/41
f 40/156/45 35/157/64 38/158/65
f 35/157/66 34/159/65 38/158/65
f 39/40/62 44/160/62 41/42/67
f 44/160/61 45/161/68 41/42/46
f 52/162/49 47/163/69 50/164/65
f 47/163/69 46/165/70 50/164/70
f 18/60/13 17/166/12 11/62/8
f 17/166/12 12/167/9 11/62/8
f 66/71/38 69/168/71 68/73/48
f 69/168/71 71/169/72 68/73/48
f 6/170/2 5/86/5 9/171/7
f 5/86/5 7/88/6 9/171/7
f 77/172/36 79/173/73 78/174/44
f 79/173/73 81/175/73 78/174/44
f 102/176/33 104/115/74 101/177/33
f 104/115/74 103/114/74 101/177/33
f 123/178/4 20/179/52 24/25/53
f 123/178/4 24/25/53 111/180/4
f 24/25/53 25/26/59 111/180/4
f 25/26/59 28/181/40 111/180/4
f 124/182/4 63/68/75 118/183/4
f 63/68/75 64/69/75 118/183/4
f 67/184/47 118/183/4 64/69/75
f 65/185/37 67/184/47 64/69/75
f 62/67/76 65/185/37 64/69/75
f 65/185/37 62/67/76 109/186/4
f 125/187/4 109/186/4 62/67/76
f 61/66/77 125/187/4 62/67/76
f 10/188/4 12/64/9 124/189/4
f 12/64/9 60/65/78 124/189/4
f 63/190/75 124/189/4 60/65/78
f 61/191/77 63/190/75 60/65/78
f 59/63/79 61/191/77 60/65/78
f 3/192/3 2/82/2 75/193/80
f 2/82/2 76/84/7 75/193/80
f 76/84/7 126/194/4 75/193/80
f 126/194/4 76/84/7 8/195/4
f 76/84/7 9/85/7 8/195/4
f 29/196/41 32/33/63 112/197/4
f 112/197/4 32/33/63 127/198/39
f 32/33/63 33/34/81 127/198/39
f 128/199/4 127/198/39 33/34/81
f 41/200/46 45/46/68 117/201/4
f 117/201/4 45/46/68 129/202/39
f 45/46/68 43/44/25 129/202/39
f 130/203/4 129/202/39 43/44/25
f 53/204/50 56/205/82 121/206/4
f 56/205/82 53/204/50 55/207/65
f 53/204/50 51/208/65 55/207/65
f 131/209/83 16/210/4 18/60/13
f 57/59/84 131/209/83 18/60/13
f 131/209/83 57/59/84 92/211/85
f 92/211/85 57/59/84 94/212/86
f 57/59/84 58/61/51 94/212/86
f 132/213/87 133/214/4 134/215/4
f 135/216/88 132/213/87 134/215/4
f 135/216/88 98/217/89 132/213/87
f 98/217/89 96/218/89 132/213/90
f 79/90/73 77/219/36 108/220/4
f 79/90/73 108/220/4 80/91/91
f 108/220/4 136/221/4 80/91/91
f 136/221/4 108/220/4 4/222/4
f 1/223/1 136/221/4 4/222/4
f 136/221/4 83/224/92 80/91/91
f 80/91/91 83/224/92 82/93/73
f 83/224/92 85/225/42 82/93/73
f 85/225/42 113/226/4 82/93/73
f 83/224/92 136/221/4 84/227/93
f 81/92/73 82/93/73 113/226/4
f 136/221/4 137/228/4 84/227/93
f 81/92/73 115/229/4 78/230/44
f 115/229/4 81/92/73 113/226/4
f 87/98/94 84/227/93 137/228/4
f 84/227/93 87/98/94 86/231/43
f 87/98/94 89/100/95 86/231/43
f 87/98/94 137/228/4 88/99/96
f 89/100/95 114/232/4 86/231/43
f 137/228/4 138/233/97 88/99/96
f 138/233/97 137/228/4 136/221/4
f 1/223/1 138/233/97 136/221/4
f 138/233/97 91/234/98 88/99/96
f 88/99/96 91/234/98 90/101/99
f 91/234/98 138/233/97 92/235/85
f 91/234/98 93/236/100 90/101/99
f 138/233/97 131/237/83 92/235/85
f 138/233/97 1/223/1 131/237/83
f 1/223/1 107/238/35 131/237/83
f 89/100/95 90/101/99 139/239/4
f 93/236/100 139/239/4 90/101/99
f 114/232/4 89/100/95 139/239/4
f 139/239/4 93/236/100 122/240/4
f 93/236/100 94/241/86 122/240/4
f 58/242/51 122/240/4 94/241/86
f 111/243/4 114/232/4 139/239/4
f 123/244/4 111/243/4 139/239/4
f 123/244/4 139/239/4 122/240/4
f 111/243/4 112/245/4 114/232/4
f 13/246/4 123/244/4 122/240/4
f 112/245/4 113/226/4 114/232/4
f 112/245/4 127/247/39 113/226/4
f 13/246/4 122/240/4 10/248/4
f 127/247/39 115/229/4 113/226/4
f 127/247/39 128/249/4 115/229/4
f 128/249/4 140/250/101 115/229/4
f 56/251/82 14/252/10 13/246/4
f 121/253/4 56/251/82 13/246/4
f 121/253/4 13/246/4 10/248/4
f 121/253/4 10/248/4 124/254/4
f 120/255/4 121/253/4 124/254/4
f 120/255/4 124/254/4 118/256/4
f 47/257/69 52/258/49 120/255/4
f 49/259/102 47/257/69 120/255/4
f 141/260/39 120/255/4 118/256/4
f 141/260/39 49/259/102 120/255/4
f 49/259/102 141/260/39 142/261/103
f 141/260/39 118/256/4 119/262/4
f 142/261/103 141/260/39 119/262/4
f 130/263/4 142/261/103 119/262/4
f 129/264/39 130/263/4 119/262/4
f 71/76/72 119/262/4 68/265/48
f 129/264/39 119/262/4 143/266/4
f 119/262/4 71/76/72 143/266/4
f 117/267/4 129/264/39 143/266/4
f 71/76/72 72/77/72 143/266/4
f 117/267/4 143/266/4 126/268/4
f 116/269/4 117/267/4 126/268/4
f 74/270/104 143/266/4 72/77/72
f 143/266/4 74/270/104 126/268/4
f 74/270/104 75/271/80 126/268/4
f 73/272/34 74/270/104 72/77/72
f 70/75/105 73/272/34 72/77/72
f 116/269/4 126/268/4 8/273/4
f 73/272/34 70/75/105 107/238/35
f 35/274/64 40/275/45 116/269/4
f 37/276/106 35/274/64 116/269/4
f 144/277/4 116/269/4 8/273/4
f 144/277/4 37/276/106 116/269/4
f 144/277/4 8/273/4 115/229/4
f 37/276/107 144/277/4 140/250/101
f 140/250/101 144/277/4 115/229/4
f 110/278/39 107/238/35 70/75/105
f 69/74/71 110/278/39 70/75/105
f 69/74/71 66/279/38 110/278/39
f 110/278/39 109/280/4 107/238/35
f 109/280/4 125/281/4 107/238/35
f 107/238/35 125/281/4 131/237/83
f 125/281/4 16/282/4 131/237/83
f 16/282/4 125/281/4 59/283/79
f 17/284/12 16/282/4 59/283/79
f 125/281/4 61/285/77 59/283/79
