# Blender 3.6.18
# www.blender.org
mtllib Mesh.874.mtl
o Bistro_Research_Exterior_Paris_Building_01_paris_buildi_281c752
v -0.310439 2.097738 1.494439
v -0.310437 3.918427 1.494440
v -0.350994 3.918574 1.410147
v -0.343619 4.021284 1.425465
v -0.350995 2.097591 1.410146
v -0.343620 1.994881 1.425464
v -0.359293 3.934816 1.392895
v -0.359295 2.081348 1.392894
v -0.375449 3.953351 1.359311
v -0.352290 4.031395 1.407440
v -0.368767 3.905287 1.401483
v -0.373998 3.920900 1.393514
v -0.385981 3.970449 1.337420
v -0.357092 4.039243 1.397457
v -0.360788 4.049360 1.389774
v -0.391327 3.940895 1.357490
v -0.394231 3.992445 1.320270
v -0.402978 3.959605 1.334027
v -0.405499 4.055686 1.296847
v -0.367293 4.090313 1.376252
v -0.411258 4.157758 1.284861
v -0.411682 3.983474 1.315173
v -0.414880 3.958537 1.338618
v -0.411394 4.064318 1.284593
v -0.593358 4.157758 0.906328
v -0.419234 4.039966 1.290995
v -0.593232 4.064318 0.906602
v -0.637323 4.090314 0.814937
v -0.424826 4.049240 1.282542
v -0.438127 4.039966 1.294641
v -0.599128 4.055686 0.894347
v -0.643828 4.049361 0.801415
v -0.603158 4.049241 0.917097
v -0.610396 3.992445 0.870925
v -0.647524 4.039243 0.793732
v -0.603128 4.039967 0.908732
v -0.618646 3.970449 0.853774
v -0.652327 4.031395 0.783749
v -0.617306 3.983474 0.887740
v -0.629177 3.953352 0.831883
v -0.660998 4.021285 0.765724
v -0.626604 3.959605 0.869172
v -0.645334 3.934817 0.798299
v -0.694179 3.918428 0.696749
v -0.637664 3.940896 0.845425
v -0.628736 3.982595 0.894561
v -0.653633 3.918575 0.781047
v -0.620673 4.034450 0.916280
v -0.637619 3.958538 0.875607
v -0.619292 4.042820 0.925124
v -0.624076 4.033604 0.935433
v -0.443873 4.043332 1.284645
v -0.453171 4.033603 1.290697
v -0.424146 3.982594 1.319847
v -0.442104 3.972764 1.313704
v -0.635145 3.972765 0.912426
v -0.432300 3.946585 1.334083
v -0.644949 3.946585 0.892046
v -0.403630 3.939686 1.362490
v -0.419825 3.926167 1.360014
v -0.386183 3.919558 1.398753
v -0.384967 3.905285 1.407199
v -0.401760 3.905324 1.397566
v -0.657423 3.926168 0.866116
v -0.675488 3.905325 0.828564
v -0.401762 2.110841 1.397565
v -0.384968 2.110881 1.407198
v -0.368768 2.110878 1.401482
v -0.374000 2.095265 1.393512
v -0.386185 2.096607 1.398752
v -0.375451 2.062814 1.359310
v -0.352291 1.984770 1.407439
v -0.403631 2.076479 1.362489
v -0.385982 2.045716 1.337418
v -0.357094 1.976923 1.397456
v -0.391328 2.075270 1.357488
v -0.394232 2.023721 1.320268
v -0.360790 1.966805 1.389773
v -0.402980 2.056561 1.334026
v -0.405500 1.960480 1.296845
v -0.367295 1.925852 1.376251
v -0.411260 1.858408 1.284860
v -0.411684 2.032692 1.315172
v -0.411395 1.951848 1.284591
v -0.593360 1.858408 0.906326
v -0.419236 1.973873 1.293061
v -0.593234 1.951848 0.906600
v -0.637325 1.925852 0.814936
v -0.424828 1.966925 1.287796
v -0.436900 1.978173 1.298633
v -0.438129 1.971818 1.290637
v -0.424147 2.033571 1.319845
v -0.453172 1.982563 1.290695
v -0.603160 1.966926 0.917095
v -0.619294 1.971966 0.924502
v -0.442105 2.043401 1.313702
v -0.624078 1.982563 0.935432
v -0.620581 1.981115 0.916531
v -0.603130 1.976200 0.908730
v -0.599129 1.960480 0.894346
v -0.643830 1.966805 0.801413
v -0.610397 2.023721 0.870923
v -0.617307 2.032693 0.887739
v -0.618647 2.045717 0.853773
v -0.647526 1.976923 0.793730
v -0.652328 1.984771 0.783748
v -0.628738 2.033572 0.894560
v -0.629179 2.062814 0.831881
v -0.660999 1.994882 0.765723
v -0.626606 2.056561 0.869171
v -0.645335 2.081349 0.798297
v -0.694181 2.097738 0.696748
v -0.637666 2.075271 0.845424
v -0.637621 2.057629 0.875605
v -0.654996 2.095266 0.809401
v -0.649251 2.076480 0.851915
v -0.644950 2.069582 0.892045
v -0.635146 2.043401 0.912425
v -0.432301 2.069581 1.334082
v -0.657425 2.089998 0.866114
v -0.414882 2.057628 1.338616
v -0.419827 2.089998 1.360013
v -0.675489 2.110842 0.828563
v -0.666695 2.096608 0.815651
v -0.672534 3.905285 0.809430
v -0.672535 2.110881 0.809429
v -0.657958 2.110879 0.800339
v -0.666693 3.919559 0.815653
v -0.657956 3.905288 0.800340
v -0.653634 2.097591 0.781045
v -0.654995 3.920900 0.809402
v -0.649249 3.939687 0.851917
vn -0.9044 -0.0039 0.4268
vn -0.9044 -0.0039 0.4267
vn -0.4425 -0.0039 0.8967
vn -0.5481 0.5954 0.5875
vn -0.5480 0.5954 0.5875
vn -0.4993 0.5465 0.6723
vn -0.4996 0.2478 0.8301
vn -0.5395 0.5159 0.6655
vn -0.4996 0.2479 0.8300
vn -0.7011 0.6306 0.3329
vn -0.4037 0.2705 0.8740
vn -0.9594 0.2467 -0.1371
vn -0.8393 0.5426 -0.0351
vn -0.8041 0.5923 0.0510
vn -0.9543 0.2298 -0.1909
vn -0.9543 0.2298 -0.1908
vn -0.8582 0.5133 -0.0039
vn -0.2944 0.9458 0.1374
vn -0.2943 0.9458 0.1374
vn -0.4037 0.2704 0.8740
vn -0.8920 0.0118 0.4519
vn -0.9146 0.0118 0.4043
vn -0.8917 0.0275 0.4517
vn -0.9143 0.0275 0.4042
vn -0.5721 0.5720 0.5878
vn -0.8931 0.0351 0.4485
vn -0.5720 0.5721 0.5878
vn -0.4982 -0.0040 0.8670
vn -0.8967 -0.0039 0.4425
vn -0.9111 0.0352 0.4106
vn -0.9117 -0.0039 0.4109
vn -0.8968 -0.0039 0.4425
vn -0.4983 -0.0040 0.8670
vn -0.4425 -0.0039 0.8968
vn -0.5455 -0.6004 0.5847
vn -0.5695 -0.5773 0.5852
vn -0.4972 -0.5520 0.6694
vn -0.4361 -0.2632 0.8605
vn -0.4362 -0.2633 0.8605
vn -0.6748 -0.6670 0.3159
vn -0.4576 -0.2386 0.8566
vn -0.2781 -0.9518 0.1293
vn -0.4576 -0.2385 0.8566
vn -0.9044 -0.0040 0.4267
vn -0.2781 -0.9518 0.1292
vn -0.8919 -0.0196 0.4519
vn -0.9526 -0.2372 -0.1905
vn -0.9575 -0.2540 -0.1368
vn -0.9575 -0.2540 -0.1367
vn -0.8357 -0.5480 -0.0350
vn -0.8004 -0.5974 0.0508
vn -0.8547 -0.5191 -0.0039
vn -0.8004 -0.5974 0.0507
vn -0.8157 -0.5737 0.0742
vn -0.9140 -0.0353 0.4041
vn -0.9144 -0.0196 0.4042
vn -0.8915 -0.0354 0.4516
vn -0.9109 -0.0430 0.4105
vn -0.5373 -0.5216 0.6628
vn -0.8928 -0.0429 0.4484
vn -0.8157 -0.5737 0.0741
vn -0.9883 -0.0039 -0.1523
vn -0.9883 -0.0039 -0.1524
vn -0.9748 -0.0039 -0.2231
vn -0.8194 0.5684 0.0745
vn -0.9748 -0.0039 -0.2232
vn -0.8193 0.5685 0.0745
vt 0.787109 0.343262
vt 0.212646 0.343262
vt 0.212280 0.313477
vt 0.178833 0.319824
vt 0.787598 0.313477
vt 0.820801 0.319824
vt 0.205811 0.307617
vt 0.793945 0.307617
vt 0.198853 0.295898
vt 0.174561 0.312988
vt 0.216553 0.307617
vt 0.210938 0.304688
vt 0.193237 0.288086
vt 0.171265 0.308594
vt 0.167480 0.305176
vt 0.203613 0.291992
vt 0.186523 0.281738
vt 0.197754 0.283691
vt 0.167114 0.271484
vt 0.154785 0.298340
vt 0.135010 0.265137
vt 0.190552 0.277344
vt 0.200562 0.281250
vt 0.164551 0.265625
vt 0.135010 0.132812
vt 0.172729 0.268555
vt 0.164429 0.131836
vt 0.154663 0.099121
vt 0.170776 0.264648
vt 0.175415 0.264160
vt 0.166992 0.126465
vt 0.167480 0.092773
vt 0.170654 0.133789
vt 0.186523 0.116211
vt 0.171265 0.088867
vt 0.172729 0.129395
vt 0.193237 0.109863
vt 0.174561 0.084961
vt 0.190552 0.120605
vt 0.198853 0.102051
vt 0.178833 0.078125
vt 0.197754 0.113770
vt 0.205811 0.090332
vt 0.212646 0.054688
vt 0.203613 0.105957
vt 0.193359 0.123535
vt 0.212280 0.083984
vt 0.177979 0.132324
vt 0.200562 0.116699
vt 0.175415 0.133789
vt 0.179077 0.137207
vt 0.175415 0.259766
vt 0.179077 0.260742
vt 0.193359 0.274414
vt 0.197754 0.269043
vt 0.197754 0.128906
vt 0.205566 0.276367
vt 0.205566 0.121582
vt 0.206543 0.289551
vt 0.211792 0.285156
vt 0.213135 0.301758
vt 0.217407 0.303223
vt 0.217651 0.298340
vt 0.211792 0.112305
vt 0.217651 0.099609
vt 0.782227 0.298340
vt 0.782227 0.303223
vt 0.783203 0.307617
vt 0.789062 0.304688
vt 0.786621 0.301758
vt 0.800781 0.295898
vt 0.825195 0.312988
vt 0.793457 0.289551
vt 0.806641 0.288086
vt 0.828613 0.308594
vt 0.796387 0.291992
vt 0.813477 0.281738
vt 0.832520 0.305176
vt 0.802246 0.283691
vt 0.832520 0.271484
vt 0.845215 0.298340
vt 0.864746 0.265137
vt 0.809082 0.277344
vt 0.835449 0.265625
vt 0.864746 0.132812
vt 0.827148 0.268555
vt 0.835449 0.131836
vt 0.845215 0.099121
vt 0.829102 0.264648
vt 0.822754 0.265137
vt 0.824219 0.264160
vt 0.806641 0.274414
vt 0.820801 0.260742
vt 0.829102 0.133789
vt 0.824219 0.133789
vt 0.802246 0.269043
vt 0.820801 0.137207
vt 0.821777 0.132324
vt 0.827148 0.129395
vt 0.833008 0.126465
vt 0.832520 0.092773
vt 0.813477 0.116211
vt 0.809082 0.120605
vt 0.806641 0.109863
vt 0.828613 0.088867
vt 0.825195 0.084961
vt 0.806641 0.123535
vt 0.800781 0.102051
vt 0.820801 0.078125
vt 0.802246 0.113770
vt 0.793945 0.090332
vt 0.787109 0.054688
vt 0.796387 0.105957
vt 0.799316 0.116699
vt 0.789062 0.093262
vt 0.793457 0.108398
vt 0.794434 0.121582
vt 0.802246 0.128906
vt 0.794434 0.276367
vt 0.788086 0.112305
vt 0.799316 0.281250
vt 0.788086 0.285156
vt 0.782227 0.099609
vt 0.786621 0.096191
vt 0.217407 0.094238
vt 0.782227 0.094238
vt 0.783203 0.089844
vt 0.213135 0.096191
vt 0.216553 0.089844
vt 0.787598 0.083984
vt 0.210938 0.093262
vt 0.206543 0.108398
s 1
usemtl MASTER_Wood_Painted3
f 1/1/1 2/2/2 3/3/2
f 2/2/2 4/4/2 3/3/2
f 5/5/2 1/1/1 3/3/2
f 1/1/1 5/5/2 6/6/2
f 4/4/2 7/7/2 3/3/2
f 5/5/2 8/8/2 6/6/2
f 7/7/2 4/4/2 9/9/2
f 4/4/2 10/10/2 9/9/2
f 3/3/2 7/7/2 11/11/3
f 5/5/2 3/3/2 11/11/3
f 7/7/2 9/9/2 12/12/4
f 7/7/2 12/12/4 11/11/3
f 9/9/2 10/10/2 13/13/2
f 10/10/2 14/14/2 13/13/2
f 14/14/2 15/15/2 13/13/2
f 9/9/2 13/13/2 16/16/5
f 9/9/2 16/16/5 12/12/4
f 15/15/2 17/17/2 13/13/2
f 13/13/2 18/18/6 16/16/5
f 13/13/2 17/17/2 18/18/6
f 17/17/2 15/15/2 19/19/1
f 15/15/2 20/20/2 19/19/1
f 20/20/2 21/21/2 19/19/1
f 17/17/2 22/22/7 18/18/6
f 17/17/2 19/19/1 22/22/7
f 16/16/5 18/18/6 23/23/8
f 18/18/6 22/22/7 23/23/8
f 21/21/2 24/24/2 19/19/1
f 24/24/2 21/21/2 25/25/2
f 19/19/1 26/26/9 22/22/7
f 19/19/1 24/24/2 26/26/9
f 27/27/2 24/24/2 25/25/2
f 25/25/2 28/28/2 27/27/2
f 24/24/2 29/29/10 26/26/9
f 24/24/2 27/27/2 29/29/10
f 22/22/7 26/26/9 30/30/11
f 26/26/9 29/29/10 30/30/11
f 28/28/2 31/31/1 27/27/2
f 31/31/1 28/28/2 32/32/2
f 27/27/2 33/33/10 29/29/10
f 34/34/2 31/31/1 32/32/2
f 34/34/2 32/32/2 35/35/2
f 31/31/1 36/36/12 27/27/2
f 31/31/1 34/34/2 36/36/12
f 36/36/12 33/33/10 27/27/2
f 37/37/2 34/34/2 35/35/2
f 37/37/2 35/35/2 38/38/2
f 34/34/2 39/39/12 36/36/12
f 34/34/2 37/37/2 39/39/12
f 40/40/2 37/37/2 38/38/2
f 40/40/2 38/38/2 41/41/2
f 37/37/2 42/42/13 39/39/12
f 37/37/2 40/40/2 42/42/13
f 43/43/2 40/40/2 41/41/2
f 41/41/2 44/44/2 43/43/2
f 40/40/2 45/45/14 42/42/13
f 40/40/2 43/43/2 45/45/14
f 46/46/15 39/39/12 42/42/13
f 44/44/2 47/47/2 43/43/2
f 39/39/12 46/46/15 48/48/16
f 36/36/12 39/39/12 48/48/16
f 49/49/17 46/46/15 42/42/13
f 49/49/17 42/42/13 45/45/14
f 48/48/16 50/50/18 36/36/12
f 50/50/18 33/33/10 36/36/12
f 48/48/16 46/46/15 51/51/1
f 51/51/1 50/50/18 48/48/16
f 33/33/10 50/50/18 52/52/19
f 29/29/10 33/33/10 52/52/19
f 29/29/10 52/52/19 30/30/11
f 52/52/19 50/50/18 53/53/2
f 30/30/11 52/52/19 53/53/2
f 50/50/18 51/51/1 53/53/2
f 54/54/20 30/30/11 53/53/2
f 54/54/20 22/22/7 30/30/11
f 22/22/7 54/54/20 23/23/8
f 55/55/21 53/53/2 51/51/1
f 55/55/21 54/54/20 53/53/2
f 46/46/15 56/56/22 51/51/1
f 56/56/22 55/55/21 51/51/1
f 56/56/22 46/46/15 49/49/17
f 54/54/20 55/55/21 57/57/23
f 23/23/8 54/54/20 57/57/23
f 55/55/21 56/56/22 58/58/24
f 58/58/24 56/56/22 49/49/17
f 57/57/23 55/55/21 58/58/24
f 59/59/25 23/23/8 57/57/23
f 59/59/25 16/16/5 23/23/8
f 12/12/4 16/16/5 59/59/25
f 60/60/26 59/59/25 57/57/23
f 60/60/26 57/57/23 58/58/24
f 61/61/27 12/12/4 59/59/25
f 61/61/27 59/59/25 60/60/26
f 61/61/27 62/62/28 12/12/4
f 62/62/28 11/11/3 12/12/4
f 63/63/29 61/61/27 60/60/26
f 63/63/29 62/62/28 61/61/27
f 64/64/30 60/60/26 58/58/24
f 63/63/29 60/60/26 65/65/31
f 60/60/26 64/64/30 65/65/31
f 63/63/29 66/66/32 62/62/28
f 66/66/32 63/63/29 65/65/31
f 62/62/28 67/67/33 11/11/3
f 66/66/32 67/67/33 62/62/28
f 67/67/33 68/68/34 11/11/3
f 68/68/34 5/5/2 11/11/3
f 5/5/2 68/68/34 8/8/2
f 69/69/35 68/68/34 67/67/33
f 68/68/34 69/69/35 8/8/2
f 66/66/32 70/70/36 67/67/33
f 70/70/36 69/69/35 67/67/33
f 8/8/2 69/69/35 71/71/2
f 8/8/2 71/71/2 6/6/2
f 71/71/2 72/72/2 6/6/2
f 70/70/36 73/73/36 69/69/35
f 71/71/2 74/74/2 72/72/2
f 74/74/2 75/75/2 72/72/2
f 69/69/35 76/76/35 71/71/2
f 71/71/2 76/76/35 74/74/2
f 73/73/36 76/76/35 69/69/35
f 74/74/2 77/77/1 75/75/2
f 77/77/1 78/78/2 75/75/2
f 76/76/35 79/79/37 74/74/2
f 77/77/1 80/80/2 78/78/2
f 80/80/2 81/81/2 78/78/2
f 81/81/2 80/80/2 82/82/2
f 83/83/38 77/77/1 74/74/2
f 77/77/1 83/83/38 80/80/2
f 79/79/37 83/83/38 74/74/2
f 80/80/2 84/84/2 82/82/2
f 85/85/2 82/82/2 84/84/2
f 83/83/38 86/86/39 80/80/2
f 80/80/2 86/86/39 84/84/2
f 87/87/2 85/85/2 84/84/2
f 85/85/2 87/87/2 88/88/2
f 86/86/39 89/89/40 84/84/2
f 84/84/2 89/89/40 87/87/2
f 86/86/39 83/83/38 90/90/41
f 91/91/42 89/89/40 86/86/39
f 90/90/41 91/91/42 86/86/39
f 83/83/38 92/92/43 90/90/41
f 92/92/43 83/83/38 79/79/37
f 93/93/44 91/91/42 90/90/41
f 90/90/41 92/92/43 93/93/44
f 94/94/40 89/89/40 91/91/42
f 89/89/40 94/94/40 87/87/2
f 91/91/42 93/93/44 95/95/45
f 95/95/45 94/94/40 91/91/42
f 92/92/43 96/96/46 93/93/44
f 93/93/44 97/97/1 95/95/45
f 97/97/1 93/93/44 96/96/46
f 94/94/40 95/95/45 98/98/47
f 98/98/47 95/95/45 97/97/1
f 87/87/2 94/94/40 99/99/48
f 99/99/48 94/94/40 98/98/47
f 87/87/2 100/100/2 88/88/2
f 100/100/2 87/87/2 99/99/48
f 101/101/2 88/88/2 100/100/2
f 100/100/2 99/99/48 102/102/2
f 102/102/2 101/101/2 100/100/2
f 103/103/49 99/99/48 98/98/47
f 99/99/48 103/103/49 102/102/2
f 101/101/2 102/102/2 104/104/2
f 102/102/2 103/103/49 104/104/2
f 105/105/1 101/101/2 104/104/2
f 106/106/2 105/105/1 104/104/2
f 107/107/47 103/103/49 98/98/47
f 107/107/47 98/98/47 97/97/1
f 108/108/2 106/106/2 104/104/2
f 109/109/2 106/106/2 108/108/2
f 103/103/49 110/110/50 104/104/2
f 111/111/1 109/109/2 108/108/2
f 109/109/2 111/111/1 112/112/2
f 113/113/51 108/108/2 104/104/2
f 110/110/50 113/113/51 104/104/2
f 108/108/2 113/113/51 111/111/1
f 110/110/50 103/103/49 114/114/52
f 113/113/51 110/110/50 114/114/52
f 103/103/49 107/107/47 114/114/52
f 113/113/51 115/115/53 111/111/1
f 116/116/54 113/113/51 114/114/52
f 115/115/53 113/113/51 116/116/54
f 114/114/52 107/107/47 117/117/55
f 116/116/54 114/114/52 117/117/55
f 118/118/56 107/107/47 97/97/1
f 107/107/47 118/118/56 117/117/55
f 118/118/56 97/97/1 96/96/46
f 117/117/55 118/118/56 119/119/57
f 118/118/56 96/96/46 119/119/57
f 120/120/58 116/116/54 117/117/55
f 119/119/57 96/96/46 121/121/59
f 96/96/46 92/92/43 121/121/59
f 121/121/59 92/92/43 79/79/37
f 121/121/59 79/79/37 76/76/35
f 73/73/36 121/121/59 76/76/35
f 119/119/57 121/121/59 73/73/36
f 122/122/60 119/119/57 73/73/36
f 117/117/55 119/119/57 122/122/60
f 122/122/60 73/73/36 70/70/36
f 120/120/58 117/117/55 122/122/60
f 66/66/32 122/122/60 70/70/36
f 120/120/58 122/122/60 66/66/32
f 123/123/31 120/120/58 66/66/32
f 123/123/31 66/66/32 65/65/31
f 124/124/61 116/116/54 120/120/58
f 123/123/31 124/124/61 120/120/58
f 124/124/61 115/115/53 116/116/54
f 123/123/31 65/65/31 125/125/62
f 126/126/63 124/124/61 123/123/31
f 126/126/63 123/123/31 125/125/62
f 127/127/64 115/115/53 124/124/61
f 126/126/63 127/127/64 124/124/61
f 125/125/62 65/65/31 128/128/65
f 65/65/31 64/64/30 128/128/65
f 126/126/63 125/125/62 129/129/66
f 127/127/64 126/126/63 129/129/66
f 125/125/62 128/128/65 129/129/66
f 115/115/53 127/127/64 130/130/2
f 130/130/2 127/127/64 129/129/66
f 111/111/1 115/115/53 130/130/2
f 111/111/1 130/130/2 112/112/2
f 112/112/2 130/130/2 44/44/2
f 130/130/2 47/47/2 44/44/2
f 47/47/2 130/130/2 129/129/66
f 47/47/2 129/129/66 131/131/14
f 128/128/65 131/131/14 129/129/66
f 43/43/2 47/47/2 131/131/14
f 43/43/2 131/131/14 45/45/14
f 128/128/65 132/132/67 131/131/14
f 132/132/67 45/45/14 131/131/14
f 64/64/30 132/132/67 128/128/65
f 132/132/67 49/49/17 45/45/14
f 64/64/30 58/58/24 132/132/67
f 58/58/24 49/49/17 132/132/67
