# Blender 3.6.18
# www.blender.org
mtllib Mesh.124.mtl
o Bistro_Research_Exterior_Paris_StreetLight_Glass_01B___6__6361
v -28.435650 6.625205 -24.125225
v -28.536190 6.625205 -24.063454
v -28.497616 6.041761 -24.026934
v -28.420504 6.041761 -24.074310
v -28.317692 6.625205 -24.128450
v -28.330034 6.041761 -24.076782
v -28.213928 6.625205 -24.072268
v -28.250450 6.041761 -24.033691
v -28.152155 6.625204 -23.971725
v -28.203074 6.041761 -23.956581
v -28.148930 6.625204 -23.853771
v -28.200598 6.041761 -23.866110
v -28.205111 6.625204 -23.750004
v -28.243689 6.041761 -23.786524
v -28.305656 6.625204 -23.688232
v -28.320803 6.041761 -23.739147
v -28.423611 6.625204 -23.685007
v -28.411268 6.041761 -23.736675
v -28.527378 6.625204 -23.741190
v -28.490852 6.041761 -23.779762
v -28.589149 6.625204 -23.841730
v -28.538231 6.041761 -23.856876
v -28.592379 6.625204 -23.959686
v -28.540707 6.041761 -23.947348
v -28.473988 6.041761 -24.074921
v -28.512411 6.041761 -24.040943
v -28.555479 6.625205 -24.081718
v -28.505388 6.625205 -24.126024
v -28.443224 6.625205 -24.150688
v -28.426311 6.041761 -24.093838
v -28.376049 6.041761 -24.104057
v -28.377687 6.625205 -24.164013
v -28.311522 6.625205 -24.154287
v -28.325300 6.041761 -24.096601
v -28.276659 6.041761 -24.080318
v -28.248104 6.625205 -24.133062
v -28.195663 6.625205 -24.091558
v -28.236441 6.041761 -24.048487
v -28.202456 6.041761 -24.010067
v -28.151356 6.625205 -24.041464
v -28.126690 6.625204 -23.979301
v -28.183544 6.041761 -23.962389
v -28.173321 6.041761 -23.912127
v -28.113369 6.625204 -23.913765
v -28.123091 6.625204 -23.847599
v -28.180779 6.041761 -23.861376
v -28.197060 6.041761 -23.812737
v -28.144318 6.625204 -23.784180
v -28.185822 6.625204 -23.731739
v -28.228893 6.041761 -23.772516
v -28.267311 6.041761 -23.738535
v -28.235914 6.625204 -23.687431
v -28.298084 6.625204 -23.662769
v -28.314991 6.041761 -23.719620
v -28.365255 6.041761 -23.709400
v -28.363615 6.625204 -23.649445
v -28.429783 6.625204 -23.659166
v -28.416004 6.041761 -23.716856
v -28.464642 6.041761 -23.733137
v -28.493200 6.625204 -23.680395
v -28.545643 6.625204 -23.721899
v -28.504862 6.041761 -23.764971
v -28.538847 6.041761 -23.803391
v -28.589947 6.625204 -23.771994
v -28.614613 6.625204 -23.834156
v -28.557762 6.041761 -23.851067
v -28.567980 6.041761 -23.901331
v -28.627939 6.625204 -23.899693
v -28.618214 6.625204 -23.965858
v -28.560524 6.041761 -23.952080
v -28.544243 6.041761 -24.000719
v -28.596983 6.625205 -24.029276
vn 0.2794 0.0905 0.9559
vn 0.7236 0.0909 0.6842
vn 0.7237 0.0910 0.6841
vn 0.2793 0.0905 0.9559
vn -0.2314 0.0903 0.9687
vn -0.6883 0.0905 0.7198
vn -0.9566 0.0898 0.2772
vn -0.9691 0.0895 -0.2296
vn -0.9692 0.0895 -0.2296
vn -0.7235 0.0901 -0.6845
vn -0.2844 0.0897 -0.9545
vn 0.2222 0.0897 -0.9709
vn 0.2223 0.0897 -0.9709
vn 0.6802 0.0904 -0.7274
vn 0.9538 0.0903 -0.2865
vn 0.9704 0.0904 0.2239
vn -0.5196 -0.1055 -0.8478
vn -0.7224 -0.1055 -0.6834
vn -0.2840 -0.1050 -0.9531
vn -0.0273 -0.1052 -0.9941
vn -0.0273 -0.1053 -0.9941
vn 0.2236 -0.1059 -0.9689
vn 0.4649 -0.1055 -0.8791
vn 0.6792 -0.1060 -0.7263
vn 0.8456 -0.1062 -0.5231
vn 0.9523 -0.1058 -0.2861
vn 0.9940 -0.1061 -0.0275
vn 0.9684 -0.1067 0.2253
vn 0.8773 -0.1062 0.4681
vn 0.7225 -0.1066 0.6831
vn 0.5174 -0.1066 0.8491
vn 0.2789 -0.1060 0.9545
vn 0.2789 -0.1061 0.9545
vn 0.0196 -0.1061 0.9942
vn -0.2328 -0.1065 0.9667
vn -0.4742 -0.1059 0.8740
vn -0.4742 -0.1058 0.8740
vn -0.6872 -0.1060 0.7187
vn -0.6872 -0.1060 0.7186
vn -0.8513 -0.1059 0.5139
vn -0.9551 -0.1053 0.2768
vn -0.9943 -0.1053 0.0195
vn -0.9672 -0.1057 -0.2310
vn -0.8758 -0.1051 -0.4710
vt 0.092773 0.097168
vt 0.016220 0.097168
vt 0.016220 0.904419
vt 0.092773 0.904419
vt 0.172852 0.097168
vt 0.172852 0.904419
vt 0.252930 0.097168
vt 0.252930 0.904419
vt 0.333008 0.097168
vt 0.333008 0.904419
vt 0.413086 0.097168
vt 0.413086 0.904419
vt 0.493164 0.097168
vt 0.493164 0.904419
vt 0.573242 0.097168
vt 0.573242 0.904419
vt 0.653320 0.097168
vt 0.653320 0.904419
vt 0.733398 0.097168
vt 0.733398 0.904419
vt 0.813477 0.097168
vt 0.813477 0.904419
vt 0.893555 0.097168
vt 0.893555 0.904419
vt 0.984375 0.097168
vt 0.984375 0.904419
vt 0.054504 0.904419
vt 0.054504 0.097168
vt 0.132812 0.904419
vt 0.132812 0.097168
vt 0.212891 0.904419
vt 0.212891 0.097168
vt 0.292969 0.904419
vt 0.292969 0.097168
vt 0.373047 0.904419
vt 0.373047 0.097168
vt 0.453125 0.904419
vt 0.453125 0.097168
vt 0.533203 0.904419
vt 0.533203 0.097168
vt 0.613281 0.904419
vt 0.613281 0.097168
vt 0.693359 0.904419
vt 0.693359 0.097168
vt 0.773438 0.904419
vt 0.773438 0.097168
vt 0.853516 0.904419
vt 0.853516 0.097168
vt 0.938965 0.904419
vt 0.938965 0.097168
s 1
usemtl Emissive_StreetLight
f 1/1/1 2/2/2 3/3/3
f 3/3/3 4/4/4 1/1/1
f 5/5/5 1/1/1 4/4/4
f 4/4/4 6/6/5 5/5/5
f 7/7/6 5/5/5 6/6/5
f 6/6/5 8/8/6 7/7/6
f 9/9/7 7/7/6 8/8/6
f 8/8/6 10/10/7 9/9/7
f 11/11/8 9/9/7 10/10/7
f 10/10/7 12/12/9 11/11/8
f 13/13/10 11/11/8 12/12/9
f 12/12/9 14/14/10 13/13/10
f 15/15/11 13/13/10 14/14/10
f 14/14/10 16/16/11 15/15/11
f 17/17/12 15/15/11 16/16/11
f 16/16/11 18/18/13 17/17/12
f 19/19/14 17/17/12 18/18/13
f 18/18/13 20/20/14 19/19/14
f 21/21/15 19/19/14 20/20/14
f 20/20/14 22/22/15 21/21/15
f 23/23/16 21/21/15 22/22/15
f 22/22/15 24/24/16 23/23/16
f 2/25/2 23/23/16 24/24/16
f 24/24/16 3/26/3 2/25/2
f 25/27/17 26/3/18 27/2/18
f 27/2/18 28/28/17 25/27/17
f 25/27/17 28/28/17 29/1/19
f 29/1/19 30/4/19 25/27/17
f 31/29/20 30/4/19 29/1/19
f 29/1/19 32/30/21 31/29/20
f 31/29/20 32/30/21 33/5/22
f 33/5/22 34/6/22 31/29/20
f 35/31/23 34/6/22 33/5/22
f 33/5/22 36/32/23 35/31/23
f 35/31/23 36/32/23 37/7/24
f 37/7/24 38/8/24 35/31/23
f 39/33/25 38/8/24 37/7/24
f 37/7/24 40/34/25 39/33/25
f 39/33/25 40/34/25 41/9/26
f 41/9/26 42/10/26 39/33/25
f 43/35/27 42/10/26 41/9/26
f 41/9/26 44/36/27 43/35/27
f 43/35/27 44/36/27 45/11/28
f 45/11/28 46/12/28 43/35/27
f 47/37/29 46/12/28 45/11/28
f 45/11/28 48/38/29 47/37/29
f 47/37/29 48/38/29 49/13/30
f 49/13/30 50/14/30 47/37/29
f 51/39/31 50/14/30 49/13/30
f 49/13/30 52/40/31 51/39/31
f 51/39/31 52/40/31 53/15/32
f 53/15/32 54/16/33 51/39/31
f 55/41/34 54/16/33 53/15/32
f 53/15/32 56/42/34 55/41/34
f 55/41/34 56/42/34 57/17/35
f 57/17/35 58/18/35 55/41/34
f 59/43/36 58/18/35 57/17/35
f 57/17/35 60/44/37 59/43/36
f 59/43/36 60/44/37 61/19/38
f 61/19/38 62/20/39 59/43/36
f 63/45/40 62/20/39 61/19/38
f 61/19/38 64/46/40 63/45/40
f 63/45/40 64/46/40 65/21/41
f 65/21/41 66/22/41 63/45/40
f 67/47/42 66/22/41 65/21/41
f 65/21/41 68/48/42 67/47/42
f 67/47/42 68/48/42 69/23/43
f 69/23/43 70/24/43 67/47/42
f 71/49/44 70/24/43 69/23/43
f 69/23/43 72/50/44 71/49/44
f 71/49/44 72/50/44 27/25/18
f 27/25/18 26/26/18 71/49/44
