# Blender 3.6.18
# www.blender.org
mtllib Mesh.1050.mtl
o Bistro_Research_Exterior_Paris_Building_01_paris_buildi_b80bbf3
v 8.773648 17.538876 4.620605
v 8.773648 17.649593 4.620605
v 8.572924 17.538874 5.125819
v 8.572924 17.649593 5.125819
v 8.556716 17.649593 5.132811
v 8.556717 17.538874 5.132811
v 6.376556 17.528582 4.267002
v 6.376556 17.639299 4.267002
v 6.369565 17.639299 4.250797
v 6.369565 17.528582 4.250797
v 6.569494 17.528582 3.747603
v 6.569494 17.639299 3.747603
v 6.581097 17.516100 3.752179
v 6.381165 17.516100 4.255403
v 8.762049 17.526394 4.615998
v 8.561325 17.526394 5.121212
v 8.762049 17.662073 4.615998
v 8.561325 17.662073 5.121212
v 6.381165 17.651777 4.255403
v 6.581097 17.651777 3.752179
vn 0.9241 -0.1062 0.3671
vn 0.9253 0.0984 0.3662
vn 0.9179 -0.1064 0.3822
vn 0.9187 0.0986 0.3825
vn -0.3662 0.0985 0.9253
vn -0.3659 -0.1062 0.9246
vn -0.3727 -0.1059 0.9219
vn -0.3730 0.0982 0.9226
vn -0.9327 0.0975 -0.3473
vn -0.9319 -0.1053 -0.3470
vn -0.9231 -0.1052 -0.3700
vn -0.9249 0.0974 -0.3675
vn -0.0046 -1.0000 -0.0023
vn -0.0040 -1.0000 -0.0039
vn -0.0039 -1.0000 -0.0039
vn -0.0049 1.0000 -0.0014
vn -0.0040 1.0000 -0.0039
vn -0.0039 1.0000 -0.0039
vt 0.731934 1.380615
vt 0.731934 1.424072
vt 0.519531 1.380859
vt 0.519531 1.424072
vt 0.512695 1.424072
vt 0.512695 1.380859
vt -0.404785 1.376709
vt -0.404541 1.420166
vt -0.411621 1.420166
vt -0.411621 1.376709
vt -0.623047 1.376953
vt -0.623047 1.420166
vt -0.394775 0.959290
vt -0.387695 0.959290
vt -0.394775 1.183350
vt -0.387695 1.183350
vt -0.388428 1.189941
vt 0.581055 0.959290
vt 0.582520 1.189941
vt 0.581055 1.183350
vt 0.586426 0.959290
vt 0.586426 1.183350
vt 0.589844 0.852295
vt 0.584961 0.852295
vt 0.589844 0.628174
vt 0.584473 0.628174
vt 0.585938 0.621582
vt -0.385254 0.621582
vt -0.384521 0.628174
vt -0.384033 0.852295
vt -0.391357 0.628174
vt -0.391113 0.852295
s 1
usemtl MASTER_Concrete_Smooth
f 1/1/1 2/2/2 3/3/3
f 2/2/2 4/4/4 3/3/3
f 4/4/4 5/5/5 3/3/3
f 5/5/5 6/6/6 3/3/3
f 6/6/6 5/5/5 7/7/7
f 5/5/5 8/8/8 7/7/7
f 7/7/7 8/8/8 9/9/9
f 10/10/10 7/7/7 9/9/9
f 11/11/11 10/10/10 9/9/9
f 12/12/12 11/11/11 9/9/9
f 11/13/11 13/14/13 10/15/10
f 13/14/13 14/16/14 10/15/10
f 7/17/7 10/15/10 14/16/14
f 13/14/13 15/18/15 14/16/14
f 7/17/7 14/16/14 6/19/6
f 15/18/15 16/20/15 14/16/14
f 14/16/14 16/20/15 6/19/6
f 16/20/15 15/18/15 1/21/1
f 3/22/3 6/19/6 16/20/15
f 3/22/3 16/20/15 1/21/1
f 2/23/2 17/24/16 4/25/4
f 17/24/16 18/26/17 4/25/4
f 18/26/17 5/27/5 4/25/4
f 5/27/5 18/26/17 8/28/8
f 18/26/17 17/24/16 19/29/18
f 18/26/17 19/29/18 8/28/8
f 17/24/16 20/30/18 19/29/18
f 19/29/18 9/31/9 8/28/8
f 19/29/18 20/30/18 12/32/12
f 9/31/9 19/29/18 12/32/12
