# Blender 3.6.18
# www.blender.org
mtllib Mesh.864.mtl
o Bistro_Research_Exterior_Paris_Building_01_paris_buildi_50c02da
v 2.388330 1.322313 -14.092358
v 2.388808 1.323692 -14.093246
v 2.201066 1.610887 -13.745026
v 2.201545 1.612267 -13.745913
v 2.756460 0.841694 -14.775154
v 2.756895 0.843137 -14.775961
v 2.545862 1.123636 -14.384540
v 2.546297 1.125078 -14.385346
v 2.364664 1.088013 -14.048467
v 2.364266 1.089502 -14.047728
v 2.173066 0.860569 -13.693091
v 2.172668 0.862058 -13.692353
v 2.718424 1.608140 -14.704606
v 2.717968 1.609554 -14.703759
v 2.524374 1.330319 -14.344684
v 2.523918 1.331733 -14.343840
v 2.364234 1.253090 -14.047838
v 2.364446 1.253697 -14.048226
v 2.176971 1.541665 -13.700503
v 2.177183 1.542272 -13.700895
v 2.734565 0.769310 -14.734713
v 2.734757 0.769945 -14.735066
v 2.523967 1.051251 -14.344097
v 2.524159 1.051886 -14.344452
v 2.384570 1.013295 -14.085555
v 2.384395 1.013950 -14.085229
v 2.192971 0.785851 -13.730182
v 2.192797 0.786507 -13.729854
v 2.741225 1.537206 -14.747067
v 2.741025 1.537828 -14.746694
v 2.547176 1.259385 -14.387144
v 2.546976 1.260007 -14.386772
v 2.437559 1.244838 -14.001448
v 2.250296 1.533412 -13.654114
v 2.183758 1.533412 -13.689988
v 2.371021 1.244838 -14.037323
v 2.174097 1.533412 -13.695197
v 2.361360 1.244838 -14.042530
v 2.808152 0.760680 -14.688808
v 2.597554 1.042622 -14.298196
v 2.531015 1.042621 -14.334069
v 2.741613 0.760680 -14.724681
v 2.521354 1.042622 -14.339278
v 2.731952 0.760680 -14.729892
v 2.463140 1.004388 -14.048892
v 2.271542 0.776944 -13.693520
v 2.205003 0.776944 -13.729394
v 2.396602 1.004388 -14.084767
v 2.195342 0.776944 -13.734604
v 2.386940 1.004388 -14.089977
v 2.820141 1.528750 -14.711046
v 2.626091 1.250928 -14.351125
v 2.559553 1.250928 -14.386999
v 2.753603 1.528750 -14.746922
v 2.549892 1.250928 -14.392208
v 2.743942 1.528750 -14.752129
v 2.204141 1.619747 -13.750727
v 2.391404 1.331172 -14.098063
v 2.213802 1.619747 -13.745519
v 2.401065 1.331172 -14.092854
v 2.283369 1.619747 -13.708012
v 2.470632 1.331172 -14.055347
v 2.548656 1.132900 -14.389720
v 2.759253 0.850959 -14.780334
v 2.558317 1.132900 -14.384511
v 2.768914 0.850958 -14.775126
v 2.627883 1.132900 -14.347006
v 2.838481 0.850958 -14.737618
v 2.170510 0.870132 -13.688350
v 2.362108 1.097576 -14.043724
v 2.180171 0.870132 -13.683142
v 2.371769 1.097576 -14.038515
v 2.249737 0.870132 -13.645634
v 2.441335 1.097576 -14.001009
v 2.521447 1.339398 -14.339256
v 2.715497 1.617219 -14.699176
v 2.531108 1.339398 -14.334046
v 2.725157 1.617219 -14.693968
v 2.600674 1.339397 -14.296538
v 2.794724 1.617219 -14.656461
v 2.180058 1.550524 -13.706200
v 2.367321 1.261950 -14.053535
v 2.172307 1.553913 -13.713195
v 2.359570 1.265338 -14.060529
v 2.167249 1.556124 -13.717756
v 2.354512 1.267549 -14.065092
v 2.159498 1.559512 -13.724752
v 2.346762 1.270938 -14.072086
v 2.162573 1.568372 -13.730454
v 2.349836 1.279797 -14.077789
v 2.168538 1.585559 -13.741519
v 2.355801 1.296984 -14.088852
v 2.171613 1.594419 -13.747223
v 2.358876 1.305844 -14.094555
v 2.181716 1.597800 -13.744586
v 2.368979 1.309225 -14.091917
v 2.188367 1.600026 -13.742846
v 2.375630 1.311451 -14.090182
v 2.198470 1.603408 -13.740211
v 2.385733 1.314833 -14.087543
v 2.526772 1.060515 -14.349272
v 2.737369 0.778574 -14.739886
v 2.518913 1.064058 -14.356067
v 2.729511 0.782117 -14.746680
v 2.513785 1.066371 -14.360500
v 2.724383 0.784429 -14.751113
v 2.505927 1.069914 -14.367295
v 2.716525 0.787973 -14.757909
v 2.508720 1.079178 -14.372477
v 2.719318 0.797237 -14.763089
v 2.514138 1.097150 -14.382526
v 2.724736 0.815209 -14.773141
v 2.516932 1.106414 -14.387708
v 2.727530 0.824473 -14.778321
v 2.526928 1.109951 -14.384871
v 2.737525 0.828009 -14.775484
v 2.533508 1.112278 -14.383002
v 2.744105 0.830337 -14.773618
v 2.543504 1.115814 -14.380167
v 2.754102 0.833873 -14.770779
v 2.190426 0.795414 -13.725430
v 2.382024 1.022858 -14.080807
v 2.180521 0.799071 -13.728431
v 2.372120 1.026515 -14.083806
v 2.174058 0.801458 -13.730387
v 2.365657 1.028902 -14.085762
v 2.164154 0.805116 -13.733387
v 2.355752 1.032559 -14.088761
v 2.161597 0.814678 -13.728644
v 2.353195 1.042122 -14.084021
v 2.156638 0.833230 -13.719446
v 2.348235 1.060673 -14.074821
v 2.154081 0.842793 -13.714704
v 2.345679 1.070236 -14.070080
v 2.162035 0.846443 -13.708079
v 2.353633 1.073886 -14.063456
v 2.167271 0.848845 -13.703718
v 2.358869 1.076289 -14.059093
v 2.175225 0.852495 -13.697094
v 2.366823 1.079939 -14.052470
v 2.544260 1.268463 -14.381710
v 2.738309 1.546285 -14.741631
v 2.534214 1.271935 -14.384444
v 2.728263 1.549757 -14.744367
v 2.527658 1.274201 -14.386232
v 2.721707 1.552023 -14.746151
v 2.517612 1.277673 -14.388968
v 2.711661 1.555495 -14.748888
v 2.514684 1.286752 -14.383538
v 2.708734 1.564574 -14.743459
v 2.509005 1.304364 -14.373004
v 2.703055 1.582186 -14.732926
v 2.506078 1.313443 -14.367577
v 2.700127 1.591265 -14.727496
v 2.513890 1.316908 -14.360688
v 2.707940 1.594730 -14.720610
v 2.519033 1.319189 -14.356155
v 2.713083 1.597010 -14.716076
v 2.526845 1.322654 -14.349268
v 2.720895 1.600476 -14.709190
vn 0.8789 -0.0039 0.4769
vn 0.8789 -0.0040 0.4769
vn 0.8822 -0.0039 0.4708
vn 0.8822 -0.0040 0.4708
vn -0.2856 -0.8098 0.5125
vn -0.8202 -0.5714 0.0272
vn -0.8202 -0.5715 0.0272
vn -0.8774 -0.0039 -0.4797
vn -0.2540 -0.8481 0.4650
vn -0.2540 -0.8481 0.4651
vn -0.2540 -0.8480 0.4651
vn -0.8014 -0.5981 -0.0039
vn 0.2305 -0.8711 -0.4336
vn -0.4547 -0.6180 -0.6413
vn -0.4548 -0.6180 -0.6413
vn -0.8807 -0.0039 -0.4736
vn 0.2625 -0.8267 -0.4976
vn -0.4329 -0.5889 -0.6825
vn -0.4253 0.5658 -0.7063
vn -0.4254 0.5658 -0.7063
vn 0.2790 0.8056 -0.5227
vn -0.4439 0.5931 -0.6717
vn -0.4439 0.5932 -0.6717
vn -0.4438 0.5931 -0.6717
vn 0.2474 0.8444 -0.4752
vn -0.7876 0.6152 -0.0352
vn -0.7876 0.6152 -0.0353
vn -0.2403 0.8706 0.4294
vn -0.8116 0.5842 0.0117
vn -0.8115 0.5842 0.0118
vn -0.2726 0.8257 0.4938
vn -0.8863 -0.4490 -0.1132
vn -0.8886 -0.4455 -0.1090
vn -0.5977 -0.7462 0.2930
vn -0.5978 -0.7462 0.2930
vn -0.8871 -0.4494 -0.1055
vn -0.5766 0.4432 -0.6864
vn -0.0826 0.7429 -0.6643
vn -0.0825 0.7429 -0.6643
vn -0.5786 0.4462 -0.6828
vn -0.5765 0.4432 -0.6864
vn -0.8707 -0.4724 -0.1366
vn -0.8732 -0.4692 -0.1322
vn -0.5758 -0.7795 0.2468
vn -0.8707 -0.4724 -0.1367
vn -0.5899 0.4649 -0.6602
vn -0.1061 0.7738 -0.6245
vn -0.1060 0.7738 -0.6245
vn -0.5919 0.4675 -0.6566
vn -0.8774 -0.0038 -0.4797
vn -0.6024 -0.4857 -0.6334
vn -0.6023 -0.4858 -0.6334
vn -0.6016 -0.4849 -0.6347
vn -0.1207 -0.8057 -0.5799
vn -0.1206 -0.8057 -0.5799
vn -0.6023 -0.4857 -0.6335
vn -0.6023 -0.4857 -0.6334
vn -0.8775 -0.0039 -0.4797
vn -0.8625 0.4801 -0.1600
vn -0.5534 0.8045 0.2158
vn -0.5533 0.8045 0.2158
vn -0.5533 0.8045 0.2159
vn -0.8633 0.4792 -0.1587
vn -0.5817 -0.4646 -0.6676
vn -0.5804 -0.4627 -0.6701
vn -0.0979 -0.7636 -0.6383
vn -0.8775 -0.0039 -0.4796
vn -0.8807 0.4580 -0.1213
vn -0.8806 0.4580 -0.1213
vn -0.5880 0.7617 0.2723
vn -0.5880 0.7616 0.2723
vn -0.8807 0.4579 -0.1214
vn -0.8807 0.4579 -0.1213
vt 0.937500 0.783447
vt 0.937500 0.783936
vt 0.787109 0.783813
vt 0.787109 0.784424
vt 0.727051 0.812256
vt 0.727051 0.812744
vt 0.565430 0.812744
vt 0.565430 0.813232
vt 0.490234 0.854248
vt 0.490234 0.854736
vt 0.347656 0.854126
vt 0.347656 0.854614
vt 0.858398 0.617432
vt 0.858398 0.617920
vt 0.706543 0.617432
vt 0.706543 0.617920
vt 0.937988 0.821899
vt 0.937988 0.822144
vt 0.787598 0.822266
vt 0.787598 0.822510
vt 0.727539 0.850708
vt 0.727539 0.850952
vt 0.565430 0.851196
vt 0.565430 0.851440
vt 0.489990 0.892578
vt 0.489990 0.892822
vt 0.347412 0.892456
vt 0.347412 0.892700
vt 0.858398 0.656006
vt 0.858398 0.656250
vt 0.706543 0.656006
vt 0.706543 0.656250
vt 0.937988 0.852173
vt 0.787598 0.852539
vt 0.787598 0.829224
vt 0.937988 0.828857
vt 0.787598 0.825928
vt 0.937988 0.825439
vt 0.727539 0.880920
vt 0.565918 0.881348
vt 0.565430 0.858154
vt 0.727539 0.857666
vt 0.565430 0.854736
vt 0.727539 0.854248
vt 0.489990 0.922852
vt 0.347412 0.922668
vt 0.347412 0.899414
vt 0.489990 0.899536
vt 0.347412 0.896057
vt 0.489990 0.896179
vt 0.858398 0.686279
vt 0.706543 0.686279
vt 0.706543 0.662842
vt 0.858398 0.663086
vt 0.706543 0.659668
vt 0.858398 0.659668
vt 0.787109 0.780518
vt 0.937500 0.780029
vt 0.787109 0.777100
vt 0.937500 0.776733
vt 0.787109 0.752808
vt 0.937500 0.752441
vt 0.565430 0.809326
vt 0.727051 0.808960
vt 0.565430 0.806030
vt 0.727051 0.805542
vt 0.565430 0.781616
vt 0.727051 0.781250
vt 0.347656 0.850708
vt 0.490234 0.850830
vt 0.347656 0.847290
vt 0.490234 0.847412
vt 0.347656 0.822998
vt 0.490234 0.823120
vt 0.706543 0.614014
vt 0.858398 0.614014
vt 0.706543 0.610596
vt 0.858398 0.610596
vt 0.706543 0.586182
vt 0.858398 0.586426
vt 0.787598 0.818970
vt 0.937988 0.818481
vt 0.787598 0.815552
vt 0.937988 0.815186
vt 0.787109 0.813354
vt 0.937988 0.812988
vt 0.787109 0.809937
vt 0.937500 0.809570
vt 0.787109 0.806641
vt 0.937500 0.806274
vt 0.787109 0.800049
vt 0.937500 0.799683
vt 0.787109 0.796753
vt 0.937500 0.796265
vt 0.787109 0.793335
vt 0.937500 0.792969
vt 0.787109 0.791138
vt 0.937500 0.790771
vt 0.787109 0.787720
vt 0.937500 0.787354
vt 0.565430 0.847778
vt 0.727539 0.847290
vt 0.565430 0.844482
vt 0.727539 0.843994
vt 0.565430 0.842285
vt 0.727539 0.841797
vt 0.565430 0.838867
vt 0.727539 0.838379
vt 0.565430 0.835449
vt 0.727051 0.835083
vt 0.565430 0.828979
vt 0.727051 0.828491
vt 0.565430 0.825562
vt 0.727051 0.825073
vt 0.565430 0.822266
vt 0.727051 0.821777
vt 0.565430 0.819946
vt 0.727051 0.819580
vt 0.565430 0.816650
vt 0.727051 0.816162
vt 0.347412 0.889099
vt 0.489990 0.889221
vt 0.347412 0.885742
vt 0.489990 0.885864
vt 0.347412 0.883545
vt 0.489990 0.883667
vt 0.347412 0.880188
vt 0.489990 0.880310
vt 0.347412 0.876770
vt 0.489990 0.876892
vt 0.347412 0.870239
vt 0.489990 0.870361
vt 0.347412 0.866943
vt 0.489990 0.867065
vt 0.347656 0.863525
vt 0.489990 0.863647
vt 0.347656 0.861328
vt 0.489990 0.861450
vt 0.347656 0.857910
vt 0.490234 0.858032
vt 0.706543 0.652588
vt 0.858398 0.652588
vt 0.706543 0.649170
vt 0.858398 0.649170
vt 0.706543 0.646973
vt 0.858398 0.646973
vt 0.706543 0.643555
vt 0.858398 0.643555
vt 0.706543 0.640137
vt 0.858398 0.640381
vt 0.706543 0.633545
vt 0.858398 0.633789
vt 0.706543 0.630371
vt 0.858398 0.630371
vt 0.706543 0.626953
vt 0.858398 0.626953
vt 0.706543 0.624756
vt 0.858398 0.624756
vt 0.706543 0.621338
vt 0.858398 0.621338
s 1
usemtl MASTER_Wood_Painted3
f 1/1/1 2/2/1 3/3/1
f 2/2/2 4/4/2 3/3/2
f 5/5/2 6/6/2 7/7/1
f 6/6/1 8/8/1 7/7/1
f 9/9/1 10/10/1 11/11/1
f 10/10/1 12/12/1 11/11/1
f 13/13/1 14/14/1 15/15/1
f 14/14/2 16/16/2 15/15/2
f 17/17/1 18/18/1 19/19/1
f 18/18/1 20/20/1 19/19/1
f 21/21/1 22/22/1 23/23/1
f 22/22/2 24/24/2 23/23/2
f 25/25/3 26/26/3 27/27/3
f 26/26/4 28/28/4 27/27/4
f 29/29/4 30/30/4 31/31/4
f 30/30/4 32/32/4 31/31/4
f 33/33/5 34/34/5 35/35/5
f 36/36/5 33/33/5 35/35/5
f 36/36/5 35/35/5 37/37/6
f 38/38/7 36/36/5 37/37/6
f 38/38/7 37/37/6 20/20/8
f 18/18/8 38/38/7 20/20/8
f 39/39/9 40/40/10 41/41/10
f 42/42/11 39/39/9 41/41/10
f 42/42/11 41/41/10 43/43/12
f 44/44/12 42/42/11 43/43/12
f 44/44/12 43/43/12 24/24/8
f 22/22/8 44/44/12 24/24/8
f 45/45/13 46/46/13 47/47/13
f 48/48/13 45/45/13 47/47/13
f 48/48/13 47/47/13 49/49/14
f 50/50/15 48/48/13 49/49/14
f 50/50/15 49/49/14 28/28/16
f 26/26/16 50/50/15 28/28/16
f 51/51/17 52/52/17 53/53/17
f 54/54/17 51/51/17 53/53/17
f 54/54/17 53/53/17 55/55/18
f 56/56/18 54/54/17 55/55/18
f 56/56/18 55/55/18 32/32/16
f 30/30/16 56/56/18 32/32/16
f 1/1/8 3/3/8 57/57/19
f 58/58/20 1/1/8 57/57/20
f 58/58/20 57/57/20 59/59/21
f 60/60/21 58/58/20 59/59/21
f 60/60/21 59/59/21 61/61/21
f 62/62/21 60/60/21 61/61/21
f 5/5/8 7/7/8 63/63/22
f 64/64/23 5/5/8 63/63/24
f 64/64/23 63/63/24 65/65/25
f 66/66/25 64/64/23 65/65/25
f 66/66/25 65/65/25 67/67/25
f 68/68/25 66/66/25 67/67/25
f 9/9/8 11/11/8 69/69/26
f 70/70/27 9/9/8 69/69/27
f 70/70/27 69/69/27 71/71/28
f 72/72/28 70/70/27 71/71/28
f 72/72/28 71/71/28 73/73/28
f 74/74/28 72/72/28 73/73/28
f 13/13/8 15/15/8 75/75/29
f 76/76/30 13/13/8 75/75/29
f 76/76/30 75/75/29 77/77/31
f 78/78/31 76/76/30 77/77/31
f 78/78/31 77/77/31 79/79/31
f 80/80/31 78/78/31 79/79/31
f 17/17/8 19/19/8 81/81/32
f 82/82/32 17/17/8 81/81/33
f 82/82/32 81/81/33 83/83/34
f 84/84/35 82/82/32 83/83/34
f 84/84/35 83/83/34 85/85/35
f 86/86/34 84/84/35 85/85/35
f 86/86/34 85/85/35 87/87/36
f 88/88/36 86/86/34 87/87/36
f 88/88/36 87/87/36 89/89/8
f 90/90/8 88/88/36 89/89/8
f 90/90/8 89/89/8 91/91/8
f 92/92/8 90/90/8 91/91/8
f 92/92/8 91/91/8 93/93/37
f 94/94/37 92/92/8 93/93/37
f 94/94/37 93/93/37 95/95/38
f 96/96/39 94/94/37 95/95/38
f 96/96/39 95/95/38 97/97/38
f 98/98/38 96/96/39 97/97/38
f 98/98/38 97/97/38 99/99/37
f 100/100/40 98/98/38 99/99/37
f 100/100/40 99/99/37 4/4/8
f 2/2/8 100/100/41 4/4/8
f 21/21/8 23/23/8 101/101/42
f 102/102/42 21/21/8 101/101/43
f 102/102/42 101/101/43 103/103/44
f 104/104/44 102/102/42 103/103/44
f 104/104/44 103/103/44 105/105/44
f 106/106/44 104/104/44 105/105/44
f 106/106/44 105/105/44 107/107/42
f 108/108/45 106/106/44 107/107/42
f 108/108/45 107/107/42 109/109/8
f 110/110/8 108/108/45 109/109/8
f 110/110/8 109/109/8 111/111/8
f 112/112/8 110/110/8 111/111/8
f 112/112/8 111/111/8 113/113/46
f 114/114/46 112/112/8 113/113/46
f 114/114/46 113/113/46 115/115/47
f 116/116/48 114/114/46 115/115/47
f 116/116/48 115/115/47 117/117/47
f 118/118/48 116/116/48 117/117/47
f 118/118/48 117/117/47 119/119/46
f 120/120/49 118/118/48 119/119/46
f 120/120/49 119/119/46 8/8/50
f 6/6/8 120/120/46 8/8/8
f 25/25/16 27/27/16 121/121/51
f 122/122/52 25/25/16 121/121/53
f 122/122/52 121/121/53 123/123/54
f 124/124/55 122/122/52 123/123/54
f 124/124/55 123/123/54 125/125/54
f 126/126/55 124/124/55 125/125/54
f 126/126/55 125/125/54 127/127/56
f 128/128/57 126/126/55 127/127/56
f 128/128/57 127/127/56 129/129/8
f 130/130/8 128/128/57 129/129/8
f 130/130/8 129/129/8 131/131/8
f 132/132/58 130/130/8 131/131/8
f 132/132/58 131/131/8 133/133/59
f 134/134/59 132/132/58 133/133/59
f 134/134/59 133/133/59 135/135/60
f 136/136/61 134/134/59 135/135/60
f 136/136/61 135/135/60 137/137/61
f 138/138/62 136/136/61 137/137/61
f 138/138/62 137/137/61 139/139/59
f 140/140/63 138/138/62 139/139/59
f 140/140/63 139/139/59 12/12/8
f 10/10/58 140/140/59 12/12/58
f 29/29/16 31/31/16 141/141/64
f 142/142/64 29/29/16 141/141/65
f 142/142/64 141/141/65 143/143/66
f 144/144/66 142/142/64 143/143/66
f 144/144/66 143/143/66 145/145/66
f 146/146/66 144/144/66 145/145/66
f 146/146/66 145/145/66 147/147/64
f 148/148/64 146/146/66 147/147/64
f 148/148/64 147/147/64 149/149/8
f 150/150/8 148/148/64 149/149/8
f 150/150/8 149/149/8 151/151/67
f 152/152/8 150/150/8 151/151/67
f 152/152/8 151/151/67 153/153/68
f 154/154/69 152/152/8 153/153/68
f 154/154/69 153/153/68 155/155/70
f 156/156/71 154/154/69 155/155/70
f 156/156/71 155/155/70 157/157/70
f 158/158/70 156/156/71 157/157/70
f 158/158/70 157/157/70 159/159/72
f 160/160/73 158/158/70 159/159/72
f 160/160/73 159/159/72 16/16/8
f 14/14/8 160/160/68 16/16/8
