# Blender 3.6.18
# www.blender.org
mtllib Mesh.810.mtl
o Bistro_Research_Exterior_Paris_Building_01_paris_buildi_a164a44
v 5.482195 4.435910 3.715357
v 9.369882 4.435908 5.253021
v 9.298368 4.435908 5.433832
v 5.410680 4.435910 3.896168
v 9.294830 4.435908 5.442776
v 5.407143 4.435910 3.905111
v 9.294956 4.443903 5.442456
v 5.407269 4.443905 3.904791
v 9.295204 4.459558 5.441830
v 5.407517 4.459559 3.904165
v 9.295332 4.467552 5.441510
v 5.407644 4.467554 3.903845
v 9.292256 4.471509 5.449283
v 5.404569 4.471511 3.911617
v 9.279329 4.488151 5.481966
v 5.391642 4.488153 3.944301
v 9.276256 4.492109 5.489738
v 5.388567 4.492111 3.952073
v 9.276300 4.500109 5.489626
v 5.388613 4.500110 3.951961
v 9.276376 4.513656 5.489435
v 5.388688 4.513657 3.951770
v 9.276421 4.521655 5.489322
v 5.388733 4.521657 3.951657
v 9.279943 4.522346 5.480412
v 5.392257 4.522347 3.942748
v 9.292865 4.524879 5.447746
v 5.405176 4.524881 3.910081
v 9.296388 4.525569 5.438836
v 5.408701 4.525572 3.901171
v 9.296419 4.533569 5.438760
v 5.408731 4.533572 3.901095
v 9.296473 4.547689 5.438626
v 5.408784 4.547692 3.900961
v 9.296501 4.555689 5.438550
v 5.408814 4.555691 3.900885
v 9.292977 4.556388 5.447459
v 5.405290 4.556390 3.909795
v 9.280282 4.558906 5.479557
v 5.392596 4.558908 3.941891
v 9.276759 4.559604 5.488465
v 5.389071 4.559606 3.950801
v 9.276803 4.567604 5.488353
v 5.389116 4.567605 3.950688
v 9.276878 4.581151 5.488163
v 5.389192 4.581152 3.950497
v 9.276923 4.589150 5.488049
v 5.389235 4.589151 3.950384
v 9.280024 4.593005 5.480213
v 5.392335 4.593007 3.942548
v 9.293567 4.609852 5.445969
v 5.405880 4.609853 3.908304
v 9.296667 4.613707 5.438132
v 5.408980 4.613708 3.900468
v 9.296667 4.621707 5.438132
v 5.408980 4.621708 3.900468
v 9.296667 4.637253 5.438132
v 5.408980 4.637255 3.900468
v 9.296667 4.645253 5.438132
v 5.408980 4.645255 3.900468
v 9.300203 4.645253 5.429189
v 5.412517 4.645255 3.891524
v 9.371886 4.645251 5.247955
v 5.484199 4.645253 3.710290
vn -0.0039 -1.0000 -0.0039
vn -0.2463 -0.7625 0.5982
vn -0.2463 -0.7625 0.5983
vn -0.3746 0.0355 0.9265
vn -0.3745 0.0355 0.9265
vn -0.3105 -0.5621 0.7665
vn -0.1605 -0.9044 0.3954
vn -0.3092 -0.5675 0.7631
vn -0.3092 -0.5675 0.7632
vn -0.3720 0.0117 0.9281
vn -0.3720 0.0118 0.9281
vn -0.2484 0.7451 0.6189
vn -0.2484 0.7451 0.6190
vn -0.0275 0.9974 0.0670
vn -0.0276 0.9974 0.0670
vn -0.3721 0.0039 0.9282
vn -0.2545 -0.7400 0.6226
vn -0.0274 -0.9974 0.0665
vn -0.2545 -0.7400 0.6225
vn -0.3029 0.5862 0.7514
vn -0.1615 0.9099 0.3821
vn -0.3025 0.5775 0.7583
vn -0.3721 -0.0039 0.9282
vn -0.2401 0.7675 0.5943
vn -0.0039 1.0000 -0.0039
vt 1.566406 0.960144
vt 2.873047 0.960144
vt 2.873047 1.010674
vt 1.566406 1.010674
vt 2.873047 1.013176
vt 1.566406 1.013176
vt 2.873047 1.015671
vt 1.566406 1.015671
vt 2.873047 1.020554
vt 1.566406 1.020554
vt 2.873047 1.023056
vt 1.566406 1.023056
vt 2.873047 1.025238
vt 1.566406 1.025238
vt 2.873047 1.034363
vt 1.566406 1.034363
vt 2.873047 1.036530
vt 1.566406 1.036530
vt 2.873047 1.039032
vt 1.566406 1.039032
vt 2.873047 1.043274
vt 1.566406 1.043274
vt 2.873047 1.045776
vt 1.566406 1.045776
vt 2.873047 1.048248
vt 1.566406 1.048248
vt 2.873047 1.057404
vt 1.566406 1.057404
vt 2.873047 1.059875
vt 1.566406 1.059875
vt 2.873047 1.062378
vt 1.566406 1.062378
vt 2.873047 1.066772
vt 1.566406 1.066772
vt 2.873047 1.069275
vt 1.566406 1.069275
vt 2.873047 1.071777
vt 1.566406 1.071777
vt 2.873047 1.080750
vt 1.566406 1.080750
vt 2.873047 1.083252
vt 1.566406 1.083252
vt 2.873047 1.085754
vt 1.566406 1.085754
vt 2.873047 1.089966
vt 1.566406 1.089966
vt 2.873047 1.092468
vt 1.566406 1.092468
vt 2.873047 1.094666
vt 1.566406 1.094666
vt 2.873047 1.104248
vt 1.566406 1.104248
vt 2.873047 1.106445
vt 1.566406 1.106445
vt 2.873047 1.108887
vt 1.566406 1.108887
vt 2.873047 1.113770
vt 1.566406 1.113770
vt 2.873047 1.116272
vt 1.566406 1.116272
vt 2.873047 1.118774
vt 1.566406 1.118774
vt 2.873047 1.169434
vt 1.566406 1.169434
s 1
usemtl MASTER_Wood_Painted3
f 1/1/1 2/2/1 3/3/1
f 4/4/1 1/1/1 3/3/1
f 4/4/1 3/3/1 5/5/2
f 6/6/3 4/4/1 5/5/2
f 6/6/3 5/5/2 7/7/4
f 8/8/5 6/6/3 7/7/4
f 8/8/5 7/7/4 9/9/5
f 10/10/4 8/8/5 9/9/5
f 10/10/4 9/9/5 11/11/6
f 12/12/6 10/10/4 11/11/6
f 12/12/6 11/11/6 13/13/7
f 14/14/7 12/12/6 13/13/7
f 14/14/7 13/13/7 15/15/7
f 16/16/7 14/14/7 15/15/7
f 16/16/7 15/15/7 17/17/8
f 18/18/9 16/16/7 17/17/8
f 18/18/9 17/17/8 19/19/10
f 20/20/11 18/18/9 19/19/10
f 20/20/11 19/19/10 21/21/11
f 22/22/11 20/20/11 21/21/11
f 22/22/11 21/21/11 23/23/12
f 24/24/13 22/22/11 23/23/12
f 24/24/13 23/23/12 25/25/14
f 26/26/15 24/24/13 25/25/14
f 26/26/15 25/25/14 27/27/15
f 28/28/15 26/26/15 27/27/15
f 28/28/15 27/27/15 29/29/13
f 30/30/13 28/28/15 29/29/13
f 30/30/13 29/29/13 31/31/16
f 32/32/16 30/30/13 31/31/16
f 32/32/16 31/31/16 33/33/16
f 34/34/16 32/32/16 33/33/16
f 34/34/16 33/33/16 35/35/17
f 36/36/17 34/34/16 35/35/17
f 36/36/17 35/35/17 37/37/18
f 38/38/18 36/36/17 37/37/18
f 38/38/18 37/37/18 39/39/18
f 40/40/18 38/38/18 39/39/18
f 40/40/18 39/39/18 41/41/17
f 42/42/19 40/40/18 41/41/17
f 42/42/19 41/41/17 43/43/10
f 44/44/10 42/42/19 43/43/10
f 44/44/10 43/43/10 45/45/10
f 46/46/10 44/44/10 45/45/10
f 46/46/10 45/45/10 47/47/20
f 48/48/20 46/46/10 47/47/20
f 48/48/20 47/47/20 49/49/21
f 50/50/21 48/48/20 49/49/21
f 50/50/21 49/49/21 51/51/21
f 52/52/21 50/50/21 51/51/21
f 52/52/21 51/51/21 53/53/22
f 54/54/22 52/52/21 53/53/22
f 54/54/22 53/53/22 55/55/23
f 56/56/23 54/54/22 55/55/23
f 56/56/23 55/55/23 57/57/23
f 58/58/23 56/56/23 57/57/23
f 58/58/23 57/57/23 59/59/24
f 60/60/24 58/58/23 59/59/24
f 60/60/24 59/59/24 61/61/25
f 62/62/25 60/60/24 61/61/25
f 62/62/25 61/61/25 63/63/25
f 64/64/25 62/62/25 63/63/25
