# Blender 3.6.18
# www.blender.org
mtllib Mesh.538.mtl
o Bistro_Research_Exterior_paris_building_10_5481
v 6.486166 9.291686 -43.612110
v 6.486166 9.909983 -43.612110
v 5.277595 9.291686 -42.296883
v 5.277595 9.909982 -42.296883
v 9.488404 9.291686 -46.879311
v 9.488404 9.909983 -46.879311
v 8.279835 9.291686 -45.564079
v 8.279835 9.909983 -45.564079
v 12.636824 9.291686 -50.341835
v 12.636824 9.909983 -50.341835
v 11.428254 9.291686 -49.026604
v 11.428254 9.909983 -49.026604
v 15.833418 9.291686 -53.820541
v 15.833418 9.909983 -53.820541
v 14.624847 9.291686 -52.505310
v 14.624847 9.909983 -52.505310
v 14.599675 20.106644 -52.275749
v 14.599675 18.679880 -52.275749
v 16.999058 20.106644 -54.886890
v 16.999060 18.679880 -54.886890
v 12.153685 20.106644 -49.613892
v 12.153685 18.679880 -49.613892
v 14.553067 20.106644 -52.225029
v 14.553067 18.679880 -52.225029
v 12.162714 20.123522 -49.585976
v 10.636927 20.123522 -47.925533
v 12.162714 18.659061 -49.585976
v 10.636927 18.659061 -47.925533
v 9.124209 18.635992 -46.279316
v 10.649997 18.635992 -47.939754
v 9.124209 20.100452 -46.279316
v 10.649997 20.100452 -47.939754
v 6.719790 20.106644 -43.700436
v 6.719790 18.679880 -43.700436
v 9.119172 20.106644 -46.311573
v 9.119172 18.679880 -46.311573
v 4.273799 20.106644 -41.038578
v 4.273799 18.679880 -41.038578
v 6.673180 20.106644 -43.649712
v 6.673181 18.679880 -43.649712
v 4.276392 20.123522 -40.995178
v 2.978882 20.123522 -42.187466
v 4.276392 18.659061 -40.995178
v 2.978882 18.659061 -42.187466
v 9.353050 20.123522 -49.124180
v 10.650558 20.123522 -47.931889
v 9.353050 18.659061 -49.124180
v 10.650558 18.659061 -47.931889
v 10.650558 20.123522 -47.931889
v 9.353048 20.123522 -49.124180
v 10.650558 18.659061 -47.931889
v 9.353048 18.659061 -49.124180
v 10.125946 14.934297 -45.942219
v 10.125946 13.512419 -45.942219
v 10.730002 14.934297 -46.599583
v 10.730002 13.512419 -46.599583
v 10.125946 13.512418 -45.942219
v 10.125946 14.934296 -45.942219
v 9.526698 13.512418 -45.290081
v 9.526698 14.934296 -45.290081
v 6.388501 14.934296 -41.874928
v 6.388501 13.512418 -41.874928
v 6.987751 14.934296 -42.527065
v 6.987751 13.512418 -42.527065
v 6.388501 13.512417 -41.874928
v 6.388501 14.934295 -41.874928
v 5.789252 13.512417 -41.222790
v 5.789252 14.934295 -41.222790
v 7.634317 14.934296 -43.230690
v 7.634317 13.512418 -43.230690
v 8.233566 14.934296 -43.882828
v 8.233566 13.512418 -43.882828
v 7.634316 13.512417 -43.230690
v 7.634317 14.934295 -43.230690
v 7.035068 13.512417 -42.578556
v 7.035068 14.934295 -42.578556
v 8.880132 14.934296 -44.586456
v 8.880132 13.512419 -44.586456
v 9.479380 14.934297 -45.238586
v 9.479380 13.512419 -45.238586
v 8.880132 13.512418 -44.586456
v 8.880132 14.934295 -44.586452
v 8.280882 13.512417 -43.934319
v 8.280882 14.934295 -43.934319
v 11.371761 14.934297 -47.297977
v 11.371760 13.512419 -47.297977
v 11.977567 14.934297 -47.957249
v 11.977567 13.512419 -47.957249
v 11.371761 13.512418 -47.297977
v 11.371760 14.934296 -47.297977
v 10.772512 13.512418 -46.645847
v 10.772512 14.934296 -46.645847
v 12.617577 14.934297 -48.653744
v 12.617577 13.512419 -48.653744
v 13.216826 14.934297 -49.305878
v 13.216825 13.512419 -49.305878
v 12.617577 13.512418 -48.653744
v 12.617577 14.934296 -48.653744
v 12.018328 13.512418 -48.001606
v 12.018328 14.934296 -48.001606
v 13.870203 14.934297 -50.016922
v 13.870203 13.512419 -50.016922
v 14.469454 14.934297 -50.669056
v 14.469454 13.512419 -50.669056
v 13.870203 13.512418 -50.016922
v 13.870203 14.934296 -50.016922
v 13.270956 13.512418 -49.364784
v 13.270956 14.934296 -49.364788
v 15.122830 14.934297 -51.380096
v 15.122829 13.512419 -51.380096
v 15.722080 14.934297 -52.032234
v 15.722080 13.512419 -52.032234
v 15.122830 13.512418 -51.380096
v 15.122829 14.934296 -51.380096
v 14.523581 13.512418 -50.727959
v 14.523582 14.934296 -50.727959
v 16.375460 14.934297 -52.743275
v 16.375460 13.512419 -52.743275
v 16.959862 14.934297 -53.379253
v 16.959862 13.512419 -53.379253
v 16.375460 13.512418 -52.743275
v 16.375460 14.934296 -52.743275
v 15.776210 13.512418 -52.091141
v 15.776209 14.934296 -52.091141
v 16.952131 14.913473 -53.418945
v 16.952131 13.491595 -53.418945
v 16.358364 14.913473 -53.964550
v 16.358364 13.491595 -53.964550
v 5.731985 13.491593 -41.205109
v 5.731986 14.913471 -41.205112
v 5.143452 13.491593 -41.745914
v 5.143452 14.913471 -41.745914
v 11.338036 14.972644 -47.309376
v 11.338036 13.387712 -47.309376
v 10.659035 14.972644 -47.933308
v 10.659035 13.387712 -47.933308
v 9.328096 21.679127 -49.147099
v 9.332557 20.493719 -49.143005
v 9.459683 20.439737 -49.026192
v 9.708993 21.504049 -48.797096
v 9.554235 20.342901 -48.939308
v 10.075168 21.160681 -48.460621
v 9.623986 20.225832 -48.875210
v 10.385370 20.697742 -48.175568
v 10.618724 20.158266 -47.961140
v 9.652557 20.158266 -48.848953
v 10.626221 20.158266 -47.969296
v 9.660053 20.158266 -48.857109
v 10.392867 20.697742 -48.183723
v 9.631482 20.225832 -48.883366
v 10.082664 21.160681 -48.468781
v 9.561731 20.342901 -48.947468
v 9.716489 21.504049 -48.805256
v 9.467179 20.439737 -49.034348
v 9.335592 21.679127 -49.155262
v 9.340055 20.493719 -49.151165
vn 0.7380 -0.0040 0.6748
vn 0.7380 -0.0039 0.6748
vn -0.6791 -0.0039 0.7340
vn 0.6709 -0.0039 -0.7415
vn -0.6791 -0.0039 0.7341
vt 0.572266 0.007812
vt 0.572266 0.239746
vt 0.007778 0.007812
vt 0.007778 0.239746
vt -0.001852 0.989075
vt -0.001852 0.751099
vt 0.589355 0.989075
vt 0.589355 0.751099
vt 0.215820 0.003906
vt 0.579590 0.003906
vt 0.215820 0.240234
vt 0.579590 0.240234
vt 0.164917 0.003906
vt 0.416260 0.003906
vt 0.164917 0.236816
vt 0.416260 0.236816
vt 0.018784 0.484863
vt 0.561523 0.484863
vt 0.018784 0.723633
vt 0.561523 0.723633
vt 0.007683 0.008301
vt 0.574219 0.008301
vt 0.007683 0.239746
vt 0.574219 0.239746
vt 0.534180 0.528320
vt 0.350830 0.730957
vt 0.315918 0.716309
vt 0.427734 0.486816
vt 0.281250 0.715088
vt 0.298096 0.477051
vt 0.248657 0.722168
vt 0.162109 0.498535
vt 0.030243 0.547119
vt 0.232300 0.728516
s 1
usemtl MASTER_Forge_Metal
f 1/1/1 2/2/1 3/3/1
f 2/2/1 4/4/1 3/3/1
f 5/1/1 6/2/1 7/3/1
f 6/2/1 8/4/1 7/3/1
f 9/1/1 10/2/1 11/3/1
f 10/2/1 12/4/1 11/3/1
f 13/1/1 14/2/1 15/3/1
f 14/2/1 16/4/1 15/3/1
f 17/5/1 18/6/1 19/7/1
f 18/6/1 20/8/1 19/7/1
f 21/5/1 22/6/1 23/7/1
f 22/6/1 24/8/1 23/7/1
f 25/9/1 26/10/1 27/11/1
f 26/10/1 28/12/1 27/11/1
f 29/9/1 30/10/1 31/11/1
f 30/10/1 32/12/1 31/11/1
f 33/5/1 34/6/2 35/7/2
f 34/6/2 36/8/1 35/7/2
f 37/5/1 38/6/1 39/7/1
f 38/6/1 40/8/1 39/7/1
f 41/13/3 42/14/3 43/15/3
f 42/14/3 44/16/3 43/15/3
f 45/13/4 46/14/4 47/15/4
f 46/14/4 48/16/4 47/15/4
f 49/13/3 50/14/3 51/15/3
f 50/14/3 52/16/3 51/15/3
f 53/17/1 54/18/1 55/19/1
f 54/18/1 56/20/1 55/19/1
f 57/17/1 58/18/1 59/19/1
f 58/18/1 60/20/2 59/19/1
f 61/17/1 62/18/1 63/19/1
f 62/18/1 64/20/1 63/19/1
f 65/17/1 66/18/1 67/19/1
f 66/18/1 68/20/1 67/19/1
f 69/17/1 70/18/1 71/19/1
f 70/18/1 72/20/2 71/19/1
f 73/17/1 74/18/1 75/19/1
f 74/18/1 76/20/1 75/19/1
f 77/17/1 78/18/1 79/19/1
f 78/18/1 80/20/1 79/19/1
f 81/17/1 82/18/1 83/19/1
f 82/18/1 84/20/1 83/19/1
f 85/17/1 86/18/2 87/19/1
f 86/18/2 88/20/1 87/19/1
f 89/17/1 90/18/1 91/19/1
f 90/18/1 92/20/1 91/19/1
f 93/17/1 94/18/1 95/19/1
f 94/18/1 96/20/2 95/19/1
f 97/17/1 98/18/1 99/19/1
f 98/18/1 100/20/2 99/19/1
f 101/17/1 102/18/1 103/19/1
f 102/18/1 104/20/1 103/19/1
f 105/17/1 106/18/1 107/19/1
f 106/18/1 108/20/1 107/19/1
f 109/17/2 110/18/1 111/19/1
f 110/18/1 112/20/1 111/19/1
f 113/17/2 114/18/1 115/19/1
f 114/18/1 116/20/1 115/19/1
f 117/17/1 118/18/1 119/19/1
f 118/18/1 120/20/1 119/19/1
f 121/17/2 122/18/1 123/19/1
f 122/18/1 124/20/1 123/19/1
f 125/21/4 126/22/4 127/23/4
f 126/22/4 128/24/4 127/23/4
f 129/21/3 130/22/5 131/23/3
f 130/22/5 132/24/3 131/23/3
f 133/21/4 134/22/4 135/23/4
f 134/22/4 136/24/4 135/23/4
f 135/21/5 136/22/3 133/23/3
f 136/22/3 134/24/3 133/23/3
f 137/25/3 138/26/3 139/27/5
f 140/28/3 137/25/3 139/27/5
f 140/28/3 139/27/5 141/29/3
f 142/30/3 140/28/3 141/29/3
f 142/30/3 141/29/3 143/31/5
f 144/32/3 142/30/3 143/31/5
f 145/33/3 144/32/3 146/34/3
f 144/32/3 143/31/5 146/34/3
f 147/33/4 148/34/4 149/32/4
f 148/34/4 150/31/4 149/32/4
f 149/32/4 150/31/4 151/30/4
f 150/31/4 152/29/4 151/30/4
f 151/30/4 152/29/4 153/28/4
f 152/29/4 154/27/4 153/28/4
f 153/28/4 154/27/4 155/25/4
f 154/27/4 156/26/4 155/25/4
