# Blender 3.6.18
# www.blender.org
mtllib Mesh.433.mtl
o Bistro_Research_Exterior_paris_building_11_5707
v 9.412706 13.474661 25.832750
v 7.766000 13.474661 25.159401
v 9.412706 16.387943 25.832750
v 7.766000 16.387943 25.159403
v 9.444317 13.391140 25.755447
v 10.393295 13.391139 23.434679
v 7.797612 13.391140 25.082096
v 8.746590 13.391140 22.761330
v 7.720305 13.474660 25.050484
v 8.669284 13.474661 22.729715
v 7.720305 16.387943 25.050486
v 8.669284 16.387943 22.729717
v 7.797612 16.471464 25.082094
v 8.746591 16.471466 22.761328
v 9.444318 16.471464 25.755445
v 10.393295 16.471466 23.434677
v 9.521624 16.387943 25.787058
v 10.470602 16.387943 23.466290
v 9.521624 13.474660 25.787058
v 10.470602 13.474660 23.466288
vn 0.3721 -0.0039 -0.9282
vn -0.0039 1.0000 -0.0039
vn 0.9271 -0.0039 0.3748
vn -0.0039 -1.0000 -0.0039
vn -0.9255 -0.0039 -0.3788
vn 0.6535 0.7089 0.2654
vn 0.6006 0.7577 -0.2552
vn 0.8761 0.4597 -0.1454
vn -0.2540 0.7541 -0.6057
vn -0.5279 0.4575 -0.7156
vn -0.6566 0.7038 -0.2713
vn 0.6498 -0.7128 0.2639
vn 0.8729 -0.4658 -0.1449
vn 0.5971 -0.7610 -0.2537
vn 0.8729 -0.4658 -0.1448
vn -0.6530 -0.7077 -0.2698
vn -0.2525 -0.7575 -0.6021
vn -0.5260 -0.4636 -0.7130
vn -0.1444 0.4565 -0.8779
vn 0.7117 0.4601 -0.5308
vn -0.1438 -0.4627 -0.8748
vn 0.7091 -0.4662 -0.5289
vt 0.503906 0.076172
vt 1.059570 0.076172
vt 0.503906 0.986198
vt 1.059570 0.986198
vt 0.495850 1.543945
vt 0.495850 2.327148
vt -0.060059 1.543945
vt -0.060059 2.327148
vt 0.923828 1.543945
vt 0.923828 2.327148
vt 0.013802 1.543945
vt 0.013802 2.327148
vt 1.059570 1.543945
vt 1.059570 2.327148
vt 0.503906 1.543945
vt 0.503906 2.327148
vt 0.985840 1.543945
vt 0.985840 2.327148
vt 0.075745 1.543945
vt 0.075745 2.327148
vt -0.086121 2.327148
vt -0.086121 1.543945
vt 0.049683 1.543945
vt 0.049683 2.327148
vt -0.012291 2.327148
vt -0.012291 1.543945
vt 0.477783 2.327148
vt 0.477783 1.543945
vt 0.477783 0.076172
vt 0.503906 0.049805
vt 0.477783 0.986198
vt 1.059570 0.049805
vt 0.503906 1.012291
vt 1.085938 0.076172
vt 1.059570 1.012291
vt 1.085938 0.986198
s 1
usemtl MASTER_Room_Interior
f 1/1/1 2/2/1 3/3/1
f 2/2/1 4/4/1 3/3/1
f 5/5/2 6/6/2 7/7/2
f 6/6/2 8/8/2 7/7/2
f 9/9/3 10/10/3 11/11/3
f 10/10/3 12/12/3 11/11/3
f 13/13/4 14/14/4 15/15/4
f 14/14/4 16/16/4 15/15/4
f 17/17/5 18/18/5 19/19/5
f 18/18/5 20/20/5 19/19/5
f 8/8/6 10/21/6 7/7/7
f 10/21/6 9/22/8 7/7/7
f 5/23/9 19/19/10 6/24/11
f 19/19/10 20/20/11 6/24/11
f 12/12/12 14/25/12 11/11/13
f 14/25/12 13/26/14 11/11/15
f 16/16/16 18/27/16 15/15/17
f 18/27/16 17/28/18 15/15/17
f 1/1/19 19/29/10 5/30/9
f 17/31/18 19/29/10 1/1/19
f 1/1/19 5/30/9 2/2/20
f 3/3/21 17/31/18 1/1/19
f 5/30/9 7/32/7 2/2/20
f 3/3/21 15/33/17 17/31/18
f 7/32/7 9/34/8 2/2/20
f 13/35/14 15/33/17 3/3/21
f 2/2/20 9/34/8 4/4/22
f 4/4/22 13/35/14 3/3/21
f 9/34/8 11/36/15 4/4/22
f 11/36/15 13/35/14 4/4/22
