# Blender 3.6.18
# www.blender.org
mtllib Mesh.903.mtl
o Bistro_Research_Exterior_Paris_Building_01_paris_buildi_220394a
v 2.174537 6.637248 3.088658
v 2.177086 6.631434 3.082216
v 2.175115 6.646155 3.087198
v 2.180212 6.634528 3.074312
v 2.180789 6.643435 3.072851
v 2.178241 6.649249 3.079294
v 2.134632 6.646155 3.071186
v 2.134054 6.637248 3.072646
v 2.045071 6.646155 3.035762
v 2.045058 6.637248 3.037446
v 2.030019 6.643053 3.025833
v 2.136602 6.631434 3.066203
v 2.139728 6.634528 3.058300
v 2.048735 6.631434 3.031450
v 2.052426 6.634528 3.023769
v 2.031499 6.634453 3.028502
v 2.021324 6.634345 3.011234
v 2.038162 6.629255 3.024475
v 2.043346 6.632656 3.017780
v 2.023900 6.626843 3.015743
v 2.021900 6.622223 2.995927
v 2.032755 6.623839 3.015396
v 2.039034 6.628338 3.010540
v 2.024404 6.616223 3.002333
v 2.032019 6.610020 2.984290
v 2.033116 6.616224 3.005779
v 2.039325 6.622223 3.002819
v 2.033278 6.605521 2.992127
v 2.048457 6.601254 2.979557
v 2.039499 6.608525 2.998437
v 2.044462 6.616028 2.996911
v 2.047658 6.597853 2.987987
v 2.066357 6.598130 2.982633
v 2.049764 6.603052 2.995482
v 2.052669 6.611650 2.994548
v 2.063796 6.595037 2.990760
v 2.155683 6.598130 3.017963
v 2.062376 6.600850 2.997649
v 2.063519 6.609757 2.996412
v 2.152556 6.595037 3.025867
v 2.197921 6.598130 3.034670
v 2.194795 6.595037 3.042573
v 2.150008 6.600851 3.032310
v 2.150586 6.609757 3.030849
v 2.192247 6.600850 3.049016
v 2.192824 6.609756 3.047555
v 2.140306 6.643435 3.056839
v 2.052439 6.643435 3.022086
v 2.137758 6.649249 3.063282
v 2.048761 6.649249 3.028082
v 2.041866 6.641255 3.015111
v 2.035202 6.646454 3.019138
v 2.036458 6.635839 3.006032
v 2.027603 6.638844 3.006379
v 2.036820 6.628224 2.996414
v 2.028108 6.628224 2.992969
v 2.043203 6.620526 2.989074
v 2.036981 6.617522 2.982763
v 2.053468 6.615052 2.986118
v 2.051362 6.609853 2.978623
v 2.066080 6.612851 2.988285
v 2.067499 6.607037 2.981396
v 2.153712 6.612850 3.022946
v 2.195950 6.612850 3.039652
v 2.156260 6.607037 3.016503
v 2.198499 6.607037 3.033209
vn 0.9309 -0.0039 0.3653
vn -0.2871 0.6410 0.7118
vn -0.3499 -0.3499 0.8690
vn -0.3499 -0.3500 0.8689
vn -0.4058 0.6343 0.6580
vn -0.0662 -0.9850 0.1596
vn -0.4194 -0.3175 0.8505
vn -0.7164 0.5520 0.4267
vn 0.2769 -0.6435 -0.7137
vn -0.0275 -0.9761 0.2156
vn 0.3951 -0.6377 -0.6612
vn -0.5907 -0.3403 0.7316
vn -0.9481 0.3161 0.0351
vn 0.0818 -0.9314 0.3546
vn 0.7070 -0.5586 -0.4336
vn -0.7226 -0.4648 0.5117
vn -0.9293 -0.0039 -0.3694
vn 0.1840 -0.8338 0.5206
vn 0.9446 -0.3253 -0.0431
vn -0.7066 -0.6442 0.2928
vn -0.6653 -0.3229 -0.6731
vn 0.1769 -0.6960 0.6959
vn -0.5658 -0.8156 0.1210
vn -0.2298 -0.5568 -0.7982
vn 0.0665 -0.5598 0.8260
vn 0.6661 0.3193 0.6740
vn -0.3228 -0.9451 0.0506
vn 0.1526 -0.6377 -0.7550
vn -0.1222 -0.4611 0.8789
vn 0.2247 0.5558 0.8003
vn -0.1209 -0.9871 0.1053
vn -0.2866 -0.3887 0.8756
vn -0.1620 0.6360 0.7545
vn 0.2768 -0.6435 -0.7137
vn -0.2870 0.6410 0.7118
vn 0.3416 0.3416 -0.8756
vn 0.0588 0.9839 -0.1686
vn 0.3962 0.3805 -0.8356
vn -0.0196 0.9867 -0.1612
vn 0.5154 0.4524 -0.7278
vn -0.1998 0.9440 -0.2625
vn 0.6159 0.5531 -0.5610
vn -0.3259 0.8127 -0.4830
vn 0.6105 0.6893 -0.3900
vn -0.3172 0.6385 -0.7012
vn 0.4927 0.8316 -0.2562
vn -0.1683 0.4580 -0.8729
vn 0.3027 0.9317 -0.2005
vn 0.0664 0.3319 -0.9410
vn 0.1301 0.9740 -0.1853
vn 0.2773 0.3085 -0.9099
vn 0.9309 -0.0040 0.3653
vt 1.164062 0.939484
vt 1.164062 0.818481
vt 1.164062 1.000000
vt 1.164062 0.757935
vt 0.919922 1.000000
vt 0.919922 0.939484
vt 0.378662 1.000000
vt 0.382080 0.939484
vt 0.279541 0.935425
vt 0.919922 0.818481
vt 0.919922 0.757935
vt 0.388916 0.818481
vt 0.392334 0.757935
vt 0.292725 0.881287
vt 0.203857 0.754150
vt 0.319092 0.773071
vt 0.332520 0.718994
vt 0.226685 0.722900
vt 0.175293 0.501709
vt 0.272217 0.660400
vt 0.294922 0.629150
vt 0.201538 0.501709
vt 0.204102 0.248047
vt 0.254150 0.501709
vt 0.280518 0.501709
vt 0.226807 0.279297
vt 0.280029 0.065430
vt 0.272461 0.341797
vt 0.295166 0.373047
vt 0.293457 0.119629
vt 0.380127 0.000000
vt 0.319824 0.227539
vt 0.333252 0.281738
vt 0.383545 0.060547
vt 0.919922 0.000488
vt 0.390381 0.181641
vt 0.393799 0.242188
vt 0.919922 0.060547
vt 1.174805 0.000000
vt 1.174805 0.060547
vt 0.919922 0.181641
vt 0.919922 0.242188
vt 1.174805 0.181641
vt 1.174805 0.242188
s 1
usemtl MASTER_Light_Bulb
f 1/1/1 2/2/1 3/3/1
f 2/2/1 4/4/1 3/3/1
f 4/4/1 5/2/1 3/3/1
f 5/2/1 6/1/1 3/3/1
f 3/3/2 7/5/2 1/1/3
f 7/5/2 8/6/4 1/1/3
f 7/5/2 9/7/5 8/6/4
f 1/1/3 8/6/4 2/2/6
f 9/7/5 10/8/7 8/6/4
f 9/7/5 11/9/8 10/8/7
f 8/6/4 12/10/6 2/2/6
f 8/6/4 10/8/7 12/10/6
f 2/2/6 12/10/6 4/4/9
f 12/10/6 13/11/9 4/4/9
f 12/10/6 14/12/10 13/11/9
f 10/8/7 14/12/10 12/10/6
f 14/12/10 15/13/11 13/11/9
f 11/9/8 16/14/12 10/8/7
f 10/8/7 16/14/12 14/12/10
f 11/9/8 17/15/13 16/14/12
f 14/12/10 18/16/14 15/13/11
f 16/14/12 18/16/14 14/12/10
f 18/16/14 19/17/15 15/13/11
f 17/15/13 20/18/16 16/14/12
f 16/14/12 20/18/16 18/16/14
f 17/15/13 21/19/17 20/18/16
f 18/16/14 22/20/18 19/17/15
f 20/18/16 22/20/18 18/16/14
f 22/20/18 23/21/19 19/17/15
f 21/19/17 24/22/20 20/18/16
f 20/18/16 24/22/20 22/20/18
f 21/19/17 25/23/21 24/22/20
f 22/20/18 26/24/22 23/21/19
f 24/22/20 26/24/22 22/20/18
f 26/24/22 27/25/1 23/21/19
f 25/23/21 28/26/23 24/22/20
f 24/22/20 28/26/23 26/24/22
f 25/23/21 29/27/24 28/26/23
f 26/24/22 30/28/25 27/25/1
f 28/26/23 30/28/25 26/24/22
f 30/28/25 31/29/26 27/25/1
f 29/27/24 32/30/27 28/26/23
f 28/26/23 32/30/27 30/28/25
f 29/27/24 33/31/28 32/30/27
f 30/28/25 34/32/29 31/29/26
f 32/30/27 34/32/29 30/28/25
f 34/32/29 35/33/30 31/29/26
f 33/31/28 36/34/31 32/30/27
f 32/30/27 36/34/31 34/32/29
f 33/31/28 37/35/9 36/34/31
f 34/32/29 38/36/32 35/33/30
f 36/34/31 38/36/32 34/32/29
f 38/36/32 39/37/33 35/33/30
f 37/35/9 40/38/6 36/34/31
f 36/34/31 40/38/6 38/36/32
f 37/35/9 41/39/34 40/38/6
f 41/39/34 42/40/6 40/38/6
f 38/36/32 43/41/4 39/37/33
f 40/38/6 43/41/4 38/36/32
f 40/38/6 42/40/6 43/41/4
f 43/41/4 44/42/2 39/37/33
f 42/40/6 45/43/3 43/41/4
f 43/41/4 45/43/3 44/42/2
f 45/43/3 46/44/35 44/42/2
f 4/4/9 13/11/9 5/2/36
f 13/11/9 47/10/36 5/2/36
f 13/11/9 15/13/11 47/10/36
f 5/2/36 47/10/36 6/1/37
f 15/13/11 48/12/38 47/10/36
f 15/13/11 19/17/15 48/12/38
f 47/10/36 49/6/37 6/1/37
f 47/10/36 48/12/38 49/6/37
f 6/1/37 49/6/37 3/3/2
f 49/6/37 7/5/2 3/3/2
f 49/6/37 50/8/39 7/5/2
f 48/12/38 50/8/39 49/6/37
f 50/8/39 9/7/5 7/5/2
f 19/17/15 51/16/40 48/12/38
f 48/12/38 51/16/40 50/8/39
f 19/17/15 23/21/19 51/16/40
f 50/8/39 52/14/41 9/7/5
f 51/16/40 52/14/41 50/8/39
f 52/14/41 11/9/8 9/7/5
f 23/21/19 53/20/42 51/16/40
f 51/16/40 53/20/42 52/14/41
f 23/21/19 27/25/1 53/20/42
f 52/14/41 54/18/43 11/9/8
f 53/20/42 54/18/43 52/14/41
f 54/18/43 17/15/13 11/9/8
f 27/25/1 55/24/44 53/20/42
f 53/20/42 55/24/44 54/18/43
f 27/25/1 31/29/26 55/24/44
f 54/18/43 56/22/45 17/15/13
f 55/24/44 56/22/45 54/18/43
f 56/22/45 21/19/17 17/15/13
f 31/29/26 57/28/46 55/24/44
f 55/24/44 57/28/46 56/22/45
f 31/29/26 35/33/30 57/28/46
f 56/22/45 58/26/47 21/19/17
f 57/28/46 58/26/47 56/22/45
f 58/26/47 25/23/21 21/19/17
f 35/33/30 59/32/48 57/28/46
f 57/28/46 59/32/48 58/26/47
f 35/33/30 39/37/33 59/32/48
f 58/26/47 60/30/49 25/23/21
f 59/32/48 60/30/49 58/26/47
f 60/30/49 29/27/24 25/23/21
f 39/37/33 61/36/50 59/32/48
f 59/32/48 61/36/50 60/30/49
f 39/37/33 44/42/2 61/36/50
f 60/30/49 62/34/51 29/27/24
f 61/36/50 62/34/51 60/30/49
f 62/34/51 33/31/28 29/27/24
f 44/42/2 63/41/37 61/36/50
f 61/36/50 63/41/37 62/34/51
f 44/42/2 46/44/35 63/41/37
f 46/44/35 64/43/37 63/41/37
f 62/34/51 65/38/36 33/31/28
f 63/41/37 65/38/36 62/34/51
f 63/41/37 64/43/37 65/38/36
f 65/38/36 37/35/9 33/31/28
f 64/43/37 66/40/36 65/38/36
f 65/38/36 66/40/36 37/35/9
f 66/40/36 41/39/34 37/35/9
f 45/43/52 42/40/52 41/39/1
f 45/43/52 41/39/1 64/43/1
f 46/44/1 45/43/52 64/43/1
f 66/40/1 64/43/1 41/39/1
