# Blender 3.6.18
# www.blender.org
mtllib Mesh.126.mtl
o Bistro_Research_Exterior_Paris_StreetLight_Glass_01B___4__6357
v -45.805000 5.431099 -27.372547
v -45.712208 5.431099 -27.299652
v -45.691322 4.847655 -27.348495
v -45.762489 4.847655 -27.404406
v -45.848915 5.431099 -27.482069
v -45.796173 4.847655 -27.488403
v -45.832188 5.431099 -27.598881
v -45.783340 4.847655 -27.577993
v -45.759289 5.431099 -27.691675
v -45.727432 4.847655 -27.649162
v -45.649765 5.431099 -27.735588
v -45.643429 4.847655 -27.682842
v -45.532955 5.431099 -27.718851
v -45.553841 4.847655 -27.670013
v -45.440163 5.431099 -27.645960
v -45.482674 4.847655 -27.614103
v -45.396248 5.431099 -27.536434
v -45.448990 4.847655 -27.530102
v -45.412979 5.431099 -27.419624
v -45.461826 4.847655 -27.440512
v -45.485878 5.431099 -27.326834
v -45.517735 4.847655 -27.369341
v -45.595402 5.431099 -27.282919
v -45.601738 4.847655 -27.335661
v -45.744530 4.847655 -27.354017
v -45.699333 4.847655 -27.329762
v -45.722656 5.431099 -27.275227
v -45.781582 5.431099 -27.306852
v -45.826260 5.431099 -27.356615
v -45.778797 4.847655 -27.392185
v -45.805805 4.847655 -27.435789
v -45.861477 5.431099 -27.413467
v -45.875290 5.431099 -27.478903
v -45.816406 4.847655 -27.485975
v -45.817993 4.847655 -27.537243
v -45.877365 5.431099 -27.545750
v -45.856613 5.431099 -27.609322
v -45.802078 4.847655 -27.586002
v -45.777817 4.847655 -27.631201
v -45.824982 5.431099 -27.668249
v -45.775223 5.431099 -27.712931
v -45.739651 4.847655 -27.665468
v -45.696045 4.847655 -27.692478
v -45.718365 5.431099 -27.748148
v -45.652931 5.431099 -27.761963
v -45.645863 4.847655 -27.703074
v -45.594593 4.847655 -27.704660
v -45.586086 5.431099 -27.764030
v -45.522511 5.431099 -27.743282
v -45.545830 4.847655 -27.688742
v -45.500637 4.847655 -27.664488
v -45.463589 5.431099 -27.711651
v -45.418903 5.431099 -27.661892
v -45.466370 4.847655 -27.626324
v -45.439358 4.847655 -27.582716
v -45.383690 5.431099 -27.605036
v -45.369873 5.431099 -27.539604
v -45.428764 4.847655 -27.532530
v -45.427174 4.847655 -27.481260
v -45.367802 5.431099 -27.472757
v -45.388557 5.431099 -27.409182
v -45.443092 4.847655 -27.432501
v -45.467350 4.847655 -27.387308
v -45.420185 5.431099 -27.350254
v -45.469944 5.431099 -27.305573
v -45.505512 4.847655 -27.353037
v -45.549118 4.847655 -27.326027
v -45.526798 5.431099 -27.270359
v -45.592232 5.431099 -27.256542
v -45.599308 4.847655 -27.315430
v -45.650578 4.847655 -27.313845
v -45.659081 5.431099 -27.254475
vn 0.7953 0.0901 -0.5995
vn 0.3867 0.0898 -0.9178
vn 0.7954 0.0901 -0.5994
vn 0.9884 0.0906 -0.1221
vn 0.9884 0.0906 -0.1220
vn 0.9166 0.0905 0.3895
vn 0.5944 0.0905 0.7991
vn 0.1143 0.0907 0.9893
vn -0.3961 0.0902 0.9138
vn -0.8019 0.0900 0.5907
vn -0.9895 0.0900 0.1134
vn -0.9151 0.0896 -0.3932
vn -0.5957 0.0896 -0.7982
vn -0.1211 0.0899 -0.9886
vn -0.6159 -0.1059 0.7807
vn -0.3955 -0.1057 0.9124
vn -0.8007 -0.1055 0.5897
vn -0.8007 -0.1054 0.5898
vn -0.9257 -0.1055 0.3633
vn -0.9880 -0.1054 0.1133
vn -0.9880 -0.1055 0.1132
vn -0.9840 -0.1050 -0.1439
vn -0.9137 -0.1050 -0.3927
vn -0.7837 -0.1053 -0.6121
vn -0.5948 -0.1050 -0.7970
vn -0.3700 -0.1051 -0.9231
vn -0.3700 -0.1052 -0.9231
vn -0.1209 -0.1053 -0.9871
vn -0.1210 -0.1054 -0.9871
vn 0.1363 -0.1051 -0.9851
vn 0.3861 -0.1053 -0.9164
vn 0.6072 -0.1058 -0.7874
vn 0.7941 -0.1056 -0.5985
vn 0.9219 -0.1059 -0.3727
vn 0.9219 -0.1060 -0.3727
vn 0.9868 -0.1062 -0.1219
vn 0.9869 -0.1061 -0.1219
vn 0.9848 -0.1059 0.1373
vn 0.9152 -0.1060 0.3889
vn 0.9152 -0.1061 0.3889
vn 0.7844 -0.1064 0.6110
vn 0.5935 -0.1061 0.7978
vn 0.3659 -0.1062 0.9246
vn 0.1141 -0.1063 0.9878
vn -0.1450 -0.1058 0.9838
vt 0.092773 0.097168
vt 0.016220 0.097168
vt 0.016220 0.904419
vt 0.092773 0.904419
vt 0.172852 0.097168
vt 0.172852 0.904419
vt 0.252930 0.097168
vt 0.252930 0.904419
vt 0.333008 0.097168
vt 0.333008 0.904419
vt 0.413086 0.097168
vt 0.413086 0.904419
vt 0.493164 0.097168
vt 0.493164 0.904419
vt 0.573242 0.097168
vt 0.573242 0.904419
vt 0.653320 0.097168
vt 0.653320 0.904419
vt 0.733398 0.097168
vt 0.733398 0.904419
vt 0.813477 0.097168
vt 0.813477 0.904419
vt 0.893555 0.097168
vt 0.893555 0.904419
vt 0.984375 0.097168
vt 0.984375 0.904419
vt 0.054504 0.904419
vt 0.054504 0.097168
vt 0.132812 0.904419
vt 0.132812 0.097168
vt 0.212891 0.904419
vt 0.212891 0.097168
vt 0.292969 0.904419
vt 0.292969 0.097168
vt 0.373047 0.904419
vt 0.373047 0.097168
vt 0.453125 0.904419
vt 0.453125 0.097168
vt 0.533203 0.904419
vt 0.533203 0.097168
vt 0.613281 0.904419
vt 0.613281 0.097168
vt 0.693359 0.904419
vt 0.693359 0.097168
vt 0.773438 0.904419
vt 0.773438 0.097168
vt 0.853516 0.904419
vt 0.853516 0.097168
vt 0.938965 0.904419
vt 0.938965 0.097168
s 1
usemtl Emissive_StreetLight
f 1/1/1 2/2/2 3/3/2
f 3/3/2 4/4/3 1/1/1
f 5/5/4 1/1/1 4/4/3
f 4/4/3 6/6/5 5/5/4
f 7/7/6 5/5/4 6/6/5
f 6/6/5 8/8/6 7/7/6
f 9/9/7 7/7/6 8/8/6
f 8/8/6 10/10/7 9/9/7
f 11/11/8 9/9/7 10/10/7
f 10/10/7 12/12/8 11/11/8
f 13/13/9 11/11/8 12/12/8
f 12/12/8 14/14/9 13/13/9
f 15/15/10 13/13/9 14/14/9
f 14/14/9 16/16/10 15/15/10
f 17/17/11 15/15/10 16/16/10
f 16/16/10 18/18/11 17/17/11
f 19/19/12 17/17/11 18/18/11
f 18/18/11 20/20/12 19/19/12
f 21/21/13 19/19/12 20/20/12
f 20/20/12 22/22/13 21/21/13
f 23/23/14 21/21/13 22/22/13
f 22/22/13 24/24/14 23/23/14
f 2/25/2 23/23/14 24/24/14
f 24/24/14 3/26/2 2/25/2
f 25/27/15 26/3/16 27/2/16
f 27/2/16 28/28/15 25/27/15
f 25/27/15 28/28/15 29/1/17
f 29/1/17 30/4/18 25/27/15
f 31/29/19 30/4/18 29/1/17
f 29/1/17 32/30/19 31/29/19
f 31/29/19 32/30/19 33/5/20
f 33/5/20 34/6/21 31/29/19
f 35/31/22 34/6/21 33/5/20
f 33/5/20 36/32/22 35/31/22
f 35/31/22 36/32/22 37/7/23
f 37/7/23 38/8/23 35/31/22
f 39/33/24 38/8/23 37/7/23
f 37/7/23 40/34/24 39/33/24
f 39/33/24 40/34/24 41/9/25
f 41/9/25 42/10/25 39/33/24
f 43/35/26 42/10/25 41/9/25
f 41/9/25 44/36/27 43/35/26
f 43/35/26 44/36/27 45/11/28
f 45/11/28 46/12/29 43/35/26
f 47/37/30 46/12/29 45/11/28
f 45/11/28 48/38/30 47/37/30
f 47/37/30 48/38/30 49/13/31
f 49/13/31 50/14/31 47/37/30
f 51/39/32 50/14/31 49/13/31
f 49/13/31 52/40/32 51/39/32
f 51/39/32 52/40/32 53/15/33
f 53/15/33 54/16/33 51/39/32
f 55/41/34 54/16/33 53/15/33
f 53/15/33 56/42/35 55/41/34
f 55/41/34 56/42/35 57/17/36
f 57/17/36 58/18/37 55/41/34
f 59/43/38 58/18/37 57/17/36
f 57/17/36 60/44/38 59/43/38
f 59/43/38 60/44/38 61/19/39
f 61/19/39 62/20/40 59/43/38
f 63/45/41 62/20/40 61/19/39
f 61/19/39 64/46/41 63/45/41
f 63/45/41 64/46/41 65/21/42
f 65/21/42 66/22/42 63/45/41
f 67/47/43 66/22/42 65/21/42
f 65/21/42 68/48/43 67/47/43
f 67/47/43 68/48/43 69/23/44
f 69/23/44 70/24/44 67/47/43
f 71/49/45 70/24/44 69/23/44
f 69/23/44 72/50/45 71/49/45
f 71/49/45 72/50/45 27/25/16
f 27/25/16 26/26/16 71/49/45
