# Blender 3.6.18
# www.blender.org
mtllib Mesh.1017.mtl
o Bistro_Research_Exterior_Paris_Building_01_paris_buildi_f73f514
v 4.245649 7.810866 3.027380
v 4.245649 7.921586 3.027379
v 4.053249 7.810866 3.535821
v 4.053249 7.921585 3.535821
v 4.037159 7.921585 3.543079
v 4.037159 7.810866 3.543079
v 1.706616 7.810866 2.659293
v 1.706616 7.921585 2.659293
v 1.699360 7.921585 2.643205
v 1.699360 7.810866 2.643205
v 1.890999 7.810866 2.136795
v 1.890999 7.921586 2.136795
v 1.902674 7.798386 2.141180
v 1.711033 7.798386 2.647620
v 4.233976 7.798386 3.022964
v 4.041576 7.798386 3.531406
v 4.233976 7.934065 3.022964
v 4.041576 7.934065 3.531406
v 1.711033 7.934065 2.647620
v 1.902674 7.934065 2.141180
vn 0.9300 -0.1061 0.3519
vn 0.9316 0.0983 0.3499
vn 0.9246 -0.1062 0.3659
vn 0.9253 0.0984 0.3662
vn -0.3584 -0.0040 0.9335
vn -0.3584 -0.0039 0.9335
vn -0.3585 -0.0040 0.9335
vn -0.9386 0.0974 -0.3310
vn -0.9378 -0.1050 -0.3308
vn -0.9294 -0.1050 -0.3539
vn -0.9308 0.0973 -0.3522
vn -0.0047 -1.0000 -0.0018
vn -0.0039 -1.0000 -0.0039
vn -0.0048 1.0000 -0.0017
vn -0.0039 1.0000 -0.0039
vt 0.959473 1.416016
vt 0.959473 1.375732
vt 1.157227 1.416016
vt 1.157227 1.375732
vt 1.164062 1.375732
vt 1.164062 1.416016
vt 2.072266 1.416016
vt 2.072266 1.375732
vt 2.078125 1.375732
vt 2.078125 1.416016
vt 2.275391 1.416016
vt 2.275391 1.375732
vt 2.138672 1.242310
vt 2.132812 1.242310
vt 2.138672 1.049316
vt 2.132812 1.044861
vt 2.134766 1.038788
vt 1.224609 1.242310
vt 1.225586 1.038788
vt 1.224609 1.044861
vt 1.218750 1.242310
vt 1.218750 1.038635
vt 1.221680 0.755005
vt 1.227539 0.755005
vt 1.221680 0.950531
vt 1.227539 0.952484
vt 1.226562 0.958557
vt 2.136719 0.958557
vt 2.136719 0.952484
vt 2.136719 0.755005
vt 2.142578 0.956238
vt 2.142578 0.755005
s 1
usemtl MASTER_Concrete_Smooth
f 1/1/1 2/2/2 3/3/3
f 2/2/2 4/4/4 3/3/3
f 4/4/4 5/5/5 3/3/3
f 5/5/5 6/6/6 3/3/3
f 6/6/6 5/5/5 7/7/7
f 5/5/5 8/8/7 7/7/7
f 7/7/7 8/8/7 9/9/8
f 10/10/9 7/7/7 9/9/8
f 11/11/10 10/10/9 9/9/8
f 12/12/11 11/11/10 9/9/8
f 11/13/10 13/14/12 10/15/9
f 13/14/12 14/16/13 10/15/9
f 7/17/7 10/15/9 14/16/13
f 13/14/12 15/18/13 14/16/13
f 7/17/7 14/16/13 6/19/6
f 15/18/13 16/20/13 14/16/13
f 14/16/13 16/20/13 6/19/6
f 16/20/13 15/18/13 1/21/1
f 3/22/3 6/19/6 16/20/13
f 3/22/3 16/20/13 1/21/1
f 2/23/2 17/24/14 4/25/4
f 17/24/14 18/26/15 4/25/4
f 18/26/15 5/27/5 4/25/4
f 5/27/5 18/26/15 8/28/7
f 18/26/15 17/24/14 19/29/15
f 18/26/15 19/29/15 8/28/7
f 17/24/14 20/30/15 19/29/15
f 19/29/15 9/31/8 8/28/7
f 19/29/15 20/30/15 12/32/11
f 9/31/8 19/29/15 12/32/11
