# Blender 3.6.18
# www.blender.org
mtllib Mesh.1064.mtl
o Bistro_Research_Exterior_Paris_Building_01_paris_buildi_df33586
v -1.297474 12.892897 -7.844003
v -2.039458 12.892897 -6.505192
v -1.320831 12.893232 -7.900786
v -2.108444 12.893233 -6.479644
v -1.287346 13.379107 -7.817603
v -2.013208 13.379107 -6.507817
v -1.326391 13.379108 -7.914217
v -2.119874 13.379107 -6.482481
v -1.306547 13.441421 -7.865651
v -2.066202 13.441423 -6.494865
v -1.292650 13.432721 -7.831852
v -2.028720 13.432721 -6.503699
v -1.320335 13.432722 -7.899606
v -2.103653 13.432722 -6.486129
v -1.156386 13.379107 -7.745023
v -1.125168 13.379107 -7.802694
v -1.322890 12.896316 -7.905731
v -1.322890 12.912076 -7.905731
v -1.117019 12.896316 -7.791782
v -1.117019 12.912077 -7.791782
v -1.091401 12.892897 -7.729961
v -1.114970 12.893233 -7.786791
v -1.320831 12.915160 -7.900786
v -1.297474 12.915497 -7.844003
v -1.114970 12.915160 -7.786792
v -1.091401 12.915497 -7.729961
v -2.039458 12.915497 -6.505192
v -2.108444 12.915161 -6.479644
v -1.879196 13.379108 -6.349090
v -1.773172 13.379107 -6.374785
v -1.831630 12.915497 -6.390130
v -1.900438 12.915159 -6.364474
v -2.114499 12.912077 -6.477360
v -1.906428 12.912077 -6.362278
v -2.114499 12.896316 -6.477360
v -1.906428 12.896315 -6.362278
v -1.900438 12.893234 -6.364474
v -1.831630 12.892897 -6.390130
v -1.434786 12.894800 -7.661872
v -1.434783 13.381180 -7.661877
v -1.425457 12.894800 -7.678704
v -1.425459 13.381177 -7.678699
v -1.415191 12.894800 -7.651006
v -1.415186 13.381555 -7.651014
v -1.405859 13.381555 -7.667850
v -1.405852 12.894800 -7.667861
v -1.698181 12.891292 -7.186597
v -1.698176 13.402753 -7.186608
v -1.688853 12.891294 -7.203429
v -1.688858 13.402751 -7.203421
v -1.678574 12.891293 -7.175714
v -1.678561 13.403128 -7.175737
v -1.669236 13.403128 -7.192567
v -1.669225 12.891293 -7.192587
v -1.968730 12.894799 -6.698452
v -1.968727 13.381178 -6.698458
v -1.959402 12.894800 -6.715282
v -1.959406 13.381178 -6.715275
v -1.949122 12.894798 -6.687576
v -1.949116 13.381553 -6.687588
v -1.939788 13.381553 -6.704422
v -1.939779 12.894800 -6.704439
v -1.561415 12.894799 -7.433338
v -1.561411 13.381181 -7.433345
v -1.552086 12.894801 -7.450171
v -1.552089 13.381178 -7.450166
v -1.541792 12.894800 -7.422448
v -1.541782 13.381555 -7.422466
v -1.532456 13.381555 -7.439298
v -1.532449 12.894800 -7.439309
v -1.833740 12.894800 -6.941977
v -1.833740 13.381180 -6.941978
v -1.824409 12.894800 -6.958813
v -1.824409 13.381178 -6.958813
v -1.814107 12.894800 -6.931096
v -1.814107 13.381555 -6.931096
v -1.804778 13.381555 -6.947934
v -1.804777 12.894800 -6.947935
v -1.329341 12.894799 -7.851999
v -1.329336 13.381180 -7.852009
v -1.320012 12.894799 -7.868830
v -1.320016 13.381178 -7.868823
v -1.309678 12.894799 -7.841087
v -1.309667 13.381554 -7.841107
v -1.300342 13.381554 -7.857939
v -1.300333 12.894799 -7.857955
v -2.080552 12.894801 -6.496578
v -2.080547 13.381178 -6.496586
v -2.071222 12.894801 -6.513412
v -2.071223 13.381180 -6.513408
v -2.060881 12.894802 -6.485662
v -2.060871 13.381557 -6.485681
v -2.051545 13.381557 -6.502512
v -2.051540 12.894800 -6.502522
v -1.326430 13.407866 -7.914252
v -2.119919 13.407867 -6.482505
v -1.325531 13.416330 -7.912252
v -2.117626 13.416331 -6.483010
v -1.156375 13.407866 -7.745013
v -1.285822 13.407866 -7.816756
v -1.155743 13.416329 -7.746198
v -1.287437 13.416331 -7.819188
v -1.151673 13.432722 -7.753721
v -1.129858 13.432720 -7.794037
v -1.125795 13.416329 -7.801550
v -1.125175 13.407866 -7.802711
v -1.140812 13.441423 -7.773796
v -1.788690 13.432721 -6.370666
v -1.774643 13.416332 -6.373918
v -2.014692 13.416331 -6.506962
v -1.771653 13.407867 -6.373944
v -2.011701 13.407867 -6.506983
v -1.880716 13.407868 -6.349930
v -1.877687 13.416330 -6.350027
v -1.863714 13.432721 -6.353148
v -1.826226 13.441422 -6.361863
vn -0.0118 -0.9999 -0.0039
vn -0.0587 -0.9977 -0.0352
vn -0.0039 -1.0000 -0.0039
vn -0.0118 0.9999 -0.0039
vn 0.4682 0.8458 0.2557
vn 0.4681 0.8458 0.2557
vn -0.4765 0.8387 -0.2638
vn -0.4764 0.8387 -0.2638
vn 0.4797 -0.0039 -0.8774
vn 0.0039 -0.9999 -0.0117
vn 0.0039 -0.9999 -0.0118
vn 0.0040 0.9999 -0.0118
vn 0.0040 0.9999 -0.0119
vn 0.3230 -0.7356 -0.5955
vn 0.3249 0.7320 -0.5989
vn -0.0119 0.9999 -0.0040
vn -0.0591 0.9976 -0.0355
vn -0.0040 1.0000 0.0039
vn -0.0040 1.0000 0.0040
vn -0.0039 1.0000 0.0040
vn -0.2631 0.8441 0.4672
vn -0.4890 -0.0039 0.8723
vn -0.4889 -0.0039 0.8723
vn -0.0039 -1.0000 0.0039
vn -0.2613 -0.8463 0.4641
vn -0.8742 -0.0039 -0.4856
vn -0.8741 -0.0039 -0.4856
vn -0.0197 0.9997 -0.0118
vn 0.4797 -0.0039 -0.8775
vn -0.4923 -0.0039 0.8704
vn -0.4923 -0.0040 0.8704
vn -0.0198 0.9997 -0.0119
vn 0.4796 -0.0039 -0.8775
vn -0.8534 -0.2221 -0.4715
vn -0.8543 0.2147 -0.4734
vn -0.8549 0.2147 -0.4723
vn -0.8688 0.0896 -0.4870
vn -0.7854 0.4416 -0.4337
vn -0.7854 0.4415 -0.4338
vn -0.4909 0.0746 0.8680
vn -0.4910 0.0746 0.8680
vn -0.4536 0.3747 0.8086
vn -0.4603 0.3345 0.8223
vn -0.3031 0.7911 0.5313
vn -0.2874 0.8071 0.5157
vn 0.3034 0.7684 -0.5635
vn 0.3190 0.7443 -0.5867
vn 0.4429 0.3645 -0.8191
vn 0.4816 0.0744 -0.8732
vn 0.4819 0.0666 -0.8737
vn -0.0039 1.0000 0.0039
vn 0.0119 0.9995 -0.0276
vn 0.2698 0.8250 -0.4966
vn 0.2795 0.8149 -0.5078
vn 0.4355 0.4041 -0.8044
vn 0.4827 0.0353 -0.8751
vn -0.4920 0.0354 0.8699
vn -0.4906 0.0824 0.8675
vn -0.4520 0.3656 0.8136
vn -0.4446 0.4053 0.7988
vn -0.2799 0.8239 0.4928
vn -0.2867 0.8130 0.5067
vn -0.0039 1.0000 -0.0039
vn 0.8736 0.0198 0.4862
vn 0.8718 -0.0671 0.4852
vn 0.7792 0.4549 0.4311
vn 0.7792 0.4549 0.4312
vt 0.164429 0.035645
vt 0.157837 0.951630
vt 0.148926 0.012207
vt 0.142090 0.984589
vt 0.042664 0.048828
vt 0.036407 0.945892
vt 0.016922 0.010254
vt 0.009995 0.988464
vt 0.385254 0.962982
vt 0.377930 0.025391
vt 0.395752 0.949188
vt 0.388428 0.040527
vt 0.619141 0.976730
vt 0.611816 0.010254
vt 0.629883 0.962952
vt 0.622070 0.025391
vt 0.091553 0.048828
vt 0.091614 0.010254
vt 0.424805 0.767212
vt 0.434082 0.767212
vt 0.424805 0.843872
vt 0.434082 0.843872
vt 0.241089 0.035645
vt 0.225586 0.012207
vt 0.264648 0.985435
vt 0.280029 0.962158
vt 0.341309 0.985367
vt 0.356689 0.962067
vt 0.147583 0.010254
vt 0.224243 0.010254
vt 0.263184 0.987473
vt 0.339844 0.987404
vt 0.273438 0.045898
vt 0.257568 0.013184
vt 0.099060 0.988091
vt 0.125488 0.945496
vt 0.350586 0.047852
vt 0.334961 0.014648
vt 0.256348 0.010254
vt 0.333496 0.011719
vt 0.424805 0.682373
vt 0.434082 0.682373
vt 0.424805 0.759521
vt 0.434082 0.759521
vt 0.219238 0.982986
vt 0.234985 0.950012
vt 0.140625 0.987473
vt 0.217896 0.985863
vt 0.323242 0.315430
vt 0.322998 0.598389
vt 0.311768 0.315430
vt 0.312012 0.598389
vt 0.689453 0.308594
vt 0.689453 0.591553
vt 0.680664 0.308594
vt 0.681152 0.591309
vt 0.434082 0.631348
vt 0.434082 0.642822
vt 0.425293 0.631592
vt 0.425293 0.642578
vt 0.083618 0.345703
vt 0.083618 0.628418
vt 0.075012 0.345703
vt 0.074768 0.628418
vt 0.466797 0.049316
vt 0.466553 0.346680
vt 0.455322 0.049316
vt 0.455566 0.346680
vt 0.415039 0.322266
vt 0.415039 0.619629
vt 0.406250 0.322266
vt 0.406494 0.619385
vt 0.417236 0.775757
vt 0.405762 0.775757
vt 0.416992 0.767212
vt 0.406006 0.767212
vt 0.304199 0.315430
vt 0.304199 0.613037
vt 0.295654 0.315918
vt 0.295410 0.613037
vt 0.351318 0.350098
vt 0.351074 0.632568
vt 0.339844 0.350098
vt 0.340088 0.632568
vt 0.125488 0.591553
vt 0.125488 0.874512
vt 0.116638 0.591553
vt 0.116882 0.874268
vt 0.417236 0.690918
vt 0.405762 0.690918
vt 0.416992 0.682373
vt 0.406006 0.682373
vt 0.351318 0.640381
vt 0.351318 0.923279
vt 0.342773 0.640625
vt 0.342529 0.923279
vt 0.434082 0.322266
vt 0.433594 0.604736
vt 0.422607 0.322266
vt 0.422607 0.604736
vt 0.689453 0.010254
vt 0.689453 0.293457
vt 0.680664 0.010254
vt 0.681152 0.292969
vt 0.434082 0.851440
vt 0.434082 0.862915
vt 0.425293 0.851685
vt 0.425293 0.862671
vt 0.191162 0.315430
vt 0.191162 0.598633
vt 0.182617 0.315918
vt 0.182373 0.598633
vt 0.466797 0.644531
vt 0.466553 0.927368
vt 0.455322 0.644531
vt 0.455811 0.927368
vt 0.125488 0.010254
vt 0.125488 0.293457
vt 0.116638 0.010254
vt 0.116882 0.292969
vt 0.434082 0.612305
vt 0.434082 0.623779
vt 0.425293 0.612549
vt 0.425293 0.623535
vt 0.235718 0.606201
vt 0.235718 0.889160
vt 0.227173 0.606445
vt 0.226929 0.889160
vt 0.351318 0.059570
vt 0.351318 0.342285
vt 0.339844 0.059570
vt 0.340332 0.342285
vt 0.067200 0.345703
vt 0.067139 0.628418
vt 0.058380 0.345703
vt 0.058594 0.628174
vt 0.417236 0.707275
vt 0.405762 0.707275
vt 0.416992 0.698730
vt 0.406006 0.698730
vt 0.207642 0.315430
vt 0.207642 0.598633
vt 0.198975 0.315918
vt 0.198853 0.598633
vt 0.466797 0.354492
vt 0.466309 0.636963
vt 0.455322 0.354492
vt 0.455322 0.636963
vt 0.125488 0.300781
vt 0.125488 0.583740
vt 0.116638 0.300781
vt 0.116882 0.583740
vt 0.415039 0.627197
vt 0.415039 0.638672
vt 0.406494 0.627441
vt 0.406494 0.638428
vt 0.235718 0.315430
vt 0.235718 0.598633
vt 0.227173 0.315918
vt 0.226929 0.598633
vt 0.645020 0.985474
vt 0.645020 0.013184
vt 0.646973 0.987503
vt 0.646973 0.010254
vt 0.656250 0.987503
vt 0.656250 0.010254
vt 0.657715 0.985474
vt 0.658203 0.013184
vt 0.512695 0.010742
vt 0.534668 0.988701
vt 0.496094 0.010254
vt 0.518066 0.990005
vt 0.491211 0.011719
vt 0.513184 0.988724
vt 0.481934 0.017090
vt 0.503418 0.983231
vt 0.442139 0.254883
vt 0.442139 0.304199
vt 0.425537 0.304199
vt 0.425537 0.255859
vt 0.420654 0.304199
vt 0.420654 0.254883
vt 0.411377 0.304199
vt 0.411377 0.251465
vt 0.323242 0.063965
vt 0.323242 0.134766
vt 0.313965 0.134766
vt 0.313965 0.060547
vt 0.309082 0.134766
vt 0.309082 0.059570
vt 0.292480 0.134766
vt 0.292480 0.060059
vt 0.441895 0.949158
vt 0.439697 0.962952
vt 0.442139 0.976685
vt 0.379639 0.976730
vt 0.442139 0.150391
vt 0.441895 0.239258
vt 0.430908 0.242676
vt 0.431152 0.153809
vt 0.426025 0.243652
vt 0.426025 0.154785
vt 0.412109 0.243164
vt 0.412354 0.154297
vt 0.442139 0.049805
vt 0.442139 0.138672
vt 0.426270 0.138184
vt 0.426270 0.049316
vt 0.421143 0.139160
vt 0.421143 0.050293
vt 0.410400 0.142578
vt 0.410400 0.053711
vt 0.372070 0.010254
vt 0.450195 0.010742
vt 0.456055 0.025879
vt 0.466797 0.041016
vt 0.571777 0.017090
vt 0.588867 0.016602
vt 0.588867 0.913330
vt 0.571777 0.912476
vt 0.566895 0.016113
vt 0.566895 0.913757
vt 0.557617 0.010254
vt 0.557617 0.918884
s 1
usemtl MASTER_Grain_Metal
f 1/1/1 2/2/1 3/3/2
f 2/2/1 4/4/2 3/3/2
f 5/5/3 6/6/3 7/7/3
f 6/6/3 8/8/3 7/7/3
f 9/9/4 10/10/4 11/11/5
f 10/10/4 12/12/6 11/11/5
f 13/13/7 14/14/8 9/15/4
f 14/14/8 10/16/4 9/15/4
f 5/5/3 7/7/3 15/17/3
f 7/7/3 16/18/3 15/17/3
f 17/19/9 18/20/9 19/21/9
f 18/20/9 20/22/9 19/21/9
f 1/1/10 3/3/11 21/23/11
f 3/3/11 22/24/11 21/23/11
f 23/25/12 24/26/12 25/27/12
f 24/26/13 26/28/13 25/27/13
f 3/3/14 17/29/14 22/24/14
f 17/29/14 19/30/14 22/24/14
f 18/31/15 23/25/15 20/32/15
f 23/25/15 25/27/15 20/32/15
f 27/33/16 24/26/16 28/34/17
f 24/26/16 23/25/17 28/34/17
f 8/8/3 6/6/3 29/35/3
f 6/6/3 30/36/3 29/35/3
f 27/33/18 28/34/19 31/37/20
f 28/34/19 32/38/20 31/37/20
f 28/34/21 33/39/21 32/38/21
f 33/39/21 34/40/21 32/38/21
f 33/41/22 35/42/22 34/43/22
f 35/42/23 36/44/23 34/43/23
f 4/4/24 2/2/24 37/45/24
f 2/2/24 38/46/24 37/45/24
f 35/47/25 4/4/25 36/48/25
f 4/4/25 37/45/25 36/48/25
f 39/49/26 40/50/26 41/51/27
f 40/50/26 42/52/27 41/51/27
f 43/53/22 44/54/22 39/55/22
f 44/54/22 40/56/22 39/55/22
f 44/57/28 45/58/28 40/59/28
f 45/58/28 42/60/28 40/59/28
f 45/61/29 46/62/9 42/63/9
f 46/62/9 41/64/9 42/63/9
f 47/65/27 48/66/27 49/67/27
f 48/66/27 50/68/27 49/67/27
f 51/69/30 52/70/30 47/71/30
f 52/70/31 48/72/31 47/71/31
f 52/73/28 53/74/28 48/75/28
f 53/74/28 50/76/28 48/75/28
f 53/77/9 54/78/9 50/79/9
f 54/78/9 49/80/9 50/79/9
f 55/81/27 56/82/26 57/83/27
f 56/82/26 58/84/27 57/83/27
f 59/85/22 60/86/22 55/87/22
f 60/86/23 56/88/23 55/87/23
f 60/89/32 61/90/32 56/91/32
f 61/90/32 58/92/32 56/91/32
f 61/93/9 62/94/9 58/95/9
f 62/94/9 57/96/9 58/95/9
f 63/97/27 64/98/26 65/99/27
f 64/98/26 66/100/26 65/99/27
f 67/101/22 68/102/22 63/103/22
f 68/102/22 64/104/22 63/103/22
f 68/105/32 69/106/32 64/107/32
f 69/106/28 66/108/28 64/107/28
f 69/109/9 70/110/9 66/111/9
f 70/110/9 65/112/9 66/111/9
f 71/113/27 72/114/27 73/115/27
f 72/114/27 74/116/27 73/115/27
f 75/117/22 76/118/22 71/119/22
f 76/118/22 72/120/22 71/119/22
f 76/121/28 77/122/28 72/123/28
f 77/122/32 74/124/32 72/123/32
f 77/125/9 78/126/9 74/127/9
f 78/126/9 73/128/9 74/127/9
f 79/129/26 80/130/27 81/131/27
f 80/130/27 82/132/27 81/131/27
f 83/133/22 84/134/22 79/135/22
f 84/134/23 80/136/23 79/135/23
f 84/137/28 85/138/28 80/139/28
f 85/138/32 82/140/32 80/139/32
f 85/141/9 86/142/9 82/143/9
f 86/142/9 81/144/9 82/143/9
f 87/145/26 88/146/27 89/147/27
f 88/146/27 90/148/27 89/147/27
f 91/149/22 92/150/22 87/151/22
f 92/150/23 88/152/23 87/151/23
f 92/153/28 93/154/28 88/155/28
f 93/154/32 90/156/32 88/155/32
f 93/157/9 94/158/33 90/159/9
f 94/158/33 89/160/9 90/159/9
f 3/161/2 4/162/2 17/163/34
f 4/162/2 35/164/34 17/163/34
f 17/163/34 35/164/34 18/165/35
f 35/164/34 33/166/36 18/165/35
f 23/167/17 18/165/35 33/166/36
f 28/168/17 23/167/17 33/166/36
f 7/169/27 8/170/26 95/171/37
f 8/170/26 96/172/37 95/171/37
f 97/173/38 95/171/37 96/172/37
f 98/174/39 97/173/38 96/172/37
f 97/173/38 98/174/39 13/175/7
f 98/174/39 14/176/8 13/175/7
f 5/177/22 15/178/22 99/179/40
f 100/180/41 5/177/22 99/179/40
f 100/180/41 99/179/40 101/181/42
f 102/182/43 100/180/41 101/181/42
f 102/182/43 101/181/42 103/183/44
f 11/184/45 102/182/43 103/183/44
f 13/185/46 104/186/47 105/187/48
f 97/188/48 13/185/46 105/187/48
f 97/188/48 105/187/48 106/189/49
f 95/190/50 97/188/48 106/189/49
f 95/190/50 106/189/49 16/191/9
f 7/192/9 95/190/50 16/191/9
f 11/11/45 103/193/44 107/194/51
f 9/9/52 11/11/45 107/194/51
f 9/9/52 107/194/51 104/195/47
f 13/196/46 9/9/52 104/195/47
f 12/197/53 108/198/54 109/199/55
f 110/200/48 12/197/53 109/199/55
f 110/200/48 109/199/55 111/201/49
f 112/202/56 110/200/48 111/201/49
f 112/202/56 111/201/49 30/203/9
f 6/204/9 112/202/56 30/203/9
f 8/205/22 29/206/22 113/207/57
f 96/208/58 8/205/22 113/207/57
f 96/208/58 113/207/57 114/209/59
f 98/210/60 96/208/58 114/209/59
f 98/210/60 114/209/59 115/211/61
f 14/212/62 98/210/60 115/211/61
f 14/213/62 115/214/61 116/215/63
f 10/10/63 14/213/62 116/215/63
f 10/10/63 116/215/63 108/216/54
f 12/12/53 10/10/63 108/216/54
f 112/217/64 6/218/65 5/219/65
f 100/220/64 112/217/64 5/219/65
f 110/221/66 112/217/64 100/220/64
f 102/222/67 110/221/66 100/220/64
f 110/221/66 102/222/67 12/223/6
f 102/222/67 11/224/5 12/223/6
