# Blender 3.6.18
# www.blender.org
mtllib Mesh.122.mtl
o Bistro_Research_Exterior_Paris_StreetLight_Glass_01B___8__6365
v -13.708330 6.662715 -18.190052
v -13.644144 6.662715 -18.091036
v -13.608567 6.079272 -18.130484
v -13.657795 6.079272 -18.206427
v -13.714409 6.662715 -18.307896
v -13.662456 6.079272 -18.296808
v -13.660749 6.662715 -18.412991
v -13.621302 6.079272 -18.377413
v -13.561732 6.662715 -18.477175
v -13.545358 6.079272 -18.426643
v -13.443889 6.662715 -18.483255
v -13.454976 6.079272 -18.431303
v -13.338795 6.662715 -18.429594
v -13.374372 6.079272 -18.390150
v -13.274608 6.662715 -18.330582
v -13.325144 6.079272 -18.314205
v -13.268530 6.662715 -18.212736
v -13.320483 6.079272 -18.223824
v -13.322188 6.662715 -18.107639
v -13.361636 6.079272 -18.143217
v -13.421206 6.662715 -18.043453
v -13.437579 6.079272 -18.093988
v -13.539048 6.662715 -18.037376
v -13.527963 6.079272 -18.089329
v -13.657113 6.079272 -18.152939
v -13.622212 6.079272 -18.115353
v -13.661936 6.662715 -18.071308
v -13.707444 6.662715 -18.120316
v -13.733602 6.662715 -18.181864
v -13.677176 6.079272 -18.200146
v -13.688610 6.079272 -18.250147
v -13.748508 6.662715 -18.247059
v -13.740387 6.662715 -18.313440
v -13.682383 6.079272 -18.301062
v -13.667282 6.079272 -18.350080
v -13.720699 6.662715 -18.377354
v -13.680476 6.662715 -18.430784
v -13.636433 6.079272 -18.391060
v -13.598845 6.079272 -18.425962
v -13.631471 6.662715 -18.476290
v -13.569921 6.662715 -18.502451
v -13.551640 6.079272 -18.446026
v -13.501637 6.079272 -18.457458
v -13.504726 6.662715 -18.517357
v -13.438344 6.662715 -18.509235
v -13.450723 6.079272 -18.451229
v -13.401704 6.079272 -18.436131
v -13.374430 6.662715 -18.489548
v -13.321001 6.662715 -18.449324
v -13.360725 6.079272 -18.405279
v -13.325824 6.079272 -18.367693
v -13.275495 6.662715 -18.400318
v -13.249335 6.662715 -18.338768
v -13.305760 6.079272 -18.320488
v -13.294328 6.079272 -18.270485
v -13.234428 6.662715 -18.273573
v -13.242550 6.662715 -18.207190
v -13.300556 6.079272 -18.219572
v -13.315656 6.079272 -18.170551
v -13.262237 6.662715 -18.143276
v -13.302461 6.662715 -18.089848
v -13.346503 6.079272 -18.129574
v -13.384093 6.079272 -18.094671
v -13.351468 6.662715 -18.044338
v -13.413017 6.662715 -18.018183
v -13.431297 6.079272 -18.074606
v -13.481301 6.079272 -18.063175
v -13.478210 6.662715 -18.003277
v -13.544595 6.662715 -18.011395
v -13.532214 6.079272 -18.069401
v -13.581234 6.079272 -18.084503
v -13.608507 6.662715 -18.031084
vn 0.9464 0.0903 -0.3102
vn 0.6639 0.0903 -0.7424
vn 0.6638 0.0903 -0.7424
vn 0.9737 0.0907 0.2089
vn 0.9737 0.0907 0.2090
vn 0.7389 0.0909 0.6677
vn 0.7388 0.0909 0.6678
vn 0.3031 0.0906 0.9486
vn 0.3031 0.0905 0.9486
vn -0.2164 0.0905 0.9721
vn -0.6721 0.0904 0.7349
vn -0.6721 0.0904 0.7350
vn -0.9494 0.0899 0.3008
vn -0.9725 0.0898 -0.2148
vn -0.7385 0.0899 -0.6682
vn -0.3079 0.0896 -0.9472
vn -0.3079 0.0897 -0.9472
vn 0.2073 0.0900 -0.9741
vn 0.2073 0.0899 -0.9741
vn -0.8363 -0.1060 0.5379
vn -0.6710 -0.1059 0.7338
vn -0.6710 -0.1060 0.7338
vn -0.9480 -0.1053 0.3004
vn -0.9932 -0.1051 0.0506
vn -0.9932 -0.1052 0.0506
vn -0.9726 -0.1055 -0.2070
vn -0.8840 -0.1051 -0.4556
vn -0.7374 -0.1053 -0.6672
vn -0.5434 -0.1055 -0.8328
vn -0.5435 -0.1056 -0.8328
vn -0.3075 -0.1051 -0.9457
vn -0.0584 -0.1051 -0.9927
vn 0.1995 -0.1056 -0.9742
vn 0.4494 -0.1055 -0.8871
vn 0.6628 -0.1059 -0.7413
vn 0.8304 -0.1062 -0.5470
vn 0.8303 -0.1063 -0.5470
vn 0.9449 -0.1059 -0.3097
vn 0.9449 -0.1058 -0.3097
vn 0.9926 -0.1059 -0.0589
vn 0.9738 -0.1064 0.2011
vn 0.8854 -0.1063 0.4525
vn 0.8854 -0.1062 0.4525
vn 0.7377 -0.1065 0.6667
vn 0.5415 -0.1067 0.8339
vn 0.5415 -0.1068 0.8339
vn 0.3026 -0.1061 0.9472
vn 0.0510 -0.1060 0.9931
vn -0.2086 -0.1063 0.9722
vn -0.4588 -0.1059 0.8822
vt 0.092773 0.097168
vt 0.016220 0.097168
vt 0.016220 0.904419
vt 0.092773 0.904419
vt 0.172852 0.097168
vt 0.172852 0.904419
vt 0.252930 0.097168
vt 0.252930 0.904419
vt 0.333008 0.097168
vt 0.333008 0.904419
vt 0.413086 0.097168
vt 0.413086 0.904419
vt 0.493164 0.097168
vt 0.493164 0.904419
vt 0.573242 0.097168
vt 0.573242 0.904419
vt 0.653320 0.097168
vt 0.653320 0.904419
vt 0.733398 0.097168
vt 0.733398 0.904419
vt 0.813477 0.097168
vt 0.813477 0.904419
vt 0.893555 0.097168
vt 0.893555 0.904419
vt 0.984375 0.097168
vt 0.984375 0.904419
vt 0.054504 0.904419
vt 0.054504 0.097168
vt 0.132812 0.904419
vt 0.132812 0.097168
vt 0.212891 0.904419
vt 0.212891 0.097168
vt 0.292969 0.904419
vt 0.292969 0.097168
vt 0.373047 0.904419
vt 0.373047 0.097168
vt 0.453125 0.904419
vt 0.453125 0.097168
vt 0.533203 0.904419
vt 0.533203 0.097168
vt 0.613281 0.904419
vt 0.613281 0.097168
vt 0.693359 0.904419
vt 0.693359 0.097168
vt 0.773438 0.904419
vt 0.773438 0.097168
vt 0.853516 0.904419
vt 0.853516 0.097168
vt 0.938965 0.904419
vt 0.938965 0.097168
s 1
usemtl Emissive_StreetLight
f 1/1/1 2/2/2 3/3/3
f 3/3/3 4/4/1 1/1/1
f 5/5/4 1/1/1 4/4/1
f 4/4/1 6/6/5 5/5/4
f 7/7/6 5/5/4 6/6/5
f 6/6/5 8/8/7 7/7/6
f 9/9/8 7/7/6 8/8/7
f 8/8/7 10/10/9 9/9/8
f 11/11/10 9/9/8 10/10/9
f 10/10/9 12/12/10 11/11/10
f 13/13/11 11/11/10 12/12/10
f 12/12/10 14/14/12 13/13/11
f 15/15/13 13/13/11 14/14/12
f 14/14/12 16/16/13 15/15/13
f 17/17/14 15/15/13 16/16/13
f 16/16/13 18/18/14 17/17/14
f 19/19/15 17/17/14 18/18/14
f 18/18/14 20/20/15 19/19/15
f 21/21/16 19/19/15 20/20/15
f 20/20/15 22/22/17 21/21/16
f 23/23/18 21/21/16 22/22/17
f 22/22/17 24/24/19 23/23/18
f 2/25/2 23/23/18 24/24/19
f 24/24/19 3/26/3 2/25/2
f 25/27/20 26/3/21 27/2/22
f 27/2/22 28/28/20 25/27/20
f 25/27/20 28/28/20 29/1/23
f 29/1/23 30/4/23 25/27/20
f 31/29/24 30/4/23 29/1/23
f 29/1/23 32/30/25 31/29/24
f 31/29/24 32/30/25 33/5/26
f 33/5/26 34/6/26 31/29/24
f 35/31/27 34/6/26 33/5/26
f 33/5/26 36/32/27 35/31/27
f 35/31/27 36/32/27 37/7/28
f 37/7/28 38/8/28 35/31/27
f 39/33/29 38/8/28 37/7/28
f 37/7/28 40/34/30 39/33/29
f 39/33/29 40/34/30 41/9/31
f 41/9/31 42/10/31 39/33/29
f 43/35/32 42/10/31 41/9/31
f 41/9/31 44/36/32 43/35/32
f 43/35/32 44/36/32 45/11/33
f 45/11/33 46/12/33 43/35/32
f 47/37/34 46/12/33 45/11/33
f 45/11/33 48/38/34 47/37/34
f 47/37/34 48/38/34 49/13/35
f 49/13/35 50/14/35 47/37/34
f 51/39/36 50/14/35 49/13/35
f 49/13/35 52/40/37 51/39/36
f 51/39/36 52/40/37 53/15/38
f 53/15/38 54/16/39 51/39/36
f 55/41/40 54/16/39 53/15/38
f 53/15/38 56/42/40 55/41/40
f 55/41/40 56/42/40 57/17/41
f 57/17/41 58/18/41 55/41/40
f 59/43/42 58/18/41 57/17/41
f 57/17/41 60/44/43 59/43/42
f 59/43/42 60/44/43 61/19/44
f 61/19/44 62/20/44 59/43/42
f 63/45/45 62/20/44 61/19/44
f 61/19/44 64/46/46 63/45/45
f 63/45/45 64/46/46 65/21/47
f 65/21/47 66/22/47 63/45/45
f 67/47/48 66/22/47 65/21/47
f 65/21/47 68/48/48 67/47/48
f 67/47/48 68/48/48 69/23/49
f 69/23/49 70/24/49 67/47/48
f 71/49/50 70/24/49 69/23/49
f 69/23/49 72/50/50 71/49/50
f 71/49/50 72/50/50 27/25/22
f 27/25/22 26/26/21 71/49/50
