# Blender 3.6.18
# www.blender.org
mtllib Mesh.1163.mtl
o Bistro_Research_Exterior_Paris_Building_01_paris_buildi_84dfc92
v 1.583432 8.027264 -11.747979
v 1.583431 10.974442 -11.747978
v 1.609175 8.027264 -11.733984
v 1.609220 10.974442 -11.733957
v 1.578344 8.027265 -11.760503
v 1.583611 8.027265 -11.748309
v 1.578343 10.974442 -11.760499
v 1.583607 10.974442 -11.748302
v 1.619636 8.027264 -11.814569
v 1.619635 10.974442 -11.814567
v 1.679702 8.027264 -11.781912
v 1.679702 10.974442 -11.781910
v 1.607363 8.027266 -11.649190
v 1.607363 10.974444 -11.649190
v 1.607357 10.974442 -11.649186
v 1.607358 8.027266 -11.649187
v 1.547408 10.974442 -11.681709
v 1.547413 8.027265 -11.681717
v 1.542233 10.974442 -11.693859
v 1.542235 8.027265 -11.693863
v 1.571256 10.974442 -11.747242
v 1.571258 8.027264 -11.747246
v 1.607366 10.974442 -11.813882
v 1.607368 8.027264 -11.813886
v 1.637016 8.027266 -11.719335
v 1.637015 10.974443 -11.719334
v 1.642788 8.027266 -11.716203
v 1.642788 10.974444 -11.716203
v 1.252940 7.946736 -11.058127
v 1.196139 7.946741 -11.089184
v 1.252940 11.054978 -11.058127
v 1.198035 11.054982 -11.087995
v 1.177415 7.946741 -11.083691
v 1.179296 11.054982 -11.082477
v 1.131415 11.054976 -10.994798
v 1.129307 7.946734 -10.995600
v 1.222628 10.936733 -11.011778
v 1.177024 10.940813 -11.036586
v 1.610358 10.936733 -11.734313
v 1.566230 10.940772 -11.758397
v 1.164913 10.955695 -11.043174
v 1.554116 10.955677 -11.765008
v 1.553845 11.054897 -11.765156
v 1.164737 11.054980 -11.043263
v 1.252231 10.202570 -10.990671
v 1.204994 10.204780 -11.014667
v 1.639964 10.202577 -11.713211
v 1.594213 10.204769 -11.736495
v 1.199265 10.211617 -11.017818
v 1.588474 10.211613 -11.739658
v 1.589190 10.254691 -11.740890
v 1.200069 10.254732 -11.019005
v 1.205961 10.261296 -11.016046
v 1.595063 10.261210 -11.737927
v 1.643913 10.260831 -11.711237
v 1.256193 10.261293 -10.988721
v 1.252476 9.435997 -10.991111
v 1.207874 9.438199 -11.018247
v 1.640215 9.436004 -11.713660
v 1.597087 9.438188 -11.740063
v 1.202026 9.445034 -11.021369
v 1.591234 9.445028 -11.743208
v 1.589554 9.488121 -11.741358
v 1.200433 9.488163 -11.019473
v 1.205961 9.494720 -11.016046
v 1.595063 9.494634 -11.737927
v 1.643913 9.494253 -11.711237
v 1.256193 9.494718 -10.988721
v 1.252526 8.669417 -10.991193
v 1.207894 8.671624 -11.019249
v 1.640267 8.669423 -11.713745
v 1.597105 8.671614 -11.741064
v 1.202088 8.678450 -11.022326
v 1.591297 8.678445 -11.744165
v 1.589562 8.721550 -11.741485
v 1.200441 8.721592 -11.019599
v 1.205961 8.728142 -11.016046
v 1.595063 8.728056 -11.737927
v 1.643913 8.727676 -11.711237
v 1.256193 8.728140 -10.988721
v 1.971996 11.054979 -12.389641
v 1.919949 11.054981 -12.418147
v 1.971998 7.946737 -12.389641
v 1.917883 7.946741 -12.419025
v 1.914459 11.054980 -12.436891
v 1.912369 7.946741 -12.437724
v 1.960838 7.946732 -12.526482
v 1.962524 11.054974 -12.524910
v 1.998428 8.063980 -12.438110
v 1.955213 8.063980 -12.461670
v 1.614239 8.063980 -11.732196
v 1.566490 8.063980 -11.758302
v 1.942431 8.050200 -12.468622
v 1.554043 8.050183 -11.765088
v 1.551521 7.947153 -11.766320
v 1.937446 7.946808 -12.471222
v 2.028091 10.260369 -12.417131
v 1.980621 10.261122 -12.443188
v 1.974768 10.254648 -12.446153
v 1.974141 10.211609 -12.444877
v 1.979891 10.204757 -12.441701
v 2.024154 10.202583 -12.419129
v 2.028091 9.493793 -12.417131
v 1.980621 9.494545 -12.443188
v 1.975133 9.488078 -12.446622
v 1.976901 9.445024 -12.448425
v 1.982756 9.438176 -12.445258
v 2.024413 9.436010 -12.419590
v 2.028091 8.727215 -12.417131
v 1.980621 8.727968 -12.443188
v 1.975141 8.721509 -12.446749
v 1.976963 8.678441 -12.449384
v 1.982773 8.671602 -12.446258
v 2.024467 8.669431 -12.419676
v 1.168066 7.946736 -11.034444
v 1.111265 7.946742 -11.065500
v 1.168066 11.054978 -11.034444
v 1.113161 11.054982 -11.064312
v 1.092540 7.946742 -11.060008
v 1.094422 11.054982 -11.058793
v 1.046540 11.054976 -10.971115
v 1.044432 7.946735 -10.971916
v 1.141632 10.991713 -11.010129
v 1.096028 10.995791 -11.034936
v 1.981103 10.991713 -12.563560
v 1.936975 10.995750 -12.587645
v 1.083917 11.010674 -11.041524
v 1.924862 11.010656 -12.594255
v 1.924590 11.109876 -12.594403
v 1.083742 11.109960 -11.041614
v 1.944750 11.054979 -12.471954
v 1.892703 11.054981 -12.500461
v 1.944752 7.946737 -12.471954
v 1.890638 7.946741 -12.501339
v 1.887213 11.054980 -12.519204
v 1.885123 7.946741 -12.520038
v 1.933592 7.946732 -12.608795
v 1.935278 11.054974 -12.607224
v 1.174226 8.063980 -11.038316
v 1.226508 8.063980 -11.009662
v 1.162115 8.050179 -11.044931
v 1.162053 7.947500 -11.044797
v 1.951893 10.940729 -12.463587
v 1.994546 10.936733 -12.440228
v 1.939778 10.955661 -12.470223
v 1.939410 11.054813 -12.470426
v 1.585529 10.991762 -11.680757
v 1.585529 8.008774 -11.680757
v 1.226508 10.991762 -11.009662
v 1.226508 8.008775 -11.009662
v 1.644096 8.022575 -11.788182
v 1.644096 10.991762 -11.788182
v 1.998426 10.991762 -12.438110
v 1.998428 8.022575 -12.438110
v 1.998428 8.008774 -12.438110
v 1.644096 8.008774 -11.788182
vn 0.4736 -0.0039 -0.8807
vn -0.9187 -0.0039 0.3948
vn -0.9187 -0.0039 0.3949
vn 0.5016 -0.0039 0.8651
vn 0.5016 -0.0040 0.8651
vn 0.0276 -0.0040 0.9996
vn 0.0119 -0.0040 0.9999
vn -0.4736 -0.0039 0.8807
vn -0.4736 -0.0000 0.8807
vn -0.8775 -0.0000 -0.4797
vn -0.8774 -0.0039 -0.4797
vn -0.8775 -0.0039 -0.4797
vn -0.0665 -0.0039 -0.9978
vn -0.8774 -0.0038 -0.4797
vn -0.5339 -0.0039 -0.8456
vn -0.5338 -0.0039 -0.8456
vn -0.0587 -0.0039 -0.9983
vn -0.4830 -0.0039 0.8756
vn 0.4737 0.0003 -0.8807
vn -0.8775 0.0007 -0.4797
vn -0.0742 -0.9963 -0.0430
vn -0.0743 -0.9963 -0.0430
vn -0.0742 -0.9963 -0.0429
vn -0.0758 -0.9963 -0.0402
vn -0.8775 -0.0039 -0.4796
vn -0.0431 -0.9987 -0.0274
vn -0.0053 1.0000 -0.0015
vn 0.0008 1.0000 0.0008
vn -0.0018 1.0000 -0.0009
vn -0.0040 1.0000 -0.0040
vn -0.8773 -0.0195 -0.4796
vn -0.0053 1.0000 -0.0014
vn -0.8774 -0.0117 -0.4796
vn -0.8774 -0.0117 -0.4797
vn -0.0039 1.0000 -0.0039
vn -0.4829 0.0003 0.8757
vn -0.8774 0.0007 -0.4797
vn -0.0039 1.0000 -0.0040
vn -0.8769 0.0351 -0.4794
vn 0.0039 1.0000 0.0039
vn 0.0040 1.0000 0.0040
vn 0.1053 -0.0039 -0.9944
vn -0.6290 -0.0039 -0.7774
vn -0.3854 -0.8994 -0.2063
vn -0.3848 -0.8979 -0.2138
vn -0.8168 -0.3713 -0.4416
vn -0.8140 -0.3700 -0.4479
vn -0.7813 -0.0040 0.6242
vn -0.7812 -0.0039 0.6242
vn -0.9936 -0.0039 -0.1130
vn -0.0052 1.0000 -0.0015
vn -0.8793 0.0117 -0.4761
vn -0.8774 0.0117 -0.4796
vn -0.0754 -0.9963 -0.0409
vn -0.8774 -0.0042 -0.4798
vn -0.8807 -0.0039 -0.4736
vt -0.000000 0.276855
vt 1.043945 0.276855
vt -0.000000 0.183594
vt -0.000000 0.170898
vt 1.043945 0.184570
vt 1.043945 0.170898
vt -0.000000 0.152832
vt 1.043945 0.152832
vt 1.043945 0.154297
vt -0.000000 0.154297
vt 1.043945 0.265137
vt -0.000000 0.266113
vt -0.000002 0.296875
vt -0.000000 0.280762
vt 1.053711 0.296875
vt 1.053711 0.280762
vt -0.000000 0.264648
vt 1.053711 0.264160
vt 1.053711 0.172852
vt -0.000000 0.172852
vt 0.653809 0.152832
vt 0.653809 0.168457
vt 0.326904 0.152832
vt 0.326904 0.168457
vt 0.653809 0.185547
vt 0.326904 0.185547
vt 0.326904 0.276855
vt 0.653809 0.276855
vt 0.653809 0.916382
vt 0.653809 0.933044
vt 0.326904 0.916443
vt 0.326904 0.932983
vt 0.653809 0.939514
vt 0.326904 0.939514
vt 0.326904 0.968719
vt 0.653809 0.968719
vt 0.653809 0.975098
vt 0.326904 0.975128
vt 0.326904 0.991951
vt 0.653809 0.991997
vt 0.653809 0.932983
vt 0.326904 0.932922
vt 1.053711 0.152832
vt 1.053711 0.168945
vt -0.000000 0.168945
vt 1.053711 0.185059
vt -0.000000 0.185059
vt 1.053711 0.276855
vt -0.000000 0.296875
vt -0.000000 0.281250
vt 0.352051 0.296875
vt 0.352051 0.281250
vt 0.352051 0.264648
vt 0.352051 0.172852
vt -0.000047 0.991905
vt -0.000047 0.975174
vt -0.000047 0.968719
vt -0.000047 0.939514
vt -0.000047 0.932922
vt -0.000047 0.916504
vt 0.704102 0.280762
vt 0.704102 0.296875
vt 0.704102 0.264648
vt 0.704102 0.172852
vt -0.000000 0.168457
vt -0.000000 0.185547
vt 1.045898 0.738037
vt -0.017853 0.738037
vt 1.045898 0.436523
vt -0.017853 0.436523
vt 0.062622 0.380859
vt 1.122070 0.380859
vt 1.122070 0.682617
vt 0.062622 0.682617
vt 0.057709 0.682617
vt 0.057709 0.380859
s 1
usemtl MASTER_Wood_Painted3
f 1/1/1 2/2/1 3/1/1
f 2/2/1 4/2/1 3/1/1
f 5/3/2 6/4/2 7/5/2
f 6/4/3 8/6/3 7/5/3
f 9/1/1 10/2/1 11/1/1
f 10/2/1 12/2/1 11/1/1
f 13/7/4 14/8/5 15/9/6
f 16/10/7 13/7/4 15/9/6
f 15/9/6 17/6/8 16/10/7
f 17/6/8 18/4/9 16/10/7
f 18/4/9 17/6/8 19/5/10
f 20/3/11 18/4/9 19/5/10
f 20/3/11 19/5/10 21/11/12
f 22/12/11 20/3/11 21/11/12
f 21/11/12 2/2/13 22/12/11
f 2/2/13 1/1/13 22/12/14
f 5/3/11 7/5/11 23/11/15
f 24/12/16 5/3/11 23/11/15
f 23/11/15 10/2/17 24/12/16
f 10/2/17 9/1/17 24/12/16
f 8/6/18 6/4/18 25/10/18
f 26/9/18 8/6/18 25/10/18
f 25/10/18 27/7/18 26/9/18
f 27/7/18 28/8/18 26/9/18
f 29/13/1 30/14/1 31/15/1
f 30/14/1 32/16/19 31/15/1
f 30/14/1 33/17/20 32/16/19
f 33/17/20 34/18/11 32/16/19
f 35/19/11 34/18/11 33/17/20
f 36/20/11 35/19/11 33/17/20
f 37/21/21 38/22/22 39/23/23
f 38/22/22 40/24/24 39/23/23
f 38/22/22 41/25/11 40/24/24
f 41/25/11 42/26/25 40/24/24
f 43/27/25 42/26/25 41/25/11
f 44/28/11 43/27/25 41/25/11
f 45/29/26 46/30/26 47/31/26
f 46/30/26 48/32/26 47/31/26
f 46/30/26 49/33/11 48/32/26
f 49/33/11 50/34/11 48/32/26
f 51/35/11 50/34/11 49/33/11
f 52/36/11 51/35/11 49/33/11
f 52/36/11 53/37/27 51/35/11
f 53/37/27 54/38/28 51/35/11
f 54/38/28 53/37/27 55/39/29
f 53/37/27 56/40/30 55/39/29
f 57/29/26 58/41/26 59/31/26
f 58/41/26 60/42/26 59/31/26
f 58/41/26 61/33/31 60/42/26
f 61/33/31 62/34/31 60/42/26
f 63/35/31 62/34/31 61/33/31
f 64/36/31 63/35/31 61/33/31
f 64/36/31 65/37/32 63/35/31
f 65/37/32 66/38/28 63/35/31
f 66/38/28 65/37/32 67/39/29
f 65/37/32 68/40/30 67/39/29
f 69/29/26 70/30/26 71/31/26
f 70/30/26 72/32/26 71/31/26
f 70/30/26 73/33/33 72/32/26
f 73/33/33 74/34/34 72/32/26
f 75/35/33 74/34/34 73/33/33
f 76/36/33 75/35/33 73/33/33
f 76/36/33 77/37/27 75/35/33
f 77/37/27 78/38/28 75/35/33
f 78/38/28 77/37/27 79/39/29
f 77/37/27 80/40/35 79/39/29
f 81/43/18 82/44/18 83/7/18
f 82/44/18 84/45/36 83/7/18
f 82/44/18 85/46/37 84/45/36
f 85/46/37 86/47/11 84/45/36
f 87/1/11 86/47/11 85/46/37
f 88/48/11 87/1/11 85/46/37
f 89/49/35 90/50/35 91/51/35
f 90/50/35 92/52/38 91/51/35
f 90/50/35 93/17/39 92/52/38
f 93/17/39 94/53/39 92/52/38
f 95/54/39 94/53/39 93/17/39
f 96/20/39 95/54/39 93/17/39
f 97/55/40 98/56/41 55/39/29
f 98/56/41 54/38/28 55/39/29
f 54/38/28 98/56/41 99/57/11
f 51/35/11 54/38/28 99/57/11
f 51/35/11 99/57/11 50/34/11
f 99/57/11 100/58/11 50/34/11
f 50/34/11 100/58/11 101/59/26
f 48/32/26 50/34/11 101/59/26
f 48/32/26 101/59/26 47/31/26
f 101/59/26 102/60/26 47/31/26
f 103/55/41 104/56/41 67/39/29
f 104/56/41 66/38/28 67/39/29
f 66/38/28 104/56/41 105/57/31
f 63/35/31 66/38/28 105/57/31
f 63/35/31 105/57/31 62/34/31
f 105/57/31 106/58/31 62/34/31
f 62/34/31 106/58/31 107/59/26
f 60/42/26 62/34/31 107/59/26
f 60/42/26 107/59/26 59/31/26
f 107/59/26 108/60/26 59/31/26
f 109/55/41 110/56/40 79/39/29
f 110/56/40 78/38/28 79/39/29
f 78/38/28 110/56/40 111/57/33
f 75/35/33 78/38/28 111/57/33
f 75/35/33 111/57/33 74/34/34
f 111/57/33 112/58/33 74/34/34
f 74/34/34 112/58/33 113/59/26
f 72/32/26 74/34/34 113/59/26
f 72/32/26 113/59/26 71/31/26
f 113/59/26 114/60/26 71/31/26
f 115/13/1 116/14/42 117/15/1
f 116/14/42 118/16/42 117/15/1
f 116/14/42 119/17/43 118/16/42
f 119/17/43 120/18/43 118/16/42
f 121/19/11 120/18/43 119/17/43
f 122/20/11 121/19/11 119/17/43
f 123/21/21 124/22/44 125/23/21
f 124/22/44 126/24/45 125/23/21
f 124/22/44 127/25/46 126/24/45
f 127/25/46 128/26/47 126/24/45
f 129/27/25 128/26/47 127/25/46
f 130/28/11 129/27/25 127/25/46
f 131/43/18 132/44/48 133/7/18
f 132/44/48 134/45/49 133/7/18
f 132/44/48 135/46/50 134/45/49
f 135/46/50 136/47/50 134/45/49
f 137/1/11 136/47/50 135/46/50
f 138/48/11 137/1/11 135/46/50
f 139/61/51 140/62/35 91/51/35
f 92/52/38 139/61/51 91/51/35
f 92/52/38 94/53/52 139/61/51
f 94/53/52 141/63/53 139/61/51
f 142/64/53 141/63/53 94/53/52
f 95/54/53 142/64/53 94/53/52
f 143/65/54 144/7/21 39/23/23
f 40/24/24 143/65/54 39/23/23
f 40/24/24 42/26/25 143/65/54
f 42/26/25 145/66/11 143/65/54
f 146/1/55 145/66/11 42/26/25
f 43/27/25 146/1/55 42/26/25
usemtl MASTER_Glass_Dirty_MASKED
f 147/67/56 148/68/56 149/69/56
f 148/68/56 150/70/56 149/69/56
f 151/71/11 152/72/11 153/73/11
f 154/74/11 151/71/11 153/73/11
f 154/74/11 155/75/11 151/71/11
f 155/75/11 156/76/11 151/71/11
