# Blender 3.6.18
# www.blender.org
mtllib Mesh.1118.mtl
o Bistro_Research_Exterior_Paris_Building_01_paris_buildi_50003fe
v 0.186574 7.464689 -10.248353
v 0.351283 7.464689 -10.155581
v 0.351283 6.998815 -10.155581
v 0.186574 6.998815 -10.248353
v 0.161709 7.464689 -10.253014
v 0.161709 6.998815 -10.253014
v 0.143062 7.464689 -10.235917
v 0.143062 6.998815 -10.235917
v -0.288487 7.464689 -9.458961
v -0.288487 6.998815 -9.458961
v -0.293147 6.998815 -9.434095
v -0.293147 7.464689 -9.434095
v -0.276051 6.998815 -9.415448
v -0.276051 7.464689 -9.415448
v -0.111342 7.464689 -9.322679
v -0.111342 6.998815 -9.322679
v 5.182072 7.464689 3.936441
v 5.253541 7.464689 3.761432
v 5.253541 6.998815 3.761432
v 5.182072 6.998815 3.936441
v 5.180556 7.464689 3.961693
v 5.180556 6.998815 3.961693
v 5.199848 7.464689 3.978059
v 5.199848 6.998815 3.978059
v 6.024631 7.464688 4.309161
v 6.024631 6.998814 4.309161
v 6.049883 6.998814 4.310679
v 6.049883 7.464688 4.310679
v 6.066248 6.998814 4.291387
v 6.066248 7.464688 4.291387
v 6.137713 7.464688 4.116378
v 6.137713 6.998814 4.116378
v -0.276051 11.492469 -9.415448
v -0.111342 11.492469 -9.322679
v -0.111342 11.966472 -9.322679
v -0.276051 11.966472 -9.415448
v -0.293147 11.966472 -9.434095
v -0.293147 11.492469 -9.434095
v -0.288487 11.966472 -9.458961
v -0.288487 11.492469 -9.458961
v 0.143062 11.492471 -10.235917
v 0.143062 11.966473 -10.235917
v 0.161709 11.966473 -10.253014
v 0.161709 11.492471 -10.253014
v 0.186574 11.966473 -10.248353
v 0.186574 11.492471 -10.248353
v 0.351283 11.492471 -10.155581
v 0.351283 11.966473 -10.155581
v 0.186574 7.516679 -10.248353
v 0.186574 11.440482 -10.248353
v 0.351283 7.516679 -10.155581
v 0.351283 11.440482 -10.155581
v 0.193609 11.466476 -10.223739
v 0.326669 11.466476 -10.148546
v 0.161709 11.440482 -10.253014
v 0.168744 11.466476 -10.228399
v 0.150097 11.466476 -10.211303
v 0.143062 11.440482 -10.235917
v -0.263873 11.466475 -9.465996
v -0.268533 11.466475 -9.441131
v -0.288487 11.440481 -9.458961
v -0.293147 11.440481 -9.434095
v -0.288487 7.516678 -9.458961
v -0.276051 11.440481 -9.415448
v -0.251437 11.466475 -9.422482
v -0.118377 11.466475 -9.347293
v -0.111342 11.440481 -9.322679
v -0.111342 7.516678 -9.322679
v -0.276051 7.516678 -9.415448
v -0.251437 7.490684 -9.422482
v -0.118377 7.490684 -9.347293
v -0.293147 7.516678 -9.434095
v -0.268533 7.490684 -9.441131
v -0.263873 7.490684 -9.465996
v 0.150097 7.490685 -10.211303
v 0.143062 7.516679 -10.235917
v 0.168744 7.490685 -10.228399
v 0.161709 7.516679 -10.253014
v 0.193609 7.490685 -10.223739
v 0.326669 7.490685 -10.148546
v 6.066248 11.492468 4.291387
v 6.137713 11.492468 4.116378
v 6.137713 11.966471 4.116378
v 6.066248 11.966471 4.291387
v 6.049883 11.966471 4.310679
v 6.049883 11.492468 4.310679
v 6.024631 11.966471 4.309161
v 6.024631 11.492468 4.309161
v 5.199848 11.492469 3.978059
v 5.199848 11.966472 3.978059
v 5.180556 11.966472 3.961693
v 5.180556 11.492469 3.961693
v 5.182072 11.966472 3.936441
v 5.182072 11.492469 3.936441
v 5.253541 11.492469 3.761433
v 5.253541 11.966472 3.761433
v 5.182072 7.516678 3.936441
v 5.182072 11.440481 3.936441
v 5.253541 7.516678 3.761432
v 5.253541 11.440481 3.761433
v 5.205616 11.466475 3.926386
v 5.263596 11.466475 3.784975
v 5.180556 11.440481 3.961693
v 5.204098 11.466475 3.951638
v 5.223391 11.466475 3.968003
v 5.199848 11.440481 3.978059
v 6.014575 11.466475 4.285620
v 6.039827 11.466475 4.287138
v 6.024631 11.440480 4.309161
v 6.049883 11.440480 4.310679
v 6.024631 7.516677 4.309161
v 6.066248 11.440480 4.291387
v 6.056194 11.466475 4.267845
v 6.114172 11.466475 4.126434
v 6.137713 11.440480 4.116378
v 6.137713 7.516677 4.116378
v 6.066248 7.516677 4.291387
v 6.056194 7.490684 4.267845
v 6.114172 7.490684 4.126434
v 6.049883 7.516677 4.310679
v 6.039827 7.490684 4.287138
v 6.014575 7.490684 4.285620
v 5.223391 7.490684 3.968003
v 5.199848 7.516678 3.978059
v 5.204098 7.490684 3.951638
v 5.180556 7.516678 3.961693
v 5.205616 7.490684 3.926386
v 5.263596 7.490684 3.784975
vn 0.4890 -0.0039 -0.8723
vn 0.4889 -0.0039 -0.8723
vn -0.6752 -0.0039 -0.7376
vn -0.6752 -0.0000 -0.7376
vn -0.8723 -0.0039 -0.4890
vn -0.8723 -0.0039 -0.4889
vn -0.7415 -0.0000 0.6709
vn -0.7415 -0.0039 0.6709
vn -0.4982 -0.0039 0.8670
vn -0.4983 -0.0039 0.8670
vn -0.9255 -0.0039 -0.3788
vn -0.6498 -0.0039 0.7601
vn -0.6498 -0.0000 0.7601
vn -0.3748 -0.0040 0.9271
vn -0.3748 -0.0039 0.9271
vn 0.7640 -0.0000 0.6452
vn 0.7640 -0.0040 0.6452
vn 0.9271 -0.0039 0.3748
vn 0.1765 -0.0000 -0.9843
vn 0.1765 -0.0039 -0.9843
vn 0.4911 -0.0039 -0.8711
vn 0.3953 -0.5752 -0.7161
vn 0.3952 -0.5753 -0.7162
vn 0.1764 -0.0039 -0.9843
vn 0.3953 -0.5753 -0.7161
vn 0.1374 0.6559 -0.7422
vn -0.7171 0.5682 -0.4037
vn -0.7139 -0.5735 -0.4018
vn -0.7171 0.5682 -0.4036
vn -0.5581 -0.6596 0.5035
vn -0.7415 -0.0040 0.6709
vn -0.4041 -0.5767 0.7100
vn -0.4041 -0.5767 0.7101
vn -0.4040 -0.5767 0.7101
vn -0.9829 -0.0039 -0.1841
vn -0.4059 0.5714 0.7133
vn 0.1375 0.6559 -0.7423
vn 0.3970 0.5700 -0.7194
vn 0.3952 -0.5753 -0.7161
vn -0.6498 -0.0040 0.7601
vn -0.9256 -0.0039 -0.3784
vn -0.7579 -0.5714 -0.3149
vn -0.7579 -0.5714 -0.3148
vn -0.7579 -0.5713 -0.3148
vn -0.7552 0.6535 -0.0509
vn -0.3096 -0.5761 0.7565
vn -0.3096 -0.5761 0.7564
vn -0.3096 -0.5762 0.7564
vn 0.5700 -0.6643 0.4835
vn 0.7640 -0.0039 0.6452
vn 0.7564 -0.5762 0.3096
vn 0.7564 -0.5761 0.3096
vn 0.7564 -0.5761 0.3097
vn 0.7564 -0.5762 0.3097
vn -0.0670 -0.0039 0.9977
vn 0.7598 0.5709 0.3110
vn -0.3110 0.5709 0.7599
vn -0.3110 0.5709 0.7598
vn -0.7552 0.6535 -0.0508
vn -0.9978 -0.0039 -0.0665
vn -0.7613 0.5661 -0.3162
vt 0.408447 0.122070
vt 0.371582 0.124512
vt 0.365723 0.038574
vt 0.403809 0.036133
vt 0.411865 0.121582
vt 0.410645 0.035645
vt 0.415527 0.121582
vt 0.416504 0.036133
vt 0.592773 0.125977
vt 0.593750 0.039551
vt 0.597656 0.039551
vt 0.597656 0.125488
vt 0.603516 0.039551
vt 0.601562 0.125488
vt 0.638672 0.127441
vt 0.641602 0.041016
vt 0.590820 0.876038
vt 0.627930 0.874634
vt 0.631348 0.962036
vt 0.592773 0.963470
vt 0.586914 0.963531
vt 0.587402 0.876038
vt 0.582031 0.963440
vt 0.583008 0.875244
vt 0.405518 0.874146
vt 0.405029 0.961151
vt 0.400879 0.961334
vt 0.400879 0.874146
vt 0.394775 0.961151
vt 0.397217 0.873779
vt 0.360107 0.871704
vt 0.356689 0.959442
vt 0.408691 0.136230
vt 0.396729 0.860229
vt 0.370117 0.134766
vt 0.360596 0.860107
vt 0.394775 0.867065
vt 0.364014 0.866089
vt 0.401855 0.860107
vt 0.401611 0.867065
vt 0.408447 0.867188
vt 0.406006 0.860229
vt 0.580078 0.869263
vt 0.586914 0.869141
vt 0.583008 0.863159
vt 0.586914 0.862305
vt 0.592773 0.137695
vt 0.590332 0.862549
vt 0.593262 0.868774
vt 0.624512 0.869507
vt 0.628906 0.863892
vt 0.638184 0.138672
vt 0.602051 0.138672
vt 0.604004 0.131836
vt 0.634766 0.132812
vt 0.596680 0.138672
vt 0.597168 0.131836
vt 0.589844 0.131348
vt 0.418457 0.129395
vt 0.415771 0.136230
vt 0.411865 0.129395
vt 0.411621 0.136230
vt 0.406006 0.129395
vt 0.375000 0.129395
s 1
usemtl MASTER_Concrete
f 1/1/1 2/2/1 3/3/1
f 4/4/2 1/1/1 3/3/1
f 5/5/3 1/1/1 4/4/2
f 6/6/4 5/5/3 4/4/2
f 7/7/5 5/5/3 6/6/4
f 8/8/6 7/7/5 6/6/4
f 9/9/5 7/7/5 8/8/6
f 10/10/6 9/9/5 8/8/6
f 9/9/5 10/10/6 11/11/7
f 12/12/8 9/9/5 11/11/7
f 12/12/8 11/11/7 13/13/9
f 14/14/10 12/12/8 13/13/9
f 14/14/10 13/13/9 15/15/10
f 13/13/9 16/16/10 15/15/10
f 17/1/11 18/2/11 19/3/11
f 20/4/11 17/1/11 19/3/11
f 21/5/12 17/1/11 20/4/11
f 22/6/13 21/5/12 20/4/11
f 23/7/14 21/5/12 22/6/13
f 24/8/15 23/7/14 22/6/13
f 25/9/15 23/7/14 24/8/15
f 26/10/15 25/9/15 24/8/15
f 25/9/15 26/10/15 27/11/16
f 28/12/17 25/9/15 27/11/16
f 28/12/17 27/11/16 29/13/18
f 30/14/18 28/12/17 29/13/18
f 30/14/18 29/13/18 31/15/18
f 29/13/18 32/16/18 31/15/18
f 33/17/10 34/18/10 35/19/10
f 36/20/10 33/17/10 35/19/10
f 36/20/10 37/21/8 33/17/10
f 37/21/8 38/22/7 33/17/10
f 37/21/8 39/23/5 38/22/7
f 39/23/5 40/24/6 38/22/7
f 41/25/5 40/24/6 39/23/5
f 42/26/6 41/25/5 39/23/5
f 41/25/5 42/26/6 43/27/19
f 44/28/20 41/25/5 43/27/19
f 44/28/20 43/27/19 45/29/1
f 46/30/2 44/28/20 45/29/1
f 46/30/2 45/29/1 47/31/1
f 45/29/2 48/32/2 47/31/2
f 49/33/2 50/34/2 51/35/2
f 50/34/1 52/36/21 51/35/2
f 50/34/1 53/37/22 52/36/21
f 53/37/22 54/38/23 52/36/21
f 50/34/1 55/39/24 53/37/22
f 47/31/25 54/38/23 46/30/25
f 54/38/23 53/37/22 46/30/25
f 53/37/22 56/40/26 46/30/25
f 55/39/24 56/40/26 53/37/22
f 56/40/26 44/28/20 46/30/25
f 56/40/26 57/41/27 44/28/20
f 57/41/27 41/25/28 44/28/20
f 41/25/28 57/41/27 40/24/28
f 58/42/5 57/41/27 56/40/26
f 55/39/24 58/42/5 56/40/26
f 57/41/27 59/43/29 40/24/28
f 57/41/27 58/42/5 59/43/29
f 40/24/28 59/43/29 60/44/30
f 38/22/8 40/24/28 60/44/30
f 58/42/5 61/45/5 59/43/29
f 59/43/29 61/45/5 62/46/31
f 60/44/30 59/43/29 62/46/31
f 63/47/5 61/45/5 58/42/5
f 60/44/30 62/46/31 64/48/9
f 38/22/8 60/44/30 65/49/32
f 65/49/32 60/44/30 64/48/9
f 33/17/33 38/22/8 65/49/32
f 33/17/33 65/49/32 34/18/10
f 65/49/32 66/50/34 34/18/10
f 66/50/34 65/49/32 64/48/9
f 67/51/9 66/50/34 64/48/9
f 68/52/9 67/51/9 64/48/9
f 69/53/9 68/52/9 64/48/9
f 64/48/8 62/46/8 69/53/9
f 69/53/9 70/54/32 68/52/9
f 70/54/32 71/55/34 68/52/9
f 62/46/8 72/56/8 69/53/9
f 69/53/9 72/56/8 70/54/32
f 62/46/8 61/45/35 72/56/8
f 61/45/35 63/47/5 72/56/8
f 71/55/34 70/54/32 14/14/36
f 15/15/9 71/55/34 14/14/36
f 72/56/8 73/57/30 70/54/32
f 70/54/32 73/57/30 14/14/36
f 72/56/8 63/47/5 73/57/30
f 73/57/30 12/12/31 14/14/36
f 73/57/30 74/58/28 12/12/31
f 63/47/5 74/58/28 73/57/30
f 74/58/28 9/9/29 12/12/31
f 9/9/29 74/58/28 7/7/29
f 75/59/28 74/58/28 63/47/5
f 74/58/28 75/59/28 7/7/29
f 76/60/5 75/59/28 63/47/5
f 76/60/5 63/47/5 58/42/5
f 76/60/5 58/42/5 55/39/24
f 7/7/29 75/59/28 77/61/37
f 5/5/3 7/7/29 77/61/37
f 75/59/28 76/60/5 78/62/24
f 78/62/24 76/60/5 55/39/24
f 77/61/37 75/59/28 78/62/24
f 78/62/24 55/39/24 50/34/20
f 49/33/20 78/62/24 50/34/20
f 77/61/37 78/62/24 49/33/20
f 5/5/3 77/61/37 79/63/23
f 79/63/23 77/61/37 49/33/20
f 1/1/38 5/5/3 79/63/23
f 1/1/38 79/63/23 2/2/1
f 79/63/23 80/64/25 2/2/1
f 80/64/25 79/63/23 49/33/20
f 51/35/39 80/64/25 49/33/20
f 81/17/18 82/18/18 83/19/18
f 84/20/18 81/17/18 83/19/18
f 84/20/18 85/21/17 81/17/18
f 85/21/17 86/22/16 81/17/18
f 85/21/17 87/23/15 86/22/16
f 87/23/15 88/24/15 86/22/16
f 89/25/15 88/24/15 87/23/15
f 90/26/15 89/25/15 87/23/15
f 89/25/15 90/26/15 91/27/40
f 92/28/13 89/25/15 91/27/40
f 92/28/13 91/27/40 93/29/11
f 94/30/11 92/28/13 93/29/11
f 94/30/11 93/29/11 95/31/11
f 93/29/11 96/32/11 95/31/11
f 97/33/11 98/34/11 99/35/11
f 98/34/11 100/36/41 99/35/11
f 98/34/11 101/37/42 100/36/41
f 101/37/42 102/38/43 100/36/41
f 98/34/11 103/39/40 101/37/42
f 95/31/43 102/38/43 94/30/44
f 102/38/43 101/37/42 94/30/44
f 101/37/42 104/40/45 94/30/44
f 103/39/40 104/40/45 101/37/42
f 104/40/45 92/28/12 94/30/44
f 104/40/45 105/41/46 92/28/12
f 105/41/46 89/25/47 92/28/12
f 89/25/47 105/41/46 88/24/48
f 106/42/15 105/41/46 104/40/45
f 103/39/40 106/42/15 104/40/45
f 105/41/46 107/43/46 88/24/48
f 105/41/46 106/42/15 107/43/46
f 88/24/48 107/43/46 108/44/49
f 86/22/17 88/24/48 108/44/49
f 106/42/15 109/45/14 107/43/46
f 107/43/46 109/45/14 110/46/50
f 108/44/49 107/43/46 110/46/50
f 111/47/15 109/45/14 106/42/15
f 108/44/49 110/46/50 112/48/18
f 86/22/17 108/44/49 113/49/51
f 113/49/51 108/44/49 112/48/18
f 81/17/52 86/22/17 113/49/51
f 81/17/52 113/49/51 82/18/18
f 113/49/51 114/50/53 82/18/18
f 114/50/53 113/49/51 112/48/18
f 115/51/18 114/50/53 112/48/18
f 116/52/18 115/51/18 112/48/18
f 117/53/18 116/52/18 112/48/18
f 112/48/50 110/46/17 117/53/18
f 117/53/18 118/54/52 116/52/18
f 118/54/52 119/55/54 116/52/18
f 110/46/17 120/56/17 117/53/18
f 117/53/18 120/56/17 118/54/52
f 110/46/17 109/45/55 120/56/17
f 109/45/55 111/47/15 120/56/17
f 119/55/54 118/54/52 30/14/56
f 31/15/18 119/55/54 30/14/56
f 120/56/17 121/57/49 118/54/52
f 118/54/52 121/57/49 30/14/56
f 120/56/17 111/47/15 121/57/49
f 121/57/49 28/12/17 30/14/56
f 121/57/49 122/58/57 28/12/17
f 111/47/15 122/58/57 121/57/49
f 122/58/57 25/9/57 28/12/17
f 25/9/57 122/58/57 23/7/58
f 123/59/57 122/58/57 111/47/15
f 122/58/57 123/59/57 23/7/58
f 124/60/15 123/59/57 111/47/15
f 124/60/15 111/47/15 106/42/15
f 124/60/15 106/42/15 103/39/40
f 23/7/58 123/59/57 125/61/59
f 21/5/12 23/7/58 125/61/59
f 123/59/57 124/60/15 126/62/12
f 126/62/12 124/60/15 103/39/40
f 125/61/59 123/59/57 126/62/12
f 126/62/12 103/39/40 98/34/60
f 97/33/60 126/62/12 98/34/60
f 125/61/59 126/62/12 97/33/60
f 21/5/12 125/61/59 127/63/43
f 127/63/43 125/61/59 97/33/60
f 17/1/61 21/5/12 127/63/43
f 17/1/61 127/63/43 18/2/11
f 127/63/43 128/64/44 18/2/11
f 128/64/44 127/63/43 97/33/60
f 99/35/43 128/64/44 97/33/60
