# Blender 3.6.18
# www.blender.org
mtllib Mesh.902.mtl
o Bistro_Research_Exterior_Paris_Building_01_paris_buildi_9058caa
v 3.333140 6.637237 -16.545614
v 3.339239 6.631423 -16.542328
v 3.334523 6.646144 -16.544870
v 3.346720 6.634516 -16.538294
v 3.348102 6.643424 -16.537548
v 3.342004 6.649238 -16.540834
v 3.355183 6.646144 -16.583191
v 3.353800 6.637237 -16.583935
v 3.400890 6.646144 -16.667965
v 3.399219 6.637238 -16.668175
v 3.412519 6.643042 -16.681746
v 3.359899 6.631423 -16.580645
v 3.367381 6.634517 -16.576614
v 3.404741 6.631423 -16.663818
v 3.411934 6.634516 -16.659250
v 3.409695 6.634443 -16.680586
v 3.428039 6.634334 -16.688663
v 3.412910 6.629243 -16.673498
v 3.418950 6.632645 -16.667564
v 3.423259 6.626832 -16.686636
v 3.443172 6.622212 -16.686293
v 3.422563 6.623828 -16.677801
v 3.426647 6.628327 -16.670996
v 3.436517 6.616212 -16.684557
v 3.453540 6.610009 -16.674875
v 3.432071 6.616213 -16.676311
v 3.434280 6.622212 -16.669800
v 3.445609 6.605511 -16.674545
v 3.456307 6.601243 -16.657995
v 3.438611 6.608514 -16.669109
v 3.439543 6.616016 -16.664003
v 3.448030 6.597842 -16.659779
v 3.451148 6.598119 -16.640581
v 3.440339 6.603041 -16.658567
v 3.440925 6.611639 -16.655575
v 3.443379 6.595025 -16.644079
v 3.405562 6.598119 -16.556028
v 3.436704 6.600839 -16.646297
v 3.437799 6.609746 -16.645020
v 3.398080 6.595026 -16.560061
v 3.384006 6.598118 -16.516047
v 3.376524 6.595026 -16.520079
v 3.391982 6.600839 -16.563349
v 3.393364 6.609746 -16.562605
v 3.370426 6.600839 -16.523369
v 3.371808 6.609746 -16.522621
v 3.368762 6.643423 -16.575869
v 3.413605 6.643424 -16.659040
v 3.362664 6.649238 -16.579155
v 3.408083 6.649238 -16.663397
v 3.421774 6.641244 -16.668718
v 3.418559 6.646443 -16.675810
v 3.431427 6.635828 -16.673023
v 3.432123 6.638833 -16.681856
v 3.440934 6.628214 -16.671532
v 3.445381 6.628213 -16.679779
v 3.447474 6.620515 -16.664331
v 3.454472 6.617511 -16.669765
v 3.449202 6.615042 -16.653790
v 3.456893 6.609843 -16.654999
v 3.445568 6.612840 -16.641520
v 3.452243 6.607026 -16.639299
v 3.400845 6.612840 -16.558571
v 3.379289 6.612839 -16.518589
v 3.406944 6.607027 -16.555283
v 3.385388 6.607026 -16.515299
vn -0.4830 -0.0039 0.8756
vn -0.6778 0.6386 -0.3644
vn -0.6778 0.6387 -0.3644
vn -0.8234 -0.3473 -0.4488
vn -0.6076 0.6311 -0.4822
vn -0.1517 -0.9844 -0.0895
vn -0.7995 -0.3159 -0.5109
vn -0.3469 0.5496 -0.7600
vn 0.6720 -0.6484 0.3576
vn -0.2229 -0.9735 -0.0508
vn 0.6019 -0.6412 0.4760
vn -0.6575 -0.3385 -0.6731
vn 0.0667 0.3179 -0.9458
vn -0.3690 -0.9284 0.0427
vn 0.3405 -0.5597 0.7555
vn -0.4320 -0.4628 -0.7741
vn 0.4736 -0.0039 -0.8807
vn -0.5425 -0.8313 0.1210
vn -0.0749 -0.3271 0.9420
vn -0.2141 -0.6424 -0.7359
vn 0.7424 -0.3260 -0.5853
vn -0.7153 -0.6919 0.0977
vn -0.0664 -0.8161 -0.5740
vn 0.8184 -0.5600 -0.1292
vn -0.8297 -0.5571 -0.0351
vn -0.7512 0.3186 0.5781
vn -0.0272 -0.9436 -0.3300
vn 0.7284 -0.6417 0.2402
vn -0.8617 -0.4562 -0.2222
vn -0.8253 0.5515 0.1213
vn -0.0974 -0.9859 -0.1364
vn 0.6720 -0.6485 0.3576
vn -0.8380 -0.3859 -0.3859
vn -0.7343 0.6322 -0.2474
vn 0.8260 0.3438 0.4466
vn 0.1454 0.9859 0.0825
vn 0.7827 0.3815 0.4917
vn 0.1453 0.9859 0.0825
vn 0.1535 0.9881 0.0039
vn 0.6605 0.4549 0.5973
vn 0.2786 0.9455 -0.1687
vn 0.4766 0.5554 0.6814
vn 0.5089 0.8166 -0.2722
vn 0.3121 0.6913 0.6518
vn 0.7334 0.6392 -0.2314
vn 0.1852 0.8313 0.5240
vn 0.8852 0.4603 -0.0669
vn 0.1611 0.9315 0.3262
vn 0.9255 0.3348 0.1772
vn 0.1541 0.9760 0.1541
vn 0.8703 0.3111 0.3819
vn 0.8260 0.3439 0.4466
vt 1.164062 0.939484
vt 1.164062 0.818481
vt 1.164062 1.000000
vt 1.164062 0.757935
vt 0.919922 1.000000
vt 0.919922 0.939484
vt 0.378662 1.000000
vt 0.382080 0.939484
vt 0.279541 0.935425
vt 0.919922 0.818481
vt 0.919922 0.757935
vt 0.388916 0.818481
vt 0.392334 0.757935
vt 0.292725 0.881287
vt 0.203857 0.754150
vt 0.319092 0.773071
vt 0.332520 0.718994
vt 0.226685 0.722900
vt 0.175293 0.501709
vt 0.272217 0.660400
vt 0.294922 0.629150
vt 0.201538 0.501709
vt 0.204102 0.248047
vt 0.254150 0.501709
vt 0.280518 0.501709
vt 0.226807 0.279297
vt 0.280029 0.065430
vt 0.272461 0.341797
vt 0.295166 0.373047
vt 0.293457 0.119629
vt 0.380127 0.000000
vt 0.319824 0.227539
vt 0.333252 0.281738
vt 0.383545 0.060547
vt 0.919922 0.000488
vt 0.390381 0.181641
vt 0.393799 0.242188
vt 0.919922 0.060547
vt 1.174805 0.000000
vt 1.174805 0.060547
vt 0.919922 0.181641
vt 0.919922 0.242188
vt 1.174805 0.181641
vt 1.174805 0.242188
s 1
usemtl MASTER_Light_Bulb
f 1/1/1 2/2/1 3/3/1
f 2/2/1 4/4/1 3/3/1
f 4/4/1 5/2/1 3/3/1
f 5/2/1 6/1/1 3/3/1
f 3/3/2 7/5/3 1/1/4
f 7/5/3 8/6/4 1/1/4
f 7/5/3 9/7/5 8/6/4
f 1/1/4 8/6/4 2/2/6
f 9/7/5 10/8/7 8/6/4
f 9/7/5 11/9/8 10/8/7
f 8/6/4 12/10/6 2/2/6
f 8/6/4 10/8/7 12/10/6
f 2/2/6 12/10/6 4/4/9
f 12/10/6 13/11/9 4/4/9
f 12/10/6 14/12/10 13/11/9
f 10/8/7 14/12/10 12/10/6
f 14/12/10 15/13/11 13/11/9
f 11/9/8 16/14/12 10/8/7
f 10/8/7 16/14/12 14/12/10
f 11/9/8 17/15/13 16/14/12
f 14/12/10 18/16/14 15/13/11
f 16/14/12 18/16/14 14/12/10
f 18/16/14 19/17/15 15/13/11
f 17/15/13 20/18/16 16/14/12
f 16/14/12 20/18/16 18/16/14
f 17/15/13 21/19/17 20/18/16
f 18/16/14 22/20/18 19/17/15
f 20/18/16 22/20/18 18/16/14
f 22/20/18 23/21/19 19/17/15
f 21/19/17 24/22/20 20/18/16
f 20/18/16 24/22/20 22/20/18
f 21/19/17 25/23/21 24/22/20
f 22/20/18 26/24/22 23/21/19
f 24/22/20 26/24/22 22/20/18
f 26/24/22 27/25/1 23/21/19
f 25/23/21 28/26/23 24/22/20
f 24/22/20 28/26/23 26/24/22
f 25/23/21 29/27/24 28/26/23
f 26/24/22 30/28/25 27/25/1
f 28/26/23 30/28/25 26/24/22
f 30/28/25 31/29/26 27/25/1
f 29/27/24 32/30/27 28/26/23
f 28/26/23 32/30/27 30/28/25
f 29/27/24 33/31/28 32/30/27
f 30/28/25 34/32/29 31/29/26
f 32/30/27 34/32/29 30/28/25
f 34/32/29 35/33/30 31/29/26
f 33/31/28 36/34/31 32/30/27
f 32/30/27 36/34/31 34/32/29
f 33/31/28 37/35/32 36/34/31
f 34/32/29 38/36/33 35/33/30
f 36/34/31 38/36/33 34/32/29
f 38/36/33 39/37/34 35/33/30
f 37/35/32 40/38/6 36/34/31
f 36/34/31 40/38/6 38/36/33
f 37/35/32 41/39/9 40/38/6
f 41/39/9 42/40/6 40/38/6
f 38/36/33 43/41/4 39/37/34
f 40/38/6 43/41/4 38/36/33
f 40/38/6 42/40/6 43/41/4
f 43/41/4 44/42/2 39/37/34
f 42/40/6 45/43/4 43/41/4
f 43/41/4 45/43/4 44/42/2
f 45/43/4 46/44/2 44/42/2
f 4/4/9 13/11/9 5/2/35
f 13/11/9 47/10/35 5/2/35
f 13/11/9 15/13/11 47/10/35
f 5/2/35 47/10/35 6/1/36
f 15/13/11 48/12/37 47/10/35
f 15/13/11 19/17/15 48/12/37
f 47/10/35 49/6/38 6/1/36
f 47/10/35 48/12/37 49/6/38
f 6/1/36 49/6/38 3/3/2
f 49/6/38 7/5/3 3/3/2
f 49/6/38 50/8/39 7/5/3
f 48/12/37 50/8/39 49/6/38
f 50/8/39 9/7/5 7/5/3
f 19/17/15 51/16/40 48/12/37
f 48/12/37 51/16/40 50/8/39
f 19/17/15 23/21/19 51/16/40
f 50/8/39 52/14/41 9/7/5
f 51/16/40 52/14/41 50/8/39
f 52/14/41 11/9/8 9/7/5
f 23/21/19 53/20/42 51/16/40
f 51/16/40 53/20/42 52/14/41
f 23/21/19 27/25/1 53/20/42
f 52/14/41 54/18/43 11/9/8
f 53/20/42 54/18/43 52/14/41
f 54/18/43 17/15/13 11/9/8
f 27/25/1 55/24/44 53/20/42
f 53/20/42 55/24/44 54/18/43
f 27/25/1 31/29/26 55/24/44
f 54/18/43 56/22/45 17/15/13
f 55/24/44 56/22/45 54/18/43
f 56/22/45 21/19/17 17/15/13
f 31/29/26 57/28/46 55/24/44
f 55/24/44 57/28/46 56/22/45
f 31/29/26 35/33/30 57/28/46
f 56/22/45 58/26/47 21/19/17
f 57/28/46 58/26/47 56/22/45
f 58/26/47 25/23/21 21/19/17
f 35/33/30 59/32/48 57/28/46
f 57/28/46 59/32/48 58/26/47
f 35/33/30 39/37/34 59/32/48
f 58/26/47 60/30/49 25/23/21
f 59/32/48 60/30/49 58/26/47
f 60/30/49 29/27/24 25/23/21
f 39/37/34 61/36/50 59/32/48
f 59/32/48 61/36/50 60/30/49
f 39/37/34 44/42/2 61/36/50
f 60/30/49 62/34/51 29/27/24
f 61/36/50 62/34/51 60/30/49
f 62/34/51 33/31/28 29/27/24
f 44/42/2 63/41/38 61/36/50
f 61/36/50 63/41/38 62/34/51
f 44/42/2 46/44/2 63/41/38
f 46/44/2 64/43/38 63/41/38
f 62/34/51 65/38/52 33/31/28
f 63/41/38 65/38/52 62/34/51
f 63/41/38 64/43/38 65/38/52
f 65/38/52 37/35/32 33/31/28
f 64/43/38 66/40/35 65/38/52
f 65/38/52 66/40/35 37/35/32
f 66/40/35 41/39/9 37/35/32
f 45/43/1 42/40/1 41/39/1
f 45/43/1 41/39/1 64/43/1
f 46/44/1 45/43/1 64/43/1
f 66/40/1 64/43/1 41/39/1
