# Blender 3.6.18
# www.blender.org
mtllib Mesh.419.mtl
o Bistro_Research_Exterior_paris_building_11_5735
v 9.142200 11.217870 22.880486
v 9.158712 11.328506 22.766777
v 10.014534 11.217866 23.237188
v 10.083751 11.328506 23.145029
v 9.029238 11.112452 23.227474
v 9.122605 11.112470 22.999222
v 9.854479 11.112460 23.564919
v 9.947777 11.112478 23.336651
v 9.156837 11.355775 22.753777
v 9.060003 11.774196 22.710272
v 10.094469 11.355776 23.137096
v 10.194164 11.774201 23.181648
v 9.130391 11.124004 22.973141
v 9.960273 11.124014 23.312492
v 8.870177 11.790215 23.162405
v 10.015735 11.790202 23.630833
v 9.049714 11.790195 22.723377
v 10.192482 11.790202 23.198215
v 10.203567 11.774719 23.202715
v 10.026808 11.774719 23.635361
v 8.859001 11.774705 23.157835
v 9.038525 11.774686 22.718842
v 10.099846 11.339776 23.156626
v 9.921856 11.339778 23.592440
v 10.023317 11.217866 23.258068
v 9.892264 11.217866 23.580362
v 9.969381 11.128060 23.335691
v 9.872684 11.128035 23.572363
v 9.107559 11.127974 22.983301
v 9.010766 11.127954 23.219915
v 9.121329 11.217870 22.889238
v 8.989525 11.217870 23.211227
v 9.139264 11.339775 22.763840
v 8.960891 11.339777 23.199495
vn 0.2612 -0.7056 -0.6588
vn 0.2610 -0.7131 -0.6507
vn 0.2611 -0.7130 -0.6507
vn -0.0039 -1.0000 -0.0039
vn 0.3788 -0.0039 -0.9255
vn 0.3787 -0.0039 -0.9255
vn 0.2700 -0.6925 -0.6690
vn 0.2699 -0.6925 -0.6690
vn -0.0039 1.0000 -0.0039
vn 0.9262 0.3508 -0.1380
vn 0.6824 0.6902 -0.2407
vn 0.7320 0.6133 0.2967
vn 0.6824 0.6903 -0.2406
vn -0.7339 0.6083 -0.3022
vn -0.5669 0.3480 -0.7467
vn -0.3262 0.6878 -0.6485
vn -0.5669 0.3479 -0.7467
vn 0.8945 -0.2561 0.3665
vn 0.8978 -0.2470 0.3646
vn 0.9012 -0.2322 0.3660
vn -0.8952 -0.2463 -0.3714
vn -0.8952 -0.2463 -0.3713
vn 0.5899 -0.5430 -0.5977
vn 0.7797 -0.4506 -0.4349
vn 0.6986 -0.6596 -0.2771
vn 0.7092 -0.6543 -0.2625
vn 0.5183 -0.8144 -0.2611
vn 0.6456 -0.7629 -0.0352
vn 0.5691 -0.7890 0.2316
vn 0.6455 -0.7629 -0.0352
vn 0.4417 -0.8952 -0.0586
vn -0.1908 -0.8138 -0.5490
vn -0.2776 -0.8954 -0.3480
vn -0.5646 -0.7904 -0.2375
vn -0.4312 -0.7653 -0.4778
vn -0.3159 -0.6591 -0.6825
vn -0.3315 -0.6513 -0.6825
vn -0.0117 -0.5429 -0.8397
vn -0.2542 -0.4496 -0.8563
vn 0.7267 -0.3182 -0.6089
vn -0.0971 -0.3147 -0.9442
vn 0.7344 0.3574 -0.5770
vn -0.1212 0.3558 -0.9267
vt -0.886230 0.462402
vt -0.895020 0.427734
vt -0.591797 0.462402
vt -0.583008 0.427734
vt -0.877930 0.576172
vt -0.877930 0.499512
vt -0.599609 0.576172
vt -0.599609 0.499512
vt 1.896484 0.481445
vt 1.929688 0.612061
vt 1.580078 0.481445
vt 1.545898 0.612061
vt 1.878906 0.409180
vt 1.885742 0.438477
vt 1.598633 0.409180
vt 1.591797 0.438477
vt 1.931641 0.576172
vt 1.544922 0.576172
vt 1.931641 0.428223
vt 1.544922 0.430176
vt 0.569824 0.612305
vt 0.569824 0.616943
vt 0.423828 0.612305
vt 0.423828 0.616943
vt 0.575684 0.612305
vt 0.575684 0.616943
vt 0.427734 0.612305
vt 0.427734 0.616943
vt 0.570801 0.476562
vt 0.423828 0.476562
vt 0.532227 0.438477
vt 0.423828 0.438477
vt 0.503418 0.410156
vt 0.423828 0.410156
vt 0.496094 0.410156
vt 0.575684 0.410156
vt 0.467285 0.438477
vt 0.575684 0.438477
vt 0.428955 0.476562
vt 0.575684 0.476562
vt -0.576660 0.429199
vt -0.586914 0.467773
vt -0.598633 0.490723
vt -0.593262 0.496582
vt -0.593262 0.576172
vt -0.878906 0.490723
vt -0.884277 0.576172
vt -0.884277 0.496582
vt -0.891602 0.467773
vt -0.900879 0.429199
vt 1.576172 0.476562
vt 1.583008 0.472656
vt 1.541016 0.612305
vt 1.894531 0.472656
vt 1.544922 0.616943
vt 1.900391 0.476562
vt 1.931641 0.616943
vt 1.935547 0.612305
s 1
usemtl MASTER_Concrete_Plaster
f 1/1/1 2/2/2 3/3/1
f 2/2/2 4/4/3 3/3/1
f 5/5/4 6/6/4 7/7/4
f 6/6/4 8/8/4 7/7/4
f 9/9/5 10/10/6 11/11/5
f 10/10/6 12/12/5 11/11/5
f 13/13/7 1/14/1 14/15/8
f 1/14/1 3/16/1 14/15/8
f 15/17/9 16/18/9 17/19/9
f 16/18/9 18/20/9 17/19/9
f 19/21/10 18/22/11 20/23/12
f 18/22/13 16/24/12 20/23/12
f 21/25/14 15/26/14 22/27/15
f 15/26/14 17/28/16 22/27/17
f 19/21/18 20/23/18 23/29/18
f 20/23/18 24/30/18 23/29/18
f 23/29/18 24/30/18 25/31/18
f 24/30/18 26/32/19 25/31/18
f 25/31/18 26/32/19 27/33/20
f 26/32/19 28/34/20 27/33/20
f 29/35/21 30/36/21 31/37/21
f 30/36/21 32/38/22 31/37/21
f 31/37/21 32/38/22 33/39/21
f 32/38/22 34/40/21 33/39/21
f 33/39/21 34/40/21 22/27/21
f 34/40/21 21/25/21 22/27/21
f 4/4/23 23/41/24 3/3/25
f 23/41/24 25/42/26 3/3/25
f 3/3/25 25/42/26 14/43/27
f 25/42/26 27/44/28 14/43/27
f 28/45/29 7/7/29 27/44/30
f 7/7/29 8/8/31 27/44/28
f 27/44/28 8/8/31 14/43/27
f 13/46/32 14/43/27 8/8/31
f 6/6/33 13/46/32 8/8/31
f 5/5/34 30/47/34 6/6/33
f 30/47/34 29/48/35 6/6/33
f 13/46/32 6/6/33 29/48/35
f 13/46/32 29/48/35 1/1/36
f 29/48/35 31/49/37 1/1/36
f 1/1/36 31/49/37 2/2/38
f 31/49/37 33/50/39 2/2/38
f 11/11/40 23/51/24 4/52/23
f 19/53/10 23/51/24 11/11/40
f 11/11/40 4/52/23 9/9/41
f 12/12/42 19/53/10 11/11/40
f 4/52/23 2/54/38 9/9/41
f 12/12/42 18/55/11 19/53/10
f 33/56/39 9/9/41 2/54/38
f 17/57/16 18/55/11 12/12/42
f 9/9/41 33/56/39 10/10/43
f 10/10/43 17/57/16 12/12/42
f 33/56/39 22/58/17 10/10/43
f 22/58/17 17/57/16 10/10/43
