# Blender 3.6.18
# www.blender.org
mtllib Mesh.462.mtl
o Bistro_Research_Exterior_paris_building_11_5643
v 0.621367 3.012243 23.189749
v -1.025338 3.012243 22.516399
v 0.621367 5.925525 23.189749
v -1.025338 5.925525 22.516401
v 0.652978 2.928723 23.112444
v 1.601957 2.928722 20.791677
v -0.993727 2.928723 22.439095
v -0.044749 2.928722 20.118326
v -1.071033 3.012243 22.407482
v -0.122055 3.012242 20.086714
v -1.071033 5.925525 22.407484
v -0.122055 5.925526 20.086716
v -0.993727 6.009045 22.439093
v -0.044748 6.009045 20.118324
v 0.652978 6.009045 23.112442
v 1.601957 6.009045 20.791676
v 0.730285 5.925525 23.144054
v 1.679263 5.925526 20.823286
v 0.730285 3.012243 23.144054
v 1.679263 3.012242 20.823286
vn 0.3721 -0.0039 -0.9282
vn -0.0039 1.0000 -0.0039
vn 0.9271 -0.0039 0.3748
vn -0.0039 -1.0000 -0.0039
vn -0.9255 -0.0039 -0.3788
vn 0.6535 0.7089 0.2654
vn 0.6007 0.7577 -0.2552
vn 0.8761 0.4597 -0.1454
vn -0.2540 0.7541 -0.6056
vn -0.5279 0.4575 -0.7156
vn -0.6566 0.7038 -0.2713
vn 0.6498 -0.7128 0.2639
vn 0.8730 -0.4658 -0.1448
vn 0.6498 -0.7128 0.2638
vn 0.5971 -0.7610 -0.2537
vn 0.8729 -0.4658 -0.1448
vn -0.6530 -0.7077 -0.2698
vn -0.2525 -0.7575 -0.6021
vn -0.6529 -0.7077 -0.2698
vn -0.5260 -0.4636 -0.7130
vn -0.1444 0.4565 -0.8779
vn 0.7117 0.4601 -0.5309
vn -0.1439 -0.4627 -0.8748
vn 0.7091 -0.4662 -0.5289
vt 0.503906 0.076172
vt 1.059570 0.076172
vt 0.503906 0.986198
vt 1.059570 0.986198
vt 0.495850 1.543945
vt 0.495850 2.327148
vt -0.060059 1.543945
vt -0.060059 2.327148
vt 0.923828 1.543945
vt 0.923828 2.327148
vt 0.013802 1.543945
vt 0.013802 2.327148
vt 1.059570 1.543945
vt 1.059570 2.327148
vt 0.503906 1.543945
vt 0.503906 2.327148
vt 0.985840 1.543945
vt 0.985840 2.327148
vt 0.075745 1.543945
vt 0.075745 2.327148
vt -0.086121 2.327148
vt -0.086121 1.543945
vt 0.049683 1.543945
vt 0.049683 2.327148
vt -0.012291 2.327148
vt -0.012291 1.543945
vt 0.477783 2.327148
vt 0.477783 1.543945
vt 0.477783 0.076172
vt 0.503906 0.049805
vt 0.477783 0.986198
vt 1.059570 0.049805
vt 0.503906 1.012291
vt 1.085938 0.076172
vt 1.059570 1.012291
vt 1.085938 0.986198
s 1
usemtl MASTER_Room_Interior
f 1/1/1 2/2/1 3/3/1
f 2/2/1 4/4/1 3/3/1
f 5/5/2 6/6/2 7/7/2
f 6/6/2 8/8/2 7/7/2
f 9/9/3 10/10/3 11/11/3
f 10/10/3 12/12/3 11/11/3
f 13/13/4 14/14/4 15/15/4
f 14/14/4 16/16/4 15/15/4
f 17/17/5 18/18/5 19/19/5
f 18/18/5 20/20/5 19/19/5
f 8/8/6 10/21/6 7/7/7
f 10/21/6 9/22/8 7/7/7
f 5/23/9 19/19/10 6/24/11
f 19/19/10 20/20/11 6/24/11
f 12/12/12 14/25/12 11/11/13
f 14/25/14 13/26/15 11/11/16
f 16/16/17 18/27/17 15/15/18
f 18/27/19 17/28/20 15/15/18
f 1/1/21 19/29/10 5/30/9
f 17/31/20 19/29/10 1/1/21
f 1/1/21 5/30/9 2/2/22
f 3/3/23 17/31/20 1/1/21
f 5/30/9 7/32/7 2/2/22
f 3/3/23 15/33/18 17/31/20
f 7/32/7 9/34/8 2/2/22
f 13/35/15 15/33/18 3/3/23
f 2/2/22 9/34/8 4/4/24
f 4/4/24 13/35/15 3/3/23
f 9/34/8 11/36/16 4/4/24
f 11/36/16 13/35/15 4/4/24
