# Blender 3.6.18
# www.blender.org
mtllib Mesh.882.mtl
o Bistro_Research_Exterior_Paris_Building_01_paris_buildi_4075e36
v -2.272623 4.647389 -5.518068
v -2.272627 0.727227 -5.518062
v -2.933780 4.647390 -4.308378
v -2.933780 0.727228 -4.308372
v -2.343896 4.647391 -3.090165
v -2.343892 0.727230 -3.090160
vn -0.8774 -0.0039 -0.4797
vn -0.9013 -0.0039 0.4331
vt 0.886719 -0.064453
vt 0.886719 1.160156
vt 0.456055 -0.064453
vt 0.456055 1.160156
vt 0.113098 -0.064453
vt 0.113098 1.160156
s 1
usemtl MASTER_Wood_Painted3
f 1/1/1 2/2/1 3/3/1
f 2/2/1 4/4/1 3/3/1
f 3/3/2 4/4/2 5/5/2
f 4/4/2 6/6/2 5/5/2
