# Blender 3.6.18
# www.blender.org
mtllib Mesh.409.mtl
o Bistro_Research_Exterior_paris_building_11_5759
v 9.101934 3.012242 26.657513
v 7.455228 3.012242 25.984163
v 9.101934 5.925525 26.657513
v 7.455229 5.925525 25.984165
v 9.133545 2.928722 26.580208
v 10.082524 2.928722 24.259441
v 7.486840 2.928722 25.906858
v 8.435819 2.928722 23.586090
v 7.409534 3.012242 25.875246
v 8.358512 3.012242 23.554478
v 7.409534 5.925525 25.875248
v 8.358512 5.925525 23.554480
v 7.486840 6.009045 25.906857
v 8.435819 6.009045 23.586088
v 9.133545 6.009045 26.580206
v 10.082524 6.009045 24.259439
v 9.210852 5.925525 26.611818
v 10.159830 5.925525 24.291050
v 9.210852 3.012242 26.611818
v 10.159829 3.012242 24.291050
vn 0.3721 -0.0039 -0.9282
vn -0.0039 1.0000 -0.0039
vn 0.9271 -0.0039 0.3748
vn -0.0039 -1.0000 -0.0039
vn -0.9255 -0.0039 -0.3788
vn 0.6535 0.7089 0.2654
vn 0.6006 0.7577 -0.2552
vn 0.6535 0.7089 0.2653
vn 0.8761 0.4597 -0.1453
vn -0.2540 0.7541 -0.6057
vn -0.5279 0.4575 -0.7156
vn -0.6566 0.7038 -0.2713
vn 0.6498 -0.7128 0.2639
vn 0.8729 -0.4659 -0.1449
vn 0.5971 -0.7610 -0.2537
vn 0.8729 -0.4658 -0.1448
vn -0.6530 -0.7077 -0.2698
vn -0.2525 -0.7575 -0.6021
vn -0.5260 -0.4636 -0.7130
vn -0.1444 0.4565 -0.8779
vn 0.7117 0.4601 -0.5308
vn -0.1438 -0.4627 -0.8748
vn 0.7091 -0.4662 -0.5289
vt 0.503906 0.076172
vt 1.059570 0.076172
vt 0.503906 0.986198
vt 1.059570 0.986198
vt 0.495850 1.543945
vt 0.495850 2.327148
vt -0.060059 1.543945
vt -0.060059 2.327148
vt 0.923828 1.543945
vt 0.923828 2.327148
vt 0.013802 1.543945
vt 0.013802 2.327148
vt 1.059570 1.543945
vt 1.059570 2.327148
vt 0.503906 1.543945
vt 0.503906 2.327148
vt 0.985840 1.543945
vt 0.985840 2.327148
vt 0.075745 1.543945
vt 0.075745 2.327148
vt -0.086121 2.327148
vt -0.086121 1.543945
vt 0.049683 1.543945
vt 0.049683 2.327148
vt -0.012291 2.327148
vt -0.012291 1.543945
vt 0.477783 2.327148
vt 0.477783 1.543945
vt 0.477783 0.076172
vt 0.503906 0.049805
vt 0.477783 0.986198
vt 1.059570 0.049805
vt 0.503906 1.012291
vt 1.085938 0.076172
vt 1.059570 1.012291
vt 1.085938 0.986198
s 1
usemtl MASTER_Room_Interior
f 1/1/1 2/2/1 3/3/1
f 2/2/1 4/4/1 3/3/1
f 5/5/2 6/6/2 7/7/2
f 6/6/2 8/8/2 7/7/2
f 9/9/3 10/10/3 11/11/3
f 10/10/3 12/12/3 11/11/3
f 13/13/4 14/14/4 15/15/4
f 14/14/4 16/16/4 15/15/4
f 17/17/5 18/18/5 19/19/5
f 18/18/5 20/20/5 19/19/5
f 8/8/6 10/21/6 7/7/7
f 10/21/8 9/22/9 7/7/7
f 5/23/10 19/19/11 6/24/12
f 19/19/11 20/20/12 6/24/12
f 12/12/13 14/25/13 11/11/14
f 14/25/13 13/26/15 11/11/16
f 16/16/17 18/27/17 15/15/18
f 18/27/17 17/28/19 15/15/18
f 1/1/20 19/29/11 5/30/10
f 17/31/19 19/29/11 1/1/20
f 1/1/20 5/30/10 2/2/21
f 3/3/22 17/31/19 1/1/20
f 5/30/10 7/32/7 2/2/21
f 3/3/22 15/33/18 17/31/19
f 7/32/7 9/34/9 2/2/21
f 13/35/15 15/33/18 3/3/22
f 2/2/21 9/34/9 4/4/23
f 4/4/23 13/35/15 3/3/22
f 9/34/9 11/36/16 4/4/23
f 11/36/16 13/35/15 4/4/23
