# Blender 3.6.18
# www.blender.org
mtllib Mesh.701.mtl
o Bistro_Research_Exterior_paris_building_05_5135
v 22.396690 9.578089 -44.402653
v 22.396690 8.821834 -44.402653
v 21.474667 9.578089 -42.860229
v 21.474667 8.821834 -42.860229
v 25.435467 9.503622 -48.012699
v 25.435467 8.821835 -48.012699
v 24.684607 9.503622 -46.756611
v 24.684607 8.821835 -46.756611
v 25.435467 14.642020 -48.012699
v 25.435467 13.960232 -48.012699
v 24.684607 14.642020 -46.756611
v 24.684607 13.960232 -46.756611
v 25.435467 20.099888 -48.012699
v 25.435467 19.399256 -48.012699
v 24.684607 20.099888 -46.756611
v 24.684607 19.399256 -46.756611
v 27.890888 9.503622 -52.120289
v 27.890888 8.821835 -52.120289
v 27.140032 9.503622 -50.864204
v 27.140032 8.821835 -50.864204
v 27.890888 14.642020 -52.120289
v 27.890888 13.960232 -52.120289
v 27.140032 14.642020 -50.864204
v 27.140032 13.960232 -50.864204
v 27.890888 20.099888 -52.120289
v 27.890888 19.399252 -52.120289
v 27.140032 20.099888 -50.864204
v 27.140032 19.399252 -50.864204
v 20.487968 9.503621 -39.736202
v 20.487968 8.821834 -39.736202
v 19.737108 9.503621 -38.480114
v 19.737108 8.821834 -38.480114
v 20.487968 14.642019 -39.736202
v 20.487968 13.960231 -39.736202
v 19.737108 14.642019 -38.480114
v 19.737108 13.960231 -38.480114
v 20.487968 20.099888 -39.736202
v 20.487968 19.399250 -39.736202
v 19.737108 20.099888 -38.480114
v 19.737108 19.399250 -38.480114
v 18.032953 9.503621 -35.629295
v 18.032953 8.821834 -35.629295
v 17.282095 9.503621 -34.373207
v 17.282095 8.821834 -34.373207
v 18.032953 14.642019 -35.629295
v 18.032953 13.960231 -35.629295
v 17.282095 14.642019 -34.373207
v 17.282095 13.960231 -34.373207
v 18.032953 20.099888 -35.629295
v 18.032953 19.399248 -35.629295
v 17.282095 20.099888 -34.373207
v 17.282095 19.399248 -34.373207
v 26.485607 24.882576 -50.497097
v 26.485607 24.147650 -50.497097
v 25.589588 24.882576 -48.998177
v 25.589588 24.147650 -48.998177
v 22.396690 14.745650 -44.402653
v 22.396690 13.989395 -44.402653
v 21.474665 14.745650 -42.860229
v 21.474665 13.989395 -42.860229
v 22.396690 20.190842 -44.402649
v 22.396690 19.434587 -44.402653
v 21.474665 20.190842 -42.860229
v 21.474665 19.434587 -42.860229
v 19.054426 24.882576 -38.065731
v 19.054426 24.147650 -38.065731
v 18.158407 24.882576 -36.566814
v 18.158407 24.147650 -36.566814
v 23.066793 24.882576 -45.904095
v 23.066793 24.147650 -45.904095
v 22.170778 24.882576 -44.405178
v 22.170778 24.147650 -44.405178
v 22.215469 24.882576 -44.479946
v 22.215471 24.147650 -44.479946
v 21.319454 24.882576 -42.981030
v 21.319454 24.147650 -42.981030
v 21.365118 24.882576 -43.057423
v 21.365118 24.147650 -43.057423
v 20.469103 24.882576 -41.558506
v 20.469103 24.147650 -41.558506
vn -0.8582 -0.0039 -0.5133
vt 0.013351 0.986732
vt 0.013351 0.750000
vt 0.571289 0.986732
vt 0.571289 0.750000
vt 0.002096 0.481934
vt 0.002096 0.250977
vt 0.578613 0.481934
vt 0.578613 0.250977
vt 0.002096 0.989899
vt 0.002096 0.747314
vt 0.578613 0.989899
vt 0.578613 0.747314
s 1
usemtl MASTER_Forge_Metal
f 1/1/1 2/2/1 3/3/1
f 2/2/1 4/4/1 3/3/1
f 5/1/1 6/2/1 7/3/1
f 6/2/1 8/4/1 7/3/1
f 9/1/1 10/2/1 11/3/1
f 10/2/1 12/4/1 11/3/1
f 13/1/1 14/2/1 15/3/1
f 14/2/1 16/4/1 15/3/1
f 17/1/1 18/2/1 19/3/1
f 18/2/1 20/4/1 19/3/1
f 21/1/1 22/2/1 23/3/1
f 22/2/1 24/4/1 23/3/1
f 25/1/1 26/2/1 27/3/1
f 26/2/1 28/4/1 27/3/1
f 29/1/1 30/2/1 31/3/1
f 30/2/1 32/4/1 31/3/1
f 33/1/1 34/2/1 35/3/1
f 34/2/1 36/4/1 35/3/1
f 37/1/1 38/2/1 39/3/1
f 38/2/1 40/4/1 39/3/1
f 41/1/1 42/2/1 43/3/1
f 42/2/1 44/4/1 43/3/1
f 45/1/1 46/2/1 47/3/1
f 46/2/1 48/4/1 47/3/1
f 49/1/1 50/2/1 51/3/1
f 50/2/1 52/4/1 51/3/1
f 53/5/1 54/6/1 55/7/1
f 54/6/1 56/8/1 55/7/1
f 57/9/1 58/10/1 59/11/1
f 58/10/1 60/12/1 59/11/1
f 61/9/1 62/10/1 63/11/1
f 62/10/1 64/12/1 63/11/1
f 65/5/1 66/6/1 67/7/1
f 66/6/1 68/8/1 67/7/1
f 69/5/1 70/6/1 71/7/1
f 70/6/1 72/8/1 71/7/1
f 73/5/1 74/6/1 75/7/1
f 74/6/1 76/8/1 75/7/1
f 77/5/1 78/6/1 79/7/1
f 78/6/1 80/8/1 79/7/1
