# Blender 3.6.18
# www.blender.org
mtllib Mesh.1154.mtl
o Bistro_Research_Exterior_Paris_Building_01_paris_buildi_93c0667
v 3.831878 17.913301 -15.705080
v 3.831878 20.860481 -15.705078
v 3.857621 17.913301 -15.691085
v 3.857666 20.860481 -15.691057
v 3.826791 17.913301 -15.717604
v 3.832058 17.913301 -15.705410
v 3.826789 20.860481 -15.717599
v 3.832054 20.860481 -15.705401
v 3.868082 17.913301 -15.771670
v 3.868081 20.860481 -15.771668
v 3.928148 17.913301 -15.739013
v 3.928148 20.860481 -15.739011
v 3.855810 17.913303 -15.606292
v 3.855810 20.860483 -15.606292
v 3.855803 20.860481 -15.606287
v 3.855804 17.913303 -15.606288
v 3.795855 20.860481 -15.638810
v 3.795859 17.913301 -15.638817
v 3.790680 20.860481 -15.650961
v 3.790681 17.913301 -15.650965
v 3.819702 20.860481 -15.704343
v 3.819705 17.913301 -15.704346
v 3.855812 20.860481 -15.770981
v 3.855814 17.913301 -15.770987
v 3.885462 17.913303 -15.676435
v 3.885462 20.860483 -15.676434
v 3.891235 17.913303 -15.673303
v 3.891235 20.860483 -15.673303
v 3.501387 17.832775 -15.015228
v 3.444586 17.832781 -15.046285
v 3.501387 20.941017 -15.015228
v 3.446481 20.941021 -15.045095
v 3.425861 17.832781 -15.040792
v 3.427743 20.941021 -15.039577
v 3.379861 20.941013 -14.951900
v 3.377753 17.832773 -14.952701
v 3.471074 20.822773 -14.968879
v 3.425470 20.826851 -14.993687
v 3.858804 20.822773 -15.691414
v 3.814677 20.826811 -15.715497
v 3.413359 20.841734 -15.000274
v 3.802563 20.841719 -15.722108
v 3.802291 20.940935 -15.722257
v 3.413184 20.941021 -15.000363
v 3.500677 20.088610 -14.947772
v 3.453441 20.090816 -14.971767
v 3.888410 20.088615 -15.670312
v 3.842660 20.090805 -15.693596
v 3.447711 20.097658 -14.974918
v 3.836920 20.097651 -15.696759
v 3.837636 20.140730 -15.697990
v 3.448516 20.140770 -14.976105
v 3.454408 20.147335 -14.973146
v 3.843509 20.147249 -15.695028
v 3.892359 20.146870 -15.668338
v 3.504639 20.147331 -14.945821
v 3.500922 19.322037 -14.948212
v 3.456321 19.324238 -14.975348
v 3.888662 19.322041 -15.670760
v 3.845533 19.324226 -15.697165
v 3.450472 19.331074 -14.978470
v 3.839681 19.331068 -15.700309
v 3.838001 19.374159 -15.698459
v 3.448880 19.374203 -14.976574
v 3.454408 19.380758 -14.973146
v 3.843509 19.380672 -15.695028
v 3.892359 19.380295 -15.668338
v 3.504639 19.380756 -14.945821
v 3.500972 18.555456 -14.948293
v 3.456340 18.557665 -14.976349
v 3.888713 18.555462 -15.670845
v 3.845551 18.557653 -15.698166
v 3.450534 18.564489 -14.979427
v 3.839743 18.564484 -15.701266
v 3.838009 18.607592 -15.698586
v 3.448888 18.607630 -14.976700
v 3.454408 18.614182 -14.973146
v 3.843509 18.614096 -15.695028
v 3.892359 18.613716 -15.668338
v 3.504639 18.614178 -14.945821
v 4.220442 20.941017 -16.346743
v 4.168396 20.941021 -16.375248
v 4.220444 17.832775 -16.346743
v 4.166330 17.832781 -16.376127
v 4.162906 20.941021 -16.393991
v 4.160815 17.832779 -16.394827
v 4.209284 17.832771 -16.483585
v 4.210970 20.941013 -16.482008
v 4.246874 17.950018 -16.395212
v 4.203660 17.950018 -16.418772
v 3.862685 17.950018 -15.689298
v 3.814936 17.950018 -15.715402
v 4.190877 17.936237 -16.425726
v 3.802489 17.936222 -15.722189
v 3.799967 17.833193 -15.723420
v 4.185892 17.832844 -16.428326
v 4.276537 20.146410 -16.374231
v 4.229068 20.147160 -16.400290
v 4.223215 20.140686 -16.403257
v 4.222587 20.097645 -16.401979
v 4.228337 20.090796 -16.398802
v 4.272600 20.088621 -16.376232
v 4.276537 19.379831 -16.374231
v 4.229068 19.380583 -16.400290
v 4.223579 19.374119 -16.403723
v 4.225348 19.331064 -16.405529
v 4.231202 19.324215 -16.402361
v 4.272860 19.322050 -16.376692
v 4.276537 18.613255 -16.374231
v 4.229068 18.614004 -16.400290
v 4.223588 18.607548 -16.403851
v 4.225410 18.564480 -16.406485
v 4.231219 18.557640 -16.403358
v 4.272913 18.555470 -16.376776
v 3.416512 17.832775 -14.991546
v 3.359711 17.832781 -15.022601
v 3.416512 20.941017 -14.991546
v 3.361607 20.941021 -15.021413
v 3.340986 17.832781 -15.017108
v 3.342868 20.941021 -15.015894
v 3.294986 20.941013 -14.928215
v 3.292879 17.832773 -14.929017
v 3.390078 20.877750 -14.967231
v 3.344475 20.881830 -14.992036
v 4.229549 20.877750 -16.520658
v 4.185421 20.881788 -16.544743
v 3.332363 20.896711 -14.998625
v 4.173308 20.896696 -16.551353
v 4.173036 20.995913 -16.551502
v 3.332188 20.995998 -14.998713
v 4.193196 20.941017 -16.429056
v 4.141150 20.941021 -16.457561
v 4.193198 17.832777 -16.429058
v 4.139084 17.832781 -16.458441
v 4.135659 20.941021 -16.476303
v 4.133570 17.832781 -16.477139
v 4.182038 17.832771 -16.565895
v 4.183724 20.941013 -16.564323
v 3.422672 17.950018 -14.995417
v 3.474954 17.950018 -14.966763
v 3.410561 17.936218 -15.002032
v 3.410500 17.833538 -15.001897
v 4.200339 20.826769 -16.420687
v 4.242991 20.822773 -16.397326
v 4.188224 20.841700 -16.427322
v 4.187856 20.940851 -16.427526
v 3.833976 20.877802 -15.637857
v 3.833976 17.894812 -15.637857
v 3.474954 20.877802 -14.966763
v 3.474954 17.894812 -14.966763
v 3.892542 17.908613 -15.745283
v 3.892542 20.877802 -15.745283
v 4.246872 20.877802 -16.395210
v 4.246874 17.908613 -16.395212
v 4.246874 17.894812 -16.395212
v 3.892542 17.894812 -15.745283
vn 0.4736 -0.0039 -0.8807
vn -0.9187 -0.0039 0.3948
vn -0.9187 -0.0039 0.3949
vn 0.5016 -0.0040 0.8651
vn 0.5016 -0.0039 0.8651
vn 0.0277 -0.0040 0.9996
vn 0.0119 -0.0039 0.9999
vn -0.4736 -0.0039 0.8807
vn -0.4736 -0.0000 0.8807
vn -0.8774 -0.0000 -0.4797
vn -0.8775 -0.0039 -0.4796
vn -0.8774 -0.0039 -0.4797
vn -0.0665 -0.0039 -0.9978
vn -0.8774 -0.0038 -0.4797
vn -0.5338 -0.0039 -0.8456
vn -0.0587 -0.0039 -0.9983
vn -0.5339 -0.0039 -0.8456
vn -0.4830 -0.0039 0.8756
vn 0.4737 0.0003 -0.8807
vn -0.8775 0.0007 -0.4796
vn -0.0742 -0.9963 -0.0430
vn -0.0757 -0.9963 -0.0402
vn -0.0431 -0.9987 -0.0274
vn -0.0053 1.0000 -0.0016
vn 0.0008 1.0000 0.0008
vn -0.0018 1.0000 -0.0009
vn -0.0039 1.0000 -0.0039
vn -0.8773 -0.0195 -0.4796
vn -0.0052 1.0000 -0.0015
vn -0.8774 -0.0117 -0.4796
vn -0.8774 -0.0117 -0.4797
vn -0.0053 1.0000 -0.0015
vn -0.0040 1.0000 -0.0040
vn -0.4830 0.0003 0.8756
vn -0.8774 0.0007 -0.4797
vn -0.0039 1.0000 -0.0040
vn -0.0040 1.0000 -0.0039
vn -0.8769 0.0351 -0.4794
vn 0.0040 1.0000 0.0040
vn 0.0039 1.0000 0.0040
vn 0.1053 -0.0039 -0.9944
vn -0.6290 -0.0039 -0.7774
vn -0.3854 -0.8994 -0.2063
vn -0.3848 -0.8979 -0.2138
vn -0.8168 -0.3713 -0.4416
vn -0.8140 -0.3700 -0.4479
vn -0.7813 -0.0040 0.6242
vn -0.7812 -0.0039 0.6242
vn -0.9936 -0.0039 -0.1130
vn -0.8793 0.0117 -0.4761
vn -0.8774 0.0117 -0.4796
vn -0.0754 -0.9963 -0.0409
vn -0.8807 -0.0039 -0.4736
vt -0.000000 0.276855
vt 1.043945 0.276855
vt -0.000000 0.183594
vt -0.000000 0.170898
vt 1.043945 0.184570
vt 1.043945 0.170898
vt -0.000000 0.152832
vt 1.043945 0.152832
vt 1.043945 0.154297
vt -0.000000 0.154297
vt 1.043945 0.265137
vt -0.000000 0.266113
vt -0.000002 0.296875
vt -0.000000 0.280762
vt 1.053711 0.296875
vt 1.053711 0.280762
vt -0.000000 0.264648
vt 1.053711 0.264160
vt 1.053711 0.172852
vt -0.000000 0.172852
vt 0.653809 0.152832
vt 0.653809 0.168457
vt 0.326904 0.152832
vt 0.326904 0.168457
vt 0.653809 0.185547
vt 0.326904 0.185547
vt 0.326904 0.276855
vt 0.653809 0.276855
vt 0.653809 0.916382
vt 0.653809 0.933044
vt 0.326904 0.916443
vt 0.326904 0.932983
vt 0.653809 0.939514
vt 0.326904 0.939514
vt 0.326904 0.968719
vt 0.653809 0.968719
vt 0.653809 0.975098
vt 0.326904 0.975128
vt 0.326904 0.991951
vt 0.653809 0.991997
vt 0.653809 0.932983
vt 0.326904 0.932922
vt 1.053711 0.152832
vt 1.053711 0.168945
vt -0.000000 0.168945
vt 1.053711 0.185059
vt -0.000000 0.185059
vt 1.053711 0.276855
vt -0.000000 0.296875
vt -0.000000 0.281250
vt 0.352051 0.296875
vt 0.352051 0.281250
vt 0.352051 0.264648
vt 0.352051 0.172852
vt -0.000047 0.991905
vt -0.000047 0.975174
vt -0.000047 0.968719
vt -0.000047 0.939514
vt -0.000047 0.932922
vt -0.000047 0.916504
vt 0.704102 0.280762
vt 0.704102 0.296875
vt 0.704102 0.264648
vt 0.704102 0.172852
vt -0.000000 0.168457
vt -0.000000 0.185547
vt 1.045898 0.738037
vt -0.017853 0.738037
vt 1.045898 0.436523
vt -0.017853 0.436523
vt 0.062622 0.380859
vt 1.122070 0.380859
vt 1.122070 0.682617
vt 0.062622 0.682617
vt 0.057709 0.682617
vt 0.057709 0.380859
s 1
usemtl MASTER_Wood_Painted3
f 1/1/1 2/2/1 3/1/1
f 2/2/1 4/2/1 3/1/1
f 5/3/2 6/4/2 7/5/2
f 6/4/3 8/6/3 7/5/3
f 9/1/1 10/2/1 11/1/1
f 10/2/1 12/2/1 11/1/1
f 13/7/4 14/8/5 15/9/6
f 16/10/7 13/7/4 15/9/6
f 15/9/6 17/6/8 16/10/7
f 17/6/8 18/4/9 16/10/7
f 18/4/9 17/6/8 19/5/10
f 20/3/11 18/4/9 19/5/10
f 20/3/11 19/5/10 21/11/12
f 22/12/12 20/3/11 21/11/12
f 21/11/12 2/2/13 22/12/12
f 2/2/13 1/1/13 22/12/14
f 5/3/12 7/5/12 23/11/15
f 24/12/15 5/3/12 23/11/15
f 23/11/15 10/2/16 24/12/15
f 10/2/16 9/1/16 24/12/17
f 8/6/18 6/4/18 25/10/18
f 26/9/18 8/6/18 25/10/18
f 25/10/18 27/7/18 26/9/18
f 27/7/18 28/8/18 26/9/18
f 29/13/1 30/14/1 31/15/1
f 30/14/1 32/16/19 31/15/1
f 30/14/1 33/17/20 32/16/19
f 33/17/20 34/18/12 32/16/19
f 35/19/12 34/18/12 33/17/20
f 36/20/12 35/19/12 33/17/20
f 37/21/21 38/22/21 39/23/21
f 38/22/21 40/24/22 39/23/21
f 38/22/21 41/25/12 40/24/22
f 41/25/12 42/26/12 40/24/22
f 43/27/12 42/26/12 41/25/12
f 44/28/12 43/27/12 41/25/12
f 45/29/23 46/30/23 47/31/23
f 46/30/23 48/32/23 47/31/23
f 46/30/23 49/33/12 48/32/23
f 49/33/12 50/34/12 48/32/23
f 51/35/12 50/34/12 49/33/12
f 52/36/12 51/35/12 49/33/12
f 52/36/12 53/37/24 51/35/12
f 53/37/24 54/38/25 51/35/12
f 54/38/25 53/37/24 55/39/26
f 53/37/24 56/40/27 55/39/26
f 57/29/23 58/41/23 59/31/23
f 58/41/23 60/42/23 59/31/23
f 58/41/23 61/33/28 60/42/23
f 61/33/28 62/34/28 60/42/23
f 63/35/28 62/34/28 61/33/28
f 64/36/28 63/35/28 61/33/28
f 64/36/28 65/37/29 63/35/28
f 65/37/29 66/38/25 63/35/28
f 66/38/25 65/37/29 67/39/26
f 65/37/29 68/40/27 67/39/26
f 69/29/23 70/30/23 71/31/23
f 70/30/23 72/32/23 71/31/23
f 70/30/23 73/33/30 72/32/23
f 73/33/30 74/34/30 72/32/23
f 75/35/31 74/34/30 73/33/30
f 76/36/30 75/35/31 73/33/30
f 76/36/30 77/37/32 75/35/31
f 77/37/32 78/38/25 75/35/31
f 78/38/25 77/37/32 79/39/26
f 77/37/32 80/40/33 79/39/26
f 81/43/18 82/44/18 83/7/18
f 82/44/18 84/45/34 83/7/18
f 82/44/18 85/46/35 84/45/34
f 85/46/35 86/47/12 84/45/34
f 87/1/12 86/47/12 85/46/35
f 88/48/12 87/1/12 85/46/35
f 89/49/27 90/50/36 91/51/27
f 90/50/36 92/52/37 91/51/27
f 90/50/36 93/17/38 92/52/37
f 93/17/38 94/53/38 92/52/37
f 95/54/38 94/53/38 93/17/38
f 96/20/38 95/54/38 93/17/38
f 97/55/39 98/56/39 55/39/26
f 98/56/39 54/38/25 55/39/26
f 54/38/25 98/56/39 99/57/12
f 51/35/12 54/38/25 99/57/12
f 51/35/12 99/57/12 50/34/12
f 99/57/12 100/58/12 50/34/12
f 50/34/12 100/58/12 101/59/23
f 48/32/23 50/34/12 101/59/23
f 48/32/23 101/59/23 47/31/23
f 101/59/23 102/60/23 47/31/23
f 103/55/39 104/56/40 67/39/26
f 104/56/40 66/38/25 67/39/26
f 66/38/25 104/56/40 105/57/28
f 63/35/28 66/38/25 105/57/28
f 63/35/28 105/57/28 62/34/28
f 105/57/28 106/58/28 62/34/28
f 62/34/28 106/58/28 107/59/23
f 60/42/23 62/34/28 107/59/23
f 60/42/23 107/59/23 59/31/23
f 107/59/23 108/60/23 59/31/23
f 109/55/39 110/56/40 79/39/26
f 110/56/40 78/38/25 79/39/26
f 78/38/25 110/56/40 111/57/31
f 75/35/31 78/38/25 111/57/31
f 75/35/31 111/57/31 74/34/30
f 111/57/31 112/58/30 74/34/30
f 74/34/30 112/58/30 113/59/23
f 72/32/23 74/34/30 113/59/23
f 72/32/23 113/59/23 71/31/23
f 113/59/23 114/60/23 71/31/23
f 115/13/1 116/14/41 117/15/1
f 116/14/41 118/16/41 117/15/1
f 116/14/41 119/17/42 118/16/41
f 119/17/42 120/18/42 118/16/41
f 121/19/12 120/18/42 119/17/42
f 122/20/12 121/19/12 119/17/42
f 123/21/21 124/22/43 125/23/21
f 124/22/43 126/24/44 125/23/21
f 124/22/43 127/25/45 126/24/44
f 127/25/45 128/26/46 126/24/44
f 129/27/12 128/26/46 127/25/45
f 130/28/12 129/27/12 127/25/45
f 131/43/18 132/44/47 133/7/18
f 132/44/47 134/45/48 133/7/18
f 132/44/47 135/46/49 134/45/48
f 135/46/49 136/47/49 134/45/48
f 137/1/12 136/47/49 135/46/49
f 138/48/12 137/1/12 135/46/49
f 139/61/32 140/62/27 91/51/27
f 92/52/37 139/61/32 91/51/27
f 92/52/37 94/53/50 139/61/32
f 94/53/50 141/63/51 139/61/32
f 142/64/51 141/63/51 94/53/50
f 95/54/51 142/64/51 94/53/50
f 143/65/52 144/7/21 39/23/21
f 40/24/22 143/65/52 39/23/21
f 40/24/22 42/26/12 143/65/52
f 42/26/12 145/66/12 143/65/52
f 146/1/11 145/66/12 42/26/12
f 43/27/12 146/1/11 42/26/12
usemtl MASTER_Glass_Dirty_MASKED
f 147/67/53 148/68/53 149/69/53
f 148/68/53 150/70/53 149/69/53
f 151/71/12 152/72/12 153/73/12
f 154/74/12 151/71/12 153/73/12
f 154/74/12 155/75/12 151/71/12
f 155/75/12 156/76/12 151/71/12
