# Blender 3.6.18
# www.blender.org
mtllib Mesh.015.mtl
o Bistro_Research_Exterior_Paris_Building_01_paris_buildi_c489a0a
v 55.315948 4.261566 23.240639
v 55.551117 4.261842 23.334764
v 55.315910 4.287005 23.240665
v 55.551079 4.287280 23.334789
v 55.466721 4.261491 23.545620
v 55.466682 4.286932 23.545645
v 55.231556 4.261215 23.451492
v 55.231514 4.286655 23.451519
v 55.494804 4.468080 23.467365
v 55.380604 4.467946 23.421656
v 55.475750 4.388991 23.516178
v 55.361214 4.388858 23.470333
v 55.477497 4.372585 23.511871
v 55.501705 4.468110 23.450123
v 55.362957 4.372451 23.466026
v 55.266403 4.467812 23.375948
v 55.246674 4.388723 23.424488
v 55.248421 4.372315 23.420181
v 55.273308 4.467842 23.358704
v 55.332832 4.323483 23.271593
v 55.518227 4.323700 23.345798
v 55.266266 4.323207 23.437899
v 55.451664 4.323425 23.512104
v 55.303291 4.277453 23.211607
v 55.581093 4.277781 23.322800
v 55.481350 4.277366 23.571997
v 55.203548 4.277040 23.460802
v 55.601109 4.261943 23.313086
v 55.601067 4.287383 23.313112
v 55.600235 4.287367 23.327208
v 55.600273 4.261927 23.327181
v 55.497040 4.286939 23.585033
v 55.497078 4.261499 23.585007
v 55.487915 4.286914 23.595810
v 55.487957 4.261474 23.595785
v 55.473824 4.286892 23.594978
v 55.473862 4.261453 23.594952
v 55.195274 4.286566 23.483486
v 55.195312 4.261125 23.483461
v 55.184494 4.286557 23.474363
v 55.184532 4.261117 23.474339
v 55.185326 4.286573 23.460268
v 55.185368 4.261133 23.460243
v 55.288521 4.287001 23.202442
v 55.288567 4.261561 23.202415
v 55.297646 4.287026 23.191666
v 55.297688 4.261586 23.191639
v 55.311745 4.287047 23.192497
v 55.311783 4.261608 23.192472
v 55.590290 4.287374 23.303989
v 55.590332 4.261935 23.303963
v 55.531227 4.468145 23.461937
v 55.564228 4.468282 23.379480
v 55.534710 4.468247 23.367664
v 55.420509 4.468113 23.321955
v 55.387505 4.467976 23.404413
v 55.306313 4.467979 23.276247
v 55.243790 4.467808 23.346889
v 55.276791 4.467944 23.264431
v 55.338898 4.278817 23.526419
v 55.224026 4.278683 23.480442
v 55.194427 4.278647 23.468594
v 55.218861 4.372281 23.408350
v 55.453766 4.278952 23.572397
v 55.483368 4.278988 23.584244
v 55.507053 4.372620 23.523703
v 55.577232 4.372910 23.348368
v 55.589981 4.279429 23.317871
v 55.289040 4.372573 23.233015
v 55.301041 4.279088 23.202221
v 55.560379 4.279394 23.306025
v 55.445511 4.279259 23.260046
v 55.433136 4.372742 23.290691
v 55.547676 4.372877 23.336536
v 55.330643 4.279123 23.214067
v 55.318596 4.372607 23.244846
v 55.575695 4.261885 23.330973
v 55.481899 4.261495 23.565313
v 55.477341 4.261482 23.570702
v 55.313866 4.261586 23.216555
v 55.306816 4.261576 23.216139
v 55.302254 4.261562 23.221527
v 55.208462 4.261173 23.455868
v 55.208046 4.261167 23.462915
v 55.213432 4.261170 23.467476
v 55.470291 4.261472 23.570286
vn -0.3707 -0.0070 0.9287
vn -0.3707 -0.0069 0.9287
vn -0.9278 -0.0047 -0.3732
vn -0.9278 -0.0048 -0.3732
vn -0.9277 -0.0048 -0.3732
vn 0.3678 -0.0059 -0.9299
vn 0.9266 -0.0081 0.3760
vn -0.3120 0.5448 0.7783
vn -0.3120 0.5448 0.7784
vn 0.9286 -0.0037 0.3711
vn 0.9286 -0.0036 0.3711
vn -0.3580 -0.2798 0.8908
vn -0.3580 -0.2799 0.8908
vn -0.0008 -1.0000 -0.0026
vn -0.2641 -0.6989 0.6646
vn -0.6268 -0.7377 -0.2506
vn 0.2626 -0.6973 -0.6670
vn 0.6290 -0.7364 0.2493
vn 0.9983 -0.0048 0.0582
vn 0.9983 -0.0047 0.0582
vn 0.9754 -0.0050 0.2205
vn 0.8568 -0.0050 0.5157
vn 0.3937 -0.0073 0.9192
vn -0.2203 -0.0096 0.9754
vn -0.5187 -0.0074 0.8549
vn -0.6463 -0.0037 0.7631
vn -0.9984 -0.0081 -0.0563
vn -0.9759 -0.0078 -0.2181
vn -0.8586 -0.0079 -0.5126
vn -0.3978 -0.0055 -0.9175
vn 0.2168 -0.0032 -0.9762
vn 0.5164 -0.0054 -0.8563
vn 0.5164 -0.0055 -0.8563
vn 0.6447 -0.0092 -0.7644
vn -0.0033 1.0000 0.0043
vn -0.3107 0.5662 0.7635
vn 0.3518 0.3277 -0.8768
vn 0.3518 0.3277 -0.8769
vn -0.0032 1.0000 0.0043
vn -0.0008 -1.0000 -0.0025
vn -0.0009 -1.0000 -0.0026
vt 0.666016 0.905579
vt 0.982422 0.905579
vt 0.666016 0.937378
vt 0.982422 0.937378
vt 0.621094 0.562988
vt 0.621094 0.846924
vt 0.589355 0.562988
vt 0.589355 0.846924
vt 0.987793 0.985191
vt 0.671387 0.985191
vt 0.987793 0.953400
vt 0.671387 0.953400
vt 0.924316 0.406738
vt 0.924316 0.123047
vt 0.956055 0.406738
vt 0.956055 0.123047
vt 0.836914 0.436035
vt 0.990723 0.436035
vt 0.836914 0.554199
vt 0.990723 0.554199
vt 0.079041 0.406738
vt 0.224243 0.406738
vt 0.092773 0.424805
vt 0.211182 0.424805
vt 0.080078 0.370117
vt 0.233765 0.370117
vt 0.080078 0.391602
vt 0.233765 0.391602
vt 0.737793 0.576416
vt 0.987305 0.576416
vt 0.737793 0.800171
vt 0.987305 0.800171
vt 0.016449 0.510986
vt 0.390137 0.510986
vt 0.078613 0.591064
vt 0.328125 0.591064
vt 0.013008 0.631836
vt 0.348389 0.631836
vt 0.068787 0.716553
vt 0.292480 0.716553
vt 0.811035 0.171387
vt 0.437256 0.171387
vt 0.749023 0.091309
vt 0.499268 0.091309
vt 0.336670 0.861938
vt 0.671875 0.861938
vt 0.392334 0.946625
vt 0.616211 0.946625
vt 0.809082 0.050293
vt 0.809082 0.082031
vt 0.791504 0.082031
vt 0.791504 0.050293
vt 0.444580 0.082031
vt 0.444580 0.050293
vt 0.427002 0.082031
vt 0.427002 0.050293
vt 0.409424 0.082031
vt 0.409424 0.050293
vt 0.034393 0.082031
vt 0.034393 0.050293
vt 0.016754 0.082031
vt 0.016754 0.050293
vt 0.809082 0.007324
vt 0.809082 0.039062
vt 0.791504 0.039062
vt 0.791504 0.007324
vt 0.444580 0.039062
vt 0.444580 0.007324
vt 0.427002 0.039062
vt 0.427002 0.007324
vt 0.409424 0.039062
vt 0.409424 0.007324
vt 0.034393 0.039062
vt 0.034393 0.007324
vt 0.016754 0.039062
vt 0.016754 0.007324
vt 0.503418 0.354492
vt 0.503418 0.243164
vt 0.543457 0.243164
vt 0.543457 0.354492
vt 0.665039 0.243164
vt 0.665039 0.354492
vt 0.543457 0.377441
vt 0.665039 0.377441
vt 0.075195 0.336426
vt 0.217651 0.336426
vt 0.075012 0.206543
vt 0.217529 0.206543
vt 0.074890 0.166992
vt 0.217407 0.166992
vt 0.362549 0.166992
vt 0.362793 0.206543
vt 0.103027 0.732666
vt 0.213989 0.732666
vt 0.061066 0.851929
vt 0.297119 0.851929
vt 0.378418 0.968811
vt 0.019943 0.968811
vt 0.412109 0.564697
vt 0.565918 0.564697
vt 0.565918 0.688721
vt 0.565918 0.815063
vt 0.412109 0.815063
vt 0.412109 0.688721
vt 0.372314 0.564697
vt 0.372314 0.815063
vt 0.372314 0.688721
vt 0.747070 0.229492
vt 0.769531 0.185059
vt 0.783203 0.189941
vt 0.462646 0.185059
vt 0.787598 0.203613
vt 0.488281 0.229492
vt 0.747070 0.461426
vt 0.448975 0.189941
vt 0.787598 0.487305
vt 0.444336 0.203613
vt 0.783203 0.501221
vt 0.444336 0.487305
vt 0.769531 0.505615
vt 0.488281 0.461426
vt 0.448975 0.501221
vt 0.462646 0.505615
vt 0.428711 0.121094
vt 0.428711 0.468262
vt 0.402100 0.136719
vt 0.423096 0.104004
vt 0.402100 0.452148
vt 0.423096 0.484863
vt 0.375244 0.152344
vt 0.406494 0.098633
vt 0.375244 0.436523
vt 0.399170 0.460449
vt 0.406494 0.490234
vt 0.045135 0.125488
vt 0.031555 0.098633
vt 0.058746 0.152344
vt 0.036774 0.128418
vt 0.014816 0.104004
vt 0.033966 0.136719
vt 0.009216 0.121094
vt 0.033966 0.452148
vt 0.009216 0.468262
vt 0.058746 0.436523
vt 0.036774 0.460449
vt 0.014816 0.484863
vt 0.045135 0.463379
vt 0.031555 0.490234
vt 0.390869 0.463379
s 1
usemtl MASTER_Focus
f 1/1/1 2/2/2 3/3/1
f 2/2/2 4/4/1 3/3/1
f 2/5/3 5/6/4 4/7/5
f 5/6/4 6/8/5 4/7/5
f 5/9/6 7/10/6 6/11/6
f 7/10/6 8/12/6 6/11/6
f 7/13/7 1/14/7 8/15/7
f 1/14/7 3/16/7 8/15/7
f 9/17/8 10/18/8 11/19/8
f 10/18/8 12/20/9 11/19/8
f 13/21/10 14/22/11 11/23/11
f 14/22/11 9/24/11 11/23/11
f 15/25/12 13/26/13 12/27/12
f 13/26/13 11/28/13 12/27/12
f 16/17/8 17/19/8 10/18/8
f 17/19/8 12/20/9 10/18/8
f 18/21/5 17/23/4 19/22/5
f 17/23/4 16/24/5 19/22/5
f 15/25/12 12/27/12 18/26/13
f 12/27/12 17/28/13 18/26/13
f 20/29/14 21/30/14 22/31/14
f 21/30/14 23/32/14 22/31/14
f 24/33/15 25/34/15 20/35/15
f 25/34/15 21/36/15 20/35/15
f 25/37/16 26/38/16 21/39/16
f 26/38/16 23/40/16 21/39/16
f 26/41/17 27/42/17 23/43/17
f 27/42/17 22/44/17 23/43/17
f 27/45/18 24/46/18 22/47/18
f 24/46/18 20/48/18 22/47/18
f 28/49/19 29/50/20 30/51/21
f 31/52/21 28/49/19 30/51/21
f 31/52/21 30/51/21 32/53/22
f 33/54/22 31/52/21 32/53/22
f 33/54/22 32/53/22 34/55/23
f 35/56/23 33/54/22 34/55/23
f 35/56/23 34/55/23 36/57/24
f 37/58/24 35/56/23 36/57/24
f 37/58/24 36/57/24 38/59/25
f 39/60/25 37/58/24 38/59/25
f 39/60/25 38/59/25 40/61/26
f 41/62/26 39/60/25 40/61/26
f 41/63/27 40/64/27 42/65/28
f 43/66/28 41/63/27 42/65/28
f 43/66/28 42/65/28 44/67/29
f 45/68/29 43/66/28 44/67/29
f 45/68/29 44/67/29 46/69/30
f 47/70/30 45/68/29 46/69/30
f 47/70/30 46/69/30 48/71/31
f 49/72/31 47/70/30 48/71/31
f 49/72/31 48/71/31 50/73/32
f 51/74/33 49/72/31 50/73/32
f 51/74/33 50/73/32 29/75/34
f 28/76/34 51/74/33 29/75/34
f 52/77/35 53/78/35 54/79/35
f 14/80/35 52/77/35 54/79/35
f 14/80/35 54/79/35 55/81/35
f 56/82/35 14/80/35 55/81/35
f 14/80/35 56/82/35 9/83/35
f 56/82/35 10/84/35 9/83/35
f 16/83/35 10/84/35 56/82/35
f 19/80/35 16/83/35 56/82/35
f 56/82/35 55/81/35 19/80/35
f 55/81/35 57/79/35 19/80/35
f 19/80/35 57/79/35 58/77/35
f 57/79/35 59/78/35 58/77/35
f 60/85/36 15/86/36 61/87/36
f 15/86/36 18/88/36 61/87/36
f 61/87/36 18/88/36 62/89/36
f 18/88/36 63/90/36 62/89/36
f 63/90/36 18/88/36 58/91/36
f 18/88/36 19/92/36 58/91/36
f 60/85/36 64/87/36 15/86/36
f 64/87/36 13/88/36 15/86/36
f 64/87/36 65/89/36 13/88/36
f 65/89/36 66/90/36 13/88/36
f 66/90/36 52/91/36 13/88/36
f 52/91/36 14/92/36 13/88/36
f 53/93/10 52/94/11 67/95/11
f 52/94/11 66/96/10 67/95/11
f 66/96/10 65/97/10 67/95/11
f 65/97/10 68/98/11 67/95/11
f 59/93/5 69/95/5 58/94/5
f 69/95/5 63/96/5 58/94/5
f 63/96/5 69/95/5 62/97/4
f 69/95/5 70/98/5 62/97/5
f 71/99/37 72/100/37 73/101/38
f 55/102/37 54/103/37 73/101/38
f 74/104/38 71/99/37 73/101/38
f 54/103/37 74/104/38 73/101/38
f 68/105/37 71/99/37 74/104/38
f 54/103/37 53/106/37 74/104/38
f 67/107/37 68/105/37 74/104/38
f 53/106/37 67/107/37 74/104/38
f 73/101/38 72/100/37 75/99/37
f 55/102/37 73/101/38 57/103/37
f 76/104/37 73/101/38 75/99/37
f 73/101/38 76/104/37 57/103/37
f 76/104/37 75/99/37 70/105/37
f 57/103/37 76/104/37 59/106/37
f 69/107/37 76/104/37 70/105/37
f 76/104/37 69/107/37 59/106/37
f 3/108/35 48/109/35 46/110/35
f 50/111/35 48/109/35 3/108/35
f 3/108/35 46/110/35 44/112/39
f 4/113/35 50/111/35 3/108/35
f 3/108/35 44/112/39 8/114/35
f 4/113/35 29/115/35 50/111/35
f 44/112/39 42/116/35 8/114/35
f 4/113/35 30/117/35 29/115/35
f 8/114/35 42/116/35 40/118/35
f 32/119/35 30/117/35 4/113/35
f 8/114/35 40/118/35 38/120/35
f 6/121/35 32/119/35 4/113/35
f 8/114/35 38/120/35 6/121/35
f 6/121/35 34/122/35 32/119/35
f 38/120/35 36/123/35 6/121/35
f 6/121/35 36/123/35 34/122/35
f 31/124/14 33/125/40 77/126/14
f 31/124/14 77/126/14 28/127/14
f 33/125/40 78/128/14 77/126/14
f 33/125/40 35/129/14 78/128/14
f 28/127/14 77/126/14 2/130/14
f 51/131/14 28/127/14 2/130/14
f 78/128/14 5/132/14 77/126/14
f 5/132/14 2/130/14 77/126/14
f 35/129/14 79/133/14 78/128/14
f 79/133/14 5/132/14 78/128/14
f 35/129/14 37/134/40 79/133/14
f 51/131/14 2/130/14 80/135/14
f 49/136/14 51/131/14 80/135/14
f 2/130/14 1/137/14 80/135/14
f 49/136/14 80/135/14 81/138/14
f 80/135/14 1/137/14 81/138/14
f 47/139/14 49/136/14 81/138/14
f 47/139/14 81/138/14 82/140/14
f 81/138/14 1/137/14 82/140/14
f 45/141/14 47/139/14 82/140/14
f 82/140/14 1/137/14 83/142/14
f 45/141/14 82/140/14 83/142/14
f 43/143/14 45/141/14 83/142/14
f 1/137/14 7/144/41 83/142/14
f 43/143/14 83/142/14 84/145/14
f 83/142/14 7/144/41 84/145/14
f 41/146/14 43/143/14 84/145/14
f 41/146/14 84/145/14 85/147/14
f 84/145/14 7/144/41 85/147/14
f 39/148/41 41/146/14 85/147/14
f 85/147/14 7/144/41 86/149/14
f 39/148/41 85/147/14 86/149/14
f 7/144/41 5/132/14 86/149/14
f 37/134/40 39/148/41 86/149/14
f 86/149/14 5/132/14 79/133/14
f 37/134/40 86/149/14 79/133/14
