# Blender 3.6.18
# www.blender.org
mtllib Mesh.482.mtl
o Bistro_Research_Exterior_paris_building_11_5597
v 0.398067 9.319677 19.591156
v 1.643019 9.319678 20.100224
v 1.665379 9.309972 20.045542
v 0.420428 9.309971 19.536472
v 1.668367 9.308675 20.038233
v 0.423416 9.308674 19.529163
v 0.422525 9.257854 19.531345
v 1.667476 9.257854 20.040415
v 1.664486 9.256583 20.047726
v 0.419535 9.256583 19.538654
v 1.641682 9.246886 20.103495
v 0.396731 9.246886 19.594425
v 1.668227 9.300683 20.038578
v 0.423276 9.300683 19.529509
v 1.667616 9.265846 20.040071
v 0.422665 9.265846 19.531000
vn 0.0590 0.9864 -0.1533
vn 0.0589 0.9864 -0.1533
vn 0.2867 0.6244 -0.7265
vn 0.2772 -0.6676 -0.6910
vn 0.0585 -0.9866 -0.1521
vn 0.3716 -0.0508 -0.9270
vn 0.3716 -0.0509 -0.9270
vt 0.410156 0.525879
vt -0.009987 0.525879
vt -0.009987 0.507568
vt 0.410156 0.507568
vt -0.009987 0.505127
vt 0.410156 0.505127
vt 0.589355 0.505859
vt 1.009766 0.505859
vt 1.009766 0.508301
vt 0.589355 0.508301
vt 1.009766 0.527100
vt 0.589355 0.527100
vt 0.589355 0.379883
vt 1.009766 0.379883
vt 1.009766 0.382324
vt 0.589355 0.382324
vt 1.009766 0.393555
vt 0.589355 0.393555
vt 1.009766 0.395996
vt 0.589355 0.395996
s 1
usemtl MASTER_Wood_Painted_Green
f 1/1/1 2/2/2 3/3/2
f 4/4/1 1/1/1 3/3/2
f 4/4/1 3/3/2 5/5/3
f 6/6/3 4/4/1 5/5/3
f 7/7/4 8/8/4 9/9/5
f 10/10/5 7/7/4 9/9/5
f 10/10/5 9/9/5 11/11/5
f 12/12/5 10/10/5 11/11/5
f 6/13/3 5/14/3 13/15/6
f 14/16/7 6/13/3 13/15/6
f 14/16/7 13/15/6 15/17/7
f 16/18/6 14/16/7 15/17/7
f 16/18/6 15/17/7 8/19/4
f 7/20/4 16/18/6 8/19/4
