# Blender 3.6.18
# www.blender.org
mtllib Mesh.930.mtl
o Bistro_Research_Exterior_Paris_Building_01_paris_buildi_8135317
v 3.898644 1.661272 -17.135067
v 3.891886 1.653592 -17.138725
v 3.894980 1.653592 -17.128311
v 4.193003 1.653592 -17.678232
v 4.182591 1.653592 -17.675138
v 4.189344 1.661272 -17.671482
v 4.121294 0.718011 -17.717094
v 4.110878 0.714389 -17.714001
v 4.116460 0.726399 -17.710978
v 3.825677 0.726399 -17.174406
v 3.820121 0.714389 -17.177481
v 3.823213 0.718011 -17.167057
v 1.715392 1.643807 -13.113489
v 1.708635 1.636127 -13.117145
v 1.711726 1.636127 -13.106727
v 2.009752 1.636128 -13.656652
v 1.999341 1.636128 -13.653561
v 2.006092 1.643808 -13.649897
v 1.938040 0.700546 -13.695514
v 1.927626 0.696924 -13.692414
v 1.933209 0.708934 -13.689394
v 1.642424 0.708934 -13.152820
v 1.636868 0.696924 -13.155900
v 1.639958 0.700546 -13.145473
v -0.440161 1.643807 -9.095790
v -0.446919 1.636127 -9.099452
v -0.443828 1.636127 -9.089030
v -0.145804 1.636127 -9.638951
v -0.156217 1.636127 -9.635858
v -0.149463 1.643807 -9.632201
v -0.217512 0.700546 -9.677814
v -0.227930 0.696924 -9.674720
v -0.222346 0.708934 -9.671699
v -0.513131 0.708934 -9.135125
v -0.518690 0.696924 -9.138200
v -0.515595 0.700546 -9.127776
v 4.252428 1.668952 -17.637293
v 3.961725 1.668952 -17.100883
v 4.252428 4.660593 -17.637289
v 3.961725 4.660591 -17.100883
v 4.259181 4.668272 -17.633631
v 3.968478 4.668271 -17.097223
v 4.515940 4.668273 -17.494482
v 4.225044 4.668271 -16.958187
v 3.891577 0.785432 -17.138124
v 4.182600 0.785432 -17.675121
v 4.245677 1.661272 -17.640953
v 3.954973 1.661272 -17.104544
v 3.820151 0.657295 -17.177608
v 4.110849 0.657296 -17.714020
v 4.177022 0.773422 -17.678141
v 3.886017 0.773421 -17.141176
v 3.958063 1.653592 -17.094128
v 3.964817 1.661272 -17.090471
v 4.256089 1.653592 -17.644043
v 4.262843 1.661272 -17.640383
v 4.186258 0.770072 -17.681875
v 4.193010 0.777752 -17.678211
v 3.894663 0.777752 -17.127707
v 3.887936 0.770072 -17.131403
v 3.964817 4.660591 -17.090471
v 4.262843 4.660593 -17.640383
v 4.519602 4.660593 -17.501236
v 4.221382 4.660591 -16.951433
v 4.121260 0.657296 -17.717113
v 3.823243 0.657296 -17.167194
v 2.069176 1.651487 -13.615710
v 1.778474 1.651487 -13.079301
v 2.069176 4.643127 -13.615708
v 1.778474 4.643126 -13.079299
v 2.075932 4.650808 -13.612055
v 1.785226 4.650808 -13.075640
v 2.332690 4.650807 -13.472900
v 2.041793 4.650806 -12.936604
v 1.708326 0.767966 -13.116541
v 1.999349 0.767967 -13.653539
v 2.062424 1.643808 -13.619369
v 1.771720 1.643808 -13.082959
v 1.636898 0.639831 -13.156026
v 1.927597 0.639831 -13.692438
v 1.993770 0.755957 -13.656558
v 1.702766 0.755957 -13.119593
v 1.774810 1.636128 -13.072548
v 1.781564 1.643807 -13.068888
v 2.072837 1.636128 -13.622460
v 2.079592 1.643807 -13.618802
v 2.003007 0.752607 -13.660295
v 2.009757 0.760287 -13.656631
v 1.711411 0.760287 -13.106123
v 1.704685 0.752606 -13.109818
v 1.781564 4.643126 -13.068890
v 2.079593 4.643128 -13.618802
v 2.336351 4.643128 -13.479654
v 2.038131 4.643126 -12.929852
v 1.938006 0.639831 -13.695533
v 1.639992 0.639830 -13.145609
v -0.086378 1.651487 -9.598014
v -0.377083 1.651487 -9.061605
v -0.086378 4.643127 -9.598012
v -0.377084 4.643125 -9.061601
v -0.079626 4.650807 -9.594352
v -0.370329 4.650806 -9.057941
v 0.177136 4.650808 -9.455204
v -0.113763 4.650806 -8.918905
v -0.447228 0.767967 -9.098848
v -0.156206 0.767967 -9.635841
v -0.093132 1.643807 -9.601671
v -0.383833 1.643807 -9.065264
v -0.518656 0.639830 -9.138329
v -0.227958 0.639831 -9.674740
v -0.161785 0.755957 -9.638862
v -0.452789 0.755957 -9.101893
v -0.380746 1.636127 -9.054846
v -0.373988 1.643807 -9.051192
v -0.082718 1.636127 -9.604766
v -0.075963 1.643807 -9.601104
v -0.152549 0.752607 -9.642594
v -0.145797 0.760286 -9.638932
v -0.444142 0.760286 -9.088430
v -0.450871 0.752607 -9.092119
v -0.373989 4.643126 -9.051193
v -0.075964 4.643127 -9.601103
v 0.180796 4.643126 -9.461957
v -0.117427 4.643126 -8.912149
v -0.217550 0.639831 -9.677833
v -0.515564 0.639830 -9.127913
v 4.519602 1.661272 -17.501236
v 4.519602 0.657296 -17.501236
v 4.186253 0.657296 -17.681892
v 3.888231 0.657296 -17.131977
v 4.221384 0.657296 -16.951437
v 4.221384 1.661272 -16.951437
v 2.336351 1.643808 -13.479656
v 2.336349 0.639831 -13.479652
v 2.002999 0.639831 -13.660310
v 1.704977 0.639831 -13.110396
v 2.038131 0.639831 -12.929856
v 2.038132 1.643808 -12.929856
v 0.180794 1.643807 -9.461955
v 0.180795 0.639830 -9.461958
v -0.152554 0.639830 -9.642610
v -0.450575 0.639830 -9.092700
v -0.117426 0.639831 -8.912157
v -0.117426 1.643807 -8.912157
vn -0.7854 0.5744 0.2306
vn -0.2380 0.5733 -0.7840
vn -0.3859 0.3859 -0.8380
vn -0.9154 0.3811 0.1296
vn -0.7854 0.5744 0.2305
vn -0.2379 0.5734 -0.7840
vn -0.3859 0.3858 -0.8380
vn -0.9154 0.3811 0.1297
vn -0.8774 -0.0039 -0.4797
vn -0.0039 1.0000 -0.0039
vn -0.4998 0.8225 -0.2715
vn -0.7504 0.4047 0.5226
vn -0.7505 0.4047 0.5226
vn 0.0275 0.4042 -0.9143
vn 0.0275 0.4041 -0.9143
vn -0.1137 0.3723 -0.9211
vn -0.1137 0.3724 -0.9211
vn -0.8354 0.3726 0.4040
vn -0.9605 -0.0039 0.2783
vn -0.2856 -0.0040 -0.9584
vn -0.2855 -0.0039 -0.9584
vn -0.2856 -0.0039 -0.9584
vn -0.6242 0.7027 -0.3415
vn 0.3346 0.7046 -0.6258
vn 0.3346 0.7045 -0.6259
vn -0.3432 0.7061 0.6194
vn -0.3432 0.7061 0.6193
vn -0.7767 0.4645 -0.4254
vn -0.9605 -0.0039 0.2784
vn 0.3346 0.7045 -0.6258
vn -0.7767 0.4644 -0.4255
vn -0.7007 0.5990 0.3876
vn -0.7007 0.5989 0.3876
vn -0.0511 0.6011 -0.7975
vn 0.3345 0.7045 -0.6259
vn -0.7767 0.4645 -0.4255
vn -0.7007 0.5990 0.3875
vn 0.4736 -0.0039 -0.8807
vn -0.4829 -0.0118 0.8756
vn -0.4830 -0.0039 0.8756
vn -0.4908 0.6792 -0.5457
vn -0.7250 0.6780 -0.1215
vt 0.595703 0.134277
vt 0.596680 0.134277
vt 0.596191 0.135742
vt 0.596191 0.027832
vt 0.596680 0.029297
vt 0.595703 0.029297
vt 0.755371 0.027832
vt 0.756836 0.029297
vt 0.754395 0.029297
vt 0.754395 0.134277
vt 0.756836 0.134277
vt 0.755371 0.135742
vt 0.570312 0.037598
vt 0.570312 0.127441
vt 0.013115 0.037598
vt 0.013115 0.127441
vt 0.729980 0.142090
vt 0.819336 0.142090
vt 0.729980 0.185059
vt 0.819336 0.185059
vt 0.602539 0.127441
vt 0.602539 0.037598
vt 0.729004 0.127441
vt 0.729004 0.037598
vt 0.591309 0.037598
vt 0.591309 0.127441
vt 0.582031 0.037598
vt 0.582031 0.127441
vt 0.761719 0.127441
vt 0.761719 0.037598
vt 0.770020 0.127441
vt 0.770020 0.037598
vt 0.750488 0.037598
vt 0.750488 0.127441
vt 0.738281 0.037598
vt 0.738281 0.127441
vt 0.576660 0.135742
vt 0.575684 0.135742
vt 0.577148 0.134277
vt 0.575195 0.134277
vt 0.576660 0.027832
vt 0.577148 0.029297
vt 0.575684 0.027832
vt 0.575195 0.029297
vt 0.734375 0.027832
vt 0.734375 0.029297
vt 0.733398 0.027832
vt 0.732422 0.029297
vt 0.733398 0.135742
vt 0.732422 0.134277
vt 0.734375 0.135742
vt 0.734375 0.134277
vt 0.012833 0.136719
vt 0.013115 0.134766
vt 0.570801 0.136719
vt 0.570312 0.134766
vt 0.570801 0.026367
vt 0.570312 0.028320
vt 0.012833 0.026367
vt 0.013115 0.028320
vt 0.575195 0.037598
vt 0.577148 0.037598
vt 0.575195 0.127441
vt 0.577148 0.127441
vt 1.007812 0.187988
vt 1.006836 0.191895
vt 1.007812 0.145508
vt 1.006836 0.148926
vt 0.006836 0.191895
vt 0.008430 0.187988
vt 0.006836 0.148926
vt 0.008430 0.145508
vt 0.732422 0.037598
vt 0.734375 0.037598
vt 0.732422 0.127441
vt 0.734375 0.127441
vt 0.602051 0.135742
vt 0.602539 0.134277
vt 0.729492 0.135742
vt 0.729004 0.134277
vt 0.595703 0.037598
vt 0.596680 0.037598
vt 0.595703 0.127441
vt 0.596680 0.127441
vt 0.729492 0.027832
vt 0.729004 0.029297
vt 0.602051 0.027832
vt 0.602539 0.029297
vt 0.591309 0.134277
vt 0.591797 0.135742
vt 0.582031 0.134277
vt 0.581543 0.135742
vt 0.591797 0.027832
vt 0.591309 0.029297
vt 0.581543 0.027832
vt 0.582031 0.029297
vt 0.769531 0.027832
vt 0.770020 0.029297
vt 0.760742 0.027832
vt 0.761719 0.029297
vt 0.760742 0.135742
vt 0.761719 0.134277
vt 0.769531 0.135742
vt 0.770020 0.134277
vt 0.754395 0.037598
vt 0.756348 0.037598
vt 0.754395 0.127441
vt 0.756348 0.127441
vt 0.750488 0.134277
vt 0.751465 0.135742
vt 0.738281 0.134277
vt 0.738281 0.135742
vt 0.751465 0.027832
vt 0.750488 0.029297
vt 0.738281 0.027832
vt 0.738281 0.029297
vt 0.015060 0.190430
vt 0.015060 0.146973
vt 0.575195 0.190430
vt 0.575195 0.146973
vt 0.576660 0.191406
vt 0.722168 0.146973
vt 0.576660 0.202148
vt 0.704102 0.202148
vt 0.705566 0.203125
vt 0.722168 0.203125
vt 0.712891 0.213867
vt 0.722168 0.213867
vt 1.712891 0.213867
vt 1.721680 0.213867
vt 1.705078 0.203125
vt 1.721680 0.203125
vt 1.704102 0.202148
vt 1.721680 0.146973
vt 1.576172 0.202148
vt 1.576172 0.191406
vt 1.575195 0.190430
vt 1.575195 0.146973
vt 1.014648 0.190430
vt 1.014648 0.146973
vt 0.005947 0.037598
vt 0.007183 0.035645
vt 0.007465 0.037598
vt 0.005947 0.127441
vt 0.007465 0.127441
vt 0.007187 0.128906
s 1
usemtl MASTER_Bistro_Main_Door
f 1/1/1 2/2/1 3/3/1
f 4/4/2 5/5/2 6/6/2
f 7/7/3 8/8/3 9/9/3
f 10/10/4 11/11/4 12/12/4
f 13/1/5 14/2/5 15/3/5
f 16/4/6 17/5/6 18/6/6
f 19/7/7 20/8/7 21/9/7
f 22/10/8 23/11/8 24/12/8
f 25/1/5 26/2/5 27/3/5
f 28/4/6 29/5/6 30/6/6
f 31/7/3 32/8/3 33/9/3
f 34/10/4 35/11/4 36/12/4
f 37/13/9 38/14/9 39/15/9
f 38/14/9 40/16/9 39/15/9
f 41/17/10 42/18/10 43/19/10
f 42/18/10 44/20/10 43/19/10
f 2/21/9 5/22/9 45/23/9
f 5/22/9 46/24/9 45/23/9
f 6/25/10 1/26/10 47/27/10
f 1/26/10 48/28/10 47/27/10
f 11/29/9 8/30/9 49/31/9
f 8/30/9 50/32/9 49/31/9
f 9/33/11 10/34/11 51/35/11
f 10/34/11 52/36/11 51/35/11
f 53/37/12 54/38/13 48/39/12
f 54/38/13 38/40/12 48/39/12
f 55/41/14 47/42/15 56/43/14
f 47/42/15 37/44/14 56/43/14
f 57/45/16 51/46/17 58/47/17
f 51/46/17 46/48/17 58/47/17
f 59/49/18 45/50/18 60/51/18
f 45/50/18 52/52/18 60/51/18
f 61/53/19 40/54/19 54/55/19
f 40/54/19 38/56/19 54/55/19
f 56/57/20 37/58/21 62/59/21
f 37/58/21 39/60/22 62/59/21
f 37/61/23 47/62/23 38/63/23
f 47/62/23 48/64/23 38/63/23
f 62/65/24 41/66/24 63/67/24
f 41/66/25 43/68/25 63/67/25
f 42/69/26 61/70/26 44/71/26
f 61/70/27 64/72/27 44/71/27
f 46/73/28 51/74/28 45/75/28
f 51/74/28 52/76/28 45/75/28
f 3/77/19 2/78/19 59/79/29
f 2/78/19 45/80/29 59/79/29
f 6/81/23 5/82/23 1/83/23
f 5/82/23 2/84/23 1/83/23
f 58/85/22 46/86/22 4/87/21
f 46/86/22 5/88/21 4/87/21
f 1/89/26 3/90/27 48/91/27
f 3/90/27 53/92/27 48/91/27
f 4/93/30 6/94/25 55/95/24
f 6/94/25 47/96/24 55/95/24
f 65/97/22 50/98/22 7/99/22
f 50/98/20 8/100/20 7/99/20
f 12/101/19 11/102/19 66/103/19
f 11/102/19 49/104/19 66/103/19
f 9/105/28 8/106/28 10/107/31
f 8/106/28 11/108/28 10/107/31
f 10/109/32 12/110/32 52/111/32
f 12/110/32 60/112/33 52/111/32
f 7/113/34 9/114/34 57/115/34
f 9/114/34 51/116/34 57/115/34
f 67/13/9 68/14/9 69/15/9
f 68/14/9 70/16/9 69/15/9
f 71/17/10 72/18/10 73/19/10
f 72/18/10 74/20/10 73/19/10
f 14/21/9 17/22/9 75/23/9
f 17/22/9 76/24/9 75/23/9
f 18/25/10 13/26/10 77/27/10
f 13/26/10 78/28/10 77/27/10
f 23/29/9 20/30/9 79/31/9
f 20/30/9 80/32/9 79/31/9
f 21/33/11 22/34/11 81/35/11
f 22/34/11 82/36/11 81/35/11
f 83/37/12 84/38/12 78/39/12
f 84/38/12 68/40/12 78/39/12
f 85/41/14 77/42/14 86/43/15
f 77/42/14 67/44/15 86/43/15
f 87/45/17 81/46/16 88/47/17
f 81/46/16 76/48/17 88/47/17
f 89/49/18 75/50/18 90/51/18
f 75/50/18 82/52/18 90/51/18
f 91/53/29 70/54/29 84/55/29
f 70/54/29 68/56/29 84/55/29
f 86/57/21 67/58/21 92/59/22
f 67/58/21 69/60/22 92/59/22
f 67/61/23 77/62/23 68/63/23
f 77/62/23 78/64/23 68/63/23
f 92/65/35 71/66/35 93/67/35
f 71/66/24 73/68/24 93/67/24
f 72/69/26 91/70/26 74/71/26
f 91/70/27 94/72/27 74/71/27
f 76/73/28 81/74/28 75/75/36
f 81/74/28 82/76/28 75/75/36
f 15/77/19 14/78/29 89/79/29
f 14/78/29 75/80/29 89/79/29
f 18/81/23 17/82/23 13/83/23
f 17/82/23 14/84/23 13/83/23
f 88/85/22 76/86/21 16/87/21
f 76/86/21 17/88/21 16/87/21
f 13/89/27 15/90/27 78/91/27
f 15/90/27 83/92/27 78/91/27
f 16/93/30 18/94/24 85/95/24
f 18/94/24 77/96/24 85/95/24
f 95/97/21 80/98/21 19/99/21
f 80/98/22 20/100/22 19/99/22
f 24/101/19 23/102/19 96/103/19
f 23/102/19 79/104/19 96/103/19
f 21/105/31 20/106/28 22/107/28
f 20/106/28 23/108/28 22/107/28
f 22/109/37 24/110/32 82/111/33
f 24/110/32 90/112/32 82/111/33
f 19/113/34 21/114/34 87/115/34
f 21/114/34 81/116/34 87/115/34
f 97/13/9 98/14/9 99/15/9
f 98/14/9 100/16/9 99/15/9
f 101/17/10 102/18/10 103/19/10
f 102/18/10 104/20/10 103/19/10
f 26/21/9 29/22/9 105/23/9
f 29/22/9 106/24/9 105/23/9
f 30/25/10 25/26/10 107/27/10
f 25/26/10 108/28/10 107/27/10
f 35/29/9 32/30/9 109/31/9
f 32/30/9 110/32/9 109/31/9
f 33/33/11 34/34/11 111/35/11
f 34/34/11 112/36/11 111/35/11
f 113/37/12 114/38/12 108/39/13
f 114/38/12 98/40/12 108/39/13
f 115/41/14 107/42/14 116/43/14
f 107/42/14 97/44/14 116/43/14
f 117/45/16 111/46/17 118/47/17
f 111/46/17 106/48/17 118/47/17
f 119/49/18 105/50/18 120/51/18
f 105/50/18 112/52/18 120/51/18
f 121/53/29 100/54/29 114/55/29
f 100/54/29 98/56/29 114/55/29
f 116/57/21 97/58/21 122/59/22
f 97/58/21 99/60/21 122/59/22
f 97/61/23 107/62/23 98/63/23
f 107/62/23 108/64/23 98/63/23
f 122/65/24 101/66/24 123/67/24
f 101/66/24 103/68/24 123/67/24
f 102/69/27 121/70/27 104/71/27
f 121/70/27 124/72/27 104/71/27
f 106/73/28 111/74/28 105/75/28
f 111/74/28 112/76/28 105/75/28
f 27/77/29 26/78/29 119/79/19
f 26/78/29 105/80/19 119/79/19
f 30/81/23 29/82/23 25/83/23
f 29/82/23 26/84/23 25/83/23
f 118/85/21 106/86/21 28/87/22
f 106/86/21 29/88/22 28/87/22
f 25/89/26 27/90/27 108/91/27
f 27/90/27 113/92/26 108/91/27
f 28/93/24 30/94/25 115/95/24
f 30/94/25 107/96/25 115/95/24
f 125/97/22 110/98/22 31/99/22
f 110/98/21 32/100/21 31/99/21
f 36/101/29 35/102/29 126/103/29
f 35/102/29 109/104/29 126/103/29
f 33/105/28 32/106/28 34/107/28
f 32/106/28 35/108/28 34/107/28
f 34/109/32 36/110/37 112/111/32
f 36/110/37 120/112/32 112/111/32
f 31/113/34 33/114/34 117/115/34
f 33/114/34 111/116/34 117/115/34
f 62/117/38 63/118/38 56/119/38
f 63/118/38 127/120/38 56/119/38
f 56/119/38 127/120/38 55/121/38
f 127/120/38 128/122/38 55/121/38
f 4/123/38 55/121/38 58/124/38
f 55/121/38 128/122/38 58/124/38
f 58/124/38 128/122/38 57/125/38
f 128/122/38 129/126/38 57/125/38
f 7/127/38 57/125/38 129/126/38
f 65/128/38 7/127/38 129/126/38
f 12/129/39 66/130/39 60/131/39
f 66/130/39 130/132/39 60/131/39
f 59/133/40 60/131/39 130/132/39
f 131/134/40 59/133/40 130/132/39
f 59/133/40 131/134/40 3/135/40
f 131/134/40 53/136/40 3/135/40
f 53/136/40 131/134/40 54/137/40
f 131/134/40 132/138/40 54/137/40
f 54/137/40 132/138/40 61/139/40
f 132/138/40 64/140/40 61/139/40
f 41/141/41 62/142/6 39/143/41
f 41/141/41 39/143/41 42/144/42
f 39/143/41 40/145/42 42/144/42
f 61/146/1 42/144/42 40/145/42
f 92/117/38 93/118/38 86/119/38
f 93/118/38 133/120/38 86/119/38
f 86/119/38 133/120/38 85/121/38
f 133/120/38 134/122/38 85/121/38
f 16/123/38 85/121/38 88/124/38
f 85/121/38 134/122/38 88/124/38
f 88/124/38 134/122/38 87/125/38
f 134/122/38 135/126/38 87/125/38
f 19/127/38 87/125/38 135/126/38
f 95/128/38 19/127/38 135/126/38
f 24/129/39 96/130/39 90/131/39
f 96/130/39 136/132/39 90/131/39
f 89/133/40 90/131/39 136/132/39
f 137/134/40 89/133/40 136/132/39
f 89/133/40 137/134/40 15/135/40
f 137/134/40 83/136/40 15/135/40
f 83/136/40 137/134/40 84/137/40
f 137/134/40 138/138/40 84/137/40
f 84/137/40 138/138/40 91/139/40
f 138/138/40 94/140/40 91/139/40
f 71/141/41 92/142/6 69/143/41
f 71/141/41 69/143/41 72/144/42
f 69/143/41 70/145/42 72/144/42
f 91/146/1 72/144/42 70/145/42
f 122/117/38 123/118/38 116/119/38
f 123/118/38 139/120/38 116/119/38
f 116/119/38 139/120/38 115/121/38
f 139/120/38 140/122/38 115/121/38
f 28/123/38 115/121/38 118/124/38
f 115/121/38 140/122/38 118/124/38
f 118/124/38 140/122/38 117/125/38
f 140/122/38 141/126/38 117/125/38
f 31/127/38 117/125/38 141/126/38
f 125/128/38 31/127/38 141/126/38
f 36/129/39 126/130/39 120/131/39
f 126/130/39 142/132/39 120/131/39
f 119/133/40 120/131/39 142/132/39
f 143/134/40 119/133/40 142/132/39
f 119/133/40 143/134/40 27/135/40
f 143/134/40 113/136/40 27/135/40
f 113/136/40 143/134/40 114/137/40
f 143/134/40 144/138/40 114/137/40
f 114/137/40 144/138/40 121/139/40
f 144/138/40 124/140/40 121/139/40
f 101/141/41 122/142/6 99/143/41
f 101/141/41 99/143/41 102/144/42
f 99/143/41 100/145/42 102/144/42
f 121/146/1 102/144/42 100/145/42
