# Blender 3.6.18
# www.blender.org
mtllib Mesh.1083.mtl
o Bistro_Research_Exterior_Paris_Building_01_paris_buildi_01ec414
v 6.488697 21.176275 4.219842
v 6.488697 20.746901 4.219841
v 6.635791 21.176275 3.847869
v 6.635791 20.746899 3.847869
v 6.488698 19.162460 4.219841
v 6.635791 19.162462 3.847869
v 6.488698 17.655235 4.219841
v 6.635791 17.655235 3.847869
v 8.348560 17.655235 4.955315
v 8.348560 18.282326 4.955315
v 8.495653 17.655235 4.583344
v 8.495653 18.282326 4.583344
v 8.348561 19.836313 4.955316
v 8.495653 19.836311 4.583344
v 8.348561 21.176275 4.955316
v 8.495653 21.176275 4.583344
v 10.952362 21.176275 5.984977
v 10.952362 19.836311 5.984977
v 11.099457 21.176275 5.613006
v 11.099458 19.836311 5.613005
v 10.952362 18.282326 5.984977
v 11.099458 18.282326 5.613005
v 10.952362 17.655235 5.984977
v 11.099458 17.655235 5.613005
v 12.812225 21.176275 6.720453
v 12.959317 21.176275 6.348479
v 6.488697 16.455238 4.219841
v 6.488698 12.855238 4.219842
v 6.635791 16.455238 3.847869
v 6.635791 12.855238 3.847869
v 8.348560 16.455238 4.955315
v 8.495653 16.455238 4.583344
v 10.952362 16.455238 5.984977
v 10.952362 15.685155 5.984977
v 11.099457 16.455238 5.613006
v 11.099457 15.685155 5.613005
v 10.952362 12.855238 5.984977
v 11.099458 12.855238 5.613004
v 12.812225 16.455238 6.720453
v 12.959317 16.455238 6.348479
v 12.959317 19.990610 6.348479
v 12.812227 19.990610 6.720453
v 12.812225 17.655235 6.720451
v 12.959317 17.655235 6.348479
v 8.495653 15.685155 4.583344
v 8.348560 15.685155 4.955316
v 8.348560 12.855238 4.955316
v 8.495653 12.855238 4.583343
v 12.959317 14.838032 6.348479
v 12.812225 14.838032 6.720452
v 12.959317 12.855238 6.348479
v 12.812225 12.855238 6.720450
v 5.181406 12.433433 3.707169
v 6.488699 12.433038 4.219842
v 5.181654 12.857725 3.707066
v 8.348561 12.433038 4.955317
v 5.182199 16.444332 3.706848
v 8.992847 12.433038 5.210098
v 5.184691 17.206850 3.705853
v 8.992846 12.855237 5.210095
v 9.650465 12.433038 5.470150
v 6.488698 17.229845 4.219841
v 5.183092 17.657932 3.706490
v 8.348558 17.229845 4.955315
v 5.184535 19.155430 3.705915
v 5.186075 20.742390 3.705297
v 5.186615 21.238157 3.705085
v 5.186800 22.030701 3.705010
v 6.488698 22.030703 4.219842
v 8.348559 22.030703 4.955316
v 8.992846 21.176275 5.210095
v 8.992845 22.030703 5.210095
v 9.650461 22.030701 5.470148
v 9.650461 21.176275 5.470150
v 8.992846 19.836311 5.210095
v 10.317080 21.176275 5.733757
v 10.317080 22.030701 5.733757
v 9.650461 19.836309 5.470148
v 8.992846 18.282324 5.210095
v 10.952362 22.030701 5.984977
v 12.812223 22.030701 6.720448
v 10.317080 19.836311 5.733757
v 14.114126 22.030703 7.235282
v 14.114125 21.255234 7.235284
v 14.114127 20.011324 7.235282
v 14.114126 17.655251 7.235284
v 14.114129 17.229839 7.235284
v 12.812222 17.229843 6.720450
v 14.114127 16.444311 7.235284
v 14.114129 14.835711 7.235283
v 14.114127 12.857013 7.235283
v 14.114127 12.433038 7.235285
v 12.812222 12.433038 6.720452
v 10.952364 12.433038 5.984977
v 10.317080 12.855237 5.733757
v 10.317081 12.433038 5.733760
v 10.317080 15.685153 5.733757
v 9.650461 12.855238 5.470148
v 9.650461 15.685153 5.470148
v 10.317080 16.455236 5.733757
v 8.992846 15.685153 5.210095
v 9.650461 16.455236 5.470148
v 8.992846 16.455236 5.210095
v 9.650463 17.229843 5.470148
v 8.992846 17.229845 5.210095
v 8.992846 17.655235 5.210095
v 10.317080 17.229843 5.733757
v 9.650461 18.282324 5.470148
v 9.650463 17.655233 5.470147
v 10.317080 18.282324 5.733757
v 10.317080 17.655233 5.733757
v 10.952362 17.229843 5.984977
vn 0.9309 -0.0039 0.3653
vn -0.9293 -0.0039 -0.3694
vn -0.0039 -1.0000 -0.0039
vn -0.3721 -0.0039 0.9282
vn -0.3720 -0.0039 0.9282
vt 3.330078 -3.187500
vt 3.330078 -3.320312
vt 3.455078 -3.187500
vt 3.455078 -3.320312
vt 3.330078 -3.816406
vt 3.455078 -3.816406
vt 3.330078 -4.289062
vt 3.455078 -4.289062
vt 3.955078 -4.289062
vt 3.955078 -4.093750
vt 3.830078 -4.289062
vt 3.830078 -4.093750
vt 3.955078 -3.605469
vt 3.830078 -3.605469
vt 3.955078 -3.187500
vt 3.830078 -3.187500
vt 3.955078 -3.312500
vt 3.330078 -3.312500
vt 4.832031 -3.187500
vt 4.832031 -3.605469
vt 4.957031 -3.187500
vt 4.957031 -3.605469
vt 4.832031 -4.089844
vt 4.957031 -4.089844
vt 4.832031 -4.289062
vt 4.957031 -4.289062
vt 5.457031 -3.187500
vt 5.457031 -3.312500
vt 4.832031 -3.312500
vt 3.330078 -4.664062
vt 3.330078 -5.789062
vt 3.455078 -4.664062
vt 3.455078 -5.789062
vt 3.957031 -4.664062
vt 3.957031 -4.789062
vt 3.330078 -4.789062
vt 4.832031 -4.664062
vt 4.832031 -4.906250
vt 4.957031 -4.664062
vt 4.957031 -4.906250
vt 4.832031 -5.789062
vt 4.957031 -5.789062
vt 5.457031 -4.664062
vt 5.457031 -4.789062
vt 4.832031 -4.789062
vt 5.332031 -3.187500
vt 5.332031 -3.558594
vt 5.457031 -3.558594
vt 5.457031 -4.289062
vt 5.332031 -4.289062
vt 3.830078 -4.664062
vt 3.830078 -4.906250
vt 3.957031 -4.906250
vt 3.957031 -5.789062
vt 3.830078 -5.789062
vt 5.332031 -4.664062
vt 5.332031 -5.167969
vt 5.457031 -5.167969
vt 5.332031 -5.789062
vt 5.457031 -5.789062
vt 2.890625 -5.921875
vt 3.330078 -5.921875
vt 2.890625 -5.789062
vt 3.957031 -5.921875
vt 2.890625 -4.667969
vt 4.171875 -5.921875
vt 2.892578 -4.425781
vt 4.171875 -5.789062
vt 4.394531 -5.921875
vt 3.330078 -4.425781
vt 2.890625 -4.289062
vt 3.955078 -4.425781
vt 2.890625 -3.820312
vt 2.892578 -3.324219
vt 2.892578 -3.167969
vt 2.892578 -2.921875
vt 3.330078 -2.919922
vt 3.955078 -2.919922
vt 4.171875 -3.187500
vt 4.171875 -2.919922
vt 4.390625 -2.919922
vt 4.394531 -3.187500
vt 4.171875 -3.605469
vt 4.617188 -3.187500
vt 4.617188 -2.919922
vt 4.394531 -3.605469
vt 4.171875 -4.093750
vt 4.832031 -2.919922
vt 5.457031 -2.919922
vt 4.617188 -3.605469
vt 5.894531 -2.919922
vt 5.894531 -3.160156
vt 5.894531 -3.550781
vt 5.894531 -4.289062
vt 5.894531 -4.425781
vt 5.457031 -4.425781
vt 5.894531 -4.667969
vt 5.894531 -5.167969
vt 5.894531 -5.789062
vt 5.894531 -5.921875
vt 5.457031 -5.921875
vt 4.832031 -5.921875
vt 4.617188 -5.789062
vt 4.617188 -5.921875
vt 4.617188 -4.906250
vt 4.394531 -5.789062
vt 4.394531 -4.906250
vt 4.617188 -4.664062
vt 4.171875 -4.906250
vt 4.394531 -4.664062
vt 4.171875 -4.664062
vt 4.394531 -4.425781
vt 4.171875 -4.425781
vt 4.171875 -4.289062
vt 4.617188 -4.425781
vt 4.394531 -4.093750
vt 4.394531 -4.289062
vt 4.617188 -4.093750
vt 4.617188 -4.289062
vt 4.832031 -4.425781
s 1
usemtl MASTER_Concrete_Plaster1_BLENDSHADER
f 1/1/1 2/2/1 3/3/1
f 2/2/1 4/4/1 3/3/1
f 2/2/1 5/5/1 4/4/1
f 5/5/1 6/6/1 4/4/1
f 5/5/1 7/7/1 6/6/1
f 7/7/1 8/8/1 6/6/1
f 9/9/2 10/10/2 11/11/2
f 10/10/2 12/12/2 11/11/2
f 10/10/2 13/13/2 12/12/2
f 13/13/2 14/14/2 12/12/2
f 13/13/2 15/15/2 14/14/2
f 15/15/2 16/16/2 14/14/2
f 15/15/3 1/1/3 16/17/3
f 1/1/3 3/18/3 16/17/3
f 17/19/1 18/20/1 19/21/1
f 18/20/1 20/22/1 19/21/1
f 18/20/1 21/23/1 20/22/1
f 21/23/1 22/24/1 20/22/1
f 21/23/1 23/25/1 22/24/1
f 23/25/1 24/26/1 22/24/1
f 25/27/3 17/19/3 26/28/3
f 17/19/3 19/29/3 26/28/3
f 27/30/1 28/31/1 29/32/1
f 28/31/1 30/33/1 29/32/1
f 31/34/3 27/30/3 32/35/3
f 27/30/3 29/36/3 32/35/3
f 33/37/1 34/38/1 35/39/1
f 34/38/1 36/40/1 35/39/1
f 37/41/1 38/42/1 36/40/1
f 34/38/1 37/41/1 36/40/1
f 39/43/3 33/37/3 40/44/3
f 33/37/3 35/45/3 40/44/3
f 25/27/2 26/46/2 41/47/2
f 42/48/2 25/27/2 41/47/2
f 43/49/2 42/48/2 44/50/2
f 42/48/2 41/47/2 44/50/2
f 31/34/2 32/51/2 45/52/2
f 46/53/2 31/34/2 45/52/2
f 47/54/2 46/53/2 48/55/2
f 46/53/2 45/52/2 48/55/2
f 39/43/2 40/56/2 49/57/2
f 50/58/2 39/43/2 49/57/2
f 50/58/2 49/57/2 51/59/2
f 52/60/2 50/58/2 51/59/2
f 53/61/4 54/62/4 28/31/4
f 55/63/4 53/61/4 28/31/4
f 54/62/4 56/64/4 28/31/4
f 55/63/4 28/31/4 27/30/4
f 56/64/4 47/54/4 28/31/4
f 57/65/4 55/63/4 27/30/4
f 56/64/4 58/66/4 47/54/4
f 59/67/4 57/65/4 27/30/4
f 58/66/4 60/68/4 47/54/4
f 58/66/4 61/69/4 60/68/4
f 62/70/4 59/67/4 27/30/4
f 59/67/4 62/70/4 7/7/4
f 63/71/4 59/67/4 7/7/4
f 64/72/4 62/70/4 27/30/4
f 62/70/4 64/72/4 7/7/4
f 63/71/4 7/7/4 5/5/4
f 65/73/4 63/71/4 5/5/4
f 65/73/4 5/5/4 2/2/4
f 66/74/4 65/73/4 2/2/4
f 66/74/4 2/2/4 1/1/4
f 67/75/5 66/74/4 1/1/4
f 68/76/5 67/75/5 1/1/4
f 69/77/4 68/76/5 1/1/4
f 70/78/4 69/77/4 1/1/4
f 15/15/4 70/78/4 1/1/4
f 64/72/4 9/9/4 7/7/4
f 70/78/4 15/15/4 71/79/4
f 72/80/4 70/78/4 71/79/4
f 73/81/4 72/80/4 71/79/4
f 31/34/4 64/72/4 27/30/4
f 74/82/4 73/81/4 71/79/4
f 71/79/4 15/15/4 75/83/4
f 74/82/4 71/79/4 75/83/4
f 15/15/4 13/13/4 75/83/4
f 13/13/4 10/10/4 75/83/4
f 73/81/4 74/82/4 76/84/4
f 77/85/4 73/81/4 76/84/4
f 78/86/4 74/82/4 75/83/4
f 74/82/4 78/86/4 76/84/4
f 10/10/4 79/87/4 75/83/4
f 78/86/4 75/83/4 79/87/4
f 77/85/4 76/84/4 17/19/4
f 80/88/4 77/85/4 17/19/4
f 81/89/4 80/88/4 17/19/4
f 78/86/4 82/90/4 76/84/4
f 17/19/4 76/84/4 82/90/4
f 25/27/4 81/89/4 17/19/4
f 83/91/4 81/89/4 25/27/4
f 84/92/4 83/91/4 25/27/4
f 84/92/4 25/27/4 42/48/4
f 85/93/4 84/92/4 42/48/4
f 85/93/4 42/48/4 43/49/4
f 86/94/4 85/93/4 43/49/4
f 87/95/4 86/94/4 43/49/4
f 18/20/4 17/19/4 82/90/4
f 88/96/4 87/95/4 43/49/4
f 88/96/4 43/49/4 23/25/4
f 87/95/4 88/96/4 39/43/4
f 89/97/4 87/95/4 39/43/4
f 89/97/4 39/43/4 50/58/4
f 90/98/4 89/97/4 50/58/4
f 39/43/4 88/96/4 33/37/4
f 90/98/4 50/58/4 52/60/4
f 91/99/4 90/98/4 52/60/4
f 92/100/4 91/99/4 52/60/4
f 93/101/4 92/100/4 52/60/4
f 93/101/4 52/60/4 37/41/4
f 94/102/4 93/101/4 37/41/4
f 94/102/4 37/41/4 95/103/4
f 96/104/4 94/102/4 95/103/4
f 61/69/4 96/104/4 95/103/4
f 95/103/4 37/41/4 97/105/4
f 37/41/4 34/38/4 97/105/4
f 34/38/4 33/37/4 97/105/4
f 98/106/4 61/69/4 95/103/4
f 98/106/4 95/103/4 97/105/4
f 61/69/4 98/106/4 60/68/4
f 99/107/4 98/106/4 97/105/4
f 98/106/4 99/107/4 60/68/4
f 33/37/4 100/108/4 97/105/4
f 99/107/4 97/105/4 100/108/4
f 99/107/4 101/109/4 60/68/4
f 47/54/4 60/68/4 101/109/4
f 46/53/4 47/54/4 101/109/4
f 31/34/4 46/53/4 101/109/4
f 99/107/4 102/110/4 101/109/4
f 102/110/4 99/107/4 100/108/4
f 103/111/4 31/34/4 101/109/4
f 102/110/4 103/111/4 101/109/4
f 64/72/4 31/34/4 103/111/4
f 104/112/4 102/110/4 100/108/4
f 102/110/4 104/112/4 103/111/4
f 105/113/4 64/72/4 103/111/4
f 104/112/4 105/113/4 103/111/4
f 64/72/4 105/113/4 9/9/4
f 105/113/4 106/114/4 9/9/4
f 105/113/4 104/112/4 106/114/4
f 10/10/4 9/9/4 106/114/4
f 79/87/4 10/10/4 106/114/4
f 107/115/4 104/112/4 100/108/4
f 107/115/4 100/108/4 33/37/4
f 108/116/4 79/87/4 106/114/4
f 108/116/4 78/86/4 79/87/4
f 78/86/4 108/116/4 82/90/4
f 104/112/4 109/117/4 106/114/4
f 109/117/4 108/116/4 106/114/4
f 108/116/4 110/118/4 82/90/4
f 108/116/4 109/117/4 110/118/4
f 18/20/4 82/90/4 110/118/4
f 21/23/4 18/20/4 110/118/4
f 23/25/4 21/23/4 110/118/4
f 109/117/4 104/112/4 111/119/4
f 109/117/4 111/119/4 110/118/4
f 111/119/4 23/25/4 110/118/4
f 104/112/4 107/115/4 111/119/4
f 112/120/4 23/25/4 111/119/4
f 107/115/4 112/120/4 111/119/4
f 112/120/4 107/115/4 33/37/4
f 112/120/4 88/96/4 23/25/4
f 88/96/4 112/120/4 33/37/4
