# Blender 3.6.18
# www.blender.org
mtllib Mesh.918.mtl
o Bistro_Research_Exterior_Paris_Building_01_paris_buildi_2ec53e0
v -2.466314 5.821123 -5.340798
v -2.469705 5.816808 -5.351340
v -2.463347 5.808123 -5.346302
v -2.447556 5.839261 -5.392433
v -2.437022 5.850803 -5.395119
v -2.434056 5.837809 -5.400621
v 4.195806 5.498163 -17.558529
v 4.135986 5.501976 -17.586464
v 4.195806 6.408844 -17.558531
v 4.135985 6.405032 -17.586466
v -2.410102 6.087751 -5.306172
v -2.466316 6.085950 -5.340796
v -2.410100 5.819292 -5.306175
v 4.106702 5.563681 -17.532141
v 4.164110 5.564953 -17.499741
v 4.106701 6.343328 -17.532141
v 4.164110 6.342054 -17.499741
v -2.407134 5.806298 -5.311676
v -2.375438 5.838422 -5.370464
v -2.378404 5.851416 -5.364964
v 4.192009 6.416844 -17.551487
v 4.132183 6.413045 -17.579412
v -2.224151 6.416861 -5.651066
v -2.281526 6.413063 -5.683542
v -2.407165 6.100822 -5.311619
v -2.463379 6.099026 -5.346245
v -2.266507 5.555696 -5.711382
v -2.208282 5.556971 -5.680498
v 4.102904 5.555678 -17.525099
v 4.160313 5.556953 -17.492699
v 4.102904 6.351329 -17.525099
v 4.160313 6.350054 -17.492702
v -2.271052 6.351347 -5.702955
v -2.212823 6.350072 -5.672079
v -2.434087 6.069809 -5.400565
v -2.375470 6.069205 -5.370409
v -2.437023 6.056737 -5.395118
v -2.378406 6.056135 -5.364963
v -2.447568 6.068233 -5.392413
v -2.469697 6.090312 -5.351357
v -2.279396 6.359035 -5.704332
v -2.287199 6.405069 -5.689847
v 4.102419 6.357141 -17.541052
v 4.126051 6.406928 -17.584873
v 4.102420 5.549867 -17.541052
v 4.126052 5.500079 -17.584869
v -2.274828 5.547992 -5.712801
v -2.282475 5.501991 -5.698608
v -2.276777 5.493981 -5.692348
v 4.132183 5.493963 -17.579411
v -2.219390 5.490181 -5.659895
v 4.192009 5.490164 -17.551487
vn -0.5282 -0.0039 0.8491
vn -0.8807 -0.0040 -0.4736
vn -0.3500 -0.7824 0.5151
vn -0.8807 -0.0039 -0.4736
vn 0.4519 -0.0040 -0.8921
vn 0.2783 0.7800 -0.5605
vn 0.4173 -0.0039 -0.9087
vn -0.5298 -0.0039 0.8481
vn -0.4983 -0.0040 0.8670
vn -0.4983 -0.0039 0.8670
vn -0.4982 -0.0039 0.8670
vn -0.3499 -0.7825 0.5151
vn 0.4519 -0.0039 -0.8920
vn -0.0513 0.9983 -0.0276
vn -0.2163 0.9401 0.2635
vn -0.3587 0.7676 0.5311
vn -0.3582 0.7676 0.5314
vn 0.1380 0.9427 -0.3037
vn 0.1381 0.9427 -0.3037
vn -0.0198 0.9997 -0.0118
vn -0.0166 0.9998 -0.0100
vn -0.0196 -0.9997 -0.0117
vn 0.1367 -0.9413 -0.3086
vn 0.2771 -0.7765 -0.5659
vn 0.2771 -0.7766 -0.5658
vn 0.4519 -0.0039 -0.8921
vn -0.8799 -0.0002 -0.4752
vn -0.8774 -0.0039 -0.4797
vn -0.8793 -0.0053 -0.4762
vn -0.8798 0.0009 -0.4754
vn -0.8779 -0.0048 -0.4789
vn -0.0118 -0.9996 -0.0274
vn -0.0118 0.9995 -0.0277
vn -0.0665 -0.9977 -0.0117
vn -0.0509 -0.9983 -0.0274
vn -0.2152 -0.9429 0.2543
vn -0.0670 0.9977 -0.0118
vt 4.769531 0.038086
vt 4.769531 0.046875
vt 4.406250 0.044434
vt 4.769531 0.073730
vt 4.769531 0.082520
vt 4.476562 0.079102
vt 1.597656 0.000000
vt 2.218750 0.038086
vt 2.378906 0.000000
vt 2.429688 0.038086
vt 3.998047 0.000000
vt 4.667969 0.038086
vt 4.750000 0.000000
vt 2.302734 0.082520
vt 2.302734 0.120117
vt 2.431641 0.082520
vt 2.431641 0.120117
vt 4.777344 0.001465
vt 4.800781 0.039551
vt 4.753906 0.081543
vt 4.753906 0.119629
vt 4.769531 0.120117
vt 2.386719 0.000000
vt 2.431641 0.038086
vt 3.181641 0.000000
vt 4.484375 0.038086
vt 3.964844 0.000000
vt 4.644531 0.038086
vt 0.001326 0.082520
vt 0.001326 0.120117
vt 0.076172 0.082520
vt 0.076050 0.120117
vt 2.298828 0.082520
vt 2.300781 0.120117
vt 2.433594 0.082520
vt 2.433594 0.120117
vt 4.660156 0.082520
vt 4.660156 0.120117
vt 4.734375 0.082520
vt 4.734375 0.120117
vt 4.734375 0.073730
vt 4.726562 0.046875
vt 4.656250 0.073730
vt 4.644531 0.046875
vt 2.433594 0.074707
vt 2.437500 0.045898
vt 2.298828 0.074707
vt 2.289062 0.045898
vt 0.077087 0.073242
vt 0.082458 0.046875
vt 0.000000 0.073730
vt 0.000000 0.046875
vt 0.160278 0.038086
vt 0.012375 0.038086
vt 2.210938 0.038086
vt 0.012367 0.000000
vt 0.795410 0.000000
vt 1.589844 0.000000
s 1
usemtl MASTER_Metal
f 1/1/1 2/2/2 3/3/3
f 4/4/4 5/5/5 6/6/6
f 7/7/7 8/8/7 9/9/7
f 8/8/7 10/10/7 9/9/7
f 11/11/1 12/12/1 13/13/8
f 12/12/1 1/1/1 13/13/8
f 14/14/9 15/15/10 16/16/10
f 15/15/10 17/17/11 16/16/10
f 18/18/12 13/13/8 3/19/3
f 13/13/8 1/1/1 3/19/3
f 6/20/6 5/5/5 19/21/6
f 5/5/5 20/22/13 19/21/6
f 21/23/14 22/24/14 23/25/15
f 22/24/14 24/26/15 23/25/15
f 23/25/15 24/26/15 25/27/16
f 24/26/15 26/28/17 25/27/16
f 6/29/6 19/30/6 27/31/18
f 19/30/6 28/32/19 27/31/18
f 27/31/18 28/32/19 29/33/20
f 28/32/19 30/34/21 29/33/20
f 31/35/22 32/36/22 33/37/23
f 32/36/22 34/38/23 33/37/23
f 33/37/23 34/38/23 35/39/24
f 34/38/23 36/40/25 35/39/24
f 37/39/26 38/40/26 5/5/5
f 38/40/26 20/22/13 5/5/5
f 37/39/26 5/5/5 4/4/4
f 39/41/4 37/39/26 4/4/4
f 39/41/4 4/4/4 2/2/2
f 40/42/27 39/41/4 2/2/2
f 41/43/28 39/41/4 40/42/27
f 42/44/29 41/43/28 40/42/27
f 43/45/28 41/43/28 42/44/29
f 44/46/30 43/45/28 42/44/29
f 45/47/28 43/45/28 44/46/30
f 46/48/31 45/47/28 44/46/30
f 47/49/28 45/47/28 46/48/31
f 48/50/28 47/49/28 46/48/31
f 4/51/4 47/49/28 48/50/28
f 2/52/2 4/51/4 48/50/28
f 39/41/4 35/39/24 37/39/26
f 38/40/26 37/39/26 35/39/24
f 36/40/25 38/40/26 35/39/24
f 33/37/32 35/39/24 39/41/4
f 41/43/28 33/37/32 39/41/4
f 31/35/22 33/37/32 41/43/28
f 43/45/28 31/35/22 41/43/28
f 43/45/28 16/16/10 31/35/22
f 32/36/22 31/35/22 16/16/10
f 17/17/11 32/36/22 16/16/10
f 14/14/9 16/16/10 43/45/28
f 45/47/28 14/14/9 43/45/28
f 45/47/28 29/33/20 14/14/9
f 15/15/10 14/14/9 29/33/20
f 30/34/21 15/15/10 29/33/20
f 27/31/33 29/33/20 45/47/28
f 47/49/28 27/31/33 45/47/28
f 6/29/6 27/31/33 47/49/28
f 4/51/4 6/29/6 47/49/28
f 2/52/2 48/50/28 49/53/34
f 3/54/3 2/52/2 49/53/34
f 49/53/34 48/50/28 50/55/35
f 48/50/28 46/48/31 50/55/35
f 18/56/12 3/54/3 51/57/36
f 3/54/3 49/53/36 51/57/36
f 51/57/36 49/53/36 52/58/35
f 49/53/36 50/55/35 52/58/35
f 50/55/35 46/48/31 8/8/7
f 50/55/35 8/8/7 52/58/35
f 8/8/7 7/7/7 52/58/35
f 8/8/7 46/48/31 10/10/7
f 46/48/31 44/46/30 10/10/7
f 10/10/7 44/46/30 22/24/14
f 10/10/7 22/24/14 9/9/7
f 22/24/14 21/23/14 9/9/7
f 22/24/14 44/46/30 24/26/37
f 44/46/30 42/44/29 24/26/37
f 24/26/37 42/44/29 26/28/17
f 42/44/29 40/42/27 26/28/17
f 40/42/27 2/2/2 1/1/1
f 12/12/1 40/42/27 1/1/1
f 26/28/17 40/42/27 12/12/1
f 26/28/17 12/12/1 25/27/16
f 12/12/1 11/11/1 25/27/16
