# Blender 3.6.18
# www.blender.org
mtllib Mesh.508.mtl
o Bistro_Research_Exterior_paris_building_10_8__5545
v 42.613811 9.291682 39.777615
v 42.613811 9.909979 39.777615
v 44.256176 9.291682 40.479839
v 44.256176 9.909979 40.479839
v 38.533974 9.291682 38.033207
v 38.533974 9.909979 38.033207
v 40.176338 9.291682 38.735432
v 40.176338 9.909979 38.735432
v 34.221310 9.291682 36.215919
v 34.221310 9.909979 36.215919
v 35.863674 9.291682 36.918144
v 35.863674 9.909979 36.918144
v 29.877359 9.291682 34.358589
v 29.877359 9.909979 34.358589
v 31.519720 9.291682 35.060810
v 31.519720 9.909979 35.060810
v 31.744579 20.106640 35.008183
v 31.744581 18.679876 35.008183
v 28.483986 20.106640 33.614056
v 28.483986 18.679876 33.614056
v 35.068512 20.106640 36.429394
v 35.068512 18.679876 36.429390
v 31.807919 20.106640 35.035263
v 31.807919 18.679876 35.035263
v 35.091839 20.123518 36.411591
v 37.165276 20.123518 37.298126
v 35.091839 18.659058 36.411591
v 37.165276 18.659058 37.298126
v 39.220955 18.635986 38.177067
v 37.147514 18.635986 37.290527
v 39.220955 20.100449 38.177067
v 37.147514 20.100449 37.290527
v 42.452805 20.106640 39.586678
v 42.452805 18.679876 39.586678
v 39.192207 20.106640 38.192547
v 39.192207 18.679876 38.192547
v 45.776737 20.106640 41.007885
v 45.776737 18.679876 41.007885
v 42.516144 20.106640 39.613754
v 42.516144 18.679876 39.613754
v 45.816799 20.123518 40.991005
v 45.124039 20.123518 42.611237
v 45.816799 18.659058 40.991005
v 45.124039 18.659058 42.611237
v 36.461983 20.123518 38.907619
v 37.154743 20.123518 37.287384
v 36.461983 18.659058 38.907619
v 37.154743 18.659058 37.287384
v 37.154751 20.123518 37.287388
v 36.461987 20.123518 38.907619
v 37.154751 18.659058 37.287388
v 36.461987 18.659058 38.907619
v 39.205616 14.934293 37.120247
v 39.205616 13.512415 37.120247
v 38.384747 14.934293 36.769268
v 38.384747 13.512415 36.769272
v 39.205620 13.512414 37.120247
v 39.205616 14.934292 37.120247
v 40.019958 13.512414 37.468430
v 40.019955 14.934292 37.468430
v 44.284554 14.934293 39.291836
v 44.284554 13.512415 39.291836
v 43.470215 14.934293 38.943649
v 43.470215 13.512415 38.943649
v 44.284554 13.512414 39.291836
v 44.284554 14.934292 39.291840
v 45.098888 13.512414 39.640022
v 45.098888 14.934292 39.640022
v 42.591572 14.934293 38.567970
v 42.591572 13.512415 38.567974
v 41.777233 14.934293 38.219788
v 41.777233 13.512415 38.219788
v 42.591572 13.512414 38.567970
v 42.591572 14.934292 38.567974
v 43.405907 13.512414 38.916157
v 43.405907 14.934292 38.916157
v 40.898594 14.934293 37.844112
v 40.898594 13.512415 37.844112
v 40.084255 14.934293 37.495922
v 40.084255 13.512415 37.495922
v 40.898594 13.512414 37.844112
v 40.898594 14.934292 37.844112
v 41.712933 13.512414 38.192295
v 41.712936 14.934292 38.192295
v 37.512642 14.934293 36.396385
v 37.512642 13.512415 36.396385
v 36.689396 14.934293 36.044388
v 36.689396 13.512415 36.044388
v 37.512642 13.512414 36.396385
v 37.512642 14.934292 36.396385
v 38.326981 13.512414 36.744568
v 38.326981 14.934292 36.744568
v 35.819660 14.934293 35.672520
v 35.819660 13.512415 35.672520
v 35.005325 14.934293 35.324337
v 35.005325 13.512415 35.324337
v 35.819660 13.512414 35.672520
v 35.819660 14.934292 35.672520
v 36.634003 13.512414 36.020706
v 36.634003 14.934292 36.020706
v 34.117428 14.934293 34.944702
v 34.117428 13.512415 34.944702
v 33.303093 14.934293 34.596512
v 33.303093 13.512415 34.596516
v 34.117428 13.512414 34.944702
v 34.117428 14.934292 34.944702
v 34.931767 13.512414 35.292885
v 34.931763 14.934292 35.292885
v 32.415195 14.934293 34.216881
v 32.415195 13.512415 34.216881
v 31.600857 14.934293 33.868694
v 31.600857 13.512415 33.868694
v 32.415195 13.512414 34.216881
v 32.415195 14.934292 34.216881
v 33.229538 13.512414 34.565063
v 33.229534 14.934292 34.565063
v 30.712959 14.934293 33.489056
v 30.712959 13.512415 33.489056
v 29.918797 14.934293 33.149498
v 29.918797 13.512415 33.149498
v 30.712961 13.512414 33.489056
v 30.712959 14.934292 33.489056
v 31.527296 13.512414 33.837238
v 31.527296 14.934292 33.837242
v 29.883944 14.913469 33.169991
v 29.883944 13.491591 33.169991
v 29.566925 14.913469 33.911438
v 29.566925 13.491591 33.911438
v 45.134613 13.491590 39.688141
v 45.134613 14.913468 39.688141
v 44.820381 13.491590 40.423061
v 44.820381 14.913468 40.423061
v 37.513115 14.972640 36.431980
v 37.513115 13.387709 36.431980
v 37.150589 14.972640 37.279865
v 37.150589 13.387709 37.279865
v 36.448666 21.679123 38.938778
v 36.451050 20.493715 38.933205
v 36.518921 20.439734 38.774464
v 36.652031 21.504045 38.463142
v 36.569405 20.342897 38.656391
v 36.847538 21.160677 38.005890
v 36.606647 20.225826 38.569290
v 37.013161 20.697739 37.618534
v 36.621899 20.158262 38.533615
v 37.137753 20.158262 37.327137
v 37.127560 20.158262 37.322784
v 36.611713 20.158262 38.529263
v 37.002975 20.697739 37.614178
v 36.596458 20.225826 38.564934
v 36.837349 21.160677 38.001534
v 36.559212 20.342897 38.652039
v 36.641842 21.504045 38.458786
v 36.508732 20.439734 38.770107
v 36.438477 21.679123 38.934425
v 36.440861 20.493715 38.928848
vn 0.3882 -0.0039 -0.9216
vn 0.9204 -0.0039 0.3911
vn 0.9204 -0.0040 0.3911
vn -0.9187 -0.0039 -0.3949
vn 0.9203 -0.0039 0.3911
vn 0.9204 -0.0040 0.3910
vn -0.9187 -0.0039 -0.3948
vt 0.572266 0.007812
vt 0.572266 0.239746
vt 0.007778 0.007812
vt 0.007778 0.239746
vt -0.001852 0.989075
vt -0.001852 0.751099
vt 0.589355 0.989075
vt 0.589355 0.751099
vt 0.215820 0.003906
vt 0.579590 0.003906
vt 0.215820 0.240234
vt 0.579590 0.240234
vt 0.164917 0.003906
vt 0.416260 0.003906
vt 0.164917 0.236816
vt 0.416260 0.236816
vt 0.018784 0.484863
vt 0.561523 0.484863
vt 0.018784 0.723633
vt 0.561523 0.723633
vt 0.007683 0.008301
vt 0.574219 0.008301
vt 0.007683 0.239746
vt 0.574219 0.239746
vt 0.534180 0.528320
vt 0.350830 0.730957
vt 0.315918 0.716309
vt 0.427734 0.486816
vt 0.281250 0.715088
vt 0.298096 0.477051
vt 0.248657 0.722168
vt 0.162109 0.498535
vt 0.232300 0.728516
vt 0.030243 0.547119
s 1
usemtl MASTER_Forge_Metal
f 1/1/1 2/2/1 3/3/1
f 2/2/1 4/4/1 3/3/1
f 5/1/1 6/2/1 7/3/1
f 6/2/1 8/4/1 7/3/1
f 9/1/1 10/2/1 11/3/1
f 10/2/1 12/4/1 11/3/1
f 13/1/1 14/2/1 15/3/1
f 14/2/1 16/4/1 15/3/1
f 17/5/1 18/6/1 19/7/1
f 18/6/1 20/8/1 19/7/1
f 21/5/1 22/6/1 23/7/1
f 22/6/1 24/8/1 23/7/1
f 25/9/1 26/10/1 27/11/1
f 26/10/1 28/12/1 27/11/1
f 29/9/1 30/10/1 31/11/1
f 30/10/1 32/12/1 31/11/1
f 33/5/1 34/6/1 35/7/1
f 34/6/1 36/8/1 35/7/1
f 37/5/1 38/6/1 39/7/1
f 38/6/1 40/8/1 39/7/1
f 41/13/2 42/14/3 43/15/3
f 42/14/3 44/16/3 43/15/3
f 45/13/4 46/14/4 47/15/4
f 46/14/4 48/16/4 47/15/4
f 49/13/2 50/14/2 51/15/2
f 50/14/2 52/16/2 51/15/2
f 53/17/1 54/18/1 55/19/1
f 54/18/1 56/20/1 55/19/1
f 57/17/1 58/18/1 59/19/1
f 58/18/1 60/20/1 59/19/1
f 61/17/1 62/18/1 63/19/1
f 62/18/1 64/20/1 63/19/1
f 65/17/1 66/18/1 67/19/1
f 66/18/1 68/20/1 67/19/1
f 69/17/1 70/18/1 71/19/1
f 70/18/1 72/20/1 71/19/1
f 73/17/1 74/18/1 75/19/1
f 74/18/1 76/20/1 75/19/1
f 77/17/1 78/18/1 79/19/1
f 78/18/1 80/20/1 79/19/1
f 81/17/1 82/18/1 83/19/1
f 82/18/1 84/20/1 83/19/1
f 85/17/1 86/18/1 87/19/1
f 86/18/1 88/20/1 87/19/1
f 89/17/1 90/18/1 91/19/1
f 90/18/1 92/20/1 91/19/1
f 93/17/1 94/18/1 95/19/1
f 94/18/1 96/20/1 95/19/1
f 97/17/1 98/18/1 99/19/1
f 98/18/1 100/20/1 99/19/1
f 101/17/1 102/18/1 103/19/1
f 102/18/1 104/20/1 103/19/1
f 105/17/1 106/18/1 107/19/1
f 106/18/1 108/20/1 107/19/1
f 109/17/1 110/18/1 111/19/1
f 110/18/1 112/20/1 111/19/1
f 113/17/1 114/18/1 115/19/1
f 114/18/1 116/20/1 115/19/1
f 117/17/1 118/18/1 119/19/1
f 118/18/1 120/20/1 119/19/1
f 121/17/1 122/18/1 123/19/1
f 122/18/1 124/20/1 123/19/1
f 125/21/4 126/22/4 127/23/4
f 126/22/4 128/24/4 127/23/4
f 129/21/2 130/22/3 131/23/5
f 130/22/3 132/24/3 131/23/5
f 133/21/4 134/22/4 135/23/4
f 134/22/4 136/24/4 135/23/4
f 135/21/3 136/22/3 133/23/3
f 136/22/3 134/24/3 133/23/3
f 137/25/3 138/26/6 139/27/2
f 140/28/3 137/25/3 139/27/2
f 140/28/3 139/27/2 141/29/3
f 142/30/2 140/28/3 141/29/3
f 142/30/2 141/29/3 143/31/3
f 144/32/3 142/30/2 143/31/3
f 144/32/3 143/31/3 145/33/2
f 146/34/3 144/32/3 145/33/2
f 147/34/4 148/33/4 149/32/4
f 148/33/4 150/31/4 149/32/4
f 149/32/4 150/31/4 151/30/4
f 150/31/4 152/29/4 151/30/4
f 151/30/4 152/29/4 153/28/4
f 152/29/4 154/27/7 153/28/4
f 153/28/4 154/27/7 155/25/4
f 154/27/7 156/26/4 155/25/4
