# Blender 3.6.18
# www.blender.org
mtllib Mesh.822.mtl
o Bistro_Research_Exterior_Paris_Building_01_paris_buildi_210fabd
v 3.049795 4.422585 -14.828484
v 2.628931 4.147630 -14.047938
v 2.628931 1.972920 -14.047938
v 3.049795 1.972921 -14.828484
v 3.470659 4.422585 -15.609029
v 3.470659 1.972920 -15.609029
v 3.891523 4.147630 -16.389572
v 3.891523 1.972920 -16.389572
vn 0.8789 -0.0039 0.4769
vn 0.8790 -0.0039 0.4769
vt 0.666504 1.000000
vt 1.000000 1.000000
vt 1.000000 0.000000
vt 0.666504 0.000000
vt 0.333252 1.000000
vt 0.333252 0.000000
vt 0.000000 1.000000
vt 0.000000 0.000000
s 1
usemtl MASTER_Glass_Exterior
f 1/1/1 2/2/1 3/3/2
f 4/4/1 1/1/1 3/3/2
f 5/5/1 1/1/1 4/4/1
f 6/6/1 5/5/1 4/4/1
f 5/5/1 6/6/1 7/7/1
f 6/6/1 8/8/1 7/7/1
