# Blender 3.6.18
# www.blender.org
mtllib Mesh.1027.mtl
o Bistro_Research_Exterior_Paris_Building_01_paris_buildi_df7fd1f
v 7.211790 16.753080 4.678935
v 7.306191 16.753078 4.442590
v 7.369547 16.152363 4.467906
v 7.302582 16.152363 4.635558
v 7.314515 16.152300 4.656343
v 7.223702 16.753143 4.699729
v 7.293213 16.689531 4.719065
v 7.550668 16.689533 4.821922
v 7.614372 16.753145 4.855807
v 7.364272 16.215248 4.684568
v 7.578418 16.152300 4.761776
v 7.601385 16.152365 4.754934
v 7.668343 16.152363 4.587295
v 7.731724 16.753080 4.612617
v 7.637331 16.753080 4.848944
v 7.522913 16.215248 4.747948
v 7.509068 16.227051 4.738361
v 7.541891 16.673693 4.811086
v 7.515350 16.233320 4.741708
v 7.380911 16.227051 4.687161
v 7.501103 16.245226 4.719217
v 7.374053 16.233318 4.685257
v 7.399877 16.245228 4.678776
v 7.393025 16.251497 4.676870
v 7.307039 16.673691 4.717259
v 7.494169 16.254654 4.717698
v 7.311990 16.679960 4.720074
v 7.331381 16.659351 4.706321
v 7.536365 16.679962 4.809715
v 7.336336 16.665623 4.709132
v 7.526258 16.665625 4.785008
v 7.531787 16.659353 4.786385
v 7.507382 16.251495 4.722557
v 7.522435 16.651390 4.781593
v 7.518198 16.656197 4.780537
v 7.345259 16.656197 4.711446
v 7.498982 16.259459 4.720257
v 7.341459 16.651388 4.709291
v 7.418194 16.613848 4.779868
v 7.421822 16.606491 4.782307
v 7.413884 16.606491 4.779136
v 7.439825 16.297316 4.737310
v 7.400697 16.259459 4.680990
v 7.431818 16.297316 4.734112
v 7.437023 16.289480 4.732705
v 7.405949 16.254652 4.682452
v 7.388611 16.137684 4.475523
v 7.322336 16.137684 4.641451
v 7.649278 16.137684 4.579677
v 7.583008 16.137686 4.745593
v 7.716072 16.767761 4.606362
v 7.620889 16.767761 4.844663
v 7.321845 16.767759 4.448844
v 7.226656 16.767759 4.687162
vn -0.9223 -0.1128 -0.3697
vn -0.9227 -0.1129 -0.3686
vn -0.3717 -0.1291 0.9193
vn -0.3716 -0.1291 0.9194
vn 0.9238 -0.1140 0.3656
vn 0.9226 -0.1140 0.3685
vn -0.3717 -0.1291 0.9194
vn -0.2941 0.6313 0.7176
vn -0.9254 -0.0117 0.3788
vn 0.4072 -0.0118 0.9132
vn 0.4072 -0.0119 0.9133
vn 0.4072 -0.0119 0.9132
vn -0.2624 -0.7167 0.6462
vn -0.2233 -0.8031 0.5524
vn -0.9254 -0.0117 0.3787
vn 0.1143 -0.1537 0.9815
vn -0.2872 0.6492 0.7043
vn -0.7621 -0.1524 0.6292
vn 0.1143 -0.1538 0.9815
vn -0.7621 -0.1524 0.6293
vn -0.0047 -1.0000 -0.0019
vn -0.0039 -1.0000 -0.0039
vn -0.0040 -1.0000 -0.0039
vn -0.0047 1.0000 -0.0019
vn -0.0039 1.0000 -0.0039
vt 0.202637 0.280273
vt 0.124939 0.261719
vt 0.168823 0.077148
vt 0.223999 0.089844
vt 0.231567 0.090820
vt 0.210083 0.280762
vt 0.232422 0.261230
vt 0.320068 0.261230
vt 0.342285 0.280762
vt 0.249146 0.110352
vt 0.320801 0.090820
vt 0.328369 0.089844
vt 0.383545 0.077148
vt 0.427490 0.261719
vt 0.349854 0.280273
vt 0.303223 0.110352
vt 0.298096 0.113770
vt 0.316650 0.255859
vt 0.300781 0.115723
vt 0.254150 0.113770
vt 0.293213 0.119629
vt 0.251465 0.115723
vt 0.259033 0.119629
vt 0.257080 0.121582
vt 0.235840 0.255859
vt 0.291260 0.122070
vt 0.238037 0.258301
vt 0.242554 0.250488
vt 0.314453 0.258301
vt 0.244141 0.251953
vt 0.308105 0.251953
vt 0.309814 0.250488
vt 0.295410 0.121582
vt 0.307617 0.248047
vt 0.305664 0.250000
vt 0.246704 0.250000
vt 0.293457 0.123535
vt 0.244873 0.248047
vt 0.276123 0.235352
vt 0.276855 0.234863
vt 0.275391 0.234863
vt 0.277100 0.137695
vt 0.258789 0.123535
vt 0.275391 0.137695
vt 0.276123 0.136230
vt 0.260986 0.122070
vt 0.663574 0.433594
vt 0.671387 0.433594
vt 0.664062 0.491211
vt 0.671875 0.489746
vt 0.670898 0.496582
vt 0.760254 0.433105
vt 0.761230 0.496582
vt 0.760254 0.489746
vt 0.768555 0.433594
vt 0.768066 0.491211
vt 0.706055 0.096680
vt 0.713379 0.096680
vt 0.707031 0.177246
vt 0.713379 0.177246
vt 0.713379 0.183105
vt 0.847168 0.096680
vt 0.847168 0.183105
vt 0.846680 0.177246
vt 0.854492 0.096680
vt 0.853516 0.177246
s 1
usemtl MASTER_Concrete_Smooth
f 1/1/1 2/2/2 3/3/1
f 4/4/1 1/1/1 3/3/1
f 1/1/1 4/4/1 5/5/3
f 6/6/4 1/1/1 5/5/3
f 6/6/4 5/5/3 7/7/3
f 6/6/4 7/7/3 8/8/3
f 9/9/4 6/6/4 8/8/3
f 5/5/3 10/10/4 7/7/3
f 5/5/3 11/11/4 10/10/4
f 11/11/4 12/12/5 9/9/4
f 12/12/5 13/13/6 14/14/5
f 15/15/5 12/12/5 14/14/5
f 12/12/5 15/15/5 9/9/4
f 11/11/4 9/9/4 16/16/7
f 11/11/4 16/16/7 10/10/4
f 9/9/4 8/8/3 16/16/7
f 10/10/4 16/16/7 17/17/8
f 16/16/7 8/8/3 18/18/9
f 16/16/7 19/19/9 17/17/8
f 19/19/9 16/16/7 18/18/9
f 20/20/8 10/10/4 17/17/8
f 17/17/8 19/19/9 21/21/8
f 10/10/4 20/20/8 22/22/10
f 7/7/3 10/10/4 22/22/10
f 20/20/8 17/17/8 23/23/8
f 17/17/8 21/21/8 23/23/8
f 22/22/10 20/20/8 24/24/11
f 20/20/8 23/23/8 24/24/11
f 25/25/12 7/7/3 22/22/10
f 23/23/8 21/21/8 26/26/13
f 7/7/3 25/25/12 27/27/14
f 8/8/3 7/7/3 27/27/14
f 25/25/12 22/22/10 28/28/11
f 22/22/10 24/24/11 28/28/11
f 29/29/14 8/8/3 27/27/14
f 8/8/3 29/29/14 18/18/9
f 27/27/14 25/25/12 30/30/14
f 25/25/12 28/28/11 30/30/14
f 29/29/14 27/27/14 31/31/14
f 27/27/14 30/30/14 31/31/14
f 18/18/9 29/29/14 32/32/15
f 29/29/14 31/31/14 32/32/15
f 18/18/9 32/32/15 33/33/15
f 19/19/9 18/18/9 33/33/15
f 19/19/9 33/33/15 21/21/8
f 21/21/8 33/33/15 26/26/13
f 32/32/15 31/31/14 34/34/16
f 33/33/15 32/32/15 34/34/16
f 31/31/14 30/30/14 35/35/17
f 31/31/14 35/35/17 34/34/16
f 30/30/14 36/36/17 35/35/17
f 30/30/14 28/28/11 36/36/17
f 37/37/16 33/33/15 34/34/16
f 33/33/15 37/37/16 26/26/13
f 28/28/11 38/38/18 36/36/17
f 28/28/11 24/24/11 38/38/18
f 35/35/17 36/36/17 39/39/17
f 36/36/17 38/38/18 39/39/17
f 35/35/17 39/39/17 40/40/19
f 34/34/16 35/35/17 40/40/19
f 38/38/18 41/41/20 39/39/17
f 39/39/17 41/41/20 40/40/19
f 34/34/16 40/40/19 42/42/16
f 40/40/19 41/41/20 42/42/16
f 37/37/16 34/34/16 42/42/16
f 38/38/18 43/43/18 41/41/20
f 24/24/11 43/43/18 38/38/18
f 41/41/20 44/44/18 42/42/16
f 43/43/18 44/44/18 41/41/20
f 37/37/16 42/42/16 45/45/13
f 45/45/13 42/42/16 44/44/18
f 26/26/13 37/37/16 45/45/13
f 43/43/18 46/46/13 44/44/18
f 46/46/13 45/45/13 44/44/18
f 46/46/13 43/43/18 24/24/11
f 46/46/13 26/26/13 45/45/13
f 23/23/8 46/46/13 24/24/11
f 46/46/13 23/23/8 26/26/13
f 3/47/1 47/48/21 4/49/1
f 47/48/21 48/50/22 4/49/1
f 4/49/1 48/50/22 5/51/3
f 47/48/21 49/52/22 48/50/22
f 5/51/3 48/50/22 11/53/4
f 49/52/22 50/54/23 48/50/22
f 48/50/22 50/54/23 11/53/4
f 50/54/23 49/52/22 13/55/6
f 50/54/23 12/56/5 11/53/4
f 12/56/5 50/54/23 13/55/6
f 14/57/5 51/58/24 15/59/5
f 51/58/24 52/60/25 15/59/5
f 9/61/4 15/59/5 52/60/25
f 52/60/25 51/58/24 53/62/25
f 9/61/4 52/60/25 6/63/4
f 54/64/25 52/60/25 53/62/25
f 52/60/25 54/64/25 6/63/4
f 54/64/25 53/62/25 2/65/2
f 6/63/4 54/64/25 1/66/1
f 1/66/1 54/64/25 2/65/2
