# Blender 3.6.18
# www.blender.org
mtllib Mesh.512.mtl
o Bistro_Research_Exterior_paris_building_10_4__5537
v 33.562092 18.461159 37.431553
v 33.562092 18.270319 37.431553
v 33.369564 18.461159 37.883942
v 33.369564 18.270319 37.883942
v 35.528145 18.270317 38.272682
v 35.528145 18.461157 38.272682
v 35.334080 18.270317 38.724339
v 35.334080 18.461157 38.724339
v 33.211269 24.385395 38.242008
v 33.211269 24.512306 38.242008
v 33.405251 24.385395 37.790241
v 33.405251 24.512306 37.790241
v 35.001499 24.512306 39.006943
v 35.001499 24.385397 39.006943
v 35.194027 24.512306 38.554634
v 35.194027 24.385397 38.554634
v 37.563015 24.385395 40.102676
v 37.563015 24.512306 40.102676
v 37.756992 24.385395 39.650909
v 37.756992 24.512306 39.650909
v 39.353241 24.512306 40.867611
v 39.353241 24.385397 40.867611
v 39.545769 24.512306 40.415302
v 39.545769 24.385397 40.415302
v 38.630180 27.169720 40.353706
v 37.775742 27.175898 42.352074
v 38.538109 27.205029 40.313770
v 37.683464 27.211206 42.312618
v 38.454121 27.168947 40.277847
v 37.599476 27.175125 42.276707
v 34.270504 27.169720 38.489651
v 33.416069 27.175898 40.488014
v 34.178429 27.205029 38.449715
v 33.323788 27.211206 40.448559
v 34.094448 27.168947 38.413788
v 33.239796 27.175125 40.412647
v 33.384274 18.477160 37.890236
v 33.576801 18.477160 37.437847
v 35.513435 18.477160 38.266388
v 35.319374 18.477160 38.718040
v 33.418652 24.374758 37.795963
v 33.224667 24.374758 38.247734
v 34.988106 24.374758 39.001225
v 35.180630 24.374758 38.548912
v 37.770393 24.374758 39.656631
v 37.576408 24.374758 40.108398
v 39.339844 24.374758 40.861889
v 39.532372 24.374758 40.409576
v 35.519753 18.270317 38.251690
v 35.519753 18.461157 38.251690
v 33.583065 18.270319 37.423122
v 33.583065 18.461159 37.423122
v 33.378010 18.270319 37.904961
v 33.378010 18.461159 37.904961
v 35.313053 18.270317 38.732738
v 35.313053 18.461157 38.732738
v 34.981838 24.512306 39.015945
v 34.981838 24.385397 39.015945
v 33.218349 24.512306 38.262436
v 33.218349 24.385395 38.262436
v 33.424957 24.512306 37.781261
v 33.424957 24.385395 37.781261
v 35.186897 24.512306 38.534191
v 35.186897 24.385397 38.534191
v 39.333584 24.512306 40.876610
v 39.333584 24.385397 40.876610
v 37.570095 24.512306 40.123104
v 37.570095 24.385395 40.123104
v 37.776703 24.512306 39.641926
v 37.776703 24.385395 39.641926
v 39.538643 24.512306 40.394852
v 39.538643 24.385397 40.394852
v 33.384274 18.254320 37.890236
v 33.576801 18.254320 37.437847
v 35.319374 18.254316 38.718040
v 35.513435 18.254316 38.266388
v 33.418652 24.522947 37.795963
v 33.224667 24.522947 38.247734
v 35.180630 24.522947 38.548912
v 34.988102 24.522947 39.001225
v 37.770393 24.522947 39.656631
v 37.576408 24.522947 40.108398
v 39.532372 24.522947 40.409576
v 39.339844 24.522947 40.861889
vn -0.9187 -0.0039 -0.3949
vn 0.9204 -0.0040 0.3910
vn 0.9204 -0.0039 0.3911
vn 0.9203 -0.0039 0.3911
vn -0.9187 -0.0039 -0.3948
vn 0.9204 -0.0040 0.3911
vn -0.9187 -0.0040 -0.3948
vn 0.9203 -0.0040 0.3911
vn -0.3089 -0.9423 -0.1290
vn 0.3316 -0.9323 0.1443
vn -0.0040 1.0000 -0.0039
vn -0.0039 1.0000 -0.0039
vn -0.0039 -1.0000 -0.0039
vn 0.3882 -0.0039 -0.9216
vn 0.3883 -0.0039 -0.9215
vn 0.3882 -0.0040 -0.9216
vn -0.3977 -0.0039 0.9175
vn -0.3977 -0.0040 0.9175
vt 0.545898 0.038574
vt 0.545898 0.008789
vt 0.623047 0.038574
vt 0.623047 0.008789
vt 0.620605 0.055176
vt 0.620605 0.085449
vt 0.543945 0.055176
vt 0.543945 0.085449
vt 0.160522 0.085449
vt 0.839355 0.083496
vt 0.160522 0.118652
vt 0.839844 0.117188
vt 0.160522 0.149414
vt 0.839844 0.147461
vt 0.437012 0.879517
vt 0.439697 0.879517
vt 0.437012 0.956543
vt 0.439453 0.956543
vt 0.769531 0.956451
vt 0.769531 0.879456
vt 0.771973 0.879456
vt 0.771973 0.956451
vt 0.775391 0.995205
vt 0.772949 0.995205
vt 0.775391 0.964844
vt 0.772949 0.964844
vt 0.772949 0.962311
vt 0.437744 0.995205
vt 0.437744 0.962311
vt 0.437744 0.964844
vt 0.435059 0.995205
vt 0.435059 0.964844
vt 0.436279 0.871826
vt 0.436279 0.841431
vt 0.438721 0.841431
vt 0.438721 0.871826
vt 0.438721 0.874390
vt 0.773926 0.841431
vt 0.773926 0.874390
vt 0.773926 0.871826
vt 0.776367 0.841431
vt 0.776367 0.871826
vt 0.437256 0.834106
vt 0.439941 0.834106
vt 0.439941 0.836670
vt 0.773926 0.836670
vt 0.439697 0.756104
vt 0.437256 0.756104
vt 0.439697 0.753540
vt 0.773926 0.834229
vt 0.776367 0.834229
vt 0.776367 0.756226
vt 0.773926 0.756226
vt 0.773926 0.753662
s 1
usemtl MASTER_Concrete_Grooved
f 1/1/1 2/2/1 3/3/1
f 2/2/1 4/4/1 3/3/1
f 5/5/2 6/6/2 7/7/3
f 6/6/2 8/8/4 7/7/3
f 9/1/5 10/2/5 11/3/1
f 10/2/5 12/4/1 11/3/1
f 13/5/2 14/6/3 15/7/3
f 14/6/3 16/8/6 15/7/3
f 17/1/1 18/2/7 19/3/1
f 18/2/7 20/4/5 19/3/1
f 21/5/8 22/6/3 23/7/6
f 22/6/3 24/8/3 23/7/6
f 25/9/9 26/10/9 27/11/9
f 26/10/9 28/12/9 27/11/9
f 27/11/10 28/12/10 29/13/10
f 28/12/10 30/14/10 29/13/10
f 31/9/9 32/10/9 33/11/9
f 32/10/9 34/12/9 33/11/9
f 33/11/10 34/12/10 35/13/10
f 34/12/10 36/14/10 35/13/10
f 3/15/1 37/16/11 1/17/1
f 37/16/11 38/18/12 1/17/1
f 38/18/12 37/16/11 39/19/12
f 37/16/11 40/20/12 39/19/12
f 40/20/12 8/21/4 39/19/12
f 8/21/4 6/22/2 39/19/12
f 11/15/1 41/16/13 9/17/5
f 41/16/13 42/18/13 9/17/5
f 42/18/13 41/16/13 43/19/13
f 41/16/13 44/20/13 43/19/13
f 44/20/13 16/21/6 43/19/13
f 16/21/6 14/22/3 43/19/13
f 19/15/1 45/16/13 17/17/1
f 45/16/13 46/18/13 17/17/1
f 46/18/13 45/16/13 47/19/13
f 45/16/13 48/20/13 47/19/13
f 48/20/13 24/21/3 47/19/13
f 24/21/3 22/22/3 47/19/13
f 5/23/2 49/24/14 6/25/2
f 49/24/14 50/26/15 6/25/2
f 6/25/2 50/26/15 39/27/12
f 50/26/15 49/24/14 51/28/14
f 39/27/12 50/26/15 38/29/12
f 52/30/16 50/26/15 51/28/14
f 50/26/15 52/30/16 38/29/12
f 52/30/16 51/28/14 2/31/1
f 38/29/12 52/30/16 1/32/1
f 1/32/1 52/30/16 2/31/1
f 3/33/1 4/34/1 53/35/17
f 54/36/18 3/33/1 53/35/17
f 54/36/18 37/37/11 3/33/1
f 53/35/17 55/38/17 54/36/18
f 37/37/11 54/36/18 40/39/12
f 55/38/17 56/40/18 54/36/18
f 54/36/18 56/40/18 40/39/12
f 56/40/18 55/38/17 7/41/3
f 56/40/18 8/42/4 40/39/12
f 8/42/4 56/40/18 7/41/3
f 13/23/2 57/24/17 14/25/3
f 57/24/17 58/26/17 14/25/3
f 14/25/3 58/26/17 43/27/13
f 58/26/17 57/24/17 59/28/17
f 43/27/13 58/26/17 42/29/13
f 60/30/18 58/26/17 59/28/17
f 58/26/17 60/30/18 42/29/13
f 60/30/18 59/28/17 10/31/5
f 42/29/13 60/30/18 9/32/5
f 9/32/5 60/30/18 10/31/5
f 11/33/1 12/34/1 61/35/14
f 62/36/14 11/33/1 61/35/14
f 62/36/14 41/37/13 11/33/1
f 61/35/14 63/38/15 62/36/14
f 41/37/13 62/36/14 44/39/13
f 63/38/15 64/40/14 62/36/14
f 62/36/14 64/40/14 44/39/13
f 64/40/14 63/38/15 15/41/3
f 64/40/14 16/42/6 44/39/13
f 16/42/6 64/40/14 15/41/3
f 21/23/8 65/24/17 22/25/3
f 65/24/17 66/26/18 22/25/3
f 22/25/3 66/26/18 47/27/13
f 66/26/18 65/24/17 67/28/18
f 47/27/13 66/26/18 46/29/13
f 68/30/17 66/26/18 67/28/18
f 66/26/18 68/30/17 46/29/13
f 68/30/17 67/28/18 18/31/7
f 46/29/13 68/30/17 17/32/1
f 17/32/1 68/30/17 18/31/7
f 19/33/1 20/34/5 69/35/14
f 70/36/14 19/33/1 69/35/14
f 70/36/14 45/37/13 19/33/1
f 69/35/14 71/38/14 70/36/14
f 45/37/13 70/36/14 48/39/13
f 71/38/14 72/40/16 70/36/14
f 70/36/14 72/40/16 48/39/13
f 72/40/16 71/38/14 23/41/6
f 72/40/16 24/42/3 48/39/13
f 24/42/3 72/40/16 23/41/6
f 4/43/1 73/44/13 53/45/17
f 53/45/17 73/44/13 55/46/17
f 73/44/13 4/43/1 74/47/13
f 4/43/1 2/48/1 74/47/13
f 2/48/1 51/49/14 74/47/13
f 73/44/13 75/50/13 55/46/17
f 73/44/13 74/47/13 75/50/13
f 75/50/13 7/51/3 55/46/17
f 7/51/3 75/50/13 5/52/2
f 74/47/13 51/49/14 76/53/13
f 74/47/13 76/53/13 75/50/13
f 75/50/13 76/53/13 5/52/2
f 51/49/14 49/54/14 76/53/13
f 76/53/13 49/54/14 5/52/2
f 12/43/1 77/44/12 61/45/14
f 61/45/14 77/44/12 63/46/15
f 77/44/12 12/43/1 78/47/12
f 12/43/1 10/48/5 78/47/12
f 10/48/5 59/49/17 78/47/12
f 77/44/12 79/50/12 63/46/15
f 77/44/12 78/47/12 79/50/12
f 79/50/12 15/51/3 63/46/15
f 15/51/3 79/50/12 13/52/2
f 78/47/12 59/49/17 80/53/12
f 78/47/12 80/53/12 79/50/12
f 79/50/12 80/53/12 13/52/2
f 59/49/17 57/54/17 80/53/12
f 80/53/12 57/54/17 13/52/2
f 20/43/5 81/44/12 69/45/14
f 69/45/14 81/44/12 71/46/14
f 81/44/12 20/43/5 82/47/12
f 20/43/5 18/48/7 82/47/12
f 18/48/7 67/49/18 82/47/12
f 81/44/12 83/50/12 71/46/14
f 81/44/12 82/47/12 83/50/12
f 83/50/12 23/51/6 71/46/14
f 23/51/6 83/50/12 21/52/8
f 82/47/12 67/49/18 84/53/12
f 82/47/12 84/53/12 83/50/12
f 83/50/12 84/53/12 21/52/8
f 67/49/18 65/54/17 84/53/12
f 84/53/12 65/54/17 21/52/8
