# Blender 3.6.18
# www.blender.org
mtllib Mesh.134.mtl
o Bistro_Research_Exterior_Paris_StreetLight_Glass_01B___10__6341
v 28.817053 7.328280 -66.733559
v 28.706570 7.328280 -66.692116
v 28.737471 6.744837 -66.648903
v 28.822206 6.744837 -66.680687
v 28.933458 7.328280 -66.714211
v 28.911480 6.744837 -66.665848
v 29.024591 7.328280 -66.639252
v 28.981380 6.744837 -66.608360
v 29.066034 7.328280 -66.528770
v 29.013165 6.744837 -66.523628
v 29.046688 7.328280 -66.412369
v 28.998325 6.744837 -66.434349
v 28.971727 7.328280 -66.321236
v 28.940836 6.744837 -66.364449
v 28.861244 7.328280 -66.279793
v 28.856096 6.744837 -66.332657
v 28.744843 7.328280 -66.299133
v 28.766819 6.744837 -66.347504
v 28.653709 7.328280 -66.374100
v 28.696922 6.744837 -66.404991
v 28.612261 7.328280 -66.484581
v 28.665134 6.744837 -66.489731
v 28.631613 7.328280 -66.600983
v 28.679974 6.744837 -66.579002
v 28.769819 6.744837 -66.691505
v 28.725618 6.744837 -66.665482
v 28.691122 7.328280 -66.713730
v 28.748753 7.328280 -66.747658
v 28.814478 7.328280 -66.760002
v 28.820230 6.744837 -66.700966
v 28.871519 6.744837 -66.701408
v 28.881355 7.328280 -66.760574
v 28.944448 7.328280 -66.738396
v 28.919910 6.744837 -66.684395
v 28.964546 6.744837 -66.659126
v 29.002649 7.328280 -66.705460
v 29.046204 7.328280 -66.654709
v 28.997953 6.744837 -66.620209
v 29.023975 6.744837 -66.576012
v 29.080133 7.328280 -66.597076
v 29.092478 7.328280 -66.531349
v 29.033445 6.744837 -66.525597
v 29.033882 6.744837 -66.474304
v 29.093046 7.328280 -66.464462
v 29.070875 7.328280 -66.401367
v 29.016872 6.744837 -66.425919
v 28.991610 6.744837 -66.381279
v 29.037933 7.328280 -66.343178
v 28.987179 7.328280 -66.299622
v 28.952684 6.744837 -66.347870
v 28.908485 6.744837 -66.321854
v 28.929548 7.328280 -66.265694
v 28.863821 7.328280 -66.253349
v 28.858074 6.744837 -66.312386
v 28.806780 6.744837 -66.311943
v 28.796947 7.328280 -66.252777
v 28.733852 7.328280 -66.274956
v 28.758390 6.744837 -66.328957
v 28.713749 6.744837 -66.354225
v 28.675653 7.328280 -66.307899
v 28.632099 7.328280 -66.358643
v 28.680347 6.744837 -66.393143
v 28.654324 6.744837 -66.437340
v 28.598166 7.328280 -66.416275
v 28.585823 7.328280 -66.482002
v 28.644859 6.744837 -66.487755
v 28.644417 6.744837 -66.539040
v 28.585251 7.328280 -66.548889
v 28.607430 7.328280 -66.611977
v 28.661423 6.744837 -66.587433
v 28.686693 6.744837 -66.632072
v 28.640373 7.328280 -66.670174
vn 0.0909 0.0909 0.9917
vn 0.5803 0.0908 0.8093
vn -0.4186 0.0900 0.9037
vn -0.8120 0.0902 0.5767
vn -0.8120 0.0902 0.5766
vn -0.9918 0.0902 0.0902
vn -0.9051 0.0893 -0.4156
vn -0.9051 0.0893 -0.4157
vn -0.5818 0.0898 -0.8083
vn -0.5819 0.0898 -0.8083
vn -0.0979 0.0901 -0.9911
vn 0.4092 0.0896 -0.9080
vn 0.8056 0.0904 -0.5855
vn 0.8056 0.0905 -0.5855
vn 0.9910 0.0908 -0.0987
vn 0.9067 0.0903 0.4121
vn 0.9067 0.0902 0.4121
vn -0.3539 -0.1050 -0.9294
vn -0.5809 -0.1053 -0.8071
vn -0.5810 -0.1053 -0.8071
vn -0.3538 -0.1050 -0.9294
vn -0.0978 -0.1056 -0.9896
vn 0.1603 -0.1056 -0.9814
vn 0.4049 -0.1061 -0.9082
vn 0.4050 -0.1061 -0.9082
vn 0.6293 -0.1055 -0.7700
vn 0.8043 -0.1060 -0.5846
vn 0.8043 -0.1059 -0.5846
vn 0.9283 -0.1058 -0.3565
vn 0.9283 -0.1058 -0.3564
vn 0.9894 -0.1064 -0.0985
vn 0.9894 -0.1064 -0.0986
vn 0.9811 -0.1064 0.1615
vn 0.9811 -0.1064 0.1616
vn 0.9068 -0.1069 0.4079
vn 0.9068 -0.1069 0.4078
vn 0.7668 -0.1062 0.6331
vn 0.5794 -0.1064 0.8080
vn 0.3496 -0.1060 0.9309
vn 0.0907 -0.1065 0.9902
vn 0.0908 -0.1065 0.9902
vn -0.1692 -0.1063 0.9798
vn -0.4144 -0.1066 0.9038
vn -0.6377 -0.1056 0.7630
vn -0.6378 -0.1056 0.7630
vn -0.8108 -0.1058 0.5758
vn -0.9319 -0.1053 0.3470
vn -0.9903 -0.1057 0.0900
vn -0.9801 -0.1054 -0.1679
vn -0.9802 -0.1054 -0.1679
vn -0.9053 -0.1058 -0.4115
vn -0.7662 -0.1050 -0.6340
vt 0.092773 0.097168
vt 0.016220 0.097168
vt 0.016220 0.904419
vt 0.092773 0.904419
vt 0.172852 0.097168
vt 0.172852 0.904419
vt 0.252930 0.097168
vt 0.252930 0.904419
vt 0.333008 0.097168
vt 0.333008 0.904419
vt 0.413086 0.097168
vt 0.413086 0.904419
vt 0.493164 0.097168
vt 0.493164 0.904419
vt 0.573242 0.097168
vt 0.573242 0.904419
vt 0.653320 0.097168
vt 0.653320 0.904419
vt 0.733398 0.097168
vt 0.733398 0.904419
vt 0.813477 0.097168
vt 0.813477 0.904419
vt 0.893555 0.097168
vt 0.893555 0.904419
vt 0.984375 0.097168
vt 0.984375 0.904419
vt 0.054504 0.904419
vt 0.054504 0.097168
vt 0.132812 0.904419
vt 0.132812 0.097168
vt 0.212891 0.904419
vt 0.212891 0.097168
vt 0.292969 0.904419
vt 0.292969 0.097168
vt 0.373047 0.904419
vt 0.373047 0.097168
vt 0.453125 0.904419
vt 0.453125 0.097168
vt 0.533203 0.904419
vt 0.533203 0.097168
vt 0.613281 0.904419
vt 0.613281 0.097168
vt 0.693359 0.904419
vt 0.693359 0.097168
vt 0.773438 0.904419
vt 0.773438 0.097168
vt 0.853516 0.904419
vt 0.853516 0.097168
vt 0.938965 0.904419
vt 0.938965 0.097168
s 1
usemtl Emissive_StreetLight
f 1/1/1 2/2/2 3/3/2
f 3/3/2 4/4/1 1/1/1
f 5/5/3 1/1/1 4/4/1
f 4/4/1 6/6/3 5/5/3
f 7/7/4 5/5/3 6/6/3
f 6/6/3 8/8/5 7/7/4
f 9/9/6 7/7/4 8/8/5
f 8/8/5 10/10/6 9/9/6
f 11/11/7 9/9/6 10/10/6
f 10/10/6 12/12/8 11/11/7
f 13/13/9 11/11/7 12/12/8
f 12/12/8 14/14/10 13/13/9
f 15/15/11 13/13/9 14/14/10
f 14/14/10 16/16/11 15/15/11
f 17/17/12 15/15/11 16/16/11
f 16/16/11 18/18/12 17/17/12
f 19/19/13 17/17/12 18/18/12
f 18/18/12 20/20/14 19/19/13
f 21/21/15 19/19/13 20/20/14
f 20/20/14 22/22/15 21/21/15
f 23/23/16 21/21/15 22/22/15
f 22/22/15 24/24/17 23/23/16
f 2/25/2 23/23/16 24/24/17
f 24/24/17 3/26/2 2/25/2
f 25/27/18 26/3/19 27/2/20
f 27/2/20 28/28/21 25/27/18
f 25/27/18 28/28/21 29/1/22
f 29/1/22 30/4/22 25/27/18
f 31/29/23 30/4/22 29/1/22
f 29/1/22 32/30/23 31/29/23
f 31/29/23 32/30/23 33/5/24
f 33/5/24 34/6/25 31/29/23
f 35/31/26 34/6/25 33/5/24
f 33/5/24 36/32/26 35/31/26
f 35/31/26 36/32/26 37/7/27
f 37/7/27 38/8/28 35/31/26
f 39/33/29 38/8/28 37/7/27
f 37/7/27 40/34/30 39/33/29
f 39/33/29 40/34/30 41/9/31
f 41/9/31 42/10/32 39/33/29
f 43/35/33 42/10/32 41/9/31
f 41/9/31 44/36/34 43/35/33
f 43/35/33 44/36/34 45/11/35
f 45/11/35 46/12/36 43/35/33
f 47/37/37 46/12/36 45/11/35
f 45/11/35 48/38/37 47/37/37
f 47/37/37 48/38/37 49/13/38
f 49/13/38 50/14/38 47/37/37
f 51/39/39 50/14/38 49/13/38
f 49/13/38 52/40/39 51/39/39
f 51/39/39 52/40/39 53/15/40
f 53/15/40 54/16/41 51/39/39
f 55/41/42 54/16/41 53/15/40
f 53/15/40 56/42/42 55/41/42
f 55/41/42 56/42/42 57/17/43
f 57/17/43 58/18/43 55/41/42
f 59/43/44 58/18/43 57/17/43
f 57/17/43 60/44/45 59/43/44
f 59/43/44 60/44/45 61/19/46
f 61/19/46 62/20/46 59/43/44
f 63/45/47 62/20/46 61/19/46
f 61/19/46 64/46/47 63/45/47
f 63/45/47 64/46/47 65/21/48
f 65/21/48 66/22/48 63/45/47
f 67/47/49 66/22/48 65/21/48
f 65/21/48 68/48/50 67/47/49
f 67/47/49 68/48/50 69/23/51
f 69/23/51 70/24/51 67/47/49
f 71/49/52 70/24/51 69/23/51
f 69/23/51 72/50/52 71/49/52
f 71/49/52 72/50/52 27/25/20
f 27/25/20 26/26/19 71/49/52
