# Blender 3.6.18
# www.blender.org
mtllib Mesh.928.mtl
o Bistro_Research_Exterior_Paris_Building_01_paris_buildi_80f4c71
v 3.051788 4.422585 -14.824144
v 2.630924 4.147630 -14.043598
v 2.630924 1.972920 -14.043598
v 3.051788 1.972921 -14.824144
v 3.472652 4.422585 -15.604690
v 3.472652 1.972920 -15.604691
v 3.893516 4.147630 -16.385233
v 3.893517 1.972920 -16.385233
vn 0.8789 -0.0039 0.4769
vn 0.8790 -0.0039 0.4769
vt 0.666504 1.000000
vt 1.000000 1.000000
vt 1.000000 0.000000
vt 0.666504 0.000000
vt 0.333252 1.000000
vt 0.333252 0.000000
vt 0.000000 1.000000
vt 0.000000 0.000000
s 1
usemtl MASTER_Glass_Exterior
f 1/1/1 2/2/2 3/3/1
f 4/4/1 1/1/1 3/3/1
f 5/5/1 1/1/1 4/4/1
f 6/6/1 5/5/1 4/4/1
f 5/5/1 6/6/1 7/7/1
f 6/6/1 8/8/1 7/7/1
