# Blender 3.6.18
# www.blender.org
mtllib Mesh.706.mtl
o Bistro_Research_Exterior_paris_building_05_5125
v 28.442650 24.179977 -51.463966
v 25.738903 24.179977 -46.940968
v 30.989838 24.179977 -49.941326
v 28.286091 24.179977 -45.418320
v 29.073221 27.181946 -51.087029
v 30.989838 27.181946 -49.941319
v 26.369471 27.181946 -46.564026
v 28.286091 27.181946 -45.418320
v 24.759272 24.179977 -45.302166
v 22.055521 24.179977 -40.779163
v 27.306454 24.179977 -43.779518
v 24.602705 24.179977 -39.256512
v 25.389837 27.181946 -44.925224
v 27.306454 27.181946 -43.779518
v 22.686090 27.181946 -40.402222
v 24.602705 27.181946 -39.256512
v 21.019176 24.179977 -39.045498
v 18.315426 24.179977 -34.522491
v 23.566362 24.179977 -37.522850
v 20.862614 24.179977 -32.999840
v 21.649748 27.181946 -38.668556
v 23.566362 27.181946 -37.522850
v 18.945997 27.181946 -34.145550
v 20.862614 27.181946 -32.999840
v 22.065569 0.345634 -41.665493
v 22.065571 5.349099 -41.665497
v 23.801859 0.345634 -44.567490
v 23.801857 5.349101 -44.567490
v 21.334177 5.145634 -38.847191
v 21.334173 0.345637 -38.847187
v 17.845345 5.145633 -33.010845
v 17.845345 0.345637 -33.010841
v 20.175655 0.345637 -39.540089
v 20.175669 5.145634 -39.540150
v 21.303782 0.345637 -41.427334
v 21.303782 5.145634 -41.427338
v 21.609266 5.349101 -41.938374
v 21.609268 0.345634 -41.938370
v 20.175669 7.343328 -39.540154
v 21.303782 7.343328 -41.427334
v 16.299301 7.344653 -33.055515
v 23.344372 5.349101 -44.840965
v 23.473080 7.343328 -45.057999
v 23.344372 0.345634 -44.840961
v 23.473080 0.345635 -45.057999
v 16.299301 0.345641 -33.055515
v 16.686646 0.345639 -33.703487
v 16.686647 5.178168 -33.703491
v 16.758858 18.752197 -33.403156
v 16.758858 22.906059 -33.403160
v 19.959866 18.752197 -31.489670
v 19.959866 22.906059 -31.489670
v 31.821421 18.752197 -51.332447
v 28.620411 18.752197 -53.245941
v 31.821423 22.906059 -51.332455
v 28.620417 22.906059 -53.245945
v 16.758858 13.576136 -33.403160
v 16.758858 17.729998 -33.403160
v 19.959866 13.576136 -31.489670
v 19.959867 17.729998 -31.489668
v 31.821423 13.576137 -51.332447
v 28.620417 13.576137 -53.245945
v 31.821423 17.729998 -51.332455
v 28.620417 17.729998 -53.245945
v 16.758858 8.341718 -33.403160
v 16.758860 12.495580 -33.403160
v 19.959867 8.341718 -31.489670
v 19.959867 12.495580 -31.489670
v 31.821423 8.341719 -51.332455
v 28.620417 8.341719 -53.245945
v 31.821423 12.495581 -51.332455
v 28.620417 12.495581 -53.245945
v 24.187445 1.677612 -45.830181
v 24.187445 5.831473 -45.830177
v 27.388451 1.677612 -43.916695
v 27.388451 5.831473 -43.916691
v 31.821423 1.677613 -51.332455
v 28.620417 1.677613 -53.245945
v 31.821423 5.831474 -51.332455
v 28.620417 5.831474 -53.245945
v 25.384119 5.320107 -48.256626
v 24.481192 5.320107 -46.746159
v 24.481192 2.147831 -46.746159
v 26.170185 7.343328 -49.571617
v 26.170185 0.345640 -49.571617
v 25.384119 2.147831 -48.256626
v 26.948496 2.147831 -50.873623
v 28.580282 0.345640 -53.637470
v 26.948496 5.080237 -50.873623
v 27.851423 2.147831 -52.384083
v 27.851423 5.080237 -52.384094
v 28.580315 7.343328 -53.637516
vn -0.3673 0.7070 0.6043
vn 0.3587 0.7056 -0.6110
vn -0.7949 0.5756 0.1919
vn -0.1994 0.5748 -0.7937
vn -0.3653 -0.7109 0.6010
vn -0.7913 -0.5808 0.1910
vn 0.3567 -0.7096 -0.6076
vn -0.1985 -0.5799 -0.7901
vn -0.1994 0.5747 -0.7937
vn -0.1985 -0.5800 -0.7901
vn -0.2453 -0.0039 -0.9694
vn -0.9713 -0.0039 0.2379
vn -0.7949 -0.5756 0.1919
vn -0.9713 -0.0039 0.2380
vn -0.2069 -0.5738 -0.7924
vn -0.9313 -0.3001 -0.2065
vn -0.8582 -0.0039 -0.5133
vn -0.6216 -0.3011 -0.7232
vn -0.9092 -0.4097 -0.0741
vn -0.8602 -0.0039 -0.5099
vn -0.4945 -0.4088 -0.7670
vn 0.3587 0.7057 -0.6110
vn 0.3568 -0.7096 -0.6076
vt 1.117188 -0.117188
vt -0.117859 -0.117188
vt 1.117188 1.117859
vt -0.117859 1.117859
vt -0.035950 -0.035156
vt -0.035950 1.035950
vt 1.035156 -0.035156
vt 1.035156 1.035950
vt 0.063416 0.063477
vt 0.063416 0.936584
vt 0.936523 0.063477
vt 0.936523 0.936584
vt -0.121399 -0.121094
vt -0.121399 1.121399
vt 1.121094 -0.121094
vt 1.121094 1.121399
vt 1.000000 0.000000
vt 0.000000 0.000000
vt 1.000000 1.000000
vt 0.000000 1.000000
vt -0.546387 0.900452
vt -0.546387 -0.663086
vt 0.510254 0.900452
vt 0.510254 -0.663086
vt 1.831055 0.838745
vt 1.831055 -0.661133
vt 3.955078 0.838867
vt 3.955078 -0.661133
vt 1.141602 -0.766602
vt 1.141602 0.694092
vt 0.730957 -0.784180
vt 0.730957 0.711426
vt 0.040924 -0.790039
vt 0.040924 0.717041
vt -0.145996 0.780884
vt -0.145996 -0.790039
vt -0.312744 -0.790039
vt -0.312744 0.780884
vt 0.730957 1.386475
vt 0.040924 1.386475
vt 3.117188 1.386475
vt -1.207031 0.780884
vt -0.145996 0.614014
vt -1.207031 0.613525
vt -1.287109 1.386475
vt -1.207031 -0.790039
vt -1.287109 -0.790039
vt -1.040039 0.780884
vt -1.040039 -0.790039
vt 3.117188 -0.790039
vt 2.865234 -0.790039
vt 2.865234 0.711426
vt 2.443359 -0.790039
vt 2.443359 0.717529
vt 0.730957 0.287598
vt 2.865234 0.287598
vt -4.496094 0.825317
vt -4.496094 -0.472656
vt -3.332031 0.825317
vt -3.332031 -0.472656
vt 3.890625 0.825317
vt -3.332031 1.990234
vt 3.890625 1.990234
vt 3.890625 -0.472656
vt -3.332031 -1.636719
vt 3.890625 -1.636719
vt 5.054688 0.825317
vt 5.054688 -0.472656
vt -4.496094 0.707520
vt -4.496094 -0.589844
vt -3.332031 0.707520
vt -3.332031 -0.589844
vt 3.890625 0.707520
vt -3.332031 1.872559
vt 3.890625 1.872559
vt 3.890625 -0.589844
vt -3.332031 -1.755859
vt 3.890625 -1.755859
vt 5.054688 0.707520
vt 5.054688 -0.589844
vt -4.496094 0.943115
vt -4.496094 -0.354492
vt -3.332031 0.943115
vt -3.332031 -0.354492
vt 3.890625 0.943115
vt -3.332031 2.108398
vt 3.890625 2.108398
vt 3.890625 -0.354492
vt -3.332031 -1.519531
vt 3.890625 -1.519531
vt 5.054688 0.943115
vt 5.054688 -0.354492
vt -0.316162 0.943115
vt -0.316162 -0.354492
vt 1.191406 2.108398
vt 1.191406 -1.519531
vt 1.642578 2.247070
vt 2.183594 2.247070
vt 2.890625 2.851562
vt 2.185547 1.269775
vt 2.892578 0.715332
vt 1.169922 2.849609
vt 1.171875 0.713623
vt 1.643555 1.269287
vt 0.703613 1.268555
vt -0.286133 0.712402
vt 0.703125 2.171875
vt 0.161499 1.268066
vt 0.160767 2.170898
vt -0.288086 2.848633
s 1
usemtl MASTER_Concrete_Plaster1_BLENDSHADER
f 1/1/1 2/2/2 3/3/3
f 2/2/2 4/4/4 3/3/3
f 5/5/5 6/6/6 7/7/7
f 6/6/6 8/8/8 7/7/7
f 2/9/2 7/10/7 4/11/4
f 7/10/7 8/12/8 4/11/4
f 4/13/4 8/14/8 3/15/3
f 8/14/8 6/16/6 3/15/3
f 3/9/3 6/10/6 1/11/1
f 6/10/6 5/12/5 1/11/1
f 9/17/1 10/18/2 11/19/3
f 10/18/2 12/20/4 11/19/3
f 13/18/5 14/20/6 15/17/7
f 14/20/6 16/19/8 15/17/7
f 10/18/2 15/20/7 12/17/4
f 15/20/7 16/19/8 12/17/4
f 12/18/4 16/20/8 11/17/3
f 16/20/8 14/19/6 11/17/3
f 11/18/3 14/20/6 9/17/1
f 14/20/6 13/19/5 9/17/1
f 17/17/1 18/18/2 19/19/3
f 18/18/2 20/20/9 19/19/3
f 21/18/5 22/20/6 23/17/7
f 22/20/6 24/19/10 23/17/7
f 18/18/2 23/20/7 20/17/9
f 23/20/7 24/19/10 20/17/9
f 20/18/9 24/20/10 19/17/3
f 24/20/10 22/19/6 19/17/3
f 19/18/3 22/20/6 17/17/1
f 22/20/6 21/19/5 17/17/1
f 25/21/11 26/22/8 27/23/12
f 26/22/8 28/24/6 27/23/12
f 29/25/13 30/26/14 31/27/15
f 30/26/14 32/28/11 31/27/15
f 30/29/14 29/30/13 33/31/12
f 29/30/13 34/32/16 33/31/12
f 33/31/12 34/32/16 35/33/17
f 34/32/16 36/34/17 35/33/17
f 36/34/17 37/35/18 35/33/17
f 37/35/18 38/36/11 35/33/17
f 38/36/11 37/35/18 25/37/11
f 37/35/18 26/38/8 25/37/11
f 36/34/17 34/32/16 39/39/17
f 40/40/17 36/34/17 39/39/17
f 36/34/17 40/40/17 37/35/18
f 39/39/17 34/32/16 41/41/17
f 42/42/19 37/35/18 40/40/17
f 37/35/18 42/42/19 26/43/8
f 42/42/19 28/44/6 26/43/8
f 43/45/17 42/42/19 40/40/17
f 44/46/12 42/42/19 43/45/17
f 45/47/20 44/46/12 43/45/17
f 42/42/19 44/46/12 28/48/6
f 44/46/12 27/49/12 28/48/6
f 46/50/17 41/41/17 47/51/11
f 41/41/17 48/52/21 47/51/11
f 34/32/16 48/52/21 41/41/17
f 32/53/11 47/51/11 48/52/21
f 31/54/15 32/53/11 48/52/21
f 48/52/21 34/32/16 29/55/13
f 31/56/15 48/52/21 29/55/13
f 49/57/22 50/58/7 51/59/4
f 50/58/7 52/60/8 51/59/4
f 51/59/4 52/60/8 53/61/3
f 49/62/22 51/59/4 53/61/3
f 54/63/1 49/62/22 53/61/3
f 52/60/8 55/64/6 53/61/3
f 55/64/6 52/60/8 50/65/7
f 56/66/5 55/64/6 50/65/7
f 53/61/3 55/64/6 54/67/1
f 55/64/6 56/68/5 54/67/1
f 57/69/22 58/70/7 59/71/9
f 58/70/7 60/72/8 59/71/9
f 59/71/9 60/72/8 61/73/3
f 57/74/22 59/71/9 61/73/3
f 62/75/1 57/74/22 61/73/3
f 60/72/8 63/76/6 61/73/3
f 63/76/6 60/72/8 58/77/7
f 64/78/5 63/76/6 58/77/7
f 61/73/3 63/76/6 62/79/1
f 63/76/6 64/80/5 62/79/1
f 65/81/22 66/82/23 67/83/9
f 66/82/23 68/84/8 67/83/9
f 67/83/9 68/84/8 69/85/3
f 65/86/22 67/83/9 69/85/3
f 70/87/1 65/86/22 69/85/3
f 68/84/8 71/88/6 69/85/3
f 71/88/6 68/84/8 66/89/23
f 72/90/5 71/88/6 66/89/23
f 69/85/3 71/88/6 70/91/1
f 71/88/6 72/92/5 70/91/1
f 73/81/2 74/82/7 75/93/9
f 74/82/7 76/94/8 75/93/9
f 75/93/9 76/94/8 77/85/3
f 73/95/2 75/93/9 77/85/3
f 78/87/1 73/95/2 77/85/3
f 76/94/8 79/88/6 77/85/3
f 79/88/6 76/94/8 74/96/7
f 80/90/5 79/88/6 74/96/7
f 77/85/3 79/88/6 78/91/1
f 79/88/6 80/92/5 78/91/1
usemtl MASTER_Concrete_White
f 81/97/17 82/98/17 43/99/17
f 82/98/17 83/100/17 43/99/17
f 83/100/17 45/101/20 43/99/17
f 84/102/17 81/97/17 43/99/17
f 85/103/17 45/101/20 83/100/17
f 81/97/17 84/102/17 86/104/17
f 86/104/17 85/103/17 83/100/17
f 84/102/17 85/103/17 86/104/17
f 87/105/20 85/103/17 84/102/17
f 88/106/20 85/103/17 87/105/20
f 89/107/20 87/105/20 84/102/17
f 90/108/20 88/106/20 87/105/20
f 91/109/20 89/107/20 84/102/17
f 92/110/20 88/106/20 90/108/20
f 92/110/20 91/109/20 84/102/17
f 91/109/20 92/110/20 90/108/20
