# Blender 3.6.18
# www.blender.org
mtllib Mesh.657.mtl
o Bistro_Research_Exterior_paris_building_05_36__5227
v 49.396255 22.561028 20.623884
v 49.396255 19.685747 20.623884
v 50.233784 19.685747 20.957590
v 50.233784 22.561028 20.957590
v 51.097145 22.561028 21.301590
v 50.254711 22.561028 20.965929
v 50.254711 19.685747 20.965927
v 51.097145 19.685747 21.301590
vn -0.3748 -0.0039 0.9271
vt 0.251221 0.988487
vt 0.251221 0.225098
vt 0.497803 0.225098
vt 0.497803 0.988487
vt 0.249146 0.988487
vt 0.002602 0.988487
vt 0.002602 0.225098
vt 0.249146 0.225098
s 1
usemtl MASTER_Curtains
f 1/1/1 2/2/1 3/3/1
f 3/3/1 4/4/1 1/1/1
f 5/5/1 6/6/1 7/7/1
f 7/7/1 8/8/1 5/5/1
