# Blender 3.6.18
# www.blender.org
mtllib Mesh.1168.mtl
o Bistro_Research_Exterior_Paris_Building_01_paris_buildi_5e63fae
v 7.394539 26.990282 -5.636748
v 8.251006 26.990282 -3.667313
v 7.405676 26.846325 -5.639822
v 8.267712 26.843763 -3.671924
v 9.107474 26.990282 -1.697878
v 9.963943 26.990280 0.271555
v 9.129746 26.841202 -1.704026
v 9.991782 26.838642 0.263871
v 6.543641 26.848886 -7.607719
v 5.681608 26.851446 -9.575617
v 6.538073 26.990282 -7.606182
v 5.681608 26.990282 -9.575617
v 10.983586 26.990278 0.674852
v 9.972627 26.851440 0.200869
v 10.992265 26.851440 0.604168
v 15.447253 26.990278 2.439983
v 19.876083 26.990316 4.122895
v 15.455933 26.851444 2.369299
v 19.876083 26.851484 4.122895
v 6.268045 26.990280 -10.674920
v 6.268045 26.851444 -10.674920
v 8.757144 26.990280 -15.216503
v 8.569799 26.990280 -14.896885
v 8.757144 26.851440 -15.216503
v 8.569799 26.851440 -14.896885
v 9.804887 26.829844 0.361752
v 9.804887 26.990280 0.361752
v 8.946136 26.990280 -1.621314
v 8.946136 26.829844 -1.621314
v 8.087387 26.990280 -3.604383
v 8.087387 26.829844 -3.604383
v 7.228638 26.990282 -5.587451
v 7.228638 26.829845 -5.587451
v 6.369890 26.990282 -7.570520
v 6.369890 26.829845 -7.570520
v 5.511141 26.990280 -9.553589
v 5.511141 26.829844 -9.553589
v 19.823725 26.829876 4.255307
v 19.823725 26.990316 4.255307
v 15.394889 26.990278 2.572394
v 15.394889 26.829840 2.572394
v 13.652315 26.990278 1.883303
v 13.652315 26.829840 1.883303
v 12.282855 26.990278 1.341755
v 12.282855 26.829842 1.341755
v 10.931225 26.990278 0.807262
v 10.931225 26.829842 0.807262
v 13.704677 26.990278 1.750891
v 12.335217 26.990278 1.209348
v 13.713355 26.851444 1.680207
v 12.343894 26.851442 1.138662
v 6.158780 26.990280 -10.739473
v 6.158780 26.829844 -10.739473
v 6.853705 26.990280 -12.037911
v 6.853707 26.829840 -12.037913
v 7.549443 26.990280 -13.314054
v 7.549443 26.829836 -13.314054
v 8.446414 26.990276 -14.959300
v 8.446414 26.829836 -14.959300
v 8.633751 26.990276 -15.278920
v 8.633751 26.829836 -15.278920
v 6.977108 26.990280 -11.975499
v 7.672843 26.990280 -13.251637
v 6.977108 26.851442 -11.975499
v 7.672843 26.851440 -13.251637
v 8.298439 26.649878 1.471579
v 7.377357 26.649902 -0.721951
v 7.152732 26.109991 2.270339
v 6.456278 26.649923 -2.915481
v 6.188017 26.109993 -0.077642
v 6.239953 25.190302 2.938033
v 5.535200 26.649946 -5.109012
v 5.223306 26.109993 -2.425625
v 5.237405 25.190304 0.462815
v 5.581962 23.950434 3.421799
v 4.614121 26.649967 -7.302542
v 3.693040 26.649990 -9.496073
v 4.552332 23.950436 0.852804
v 5.316648 23.203371 3.611857
v 3.293883 26.109995 -7.121590
v 2.329169 26.109993 -9.469574
v 4.258594 26.109995 -4.773608
v 2.229770 25.190304 -6.962840
v 1.227223 25.190304 -9.438060
v 3.232315 25.190304 -4.487622
v 4.234860 25.190304 -2.012403
v 3.522705 23.950436 -1.716191
v 2.493078 23.950434 -4.285186
v 1.463451 23.950434 -6.854181
v 0.433822 23.950430 -9.423178
v 4.276747 23.203373 1.007231
v 5.183239 22.829844 3.706418
v 4.137727 22.829845 1.080724
v 3.236850 23.203373 -1.597396
v 3.092217 22.829845 -1.544939
v 2.196953 23.203373 -4.202023
v 2.046706 22.829845 -4.170602
v 1.157055 23.203373 -6.806650
v 1.001197 22.829845 -6.796265
v 0.117156 23.203371 -9.411277
v -0.044316 22.829844 -9.421929
v 19.245817 26.649914 5.716736
v 14.816977 26.649876 4.033823
v 18.810234 26.110025 6.818205
v 13.074402 26.649876 3.344726
v 14.381404 26.109987 5.135296
v 18.459450 25.190334 7.705281
v 11.704940 26.649876 2.803182
v 12.638832 26.109987 4.446203
v 14.030616 25.190298 6.022365
v 18.207098 23.950466 8.343430
v 10.353315 26.649876 2.268688
v 11.269367 26.109989 3.904656
v 9.037042 26.649876 1.748174
v 9.917741 26.109989 3.370163
v 8.321697 26.109989 2.739014
v 8.065501 25.190300 3.661378
v 7.813151 23.950428 4.299529
v 9.396763 25.190300 4.195262
v 7.711713 23.203369 4.556045
v 7.660992 22.829842 4.684308
v 9.042978 23.203373 5.089932
v 8.992251 22.829842 5.218188
v 10.564786 23.203369 5.686396
v 10.514068 22.829842 5.814654
v 10.666227 23.950428 5.429876
v 9.144418 23.950428 4.833413
v 11.934247 23.203369 6.227942
v 11.883533 22.829842 6.356204
v 10.918579 25.190300 4.791727
v 12.035688 23.950428 5.971426
v 12.288044 25.190298 5.333275
v 13.778259 23.950428 6.660515
v 13.676827 23.203369 6.917037
v 18.105654 23.203405 8.599944
v 13.626107 22.829842 7.045298
v 18.014091 22.829838 8.758517
v 1.153857 22.829842 -11.632857
v 1.274956 23.203373 -11.566838
v 1.867810 22.829842 -12.931308
v 1.517150 23.950428 -11.434798
v 1.988902 23.203369 -12.865285
v 2.119652 25.190302 -11.106316
v 2.630612 22.829840 -14.340277
v 2.751711 23.203367 -14.274261
v 3.326352 22.829840 -15.616425
v 2.957184 26.109991 -10.623404
v 3.447449 23.203365 -15.550404
v 4.233480 22.829838 -17.248993
v 2.993905 23.950428 -14.142224
v 2.231090 23.950428 -12.733242
v 4.414118 22.829840 -17.576979
v 4.531758 23.203367 -17.515272
v 4.344415 23.203367 -17.195656
v 4.773955 23.950428 -17.383232
v 3.689644 23.950426 -15.418366
v 4.586611 23.950428 -17.063612
v 5.376457 25.190296 -17.054749
v 4.292153 25.190294 -15.089882
v 5.189113 25.190296 -16.735130
v 6.213984 26.109983 -16.598139
v 6.026639 26.109983 -16.278521
v 7.253942 26.649874 -16.031170
v 3.596414 25.190296 -13.813747
v 2.833606 25.190302 -12.404763
v 5.129682 26.109983 -14.633273
v 7.066606 26.649874 -15.711555
v 6.169639 26.649874 -14.066306
v 4.433944 26.109987 -13.357135
v 5.473902 26.649876 -12.790162
v 3.704037 26.109991 -11.973104
v 4.778981 26.649878 -11.491725
v 3.992350 26.649878 -10.048871
vn 0.9096 0.0905 -0.4056
vn 0.9096 0.0906 -0.4056
vn 0.9017 0.1693 -0.3977
vn 0.9018 0.1693 -0.3977
vn 0.9056 0.1294 -0.4038
vn 0.9144 0.0196 -0.4042
vn 0.9130 0.0588 -0.4036
vn 0.3255 0.4431 -0.8353
vn 0.3491 0.2392 -0.9060
vn 0.3491 0.2393 -0.9060
vn 0.8800 -0.0051 0.4749
vn 0.8822 -0.0040 0.4708
vn 0.8814 -0.0049 0.4724
vn 0.8822 -0.0039 0.4708
vn 0.8651 -0.0039 0.5017
vn 0.8651 -0.0040 0.5016
vn -0.9187 -0.0039 0.3949
vn -0.9187 -0.0039 0.3948
vn -0.0039 1.0000 -0.0039
vn -0.3584 -0.0039 0.9335
vn -0.3653 -0.0039 0.9309
vn -0.3721 -0.0039 0.9282
vn -0.3720 -0.0039 0.9282
vn -0.8774 -0.0039 -0.4797
vn -0.8775 -0.0039 -0.4796
vn -0.8689 -0.0039 -0.4949
vn -0.8690 -0.0039 -0.4949
vn -0.8636 -0.0039 -0.5041
vn 0.8789 -0.0040 0.4769
vn 0.8789 -0.0039 0.4769
vn -0.2404 0.9657 0.0985
vn -0.0982 0.9945 0.0354
vn -0.0983 0.9945 0.0354
vn -0.2239 0.9704 0.0904
vn -0.4983 0.8436 0.2001
vn -0.4839 0.8536 0.1928
vn -0.7118 0.6410 0.2871
vn -0.2314 0.9687 0.0902
vn -0.7023 0.6552 0.2785
vn -0.8299 0.4523 0.3265
vn -0.2642 0.9586 0.1065
vn -0.8270 0.4586 0.3253
vn -0.8568 0.3873 0.3404
vn -0.5216 0.8275 0.2078
vn -0.4931 0.8482 0.1933
vn -0.7157 0.6374 0.2855
vn -0.7338 0.6161 0.2865
vn -0.7098 0.6470 0.2784
vn -0.8324 0.4494 0.3243
vn -0.8353 0.4431 0.3255
vn -0.8359 0.4357 0.3337
vn -0.8594 0.3807 0.3414
vn -0.8568 0.3874 0.3404
vn -0.8614 0.3781 0.3391
vn -0.8639 0.3714 0.3401
vn -0.8664 0.3646 0.3411
vn -0.0983 0.9638 0.2478
vn -0.0432 0.9934 0.1060
vn -0.0983 0.9638 0.2479
vn -0.0432 0.9942 0.0982
vn -0.2016 0.8263 0.5258
vn -0.1061 0.9630 0.2476
vn -0.2092 0.8250 0.5250
vn -0.2878 0.6111 0.7373
vn -0.2950 0.6098 0.7356
vn -0.3277 0.4146 0.8489
vn -0.0431 0.9934 0.1060
vn -0.1216 0.9455 0.3021
vn -0.2326 0.7925 0.5638
vn -0.2872 0.6492 0.7043
vn -0.3025 0.5775 0.7582
vn -0.3417 0.4124 0.8445
vn -0.3428 0.4059 0.8472
vn -0.3509 0.3430 0.8713
vn -0.3347 0.4135 0.8467
vn -0.3348 0.4135 0.8467
vn -0.2950 0.6097 0.7357
vn -0.3421 0.3578 0.8689
vn -0.3341 0.3656 0.8687
vn -0.3434 0.3671 0.8645
vn -0.3357 0.3910 0.8570
vn -0.8234 0.3473 -0.4487
vn -0.8234 0.3473 -0.4488
vn -0.8256 0.3404 -0.4500
vn -0.8071 0.4016 -0.4328
vn -0.8018 0.4107 -0.4341
vn -0.6701 0.6466 -0.3645
vn -0.7151 0.5822 -0.3868
vn -0.8249 0.3323 -0.4574
vn -0.4966 0.8250 -0.2698
vn -0.5304 0.7977 -0.2869
vn -0.8240 0.3241 -0.4647
vn -0.8230 0.3160 -0.4720
vn -0.8163 0.3320 -0.4726
vn -0.8219 0.3310 -0.4636
vn -0.7849 0.4100 -0.4647
vn -0.7934 0.4104 -0.4495
vn -0.6850 0.6068 -0.4032
vn -0.6996 0.6057 -0.3791
vn -0.6913 0.6054 -0.3945
vn -0.4885 0.8246 -0.2853
vn -0.4987 0.8207 -0.2788
vn -0.2319 0.9630 -0.1376
vn -0.6995 0.6057 -0.3791
vn -0.6701 0.6466 -0.3644
vn -0.4998 0.8225 -0.2715
vn -0.2393 0.9612 -0.1373
vn -0.1059 0.9926 -0.0588
vn -0.2396 0.9622 -0.1296
vn -0.1059 0.9926 -0.0589
vn -0.2792 0.9479 -0.1534
vt 1.248047 2.776367
vt 2.345703 2.776367
vt 1.249023 2.851562
vt 2.347656 2.851562
vt 3.443359 2.776367
vt 4.539062 2.776367
vt 3.445312 2.851562
vt 4.542969 2.851562
vt 0.151123 2.851562
vt -0.946777 2.851562
vt 0.150879 2.776367
vt -0.946777 2.776367
vt -2.080078 2.776367
vt -1.481445 2.776367
vt -2.089844 2.851562
vt -1.491211 2.851562
vt 1.139648 2.776367
vt 3.728516 2.776367
vt 1.130859 2.851562
vt 3.728516 2.851562
vt 3.433594 2.776367
vt 4.164062 2.776367
vt 3.433594 2.851562
vt 4.164062 2.851562
vt 0.397461 2.776367
vt 0.614746 2.776367
vt 0.398438 2.851562
vt 0.615234 2.851562
vt 4.550781 2.604492
vt 4.550781 2.691406
vt 3.447266 2.691406
vt 3.447266 2.604492
vt 2.341797 2.691406
vt 2.341797 2.604492
vt 1.237305 2.691406
vt 1.237305 2.604492
vt 0.133301 2.691406
vt 0.133301 2.604492
vt -0.971191 2.691406
vt -0.971191 2.604492
vt 3.726562 2.604492
vt 3.726562 2.691406
vt 1.139648 2.691406
vt 1.139648 2.604492
vt 0.116516 2.691406
vt 0.116455 2.604492
vt -0.687500 2.691406
vt -0.687500 2.604492
vt -1.481445 2.691406
vt -1.481445 2.604492
vt -2.142578 2.691406
vt -2.142578 2.604492
vt 0.116638 2.776367
vt -0.687500 2.776367
vt 0.106934 2.851562
vt -0.697266 2.851562
vt 4.222656 2.604492
vt 4.222656 2.691406
vt 3.431641 2.691406
vt 3.429688 2.604492
vt 2.566406 2.691406
vt 2.568359 2.604492
vt 1.715820 2.691406
vt 1.715820 2.604492
vt 0.618164 2.691406
vt 0.617188 2.604492
vt 0.401123 2.691406
vt 0.400146 2.604492
vt 2.564453 2.776367
vt 1.713867 2.776367
vt 2.564453 2.851562
vt 1.713867 2.851562
vt 7.558594 0.812500
vt 7.414062 1.295654
vt 6.738281 1.295654
vt 6.816406 0.812500
vt 6.066406 1.295654
vt 7.656250 0.381836
vt 6.074219 0.812500
vt 5.390625 1.295654
vt 6.863281 0.381836
vt 7.742188 -0.045898
vt 5.328125 0.812500
vt 4.714844 1.295654
vt 6.070312 0.381836
vt 6.910156 -0.045898
vt 7.808594 -0.490234
vt 4.585938 0.812500
vt 4.039062 1.295654
vt 3.843750 0.812500
vt 6.941406 -0.490234
vt 7.832031 -0.739258
vt 4.484375 0.381836
vt 3.691406 0.381836
vt 5.277344 0.381836
vt 4.406250 -0.045898
vt 3.572266 -0.045898
vt 5.242188 -0.045898
vt 6.074219 -0.045898
vt 6.078125 -0.490234
vt 5.210938 -0.490234
vt 4.347656 -0.490234
vt 3.484375 -0.490234
vt 6.957031 -0.739258
vt 7.843750 -0.864258
vt 6.960938 -0.864258
vt 6.078125 -0.739258
vt 6.078125 -0.864258
vt 5.203125 -0.739258
vt 5.195312 -0.864258
vt 4.324219 -0.739258
vt 4.312500 -0.864258
vt 3.451172 -0.739258
vt 3.429688 -0.864258
vt 7.375000 0.812500
vt 7.375000 1.295654
vt 5.894531 1.295654
vt 5.894531 0.812500
vt 5.304688 1.295654
vt 7.375000 0.381836
vt 5.308594 0.812500
vt 4.847656 1.295654
vt 5.894531 0.381836
vt 7.375000 -0.045898
vt 4.847656 0.812500
vt 4.390625 1.295654
vt 5.308594 0.381836
vt 5.894531 -0.045898
vt 7.378906 -0.490234
vt 4.394531 0.812500
vt 4.011719 1.295654
vt 4.847656 0.381836
vt 3.951172 0.812500
vt 3.705078 0.812500
vt 4.394531 0.381836
vt 3.859375 0.381836
vt 3.464844 0.381836
vt 3.892578 -0.044922
vt 3.277344 -0.045898
vt 3.892578 -0.489258
vt 3.144531 -0.490234
vt 4.339844 -0.046875
vt 3.894531 -0.738281
vt 3.089844 -0.739258
vt 3.062500 -0.864258
vt 3.894531 -0.863281
vt 4.339844 -0.739258
vt 4.343750 -0.864258
vt 4.851562 -0.739258
vt 4.851562 -0.864258
vt 4.851562 -0.490234
vt 4.339844 -0.491211
vt 5.312500 -0.739258
vt 5.312500 -0.864258
vt 4.851562 -0.045898
vt 5.312500 -0.490234
vt 5.308594 -0.045898
vt 5.898438 -0.490234
vt 5.898438 -0.739258
vt 7.378906 -0.739258
vt 5.898438 -0.864258
vt 7.378906 -0.864258
vt 7.074219 -0.865234
vt 7.863281 -0.864258
vt 7.839844 -0.739258
vt 7.074219 -0.740234
vt 6.613281 -0.865234
vt 7.789062 -0.490234
vt 7.074219 -0.491211
vt 6.613281 -0.740234
vt 7.078125 -0.048828
vt 6.113281 -0.864258
vt 7.667969 -0.045898
vt 6.113281 -0.739258
vt 5.660156 -0.864258
vt 7.082031 0.382324
vt 7.492188 0.381836
vt 5.660156 -0.739258
vt 5.078125 -0.864258
vt 6.113281 -0.490234
vt 6.613281 -0.491211
vt 4.960938 -0.864258
vt 4.960938 -0.739258
vt 5.074219 -0.739258
vt 4.957031 -0.490234
vt 5.660156 -0.490234
vt 5.074219 -0.490234
vt 4.953125 -0.045898
vt 5.656250 -0.045898
vt 5.070312 -0.045898
vt 4.957031 0.381836
vt 5.070312 0.381836
vt 4.957031 0.812500
vt 6.113281 -0.045898
vt 6.613281 -0.046875
vt 5.656250 0.381836
vt 5.074219 0.812500
vt 4.957031 1.295654
vt 5.074219 1.295654
vt 5.660156 0.812500
vt 5.660156 1.295654
vt 6.113281 0.381836
vt 6.113281 0.812500
vt 6.113281 1.295654
vt 6.601562 0.384277
vt 6.574219 0.812500
vt 6.574219 1.295654
vt 7.085938 0.812500
vt 6.996094 1.295654
vt 7.281250 0.812500
s 1
usemtl MASTER_Roofing_Shingle_Grey
f 1/1/1 2/2/1 3/3/1
f 2/2/2 4/4/2 3/3/2
f 5/5/3 6/6/3 7/7/3
f 6/6/4 8/8/4 7/7/4
f 2/2/5 5/5/5 4/4/5
f 5/5/5 7/7/5 4/4/5
f 9/9/6 10/10/6 11/11/6
f 10/10/6 12/12/6 11/11/6
f 3/3/7 9/9/7 1/1/7
f 9/9/7 11/11/7 1/1/7
f 6/13/8 13/14/8 14/15/8
f 13/14/8 15/16/8 14/15/8
f 16/17/9 17/18/10 18/19/10
f 17/18/10 19/20/10 18/19/10
f 20/21/11 12/22/12 21/23/13
f 12/22/12 10/24/14 21/23/13
f 22/25/15 23/26/16 24/27/15
f 23/26/16 25/28/15 24/27/15
f 26/29/17 27/30/17 28/31/17
f 29/32/18 26/29/17 28/31/17
f 29/32/18 28/31/17 30/33/17
f 31/34/17 29/32/18 30/33/17
f 31/34/17 30/33/17 32/35/18
f 33/36/18 31/34/17 32/35/18
f 32/35/18 34/37/17 33/36/18
f 34/37/17 35/38/17 33/36/18
f 34/37/17 36/39/18 35/38/17
f 36/39/18 37/40/17 35/38/17
f 27/30/19 6/6/19 5/5/19
f 28/31/19 27/30/19 5/5/19
f 28/31/19 5/5/19 2/2/19
f 30/33/19 28/31/19 2/2/19
f 30/33/19 2/2/19 1/1/19
f 32/35/19 30/33/19 1/1/19
f 1/1/19 11/11/19 32/35/19
f 11/11/19 34/37/19 32/35/19
f 11/11/19 12/12/19 34/37/19
f 12/12/19 36/39/19 34/37/19
f 38/41/20 39/42/20 40/43/21
f 41/44/21 38/41/20 40/43/21
f 41/44/21 40/43/21 42/45/22
f 43/46/22 41/44/21 42/45/22
f 43/46/22 42/45/22 44/47/22
f 45/48/22 43/46/22 44/47/22
f 45/48/22 44/47/22 46/49/23
f 47/50/22 45/48/22 46/49/23
f 47/50/22 46/49/23 27/51/22
f 26/52/22 47/50/22 27/51/22
f 39/42/19 17/18/19 16/17/19
f 40/43/19 39/42/19 16/17/19
f 40/43/19 16/17/19 48/53/19
f 42/45/19 40/43/19 48/53/19
f 42/45/19 48/53/19 49/54/19
f 44/47/19 42/45/19 49/54/19
f 44/47/19 49/54/19 13/14/19
f 46/49/19 44/47/19 13/14/19
f 46/49/19 13/14/19 6/13/19
f 27/51/19 46/49/19 6/13/19
f 16/17/8 18/19/8 50/55/8
f 48/53/8 16/17/8 50/55/8
f 48/53/8 50/55/8 51/56/8
f 49/54/8 48/53/8 51/56/8
f 49/54/8 51/56/8 15/16/8
f 13/14/8 49/54/8 15/16/8
f 37/57/24 36/58/24 52/59/25
f 53/60/25 37/57/24 52/59/25
f 53/60/25 52/59/25 54/61/24
f 55/62/24 53/60/25 54/61/24
f 55/62/24 54/61/24 56/63/24
f 57/64/24 55/62/24 56/63/24
f 57/64/24 56/63/24 58/65/26
f 59/66/27 57/64/24 58/65/26
f 59/66/27 58/65/26 60/67/28
f 61/68/28 59/66/27 60/67/28
f 36/58/19 12/22/19 20/21/19
f 52/59/19 36/58/19 20/21/19
f 52/59/19 20/21/19 62/69/19
f 54/61/19 52/59/19 62/69/19
f 54/61/19 62/69/19 63/70/19
f 56/63/19 54/61/19 63/70/19
f 56/63/19 63/70/19 23/26/19
f 58/65/19 56/63/19 23/26/19
f 58/65/19 23/26/19 22/25/19
f 60/67/19 58/65/19 22/25/19
f 20/21/11 21/23/13 64/71/29
f 62/69/30 20/21/11 64/71/29
f 62/69/30 64/71/29 65/72/30
f 63/70/30 62/69/30 65/72/30
f 63/70/30 65/72/30 25/28/30
f 23/26/30 63/70/30 25/28/30
f 66/73/31 26/74/32 29/75/33
f 67/76/34 66/73/31 29/75/33
f 67/76/34 29/75/33 31/77/33
f 68/78/35 66/73/31 67/76/34
f 69/79/34 67/76/34 31/77/33
f 31/77/33 33/80/33 69/79/34
f 70/81/36 68/78/35 67/76/34
f 70/81/36 67/76/34 69/79/34
f 71/82/37 68/78/35 70/81/36
f 33/80/33 72/83/38 69/79/34
f 33/80/33 35/84/33 72/83/38
f 73/85/36 70/81/36 69/79/34
f 69/79/34 72/83/38 73/85/36
f 74/86/39 71/82/37 70/81/36
f 74/86/39 70/81/36 73/85/36
f 75/87/40 71/82/37 74/86/39
f 35/84/33 76/88/38 72/83/38
f 35/84/33 37/89/33 76/88/38
f 37/89/33 77/90/41 76/88/38
f 78/91/42 75/87/40 74/86/39
f 79/92/43 75/87/40 78/91/42
f 76/88/38 77/90/41 80/93/35
f 77/90/41 81/94/44 80/93/35
f 72/83/38 76/88/38 82/95/45
f 76/88/38 80/93/35 82/95/45
f 72/83/38 82/95/45 73/85/36
f 80/93/35 81/94/44 83/96/46
f 81/94/44 84/97/47 83/96/46
f 82/95/45 80/93/35 85/98/37
f 80/93/35 83/96/46 85/98/37
f 73/85/36 82/95/45 86/99/48
f 86/99/48 74/86/39 73/85/36
f 82/95/45 85/98/37 86/99/48
f 78/91/42 74/86/39 86/99/48
f 87/100/40 86/99/48 85/98/37
f 87/100/40 78/91/42 86/99/48
f 85/98/37 83/96/46 88/101/49
f 88/101/49 87/100/40 85/98/37
f 83/96/46 84/97/47 89/102/50
f 83/96/46 89/102/50 88/101/49
f 84/97/47 90/103/51 89/102/50
f 91/104/52 78/91/42 87/100/40
f 91/104/52 79/92/43 78/91/42
f 92/105/53 79/92/43 91/104/52
f 93/106/52 92/105/43 91/104/52
f 94/107/52 91/104/52 87/100/40
f 93/106/52 91/104/52 94/107/52
f 94/107/52 87/100/40 88/101/49
f 95/108/54 93/106/52 94/107/52
f 96/109/55 94/107/52 88/101/49
f 95/108/54 94/107/52 96/109/55
f 88/101/49 89/102/50 96/109/55
f 97/110/55 95/108/54 96/109/55
f 89/102/50 98/111/56 96/109/55
f 96/109/55 98/111/56 97/110/55
f 89/102/50 90/103/51 98/111/56
f 98/111/56 99/112/56 97/110/55
f 90/103/51 100/113/56 98/111/56
f 98/111/56 100/113/56 99/112/56
f 100/113/56 101/114/56 99/112/56
f 102/115/57 38/116/58 41/117/58
f 103/118/59 102/115/57 41/117/58
f 103/118/59 41/117/58 43/119/60
f 104/120/61 102/115/57 103/118/59
f 105/121/62 103/118/59 43/119/60
f 43/119/60 45/122/60 105/121/62
f 106/123/63 104/120/61 103/118/59
f 106/123/63 103/118/59 105/121/62
f 107/124/64 104/120/61 106/123/63
f 45/122/60 108/125/62 105/121/62
f 108/125/62 45/122/60 47/126/60
f 109/127/63 106/123/63 105/121/62
f 105/121/62 108/125/62 109/127/63
f 110/128/65 107/124/64 106/123/63
f 110/128/65 106/123/63 109/127/63
f 111/129/66 107/124/64 110/128/65
f 112/130/62 108/125/62 47/126/60
f 112/130/62 47/126/60 26/131/67
f 108/125/62 113/132/63 109/127/63
f 113/132/63 108/125/62 112/130/62
f 114/133/57 112/130/62 26/131/67
f 26/131/67 66/134/68 114/133/57
f 115/135/63 113/132/63 112/130/62
f 115/135/63 112/130/62 114/133/57
f 114/133/57 66/134/68 116/136/63
f 116/136/63 115/135/63 114/133/57
f 66/134/68 68/137/69 116/136/63
f 116/136/63 68/137/69 117/138/70
f 68/137/69 71/139/71 117/138/70
f 117/138/70 71/139/71 118/140/72
f 71/139/71 75/141/73 118/140/72
f 117/138/70 119/142/70 116/136/63
f 119/142/70 115/135/63 116/136/63
f 120/143/74 118/140/72 75/141/73
f 79/144/74 120/143/74 75/141/73
f 79/144/74 92/145/74 120/143/74
f 92/145/74 121/146/74 120/143/74
f 120/143/74 121/146/74 122/147/74
f 121/146/74 123/148/74 122/147/74
f 122/147/74 123/148/74 124/149/74
f 123/148/74 125/150/74 124/149/74
f 124/149/74 126/151/75 122/147/74
f 126/151/75 127/152/76 122/147/74
f 127/152/76 126/151/75 119/142/70
f 124/149/74 125/150/74 128/153/74
f 124/149/74 128/153/74 126/151/75
f 125/150/74 129/154/74 128/153/74
f 126/151/75 130/155/77 119/142/70
f 119/142/70 130/155/77 115/135/63
f 130/155/77 113/132/63 115/135/63
f 130/155/77 126/151/75 131/156/72
f 128/153/74 131/156/72 126/151/75
f 113/132/63 130/155/77 132/157/77
f 132/157/77 130/155/77 131/156/72
f 109/127/63 113/132/63 132/157/77
f 132/157/77 110/128/65 109/127/63
f 110/128/65 132/157/77 131/156/72
f 133/158/75 110/128/65 131/156/72
f 133/158/75 131/156/72 128/153/74
f 133/158/75 111/129/66 110/128/65
f 134/159/78 133/158/75 128/153/74
f 111/129/66 133/158/75 134/159/78
f 128/153/74 129/154/74 134/159/78
f 135/160/79 111/129/66 134/159/78
f 129/154/74 136/161/80 134/159/78
f 134/159/78 136/161/80 135/160/79
f 136/161/80 137/162/81 135/160/79
f 138/163/82 101/164/83 100/165/83
f 139/166/83 138/163/82 100/165/83
f 140/167/84 138/163/82 139/166/83
f 100/165/83 90/168/85 139/166/83
f 90/168/85 141/169/86 139/166/83
f 142/170/84 140/167/84 139/166/83
f 141/169/86 90/168/85 143/171/87
f 144/172/84 140/167/84 142/170/84
f 90/168/85 84/173/88 143/171/87
f 145/174/84 144/172/84 142/170/84
f 146/175/89 144/172/84 145/174/84
f 143/171/87 84/173/88 147/176/90
f 84/173/88 81/177/91 147/176/90
f 148/178/84 146/175/89 145/174/84
f 149/179/92 146/175/89 148/178/84
f 145/174/84 142/170/84 150/180/86
f 145/174/84 150/180/86 148/178/84
f 142/170/84 151/181/86 150/180/86
f 152/182/93 149/179/92 153/183/94
f 149/179/92 154/184/95 153/183/94
f 154/184/95 149/179/92 148/178/84
f 153/183/94 154/184/95 155/185/96
f 148/178/84 156/186/86 154/184/95
f 150/180/86 156/186/86 148/178/84
f 154/184/95 157/187/97 155/185/96
f 156/186/86 157/187/97 154/184/95
f 158/188/98 155/185/96 157/187/97
f 156/186/86 150/180/86 159/189/99
f 156/186/86 159/189/99 157/187/97
f 160/190/100 158/188/98 157/187/97
f 159/189/99 160/190/100 157/187/97
f 161/191/101 158/188/98 160/190/100
f 162/192/102 161/191/101 160/190/100
f 160/190/100 159/189/99 162/192/102
f 163/193/103 161/191/101 162/192/102
f 150/180/86 164/194/104 159/189/99
f 164/194/104 150/180/86 151/181/86
f 165/195/105 164/194/104 151/181/86
f 159/189/99 166/196/106 162/192/102
f 159/189/99 164/194/104 166/196/106
f 167/197/107 163/193/103 162/192/102
f 162/192/102 166/196/106 167/197/107
f 61/198/108 163/193/103 167/197/107
f 59/199/108 61/198/108 167/197/107
f 167/197/107 168/200/109 59/199/108
f 166/196/106 168/200/109 167/197/107
f 168/200/109 57/201/110 59/199/108
f 164/194/104 169/202/106 166/196/106
f 166/196/106 169/202/106 168/200/109
f 169/202/106 164/194/104 165/195/105
f 168/200/109 170/203/109 57/201/110
f 169/202/106 170/203/109 168/200/109
f 170/203/109 55/204/108 57/201/110
f 171/205/90 169/202/106 165/195/105
f 170/203/109 169/202/106 171/205/90
f 165/195/105 143/171/87 171/205/90
f 143/171/87 147/176/90 171/205/90
f 55/204/108 170/203/109 172/206/109
f 172/206/109 170/203/109 171/205/90
f 171/205/90 147/176/90 172/206/109
f 53/207/110 55/204/108 172/206/109
f 147/176/90 173/208/109 172/206/109
f 172/206/109 173/208/109 53/207/110
f 147/176/90 81/177/91 173/208/109
f 173/208/109 37/209/108 53/207/110
f 81/177/91 77/210/111 173/208/109
f 173/208/109 77/210/111 37/209/108
