# Blender 3.6.18
# www.blender.org
mtllib Mesh.739.mtl
o Bistro_Research_Exterior_paris_building_05_5057
v 20.047682 16.990107 -40.211964
v 20.488247 16.990107 -40.464809
v 20.458431 16.990107 -40.516762
v 20.017866 16.990107 -40.263912
v 20.458431 16.893988 -40.516762
v 20.017866 16.893988 -40.263912
v 20.047682 16.893988 -40.211964
v 20.488247 16.893988 -40.464809
v 20.023638 14.290565 -40.263641
v 20.050594 14.290566 -40.216675
v 20.050598 16.898327 -40.216675
v 20.023636 16.898327 -40.263641
v 20.091190 16.898327 -40.302414
v 20.091190 14.290565 -40.302414
v 20.118149 14.290566 -40.255440
v 20.118149 16.898327 -40.255440
v 20.093552 16.891829 -40.281067
v 20.399010 16.891829 -40.456375
v 20.399010 14.293645 -40.456375
v 20.093552 14.293645 -40.281067
v 20.479307 14.290565 -40.462719
v 20.452349 14.290566 -40.509697
v 20.452349 16.898327 -40.509697
v 20.479307 16.898327 -40.462719
v 20.411755 16.898327 -40.423946
v 20.411755 14.290565 -40.423946
v 20.384796 14.290566 -40.470924
v 20.384796 16.898327 -40.470924
v 20.047682 14.290150 -40.211964
v 20.488247 14.290150 -40.464809
v 20.458431 14.290150 -40.516762
v 20.017866 14.290150 -40.263912
v 20.458431 14.194030 -40.516762
v 20.017866 14.194030 -40.263912
v 20.047682 14.194030 -40.211964
v 20.488247 14.194030 -40.464809
v 20.477276 14.460618 -40.472122
v 20.457794 14.460618 -40.506065
v 20.457794 14.589516 -40.506065
v 20.477274 14.589516 -40.472122
v 20.454439 14.589516 -40.504139
v 20.473917 14.589516 -40.470192
v 20.473919 14.460618 -40.470192
v 20.454439 14.460618 -40.504139
v 20.535254 14.460618 -40.453064
v 20.497475 14.460618 -40.463291
v 20.497478 14.589516 -40.463287
v 20.535254 14.589516 -40.453064
v 20.496466 14.589516 -40.459553
v 20.534241 14.589516 -40.449326
v 20.534243 14.460618 -40.449326
v 20.496468 14.460618 -40.459557
v 20.415449 16.990107 -39.965332
v 20.548182 16.990107 -40.455654
v 20.490362 16.990107 -40.471306
v 20.357632 16.990107 -39.980988
v 20.490362 16.893988 -40.471306
v 20.357632 16.893988 -39.980988
v 20.415449 16.893988 -39.965332
v 20.548182 16.893988 -40.455654
v 20.361904 14.290565 -39.984879
v 20.414181 14.290566 -39.970726
v 20.414181 16.898327 -39.970726
v 20.361902 16.898327 -39.984879
v 20.382254 16.898327 -40.060055
v 20.382254 14.290565 -40.060055
v 20.434532 14.290566 -40.045910
v 20.434532 16.898327 -40.045910
v 20.509035 16.891829 -40.381721
v 20.509035 14.293645 -40.381718
v 20.417007 14.293645 -40.041763
v 20.417007 16.891829 -40.041763
v 20.543343 14.290565 -40.447857
v 20.491064 14.290566 -40.462006
v 20.491064 16.898327 -40.462006
v 20.543341 16.898327 -40.447857
v 20.522987 16.898327 -40.372669
v 20.522987 14.290565 -40.372673
v 20.470711 14.290566 -40.386822
v 20.470711 16.898327 -40.386822
v 20.415449 14.290150 -39.965332
v 20.548182 14.290150 -40.455654
v 20.490362 14.290150 -40.471306
v 20.357632 14.290150 -39.980988
v 20.490362 14.194030 -40.471306
v 20.357632 14.194030 -39.980988
v 20.415449 14.194030 -39.965332
v 20.548182 14.194030 -40.455654
v 20.535254 16.661915 -40.453064
v 20.497475 16.661915 -40.463291
v 20.497478 16.790812 -40.463287
v 20.535254 16.790812 -40.453064
v 20.496466 16.790812 -40.459553
v 20.534241 16.790812 -40.449326
v 20.534243 16.661915 -40.449326
v 20.496468 16.661915 -40.459557
v 20.477276 16.661915 -40.472122
v 20.457794 16.661915 -40.506065
v 20.457794 16.790812 -40.506065
v 20.477274 16.790812 -40.472122
v 20.454439 16.790812 -40.504139
v 20.473917 16.790812 -40.470192
v 20.473919 16.661915 -40.470192
v 20.454439 16.661915 -40.504139
v 20.475655 14.460976 -40.460617
v 20.483248 14.460976 -40.454762
v 20.483248 14.589179 -40.454762
v 20.475655 14.589179 -40.460617
v 20.474428 14.460976 -40.470127
v 20.474428 14.589179 -40.470127
v 20.480284 14.460976 -40.477715
v 20.480284 14.589179 -40.477715
v 20.489792 14.460976 -40.478943
v 20.489792 14.589179 -40.478943
v 20.497381 14.460976 -40.473087
v 20.497381 14.589179 -40.473087
v 20.498608 14.460976 -40.463581
v 20.498608 14.589179 -40.463581
v 20.492752 14.460976 -40.455990
v 20.492752 14.589179 -40.455990
v 20.475655 16.662273 -40.460617
v 20.483248 16.662273 -40.454762
v 20.483248 16.790478 -40.454762
v 20.475655 16.790478 -40.460617
v 20.474428 16.662273 -40.470127
v 20.474428 16.790478 -40.470127
v 20.480284 16.662273 -40.477715
v 20.480284 16.790478 -40.477715
v 20.489792 16.662273 -40.478943
v 20.489792 16.790478 -40.478943
v 20.497381 16.662273 -40.473087
v 20.497381 16.790478 -40.473087
v 20.498608 16.662273 -40.463581
v 20.498608 16.790478 -40.463581
v 20.492752 16.662273 -40.455990
v 20.492752 16.790478 -40.455990
v 20.486521 14.460976 -40.466850
v 20.486521 14.589179 -40.466850
v 20.486521 16.662273 -40.466850
v 20.486521 16.790478 -40.466850
vn -0.0039 1.0000 -0.0039
vn -0.4949 -0.0039 -0.8690
vn 0.4923 -0.0040 0.8704
vn 0.4923 -0.0039 0.8704
vn -0.8723 -0.0039 0.4890
vn -0.8723 -0.0039 0.4889
vn 0.8670 -0.0039 -0.4982
vn -0.0039 -1.0000 -0.0039
vn 0.2545 -0.0039 -0.9671
vn 0.9666 -0.0039 0.2564
vn -0.9651 -0.0039 -0.2618
vn 0.9666 -0.0040 0.2564
vn 0.9665 -0.0039 0.2565
vn -0.2638 -0.0039 0.9646
vn -0.9651 -0.0038 -0.2618
vn 0.9665 -0.0039 0.2564
vt 0.327881 0.353027
vt 0.327881 0.432129
vt 0.318604 0.432129
vt 0.318604 0.353027
vt 0.315430 0.432129
vt 0.300537 0.432129
vt 0.300537 0.352539
vt 0.315430 0.352539
vt 0.270020 0.352051
vt 0.284912 0.352051
vt 0.284912 0.431641
vt 0.270020 0.431641
vt 0.269775 0.345215
vt 0.269775 0.335938
vt 0.284912 0.335938
vt 0.284912 0.345215
vt 0.288086 0.345215
vt 0.288086 0.335938
vt 0.303223 0.335938
vt 0.303223 0.345215
vt 0.287842 0.352539
vt 0.297363 0.352539
vt 0.297363 0.432129
vt 0.287842 0.432129
vt 0.858398 0.978256
vt 0.848633 0.978256
vt 0.848633 0.570801
vt 0.858398 0.570801
vt 0.812012 0.571289
vt 0.812012 0.978668
vt 0.799805 0.978668
vt 0.799805 0.571289
vt 0.845215 0.572021
vt 0.845215 0.979340
vt 0.833008 0.979340
vt 0.833008 0.572021
vt 0.827637 0.980072
vt 0.817871 0.980072
vt 0.817871 0.572754
vt 0.827637 0.572754
vt 0.377197 0.011230
vt 0.432373 0.011230
vt 0.432373 0.416992
vt 0.377197 0.416992
vt 0.360107 0.465332
vt 0.354004 0.465332
vt 0.354004 0.445312
vt 0.360107 0.445312
vt 0.354004 0.442871
vt 0.360107 0.442871
vt 0.360107 0.443359
vt 0.354004 0.443359
vt 0.362061 0.445312
vt 0.362061 0.465332
vt 0.361328 0.465332
vt 0.361328 0.445312
vt 0.360107 0.467285
vt 0.354004 0.467285
vt 0.354004 0.466797
vt 0.360107 0.466797
vt 0.352051 0.465332
vt 0.352051 0.445312
vt 0.352783 0.445312
vt 0.352783 0.465332
vt 0.327637 0.464355
vt 0.326172 0.464355
vt 0.326172 0.443848
vt 0.327637 0.443848
vt 0.329102 0.464355
vt 0.329102 0.443848
vt 0.330566 0.464355
vt 0.330566 0.443848
vt 0.332031 0.464355
vt 0.332031 0.443848
vt 0.333496 0.464355
vt 0.333496 0.443848
vt 0.334473 0.464355
vt 0.334473 0.443848
vt 0.335938 0.464355
vt 0.335938 0.443848
vt 0.337402 0.464355
vt 0.337402 0.443848
vt 0.326172 0.466797
vt 0.327393 0.465820
vt 0.328125 0.467773
vt 0.326172 0.468262
vt 0.328857 0.465820
vt 0.327148 0.469238
vt 0.329834 0.466797
vt 0.328857 0.469238
vt 0.329834 0.468262
vt 0.333252 0.465820
vt 0.334717 0.465820
vt 0.333984 0.467773
vt 0.332275 0.466797
vt 0.335938 0.466797
vt 0.332275 0.468262
vt 0.335938 0.468750
vt 0.333252 0.469727
vt 0.334717 0.469727
s 1
usemtl MASTER_Building_Details
f 1/1/1 2/2/1 3/3/1
f 3/3/1 4/4/1 1/1/1
f 3/5/2 5/6/2 6/7/2
f 6/7/2 4/8/2 3/5/2
f 1/9/3 7/10/4 8/11/4
f 8/11/4 2/12/4 1/9/3
f 1/13/5 4/14/5 6/15/6
f 6/15/6 7/16/5 1/13/5
f 3/17/7 2/18/7 8/19/7
f 8/19/7 5/20/7 3/17/7
f 7/21/8 6/22/8 5/23/8
f 5/23/8 8/24/8 7/21/8
f 9/25/5 10/26/6 11/27/5
f 11/27/5 12/28/5 9/25/5
f 9/29/2 12/30/2 13/31/2
f 13/31/2 14/32/2 9/29/2
f 11/33/4 10/34/4 15/35/4
f 15/35/4 16/36/4 11/33/4
f 15/37/7 14/38/7 13/39/7
f 13/39/7 16/40/7 15/37/7
f 17/41/2 18/42/2 19/43/2
f 19/43/2 20/44/2 17/41/2
f 21/25/7 22/26/7 23/27/7
f 23/27/7 24/28/7 21/25/7
f 21/29/4 24/30/4 25/31/4
f 25/31/4 26/32/4 21/29/4
f 23/33/2 22/34/2 27/35/2
f 27/35/2 28/36/2 23/33/2
f 27/37/5 26/38/5 25/39/5
f 25/39/5 28/40/5 27/37/5
f 29/1/1 30/2/1 31/3/1
f 31/3/1 32/4/1 29/1/1
f 31/5/2 33/6/2 34/7/2
f 34/7/2 32/8/2 31/5/2
f 29/9/4 35/10/4 36/11/4
f 36/11/4 30/12/4 29/9/4
f 29/13/5 32/14/5 34/15/5
f 34/15/5 35/16/5 29/13/5
f 31/17/7 30/18/7 36/19/7
f 36/19/7 33/20/7 31/17/7
f 35/21/8 34/22/8 33/23/8
f 33/23/8 36/24/8 35/21/8
f 37/45/7 38/46/7 39/47/7
f 39/47/7 40/48/7 37/45/7
f 41/49/1 42/50/1 40/51/1
f 40/51/1 39/52/1 41/49/1
f 42/53/4 43/54/4 37/55/4
f 37/55/4 40/56/4 42/53/4
f 43/57/8 44/58/8 38/59/8
f 38/59/8 37/60/8 43/57/8
f 44/61/2 41/62/2 39/63/2
f 39/63/2 38/64/2 44/61/2
f 45/45/9 46/46/9 47/47/9
f 47/47/9 48/48/9 45/45/9
f 49/49/1 50/50/1 48/51/1
f 48/51/1 47/52/1 49/49/1
f 50/53/10 51/54/10 45/55/10
f 45/55/10 48/56/10 50/53/10
f 51/57/8 52/58/8 46/59/8
f 46/59/8 45/60/8 51/57/8
f 52/61/11 49/62/11 47/63/11
f 47/63/11 46/64/11 52/61/11
f 53/1/1 54/2/1 55/3/1
f 55/3/1 56/4/1 53/1/1
f 55/5/11 57/6/11 58/7/11
f 58/7/11 56/8/11 55/5/11
f 53/9/10 59/10/10 60/11/12
f 60/11/12 54/12/13 53/9/10
f 53/13/14 56/14/14 58/15/14
f 58/15/14 59/16/14 53/13/14
f 55/17/9 54/18/9 60/19/9
f 60/19/9 57/20/9 55/17/9
f 59/21/8 58/22/8 57/23/8
f 57/23/8 60/24/8 59/21/8
f 61/25/14 62/26/14 63/27/14
f 63/27/14 64/28/14 61/25/14
f 61/29/11 64/30/11 65/31/11
f 65/31/11 66/32/11 61/29/11
f 63/33/10 62/34/10 67/35/10
f 67/35/10 68/36/10 63/33/10
f 67/37/9 66/38/9 65/39/9
f 65/39/9 68/40/9 67/37/9
f 69/41/11 70/44/11 71/43/11
f 71/43/11 72/42/15 69/41/11
f 73/25/9 74/26/9 75/27/9
f 75/27/9 76/28/9 73/25/9
f 73/29/10 76/30/10 77/31/10
f 77/31/10 78/32/10 73/29/10
f 75/33/11 74/34/11 79/35/11
f 79/35/11 80/36/11 75/33/11
f 79/37/14 78/38/14 77/39/14
f 77/39/14 80/40/14 79/37/14
f 81/1/1 82/2/1 83/3/1
f 83/3/1 84/4/1 81/1/1
f 83/5/11 85/6/11 86/7/11
f 86/7/11 84/8/11 83/5/11
f 81/9/16 87/10/12 88/11/12
f 88/11/12 82/12/12 81/9/16
f 81/13/14 84/14/14 86/15/14
f 86/15/14 87/16/14 81/13/14
f 83/17/9 82/18/9 88/19/9
f 88/19/9 85/20/9 83/17/9
f 87/21/8 86/22/8 85/23/8
f 85/23/8 88/24/8 87/21/8
f 89/45/9 90/46/9 91/47/9
f 91/47/9 92/48/9 89/45/9
f 93/49/1 94/50/1 92/51/1
f 92/51/1 91/52/1 93/49/1
f 94/53/10 95/54/10 89/55/10
f 89/55/10 92/56/12 94/53/10
f 95/57/8 96/58/8 90/59/8
f 90/59/8 89/60/8 95/57/8
f 96/61/11 93/62/11 91/63/11
f 91/63/11 90/64/11 96/61/11
f 97/45/7 98/46/7 99/47/7
f 99/47/7 100/48/7 97/45/7
f 101/49/1 102/50/1 100/51/1
f 100/51/1 99/52/1 101/49/1
f 102/53/4 103/54/4 97/55/4
f 97/55/4 100/56/4 102/53/4
f 103/57/8 104/58/8 98/59/8
f 98/59/8 97/60/8 103/57/8
f 104/61/2 101/62/2 99/63/2
f 99/63/2 98/64/2 104/61/2
f 105/65/6 106/66/14 107/67/14
f 107/67/14 108/68/5 105/65/6
f 109/69/11 105/65/6 108/68/5
f 108/68/5 110/70/11 109/69/11
f 111/71/2 109/69/11 110/70/11
f 110/70/11 112/72/2 111/71/2
f 113/73/9 111/71/2 112/72/2
f 112/72/2 114/74/9 113/73/9
f 115/75/7 113/73/9 114/74/9
f 114/74/9 116/76/7 115/75/7
f 117/77/13 115/75/7 116/76/7
f 116/76/7 118/78/13 117/77/13
f 119/79/4 117/77/13 118/78/13
f 118/78/13 120/80/4 119/79/4
f 106/81/14 119/79/4 120/80/4
f 120/80/4 107/82/14 106/81/14
f 121/65/6 122/66/14 123/67/14
f 123/67/14 124/68/5 121/65/6
f 125/69/11 121/65/6 124/68/5
f 124/68/5 126/70/11 125/69/11
f 127/71/2 125/69/11 126/70/11
f 126/70/11 128/72/2 127/71/2
f 129/73/9 127/71/2 128/72/2
f 128/72/2 130/74/9 129/73/9
f 131/75/7 129/73/9 130/74/9
f 130/74/9 132/76/7 131/75/7
f 133/77/12 131/75/7 132/76/7
f 132/76/7 134/78/13 133/77/12
f 135/79/4 133/77/12 134/78/13
f 134/78/13 136/80/4 135/79/4
f 122/81/14 135/79/4 136/80/4
f 136/80/4 123/82/14 122/81/14
f 111/83/8 113/84/8 137/85/8
f 109/86/8 111/83/8 137/85/8
f 113/84/8 115/87/8 137/85/8
f 105/88/8 109/86/8 137/85/8
f 115/87/8 117/89/8 137/85/8
f 106/90/8 105/88/8 137/85/8
f 117/89/8 119/91/8 137/85/8
f 119/91/8 106/90/8 137/85/8
f 114/92/1 112/93/1 138/94/1
f 116/95/1 114/92/1 138/94/1
f 112/93/1 110/96/1 138/94/1
f 118/97/1 116/95/1 138/94/1
f 110/96/1 108/98/1 138/94/1
f 120/99/1 118/97/1 138/94/1
f 108/98/1 107/100/1 138/94/1
f 107/100/1 120/99/1 138/94/1
f 127/83/8 129/84/8 139/85/8
f 125/86/8 127/83/8 139/85/8
f 129/84/8 131/87/8 139/85/8
f 121/88/8 125/86/8 139/85/8
f 131/87/8 133/89/8 139/85/8
f 122/90/8 121/88/8 139/85/8
f 133/89/8 135/91/8 139/85/8
f 135/91/8 122/90/8 139/85/8
f 130/92/1 128/93/1 140/94/1
f 132/95/1 130/92/1 140/94/1
f 128/93/1 126/96/1 140/94/1
f 134/97/1 132/95/1 140/94/1
f 126/96/1 124/98/1 140/94/1
f 136/99/1 134/97/1 140/94/1
f 124/98/1 123/100/1 140/94/1
f 123/100/1 136/99/1 140/94/1
