# Blender 3.6.18
# www.blender.org
mtllib Mesh.129.mtl
o Bistro_Research_Exterior_Paris_StreetLight_Glass_01B___15__6351
v 33.043999 6.645702 20.554304
v 33.139267 6.645702 20.623934
v 33.158443 6.062259 20.574398
v 33.085377 6.062259 20.520990
v 32.996315 6.645702 20.446369
v 33.048801 6.062259 20.438210
v 33.008984 6.645702 20.329052
v 33.058521 6.062259 20.348230
v 33.078613 6.645702 20.233784
v 33.111923 6.062259 20.275164
v 33.186550 6.645702 20.186096
v 33.194710 6.062259 20.238588
v 33.303864 6.645702 20.198767
v 33.284687 6.062259 20.248306
v 33.399132 6.645702 20.268396
v 33.357750 6.062259 20.301710
v 33.446823 6.645702 20.376331
v 33.394325 6.062259 20.384491
v 33.434155 6.645702 20.493650
v 33.384609 6.062259 20.474472
v 33.364521 6.645702 20.588917
v 33.331207 6.062259 20.547541
v 33.256584 6.645702 20.636606
v 33.248425 6.062259 20.584114
v 33.105080 6.062259 20.570724
v 33.151089 6.062259 20.593397
v 33.129673 6.645702 20.648708
v 33.069691 6.645702 20.619146
v 33.023312 6.645702 20.570965
v 33.069504 6.062259 20.533770
v 33.041000 6.062259 20.491127
v 32.986137 6.645702 20.515366
v 32.970058 6.645702 20.450453
v 33.028671 6.062259 20.441341
v 33.025303 6.062259 20.390158
v 32.965672 6.645702 20.383718
v 32.984207 6.645702 20.319460
v 33.039516 6.062259 20.340874
v 33.062195 6.062259 20.294867
v 33.013771 6.645702 20.259474
v 33.061954 6.645702 20.213091
v 33.099148 6.062259 20.259293
v 33.141788 6.062259 20.230782
v 33.117550 6.645702 20.175924
v 33.182465 6.645702 20.159847
v 33.191574 6.062259 20.218456
v 33.242760 6.062259 20.215086
v 33.249195 6.645702 20.155458
v 33.313454 6.645702 20.173990
v 33.292046 6.062259 20.229303
v 33.338051 6.062259 20.251980
v 33.373444 6.645702 20.203558
v 33.419827 6.645702 20.251738
v 33.373627 6.062259 20.288931
v 33.402130 6.062259 20.331573
v 33.456993 6.645702 20.307335
v 33.473072 6.645702 20.372252
v 33.414463 6.062259 20.381363
v 33.417831 6.062259 20.432545
v 33.477459 6.645702 20.438984
v 33.458923 6.645702 20.503241
v 33.403610 6.062259 20.481829
v 33.380939 6.062259 20.527838
v 33.429359 6.645702 20.563229
v 33.381180 6.645702 20.609610
v 33.343983 6.062259 20.563412
v 33.301346 6.062259 20.591917
v 33.325581 6.645702 20.646778
v 33.260666 6.645702 20.662857
v 33.251556 6.062259 20.604246
v 33.200371 6.062259 20.607615
v 33.193932 6.645702 20.667246
vn 0.7712 0.0900 -0.6302
vn 0.3570 0.0902 -0.9297
vn 0.9826 0.0908 -0.1618
vn 0.9286 0.0910 0.3596
vn 0.9287 0.0907 0.3595
vn 0.6255 0.0905 0.7749
vn 0.6255 0.0905 0.7750
vn 0.1540 0.0909 0.9839
vn -0.3664 0.0906 0.9260
vn -0.3665 0.0906 0.9260
vn -0.7781 0.0899 0.6217
vn -0.9841 0.0907 0.1530
vn -0.9271 0.0900 -0.3638
vn -0.6264 0.0895 -0.7743
vn -0.1605 0.0901 -0.9829
vn -0.1606 0.0901 -0.9829
vn -0.5935 -0.1061 0.7978
vn -0.3659 -0.1062 0.9246
vn -0.7769 -0.1054 0.6208
vn -0.7769 -0.1054 0.6207
vn -0.9124 -0.1057 0.3955
vn -0.9838 -0.1058 0.1450
vn -0.9880 -0.1054 -0.1133
vn -0.9880 -0.1054 -0.1132
vn -0.9257 -0.1055 -0.3633
vn -0.9257 -0.1054 -0.3632
vn -0.8007 -0.1055 -0.5898
vn -0.6255 -0.1049 -0.7731
vn -0.4021 -0.1054 -0.9095
vn -0.1527 -0.1057 -0.9826
vn 0.1055 -0.1055 -0.9888
vn 0.3564 -0.1058 -0.9283
vn 0.5846 -0.1060 -0.8044
vn 0.7700 -0.1055 -0.6293
vn 0.9082 -0.1062 -0.4049
vn 0.9082 -0.1061 -0.4049
vn 0.9823 -0.1065 -0.1539
vn 0.9886 -0.1064 0.1063
vn 0.9886 -0.1063 0.1063
vn 0.9272 -0.1065 0.3591
vn 0.8016 -0.1066 0.5883
vn 0.6245 -0.1061 0.7738
vn 0.6245 -0.1060 0.7738
vn 0.3983 -0.1065 0.9110
vn 0.1462 -0.1066 0.9835
vn -0.1141 -0.1063 0.9878
vn -0.1141 -0.1062 0.9878
vt 0.092773 0.097168
vt 0.016220 0.097168
vt 0.016220 0.904419
vt 0.092773 0.904419
vt 0.172852 0.097168
vt 0.172852 0.904419
vt 0.252930 0.097168
vt 0.252930 0.904419
vt 0.333008 0.097168
vt 0.333008 0.904419
vt 0.413086 0.097168
vt 0.413086 0.904419
vt 0.493164 0.097168
vt 0.493164 0.904419
vt 0.573242 0.097168
vt 0.573242 0.904419
vt 0.653320 0.097168
vt 0.653320 0.904419
vt 0.733398 0.097168
vt 0.733398 0.904419
vt 0.813477 0.097168
vt 0.813477 0.904419
vt 0.893555 0.097168
vt 0.893555 0.904419
vt 0.984375 0.097168
vt 0.984375 0.904419
vt 0.054504 0.904419
vt 0.054504 0.097168
vt 0.132812 0.904419
vt 0.132812 0.097168
vt 0.212891 0.904419
vt 0.212891 0.097168
vt 0.292969 0.904419
vt 0.292969 0.097168
vt 0.373047 0.904419
vt 0.373047 0.097168
vt 0.453125 0.904419
vt 0.453125 0.097168
vt 0.533203 0.904419
vt 0.533203 0.097168
vt 0.613281 0.904419
vt 0.613281 0.097168
vt 0.693359 0.904419
vt 0.693359 0.097168
vt 0.773438 0.904419
vt 0.773438 0.097168
vt 0.853516 0.904419
vt 0.853516 0.097168
vt 0.938965 0.904419
vt 0.938965 0.097168
s 1
usemtl Emissive_StreetLight
f 1/1/1 2/2/2 3/3/2
f 3/3/2 4/4/1 1/1/1
f 5/5/3 1/1/1 4/4/1
f 4/4/1 6/6/3 5/5/3
f 7/7/4 5/5/3 6/6/3
f 6/6/3 8/8/5 7/7/4
f 9/9/6 7/7/4 8/8/5
f 8/8/5 10/10/7 9/9/6
f 11/11/8 9/9/6 10/10/7
f 10/10/7 12/12/8 11/11/8
f 13/13/9 11/11/8 12/12/8
f 12/12/8 14/14/10 13/13/9
f 15/15/11 13/13/9 14/14/10
f 14/14/10 16/16/11 15/15/11
f 17/17/12 15/15/11 16/16/11
f 16/16/11 18/18/12 17/17/12
f 19/19/13 17/17/12 18/18/12
f 18/18/12 20/20/13 19/19/13
f 21/21/14 19/19/13 20/20/13
f 20/20/13 22/22/14 21/21/14
f 23/23/15 21/21/14 22/22/14
f 22/22/14 24/24/16 23/23/15
f 2/25/2 23/23/15 24/24/16
f 24/24/16 3/26/2 2/25/2
f 25/27/17 26/3/18 27/2/18
f 27/2/18 28/28/17 25/27/17
f 25/27/17 28/28/17 29/1/19
f 29/1/19 30/4/20 25/27/17
f 31/29/21 30/4/20 29/1/19
f 29/1/19 32/30/21 31/29/21
f 31/29/21 32/30/21 33/5/22
f 33/5/22 34/6/22 31/29/21
f 35/31/23 34/6/22 33/5/22
f 33/5/22 36/32/24 35/31/23
f 35/31/23 36/32/24 37/7/25
f 37/7/25 38/8/26 35/31/23
f 39/33/27 38/8/26 37/7/25
f 37/7/25 40/34/27 39/33/27
f 39/33/27 40/34/27 41/9/28
f 41/9/28 42/10/28 39/33/27
f 43/35/29 42/10/28 41/9/28
f 41/9/28 44/36/29 43/35/29
f 43/35/29 44/36/29 45/11/30
f 45/11/30 46/12/30 43/35/29
f 47/37/31 46/12/30 45/11/30
f 45/11/30 48/38/31 47/37/31
f 47/37/31 48/38/31 49/13/32
f 49/13/32 50/14/32 47/37/31
f 51/39/33 50/14/32 49/13/32
f 49/13/32 52/40/33 51/39/33
f 51/39/33 52/40/33 53/15/34
f 53/15/34 54/16/34 51/39/33
f 55/41/35 54/16/34 53/15/34
f 53/15/34 56/42/36 55/41/35
f 55/41/35 56/42/36 57/17/37
f 57/17/37 58/18/37 55/41/35
f 59/43/38 58/18/37 57/17/37
f 57/17/37 60/44/39 59/43/38
f 59/43/38 60/44/39 61/19/40
f 61/19/40 62/20/40 59/43/38
f 63/45/41 62/20/40 61/19/40
f 61/19/40 64/46/41 63/45/41
f 63/45/41 64/46/41 65/21/42
f 65/21/42 66/22/43 63/45/41
f 67/47/44 66/22/43 65/21/42
f 65/21/42 68/48/44 67/47/44
f 67/47/44 68/48/44 69/23/45
f 69/23/45 70/24/45 67/47/44
f 71/49/46 70/24/45 69/23/45
f 69/23/45 72/50/47 71/49/46
f 71/49/46 72/50/47 27/25/18
f 27/25/18 26/26/18 71/49/46
