# Blender 3.6.18
# www.blender.org
mtllib Mesh.393.mtl
o Bistro_Research_Exterior_paris_building_11_5795
v 4.469063 16.274094 22.159973
v 4.485574 16.384731 22.046265
v 5.341396 16.274090 22.516678
v 5.410613 16.384731 22.424519
v 4.356100 16.168676 22.506962
v 4.449467 16.168694 22.278709
v 5.181341 16.168686 22.844408
v 5.274639 16.168703 22.616140
v 4.483698 16.412001 22.033264
v 4.386866 16.830423 21.989761
v 5.421331 16.412001 22.416586
v 5.521027 16.830429 22.461136
v 4.457253 16.180229 22.252628
v 5.287134 16.180239 22.591984
v 4.197039 16.846439 22.441895
v 5.342597 16.846428 22.910322
v 4.376576 16.846422 22.002867
v 5.519344 16.846428 22.477705
v 5.530429 16.830944 22.482203
v 5.353670 16.830944 22.914848
v 4.185863 16.830931 22.437323
v 4.365387 16.830912 21.998329
v 5.426708 16.396002 22.436115
v 5.248718 16.396006 22.871929
v 5.350179 16.274090 22.537556
v 5.219126 16.274090 22.859852
v 5.296244 16.184284 22.615179
v 5.199545 16.184259 22.851851
v 4.434420 16.184198 22.262794
v 4.337627 16.184179 22.499407
v 4.448192 16.274094 22.168726
v 4.316386 16.274094 22.490715
v 4.466126 16.396000 22.043327
v 4.287753 16.396002 22.478983
vn 0.2612 -0.7056 -0.6588
vn 0.2610 -0.7131 -0.6507
vn 0.2611 -0.7130 -0.6507
vn -0.0039 -1.0000 -0.0039
vn 0.3788 -0.0039 -0.9255
vn 0.3787 -0.0039 -0.9255
vn 0.2699 -0.6925 -0.6690
vn -0.0039 1.0000 -0.0039
vn 0.9262 0.3508 -0.1379
vn 0.6824 0.6902 -0.2407
vn 0.7320 0.6133 0.2968
vn 0.6824 0.6903 -0.2406
vn 0.7320 0.6133 0.2967
vn -0.7339 0.6083 -0.3022
vn -0.5669 0.3479 -0.7467
vn -0.3262 0.6878 -0.6485
vn 0.8945 -0.2561 0.3665
vn 0.8978 -0.2470 0.3646
vn 0.9012 -0.2322 0.3660
vn -0.8952 -0.2463 -0.3714
vn 0.5899 -0.5430 -0.5977
vn 0.7797 -0.4506 -0.4349
vn 0.6986 -0.6596 -0.2771
vn 0.7092 -0.6543 -0.2625
vn 0.5183 -0.8144 -0.2611
vn 0.6455 -0.7629 -0.0352
vn 0.5692 -0.7889 0.2316
vn 0.5691 -0.7890 0.2316
vn 0.4417 -0.8952 -0.0586
vn -0.1908 -0.8138 -0.5490
vn -0.2776 -0.8954 -0.3480
vn -0.5646 -0.7904 -0.2375
vn -0.4312 -0.7653 -0.4778
vn -0.3159 -0.6591 -0.6825
vn -0.3315 -0.6513 -0.6825
vn -0.0117 -0.5429 -0.8397
vn -0.2542 -0.4496 -0.8563
vn 0.7267 -0.3182 -0.6089
vn -0.0972 -0.3148 -0.9442
vn 0.7343 0.3573 -0.5772
vn -0.1212 0.3558 -0.9267
vt -0.886230 0.462402
vt -0.895020 0.427734
vt -0.591797 0.462402
vt -0.583008 0.427734
vt -0.877930 0.576172
vt -0.877930 0.499512
vt -0.599609 0.576172
vt -0.599609 0.499512
vt 1.896484 0.481445
vt 1.929688 0.612061
vt 1.580078 0.481445
vt 1.545898 0.612061
vt 1.878906 0.409180
vt 1.885742 0.438477
vt 1.598633 0.409180
vt 1.591797 0.438477
vt 1.931641 0.576172
vt 1.544922 0.576172
vt 1.931641 0.428223
vt 1.544922 0.430176
vt 0.569824 0.612305
vt 0.569824 0.616943
vt 0.423828 0.612305
vt 0.423828 0.616943
vt 0.575684 0.612305
vt 0.575684 0.616943
vt 0.427734 0.612305
vt 0.427734 0.616943
vt 0.570801 0.476562
vt 0.423828 0.476562
vt 0.532227 0.438477
vt 0.423828 0.438477
vt 0.503418 0.410156
vt 0.423828 0.410156
vt 0.496094 0.410156
vt 0.575684 0.410156
vt 0.467285 0.438477
vt 0.575684 0.438477
vt 0.428955 0.476562
vt 0.575684 0.476562
vt -0.576660 0.429199
vt -0.586914 0.467773
vt -0.598633 0.490723
vt -0.593262 0.496582
vt -0.593262 0.576172
vt -0.878906 0.490723
vt -0.884277 0.576172
vt -0.884277 0.496582
vt -0.891602 0.467773
vt -0.900879 0.429199
vt 1.576172 0.476562
vt 1.583008 0.472656
vt 1.541016 0.612305
vt 1.894531 0.472656
vt 1.544922 0.616943
vt 1.900391 0.476562
vt 1.931641 0.616943
vt 1.935547 0.612305
s 1
usemtl MASTER_Concrete_Plaster
f 1/1/1 2/2/2 3/3/1
f 2/2/2 4/4/3 3/3/1
f 5/5/4 6/6/4 7/7/4
f 6/6/4 8/8/4 7/7/4
f 9/9/5 10/10/6 11/11/5
f 10/10/6 12/12/5 11/11/5
f 13/13/7 1/14/1 14/15/7
f 1/14/1 3/16/1 14/15/7
f 15/17/8 16/18/8 17/19/8
f 16/18/8 18/20/8 17/19/8
f 19/21/9 18/22/10 20/23/11
f 18/22/12 16/24/13 20/23/13
f 21/25/14 15/26/14 22/27/15
f 15/26/14 17/28/16 22/27/15
f 19/21/17 20/23/17 23/29/17
f 20/23/17 24/30/17 23/29/17
f 23/29/17 24/30/17 25/31/17
f 24/30/17 26/32/18 25/31/17
f 25/31/17 26/32/18 27/33/19
f 26/32/18 28/34/19 27/33/19
f 29/35/20 30/36/20 31/37/20
f 30/36/20 32/38/20 31/37/20
f 31/37/20 32/38/20 33/39/20
f 32/38/20 34/40/20 33/39/20
f 33/39/20 34/40/20 22/27/20
f 34/40/20 21/25/20 22/27/20
f 4/4/21 23/41/22 3/3/23
f 23/41/22 25/42/24 3/3/23
f 3/3/23 25/42/24 14/43/25
f 25/42/24 27/44/26 14/43/25
f 28/45/27 7/7/27 27/44/26
f 7/7/28 8/8/29 27/44/26
f 27/44/26 8/8/29 14/43/25
f 13/46/30 14/43/25 8/8/29
f 6/6/31 13/46/30 8/8/29
f 5/5/32 30/47/32 6/6/31
f 30/47/32 29/48/33 6/6/31
f 13/46/30 6/6/31 29/48/33
f 13/46/30 29/48/33 1/1/34
f 29/48/33 31/49/35 1/1/34
f 1/1/34 31/49/35 2/2/36
f 31/49/35 33/50/37 2/2/36
f 11/11/38 23/51/22 4/52/21
f 19/53/9 23/51/22 11/11/38
f 11/11/38 4/52/21 9/9/39
f 12/12/40 19/53/9 11/11/38
f 4/52/21 2/54/36 9/9/39
f 12/12/40 18/55/10 19/53/9
f 33/56/37 9/9/39 2/54/36
f 17/57/16 18/55/10 12/12/40
f 9/9/39 33/56/37 10/10/41
f 10/10/41 17/57/16 12/12/40
f 33/56/37 22/58/15 10/10/41
f 22/58/15 17/57/16 10/10/41
