# Blender 3.6.18
# www.blender.org
mtllib Mesh.1068.mtl
o Bistro_Research_Exterior_Paris_Building_01_paris_buildi_7c95d61
v 2.081551 14.816349 0.817740
v 1.382381 14.816350 2.570593
v 2.009853 14.791323 0.787431
v 1.283108 14.791323 2.609422
v 2.250603 15.219293 2.918935
v 2.222711 15.220208 2.984462
v 3.135410 14.816318 3.271589
v 3.144656 14.791289 3.342139
v 3.814386 14.816318 1.569358
v 3.846062 14.791289 1.583676
v 1.274125 14.797795 2.605824
v 2.001010 14.797796 0.783486
v 1.994637 14.813825 0.780721
v 1.271486 14.813826 2.593700
v 1.280981 14.801702 2.612465
v 1.274541 14.817709 2.609895
v 2.221122 15.230208 2.987827
v 2.221122 15.247679 2.987827
v 3.140283 14.801671 3.354423
v 3.146721 14.817677 3.356992
v 3.153762 14.797760 3.345715
v 3.160208 14.813791 3.348290
v 3.855005 14.797759 1.587659
v 3.861376 14.813790 1.590424
vn 0.2789 -0.9545 0.1060
vn 0.3101 -0.9383 0.1531
vn 0.3079 -0.9392 0.1520
vn 0.3333 -0.9214 0.2000
vn -0.3391 -0.9160 -0.2144
vn -0.4570 -0.8632 -0.2148
vn -0.4165 -0.8836 -0.2141
vn -0.5435 -0.8093 -0.2229
vn -0.5182 -0.8299 -0.2065
vn -0.5182 -0.8299 0.2065
vn -0.7479 -0.5930 -0.2984
vn -0.7445 -0.5964 -0.3001
vn -0.8516 -0.4005 -0.3383
vn -0.3253 -0.1294 0.9367
vn -0.3815 -0.0039 0.9243
vn -0.3900 -0.1851 0.9020
vn -0.3882 -0.4902 0.7804
vn -0.3748 -0.0039 0.9271
vn -0.4581 -0.2858 0.8417
vn 0.1372 -0.8974 0.4193
vn -0.3653 -0.0118 0.9308
vn 0.7427 -0.6012 0.2948
vn 0.8472 -0.4059 0.3428
vn 0.7427 -0.6012 0.2947
vn 0.5075 -0.8379 0.2007
vn 0.8516 -0.4042 0.3336
vt -0.232056 0.030273
vt -0.233398 0.665527
vt -0.259521 0.029785
vt -0.261230 0.689941
vt -0.297852 0.719727
vt -0.641113 0.719238
vt -0.269531 0.694824
vt -0.640625 0.695312
vt -0.989746 0.716553
vt -1.003906 0.695068
vt -1.022461 0.663086
vt -1.037109 0.046387
vt -1.006836 0.683594
vt -1.022461 0.046387
vt -0.265869 0.690430
vt -0.263428 0.029297
vt -0.269287 0.028809
vt -0.269043 0.685059
vt -0.270020 0.691650
vt -0.271240 0.686768
vt -0.640625 0.691895
vt -0.640625 0.686523
vt -1.003906 0.689209
vt -1.001953 0.686768
vt -1.003906 0.683105
vt -0.999023 0.682861
vt -1.017578 0.045898
vt -1.010742 0.045898
s 1
usemtl MASTER_Concrete_Plaster1_BLENDSHADER
f 1/1/1 2/2/2 3/3/1
f 2/2/2 4/4/3 3/3/1
f 2/5/2 5/6/4 4/7/3
f 5/6/4 6/8/4 4/7/3
f 5/6/5 7/9/6 6/8/5
f 7/9/6 8/10/7 6/8/5
f 7/11/6 9/12/8 8/13/7
f 9/12/8 10/14/8 8/13/7
f 3/3/9 4/4/10 11/15/11
f 12/16/12 3/3/9 11/15/11
f 12/16/12 11/15/11 13/17/13
f 11/15/11 14/18/13 13/17/13
f 11/15/11 15/19/14 14/18/13
f 4/7/10 15/19/14 11/15/11
f 15/19/14 16/20/15 14/18/13
f 15/19/14 4/7/10 17/21/16
f 15/19/14 17/21/16 16/20/15
f 4/7/10 6/8/17 17/21/16
f 17/21/16 18/22/18 16/20/15
f 17/21/16 6/8/17 19/23/19
f 17/21/16 19/23/19 18/22/18
f 6/8/17 8/10/20 19/23/19
f 19/23/19 20/24/21 18/22/18
f 19/23/19 21/25/22 20/24/21
f 21/25/22 19/23/19 8/13/20
f 21/25/22 22/26/23 20/24/21
f 21/25/22 8/13/20 23/27/24
f 21/25/22 23/27/24 22/26/23
f 8/13/20 10/14/25 23/27/24
f 23/27/24 24/28/26 22/26/23
