# Blender 3.6.18
# www.blender.org
mtllib Mesh.771.mtl
o Bistro_Research_Exterior_paris_building_04_4989
v 4.894605 26.910925 -19.128407
v 5.149610 27.885246 -18.921915
v 6.089927 26.910925 -20.604734
v 6.344930 27.885242 -20.398237
v 6.317015 32.345654 -17.976582
v 6.054886 31.344130 -18.188845
v 5.404412 32.345654 -16.849436
v 5.142290 31.344128 -17.061699
v 4.237010 27.885241 -17.794767
v 7.250209 31.344130 -19.665171
v 7.512333 32.345654 -19.452909
v 3.982004 26.910925 -18.001261
v 7.915126 26.910927 -22.859024
v 8.170132 27.885242 -22.652533
v 9.110448 26.910927 -24.335350
v 9.365452 27.885244 -24.128857
v 9.337535 32.345657 -21.707199
v 9.075409 31.344131 -21.919462
v 10.270731 31.344131 -23.395788
v 10.532855 32.345657 -23.183529
v 10.935646 26.910931 -26.589643
v 11.190651 27.885248 -26.383152
v 12.130968 26.910927 -28.065969
v 12.385970 27.885244 -27.859472
v 12.358053 32.345657 -25.437819
v 12.095930 31.344137 -25.650082
v 13.291250 31.344139 -27.126410
v 13.553374 32.345657 -26.914146
v 13.956163 26.910927 -30.320263
v 14.211168 27.885244 -30.113771
v 15.151486 26.910925 -31.796589
v 15.406489 27.885241 -31.590094
v 16.064087 26.910929 -32.923740
v 16.319090 27.885248 -32.717239
v 17.224365 31.344133 -31.984171
v 16.311769 31.344130 -30.857025
v 15.378572 32.345654 -29.168436
v 15.116445 31.344133 -29.380703
v 16.573891 32.345654 -30.644768
v 17.487967 32.345657 -31.773739
vn -0.7374 0.3161 -0.5969
vn -0.7374 0.3160 -0.5970
vt 6.128906 -2.291016
vt 6.128906 -1.970703
vt 5.535156 -2.291016
vt 5.535156 -1.970703
vt 6.128906 -0.500000
vt 6.128906 -0.830078
vt 6.582031 -0.500000
vt 6.582031 -0.830078
vt 6.582031 -1.970703
vt 5.535156 -0.830078
vt 5.535156 -0.500000
vt 6.582031 -2.291016
vt 4.628906 -2.291016
vt 4.628906 -1.970703
vt 4.035156 -2.291016
vt 4.035156 -1.970703
vt 4.628906 -0.500000
vt 4.628906 -0.830078
vt 4.035156 -0.830078
vt 4.035156 -0.500000
vt 3.128906 -2.291016
vt 3.128906 -1.970703
vt 2.535156 -2.291016
vt 2.535156 -1.968750
vt 3.128906 -0.500000
vt 3.128906 -0.830078
vt 2.535156 -0.830078
vt 2.535156 -0.500000
vt 1.628906 -2.291016
vt 1.628906 -1.970703
vt 1.035156 -2.291016
vt 1.035156 -1.970703
vt 0.582031 -2.291016
vt 0.582031 -1.970703
vt 0.582520 -0.830078
vt 1.035156 -0.830078
vt 1.628906 -0.500000
vt 1.628906 -0.830078
vt 1.035156 -0.500000
vt 0.581543 -0.500000
vt 2.535156 -1.970703
s 1
usemtl MASTER_Roofing_Shingle_Grey
f 1/1/1 2/2/2 3/3/2
f 2/2/2 4/4/1 3/3/2
f 5/5/2 6/6/2 7/7/2
f 6/6/2 8/8/2 7/7/2
f 8/8/2 6/6/2 9/9/1
f 6/6/2 2/2/2 9/9/1
f 10/10/2 6/6/2 11/11/1
f 6/6/2 5/5/2 11/11/1
f 9/9/1 2/2/2 12/12/2
f 2/2/2 1/1/1 12/12/2
f 13/13/2 14/14/2 15/15/2
f 14/14/2 16/16/2 15/15/2
f 17/17/2 18/18/2 11/11/1
f 18/18/2 10/10/2 11/11/1
f 19/19/2 18/18/2 20/20/2
f 18/18/2 17/17/2 20/20/2
f 18/18/2 14/14/2 10/10/2
f 14/14/2 4/4/1 10/10/2
f 14/14/2 13/13/2 4/4/1
f 13/13/2 3/3/2 4/4/1
f 21/21/2 22/22/1 23/23/2
f 22/22/1 24/24/2 23/23/2
f 25/25/2 26/26/2 20/20/2
f 26/26/2 19/19/2 20/20/2
f 27/27/1 26/26/2 28/28/2
f 26/26/2 25/25/2 28/28/2
f 26/26/2 22/22/1 19/19/2
f 22/22/1 16/16/2 19/19/2
f 22/22/1 21/21/2 16/16/2
f 21/21/2 15/15/2 16/16/2
f 29/29/2 30/30/2 31/31/2
f 30/30/2 32/32/1 31/31/2
f 31/31/2 32/32/1 33/33/2
f 32/32/1 34/34/2 33/33/2
f 34/34/2 32/32/1 35/35/2
f 32/32/1 36/36/2 35/35/2
f 37/37/2 38/38/1 28/28/2
f 38/38/1 27/27/1 28/28/2
f 36/36/2 38/38/1 39/39/2
f 38/38/1 37/37/2 39/39/2
f 35/35/2 36/36/2 40/40/2
f 36/36/2 39/39/2 40/40/2
f 38/38/1 30/30/2 27/27/1
f 30/30/2 24/41/2 27/27/1
f 30/30/2 29/29/2 24/24/2
f 29/29/2 23/23/2 24/24/2
