# Blender 3.6.18
# www.blender.org
mtllib Mesh.1024.mtl
o Bistro_Research_Exterior_Paris_Building_01_paris_buildi_d35333f
v 11.694129 21.482359 6.485185
v 11.788531 21.482359 6.248839
v 11.851886 20.881639 6.274156
v 11.784923 20.881639 6.441808
v 11.796854 20.881577 6.462594
v 11.706040 21.482422 6.505980
v 11.775553 21.418808 6.525315
v 12.033008 21.418808 6.628173
v 12.096710 21.482424 6.662057
v 11.846611 20.944527 6.490819
v 12.060757 20.881577 6.568027
v 12.083723 20.881639 6.561184
v 12.150682 20.881639 6.393545
v 12.214064 21.482359 6.418867
v 12.119670 21.482359 6.655194
v 12.005253 20.944527 6.554198
v 11.991407 20.956329 6.544612
v 12.024230 21.402969 6.617336
v 11.997688 20.962599 6.547958
v 11.863251 20.956327 6.493411
v 11.983442 20.974503 6.525467
v 11.856393 20.962597 6.491508
v 11.882215 20.974504 6.485026
v 11.875364 20.980772 6.483120
v 11.789379 21.402967 6.523509
v 11.976508 20.983931 6.523948
v 11.794329 21.409237 6.526323
v 11.813721 21.388630 6.512571
v 12.018704 21.409239 6.615965
v 11.818676 21.394897 6.515381
v 12.008598 21.394899 6.591259
v 12.014126 21.388630 6.592636
v 11.989720 20.980772 6.528807
v 12.004774 21.380669 6.587843
v 12.000537 21.385473 6.586787
v 11.827599 21.385473 6.517696
v 11.981321 20.988735 6.526507
v 11.823799 21.380667 6.515542
v 11.900534 21.343126 6.586117
v 11.904160 21.335768 6.588557
v 11.896223 21.335768 6.585387
v 11.922165 21.026592 6.543561
v 11.883036 20.988735 6.487241
v 11.914158 21.026592 6.540362
v 11.919362 21.018757 6.538955
v 11.888288 20.983929 6.488702
v 11.870950 20.866962 6.281774
v 11.804675 20.866961 6.447701
v 12.131618 20.866962 6.385927
v 12.065348 20.866964 6.551843
v 12.198411 21.497038 6.412612
v 12.103229 21.497038 6.650913
v 11.804184 21.497038 6.255094
v 11.708996 21.497036 6.493412
vn -0.9223 -0.1129 -0.3697
vn -0.9227 -0.1129 -0.3686
vn -0.9223 -0.1128 -0.3697
vn -0.3717 -0.1291 0.9194
vn -0.3717 -0.1291 0.9193
vn -0.3716 -0.1291 0.9194
vn 0.9238 -0.1140 0.3656
vn 0.9226 -0.1140 0.3685
vn 0.9238 -0.1141 0.3656
vn -0.2941 0.6313 0.7176
vn -0.9254 -0.0117 0.3788
vn 0.4072 -0.0118 0.9133
vn 0.4072 -0.0119 0.9133
vn -0.2624 -0.7167 0.6462
vn -0.2233 -0.8031 0.5524
vn 0.4072 -0.0119 0.9132
vn 0.1143 -0.1538 0.9815
vn -0.2872 0.6492 0.7043
vn 0.1143 -0.1537 0.9815
vn -0.7621 -0.1524 0.6292
vn -0.2873 0.6492 0.7043
vn -0.0047 -1.0000 -0.0019
vn -0.0039 -1.0000 -0.0039
vn -0.0040 -1.0000 -0.0039
vn -0.0047 1.0000 -0.0019
vn -0.0039 1.0000 -0.0039
vt 0.202637 0.280273
vt 0.124939 0.261719
vt 0.168823 0.077148
vt 0.223999 0.089844
vt 0.231567 0.090820
vt 0.210083 0.280762
vt 0.232422 0.261230
vt 0.320068 0.261230
vt 0.342285 0.280762
vt 0.249146 0.110352
vt 0.320801 0.090820
vt 0.328369 0.089844
vt 0.383545 0.077148
vt 0.427490 0.261719
vt 0.349854 0.280273
vt 0.303223 0.110352
vt 0.298096 0.113770
vt 0.316650 0.255859
vt 0.300781 0.115723
vt 0.254150 0.113770
vt 0.293213 0.119629
vt 0.251465 0.115723
vt 0.259033 0.119629
vt 0.257080 0.121582
vt 0.235840 0.255859
vt 0.291260 0.122070
vt 0.238037 0.258301
vt 0.242554 0.250488
vt 0.314453 0.258301
vt 0.244141 0.251953
vt 0.308105 0.251953
vt 0.309814 0.250488
vt 0.295410 0.121582
vt 0.307617 0.248047
vt 0.305664 0.250000
vt 0.246704 0.250000
vt 0.293457 0.123535
vt 0.244873 0.248047
vt 0.276123 0.235352
vt 0.276855 0.234863
vt 0.275391 0.234863
vt 0.277100 0.137695
vt 0.258789 0.123535
vt 0.275391 0.137695
vt 0.276123 0.136230
vt 0.260986 0.122070
vt 0.663574 0.433594
vt 0.671387 0.433594
vt 0.664062 0.491211
vt 0.671875 0.489746
vt 0.670898 0.496582
vt 0.760254 0.433105
vt 0.761230 0.496582
vt 0.760254 0.489746
vt 0.768555 0.433594
vt 0.768066 0.491211
vt 0.706055 0.096680
vt 0.713379 0.096680
vt 0.707031 0.177246
vt 0.713379 0.177246
vt 0.713379 0.183105
vt 0.847168 0.096680
vt 0.847168 0.183105
vt 0.846680 0.177246
vt 0.854492 0.096680
vt 0.853516 0.177246
s 1
usemtl MASTER_Concrete_Smooth
f 1/1/1 2/2/2 3/3/3
f 4/4/3 1/1/1 3/3/3
f 1/1/1 4/4/3 5/5/4
f 6/6/5 1/1/1 5/5/4
f 6/6/5 5/5/4 7/7/5
f 6/6/5 7/7/5 8/8/5
f 9/9/6 6/6/5 8/8/5
f 5/5/4 10/10/5 7/7/5
f 5/5/4 11/11/4 10/10/5
f 11/11/4 12/12/7 9/9/6
f 12/12/7 13/13/8 14/14/7
f 15/15/9 12/12/7 14/14/7
f 12/12/7 15/15/9 9/9/6
f 11/11/4 9/9/6 16/16/6
f 11/11/4 16/16/6 10/10/5
f 9/9/6 8/8/5 16/16/6
f 10/10/5 16/16/6 17/17/10
f 16/16/6 8/8/5 18/18/11
f 16/16/6 19/19/11 17/17/10
f 19/19/11 16/16/6 18/18/11
f 20/20/10 10/10/5 17/17/10
f 17/17/10 19/19/11 21/21/10
f 10/10/5 20/20/10 22/22/12
f 7/7/5 10/10/5 22/22/12
f 20/20/10 17/17/10 23/23/10
f 17/17/10 21/21/10 23/23/10
f 22/22/12 20/20/10 24/24/12
f 20/20/10 23/23/10 24/24/12
f 25/25/13 7/7/5 22/22/12
f 23/23/10 21/21/10 26/26/14
f 7/7/5 25/25/13 27/27/15
f 8/8/5 7/7/5 27/27/15
f 25/25/13 22/22/12 28/28/16
f 22/22/12 24/24/12 28/28/16
f 29/29/15 8/8/5 27/27/15
f 8/8/5 29/29/15 18/18/11
f 27/27/15 25/25/13 30/30/15
f 25/25/13 28/28/16 30/30/15
f 29/29/15 27/27/15 31/31/15
f 27/27/15 30/30/15 31/31/15
f 18/18/11 29/29/15 32/32/11
f 29/29/15 31/31/15 32/32/11
f 18/18/11 32/32/11 33/33/11
f 19/19/11 18/18/11 33/33/11
f 19/19/11 33/33/11 21/21/10
f 21/21/10 33/33/11 26/26/14
f 32/32/11 31/31/15 34/34/17
f 33/33/11 32/32/11 34/34/17
f 31/31/15 30/30/15 35/35/18
f 31/31/15 35/35/18 34/34/17
f 30/30/15 36/36/18 35/35/18
f 30/30/15 28/28/16 36/36/18
f 37/37/19 33/33/11 34/34/17
f 33/33/11 37/37/19 26/26/14
f 28/28/16 38/38/20 36/36/18
f 28/28/16 24/24/12 38/38/20
f 35/35/18 36/36/18 39/39/21
f 36/36/18 38/38/20 39/39/21
f 35/35/18 39/39/21 40/40/19
f 34/34/17 35/35/18 40/40/19
f 38/38/20 41/41/20 39/39/21
f 39/39/21 41/41/20 40/40/19
f 34/34/17 40/40/19 42/42/19
f 40/40/19 41/41/20 42/42/19
f 37/37/19 34/34/17 42/42/19
f 38/38/20 43/43/20 41/41/20
f 24/24/12 43/43/20 38/38/20
f 41/41/20 44/44/20 42/42/19
f 43/43/20 44/44/20 41/41/20
f 37/37/19 42/42/19 45/45/14
f 45/45/14 42/42/19 44/44/20
f 26/26/14 37/37/19 45/45/14
f 43/43/20 46/46/14 44/44/20
f 46/46/14 45/45/14 44/44/20
f 46/46/14 43/43/20 24/24/12
f 46/46/14 26/26/14 45/45/14
f 23/23/10 46/46/14 24/24/12
f 46/46/14 23/23/10 26/26/14
f 3/47/3 47/48/22 4/49/3
f 47/48/22 48/50/23 4/49/3
f 4/49/3 48/50/23 5/51/4
f 47/48/22 49/52/23 48/50/23
f 5/51/4 48/50/23 11/53/4
f 49/52/23 50/54/24 48/50/23
f 48/50/23 50/54/24 11/53/4
f 50/54/24 49/52/23 13/55/8
f 50/54/24 12/56/7 11/53/4
f 12/56/7 50/54/24 13/55/8
f 14/57/7 51/58/25 15/59/9
f 51/58/25 52/60/26 15/59/9
f 9/61/6 15/59/9 52/60/26
f 52/60/26 51/58/25 53/62/26
f 9/61/6 52/60/26 6/63/5
f 54/64/26 52/60/26 53/62/26
f 52/60/26 54/64/26 6/63/5
f 54/64/26 53/62/26 2/65/2
f 6/63/5 54/64/26 1/66/1
f 1/66/1 54/64/26 2/65/2
