# Blender 3.6.18
# www.blender.org
mtllib Mesh.712.mtl
o Bistro_Research_Exterior_paris_building_05_5113
v 26.796926 2.671887 -50.904510
v 27.764194 2.671887 -52.522621
v 26.796926 2.704896 -50.904510
v 27.764194 2.704896 -52.522621
v 26.713411 2.671885 -50.884048
v 27.742676 2.671885 -52.605873
v 26.706816 2.678674 -50.882435
v 27.740974 2.678674 -52.612438
v 27.740974 2.704894 -52.612438
v 26.706816 2.704894 -50.882435
v 28.075377 2.704893 -52.347157
v 27.777937 2.704896 -52.526062
v 28.075377 2.671884 -52.347157
v 27.777937 2.671887 -52.526062
v 28.105848 2.671884 -52.398136
v 27.756428 2.671885 -52.609329
v 27.754730 2.678674 -52.615913
v 28.109331 2.678674 -52.403965
v 28.109331 2.704893 -52.403965
v 27.754730 2.704894 -52.615913
v 27.098812 2.704893 -50.713493
v 27.098812 2.671884 -50.713493
v 26.800404 2.704896 -50.890781
v 26.800404 2.671887 -50.890781
v 27.068336 2.671884 -50.662518
v 26.716869 2.671885 -50.870296
v 27.064852 2.678674 -50.656693
v 26.710278 2.678674 -50.868683
v 27.064852 2.704893 -50.656693
v 26.710278 2.704894 -50.868683
v 27.738079 2.713718 -52.634422
v 26.686083 2.713718 -50.874577
v 27.734957 2.728847 -52.658176
v 26.663685 2.728847 -50.866085
v 26.657429 2.747319 -50.863712
v 27.734081 2.747319 -52.664810
v 26.669514 2.763405 -50.868290
v 27.735771 2.763405 -52.651989
v 26.706816 2.770914 -50.882435
v 27.740974 2.770914 -52.612438
v 26.803478 2.770916 -50.906063
v 27.765926 2.770916 -52.516109
v 26.822132 2.767637 -50.910488
v 27.770861 2.767637 -52.497589
v 26.834648 2.759142 -50.913460
v 27.774174 2.759142 -52.485153
v 26.840946 2.747320 -50.914948
v 27.775843 2.747320 -52.478897
v 26.840431 2.734399 -50.914825
v 27.775707 2.734399 -52.479416
v 26.831160 2.723302 -50.912628
v 27.773251 2.723302 -52.488632
v 26.815609 2.713720 -50.908939
v 27.769138 2.713720 -52.504066
v 28.118237 2.713717 -52.418861
v 27.751833 2.713718 -52.637894
v 28.127939 2.728847 -52.435093
v 27.748713 2.728847 -52.661640
v 28.130615 2.747319 -52.439568
v 27.747839 2.747319 -52.668274
v 27.749527 2.763405 -52.655464
v 28.125370 2.763405 -52.430794
v 27.754730 2.770914 -52.615913
v 28.109331 2.770913 -52.403965
v 27.779669 2.770916 -52.519550
v 28.072905 2.770913 -52.343018
v 27.784597 2.767637 -52.501015
v 28.065851 2.767634 -52.331223
v 27.787901 2.759142 -52.488579
v 28.061123 2.759139 -52.323311
v 27.789568 2.747320 -52.482319
v 28.058741 2.747317 -52.319324
v 28.058937 2.734395 -52.319656
v 27.789431 2.734398 -52.482830
v 28.062441 2.723299 -52.325516
v 27.786980 2.723302 -52.492054
v 28.068316 2.713717 -52.335346
v 27.782875 2.713720 -52.507496
v 27.055948 2.713717 -50.641796
v 26.689547 2.713718 -50.860825
v 27.046242 2.728847 -50.625557
v 26.667145 2.728847 -50.852322
v 27.043568 2.747319 -50.621086
v 26.660891 2.747319 -50.849953
v 26.672977 2.763405 -50.854538
v 27.048811 2.763405 -50.629856
v 26.710278 2.770914 -50.868683
v 27.064852 2.770913 -50.656693
v 26.806955 2.770916 -50.892338
v 27.101288 2.770913 -50.717636
v 26.825619 2.767637 -50.896770
v 27.108341 2.767634 -50.729431
v 26.838137 2.759142 -50.899746
v 27.113071 2.759139 -50.737347
v 26.844439 2.747320 -50.901245
v 27.115452 2.747317 -50.741325
v 27.115257 2.734395 -50.740997
v 26.843922 2.734398 -50.901123
v 27.111753 2.723299 -50.735134
v 26.834644 2.723302 -50.898918
v 27.105877 2.713717 -50.725307
v 26.819094 2.713720 -50.895222
vn -0.0039 -1.0000 -0.0039
vn -0.0040 -1.0000 -0.0039
vn 0.8596 -0.0039 0.5110
vn 0.8596 -0.0040 0.5110
vn -0.8582 -0.0039 -0.5134
vn -0.5226 -0.0039 0.8526
vn 0.0007 -1.0000 -0.0011
vn 0.5075 -0.0040 -0.8616
vn 0.5075 -0.0039 -0.8616
vn 0.5041 -0.0039 -0.8636
vn -0.0017 -1.0000 -0.0026
vn -0.0039 -1.0000 -0.0040
vn -0.5168 -0.0039 0.8561
vn -0.5130 -0.0039 0.8584
vn -0.6124 -0.6983 -0.3706
vn -0.6125 -0.6982 -0.3706
vn -0.8361 -0.2217 -0.5017
vn -0.8362 -0.2217 -0.5017
vn -0.2553 0.9546 -0.1532
vn -0.2554 0.9546 -0.1532
vn -0.0039 1.0000 -0.0039
vn 0.1933 0.9744 0.1144
vn 0.7993 0.3662 0.4765
vn 0.7993 0.3662 0.4764
vn 0.8590 -0.0357 0.5107
vn 0.8590 -0.0356 0.5107
vn 0.7269 -0.5304 0.4362
vn 0.7269 -0.5305 0.4362
vn 0.5451 -0.7726 0.3255
vn 0.4601 -0.8454 0.2713
vn 0.3165 -0.7777 -0.5432
vn 0.4927 -0.2781 -0.8246
vn 0.4896 -0.2781 -0.8264
vn 0.1141 0.9714 -0.2084
vn 0.1140 0.9714 -0.2084
vn -0.1220 0.9720 0.2007
vn -0.1226 0.9720 0.2003
vn -0.3577 0.7273 0.5857
vn -0.3561 0.7273 0.5867
vn -0.5223 -0.0353 0.8521
vn -0.5222 -0.0353 0.8521
vn -0.4443 -0.5229 0.7274
vn -0.3400 -0.7621 0.5510
vn -0.2848 -0.8387 0.4642
vn -0.3263 -0.7823 0.5307
vn -0.4987 -0.2788 0.8207
vn -0.1206 0.9720 0.2015
vn 0.3423 0.7279 -0.5941
vn 0.5038 -0.0352 -0.8631
vn 0.5038 -0.0351 -0.8631
vn 0.4266 -0.5205 -0.7397
vn 0.3246 -0.7627 -0.5593
vn 0.3247 -0.7627 -0.5593
vn 0.2693 -0.8393 -0.4723
vt 0.794434 0.161133
vt 0.205444 0.161133
vt 0.794434 0.150879
vt 0.205444 0.150879
vt 0.794434 0.037109
vt 0.812988 0.056641
vt 0.205444 0.037109
vt 0.186523 0.056641
vt 0.814453 0.059082
vt 0.185059 0.059082
vt 0.185059 0.067383
vt 0.814453 0.067383
vt 0.042969 0.436523
vt 0.150635 0.436523
vt 0.043030 0.447266
vt 0.151245 0.447266
vt 0.154663 0.436035
vt 0.043152 0.465820
vt 0.155273 0.445312
vt 0.170288 0.466309
vt 0.173950 0.463867
vt 0.175537 0.467285
vt 0.171631 0.468750
vt 0.043213 0.468750
vt 0.043365 0.476562
vt 0.172363 0.476562
vt 0.176758 0.475098
vt 0.177979 0.234375
vt 0.177856 0.245117
vt 0.070190 0.234375
vt 0.065613 0.243164
vt 0.066101 0.233887
vt 0.069519 0.245117
vt 0.177734 0.263672
vt 0.046967 0.261719
vt 0.050537 0.264160
vt 0.177612 0.266602
vt 0.049255 0.266602
vt 0.045380 0.265137
vt 0.177490 0.274414
vt 0.044128 0.272949
vt 0.048492 0.274414
vt 0.179565 0.072266
vt 0.820312 0.072266
vt 0.173706 0.079102
vt 0.826172 0.079102
vt 0.827637 0.084961
vt 0.172119 0.084961
vt 0.824707 0.090332
vt 0.175293 0.090332
vt 0.814941 0.098633
vt 0.185059 0.098633
vt 0.792969 0.120605
vt 0.206909 0.120605
vt 0.788574 0.125000
vt 0.211060 0.125000
vt 0.786133 0.128906
vt 0.213867 0.128906
vt 0.784668 0.132812
vt 0.215332 0.132812
vt 0.784668 0.137207
vt 0.215210 0.137207
vt 0.786621 0.141113
vt 0.213135 0.141113
vt 0.790039 0.145996
vt 0.209717 0.145996
vt 0.043274 0.482910
vt 0.176270 0.483398
vt 0.042999 0.490234
vt 0.180054 0.480957
vt 0.180542 0.490723
vt 0.042877 0.496094
vt 0.184448 0.489258
vt 0.181519 0.496094
vt 0.185547 0.496582
vt 0.179443 0.501709
vt 0.042999 0.501953
vt 0.183105 0.503906
vt 0.171997 0.511475
vt 0.043213 0.511963
vt 0.175293 0.514648
vt 0.149902 0.533447
vt 0.043365 0.534180
vt 0.153198 0.536377
vt 0.145752 0.537842
vt 0.043427 0.538574
vt 0.149292 0.540527
vt 0.142822 0.542236
vt 0.043427 0.542480
vt 0.146851 0.543945
vt 0.141479 0.546631
vt 0.043457 0.546631
vt 0.145752 0.547119
vt 0.043457 0.551025
vt 0.141602 0.551025
vt 0.145874 0.550049
vt 0.043396 0.555176
vt 0.143555 0.555420
vt 0.147461 0.553467
vt 0.043335 0.559814
vt 0.147095 0.560303
vt 0.043304 0.564941
vt 0.150635 0.557861
vt 0.151367 0.565430
vt 0.154785 0.562744
vt 0.177612 0.280762
vt 0.040863 0.278809
vt 0.044617 0.281250
vt 0.177856 0.288086
vt 0.036407 0.287109
vt 0.040375 0.288574
vt 0.177979 0.293945
vt 0.035370 0.294434
vt 0.039368 0.293945
vt 0.037781 0.301758
vt 0.041473 0.299805
vt 0.177856 0.299805
vt 0.045624 0.312500
vt 0.048920 0.309570
vt 0.177612 0.310059
vt 0.067688 0.334473
vt 0.070923 0.331543
vt 0.177490 0.332031
vt 0.071655 0.338379
vt 0.075134 0.335938
vt 0.177490 0.336426
vt 0.074036 0.341797
vt 0.078003 0.340332
vt 0.177490 0.340332
vt 0.075134 0.345215
vt 0.079407 0.344727
vt 0.177490 0.344727
vt 0.074951 0.348145
vt 0.177490 0.348633
vt 0.079285 0.349121
vt 0.073364 0.351562
vt 0.177490 0.353027
vt 0.077271 0.353516
vt 0.070190 0.355957
vt 0.177612 0.357910
vt 0.073730 0.358398
vt 0.066101 0.360840
vt 0.177612 0.362793
vt 0.069519 0.363281
s 1
usemtl MASTER_Black_Metal
f 1/1/1 2/2/2 3/3/3
f 2/2/2 4/4/4 3/3/3
f 1/5/1 5/6/1 2/7/2
f 5/6/1 6/8/1 2/7/2
f 6/8/1 5/6/1 7/9/5
f 8/10/5 6/8/1 7/9/5
f 8/10/5 7/9/5 9/11/5
f 7/9/5 10/12/5 9/11/5
f 11/13/6 12/14/6 13/15/1
f 12/14/6 14/16/1 13/15/1
f 12/14/6 4/17/4 14/16/1
f 13/15/1 14/16/1 15/18/7
f 4/17/4 2/19/2 14/16/1
f 14/16/1 2/19/2 16/20/1
f 14/16/1 16/20/1 15/18/7
f 2/19/2 6/21/1 16/20/1
f 6/21/1 8/22/5 16/20/1
f 16/20/1 17/23/8 15/18/7
f 8/22/5 17/23/8 16/20/1
f 17/23/8 18/24/9 15/18/7
f 18/24/9 17/23/8 19/25/9
f 17/23/8 20/26/9 19/25/9
f 17/23/8 8/22/5 20/26/9
f 8/22/5 9/27/5 20/26/9
f 21/28/10 22/29/11 23/30/10
f 1/31/1 3/32/3 23/30/10
f 22/29/11 24/33/12 23/30/10
f 24/33/12 1/31/1 23/30/10
f 22/29/11 25/34/1 24/33/12
f 5/35/1 1/31/1 24/33/12
f 25/34/1 26/36/1 24/33/12
f 26/36/1 5/35/1 24/33/12
f 25/34/1 27/37/13 26/36/1
f 5/35/1 26/36/1 28/38/13
f 27/37/13 28/38/13 26/36/1
f 7/39/5 5/35/1 28/38/13
f 27/37/13 29/40/14 28/38/13
f 7/39/5 28/38/13 10/41/5
f 29/40/14 30/42/13 28/38/13
f 28/38/13 30/42/13 10/41/5
usemtl MASTER_Wood_Brown
f 9/11/5 10/12/5 31/43/15
f 10/12/5 32/44/15 31/43/15
f 31/43/15 32/44/15 33/45/16
f 32/44/15 34/46/15 33/45/16
f 34/46/15 35/47/17 33/45/16
f 35/47/17 36/48/18 33/45/16
f 35/47/17 37/49/19 36/48/18
f 37/49/19 38/50/20 36/48/18
f 37/49/19 39/51/21 38/50/20
f 39/51/21 40/52/21 38/50/20
f 39/51/21 41/53/21 40/52/21
f 41/53/21 42/54/21 40/52/21
f 41/53/21 43/55/22 42/54/21
f 43/55/22 44/56/22 42/54/21
f 43/55/22 45/57/23 44/56/22
f 45/57/23 46/58/24 44/56/22
f 45/57/23 47/59/25 46/58/24
f 47/59/25 48/60/26 46/58/24
f 47/59/25 49/61/27 48/60/26
f 49/61/27 50/62/28 48/60/26
f 49/61/27 51/63/29 50/62/28
f 51/63/29 52/64/29 50/62/28
f 51/63/29 53/65/30 52/64/29
f 53/65/30 54/66/30 52/64/29
f 53/65/30 3/3/3 54/66/30
f 3/3/3 4/4/4 54/66/30
f 19/25/9 20/26/9 55/67/31
f 20/26/9 56/68/31 55/67/31
f 20/26/9 9/27/5 56/68/31
f 55/67/31 56/68/31 57/69/31
f 9/27/5 31/70/15 56/68/31
f 56/68/31 58/71/31 57/69/31
f 56/68/31 31/70/15 58/71/31
f 57/69/31 58/71/31 59/72/32
f 31/70/15 33/73/16 58/71/31
f 58/71/31 33/73/16 60/74/33
f 58/71/31 60/74/33 59/72/32
f 33/73/16 36/75/18 60/74/33
f 59/72/32 60/74/33 61/76/34
f 60/74/33 36/75/18 61/76/34
f 62/77/35 59/72/32 61/76/34
f 36/75/18 38/78/20 61/76/34
f 62/77/35 61/76/34 63/79/21
f 61/76/34 38/78/20 63/79/21
f 64/80/21 62/77/35 63/79/21
f 38/78/20 40/81/21 63/79/21
f 64/80/21 63/79/21 65/82/21
f 63/79/21 40/81/21 65/82/21
f 66/83/21 64/80/21 65/82/21
f 40/81/21 42/84/21 65/82/21
f 66/83/21 65/82/21 67/85/36
f 65/82/21 42/84/21 67/85/36
f 68/86/37 66/83/21 67/85/36
f 42/84/21 44/87/22 67/85/36
f 68/86/37 67/85/36 69/88/38
f 67/85/36 44/87/22 69/88/38
f 70/89/39 68/86/37 69/88/38
f 44/87/22 46/90/24 69/88/38
f 70/89/39 69/88/38 71/91/40
f 69/88/38 46/90/24 71/91/40
f 72/92/41 70/89/39 71/91/40
f 46/90/24 48/93/26 71/91/40
f 72/92/41 71/91/40 73/94/42
f 71/91/40 48/93/26 74/95/42
f 71/91/40 74/95/42 73/94/42
f 48/93/26 50/96/28 74/95/42
f 73/94/42 74/95/42 75/97/43
f 74/95/42 50/96/28 76/98/43
f 74/95/42 76/98/43 75/97/43
f 50/96/28 52/99/29 76/98/43
f 75/97/43 76/98/43 77/100/44
f 76/98/43 52/99/29 78/101/44
f 76/98/43 78/101/44 77/100/44
f 77/100/44 78/101/44 11/102/6
f 52/99/29 54/103/30 78/101/44
f 78/101/44 12/104/6 11/102/6
f 78/101/44 54/103/30 12/104/6
f 54/103/30 4/105/4 12/104/6
f 29/40/14 79/106/45 30/42/13
f 10/41/5 30/42/13 32/107/15
f 79/106/45 80/108/45 30/42/13
f 30/42/13 80/108/45 32/107/15
f 79/106/45 81/109/45 80/108/45
f 32/107/15 80/108/45 34/110/15
f 81/109/45 82/111/45 80/108/45
f 80/108/45 82/111/45 34/110/15
f 81/109/45 83/112/46 82/111/45
f 34/110/15 82/111/45 35/113/17
f 82/111/45 84/114/46 35/113/17
f 83/112/46 84/114/46 82/111/45
f 35/113/17 84/114/46 37/115/19
f 85/116/36 84/114/46 83/112/46
f 84/114/46 85/116/36 37/115/19
f 86/117/47 85/116/36 83/112/46
f 37/115/19 85/116/36 39/118/21
f 87/119/21 85/116/36 86/117/47
f 85/116/36 87/119/21 39/118/21
f 88/120/21 87/119/21 86/117/47
f 39/118/21 87/119/21 41/121/21
f 89/122/21 87/119/21 88/120/21
f 87/119/21 89/122/21 41/121/21
f 90/123/21 89/122/21 88/120/21
f 41/121/21 89/122/21 43/124/22
f 91/125/35 89/122/21 90/123/21
f 89/122/21 91/125/35 43/124/22
f 92/126/35 91/125/35 90/123/21
f 43/124/22 91/125/35 45/127/23
f 93/128/48 91/125/35 92/126/35
f 91/125/35 93/128/48 45/127/23
f 94/129/48 93/128/48 92/126/35
f 45/127/23 93/128/48 47/130/25
f 95/131/49 93/128/48 94/129/48
f 93/128/48 95/131/49 47/130/25
f 96/132/50 95/131/49 94/129/48
f 47/130/25 95/131/49 49/133/27
f 96/132/50 97/134/51 95/131/49
f 95/131/49 98/135/51 49/133/27
f 97/134/51 98/135/51 95/131/49
f 51/136/29 49/133/27 98/135/51
f 97/134/51 99/137/52 98/135/51
f 100/138/53 51/136/29 98/135/51
f 99/137/52 100/138/53 98/135/51
f 53/139/30 51/136/29 100/138/53
f 99/137/52 101/140/54 100/138/53
f 102/141/54 53/139/30 100/138/53
f 101/140/54 102/141/54 100/138/53
f 3/142/3 53/139/30 102/141/54
f 101/140/54 21/143/10 102/141/54
f 23/144/10 3/142/3 102/141/54
f 21/143/10 23/144/10 102/141/54
