# Blender 3.6.18
# www.blender.org
mtllib Mesh.728.mtl
o Bistro_Research_Exterior_paris_building_05_5079
v 28.400072 11.839622 -52.108650
v 28.400070 8.964341 -52.108650
v 27.940401 8.964341 -51.333076
v 27.940399 11.839622 -51.333076
v 27.466553 11.839622 -50.533577
v 27.928911 11.839622 -51.313694
v 27.928917 8.964341 -51.313698
v 27.466553 8.964341 -50.533577
vn -0.8602 -0.0039 -0.5099
vt 0.251221 0.988487
vt 0.251221 0.225098
vt 0.497803 0.225098
vt 0.497803 0.988487
vt 0.249146 0.988487
vt 0.002602 0.988487
vt 0.002602 0.225098
vt 0.249146 0.225098
s 1
usemtl MASTER_Curtains
f 1/1/1 2/2/1 3/3/1
f 3/3/1 4/4/1 1/1/1
f 5/5/1 6/6/1 7/7/1
f 7/7/1 8/8/1 5/5/1
