# Blender 3.6.18
# www.blender.org
mtllib Mesh.362.mtl
o Bistro_Research_Exterior_paris_building_11_5865
v -4.359715 16.416666 26.020271
v -4.476031 16.527302 26.010130
v -4.114543 16.416662 25.420691
v -4.208848 16.527304 25.356716
v -4.013000 16.311247 26.133898
v -4.241256 16.311264 26.040543
v -3.788433 16.311256 25.584709
v -4.016695 16.311274 25.491394
v -4.490083 16.554571 26.014589
v -4.530842 16.783360 26.104805
v -4.216329 16.554571 25.344877
v -4.175272 16.783365 25.253647
v -4.267313 16.322800 26.032694
v -4.040707 16.322809 25.478540
v -4.080177 16.799377 26.298115
v -3.724661 16.799366 25.428682
v -4.519181 16.799360 26.118595
v -4.157280 16.799366 25.251871
v -4.153722 16.784704 25.242958
v -3.721030 16.784702 25.419802
v -4.083832 16.784691 26.307053
v -4.522754 16.784672 26.127563
v -4.197511 16.538572 25.341257
v -3.761731 16.538574 25.519333
v -4.093672 16.416662 25.411921
v -3.771489 16.416662 25.543257
v -4.017402 16.326714 25.469284
v -3.780783 16.326691 25.565996
v -4.257140 16.326796 26.055487
v -4.020514 16.326777 26.152266
v -4.350963 16.416666 26.041138
v -4.028952 16.416664 26.172890
v -4.479290 16.538570 26.030365
v -4.043598 16.538572 26.208649
vn -0.6574 -0.7041 -0.2684
vn -0.6494 -0.7116 -0.2683
vn -0.6493 -0.7116 -0.2683
vn -0.0039 -1.0000 -0.0039
vn -0.9227 -0.0039 -0.3855
vn -0.9227 -0.0039 -0.3854
vn -0.6676 -0.6910 -0.2772
vn -0.0039 1.0000 -0.0039
vn -0.1519 0.2844 -0.9466
vn -0.2386 0.6297 -0.7393
vn 0.3095 0.5445 -0.7796
vn -0.2386 0.6298 -0.7392
vn -0.3185 0.5465 0.7745
vn -0.7735 0.2788 0.5693
vn -0.6892 0.6341 0.3505
vn -0.7734 0.2787 0.5693
vn 0.3406 -0.4032 -0.8494
vn 0.3405 -0.4032 -0.8494
vn 0.3485 -0.3407 -0.8732
vn 0.3565 -0.3095 -0.8815
vn 0.3641 -0.2231 -0.9043
vn 0.3628 -0.2379 -0.9010
vn 0.3563 -0.2624 -0.8968
vn 0.3564 -0.2624 -0.8968
vn -0.3714 -0.2463 0.8952
vn -0.3651 -0.2944 0.8832
vn -0.3642 -0.2780 0.8889
vn -0.3562 -0.3718 0.8572
vn -0.3558 -0.3558 0.8642
vn -0.3497 -0.4048 0.8449
vn -0.5949 -0.5405 -0.5949
vn -0.4249 -0.4794 -0.7679
vn -0.2770 -0.6516 -0.7062
vn -0.2611 -0.6507 -0.7130
vn -0.2621 -0.8177 -0.5125
vn -0.0430 -0.7698 -0.6369
vn 0.2227 -0.7933 -0.5666
vn -0.0430 -0.7697 -0.6369
vn -0.0582 -0.8968 -0.4386
vn -0.5498 -0.8150 0.1832
vn -0.3556 -0.8949 0.2696
vn -0.2390 -0.7875 0.5681
vn -0.4823 -0.7646 0.4274
vn -0.6780 -0.6702 0.3018
vn -0.6825 -0.6591 0.3159
vn -0.8302 -0.5574 -0.0039
vn -0.8364 -0.4940 0.2374
vn -0.6026 -0.3616 -0.7114
vn -0.9224 -0.3775 0.0817
vn -0.6161 0.2865 -0.7338
vn -0.9552 0.2846 0.0818
vt -0.838379 0.462402
vt -0.849121 0.427734
vt -0.635742 0.462402
vt -0.628418 0.427734
vt -0.830078 0.576172
vt -0.830078 0.499512
vt -0.644531 0.576172
vt -0.644531 0.499512
vt 1.851562 0.481445
vt 1.882812 0.552734
vt 1.625977 0.481445
vt 1.594727 0.552734
vt 1.831055 0.409180
vt 1.837891 0.438477
vt 1.643555 0.409180
vt 1.635742 0.438477
vt 1.885742 0.576172
vt 1.591797 0.576172
vt 1.885742 0.428223
vt 1.591797 0.430176
vt 0.569824 0.553223
vt 0.569824 0.557861
vt 0.423828 0.553223
vt 0.423828 0.557861
vt 0.575684 0.553223
vt 0.575684 0.557861
vt 0.427734 0.553223
vt 0.427734 0.557861
vt 0.570801 0.476562
vt 0.423828 0.476562
vt 0.532227 0.438477
vt 0.423828 0.438477
vt 0.503418 0.410156
vt 0.423828 0.410156
vt 0.496094 0.410156
vt 0.575684 0.410156
vt 0.467285 0.438477
vt 0.575684 0.438477
vt 0.428955 0.476562
vt 0.575684 0.476562
vt -0.622559 0.429199
vt -0.630859 0.467773
vt -0.644043 0.490723
vt -0.638184 0.496582
vt -0.638184 0.576172
vt -0.831055 0.490723
vt -0.836426 0.576172
vt -0.836426 0.496582
vt -0.843262 0.467773
vt -0.855469 0.429199
vt 1.622070 0.476562
vt 1.627930 0.472656
vt 1.588867 0.553223
vt 1.848633 0.472656
vt 1.591797 0.557861
vt 1.855469 0.476562
vt 1.885742 0.557861
vt 1.888672 0.553223
s 1
usemtl MASTER_Concrete_Plaster
f 1/1/1 2/2/2 3/3/1
f 2/2/2 4/4/3 3/3/1
f 5/5/4 6/6/4 7/7/4
f 6/6/4 8/8/4 7/7/4
f 9/9/5 10/10/6 11/11/6
f 10/10/6 12/12/6 11/11/6
f 13/13/7 1/14/1 14/15/7
f 1/14/1 3/16/1 14/15/7
f 15/17/8 16/18/8 17/19/8
f 16/18/8 18/20/8 17/19/8
f 19/21/9 18/22/10 20/23/11
f 18/22/12 16/24/11 20/23/11
f 21/25/13 15/26/13 22/27/14
f 15/26/13 17/28/15 22/27/16
f 19/21/17 20/23/18 23/29/19
f 20/23/18 24/30/20 23/29/19
f 23/29/19 24/30/20 25/31/21
f 24/30/20 26/32/22 25/31/21
f 25/31/21 26/32/22 27/33/23
f 26/32/22 28/34/24 27/33/23
f 29/35/25 30/36/25 31/37/26
f 30/36/25 32/38/27 31/37/26
f 31/37/26 32/38/27 33/39/28
f 32/38/27 34/40/29 33/39/28
f 33/39/28 34/40/29 22/27/30
f 34/40/29 21/25/30 22/27/30
f 4/4/31 23/41/32 3/3/33
f 23/41/32 25/42/34 3/3/33
f 3/3/33 25/42/34 14/43/35
f 25/42/34 27/44/36 14/43/35
f 28/45/37 7/7/37 27/44/38
f 7/7/37 8/8/39 27/44/36
f 27/44/36 8/8/39 14/43/35
f 13/46/40 14/43/35 8/8/39
f 6/6/41 13/46/40 8/8/39
f 5/5/42 30/47/42 6/6/41
f 30/47/42 29/48/43 6/6/41
f 13/46/40 6/6/41 29/48/43
f 13/46/40 29/48/43 1/1/44
f 29/48/43 31/49/45 1/1/44
f 1/1/44 31/49/45 2/2/46
f 31/49/45 33/50/47 2/2/46
f 11/11/48 23/51/32 4/52/31
f 19/53/9 23/51/32 11/11/48
f 11/11/48 4/52/31 9/9/49
f 12/12/50 19/53/9 11/11/48
f 4/52/31 2/54/46 9/9/49
f 12/12/50 18/55/10 19/53/9
f 33/56/47 9/9/49 2/54/46
f 17/57/15 18/55/10 12/12/50
f 9/9/49 33/56/47 10/10/51
f 10/10/51 17/57/15 12/12/50
f 33/56/47 22/58/16 10/10/51
f 22/58/16 17/57/15 10/10/51
