# Blender 3.6.18
# www.blender.org
mtllib Mesh.436.mtl
o Bistro_Research_Exterior_paris_building_11_5701
v -5.573256 11.600581 29.949505
v -5.594121 11.616581 29.958258
v -5.576910 11.585893 29.958441
v -5.214108 11.585906 29.071190
v -5.226495 11.616568 29.059212
v -5.217740 11.600568 29.080076
v -5.852795 11.217869 29.671659
v -5.969110 11.328505 29.661516
v -5.607622 11.217865 29.072079
v -5.701927 11.328506 29.008106
v -5.506079 11.112451 29.785286
v -5.734335 11.112469 29.691931
v -5.281512 11.112459 29.236097
v -5.509774 11.112477 29.142782
v -5.760392 11.124003 29.684084
v -5.533785 11.124013 29.129929
v -5.588072 12.352337 29.943443
v -5.232557 12.352323 29.074015
v -6.012268 12.352318 29.769979
v -5.650366 12.352324 28.903255
v -6.018426 11.616563 29.784748
v -6.018434 12.336318 29.784742
v -5.594128 12.336336 29.958254
v -5.573263 12.336336 29.949497
v -5.217746 12.336324 29.080072
v -5.644195 11.616568 28.888496
v -5.226501 12.336323 29.059206
v -5.644201 12.336324 28.888489
v -5.665176 12.336324 28.897202
v -6.027077 12.336318 29.763926
v -6.027070 11.600562 29.763929
v -5.646801 11.585906 28.894348
v -5.690590 11.339775 28.992647
v -5.254810 11.339777 29.170723
v -5.586751 11.217865 29.063311
v -5.264568 11.217865 29.194647
v -5.510480 11.127917 29.120674
v -5.273862 11.127894 29.217384
v -5.750219 11.127999 29.706877
v -5.513593 11.127980 29.803658
v -5.844042 11.217869 29.692526
v -5.522030 11.217869 29.824276
v -5.972369 11.339774 29.681753
v -5.536677 11.339775 29.860037
v -6.015833 11.585875 29.778952
v -5.665170 11.600568 28.897205
v -5.983162 11.355774 29.665977
v -5.709407 11.355775 28.996267
vn 0.5100 0.2095 0.8342
vn 0.0826 -0.0590 0.9948
vn 0.0513 0.0355 0.9981
vn 0.7336 0.0353 -0.6787
vn 0.7545 -0.0665 -0.6529
vn 0.9481 0.2085 -0.2400
vn -0.6574 -0.7041 -0.2684
vn -0.6494 -0.7116 -0.2683
vn -0.0039 -1.0000 -0.0039
vn -0.6676 -0.6910 -0.2772
vn -0.0039 1.0000 -0.0039
vn -0.3815 -0.0039 0.9243
vn 0.9271 -0.0039 0.3748
vn 0.3721 -0.0039 -0.9282
vn -0.2540 0.7541 -0.6056
vn -0.5279 0.4575 -0.7156
vn -0.6068 0.7556 0.2467
vn -0.8798 0.4575 0.1290
vn -0.8960 -0.1682 0.4109
vn -0.7807 -0.1059 0.6159
vn -0.7185 0.4594 0.5222
vn 0.8761 0.4597 -0.1453
vn 0.7117 0.4601 -0.5308
vn 0.3405 -0.4032 -0.8494
vn 0.3485 -0.3407 -0.8732
vn 0.3565 -0.3095 -0.8815
vn 0.3640 -0.2231 -0.9043
vn 0.3627 -0.2379 -0.9010
vn 0.3563 -0.2624 -0.8968
vn 0.3564 -0.2624 -0.8968
vn -0.3714 -0.2463 0.8952
vn -0.3651 -0.2944 0.8832
vn -0.3642 -0.2780 0.8889
vn -0.3562 -0.3719 0.8572
vn -0.3558 -0.3558 0.8642
vn -0.3497 -0.4047 0.8449
vn -0.3498 -0.4048 0.8449
vn 0.5251 0.4620 0.7147
vn 0.2478 0.7592 0.6018
vn 0.1376 0.4602 0.8771
vn -0.5949 -0.5405 -0.5949
vn -0.4159 -0.4781 -0.7736
vn -0.2770 -0.6516 -0.7062
vn -0.2610 -0.6507 -0.7131
vn -0.2621 -0.8177 -0.5125
vn -0.0430 -0.7697 -0.6369
vn 0.2227 -0.7933 -0.5666
vn -0.0582 -0.8967 -0.4387
vn -0.5498 -0.8150 0.1832
vn -0.3556 -0.8949 0.2696
vn -0.2390 -0.7875 0.5681
vn -0.4823 -0.7646 0.4274
vn -0.6780 -0.6702 0.3018
vn -0.6825 -0.6591 0.3159
vn -0.8302 -0.5574 -0.0039
vn -0.8341 -0.4973 0.2388
vn 0.6007 0.7577 -0.2552
vn -0.1367 0.4570 -0.8789
vn -0.3470 -0.1599 -0.9241
vn -0.1132 -0.1054 -0.9880
vn -0.1130 -0.2456 -0.9628
vn -0.7577 -0.2552 0.6007
vn -0.9224 -0.3775 0.0817
vn -0.5959 -0.3700 -0.7127
vn -0.9227 -0.0039 -0.3854
vn -0.9227 -0.0039 -0.3855
vt -0.885742 0.557861
vt -0.890625 0.562744
vt -0.888672 0.553223
vt -0.588867 0.553223
vt -0.586914 0.562744
vt -0.591797 0.557861
vt -0.838379 0.462402
vt -0.849121 0.427734
vt -0.635742 0.462402
vt -0.628418 0.427734
vt -0.830078 0.576172
vt -0.830078 0.499512
vt -0.644531 0.576172
vt -0.644531 0.499512
vt 1.831055 0.409180
vt 1.837891 0.438477
vt 1.643555 0.409180
vt 1.635742 0.438477
vt 1.885742 0.571289
vt 1.591797 0.571289
vt 1.885742 0.428223
vt 1.591797 0.430176
vt 0.427734 0.562744
vt 0.570801 0.562744
vt 0.427734 0.787598
vt 0.570801 0.787720
vt -0.885742 0.787720
vt -0.591797 0.787598
vt 0.428711 0.562744
vt 0.569824 0.562744
vt 0.428711 0.787598
vt 0.569824 0.787598
vt 1.591797 0.792603
vt 1.591797 0.787598
vt 1.885742 0.792603
vt 1.885742 0.787598
vt 1.885742 0.557861
vt 1.890625 0.562744
vt 1.890625 0.787598
vt 0.423828 0.557861
vt 0.423828 0.787598
vt 0.569824 0.553223
vt 0.423828 0.553223
vt 0.570801 0.476562
vt 0.423828 0.476562
vt 0.532227 0.438477
vt 0.423828 0.438477
vt 0.503418 0.410156
vt 0.423828 0.410156
vt 0.496094 0.410156
vt 0.575684 0.410156
vt 0.467285 0.438477
vt 0.575684 0.438477
vt 0.428955 0.476562
vt 0.575684 0.476562
vt 0.427734 0.553223
vt 0.575684 0.553223
vt 0.575684 0.787720
vt 0.570801 0.792603
vt 0.575684 0.557861
vt -0.622559 0.429199
vt -0.630859 0.467773
vt -0.644043 0.490723
vt -0.638184 0.496582
vt -0.638184 0.576172
vt -0.831055 0.490723
vt -0.836426 0.576172
vt -0.836426 0.496582
vt -0.843262 0.467773
vt -0.855469 0.429199
vt 1.885742 0.576172
vt 1.591797 0.576172
vt 1.586914 0.571289
vt 0.428711 0.792603
vt 0.569824 0.792603
vt 0.574707 0.787598
vt 0.574707 0.557861
vt 0.422852 0.557861
vt 1.890625 0.428223
vt 1.885742 0.423340
vt 1.890625 0.571289
vt 1.855469 0.476562
vt 1.888672 0.553223
vt 1.851562 0.481445
vt 1.848633 0.472656
vt 1.627930 0.472656
vt 1.625977 0.481445
vt 1.622070 0.476562
vt 1.588867 0.553223
vt 1.591797 0.557861
s 1
usemtl MASTER_Concrete_Plaster
f 1/1/1 2/2/2 3/3/3
f 4/4/4 5/5/5 6/6/6
f 7/7/7 8/8/8 9/9/7
f 8/8/8 10/10/8 9/9/7
f 11/11/9 12/12/9 13/13/9
f 12/12/9 14/14/9 13/13/9
f 15/15/10 7/16/7 16/17/10
f 7/16/7 9/18/7 16/17/10
f 17/19/11 18/20/11 19/21/11
f 18/20/11 20/22/11 19/21/11
f 21/23/12 2/24/12 22/25/12
f 2/24/12 23/26/12 22/25/12
f 1/1/13 6/6/13 24/27/13
f 6/6/13 25/28/13 24/27/13
f 5/29/14 26/30/14 27/31/14
f 26/30/14 28/32/14 27/31/14
f 20/33/15 29/34/16 19/35/17
f 29/34/16 30/36/18 19/35/17
f 31/37/19 21/38/20 30/36/18
f 21/38/20 22/39/21 30/36/18
f 6/40/6 5/29/5 25/41/22
f 5/29/5 27/31/23 25/41/22
f 32/42/24 4/43/24 33/44/25
f 4/43/24 34/45/26 33/44/25
f 33/44/25 34/45/26 35/46/27
f 34/45/26 36/47/28 35/46/27
f 35/46/27 36/47/28 37/48/29
f 36/47/28 38/49/30 37/48/29
f 39/50/31 40/51/31 41/52/32
f 40/51/31 42/53/33 41/52/32
f 41/52/32 42/53/33 43/54/34
f 42/53/33 44/55/35 43/54/34
f 43/54/34 44/55/35 45/56/36
f 44/55/35 3/57/37 45/56/36
f 24/58/38 17/59/39 23/26/40
f 1/60/1 24/58/38 23/26/40
f 2/24/2 1/60/1 23/26/40
f 10/10/41 33/61/42 9/9/43
f 33/61/42 35/62/44 9/9/43
f 9/9/43 35/62/44 16/63/45
f 35/62/44 37/64/46 16/63/45
f 38/65/47 13/13/47 37/64/46
f 13/13/47 14/14/48 37/64/46
f 37/64/46 14/14/48 16/63/45
f 15/66/49 16/63/45 14/14/48
f 12/12/50 15/66/49 14/14/48
f 11/11/51 40/67/51 12/12/50
f 40/67/51 39/68/52 12/12/50
f 15/66/49 12/12/50 39/68/52
f 15/66/49 39/68/52 7/7/53
f 39/68/52 41/69/54 7/7/53
f 7/7/53 41/69/54 8/8/55
f 41/69/54 43/70/56 8/8/55
f 17/19/39 24/71/38 18/20/57
f 24/71/38 25/72/22 18/20/57
f 27/73/23 18/20/57 25/72/22
f 18/74/57 27/31/23 20/75/15
f 27/31/23 28/32/58 20/75/15
f 29/76/16 20/75/15 28/32/58
f 46/77/59 29/76/16 28/32/58
f 26/30/60 46/77/59 28/32/58
f 46/77/59 26/30/60 32/42/61
f 4/43/4 32/42/61 26/30/60
f 5/29/5 4/43/4 26/30/60
f 45/56/62 21/23/20 31/78/19
f 21/23/20 45/56/62 2/24/2
f 45/56/62 3/57/3 2/24/2
f 22/79/21 19/21/17 30/80/18
f 19/21/17 22/79/21 17/19/39
f 22/79/21 23/81/40 17/19/39
f 43/82/56 45/83/62 31/37/19
f 47/84/63 43/82/56 31/37/19
f 43/82/56 47/84/63 8/85/55
f 10/86/41 8/85/55 47/84/63
f 48/87/64 10/86/41 47/84/63
f 48/87/64 33/88/42 10/86/41
f 32/89/61 33/88/42 48/87/64
f 46/90/59 32/89/61 48/87/64
f 47/84/65 31/37/66 48/87/65
f 31/37/66 46/90/65 48/87/65
f 46/90/65 31/37/66 29/34/65
f 31/37/66 30/36/65 29/34/65
