# Blender 3.6.18
# www.blender.org
mtllib Mesh.668.mtl
o Bistro_Research_Exterior_paris_building_05_26__5205
v 35.970505 11.839619 15.215878
v 35.970505 8.964338 15.215878
v 36.808037 8.964338 15.549584
v 36.808037 11.839619 15.549584
v 37.671402 11.839619 15.893585
v 36.828968 11.839619 15.557922
v 36.828968 8.964338 15.557921
v 37.671402 8.964338 15.893582
vn -0.3748 -0.0039 0.9271
vt 0.251221 0.988487
vt 0.251221 0.225098
vt 0.497803 0.225098
vt 0.497803 0.988487
vt 0.249146 0.988487
vt 0.002602 0.988487
vt 0.002602 0.225098
vt 0.249146 0.225098
s 1
usemtl MASTER_Curtains
f 1/1/1 2/2/1 3/3/1
f 3/3/1 4/4/1 1/1/1
f 5/5/1 6/6/1 7/7/1
f 7/7/1 8/8/1 5/5/1
