# Blender 3.6.18
# www.blender.org
mtllib Mesh.873.mtl
o Bistro_Research_Exterior_Paris_Building_01_paris_buildi_5c13c49
v 2.621526 1.834417 -14.323317
v 2.621532 4.245417 -14.323314
v 2.677860 1.834418 -14.292943
v 2.677865 4.245417 -14.292939
v 2.227180 1.834418 -13.457035
v 2.227187 4.715295 -13.457032
v 2.170846 1.834417 -13.487408
v 2.170853 4.715295 -13.487404
v 3.632452 4.245416 -16.198339
v 3.688786 4.245416 -16.167963
v 4.175857 4.715295 -17.071367
v 4.119523 4.715295 -17.101742
v 3.632446 1.879631 -16.198339
v 3.688780 1.879631 -16.167967
v 4.175851 1.879631 -17.071371
v 4.119517 1.879631 -17.101744
vn 0.4736 -0.0039 -0.8807
vn -0.4830 -0.0039 0.8756
vn -0.0039 -1.0000 -0.0039
vn -0.0039 1.0000 -0.0039
vn -0.8774 -0.0039 -0.4797
vn 0.8789 -0.0039 0.4769
vt 0.596680 0.695801
vt -0.156616 0.695801
vt 0.596680 0.675781
vt -0.156616 0.675781
vt 0.403076 0.675781
vt 1.302734 0.675781
vt 0.403076 0.695801
vt 1.302734 0.695801
vt 0.831055 0.695801
vt 0.165527 0.695801
vt 0.831055 0.675781
vt 0.165527 0.675781
vt -0.128052 0.675781
vt 1.154297 0.675781
vt -0.128052 0.695801
vt 1.154297 0.695801
vt 1.156250 0.695801
vt 0.417236 0.695801
vt 1.156250 0.675781
vt 0.417236 0.675781
vt -0.303467 0.675781
vt 0.582520 0.675781
vt -0.303467 0.695801
vt 0.582520 0.695801
vt 1.127930 0.695801
vt 1.127930 0.675781
vt -0.155029 0.695801
vt -0.155029 0.675781
vt -0.141479 -0.302734
vt 0.179077 -0.302734
vt 0.179077 0.436523
vt -0.141479 0.583496
vt 0.844727 0.436523
vt 1.140625 0.583496
vt 0.844727 -0.316406
vt 1.140625 -0.316406
vt 0.820801 0.404297
vt 1.140625 0.404297
vt 1.140625 1.289795
vt 0.820801 1.143066
vt -0.141479 1.289795
vt 0.155151 1.143066
vt -0.141479 0.390137
vt 0.155151 0.390137
s 1
usemtl MASTER_Wood_Painted3
f 1/1/1 2/2/1 3/3/1
f 2/2/1 4/4/1 3/3/1
f 5/5/2 6/6/2 7/7/2
f 6/6/2 8/8/2 7/7/2
f 2/9/3 9/10/3 4/11/3
f 9/10/3 10/12/3 4/11/3
f 6/13/4 11/14/4 8/15/4
f 11/14/4 12/16/4 8/15/4
f 9/17/2 13/18/2 10/19/2
f 13/18/2 14/20/2 10/19/2
f 11/21/1 15/22/1 12/23/1
f 15/22/1 16/24/1 12/23/1
f 1/9/3 3/11/3 7/25/3
f 3/11/3 5/26/3 7/25/3
f 14/12/3 13/10/3 16/27/3
f 15/28/3 14/12/3 16/27/3
f 16/29/5 13/30/5 9/31/5
f 12/32/5 16/29/5 9/31/5
f 12/32/5 9/31/5 2/33/5
f 8/34/5 12/32/5 2/33/5
f 8/34/5 2/33/5 1/35/5
f 7/36/5 8/34/5 1/35/5
f 14/37/6 15/38/6 11/39/6
f 10/40/6 14/37/6 11/39/6
f 10/40/6 11/39/6 6/41/6
f 4/42/6 10/40/6 6/41/6
f 4/42/6 6/41/6 5/43/6
f 3/44/6 4/42/6 5/43/6
