# Blender 3.6.18
# www.blender.org
mtllib Mesh.562.mtl
o Bistro_Research_Exterior_Paris_Building_08_paris_buildi_0bd4373
v 31.939928 3.578719 -64.666222
v 33.076660 3.578719 -63.211250
v 31.939930 7.168529 -64.666222
v 33.076664 7.168529 -63.211243
v 33.062519 3.568639 -63.212978
v 31.938190 3.568639 -64.652069
v 33.035381 3.568639 -63.191784
v 31.911060 3.568639 -64.630867
v 31.946135 3.495172 -64.658279
v 33.070457 3.495172 -63.219189
v 31.911060 3.495172 -64.630867
v 33.035381 3.495172 -63.191784
v 30.649725 11.544517 -57.570663
v 30.608130 11.544517 -57.591854
v 30.649725 11.571170 -57.570663
v 30.602057 11.571170 -57.594952
v 30.649725 11.597823 -57.570663
v 30.608130 11.597823 -57.591854
v 30.147942 10.716825 -65.908989
v 30.111155 10.716825 -65.880249
v 30.147942 10.743479 -65.908989
v 30.105780 10.743479 -65.876053
v 30.147942 10.770132 -65.908989
v 30.111155 10.770132 -65.880249
v 30.979969 9.312916 -64.855225
v 30.943186 9.312916 -64.826492
v 30.979969 9.339569 -64.855225
v 30.937811 9.339569 -64.822289
v 30.979969 9.366222 -64.855225
v 30.943186 9.366222 -64.826492
v 32.144173 9.573855 -60.527752
v 32.102577 9.573855 -60.548946
v 32.144173 9.600509 -60.527752
v 32.096500 9.600509 -60.552040
v 32.144173 9.627162 -60.527752
v 32.102577 9.627162 -60.548946
v 29.419292 11.064240 -55.155800
v 29.377699 11.064240 -55.176991
v 29.419292 11.090894 -55.155800
v 29.371620 11.090894 -55.180092
v 29.419292 11.117547 -55.155800
v 29.377699 11.117547 -55.176991
v 31.795851 3.343200 -64.813454
v 31.759064 3.343200 -64.784721
v 31.795851 3.316546 -64.813454
v 31.753695 3.316546 -64.780518
v 31.795851 3.289892 -64.813454
v 31.759064 3.289892 -64.784721
v 30.659115 3.289893 -66.268402
v 30.622334 3.289893 -66.239670
v 30.659115 3.316546 -66.268402
v 30.616959 3.316546 -66.235466
v 30.659115 3.343200 -66.268402
v 30.622334 3.343200 -66.239670
v 31.901228 3.504963 -64.623192
v 33.025551 3.504963 -63.184105
v 31.896032 3.531906 -64.619133
v 33.020355 3.531905 -63.180046
v 31.901228 3.558848 -64.623192
v 33.025551 3.558848 -63.184105
v 33.076660 3.558559 -63.211250
v 33.039875 3.558559 -63.182510
v 33.076660 3.531905 -63.211250
v 33.034504 3.531905 -63.178307
v 33.076660 3.505252 -63.211250
v 33.039875 3.505252 -63.182510
v 31.939928 3.505252 -64.666222
v 31.903143 3.505252 -64.637482
v 31.939928 3.531906 -64.666222
v 31.897772 3.531906 -64.633278
v 31.939928 3.558559 -64.666222
v 31.903143 3.558559 -64.637482
v 30.008434 11.612608 -56.312065
v 29.966841 11.612608 -56.333256
v 30.008434 11.639261 -56.312065
v 29.960768 11.639261 -56.336353
v 30.008434 11.665915 -56.312065
v 29.966841 11.665915 -56.333256
v 31.540228 10.460151 -59.318382
v 31.498636 10.460151 -59.339573
v 31.540228 10.486804 -59.318382
v 31.492559 10.486804 -59.342663
v 31.540228 10.513457 -59.318382
v 31.498636 10.513457 -59.339573
v 31.874472 9.573856 -63.772324
v 31.837688 9.573856 -63.743587
v 31.874472 9.600510 -63.772324
v 31.832314 9.600510 -63.739391
v 31.874472 9.627163 -63.772324
v 31.837688 9.627163 -63.743587
v 30.097868 11.617983 -56.487579
v 30.097868 15.207795 -56.487579
v 30.649725 15.207795 -57.570663
v 30.649725 11.617983 -57.570663
v 30.088888 11.607903 -56.492165
v 30.636168 11.607903 -57.566257
v 30.058208 11.607903 -56.507793
v 30.605488 11.607903 -57.581890
v 30.047091 11.598112 -56.513454
v 30.594370 11.598112 -57.587555
v 30.041218 11.571170 -56.516457
v 30.588499 11.571170 -57.590542
v 30.047092 11.544227 -56.513454
v 30.594370 11.544227 -57.587555
v 30.605488 11.534436 -57.581890
v 30.058208 11.534436 -56.507793
v 30.097868 11.534436 -56.487579
v 30.645147 11.534436 -57.561680
v 30.896318 10.790292 -64.951118
v 30.896318 14.380102 -64.951118
v 30.147940 14.380102 -65.908989
v 30.147942 10.790293 -65.908989
v 30.888374 10.780211 -64.944901
v 30.146204 10.780212 -65.894836
v 30.861240 10.780211 -64.923714
v 30.119070 10.780212 -65.873642
v 30.851412 10.770420 -64.916023
v 30.109240 10.770421 -65.865967
v 30.846214 10.743478 -64.911972
v 30.104042 10.743479 -65.861900
v 30.851412 10.716536 -64.916023
v 30.109240 10.716537 -65.865967
v 30.119070 10.706746 -65.873642
v 30.861240 10.706744 -64.923714
v 30.896318 10.706744 -64.951118
v 30.154146 10.706746 -65.901039
v 31.728350 9.386381 -63.897350
v 31.728346 12.976192 -63.897350
v 30.979971 12.976192 -64.855225
v 30.979969 9.386382 -64.855225
v 31.720406 9.376301 -63.891144
v 30.978231 9.376302 -64.841080
v 31.693272 9.376301 -63.869946
v 30.951101 9.376302 -64.819878
v 31.683439 9.366510 -63.862267
v 30.941267 9.366511 -64.812202
v 31.678246 9.339568 -63.858208
v 30.936073 9.339569 -64.808136
v 31.683443 9.312626 -63.862267
v 30.941267 9.312627 -64.812202
v 30.951101 9.302835 -64.819878
v 31.693272 9.302835 -63.869946
v 31.728350 9.302835 -63.897350
v 30.986177 9.302835 -64.847282
v 31.592314 9.647322 -59.444675
v 31.592314 13.237132 -59.444675
v 32.144173 13.237132 -60.527752
v 32.144173 9.647322 -60.527752
v 31.583334 9.637241 -59.449249
v 32.130611 9.637241 -60.523346
v 31.552654 9.637241 -59.464886
v 32.099934 9.637241 -60.538975
v 31.541538 9.627451 -59.470543
v 32.088818 9.627451 -60.544647
v 31.535664 9.600509 -59.473537
v 32.082943 9.600509 -60.547634
v 31.541538 9.573565 -59.470543
v 32.088818 9.573565 -60.544647
v 32.099934 9.563775 -60.538975
v 31.552654 9.563775 -59.464882
v 31.592314 9.563775 -59.444675
v 32.139595 9.563775 -60.518772
v 28.867437 11.137708 -54.072720
v 28.867435 14.727518 -54.072720
v 29.419291 14.727518 -55.155800
v 29.419292 11.137708 -55.155800
v 28.858454 11.127627 -54.077297
v 29.405733 11.127627 -55.151402
v 28.827774 11.127627 -54.092930
v 29.375053 11.127627 -55.167027
v 28.816660 11.117836 -54.098591
v 29.363939 11.117836 -55.172691
v 28.810787 11.090894 -54.101585
v 29.358067 11.090894 -55.175690
v 28.816660 11.063951 -54.098591
v 29.363939 11.063951 -55.172691
v 29.375053 11.054161 -55.167027
v 28.827774 11.054161 -54.092930
v 28.867437 11.054161 -54.072720
v 29.414717 11.054161 -55.146816
v 29.456581 11.686075 -55.228985
v 29.456581 15.275886 -55.228989
v 30.008434 15.275886 -56.312065
v 30.008434 11.686075 -56.312065
v 29.447599 11.675995 -55.233559
v 29.994879 11.675995 -56.307663
v 29.416920 11.675995 -55.249195
v 29.964199 11.675995 -56.323288
v 29.405806 11.666203 -55.254852
v 29.953083 11.666203 -56.328953
v 29.399931 11.639261 -55.257847
v 29.947208 11.639261 -56.331947
v 29.405804 11.612319 -55.254852
v 29.953083 11.612319 -56.328953
v 29.964199 11.602528 -56.323288
v 29.416920 11.602528 -55.249195
v 29.456581 11.602528 -55.228985
v 30.003860 11.602528 -56.303082
v 30.988373 10.533618 -58.235298
v 30.988373 14.123428 -58.235298
v 31.540228 14.123428 -59.318382
v 31.540228 10.533618 -59.318382
v 30.979389 10.523538 -58.239872
v 31.526672 10.523538 -59.313969
v 30.948711 10.523538 -58.255512
v 31.495995 10.523538 -59.329605
v 30.937597 10.513746 -58.261173
v 31.484875 10.513746 -59.335270
v 30.931723 10.486804 -58.264164
v 31.479002 10.486804 -59.338257
v 30.937597 10.459862 -58.261173
v 31.484875 10.459862 -59.335270
v 31.495995 10.450070 -59.329605
v 30.948711 10.450070 -58.255512
v 30.988373 10.450070 -58.235298
v 31.535650 10.450070 -59.309399
v 32.622852 9.647323 -62.814442
v 32.622849 13.237133 -62.814442
v 31.874474 13.237133 -63.772324
v 31.874472 9.647323 -63.772324
v 32.614906 9.637242 -62.808247
v 31.872736 9.637242 -63.758175
v 32.587776 9.637242 -62.787045
v 31.845602 9.637242 -63.736977
v 32.577942 9.627452 -62.779362
v 31.835772 9.627452 -63.729294
v 32.572750 9.600510 -62.775299
v 31.830578 9.600510 -63.725239
v 32.577942 9.573566 -62.779362
v 31.835772 9.573566 -63.729294
v 31.845606 9.563776 -63.736977
v 32.587776 9.563776 -62.787045
v 32.622852 9.563776 -62.814442
v 31.880678 9.563776 -63.764381
v 31.795851 3.363360 -64.813454
v 31.795853 6.953170 -64.813454
v 30.659117 6.953170 -66.268402
v 30.659115 3.363360 -66.268402
v 30.657379 3.353280 -66.254250
v 31.781702 3.353280 -64.815193
v 30.630247 3.353280 -66.233055
v 31.754570 3.353280 -64.793999
v 30.620415 3.343489 -66.225380
v 31.744740 3.343489 -64.786308
v 30.615221 3.316546 -66.221313
v 31.739542 3.316546 -64.782249
v 30.620415 3.289604 -66.225380
v 31.744740 3.289604 -64.786308
v 30.630247 3.279813 -66.233055
v 30.665319 3.279813 -66.260468
v 31.789646 3.279813 -64.821404
v 31.754570 3.279813 -64.793999
vn -0.7919 -0.0039 0.6107
vn -0.0039 1.0000 -0.0039
vn -0.0039 -1.0000 -0.0039
vn 0.4107 -0.3873 -0.8254
vn 0.1135 -0.3951 -0.9116
vn 0.4488 -0.0039 -0.8936
vn 0.0274 -0.0039 -0.9996
vn 0.2304 0.2148 -0.9491
vn 0.1138 0.3885 -0.9144
vn -0.5706 -0.3843 -0.7258
vn -0.7750 -0.3933 -0.4946
vn -0.6156 -0.0039 -0.7881
vn -0.8936 -0.0039 -0.4488
vn -0.7608 0.2146 -0.6125
vn -0.7774 0.3868 -0.4961
vn -0.5706 -0.3842 -0.7258
vn -0.7750 -0.3933 -0.4947
vn 0.4129 0.2163 0.8847
vn 0.2886 0.3914 0.8738
vn 0.6145 -0.0040 0.7889
vn 0.2173 -0.0039 0.9761
vn 0.5685 -0.3881 0.7254
vn 0.2877 -0.3981 0.8711
vn -0.7774 0.3867 -0.4961
vn -0.7707 -0.2387 0.5908
vn -0.7722 0.2312 0.5919
vn 0.6145 -0.0039 0.7889
vn -0.6156 -0.0040 -0.7881
vn 0.4108 -0.3873 -0.8254
vn 0.1134 -0.3952 -0.9116
vn -0.8252 0.3794 -0.4185
vn -0.8905 -0.0039 -0.4550
vn -0.7467 0.2151 -0.6294
vn -0.3417 0.9230 -0.1767
vn -0.1840 0.8025 -0.5676
vn -0.2937 0.9436 -0.1527
vn -0.1062 0.8933 -0.4368
vn -0.7489 0.5372 -0.3881
vn -0.5649 0.4870 -0.6662
vn -0.6588 -0.0039 -0.7523
vn -0.7457 -0.5427 -0.3865
vn -0.5627 -0.4928 -0.6636
vn -0.1055 -0.8948 -0.4337
vn -0.2915 -0.9445 -0.1516
vn 0.1679 -0.9254 -0.3397
vn -0.7312 0.3793 0.5670
vn -0.8864 0.2148 0.4100
vn -0.3029 0.9243 0.2321
vn -0.5914 0.8029 -0.0744
vn -0.2624 0.9440 0.1998
vn -0.4371 0.8940 -0.0984
vn -0.6655 0.5395 0.5158
vn -0.8427 0.4899 0.2234
vn -0.7919 -0.0040 0.6106
vn -0.9605 -0.0039 0.2783
vn -0.6627 -0.5450 0.5136
vn -0.8394 -0.4958 0.2226
vn -0.4341 -0.8956 -0.0977
vn -0.2605 -0.9449 0.1983
vn -0.2377 -0.9238 -0.3002
vn -0.2625 0.9440 0.1998
vn -0.4372 0.8940 -0.0985
vn -0.6655 0.5395 0.5159
vn -0.6627 -0.5450 0.5137
vn -0.8394 -0.4959 0.2225
vn -0.4341 -0.8956 -0.0978
vn -0.2377 -0.9238 -0.3001
vn -0.7467 0.2150 -0.6294
vn -0.1063 0.8933 -0.4368
vn -0.7489 0.5371 -0.3882
vn -0.5627 -0.4929 -0.6636
vn -0.1055 -0.8948 -0.4338
vn -0.5628 -0.4928 -0.6636
vn -0.4371 0.8940 -0.0985
vn 0.4355 -0.7101 0.5532
vn -0.0275 -0.8048 0.5929
vn 0.4355 -0.7102 0.5532
vn 0.0980 -0.5529 0.8274
vn -0.0275 -0.8049 0.5928
vn -0.2698 -0.5670 0.7782
vn -0.5830 -0.8021 -0.1291
vn -0.1216 -0.0039 0.9926
vn -0.8223 -0.5651 0.0662
vn -0.2710 0.5617 0.7817
vn 0.0985 0.5475 0.8310
vn -0.7781 -0.5513 -0.3011
vn -0.4399 -0.7047 -0.5567
vn -0.4399 -0.7046 -0.5567
vn -0.9916 -0.0039 -0.1293
vn -0.7814 0.5458 -0.3024
vn -0.8260 0.5598 0.0665
vn -0.5867 0.7993 -0.1300
vn -0.8255 0.4030 -0.3952
vn -0.0277 0.8021 0.5966
vn -0.7380 0.6677 -0.0976
vn -0.0982 0.6716 0.7344
vn -0.8255 0.4030 -0.3951
vn -0.8977 0.4038 0.1764
vn 0.1776 0.4066 0.8962
vn -0.3977 0.4056 0.8230
vn -0.6162 0.2159 0.7575
vn -0.0747 0.8066 0.5863
vn -0.0198 0.8982 0.4392
vn -0.4347 0.4896 0.7559
vn -0.5133 -0.0039 0.8582
vn -0.4330 -0.4955 0.7530
vn -0.4341 -0.8955 -0.0978
vn -0.2378 -0.9238 -0.3001
vn 0.2309 -0.9276 0.2936
vn -0.0197 -0.8997 0.4361
vt 0.388916 0.732910
vt 0.387207 0.388184
vt 0.695801 0.732910
vt 0.695801 0.388184
vt 0.386475 0.389648
vt 0.388184 0.730957
vt 0.385010 0.389648
vt 0.386719 0.730957
vt 0.381348 0.730957
vt 0.379395 0.389648
vt 0.383057 0.730713
vt 0.381348 0.389648
vt 0.556641 0.616943
vt 0.556641 0.629395
vt 0.549805 0.616943
vt 0.549805 0.631348
vt 0.542969 0.616943
vt 0.542969 0.629395
vt 0.532715 0.616943
vt 0.532715 0.629395
vt 0.525879 0.616943
vt 0.525879 0.631348
vt 0.519531 0.616943
vt 0.519531 0.629395
vt 0.383789 0.730713
vt 0.382080 0.389648
vt 0.385010 0.730713
vt 0.383057 0.389648
vt 0.385986 0.730713
vt 0.384277 0.389648
vt 0.511719 0.616211
vt 0.511719 0.628662
vt 0.504883 0.616211
vt 0.504883 0.630371
vt 0.498535 0.616211
vt 0.498535 0.628662
vt 0.495117 0.616211
vt 0.495117 0.628662
vt 0.488525 0.616211
vt 0.488525 0.630371
vt 0.481689 0.616211
vt 0.481689 0.628662
vt 0.372559 0.678467
vt 0.046875 0.678223
vt 0.046875 0.449707
vt 0.371338 0.450195
vt 0.373291 0.678467
vt 0.372070 0.451660
vt 0.371826 0.448242
vt 0.375000 0.678223
vt 0.373779 0.451660
vt 0.374023 0.449219
vt 0.375488 0.678223
vt 0.374268 0.451660
vt 0.376709 0.678223
vt 0.375488 0.451660
vt 0.375488 0.449219
vt 0.377930 0.678223
vt 0.376709 0.451660
vt 0.377197 0.449219
vt 0.377441 0.451660
vt 0.378662 0.678223
vt 0.380615 0.678223
vt 0.379395 0.451660
vt 0.379395 0.448730
vt 0.379639 0.386719
vt 0.381836 0.386719
vt 0.383057 0.386719
vt 0.384521 0.386719
vt 0.383545 0.733154
vt 0.381348 0.733643
vt 0.385010 0.733398
vt 0.386230 0.733154
vt 0.388428 0.734619
vt 0.386719 0.386719
vt 0.373047 0.796875
vt 0.046875 0.796875
vt 0.374023 0.795410
vt 0.373779 0.798828
vt 0.375977 0.797363
vt 0.375488 0.794922
vt 0.376221 0.794922
vt 0.377441 0.797607
vt 0.377441 0.795044
vt 0.378906 0.797363
vt 0.378662 0.794922
vt 0.381348 0.795044
vt 0.379150 0.794922
vt 0.381104 0.797852
s 1
usemtl MASTER_Awning_Fabric_Cyan
f 1/1/1 2/2/1 3/3/1
f 2/2/1 4/4/1 3/3/1
f 5/5/2 6/6/2 7/7/2
f 6/6/2 8/8/2 7/7/2
f 9/9/3 10/10/3 11/11/3
f 10/10/3 12/12/3 11/11/3
f 13/13/4 14/14/5 15/15/6
f 14/14/5 16/16/7 15/15/6
f 15/15/6 16/16/7 17/17/8
f 16/16/7 18/18/9 17/17/8
f 19/13/10 20/14/11 21/15/12
f 20/14/11 22/16/13 21/15/12
f 21/15/12 22/16/13 23/17/14
f 22/16/13 24/18/15 23/17/14
f 25/13/16 26/14/17 27/15/12
f 26/14/17 28/16/13 27/15/12
f 27/15/12 28/16/13 29/17/14
f 28/16/13 30/18/15 29/17/14
f 31/13/4 32/14/5 33/15/6
f 32/14/5 34/16/7 33/15/6
f 33/15/6 34/16/7 35/17/8
f 34/16/7 36/18/9 35/17/8
f 37/13/4 38/14/5 39/15/6
f 38/14/5 40/16/7 39/15/6
f 39/15/6 40/16/7 41/17/8
f 40/16/7 42/18/9 41/17/8
f 43/19/18 44/20/19 45/21/20
f 44/20/19 46/22/21 45/21/20
f 45/21/20 46/22/21 47/23/22
f 46/22/21 48/24/23 47/23/22
f 49/13/10 50/14/11 51/15/12
f 50/14/11 52/16/13 51/15/12
f 51/15/12 52/16/13 53/17/14
f 52/16/13 54/18/24 53/17/14
f 55/25/25 56/26/25 57/27/1
f 56/26/25 58/28/1 57/27/1
f 57/27/1 58/28/1 59/29/26
f 58/28/1 60/30/26 59/29/26
f 61/31/20 62/32/20 63/33/27
f 62/32/20 64/34/20 63/33/27
f 63/33/27 64/34/20 65/35/20
f 64/34/20 66/36/20 65/35/20
f 67/37/12 68/38/12 69/39/12
f 68/38/12 70/40/12 69/39/12
f 69/39/12 70/40/12 71/41/28
f 70/40/12 72/42/12 71/41/28
f 73/13/29 74/14/5 75/15/6
f 74/14/5 76/16/7 75/15/6
f 75/15/6 76/16/7 77/17/8
f 76/16/7 78/18/9 77/17/8
f 79/13/4 80/14/30 81/15/6
f 80/14/30 82/16/7 81/15/6
f 81/15/6 82/16/7 83/17/8
f 82/16/7 84/18/9 83/17/8
f 85/13/10 86/14/11 87/15/12
f 86/14/11 88/16/13 87/15/12
f 87/15/12 88/16/13 89/17/14
f 88/16/13 90/18/24 89/17/14
f 91/43/31 92/44/32 93/45/32
f 94/46/33 91/43/31 93/45/32
f 91/43/31 94/46/33 95/47/34
f 94/46/33 96/48/35 95/47/34
f 17/49/8 96/48/35 94/46/33
f 95/47/34 96/48/35 97/50/36
f 96/48/35 17/49/8 98/51/37
f 96/48/35 98/51/37 97/50/36
f 17/49/8 18/52/9 98/51/37
f 97/50/36 98/51/37 99/53/38
f 98/51/37 100/54/39 99/53/38
f 18/52/9 100/54/39 98/51/37
f 101/55/32 99/53/38 100/54/39
f 100/54/39 18/52/9 102/56/40
f 102/56/40 101/55/32 100/54/39
f 18/52/9 16/57/7 102/56/40
f 103/58/41 101/55/32 102/56/40
f 102/56/40 16/57/7 104/59/42
f 104/59/42 103/58/41 102/56/40
f 16/57/7 14/60/5 104/59/42
f 104/59/42 105/61/43 103/58/41
f 105/61/43 104/59/42 14/60/5
f 105/61/43 106/62/44 103/58/41
f 107/63/3 106/62/44 105/61/43
f 108/64/45 107/63/3 105/61/43
f 108/64/45 105/61/43 14/60/5
f 13/65/4 108/64/45 14/60/5
f 109/43/46 110/44/1 111/45/1
f 112/46/47 109/43/46 111/45/1
f 109/43/46 112/46/47 113/47/48
f 112/46/47 114/48/49 113/47/48
f 23/49/14 114/48/49 112/46/47
f 113/47/48 114/48/49 115/50/50
f 114/48/49 23/49/14 116/51/51
f 114/48/49 116/51/51 115/50/50
f 23/49/14 24/52/15 116/51/51
f 115/50/50 116/51/51 117/53/52
f 116/51/51 118/54/53 117/53/52
f 24/52/15 118/54/53 116/51/51
f 119/55/54 117/53/52 118/54/53
f 118/54/53 24/52/15 120/56/55
f 120/56/55 119/55/54 118/54/53
f 24/52/15 22/57/13 120/56/55
f 121/58/56 119/55/54 120/56/55
f 120/56/55 22/57/13 122/59/57
f 122/59/57 121/58/56 120/56/55
f 22/57/13 20/60/11 122/59/57
f 122/59/57 123/61/58 121/58/56
f 123/61/58 122/59/57 20/60/11
f 123/61/58 124/62/59 121/58/56
f 125/63/3 124/62/59 123/61/58
f 126/64/60 125/63/3 123/61/58
f 126/64/60 123/61/58 20/60/11
f 19/65/10 126/64/60 20/60/11
f 127/43/46 128/44/54 129/45/54
f 130/46/47 127/43/46 129/45/54
f 127/43/46 130/46/47 131/47/48
f 130/46/47 132/48/49 131/47/48
f 29/49/14 132/48/49 130/46/47
f 131/47/48 132/48/49 133/50/61
f 132/48/49 29/49/14 134/51/62
f 132/48/49 134/51/62 133/50/61
f 29/49/14 30/52/15 134/51/62
f 133/50/61 134/51/62 135/53/63
f 134/51/62 136/54/53 135/53/63
f 30/52/15 136/54/53 134/51/62
f 137/55/1 135/53/63 136/54/53
f 136/54/53 30/52/15 138/56/55
f 138/56/55 137/55/1 136/54/53
f 30/52/15 28/57/13 138/56/55
f 139/58/64 137/55/1 138/56/55
f 138/56/55 28/57/13 140/59/65
f 140/59/65 139/58/64 138/56/55
f 28/57/13 26/60/17 140/59/65
f 140/59/65 141/61/66 139/58/64
f 141/61/66 140/59/65 26/60/17
f 141/61/66 142/62/59 139/58/64
f 143/63/3 142/62/59 141/61/66
f 144/64/67 143/63/3 141/61/66
f 144/64/67 141/61/66 26/60/17
f 25/65/16 144/64/67 26/60/17
f 145/43/31 146/44/32 147/45/32
f 148/46/68 145/43/31 147/45/32
f 145/43/31 148/46/68 149/47/34
f 148/46/68 150/48/35 149/47/34
f 35/49/8 150/48/35 148/46/68
f 149/47/34 150/48/35 151/50/36
f 150/48/35 35/49/8 152/51/69
f 150/48/35 152/51/69 151/50/36
f 35/49/8 36/52/9 152/51/69
f 151/50/36 152/51/69 153/53/70
f 152/51/69 154/54/39 153/53/70
f 36/52/9 154/54/39 152/51/69
f 155/55/32 153/53/70 154/54/39
f 154/54/39 36/52/9 156/56/40
f 156/56/40 155/55/32 154/54/39
f 36/52/9 34/57/7 156/56/40
f 157/58/41 155/55/32 156/56/40
f 156/56/40 34/57/7 158/59/71
f 158/59/71 157/58/41 156/56/40
f 34/57/7 32/60/5 158/59/71
f 158/59/71 159/61/72 157/58/41
f 159/61/72 158/59/71 32/60/5
f 159/61/72 160/62/44 157/58/41
f 161/63/3 160/62/44 159/61/72
f 162/64/45 161/63/3 159/61/72
f 162/64/45 159/61/72 32/60/5
f 31/65/4 162/64/45 32/60/5
f 163/43/31 164/44/32 165/45/32
f 166/46/68 163/43/31 165/45/32
f 163/43/31 166/46/68 167/47/34
f 166/46/68 168/48/35 167/47/34
f 41/49/8 168/48/35 166/46/68
f 167/47/34 168/48/35 169/50/36
f 168/48/35 41/49/8 170/51/69
f 168/48/35 170/51/69 169/50/36
f 41/49/8 42/52/9 170/51/69
f 169/50/36 170/51/69 171/53/38
f 170/51/69 172/54/39 171/53/38
f 42/52/9 172/54/39 170/51/69
f 173/55/32 171/53/38 172/54/39
f 172/54/39 42/52/9 174/56/40
f 174/56/40 173/55/32 172/54/39
f 42/52/9 40/57/7 174/56/40
f 175/58/41 173/55/32 174/56/40
f 174/56/40 40/57/7 176/59/73
f 176/59/73 175/58/41 174/56/40
f 40/57/7 38/60/5 176/59/73
f 176/59/73 177/61/43 175/58/41
f 177/61/43 176/59/73 38/60/5
f 177/61/43 178/62/44 175/58/41
f 179/63/3 178/62/44 177/61/43
f 180/64/45 179/63/3 177/61/43
f 180/64/45 177/61/43 38/60/5
f 37/65/4 180/64/45 38/60/5
f 181/43/31 182/44/32 183/45/32
f 184/46/68 181/43/31 183/45/32
f 181/43/31 184/46/68 185/47/34
f 184/46/68 186/48/35 185/47/34
f 77/49/8 186/48/35 184/46/68
f 185/47/34 186/48/35 187/50/36
f 186/48/35 77/49/8 188/51/69
f 186/48/35 188/51/69 187/50/36
f 77/49/8 78/52/9 188/51/69
f 187/50/36 188/51/69 189/53/38
f 188/51/69 190/54/39 189/53/38
f 78/52/9 190/54/39 188/51/69
f 191/55/32 189/53/38 190/54/39
f 190/54/39 78/52/9 192/56/40
f 192/56/40 191/55/32 190/54/39
f 78/52/9 76/57/7 192/56/40
f 193/58/41 191/55/32 192/56/40
f 192/56/40 76/57/7 194/59/42
f 194/59/42 193/58/41 192/56/40
f 76/57/7 74/60/5 194/59/42
f 194/59/42 195/61/43 193/58/41
f 195/61/43 194/59/42 74/60/5
f 195/61/43 196/62/44 193/58/41
f 197/63/3 196/62/44 195/61/43
f 198/64/45 197/63/3 195/61/43
f 198/64/45 195/61/43 74/60/5
f 73/65/29 198/64/45 74/60/5
f 199/43/31 200/44/32 201/45/32
f 202/46/68 199/43/31 201/45/32
f 199/43/31 202/46/68 203/47/34
f 202/46/68 204/48/35 203/47/34
f 83/49/8 204/48/35 202/46/68
f 203/47/34 204/48/35 205/50/36
f 204/48/35 83/49/8 206/51/69
f 204/48/35 206/51/69 205/50/36
f 83/49/8 84/52/9 206/51/69
f 205/50/36 206/51/69 207/53/70
f 206/51/69 208/54/39 207/53/70
f 84/52/9 208/54/39 206/51/69
f 209/55/32 207/53/70 208/54/39
f 208/54/39 84/52/9 210/56/40
f 210/56/40 209/55/32 208/54/39
f 84/52/9 82/57/7 210/56/40
f 211/58/41 209/55/32 210/56/40
f 210/56/40 82/57/7 212/59/71
f 212/59/71 211/58/41 210/56/40
f 82/57/7 80/60/30 212/59/71
f 212/59/71 213/61/43 211/58/41
f 213/61/43 212/59/71 80/60/30
f 213/61/43 214/62/44 211/58/41
f 215/63/3 214/62/44 213/61/43
f 216/64/45 215/63/3 213/61/43
f 216/64/45 213/61/43 80/60/30
f 79/65/4 216/64/45 80/60/30
f 217/43/46 218/44/54 219/45/54
f 220/46/47 217/43/46 219/45/54
f 217/43/46 220/46/47 221/47/48
f 220/46/47 222/48/49 221/47/48
f 89/49/14 222/48/49 220/46/47
f 221/47/48 222/48/49 223/50/61
f 222/48/49 89/49/14 224/51/74
f 222/48/49 224/51/74 223/50/61
f 89/49/14 90/52/24 224/51/74
f 223/50/61 224/51/74 225/53/52
f 224/51/74 226/54/53 225/53/52
f 90/52/24 226/54/53 224/51/74
f 227/55/1 225/53/52 226/54/53
f 226/54/53 90/52/24 228/56/55
f 228/56/55 227/55/1 226/54/53
f 90/52/24 88/57/13 228/56/55
f 229/58/64 227/55/1 228/56/55
f 228/56/55 88/57/13 230/59/57
f 230/59/57 229/58/64 228/56/55
f 88/57/13 86/60/11 230/59/57
f 230/59/57 231/61/66 229/58/64
f 231/61/66 230/59/57 86/60/11
f 231/61/66 232/62/59 229/58/64
f 233/63/3 232/62/59 231/61/66
f 234/64/60 233/63/3 231/61/66
f 234/64/60 231/61/66 86/60/11
f 85/65/10 234/64/60 86/60/11
f 10/10/75 65/66/75 12/12/76
f 65/66/77 66/67/78 12/12/79
f 66/67/78 56/26/80 12/12/79
f 11/11/81 12/12/79 56/26/80
f 56/26/80 66/67/78 58/28/82
f 66/67/78 64/68/82 58/28/82
f 55/25/83 11/11/81 56/26/80
f 58/28/82 64/68/82 60/30/84
f 64/68/82 62/69/85 60/30/84
f 11/11/81 55/25/83 68/70/86
f 9/9/87 11/11/81 68/70/86
f 67/71/88 9/9/88 68/70/86
f 70/72/89 68/70/86 55/25/83
f 57/27/89 70/72/89 55/25/83
f 72/73/90 70/72/89 57/27/89
f 59/29/91 72/73/90 57/27/89
f 72/73/90 59/29/91 8/8/92
f 71/74/93 72/73/90 8/8/92
f 7/7/94 8/8/92 59/29/91
f 60/30/84 7/7/94 59/29/91
f 7/7/94 60/30/84 62/69/85
f 6/6/95 71/74/93 8/8/92
f 5/5/96 7/7/94 62/69/85
f 71/74/97 6/6/95 1/1/98
f 61/75/99 5/5/96 62/69/85
f 2/2/100 1/1/98 6/6/95
f 2/2/100 5/5/96 61/75/99
f 5/5/96 2/2/100 6/6/95
f 235/76/101 236/77/54 237/45/54
f 238/46/47 235/76/101 237/45/54
f 235/76/101 238/46/47 239/48/49
f 53/49/14 239/48/49 238/46/47
f 240/78/102 235/76/101 239/48/49
f 235/76/101 240/78/102 43/79/18
f 43/79/18 240/78/102 44/80/19
f 239/48/49 53/49/14 241/51/62
f 53/49/14 54/52/24 241/51/62
f 240/78/102 239/48/49 242/81/103
f 239/48/49 241/51/62 242/81/103
f 240/78/102 242/81/103 44/80/19
f 54/52/24 243/54/53 241/51/62
f 242/81/103 241/51/62 243/54/53
f 242/81/103 244/82/104 44/80/19
f 244/82/104 242/81/103 243/54/53
f 46/83/21 44/80/19 244/82/104
f 243/54/53 54/52/24 245/56/55
f 54/52/24 52/57/13 245/56/55
f 246/84/105 244/82/104 243/54/53
f 246/84/105 46/83/21 244/82/104
f 245/56/55 246/84/105 243/54/53
f 48/85/23 46/83/21 246/84/105
f 245/56/55 52/57/13 247/59/57
f 52/57/13 50/60/11 247/59/57
f 248/86/106 246/84/105 245/56/55
f 247/59/57 248/86/106 245/56/55
f 248/86/106 48/85/23 246/84/105
f 249/61/107 247/59/57 50/60/11
f 247/59/57 249/61/107 248/86/106
f 49/65/10 250/64/108 50/60/11
f 250/64/108 249/61/107 50/60/11
f 250/64/108 251/87/109 249/61/107
f 48/85/23 248/86/106 252/88/110
f 249/61/107 252/88/110 248/86/106
f 251/87/109 252/88/110 249/61/107
f 47/89/22 48/85/23 252/88/110
f 251/87/109 47/89/22 252/88/110
