# Blender 3.6.18
# www.blender.org
mtllib Mesh.472.mtl
o Bistro_Research_Exterior_paris_building_11_5619
v 0.398068 15.216566 19.591156
v 1.643019 15.216566 20.100224
v 1.665379 15.206862 20.045542
v 0.420428 15.206861 19.536472
v 1.668367 15.205564 20.038233
v 0.423416 15.205564 19.529163
v 0.422525 15.154744 19.531345
v 1.667476 15.154744 20.040415
v 1.664487 15.153473 20.047726
v 0.419535 15.153473 19.538654
v 1.641682 15.143775 20.103495
v 0.396731 15.143775 19.594425
v 1.668227 15.197572 20.038578
v 0.423276 15.197572 19.529507
v 1.667616 15.162734 20.040071
v 0.422665 15.162734 19.531000
vn 0.0590 0.9864 -0.1533
vn 0.0589 0.9864 -0.1533
vn 0.0590 0.9864 -0.1532
vn 0.2867 0.6244 -0.7266
vn 0.2772 -0.6676 -0.6910
vn 0.0585 -0.9866 -0.1521
vn 0.3716 -0.0508 -0.9270
vn 0.3716 -0.0509 -0.9270
vt 0.410156 0.525879
vt -0.009987 0.525879
vt -0.009987 0.507568
vt 0.410156 0.507568
vt -0.009987 0.505127
vt 0.410156 0.505127
vt 0.589355 0.505859
vt 1.009766 0.505859
vt 1.009766 0.508301
vt 0.589355 0.508301
vt 1.009766 0.527100
vt 0.589355 0.527100
vt 0.589355 0.379883
vt 1.009766 0.379883
vt 1.009766 0.382324
vt 0.589355 0.382324
vt 1.009766 0.393555
vt 0.589355 0.393555
vt 1.009766 0.395996
vt 0.589355 0.395996
s 1
usemtl MASTER_Wood_Painted_Green
f 1/1/1 2/2/2 3/3/3
f 4/4/1 1/1/1 3/3/3
f 4/4/1 3/3/3 5/5/4
f 6/6/4 4/4/1 5/5/4
f 7/7/5 8/8/5 9/9/6
f 10/10/6 7/7/5 9/9/6
f 10/10/6 9/9/6 11/11/6
f 12/12/6 10/10/6 11/11/6
f 6/13/4 5/14/4 13/15/7
f 14/16/8 6/13/4 13/15/7
f 14/16/8 13/15/7 15/17/8
f 16/18/7 14/16/8 15/17/8
f 16/18/7 15/17/8 8/19/5
f 7/20/5 16/18/7 8/19/5
