# Blender 3.6.18
# www.blender.org
mtllib Mesh.1067.mtl
o Bistro_Research_Exterior_Paris_Building_01_paris_buildi_9e1bb12
v 2.373061 14.456894 2.532625
v 1.743318 14.456894 2.281219
v 2.373061 12.267996 2.532625
v 1.743318 12.267996 2.281219
v 3.022229 12.267996 2.791787
v 3.022230 14.456894 2.791787
v 2.388798 12.267996 2.538908
v 2.388798 14.456894 2.538908
vn -0.3748 -0.0039 0.9271
vt 0.497803 0.988487
vt 0.251221 0.988487
vt 0.497803 0.225098
vt 0.251221 0.225098
vt 0.249146 0.225098
vt 0.249146 0.988487
vt 0.002602 0.225098
vt 0.002602 0.988487
s 1
usemtl MASTER_Curtains
f 1/1/1 2/2/1 3/3/1
f 2/2/1 4/4/1 3/3/1
f 5/5/1 6/6/1 7/7/1
f 6/6/1 8/8/1 7/7/1
