# Blender 3.6.18
# www.blender.org
mtllib Mesh.653.mtl
o Bistro_Research_Exterior_paris_building_05_3__5235
v 46.443741 11.822542 20.064075
v 46.104240 11.822542 20.441923
v 46.148800 11.822542 20.481956
v 46.488297 11.822542 20.104109
v 46.148800 11.726422 20.481956
v 46.488297 11.726422 20.104109
v 46.443741 11.726422 20.064075
v 46.104240 11.726422 20.441923
v 46.482731 9.123000 20.105656
v 46.442448 9.123001 20.069456
v 46.442444 11.730762 20.069456
v 46.482731 11.730762 20.105658
v 46.430679 11.730762 20.163591
v 46.430679 9.123000 20.163591
v 46.390392 9.123001 20.127394
v 46.390392 11.730762 20.127394
v 46.421764 11.724265 20.144051
v 46.186378 11.724265 20.406025
v 46.186378 9.126081 20.406025
v 46.421764 9.126081 20.144051
v 46.112080 9.123000 20.437141
v 46.152370 9.123001 20.473341
v 46.152370 11.730762 20.473341
v 46.112080 11.730762 20.437141
v 46.164135 11.730762 20.379204
v 46.164135 9.123000 20.379204
v 46.204422 9.123001 20.415405
v 46.204422 11.730762 20.415403
v 46.443741 9.122585 20.064075
v 46.104240 9.122585 20.441923
v 46.148800 9.122585 20.481956
v 46.488297 9.122585 20.104109
v 46.148800 9.026465 20.481956
v 46.488297 9.026465 20.104109
v 46.443741 9.026465 20.064075
v 46.104240 9.026465 20.441923
v 46.116947 9.293054 20.445436
v 46.146057 9.293054 20.471592
v 46.146061 9.421950 20.471592
v 46.116947 9.421950 20.445436
v 46.148647 9.421950 20.468714
v 46.119534 9.421950 20.442558
v 46.119537 9.293054 20.442560
v 46.148647 9.293054 20.468714
v 46.055916 9.293054 20.445448
v 46.094997 9.293054 20.443363
v 46.094997 9.421950 20.443357
v 46.055916 9.421950 20.445446
v 46.094788 9.421950 20.439495
v 46.055714 9.421950 20.441584
v 46.055714 9.293054 20.441584
v 46.094791 9.293054 20.439497
v 46.017330 11.822542 19.944704
v 46.044449 11.822542 20.451948
v 46.104259 11.822542 20.448750
v 46.077145 11.822542 19.941509
v 46.104259 11.726422 20.448751
v 46.077145 11.726422 19.941509
v 46.017330 11.726422 19.944704
v 46.044449 11.726422 20.451948
v 46.074303 9.123000 19.946539
v 46.020222 9.123001 19.949429
v 46.020222 11.730762 19.949429
v 46.074303 11.730762 19.946539
v 46.078461 11.730762 20.024315
v 46.078461 9.123000 20.024315
v 46.024380 9.123001 20.027208
v 46.024380 11.730762 20.027208
v 46.058533 11.724265 20.369484
v 46.039730 11.724265 20.017796
v 46.039730 9.126081 20.017796
v 46.058533 9.126081 20.369484
v 46.046604 9.123000 20.443026
v 46.100689 9.123001 20.440136
v 46.100689 11.730762 20.440136
v 46.046604 11.730762 20.443026
v 46.042450 11.730762 20.365248
v 46.042450 9.123000 20.365248
v 46.096535 9.123001 20.362356
v 46.096535 11.730762 20.362356
v 46.017330 9.122585 19.944704
v 46.044449 9.122585 20.451948
v 46.104259 9.122585 20.448750
v 46.077145 9.122585 19.941509
v 46.104259 9.026465 20.448751
v 46.077145 9.026465 19.941509
v 46.017330 9.026465 19.944704
v 46.044449 9.026465 20.451948
v 46.055916 11.494350 20.445448
v 46.094997 11.494350 20.443363
v 46.094997 11.623246 20.443357
v 46.055916 11.623246 20.445446
v 46.094788 11.623246 20.439495
v 46.055714 11.623246 20.441584
v 46.055714 11.494350 20.441584
v 46.094791 11.494350 20.439497
v 46.116947 11.494350 20.445436
v 46.146057 11.494350 20.471592
v 46.146061 11.623246 20.471592
v 46.116947 11.623246 20.445436
v 46.148647 11.623246 20.468714
v 46.119534 11.623246 20.442558
v 46.119537 11.494350 20.442560
v 46.148647 11.494350 20.468714
v 46.114891 9.293410 20.434004
v 46.105854 9.293410 20.430811
v 46.105854 9.421615 20.430811
v 46.114891 9.421615 20.434004
v 46.119030 9.293410 20.442652
v 46.119030 9.421615 20.442652
v 46.115837 9.293410 20.451691
v 46.115837 9.421615 20.451691
v 46.107189 9.293410 20.455828
v 46.107189 9.421615 20.455828
v 46.098152 9.293410 20.452633
v 46.098152 9.421615 20.452633
v 46.094009 9.293410 20.443987
v 46.094009 9.421615 20.443987
v 46.097202 9.293410 20.434948
v 46.097202 9.421615 20.434948
v 46.114891 11.494710 20.434004
v 46.105854 11.494710 20.430811
v 46.105854 11.622913 20.430811
v 46.114891 11.622913 20.434004
v 46.119030 11.494710 20.442652
v 46.119030 11.622913 20.442652
v 46.115837 11.494710 20.451691
v 46.115837 11.622913 20.451691
v 46.107189 11.494710 20.455828
v 46.107189 11.622913 20.455828
v 46.098152 11.494710 20.452633
v 46.098152 11.622913 20.452633
v 46.094009 11.494710 20.443987
v 46.094009 11.622913 20.443987
v 46.097202 11.494710 20.434948
v 46.097202 11.622913 20.434948
v 46.106522 9.293410 20.443319
v 46.106522 9.421615 20.443319
v 46.106522 11.494710 20.443319
v 46.106522 11.622913 20.443319
vn -0.0039 1.0000 -0.0039
vn 0.7454 -0.0039 0.6666
vn -0.7450 -0.0039 -0.6670
vn 0.6627 -0.0039 -0.7489
vn -0.6709 -0.0039 0.7415
vn -0.0039 -1.0000 -0.0039
vn 0.6626 -0.0039 -0.7489
vn 0.7455 -0.0040 0.6665
vn 0.0513 -0.0039 0.9987
vn 0.0513 -0.0040 0.9987
vn -0.9987 -0.0039 0.0509
vn 0.9982 -0.0040 -0.0592
vn 0.9982 -0.0039 -0.0592
vn -0.0587 -0.0039 -0.9983
vn 0.7454 -0.0040 0.6666
vt 0.327881 0.353027
vt 0.327881 0.432129
vt 0.318604 0.432129
vt 0.318604 0.353027
vt 0.315430 0.432129
vt 0.300537 0.432129
vt 0.300537 0.352539
vt 0.315430 0.352539
vt 0.270020 0.352051
vt 0.284912 0.352051
vt 0.284912 0.431641
vt 0.270020 0.431641
vt 0.269775 0.345215
vt 0.269775 0.335938
vt 0.284912 0.335938
vt 0.284912 0.345215
vt 0.288086 0.345215
vt 0.288086 0.335938
vt 0.303223 0.335938
vt 0.303223 0.345215
vt 0.287842 0.352539
vt 0.297363 0.352539
vt 0.297363 0.432129
vt 0.287842 0.432129
vt 0.858398 0.978256
vt 0.848633 0.978256
vt 0.848633 0.570801
vt 0.858398 0.570801
vt 0.812012 0.571289
vt 0.812012 0.978668
vt 0.799805 0.978668
vt 0.799805 0.571289
vt 0.845215 0.572021
vt 0.845215 0.979340
vt 0.833008 0.979340
vt 0.833008 0.572021
vt 0.827637 0.980072
vt 0.817871 0.980072
vt 0.817871 0.572754
vt 0.827637 0.572754
vt 0.377197 0.011230
vt 0.432373 0.011230
vt 0.432373 0.416992
vt 0.377197 0.416992
vt 0.360107 0.465332
vt 0.354004 0.465332
vt 0.354004 0.445312
vt 0.360107 0.445312
vt 0.354004 0.442871
vt 0.360107 0.442871
vt 0.360107 0.443359
vt 0.354004 0.443359
vt 0.362061 0.445312
vt 0.362061 0.465332
vt 0.361328 0.465332
vt 0.361328 0.445312
vt 0.360107 0.467285
vt 0.354004 0.467285
vt 0.354004 0.466797
vt 0.360107 0.466797
vt 0.352051 0.465332
vt 0.352051 0.445312
vt 0.352783 0.445312
vt 0.352783 0.465332
vt 0.327637 0.464355
vt 0.326172 0.464355
vt 0.326172 0.443848
vt 0.327637 0.443848
vt 0.329102 0.464355
vt 0.329102 0.443848
vt 0.330566 0.464355
vt 0.330566 0.443848
vt 0.332031 0.464355
vt 0.332031 0.443848
vt 0.333496 0.464355
vt 0.333496 0.443848
vt 0.334473 0.464355
vt 0.334473 0.443848
vt 0.335938 0.464355
vt 0.335938 0.443848
vt 0.337402 0.464355
vt 0.337402 0.443848
vt 0.326172 0.466797
vt 0.327393 0.465820
vt 0.328125 0.467773
vt 0.326172 0.468262
vt 0.328857 0.465820
vt 0.327148 0.469238
vt 0.329834 0.466797
vt 0.328857 0.469238
vt 0.329834 0.468262
vt 0.333252 0.465820
vt 0.334717 0.465820
vt 0.333984 0.467773
vt 0.332275 0.466797
vt 0.335938 0.466797
vt 0.332275 0.468262
vt 0.335938 0.468750
vt 0.333252 0.469727
vt 0.334717 0.469727
s 1
usemtl MASTER_Building_Details
f 1/1/1 2/2/1 3/3/1
f 3/3/1 4/4/1 1/1/1
f 3/5/2 5/6/2 6/7/2
f 6/7/2 4/8/2 3/5/2
f 1/9/3 7/10/3 8/11/3
f 8/11/3 2/12/3 1/9/3
f 1/13/4 4/14/4 6/15/4
f 6/15/4 7/16/4 1/13/4
f 3/17/5 2/18/5 8/19/5
f 8/19/5 5/20/5 3/17/5
f 7/21/6 6/22/6 5/23/6
f 5/23/6 8/24/6 7/21/6
f 9/25/7 10/26/7 11/27/4
f 11/27/4 12/28/7 9/25/7
f 9/29/2 12/30/2 13/31/2
f 13/31/2 14/32/2 9/29/2
f 11/33/3 10/34/3 15/35/3
f 15/35/3 16/36/3 11/33/3
f 15/37/5 14/38/5 13/39/5
f 13/39/5 16/40/5 15/37/5
f 17/41/2 18/42/2 19/43/2
f 19/43/2 20/44/2 17/41/2
f 21/25/5 22/26/5 23/27/5
f 23/27/5 24/28/5 21/25/5
f 21/29/3 24/30/3 25/31/3
f 25/31/3 26/32/3 21/29/3
f 23/33/2 22/34/2 27/35/2
f 27/35/2 28/36/2 23/33/2
f 27/37/4 26/38/4 25/39/4
f 25/39/4 28/40/4 27/37/4
f 29/1/1 30/2/1 31/3/1
f 31/3/1 32/4/1 29/1/1
f 31/5/2 33/6/2 34/7/2
f 34/7/2 32/8/8 31/5/2
f 29/9/3 35/10/3 36/11/3
f 36/11/3 30/12/3 29/9/3
f 29/13/4 32/14/4 34/15/7
f 34/15/7 35/16/4 29/13/4
f 31/17/5 30/18/5 36/19/5
f 36/19/5 33/20/5 31/17/5
f 35/21/6 34/22/6 33/23/6
f 33/23/6 36/24/6 35/21/6
f 37/45/5 38/46/5 39/47/5
f 39/47/5 40/48/5 37/45/5
f 41/49/1 42/50/1 40/51/1
f 40/51/1 39/52/1 41/49/1
f 42/53/3 43/54/3 37/55/3
f 37/55/3 40/56/3 42/53/3
f 43/57/6 44/58/6 38/59/6
f 38/59/6 37/60/6 43/57/6
f 44/61/2 41/62/2 39/63/2
f 39/63/2 38/64/2 44/61/2
f 45/45/9 46/46/9 47/47/10
f 47/47/10 48/48/10 45/45/9
f 49/49/1 50/50/1 48/51/1
f 48/51/1 47/52/1 49/49/1
f 50/53/11 51/54/11 45/55/11
f 45/55/11 48/56/11 50/53/11
f 51/57/6 52/58/6 46/59/6
f 46/59/6 45/60/6 51/57/6
f 52/61/12 49/62/13 47/63/13
f 47/63/13 46/64/13 52/61/12
f 53/1/1 54/2/1 55/3/1
f 55/3/1 56/4/1 53/1/1
f 55/5/12 57/6/12 58/7/12
f 58/7/12 56/8/12 55/5/12
f 53/9/11 59/10/11 60/11/11
f 60/11/11 54/12/11 53/9/11
f 53/13/14 56/14/14 58/15/14
f 58/15/14 59/16/14 53/13/14
f 55/17/9 54/18/9 60/19/9
f 60/19/9 57/20/9 55/17/9
f 59/21/6 58/22/6 57/23/6
f 57/23/6 60/24/6 59/21/6
f 61/25/14 62/26/14 63/27/14
f 63/27/14 64/28/14 61/25/14
f 61/29/12 64/30/12 65/31/12
f 65/31/13 66/32/13 61/29/13
f 63/33/11 62/34/11 67/35/11
f 67/35/11 68/36/11 63/33/11
f 67/37/9 66/38/9 65/39/9
f 65/39/9 68/40/9 67/37/9
f 69/41/11 70/42/11 71/43/11
f 71/43/11 72/44/11 69/41/11
f 73/25/10 74/26/10 75/27/10
f 75/27/10 76/28/10 73/25/10
f 73/29/11 76/30/11 77/31/11
f 77/31/11 78/32/11 73/29/11
f 75/33/13 74/34/13 79/35/13
f 79/35/12 80/36/12 75/33/12
f 79/37/14 78/38/14 77/39/14
f 77/39/14 80/40/14 79/37/14
f 81/1/1 82/2/1 83/3/1
f 83/3/1 84/4/1 81/1/1
f 83/5/12 85/6/12 86/7/12
f 86/7/12 84/8/12 83/5/12
f 81/9/11 87/10/11 88/11/11
f 88/11/11 82/12/11 81/9/11
f 81/13/14 84/14/14 86/15/14
f 86/15/14 87/16/14 81/13/14
f 83/17/9 82/18/9 88/19/9
f 88/19/9 85/20/9 83/17/9
f 87/21/6 86/22/6 85/23/6
f 85/23/6 88/24/6 87/21/6
f 89/45/9 90/46/9 91/47/10
f 91/47/10 92/48/10 89/45/9
f 93/49/1 94/50/1 92/51/1
f 92/51/1 91/52/1 93/49/1
f 94/53/11 95/54/11 89/55/11
f 89/55/11 92/56/11 94/53/11
f 95/57/6 96/58/6 90/59/6
f 90/59/6 89/60/6 95/57/6
f 96/61/12 93/62/13 91/63/13
f 91/63/13 90/64/13 96/61/12
f 97/45/5 98/46/5 99/47/5
f 99/47/5 100/48/5 97/45/5
f 101/49/1 102/50/1 100/51/1
f 100/51/1 99/52/1 101/49/1
f 102/53/3 103/54/3 97/55/3
f 97/55/3 100/56/3 102/53/3
f 103/57/6 104/58/6 98/59/6
f 98/59/6 97/60/6 103/57/6
f 104/61/2 101/62/8 99/63/15
f 99/63/15 98/64/2 104/61/2
f 105/65/7 106/66/14 107/67/14
f 107/67/14 108/68/4 105/65/7
f 109/69/12 105/65/7 108/68/4
f 108/68/4 110/70/13 109/69/12
f 111/71/2 109/69/12 110/70/13
f 110/70/13 112/72/2 111/71/2
f 113/73/9 111/71/2 112/72/2
f 112/72/2 114/74/9 113/73/9
f 115/75/5 113/73/9 114/74/9
f 114/74/9 116/76/5 115/75/5
f 117/77/11 115/75/5 116/76/5
f 116/76/5 118/78/11 117/77/11
f 119/79/3 117/77/11 118/78/11
f 118/78/11 120/80/3 119/79/3
f 106/81/14 119/79/3 120/80/3
f 120/80/3 107/82/14 106/81/14
f 121/65/7 122/66/14 123/67/14
f 123/67/14 124/68/4 121/65/7
f 125/69/12 121/65/7 124/68/4
f 124/68/4 126/70/13 125/69/12
f 127/71/2 125/69/12 126/70/13
f 126/70/13 128/72/2 127/71/2
f 129/73/9 127/71/2 128/72/2
f 128/72/2 130/74/9 129/73/9
f 131/75/5 129/73/9 130/74/9
f 130/74/9 132/76/5 131/75/5
f 133/77/11 131/75/5 132/76/5
f 132/76/5 134/78/11 133/77/11
f 135/79/3 133/77/11 134/78/11
f 134/78/11 136/80/3 135/79/3
f 122/81/14 135/79/3 136/80/3
f 136/80/3 123/82/14 122/81/14
f 111/83/6 113/84/6 137/85/6
f 109/86/6 111/83/6 137/85/6
f 113/84/6 115/87/6 137/85/6
f 105/88/6 109/86/6 137/85/6
f 115/87/6 117/89/6 137/85/6
f 106/90/6 105/88/6 137/85/6
f 117/89/6 119/91/6 137/85/6
f 119/91/6 106/90/6 137/85/6
f 114/92/1 112/93/1 138/94/1
f 116/95/1 114/92/1 138/94/1
f 112/93/1 110/96/1 138/94/1
f 118/97/1 116/95/1 138/94/1
f 110/96/1 108/98/1 138/94/1
f 120/99/1 118/97/1 138/94/1
f 108/98/1 107/100/1 138/94/1
f 107/100/1 120/99/1 138/94/1
f 127/83/6 129/84/6 139/85/6
f 125/86/6 127/83/6 139/85/6
f 129/84/6 131/87/6 139/85/6
f 121/88/6 125/86/6 139/85/6
f 131/87/6 133/89/6 139/85/6
f 122/90/6 121/88/6 139/85/6
f 133/89/6 135/91/6 139/85/6
f 135/91/6 122/90/6 139/85/6
f 130/92/1 128/93/1 140/94/1
f 132/95/1 130/92/1 140/94/1
f 128/93/1 126/96/1 140/94/1
f 134/97/1 132/95/1 140/94/1
f 126/96/1 124/98/1 140/94/1
f 136/99/1 134/97/1 140/94/1
f 124/98/1 123/100/1 140/94/1
f 123/100/1 136/99/1 140/94/1
