# Blender 3.6.18
# www.blender.org
mtllib Mesh.990.mtl
o Bistro_Research_Exterior_Paris_Building_01_paris_buildi_03b90f4
v -1.189991 8.797256 -7.038152
v -1.200844 8.796518 -7.044659
v -1.202060 8.809343 -7.045436
v -1.191493 8.812269 -7.038983
v -1.208352 8.825806 -7.049136
v -1.199272 8.832652 -7.043568
v -1.222732 8.842489 -7.057601
v -1.217017 8.853247 -7.054019
v -1.242317 8.850516 -7.069136
v -1.241175 8.863151 -7.068244
v -1.263381 8.847749 -7.081539
v -1.267109 8.859736 -7.083516
v -1.280642 8.835064 -7.091702
v -1.288412 8.844085 -7.096061
v -1.291564 8.815053 -7.098139
v -1.301912 8.819344 -7.104005
v -1.294594 8.796518 -7.099865
v -1.305549 8.797256 -7.106200
v -1.294594 8.485969 -7.099866
v -1.305549 8.485230 -7.106201
v -1.322142 8.485230 -7.078022
v -1.311289 8.485969 -7.071514
v -1.322142 8.797256 -7.078022
v -1.311289 8.796518 -7.071514
v -1.318459 8.819343 -7.075905
v -1.308310 8.815052 -7.069702
v -1.304964 8.844086 -7.067954
v -1.297383 8.835064 -7.063273
v -1.283660 8.859737 -7.055409
v -1.280122 8.847749 -7.053108
v -1.257725 8.863151 -7.040139
v -1.259059 8.850516 -7.040703
v -1.233568 8.853247 -7.025911
v -1.239472 8.842489 -7.029172
v -1.215822 8.832652 -7.015464
v -1.225095 8.825807 -7.020703
v -1.208039 8.812269 -7.010885
v -1.218808 8.809342 -7.016995
v -1.206584 8.797256 -7.009974
v -1.217538 8.796518 -7.016308
vn 0.5133 -0.0039 -0.8582
vn 0.5134 -0.0039 -0.8582
vn 0.5133 0.0039 -0.8582
vn 0.5134 0.0039 -0.8582
vn 0.5134 0.0118 -0.8581
vn 0.5041 0.0117 -0.8636
vn 0.4982 0.0118 -0.8670
vn 0.4949 0.0039 -0.8690
vn 0.4890 0.0039 -0.8723
vn 0.4983 -0.0039 -0.8670
vn 0.4982 -0.0039 -0.8670
vn -0.5225 -0.0039 0.8526
vn -0.5226 -0.0039 0.8526
vn -0.5226 0.0039 0.8526
vn -0.5133 0.0118 0.8581
vn -0.5075 0.0118 0.8616
vn -0.4982 0.0039 0.8670
vn -0.4982 -0.0039 0.8670
vn -0.4983 -0.0039 0.8670
vn 0.8616 -0.0039 0.5075
vn 0.8588 -0.0989 0.5026
vn 0.8588 -0.0990 0.5026
vn 0.8000 -0.3744 0.4689
vn 0.6077 -0.7096 0.3568
vn 0.2857 -0.9434 0.1683
vn 0.2856 -0.9435 0.1683
vn -0.0974 -0.9935 -0.0584
vn -0.0974 -0.9935 -0.0583
vn -0.4622 -0.8428 -0.2757
vn -0.4622 -0.8428 -0.2758
vn -0.7125 -0.5646 -0.4166
vn -0.8324 -0.2618 -0.4885
vn -0.8561 -0.1133 -0.5043
vn -0.8319 -0.2618 -0.4892
vn -0.8561 -0.1134 -0.5043
vn 0.8581 0.1068 0.5022
vn 0.8349 0.2572 0.4867
vn 0.7141 0.5642 0.4143
vn 0.4600 0.8455 0.2712
vn 0.4600 0.8454 0.2713
vn 0.0904 0.9946 0.0511
vn -0.2947 0.9391 -0.1768
vn -0.6142 0.7003 -0.3638
vn -0.8021 0.3639 -0.4734
vn -0.8021 0.3639 -0.4735
vn -0.8581 0.0901 -0.5055
vn -0.8602 -0.0039 -0.5099
vt 0.683105 0.420410
vt 0.683105 0.423828
vt 0.680176 0.423828
vt 0.680176 0.420410
vt 0.674316 0.423828
vt 0.674316 0.420410
vt 0.665527 0.423828
vt 0.665527 0.420410
vt 0.655762 0.423828
vt 0.655762 0.420410
vt 0.645508 0.423828
vt 0.645508 0.420410
vt 0.635742 0.423828
vt 0.635742 0.420410
vt 0.626465 0.423828
vt 0.626465 0.420410
vt 0.619141 0.423828
vt 0.619141 0.420410
vt 0.506836 0.423828
vt 0.506836 0.420410
vt 0.531250 0.042969
vt 0.531250 0.046387
vt 0.420410 0.042969
vt 0.420410 0.046387
vt 0.413086 0.042969
vt 0.413086 0.046387
vt 0.403809 0.042969
vt 0.403809 0.046387
vt 0.394043 0.042969
vt 0.394043 0.046387
vt 0.384033 0.042969
vt 0.384033 0.046387
vt 0.374268 0.042969
vt 0.374268 0.046387
vt 0.365234 0.042969
vt 0.365234 0.046387
vt 0.359375 0.042969
vt 0.359375 0.046387
vt 0.356445 0.042969
vt 0.356445 0.046387
vt 0.743164 0.863403
vt 0.743164 0.855713
vt 0.872559 0.863403
vt 0.872559 0.855713
vt 0.880371 0.863403
vt 0.880371 0.855713
vt 0.890137 0.863403
vt 0.890137 0.855713
vt 0.900391 0.863403
vt 0.900391 0.855713
vt 0.910645 0.863403
vt 0.910645 0.855713
vt 0.920898 0.863403
vt 0.920898 0.855713
vt 0.931152 0.863403
vt 0.931152 0.855713
vt 0.938477 0.863403
vt 0.938477 0.855713
vt 0.943848 0.863403
vt 0.943848 0.855713
vt -0.057831 0.789673
vt -0.057831 0.782104
vt -0.051514 0.782104
vt -0.051514 0.789673
vt -0.042175 0.782104
vt -0.042175 0.789673
vt -0.029877 0.782104
vt -0.029877 0.789673
vt -0.017181 0.782104
vt -0.017181 0.789673
vt -0.004208 0.782104
vt -0.004208 0.789673
vt 0.008224 0.782104
vt 0.008224 0.789673
vt 0.020523 0.782104
vt 0.020523 0.789673
vt 0.029907 0.782104
vt 0.029907 0.789673
vt 0.159912 0.782104
vt 0.159912 0.789673
s 1
usemtl MASTER_Grain_Metal
f 1/1/1 2/2/1 3/3/2
f 4/4/1 1/1/1 3/3/2
f 4/4/1 3/3/2 5/5/3
f 6/6/4 4/4/1 5/5/3
f 6/6/4 5/5/3 7/7/5
f 8/8/5 6/6/4 7/7/5
f 8/8/5 7/7/5 9/9/6
f 10/10/6 8/8/5 9/9/6
f 10/10/6 9/9/6 11/11/7
f 12/12/7 10/10/6 11/11/7
f 12/12/7 11/11/7 13/13/8
f 14/14/8 12/12/7 13/13/8
f 14/14/8 13/13/8 15/15/9
f 16/16/9 14/14/8 15/15/9
f 16/16/9 15/15/9 17/17/10
f 18/18/11 16/16/9 17/17/10
f 18/18/11 17/17/10 19/19/10
f 20/20/10 18/18/11 19/19/10
f 21/21/12 22/22/12 23/23/12
f 22/22/13 24/24/13 23/23/13
f 23/23/13 24/24/13 25/25/14
f 24/24/13 26/26/14 25/25/14
f 25/25/14 26/26/14 27/27/14
f 26/26/14 28/28/14 27/27/14
f 27/27/14 28/28/14 29/29/15
f 28/28/14 30/30/15 29/29/15
f 29/29/15 30/30/15 31/31/15
f 30/30/15 32/32/15 31/31/15
f 31/31/15 32/32/15 33/33/16
f 32/32/15 34/34/16 33/33/16
f 33/33/16 34/34/16 35/35/17
f 34/34/16 36/36/17 35/35/17
f 35/35/17 36/36/17 37/37/18
f 36/36/17 38/38/19 37/37/18
f 37/37/18 38/38/19 39/39/18
f 38/38/19 40/40/19 39/39/19
f 22/41/20 19/42/20 24/43/21
f 19/42/20 17/44/21 24/43/22
f 24/43/22 17/44/21 26/45/23
f 17/44/21 15/46/23 26/45/23
f 26/45/23 15/46/23 28/47/24
f 15/46/23 13/48/24 28/47/24
f 28/47/24 13/48/24 30/49/25
f 13/48/24 11/50/26 30/49/25
f 30/49/25 11/50/26 32/51/27
f 11/50/26 9/52/28 32/51/27
f 32/51/27 9/52/28 34/53/29
f 9/52/28 7/54/30 34/53/29
f 34/53/29 7/54/30 36/55/31
f 7/54/30 5/56/31 36/55/31
f 36/55/31 5/56/31 38/57/32
f 5/56/31 3/58/32 38/57/32
f 38/57/32 3/58/32 40/59/33
f 3/58/34 2/60/35 40/59/35
f 39/61/36 1/62/36 4/63/37
f 37/64/37 39/61/36 4/63/37
f 37/64/37 4/63/37 6/65/38
f 35/66/38 37/64/37 6/65/38
f 35/66/38 6/65/38 8/67/39
f 33/68/40 35/66/38 8/67/39
f 33/68/40 8/67/39 10/69/41
f 31/70/41 33/68/40 10/69/41
f 31/70/41 10/69/41 12/71/42
f 29/72/42 31/70/41 12/71/42
f 29/72/42 12/71/42 14/73/43
f 27/74/43 29/72/42 14/73/43
f 27/74/43 14/73/43 16/75/44
f 25/76/45 27/74/43 16/75/44
f 25/76/45 16/75/44 18/77/46
f 23/78/46 25/76/45 18/77/46
f 23/78/46 18/77/46 20/79/47
f 21/80/47 23/78/46 20/79/47
