# Blender 3.6.18
# www.blender.org
mtllib Mesh.1052.mtl
o Bistro_Research_Exterior_Paris_Building_01_paris_buildi_01d40c0
v 13.272896 17.538876 6.412859
v 13.272896 17.649593 6.412859
v 13.072171 17.538874 6.918074
v 13.072171 17.649593 6.918074
v 13.055964 17.649593 6.925066
v 13.055965 17.538874 6.925066
v 10.875804 17.528582 6.059257
v 10.875805 17.639299 6.059257
v 10.868813 17.639299 6.043053
v 10.868813 17.528582 6.043053
v 11.068743 17.528582 5.539858
v 11.068743 17.639299 5.539858
v 11.080344 17.516100 5.544434
v 10.880413 17.516100 6.047659
v 13.261296 17.526394 6.408254
v 13.060573 17.526394 6.913467
v 13.261296 17.662073 6.408254
v 13.060573 17.662073 6.913467
v 10.880412 17.651777 6.047659
v 11.080344 17.651777 5.544434
vn 0.9241 -0.1062 0.3672
vn 0.9253 0.0984 0.3662
vn 0.9180 -0.1063 0.3821
vn 0.9187 0.0986 0.3825
vn -0.3662 0.0985 0.9253
vn -0.3659 -0.1062 0.9246
vn -0.3726 -0.1059 0.9219
vn -0.3730 0.0982 0.9226
vn -0.9327 0.0975 -0.3473
vn -0.9319 -0.1053 -0.3470
vn -0.9231 -0.1052 -0.3700
vn -0.9249 0.0974 -0.3675
vn -0.0046 -1.0000 -0.0023
vn -0.0039 -1.0000 -0.0039
vn -0.0049 1.0000 -0.0015
vn -0.0040 1.0000 -0.0039
vn -0.0039 1.0000 -0.0040
vn -0.0039 1.0000 -0.0039
vt 1.276367 0.508789
vt 1.276367 0.552246
vt 1.064453 0.509033
vt 1.064453 0.552246
vt 1.056641 0.552246
vt 1.056641 0.509033
vt 0.140015 0.504883
vt 0.140015 0.548340
vt 0.133057 0.548340
vt 0.133057 0.504883
vt -0.078613 0.505127
vt -0.078552 0.548340
vt 0.150024 0.087402
vt 0.157104 0.087402
vt 0.150024 0.311523
vt 0.157104 0.311523
vt 0.156128 0.318359
vt 1.125977 0.087402
vt 1.126953 0.318359
vt 1.125977 0.311523
vt 1.130859 0.087402
vt 1.130859 0.311523
vt 1.134766 -0.019531
vt 1.128906 -0.019531
vt 1.134766 -0.243164
vt 1.128906 -0.243164
vt 1.130859 -0.250000
vt 0.159424 -0.250000
vt 0.160278 -0.243164
vt 0.160767 -0.019531
vt 0.153320 -0.243164
vt 0.153442 -0.019531
s 1
usemtl MASTER_Concrete_Smooth
f 1/1/1 2/2/2 3/3/3
f 2/2/2 4/4/4 3/3/3
f 4/4/4 5/5/5 3/3/3
f 5/5/5 6/6/6 3/3/3
f 6/6/6 5/5/5 7/7/7
f 5/5/5 8/8/8 7/7/7
f 7/7/7 8/8/8 9/9/9
f 10/10/10 7/7/7 9/9/9
f 11/11/11 10/10/10 9/9/9
f 12/12/12 11/11/11 9/9/9
f 11/13/11 13/14/13 10/15/10
f 13/14/13 14/16/14 10/15/10
f 7/17/7 10/15/10 14/16/14
f 13/14/13 15/18/14 14/16/14
f 7/17/7 14/16/14 6/19/6
f 15/18/14 16/20/14 14/16/14
f 14/16/14 16/20/14 6/19/6
f 16/20/14 15/18/14 1/21/1
f 3/22/3 6/19/6 16/20/14
f 3/22/3 16/20/14 1/21/1
f 2/23/2 17/24/15 4/25/4
f 17/24/15 18/26/16 4/25/4
f 18/26/16 5/27/5 4/25/4
f 5/27/5 18/26/16 8/28/8
f 18/26/16 17/24/15 19/29/17
f 18/26/16 19/29/17 8/28/8
f 17/24/15 20/30/18 19/29/17
f 19/29/17 9/31/9 8/28/8
f 19/29/17 20/30/18 12/32/12
f 9/31/9 19/29/17 12/32/12
