# Blender 3.6.18
# www.blender.org
mtllib Mesh.719.mtl
o Bistro_Research_Exterior_paris_building_05_5097
v 18.561806 17.066969 -35.650558
v 18.561804 14.191689 -35.650558
v 18.102135 14.191689 -34.874985
v 18.102139 17.066969 -34.874985
v 17.628290 17.066969 -34.075485
v 18.090649 17.066969 -34.855606
v 18.090649 14.191689 -34.855610
v 17.628288 14.191689 -34.075485
vn -0.8602 -0.0039 -0.5099
vt 0.251221 0.988487
vt 0.251221 0.225098
vt 0.497803 0.225098
vt 0.497803 0.988487
vt 0.249146 0.988487
vt 0.002602 0.988487
vt 0.002602 0.225098
vt 0.249146 0.225098
s 1
usemtl MASTER_Curtains
f 1/1/1 2/2/1 3/3/1
f 3/3/1 4/4/1 1/1/1
f 5/5/1 6/6/1 7/7/1
f 7/7/1 8/8/1 5/5/1
