# Blender 3.6.18
# www.blender.org
mtllib Mesh.1037.mtl
o Bistro_Research_Exterior_Paris_Building_01_paris_buildi_697b5f3
v 3.213364 17.696909 -14.589040
v 3.213363 17.807629 -14.589040
v 2.735856 17.696909 -14.848883
v 2.735856 17.807629 -14.848883
v 2.730857 17.807629 -14.865810
v 2.730857 17.696909 -14.865809
v 3.923756 17.696909 -17.054302
v 3.923756 17.807629 -17.054302
v 3.940682 17.807629 -17.059301
v 3.940682 17.696909 -17.059301
v 4.416280 17.696909 -16.800491
v 4.416280 17.807629 -16.800491
v 4.410346 17.684429 -16.789520
v 3.934719 17.684427 -17.048338
v 3.219327 17.684429 -14.600003
v 2.741819 17.684427 -14.859845
v 3.219327 17.820108 -14.600003
v 2.741819 17.820108 -14.859845
v 3.934718 17.820108 -17.048338
v 4.410347 17.820108 -16.789520
vn -0.4836 -0.1061 0.8688
vn -0.4840 0.0984 0.8696
vn -0.4988 -0.1061 0.8602
vn -0.4992 0.0982 0.8609
vn -0.8775 -0.0039 -0.4796
vn -0.8774 -0.0039 -0.4797
vn 0.4497 0.0978 -0.8878
vn 0.4494 -0.1055 -0.8871
vn 0.4743 -0.1058 -0.8740
vn 0.4757 0.0980 -0.8741
vn 0.0008 -1.0000 -0.0013
vn -0.0039 -1.0000 -0.0039
vn 0.0007 1.0000 -0.0014
vn -0.0039 1.0000 -0.0039
vt 0.001999 0.678467
vt 0.001999 0.647949
vt 0.151855 0.678467
vt 0.151855 0.647949
vt 0.156616 0.647949
vt 0.156616 0.678467
vt 0.843750 0.678467
vt 0.843750 0.647949
vt 0.848633 0.647949
vt 0.848633 0.678467
vt 0.997559 0.678467
vt 0.997559 0.647949
vt 0.699707 0.324707
vt 0.695312 0.324707
vt 0.699707 0.174805
vt 0.695312 0.175293
vt 0.695312 0.170898
vt 0.006672 0.324707
vt 0.006672 0.169922
vt 0.006672 0.174805
vt 0.002253 0.324707
vt 0.002253 0.174316
vt 0.002253 0.002441
vt 0.006672 0.002441
vt 0.002253 0.152832
vt 0.006672 0.152344
vt 0.006672 0.156738
vt 0.695312 0.157227
vt 0.695312 0.152344
vt 0.695312 0.002930
vt 0.699707 0.153320
vt 0.699707 0.002930
s 1
usemtl MASTER_Concrete_Smooth
f 1/1/1 2/2/2 3/3/3
f 2/2/2 4/4/4 3/3/3
f 4/4/4 5/5/5 3/3/3
f 5/5/5 6/6/6 3/3/3
f 6/6/6 5/5/5 7/7/6
f 5/5/5 8/8/6 7/7/6
f 7/7/6 8/8/6 9/9/7
f 10/10/8 7/7/6 9/9/7
f 11/11/9 10/10/8 9/9/7
f 12/12/10 11/11/9 9/9/7
f 11/13/9 13/14/11 10/15/8
f 13/14/11 14/16/12 10/15/8
f 7/17/6 10/15/8 14/16/12
f 13/14/11 15/18/12 14/16/12
f 7/17/6 14/16/12 6/19/6
f 15/18/12 16/20/12 14/16/12
f 14/16/12 16/20/12 6/19/6
f 16/20/12 15/18/12 1/21/1
f 3/22/3 6/19/6 16/20/12
f 3/22/3 16/20/12 1/21/1
f 2/23/2 17/24/13 4/25/4
f 17/24/13 18/26/14 4/25/4
f 18/26/14 5/27/5 4/25/4
f 5/27/5 18/26/14 8/28/6
f 18/26/14 17/24/13 19/29/14
f 18/26/14 19/29/14 8/28/6
f 17/24/13 20/30/14 19/29/14
f 19/29/14 9/31/7 8/28/6
f 19/29/14 20/30/14 12/32/10
f 9/31/7 19/29/14 12/32/10
