# Blender 3.6.18
# www.blender.org
mtllib Mesh.1144.mtl
o Bistro_Research_Exterior_Paris_Building_01_paris_buildi_4ab1a8b
v 1.648723 17.913300 -11.696634
v 1.648722 20.860479 -11.696633
v 1.674466 17.913300 -11.682639
v 1.674511 20.860479 -11.682612
v 1.643635 17.913300 -11.709158
v 1.648902 17.913300 -11.696964
v 1.643634 20.860479 -11.709154
v 1.648898 20.860479 -11.696957
v 1.684927 17.913300 -11.763225
v 1.684926 20.860479 -11.763223
v 1.744993 17.913300 -11.730567
v 1.744993 20.860479 -11.730565
v 1.672655 17.913301 -11.597845
v 1.672655 20.860481 -11.597845
v 1.672648 20.860479 -11.597841
v 1.672648 17.913301 -11.597842
v 1.612699 20.860479 -11.630364
v 1.612704 17.913300 -11.630373
v 1.607524 20.860479 -11.642514
v 1.607526 17.913300 -11.642518
v 1.636547 20.860479 -11.695897
v 1.636549 17.913300 -11.695901
v 1.672657 20.860479 -11.762537
v 1.672659 17.913300 -11.762541
v 1.702307 17.913301 -11.667990
v 1.702306 20.860481 -11.667989
v 1.708079 17.913301 -11.664858
v 1.708079 20.860481 -11.664858
v 1.318231 17.832773 -11.006783
v 1.261430 17.832779 -11.037839
v 1.318231 20.941015 -11.006783
v 1.263326 20.941019 -11.036650
v 1.242706 17.832779 -11.032346
v 1.244587 20.941019 -11.031133
v 1.196705 20.941011 -10.943453
v 1.194598 17.832771 -10.944256
v 1.287919 20.822771 -10.960433
v 1.242315 20.826849 -10.985241
v 1.675649 20.822771 -11.682968
v 1.631521 20.826809 -11.707052
v 1.230204 20.841732 -10.991829
v 1.619407 20.841717 -11.713664
v 1.619136 20.940933 -11.713811
v 1.230028 20.941019 -10.991919
v 1.317522 20.088608 -10.939326
v 1.270285 20.090815 -10.963322
v 1.705254 20.088614 -11.661867
v 1.659504 20.090803 -11.685150
v 1.264556 20.097654 -10.966475
v 1.653765 20.097649 -11.688314
v 1.654481 20.140728 -11.689545
v 1.265360 20.140768 -10.967660
v 1.271252 20.147333 -10.964701
v 1.660354 20.147247 -11.686583
v 1.709204 20.146868 -11.659892
v 1.321484 20.147329 -10.937376
v 1.317767 19.322035 -10.939766
v 1.273165 19.324236 -10.966902
v 1.705506 19.322039 -11.662316
v 1.662377 19.324224 -11.688719
v 1.267317 19.331072 -10.970024
v 1.656525 19.331066 -11.691863
v 1.654845 19.374157 -11.690013
v 1.265725 19.374201 -10.968128
v 1.271252 19.380756 -10.964701
v 1.660354 19.380671 -11.686583
v 1.709204 19.380291 -11.659892
v 1.321484 19.380754 -10.937376
v 1.317817 18.555454 -10.939848
v 1.273185 18.557663 -10.967904
v 1.705558 18.555460 -11.662400
v 1.662396 18.557652 -11.689719
v 1.267379 18.564487 -10.970982
v 1.656588 18.564482 -11.692821
v 1.654853 18.607590 -11.690140
v 1.265733 18.607628 -10.968254
v 1.271252 18.614178 -10.964701
v 1.660354 18.614094 -11.686583
v 1.709204 18.613714 -11.659892
v 1.321484 18.614176 -10.937376
v 2.037287 20.941015 -12.338297
v 1.985240 20.941019 -12.366802
v 2.037289 17.832773 -12.338297
v 1.983174 17.832779 -12.367681
v 1.979750 20.941019 -12.385546
v 1.977660 17.832777 -12.386379
v 2.026129 17.832767 -12.475138
v 2.027815 20.941011 -12.473565
v 2.063719 17.950016 -12.386765
v 2.020504 17.950016 -12.410325
v 1.679530 17.950016 -11.680851
v 1.631781 17.950016 -11.706957
v 2.007722 17.936235 -12.417278
v 1.619334 17.936220 -11.713744
v 1.616812 17.833191 -11.714975
v 2.002737 17.832842 -12.419878
v 2.093382 20.146408 -12.365787
v 2.045913 20.147158 -12.391844
v 2.040059 20.140684 -12.394808
v 2.039432 20.097643 -12.393532
v 2.045182 20.090794 -12.390356
v 2.089445 20.088619 -12.367785
v 2.093382 19.379829 -12.365787
v 2.045913 19.380581 -12.391844
v 2.040424 19.374117 -12.395277
v 2.042192 19.331062 -12.397080
v 2.048048 19.324213 -12.393913
v 2.089705 19.322048 -12.368246
v 2.093382 18.613253 -12.365787
v 2.045913 18.614002 -12.391844
v 2.040432 18.607546 -12.395404
v 2.042254 18.564478 -12.398039
v 2.048064 18.557638 -12.394913
v 2.089758 18.555468 -12.368331
v 1.233357 17.832773 -10.983099
v 1.176556 17.832779 -11.014155
v 1.233357 20.941015 -10.983099
v 1.178452 20.941019 -11.012967
v 1.157831 17.832779 -11.008663
v 1.159713 20.941019 -11.007449
v 1.111831 20.941011 -10.919770
v 1.109724 17.832771 -10.920572
v 1.206923 20.877748 -10.958785
v 1.161319 20.881828 -10.983591
v 2.046394 20.877748 -12.512216
v 2.002266 20.881786 -12.536300
v 1.149208 20.896709 -10.990179
v 1.990153 20.896694 -12.542911
v 1.989881 20.995911 -12.543058
v 1.149032 20.995996 -10.990269
v 2.010041 20.941015 -12.420610
v 1.957994 20.941019 -12.449116
v 2.010043 17.832775 -12.420610
v 1.955929 17.832779 -12.449994
v 1.952504 20.941019 -12.467859
v 1.950414 17.832779 -12.468693
v 1.998883 17.832767 -12.557451
v 2.000569 20.941011 -12.555880
v 1.239517 17.950016 -10.986971
v 1.291799 17.950016 -10.958317
v 1.227406 17.936216 -10.993587
v 1.227344 17.833536 -10.993453
v 2.017184 20.826767 -12.412242
v 2.059837 20.822771 -12.388883
v 2.005069 20.841698 -12.418879
v 2.004701 20.940849 -12.419081
v 1.650820 20.877800 -11.629412
v 1.650820 17.894810 -11.629412
v 1.291799 20.877800 -10.958317
v 1.291799 17.894810 -10.958317
v 1.709387 17.908611 -11.736837
v 1.709387 20.877800 -11.736837
v 2.063717 20.877800 -12.386765
v 2.063719 17.908611 -12.386765
v 2.063719 17.894810 -12.386765
v 1.709387 17.894810 -11.736837
vn 0.4736 -0.0039 -0.8807
vn -0.9187 -0.0039 0.3949
vn 0.5017 -0.0040 0.8650
vn 0.5017 -0.0039 0.8651
vn 0.0276 -0.0040 0.9996
vn 0.0119 -0.0040 0.9999
vn -0.4736 -0.0039 0.8807
vn -0.4736 -0.0000 0.8807
vn -0.8774 -0.0000 -0.4797
vn -0.8775 -0.0039 -0.4797
vn -0.8774 -0.0039 -0.4797
vn -0.0665 -0.0039 -0.9978
vn -0.8774 -0.0038 -0.4797
vn -0.5339 -0.0039 -0.8456
vn -0.5338 -0.0039 -0.8456
vn -0.0587 -0.0039 -0.9983
vn -0.4830 -0.0039 0.8756
vn -0.4829 -0.0039 0.8756
vn 0.4737 0.0003 -0.8807
vn -0.8775 0.0007 -0.4797
vn -0.0742 -0.9963 -0.0430
vn -0.0758 -0.9963 -0.0402
vn -0.0431 -0.9987 -0.0274
vn -0.8775 -0.0039 -0.4796
vn -0.0053 1.0000 -0.0014
vn 0.0008 1.0000 0.0008
vn -0.0018 1.0000 -0.0009
vn -0.0039 1.0000 -0.0039
vn -0.8773 -0.0195 -0.4796
vn -0.0053 1.0000 -0.0015
vn -0.0040 1.0000 -0.0040
vn -0.8774 -0.0117 -0.4797
vn -0.8774 -0.0117 -0.4796
vn -0.4830 0.0003 0.8756
vn -0.8774 0.0007 -0.4797
vn -0.0040 1.0000 -0.0039
vn -0.8769 0.0351 -0.4794
vn 0.0040 1.0000 0.0040
vn 0.0039 1.0000 0.0039
vn 0.0039 1.0000 0.0040
vn 0.1053 -0.0039 -0.9944
vn -0.6290 -0.0039 -0.7774
vn -0.3854 -0.8994 -0.2064
vn -0.3848 -0.8979 -0.2138
vn -0.8168 -0.3712 -0.4416
vn -0.8140 -0.3700 -0.4479
vn -0.7812 -0.0039 0.6242
vn -0.9936 -0.0039 -0.1130
vn -0.0052 1.0000 -0.0015
vn -0.8793 0.0117 -0.4761
vn -0.8774 0.0117 -0.4796
vn -0.0754 -0.9963 -0.0408
vn -0.8807 -0.0039 -0.4736
vt -0.000000 0.276855
vt 1.043945 0.276855
vt -0.000000 0.183594
vt -0.000000 0.170898
vt 1.043945 0.184570
vt 1.043945 0.170898
vt -0.000000 0.152832
vt 1.043945 0.152832
vt 1.043945 0.154297
vt -0.000000 0.154297
vt 1.043945 0.265137
vt -0.000000 0.266113
vt -0.000002 0.296875
vt -0.000000 0.280762
vt 1.053711 0.296875
vt 1.053711 0.280762
vt -0.000000 0.264648
vt 1.053711 0.264160
vt 1.053711 0.172852
vt -0.000000 0.172852
vt 0.653809 0.152832
vt 0.653809 0.168457
vt 0.326904 0.152832
vt 0.326904 0.168457
vt 0.653809 0.185547
vt 0.326904 0.185547
vt 0.326904 0.276855
vt 0.653809 0.276855
vt 0.653809 0.916382
vt 0.653809 0.933044
vt 0.326904 0.916443
vt 0.326904 0.932983
vt 0.653809 0.939514
vt 0.326904 0.939514
vt 0.326904 0.968719
vt 0.653809 0.968719
vt 0.653809 0.975098
vt 0.326904 0.975128
vt 0.326904 0.991951
vt 0.653809 0.991997
vt 0.653809 0.932983
vt 0.326904 0.932922
vt 1.053711 0.152832
vt 1.053711 0.168945
vt -0.000000 0.168945
vt 1.053711 0.185059
vt -0.000000 0.185059
vt 1.053711 0.276855
vt -0.000000 0.296875
vt -0.000000 0.281250
vt 0.352051 0.296875
vt 0.352051 0.281250
vt 0.352051 0.264648
vt 0.352051 0.172852
vt -0.000047 0.991905
vt -0.000047 0.975174
vt -0.000047 0.968719
vt -0.000047 0.939514
vt -0.000047 0.932922
vt -0.000047 0.916504
vt 0.704102 0.280762
vt 0.704102 0.296875
vt 0.704102 0.264648
vt 0.704102 0.172852
vt -0.000000 0.168457
vt -0.000000 0.185547
vt 1.045898 0.738037
vt -0.017853 0.738037
vt 1.045898 0.436523
vt -0.017853 0.436523
vt 0.062622 0.380859
vt 1.122070 0.380859
vt 1.122070 0.682617
vt 0.062622 0.682617
vt 0.057709 0.682617
vt 0.057709 0.380859
s 1
usemtl MASTER_Wood_Painted3
f 1/1/1 2/2/1 3/1/1
f 2/2/1 4/2/1 3/1/1
f 5/3/2 6/4/2 7/5/2
f 6/4/2 8/6/2 7/5/2
f 9/1/1 10/2/1 11/1/1
f 10/2/1 12/2/1 11/1/1
f 13/7/3 14/8/4 15/9/5
f 16/10/6 13/7/3 15/9/5
f 15/9/5 17/6/7 16/10/6
f 17/6/7 18/4/8 16/10/6
f 18/4/8 17/6/7 19/5/9
f 20/3/10 18/4/8 19/5/9
f 20/3/10 19/5/9 21/11/10
f 22/12/11 20/3/10 21/11/10
f 21/11/10 2/2/12 22/12/11
f 2/2/12 1/1/12 22/12/13
f 5/3/11 7/5/11 23/11/14
f 24/12/15 5/3/11 23/11/14
f 23/11/14 10/2/16 24/12/15
f 10/2/16 9/1/16 24/12/15
f 8/6/17 6/4/17 25/10/17
f 26/9/17 8/6/17 25/10/18
f 25/10/18 27/7/17 26/9/17
f 27/7/17 28/8/17 26/9/17
f 29/13/1 30/14/1 31/15/1
f 30/14/1 32/16/19 31/15/1
f 30/14/1 33/17/20 32/16/19
f 33/17/20 34/18/11 32/16/19
f 35/19/11 34/18/11 33/17/20
f 36/20/11 35/19/11 33/17/20
f 37/21/21 38/22/21 39/23/21
f 38/22/21 40/24/22 39/23/21
f 38/22/21 41/25/11 40/24/22
f 41/25/11 42/26/11 40/24/22
f 43/27/11 42/26/11 41/25/11
f 44/28/11 43/27/11 41/25/11
f 45/29/23 46/30/23 47/31/23
f 46/30/23 48/32/23 47/31/23
f 46/30/23 49/33/11 48/32/23
f 49/33/11 50/34/24 48/32/23
f 51/35/11 50/34/24 49/33/11
f 52/36/10 51/35/11 49/33/11
f 52/36/10 53/37/25 51/35/11
f 53/37/25 54/38/26 51/35/11
f 54/38/26 53/37/25 55/39/27
f 53/37/25 56/40/28 55/39/27
f 57/29/23 58/41/23 59/31/23
f 58/41/23 60/42/23 59/31/23
f 58/41/23 61/33/29 60/42/23
f 61/33/29 62/34/29 60/42/23
f 63/35/29 62/34/29 61/33/29
f 64/36/29 63/35/29 61/33/29
f 64/36/29 65/37/30 63/35/29
f 65/37/30 66/38/26 63/35/29
f 66/38/26 65/37/30 67/39/27
f 65/37/30 68/40/31 67/39/27
f 69/29/23 70/30/23 71/31/23
f 70/30/23 72/32/23 71/31/23
f 70/30/23 73/33/32 72/32/23
f 73/33/32 74/34/33 72/32/23
f 75/35/32 74/34/33 73/33/32
f 76/36/32 75/35/32 73/33/32
f 76/36/32 77/37/30 75/35/32
f 77/37/30 78/38/26 75/35/32
f 78/38/26 77/37/30 79/39/27
f 77/37/30 80/40/31 79/39/27
f 81/43/17 82/44/17 83/7/17
f 82/44/17 84/45/34 83/7/17
f 82/44/17 85/46/35 84/45/34
f 85/46/35 86/47/11 84/45/34
f 87/1/11 86/47/11 85/46/35
f 88/48/11 87/1/11 85/46/35
f 89/49/28 90/50/36 91/51/28
f 90/50/36 92/52/28 91/51/28
f 90/50/36 93/17/37 92/52/28
f 93/17/37 94/53/37 92/52/28
f 95/54/37 94/53/37 93/17/37
f 96/20/37 95/54/37 93/17/37
f 97/55/38 98/56/39 55/39/27
f 98/56/39 54/38/26 55/39/27
f 54/38/26 98/56/39 99/57/11
f 51/35/11 54/38/26 99/57/11
f 51/35/11 99/57/11 50/34/24
f 99/57/11 100/58/11 50/34/24
f 50/34/24 100/58/11 101/59/23
f 48/32/23 50/34/24 101/59/23
f 48/32/23 101/59/23 47/31/23
f 101/59/23 102/60/23 47/31/23
f 103/55/40 104/56/40 67/39/27
f 104/56/40 66/38/26 67/39/27
f 66/38/26 104/56/40 105/57/29
f 63/35/29 66/38/26 105/57/29
f 63/35/29 105/57/29 62/34/29
f 105/57/29 106/58/29 62/34/29
f 62/34/29 106/58/29 107/59/23
f 60/42/23 62/34/29 107/59/23
f 60/42/23 107/59/23 59/31/23
f 107/59/23 108/60/23 59/31/23
f 109/55/38 110/56/40 79/39/27
f 110/56/40 78/38/26 79/39/27
f 78/38/26 110/56/40 111/57/33
f 75/35/32 78/38/26 111/57/33
f 75/35/32 111/57/33 74/34/33
f 111/57/33 112/58/33 74/34/33
f 74/34/33 112/58/33 113/59/23
f 72/32/23 74/34/33 113/59/23
f 72/32/23 113/59/23 71/31/23
f 113/59/23 114/60/23 71/31/23
f 115/13/1 116/14/41 117/15/1
f 116/14/41 118/16/41 117/15/1
f 116/14/41 119/17/42 118/16/41
f 119/17/42 120/18/42 118/16/41
f 121/19/11 120/18/42 119/17/42
f 122/20/11 121/19/11 119/17/42
f 123/21/21 124/22/43 125/23/21
f 124/22/43 126/24/44 125/23/21
f 124/22/43 127/25/45 126/24/44
f 127/25/45 128/26/46 126/24/44
f 129/27/11 128/26/46 127/25/45
f 130/28/11 129/27/11 127/25/45
f 131/43/17 132/44/47 133/7/17
f 132/44/47 134/45/47 133/7/17
f 132/44/47 135/46/48 134/45/47
f 135/46/48 136/47/48 134/45/47
f 137/1/11 136/47/48 135/46/48
f 138/48/11 137/1/11 135/46/48
f 139/61/49 140/62/28 91/51/28
f 92/52/28 139/61/49 91/51/28
f 92/52/28 94/53/50 139/61/49
f 94/53/50 141/63/51 139/61/49
f 142/64/51 141/63/51 94/53/50
f 95/54/51 142/64/51 94/53/50
f 143/65/52 144/7/21 39/23/21
f 40/24/22 143/65/52 39/23/21
f 40/24/22 42/26/11 143/65/52
f 42/26/11 145/66/11 143/65/52
f 146/1/24 145/66/11 42/26/11
f 43/27/11 146/1/24 42/26/11
usemtl MASTER_Glass_Dirty_MASKED
f 147/67/53 148/68/53 149/69/53
f 148/68/53 150/70/53 149/69/53
f 151/71/11 152/72/11 153/73/11
f 154/74/11 151/71/11 153/73/11
f 154/74/11 155/75/11 151/71/11
f 155/75/11 156/76/11 151/71/11
