# Blender 3.6.18
# www.blender.org
mtllib Mesh.559.mtl
o Bistro_Research_Exterior_paris_building_09_5437
v -0.226953 22.833836 -40.061367
v 0.436898 22.833836 -39.451351
v -0.226953 20.131418 -40.061367
v 0.436898 20.131418 -39.451351
v 0.452816 22.833836 -39.436726
v 1.116665 22.833836 -38.826710
v 0.452816 20.131418 -39.436726
v 1.116665 20.131418 -38.826710
v -10.046595 6.639102 -21.423685
v -10.544939 6.639102 -21.881615
v -10.046595 6.623103 -21.423685
v -10.544939 6.623103 -21.881615
v -7.152220 6.639103 -25.573759
v -6.653874 6.639103 -25.115826
v -7.152220 6.623103 -25.573759
v -6.653874 6.623103 -25.115826
v -10.775386 4.659060 -23.271681
v -10.775386 2.398368 -23.271681
v -10.390867 4.659060 -23.690136
v -10.390867 2.398368 -23.690136
v -10.090069 4.659060 -24.017479
v -10.090069 2.398368 -24.017479
v -9.309594 4.659060 -24.866837
v -9.309594 2.398368 -24.866837
v -9.007419 4.659060 -25.195679
v -9.007419 2.398368 -25.195681
v -8.622899 4.659060 -25.614134
v -8.622899 2.398368 -25.614136
v -9.614307 6.623103 -21.894123
v -9.614307 6.639102 -21.894123
v -9.115826 6.623103 -21.980917
v -9.115826 6.639102 -21.980917
v -8.700848 6.623103 -22.144444
v -8.700848 6.639102 -22.144444
v -8.238029 6.623103 -22.264011
v -8.238029 6.639102 -22.264011
v -7.376682 6.623103 -23.201374
v -7.376682 6.639102 -23.201374
v -7.273760 6.623103 -23.665470
v -7.273760 6.639102 -23.665470
v -7.150903 6.623103 -24.111254
v -7.150903 6.639103 -24.111254
v -7.103576 6.623103 -24.626432
v -7.103576 6.639103 -24.626432
v -7.601922 6.623103 -25.084366
v -7.601922 6.639103 -25.084366
v -7.880263 6.623103 -24.781460
v -7.880263 6.639103 -24.781460
v -8.158603 6.623103 -24.478554
v -8.158603 6.639103 -24.478554
v -8.436945 6.623103 -24.175650
v -8.436945 6.639103 -24.175650
v -9.298289 6.623103 -23.238287
v -9.298289 6.639102 -23.238287
v -9.569743 6.623103 -22.942875
v -9.569743 6.639102 -22.942875
v -9.841200 6.623103 -22.647465
v -9.841200 6.639102 -22.647465
v -10.112653 6.623103 -22.352053
v -10.112653 6.639102 -22.352053
vn 0.6709 -0.0039 -0.7415
vn -0.6791 -0.0039 0.7340
vn -0.6791 -0.0039 0.7341
vn 0.7380 -0.0040 0.6748
vn 0.7380 -0.0039 0.6748
vn 0.4769 -0.0039 0.8789
vn 0.2638 -0.0039 0.9646
vn 0.3044 -0.0039 0.9526
vn 0.5168 -0.0040 0.8561
vn 0.8872 -0.0039 0.4614
vn 0.8872 -0.0040 0.4613
vn 0.9708 -0.0039 0.2398
vn 0.9708 -0.0040 0.2398
vn 0.9841 -0.0039 0.1778
vn 0.9146 -0.0039 0.4043
vn 0.9146 -0.0040 0.4043
vn -0.7376 -0.0039 -0.6752
vn -0.0039 1.0000 -0.0039
vn -0.0039 -1.0000 -0.0039
vt 0.497803 0.988487
vt 0.251221 0.988487
vt 0.497803 0.225098
vt 0.251221 0.225098
vt 0.486328 0.505127
vt 0.274902 0.505127
vt 0.486328 0.500000
vt 0.274902 0.500000
vt 0.724609 0.505127
vt 0.513184 0.505127
vt 0.724609 0.500000
vt 0.513184 0.500000
vt -0.493896 1.206421
vt -0.493896 -0.206055
vt -0.138916 1.206421
vt -0.138916 -0.206055
vt 0.138794 1.206421
vt 0.138794 -0.206055
vt 0.859375 1.206421
vt 0.859375 -0.206055
vt 1.138672 1.206421
vt 1.138672 -0.206055
vt 1.493164 1.206421
vt 1.493164 -0.206055
vt -0.283447 0.505127
vt -0.283447 0.500000
vt -0.083801 0.500000
vt -0.083801 0.505127
vt 0.041534 0.500000
vt 0.041534 0.505127
vt 0.166870 0.500000
vt 0.166870 0.505127
vt 0.292236 0.500000
vt 0.292236 0.505127
vt 0.689941 0.500000
vt 0.689941 0.505127
vt 0.818359 0.500000
vt 0.818359 0.505127
vt 0.946777 0.500000
vt 0.946777 0.505127
vt 1.075195 0.500000
vt 1.075195 0.505127
vt 1.283203 0.500000
vt 1.283203 0.505127
vt -0.075745 0.500000
vt -0.075745 0.505127
vt 0.052765 0.500000
vt 0.052765 0.505127
vt 0.181274 0.500000
vt 0.181274 0.505127
vt 0.309814 0.500000
vt 0.309814 0.505127
vt 0.707520 0.500000
vt 0.707520 0.505127
vt 0.833008 0.500000
vt 0.833008 0.505127
vt 0.958008 0.500000
vt 0.958008 0.505127
vt 1.083008 0.500000
vt 1.083008 0.505127
vt 1.075195 0.513672
vt 1.283203 0.513672
vt 1.283203 0.725098
vt 1.075195 0.725098
vt 0.946777 0.415527
vt 0.946777 0.725098
vt 0.818359 0.349609
vt 0.818359 0.725098
vt 0.689941 0.275391
vt 0.689941 0.725098
vt 0.292236 0.275391
vt 0.292236 0.725098
vt 0.166870 0.356445
vt 0.166870 0.725098
vt 0.041534 0.417480
vt 0.041534 0.725098
vt -0.083801 0.513672
vt -0.083801 0.725098
vt -0.283447 0.725098
vt -0.283447 0.513672
vt -0.075745 0.513672
vt -0.075745 0.725098
vt 0.052765 0.415527
vt 0.052765 0.725098
vt 0.181274 0.349609
vt 0.181274 0.725098
vt 0.309814 0.275391
vt 0.309814 0.725098
vt 0.707520 0.275391
vt 0.707520 0.725098
vt 0.833008 0.356445
vt 0.833008 0.725098
vt 0.958008 0.417480
vt 0.958008 0.725098
vt 1.083008 0.513672
vt 1.083008 0.725098
s 1
usemtl MASTER_Glass_Dirty
f 1/1/1 2/2/1 3/3/1
f 2/2/1 4/4/1 3/3/1
f 5/1/1 6/2/1 7/3/1
f 6/2/1 8/4/1 7/3/1
f 9/5/2 10/6/3 11/7/2
f 10/6/3 12/8/3 11/7/2
f 13/9/1 14/10/1 15/11/1
f 14/10/1 16/12/1 15/11/1
f 17/13/4 18/14/4 19/15/4
f 18/14/4 20/16/4 19/15/4
f 21/17/4 22/18/4 23/19/4
f 22/18/4 24/20/4 23/19/4
f 25/21/4 26/22/4 27/23/4
f 26/22/4 28/24/4 27/23/4
f 9/25/5 11/26/5 29/27/6
f 30/28/6 9/25/5 29/27/6
f 30/28/6 29/27/6 31/29/7
f 32/30/7 30/28/6 31/29/7
f 32/30/7 31/29/7 33/31/8
f 34/32/8 32/30/7 33/31/8
f 34/32/8 33/31/8 35/33/9
f 36/34/9 34/32/8 35/33/9
f 36/34/9 35/33/9 37/35/10
f 38/36/11 36/34/9 37/35/10
f 38/36/11 37/35/10 39/37/12
f 40/38/13 38/36/11 39/37/12
f 40/38/13 39/37/12 41/39/14
f 42/40/14 40/38/13 41/39/14
f 42/40/14 41/39/14 43/41/15
f 44/42/16 42/40/14 43/41/15
f 44/42/16 43/41/15 16/43/5
f 14/44/5 44/42/16 16/43/5
f 13/25/17 15/26/17 45/45/17
f 46/46/17 13/25/17 45/45/17
f 46/46/17 45/45/17 47/47/17
f 48/48/17 46/46/17 47/47/17
f 48/48/17 47/47/17 49/49/17
f 50/50/17 48/48/17 49/49/17
f 50/50/17 49/49/17 51/51/17
f 52/52/17 50/50/17 51/51/17
f 52/52/17 51/51/17 53/53/17
f 54/54/17 52/52/17 53/53/17
f 54/54/17 53/53/17 55/55/17
f 56/56/17 54/54/17 55/55/17
f 56/56/17 55/55/17 57/57/17
f 58/58/17 56/56/17 57/57/17
f 58/58/17 57/57/17 59/59/17
f 60/60/17 58/58/17 59/59/17
f 60/60/17 59/59/17 12/43/17
f 10/44/17 60/60/17 12/43/17
f 44/61/18 14/62/18 13/63/18
f 46/64/18 44/61/18 13/63/18
f 44/61/18 46/64/18 42/65/18
f 46/64/18 48/66/18 42/65/18
f 42/65/18 48/66/18 40/67/18
f 48/66/18 50/68/18 40/67/18
f 38/69/18 40/67/18 50/68/18
f 52/70/18 38/69/18 50/68/18
f 36/71/18 38/69/18 52/70/18
f 54/72/18 36/71/18 52/70/18
f 36/71/18 54/72/18 34/73/18
f 54/72/18 56/74/18 34/73/18
f 34/73/18 56/74/18 32/75/18
f 56/74/18 58/76/18 32/75/18
f 30/77/18 32/75/18 58/76/18
f 60/78/18 30/77/18 58/76/18
f 30/77/18 60/78/18 10/79/18
f 9/80/18 30/77/18 10/79/18
f 16/80/19 43/81/19 15/79/19
f 43/81/19 45/82/19 15/79/19
f 45/82/19 43/81/19 41/83/19
f 47/84/19 45/82/19 41/83/19
f 47/84/19 41/83/19 39/85/19
f 49/86/19 47/84/19 39/85/19
f 39/85/19 37/87/19 49/86/19
f 37/87/19 51/88/19 49/86/19
f 37/87/19 35/89/19 51/88/19
f 35/89/19 53/90/19 51/88/19
f 53/90/19 35/89/19 33/91/19
f 55/92/19 53/90/19 33/91/19
f 55/92/19 33/91/19 31/93/19
f 57/94/19 55/92/19 31/93/19
f 31/93/19 29/95/19 57/94/19
f 29/95/19 59/96/19 57/94/19
f 59/96/19 29/95/19 12/63/19
f 29/95/19 11/62/19 12/63/19
