# Blender 3.6.18
# www.blender.org
mtllib Mesh.1179.mtl
o Bistro_Research_Exterior_Paris_Building_01_Bistro_bottom_4143
v 7.463919 4.294232 4.563750
v 7.464782 4.294231 4.564091
v 7.463912 0.857384 4.563751
v 7.464774 0.857384 4.564092
v 7.384197 4.294232 4.534491
v 7.385014 4.294232 4.534773
v 7.384189 0.857384 4.534492
v 7.385006 0.857384 4.534774
v 7.471359 4.294231 4.566692
v 7.471351 0.857384 4.566694
v 7.505234 4.294232 4.459316
v 7.505231 0.857384 4.459305
v 7.506096 4.294232 4.459657
v 7.506093 0.857384 4.459647
v 7.427071 4.294232 4.426117
v 7.427067 0.857384 4.426106
v 7.427860 4.294232 4.426469
v 7.427856 0.857384 4.426459
v 7.474129 0.857383 4.559669
v 7.474136 4.294232 4.559668
v 7.492005 0.857383 4.514470
v 7.492011 4.294231 4.514474
v 7.509893 4.294231 4.469284
v 7.509890 0.857384 4.469273
v 7.512673 4.294232 4.462259
v 7.512669 0.857384 4.462249
v 7.391749 0.857384 4.537106
v 7.391756 4.294232 4.537105
v 7.392201 0.857384 4.544721
v 7.392210 4.294231 4.544719
v 7.392945 0.857384 4.557224
v 7.392952 4.294232 4.557223
v 7.393398 0.857384 4.564838
v 7.393405 4.294232 4.564837
v 7.400891 0.857384 4.567639
v 7.400899 4.294232 4.567638
v 7.429344 0.857384 4.578271
v 7.429352 4.294231 4.578271
v 7.436838 0.857384 4.581071
v 7.436845 4.294232 4.581071
v 7.442305 0.857384 4.575758
v 7.442312 4.294232 4.575757
v 7.451868 0.857384 4.566463
v 7.451875 4.294232 4.566463
v 7.457335 0.857384 4.561150
v 7.457342 4.294232 4.561149
v 7.498658 4.294232 4.456713
v 7.498654 0.857384 4.456703
v 7.498305 4.294232 4.449098
v 7.498302 0.857384 4.449088
v 7.497689 4.294232 4.435777
v 7.497686 0.857384 4.435767
v 7.497337 4.294231 4.428161
v 7.497334 0.857384 4.428151
v 7.489955 4.294232 4.425076
v 7.489953 0.857384 4.425066
v 7.461929 4.294232 4.413366
v 7.461926 0.857384 4.413357
v 7.454548 4.294232 4.410283
v 7.454544 0.857384 4.410272
v 7.449008 4.294232 4.415526
v 7.449005 0.857384 4.415517
v 7.439912 4.294232 4.424138
v 7.439909 0.857384 4.424127
v 7.434372 4.294232 4.429381
v 7.434370 0.857384 4.429371
v 7.420557 4.294232 4.423204
v 7.420554 0.857384 4.423194
v 7.417778 4.294232 4.430229
v 7.417775 0.857384 4.430219
v 7.399001 4.294231 4.477680
v 7.398996 0.857384 4.477675
v 7.380225 0.857384 4.525135
v 7.380233 4.294232 4.525135
v 7.377447 0.857384 4.532160
v 7.377454 4.294232 4.532159
vn 0.3627 -0.0039 -0.9319
vn 0.3626 -0.0039 -0.9319
vn 0.3256 -0.0039 -0.9455
vn 0.3680 -0.0040 0.9298
vn -0.3721 -0.0039 0.9282
vn 0.3680 -0.0039 0.9298
vn -0.4138 -0.0039 0.9104
vn 0.9309 -0.0039 0.3653
vn 0.9309 -0.0040 0.3653
vn 0.9044 -0.0039 -0.4267
vn -0.3351 -0.0039 0.9422
vn -0.7881 -0.0039 0.6156
vn -0.7881 -0.0039 0.6155
vn -0.7881 -0.0000 0.6156
vn -0.9983 -0.0039 0.0587
vn -0.7986 -0.0039 0.6019
vn -0.3584 -0.0039 0.9335
vn 0.1855 -0.0040 0.9826
vn 0.1855 -0.0039 0.9826
vn 0.6991 -0.0039 0.7150
vn 0.6992 -0.0040 0.7150
vn 0.6992 -0.0039 0.7150
vn 0.1778 -0.0040 0.9841
vn 0.1778 -0.0000 0.9841
vn 0.1778 -0.0039 0.9841
vn 0.8014 -0.0039 -0.5981
vn 0.9987 -0.0039 -0.0513
vn 0.9987 -0.0040 -0.0513
vn 0.8052 -0.0039 -0.5931
vn 0.3788 -0.0039 -0.9255
vn -0.1675 -0.0039 -0.9859
vn -0.1676 -0.0039 -0.9859
vn -0.6874 -0.0039 -0.7263
vn -0.6874 -0.0038 -0.7263
vn -0.1523 -0.0039 -0.9883
vn 0.4043 -0.0039 -0.9146
vn -0.3558 -0.0039 -0.9345
vn -0.9293 -0.0039 -0.3694
vn -0.8968 -0.0039 0.4425
vn -0.8968 -0.0040 0.4425
vt 0.646484 0.568848
vt 0.646484 0.569092
vt -0.427246 0.568848
vt -0.427246 0.569092
vt 0.646484 0.606934
vt 0.646484 0.607178
vt -0.427246 0.606934
vt -0.427246 0.607178
vt 0.646484 0.566162
vt -0.427246 0.566162
vt 0.646484 0.689209
vt -0.427246 0.689209
vt 0.646484 0.688965
vt -0.427246 0.688965
vt 0.646484 0.651123
vt -0.427246 0.651123
vt 0.646484 0.650879
vt -0.427246 0.650879
vt 0.646484 0.728760
vt -0.427246 0.728760
vt -0.427246 0.726318
vt 0.646484 0.726318
vt -0.427246 0.710205
vt 0.646484 0.710205
vt 0.646484 0.694092
vt -0.427246 0.694092
vt 0.646484 0.691650
vt -0.427246 0.691650
vt -0.427246 0.604492
vt 0.646484 0.604492
vt -0.427246 0.602051
vt 0.646484 0.602051
vt -0.427246 0.597900
vt 0.646484 0.597900
vt -0.427246 0.595459
vt 0.646484 0.595459
vt -0.427246 0.592773
vt 0.646484 0.592773
vt -0.427246 0.583496
vt 0.646484 0.583496
vt -0.427246 0.580811
vt 0.646484 0.580811
vt -0.427246 0.578369
vt 0.646484 0.578369
vt -0.427246 0.573975
vt 0.646484 0.573975
vt -0.427246 0.571533
vt 0.646484 0.571533
vt 0.646484 0.686279
vt -0.427246 0.686279
vt 0.646484 0.683838
vt -0.427246 0.683838
vt 0.646484 0.679443
vt -0.427246 0.679443
vt 0.646484 0.677002
vt -0.427246 0.677002
vt 0.646484 0.674561
vt -0.427246 0.674561
vt 0.646484 0.665039
vt -0.427246 0.665039
vt 0.646484 0.662598
vt -0.427246 0.662598
vt 0.646484 0.660156
vt -0.427246 0.660156
vt 0.646484 0.656006
vt -0.427246 0.656006
vt 0.646484 0.653564
vt -0.427246 0.653564
vt 0.646484 0.648438
vt -0.427246 0.648438
vt 0.646484 0.645752
vt -0.427246 0.645752
vt 0.646484 0.628906
vt -0.427246 0.628906
vt -0.427246 0.612061
vt 0.646484 0.612061
vt -0.427246 0.609619
vt 0.646484 0.609619
s 1
usemtl MASTER_Wood_Painted3
f 1/1/1 2/2/1 3/3/1
f 2/2/2 4/4/2 3/3/2
f 5/5/3 6/6/3 7/7/3
f 6/6/3 8/8/3 7/7/3
f 9/9/4 1/1/5 10/10/6
f 1/1/5 3/3/5 10/10/6
f 11/11/5 12/12/5 13/13/5
f 12/12/5 14/14/5 13/13/5
f 15/15/7 16/16/7 17/17/7
f 16/16/7 18/18/7 17/17/7
f 9/19/4 10/20/6 19/21/8
f 20/22/8 9/19/4 19/21/8
f 20/22/8 19/21/8 21/23/9
f 22/24/8 20/22/8 21/23/9
f 22/24/8 21/23/9 23/25/8
f 21/23/9 24/26/8 23/25/8
f 23/25/8 24/26/8 25/27/10
f 24/26/8 26/28/10 25/27/10
f 25/27/10 26/28/10 11/11/2
f 26/28/10 12/12/2 11/11/2
f 5/5/11 7/7/11 27/29/12
f 28/30/13 5/5/11 27/29/14
f 28/30/13 27/29/14 29/31/15
f 30/32/15 28/30/13 29/31/15
f 30/32/15 29/31/15 31/33/15
f 32/34/15 30/32/15 31/33/15
f 32/34/15 31/33/15 33/35/16
f 34/36/16 32/34/15 33/35/16
f 34/36/16 33/35/16 35/37/17
f 36/38/17 34/36/16 35/37/17
f 36/38/17 35/37/17 37/39/17
f 38/40/17 36/38/17 37/39/17
f 38/40/17 37/39/17 39/41/18
f 40/42/19 38/40/17 39/41/18
f 40/42/19 39/41/18 41/43/20
f 42/44/21 40/42/19 41/43/20
f 42/44/21 41/43/20 43/45/22
f 44/46/20 42/44/21 43/45/22
f 44/46/20 43/45/22 45/47/23
f 46/48/24 44/46/20 45/47/23
f 46/48/24 45/47/23 4/4/5
f 2/2/5 46/48/25 4/4/5
f 13/13/2 14/14/2 47/49/26
f 14/14/2 48/50/26 47/49/26
f 47/49/26 48/50/26 49/51/27
f 48/50/26 50/52/28 49/51/27
f 49/51/27 50/52/28 51/53/27
f 50/52/28 52/54/27 51/53/27
f 51/53/27 52/54/27 53/55/29
f 52/54/27 54/56/29 53/55/29
f 53/55/29 54/56/29 55/57/30
f 54/56/29 56/58/30 55/57/30
f 55/57/30 56/58/30 57/59/30
f 56/58/30 58/60/30 57/59/30
f 57/59/30 58/60/30 59/61/31
f 58/60/30 60/62/32 59/61/31
f 59/61/31 60/62/32 61/63/33
f 60/62/32 62/64/33 61/63/33
f 61/63/33 62/64/33 63/65/34
f 62/64/33 64/66/34 63/65/34
f 63/65/34 64/66/34 65/67/35
f 64/66/34 66/68/35 65/67/35
f 65/67/35 66/68/35 15/15/36
f 66/68/35 16/16/36 15/15/36
f 17/17/36 18/18/36 67/69/37
f 18/18/36 68/70/37 67/69/37
f 67/69/37 68/70/37 69/71/38
f 68/70/37 70/72/38 69/71/38
f 69/71/38 70/72/38 71/73/38
f 70/72/38 72/74/38 71/73/38
f 71/73/38 72/74/38 73/75/38
f 74/76/38 71/73/38 73/75/38
f 74/76/38 73/75/38 75/77/39
f 76/78/39 74/76/38 75/77/39
f 76/78/39 75/77/39 8/8/11
f 6/6/11 76/78/40 8/8/11
