# Blender 3.6.18
# www.blender.org
mtllib Mesh.857.mtl
o Bistro_Research_Exterior_Paris_Building_01_paris_buildi_b7e61a7
v 2.801834 4.100718 -14.390865
v 2.806599 4.098063 -14.399632
v 2.808026 4.096826 -14.402256
v 3.672900 4.243003 -16.206293
v 3.672894 1.893616 -16.206297
v 3.649466 1.893616 -16.218929
v 3.649472 4.243005 -16.218929
v 3.634190 1.893616 -16.220629
v 3.643094 4.245433 -16.215708
v 3.674107 4.246204 -16.199863
v 3.634196 4.235448 -16.220625
v 3.605150 1.893616 -16.212498
v 3.604505 4.218933 -16.206408
v 3.605156 4.214509 -16.212494
v 3.593236 1.893616 -16.202969
v 3.593242 4.198836 -16.202965
v 3.584951 4.177893 -16.170324
v 3.581317 1.893616 -16.180861
v 3.581323 4.173721 -16.180859
v 3.579652 1.893616 -16.165594
v 3.579657 4.161016 -16.165592
v 3.592189 4.158264 -16.144119
v 3.582474 1.893616 -16.155672
v 3.582480 4.153623 -16.155670
v 3.585923 1.893616 -16.139496
v 3.585929 4.140587 -16.139492
v 3.595944 4.135102 -16.115784
v 3.587571 1.893616 -16.128042
v 3.587577 4.131288 -16.128042
v 3.586496 1.893616 -16.111866
v 3.586502 4.115588 -16.111862
v 3.580291 1.893616 -16.089926
v 3.587059 4.102685 -16.083746
v 3.580296 4.093333 -16.089926
v 3.585330 1.893616 -16.078020
v 3.585336 4.088536 -16.078018
v 3.688666 1.893615 -16.022306
v 3.688667 4.088536 -16.022306
v 3.690908 4.101813 -16.026426
v 3.791618 1.893616 -15.965883
v 3.795483 4.102685 -15.970449
v 3.791613 4.088536 -15.965886
v 3.804352 1.893616 -15.968133
v 3.804348 4.093333 -15.968136
v 3.817538 4.135102 -15.995329
v 3.819388 1.893616 -15.985269
v 3.819383 4.115588 -15.985272
v 3.832380 1.893616 -15.994968
v 3.832375 4.131288 -15.994972
v 3.843362 4.158264 -16.007587
v 3.842888 1.893616 -15.999814
v 3.842883 4.140587 -15.999818
v 3.858337 1.893616 -16.005714
v 3.858332 4.153623 -16.005720
v 3.869287 4.177893 -16.015762
v 3.868198 1.893616 -16.008743
v 3.868194 4.161016 -16.008743
v 3.880105 1.893616 -16.018442
v 3.880100 4.173721 -16.018446
v 3.888934 4.218933 -16.051794
v 3.892175 1.893616 -16.040468
v 3.892170 4.198836 -16.040470
v 3.893693 1.893616 -16.055651
v 3.893689 4.214509 -16.055655
v 3.875754 4.245433 -16.089237
v 3.884725 1.893616 -16.084442
v 3.884720 4.235448 -16.084446
v 3.874992 1.893616 -16.096338
v 3.874987 4.243005 -16.096340
v 3.845592 4.246204 -16.106646
v 3.851649 1.893616 -16.109127
v 3.851645 4.243003 -16.109131
v 2.813003 1.893616 -14.213934
v 2.836344 1.893616 -14.201138
v 2.812998 4.243003 -14.213937
v 2.836339 4.243005 -14.201144
v 2.851608 1.893616 -14.199337
v 2.811835 4.246204 -14.220375
v 2.842739 4.245433 -14.204319
v 2.851603 4.235448 -14.199341
v 2.880702 1.893616 -14.207269
v 2.881195 4.219407 -14.212921
v 2.880698 4.214509 -14.207273
v 2.892683 1.893616 -14.216717
v 2.892678 4.198836 -14.216720
v 2.901263 4.177630 -14.249564
v 2.904752 1.893616 -14.238741
v 2.904748 4.173721 -14.238745
v 2.906523 1.893616 -14.253997
v 2.906518 4.161016 -14.254000
v 2.894100 4.158312 -14.275517
v 2.903768 1.893616 -14.263936
v 2.903764 4.153623 -14.263940
v 2.900431 1.893616 -14.280134
v 2.900426 4.140587 -14.280138
v 2.890309 4.135633 -14.303454
v 2.898861 1.893616 -14.291598
v 2.898856 4.131288 -14.291603
v 2.900047 1.893616 -14.307769
v 2.900043 4.115588 -14.307773
v 2.899678 4.102685 -14.335892
v 2.906403 1.893616 -14.329664
v 2.906398 4.093333 -14.329668
v 2.901446 1.893616 -14.341606
v 2.901441 4.088536 -14.341610
v 2.804068 1.893615 -14.394975
v 2.804068 4.088536 -14.394976
v 2.706325 1.893616 -14.447671
v 2.706331 4.088536 -14.447671
v 2.702492 4.102685 -14.443081
v 2.693607 1.893616 -14.445337
v 2.693613 4.093333 -14.445334
v 2.680366 4.135633 -14.417577
v 2.678689 1.893616 -14.428098
v 2.678696 4.115588 -14.428095
v 2.665764 1.893616 -14.418308
v 2.665769 4.131288 -14.418305
v 2.654858 4.158312 -14.405567
v 2.655290 1.893616 -14.413391
v 2.655296 4.140587 -14.413388
v 2.639881 1.893616 -14.407383
v 2.639887 4.153623 -14.407379
v 2.629181 4.177630 -14.397462
v 2.630041 1.893616 -14.404287
v 2.630047 4.161016 -14.404286
v 2.618201 1.893616 -14.394508
v 2.618207 4.173721 -14.394505
v 2.609346 4.219407 -14.360694
v 2.606283 1.893616 -14.372400
v 2.606288 4.198836 -14.372398
v 2.604869 1.893616 -14.357209
v 2.604875 4.214509 -14.357206
v 2.623039 4.245433 -14.323746
v 2.614035 1.893616 -14.328478
v 2.614041 4.235448 -14.328475
v 2.623849 1.893616 -14.316651
v 2.623855 4.243005 -14.316648
v 2.653320 4.246204 -14.306541
v 2.647279 1.893616 -14.304019
v 2.647285 4.243003 -14.304017
v 2.710264 4.096826 -14.454964
v 2.699109 4.104916 -14.455529
v 2.684191 4.127171 -14.438289
v 3.581402 4.096826 -16.070721
v 2.670815 4.141922 -14.427664
v 3.684708 4.096826 -16.015022
v 3.574800 4.104916 -16.079731
v 3.581005 4.127171 -16.101667
v 3.787630 4.096826 -15.958619
v 3.582531 4.141922 -16.118681
v 2.660341 4.151220 -14.422747
v 3.580882 4.151220 -16.130133
v 3.577640 4.163821 -16.146692
v 2.644726 4.163821 -14.416355
v 2.634886 4.171215 -14.413260
v 3.574818 4.171215 -16.156614
v 3.575760 4.185443 -16.170540
v 2.623769 4.185443 -14.404821
v 2.611851 4.210558 -14.382714
v 3.587679 4.210558 -16.192648
v 3.600367 4.224600 -16.203613
v 2.609663 4.224600 -14.366088
v 2.618829 4.245540 -14.337357
v 3.629407 4.245540 -16.211746
v 3.645539 4.251294 -16.211632
v 3.668967 4.251292 -16.198997
v 2.651217 4.251292 -14.311313
v 2.627788 4.251294 -14.323942
v 3.847661 4.251292 -16.101864
v 3.871003 4.251294 -16.089071
v 2.840322 4.251294 -14.208412
v 2.816981 4.251292 -14.221205
v 3.879870 4.245540 -16.075596
v 2.856452 4.245540 -14.208186
v 2.885547 4.224600 -14.216120
v 3.888839 4.224600 -16.046804
v 2.898310 4.210558 -14.226996
v 3.886537 4.210558 -16.030191
v 2.910381 4.185443 -14.249022
v 3.874467 4.185443 -16.008167
v 2.911418 4.171215 -14.262941
v 3.863293 4.171215 -15.999803
v 2.908664 4.163821 -14.272882
v 3.853431 4.163821 -15.996776
v 2.905535 4.151220 -14.289462
v 3.837772 4.151220 -15.990493
v 2.903965 4.141922 -14.300924
v 3.827265 4.141922 -15.985644
v 2.905608 4.127171 -14.317929
v 3.813816 4.127171 -15.975114
v 2.911964 4.104916 -14.339822
v 3.798781 4.104916 -15.957976
v 2.905424 4.096826 -14.348877
vn -0.1679 -0.9413 0.2929
vn -0.1680 -0.9413 0.2929
vn -0.0039 -1.0000 -0.0039
vn 0.4736 -0.0039 -0.8807
vn -0.2690 -0.0039 -0.9631
vn -0.5911 0.6693 -0.4501
vn 0.2012 0.8877 -0.4142
vn -0.2691 -0.0039 -0.9631
vn -0.8629 0.4959 0.0976
vn -0.8775 -0.0039 -0.4797
vn -0.8774 -0.0039 -0.4797
vn -0.9936 -0.0039 -0.1130
vn -0.8124 0.3964 0.4278
vn -0.9713 -0.0039 0.2379
vn -0.9784 -0.0039 0.2066
vn -0.9859 -0.0039 0.1676
vn -0.8597 0.4593 0.2238
vn -0.9978 -0.0039 -0.0665
vn -0.9978 -0.0040 -0.0665
vn -0.9611 -0.0039 -0.2763
vn -0.9611 -0.0039 -0.2762
vn -0.4504 0.3564 0.8186
vn -0.4829 -0.0000 0.8756
vn -0.4830 -0.0039 0.8756
vn 0.7528 -0.0000 0.6582
vn 0.7528 -0.0039 0.6582
vn 0.2713 0.4601 0.8454
vn 0.7528 -0.0040 0.6582
vn 0.5968 -0.0040 0.8024
vn 0.0746 0.3966 0.9149
vn 0.3815 -0.0039 0.9243
vn 0.3584 -0.0039 0.9335
vn 0.3186 -0.0039 0.9479
vn 0.3585 -0.0039 0.9335
vn 0.3824 0.5007 0.7766
vn 0.6328 -0.0039 0.7743
vn 0.8789 -0.0039 0.4769
vn 0.8790 -0.0039 0.4769
vn 0.3824 0.5006 0.7766
vn 0.8790 -0.0040 0.4769
vn 0.9533 -0.0039 -0.3021
vn 0.6927 0.6768 0.2494
vn 0.2327 0.8873 -0.3983
vn 0.2638 -0.0039 0.9646
vn -0.2094 0.8891 0.4070
vn 0.5774 0.6638 0.4753
vn 0.8609 0.4992 -0.0983
vn 0.2638 -0.0040 0.9646
vn 0.9935 -0.0039 0.1139
vn 0.9935 -0.0040 0.1139
vn 0.7834 0.3897 -0.4842
vn 0.9708 -0.0039 -0.2398
vn 0.9781 -0.0040 -0.2082
vn 0.9843 -0.0039 -0.1764
vn 0.8560 0.4616 -0.2327
vn 0.9977 -0.0039 0.0671
vn 0.9977 -0.0039 0.0670
vn 0.9599 -0.0039 0.2805
vn 0.9599 -0.0040 0.2804
vn 0.4429 0.3645 -0.8191
vn 0.9599 -0.0040 0.2805
vn 0.4736 -0.0000 -0.8807
vn 0.4366 0.3657 -0.8220
vn -0.7562 -0.0000 -0.6543
vn -0.7562 -0.0040 -0.6543
vn -0.2786 0.4591 -0.8436
vn -0.7562 -0.0039 -0.6543
vn -0.6031 -0.0039 -0.7976
vn -0.6031 -0.0039 -0.7977
vn -0.0274 0.3881 -0.9212
vn -0.3949 -0.0039 -0.9187
vn -0.3626 -0.0039 -0.9319
vn -0.3326 -0.0039 -0.9431
vn -0.3868 0.4961 -0.7774
vn -0.6375 -0.0039 -0.7704
vn -0.3867 0.4961 -0.7774
vn -0.9533 -0.0039 0.3021
vn -0.7149 0.6602 -0.2305
vn -0.9533 -0.0039 0.3020
vn -0.2408 0.8884 0.3909
vn -0.0039 -1.0000 -0.0040
vn -0.8586 -0.2215 -0.4623
vn -0.1603 -0.9425 0.2933
vn -0.8586 -0.2215 -0.4624
vn -0.7843 -0.6126 0.0976
vn -0.7992 -0.4171 -0.4327
vn 0.1684 -0.9279 -0.3328
vn 0.1759 -0.9266 -0.3323
vn -0.3463 -0.6109 -0.7120
vn 0.1764 -0.9290 -0.3254
vn -0.7992 -0.4171 -0.4328
vn -0.2606 -0.7663 -0.5873
vn -0.6710 -0.6478 -0.3607
vn -0.5917 -0.7957 0.1292
vn -0.3867 -0.4961 -0.7774
vn -0.8144 -0.3780 -0.4404
vn -0.8595 -0.5017 0.0972
vn -0.8144 -0.3780 -0.4403
vn -0.3868 -0.4961 -0.7774
vn -0.8596 -0.5017 0.0972
vn -0.6141 0.7158 -0.3325
vn -0.6141 0.7158 -0.3324
vn -0.3238 0.1054 -0.9402
vn -0.9635 0.1365 0.2302
vn -0.0040 1.0000 -0.0039
vn 0.4039 0.4509 -0.7960
vn -0.0039 1.0000 -0.0040
vn -0.0039 1.0000 -0.0039
vn -0.4439 0.4518 0.7739
vn 0.4375 0.4533 -0.7766
vn 0.9630 0.1062 -0.2476
vn -0.4220 0.4536 0.7849
vn 0.3203 0.1384 0.9372
vn 0.6092 0.7192 0.3341
vn 0.8609 -0.4992 -0.0983
vn 0.3809 -0.5065 0.7736
vn 0.6092 0.7193 0.3340
vn 0.3809 -0.5065 0.7735
vn 0.8789 -0.0040 0.4769
vn 0.8118 -0.3804 0.4431
vn 0.6293 -0.7700 -0.1055
vn 0.6624 -0.6545 0.3645
vn 0.2087 -0.7995 0.5632
vn 0.7813 -0.6164 -0.0981
vn 0.7964 -0.4197 0.4355
vn 0.3343 -0.6175 0.7119
vn 0.7964 -0.4197 0.4354
vn 0.8544 -0.2244 0.4686
vn 0.8545 -0.2244 0.4686
vn 0.8544 -0.2245 0.4686
vt 1.629883 0.681396
vt 1.625977 0.681396
vt 1.625000 0.681396
vt 1.809570 0.537354
vt 1.077148 0.537354
vt 1.077148 0.529297
vt 1.809570 0.529297
vt 1.077148 0.524658
vt 1.811523 0.527100
vt 1.811523 0.538330
vt 1.807617 0.524902
vt 1.077148 0.515625
vt 1.802734 0.513916
vt 1.800781 0.515625
vt 1.077148 0.510986
vt 1.795898 0.511475
vt 1.790039 0.500732
vt 1.077148 0.503418
vt 1.788086 0.503906
vt 1.077148 0.499023
vt 1.784180 0.499512
vt 1.784180 0.491699
vt 1.077148 0.495605
vt 1.782227 0.496094
vt 1.077148 0.490723
vt 1.777344 0.491211
vt 1.776367 0.482910
vt 1.077148 0.487305
vt 1.774414 0.487305
vt 1.077148 0.482422
vt 1.769531 0.482422
vt 1.077148 0.475586
vt 1.765625 0.472656
vt 1.762695 0.475586
vt 1.077148 0.471680
vt 1.761719 0.471680
vt 1.077148 0.435059
vt 1.761719 0.435059
vt 1.765625 0.435059
vt 1.077148 0.398926
vt 1.765625 0.397949
vt 1.760742 0.398926
vt 1.077148 0.395020
vt 1.762695 0.395020
vt 1.776367 0.387207
vt 1.077148 0.388184
vt 1.769531 0.388184
vt 1.076172 0.383301
vt 1.774414 0.383301
vt 1.783203 0.378418
vt 1.076172 0.379395
vt 1.777344 0.379395
vt 1.076172 0.374512
vt 1.781250 0.374023
vt 1.789062 0.369141
vt 1.076172 0.371582
vt 1.783203 0.370605
vt 1.076172 0.366699
vt 1.787109 0.366211
vt 1.801758 0.355957
vt 1.076172 0.358887
vt 1.794922 0.358398
vt 1.076172 0.354492
vt 1.799805 0.354492
vt 1.810547 0.342773
vt 1.076172 0.345215
vt 1.806641 0.345215
vt 1.076172 0.340820
vt 1.808594 0.340820
vt 1.810547 0.331543
vt 1.076172 0.332520
vt 1.808594 0.332520
vt 0.891602 0.611816
vt 0.891602 0.620117
vt 0.159180 0.612061
vt 0.159302 0.620117
vt 0.891602 0.624756
vt 0.157227 0.611084
vt 0.157837 0.622314
vt 0.161743 0.624512
vt 0.891602 0.633789
vt 0.166138 0.635254
vt 0.168091 0.633789
vt 0.891602 0.638428
vt 0.173096 0.637939
vt 0.179199 0.648926
vt 0.891602 0.646240
vt 0.180908 0.645508
vt 0.891602 0.650879
vt 0.184692 0.650146
vt 0.184692 0.657959
vt 0.891602 0.654053
vt 0.186890 0.653564
vt 0.891602 0.659180
vt 0.190796 0.658691
vt 0.191528 0.666748
vt 0.891113 0.662598
vt 0.193604 0.662598
vt 0.891113 0.667480
vt 0.198486 0.667725
vt 0.202148 0.677246
vt 0.891113 0.674561
vt 0.205444 0.674561
vt 0.891113 0.678467
vt 0.206909 0.678223
vt 0.202759 0.712891
vt 0.891113 0.712891
vt 0.206909 0.712891
vt 0.891113 0.747070
vt 0.206787 0.747314
vt 0.202026 0.748291
vt 0.891113 0.750977
vt 0.205322 0.750854
vt 0.191284 0.758545
vt 0.891113 0.757935
vt 0.198242 0.757690
vt 0.891113 0.762817
vt 0.193237 0.762817
vt 0.184326 0.767334
vt 0.891113 0.766235
vt 0.190308 0.766479
vt 0.891113 0.771240
vt 0.186279 0.771729
vt 0.178589 0.776245
vt 0.891113 0.774292
vt 0.184082 0.774902
vt 0.891113 0.778931
vt 0.180176 0.779541
vt 0.165283 0.789673
vt 0.891113 0.786499
vt 0.172363 0.787109
vt 0.891113 0.791138
vt 0.167358 0.791260
vt 0.156860 0.802734
vt 0.891113 0.800293
vt 0.160889 0.800415
vt 0.891113 0.804810
vt 0.158447 0.804810
vt 0.156372 0.813965
vt 0.890625 0.812988
vt 0.158325 0.812866
vt 1.629883 0.717285
vt 1.625000 0.716064
vt 1.626953 0.720215
vt 1.629883 0.645264
vt 1.633789 0.727539
vt 1.640625 0.728516
vt 1.052734 0.717529
vt 1.638672 0.732910
vt 1.052734 0.681396
vt 1.051758 0.720947
vt 1.043945 0.727539
vt 1.047852 0.718506
vt 1.048828 0.681396
vt 1.037109 0.728516
vt 1.052734 0.645264
vt 1.047852 0.644287
vt 1.039062 0.732910
vt 1.030273 0.737549
vt 1.641602 0.736572
vt 1.647461 0.737549
vt 1.036133 0.736572
vt 1.032227 0.741943
vt 1.645508 0.741943
vt 1.024414 0.746582
vt 1.647461 0.745361
vt 1.653320 0.746582
vt 1.030273 0.745361
vt 1.026367 0.750000
vt 1.651367 0.750000
vt 1.011719 0.760010
vt 1.659180 0.757446
vt 1.666992 0.760132
vt 1.018555 0.757446
vt 1.013672 0.761719
vt 1.665039 0.761719
vt 1.002930 0.773071
vt 1.670898 0.770752
vt 1.674805 0.773071
vt 1.006836 0.770752
vt 1.004883 0.775146
vt 1.002930 0.784424
vt 1.004883 0.783203
vt 1.673828 0.783203
vt 1.675781 0.784424
vt 1.673828 0.775146
vt 1.002930 0.578369
vt 1.004883 0.579346
vt 1.002930 0.589600
vt 1.004883 0.587646
vt 1.673828 0.587646
vt 1.673828 0.579346
vt 1.675781 0.578369
vt 1.674805 0.589600
vt 1.006836 0.591797
vt 1.670898 0.591797
vt 1.011719 0.602783
vt 1.665039 0.601074
vt 1.666992 0.602539
vt 1.013672 0.600830
vt 1.659180 0.605225
vt 1.018555 0.605225
vt 1.024414 0.616211
vt 1.651367 0.612793
vt 1.653320 0.616211
vt 1.026367 0.612793
vt 1.647461 0.617432
vt 1.030273 0.617432
vt 1.030273 0.625244
vt 1.645508 0.620605
vt 1.647461 0.625244
vt 1.032227 0.620605
vt 1.641602 0.625977
vt 1.036133 0.625977
vt 1.037109 0.634277
vt 1.638672 0.629883
vt 1.640625 0.634033
vt 1.039062 0.629883
vt 1.633789 0.635254
vt 1.043945 0.635010
vt 1.626953 0.642578
vt 1.051758 0.641846
vt 1.625000 0.646484
s 1
usemtl MASTER_Wood_Painted3
f 1/1/1 2/2/2 3/3/3
f 4/4/4 5/5/4 6/6/4
f 7/7/4 4/4/4 6/6/4
f 6/6/4 8/8/5 7/7/4
f 9/9/6 10/10/7 4/4/4
f 7/7/4 9/9/6 4/4/4
f 8/8/5 11/11/8 7/7/4
f 11/11/8 9/9/6 7/7/4
f 11/11/8 8/8/5 12/12/5
f 13/13/9 9/9/6 11/11/8
f 14/14/8 11/11/8 12/12/5
f 14/14/8 13/13/9 11/11/8
f 12/12/5 15/15/10 14/14/8
f 16/16/11 13/13/9 14/14/8
f 15/15/10 16/16/11 14/14/8
f 17/17/9 13/13/9 16/16/11
f 16/16/11 15/15/10 18/18/11
f 19/19/11 16/16/11 18/18/11
f 19/19/11 17/17/9 16/16/11
f 18/18/11 20/20/12 19/19/11
f 21/21/12 17/17/9 19/19/11
f 20/20/12 21/21/12 19/19/11
f 22/22/13 17/17/9 21/21/12
f 21/21/12 20/20/12 23/23/14
f 24/24/15 21/21/12 23/23/14
f 24/24/15 22/22/13 21/21/12
f 23/23/14 25/25/16 24/24/15
f 26/26/15 22/22/13 24/24/15
f 25/25/16 26/26/15 24/24/15
f 27/27/17 22/22/13 26/26/15
f 26/26/15 25/25/16 28/28/18
f 29/29/19 26/26/15 28/28/18
f 29/29/19 27/27/17 26/26/15
f 28/28/18 30/30/20 29/29/19
f 31/31/21 27/27/17 29/29/19
f 30/30/20 31/31/21 29/29/19
f 31/31/21 30/30/20 32/32/21
f 33/33/22 27/27/17 31/31/21
f 34/34/21 31/31/21 32/32/21
f 34/34/21 33/33/22 31/31/21
f 32/32/21 35/35/23 34/34/21
f 35/35/23 36/36/24 34/34/21
f 36/36/24 33/33/22 34/34/21
f 35/35/23 37/37/24 36/36/24
f 33/33/22 36/36/24 38/38/24
f 37/37/24 38/38/24 36/36/24
f 39/39/22 33/33/22 38/38/24
f 37/37/24 40/40/24 38/38/24
f 41/41/22 39/39/22 38/38/24
f 40/40/24 42/42/24 38/38/24
f 42/42/24 41/41/22 38/38/24
f 40/40/24 43/43/25 42/42/24
f 41/41/22 42/42/24 44/44/26
f 43/43/25 44/44/26 42/42/24
f 41/41/22 44/44/26 45/45/27
f 44/44/26 43/43/25 46/46/26
f 47/47/28 44/44/26 46/46/26
f 44/44/26 47/47/28 45/45/27
f 46/46/26 48/48/29 47/47/28
f 45/45/27 47/47/28 49/49/29
f 48/48/29 49/49/29 47/47/28
f 45/45/27 49/49/29 50/50/30
f 49/49/29 48/48/29 51/51/31
f 52/52/32 49/49/29 51/51/31
f 49/49/29 52/52/32 50/50/30
f 51/51/31 53/53/33 52/52/32
f 50/50/30 52/52/32 54/54/34
f 53/53/33 54/54/34 52/52/32
f 50/50/30 54/54/34 55/55/35
f 54/54/34 53/53/33 56/56/36
f 57/57/36 54/54/34 56/56/36
f 54/54/34 57/57/36 55/55/35
f 56/56/36 58/58/37 57/57/36
f 55/55/35 57/57/36 59/59/38
f 58/58/37 59/59/38 57/57/36
f 55/55/35 59/59/38 60/60/39
f 59/59/38 58/58/37 61/61/38
f 62/62/40 59/59/38 61/61/38
f 59/59/38 62/62/40 60/60/39
f 61/61/38 63/63/41 62/62/40
f 60/60/39 62/62/40 64/64/41
f 63/63/41 64/64/41 62/62/40
f 60/60/39 64/64/41 65/65/42
f 64/64/41 63/63/41 66/66/41
f 67/67/41 64/64/41 66/66/41
f 64/64/41 67/67/41 65/65/42
f 66/66/41 68/68/4 67/67/41
f 65/65/42 67/67/41 69/69/4
f 68/68/4 69/69/4 67/67/41
f 65/65/42 69/69/4 70/70/43
f 69/69/4 68/68/4 71/71/4
f 69/69/4 72/72/4 70/70/43
f 72/72/4 69/69/4 71/71/4
f 73/73/24 74/74/24 75/75/24
f 74/74/24 76/76/24 75/75/24
f 76/76/24 74/74/24 77/77/44
f 78/78/45 75/75/24 79/79/46
f 75/75/24 76/76/24 79/79/46
f 80/80/44 76/76/24 77/77/44
f 79/79/46 76/76/24 80/80/44
f 77/77/44 81/81/44 80/80/44
f 79/79/46 80/80/44 82/82/47
f 81/81/44 83/83/48 80/80/44
f 80/80/44 83/83/48 82/82/47
f 83/83/48 81/81/44 84/84/38
f 82/82/47 83/83/48 85/85/37
f 85/85/37 83/83/48 84/84/38
f 82/82/47 85/85/37 86/86/47
f 84/84/38 87/87/37 85/85/37
f 87/87/37 88/88/37 85/85/37
f 85/85/37 88/88/37 86/86/47
f 88/88/37 87/87/37 89/89/49
f 86/86/47 88/88/37 90/90/50
f 90/90/50 88/88/37 89/89/49
f 86/86/47 90/90/50 91/91/51
f 89/89/49 92/92/52 90/90/50
f 92/92/52 93/93/53 90/90/50
f 90/90/50 93/93/53 91/91/51
f 93/93/53 92/92/52 94/94/54
f 91/91/51 93/93/53 95/95/53
f 95/95/53 93/93/53 94/94/54
f 91/91/51 95/95/53 96/96/55
f 94/94/54 97/97/56 95/95/53
f 97/97/56 98/98/57 95/95/53
f 95/95/53 98/98/57 96/96/55
f 98/98/57 97/97/56 99/99/58
f 96/96/55 98/98/57 100/100/59
f 100/100/59 98/98/57 99/99/58
f 96/96/55 100/100/59 101/101/60
f 99/99/58 102/102/61 100/100/59
f 102/102/61 103/103/58 100/100/59
f 100/100/59 103/103/58 101/101/60
f 103/103/58 102/102/61 104/104/62
f 101/101/60 103/103/58 105/105/4
f 105/105/4 103/103/58 104/104/62
f 101/101/60 105/105/4 1/106/60
f 105/105/4 104/104/62 106/107/4
f 107/108/4 105/105/4 106/107/4
f 105/105/4 107/108/4 1/106/60
f 107/108/4 106/107/4 108/109/4
f 107/108/4 109/110/4 1/106/60
f 109/110/4 107/108/4 108/109/4
f 109/110/4 110/111/63 1/106/60
f 109/110/4 108/109/4 111/112/64
f 112/113/65 110/111/63 109/110/4
f 112/113/65 109/110/4 111/112/64
f 113/114/66 110/111/63 112/113/65
f 111/112/64 114/115/67 112/113/65
f 114/115/67 115/116/67 112/113/65
f 115/116/67 113/114/66 112/113/65
f 115/116/67 114/115/67 116/117/68
f 117/118/69 113/114/66 115/116/67
f 117/118/69 115/116/67 116/117/68
f 118/119/70 113/114/66 117/118/69
f 116/117/68 119/120/71 117/118/69
f 119/120/71 120/121/72 117/118/69
f 120/121/72 118/119/70 117/118/69
f 120/121/72 119/120/71 121/122/73
f 122/123/72 118/119/70 120/121/72
f 122/123/72 120/121/72 121/122/73
f 123/124/74 118/119/70 122/123/72
f 121/122/73 124/125/75 122/123/72
f 124/125/75 125/126/75 122/123/72
f 125/126/75 123/124/74 122/123/72
f 125/126/75 124/125/75 126/127/11
f 127/128/11 123/124/74 125/126/75
f 127/128/11 125/126/75 126/127/11
f 128/129/76 123/124/74 127/128/11
f 126/127/11 129/130/11 127/128/11
f 129/130/11 130/131/11 127/128/11
f 130/131/11 128/129/76 127/128/11
f 130/131/11 129/130/11 131/132/77
f 132/133/77 128/129/76 130/131/11
f 132/133/77 130/131/11 131/132/77
f 133/134/78 128/129/76 132/133/77
f 131/132/77 134/135/77 132/133/77
f 134/135/77 135/136/79 132/133/77
f 135/136/79 133/134/78 132/133/77
f 135/136/79 134/135/77 136/137/24
f 137/138/24 133/134/78 135/136/79
f 137/138/24 135/136/79 136/137/24
f 138/139/80 133/134/78 137/138/24
f 136/137/24 139/140/24 137/138/24
f 140/141/24 138/139/80 137/138/24
f 139/140/24 140/141/24 137/138/24
f 1/1/1 110/142/1 2/2/2
f 2/2/2 110/142/1 141/143/81
f 3/3/3 2/2/2 141/143/81
f 142/144/82 141/143/81 110/142/1
f 101/145/83 1/1/1 3/3/3
f 142/144/82 110/142/1 143/146/84
f 110/142/1 113/147/85 143/146/84
f 144/148/3 141/143/81 142/144/82
f 145/149/86 143/146/84 113/147/85
f 144/148/3 146/150/3 141/143/81
f 146/150/3 3/3/3 141/143/81
f 142/144/82 143/146/84 147/151/82
f 147/151/82 144/148/3 142/144/82
f 148/152/82 143/146/84 145/149/86
f 143/146/84 148/152/82 147/151/82
f 33/153/87 144/148/3 147/151/82
f 144/148/3 33/153/87 39/154/88
f 146/150/3 144/148/3 39/154/88
f 27/155/89 33/153/87 147/151/82
f 148/152/82 27/155/89 147/151/82
f 149/156/3 146/150/3 39/154/88
f 146/150/3 149/156/3 3/3/3
f 41/157/90 149/156/3 39/154/88
f 27/155/89 148/152/82 150/158/91
f 150/158/91 148/152/82 145/149/86
f 22/159/92 27/155/89 150/158/91
f 145/149/86 151/160/93 150/158/91
f 145/149/86 113/147/85 151/160/93
f 113/147/85 118/161/94 151/160/93
f 152/162/93 22/159/92 150/158/91
f 151/160/93 152/162/93 150/158/91
f 22/159/92 152/162/93 153/163/93
f 152/162/93 151/160/93 154/164/93
f 154/164/93 151/160/93 118/161/94
f 153/163/93 152/162/93 154/164/93
f 17/165/95 22/159/92 153/163/93
f 154/164/93 118/161/94 155/166/96
f 154/164/93 155/166/96 153/163/93
f 118/161/94 123/167/97 155/166/96
f 156/168/98 17/165/95 153/163/93
f 155/166/96 156/168/98 153/163/93
f 17/165/95 156/168/98 157/169/11
f 156/168/98 155/166/96 158/170/11
f 158/170/11 155/166/96 123/167/97
f 157/169/11 156/168/98 158/170/11
f 13/171/99 17/165/95 157/169/11
f 158/170/11 123/167/97 159/172/11
f 158/170/11 159/172/11 157/169/11
f 123/167/97 128/173/100 159/172/11
f 160/174/11 13/171/99 157/169/11
f 159/172/11 160/174/11 157/169/11
f 13/171/99 160/174/11 161/175/101
f 160/174/11 159/172/11 162/176/102
f 162/176/102 159/172/11 128/173/100
f 161/175/101 160/174/11 162/176/102
f 9/177/103 13/171/99 161/175/101
f 162/176/102 128/173/100 163/178/101
f 162/176/102 163/178/101 161/175/101
f 128/173/100 133/179/104 163/178/101
f 164/180/102 9/177/103 161/175/101
f 163/178/101 164/180/102 161/175/101
f 9/177/103 164/180/102 165/181/105
f 10/182/106 9/177/103 165/181/105
f 166/183/107 10/182/106 165/181/105
f 167/184/108 166/183/107 165/181/105
f 133/179/104 138/185/109 167/184/108
f 165/181/105 164/180/102 168/186/108
f 168/186/108 167/184/108 165/181/105
f 164/180/102 163/178/101 168/186/108
f 168/186/108 133/179/104 167/184/108
f 168/186/108 163/178/101 133/179/104
f 70/187/110 169/188/108 65/189/111
f 169/188/108 170/190/108 65/189/111
f 171/191/105 170/190/108 169/188/108
f 172/192/108 171/191/105 169/188/108
f 171/191/105 172/192/108 78/193/112
f 79/194/113 171/191/105 78/193/112
f 173/195/114 65/189/111 170/190/108
f 170/190/108 171/191/105 174/196/114
f 174/196/114 171/191/105 79/194/113
f 173/195/114 170/190/108 174/196/114
f 65/189/111 173/195/114 60/197/115
f 175/198/114 174/196/114 79/194/113
f 174/196/114 175/198/114 173/195/114
f 82/199/116 175/198/114 79/194/113
f 173/195/114 176/200/117 60/197/115
f 175/198/114 176/200/117 173/195/114
f 177/201/37 175/198/114 82/199/116
f 176/200/117 175/198/114 177/201/37
f 178/202/37 60/197/115 176/200/117
f 178/202/37 176/200/117 177/201/37
f 60/197/115 178/202/37 55/203/115
f 179/204/37 177/201/37 82/199/116
f 177/201/37 179/204/37 178/202/37
f 86/205/118 179/204/37 82/199/116
f 178/202/37 180/206/119 55/203/115
f 179/204/37 180/206/119 178/202/37
f 181/207/120 179/204/37 86/205/118
f 180/206/119 179/204/37 181/207/120
f 182/208/120 55/203/115 180/206/119
f 182/208/120 180/206/119 181/207/120
f 55/203/115 182/208/120 50/209/121
f 183/210/122 181/207/120 86/205/118
f 181/207/120 183/210/122 182/208/120
f 91/211/123 183/210/122 86/205/118
f 182/208/120 184/212/122 50/209/121
f 183/210/122 184/212/122 182/208/120
f 185/213/122 183/210/122 91/211/123
f 184/212/122 183/210/122 185/213/122
f 186/214/122 50/209/121 184/212/122
f 186/214/122 184/212/122 185/213/122
f 50/209/121 186/214/122 45/215/124
f 187/216/125 185/213/122 91/211/123
f 185/213/122 187/216/125 186/214/122
f 96/217/126 187/216/125 91/211/123
f 186/214/122 188/218/127 45/215/124
f 187/216/125 188/218/127 186/214/122
f 189/219/128 187/216/125 96/217/126
f 188/218/127 187/216/125 189/219/128
f 190/220/129 45/215/124 188/218/127
f 190/220/129 188/218/127 189/219/128
f 45/215/124 190/220/129 41/157/90
f 191/221/129 189/219/128 96/217/126
f 189/219/128 191/221/129 190/220/129
f 101/145/83 191/221/129 96/217/126
f 190/220/129 192/222/130 41/157/90
f 191/221/129 192/222/130 190/220/129
f 149/156/3 41/157/90 192/222/130
f 193/223/3 191/221/129 101/145/83
f 192/222/130 191/221/129 193/223/3
f 149/156/3 192/222/130 193/223/3
f 193/223/3 101/145/83 3/3/3
f 149/156/3 193/223/3 3/3/3
