# Blender 3.6.18
# www.blender.org
mtllib Mesh.615.mtl
o Bistro_Research_Exterior_paris_building_06_1__5315
v 90.913704 0.348875 64.390549
v 90.913643 7.225131 64.390549
v 81.840225 0.349849 71.448982
v 81.840225 7.225131 71.448982
v 90.891922 7.257131 64.366982
v 81.835129 7.257131 71.412483
v 81.599419 7.225131 70.521751
v 81.599419 0.348362 70.521751
v 81.807716 7.225131 71.437248
v 81.807709 0.349803 71.437248
v 90.344101 0.347322 63.723038
v 90.344025 7.225131 63.723038
v 90.917282 0.348816 64.347282
v 90.917221 7.225131 64.347282
v 90.318802 7.257131 63.742706
v 81.628021 7.257131 70.503395
v 90.297165 0.347268 63.719017
v 90.297104 7.225131 63.719082
v 81.617599 7.225131 70.470955
v 81.617599 0.348310 70.470955
vn 0.6107 -0.0039 0.7919
vn 0.6106 -0.0039 0.7919
vn 0.6107 -0.0000 0.7919
vn 0.6107 -0.0040 0.7919
vn -0.0039 1.0000 -0.0039
vn -0.9765 -0.0039 0.2157
vn 0.7340 -0.0039 -0.6791
vn 0.7341 -0.0039 -0.6791
vn 0.7340 -0.0008 -0.6791
vn -0.0040 1.0000 -0.0039
vn -0.0039 1.0000 -0.0040
vn -0.6118 -0.0000 -0.7910
vn -0.6118 -0.0039 -0.7910
vt 2.011719 -0.714844
vt 2.011719 1.433350
vt -1.578125 -0.714844
vt -1.578125 1.433350
vt 2.011719 1.443359
vt -1.573242 1.443359
vt 0.071106 1.433350
vt 0.071106 -0.714844
vt 0.336670 1.433350
vt 0.336670 -0.714844
vt 0.345947 -0.714844
vt 0.345947 1.433350
vt 0.927734 -0.714844
vt 0.927734 1.433350
vt 0.663574 -0.714844
vt 0.663574 1.433350
vt 0.653809 1.433350
vt 0.653809 -0.714844
vt 2.011719 0.664062
vt 2.011719 0.654053
vt 2.021484 0.664062
vt 1.990234 0.927979
vt 2.000000 0.927979
vt -1.573242 0.664062
vt -1.449219 0.927979
vt -1.459961 0.928894
vt -1.583984 0.663330
vt -1.578125 0.654053
vt -1.000000 -0.714844
vt -0.989746 -0.714844
vt -1.000000 1.433350
vt -0.989746 1.433350
vt -0.990723 1.443359
vt 2.449219 1.443359
vt 2.445312 1.433350
vt 2.445312 -0.714844
vt 2.458984 1.433350
vt 2.458984 -0.714844
s 1
usemtl MASTER_Brick_Small_Red_BLENDSHADER
f 1/1/1 2/2/2 3/3/3
f 2/2/2 4/4/4 3/3/3
f 4/4/4 2/2/2 5/5/5
f 6/6/5 4/4/4 5/5/5
f 7/7/6 8/8/6 9/9/6
f 8/8/6 10/10/6 9/9/6
f 10/10/6 3/11/3 9/9/6
f 3/11/3 4/12/4 9/9/6
f 11/13/7 12/14/8 13/15/9
f 12/14/8 14/16/8 13/15/9
f 14/16/8 2/17/2 13/15/9
f 2/17/2 1/18/1 13/15/9
f 5/19/5 2/20/2 14/21/8
f 15/22/10 5/19/5 14/21/8
f 12/23/8 15/22/10 14/21/8
f 5/19/5 15/22/10 6/24/5
f 15/22/10 16/25/11 6/24/5
f 6/24/5 16/25/11 7/26/6
f 9/27/6 6/24/5 7/26/6
f 9/27/6 4/28/4 6/24/5
f 11/29/7 17/30/12 12/31/8
f 17/30/12 18/32/13 12/31/8
f 15/33/10 12/31/8 18/32/13
f 16/34/11 15/33/10 18/32/13
f 19/35/13 18/32/13 17/30/12
f 19/35/13 16/34/11 18/32/13
f 20/36/13 19/35/13 17/30/12
f 19/35/13 7/37/6 16/34/11
f 19/35/13 20/36/13 8/38/6
f 7/37/6 19/35/13 8/38/6
