# Blender 3.6.18
# www.blender.org
mtllib Mesh.585.mtl
o Bistro_Research_Exterior_Paris_Building_08_paris_buildi_ddba73e
v -44.876274 25.480833 -31.801708
v -44.876274 21.798477 -31.801708
v -43.857468 25.480833 -34.226543
v -43.857468 21.798477 -34.226543
v -46.655003 25.480833 -27.568218
v -46.655003 21.798477 -27.568218
v -46.145596 25.480833 -28.780636
v -46.145596 21.798477 -28.780636
v -45.636192 21.798477 -29.993050
v -45.636192 25.480833 -29.993050
v -46.655003 19.009245 -27.568218
v -46.655003 15.326886 -27.568218
v -46.145596 19.009245 -28.780636
v -46.145596 15.326886 -28.780636
v -45.636192 15.326886 -29.993050
v -45.636192 19.009245 -29.993050
v -44.874325 19.009245 -31.806347
v -44.874325 15.326886 -31.806349
v -44.364925 19.009245 -33.018768
v -44.364925 15.326886 -33.018768
v -43.855518 15.326886 -34.231182
v -43.855518 19.009245 -34.231182
v -44.387547 25.480833 -23.325565
v -44.387550 21.798477 -23.325563
v -46.185867 25.480833 -25.244894
v -46.185867 21.798477 -25.244894
v -44.413010 18.943140 -23.341759
v -44.413013 15.260781 -23.341759
v -46.211330 18.943142 -25.261087
v -46.211330 15.260783 -25.261091
v -44.447186 30.712585 -32.252682
v -44.447186 28.531408 -32.252682
v -43.782879 30.712585 -33.833775
v -43.782883 28.531408 -33.833771
v -46.288395 30.712585 -27.870472
v -46.288395 28.531408 -27.870470
v -45.624088 30.712585 -29.451559
v -45.624092 28.531408 -29.451559
v -44.722145 30.712585 -23.852802
v -44.722145 28.547039 -23.852802
v -45.845169 30.712587 -25.148937
v -45.845169 28.547039 -25.148935
vn 0.9243 -0.0039 0.3815
vn 0.9243 -0.0039 0.3816
vn 0.7265 -0.0039 -0.6872
vn 0.7528 -0.0039 -0.6582
vn 0.7528 -0.0040 -0.6582
vt 0.013588 0.956207
vt 0.013588 0.298828
vt 0.483154 0.956207
vt 0.483154 0.298828
vt 0.769531 0.956207
vt 0.769531 0.298828
vt 1.003906 0.956207
vt 1.003906 0.298828
vt 0.992676 0.298828
vt 0.757812 0.298828
vt 0.992676 0.956207
vt 0.757812 0.956207
vt 0.525879 0.956207
vt 0.525879 0.298828
vt 0.746582 0.956207
vt 0.746582 0.298828
vt 0.747070 0.300781
vt 0.526367 0.300781
vt 0.747070 0.957916
vt 0.526367 0.957916
s 1
usemtl MASTER_Curtains
f 1/1/1 2/2/1 3/3/1
f 2/2/1 4/4/1 3/3/1
f 5/5/1 6/6/1 7/7/1
f 6/6/1 8/8/1 7/7/1
f 8/9/1 9/10/1 7/11/1
f 9/10/1 10/12/1 7/11/1
f 11/13/2 12/14/1 13/15/1
f 12/14/1 14/16/1 13/15/1
f 14/17/1 15/18/1 13/19/1
f 15/18/1 16/20/1 13/19/1
f 17/13/1 18/14/1 19/15/1
f 18/14/1 20/16/1 19/15/1
f 20/17/1 21/18/1 19/19/1
f 21/18/1 22/20/1 19/19/1
f 23/1/3 24/2/3 25/3/3
f 24/2/3 26/4/3 25/3/3
f 27/1/3 28/2/3 29/3/3
f 28/2/3 30/4/3 29/3/3
f 31/1/1 32/2/1 33/3/1
f 32/2/1 34/4/1 33/3/1
f 35/1/1 36/2/1 37/3/1
f 36/2/1 38/4/1 37/3/1
f 39/1/4 40/2/4 41/3/4
f 40/2/4 42/4/5 41/3/4
