# Blender 3.6.18
# www.blender.org
mtllib Mesh.1166.mtl
o Bistro_Research_Exterior_Paris_Building_01_paris_buildi_b8ad059
v 4.044684 12.858216 -16.907188
v 3.636640 12.858054 -16.157215
v 4.462703 12.858216 -16.679056
v 4.054658 12.858054 -15.929083
v 1.768509 17.658834 -12.730576
v 1.183778 17.658836 -11.658045
v 2.186628 17.658834 -12.502624
v 1.601896 17.658834 -11.430090
v 0.811165 20.694252 -10.974585
v 0.811165 21.258835 -10.974585
v 1.229283 20.686481 -10.746633
v 1.229283 21.258835 -10.746633
v 0.811167 16.458839 -10.974585
v 1.183780 16.458839 -11.658043
v 1.229285 16.458839 -10.746633
v 1.601898 16.458839 -11.430090
v 1.768509 21.258833 -12.730573
v 2.186628 21.258833 -12.502622
v 1.670233 21.258835 -11.555435
v 1.252113 21.258835 -11.783386
v 4.044681 17.658838 -16.907196
v 4.462473 17.658838 -16.678646
v 4.462474 18.845167 -16.678646
v 4.044681 18.845167 -16.907196
v 4.462474 19.877710 -16.678646
v 4.044681 19.877710 -16.907196
v 4.462474 21.258837 -16.678644
v 4.044682 21.258837 -16.907194
v 4.044686 16.458841 -16.907196
v 4.462706 16.458841 -16.679064
v 4.029399 16.458839 -15.882654
v 3.611378 16.458839 -16.110786
v 3.067143 16.458841 -15.110494
v 3.485160 16.458841 -14.882361
v 0.811165 17.658836 -10.974586
v 1.229283 17.658834 -10.746634
v 1.768512 16.458839 -12.730576
v 2.186631 16.458839 -12.502624
v 3.067141 12.857831 -15.110490
v 3.485160 12.857831 -14.882358
v 1.229285 19.203918 -10.746634
v 0.811165 19.198139 -10.974586
v 2.186628 18.429972 -12.502624
v 1.768509 18.429972 -12.730573
v 2.186628 19.064480 -12.502624
v 1.768510 19.064482 -12.730573
v 2.186628 20.302126 -12.502622
v 1.768510 20.302126 -12.730573
v 3.065901 21.258837 -15.112397
v 3.483691 21.258837 -14.883847
v 3.483691 20.302130 -14.883845
v 3.065901 20.302130 -15.112397
v 3.483691 19.064482 -14.883847
v 3.065901 19.064482 -15.112397
v 3.483691 18.429974 -14.883847
v 3.065901 18.429974 -15.112397
v 3.483691 17.658838 -14.883847
v 3.065901 17.658838 -15.112397
v 3.937985 21.258837 -15.716888
v 3.520195 21.258837 -15.945439
v 3.485160 15.247713 -14.882361
v 3.067141 15.247713 -15.110492
v 3.485160 13.906126 -14.882358
v 3.067141 13.906126 -15.110490
v 1.768512 12.858838 -12.730573
v 2.186631 12.858838 -12.502622
v 2.186631 13.906843 -12.502622
v 1.768512 13.906841 -12.730573
v 2.186631 15.248053 -12.502624
v 1.768512 15.248052 -12.730573
v 1.229285 15.331693 -10.746634
v 0.811167 15.331693 -10.974586
v 1.229285 13.873702 -10.746634
v 0.811167 13.873701 -10.974586
v 1.229285 12.858839 -10.746633
v 0.811167 12.858839 -10.974585
v 4.462704 14.119411 -16.679060
v 4.044684 14.119410 -16.907192
v 4.462705 15.311688 -16.679064
v 4.044684 15.311687 -16.907192
v 4.028619 17.658838 -15.883082
v 3.610826 17.658838 -16.111631
v 1.703058 12.858839 -11.615641
v 1.284941 12.858838 -11.843595
v 4.405845 21.258835 -17.554764
v 4.405844 22.030849 -17.554764
v 4.405845 19.877710 -17.554766
v 4.044679 22.030849 -16.907188
v 4.405843 18.845167 -17.554766
v 3.520195 22.030849 -15.945436
v 3.065902 22.030849 -15.112397
v 4.405843 17.658836 -17.554766
v 2.468293 22.030848 -14.014144
v 4.405841 17.233442 -17.554766
v 2.468291 21.258833 -14.014144
v 4.044681 17.233442 -16.907192
v 1.768506 22.030848 -12.730570
v 2.468291 20.302126 -14.014144
v 1.252115 22.030848 -11.783385
v 0.811167 22.030848 -10.974585
v -0.044312 22.030701 -9.421942
v -0.050314 21.285004 -9.417762
v -0.050365 20.737738 -9.417673
v -0.050502 19.164660 -9.417421
v -0.050636 17.653269 -9.417177
v -0.050558 17.201584 -9.417317
v 0.811168 17.233437 -10.974586
v -0.051666 16.433435 -9.415745
v 1.183780 17.233437 -11.658043
v -0.052006 15.316139 -9.415611
v -0.052443 13.870891 -9.415437
v -0.052748 12.864894 -9.415316
v -0.053252 12.433431 -9.415110
v 0.811175 12.433244 -10.974585
v 1.284944 12.433244 -11.843589
v 1.768510 12.433244 -12.730566
v 2.468297 12.433244 -14.014144
v 2.469634 12.858412 -14.014144
v 3.065904 12.433244 -15.112391
v 2.469634 13.906541 -14.014144
v 3.636122 12.433244 -16.158014
v 4.044684 12.433244 -16.907196
v 4.405843 12.433244 -17.554766
v 4.405842 12.858696 -17.554766
v 4.405843 14.119722 -17.554766
v 4.405843 15.311840 -17.554766
v 4.405843 16.458839 -17.554766
v 3.610826 17.233442 -16.111631
v 3.065902 17.233438 -15.112399
v 2.468293 17.233442 -14.014144
v 2.469634 16.458839 -14.014144
v 2.469634 15.247908 -14.014144
v 1.768510 17.233442 -12.730573
v 2.468291 17.658836 -14.014144
v 2.468291 18.429974 -14.014144
v 2.468291 19.064482 -14.014144
vn -0.0039 1.0000 -0.0039
vn 0.4736 -0.0039 -0.8807
vn 0.4737 -0.0039 -0.8807
vn -0.0039 -1.0000 -0.0039
vn -0.4830 -0.0039 0.8756
vn -0.4830 -0.0040 0.8756
vn -0.8723 -0.0039 -0.4890
vn -0.8741 -0.0039 -0.4856
vn -0.8742 -0.0039 -0.4856
vn -0.8774 -0.0039 -0.4797
vn -0.8741 -0.0039 -0.4857
vt -3.949219 -5.656250
vt -3.708984 -5.656250
vt -3.949219 -5.523438
vt -3.708984 -5.523438
vt -2.609375 -4.304688
vt -2.265625 -4.304688
vt -2.609375 -4.171875
vt -2.265625 -4.171875
vt -2.046875 -3.445312
vt -2.046875 -3.285156
vt -2.179688 -3.445312
vt -2.179688 -3.285156
vt -2.046875 -4.644531
vt -2.265625 -4.644531
vt -2.046875 -4.777344
vt -2.265625 -4.777344
vt -2.609375 -3.285156
vt -2.609375 -3.425781
vt -2.306641 -3.425781
vt -2.306641 -3.285156
vt -2.046875 -3.425781
vt -3.949219 -4.304688
vt -3.814453 -4.304688
vt -3.814453 -3.968750
vt -3.949219 -3.968750
vt -3.814453 -3.679688
vt -3.949219 -3.679688
vt -3.814453 -3.285156
vt -3.949219 -3.285156
vt -3.949219 -4.644531
vt -3.949219 -4.777344
vt -3.693359 -4.777344
vt -3.693359 -4.644531
vt -3.373047 -4.644531
vt -3.373047 -4.777344
vt -2.046875 -4.304688
vt -2.046875 -4.171875
vt -2.609375 -4.644531
vt -2.609375 -4.777344
vt -3.373047 -5.656250
vt -3.373047 -5.523438
vt -2.179688 -3.875000
vt -2.046875 -3.875000
vt -2.179688 -4.304688
vt -2.474609 -4.304688
vt -2.474609 -4.085938
vt -2.609375 -4.085938
vt -2.474609 -3.910156
vt -2.609375 -3.910156
vt -2.474609 -3.558594
vt -2.609375 -3.558594
vt -2.474609 -3.285156
vt -3.373047 -3.285156
vt -3.507812 -3.285156
vt -3.507812 -3.558594
vt -3.373047 -3.558594
vt -3.507812 -3.910156
vt -3.373047 -3.910156
vt -3.507812 -4.085938
vt -3.373047 -4.085938
vt -3.507812 -4.304688
vt -3.373047 -4.304688
vt -3.949219 -3.425781
vt -3.640625 -3.425781
vt -3.640625 -3.285156
vt -3.373047 -3.425781
vt -3.507812 -4.644531
vt -3.507812 -4.984375
vt -3.373047 -4.984375
vt -3.507812 -5.359375
vt -3.373047 -5.359375
vt -3.507812 -5.656250
vt -2.609375 -5.656250
vt -2.474609 -5.656250
vt -2.474609 -5.359375
vt -2.609375 -5.359375
vt -2.474609 -4.984375
vt -2.609375 -4.984375
vt -2.474609 -4.644531
vt -2.179688 -4.644531
vt -2.179688 -4.960938
vt -2.046875 -4.960938
vt -2.179688 -5.371094
vt -2.046875 -5.371094
vt -2.181641 -5.656250
vt -2.046875 -5.656250
vt -3.814453 -5.656250
vt -3.814453 -5.300781
vt -3.949219 -5.300781
vt -3.814453 -4.964844
vt -3.949219 -4.964844
vt -3.814453 -4.644531
vt -3.373047 -4.171875
vt -3.693359 -4.171875
vt -3.693359 -4.304688
vt -3.949219 -4.171875
vt -2.046875 -5.523438
vt -2.326172 -5.523438
vt -2.326172 -5.656250
vt -2.609375 -5.523438
vt -4.156250 -3.285156
vt -4.156250 -3.074219
vt -4.156250 -3.679688
vt -3.949219 -3.074219
vt -4.156250 -3.968750
vt -3.640625 -3.074219
vt -3.373047 -3.074219
vt -4.156250 -4.304688
vt -3.021484 -3.074219
vt -4.156250 -4.429688
vt -3.021484 -3.285156
vt -3.949219 -4.429688
vt -2.609375 -3.074219
vt -3.021484 -3.558594
vt -2.306641 -3.074219
vt -2.046875 -3.074219
vt -1.547852 -3.074219
vt -1.545898 -3.285156
vt -1.545898 -3.445312
vt -1.545898 -3.875000
vt -1.545898 -4.304688
vt -1.545898 -4.429688
vt -2.046875 -4.429688
vt -1.545898 -4.644531
vt -2.265625 -4.429688
vt -1.545898 -4.964844
vt -1.544922 -5.371094
vt -1.544922 -5.656250
vt -1.544922 -5.777344
vt -2.046875 -5.777344
vt -2.326172 -5.777344
vt -2.609375 -5.777344
vt -3.021484 -5.777344
vt -3.021484 -5.656250
vt -3.373047 -5.777344
vt -3.021484 -5.359375
vt -3.708984 -5.777344
vt -3.949219 -5.777344
vt -4.156250 -5.777344
vt -4.156250 -5.656250
vt -4.156250 -5.300781
vt -4.156250 -4.964844
vt -4.156250 -4.644531
vt -3.693359 -4.429688
vt -3.373047 -4.429688
vt -3.021484 -4.429688
vt -3.021484 -4.644531
vt -3.021484 -4.984375
vt -2.609375 -4.429688
vt -3.021484 -4.304688
vt -3.021484 -4.085938
vt -3.021484 -3.910156
s 1
usemtl MASTER_Concrete_Plaster1_BLENDSHADER
f 1/1/1 2/2/1 3/3/1
f 2/2/1 4/4/1 3/3/1
f 5/5/1 6/6/1 7/7/1
f 6/6/1 8/8/1 7/7/1
f 9/9/2 10/10/3 11/11/2
f 10/10/3 12/12/2 11/11/2
f 13/13/4 14/14/4 15/15/4
f 14/14/4 16/16/4 15/15/4
f 17/17/4 18/18/4 19/19/4
f 20/20/4 17/17/4 19/19/4
f 10/10/4 20/20/4 12/21/4
f 20/20/4 19/19/4 12/21/4
f 21/22/5 22/23/5 23/24/5
f 24/25/5 21/22/5 23/24/5
f 24/25/5 23/24/5 25/26/5
f 26/27/5 24/25/5 25/26/5
f 26/27/5 25/26/5 27/28/5
f 28/29/5 26/27/5 27/28/5
f 29/30/4 30/31/4 31/32/4
f 32/33/4 29/30/4 31/32/4
f 33/34/4 32/33/4 34/35/4
f 32/33/4 31/32/4 34/35/4
f 6/6/1 35/36/1 8/8/1
f 35/36/1 36/37/1 8/8/1
f 14/14/4 37/38/4 16/16/4
f 37/38/4 38/39/4 16/16/4
f 2/2/1 39/40/1 4/4/1
f 39/40/1 40/41/1 4/4/1
f 11/11/2 41/42/3 9/9/2
f 41/42/3 42/43/2 9/9/2
f 41/42/3 36/44/2 42/43/2
f 36/44/2 35/36/2 42/43/2
f 5/5/5 7/45/5 43/46/5
f 44/47/5 5/5/5 43/46/5
f 44/47/5 43/46/5 45/48/5
f 46/49/5 44/47/5 45/48/5
f 46/49/5 45/48/5 47/50/5
f 48/51/5 46/49/5 47/50/5
f 48/51/5 47/50/5 18/52/5
f 17/17/5 48/51/5 18/52/5
f 49/53/2 50/54/2 51/55/2
f 52/56/2 49/53/2 51/55/2
f 52/56/2 51/55/2 53/57/2
f 54/58/2 52/56/2 53/57/2
f 54/58/2 53/57/2 55/59/2
f 56/60/2 54/58/2 55/59/2
f 56/60/2 55/59/2 57/61/2
f 58/62/2 56/60/2 57/61/2
f 28/29/4 27/63/4 59/64/4
f 60/65/4 28/29/4 59/64/4
f 60/65/4 59/64/4 50/66/4
f 49/53/4 60/65/4 50/66/4
f 33/34/2 34/67/2 61/68/2
f 62/69/2 33/34/2 61/68/2
f 62/69/2 61/68/2 63/70/2
f 64/71/2 62/69/2 63/70/2
f 64/71/2 63/70/2 40/72/2
f 39/40/2 64/71/2 40/72/2
f 65/73/5 66/74/6 67/75/5
f 68/76/5 65/73/5 67/75/5
f 68/76/5 67/75/5 69/77/5
f 70/78/5 68/76/5 69/77/5
f 70/78/5 69/77/5 38/79/5
f 37/38/5 70/78/5 38/79/5
f 13/13/2 15/80/2 71/81/2
f 72/82/2 13/13/2 71/81/2
f 72/82/2 71/81/2 73/83/2
f 74/84/2 72/82/2 73/83/2
f 74/84/2 73/83/2 75/85/2
f 76/86/3 74/84/3 75/85/3
f 1/1/5 3/87/5 77/88/5
f 78/89/5 1/1/5 77/88/5
f 78/89/5 77/88/5 79/90/5
f 80/91/5 78/89/5 79/90/5
f 80/91/5 79/90/5 30/92/5
f 29/30/5 80/91/5 30/92/5
f 58/62/1 57/93/1 81/94/1
f 82/95/1 58/62/1 81/94/1
f 82/95/1 81/94/1 22/96/1
f 21/22/1 82/95/1 22/96/1
f 76/86/1 75/97/1 83/98/1
f 84/99/1 76/86/1 83/98/1
f 84/99/1 83/98/1 66/100/1
f 65/73/1 84/99/1 66/100/1
f 85/101/7 28/29/8 86/102/7
f 28/29/8 85/101/7 87/103/7
f 28/29/8 88/104/9 86/102/7
f 26/27/7 28/29/8 87/103/7
f 28/29/8 60/65/10 88/104/9
f 26/27/7 87/103/7 89/105/7
f 60/65/10 90/106/10 88/104/9
f 24/25/7 26/27/7 89/105/7
f 60/65/10 49/53/10 90/106/10
f 21/22/9 24/25/7 89/105/7
f 49/53/10 91/107/10 90/106/10
f 92/108/7 21/22/9 89/105/7
f 91/107/10 49/53/10 93/109/10
f 21/22/9 92/108/7 94/110/7
f 49/53/10 95/111/10 93/109/10
f 96/112/9 21/22/9 94/110/7
f 95/111/10 17/17/10 93/109/10
f 17/17/10 97/113/10 93/109/10
f 95/111/10 49/53/10 98/114/10
f 17/17/10 95/111/10 98/114/10
f 49/53/10 52/56/10 98/114/10
f 17/17/10 20/20/10 97/113/10
f 20/20/10 99/115/10 97/113/10
f 48/51/10 17/17/10 98/114/10
f 20/20/10 10/10/10 99/115/10
f 52/56/10 54/58/10 98/114/10
f 10/10/10 100/116/10 99/115/10
f 100/116/10 10/10/10 101/117/9
f 10/10/10 102/118/9 101/117/9
f 102/118/9 10/10/10 103/119/11
f 10/10/10 9/9/11 103/119/11
f 9/9/11 42/43/9 103/119/11
f 42/43/9 104/120/9 103/119/11
f 42/43/9 35/36/10 104/120/9
f 35/36/10 105/121/9 104/120/9
f 105/121/9 35/36/10 106/122/8
f 35/36/10 107/123/10 106/122/8
f 107/123/10 13/13/8 106/122/8
f 13/13/8 108/124/9 106/122/8
f 107/123/10 35/36/10 109/125/10
f 13/13/8 107/123/10 109/125/10
f 35/36/10 6/6/10 109/125/10
f 108/124/9 13/13/8 110/126/8
f 6/6/10 5/5/10 109/125/10
f 13/13/8 72/82/9 110/126/8
f 72/82/9 74/84/8 110/126/8
f 14/14/10 13/13/8 109/125/10
f 74/84/8 111/127/9 110/126/8
f 74/84/8 76/86/9 111/127/9
f 76/86/9 112/128/8 111/127/9
f 112/128/8 76/86/9 113/129/9
f 76/86/9 114/130/10 113/129/9
f 114/130/10 76/86/9 115/131/10
f 76/86/9 84/99/10 115/131/10
f 84/99/10 65/73/10 115/131/10
f 65/73/10 116/132/10 115/131/10
f 116/132/10 65/73/10 117/133/10
f 65/73/10 118/134/10 117/133/10
f 118/134/10 39/40/10 117/133/10
f 39/40/10 119/135/10 117/133/10
f 118/134/10 65/73/10 120/136/10
f 39/40/10 118/134/10 120/136/10
f 65/73/10 68/76/10 120/136/10
f 119/135/10 39/40/10 121/137/10
f 68/76/10 70/78/10 120/136/10
f 39/40/10 2/2/10 121/137/10
f 64/71/10 39/40/10 120/136/10
f 2/2/10 1/1/9 121/137/10
f 1/1/9 122/138/9 121/137/10
f 122/138/9 1/1/9 123/139/7
f 1/1/9 124/140/7 123/139/7
f 124/140/7 1/1/9 125/141/7
f 1/1/9 78/89/7 125/141/7
f 78/89/7 80/91/7 125/141/7
f 80/91/7 126/142/7 125/141/7
f 80/91/7 29/30/8 126/142/7
f 29/30/8 127/143/7 126/142/7
f 127/143/7 29/30/8 94/110/7
f 29/30/8 96/112/9 94/110/7
f 29/30/8 32/33/10 96/112/9
f 32/33/10 128/144/10 96/112/9
f 21/22/9 96/112/9 128/144/10
f 82/95/10 21/22/9 128/144/10
f 32/33/10 33/34/10 128/144/10
f 58/62/10 82/95/10 128/144/10
f 33/34/10 129/145/10 128/144/10
f 129/145/10 58/62/10 128/144/10
f 129/145/10 33/34/10 130/146/10
f 58/62/10 129/145/10 130/146/10
f 33/34/10 131/147/10 130/146/10
f 131/147/10 33/34/10 132/148/10
f 33/34/10 62/69/10 132/148/10
f 62/69/10 64/71/10 132/148/10
f 64/71/10 120/136/10 132/148/10
f 70/78/10 132/148/10 120/136/10
f 70/78/10 37/38/10 132/148/10
f 37/38/10 131/147/10 132/148/10
f 131/147/10 37/38/10 130/146/10
f 37/38/10 133/149/10 130/146/10
f 37/38/10 14/14/10 133/149/10
f 14/14/10 109/125/10 133/149/10
f 5/5/10 133/149/10 109/125/10
f 133/149/10 5/5/10 130/146/10
f 5/5/10 134/150/10 130/146/10
f 134/150/10 58/62/10 130/146/10
f 134/150/10 5/5/10 135/151/10
f 58/62/10 134/150/10 135/151/10
f 5/5/10 44/47/10 135/151/10
f 56/60/10 58/62/10 135/151/10
f 44/47/10 46/49/10 135/151/10
f 56/60/10 135/151/10 136/152/10
f 46/49/10 136/152/10 135/151/10
f 54/58/10 56/60/10 136/152/10
f 46/49/10 48/51/10 136/152/10
f 54/58/10 136/152/10 98/114/10
f 48/51/10 98/114/10 136/152/10
