# Blender 3.6.18
# www.blender.org
mtllib Mesh.743.mtl
o Bistro_Research_Exterior_paris_building_05_5049
v 24.439062 16.991146 -46.821041
v 24.178425 16.991146 -46.385033
v 24.229837 16.991146 -46.354298
v 24.490475 16.991146 -46.790306
v 24.229837 16.895023 -46.354298
v 24.490475 16.895023 -46.790306
v 24.439062 16.895025 -46.821041
v 24.178425 16.895023 -46.385033
v 24.485310 14.291605 -46.787716
v 24.438822 14.291605 -46.815506
v 24.438822 16.899364 -46.815506
v 24.485308 16.899364 -46.787716
v 24.445343 16.899364 -46.720863
v 24.445343 14.291605 -46.720863
v 24.398855 14.291605 -46.748650
v 24.398855 16.899364 -46.748650
v 24.230860 16.892868 -46.436760
v 24.411568 16.892868 -46.739056
v 24.411566 14.294684 -46.739056
v 24.230860 14.294683 -46.436760
v 24.180851 14.291605 -46.383961
v 24.227337 14.291605 -46.356171
v 24.227337 16.899364 -46.356171
v 24.180851 16.899364 -46.383961
v 24.220814 16.899364 -46.450809
v 24.220816 14.291605 -46.450809
v 24.267303 14.291605 -46.423023
v 24.267302 16.899364 -46.423023
v 24.439062 14.291189 -46.821041
v 24.178425 14.291189 -46.385033
v 24.229837 14.291189 -46.354298
v 24.490475 14.291189 -46.790306
v 24.229837 14.195069 -46.354298
v 24.490475 14.195069 -46.790306
v 24.439062 14.195070 -46.821041
v 24.178425 14.195069 -46.385033
v 24.178442 16.991146 -46.385067
v 23.917810 16.991146 -45.949062
v 23.969223 16.991146 -45.918327
v 24.229858 16.991146 -46.354336
v 23.969223 16.895023 -45.918327
v 24.229858 16.895023 -46.354336
v 24.178442 16.895025 -46.385067
v 23.917810 16.895023 -45.949062
v 24.224695 14.291605 -46.351746
v 24.178205 14.291605 -46.379532
v 24.178205 16.899364 -46.379532
v 24.224695 16.899364 -46.351746
v 24.184732 16.899364 -46.284889
v 24.184731 14.291605 -46.284889
v 24.138241 14.291605 -46.312679
v 24.138243 16.899364 -46.312679
v 23.969610 16.892868 -45.999722
v 24.150314 16.892868 -46.302017
v 24.150314 14.294684 -46.302017
v 23.969608 14.294683 -45.999722
v 23.922295 14.291605 -45.951424
v 23.968782 14.291605 -45.923634
v 23.968782 16.899364 -45.923634
v 23.922295 16.899364 -45.951424
v 23.962257 16.899364 -46.018280
v 23.962257 14.291605 -46.018280
v 24.008743 14.291605 -45.990490
v 24.008745 16.899364 -45.990490
v 24.178442 14.291189 -46.385067
v 23.917810 14.291189 -45.949062
v 23.969223 14.291189 -45.918327
v 24.229858 14.291189 -46.354336
v 23.969223 14.195069 -45.918327
v 24.229858 14.195069 -46.354336
v 24.178442 14.195070 -46.385067
v 23.917810 14.195069 -45.949062
vn -0.0039 1.0000 -0.0039
vn 0.8596 -0.0040 0.5110
vn -0.8582 -0.0039 -0.5133
vn 0.5075 -0.0039 -0.8616
vn -0.5168 -0.0039 0.8561
vn -0.5168 -0.0040 0.8561
vn -0.0039 -1.0000 -0.0039
vn 0.5076 -0.0039 -0.8616
vn 0.8596 -0.0039 0.5110
vt 0.327881 0.353027
vt 0.327881 0.432129
vt 0.318604 0.432129
vt 0.318604 0.353027
vt 0.315430 0.432129
vt 0.300537 0.432129
vt 0.300537 0.352539
vt 0.315430 0.352539
vt 0.270020 0.352051
vt 0.284912 0.352051
vt 0.284912 0.431641
vt 0.270020 0.431641
vt 0.269775 0.345215
vt 0.269775 0.335938
vt 0.284912 0.335938
vt 0.284912 0.345215
vt 0.288086 0.345215
vt 0.288086 0.335938
vt 0.303223 0.335938
vt 0.303223 0.345215
vt 0.287842 0.352539
vt 0.297363 0.352539
vt 0.297363 0.432129
vt 0.287842 0.432129
vt 0.858398 0.978256
vt 0.848633 0.978256
vt 0.848633 0.570801
vt 0.858398 0.570801
vt 0.812012 0.571289
vt 0.812012 0.978668
vt 0.799805 0.978668
vt 0.799805 0.571289
vt 0.845215 0.572021
vt 0.845215 0.979340
vt 0.833008 0.979340
vt 0.833008 0.572021
vt 0.827637 0.980072
vt 0.817871 0.980072
vt 0.817871 0.572754
vt 0.827637 0.572754
vt 0.377197 0.011230
vt 0.432373 0.011230
vt 0.432373 0.416992
vt 0.377197 0.416992
s 1
usemtl MASTER_Building_Details
f 1/1/1 2/2/1 3/3/1
f 3/3/1 4/4/1 1/1/1
f 3/5/2 5/6/2 6/7/2
f 6/7/2 4/8/2 3/5/2
f 1/9/3 7/10/3 8/11/3
f 8/11/3 2/12/3 1/9/3
f 1/13/4 4/14/4 6/15/4
f 6/15/4 7/16/4 1/13/4
f 3/17/5 2/18/6 8/19/5
f 8/19/5 5/20/6 3/17/5
f 7/21/7 6/22/7 5/23/7
f 5/23/7 8/24/7 7/21/7
f 9/25/4 10/26/4 11/27/4
f 11/27/4 12/28/4 9/25/4
f 9/29/2 12/30/2 13/31/2
f 13/31/2 14/32/2 9/29/2
f 11/33/3 10/34/3 15/35/3
f 15/35/3 16/36/3 11/33/3
f 15/37/6 14/38/6 13/39/6
f 13/39/6 16/40/6 15/37/6
f 17/41/3 18/42/3 19/43/3
f 19/43/3 20/44/3 17/41/3
f 21/25/6 22/26/6 23/27/6
f 23/27/6 24/28/6 21/25/6
f 21/29/3 24/30/3 25/31/3
f 25/31/3 26/32/3 21/29/3
f 23/33/2 22/34/2 27/35/2
f 27/35/2 28/36/2 23/33/2
f 27/37/4 26/38/4 25/39/4
f 25/39/4 28/40/4 27/37/4
f 29/1/1 30/2/1 31/3/1
f 31/3/1 32/4/1 29/1/1
f 31/5/2 33/6/2 34/7/2
f 34/7/2 32/8/2 31/5/2
f 29/9/3 35/10/3 36/11/3
f 36/11/3 30/12/3 29/9/3
f 29/13/4 32/14/4 34/15/8
f 34/15/8 35/16/4 29/13/4
f 31/17/5 30/18/6 36/19/5
f 36/19/5 33/20/6 31/17/5
f 35/21/7 34/22/7 33/23/7
f 33/23/7 36/24/7 35/21/7
f 37/1/1 38/2/1 39/3/1
f 39/3/1 40/4/1 37/1/1
f 39/5/2 41/6/2 42/7/2
f 42/7/2 40/8/2 39/5/2
f 37/9/3 43/10/3 44/11/3
f 44/11/3 38/12/3 37/9/3
f 37/13/4 40/14/4 42/15/4
f 42/15/4 43/16/4 37/13/4
f 39/17/5 38/18/5 44/19/5
f 44/19/5 41/20/6 39/17/5
f 43/21/7 42/22/7 41/23/7
f 41/23/7 44/24/7 43/21/7
f 45/25/4 46/26/4 47/27/8
f 47/27/8 48/28/4 45/25/4
f 45/29/2 48/30/2 49/31/2
f 49/31/9 50/32/9 45/29/9
f 47/33/3 46/34/3 51/35/3
f 51/35/3 52/36/3 47/33/3
f 51/37/5 50/38/5 49/39/5
f 49/39/5 52/40/5 51/37/5
f 53/41/3 54/42/3 55/43/3
f 55/43/3 56/44/3 53/41/3
f 57/25/6 58/26/6 59/27/6
f 59/27/6 60/28/6 57/25/6
f 57/29/3 60/30/3 61/31/3
f 61/31/3 62/32/3 57/29/3
f 59/33/9 58/34/9 63/35/9
f 63/35/2 64/36/2 59/33/2
f 63/37/8 62/38/4 61/39/8
f 61/39/8 64/40/4 63/37/8
f 65/1/1 66/2/1 67/3/1
f 67/3/1 68/4/1 65/1/1
f 67/5/2 69/6/2 70/7/2
f 70/7/2 68/8/2 67/5/2
f 65/9/3 71/10/3 72/11/3
f 72/11/3 66/12/3 65/9/3
f 65/13/4 68/14/4 70/15/4
f 70/15/4 71/16/4 65/13/4
f 67/17/5 66/18/6 72/19/5
f 72/19/5 69/20/6 67/17/5
f 71/21/7 70/22/7 69/23/7
f 69/23/7 72/24/7 71/21/7
