# Blender 3.6.18
# www.blender.org
mtllib Mesh.1057.mtl
o Bistro_Research_Exterior_Paris_Building_01_paris_buildi_493d356
v 4.219661 7.685844 2.913870
v 4.219661 7.796563 2.913870
v 4.027262 7.685844 3.422313
v 4.027262 7.796562 3.422313
v 4.011171 7.796562 3.429570
v 4.011171 7.685844 3.429570
v 1.817086 7.675549 2.599682
v 1.817086 7.786268 2.599682
v 1.809830 7.786268 2.583594
v 1.809830 7.675549 2.583594
v 2.001469 7.675550 2.077184
v 2.001469 7.786269 2.077184
v 2.013144 7.663070 2.081569
v 1.821503 7.663070 2.588009
v 4.207988 7.673364 2.909455
v 4.015589 7.673364 3.417897
v 4.207988 7.809043 2.909455
v 4.015589 7.809043 3.417897
v 1.821504 7.798749 2.588009
v 2.013144 7.798749 2.081569
vn 0.9300 -0.1061 0.3519
vn 0.9316 0.0983 0.3498
vn 0.9246 -0.1062 0.3659
vn 0.9253 0.0984 0.3662
vn -0.3499 0.0982 0.9316
vn -0.3496 -0.1060 0.9309
vn -0.3590 -0.1065 0.9272
vn -0.3662 0.0985 0.9253
vn -0.9386 0.0974 -0.3310
vn -0.9378 -0.1051 -0.3308
vn -0.9294 -0.1050 -0.3539
vn -0.9308 0.0973 -0.3523
vn -0.0046 -1.0000 -0.0022
vn -0.0039 -1.0000 -0.0039
vn -0.0049 1.0000 -0.0014
vn -0.0039 1.0000 -0.0039
vn -0.0040 1.0000 -0.0039
vt 2.312500 1.498047
vt 2.312500 1.541504
vt 2.099609 1.498291
vt 2.099609 1.541504
vt 2.091797 1.541504
vt 2.091797 1.498291
vt 1.175781 1.494141
vt 1.175781 1.537598
vt 1.168945 1.537598
vt 1.168945 1.494141
vt 0.957031 1.494385
vt 0.957031 1.537598
vt 1.185547 1.076660
vt 1.192383 1.076660
vt 1.185547 1.300781
vt 1.192383 1.300781
vt 1.191406 1.307373
vt 2.162109 1.076660
vt 2.162109 1.307373
vt 2.162109 1.300781
vt 2.166016 1.076660
vt 2.166016 1.300781
vt 2.169922 0.969696
vt 2.164062 0.969696
vt 2.169922 0.745605
vt 2.164062 0.745605
vt 2.166016 0.739014
vt 1.195312 0.739014
vt 1.196289 0.745605
vt 1.196289 0.969696
vt 1.189453 0.745605
vt 1.189453 0.969696
s 1
usemtl MASTER_Concrete_Smooth
f 1/1/1 2/2/2 3/3/3
f 2/2/2 4/4/4 3/3/3
f 4/4/4 5/5/5 3/3/3
f 5/5/5 6/6/6 3/3/3
f 6/6/6 5/5/5 7/7/7
f 5/5/5 8/8/8 7/7/7
f 7/7/7 8/8/8 9/9/9
f 10/10/10 7/7/7 9/9/9
f 11/11/11 10/10/10 9/9/9
f 12/12/12 11/11/11 9/9/9
f 11/13/11 13/14/13 10/15/10
f 13/14/13 14/16/14 10/15/10
f 7/17/7 10/15/10 14/16/14
f 13/14/13 15/18/14 14/16/14
f 7/17/7 14/16/14 6/19/6
f 15/18/14 16/20/14 14/16/14
f 14/16/14 16/20/14 6/19/6
f 16/20/14 15/18/14 1/21/1
f 3/22/3 6/19/6 16/20/14
f 3/22/3 16/20/14 1/21/1
f 2/23/2 17/24/15 4/25/4
f 17/24/15 18/26/16 4/25/4
f 18/26/16 5/27/5 4/25/4
f 5/27/5 18/26/16 8/28/8
f 18/26/16 17/24/15 19/29/17
f 18/26/16 19/29/17 8/28/8
f 17/24/15 20/30/16 19/29/17
f 19/29/17 9/31/9 8/28/8
f 19/29/17 20/30/16 12/32/12
f 9/31/9 19/29/17 12/32/12
