# Blender 3.6.18
# www.blender.org
mtllib Mesh.914.mtl
o Bistro_Research_Exterior_Paris_Building_01_paris_buildi_ec844cf
v -2.799309 4.126962 -3.956915
v -2.793812 4.121709 -3.945489
v -2.802512 4.126962 -3.941303
v -2.806399 4.130675 -3.949383
v -2.806116 4.139641 -3.939570
v -2.801586 4.139641 -3.961648
v -2.808009 4.139641 -3.952730
v -2.799309 4.152320 -3.956915
v -2.806399 4.148607 -3.949383
v -2.793812 4.157572 -3.945488
v -2.802512 4.152321 -3.941303
v -2.788316 4.152320 -3.934062
v -2.798625 4.148607 -3.933224
v -2.786039 4.139641 -3.929330
v -2.797015 4.139641 -3.929877
v -2.788316 4.126962 -3.934062
v -2.798625 4.130675 -3.933224
v -2.560266 4.126961 -3.437743
v -2.551566 4.121709 -3.441928
v -2.546070 4.126961 -3.430502
v -2.556379 4.130675 -3.429663
v -2.563870 4.139640 -3.436009
v -2.543793 4.139640 -3.425769
v -2.554770 4.139641 -3.426317
v -2.546070 4.152320 -3.430502
v -2.556379 4.148607 -3.429663
v -2.551566 4.157572 -3.441928
v -2.560266 4.152320 -3.437743
v -2.557063 4.152320 -3.453354
v -2.564153 4.148607 -3.445822
v -2.559340 4.139640 -3.458087
v -2.565763 4.139641 -3.449169
v -2.557063 4.126961 -3.453354
v -2.564153 4.130675 -3.445822
v -2.802514 1.892734 -3.941305
v -2.793814 1.897986 -3.945490
v -2.799311 1.892734 -3.956916
v -2.806401 1.889021 -3.949385
v -2.806117 1.880054 -3.939572
v -2.801588 1.880054 -3.961650
v -2.808010 1.880055 -3.952732
v -2.799311 1.867375 -3.956917
v -2.806401 1.871089 -3.949385
v -2.793814 1.862123 -3.945490
v -2.802514 1.867375 -3.941305
v -2.788317 1.867375 -3.934064
v -2.798627 1.871089 -3.933226
v -2.786040 1.880054 -3.929332
v -2.797017 1.880054 -3.929879
v -2.788317 1.892734 -3.934064
v -2.798627 1.889020 -3.933226
v -2.546071 1.892734 -3.430504
v -2.551568 1.897986 -3.441930
v -2.560268 1.892734 -3.437745
v -2.556381 1.889020 -3.429665
v -2.563871 1.880054 -3.436011
v -2.543794 1.880054 -3.425771
v -2.554771 1.880054 -3.426318
v -2.546071 1.867374 -3.430504
v -2.556381 1.871088 -3.429665
v -2.551568 1.862122 -3.441930
v -2.560268 1.867374 -3.437745
v -2.557065 1.867374 -3.453356
v -2.564155 1.871088 -3.445824
v -2.559342 1.880054 -3.458089
v -2.565764 1.880054 -3.449171
v -2.557065 1.892734 -3.453356
v -2.564155 1.889020 -3.445824
vn -0.6989 -0.6208 -0.3553
vn -0.4335 -0.8788 0.1992
vn -0.6607 -0.6842 0.3089
vn -0.8640 -0.4887 -0.1212
vn -0.9044 -0.0039 0.4267
vn -0.8079 -0.0039 -0.5893
vn -0.9540 -0.0039 -0.2998
vn -0.7022 0.6160 -0.3570
vn -0.8673 0.4827 -0.1216
vn -0.4365 0.8770 0.2006
vn -0.6643 0.6800 0.3105
vn -0.1693 0.6181 0.7677
vn -0.4516 0.4831 0.7501
vn -0.0513 -0.0039 0.9987
vn -0.3653 -0.0039 0.9309
vn -0.1685 -0.6229 0.7639
vn -0.4499 -0.4890 0.7473
vn -0.3652 -0.0039 0.9309
vn -0.4517 0.4831 0.7501
vn -0.4366 0.8770 0.2006
vn -0.7023 0.6159 -0.3570
vn -0.8673 0.4827 -0.1217
vn -0.6642 0.6800 0.3105
vn -0.8673 0.4828 -0.1216
vn -0.4336 -0.8788 0.1992
vn -0.1684 -0.6229 0.7639
vt 0.874512 0.375000
vt 0.999512 0.375000
vt 0.999512 0.750000
vt 0.874512 0.750000
vt 0.874512 1.000000
vt 0.750000 0.375000
vt 0.750000 0.750000
vt 0.750000 1.000000
vt 0.625000 0.375000
vt 0.625000 0.750000
vt 0.625000 1.000000
vt 0.500000 0.375000
vt 0.500000 0.750000
vt 0.500000 1.000000
vt 0.375000 0.375000
vt 0.375000 0.750000
vt 0.375000 1.000000
vt 0.250000 0.375000
vt 0.250000 0.750000
vt 0.250000 1.000000
vt 0.125000 0.375000
vt 0.125000 0.750000
vt 0.125000 1.000000
vt 0.000000 0.375000
vt 0.000000 0.750000
vt 0.000000 1.000000
s 1
usemtl MASTER_Metal
f 1/1/1 2/2/2 3/3/3
f 4/4/4 1/1/1 3/3/3
f 5/5/5 4/4/4 3/3/3
f 6/6/6 1/1/1 4/4/4
f 7/7/7 6/6/6 4/4/4
f 5/8/5 7/7/7 4/4/4
f 8/9/8 6/6/6 7/7/7
f 9/10/9 8/9/8 7/7/7
f 5/11/5 9/10/9 7/7/7
f 10/12/10 8/9/8 9/10/9
f 11/13/11 10/12/10 9/10/9
f 5/14/5 11/13/11 9/10/9
f 12/15/12 10/12/10 11/13/11
f 13/16/13 12/15/12 11/13/11
f 5/17/5 13/16/13 11/13/11
f 14/18/14 12/15/12 13/16/13
f 15/19/15 14/18/14 13/16/13
f 5/20/5 15/19/15 13/16/13
f 16/21/16 14/18/14 15/19/15
f 17/22/17 16/21/16 15/19/15
f 5/23/5 17/22/17 15/19/15
f 2/24/2 16/21/16 17/22/17
f 3/25/3 2/24/2 17/22/17
f 5/26/5 3/25/3 17/22/17
f 18/3/3 19/2/2 20/1/16
f 21/4/17 18/3/3 20/1/16
f 22/5/5 18/3/3 21/4/17
f 21/4/17 20/1/16 23/6/14
f 24/7/18 21/4/17 23/6/14
f 22/8/5 21/4/17 24/7/18
f 24/7/18 23/6/14 25/9/12
f 26/10/19 24/7/18 25/9/12
f 22/11/5 24/7/18 26/10/19
f 26/10/19 25/9/12 27/12/20
f 28/13/11 26/10/19 27/12/20
f 22/14/5 26/10/19 28/13/11
f 28/13/11 27/12/20 29/15/21
f 30/16/22 28/13/11 29/15/21
f 22/17/5 28/13/11 30/16/22
f 30/16/22 29/15/21 31/18/6
f 32/19/7 30/16/22 31/18/6
f 22/20/5 30/16/22 32/19/7
f 32/19/7 31/18/6 33/21/1
f 34/22/4 32/19/7 33/21/1
f 22/23/5 32/19/7 34/22/4
f 34/22/4 33/21/1 19/24/2
f 18/25/3 34/22/4 19/24/2
f 22/26/5 34/22/4 18/25/3
f 35/3/23 36/2/20 37/1/8
f 38/4/24 35/3/23 37/1/8
f 39/5/5 35/3/23 38/4/24
f 38/4/24 37/1/8 40/6/6
f 41/7/7 38/4/24 40/6/6
f 39/8/5 38/4/24 41/7/7
f 41/7/7 40/6/6 42/9/1
f 43/10/4 41/7/7 42/9/1
f 39/11/5 41/7/7 43/10/4
f 43/10/4 42/9/1 44/12/25
f 45/13/3 43/10/4 44/12/25
f 39/14/5 43/10/4 45/13/3
f 45/13/3 44/12/25 46/15/16
f 47/16/17 45/13/3 46/15/16
f 39/17/5 45/13/3 47/16/17
f 47/16/17 46/15/16 48/18/14
f 49/19/15 47/16/17 48/18/14
f 39/20/5 47/16/17 49/19/15
f 49/19/15 48/18/14 50/21/12
f 51/22/13 49/19/15 50/21/12
f 39/23/5 49/19/15 51/22/13
f 51/22/13 50/21/12 36/24/20
f 35/25/23 51/22/13 36/24/20
f 39/26/5 51/22/13 35/25/23
f 52/1/12 53/2/20 54/3/23
f 55/4/13 52/1/12 54/3/23
f 56/5/5 55/4/13 54/3/23
f 57/6/14 52/1/12 55/4/13
f 58/7/18 57/6/14 55/4/13
f 56/8/5 58/7/18 55/4/13
f 59/9/26 57/6/14 58/7/18
f 60/10/17 59/9/26 58/7/18
f 56/11/5 60/10/17 58/7/18
f 61/12/25 59/9/26 60/10/17
f 62/13/3 61/12/25 60/10/17
f 56/14/5 62/13/3 60/10/17
f 63/15/1 61/12/25 62/13/3
f 64/16/4 63/15/1 62/13/3
f 56/17/5 64/16/4 62/13/3
f 65/18/6 63/15/1 64/16/4
f 66/19/7 65/18/6 64/16/4
f 56/20/5 66/19/7 64/16/4
f 67/21/8 65/18/6 66/19/7
f 68/22/9 67/21/8 66/19/7
f 56/23/5 68/22/9 66/19/7
f 53/24/20 67/21/8 68/22/9
f 54/25/23 53/24/20 68/22/9
f 56/26/5 54/25/23 68/22/9
