# Blender 3.6.18
# www.blender.org
mtllib Mesh.999.mtl
o Bistro_Research_Exterior_Paris_Building_01_paris_buildi_5cbc637
v 6.707876 18.635033 4.148971
v 6.708521 18.664764 4.147309
v 8.388935 18.635031 4.802281
v 8.389582 18.664764 4.800620
v 6.707474 18.679964 4.150002
v 8.388535 18.679962 4.803313
v 6.703166 18.692551 4.161088
v 8.384226 18.692547 4.814398
v 8.372736 18.702278 4.843965
v 6.691676 18.702278 4.190654
v 8.361245 18.695976 4.864835
v 6.680186 18.695978 4.211525
v 8.356938 18.682201 4.881385
v 6.675878 18.682201 4.228075
v 6.674831 18.664764 4.234000
v 8.355890 18.664762 4.887310
v 8.355890 18.635031 4.887311
v 6.674830 18.635033 4.234000
v 6.676399 18.632612 4.229965
v 8.357457 18.632610 4.883275
v 8.387315 18.632610 4.806452
v 6.706254 18.632610 4.153141
vn 0.3550 -0.0663 -0.9325
vn 0.3550 -0.0664 -0.9325
vn 0.3481 0.1838 -0.9192
vn 0.1081 0.9545 -0.2781
vn 0.1060 0.9545 -0.2789
vn -0.2323 0.7758 0.5867
vn -0.3488 0.3174 0.8818
vn -0.3653 -0.0039 0.9309
vn -0.3624 -0.0039 0.9320
vn -0.0039 -1.0000 -0.0039
vt 0.235840 0.369629
vt 0.235840 0.358887
vt 0.897461 0.369629
vt 0.897461 0.358887
vt 0.235840 0.353516
vt 0.897461 0.353516
vt 0.235840 0.348145
vt 0.897461 0.348145
vt 0.897461 0.341309
vt 0.235840 0.341309
vt 0.897461 0.335938
vt 0.235840 0.335938
vt 0.897461 0.330078
vt 0.235840 0.330078
vt 0.235840 0.323730
vt 0.897461 0.323730
vt 0.897461 0.312988
vt 0.235840 0.312988
vt 0.235840 0.312012
vt 0.897461 0.312012
vt 0.897461 0.295410
vt 0.235840 0.295410
vt 0.235840 0.294434
vt 0.897461 0.294434
s 1
usemtl MASTER_Wood_Polished
f 1/1/1 2/2/1 3/3/1
f 2/2/1 4/4/2 3/3/1
f 2/2/1 5/5/3 4/4/2
f 5/5/3 6/6/3 4/4/2
f 5/5/3 7/7/4 6/6/3
f 7/7/4 8/8/5 6/6/3
f 9/9/4 8/8/5 7/7/4
f 10/10/5 9/9/4 7/7/4
f 11/11/6 9/9/4 10/10/5
f 12/12/6 11/11/6 10/10/5
f 13/13/7 11/11/6 12/12/6
f 14/14/7 13/13/7 12/12/6
f 13/13/7 14/14/7 15/15/8
f 16/16/8 13/13/7 15/15/8
f 17/17/9 16/16/8 15/15/8
f 18/18/8 17/17/9 15/15/8
f 18/18/8 19/19/10 17/17/9
f 19/19/10 20/20/10 17/17/9
f 21/21/10 20/20/10 19/19/10
f 22/22/10 21/21/10 19/19/10
f 21/21/10 22/22/10 1/23/1
f 3/24/1 21/21/10 1/23/1
