# Blender 3.6.18
# www.blender.org
mtllib Mesh.675.mtl
o Bistro_Research_Exterior_paris_building_05_19__5189
v 41.970543 4.901754 17.934101
v 41.545177 4.901754 17.717926
v 41.519684 4.901754 17.768085
v 41.945053 4.901754 17.984255
v 41.519684 4.811467 17.768085
v 41.945053 4.811467 17.984255
v 41.970543 4.811468 17.934101
v 41.545177 4.811467 17.717926
v 41.942291 2.366021 17.979586
v 41.965343 2.366021 17.934233
v 41.965343 4.815543 17.934233
v 41.942291 4.815543 17.979586
v 41.877071 4.815543 17.946436
v 41.877071 2.366021 17.946436
v 41.900120 2.366021 17.901087
v 41.900120 4.815543 17.901087
v 41.891941 4.809440 17.913612
v 41.597023 4.809440 17.763731
v 41.891941 2.368914 17.913612
v 41.597027 2.368913 17.763731
v 41.544327 2.366021 17.720268
v 41.521271 2.366021 17.765621
v 41.521271 4.815543 17.765621
v 41.544327 4.815543 17.720268
v 41.609547 4.815543 17.753414
v 41.609547 2.366021 17.753414
v 41.586498 2.366021 17.798767
v 41.586498 4.815543 17.798767
v 41.970543 2.365631 17.934101
v 41.545177 2.365631 17.717926
v 41.519684 2.365631 17.768085
v 41.945053 2.365631 17.984255
v 41.519684 2.275343 17.768085
v 41.945053 2.275343 17.984255
v 41.970543 2.275344 17.934101
v 41.545177 2.275343 17.717926
v 41.538666 4.901754 17.713154
v 41.995106 4.901754 17.852179
v 42.011501 4.901754 17.798355
v 41.555065 4.901754 17.659330
v 42.011501 4.811467 17.798355
v 41.555065 4.811467 17.659330
v 41.538666 4.811468 17.713154
v 41.995106 4.811467 17.852179
v 41.558586 2.366021 17.663452
v 41.543762 2.366021 17.712118
v 41.543762 4.815543 17.712116
v 41.558586 4.815543 17.663452
v 41.628574 4.815543 17.684771
v 41.628571 2.366021 17.684771
v 41.613750 2.366021 17.733437
v 41.613750 4.815543 17.733437
v 41.937206 4.809441 17.816408
v 41.620743 4.809441 17.720018
v 41.620743 2.368914 17.720016
v 41.937206 2.368913 17.816408
v 41.991940 2.366021 17.848625
v 42.006763 2.366021 17.799959
v 42.006763 4.815543 17.799959
v 41.991940 4.815543 17.848625
v 41.921951 4.815543 17.827307
v 41.921951 2.366021 17.827307
v 41.936771 2.366021 17.778643
v 41.936771 4.815543 17.778643
v 41.538666 2.365631 17.713154
v 41.995106 2.365631 17.852179
v 42.011501 2.365631 17.798355
v 41.555065 2.365631 17.659330
v 42.011501 2.275343 17.798355
v 41.555065 2.275343 17.659330
v 41.538666 2.275344 17.713154
v 41.995106 2.275343 17.852179
vn -0.0039 1.0000 -0.0039
vn -0.4582 -0.0039 0.8889
vn -0.4581 -0.0039 0.8889
vn 0.4488 -0.0039 -0.8936
vn 0.8920 -0.0039 0.4519
vn 0.8921 -0.0039 0.4519
vn -0.8905 -0.0039 -0.4550
vn -0.0039 -1.0000 -0.0039
vn 0.8921 -0.0040 0.4519
vn 0.2855 -0.0039 -0.9584
vn -0.2949 -0.0039 0.9555
vn -0.9562 -0.0039 -0.2927
vn 0.9577 -0.0039 0.2877
vn 0.2856 -0.0039 -0.9584
vn 0.9577 -0.0040 0.2877
vn 0.2856 -0.0039 -0.9583
vt 0.327881 0.353027
vt 0.327881 0.432129
vt 0.318604 0.432129
vt 0.318604 0.353027
vt 0.315430 0.432129
vt 0.300537 0.432129
vt 0.300537 0.352539
vt 0.315430 0.352539
vt 0.270020 0.352051
vt 0.284912 0.352051
vt 0.284912 0.431641
vt 0.270020 0.431641
vt 0.269775 0.345215
vt 0.269775 0.335938
vt 0.284912 0.335938
vt 0.284912 0.345215
vt 0.288086 0.345215
vt 0.288086 0.335938
vt 0.303223 0.335938
vt 0.303223 0.345215
vt 0.287842 0.352539
vt 0.297363 0.352539
vt 0.297363 0.432129
vt 0.287842 0.432129
vt 0.858398 0.978256
vt 0.848633 0.978256
vt 0.848633 0.570801
vt 0.858398 0.570801
vt 0.812012 0.571289
vt 0.812012 0.978668
vt 0.799805 0.978668
vt 0.799805 0.571289
vt 0.845215 0.572021
vt 0.845215 0.979340
vt 0.833008 0.979340
vt 0.833008 0.572021
vt 0.827637 0.980072
vt 0.817871 0.980072
vt 0.817871 0.572754
vt 0.827637 0.572754
vt 0.432373 0.011230
vt 0.377197 0.011230
vt 0.432373 0.416992
vt 0.377197 0.416992
s 1
usemtl MASTER_Building_Details
f 1/1/1 2/2/1 3/3/1
f 3/3/1 4/4/1 1/1/1
f 3/5/2 5/6/2 6/7/3
f 6/7/3 4/8/3 3/5/2
f 1/9/4 7/10/4 8/11/4
f 8/11/4 2/12/4 1/9/4
f 1/13/5 4/14/5 6/15/5
f 6/15/5 7/16/6 1/13/5
f 3/17/7 2/18/7 8/19/7
f 8/19/7 5/20/7 3/17/7
f 7/21/8 6/22/8 5/23/8
f 5/23/8 8/24/8 7/21/8
f 9/25/5 10/26/5 11/27/6
f 11/27/6 12/28/6 9/25/5
f 9/29/3 12/30/3 13/31/3
f 13/31/3 14/32/3 9/29/3
f 11/33/4 10/34/4 15/35/4
f 15/35/4 16/36/4 11/33/4
f 15/37/7 14/38/7 13/39/7
f 13/39/7 16/40/7 15/37/7
f 17/41/3 18/42/3 19/43/3
f 20/44/3 19/43/3 18/42/3
f 21/25/7 22/26/7 23/27/7
f 23/27/7 24/28/7 21/25/7
f 21/29/4 24/30/4 25/31/4
f 25/31/4 26/32/4 21/29/4
f 23/33/3 22/34/3 27/35/3
f 27/35/3 28/36/3 23/33/3
f 27/37/6 26/38/6 25/39/9
f 25/39/9 28/40/5 27/37/6
f 29/1/1 30/2/1 31/3/1
f 31/3/1 32/4/1 29/1/1
f 31/5/2 33/6/2 34/7/2
f 34/7/2 32/8/2 31/5/2
f 29/9/4 35/10/4 36/11/4
f 36/11/4 30/12/4 29/9/4
f 29/13/5 32/14/6 34/15/5
f 34/15/5 35/16/6 29/13/5
f 31/17/7 30/18/7 36/19/7
f 36/19/7 33/20/7 31/17/7
f 35/21/8 34/22/8 33/23/8
f 33/23/8 36/24/8 35/21/8
f 37/1/1 38/2/1 39/3/1
f 39/3/1 40/4/1 37/1/1
f 39/5/10 41/6/10 42/7/10
f 42/7/10 40/8/10 39/5/10
f 37/9/11 43/10/11 44/11/11
f 44/11/11 38/12/11 37/9/11
f 37/13/12 40/14/12 42/15/12
f 42/15/12 43/16/12 37/13/12
f 39/17/13 38/18/13 44/19/13
f 44/19/13 41/20/13 39/17/13
f 43/21/8 42/22/8 41/23/8
f 41/23/8 44/24/8 43/21/8
f 45/25/12 46/26/12 47/27/12
f 47/27/12 48/28/12 45/25/12
f 45/29/10 48/30/10 49/31/10
f 49/31/14 50/32/14 45/29/14
f 47/33/11 46/34/11 51/35/11
f 51/35/11 52/36/11 47/33/11
f 51/37/13 50/38/13 49/39/15
f 49/39/15 52/40/13 51/37/13
f 53/42/11 54/41/11 55/43/11
f 55/43/11 56/44/11 53/42/11
f 57/25/13 58/26/13 59/27/13
f 59/27/13 60/28/13 57/25/13
f 57/29/11 60/30/11 61/31/11
f 61/31/11 62/32/11 57/29/11
f 59/33/10 58/34/10 63/35/10
f 63/35/10 64/36/10 59/33/10
f 63/37/12 62/38/12 61/39/12
f 61/39/12 64/40/12 63/37/12
f 65/1/1 66/2/1 67/3/1
f 67/3/1 68/4/1 65/1/1
f 67/5/10 69/6/16 70/7/10
f 70/7/10 68/8/10 67/5/10
f 65/9/11 71/10/11 72/11/11
f 72/11/11 66/12/11 65/9/11
f 65/13/12 68/14/12 70/15/12
f 70/15/12 71/16/12 65/13/12
f 67/17/13 66/18/13 72/19/13
f 72/19/13 69/20/13 67/17/13
f 71/21/8 70/22/8 69/23/8
f 69/23/8 72/24/8 71/21/8
