# Blender 3.6.18
# www.blender.org
mtllib Mesh.664.mtl
o Bistro_Research_Exterior_paris_building_05_2__5213
v 45.109711 11.822542 19.526714
v 44.770206 11.822542 19.904562
v 44.814762 11.822542 19.944595
v 45.154259 11.822542 19.566748
v 44.814762 11.726422 19.944597
v 45.154259 11.726422 19.566748
v 45.109711 11.726422 19.526714
v 44.770206 11.726422 19.904562
v 45.148697 9.123000 19.568295
v 45.108414 9.123001 19.532097
v 45.108414 11.730762 19.532095
v 45.148697 11.730762 19.568296
v 45.096642 11.730762 19.626230
v 45.096642 9.123000 19.626230
v 45.056358 9.123001 19.590033
v 45.056358 11.730762 19.590033
v 45.087727 11.724265 19.606688
v 44.852341 11.724265 19.868664
v 44.852341 9.126081 19.868664
v 45.087727 9.126081 19.606688
v 44.778046 9.123000 19.899780
v 44.818333 9.123001 19.935980
v 44.818333 11.730762 19.935980
v 44.778046 11.730762 19.899780
v 44.830101 11.730762 19.841843
v 44.830101 9.123000 19.841843
v 44.870384 9.123001 19.878042
v 44.870384 11.730762 19.878042
v 45.109711 9.122585 19.526714
v 44.770206 9.122585 19.904562
v 44.814762 9.122585 19.944595
v 45.154259 9.122585 19.566748
v 44.814762 9.026465 19.944597
v 45.154259 9.026465 19.566748
v 45.109711 9.026465 19.526714
v 44.770206 9.026465 19.904562
v 44.782913 9.293054 19.908077
v 44.812023 9.293054 19.934231
v 44.812027 9.421950 19.934231
v 44.782913 9.421950 19.908075
v 44.814606 9.421950 19.931353
v 44.785500 9.421950 19.905197
v 44.785503 9.293054 19.905199
v 44.814613 9.293054 19.931353
v 44.721882 9.293054 19.908087
v 44.760963 9.293054 19.905998
v 44.760963 9.421950 19.905998
v 44.721882 9.421950 19.908085
v 44.760757 9.421950 19.902134
v 44.721680 9.421950 19.904222
v 44.721680 9.293054 19.904222
v 44.760757 9.293054 19.902136
v 44.683296 11.822542 19.407343
v 44.710411 11.822542 19.914589
v 44.770226 11.822542 19.911388
v 44.743107 11.822542 19.404148
v 44.770226 11.726422 19.911388
v 44.743107 11.726422 19.404148
v 44.683296 11.726422 19.407343
v 44.710411 11.726422 19.914589
v 44.740269 9.123000 19.409176
v 44.686184 9.123001 19.412067
v 44.686184 11.730762 19.412067
v 44.740269 11.730762 19.409176
v 44.744423 11.730762 19.486954
v 44.744423 9.123000 19.486954
v 44.690342 9.123001 19.489847
v 44.690342 11.730762 19.489847
v 44.724499 11.724265 19.832123
v 44.705692 11.724265 19.480434
v 44.705696 9.126081 19.480434
v 44.724499 9.126081 19.832123
v 44.712570 9.123000 19.905663
v 44.766655 9.123001 19.902775
v 44.766655 11.730762 19.902775
v 44.712570 11.730762 19.905663
v 44.708416 11.730762 19.827888
v 44.708416 9.123000 19.827888
v 44.762497 9.123001 19.824997
v 44.762497 11.730762 19.824997
v 44.683296 9.122585 19.407343
v 44.710411 9.122585 19.914589
v 44.770226 9.122585 19.911388
v 44.743107 9.122585 19.404148
v 44.770226 9.026465 19.911388
v 44.743107 9.026465 19.404148
v 44.683296 9.026465 19.407343
v 44.710411 9.026465 19.914589
v 44.721882 11.494350 19.908087
v 44.760963 11.494350 19.905998
v 44.760963 11.623246 19.905998
v 44.721882 11.623246 19.908085
v 44.760757 11.623246 19.902134
v 44.721680 11.623246 19.904222
v 44.721680 11.494350 19.904222
v 44.760757 11.494350 19.902136
v 44.782913 11.494350 19.908077
v 44.812023 11.494350 19.934231
v 44.812027 11.623246 19.934231
v 44.782913 11.623246 19.908075
v 44.814606 11.623246 19.931353
v 44.785500 11.623246 19.905197
v 44.785503 11.494350 19.905199
v 44.814613 11.494350 19.931353
v 44.780857 9.293410 19.896641
v 44.771820 9.293410 19.893450
v 44.771816 9.421615 19.893450
v 44.780857 9.421615 19.896641
v 44.784996 9.293410 19.905291
v 44.784996 9.421615 19.905291
v 44.781803 9.293410 19.914331
v 44.781803 9.421615 19.914331
v 44.773151 9.293410 19.918467
v 44.773151 9.421615 19.918467
v 44.764114 9.293410 19.915274
v 44.764114 9.421615 19.915274
v 44.759975 9.293410 19.906628
v 44.759975 9.421615 19.906628
v 44.763165 9.293410 19.897589
v 44.763165 9.421615 19.897589
v 44.780857 11.494710 19.896641
v 44.771820 11.494710 19.893450
v 44.771816 11.622913 19.893450
v 44.780857 11.622913 19.896641
v 44.784996 11.494710 19.905291
v 44.784996 11.622913 19.905291
v 44.781803 11.494710 19.914331
v 44.781803 11.622913 19.914331
v 44.773151 11.494710 19.918467
v 44.773151 11.622913 19.918467
v 44.764114 11.494710 19.915274
v 44.764114 11.622913 19.915274
v 44.759975 11.494710 19.906628
v 44.759975 11.622913 19.906628
v 44.763165 11.494710 19.897589
v 44.763165 11.622913 19.897589
v 44.772484 9.293410 19.905958
v 44.772484 9.421615 19.905958
v 44.772484 11.494710 19.905958
v 44.772484 11.622913 19.905958
vn -0.0039 1.0000 -0.0039
vn 0.7454 -0.0039 0.6666
vn 0.7454 -0.0040 0.6666
vn -0.7450 -0.0039 -0.6670
vn 0.6627 -0.0039 -0.7489
vn -0.6709 -0.0039 0.7415
vn -0.0039 -1.0000 -0.0039
vn 0.6626 -0.0039 -0.7489
vn 0.7455 -0.0040 0.6665
vn 0.0513 -0.0040 0.9987
vn -0.9987 -0.0039 0.0509
vn 0.9982 -0.0039 -0.0592
vn 0.9982 -0.0040 -0.0592
vn -0.0587 -0.0039 -0.9983
vn 0.0513 -0.0039 0.9987
vn -0.6709 -0.0039 0.7416
vt 0.327881 0.353027
vt 0.327881 0.432129
vt 0.318604 0.432129
vt 0.318604 0.353027
vt 0.315430 0.432129
vt 0.300537 0.432129
vt 0.300537 0.352539
vt 0.315430 0.352539
vt 0.270020 0.352051
vt 0.284912 0.352051
vt 0.284912 0.431641
vt 0.270020 0.431641
vt 0.269775 0.345215
vt 0.269775 0.335938
vt 0.284912 0.335938
vt 0.284912 0.345215
vt 0.288086 0.345215
vt 0.288086 0.335938
vt 0.303223 0.335938
vt 0.303223 0.345215
vt 0.287842 0.352539
vt 0.297363 0.352539
vt 0.297363 0.432129
vt 0.287842 0.432129
vt 0.858398 0.978256
vt 0.848633 0.978256
vt 0.848633 0.570801
vt 0.858398 0.570801
vt 0.812012 0.571289
vt 0.812012 0.978668
vt 0.799805 0.978668
vt 0.799805 0.571289
vt 0.845215 0.572021
vt 0.845215 0.979340
vt 0.833008 0.979340
vt 0.833008 0.572021
vt 0.827637 0.980072
vt 0.817871 0.980072
vt 0.817871 0.572754
vt 0.827637 0.572754
vt 0.377197 0.011230
vt 0.432373 0.011230
vt 0.432373 0.416992
vt 0.377197 0.416992
vt 0.360107 0.465332
vt 0.354004 0.465332
vt 0.354004 0.445312
vt 0.360107 0.445312
vt 0.354004 0.442871
vt 0.360107 0.442871
vt 0.360107 0.443359
vt 0.354004 0.443359
vt 0.362061 0.445312
vt 0.362061 0.465332
vt 0.361328 0.465332
vt 0.361328 0.445312
vt 0.360107 0.467285
vt 0.354004 0.467285
vt 0.354004 0.466797
vt 0.360107 0.466797
vt 0.352051 0.465332
vt 0.352051 0.445312
vt 0.352783 0.445312
vt 0.352783 0.465332
vt 0.327637 0.464355
vt 0.326172 0.464355
vt 0.326172 0.443848
vt 0.327637 0.443848
vt 0.329102 0.464355
vt 0.329102 0.443848
vt 0.330566 0.464355
vt 0.330566 0.443848
vt 0.332031 0.464355
vt 0.332031 0.443848
vt 0.333496 0.464355
vt 0.333496 0.443848
vt 0.334473 0.464355
vt 0.334473 0.443848
vt 0.335938 0.464355
vt 0.335938 0.443848
vt 0.337402 0.464355
vt 0.337402 0.443848
vt 0.326172 0.466797
vt 0.327393 0.465820
vt 0.328125 0.467773
vt 0.326172 0.468262
vt 0.328857 0.465820
vt 0.327148 0.469238
vt 0.329834 0.466797
vt 0.328857 0.469238
vt 0.329834 0.468262
vt 0.333252 0.465820
vt 0.334717 0.465820
vt 0.333984 0.467773
vt 0.332275 0.466797
vt 0.335938 0.466797
vt 0.332275 0.468262
vt 0.335938 0.468750
vt 0.333252 0.469727
vt 0.334717 0.469727
s 1
usemtl MASTER_Building_Details
f 1/1/1 2/2/1 3/3/1
f 3/3/1 4/4/1 1/1/1
f 3/5/2 5/6/3 6/7/2
f 6/7/2 4/8/2 3/5/2
f 1/9/4 7/10/4 8/11/4
f 8/11/4 2/12/4 1/9/4
f 1/13/5 4/14/5 6/15/5
f 6/15/5 7/16/5 1/13/5
f 3/17/6 2/18/6 8/19/6
f 8/19/6 5/20/6 3/17/6
f 7/21/7 6/22/7 5/23/7
f 5/23/7 8/24/7 7/21/7
f 9/25/5 10/26/5 11/27/5
f 11/27/5 12/28/5 9/25/5
f 9/29/2 12/30/2 13/31/2
f 13/31/2 14/32/2 9/29/2
f 11/33/4 10/34/4 15/35/4
f 15/35/4 16/36/4 11/33/4
f 15/37/6 14/38/6 13/39/6
f 13/39/6 16/40/6 15/37/6
f 17/41/2 18/42/2 19/43/2
f 19/43/2 20/44/2 17/41/2
f 21/25/6 22/26/6 23/27/6
f 23/27/6 24/28/6 21/25/6
f 21/29/4 24/30/4 25/31/4
f 25/31/4 26/32/4 21/29/4
f 23/33/2 22/34/2 27/35/2
f 27/35/2 28/36/2 23/33/2
f 27/37/5 26/38/5 25/39/8
f 25/39/8 28/40/8 27/37/5
f 29/1/1 30/2/1 31/3/1
f 31/3/1 32/4/1 29/1/1
f 31/5/2 33/6/2 34/7/9
f 34/7/9 32/8/9 31/5/2
f 29/9/4 35/10/4 36/11/4
f 36/11/4 30/12/4 29/9/4
f 29/13/5 32/14/5 34/15/5
f 34/15/5 35/16/5 29/13/5
f 31/17/6 30/18/6 36/19/6
f 36/19/6 33/20/6 31/17/6
f 35/21/7 34/22/7 33/23/7
f 33/23/7 36/24/7 35/21/7
f 37/45/6 38/46/6 39/47/6
f 39/47/6 40/48/6 37/45/6
f 41/49/1 42/50/1 40/51/1
f 40/51/1 39/52/1 41/49/1
f 42/53/4 43/54/4 37/55/4
f 37/55/4 40/56/4 42/53/4
f 43/57/7 44/58/7 38/59/7
f 38/59/7 37/60/7 43/57/7
f 44/61/2 41/62/2 39/63/2
f 39/63/2 38/64/2 44/61/2
f 45/45/10 46/46/10 47/47/10
f 47/47/10 48/48/10 45/45/10
f 49/49/1 50/50/1 48/51/1
f 48/51/1 47/52/1 49/49/1
f 50/53/11 51/54/11 45/55/11
f 45/55/11 48/56/11 50/53/11
f 51/57/7 52/58/7 46/59/7
f 46/59/7 45/60/7 51/57/7
f 52/61/12 49/62/12 47/63/13
f 47/63/13 46/64/13 52/61/12
f 53/1/1 54/2/1 55/3/1
f 55/3/1 56/4/1 53/1/1
f 55/5/13 57/6/13 58/7/13
f 58/7/13 56/8/13 55/5/13
f 53/9/11 59/10/11 60/11/11
f 60/11/11 54/12/11 53/9/11
f 53/13/14 56/14/14 58/15/14
f 58/15/14 59/16/14 53/13/14
f 55/17/10 54/18/15 60/19/10
f 60/19/10 57/20/15 55/17/10
f 59/21/7 58/22/7 57/23/7
f 57/23/7 60/24/7 59/21/7
f 61/25/14 62/26/14 63/27/14
f 63/27/14 64/28/14 61/25/14
f 61/29/13 64/30/13 65/31/13
f 65/31/12 66/32/12 61/29/12
f 63/33/11 62/34/11 67/35/11
f 67/35/11 68/36/11 63/33/11
f 67/37/15 66/38/15 65/39/15
f 65/39/15 68/40/15 67/37/15
f 69/41/11 70/42/11 71/43/11
f 71/43/11 72/44/11 69/41/11
f 73/25/10 74/26/10 75/27/15
f 75/27/15 76/28/10 73/25/10
f 73/29/11 76/30/11 77/31/11
f 77/31/11 78/32/11 73/29/11
f 75/33/12 74/34/12 79/35/12
f 79/35/13 80/36/13 75/33/13
f 79/37/14 78/38/14 77/39/14
f 77/39/14 80/40/14 79/37/14
f 81/1/1 82/2/1 83/3/1
f 83/3/1 84/4/1 81/1/1
f 83/5/13 85/6/13 86/7/12
f 86/7/12 84/8/13 83/5/13
f 81/9/11 87/10/11 88/11/11
f 88/11/11 82/12/11 81/9/11
f 81/13/14 84/14/14 86/15/14
f 86/15/14 87/16/14 81/13/14
f 83/17/15 82/18/15 88/19/15
f 88/19/15 85/20/10 83/17/15
f 87/21/7 86/22/7 85/23/7
f 85/23/7 88/24/7 87/21/7
f 89/45/10 90/46/10 91/47/10
f 91/47/10 92/48/10 89/45/10
f 93/49/1 94/50/1 92/51/1
f 92/51/1 91/52/1 93/49/1
f 94/53/11 95/54/11 89/55/11
f 89/55/11 92/56/11 94/53/11
f 95/57/7 96/58/7 90/59/7
f 90/59/7 89/60/7 95/57/7
f 96/61/12 93/62/12 91/63/13
f 91/63/13 90/64/13 96/61/12
f 97/45/6 98/46/6 99/47/6
f 99/47/6 100/48/6 97/45/6
f 101/49/1 102/50/1 100/51/1
f 100/51/1 99/52/1 101/49/1
f 102/53/4 103/54/4 97/55/4
f 97/55/4 100/56/4 102/53/4
f 103/57/7 104/58/7 98/59/7
f 98/59/7 97/60/7 103/57/7
f 104/61/3 101/62/3 99/63/3
f 99/63/3 98/64/3 104/61/3
f 105/65/8 106/66/14 107/67/14
f 107/67/14 108/68/8 105/65/8
f 109/69/12 105/65/8 108/68/8
f 108/68/8 110/70/12 109/69/12
f 111/71/3 109/69/12 110/70/12
f 110/70/12 112/72/2 111/71/3
f 113/73/15 111/71/3 112/72/2
f 112/72/2 114/74/15 113/73/15
f 115/75/6 113/73/15 114/74/15
f 114/74/15 116/76/16 115/75/6
f 117/77/11 115/75/6 116/76/16
f 116/76/16 118/78/11 117/77/11
f 119/79/4 117/77/11 118/78/11
f 118/78/11 120/80/4 119/79/4
f 106/81/14 119/79/4 120/80/4
f 120/80/4 107/82/14 106/81/14
f 121/65/8 122/66/14 123/67/14
f 123/67/14 124/68/8 121/65/8
f 125/69/12 121/65/8 124/68/8
f 124/68/8 126/70/12 125/69/12
f 127/71/3 125/69/12 126/70/12
f 126/70/12 128/72/2 127/71/3
f 129/73/15 127/71/3 128/72/2
f 128/72/2 130/74/15 129/73/15
f 131/75/6 129/73/15 130/74/15
f 130/74/15 132/76/6 131/75/6
f 133/77/11 131/75/6 132/76/6
f 132/76/6 134/78/11 133/77/11
f 135/79/4 133/77/11 134/78/11
f 134/78/11 136/80/4 135/79/4
f 122/81/14 135/79/4 136/80/4
f 136/80/4 123/82/14 122/81/14
f 111/83/7 113/84/7 137/85/7
f 109/86/7 111/83/7 137/85/7
f 113/84/7 115/87/7 137/85/7
f 105/88/7 109/86/7 137/85/7
f 115/87/7 117/89/7 137/85/7
f 106/90/7 105/88/7 137/85/7
f 117/89/7 119/91/7 137/85/7
f 119/91/7 106/90/7 137/85/7
f 114/92/1 112/93/1 138/94/1
f 116/95/1 114/92/1 138/94/1
f 112/93/1 110/96/1 138/94/1
f 118/97/1 116/95/1 138/94/1
f 110/96/1 108/98/1 138/94/1
f 120/99/1 118/97/1 138/94/1
f 108/98/1 107/100/1 138/94/1
f 107/100/1 120/99/1 138/94/1
f 127/83/7 129/84/7 139/85/7
f 125/86/7 127/83/7 139/85/7
f 129/84/7 131/87/7 139/85/7
f 121/88/7 125/86/7 139/85/7
f 131/87/7 133/89/7 139/85/7
f 122/90/7 121/88/7 139/85/7
f 133/89/7 135/91/7 139/85/7
f 135/91/7 122/90/7 139/85/7
f 130/92/1 128/93/1 140/94/1
f 132/95/1 130/92/1 140/94/1
f 128/93/1 126/96/1 140/94/1
f 134/97/1 132/95/1 140/94/1
f 126/96/1 124/98/1 140/94/1
f 136/99/1 134/97/1 140/94/1
f 124/98/1 123/100/1 140/94/1
f 123/100/1 136/99/1 140/94/1
