# Blender 3.6.18
# www.blender.org
mtllib Mesh.907.mtl
o Bistro_Research_Exterior_Paris_Building_01_paris_buildi_84f2b32
v 2.610734 1.972920 -14.054575
v 2.610734 4.147630 -14.054575
v 3.031598 4.422585 -14.835121
v 3.031598 1.972921 -14.835121
v 3.452462 4.422585 -15.615664
v 3.452462 1.972920 -15.615666
v 3.873326 4.147630 -16.396210
v 3.873327 1.972920 -16.396210
vn -0.8774 -0.0039 -0.4797
vt 1.000000 0.000000
vt 1.000000 1.000000
vt 0.666504 1.000000
vt 0.666504 0.000000
vt 0.333252 1.000000
vt 0.333252 0.000000
vt 0.000000 1.000000
vt 0.000000 0.000000
s 1
usemtl MASTER_Glass_Exterior
f 1/1/1 2/2/1 3/3/1
f 4/4/1 1/1/1 3/3/1
f 4/4/1 3/3/1 5/5/1
f 6/6/1 4/4/1 5/5/1
f 5/5/1 7/7/1 6/6/1
f 7/7/1 8/8/1 6/6/1
