# Blender 3.6.18
# www.blender.org
mtllib Mesh.1005.mtl
o Bistro_Research_Exterior_Paris_Building_01_paris_buildi_f9d8e76
v 11.379926 13.128995 6.022542
v 11.379067 13.937595 6.022207
v 11.369949 13.128994 6.046063
v 11.369770 13.937243 6.045182
v 11.365601 13.937178 6.048632
v 11.365709 13.128994 6.049479
v 11.350681 13.128994 6.043640
v 11.351334 13.937178 6.043087
v 11.350589 13.937243 6.037728
v 11.349861 13.128994 6.038256
v 11.358386 13.128995 6.014170
v 11.359245 13.937595 6.014504
v 12.764769 13.128993 6.560733
v 12.763910 13.937595 6.560399
v 12.754792 13.128994 6.584254
v 12.754613 13.937243 6.583375
v 12.750445 13.937177 6.586823
v 12.750551 13.128995 6.587671
v 12.735523 13.128995 6.581831
v 12.736177 13.937177 6.581279
v 12.735432 13.937243 6.575920
v 12.734704 13.128994 6.576447
v 12.743231 13.128993 6.552362
v 12.744088 13.937595 6.552696
v 11.238466 13.795200 5.954272
v 12.883128 13.795198 6.593437
v 11.219030 13.795576 6.004286
v 12.863691 13.795575 6.643451
v 12.861993 13.799020 6.647823
v 11.217331 13.799021 6.008658
v 11.217331 13.816640 6.008658
v 12.861993 13.816641 6.647823
v 12.863692 13.820087 6.643451
v 11.219029 13.820089 6.004286
v 11.238467 13.820464 5.954272
v 12.883128 13.820464 6.593437
v 11.238467 13.108894 5.954272
v 12.883127 13.108895 6.593437
v 11.219029 13.109270 6.004285
v 12.863693 13.109271 6.643451
v 12.861991 13.112717 6.647823
v 11.217331 13.112718 6.008658
v 11.217330 13.130337 6.008658
v 12.861992 13.130337 6.647823
v 12.863691 13.133782 6.643451
v 11.219029 13.133782 6.004285
v 11.238466 13.134160 5.954272
v 12.883127 13.134161 6.593437
v 11.224278 13.926538 5.942767
v 11.224279 13.934861 5.942767
v 12.905906 13.934860 6.595839
v 12.905906 13.926538 6.595839
v 12.904066 13.923680 6.600606
v 11.222487 13.923680 5.947551
v 11.206718 13.923680 5.989676
v 12.888168 13.923679 6.641773
v 12.886328 13.926538 6.646540
v 11.204927 13.926539 5.994460
v 11.204928 13.934862 5.994460
v 12.886328 13.934859 6.646540
vn 0.9243 -0.0039 0.3815
vn 0.9244 -0.0039 0.3815
vn -0.3653 0.0013 0.9309
vn -0.3653 -0.0039 0.9309
vn -0.9381 -0.0039 -0.3464
vn -0.3652 0.0013 0.9309
vn -0.0039 -1.0000 0.0039
vn -0.0019 -1.0000 0.0047
vn -0.3622 -0.0039 0.9321
vn -0.3653 -0.0040 0.9309
vn -0.0018 1.0000 0.0048
vn -0.0039 1.0000 0.0039
vn -0.0040 1.0000 0.0040
vn -0.0040 1.0000 0.0039
vn -0.3622 -0.0040 0.9321
vn 0.3621 -0.0039 -0.9321
vn 0.3558 -0.0039 -0.9345
vn 0.3559 -0.0039 -0.9345
vn -0.0039 -1.0000 -0.0039
vn -0.0020 -1.0000 -0.0032
vn -0.3616 -0.0039 0.9323
vt 0.960449 0.530762
vt 0.647461 0.530273
vt 0.960449 0.525391
vt 0.647461 0.525146
vt 0.647461 0.523682
vt 0.960449 0.523926
vt 0.960449 0.517822
vt 0.647461 0.517822
vt 0.647461 0.516602
vt 0.960449 0.516357
vt 0.960449 0.510986
vt 0.647461 0.511230
vt 0.960449 0.417480
vt 0.647461 0.416992
vt 0.960449 0.412109
vt 0.647461 0.411621
vt 0.647461 0.410156
vt 0.960449 0.410645
vt 0.960449 0.404297
vt 0.647461 0.404297
vt 0.647461 0.402832
vt 0.960449 0.402832
vt 0.960449 0.397461
vt 0.647461 0.397949
vt 1.385742 0.067871
vt 2.089844 0.067871
vt 1.385742 0.079590
vt 2.089844 0.079590
vt 2.089844 0.081543
vt 1.385742 0.081543
vt 1.385742 0.088379
vt 2.089844 0.088379
vt 2.089844 0.089844
vt 1.385742 0.089844
vt 1.385742 0.101562
vt 2.089844 0.101562
vt 2.085938 0.278809
vt 1.383789 0.278809
vt 2.085938 0.267090
vt 1.383789 0.267090
vt 1.383789 0.265137
vt 2.085938 0.265137
vt 2.085938 0.258301
vt 1.383789 0.258301
vt 1.383789 0.256836
vt 2.085938 0.256836
vt 2.085938 0.245117
vt 1.383789 0.245117
vt 0.220337 0.269531
vt 0.220337 0.266113
vt 0.913086 0.266113
vt 0.913086 0.269043
vt 0.913086 0.270996
vt 0.220337 0.270996
vt 0.220581 0.280273
vt 0.913086 0.279785
vt 0.913086 0.281738
vt 0.220581 0.281738
vt 0.220581 0.284668
vt 0.913086 0.284668
s 1
usemtl MASTER_Grain_Metal
f 1/1/1 2/2/2 3/3/1
f 2/2/2 4/4/1 3/3/1
f 3/3/1 4/4/1 5/5/3
f 6/6/4 3/3/1 5/5/3
f 6/6/4 5/5/3 7/7/3
f 5/5/3 8/8/4 7/7/3
f 8/8/4 9/9/5 7/7/3
f 9/9/5 10/10/5 7/7/3
f 11/11/5 10/10/5 9/9/5
f 12/12/5 11/11/5 9/9/5
f 13/13/1 14/14/1 15/15/1
f 14/14/1 16/16/1 15/15/1
f 15/15/1 16/16/1 17/17/3
f 18/18/4 15/15/1 17/17/3
f 18/18/4 17/17/3 19/19/6
f 17/17/3 20/20/4 19/19/6
f 20/20/4 21/21/5 19/19/6
f 21/21/5 22/22/5 19/19/6
f 23/23/5 22/22/5 21/21/5
f 24/24/5 23/23/5 21/21/5
f 25/25/7 26/26/7 27/27/8
f 26/26/7 28/28/7 27/27/8
f 27/27/8 28/28/7 29/29/9
f 30/30/10 27/27/8 29/29/9
f 30/30/10 29/29/9 31/31/9
f 29/29/9 32/32/4 31/31/9
f 32/32/4 33/33/11 31/31/9
f 33/33/11 34/34/12 31/31/9
f 35/35/13 34/34/12 33/33/11
f 36/36/14 35/35/13 33/33/11
f 37/37/7 38/38/7 39/39/8
f 38/38/7 40/40/7 39/39/8
f 39/39/8 40/40/7 41/41/9
f 42/42/4 39/39/8 41/41/9
f 42/42/4 41/41/9 43/43/15
f 41/41/9 44/44/10 43/43/15
f 44/44/10 45/45/11 43/43/15
f 45/45/11 46/46/12 43/43/15
f 47/47/14 46/46/12 45/45/11
f 48/48/14 47/47/14 45/45/11
f 49/49/16 50/50/17 51/51/18
f 52/52/17 49/49/16 51/51/18
f 49/49/16 52/52/17 53/53/19
f 54/54/19 49/49/16 53/53/19
f 54/54/19 53/53/19 55/55/20
f 53/53/19 56/56/19 55/55/20
f 56/56/19 57/57/21 55/55/20
f 57/57/21 58/58/4 55/55/20
f 58/58/4 57/57/21 59/59/4
f 57/57/21 60/60/4 59/59/4
