# Blender 3.6.18
# www.blender.org
mtllib Mesh.1169.mtl
o Bistro_Research_Exterior_Paris_Building_01_paris_buildi_43dfb18
v 0.964918 7.810867 -10.631941
v 0.964919 7.921586 -10.631941
v 0.487411 7.810867 -10.891782
v 0.487411 7.921586 -10.891782
v 0.482412 7.921586 -10.908711
v 0.482412 7.810867 -10.908711
v 1.675311 7.810867 -13.097204
v 1.675311 7.921586 -13.097204
v 1.692237 7.921586 -13.102201
v 1.692237 7.810867 -13.102201
v 2.167835 7.810867 -12.843391
v 2.167835 7.921586 -12.843391
v 2.161901 7.798387 -12.832421
v 1.686274 7.798387 -13.091238
v 0.970882 7.798387 -10.642906
v 0.493375 7.798387 -10.902746
v 0.970882 7.934066 -10.642906
v 0.493375 7.934065 -10.902746
v 1.686274 7.934065 -13.091238
v 2.161901 7.934066 -12.832421
vn -0.4836 -0.1062 0.8688
vn -0.4839 0.0983 0.8696
vn -0.4989 -0.1060 0.8602
vn -0.4992 0.0983 0.8609
vn -0.8774 -0.0039 -0.4797
vn 0.4497 0.0978 -0.8878
vn 0.4494 -0.1055 -0.8871
vn 0.4742 -0.1058 -0.8740
vn 0.4757 0.0980 -0.8741
vn 0.0008 -1.0000 -0.0013
vn -0.0039 -1.0000 -0.0039
vn 0.0007 1.0000 -0.0015
vn -0.0039 1.0000 -0.0039
vn -0.0040 1.0000 -0.0039
vt 0.001999 0.678467
vt 0.001999 0.647949
vt 0.151855 0.678467
vt 0.151855 0.647949
vt 0.156616 0.647949
vt 0.156616 0.678467
vt 0.843750 0.678467
vt 0.843750 0.647949
vt 0.848633 0.647949
vt 0.848633 0.678467
vt 0.997559 0.678467
vt 0.997559 0.647949
vt 0.699707 0.324707
vt 0.695312 0.324707
vt 0.699707 0.174805
vt 0.695312 0.175293
vt 0.695312 0.170898
vt 0.006672 0.324707
vt 0.006672 0.169922
vt 0.006672 0.174805
vt 0.002253 0.324707
vt 0.002253 0.174316
vt 0.002253 0.002441
vt 0.006672 0.002441
vt 0.002253 0.152832
vt 0.006672 0.152344
vt 0.006672 0.156738
vt 0.695312 0.157227
vt 0.695312 0.152344
vt 0.695312 0.002930
vt 0.699707 0.153320
vt 0.699707 0.002930
s 1
usemtl MASTER_Concrete_Smooth
f 1/1/1 2/2/2 3/3/3
f 2/2/2 4/4/4 3/3/3
f 4/4/4 5/5/5 3/3/3
f 5/5/5 6/6/5 3/3/3
f 6/6/5 5/5/5 7/7/5
f 5/5/5 8/8/5 7/7/5
f 7/7/5 8/8/5 9/9/6
f 10/10/7 7/7/5 9/9/6
f 11/11/8 10/10/7 9/9/6
f 12/12/9 11/11/8 9/9/6
f 11/13/8 13/14/10 10/15/7
f 13/14/10 14/16/11 10/15/7
f 7/17/5 10/15/7 14/16/11
f 13/14/10 15/18/11 14/16/11
f 7/17/5 14/16/11 6/19/5
f 15/18/11 16/20/11 14/16/11
f 14/16/11 16/20/11 6/19/5
f 16/20/11 15/18/11 1/21/1
f 3/22/3 6/19/5 16/20/11
f 3/22/3 16/20/11 1/21/1
f 2/23/2 17/24/12 4/25/4
f 17/24/12 18/26/13 4/25/4
f 18/26/13 5/27/5 4/25/4
f 5/27/5 18/26/13 8/28/5
f 18/26/13 17/24/12 19/29/14
f 18/26/13 19/29/14 8/28/5
f 17/24/12 20/30/13 19/29/14
f 19/29/14 9/31/6 8/28/5
f 19/29/14 20/30/13 12/32/9
f 9/31/6 19/29/14 12/32/9
