# Blender 3.6.18
# www.blender.org
mtllib Mesh.614.mtl
o Bistro_Research_Exterior_paris_building_06_2__5317
v 90.977715 7.533381 64.355316
v 90.208984 7.533380 63.545555
v 81.718346 7.533381 71.561661
v 81.481499 7.533380 70.331894
v 90.239120 7.106557 63.587936
v 90.239120 7.056296 63.587936
v 81.523064 7.106557 70.368309
v 81.523064 7.056296 70.368309
v 90.294113 6.961480 63.654598
v 90.977455 6.961479 64.355728
v 81.564957 6.961479 70.441185
v 81.719452 6.961479 71.561447
v 90.193184 7.152836 63.528774
v 81.477066 7.152836 70.309143
v 81.477066 7.510239 70.309143
v 90.193184 7.510240 63.528774
v 90.264000 7.033156 63.619968
v 81.548065 7.033155 70.400398
v 81.537445 7.033155 70.386726
v 90.253433 7.033156 63.606300
v 81.509003 7.129697 70.350014
v 90.224937 7.129697 63.569710
v 81.491318 7.129696 70.327377
v 90.207375 7.129697 63.547009
v 81.562065 6.984619 70.418465
v 90.278122 6.984620 63.637970
v 81.562126 7.010015 70.418510
v 90.278183 7.010016 63.638081
v 81.722725 7.510241 71.584358
v 90.993759 7.510241 64.372177
v 90.993759 6.984620 64.372177
v 81.722725 6.984619 71.584358
vn -0.0039 1.0000 -0.0039
vn -0.6118 -0.0039 -0.7910
vn -0.6127 -0.0039 -0.7903
vn -0.6140 -0.0039 -0.7893
vn -0.0039 -1.0000 -0.0039
vn -0.6139 -0.0039 -0.7893
vn -0.0026 -1.0000 -0.0049
vn -0.0044 -1.0000 -0.0035
vn -0.0033 -1.0000 -0.0044
vn -0.0043 -1.0000 -0.0037
vn -0.6136 0.0039 -0.7896
vn -0.6118 0.0039 -0.7910
vn -0.6138 0.0039 -0.7895
vn 0.6141 -0.0040 0.7892
vn 0.6107 -0.0039 0.7919
vn 0.6141 -0.0039 0.7892
vn 0.6107 -0.0040 0.7919
vt 1.595703 0.760864
vt 1.629883 0.413574
vt 5.261719 0.761597
vt 5.082031 0.413086
vt 1.630859 0.543701
vt 1.630859 0.527832
vt 5.082031 0.543701
vt 5.082031 0.527832
vt -0.630371 0.457031
vt -0.596191 0.760864
vt -4.085938 0.456055
vt -4.261719 0.761841
vt 1.630859 0.558105
vt 5.082031 0.558105
vt 5.082031 0.669678
vt 1.630859 0.669678
vt 5.082031 0.677002
vt 1.629883 0.677002
vt -0.631348 0.442871
vt -4.082031 0.442871
vt -4.082031 0.437500
vt -0.631348 0.437500
vt -4.082031 0.430176
vt -0.631348 0.430176
vt -4.082031 0.422852
vt -0.631348 0.422852
vt -4.082031 0.414062
vt -0.631348 0.414062
vt -4.082031 0.406738
vt -0.631348 0.406738
vt 1.629883 0.498535
vt 5.085938 0.498535
vt 5.082031 0.505615
vt 1.630859 0.505615
vt 5.082031 0.513428
vt 1.630859 0.513428
vt 5.082031 0.520752
vt 1.630859 0.520752
vt -4.261719 0.677002
vt -4.265625 0.669678
vt -0.596191 0.677002
vt -0.595703 0.669678
vt -0.595703 0.505615
vt -4.265625 0.505615
vt -4.261719 0.498535
vt -0.596191 0.498535
s 1
usemtl MASTER_Concrete
f 1/1/1 2/2/1 3/3/1
f 2/2/1 4/4/1 3/3/1
f 5/5/2 6/6/2 7/7/3
f 6/6/2 8/8/4 7/7/3
f 9/9/5 10/10/5 11/11/5
f 10/10/5 12/12/5 11/11/5
f 13/13/2 14/14/4 15/15/2
f 16/16/6 13/13/2 15/15/2
f 16/16/6 15/15/2 4/17/1
f 2/18/1 16/16/6 4/17/1
f 17/19/7 18/20/5 19/21/5
f 20/22/8 17/19/7 19/21/5
f 20/22/8 19/21/5 8/23/4
f 6/24/2 20/22/8 8/23/4
f 5/24/2 7/23/3 21/25/5
f 22/26/9 5/24/2 21/25/5
f 22/26/9 21/25/5 23/27/5
f 24/28/10 22/26/9 23/27/5
f 24/28/10 23/27/5 14/29/4
f 13/30/2 24/28/10 14/29/4
f 9/31/5 11/32/5 25/33/11
f 26/34/12 9/31/5 25/33/11
f 26/34/12 25/33/11 27/35/13
f 28/36/12 26/34/12 27/35/13
f 28/36/12 27/35/13 18/37/5
f 17/38/7 28/36/12 18/37/5
f 3/39/1 29/40/14 1/41/1
f 29/40/14 30/42/15 1/41/1
f 31/43/16 30/42/15 29/40/14
f 32/44/17 31/43/16 29/40/14
f 31/43/16 32/44/17 12/45/5
f 10/46/5 31/43/16 12/45/5
