# Blender 3.6.18
# www.blender.org
mtllib Mesh.803.mtl
o Bistro_Research_Exterior_paris_building_02_4919
v 10.389458 12.055835 28.657482
v 10.395813 17.422817 28.641077
v 11.034243 12.055829 26.977797
v 11.034263 17.087765 26.977798
v 11.035110 17.732019 26.975676
v 10.388867 22.858665 28.659317
v 11.919435 17.087765 24.671827
v 10.369891 24.563522 28.675606
v 11.024579 24.563519 26.969130
v 11.035977 22.858665 26.973507
v 11.909297 24.563517 24.664110
v 11.920774 22.858664 24.668514
v 12.400536 24.563515 23.384525
v 11.919724 17.732018 24.671158
v 12.411969 22.858662 23.388914
v 12.764180 24.563519 22.437311
v 12.413071 17.732018 23.385937
v 12.414172 17.087765 23.382961
v 11.919422 12.055829 24.671822
v 12.414168 12.055830 23.382961
v 12.775418 12.055830 22.441868
v 12.775414 17.087765 22.441866
v 12.775496 17.732019 22.441774
v 13.786813 17.087765 19.807072
v 12.775578 22.632626 22.441689
v 13.786858 17.732018 19.807068
v 12.775578 22.858665 22.441689
v 13.786909 22.632626 19.807062
v 13.775436 24.563517 19.802658
v 13.786909 22.858664 19.807062
v 14.187688 24.563513 18.728838
v 14.199118 22.858660 18.733227
v 14.551332 24.563515 17.781622
v 14.199626 17.732016 18.731783
v 14.200135 17.087763 18.730337
v 13.786823 12.055830 19.807074
v 14.200143 12.055828 18.730341
v 14.562571 12.055826 17.786180
v 14.562563 17.087761 17.786179
v 14.562645 17.732016 17.786091
v 15.573961 17.087761 15.151384
v 14.562727 22.632622 17.786001
v 15.574009 17.732014 15.151379
v 14.562731 22.858662 17.785999
v 15.574061 22.632622 15.151375
v 15.562589 24.563513 15.146969
v 15.574061 22.858660 15.151375
v 15.974838 24.563511 14.073151
v 15.986268 22.858658 14.077539
v 16.365105 24.563515 13.056588
v 15.986182 17.732014 14.077623
v 15.986094 17.087761 14.077708
v 15.573972 12.055826 15.151386
v 15.986118 12.055826 14.077718
v 16.376316 17.087761 13.061101
v 16.376354 12.055826 13.061116
v 16.376408 17.732016 13.061034
v 17.389006 17.087761 10.422935
v 16.376501 22.632622 13.060966
v 17.389097 17.732014 10.422867
v 16.376503 22.858662 13.060964
v 17.389191 22.632622 10.422797
v 17.377716 24.563513 10.418396
v 17.389189 22.858660 10.422799
v 18.029255 24.563511 8.720600
v 18.040876 22.858658 8.725061
v 24.894997 24.563522 -9.165266
v 24.906616 22.858658 -9.160804
v 24.906498 17.423435 -9.160732
v 18.040760 17.422817 8.725129
v 24.906496 12.057022 -9.160706
v 17.389051 12.055826 10.422951
v 18.040766 12.055828 8.725172
v 41.280796 22.858658 -2.875345
v 41.265694 24.563520 -2.881146
v 34.400337 24.563520 15.004869
v 34.415062 22.858658 15.010519
v 41.280807 17.422817 -2.875224
v 33.748634 24.563520 16.702602
v 34.415070 17.422817 15.010637
v 41.278046 12.056362 -2.876254
v 34.412357 12.056166 15.009638
v 33.760643 12.056166 16.707415
v 33.763351 17.087761 16.708456
v 33.763348 17.732014 16.708353
v 32.750652 17.732016 19.346516
v 33.763348 22.632622 16.708248
v 32.750656 17.087761 19.346621
v 33.763348 22.858660 16.708250
v 32.735935 24.563520 19.340765
v 32.750656 22.858662 19.346411
v 32.750652 22.632622 19.346413
v 32.345711 24.563520 20.357340
v 32.360428 22.858658 20.362989
v 31.933508 24.563520 21.431177
v 32.357708 12.056166 20.362183
v 32.747944 12.056166 19.345581
v 32.360405 17.087761 20.363218
v 31.945562 12.056166 21.435852
v 31.948252 17.087761 21.436888
v 32.360416 17.732014 20.363102
v 31.948240 17.732014 21.436857
v 30.936861 17.732016 24.071564
v 31.948223 22.632622 21.436825
v 30.936850 17.087761 24.071676
v 31.948223 22.858660 21.436825
v 30.922173 24.563520 24.065798
v 30.936880 22.858662 24.071447
v 30.936876 22.632622 24.071447
v 30.558563 24.563520 25.013029
v 30.573275 22.858660 25.018677
v 30.146355 24.563520 26.086864
v 30.574429 17.087763 25.015837
v 30.934166 12.056165 24.070646
v 30.571733 12.056165 25.014805
v 30.158409 12.056165 26.091537
v 30.161106 17.087765 26.092575
v 30.573845 17.732016 25.017258
v 30.161093 17.732018 26.092545
v 29.149712 17.732019 28.727247
v 30.161074 22.632626 26.092512
v 29.149700 17.087765 28.727367
v 30.161074 22.858664 26.092512
v 29.135017 24.563519 28.721487
v 29.149725 22.858665 28.727135
v 29.149725 22.632626 28.727135
v 28.771412 24.563519 29.668715
v 28.786127 22.858660 29.674362
v 28.280220 24.563519 30.948318
v 28.788435 17.087765 29.668457
v 29.147009 12.056165 28.726334
v 28.785755 12.056165 29.667427
v 28.291014 12.056165 30.956287
v 28.787287 17.732018 29.671408
v 28.293684 17.087765 30.957310
v 27.405834 12.056165 33.262260
v 28.293932 17.732018 30.956631
v 28.294931 22.858662 30.953966
v 27.395420 24.563519 33.253307
v 27.410130 22.858664 33.258953
v 26.739826 24.563519 34.959435
v 26.762997 22.858664 34.944756
v 27.409309 17.732018 33.261143
v 26.770021 17.422815 34.926548
v 26.761028 12.056167 34.941944
v 27.408504 17.087763 33.263287
v 18.591814 24.563517 31.809450
v 18.591814 22.858664 31.809450
v 18.595314 17.423124 31.800337
v 18.590017 12.055835 31.814133
v 33.083523 24.563526 -6.021986
v 33.110035 22.858658 -6.011808
v 33.110016 17.425919 -6.011759
v 33.109985 12.056424 -6.011682
vn -0.9319 -0.0039 -0.3626
vn -0.9319 -0.0117 -0.3626
vn -0.9319 -0.0039 -0.3627
vn 0.9335 0.0038 0.3585
vn 0.9335 0.0039 0.3584
vn 0.9335 0.0041 0.3584
vn 0.9335 -0.0040 0.3584
vn 0.9335 0.0040 0.3584
vn 0.9335 -0.0039 0.3584
vn 0.9335 0.0039 0.3585
vn 0.9336 -0.0039 0.3584
vn -0.3652 -0.0118 0.9308
vn -0.3653 -0.0118 0.9308
vn -0.3653 -0.0039 0.9309
vn 0.3558 -0.0039 -0.9345
vn 0.3559 -0.0039 -0.9345
vt 6.703125 -1.664062
vt 6.695312 0.002441
vt 6.140625 -1.664062
vt 6.136719 -0.091797
vt 6.136719 0.108887
vt 6.699219 1.711426
vt 5.367188 -0.092773
vt 6.703125 2.244141
vt 6.132812 2.243164
vt 6.132812 1.710449
vt 5.363281 2.242188
vt 5.363281 1.709473
vt 4.933594 2.241211
vt 5.367188 0.107910
vt 4.933594 1.708984
vt 4.617188 2.241211
vt 4.937500 0.107422
vt 4.933594 -0.093750
vt 5.367188 -1.666016
vt 4.937500 -1.666016
vt 4.621094 -1.666016
vt 4.621094 -0.094727
vt 4.621094 0.106934
vt 3.740234 -0.096680
vt 4.617188 1.637695
vt 3.738281 0.104980
vt 4.617188 1.708496
vt 3.736328 1.635742
vt 3.736328 2.239258
vt 3.736328 1.706543
vt 3.376953 2.238281
vt 3.376953 1.706055
vt 3.058594 2.238281
vt 3.378906 0.104492
vt 3.378906 -0.096680
vt 3.742188 -1.667969
vt 3.380859 -1.667969
vt 3.066406 -1.669922
vt 3.062500 -0.097656
vt 3.062500 0.104004
vt 2.181641 -0.098633
vt 3.060547 1.634766
vt 2.179688 0.102051
vt 3.060547 1.705566
vt 2.177734 1.633301
vt 2.177734 2.236328
vt 2.177734 1.703613
vt 1.818359 2.235352
vt 1.819336 1.703125
vt 1.478516 2.235352
vt 1.821289 0.101562
vt 1.822266 -0.099609
vt 2.183594 -1.671875
vt 1.824219 -1.671875
vt 1.481445 -0.099609
vt 1.484375 -1.671875
vt 1.481445 0.101074
vt 0.598633 -0.101562
vt 1.479492 1.632324
vt 0.598633 0.100098
vt 1.479492 1.702637
vt 0.596191 1.630859
vt 0.595703 2.234375
vt 0.596191 1.701660
vt 0.027603 2.233398
vt 0.028290 1.700684
vt -5.957031 2.225586
vt -5.957031 1.693359
vt -5.953125 -0.001953
vt 0.030518 -0.007812
vt -5.953125 -1.681641
vt 0.600586 -1.673828
vt 0.032593 -1.673828
vt 6.816406 2.123047
vt 6.816406 2.656250
vt 0.832520 2.661133
vt 0.832031 2.127930
vt 6.816406 0.428223
vt 0.264404 2.661133
vt 0.830566 0.419434
vt 6.816406 -1.250000
vt 0.829102 -1.246094
vt 0.261230 -1.246094
vt 0.262451 0.326172
vt 0.262451 0.527344
vt -0.620117 0.527832
vt 0.263916 2.058594
vt -0.620117 0.326660
vt 0.263916 2.128906
vt -0.618164 2.662109
vt -0.618652 2.128906
vt -0.618652 2.058594
vt -0.958496 2.662109
vt -0.958984 2.129883
vt -1.317383 2.663086
vt -0.961914 -1.244141
vt -0.621582 -1.244141
vt -0.960449 0.327148
vt -1.321289 -1.244141
vt -1.319336 0.327148
vt -0.960449 0.528320
vt -1.319336 0.528564
vt -2.201172 0.529541
vt -1.318359 2.059570
vt -2.201172 0.328125
vt -1.318359 2.129883
vt -2.199219 2.664062
vt -2.199219 2.130859
vt -2.199219 2.060547
vt -2.515625 2.664062
vt -2.517578 2.130859
vt -2.875000 2.664062
vt -2.517578 0.328613
vt -2.203125 -1.244141
vt -2.519531 -1.242188
vt -2.878906 -1.242188
vt -2.876953 0.329102
vt -2.517578 0.529785
vt -2.876953 0.530273
vt -3.759766 0.531738
vt -2.876953 2.061523
vt -3.759766 0.330566
vt -2.876953 2.131836
vt -3.757812 2.666016
vt -3.757812 2.132812
vt -3.757812 2.062500
vt -4.074219 2.666016
vt -4.074219 2.133789
vt -4.500000 2.666992
vt -4.074219 0.330566
vt -3.761719 -1.242188
vt -4.074219 -1.240234
vt -4.507812 -1.240234
vt -4.074219 0.531982
vt -4.503906 0.331055
vt -5.277344 -1.240234
vt -4.503906 0.532471
vt -4.503906 2.133789
vt -5.273438 2.666992
vt -5.273438 2.134766
vt -5.843750 2.667969
vt -5.839844 2.134766
vt -5.277344 0.533203
vt -5.832031 0.426270
vt -5.839844 -1.240234
vt -5.277344 0.332031
vt 3.246094 2.107422
vt 3.228516 2.639648
vt 0.500977 2.639648
vt 0.500977 2.107422
vt -2.244141 2.639648
vt -2.244141 2.107422
vt 3.246094 0.400879
vt -2.244141 0.400879
vt 0.500977 0.407715
vt 3.236328 -1.261719
vt -2.244141 -1.261719
vt 0.500977 -1.261719
vt 3.244141 2.102539
vt 3.244141 2.634766
vt 0.504883 2.634766
vt 0.496338 2.102539
vt -2.238281 2.634766
vt -2.250000 2.102539
vt 0.496338 0.461426
vt 3.244141 0.408203
vt -2.232422 0.408203
vt 3.244141 -1.269531
vt -2.232422 -1.269531
vt 0.496338 -1.269531
s 1
usemtl MASTER_Brick_Small_Red_BLENDSHADER
f 1/1/1 2/2/1 3/3/1
f 2/2/1 4/4/1 3/3/1
f 4/4/1 2/2/1 5/5/1
f 2/2/1 6/6/1 5/5/1
f 4/4/1 5/5/1 7/7/1
f 6/6/1 8/8/2 9/9/2
f 10/10/1 6/6/1 9/9/2
f 6/6/1 10/10/1 5/5/1
f 10/10/1 9/9/2 11/11/2
f 12/12/1 10/10/1 11/11/2
f 10/10/1 12/12/1 5/5/1
f 12/12/1 11/11/2 13/13/2
f 12/12/1 14/14/1 5/5/1
f 5/5/1 14/14/1 7/7/1
f 15/15/1 12/12/1 13/13/2
f 14/14/1 12/12/1 15/15/1
f 15/15/1 13/13/2 16/16/2
f 7/7/1 14/14/1 17/17/1
f 17/17/1 14/14/1 15/15/1
f 18/18/1 7/7/1 17/17/1
f 7/7/1 18/18/1 19/19/1
f 18/18/1 20/20/1 19/19/1
f 20/20/1 18/18/1 21/21/1
f 18/18/1 22/22/1 21/21/1
f 18/18/1 17/17/1 23/23/1
f 22/22/1 18/18/1 23/23/1
f 17/17/1 15/15/1 23/23/1
f 22/22/1 23/23/1 24/24/1
f 15/15/1 25/25/1 23/23/1
f 23/23/1 26/26/1 24/24/1
f 15/15/1 27/27/1 25/25/1
f 27/27/1 15/15/1 16/16/2
f 25/25/1 27/27/1 28/28/1
f 27/27/1 16/16/2 29/29/2
f 30/30/1 27/27/1 29/29/2
f 27/27/1 30/30/1 28/28/1
f 30/30/1 29/29/2 31/31/2
f 28/28/1 30/30/1 32/32/1
f 32/32/1 30/30/1 31/31/2
f 26/26/1 28/28/1 32/32/1
f 32/32/1 31/31/2 33/33/2
f 24/24/1 26/26/1 34/34/1
f 34/34/1 26/26/1 32/32/1
f 35/35/1 24/24/1 34/34/1
f 24/24/1 35/35/1 36/36/1
f 35/35/1 37/37/3 36/36/1
f 37/37/3 35/35/1 38/38/1
f 35/35/1 39/39/1 38/38/1
f 35/35/1 34/34/1 40/40/1
f 39/39/1 35/35/1 40/40/1
f 34/34/1 32/32/1 40/40/1
f 39/39/1 40/40/1 41/41/1
f 32/32/1 42/42/1 40/40/1
f 40/40/1 43/43/1 41/41/1
f 32/32/1 44/44/1 42/42/1
f 44/44/1 32/32/1 33/33/2
f 42/42/1 44/44/1 45/45/3
f 44/44/1 33/33/2 46/46/2
f 47/47/1 44/44/1 46/46/2
f 44/44/1 47/47/1 45/45/3
f 47/47/1 46/46/2 48/48/2
f 45/45/3 47/47/1 49/49/1
f 49/49/1 47/47/1 48/48/2
f 43/43/1 45/45/3 49/49/1
f 49/49/1 48/48/2 50/50/2
f 41/41/1 43/43/1 51/51/1
f 51/51/1 43/43/1 49/49/1
f 52/52/1 41/41/1 51/51/1
f 41/41/1 52/52/1 53/53/1
f 52/52/1 54/54/1 53/53/1
f 55/55/1 56/56/1 54/54/1
f 52/52/1 55/55/1 54/54/1
f 52/52/1 51/51/1 57/57/1
f 55/55/1 52/52/1 57/57/1
f 51/51/1 49/49/1 57/57/1
f 55/55/1 57/57/1 58/58/1
f 49/49/1 59/59/1 57/57/1
f 57/57/1 60/60/1 58/58/1
f 49/49/1 61/61/1 59/59/1
f 61/61/1 49/49/1 50/50/2
f 59/59/1 61/61/1 62/62/1
f 61/61/1 50/50/2 63/63/2
f 64/64/1 61/61/1 63/63/2
f 61/61/1 64/64/1 62/62/1
f 64/64/1 63/63/2 65/65/2
f 62/62/1 64/64/1 66/66/1
f 66/66/1 64/64/1 65/65/2
f 60/60/1 62/62/1 66/66/1
f 66/66/1 65/65/2 67/67/2
f 68/68/1 66/66/1 67/67/2
f 66/66/1 68/68/1 69/69/1
f 70/70/1 60/60/1 66/66/1
f 70/70/1 66/66/1 69/69/1
f 58/58/1 60/60/1 70/70/1
f 70/70/1 69/69/1 71/71/1
f 58/58/1 70/70/1 72/72/1
f 73/73/1 70/70/1 71/71/1
f 70/70/1 73/73/1 72/72/1
f 74/74/4 75/75/5 76/76/5
f 77/77/6 74/74/4 76/76/5
f 78/78/7 74/74/4 77/77/6
f 77/77/6 76/76/5 79/79/8
f 80/80/9 78/78/7 77/77/6
f 81/81/7 78/78/7 80/80/9
f 82/82/9 81/81/9 80/80/9
f 83/83/9 82/82/9 80/80/9
f 84/84/7 83/83/9 80/80/9
f 84/84/7 80/80/9 85/85/7
f 80/80/9 77/77/6 85/85/7
f 84/84/7 85/85/7 86/86/9
f 77/77/6 87/87/7 85/85/7
f 88/88/9 84/84/7 86/86/9
f 87/87/7 77/77/6 89/89/10
f 89/89/10 77/77/6 79/79/8
f 89/89/10 79/79/8 90/90/5
f 87/87/7 89/89/10 91/91/10
f 91/91/10 89/89/10 90/90/5
f 92/92/9 87/87/7 91/91/10
f 91/91/10 90/90/5 93/93/5
f 94/94/4 92/92/9 91/91/10
f 94/94/4 91/91/10 93/93/5
f 86/86/9 92/92/9 94/94/4
f 94/94/4 93/93/5 95/95/5
f 96/96/9 97/97/7 88/88/9
f 98/98/7 96/96/9 88/88/9
f 88/88/9 86/86/9 98/98/7
f 99/99/9 96/96/9 98/98/7
f 100/100/7 99/99/9 98/98/7
f 86/86/9 101/101/7 98/98/7
f 98/98/7 101/101/7 100/100/7
f 101/101/7 86/86/9 94/94/4
f 101/101/7 102/102/7 100/100/7
f 101/101/7 94/94/4 102/102/7
f 100/100/7 102/102/7 103/103/9
f 94/94/4 104/104/9 102/102/7
f 105/105/9 100/100/7 103/103/9
f 104/104/9 94/94/4 106/106/4
f 106/106/4 94/94/4 95/95/5
f 106/106/4 95/95/5 107/107/5
f 104/104/9 106/106/4 108/108/5
f 108/108/5 106/106/4 107/107/5
f 109/109/9 104/104/9 108/108/5
f 108/108/5 107/107/5 110/110/5
f 111/111/10 109/109/9 108/108/5
f 111/111/10 108/108/5 110/110/5
f 103/103/9 109/109/9 111/111/10
f 111/111/10 110/110/5 112/112/5
f 105/105/9 103/103/9 113/113/9
f 114/114/7 105/105/9 113/113/9
f 115/115/7 114/114/7 113/113/9
f 116/116/9 115/115/7 113/113/9
f 117/117/9 116/116/9 113/113/9
f 103/103/9 118/118/9 113/113/9
f 113/113/9 118/118/9 117/117/9
f 118/118/9 103/103/9 111/111/10
f 118/118/9 119/119/7 117/117/9
f 118/118/9 111/111/10 119/119/7
f 117/117/9 119/119/7 120/120/9
f 111/111/10 121/121/9 119/119/7
f 122/122/9 117/117/9 120/120/9
f 121/121/9 111/111/10 123/123/6
f 123/123/6 111/111/10 112/112/5
f 123/123/6 112/112/5 124/124/5
f 121/121/9 123/123/6 125/125/8
f 125/125/8 123/123/6 124/124/5
f 126/126/9 121/121/9 125/125/8
f 125/125/8 124/124/5 127/127/5
f 128/128/6 126/126/9 125/125/8
f 128/128/6 125/125/8 127/127/5
f 120/120/9 126/126/9 128/128/6
f 128/128/6 127/127/5 129/129/5
f 122/122/9 120/120/9 130/130/9
f 131/131/7 122/122/9 130/130/9
f 132/132/9 131/131/7 130/130/9
f 133/133/9 132/132/9 130/130/9
f 120/120/9 134/134/9 130/130/9
f 134/134/9 120/120/9 128/128/6
f 135/135/9 133/133/9 130/130/9
f 130/130/9 134/134/9 135/135/9
f 133/133/9 135/135/9 136/136/7
f 134/134/9 128/128/6 137/137/9
f 134/134/9 137/137/9 135/135/9
f 138/138/8 128/128/6 129/129/5
f 128/128/6 138/138/8 137/137/9
f 138/138/8 129/129/5 139/139/8
f 140/140/10 138/138/8 139/139/8
f 137/137/9 138/138/8 140/140/10
f 140/140/10 139/139/8 141/141/5
f 142/142/10 140/140/10 141/141/5
f 143/143/9 137/137/9 140/140/10
f 143/143/9 140/140/10 142/142/10
f 135/135/9 137/137/9 143/143/9
f 144/144/11 143/143/9 142/142/10
f 145/145/9 136/136/7 144/144/11
f 146/146/9 135/135/9 143/143/9
f 135/135/9 146/146/9 136/136/7
f 146/146/9 143/143/9 144/144/11
f 136/136/7 146/146/9 144/144/11
f 142/147/12 141/148/13 147/149/13
f 148/150/13 142/147/12 147/149/13
f 148/150/13 147/149/13 8/151/12
f 6/152/13 148/150/13 8/151/13
f 142/147/12 148/150/13 144/153/14
f 6/152/13 2/154/14 148/150/13
f 148/150/13 149/155/14 144/153/14
f 2/154/14 149/155/14 148/150/13
f 144/153/14 149/155/14 145/156/14
f 2/154/14 1/157/14 149/155/14
f 149/155/14 150/158/14 145/156/14
f 1/157/14 150/158/14 149/155/14
f 68/159/15 67/160/15 151/161/15
f 152/162/15 68/159/15 151/161/15
f 152/162/15 151/161/15 75/163/15
f 74/164/16 152/162/15 75/163/15
f 68/159/15 152/162/15 153/165/16
f 153/165/16 152/162/15 74/164/16
f 69/166/15 68/159/15 153/165/16
f 78/167/15 153/165/16 74/164/16
f 71/168/15 69/166/15 153/165/16
f 153/165/16 78/167/15 81/169/15
f 154/170/15 71/168/16 153/165/16
f 154/170/15 153/165/16 81/169/15
