# Blender 3.6.18
# www.blender.org
mtllib Mesh.380.mtl
o Bistro_Research_Exterior_paris_building_11_5823
v -0.210995 13.617232 21.622856
v -0.884344 13.617233 23.269562
v -0.210995 16.530514 21.622856
v -0.884344 16.530516 23.269562
v -0.288302 13.533713 21.591248
v -2.058123 13.533711 20.867554
v -0.961651 13.533712 23.237953
v -2.731473 13.533712 22.514259
v -0.993262 13.617232 23.315256
v -2.763084 13.617233 22.591566
v -0.993262 16.530516 23.315256
v -2.763084 16.530514 22.591566
v -0.961651 16.614037 23.237947
v -2.731473 16.614035 22.514257
v -0.288302 16.614037 21.591244
v -2.058123 16.614035 20.867552
v -0.256690 16.530514 21.513939
v -2.026512 16.530514 20.790243
v -0.256690 13.617233 21.513939
v -2.026512 13.617232 20.790245
vn -0.9255 -0.0039 -0.3788
vn -0.0039 1.0000 -0.0039
vn 0.3721 -0.0039 -0.9282
vn -0.0039 -1.0000 -0.0039
vn -0.3815 -0.0039 0.9243
vn -0.5260 -0.4636 -0.7130
vn -0.2525 -0.7574 -0.6021
vn -0.8757 -0.4632 0.1362
vn -0.6033 -0.7589 0.2452
vn -0.8789 0.4570 0.1367
vn -0.6068 0.7556 0.2466
vn -0.5279 0.4575 -0.7156
vn -0.2540 0.7541 -0.6057
vn 0.2640 0.7053 -0.6580
vn -0.1444 0.4565 -0.8779
vn -0.2712 -0.7113 0.6484
vn -0.6032 -0.7589 0.2452
vn -0.2712 -0.7113 0.6485
vn -0.7159 -0.4655 0.5203
vn -0.7185 0.4594 0.5222
vn -0.2727 0.7074 0.6521
vn -0.1439 -0.4627 -0.8748
vn 0.2625 -0.7092 -0.6543
vt 0.503906 0.076172
vt 1.059570 0.076172
vt 0.503906 0.986198
vt 1.059570 0.986198
vt 0.495850 1.686035
vt 0.495850 2.283203
vt -0.060059 1.686035
vt -0.060059 2.283203
vt 0.923828 1.686035
vt 0.923828 2.283203
vt 0.013802 1.686035
vt 0.013802 2.283203
vt 1.059570 1.686035
vt 1.059570 2.283203
vt 0.503906 1.686035
vt 0.503906 2.283203
vt 0.985840 1.686035
vt 0.985840 2.283203
vt 0.075745 1.686035
vt 0.075745 2.283203
vt 1.059570 1.659668
vt 0.503906 1.659668
vt 0.495850 1.659668
vt -0.060059 1.659668
vt -0.086121 2.283203
vt -0.086121 1.686035
vt 0.477783 2.283203
vt 0.477783 1.686035
vt 0.985840 1.659668
vt 1.011719 1.686035
vt 0.075745 1.659668
vt 0.049683 1.686035
vt 0.049683 2.283203
vt 0.950195 1.686035
vt 0.923828 1.659668
vt 0.013802 1.659668
vt -0.012291 1.686035
vt -0.012291 2.283203
s 1
usemtl MASTER_Room_Interior
f 1/1/1 2/2/1 3/3/1
f 2/2/1 4/4/1 3/3/1
f 5/5/2 6/6/2 7/7/2
f 6/6/2 8/8/2 7/7/2
f 9/9/3 10/10/3 11/11/3
f 10/10/3 12/12/3 11/11/3
f 13/13/4 14/14/4 15/15/4
f 14/14/4 16/16/4 15/15/4
f 17/17/5 18/18/5 19/19/5
f 18/18/5 20/20/5 19/19/5
f 4/21/6 13/13/7 3/22/8
f 13/13/7 15/15/9 3/22/8
f 1/23/10 5/5/11 2/24/12
f 5/5/11 7/7/13 2/24/12
f 8/8/14 10/25/14 7/7/13
f 10/25/14 9/26/15 7/7/13
f 16/16/16 18/27/16 15/15/17
f 18/27/18 17/28/19 15/15/9
f 3/29/8 15/30/9 17/17/19
f 3/29/8 17/17/19 1/31/10
f 17/17/19 19/19/20 1/31/10
f 1/31/10 19/19/20 5/32/11
f 5/32/11 19/19/20 6/33/21
f 19/19/20 20/20/21 6/33/21
f 7/34/13 9/9/15 2/35/12
f 2/35/12 9/9/15 4/36/6
f 9/9/15 11/11/22 4/36/6
f 11/11/22 13/37/7 4/36/6
f 14/38/23 13/37/7 11/11/22
f 12/12/23 14/38/23 11/11/22
