# Blender 3.6.18
# www.blender.org
mtllib Mesh.141.mtl
o Bistro_Research_Exterior_Paris_Streetlight_Glass_01a___5__6327
v -2.639894 7.220439 15.913046
v -2.738211 7.220439 15.847792
v -2.755130 6.636995 15.898148
v -2.679723 6.636995 15.948195
v -2.587375 7.220439 16.018713
v -2.639443 6.636995 16.029238
v -2.594727 7.220439 16.136486
v -2.645082 6.636995 16.119566
v -2.659979 7.220439 16.234802
v -2.695128 6.636995 16.194973
v -2.765648 7.220439 16.287319
v -2.776173 6.636995 16.235252
v -2.883420 7.220439 16.279968
v -2.866500 6.636995 16.229614
v -2.981737 7.220439 16.214718
v -2.941907 6.636995 16.179565
v -3.034256 7.220439 16.109047
v -2.982187 6.636995 16.098522
v -3.026904 7.220439 15.991276
v -2.976548 6.636995 16.008196
v -2.961651 7.220439 15.892960
v -2.926501 6.636995 15.932789
v -2.855982 7.220439 15.840441
v -2.845457 6.636995 15.892509
v -2.701654 6.636995 15.899406
v -2.748640 6.636995 15.878833
v -2.729750 7.220439 15.822610
v -2.668487 7.220439 15.849433
v -2.619975 7.220439 15.895467
v -2.664446 6.636995 15.934713
v -2.634041 6.636995 15.976021
v -2.580332 7.220439 15.949327
v -2.561336 7.220439 16.013451
v -2.619472 6.636995 16.025202
v -2.613795 6.636995 16.076180
v -2.553934 7.220439 16.079918
v -2.569544 7.220439 16.144943
v -2.625768 6.636995 16.126055
v -2.646340 6.636995 16.173042
v -2.596368 7.220439 16.206209
v -2.642401 7.220439 16.254721
v -2.681647 6.636995 16.210249
v -2.722956 6.636995 16.240654
v -2.696262 7.220439 16.294365
v -2.760385 7.220439 16.313360
v -2.772136 6.636995 16.255224
v -2.823114 6.636995 16.260900
v -2.826851 7.220439 16.320761
v -2.891881 7.220439 16.305151
v -2.872990 6.636995 16.248928
v -2.919976 6.636995 16.228355
v -2.953143 7.220439 16.278330
v -3.001655 7.220439 16.232294
v -2.957184 6.636995 16.193050
v -2.987588 6.636995 16.151739
v -3.041298 7.220439 16.178432
v -3.060294 7.220439 16.114311
v -3.002158 6.636995 16.102560
v -3.007835 6.636995 16.051580
v -3.067696 7.220439 16.047844
v -3.052086 7.220439 15.982815
v -2.995862 6.636995 16.001705
v -2.975290 6.636995 15.954720
v -3.025263 7.220439 15.921553
v -2.979229 7.220439 15.873041
v -2.939983 6.636995 15.917512
v -2.898674 6.636995 15.887107
v -2.925368 7.220439 15.833396
v -2.861246 7.220439 15.814401
v -2.849494 6.636995 15.872537
v -2.798516 6.636995 15.866861
v -2.794779 7.220439 15.807001
vn -0.7497 0.0903 0.6555
vn -0.3196 0.0908 0.9432
vn -0.3197 0.0908 0.9432
vn -0.7498 0.0903 0.6555
vn -0.9772 0.0903 0.1923
vn -0.9440 0.0902 -0.3173
vn -0.9440 0.0901 -0.3173
vn -0.6599 0.0899 -0.7459
vn -0.6600 0.0898 -0.7459
vn -0.1998 0.0901 -0.9757
vn 0.3102 0.0903 -0.9464
vn 0.7424 0.0903 -0.6639
vn 0.7424 0.0903 -0.6638
vn 0.9753 0.0908 -0.2013
vn 0.9753 0.0908 -0.2014
vn 0.9455 0.0910 0.3125
vn 0.9455 0.0910 0.3126
vn 0.6595 0.0908 0.7462
vn 0.6593 0.0908 0.7464
vn 0.1938 0.0910 0.9768
vn 0.5435 -0.1056 -0.8328
vn 0.3097 -0.1059 -0.9449
vn 0.7413 -0.1059 -0.6628
vn 0.8902 -0.1059 -0.4431
vn 0.9738 -0.1065 -0.2011
vn 0.9926 -0.1059 0.0589
vn 0.9441 -0.1066 0.3121
vn 0.8303 -0.1062 0.5470
vn 0.8304 -0.1062 0.5470
vn 0.6584 -0.1064 0.7451
vn 0.4368 -0.1063 0.8933
vn 0.4368 -0.1062 0.8933
vn 0.1935 -0.1066 0.9753
vn -0.0667 -0.1059 0.9921
vn -0.3192 -0.1064 0.9417
vn -0.3191 -0.1064 0.9417
vn -0.5525 -0.1058 0.8268
vn -0.7486 -0.1058 0.6545
vn -0.8948 -0.1055 0.4338
vn -0.8948 -0.1055 0.4337
vn -0.9757 -0.1058 0.1920
vn -0.9923 -0.1051 -0.0662
vn -0.9426 -0.1056 -0.3168
vn -0.8292 -0.1051 -0.5489
vn -0.6590 -0.1053 -0.7448
vn -0.6590 -0.1052 -0.7448
vn -0.4401 -0.1051 -0.8918
vn -0.1995 -0.1056 -0.9742
vn 0.0584 -0.1051 -0.9927
vt 0.092773 0.097168
vt 0.016220 0.097168
vt 0.016220 0.904419
vt 0.092773 0.904419
vt 0.172852 0.097168
vt 0.172852 0.904419
vt 0.252930 0.097168
vt 0.252930 0.904419
vt 0.333008 0.097168
vt 0.333008 0.904419
vt 0.413086 0.097168
vt 0.413086 0.904419
vt 0.493164 0.097168
vt 0.493164 0.904419
vt 0.573242 0.097168
vt 0.573242 0.904419
vt 0.653320 0.097168
vt 0.653320 0.904419
vt 0.733398 0.097168
vt 0.733398 0.904419
vt 0.813477 0.097168
vt 0.813477 0.904419
vt 0.893555 0.097168
vt 0.893555 0.904419
vt 0.984375 0.097168
vt 0.984375 0.904419
vt 0.054504 0.904419
vt 0.054504 0.097168
vt 0.132812 0.904419
vt 0.132812 0.097168
vt 0.212891 0.904419
vt 0.212891 0.097168
vt 0.292969 0.904419
vt 0.292969 0.097168
vt 0.373047 0.904419
vt 0.373047 0.097168
vt 0.453125 0.904419
vt 0.453125 0.097168
vt 0.533203 0.904419
vt 0.533203 0.097168
vt 0.613281 0.904419
vt 0.613281 0.097168
vt 0.693359 0.904419
vt 0.693359 0.097168
vt 0.773438 0.904419
vt 0.773438 0.097168
vt 0.853516 0.904419
vt 0.853516 0.097168
vt 0.938965 0.904419
vt 0.938965 0.097168
s 1
usemtl Emissive_StreetLight
f 1/1/1 2/2/2 3/3/3
f 3/3/3 4/4/4 1/1/1
f 5/5/5 1/1/1 4/4/4
f 4/4/4 6/6/5 5/5/5
f 7/7/6 5/5/5 6/6/5
f 6/6/5 8/8/7 7/7/6
f 9/9/8 7/7/6 8/8/7
f 8/8/7 10/10/9 9/9/8
f 11/11/10 9/9/8 10/10/9
f 10/10/9 12/12/10 11/11/10
f 13/13/11 11/11/10 12/12/10
f 12/12/10 14/14/11 13/13/11
f 15/15/12 13/13/11 14/14/11
f 14/14/11 16/16/13 15/15/12
f 17/17/14 15/15/12 16/16/13
f 16/16/13 18/18/15 17/17/14
f 19/19/16 17/17/14 18/18/15
f 18/18/15 20/20/17 19/19/16
f 21/21/18 19/19/16 20/20/17
f 20/20/17 22/22/19 21/21/18
f 23/23/20 21/21/18 22/22/19
f 22/22/19 24/24/20 23/23/20
f 2/25/2 23/23/20 24/24/20
f 24/24/20 3/26/3 2/25/2
f 25/27/21 26/3/22 27/2/22
f 27/2/22 28/28/21 25/27/21
f 25/27/21 28/28/21 29/1/23
f 29/1/23 30/4/23 25/27/21
f 31/29/24 30/4/23 29/1/23
f 29/1/23 32/30/24 31/29/24
f 31/29/24 32/30/24 33/5/25
f 33/5/25 34/6/25 31/29/24
f 35/31/26 34/6/25 33/5/25
f 33/5/25 36/32/26 35/31/26
f 35/31/26 36/32/26 37/7/27
f 37/7/27 38/8/27 35/31/26
f 39/33/28 38/8/27 37/7/27
f 37/7/27 40/34/29 39/33/28
f 39/33/28 40/34/29 41/9/30
f 41/9/30 42/10/30 39/33/28
f 43/35/31 42/10/30 41/9/30
f 41/9/30 44/36/32 43/35/31
f 43/35/31 44/36/32 45/11/33
f 45/11/33 46/12/33 43/35/31
f 47/37/34 46/12/33 45/11/33
f 45/11/33 48/38/34 47/37/34
f 47/37/34 48/38/34 49/13/35
f 49/13/35 50/14/36 47/37/34
f 51/39/37 50/14/36 49/13/35
f 49/13/35 52/40/37 51/39/37
f 51/39/37 52/40/37 53/15/38
f 53/15/38 54/16/38 51/39/37
f 55/41/39 54/16/38 53/15/38
f 53/15/38 56/42/40 55/41/39
f 55/41/39 56/42/40 57/17/41
f 57/17/41 58/18/41 55/41/39
f 59/43/42 58/18/41 57/17/41
f 57/17/41 60/44/42 59/43/42
f 59/43/42 60/44/42 61/19/43
f 61/19/43 62/20/43 59/43/42
f 63/45/44 62/20/43 61/19/43
f 61/19/43 64/46/44 63/45/44
f 63/45/44 64/46/44 65/21/45
f 65/21/45 66/22/46 63/45/44
f 67/47/47 66/22/46 65/21/45
f 65/21/45 68/48/47 67/47/47
f 67/47/47 68/48/47 69/23/48
f 69/23/48 70/24/48 67/47/47
f 71/49/49 70/24/48 69/23/48
f 69/23/48 72/50/49 71/49/49
f 71/49/49 72/50/49 27/25/22
f 27/25/22 26/26/22 71/49/49
