# Blender 3.6.18
# www.blender.org
mtllib Mesh.716.mtl
o Bistro_Research_Exterior_paris_building_05_5103
v 23.067957 22.423820 -44.021313
v 23.067955 19.548540 -44.021313
v 22.608286 19.548540 -43.245739
v 22.608286 22.423820 -43.245739
v 22.134439 22.423820 -42.446236
v 22.596800 22.423820 -43.226357
v 22.596802 19.548540 -43.226360
v 22.134439 19.548540 -42.446239
vn -0.8602 -0.0039 -0.5099
vt 0.251221 0.988487
vt 0.251221 0.225098
vt 0.497803 0.225098
vt 0.497803 0.988487
vt 0.249146 0.988487
vt 0.002602 0.988487
vt 0.002602 0.225098
vt 0.249146 0.225098
s 1
usemtl MASTER_Curtains
f 1/1/1 2/2/1 3/3/1
f 3/3/1 4/4/1 1/1/1
f 5/5/1 6/6/1 7/7/1
f 7/7/1 8/8/1 5/5/1
