# Blender 3.6.18
# www.blender.org
mtllib Mesh.747.mtl
o Bistro_Research_Exterior_paris_building_05_5041
v 22.387163 16.991146 -43.398628
v 22.126528 16.991146 -42.962620
v 22.177942 16.991146 -42.931885
v 22.438578 16.991146 -43.367893
v 22.177942 16.895023 -42.931885
v 22.438578 16.895023 -43.367893
v 22.387163 16.895025 -43.398628
v 22.126528 16.895023 -42.962620
v 22.433413 14.291604 -43.365303
v 22.386925 14.291604 -43.393093
v 22.386925 16.899364 -43.393093
v 22.433413 16.899364 -43.365303
v 22.393446 16.899364 -43.298447
v 22.393446 14.291604 -43.298447
v 22.346960 14.291604 -43.326237
v 22.346960 16.899364 -43.326237
v 22.178965 16.892868 -43.014347
v 22.359671 16.892868 -43.316643
v 22.359669 14.294683 -43.316643
v 22.178965 14.294683 -43.014347
v 22.128952 14.291604 -42.961544
v 22.175440 14.291604 -42.933758
v 22.175440 16.899364 -42.933758
v 22.128952 16.899364 -42.961544
v 22.168917 16.899364 -43.028397
v 22.168919 14.291604 -43.028397
v 22.215405 14.291604 -43.000607
v 22.215403 16.899364 -43.000607
v 22.387163 14.291188 -43.398628
v 22.126528 14.291188 -42.962620
v 22.177942 14.291188 -42.931885
v 22.438578 14.291188 -43.367893
v 22.177942 14.195068 -42.931885
v 22.438578 14.195068 -43.367893
v 22.387163 14.195069 -43.398628
v 22.126528 14.195068 -42.962620
v 22.126551 16.991146 -42.962654
v 21.865915 16.991146 -42.526646
v 21.917328 16.991146 -42.495911
v 22.177961 16.991146 -42.931919
v 21.917328 16.895023 -42.495911
v 22.177961 16.895023 -42.931919
v 22.126551 16.895025 -42.962654
v 21.865915 16.895023 -42.526646
v 22.172798 14.291604 -42.929329
v 22.126312 14.291604 -42.957119
v 22.126312 16.899364 -42.957119
v 22.172798 16.899364 -42.929329
v 22.132833 16.899364 -42.862476
v 22.132832 14.291604 -42.862476
v 22.086346 14.291604 -42.890263
v 22.086346 16.899364 -42.890263
v 21.917711 16.892868 -42.577305
v 22.098419 16.892868 -42.879604
v 22.098419 14.294683 -42.879604
v 21.917709 14.294683 -42.577305
v 21.870396 14.291604 -42.529011
v 21.916883 14.291604 -42.501221
v 21.916883 16.899364 -42.501221
v 21.870396 16.899364 -42.529011
v 21.910360 16.899364 -42.595867
v 21.910358 14.291604 -42.595867
v 21.956846 14.291604 -42.568077
v 21.956846 16.899364 -42.568077
v 22.126551 14.291188 -42.962654
v 21.865915 14.291188 -42.526646
v 21.917328 14.291188 -42.495911
v 22.177961 14.291188 -42.931919
v 21.917328 14.195068 -42.495911
v 22.177961 14.195068 -42.931919
v 22.126551 14.195069 -42.962654
v 21.865915 14.195068 -42.526646
vn -0.0039 1.0000 -0.0039
vn 0.8596 -0.0040 0.5110
vn -0.8582 -0.0039 -0.5133
vn 0.5075 -0.0039 -0.8616
vn -0.5168 -0.0039 0.8561
vn -0.5168 -0.0040 0.8561
vn -0.0039 -1.0000 -0.0039
vn 0.5076 -0.0039 -0.8616
vn 0.8596 -0.0039 0.5110
vn -0.8582 -0.0040 -0.5133
vt 0.327881 0.353027
vt 0.327881 0.432129
vt 0.318604 0.432129
vt 0.318604 0.353027
vt 0.315430 0.432129
vt 0.300537 0.432129
vt 0.300537 0.352539
vt 0.315430 0.352539
vt 0.270020 0.352051
vt 0.284912 0.352051
vt 0.284912 0.431641
vt 0.270020 0.431641
vt 0.269775 0.345215
vt 0.269775 0.335938
vt 0.284912 0.335938
vt 0.284912 0.345215
vt 0.288086 0.345215
vt 0.288086 0.335938
vt 0.303223 0.335938
vt 0.303223 0.345215
vt 0.287842 0.352539
vt 0.297363 0.352539
vt 0.297363 0.432129
vt 0.287842 0.432129
vt 0.858398 0.978256
vt 0.848633 0.978256
vt 0.848633 0.570801
vt 0.858398 0.570801
vt 0.812012 0.571289
vt 0.812012 0.978668
vt 0.799805 0.978668
vt 0.799805 0.571289
vt 0.845215 0.572021
vt 0.845215 0.979340
vt 0.833008 0.979340
vt 0.833008 0.572021
vt 0.827637 0.980072
vt 0.817871 0.980072
vt 0.817871 0.572754
vt 0.827637 0.572754
vt 0.377197 0.011230
vt 0.432373 0.011230
vt 0.432373 0.416992
vt 0.377197 0.416992
s 1
usemtl MASTER_Building_Details
f 1/1/1 2/2/1 3/3/1
f 3/3/1 4/4/1 1/1/1
f 3/5/2 5/6/2 6/7/2
f 6/7/2 4/8/2 3/5/2
f 1/9/3 7/10/3 8/11/3
f 8/11/3 2/12/3 1/9/3
f 1/13/4 4/14/4 6/15/4
f 6/15/4 7/16/4 1/13/4
f 3/17/5 2/18/5 8/19/5
f 8/19/5 5/20/6 3/17/5
f 7/21/7 6/22/7 5/23/7
f 5/23/7 8/24/7 7/21/7
f 9/25/8 10/26/8 11/27/4
f 11/27/4 12/28/4 9/25/8
f 9/29/2 12/30/2 13/31/2
f 13/31/2 14/32/2 9/29/2
f 11/33/3 10/34/3 15/35/3
f 15/35/3 16/36/3 11/33/3
f 15/37/6 14/38/6 13/39/6
f 13/39/6 16/40/6 15/37/6
f 17/41/3 18/42/3 19/43/3
f 19/43/3 20/44/3 17/41/3
f 21/25/6 22/26/5 23/27/5
f 23/27/5 24/28/6 21/25/6
f 21/29/3 24/30/3 25/31/3
f 25/31/3 26/32/3 21/29/3
f 23/33/2 22/34/2 27/35/2
f 27/35/2 28/36/2 23/33/2
f 27/37/4 26/38/4 25/39/8
f 25/39/8 28/40/4 27/37/4
f 29/1/1 30/2/1 31/3/1
f 31/3/1 32/4/1 29/1/1
f 31/5/2 33/6/2 34/7/2
f 34/7/2 32/8/2 31/5/2
f 29/9/3 35/10/3 36/11/3
f 36/11/3 30/12/3 29/9/3
f 29/13/4 32/14/4 34/15/4
f 34/15/4 35/16/4 29/13/4
f 31/17/5 30/18/6 36/19/6
f 36/19/6 33/20/6 31/17/5
f 35/21/7 34/22/7 33/23/7
f 33/23/7 36/24/7 35/21/7
f 37/1/1 38/2/1 39/3/1
f 39/3/1 40/4/1 37/1/1
f 39/5/2 41/6/2 42/7/2
f 42/7/2 40/8/2 39/5/2
f 37/9/3 43/10/3 44/11/3
f 44/11/3 38/12/3 37/9/3
f 37/13/4 40/14/4 42/15/4
f 42/15/4 43/16/4 37/13/4
f 39/17/5 38/18/5 44/19/5
f 44/19/5 41/20/6 39/17/5
f 43/21/7 42/22/7 41/23/7
f 41/23/7 44/24/7 43/21/7
f 45/25/4 46/26/4 47/27/4
f 47/27/4 48/28/4 45/25/4
f 45/29/2 48/30/2 49/31/2
f 49/31/9 50/32/9 45/29/9
f 47/33/3 46/34/3 51/35/3
f 51/35/3 52/36/3 47/33/3
f 51/37/5 50/38/5 49/39/5
f 49/39/5 52/40/5 51/37/5
f 53/41/3 54/42/10 55/43/3
f 55/43/3 56/44/3 53/41/3
f 57/25/5 58/26/5 59/27/6
f 59/27/6 60/28/6 57/25/5
f 57/29/3 60/30/3 61/31/3
f 61/31/3 62/32/3 57/29/3
f 59/33/9 58/34/9 63/35/9
f 63/35/9 64/36/9 59/33/9
f 63/37/4 62/38/4 61/39/4
f 61/39/4 64/40/4 63/37/4
f 65/1/1 66/2/1 67/3/1
f 67/3/1 68/4/1 65/1/1
f 67/5/2 69/6/2 70/7/2
f 70/7/2 68/8/2 67/5/2
f 65/9/3 71/10/3 72/11/3
f 72/11/3 66/12/3 65/9/3
f 65/13/4 68/14/4 70/15/4
f 70/15/4 71/16/4 65/13/4
f 67/17/5 66/18/5 72/19/5
f 72/19/5 69/20/5 67/17/5
f 71/21/7 70/22/7 69/23/7
f 69/23/7 72/24/7 71/21/7
