# Blender 3.6.18
# www.blender.org
mtllib Mesh.751.mtl
o Bistro_Research_Exterior_paris_building_05_5033
v 21.984901 11.822544 -42.514942
v 21.664335 11.822544 -42.908981
v 21.617870 11.822544 -42.871178
v 21.938438 11.822544 -42.477142
v 21.617870 11.726424 -42.871178
v 21.938438 11.726424 -42.477142
v 21.984901 11.726424 -42.514942
v 21.664335 11.726424 -42.908981
v 21.937771 9.123003 -42.482876
v 21.979784 9.123004 -42.517056
v 21.979786 11.730764 -42.517056
v 21.937773 11.730764 -42.482876
v 21.888617 11.730764 -42.543297
v 21.888617 9.123003 -42.543297
v 21.930630 9.123004 -42.577477
v 21.930630 11.730764 -42.577477
v 21.909307 11.724267 -42.549068
v 21.687048 11.724267 -42.822273
v 21.687044 9.126083 -42.822269
v 21.909307 9.126083 -42.549068
v 21.667839 9.123003 -42.900494
v 21.625828 9.123004 -42.866314
v 21.625828 11.730764 -42.866314
v 21.667841 11.730764 -42.900494
v 21.716993 11.730764 -42.840076
v 21.716993 9.123003 -42.840076
v 21.674980 9.123004 -42.805897
v 21.674982 11.730764 -42.805897
v 21.984901 9.122588 -42.514942
v 21.664335 9.122588 -42.908981
v 21.617870 9.122588 -42.871178
v 21.938438 9.122588 -42.477142
v 21.617870 9.026468 -42.871178
v 21.938438 9.026468 -42.477142
v 21.984901 9.026468 -42.514942
v 21.664335 9.026468 -42.908981
v 21.658890 9.293056 -42.896976
v 21.628534 9.293056 -42.872280
v 21.628532 9.421953 -42.872276
v 21.658890 9.421953 -42.896973
v 21.630976 9.421953 -42.869274
v 21.661333 9.421953 -42.893970
v 21.661331 9.293056 -42.893970
v 21.630974 9.293056 -42.869274
v 21.668354 9.293056 -42.957268
v 21.664349 9.293056 -42.918335
v 21.664351 9.421953 -42.918339
v 21.668352 9.421953 -42.957264
v 21.668200 9.421953 -42.917938
v 21.672203 9.421953 -42.956871
v 21.672205 9.293056 -42.956871
v 21.668198 9.293056 -42.917938
v 22.169016 11.822544 -42.917656
v 21.663712 11.822544 -42.969608
v 21.657587 11.822544 -42.910027
v 22.162888 11.822544 -42.858074
v 21.657587 11.726424 -42.910027
v 22.162888 11.726424 -42.858074
v 22.169016 11.726424 -42.917656
v 21.663712 11.726424 -42.969608
v 22.158360 9.123003 -42.861660
v 22.163900 9.123004 -42.915535
v 22.163900 11.730764 -42.915535
v 22.158360 11.730764 -42.861660
v 22.080879 11.730764 -42.869621
v 22.080879 9.123003 -42.869621
v 22.086418 9.123004 -42.923504
v 22.086418 11.730764 -42.923504
v 21.742990 11.724267 -42.942894
v 22.093334 11.724267 -42.906872
v 22.093334 9.126083 -42.906872
v 21.742990 9.126083 -42.942894
v 21.672188 9.123003 -42.966084
v 21.666649 9.123004 -42.912209
v 21.666649 11.730764 -42.912209
v 21.672188 11.730764 -42.966084
v 21.749668 11.730764 -42.958122
v 21.749668 9.123003 -42.958122
v 21.744129 9.123004 -42.904247
v 21.744129 11.730764 -42.904247
v 22.169016 9.122588 -42.917656
v 21.663712 9.122588 -42.969608
v 21.657587 9.122588 -42.910027
v 22.162888 9.122588 -42.858074
v 21.657587 9.026468 -42.910027
v 22.162888 9.026468 -42.858074
v 22.169016 9.026468 -42.917656
v 21.663712 9.026468 -42.969608
v 21.668354 11.494352 -42.957268
v 21.664349 11.494352 -42.918335
v 21.664351 11.623249 -42.918339
v 21.668352 11.623249 -42.957264
v 21.668200 11.623249 -42.917938
v 21.672203 11.623249 -42.956871
v 21.672205 11.494352 -42.956871
v 21.668198 11.494352 -42.917938
v 21.658890 11.494352 -42.896976
v 21.628534 11.494352 -42.872280
v 21.628532 11.623249 -42.872276
v 21.658890 11.623249 -42.896973
v 21.630976 11.623249 -42.869274
v 21.661333 11.623249 -42.893970
v 21.661331 11.494352 -42.893970
v 21.630974 11.494352 -42.869274
v 21.670506 9.293413 -42.897232
v 21.675058 9.293413 -42.905666
v 21.675060 9.421618 -42.905666
v 21.670506 9.421618 -42.897232
v 21.661320 9.293413 -42.894485
v 21.661320 9.421618 -42.894485
v 21.652884 9.293413 -42.899040
v 21.652884 9.421618 -42.899040
v 21.650139 9.293413 -42.908226
v 21.650139 9.421618 -42.908226
v 21.654696 9.293413 -42.916656
v 21.654696 9.421618 -42.916656
v 21.663881 9.293413 -42.919407
v 21.663881 9.421618 -42.919407
v 21.672318 9.293413 -42.914852
v 21.672318 9.421618 -42.914852
v 21.670506 11.494712 -42.897232
v 21.675058 11.494712 -42.905666
v 21.675060 11.622915 -42.905666
v 21.670506 11.622915 -42.897232
v 21.661320 11.494712 -42.894485
v 21.661320 11.622915 -42.894485
v 21.652884 11.494712 -42.899040
v 21.652884 11.622915 -42.899040
v 21.650139 11.494712 -42.908226
v 21.650139 11.622915 -42.908226
v 21.654696 11.494712 -42.916656
v 21.654696 11.622915 -42.916656
v 21.663881 11.494712 -42.919407
v 21.663881 11.622915 -42.919407
v 21.672318 11.494712 -42.914852
v 21.672318 11.622915 -42.914852
v 21.662601 9.293413 -42.906944
v 21.662601 9.421618 -42.906944
v 21.662601 11.494712 -42.906944
v 21.662601 11.622915 -42.906944
vn -0.0039 1.0000 -0.0039
vn -0.7812 -0.0039 0.6242
vn -0.7813 -0.0039 0.6242
vn 0.7743 -0.0039 -0.6328
vn 0.6281 -0.0039 0.7782
vn 0.6280 -0.0040 0.7782
vn -0.6290 -0.0039 -0.7774
vn -0.0039 -1.0000 -0.0039
vn 0.6281 -0.0040 0.7782
vn -0.9944 -0.0039 -0.1053
vn 0.0976 -0.0039 -0.9952
vn -0.1061 -0.0039 0.9943
vn 0.9951 -0.0039 0.0983
vn 0.9951 -0.0039 0.0984
vn 0.7743 -0.0040 -0.6328
vn 0.6281 -0.0039 0.7781
vt 0.327881 0.353027
vt 0.327881 0.432129
vt 0.318604 0.432129
vt 0.318604 0.353027
vt 0.315430 0.432129
vt 0.300537 0.432129
vt 0.300537 0.352539
vt 0.315430 0.352539
vt 0.270020 0.352051
vt 0.284912 0.352051
vt 0.284912 0.431641
vt 0.270020 0.431641
vt 0.269775 0.345215
vt 0.269775 0.335938
vt 0.284912 0.335938
vt 0.284912 0.345215
vt 0.288086 0.345215
vt 0.288086 0.335938
vt 0.303223 0.335938
vt 0.303223 0.345215
vt 0.287842 0.352539
vt 0.297363 0.352539
vt 0.297363 0.432129
vt 0.287842 0.432129
vt 0.858398 0.978256
vt 0.848633 0.978256
vt 0.848633 0.570801
vt 0.858398 0.570801
vt 0.812012 0.571289
vt 0.812012 0.978668
vt 0.799805 0.978668
vt 0.799805 0.571289
vt 0.845215 0.572021
vt 0.845215 0.979340
vt 0.833008 0.979340
vt 0.833008 0.572021
vt 0.827637 0.980072
vt 0.817871 0.980072
vt 0.817871 0.572754
vt 0.827637 0.572754
vt 0.377197 0.011230
vt 0.432373 0.011230
vt 0.432373 0.416992
vt 0.377197 0.416992
vt 0.360107 0.465332
vt 0.354004 0.465332
vt 0.354004 0.445312
vt 0.360107 0.445312
vt 0.354004 0.442871
vt 0.360107 0.442871
vt 0.360107 0.443359
vt 0.354004 0.443359
vt 0.362061 0.445312
vt 0.362061 0.465332
vt 0.361328 0.465332
vt 0.361328 0.445312
vt 0.360107 0.467285
vt 0.354004 0.467285
vt 0.354004 0.466797
vt 0.360107 0.466797
vt 0.352051 0.465332
vt 0.352051 0.445312
vt 0.352783 0.445312
vt 0.352783 0.465332
vt 0.327637 0.464355
vt 0.326172 0.464355
vt 0.326172 0.443848
vt 0.327637 0.443848
vt 0.329102 0.464355
vt 0.329102 0.443848
vt 0.330566 0.464355
vt 0.330566 0.443848
vt 0.332031 0.464355
vt 0.332031 0.443848
vt 0.333496 0.464355
vt 0.333496 0.443848
vt 0.334473 0.464355
vt 0.334473 0.443848
vt 0.335938 0.464355
vt 0.335938 0.443848
vt 0.337402 0.464355
vt 0.337402 0.443848
vt 0.326172 0.466797
vt 0.327393 0.465820
vt 0.328125 0.467773
vt 0.326172 0.468262
vt 0.328857 0.465820
vt 0.327148 0.469238
vt 0.329834 0.466797
vt 0.328857 0.469238
vt 0.329834 0.468262
vt 0.333252 0.465820
vt 0.334717 0.465820
vt 0.333984 0.467773
vt 0.332275 0.466797
vt 0.335938 0.466797
vt 0.332275 0.468262
vt 0.335938 0.468750
vt 0.333252 0.469727
vt 0.334717 0.469727
s 1
usemtl MASTER_Building_Details
f 1/1/1 2/2/1 3/3/1
f 3/3/1 4/4/1 1/1/1
f 3/5/2 5/6/2 6/7/3
f 6/7/3 4/8/3 3/5/2
f 1/9/4 7/10/4 8/11/4
f 8/11/4 2/12/4 1/9/4
f 1/13/5 4/14/6 6/15/6
f 6/15/6 7/16/5 1/13/5
f 3/17/7 2/18/7 8/19/7
f 8/19/7 5/20/7 3/17/7
f 7/21/8 6/22/8 5/23/8
f 5/23/8 8/24/8 7/21/8
f 9/25/5 10/26/5 11/27/6
f 11/27/6 12/28/6 9/25/5
f 9/29/2 12/30/2 13/31/2
f 13/31/2 14/32/2 9/29/2
f 11/33/4 10/34/4 15/35/4
f 15/35/4 16/36/4 11/33/4
f 15/37/7 14/38/7 13/39/7
f 13/39/7 16/40/7 15/37/7
f 17/41/2 18/42/2 19/43/2
f 19/43/2 20/44/2 17/41/2
f 21/25/7 22/26/7 23/27/7
f 23/27/7 24/28/7 21/25/7
f 21/29/4 24/30/4 25/31/4
f 25/31/4 26/32/4 21/29/4
f 23/33/2 22/34/2 27/35/2
f 27/35/3 28/36/3 23/33/3
f 27/37/6 26/38/5 25/39/5
f 25/39/5 28/40/5 27/37/6
f 29/1/1 30/2/1 31/3/1
f 31/3/1 32/4/1 29/1/1
f 31/5/3 33/6/3 34/7/3
f 34/7/3 32/8/3 31/5/3
f 29/9/4 35/10/4 36/11/4
f 36/11/4 30/12/4 29/9/4
f 29/13/5 32/14/6 34/15/6
f 34/15/6 35/16/9 29/13/5
f 31/17/7 30/18/7 36/19/7
f 36/19/7 33/20/7 31/17/7
f 35/21/8 34/22/8 33/23/8
f 33/23/8 36/24/8 35/21/8
f 37/45/7 38/46/7 39/47/7
f 39/47/7 40/48/7 37/45/7
f 41/49/1 42/50/1 40/51/1
f 40/51/1 39/52/1 41/49/1
f 42/53/4 43/54/4 37/55/4
f 37/55/4 40/56/4 42/53/4
f 43/57/8 44/58/8 38/59/8
f 38/59/8 37/60/8 43/57/8
f 44/61/2 41/62/3 39/63/2
f 39/63/2 38/64/3 44/61/2
f 45/45/10 46/46/10 47/47/10
f 47/47/10 48/48/10 45/45/10
f 49/49/1 50/50/1 48/51/1
f 48/51/1 47/52/1 49/49/1
f 50/53/11 51/54/11 45/55/11
f 45/55/11 48/56/11 50/53/11
f 51/57/8 52/58/8 46/59/8
f 46/59/8 45/60/8 51/57/8
f 52/61/12 49/62/12 47/63/12
f 47/63/12 46/64/12 52/61/12
f 53/1/1 54/2/1 55/3/1
f 55/3/1 56/4/1 53/1/1
f 55/5/12 57/6/12 58/7/12
f 58/7/12 56/8/12 55/5/12
f 53/9/11 59/10/11 60/11/11
f 60/11/11 54/12/11 53/9/11
f 53/13/13 56/14/13 58/15/13
f 58/15/13 59/16/13 53/13/13
f 55/17/10 54/18/10 60/19/10
f 60/19/10 57/20/10 55/17/10
f 59/21/8 58/22/8 57/23/8
f 57/23/8 60/24/8 59/21/8
f 61/25/13 62/26/13 63/27/13
f 63/27/13 64/28/13 61/25/13
f 61/29/12 64/30/12 65/31/12
f 65/31/12 66/32/12 61/29/12
f 63/33/11 62/34/11 67/35/11
f 67/35/11 68/36/11 63/33/11
f 67/37/10 66/38/10 65/39/10
f 65/39/10 68/40/10 67/37/10
f 69/41/11 70/42/11 71/43/11
f 71/43/11 72/44/11 69/41/11
f 73/25/10 74/26/10 75/27/10
f 75/27/10 76/28/10 73/25/10
f 73/29/11 76/30/11 77/31/11
f 77/31/11 78/32/11 73/29/11
f 75/33/12 74/34/12 79/35/12
f 79/35/12 80/36/12 75/33/12
f 79/37/13 78/38/13 77/39/13
f 77/39/13 80/40/13 79/37/13
f 81/1/1 82/2/1 83/3/1
f 83/3/1 84/4/1 81/1/1
f 83/5/12 85/6/12 86/7/12
f 86/7/12 84/8/12 83/5/12
f 81/9/11 87/10/11 88/11/11
f 88/11/11 82/12/11 81/9/11
f 81/13/13 84/14/13 86/15/14
f 86/15/14 87/16/13 81/13/13
f 83/17/10 82/18/10 88/19/10
f 88/19/10 85/20/10 83/17/10
f 87/21/8 86/22/8 85/23/8
f 85/23/8 88/24/8 87/21/8
f 89/45/10 90/46/10 91/47/10
f 91/47/10 92/48/10 89/45/10
f 93/49/1 94/50/1 92/51/1
f 92/51/1 91/52/1 93/49/1
f 94/53/11 95/54/11 89/55/11
f 89/55/11 92/56/11 94/53/11
f 95/57/8 96/58/8 90/59/8
f 90/59/8 89/60/8 95/57/8
f 96/61/12 93/62/12 91/63/12
f 91/63/12 90/64/12 96/61/12
f 97/45/7 98/46/7 99/47/7
f 99/47/7 100/48/7 97/45/7
f 101/49/1 102/50/1 100/51/1
f 100/51/1 99/52/1 101/49/1
f 102/53/15 103/54/4 97/55/4
f 97/55/4 100/56/4 102/53/15
f 103/57/8 104/58/8 98/59/8
f 98/59/8 97/60/8 103/57/8
f 104/61/2 101/62/3 99/63/3
f 99/63/3 98/64/3 104/61/2
f 105/65/16 106/66/14 107/67/13
f 107/67/13 108/68/16 105/65/16
f 109/69/12 105/65/16 108/68/16
f 108/68/16 110/70/12 109/69/12
f 111/71/3 109/69/12 110/70/12
f 110/70/12 112/72/2 111/71/3
f 113/73/10 111/71/3 112/72/2
f 112/72/2 114/74/10 113/73/10
f 115/75/7 113/73/10 114/74/10
f 114/74/10 116/76/7 115/75/7
f 117/77/11 115/75/7 116/76/7
f 116/76/7 118/78/11 117/77/11
f 119/79/4 117/77/11 118/78/11
f 118/78/11 120/80/4 119/79/4
f 106/81/14 119/79/4 120/80/4
f 120/80/4 107/82/13 106/81/14
f 121/65/6 122/66/14 123/67/13
f 123/67/13 124/68/16 121/65/6
f 125/69/12 121/65/6 124/68/16
f 124/68/16 126/70/12 125/69/12
f 127/71/3 125/69/12 126/70/12
f 126/70/12 128/72/2 127/71/3
f 129/73/10 127/71/3 128/72/2
f 128/72/2 130/74/10 129/73/10
f 131/75/7 129/73/10 130/74/10
f 130/74/10 132/76/7 131/75/7
f 133/77/11 131/75/7 132/76/7
f 132/76/7 134/78/11 133/77/11
f 135/79/4 133/77/11 134/78/11
f 134/78/11 136/80/4 135/79/4
f 122/81/14 135/79/4 136/80/4
f 136/80/4 123/82/13 122/81/14
f 111/83/8 113/84/8 137/85/8
f 109/86/8 111/83/8 137/85/8
f 113/84/8 115/87/8 137/85/8
f 105/88/8 109/86/8 137/85/8
f 115/87/8 117/89/8 137/85/8
f 106/90/8 105/88/8 137/85/8
f 117/89/8 119/91/8 137/85/8
f 119/91/8 106/90/8 137/85/8
f 114/92/1 112/93/1 138/94/1
f 116/95/1 114/92/1 138/94/1
f 112/93/1 110/96/1 138/94/1
f 118/97/1 116/95/1 138/94/1
f 110/96/1 108/98/1 138/94/1
f 120/99/1 118/97/1 138/94/1
f 108/98/1 107/100/1 138/94/1
f 107/100/1 120/99/1 138/94/1
f 127/83/8 129/84/8 139/85/8
f 125/86/8 127/83/8 139/85/8
f 129/84/8 131/87/8 139/85/8
f 121/88/8 125/86/8 139/85/8
f 131/87/8 133/89/8 139/85/8
f 122/90/8 121/88/8 139/85/8
f 133/89/8 135/91/8 139/85/8
f 135/91/8 122/90/8 139/85/8
f 130/92/1 128/93/1 140/94/1
f 132/95/1 130/92/1 140/94/1
f 128/93/1 126/96/1 140/94/1
f 134/97/1 132/95/1 140/94/1
f 126/96/1 124/98/1 140/94/1
f 136/99/1 134/97/1 140/94/1
f 124/98/1 123/100/1 140/94/1
f 123/100/1 136/99/1 140/94/1
