# Blender 3.6.18
# www.blender.org
mtllib Mesh.496.mtl
o Bistro_Research_Exterior_paris_building_11_5569
v 6.591187 5.336452 22.900051
v 6.622517 5.347765 22.895603
v 6.605991 5.320452 22.906122
v 6.675608 5.405138 22.917353
v 6.677325 5.416451 22.900764
v 6.692131 5.400451 22.906832
v 6.700324 5.416451 22.844490
v 6.730310 5.431526 22.827591
v 6.715128 5.400451 22.850559
v 3.340384 5.336452 21.570776
v 3.325569 5.320452 21.564734
v 3.321149 5.347765 21.545649
v 3.268028 5.405138 21.523970
v 3.263611 5.400451 21.504887
v 3.278426 5.416451 21.510931
v 3.301445 5.416451 21.454664
v 3.286631 5.400451 21.448622
v 3.291891 5.431526 21.421597
v 6.421132 5.336452 23.315874
v 4.642505 5.336452 22.587191
v 4.812540 5.336452 22.171362
v 4.824656 5.416451 22.141733
v 4.847664 5.416451 22.085464
v 6.435936 5.320452 23.321941
v 4.857428 5.431508 22.061588
v 4.818599 5.405138 22.156546
v 4.818597 5.347765 22.156551
v 6.862316 1.284589 22.903374
v 6.839369 1.284589 22.893986
v 6.862309 4.681822 22.903370
v 6.839369 4.681822 22.893982
v 6.982477 1.284589 22.952564
v 6.961931 1.284589 22.944157
v 6.982466 4.681822 22.952560
v 6.961920 4.681822 22.944153
v 7.084908 4.681822 22.994501
v 7.103605 4.681822 23.002155
v 7.084905 1.284589 22.994499
v 7.103604 1.284589 23.002153
v 6.883883 4.693762 22.890388
v 6.883891 1.272648 22.890392
v 6.833402 1.272648 22.869745
v 6.833394 4.693762 22.869743
v 7.005064 4.693762 22.939939
v 7.005085 1.272648 22.939947
v 6.954694 1.272648 22.919344
v 6.954693 4.693762 22.919340
v 7.079025 1.272648 22.970182
v 7.079040 4.693762 22.970188
v 7.124888 4.693762 22.988937
v 7.124881 1.272648 22.988934
v 6.626853 1.272648 22.897381
v 6.671268 1.272648 22.915581
v 6.626853 0.348432 22.897381
v 6.671268 0.348433 22.915581
v 6.715128 1.272648 22.850557
v 6.715128 0.348433 22.850557
v 6.692125 0.348433 22.906841
v 6.692125 1.272648 22.906841
v 6.692130 4.693762 22.906834
v 6.715128 4.693762 22.850559
v 6.731302 4.693762 22.827997
v 6.740157 1.272648 22.831615
v 6.605992 1.272648 22.906122
v 6.605992 0.348432 22.906122
v 7.225136 1.272648 23.059341
v 7.225136 0.348433 23.059341
v 7.220625 0.348433 23.028086
v 7.220625 1.272648 23.028086
v 7.220626 4.693762 23.028086
v 7.225135 4.693762 23.059341
v 7.202122 1.272648 23.115625
v 7.220629 6.184988 23.028086
v 7.225135 6.185141 23.059341
v 7.202122 0.348433 23.115625
v 7.202125 4.693762 23.115620
v 7.202126 6.185141 23.115618
v 6.740157 0.348433 22.831615
v 3.170369 5.336452 21.986612
v 3.155554 5.320452 21.980570
v 3.144606 1.284589 21.383177
v 3.144615 4.681822 21.383179
v 3.167558 1.284589 21.392555
v 3.167559 4.681822 21.392553
v 3.024406 1.284589 21.334084
v 3.024418 4.681822 21.334085
v 3.044957 1.284589 21.342480
v 3.044968 4.681822 21.342484
v 2.921940 4.681822 21.292233
v 2.921944 1.284589 21.292236
v 2.903237 4.681822 21.284594
v 2.903239 1.284589 21.284595
v 3.138319 4.693763 21.358801
v 3.138310 1.272648 21.358797
v 3.188800 1.272648 21.379442
v 3.188807 4.693763 21.379446
v 3.017137 4.693763 21.309248
v 3.017117 1.272648 21.309238
v 3.067507 1.272648 21.329845
v 3.067509 4.693763 21.329845
v 2.943177 1.272648 21.279005
v 2.943161 4.693763 21.278999
v 2.897313 4.693763 21.260254
v 2.897319 1.272648 21.260254
v 3.155555 1.272648 21.980570
v 3.169749 0.348432 21.986372
v 3.325569 1.272648 21.564734
v 3.339762 0.348432 21.570538
v 3.316809 1.272648 21.543880
v 3.331002 0.348432 21.549683
v 3.272365 1.272648 21.525747
v 3.286558 0.348433 21.531551
v 2.776456 1.272648 21.240248
v 2.790649 0.348433 21.246050
v 2.753441 1.272648 21.296530
v 2.767634 0.348433 21.302334
v 3.263609 1.272648 21.504896
v 3.277802 0.348433 21.510700
v 3.286631 1.272648 21.448622
v 3.300824 0.348433 21.454424
v 2.732566 1.272648 21.305292
v 2.746759 0.348433 21.311096
v 2.801576 1.272648 21.221104
v 2.815769 0.348433 21.226908
v 3.282045 1.272648 21.417572
v 3.296238 0.348433 21.423374
v 6.675191 4.693763 22.917183
v 6.622888 4.693762 22.895756
v 6.605991 4.693762 22.906122
v 6.435936 4.693762 23.321941
v 6.435936 1.272648 23.321941
v 6.435936 0.348432 23.321941
v 3.155554 4.693762 21.980570
v 3.325569 4.693763 21.564734
v 3.320778 4.693763 21.545498
v 3.268444 4.693763 21.524139
v 2.801575 4.693763 21.221102
v 2.801572 6.184988 21.221102
v 4.857432 6.184988 22.061577
v 4.857430 5.966739 22.061584
v 3.290900 4.693763 21.421192
v 2.753443 6.185141 21.296520
v 2.753443 4.693763 21.296524
v 2.732567 6.185142 21.305286
v 2.732567 4.693763 21.305288
v 3.263611 4.693763 21.504889
v 2.776455 6.185141 21.240248
v 2.776456 4.693763 21.240248
v 3.286631 4.693763 21.448622
vn -0.0039 -0.3626 -0.9319
vn -0.5233 -0.6784 -0.5156
vn -0.6091 -0.7022 -0.3686
vn -0.2148 -0.5116 -0.8319
vn 0.6511 -0.3626 -0.6667
vn 0.7302 -0.6833 -0.0039
vn 0.6861 -0.7096 0.1607
vn 0.7315 -0.5124 -0.4499
vn -0.0039 -1.0000 -0.0039
vn -0.6530 -0.7077 -0.2698
vn 0.1835 -0.8705 -0.4567
vn 0.2150 -0.8168 -0.5354
vn 0.2149 -0.8168 -0.5354
vn 0.3720 -0.0039 -0.9282
vn 0.3721 -0.0039 -0.9282
vn -0.5191 -0.0039 -0.8547
vn 0.1922 0.8590 -0.4746
vn 0.9708 -0.0039 -0.2398
vn 0.9708 -0.0040 -0.2398
vn 0.1909 -0.8610 -0.4714
vn -0.4890 -0.0039 -0.8723
vn -0.4889 -0.0039 -0.8723
vn 0.9577 -0.0039 -0.2877
vn 0.9577 -0.0040 -0.2877
vn 0.9708 -0.0039 -0.2397
vn 0.1834 -0.8623 -0.4721
vn -0.5282 -0.0039 -0.8491
vn 0.1846 0.8602 -0.4753
vn -0.9255 -0.0039 -0.3788
vn -0.8338 -0.0039 -0.5520
vn -0.8547 -0.0039 -0.5191
vn -0.8689 -0.0039 -0.4949
vn -0.7705 -0.0039 -0.6375
vn -0.7071 -0.0024 -0.7071
vn -0.8241 -0.0039 -0.5664
vn -0.3854 -0.0039 -0.9227
vn 0.9893 -0.0039 -0.1458
vn 0.9926 -0.0039 0.1216
vn 0.9271 -0.0040 0.3748
vn 0.9271 -0.0039 0.3748
vn -0.6031 -0.0039 -0.7977
vn 0.6498 -0.7128 0.2639
vn 0.1828 -0.8674 -0.4628
vn 0.1828 -0.8674 -0.4629
vn 0.9666 -0.0040 -0.2564
vn 0.9666 -0.0039 -0.2564
vn -0.5247 -0.0039 -0.8513
vn 0.9270 0.0118 0.3748
vn 0.9270 0.0119 0.3748
vn -0.9253 -0.0195 -0.3787
vn 0.9216 0.0039 -0.3882
vn -0.3841 -0.0094 -0.9232
vn -0.3854 -0.0117 -0.9227
vn -0.3842 -0.0093 -0.9232
vn 0.9216 0.0040 -0.3882
vn -0.6068 -0.0196 -0.7946
vn 0.9881 0.0118 -0.1535
vn -0.4550 -0.0039 -0.8905
vn -0.4949 -0.0039 -0.8689
vn -0.4949 -0.0039 -0.8690
vn -0.5338 -0.0039 -0.8456
vn -0.4488 -0.0039 -0.8936
vn -0.5283 -0.0039 -0.8491
vn 0.9455 -0.0039 -0.3256
vn 0.9599 -0.0040 -0.2805
vn 0.9599 -0.0039 -0.2804
vn -0.3855 -0.0039 -0.9227
vn 0.9599 -0.0039 -0.2805
vn -0.7910 -0.0039 -0.6118
vn -0.6069 -0.0039 -0.7948
vn 0.9826 -0.0039 0.1855
vn 0.9726 -0.0039 0.2323
vn 0.9685 -0.0039 0.2491
vn 0.9966 -0.0039 0.0827
vn 0.9999 -0.0040 -0.0118
vn 0.9856 -0.0039 0.1689
vt 0.244507 0.545898
vt 0.254395 0.549805
vt 0.244385 0.552979
vt 0.258789 0.549805
vt 0.263184 0.545654
vt 0.263184 0.553955
vt 0.244995 0.542236
vt 0.245117 0.530518
vt 0.251953 0.541504
vt -0.122437 0.455566
vt 0.376221 0.456055
vt -0.122437 0.596436
vt 0.376221 0.596924
vt 0.097473 0.555420
vt 0.638184 0.555908
vt 0.097473 0.575195
vt 0.638184 0.575684
vt 1.039062 0.674805
vt 1.044922 0.674805
vt 1.039062 0.815796
vt 1.044922 0.815796
vt 1.096680 0.863159
vt 1.102539 0.863159
vt 1.096680 0.882568
vt 1.102539 0.882629
vt 0.090515 0.583984
vt 0.638184 0.583984
vt 0.095947 0.550293
vt 0.638184 0.550781
vt -0.130981 0.601562
vt 0.376221 0.601807
vt -0.283447 0.501953
vt -0.283447 0.495117
vt 0.862793 0.501953
vt 0.862793 0.495117
vt -0.283447 0.490723
vt -0.283447 0.483887
vt 0.862793 0.490723
vt 0.862793 0.483887
vt 0.862793 0.985657
vt 0.862793 0.991501
vt -0.283447 0.985657
vt -0.283447 0.991501
vt 0.935547 0.209473
vt -0.352783 0.209473
vt 0.931641 0.203125
vt -0.348877 0.203125
vt 0.487549 0.569336
vt 0.505859 0.569336
vt 0.492676 0.575928
vt 0.500977 0.575928
vt -0.350098 0.950623
vt 0.933105 0.950623
vt -0.346191 0.957123
vt 0.929199 0.957092
vt 0.590332 0.502197
vt 0.571777 0.502197
vt 0.585449 0.495605
vt 0.577148 0.495605
vt 0.943848 0.231445
vt -0.360840 0.231445
vt 0.939941 0.224609
vt -0.356934 0.224609
vt 0.264893 0.546631
vt 0.283203 0.546631
vt 0.270508 0.553467
vt 0.277832 0.553467
vt -0.360352 0.213867
vt 0.943359 0.213867
vt -0.356445 0.220703
vt 0.939453 0.220703
vt 0.521484 0.575928
vt 0.503418 0.575928
vt 0.516113 0.569336
vt 0.508789 0.569336
vt -0.349121 0.235840
vt 0.932129 0.235840
vt -0.345215 0.242188
vt 0.928223 0.242188
vt 0.604980 0.502197
vt 0.588379 0.502197
vt 0.600098 0.495605
vt 0.593262 0.495605
vt 0.932129 0.479492
vt -0.349365 0.479492
vt 0.928223 0.473145
vt -0.345703 0.473145
vt 0.572266 0.483887
vt 0.589355 0.483887
vt 0.577637 0.490723
vt 0.583984 0.490723
vt -0.229858 0.623047
vt -0.229858 0.638428
vt -0.393066 0.623047
vt -0.393066 0.638428
vt -0.358398 0.882568
vt -0.520508 0.882568
vt -0.520508 0.863159
vt -0.358398 0.863159
vt 0.917969 0.863159
vt 0.917969 0.882568
vt 0.917969 0.891235
vt -0.358398 0.891235
vt 1.107422 0.891235
vt -0.229858 0.617920
vt -0.393066 0.617920
vt -0.229858 0.643555
vt -0.393066 0.643555
vt -0.367676 0.819336
vt -0.533691 0.819336
vt -0.533691 0.810425
vt -0.367676 0.810425
vt 0.941895 0.810425
vt 0.941895 0.819336
vt -0.367676 0.839355
vt 1.638672 0.810425
vt 1.638672 0.819336
vt -0.533691 0.839355
vt 0.941895 0.839355
vt 1.638672 0.839355
vt -0.520508 0.891235
vt -0.360352 0.674805
vt -0.519043 0.674805
vt -0.360352 0.815796
vt -0.519043 0.815796
vt -0.367676 0.844604
vt -0.533691 0.844604
vt 1.218750 0.100098
vt 1.237305 0.100098
vt 1.237305 0.639893
vt 1.218750 0.621582
vt 1.055664 0.639893
vt 1.055664 0.621582
vt 0.889160 0.815796
vt 0.889160 0.674805
vt -0.361816 0.387695
vt -0.361816 0.419922
vt 0.893555 0.419922
vt 0.893555 0.387695
vt 1.562500 0.419922
vt 0.893555 0.372070
vt -0.361816 0.372070
vt -0.361816 0.346680
vt 0.893555 0.346680
vt 1.562500 -0.279297
vt 1.248047 -0.279297
vt 1.079102 -0.279297
vt 1.079102 0.253418
vt 0.893555 0.329590
vt -0.361816 0.329590
vt -0.361816 0.305664
vt 0.893555 0.305664
vt 0.893555 0.288574
vt 0.893555 0.253418
vt -0.361816 0.256836
vt -0.361816 0.288574
vt -0.360352 0.820801
vt 0.889160 0.820801
vt 1.047852 0.820801
vt -0.358398 0.858032
vt 0.917969 0.858032
vt 1.098633 0.858032
vt 1.638672 0.844604
vt 0.941895 0.844604
vt -0.520996 0.256836
vt -0.520996 0.419922
s 1
usemtl MASTER_Concrete_Plaster
f 1/1/1 2/2/1 3/3/1
f 4/4/2 5/5/3 6/6/3
f 7/7/4 8/8/4 9/9/4
f 10/1/5 11/3/5 12/2/5
f 13/4/6 14/6/7 15/5/7
f 16/7/8 17/9/8 18/8/8
f 19/10/9 20/11/9 1/12/9
f 20/11/9 21/13/9 1/12/9
f 5/14/9 22/15/9 7/16/9
f 22/15/9 23/17/9 7/16/9
f 24/18/10 19/19/10 3/20/10
f 19/19/10 1/21/10 3/20/10
f 6/22/3 5/23/3 9/24/10
f 5/23/3 7/25/10 9/24/10
f 8/26/11 7/16/11 25/27/11
f 7/16/11 23/17/11 25/27/11
f 5/14/12 4/28/12 22/15/13
f 4/28/12 26/29/13 22/15/13
f 2/30/13 1/12/13 27/31/13
f 1/12/13 21/13/13 27/31/13
f 28/32/14 29/33/15 30/34/15
f 29/33/15 31/35/15 30/34/15
f 32/36/15 33/37/15 34/38/15
f 33/37/15 35/39/15 34/38/15
f 36/40/15 37/41/15 38/42/15
f 37/41/15 39/43/15 38/42/15
f 40/44/16 41/45/16 30/46/16
f 41/45/16 28/47/16 30/46/16
f 41/48/17 42/49/17 28/50/17
f 42/49/17 29/51/17 28/50/17
f 42/52/18 43/53/19 29/54/18
f 43/53/19 31/55/18 29/54/18
f 43/56/20 40/57/20 31/58/20
f 40/57/20 30/59/20 31/58/20
f 44/60/21 45/61/21 34/62/21
f 45/61/21 32/63/22 34/62/21
f 45/64/17 46/65/17 32/66/17
f 46/65/17 33/67/17 32/66/17
f 46/68/23 47/69/23 33/70/24
f 47/69/23 35/71/23 33/70/24
f 47/72/20 44/73/20 35/74/20
f 44/73/20 34/75/20 35/74/20
f 48/76/25 49/77/25 38/78/25
f 49/77/25 36/79/25 38/78/25
f 49/80/26 50/81/26 36/82/26
f 50/81/26 37/83/26 36/82/26
f 50/84/27 51/85/27 37/86/27
f 51/85/27 39/87/27 37/86/27
f 51/88/28 48/89/28 39/90/28
f 48/89/28 38/91/28 39/90/28
f 52/92/15 53/93/15 54/94/15
f 53/93/15 55/95/15 54/94/15
f 56/96/29 57/97/29 58/98/29
f 59/99/29 56/96/29 58/98/29
f 59/99/29 60/100/29 56/96/30
f 60/100/29 61/101/31 56/96/30
f 60/100/29 6/22/29 61/101/31
f 6/22/29 9/24/32 61/101/31
f 56/96/30 61/101/31 62/102/33
f 61/101/31 9/24/32 62/102/33
f 63/103/34 56/96/30 62/102/33
f 9/24/32 8/104/35 62/102/33
f 64/105/36 52/92/36 65/106/36
f 52/92/36 54/94/36 65/106/36
f 53/93/36 59/107/36 55/95/36
f 59/107/36 58/108/36 55/95/36
f 66/109/37 67/110/37 68/111/37
f 69/112/37 66/109/37 68/111/37
f 66/109/38 69/112/37 70/113/37
f 71/114/38 66/109/38 70/113/37
f 72/115/39 66/109/38 71/114/38
f 73/116/37 74/117/38 70/113/37
f 74/117/38 71/114/38 70/113/37
f 72/115/39 75/118/39 67/110/39
f 66/109/39 72/115/39 67/110/39
f 76/119/40 72/115/39 71/114/38
f 76/119/40 71/114/38 74/117/38
f 77/120/40 76/119/40 74/117/38
f 56/96/41 63/103/41 57/97/41
f 63/103/41 78/121/41 57/97/41
f 79/10/9 10/12/9 20/11/9
f 10/12/9 21/13/9 20/11/9
f 15/14/9 16/16/9 22/15/9
f 16/16/9 23/17/9 22/15/9
f 80/18/42 11/20/42 79/19/42
f 11/20/42 10/21/42 79/19/42
f 14/22/7 17/24/42 15/23/7
f 17/24/42 16/25/42 15/23/7
f 18/26/43 25/27/11 16/16/44
f 25/27/11 23/17/11 16/16/44
f 15/14/13 22/15/13 13/28/12
f 22/15/13 26/29/13 13/28/12
f 12/30/13 27/31/13 10/12/12
f 27/31/13 21/13/13 10/12/12
f 81/32/15 82/34/15 83/33/15
f 82/34/15 84/35/15 83/33/15
f 85/36/14 86/38/15 87/37/15
f 86/38/15 88/39/15 87/37/15
f 89/40/15 90/42/14 91/41/15
f 90/42/14 92/43/15 91/41/15
f 93/44/45 82/46/45 94/45/46
f 82/46/45 81/47/46 94/45/46
f 94/48/17 81/50/17 95/49/17
f 81/50/17 83/51/17 95/49/17
f 95/52/47 83/54/47 96/53/47
f 83/54/47 84/55/47 96/53/47
f 96/56/20 84/58/20 93/57/20
f 84/58/20 82/59/20 93/57/20
f 97/60/23 86/62/23 98/61/23
f 86/62/23 85/63/23 98/61/23
f 98/64/17 85/66/17 99/65/17
f 85/66/17 87/67/17 99/65/17
f 99/68/21 87/70/21 100/69/21
f 87/70/21 88/71/21 100/69/21
f 100/72/20 88/74/20 97/73/20
f 88/74/20 86/75/20 97/73/20
f 101/76/27 90/78/27 102/77/27
f 90/78/27 89/79/27 102/77/27
f 102/80/26 89/82/26 103/81/26
f 89/82/26 91/83/26 103/81/26
f 103/84/19 91/86/18 104/85/18
f 91/86/18 92/87/18 104/85/18
f 104/88/28 92/90/28 101/89/28
f 92/90/28 90/91/28 101/89/28
f 105/122/48 106/123/49 107/124/48
f 106/123/49 108/125/48 107/124/48
f 109/92/15 110/94/15 111/93/15
f 110/94/15 112/95/15 111/93/15
f 113/109/50 114/110/50 115/115/50
f 114/110/50 116/118/50 115/115/50
f 117/99/49 118/98/48 119/96/48
f 118/98/48 120/97/48 119/96/48
f 107/105/51 108/106/51 109/92/51
f 108/106/51 110/94/51 109/92/51
f 115/115/52 116/118/53 121/126/54
f 116/118/53 122/127/53 121/126/54
f 111/93/51 112/95/51 117/107/51
f 112/95/51 118/108/55 117/107/51
f 123/112/56 124/111/56 113/109/56
f 124/111/56 114/110/56 113/109/56
f 119/96/57 120/97/57 125/103/57
f 120/97/57 126/121/57 125/103/57
f 27/128/15 26/129/15 4/130/15
f 2/131/15 27/128/15 4/130/15
f 2/131/15 4/130/15 127/132/15
f 128/133/15 2/131/15 127/132/15
f 128/133/15 127/132/15 53/93/15
f 52/92/15 128/133/15 53/93/15
f 24/18/29 3/20/29 129/134/29
f 130/135/29 24/18/29 129/134/29
f 130/135/29 129/134/29 64/124/29
f 131/122/29 130/135/29 64/124/29
f 131/122/29 64/124/29 132/123/29
f 64/124/29 65/125/29 132/123/29
f 105/122/40 107/124/40 133/135/40
f 107/124/40 134/134/40 133/135/40
f 133/135/40 134/134/40 80/18/40
f 134/134/40 11/20/40 80/18/40
f 109/92/15 111/93/15 135/133/14
f 111/93/15 136/132/15 135/133/14
f 135/133/14 136/132/15 12/131/15
f 136/132/15 13/130/15 12/131/15
f 12/131/15 13/130/15 27/128/15
f 13/130/15 26/129/15 27/128/15
f 104/136/15 123/137/15 137/138/15
f 103/139/15 104/136/15 137/138/15
f 138/140/15 103/139/15 137/138/15
f 138/140/15 102/141/15 103/139/15
f 101/142/15 102/141/15 98/143/15
f 102/141/15 97/144/15 98/143/15
f 138/140/15 97/144/15 102/141/15
f 139/145/14 140/146/15 138/140/15
f 140/146/15 25/147/15 138/140/15
f 25/147/15 18/148/15 138/140/15
f 138/140/15 18/148/15 97/144/15
f 18/148/15 100/149/15 97/144/15
f 99/150/15 100/149/15 94/151/15
f 100/149/15 93/152/15 94/151/15
f 100/149/15 18/148/15 93/152/15
f 93/152/15 18/148/15 96/153/15
f 96/153/15 18/148/15 141/154/15
f 96/153/15 141/154/15 125/155/15
f 95/156/15 96/153/15 125/155/15
f 52/157/58 64/124/58 128/158/59
f 64/124/58 129/134/60 128/158/59
f 129/134/60 3/20/61 128/158/59
f 3/20/61 2/159/61 128/158/59
f 59/99/62 53/160/62 60/100/60
f 53/160/62 127/161/60 60/100/60
f 127/161/60 4/162/27 60/100/60
f 4/162/27 6/22/63 60/100/60
f 109/157/64 135/158/65 107/124/64
f 135/158/65 134/134/66 107/124/64
f 134/134/66 135/158/65 11/20/18
f 135/158/65 12/159/18 11/20/18
f 142/120/36 143/119/36 144/163/67
f 143/119/36 145/164/36 144/163/67
f 145/164/36 143/119/36 121/126/54
f 143/119/36 115/115/52 121/126/54
f 117/99/64 146/100/68 111/160/64
f 146/100/68 136/161/66 111/160/64
f 136/161/66 146/100/68 13/162/25
f 146/100/68 14/22/18 13/162/25
f 125/155/15 126/165/15 95/156/15
f 95/156/15 126/165/15 94/151/15
f 94/151/15 126/165/15 99/150/15
f 126/165/15 124/166/15 99/150/15
f 99/150/15 124/166/15 98/143/15
f 98/143/15 124/166/15 101/142/15
f 101/142/15 124/166/15 104/136/15
f 104/136/15 124/166/15 123/137/15
f 142/120/29 147/117/69 143/119/29
f 147/117/69 148/114/69 143/119/29
f 143/119/29 148/114/69 115/115/29
f 148/114/69 113/109/69 115/115/29
f 137/113/70 148/114/69 147/117/69
f 148/114/69 137/113/70 113/109/69
f 138/116/70 137/113/70 147/117/69
f 137/113/70 123/112/70 113/109/69
f 117/99/40 119/96/71 146/100/40
f 119/96/71 149/101/72 146/100/40
f 146/100/40 149/101/72 14/22/40
f 149/101/72 17/24/73 14/22/40
f 141/102/74 149/101/72 119/96/71
f 149/101/72 141/102/74 17/24/73
f 125/103/75 141/102/74 119/96/71
f 141/102/74 18/104/76 17/24/73
f 139/145/14 73/140/15 140/146/15
f 8/148/15 25/147/15 140/146/15
f 73/140/15 8/148/15 140/146/15
f 73/140/15 44/144/15 8/148/15
f 73/140/15 49/141/15 44/144/15
f 73/140/15 50/139/15 49/141/15
f 73/140/15 70/138/15 50/139/15
f 50/139/15 70/138/15 51/136/15
f 70/138/15 69/137/15 51/136/15
f 51/136/15 69/137/15 68/166/15
f 48/142/15 51/136/15 68/166/15
f 45/143/15 44/144/15 49/141/15
f 48/142/15 45/143/15 49/141/15
f 45/143/15 48/142/15 68/166/15
f 46/150/15 45/143/15 68/166/15
f 46/150/15 68/166/15 78/165/15
f 44/144/15 47/149/15 8/148/15
f 41/151/15 46/150/15 78/165/15
f 46/150/15 41/151/15 47/149/15
f 42/156/15 41/151/15 78/165/15
f 41/151/15 40/152/15 47/149/15
f 47/149/15 40/152/15 8/148/15
f 63/155/15 42/156/15 78/165/15
f 40/152/15 43/153/15 8/148/15
f 42/156/15 63/155/15 43/153/15
f 43/153/15 62/154/15 8/148/15
f 63/155/15 62/154/15 43/153/15
