# Blender 3.6.18
# www.blender.org
mtllib Mesh.894.mtl
o Bistro_Research_Exterior_Paris_Building_01_paris_buildi_8736446
v -0.913064 0.855202 -7.794542
v -0.913063 1.541336 -7.794543
v -0.982221 1.541337 -7.831829
v -0.982222 0.855202 -7.831829
v -0.989263 1.541337 -7.835625
v -0.989264 0.855202 -7.835625
v -0.985458 1.541337 -7.842663
v -0.985459 0.855202 -7.842662
v -0.982985 1.541336 -7.847238
v -0.982986 0.855202 -7.847237
v -0.979180 1.541337 -7.854274
v -0.979181 0.855202 -7.854274
v -0.984234 1.541337 -7.860475
v -0.984235 0.855202 -7.860475
v -0.992520 1.541337 -7.870642
v -0.992521 0.855202 -7.870640
v -0.997574 1.541337 -7.876842
v -0.997575 0.855202 -7.876842
v -0.993778 1.541337 -7.883883
v -0.993779 0.855202 -7.883883
v -0.980848 1.541337 -7.907865
v -0.980849 0.855202 -7.907865
v -0.977052 1.541337 -7.914906
v -0.977053 0.855202 -7.914906
v -0.969094 1.541336 -7.914085
v -0.969095 0.855202 -7.914085
v -0.955987 1.541336 -7.912732
v -0.955988 0.855202 -7.912732
v -0.948029 1.541336 -7.911911
v -0.948030 0.855202 -7.911910
v -0.944232 1.541336 -7.918952
v -0.944233 0.855202 -7.918952
v -0.942219 1.541336 -7.922687
v -0.942220 0.855202 -7.922687
v -0.938422 1.541336 -7.929729
v -0.938423 0.855202 -7.929728
v -0.931381 1.541336 -7.925932
v -0.931382 0.855202 -7.925931
v -0.859195 1.541336 -7.887012
v -0.859196 0.855202 -7.887012
vn -0.4830 -0.0039 0.8756
vn -0.9605 -0.0039 0.2783
vn -0.9605 -0.0039 0.2784
vn -0.8775 -0.0039 -0.4796
vn -0.8774 -0.0039 -0.4797
vn -0.9959 -0.0039 0.0898
vn -0.7774 -0.0039 0.6290
vn -0.9959 -0.0039 0.0899
vn -0.8775 -0.0039 -0.4797
vn -0.4704 -0.0039 -0.8824
vn -0.4704 -0.0039 -0.8825
vn 0.0976 -0.0039 -0.9952
vn -0.2927 -0.0039 -0.9562
vn 0.4736 -0.0039 -0.8807
vt -0.246582 0.121094
vt 0.365479 0.121094
vt 0.365479 0.190918
vt -0.246582 0.190918
vt 0.365479 0.198242
vt -0.246582 0.198242
vt 0.365479 0.205078
vt -0.246582 0.205078
vt 0.365479 0.209961
vt -0.246582 0.209961
vt 0.365479 0.216797
vt -0.246582 0.216797
vt 0.365479 0.224121
vt -0.246582 0.224121
vt 0.365479 0.235840
vt -0.246582 0.235840
vt 0.365479 0.243164
vt -0.246582 0.243164
vt 0.365479 0.250000
vt -0.246582 0.250000
vt 0.365479 0.274414
vt -0.246582 0.274414
vt 0.365479 0.281738
vt -0.246582 0.281738
vt 0.365479 0.288574
vt -0.246582 0.288574
vt 0.365479 0.300293
vt -0.246582 0.300293
vt 0.365479 0.307617
vt -0.246582 0.307617
vt 0.365479 0.314941
vt -0.246582 0.314941
vt 0.365479 0.318359
vt -0.246582 0.318359
vt 0.365479 0.325684
vt -0.246582 0.325684
vt 0.365479 0.333008
vt -0.246582 0.333008
vt 0.365479 0.405762
vt -0.246582 0.405762
s 1
usemtl MASTER_Wood_Painted3
f 1/1/1 2/2/1 3/3/1
f 4/4/1 1/1/1 3/3/1
f 4/4/1 3/3/1 5/5/2
f 6/6/3 4/4/1 5/5/2
f 6/6/3 5/5/2 7/7/4
f 8/8/5 6/6/3 7/7/4
f 8/8/5 7/7/4 9/9/5
f 10/10/5 8/8/5 9/9/5
f 10/10/5 9/9/5 11/11/6
f 12/12/6 10/10/5 11/11/6
f 12/12/6 11/11/6 13/13/7
f 14/14/7 12/12/6 13/13/7
f 14/14/7 13/13/7 15/15/7
f 16/16/7 14/14/7 15/15/7
f 16/16/7 15/15/7 17/17/8
f 18/18/6 16/16/7 17/17/8
f 18/18/6 17/17/8 19/19/5
f 20/20/5 18/18/6 19/19/5
f 20/20/5 19/19/5 21/21/5
f 22/22/9 20/20/5 21/21/5
f 22/22/9 21/21/5 23/23/10
f 24/24/11 22/22/9 23/23/10
f 24/24/11 23/23/10 25/25/12
f 26/26/12 24/24/11 25/25/12
f 26/26/12 25/25/12 27/27/12
f 28/28/12 26/26/12 27/27/12
f 28/28/12 27/27/12 29/29/11
f 30/30/11 28/28/12 29/29/11
f 30/30/11 29/29/11 31/31/5
f 32/32/5 30/30/11 31/31/5
f 32/32/5 31/31/5 33/33/5
f 34/34/5 32/32/5 33/33/5
f 34/34/5 33/33/5 35/35/13
f 36/36/13 34/34/5 35/35/13
f 36/36/13 35/35/13 37/37/14
f 38/38/14 36/36/13 37/37/14
f 38/38/14 37/37/14 39/39/14
f 40/40/14 38/38/14 39/39/14
