# Blender 3.6.18
# www.blender.org
mtllib Mesh.1147.mtl
o Bistro_Research_Exterior_Paris_Building_01_paris_buildi_397d2ad
v 1.648723 13.182545 -11.696634
v 1.648722 16.129723 -11.696633
v 1.674466 13.182545 -11.682639
v 1.674511 16.129723 -11.682612
v 1.643635 13.182545 -11.709158
v 1.648902 13.182546 -11.696964
v 1.643634 16.129723 -11.709154
v 1.648898 16.129723 -11.696957
v 1.684927 13.182545 -11.763225
v 1.684926 16.129723 -11.763223
v 1.744993 13.182545 -11.730567
v 1.744993 16.129723 -11.730565
v 1.672655 13.182547 -11.597845
v 1.672655 16.129725 -11.597845
v 1.672648 16.129725 -11.597841
v 1.672648 13.182547 -11.597842
v 1.612699 16.129723 -11.630364
v 1.612704 13.182546 -11.630373
v 1.607524 16.129723 -11.642514
v 1.607526 13.182545 -11.642518
v 1.636547 16.129723 -11.695897
v 1.636549 13.182545 -11.695901
v 1.672657 16.129723 -11.762537
v 1.672659 13.182545 -11.762541
v 1.702307 13.182547 -11.667990
v 1.702306 16.129725 -11.667989
v 1.708079 13.182547 -11.664858
v 1.708079 16.129725 -11.664858
v 1.318231 13.102015 -11.006783
v 1.261430 13.102019 -11.037839
v 1.318231 16.210257 -11.006783
v 1.263326 16.210262 -11.036650
v 1.242706 13.102019 -11.032346
v 1.244587 16.210262 -11.031133
v 1.196705 16.210253 -10.943453
v 1.194598 13.102015 -10.944256
v 1.287919 16.092012 -10.960433
v 1.242315 16.096094 -10.985241
v 1.675649 16.092012 -11.682968
v 1.631521 16.096052 -11.707052
v 1.230204 16.110975 -10.991829
v 1.619407 16.110958 -11.713664
v 1.619136 16.210176 -11.713811
v 1.230028 16.210260 -10.991919
v 1.317522 15.357849 -10.939326
v 1.270285 15.360059 -10.963322
v 1.705254 15.357856 -11.661867
v 1.659504 15.360049 -11.685150
v 1.264556 15.366898 -10.966475
v 1.653765 15.366892 -11.688314
v 1.654481 15.409970 -11.689545
v 1.265360 15.410012 -10.967660
v 1.271252 15.416576 -10.964701
v 1.660354 15.416490 -11.686583
v 1.709204 15.416110 -11.659892
v 1.321484 15.416573 -10.937376
v 1.317767 14.591276 -10.939766
v 1.273165 14.593479 -10.966902
v 1.705506 14.591282 -11.662316
v 1.662377 14.593468 -11.688719
v 1.267317 14.600314 -10.970024
v 1.656525 14.600309 -11.691863
v 1.654845 14.643400 -11.690013
v 1.265725 14.643442 -10.968128
v 1.271252 14.649998 -10.964701
v 1.660354 14.649912 -11.686583
v 1.709204 14.649533 -11.659892
v 1.321484 14.649997 -10.937376
v 1.317817 13.824697 -10.939848
v 1.273185 13.826904 -10.967904
v 1.705558 13.824705 -11.662400
v 1.662396 13.826893 -11.689719
v 1.267379 13.833728 -10.970982
v 1.656588 13.833724 -11.692821
v 1.654853 13.876831 -11.690140
v 1.265733 13.876872 -10.968254
v 1.271252 13.883423 -10.964701
v 1.660354 13.883337 -11.686583
v 1.709204 13.882956 -11.659892
v 1.321484 13.883420 -10.937376
v 2.037287 16.210258 -12.338297
v 1.985240 16.210260 -12.366802
v 2.037289 13.102016 -12.338297
v 1.983174 13.102020 -12.367681
v 1.979750 16.210260 -12.385546
v 1.977660 13.102020 -12.386379
v 2.026129 13.102012 -12.475138
v 2.027815 16.210251 -12.473565
v 2.063719 13.219259 -12.386765
v 2.020504 13.219259 -12.410325
v 1.679530 13.219259 -11.680851
v 1.631781 13.219259 -11.706957
v 2.007722 13.205477 -12.417278
v 1.619334 13.205462 -11.713744
v 1.616812 13.102433 -11.714975
v 2.002737 13.102088 -12.419878
v 2.093382 15.415649 -12.365787
v 2.045913 15.416401 -12.391844
v 2.040059 15.409927 -12.394808
v 2.039432 15.366887 -12.393532
v 2.045182 15.360036 -12.390356
v 2.089445 15.357862 -12.367785
v 2.093382 14.649072 -12.365787
v 2.045913 14.649825 -12.391844
v 2.040424 14.643359 -12.395277
v 2.042192 14.600304 -12.397080
v 2.048048 14.593455 -12.393913
v 2.089705 14.591290 -12.368246
v 2.093382 13.882495 -12.365787
v 2.045913 13.883247 -12.391844
v 2.040432 13.876789 -12.395404
v 2.042254 13.833720 -12.398039
v 2.048064 13.826880 -12.394913
v 2.089758 13.824711 -12.368331
v 1.233357 13.102015 -10.983099
v 1.176556 13.102020 -11.014155
v 1.233357 16.210257 -10.983099
v 1.178452 16.210262 -11.012967
v 1.157831 13.102020 -11.008663
v 1.159713 16.210262 -11.007449
v 1.111831 16.210253 -10.919770
v 1.109724 13.102015 -10.920572
v 1.206923 16.146994 -10.958785
v 1.161319 16.151072 -10.983591
v 2.046394 16.146994 -12.512216
v 2.002266 16.151031 -12.536300
v 1.149208 16.165955 -10.990179
v 1.990153 16.165936 -12.542911
v 1.989881 16.265156 -12.543058
v 1.149032 16.265238 -10.990269
v 2.010041 16.210258 -12.420610
v 1.957994 16.210260 -12.449116
v 2.010043 13.102016 -12.420610
v 1.955929 13.102021 -12.449994
v 1.952504 16.210260 -12.467859
v 1.950414 13.102020 -12.468693
v 1.998883 13.102013 -12.557451
v 2.000569 16.210251 -12.555880
v 1.239517 13.219259 -10.986971
v 1.291799 13.219259 -10.958317
v 1.227406 13.205457 -10.993587
v 1.227344 13.102779 -10.993453
v 2.017184 16.096010 -12.412242
v 2.059837 16.092012 -12.388883
v 2.005069 16.110939 -12.418879
v 2.004701 16.210093 -12.419081
v 1.650820 16.147043 -11.629412
v 1.650820 13.164053 -11.629412
v 1.291799 16.147043 -10.958317
v 1.291799 13.164053 -10.958317
v 1.709387 13.177855 -11.736837
v 1.709387 16.147043 -11.736837
v 2.063717 16.147043 -12.386765
v 2.063719 13.177855 -12.386765
v 2.063719 13.164053 -12.386765
v 1.709387 13.164053 -11.736837
vn 0.4736 -0.0039 -0.8807
vn -0.9187 -0.0040 0.3948
vn -0.9187 -0.0039 0.3948
vn -0.9187 -0.0039 0.3949
vn 0.5017 -0.0040 0.8650
vn 0.5017 -0.0040 0.8651
vn 0.0276 -0.0039 0.9996
vn 0.0119 -0.0040 0.9999
vn -0.4736 -0.0039 0.8807
vn -0.4736 -0.0000 0.8807
vn -0.8774 -0.0000 -0.4797
vn -0.8774 -0.0039 -0.4797
vn -0.8775 -0.0039 -0.4796
vn -0.0665 -0.0039 -0.9978
vn -0.8774 -0.0038 -0.4797
vn -0.5339 -0.0039 -0.8456
vn -0.5338 -0.0039 -0.8456
vn -0.0587 -0.0039 -0.9983
vn -0.4830 -0.0039 0.8756
vn 0.4737 0.0003 -0.8807
vn -0.8775 0.0007 -0.4797
vn -0.0742 -0.9963 -0.0430
vn -0.0758 -0.9963 -0.0402
vn -0.0431 -0.9987 -0.0274
vn -0.0053 1.0000 -0.0015
vn 0.0008 1.0000 0.0008
vn -0.0018 1.0000 -0.0009
vn -0.0040 1.0000 -0.0040
vn -0.8773 -0.0195 -0.4796
vn -0.0039 1.0000 -0.0039
vn -0.8774 -0.0117 -0.4797
vn -0.8774 -0.0117 -0.4796
vn -0.4829 0.0003 0.8756
vn -0.8774 0.0007 -0.4797
vn -0.8769 0.0351 -0.4793
vn -0.8769 0.0351 -0.4794
vn 0.0040 1.0000 0.0040
vn 0.0040 1.0000 0.0039
vn 0.0039 1.0000 0.0039
vn 0.1053 -0.0039 -0.9944
vn -0.6290 -0.0039 -0.7774
vn -0.3854 -0.8994 -0.2064
vn -0.3848 -0.8979 -0.2138
vn -0.8168 -0.3713 -0.4416
vn -0.8139 -0.3700 -0.4479
vn -0.7812 -0.0039 0.6242
vn -0.9936 -0.0039 -0.1130
vn -0.0052 1.0000 -0.0015
vn -0.8793 0.0117 -0.4761
vn -0.8774 0.0117 -0.4796
vn -0.0754 -0.9963 -0.0409
vn -0.8775 -0.0038 -0.4796
vn -0.8807 -0.0039 -0.4736
vt -0.000000 0.276855
vt 1.043945 0.276855
vt -0.000000 0.183594
vt -0.000000 0.170898
vt 1.043945 0.184570
vt 1.043945 0.170898
vt -0.000000 0.152832
vt 1.043945 0.152832
vt 1.043945 0.154297
vt -0.000000 0.154297
vt 1.043945 0.265137
vt -0.000000 0.266113
vt -0.000002 0.296875
vt -0.000000 0.280762
vt 1.053711 0.296875
vt 1.053711 0.280762
vt -0.000000 0.264648
vt 1.053711 0.264160
vt 1.053711 0.172852
vt -0.000000 0.172852
vt 0.653809 0.152832
vt 0.653809 0.168457
vt 0.326904 0.152832
vt 0.326904 0.168457
vt 0.653809 0.185547
vt 0.326904 0.185547
vt 0.326904 0.276855
vt 0.653809 0.276855
vt 0.653809 0.916382
vt 0.653809 0.933044
vt 0.326904 0.916443
vt 0.326904 0.932983
vt 0.653809 0.939514
vt 0.326904 0.939514
vt 0.326904 0.968719
vt 0.653809 0.968719
vt 0.653809 0.975098
vt 0.326904 0.975128
vt 0.326904 0.991951
vt 0.653809 0.991997
vt 0.653809 0.932983
vt 0.326904 0.932922
vt 1.053711 0.152832
vt 1.053711 0.168945
vt -0.000000 0.168945
vt 1.053711 0.185059
vt -0.000000 0.185059
vt 1.053711 0.276855
vt -0.000000 0.296875
vt -0.000000 0.281250
vt 0.352051 0.296875
vt 0.352051 0.281250
vt 0.352051 0.264648
vt 0.352051 0.172852
vt -0.000047 0.991905
vt -0.000047 0.975174
vt -0.000047 0.968719
vt -0.000047 0.939514
vt -0.000047 0.932922
vt -0.000047 0.916504
vt 0.704102 0.280762
vt 0.704102 0.296875
vt 0.704102 0.264648
vt 0.704102 0.172852
vt -0.000000 0.168457
vt -0.000000 0.185547
vt 1.045898 0.738037
vt -0.017853 0.738037
vt 1.045898 0.436523
vt -0.017853 0.436523
vt 0.062622 0.380859
vt 1.122070 0.380859
vt 1.122070 0.682617
vt 0.062622 0.682617
vt 0.057709 0.682617
vt 0.057709 0.380859
s 1
usemtl MASTER_Wood_Painted3
f 1/1/1 2/2/1 3/1/1
f 2/2/1 4/2/1 3/1/1
f 5/3/2 6/4/2 7/5/3
f 6/4/4 8/6/4 7/5/4
f 9/1/1 10/2/1 11/1/1
f 10/2/1 12/2/1 11/1/1
f 13/7/5 14/8/6 15/9/7
f 16/10/8 13/7/5 15/9/7
f 15/9/7 17/6/9 16/10/8
f 17/6/9 18/4/10 16/10/8
f 18/4/10 17/6/9 19/5/11
f 20/3/12 18/4/10 19/5/11
f 20/3/12 19/5/11 21/11/13
f 22/12/12 20/3/12 21/11/13
f 21/11/13 2/2/14 22/12/12
f 2/2/14 1/1/14 22/12/15
f 5/3/12 7/5/12 23/11/16
f 24/12/17 5/3/12 23/11/16
f 23/11/16 10/2/18 24/12/17
f 10/2/18 9/1/18 24/12/17
f 8/6/19 6/4/19 25/10/19
f 26/9/19 8/6/19 25/10/19
f 25/10/19 27/7/19 26/9/19
f 27/7/19 28/8/19 26/9/19
f 29/13/1 30/14/1 31/15/1
f 30/14/1 32/16/20 31/15/1
f 30/14/1 33/17/21 32/16/20
f 33/17/21 34/18/12 32/16/20
f 35/19/12 34/18/12 33/17/21
f 36/20/12 35/19/12 33/17/21
f 37/21/22 38/22/22 39/23/22
f 38/22/22 40/24/23 39/23/22
f 38/22/22 41/25/12 40/24/23
f 41/25/12 42/26/13 40/24/23
f 43/27/13 42/26/13 41/25/12
f 44/28/12 43/27/13 41/25/12
f 45/29/24 46/30/24 47/31/24
f 46/30/24 48/32/24 47/31/24
f 46/30/24 49/33/12 48/32/24
f 49/33/12 50/34/12 48/32/24
f 51/35/13 50/34/12 49/33/12
f 52/36/12 51/35/13 49/33/12
f 52/36/12 53/37/25 51/35/13
f 53/37/25 54/38/26 51/35/13
f 54/38/26 53/37/25 55/39/27
f 53/37/25 56/40/28 55/39/27
f 57/29/24 58/41/24 59/31/24
f 58/41/24 60/42/24 59/31/24
f 58/41/24 61/33/29 60/42/24
f 61/33/29 62/34/29 60/42/24
f 63/35/29 62/34/29 61/33/29
f 64/36/29 63/35/29 61/33/29
f 64/36/29 65/37/25 63/35/29
f 65/37/25 66/38/26 63/35/29
f 66/38/26 65/37/25 67/39/27
f 65/37/25 68/40/30 67/39/27
f 69/29/24 70/30/24 71/31/24
f 70/30/24 72/32/24 71/31/24
f 70/30/24 73/33/31 72/32/24
f 73/33/31 74/34/32 72/32/24
f 75/35/31 74/34/32 73/33/31
f 76/36/31 75/35/31 73/33/31
f 76/36/31 77/37/25 75/35/31
f 77/37/25 78/38/26 75/35/31
f 78/38/26 77/37/25 79/39/27
f 77/37/25 80/40/28 79/39/27
f 81/43/19 82/44/19 83/7/19
f 82/44/19 84/45/33 83/7/19
f 82/44/19 85/46/34 84/45/33
f 85/46/34 86/47/12 84/45/33
f 87/1/12 86/47/12 85/46/34
f 88/48/12 87/1/12 85/46/34
f 89/49/30 90/50/30 91/51/30
f 90/50/30 92/52/30 91/51/30
f 90/50/30 93/17/35 92/52/30
f 93/17/35 94/53/36 92/52/30
f 95/54/36 94/53/36 93/17/35
f 96/20/36 95/54/36 93/17/36
f 97/55/37 98/56/38 55/39/27
f 98/56/38 54/38/26 55/39/27
f 54/38/26 98/56/38 99/57/12
f 51/35/13 54/38/26 99/57/12
f 51/35/13 99/57/12 50/34/12
f 99/57/12 100/58/12 50/34/12
f 50/34/12 100/58/12 101/59/24
f 48/32/24 50/34/12 101/59/24
f 48/32/24 101/59/24 47/31/24
f 101/59/24 102/60/24 47/31/24
f 103/55/37 104/56/39 67/39/27
f 104/56/39 66/38/26 67/39/27
f 66/38/26 104/56/39 105/57/29
f 63/35/29 66/38/26 105/57/29
f 63/35/29 105/57/29 62/34/29
f 105/57/29 106/58/29 62/34/29
f 62/34/29 106/58/29 107/59/24
f 60/42/24 62/34/29 107/59/24
f 60/42/24 107/59/24 59/31/24
f 107/59/24 108/60/24 59/31/24
f 109/55/37 110/56/39 79/39/27
f 110/56/39 78/38/26 79/39/27
f 78/38/26 110/56/39 111/57/32
f 75/35/31 78/38/26 111/57/32
f 75/35/31 111/57/32 74/34/32
f 111/57/32 112/58/32 74/34/32
f 74/34/32 112/58/32 113/59/24
f 72/32/24 74/34/32 113/59/24
f 72/32/24 113/59/24 71/31/24
f 113/59/24 114/60/24 71/31/24
f 115/13/1 116/14/40 117/15/1
f 116/14/40 118/16/40 117/15/1
f 116/14/40 119/17/41 118/16/40
f 119/17/41 120/18/41 118/16/40
f 121/19/12 120/18/41 119/17/41
f 122/20/12 121/19/12 119/17/41
f 123/21/22 124/22/42 125/23/22
f 124/22/42 126/24/43 125/23/22
f 124/22/42 127/25/44 126/24/43
f 127/25/44 128/26/45 126/24/43
f 129/27/12 128/26/45 127/25/44
f 130/28/12 129/27/12 127/25/44
f 131/43/19 132/44/46 133/7/19
f 132/44/46 134/45/46 133/7/19
f 132/44/46 135/46/47 134/45/46
f 135/46/47 136/47/47 134/45/46
f 137/1/12 136/47/47 135/46/47
f 138/48/12 137/1/12 135/46/47
f 139/61/48 140/62/30 91/51/30
f 92/52/30 139/61/48 91/51/30
f 92/52/30 94/53/49 139/61/48
f 94/53/49 141/63/50 139/61/48
f 142/64/50 141/63/50 94/53/49
f 95/54/50 142/64/50 94/53/49
f 143/65/51 144/7/22 39/23/22
f 40/24/23 143/65/51 39/23/22
f 40/24/23 42/26/13 143/65/51
f 42/26/13 145/66/12 143/65/51
f 146/1/52 145/66/12 42/26/13
f 43/27/13 146/1/52 42/26/13
usemtl MASTER_Glass_Dirty_MASKED
f 147/67/53 148/68/53 149/69/53
f 148/68/53 150/70/53 149/69/53
f 151/71/12 152/72/12 153/73/12
f 154/74/12 151/71/12 153/73/12
f 154/74/12 155/75/12 151/71/12
f 155/75/12 156/76/12 151/71/12
