# Blender 3.6.18
# www.blender.org
mtllib Mesh.485.mtl
o Bistro_Research_Exterior_paris_building_11_5591
v 0.319667 8.915383 19.390123
v 0.319667 11.027603 19.390123
v 0.225453 8.915352 19.627016
v 0.225453 11.027616 19.627018
v -0.034279 8.915385 19.006605
v -0.034286 11.027602 19.006603
v 0.197268 8.915385 19.101284
v 0.197262 11.027602 19.101282
v -0.055242 8.915383 19.015318
v -0.232129 8.915352 19.439945
v -0.055249 11.027602 19.015316
v -0.232136 11.027616 19.439939
v 0.318174 8.915381 19.361071
v 0.260367 8.915352 19.250374
v 0.318174 11.027604 19.361071
v 0.260364 11.027616 19.250372
v 0.217190 11.027604 19.122498
v 0.217196 8.915381 19.122501
v 1.843669 8.915383 20.013298
v 1.744907 8.915352 20.248331
v 1.843669 11.027603 20.013298
v 1.744908 11.027616 20.248333
v 2.364924 8.915385 19.987656
v 2.133377 8.915385 19.892973
v 2.364932 11.027602 19.987659
v 2.133383 11.027602 19.892975
v 2.373775 8.915383 20.008560
v 2.373782 11.027602 20.008564
v 2.202465 8.915352 20.435467
v 2.202472 11.027616 20.435471
v 1.865088 8.915381 19.993616
v 1.865088 11.027604 19.993616
v 1.983896 8.915352 19.955135
v 1.983899 11.027616 19.955137
v 2.104300 11.027604 19.894150
v 2.104294 8.915381 19.894148
v 0.253106 8.899347 19.264629
v 0.205871 8.899381 19.122089
v 0.253102 11.043617 19.264629
v 0.308002 11.043607 19.376160
v 0.205865 11.043604 19.122086
v -0.217327 11.043617 19.445999
v -0.040439 11.043604 19.021372
v 0.308002 8.899373 19.376160
v -0.040432 8.899380 19.021374
v -0.217320 8.899346 19.446001
v 2.187654 8.899346 20.429413
v 2.358965 8.899380 20.002504
v 2.358973 11.043604 20.002508
v 2.187661 11.043617 20.429415
v 1.979087 8.899347 19.970396
v 1.861776 8.899373 20.011509
v 1.861776 11.043607 20.011507
v 1.979091 11.043617 19.970400
v 2.112669 11.043604 19.901793
v 2.112663 8.899381 19.901791
v 0.027391 11.043658 19.546122
v 0.095574 11.043658 19.573910
v 0.210643 11.043621 19.620962
v 0.210643 8.899341 19.620960
v 0.095577 8.899252 19.573910
v 0.027402 8.899252 19.546127
v 1.759717 11.043621 20.254389
v 1.874787 11.043658 20.301443
v 1.942903 11.043658 20.329390
v 1.942892 8.899252 20.329384
v 1.874783 8.899252 20.301439
v 1.759717 8.899341 20.254387
vn 0.9298 -0.0040 0.3680
vn 0.9298 -0.0039 0.3680
vn 0.3721 -0.0039 -0.9282
vn -0.9227 -0.0039 -0.3854
vn 0.8840 -0.0039 -0.4675
vn 0.9175 -0.0039 -0.3977
vn 0.9455 -0.0039 -0.3256
vn -0.3092 -0.0039 -0.9510
vn -0.3854 -0.0039 -0.9227
vn -0.4550 -0.0039 -0.8905
vn 0.7392 -0.6062 -0.2933
vn 0.7012 -0.6385 -0.3173
vn 0.7654 -0.3651 -0.5299
vn 0.6225 -0.5912 -0.5129
vn 0.7427 0.6012 -0.2947
vn 0.7047 0.6338 -0.3189
vn 0.8784 0.4372 -0.1930
vn 0.7448 0.6659 -0.0434
vn 0.7676 0.3582 -0.5314
vn 0.6254 0.5860 -0.5152
vn -0.6552 0.7023 -0.2785
vn -0.5279 0.4575 -0.7156
vn -0.6552 0.7022 -0.2786
vn -0.2540 0.7541 -0.6056
vn 0.8754 -0.4436 -0.1923
vn 0.7408 -0.6703 -0.0431
vn -0.5260 -0.4636 -0.7130
vn -0.2525 -0.7575 -0.6021
vn -0.6516 -0.7062 -0.2770
vn 0.6543 -0.7092 0.2625
vn 0.8729 -0.4659 -0.1449
vn 0.5971 -0.7610 -0.2537
vn 0.8729 -0.4658 -0.1448
vn 0.8761 0.4597 -0.1454
vn 0.6007 0.7577 -0.2552
vn 0.6580 0.7053 0.2640
vn 0.6580 0.7052 0.2640
vn -0.3303 -0.6023 -0.7267
vn -0.2855 -0.6374 -0.7157
vn -0.4967 -0.4419 -0.7470
vn -0.5030 -0.6668 -0.5498
vn -0.4984 0.4356 -0.7496
vn -0.5057 0.6624 -0.5527
vn -0.3319 0.5973 -0.7301
vn -0.2869 0.6328 -0.7192
vn -0.1833 0.3550 -0.9167
vn -0.0898 0.5819 -0.8083
vn -0.1828 -0.3618 -0.9141
vn -0.0894 -0.5870 -0.8046
vn -0.0039 1.0000 -0.0039
vn -0.0039 -1.0000 -0.0039
vn 0.7447 0.6659 -0.0434
vn 0.6593 0.7067 0.2566
vn 0.8818 0.4627 0.0910
vn 0.8786 -0.4688 0.0906
vn 0.6557 -0.7106 0.2552
vn -0.6516 -0.7062 -0.2771
vn -0.6963 -0.4629 -0.5485
vn -0.6988 0.4568 -0.5505
vn -0.1362 -0.4631 -0.8758
vn -0.1367 0.4570 -0.8789
vn 0.5279 -0.4575 -0.7156
vn 0.5298 0.4513 -0.7181
vn 0.1132 0.4490 -0.8863
vn 0.7087 0.4581 -0.5365
vn 0.1128 -0.4552 -0.8832
vn 0.7062 -0.4643 -0.5345
vt 0.503418 -0.445312
vt 0.503418 0.214844
vt 0.423828 -0.445312
vt 0.423828 0.214844
vt 0.587402 -0.445312
vt 0.587402 0.214844
vt 0.509277 -0.445312
vt 0.509277 0.214844
vt 0.432129 -0.445312
vt 0.575684 -0.445312
vt 0.432129 0.214844
vt 0.575684 0.214844
vt 0.443848 -0.445312
vt 0.473633 -0.445312
vt 0.443848 0.214844
vt 0.473633 0.214844
vt 0.568848 0.214844
vt 0.537109 0.214844
vt 0.568848 -0.445312
vt 0.537109 -0.445312
vt 0.496094 -0.445312
vt 0.496094 0.214844
vt -0.222168 -0.445312
vt -0.143921 -0.445312
vt -0.222168 0.214844
vt -0.143921 0.214844
vt 0.567383 -0.445312
vt 0.567383 0.214844
vt -0.078308 -0.445312
vt -0.078308 0.214844
vt -0.108093 -0.445312
vt -0.108093 0.214844
vt 0.430908 0.214844
vt 0.430908 -0.445312
vt 0.462646 0.214844
vt 0.462646 -0.445312
vt 0.531738 -0.450195
vt 0.567383 -0.450195
vt 0.473633 0.462891
vt 0.474121 0.468262
vt 0.443848 0.488281
vt 0.445068 0.493652
vt 0.567383 0.219727
vt 0.531738 0.219727
vt 0.575684 0.219727
vt 0.432129 0.219727
vt 0.555664 0.488281
vt 0.554688 0.493652
vt 0.525879 0.462891
vt 0.525391 0.468262
vt 0.432129 -0.450195
vt 0.575684 -0.450195
vt 0.423828 -0.450195
vt 0.423828 0.219727
vt 1.107422 0.462891
vt 1.108398 0.468262
vt 1.078125 0.488281
vt 1.079102 0.493652
vt -0.078308 0.488281
vt -0.079468 0.493652
vt -0.108093 0.462891
vt -0.108521 0.468262
vt 0.467773 0.219727
vt 0.467773 -0.450195
vt 0.587402 0.432617
vt 0.588379 0.576172
vt 0.505859 0.576172
vt 0.504395 0.432617
vt 0.483154 0.576172
vt 0.444092 0.576172
vt 0.555664 0.576172
vt 0.516602 0.576172
vt 0.495117 0.432617
vt 0.493652 0.576172
vt 0.412109 0.432617
vt 0.411133 0.576172
vt -0.078674 0.576172
vt -0.117493 0.576172
vt -0.139038 0.432617
vt -0.140503 0.576172
vt -0.222168 0.432617
vt -0.223145 0.576172
vt 1.221680 0.432617
vt 1.222656 0.576172
vt 1.139648 0.576172
vt 1.138672 0.432617
vt 1.117188 0.576172
vt 1.078125 0.576172
vt 0.506348 0.219727
vt 0.511719 0.214844
vt 0.511719 -0.445312
vt 0.506348 -0.450195
vt 0.493408 -0.450195
vt 0.488037 -0.445312
vt 0.488037 0.214844
vt 0.493408 0.219727
vt 0.587402 -0.450195
vt 0.592773 -0.445312
vt 0.504395 -0.450195
vt 0.592773 0.214844
vt 0.500977 -0.445312
vt 0.587402 0.219727
vt 0.500977 0.214844
vt 0.504395 0.219727
vt -0.135742 0.214844
vt -0.139038 0.219727
vt -0.135742 -0.445312
vt -0.222168 0.219727
vt -0.139038 -0.450195
vt -0.227173 0.214844
vt -0.222168 -0.450195
vt -0.227173 -0.445312
s 1
usemtl MASTER_Concrete_Plaster
f 1/1/1 2/2/1 3/3/1
f 2/2/2 4/4/2 3/3/2
f 5/5/3 6/6/3 7/7/3
f 6/6/3 8/8/3 7/7/3
f 9/9/4 10/10/4 11/11/4
f 10/10/4 12/12/4 11/11/4
f 13/13/5 14/14/6 15/15/5
f 14/14/6 16/16/6 15/15/5
f 17/17/7 16/18/6 18/19/7
f 16/18/6 14/20/6 18/19/7
f 19/21/4 20/10/4 21/22/4
f 20/10/4 22/12/4 21/22/4
f 23/23/3 24/24/3 25/25/3
f 24/24/3 26/26/3 25/25/3
f 27/27/2 28/28/2 29/3/2
f 28/28/2 30/4/2 29/3/2
f 31/29/8 32/30/8 33/31/9
f 32/30/8 34/32/9 33/31/9
f 35/33/10 36/34/10 34/35/9
f 36/34/10 33/36/9 34/35/9
f 14/20/11 37/37/12 18/19/13
f 37/37/12 38/38/14 18/19/13
f 16/39/15 39/40/16 15/41/17
f 39/40/16 40/42/18 15/41/17
f 17/17/19 41/43/20 16/18/15
f 41/43/20 39/44/16 16/18/15
f 12/12/21 42/45/21 11/11/22
f 42/45/23 43/46/24 11/11/22
f 13/47/25 44/48/26 14/49/11
f 44/48/26 37/50/12 14/49/11
f 9/9/27 45/51/28 10/10/29
f 45/51/28 46/52/29 10/10/29
f 29/3/30 47/53/30 27/27/31
f 47/53/30 48/38/32 27/27/33
f 28/28/34 49/43/35 30/4/36
f 49/43/35 50/54/37 30/4/37
f 33/55/38 51/56/39 31/57/40
f 51/56/39 52/58/41 31/57/40
f 32/59/42 53/60/43 34/61/44
f 53/60/43 54/62/45 34/61/44
f 34/35/44 54/63/45 35/33/46
f 54/63/45 55/46/47 35/33/46
f 36/34/48 56/51/49 33/36/38
f 56/51/49 51/64/39 33/36/38
f 43/65/50 42/66/50 57/67/50
f 41/68/50 43/65/50 57/67/50
f 41/68/50 57/67/50 58/69/50
f 39/40/50 41/68/50 58/69/50
f 39/40/50 58/69/50 59/70/50
f 40/42/50 39/40/50 59/70/50
f 44/48/51 60/71/51 37/50/51
f 60/71/51 61/72/51 37/50/51
f 37/50/51 61/72/51 38/73/51
f 61/72/51 62/74/51 38/73/51
f 38/73/51 62/74/51 45/75/51
f 62/74/51 46/76/51 45/75/51
f 53/60/50 63/77/50 54/62/50
f 63/77/50 64/78/50 54/62/50
f 54/62/50 64/78/50 55/79/50
f 64/78/50 65/80/50 55/79/50
f 55/79/50 65/80/50 49/81/50
f 65/80/50 50/82/50 49/81/50
f 48/83/51 47/84/51 66/85/51
f 56/86/51 48/83/51 66/85/51
f 56/86/51 66/85/51 67/87/51
f 51/56/51 56/86/51 67/87/51
f 51/56/51 67/87/51 68/88/51
f 52/58/51 51/56/51 68/88/51
f 40/89/52 59/54/53 4/4/53
f 2/2/54 40/89/18 4/4/53
f 15/90/17 40/89/18 2/2/54
f 13/91/25 15/90/17 2/2/54
f 1/1/55 13/91/25 2/2/54
f 44/92/26 13/91/25 1/1/55
f 60/53/56 44/92/26 1/1/55
f 3/3/56 60/53/56 1/1/55
f 52/93/41 68/52/57 20/10/57
f 19/21/58 52/93/41 20/10/29
f 31/94/40 52/93/41 19/21/58
f 32/95/42 31/94/40 19/21/58
f 21/22/59 32/95/42 19/21/58
f 53/96/43 32/95/42 21/22/59
f 63/45/21 53/96/43 21/22/59
f 22/12/21 63/45/21 21/22/59
f 5/5/60 45/97/28 9/98/27
f 38/99/14 45/97/28 5/5/60
f 5/5/60 9/98/27 6/6/61
f 7/7/62 38/99/14 5/5/60
f 9/98/27 11/100/22 6/6/61
f 7/7/62 18/101/13 38/99/14
f 11/100/22 43/102/24 6/6/61
f 17/103/19 18/101/13 7/7/62
f 6/6/61 43/102/24 8/8/63
f 8/8/63 17/103/19 7/7/62
f 43/102/24 41/104/20 8/8/63
f 41/104/20 17/103/19 8/8/63
f 26/26/64 35/105/46 55/106/47
f 36/107/48 35/105/46 26/26/64
f 26/26/64 55/106/47 25/25/65
f 24/24/66 36/107/48 26/26/64
f 55/106/47 49/108/35 25/25/65
f 24/24/66 56/109/49 36/107/48
f 49/108/35 28/110/34 25/25/65
f 48/111/32 56/109/49 24/24/66
f 25/25/65 28/110/34 23/23/67
f 23/23/67 48/111/32 24/24/66
f 28/110/34 27/112/33 23/23/67
f 27/112/33 48/111/32 23/23/67
