# Blender 3.6.18
# www.blender.org
mtllib Mesh.1151.mtl
o Bistro_Research_Exterior_Paris_Building_01_paris_buildi_35c90ae
v 3.888036 16.294209 -16.740929
v 3.876115 16.279655 -16.735144
v 3.870872 16.290304 -16.725628
v 3.889910 13.159687 -16.744385
v 3.879542 13.150307 -16.744940
v 3.876114 13.159687 -16.735142
v 3.852591 13.150308 -16.742056
v 3.833069 13.142941 -16.725725
v 3.845165 13.159686 -16.731827
v 2.840089 15.992494 -14.893188
v 2.853106 16.011728 -14.901902
v 2.859717 16.002008 -14.912211
v 2.816174 16.542147 -14.849051
v 2.821218 16.539305 -14.838671
v 2.825687 16.548687 -14.846916
v 2.900241 16.029680 -14.918064
v 2.890881 16.015736 -14.917992
v 2.886550 16.026459 -14.908107
v 4.332327 16.548685 -16.806900
v 3.988631 16.548685 -16.993114
v 3.169160 16.548687 -14.660890
v 4.336797 16.539303 -16.815147
v 4.336797 15.966492 -16.815147
v 3.993099 16.539303 -17.001360
v 3.993099 15.966492 -17.001360
v 4.332328 15.957111 -16.806900
v 4.305227 15.957112 -16.756895
v 3.988631 15.957111 -16.993114
v 3.961302 15.957112 -16.942677
v 4.300757 15.947732 -16.748650
v 4.300756 13.081916 -16.748648
v 3.956830 15.947732 -16.934427
v 3.957068 13.081914 -16.934938
v 4.162031 16.196159 -16.492716
v 3.818136 16.196159 -16.678471
v 4.162028 13.081916 -16.492714
v 3.818374 13.081916 -16.678984
v 4.157561 16.205540 -16.484470
v 3.344154 16.205542 -14.983738
v 3.813671 16.205540 -16.670231
v 3.000432 16.205542 -15.169407
v 3.339683 13.081917 -14.975490
v 2.996200 13.081917 -15.161669
v 3.339684 16.196163 -14.975492
v 2.995961 16.196161 -15.161154
v 3.205611 15.947733 -14.728148
v 2.862156 15.947735 -14.914225
v 3.205611 13.081917 -14.728148
v 2.862127 13.081917 -14.914246
v 3.201142 15.957113 -14.719900
v 3.169159 15.957113 -14.660890
v 2.857687 15.957113 -14.905978
v 2.825686 15.957113 -14.846916
v 3.164690 16.539307 -14.652641
v 3.164690 15.966492 -14.652643
v 2.821218 15.966492 -14.838671
v 2.886550 16.452385 -14.908106
v 2.853106 16.470123 -14.901902
v 2.923007 16.015736 -14.977279
v 2.889892 16.002008 -14.967900
v 2.930861 16.006460 -14.988671
v 2.930860 13.159689 -14.988669
v 2.893776 15.991088 -14.978169
v 2.893775 13.159687 -14.978168
v 2.933523 13.150311 -14.999173
v 2.969706 13.150309 -15.065922
v 2.903593 13.150309 -14.990697
v 2.957449 13.150310 -15.090079
v 2.976052 13.159689 -15.074142
v 2.976054 16.279659 -15.074144
v 2.961966 13.159689 -15.101905
v 2.961967 16.262550 -15.101906
v 2.981161 16.290306 -15.083747
v 2.967167 16.273308 -15.111327
v 3.840109 16.273306 -16.722336
v 3.845167 16.262548 -16.731831
v 3.928660 13.150308 -16.835564
v 3.919398 13.150309 -16.865345
v 3.936005 13.159686 -16.843529
v 3.936007 16.019991 -16.843531
v 3.924534 13.159687 -16.880409
v 3.924535 16.004608 -16.880413
v 3.941263 16.029261 -16.856339
v 3.968684 16.029261 -16.906944
v 3.931020 16.015526 -16.889273
v 3.956481 16.015528 -16.936260
v 3.974602 16.039984 -16.915970
v 3.974602 16.452379 -16.915970
v 3.961507 16.025244 -16.947430
v 3.961506 16.470129 -16.947428
v 3.968974 16.463291 -16.906628
v 2.891303 16.463295 -14.917925
v 3.956368 16.480368 -16.936905
v 2.859119 16.480371 -14.911953
v 3.132914 15.957113 -14.707253
v 2.875920 15.957113 -14.846486
v 3.132914 13.081917 -14.707253
v 2.875891 13.081917 -14.846507
v 3.981266 13.081917 -16.906403
v 3.981295 15.957113 -16.906382
v 4.007663 13.082495 -16.955057
v 4.008345 15.992486 -16.956301
v 4.020383 13.082593 -16.958834
v 4.020384 15.997445 -16.958834
v 4.158606 13.082593 -16.883944
v 4.158607 15.997445 -16.883945
v 2.977992 16.294203 -15.061526
v 3.934321 13.159686 -16.826324
v 2.944354 13.159689 -14.999472
v 2.975827 13.159687 -15.057534
v 3.981616 15.963578 -16.999855
v 3.945351 15.963594 -16.932926
v 3.924979 16.004486 -16.895329
v 3.961139 16.004499 -16.962061
v 3.924603 13.143097 -16.894644
v 3.812821 16.212612 -16.688349
v 2.984542 16.212152 -15.159769
v 2.881675 13.143496 -14.969945
v 2.960759 13.143437 -15.115884
v 2.857702 15.962073 -14.925694
v 2.816766 15.962064 -14.850142
v 2.840681 16.492134 -14.894279
v 3.981869 16.541700 -17.000320
v 2.880959 15.992485 -14.968615
v 2.941201 16.029263 -14.993656
v 3.832906 16.261023 -16.725416
v 3.945968 13.089127 -16.934132
v 3.944354 13.081914 -16.931162
v 2.984915 13.088789 -15.160526
v 2.983485 13.081917 -15.157893
v 2.899067 16.451736 -14.915896
v 2.871466 15.962073 -14.857954
v 2.898515 15.997445 -14.907875
v 2.898514 13.082593 -14.907873
v 2.872118 13.082014 -14.859220
v 3.937035 16.042446 -16.831331
v 3.973737 16.043201 -16.899063
v 3.974776 16.452059 -16.900980
v 3.960885 16.492575 -16.961594
v 3.814597 13.081916 -16.691700
v 2.856955 13.088729 -14.924381
v 2.858349 13.081917 -14.926961
v 2.960892 16.261488 -15.116121
v 3.812897 13.089282 -16.688557
vn -0.8635 0.0195 -0.5040
vn -0.5041 0.0039 -0.8636
vn -0.4041 0.8828 -0.2394
vn -0.8774 -0.0039 -0.4797
vn -0.5193 0.7223 -0.4568
vn -0.4990 0.7662 -0.4048
vn -0.4582 0.0039 -0.8889
vn -0.5426 0.0351 -0.8393
vn -0.6132 0.5507 -0.5663
vn -0.7588 0.3420 0.5543
vn -0.5199 0.8405 -0.1524
vn -0.6600 0.5194 -0.5428
vn -0.5569 0.0428 -0.8295
vn -0.0039 1.0000 -0.0039
vn 0.4736 -0.0039 -0.8807
vn -0.0039 -1.0000 -0.0039
vn -0.4830 -0.0039 0.8756
vn -0.4829 -0.0039 0.8756
vn -0.1841 -0.0039 -0.9829
vn -0.4358 0.8676 -0.2395
vn -0.2763 -0.0039 -0.9611
vn -0.2762 -0.0039 -0.9611
vn -0.8936 -0.0039 0.4488
vn -0.8936 -0.0039 0.4487
vn -0.4906 0.8282 -0.2708
vn -0.1130 -0.0039 -0.9936
vn -0.9562 -0.0039 0.2927
vn -0.4294 0.8706 -0.2403
vn -0.9255 -0.0039 0.3788
vn -0.4875 -0.8306 -0.2691
vn -0.8014 -0.0039 -0.5981
vn -0.4201 0.8833 -0.2081
vn -0.8966 0.0196 -0.4424
vn -0.6690 0.7160 -0.1995
vn -0.5050 0.7164 -0.4815
vn -0.6716 0.7266 -0.1453
vn -0.8775 -0.0039 -0.4797
vn -0.8775 -0.0039 -0.4796
vn 0.2378 -0.7604 -0.6044
vn 0.2233 -0.7561 -0.6151
vn -0.7895 0.5774 -0.2082
vn -0.8319 0.5116 -0.2148
vn -0.6220 0.7550 -0.2073
vn -0.5197 -0.8478 -0.1055
vn -0.3700 -0.8452 -0.3856
vn -0.4899 0.7643 -0.4194
vn -0.5999 0.7803 -0.1765
vn -0.3801 -0.7641 0.5212
vn -0.3696 -0.7665 0.5252
vn -0.5424 -0.0429 -0.8390
vn -0.4102 0.8399 -0.3555
vn 0.0898 0.3476 -0.9333
vn 0.3346 0.7046 -0.6258
vn 0.3346 0.7045 -0.6258
vn -0.3432 0.7061 0.6193
vn 0.3327 -0.7085 -0.6224
vn 0.0896 -0.3544 -0.9308
vn 0.2233 -0.7562 -0.6151
vn -0.0506 -0.1052 -0.9932
vn -0.8485 -0.0978 0.5201
vn -0.3413 -0.7101 0.6159
vn -0.0585 -0.0974 -0.9935
vn -0.8871 -0.1055 0.4494
vn -0.9983 0.0039 0.0587
vn -0.9972 0.0039 0.0743
vn -0.9996 0.0039 -0.0274
vn -0.9998 0.0039 -0.0196
vn -0.2453 -0.0039 -0.9694
vn -0.5805 0.0039 -0.8143
vn -0.5520 0.0039 -0.8338
vn -0.5574 0.0039 -0.8302
vn -0.5844 0.6080 -0.5374
vn -0.6766 0.4967 -0.5436
vn -0.7348 0.5383 -0.4126
vn -0.4581 0.0039 -0.8889
vn -0.1053 -0.0039 -0.9944
vn -0.7567 -0.3489 0.5528
vn -0.3696 -0.7665 0.5253
vn -0.8730 -0.0504 -0.4850
vn -0.5567 -0.0506 -0.8292
vn -0.7209 -0.5650 -0.4014
vn -0.7353 -0.5408 -0.4085
vn -0.9381 -0.0039 -0.3464
vn -0.9487 -0.0039 0.3162
vn -0.8550 0.4646 -0.2304
vn -0.8158 0.5270 -0.2381
vn -0.9989 0.0431 -0.0196
vn -0.9987 0.0431 0.0274
vn -0.9985 -0.0509 -0.0196
vn -0.8796 -0.0508 -0.4730
vn -0.7290 -0.5653 -0.3860
vn -0.9983 -0.0509 0.0274
vn -0.7434 -0.5411 -0.3931
vn -0.8807 -0.0039 -0.4737
vn -0.9146 -0.0039 0.4043
vn -0.8807 -0.0039 -0.4736
vn -0.7466 0.5355 -0.3948
vn -0.9987 0.0039 0.0509
vn -0.8774 -0.0039 0.4797
vt 0.480469 0.636475
vt 0.475342 0.633057
vt 0.478516 0.629395
vt 0.015030 0.672363
vt 0.011276 0.670410
vt 0.014351 0.666992
vt 0.011528 0.668945
vt 0.008537 0.661133
vt 0.014221 0.664795
vt 0.071655 0.290039
vt 0.069092 0.282715
vt 0.074280 0.282715
vt 0.031799 0.671631
vt 0.028091 0.671631
vt 0.030502 0.668213
vt 0.043335 0.657715
vt 0.041870 0.662354
vt 0.038422 0.660400
vt 0.673828 0.538330
vt 0.664062 0.660645
vt -0.089539 0.478516
vt -0.099182 0.600342
vt 0.133545 0.481445
vt 0.133545 0.671875
vt 0.019302 0.481445
vt 0.019302 0.671875
vt 0.066406 0.207031
vt 0.067078 0.188477
vt 0.192261 0.211426
vt 0.192871 0.192871
vt 0.730469 0.569824
vt -0.222412 0.569824
vt 0.730469 0.455566
vt -0.222412 0.455566
vt 1.261719 0.428711
vt 1.261719 0.543213
vt 0.223999 0.428711
vt 0.223999 0.543213
vt 0.541504 0.329102
vt 0.006790 0.309082
vt 0.545898 0.206543
vt 0.011177 0.186523
vt 0.224243 0.476562
vt 0.224243 0.362305
vt 1.259766 0.476562
vt 1.259766 0.362305
vt 0.734375 0.376953
vt 0.734375 0.491699
vt -0.220215 0.376953
vt -0.220215 0.491699
vt 0.454834 0.183594
vt 0.475830 0.182617
vt 0.459717 0.305664
vt 0.480713 0.305176
vt 0.093811 0.338379
vt -0.020599 0.338379
vt 0.093811 0.147461
vt -0.020599 0.147461
vt 0.009544 0.221680
vt 0.009544 0.081543
vt 0.020523 0.227539
vt 0.020523 0.076660
vt 0.063599 0.662354
vt 0.035461 0.671387
vt 0.055878 0.671387
vt 0.751953 0.400391
vt -0.148315 0.400391
vt 0.747070 0.388672
vt -0.148315 0.388672
vt 0.452637 0.649414
vt 0.477783 0.649414
vt 0.445557 0.656738
vt 0.482666 0.656738
vt -0.335205 -0.104492
vt 0.699219 -0.104492
vt -0.335205 -0.095703
vt 0.693359 -0.095703
vt -0.043182 0.640625
vt 0.591309 0.641846
vt -0.037201 0.649170
vt 0.584961 0.650635
vt 1.197266 0.606934
vt 0.190430 0.606934
vt 1.191406 0.596924
vt 0.190430 0.596924
vt 0.448486 0.664062
vt 0.483154 0.664062
vt 0.443359 0.671631
vt 0.490479 0.671631
vt -0.335205 0.481934
vt 0.612793 0.481934
vt -0.335205 0.494141
vt 0.607910 0.494141
vt 0.445801 0.631592
vt 0.465088 0.631592
vt 0.453857 0.639893
vt 0.471680 0.639893
vt 0.619629 0.505859
vt 0.756348 0.505859
vt 0.614746 0.516357
vt 0.762207 0.516357
vt 0.630859 0.681396
vt -0.143921 0.652588
vt 0.638184 0.672852
vt -0.150635 0.643555
vt 0.711914 0.670166
vt 0.711914 0.755859
vt -0.246216 0.670166
vt -0.246216 0.755859
vt 0.243530 0.631348
vt 1.201172 0.631348
vt 0.243774 0.647461
vt 1.212891 0.647949
vt 0.267334 0.535645
vt 1.187500 0.535645
vt 0.267334 0.585205
vt 1.187500 0.585205
vt -0.050323 0.637939
vt 0.598633 0.639404
vt 0.449951 0.660889
vt 0.481445 0.660889
vt 1.202148 0.610596
vt 0.190430 0.611328
vt 0.014015 0.367676
vt 0.017975 0.370117
vt 0.013802 0.392578
vt 0.017776 0.391602
vt 0.195190 0.212402
vt 0.196045 0.187988
vt 0.433105 0.653809
vt 0.437500 0.653564
vt 0.432861 0.677734
vt 0.437256 0.670410
vt 0.435303 0.674805
vt 0.500000 0.674805
vt 0.551270 0.203613
vt 0.006256 0.183594
vt 0.436035 0.659912
vt 0.490723 0.659912
vt 0.454346 0.309082
vt 0.481201 0.308105
vt 0.024597 0.234375
vt 0.024796 0.070312
vt -0.100220 0.603271
vt 0.665039 0.663574
vt 0.666992 0.660889
vt 0.676758 0.538574
vt -0.092468 0.478027
vt -0.102112 0.600098
vt 0.149414 0.643555
vt 0.149414 0.647705
vt 0.027344 0.643555
vt 0.027344 0.647705
vt 0.067200 0.185547
vt 0.192993 0.189941
vt 0.464355 0.248047
vt 0.460205 0.248047
vt 0.464355 0.125977
vt 0.460205 0.125977
vt 0.003851 0.309082
vt 0.008232 0.186523
vt 0.354980 0.273926
vt 0.354980 0.269531
vt 0.474854 0.275879
vt 0.474854 0.271484
vt 0.008125 0.078125
vt 0.018356 0.073730
vt 0.480957 0.648926
vt 0.486816 0.657471
vt 0.445068 0.663574
vt 0.438965 0.672119
vt 0.040741 0.647705
vt 0.042450 0.643555
vt 0.050507 0.647705
vt 0.054535 0.643555
vt 1.185547 0.532715
vt 0.267334 0.532715
vt 0.015572 0.480469
vt 0.017822 0.478516
vt 0.015488 0.672852
vt 0.017822 0.675049
vt 0.747559 0.383789
vt -0.153442 0.384277
vt -0.151367 0.392578
vt -0.151367 0.402344
vt -0.148315 0.405762
vt 0.759277 0.404297
vt 0.027069 0.675049
vt 0.054688 0.675049
vt 0.059357 0.673584
vt 0.067993 0.663330
vt 1.201172 0.605225
vt 1.195312 0.595215
vt 1.191406 0.592773
vt 0.185059 0.593018
vt 0.733398 0.457031
vt 0.735840 0.451660
vt -0.219971 0.452148
vt -0.222412 0.451660
vt 1.262695 0.363770
vt 1.264648 0.358398
vt 0.226440 0.358398
vt 0.224243 0.357910
vt 0.363037 0.279297
vt 0.363037 0.283691
vt 0.360107 0.280762
vt 0.482910 0.285645
vt 0.483154 0.281250
vt 0.005436 0.221191
vt 0.005051 0.082520
vt 0.007980 0.225098
vt 0.018555 0.230469
vt 0.708496 0.761841
vt 0.720215 0.778320
vt -0.244019 0.778320
vt -0.244141 0.762329
vt -0.244263 0.758057
vt 0.707031 0.758057
vt -0.338379 0.479492
vt -0.335205 0.476562
vt 0.620605 0.478027
vt -0.335205 0.449219
vt 0.704102 0.448242
vt 0.616211 0.486328
vt 0.611328 0.497070
vt 0.607910 0.499023
vt 0.616211 0.502930
vt 0.620605 0.500244
vt -0.340820 0.499023
vt -0.338379 0.489258
vt 0.611328 0.512695
vt 0.607910 0.521240
vt 0.756348 0.500977
vt 0.760254 0.502930
vt 0.760254 -0.156250
vt 0.765625 0.512939
vt 0.756348 -0.157227
vt 0.704102 -0.108398
vt 0.769531 0.520996
vt 0.769531 -0.164062
vt 0.765625 -0.158203
vt 0.762207 -0.162109
vt 0.594238 0.533691
vt 0.786133 0.533936
vt 0.594238 0.511475
vt 0.786133 -0.178711
vt -0.358643 0.511963
vt 0.604004 -0.165039
vt -0.361084 0.510986
vt -0.361084 0.431641
vt 0.595215 -0.182617
vt 0.785156 -0.182617
vt 0.593750 -0.178711
vt 0.604004 -0.139648
vt 0.593750 -0.153320
vt -0.340576 -0.138672
vt 0.588867 -0.157227
vt 0.592285 -0.160156
vt -0.361084 -0.157227
vt -0.358887 -0.154297
vt -0.361084 -0.153320
vt -0.340576 -0.090820
vt -0.361084 -0.077148
vt -0.358887 -0.076172
vt -0.338379 -0.099609
vt 0.692871 -0.090820
vt 0.676758 -0.076172
vt 0.692871 0.442871
vt 0.676758 0.430664
vt 0.696777 -0.091797
vt 0.696777 0.441895
vt 0.702637 -0.101562
vt -0.340820 0.442871
vt 0.671387 0.427246
vt 0.674316 0.424805
vt -0.361084 0.427246
vt -0.358643 0.430664
vt -0.335205 -0.110352
vt -0.338379 -0.107422
vt -0.335205 -0.128906
vt 0.616211 -0.130859
vt 0.616211 -0.156250
vt 0.611816 -0.136719
vt 0.611816 -0.156250
vt 0.608398 -0.132812
s 1
usemtl MASTER_Concrete_Smooth
f 1/1/1 2/2/2 3/3/3
f 4/4/4 5/5/5 6/6/2
f 7/7/6 8/8/4 9/9/7
f 10/10/4 11/11/8 12/12/9
f 13/13/4 14/14/10 15/15/11
f 16/16/4 17/17/12 18/18/13
f 19/19/14 20/20/14 21/21/14
f 20/20/14 15/22/14 21/21/14
f 22/23/15 23/24/15 24/25/15
f 23/24/15 25/26/15 24/25/15
f 26/27/16 27/28/16 28/29/16
f 27/28/16 29/30/16 28/29/16
f 30/31/15 31/32/15 32/33/15
f 31/32/15 33/34/15 32/33/15
f 34/35/17 35/36/18 36/37/17
f 35/36/18 37/38/17 36/37/17
f 38/39/16 39/40/16 40/41/16
f 39/40/16 41/42/16 40/41/16
f 42/43/15 43/44/15 44/45/15
f 43/44/15 45/46/15 44/45/15
f 46/47/17 47/48/17 48/49/17
f 47/48/17 49/50/17 48/49/17
f 50/51/16 51/52/16 52/53/16
f 51/52/16 53/54/16 52/53/16
f 54/55/17 14/56/17 55/57/17
f 14/56/17 56/58/17 55/57/17
f 57/59/19 18/60/19 58/61/19
f 18/60/19 11/62/19 58/61/19
f 17/17/20 59/63/20 12/64/20
f 59/63/20 60/65/20 12/64/20
f 61/66/21 62/67/21 63/68/22
f 62/67/21 64/69/21 63/68/22
f 65/70/14 66/71/14 67/72/14
f 66/71/14 68/73/14 67/72/14
f 69/74/23 70/75/23 71/76/24
f 70/75/23 72/77/23 71/76/24
f 73/78/25 3/79/25 74/80/25
f 3/79/25 75/81/25 74/80/25
f 2/82/26 6/83/26 76/84/26
f 6/83/26 9/85/26 76/84/26
f 5/86/14 77/87/14 7/88/14
f 77/87/14 78/89/14 7/88/14
f 79/90/27 80/91/27 81/92/27
f 80/91/27 82/93/27 81/92/27
f 83/94/28 84/95/28 85/96/28
f 84/95/28 86/97/28 85/96/28
f 87/98/29 88/99/29 89/100/29
f 88/99/29 90/101/29 89/100/29
f 91/102/30 92/103/30 93/104/30
f 92/103/30 94/105/30 93/104/30
f 95/106/17 96/107/17 97/108/17
f 96/107/17 98/109/17 97/108/17
f 99/110/4 100/111/4 101/112/31
f 100/111/4 102/113/31 101/112/31
f 103/114/15 104/115/15 105/116/15
f 104/115/15 106/117/15 105/116/15
f 73/78/32 107/118/33 3/79/3
f 107/118/33 1/119/1 3/79/3
f 5/86/5 4/120/4 77/87/34
f 4/120/4 108/121/4 77/87/34
f 2/82/2 1/122/1 6/83/2
f 1/122/1 4/123/4 6/83/2
f 65/124/35 109/125/4 66/126/36
f 109/125/4 110/127/37 66/126/36
f 111/128/38 28/29/39 112/129/4
f 28/29/39 29/30/40 112/129/4
f 113/130/4 85/131/41 114/132/4
f 85/131/41 86/133/42 114/132/4
f 8/134/4 7/88/6 115/135/4
f 7/88/6 78/89/43 115/135/4
f 116/136/4 40/41/44 117/137/4
f 40/41/44 41/42/45 117/137/4
f 118/138/4 67/72/46 119/139/4
f 67/72/46 68/73/47 119/139/4
f 120/140/4 52/53/48 121/141/4
f 52/53/48 53/54/49 121/141/4
f 122/142/4 58/61/50 10/143/4
f 58/61/50 11/62/8 10/143/4
f 13/144/4 15/22/11 123/145/38
f 15/22/11 20/20/51 123/145/38
f 24/146/52 20/20/51 22/147/53
f 20/20/51 19/19/54 22/147/54
f 54/148/55 21/21/55 14/149/10
f 21/21/55 15/22/11 14/149/10
f 23/150/56 26/151/56 25/152/57
f 26/151/56 28/153/39 25/152/57
f 27/28/56 30/154/56 29/30/58
f 30/154/56 32/155/59 29/30/40
f 40/156/44 35/157/60 38/158/61
f 35/157/60 34/159/61 38/158/61
f 39/40/56 44/160/56 41/42/45
f 44/160/56 45/161/62 41/42/45
f 52/162/48 47/163/63 50/164/61
f 47/163/63 46/165/61 50/164/61
f 18/60/13 17/166/12 11/62/8
f 17/166/12 12/167/9 11/62/8
f 66/71/36 69/168/64 68/73/47
f 69/168/64 71/169/65 68/73/47
f 6/170/2 5/86/5 9/171/7
f 5/86/5 7/88/6 9/171/7
f 77/172/34 79/173/66 78/174/43
f 79/173/66 81/175/67 78/174/43
f 102/176/31 104/115/68 101/177/31
f 104/115/68 103/114/68 101/177/31
f 123/178/38 20/179/51 24/25/52
f 123/178/38 24/25/52 111/180/38
f 24/25/52 25/26/57 111/180/38
f 25/26/57 28/181/39 111/180/38
f 124/182/4 63/68/69 118/183/4
f 63/68/69 64/69/69 118/183/4
f 67/184/46 118/183/4 64/69/69
f 65/185/35 67/184/46 64/69/69
f 62/67/70 65/185/35 64/69/69
f 65/185/35 62/67/70 109/186/4
f 125/187/4 109/186/4 62/67/70
f 61/66/71 125/187/4 62/67/70
f 10/188/4 12/64/9 124/189/4
f 12/64/9 60/65/72 124/189/4
f 63/190/69 124/189/4 60/65/72
f 61/191/71 63/190/69 60/65/72
f 59/63/73 61/191/71 60/65/72
f 3/192/3 2/82/2 75/193/74
f 2/82/2 76/84/75 75/193/74
f 76/84/75 126/194/4 75/193/74
f 126/194/4 76/84/75 8/195/4
f 76/84/75 9/85/7 8/195/4
f 29/196/40 32/33/59 112/197/4
f 112/197/4 32/33/59 127/198/4
f 32/33/59 33/34/76 127/198/4
f 128/199/4 127/198/4 33/34/76
f 41/200/45 45/46/62 117/201/4
f 117/201/4 45/46/62 129/202/4
f 45/46/62 43/44/26 129/202/4
f 130/203/4 129/202/4 43/44/26
f 53/204/49 56/205/77 121/206/4
f 56/205/77 53/204/49 55/207/61
f 53/204/78 51/208/61 55/207/61
f 131/209/79 16/210/4 18/60/13
f 57/59/80 131/209/79 18/60/13
f 131/209/79 57/59/80 92/211/81
f 92/211/81 57/59/80 94/212/82
f 57/59/80 58/61/50 94/212/82
f 132/213/83 133/214/4 134/215/4
f 135/216/83 132/213/83 134/215/4
f 135/216/83 98/217/84 132/213/83
f 98/217/84 96/218/84 132/213/83
f 79/90/66 77/219/34 108/220/4
f 79/90/66 108/220/4 80/91/66
f 108/220/4 136/221/4 80/91/66
f 136/221/4 108/220/4 4/222/4
f 1/223/1 136/221/4 4/222/4
f 136/221/4 83/224/85 80/91/66
f 80/91/66 83/224/85 82/93/67
f 83/224/85 85/225/41 82/93/67
f 85/225/41 113/226/4 82/93/67
f 83/224/85 136/221/4 84/227/86
f 81/92/67 82/93/67 113/226/4
f 136/221/4 137/228/4 84/227/86
f 81/92/67 115/229/4 78/230/43
f 115/229/4 81/92/67 113/226/4
f 87/98/87 84/227/86 137/228/4
f 84/227/86 87/98/87 86/231/42
f 87/98/87 89/100/88 86/231/42
f 87/98/87 137/228/4 88/99/89
f 89/100/88 114/232/4 86/231/42
f 137/228/4 138/233/90 88/99/89
f 138/233/90 137/228/4 136/221/4
f 1/223/1 138/233/90 136/221/4
f 138/233/90 91/234/91 88/99/89
f 88/99/89 91/234/91 90/101/92
f 91/234/91 138/233/90 92/235/81
f 91/234/91 93/236/93 90/101/92
f 138/233/90 131/237/79 92/235/81
f 138/233/90 1/223/1 131/237/79
f 1/223/1 107/238/33 131/237/79
f 89/100/88 90/101/92 139/239/38
f 93/236/93 139/239/38 90/101/92
f 114/232/4 89/100/88 139/239/38
f 139/239/38 93/236/93 122/240/4
f 93/236/93 94/241/82 122/240/4
f 58/242/50 122/240/4 94/241/82
f 111/243/38 114/232/4 139/239/38
f 123/244/38 111/243/38 139/239/38
f 123/244/38 139/239/38 122/240/4
f 111/243/38 112/245/4 114/232/4
f 13/246/4 123/244/38 122/240/4
f 112/245/4 113/226/4 114/232/4
f 112/245/4 127/247/4 113/226/4
f 13/246/4 122/240/4 10/248/4
f 127/247/4 115/229/4 113/226/4
f 127/247/4 128/249/4 115/229/4
f 128/249/4 140/250/94 115/229/4
f 56/251/77 14/252/10 13/246/4
f 121/253/4 56/251/77 13/246/4
f 121/253/4 13/246/4 10/248/4
f 121/253/4 10/248/4 124/254/4
f 120/255/4 121/253/4 124/254/4
f 120/255/4 124/254/4 118/256/4
f 47/257/63 52/258/48 120/255/4
f 49/259/95 47/257/63 120/255/4
f 141/260/37 120/255/4 118/256/4
f 141/260/37 49/259/95 120/255/4
f 49/259/95 141/260/37 142/261/96
f 141/260/37 118/256/4 119/262/4
f 142/261/96 141/260/37 119/262/4
f 130/263/4 142/261/96 119/262/4
f 129/264/4 130/263/4 119/262/4
f 71/76/65 119/262/4 68/265/47
f 129/264/4 119/262/4 143/266/38
f 119/262/4 71/76/65 143/266/38
f 117/267/4 129/264/4 143/266/38
f 71/76/65 72/77/65 143/266/38
f 117/267/4 143/266/38 126/268/4
f 116/269/4 117/267/4 126/268/4
f 74/270/97 143/266/38 72/77/65
f 143/266/38 74/270/97 126/268/4
f 74/270/97 75/271/74 126/268/4
f 73/272/32 74/270/97 72/77/65
f 70/75/98 73/272/32 72/77/65
f 116/269/4 126/268/4 8/273/4
f 73/272/32 70/75/98 107/238/33
f 35/274/60 40/275/44 116/269/4
f 37/276/99 35/274/60 116/269/4
f 144/277/4 116/269/4 8/273/4
f 144/277/4 37/276/99 116/269/4
f 144/277/4 8/273/4 115/229/4
f 37/276/99 144/277/4 140/250/94
f 140/250/94 144/277/4 115/229/4
f 110/278/37 107/238/33 70/75/98
f 69/74/64 110/278/37 70/75/98
f 69/74/64 66/279/36 110/278/37
f 110/278/37 109/280/4 107/238/33
f 109/280/4 125/281/4 107/238/33
f 107/238/33 125/281/4 131/237/79
f 125/281/4 16/282/4 131/237/79
f 16/282/4 125/281/4 59/283/73
f 17/284/12 16/282/4 59/283/73
f 125/281/4 61/285/71 59/283/73
