# Blender 3.6.18
# www.blender.org
mtllib Mesh.493.mtl
o Bistro_Research_Exterior_paris_building_11_5575
v 12.062490 6.850975 25.046202
v 10.217236 6.851686 24.291483
v 12.377499 6.850975 24.275839
v 10.532243 6.851685 23.521116
v 8.148459 6.851686 23.445545
v 8.463469 6.851685 22.675180
v 7.217025 6.847145 23.067514
v 7.925662 6.847145 22.458105
v -0.180087 6.851686 20.039944
v -1.682373 6.850975 19.425829
v 0.134921 6.851685 19.269579
v -0.484535 6.850975 19.016460
v 1.604721 6.851686 20.769764
v 1.919729 6.851685 19.999399
v 2.760549 6.847145 21.245228
v 2.756402 6.847145 20.344358
vn -0.0039 -1.0000 -0.0039
vn -0.0019 -1.0000 -0.0048
vn 0.0011 -1.0000 -0.0050
vn 0.0039 -1.0000 -0.0039
vn -0.0099 -0.9999 -0.0043
vn -0.0075 -1.0000 -0.0046
vn -0.0118 -0.9999 -0.0039
vt 2.886719 -1.568359
vt 2.263672 -1.568359
vt 2.886719 -1.830078
vt 2.263672 -1.830078
vt 1.566406 -1.568359
vt 1.566406 -1.830078
vt 1.251953 -1.568359
vt 1.384766 -1.828125
vt -1.245117 -1.568359
vt -1.751953 -1.568359
vt -1.245117 -1.830078
vt -1.454102 -1.830078
vt -0.642578 -1.568359
vt -0.642578 -1.830078
vt -0.252197 -1.568359
vt -0.359863 -1.828125
s 1
usemtl MASTER_Concrete_Plaster
f 1/1/1 2/2/1 3/3/1
f 2/2/1 4/4/1 3/3/1
f 2/2/1 5/5/2 4/4/1
f 5/5/2 6/6/3 4/4/1
f 5/5/2 7/7/4 6/6/3
f 7/7/4 8/8/4 6/6/3
f 9/9/1 10/10/1 11/11/1
f 10/10/1 12/12/1 11/11/1
f 13/13/5 9/9/1 14/14/6
f 9/9/1 11/11/1 14/14/6
f 15/15/7 13/13/5 16/16/7
f 13/13/5 14/14/6 16/16/7
