# Blender 3.6.18
# www.blender.org
mtllib Mesh.976.mtl
o Bistro_Research_Exterior_Paris_Building_01_paris_buildi_5a5468f
v -2.979061 11.348386 -4.263608
v -2.977882 11.348083 -4.276998
v -2.953737 11.324402 -4.263337
v -2.953385 11.324127 -4.276019
v -3.033691 11.512540 -4.265449
v -3.032692 11.512254 -4.277504
v -3.011195 11.491235 -4.265553
v -3.010932 11.490974 -4.276623
v -2.679022 12.247198 -3.744608
v -2.723455 12.247411 -3.725644
v -2.723439 11.795166 -3.725645
v -2.679032 11.785716 -3.744603
v -2.728835 11.780058 -3.738281
v -2.684441 11.770550 -3.757227
v -2.835902 11.324783 -4.273834
v -2.837095 11.325095 -4.258423
v -2.841508 11.378045 -4.135350
v -2.893361 11.383794 -4.122725
v -2.841356 11.394011 -4.123551
v -2.888583 11.399372 -4.111588
v -2.760138 12.310933 -3.808572
v -2.799345 12.311123 -3.791124
v -2.799330 11.909403 -3.791124
v -2.760147 11.901010 -3.808568
v -2.804294 11.895984 -3.802274
v -2.765123 11.887538 -3.819706
v -2.906563 11.491557 -4.274693
v -2.907530 11.491850 -4.262775
v -2.922082 11.538885 -4.182140
v -2.967964 11.543991 -4.170220
v -2.921787 11.553066 -4.171662
v -2.963569 11.557829 -4.160395
v -2.704267 11.779765 -4.790544
v -2.660778 11.770256 -4.769604
v -2.751325 11.769458 -4.692860
v -2.705150 11.760122 -4.677784
v -2.789372 11.741621 -4.614110
v -2.743197 11.732285 -4.599034
v -2.821624 11.697461 -4.547353
v -2.775450 11.688127 -4.532279
v -2.818510 11.763119 -4.607284
v -2.851094 11.633452 -4.486355
v -2.804920 11.624119 -4.471281
v -2.849797 11.721002 -4.542539
v -2.872961 11.546513 -4.441094
v -2.826787 11.537177 -4.426020
v -2.878161 11.658366 -4.483840
v -2.834144 11.393718 -4.410773
v -2.880780 11.399078 -4.424864
v -2.898922 11.572798 -4.440877
v -2.909154 11.415698 -4.419694
v -2.979492 12.246867 -4.274395
v -2.914605 11.400437 -4.408414
v -2.886058 11.383500 -4.413957
v -2.781428 11.788913 -4.684022
v -2.739463 11.803718 -4.771140
v -2.733543 11.819608 -4.783432
v -2.733552 12.247118 -4.783436
v -2.698304 11.794872 -4.802923
v -2.698320 12.247118 -4.802924
v -2.654802 11.785423 -4.781970
v -2.654793 12.246905 -4.781965
v -2.834831 11.377752 -4.398993
v -2.782551 11.895691 -4.730039
v -2.744210 11.887245 -4.710848
v -2.825677 11.886535 -4.643919
v -2.784871 11.878242 -4.629900
v -2.860541 11.861808 -4.574493
v -2.819735 11.853517 -4.560475
v -2.890095 11.822582 -4.515641
v -2.849290 11.814291 -4.501623
v -2.886513 11.880904 -4.568827
v -2.917100 11.765724 -4.461866
v -2.876295 11.757433 -4.447848
v -2.915184 11.843493 -4.511749
v -2.942234 11.681633 -4.411416
v -2.901429 11.673342 -4.397398
v -2.941175 11.787854 -4.460000
v -2.916674 11.552773 -4.366358
v -2.957902 11.557536 -4.379509
v -2.965295 11.704982 -4.411576
v -2.983174 11.572298 -4.375303
v -3.034121 12.310622 -4.275187
v -2.988169 11.558742 -4.365358
v -2.962739 11.543697 -4.369893
v -2.852533 11.903816 -4.636479
v -2.814075 11.916966 -4.713284
v -2.808650 11.931082 -4.724120
v -2.808658 12.310830 -4.724125
v -2.777086 11.909110 -4.740952
v -2.777101 12.310830 -4.740953
v -2.738734 11.900717 -4.721750
v -2.738726 12.310640 -4.721745
v -2.917444 11.538592 -4.355905
v -2.771415 11.769751 -3.837999
v -2.724604 11.760416 -3.850965
v -2.805851 11.741914 -3.918394
v -2.759040 11.732578 -3.931359
v -2.835043 11.697755 -3.986544
v -2.788232 11.688419 -3.999509
v -2.834650 11.763412 -3.926534
v -2.861716 11.633745 -4.048815
v -2.814906 11.624412 -4.061780
v -2.763115 11.804010 -3.759262
v -2.881508 11.546805 -4.095021
v -2.834698 11.537470 -4.107986
v -2.801085 11.789206 -3.848193
v -2.980209 12.247009 -4.266228
v -2.757758 11.819901 -3.746714
v -2.907433 11.573091 -4.096415
v -2.916694 11.415991 -4.118041
v -2.888642 11.658659 -4.052556
v -2.921627 11.400730 -4.129557
v -2.862969 11.721294 -3.992630
v -2.757767 12.247411 -3.746710
v -2.843470 11.886827 -3.890261
v -2.802071 11.878535 -3.902415
v -2.875150 11.862102 -3.961196
v -2.833751 11.853809 -3.973350
v -2.902005 11.822876 -4.021328
v -2.860606 11.814584 -4.033481
v -2.900839 11.881197 -3.968034
v -2.926544 11.766017 -4.076272
v -2.885145 11.757726 -4.088426
v -2.835027 11.917259 -3.820441
v -2.949364 11.681927 -4.127811
v -2.907966 11.673635 -4.139963
v -2.869962 11.904109 -3.898911
v -3.034746 12.310765 -4.267760
v -2.830098 11.931375 -3.809371
v -2.972409 11.705275 -4.128696
v -2.988624 11.572592 -4.165743
v -2.950509 11.788147 -4.079228
v -2.993163 11.559034 -4.175904
v -2.926892 11.843785 -4.026354
v -2.830106 12.311123 -3.809366
vn -0.9216 -0.0039 0.3882
vn -0.9013 -0.0039 -0.4331
vn -0.3795 -0.8959 0.2308
vn -0.3621 -0.8993 -0.2453
vn -0.9117 -0.0039 0.4108
vn -0.8905 -0.0039 -0.4550
vn -0.3650 -0.8908 0.2708
vn -0.3541 -0.8910 -0.2841
vn 0.3911 -0.0039 0.9204
vn -0.0749 -0.0039 0.9972
vn -0.1216 -0.3021 0.9455
vn 0.2868 -0.4047 0.8683
vn -0.3167 -0.7546 0.5747
vn 0.0039 -0.8889 0.4582
vn 0.0039 -0.9800 -0.1991
vn -0.0039 -0.9784 0.2066
vn 0.0430 -0.8172 0.5748
vn -0.2156 -0.7174 0.6625
vn 0.1846 -0.3966 0.8992
vn -0.0746 -0.3574 0.9309
vn 0.4072 -0.0040 0.9133
vn -0.0670 -0.0039 0.9977
vn -0.1061 -0.3026 0.9472
vn 0.2940 -0.4038 0.8663
vn -0.3082 -0.7530 0.5814
vn 0.0039 -0.8889 0.4581
vn 0.0117 -0.9712 -0.2379
vn 0.0039 -0.9690 0.2472
vn 0.0588 -0.7799 0.6231
vn -0.1996 -0.6850 0.7007
vn 0.1771 -0.4605 0.8698
vn -0.0900 -0.4186 0.9037
vn -0.2842 -0.7513 -0.5956
vn 0.0195 -0.8855 -0.4642
vn -0.3789 -0.8477 -0.3711
vn -0.1057 -0.9592 -0.2623
vn -0.3319 -0.7770 -0.5349
vn -0.0352 -0.8883 -0.4579
vn -0.2685 -0.6733 -0.6889
vn 0.0429 -0.7767 -0.6284
vn -0.1745 -0.5236 -0.8339
vn 0.1282 -0.6019 -0.7883
vn -0.0273 -0.2617 -0.9648
vn 0.2309 -0.2936 -0.9276
vn 0.2221 -0.3934 -0.8921
vn -0.0274 -0.3557 -0.9342
vn -0.8983 -0.0039 -0.4394
vn -0.1835 -0.7143 -0.6753
vn -0.0821 -0.3011 -0.9501
vn -0.0353 -0.0039 -0.9994
vn 0.3244 -0.4026 -0.8560
vn 0.4268 -0.0039 -0.9044
vn 0.0738 -0.8120 -0.5789
vn -0.2757 -0.7495 -0.6019
vn 0.0273 -0.8853 -0.4641
vn -0.3778 -0.8453 -0.3778
vn -0.1055 -0.9572 -0.2695
vn -0.3165 -0.7777 -0.5432
vn -0.0274 -0.8885 -0.4580
vn -0.2526 -0.6724 -0.6957
vn 0.0507 -0.7764 -0.6282
vn -0.8936 -0.0039 -0.4488
vn -0.1746 -0.5471 -0.8186
vn 0.1286 -0.6276 -0.7679
vn -0.0584 -0.3620 -0.9303
vn 0.2154 -0.4035 -0.8893
vn 0.2148 -0.4570 -0.8632
vn -0.0429 -0.4169 -0.9079
vn -0.1674 -0.6814 -0.7125
vn -0.0665 -0.3014 -0.9512
vn -0.0196 -0.0039 -0.9998
vn 0.3314 -0.4016 -0.8538
vn 0.4425 -0.0039 -0.8968
vn 0.0822 -0.7786 -0.6221
vn -0.4021 -0.8471 0.3474
vn -0.1214 -0.9594 0.2546
vn -0.3554 -0.7771 0.5194
vn -0.0588 -0.8905 0.4511
vn -0.3002 -0.6745 0.6745
vn 0.0196 -0.7811 0.6241
vn -0.2158 -0.5298 0.8202
vn 0.0980 -0.6077 0.7881
vn -0.9215 -0.0039 0.3883
vn -0.0746 -0.2630 0.9619
vn 0.1934 -0.2960 0.9354
vn -0.9215 -0.0039 0.3882
vn -0.9215 -0.0040 0.3882
vn -0.9216 -0.0003 0.3882
vn -0.3944 -0.8474 0.3554
vn -0.1137 -0.9603 0.2548
vn -0.3485 -0.7793 0.5208
vn -0.0510 -0.8909 0.4513
vn -0.2859 -0.6776 0.6776
vn 0.0275 -0.7810 0.6240
vn -0.9146 -0.0039 0.4043
vn -0.2070 -0.5508 0.8086
vn 0.0978 -0.6298 0.7706
vn -0.1062 -0.3659 0.9246
vn 0.1776 -0.4066 0.8962
vn -0.9159 -0.0039 0.4014
vn -0.9146 -0.0003 0.4043
vt 0.500977 0.033203
vt 0.494141 0.026367
vt 0.511230 0.007812
vt 0.504395 0.000977
vt 1.000000 1.000000
vt 0.153931 1.000000
vt 0.204224 0.511963
vt 1.000000 0.508545
vt 0.203369 -0.420898
vt 1.004883 -0.489258
vt 0.830566 0.505615
vt 0.000000 0.505859
vt 0.000000 0.491211
vt 0.830078 0.492676
vt 0.000000 0.350098
vt 0.781738 0.331055
vt -0.005119 0.212891
vt 0.741211 0.190430
vt 0.987305 0.497070
vt 0.986328 0.497070
vt 0.888672 0.490723
vt 0.831543 0.444824
vt 0.774414 0.398926
vt 0.820312 0.463867
vt 0.734375 0.314453
vt 0.764648 0.419922
vt 0.694336 0.229980
vt 0.726562 0.336914
vt 0.686035 0.017090
vt 0.686035 0.016602
vt 0.688477 0.254395
vt 0.671387 0.042480
vt 0.503418 0.994061
vt 0.658691 0.026855
vt 0.679199 0.027344
vt 0.682617 -0.004883
vt 0.662109 -0.004883
vt 0.495117 -0.007812
vt 0.507324 0.026367
vt 0.875977 0.507324
vt 0.973633 0.531982
vt 0.982910 0.537598
vt 0.982910 1.000000
vt 1.004883 0.518555
vt 1.008789 0.985916
vt 0.955566 0.548096
vt 0.979004 0.526611
vt 0.496338 0.994015
s 1
usemtl MASTER_Concrete_Yellow
f 1/1/1 2/2/2 3/3/3
f 2/2/2 4/4/4 3/3/3
f 5/1/5 6/2/6 7/3/7
f 6/2/6 8/4/8 7/3/7
f 9/5/9 10/6/10 11/7/11
f 12/8/12 9/5/9 11/7/11
f 12/8/12 11/7/11 13/9/13
f 14/10/14 12/8/12 13/9/13
f 4/11/4 15/12/15 16/13/16
f 3/14/3 4/11/4 16/13/16
f 3/14/3 16/13/16 17/15/17
f 18/16/18 3/14/3 17/15/17
f 18/16/18 17/15/17 19/17/19
f 20/18/20 18/16/18 19/17/19
f 21/5/21 22/6/22 23/7/23
f 24/8/24 21/5/21 23/7/23
f 24/8/24 23/7/23 25/9/25
f 26/10/26 24/8/24 25/9/25
f 8/11/8 27/12/27 28/13/28
f 7/14/7 8/11/8 28/13/28
f 7/14/7 28/13/28 29/15/29
f 30/16/30 7/14/7 29/15/29
f 30/16/30 29/15/29 31/17/31
f 32/18/32 30/16/30 31/17/31
f 33/19/33 34/20/34 35/21/35
f 34/20/34 36/21/36 35/21/35
f 35/21/35 36/21/36 37/22/37
f 36/21/36 38/22/38 37/22/37
f 37/22/37 38/22/38 39/23/39
f 38/22/38 40/23/40 39/23/39
f 41/24/2 37/22/37 39/23/39
f 37/22/37 41/24/2 35/21/35
f 39/23/39 40/23/40 42/25/41
f 40/23/40 43/25/42 42/25/41
f 44/26/2 41/24/2 39/23/39
f 42/25/41 43/25/42 45/27/43
f 43/25/42 46/27/44 45/27/43
f 42/25/41 47/28/2 39/23/39
f 47/28/2 44/26/2 39/23/39
f 47/28/2 42/25/41 45/27/43
f 46/27/44 48/29/45 49/30/46
f 45/27/43 46/27/44 49/30/46
f 50/31/47 45/27/43 49/30/46
f 50/31/47 47/28/2 45/27/43
f 51/32/47 50/31/47 49/30/46
f 47/28/2 52/33/2 44/26/2
f 50/31/47 52/33/2 47/28/2
f 51/32/47 52/33/2 50/31/47
f 44/26/2 52/33/2 41/24/2
f 53/34/2 52/33/2 51/32/47
f 51/35/47 49/36/46 53/34/2
f 49/36/46 54/37/48 53/34/2
f 54/37/48 4/38/4 53/34/2
f 4/38/4 2/39/2 53/34/2
f 2/39/2 52/33/2 53/34/2
f 41/24/2 52/33/2 55/40/2
f 41/24/2 55/40/2 35/21/35
f 55/40/2 56/41/2 35/21/35
f 55/40/2 52/33/2 56/41/2
f 56/41/2 33/19/33 35/21/35
f 56/41/2 52/33/2 57/42/2
f 57/42/2 52/33/2 58/43/2
f 59/44/49 57/42/2 58/43/2
f 60/45/50 59/44/49 58/43/2
f 56/46/2 57/42/2 59/44/49
f 33/47/33 56/46/2 59/44/49
f 34/10/34 33/9/33 61/8/51
f 33/9/33 59/7/49 61/8/51
f 61/8/51 59/7/49 62/5/52
f 59/7/49 60/6/50 62/5/52
f 49/18/46 48/17/45 54/16/48
f 48/17/45 63/15/53 54/16/48
f 54/16/48 63/15/53 4/14/4
f 63/15/53 15/13/15 4/14/4
f 64/19/54 65/20/55 66/21/56
f 65/20/55 67/21/57 66/21/56
f 66/21/56 67/21/57 68/22/58
f 67/21/57 69/22/59 68/22/58
f 68/22/58 69/22/59 70/23/60
f 69/22/59 71/23/61 70/23/60
f 72/24/62 68/22/58 70/23/60
f 68/22/58 72/24/62 66/21/56
f 70/23/60 71/23/61 73/25/63
f 71/23/61 74/25/64 73/25/63
f 75/26/62 72/24/62 70/23/60
f 73/25/63 74/25/64 76/27/65
f 74/25/64 77/27/66 76/27/65
f 73/25/63 78/28/62 70/23/60
f 78/28/62 75/26/62 70/23/60
f 78/28/62 73/25/63 76/27/65
f 77/27/66 79/29/67 80/30/68
f 76/27/65 77/27/66 80/30/68
f 81/31/62 76/27/65 80/30/68
f 81/31/62 78/28/62 76/27/65
f 82/32/62 81/31/62 80/30/68
f 78/28/62 83/33/62 75/26/62
f 81/31/62 83/33/62 78/28/62
f 82/32/62 83/33/62 81/31/62
f 75/26/62 83/33/62 72/24/62
f 84/34/6 83/33/62 82/32/62
f 82/35/62 80/36/68 84/34/6
f 80/36/68 85/37/69 84/34/6
f 85/37/69 8/38/8 84/34/6
f 8/38/8 6/39/6 84/34/6
f 6/39/6 83/33/62 84/34/6
f 72/24/62 83/33/62 86/40/62
f 72/24/62 86/40/62 66/21/56
f 86/40/62 87/41/62 66/21/56
f 86/40/62 83/33/62 87/41/62
f 87/41/62 64/19/54 66/21/56
f 87/41/62 83/33/62 88/42/62
f 88/42/62 83/33/62 89/43/62
f 90/44/70 88/42/62 89/43/62
f 91/45/71 90/44/70 89/43/62
f 87/46/62 88/42/62 90/44/70
f 64/47/54 87/46/62 90/44/70
f 65/10/55 64/9/54 92/8/72
f 64/9/54 90/7/70 92/8/72
f 92/8/72 90/7/70 93/5/73
f 90/7/70 91/6/71 93/5/73
f 80/18/68 79/17/67 85/16/69
f 79/17/67 94/15/74 85/16/69
f 85/16/69 94/15/74 8/14/8
f 94/15/74 27/13/27 8/14/8
f 13/19/13 95/21/75 14/20/14
f 95/21/75 96/21/76 14/20/14
f 95/21/75 97/22/77 96/21/76
f 97/22/77 98/22/78 96/21/76
f 97/22/77 99/23/79 98/22/78
f 99/23/79 100/23/80 98/22/78
f 99/23/79 97/22/77 101/24/1
f 97/22/77 95/21/75 101/24/1
f 99/23/79 102/25/81 100/23/80
f 102/25/81 103/25/82 100/23/80
f 95/21/75 13/19/13 104/41/83
f 102/25/81 105/27/84 103/25/82
f 105/27/84 106/27/85 103/25/82
f 107/40/1 95/21/75 104/41/83
f 95/21/75 107/40/1 101/24/1
f 20/30/20 19/29/19 106/27/85
f 105/27/84 20/30/20 106/27/85
f 107/40/1 104/41/83 108/33/1
f 101/24/1 107/40/1 108/33/1
f 104/41/83 109/42/1 108/33/1
f 20/30/20 105/27/84 110/31/86
f 111/32/87 20/30/20 110/31/86
f 111/32/87 110/31/86 108/33/1
f 110/31/86 105/27/84 112/28/1
f 105/27/84 102/25/81 112/28/1
f 110/31/86 112/28/1 108/33/1
f 102/25/81 99/23/79 112/28/1
f 113/34/86 111/32/87 108/33/1
f 99/23/79 114/26/1 112/28/1
f 114/26/1 99/23/79 101/24/1
f 112/28/1 114/26/1 108/33/1
f 114/26/1 101/24/1 108/33/1
f 111/35/87 113/34/86 20/36/20
f 113/34/86 18/37/18 20/36/20
f 18/37/18 113/34/86 3/38/3
f 113/34/86 1/39/1 3/38/3
f 1/39/1 113/34/86 108/33/1
f 1/39/1 108/33/1 52/48/2
f 2/2/2 1/39/1 52/48/2
f 109/42/1 115/43/88 108/33/1
f 115/43/88 109/42/1 11/44/11
f 10/45/10 115/43/88 11/44/11
f 11/44/11 109/42/1 104/46/83
f 13/47/13 11/44/11 104/46/83
f 25/19/25 116/21/89 26/20/26
f 116/21/89 117/21/90 26/20/26
f 116/21/89 118/22/91 117/21/90
f 118/22/91 119/22/92 117/21/90
f 118/22/91 120/23/93 119/22/92
f 120/23/93 121/23/94 119/22/92
f 120/23/93 118/22/91 122/24/95
f 118/22/91 116/21/89 122/24/95
f 120/23/93 123/25/96 121/23/94
f 123/25/96 124/25/97 121/23/94
f 116/21/89 25/19/25 125/41/95
f 123/25/96 126/27/98 124/25/97
f 126/27/98 127/27/99 124/25/97
f 128/40/95 116/21/89 125/41/95
f 116/21/89 128/40/95 122/24/95
f 32/30/32 31/29/31 127/27/99
f 126/27/98 32/30/32 127/27/99
f 128/40/95 125/41/95 129/33/95
f 122/24/95 128/40/95 129/33/95
f 125/41/95 130/42/95 129/33/95
f 32/30/32 126/27/98 131/31/100
f 132/32/100 32/30/32 131/31/100
f 132/32/100 131/31/100 129/33/95
f 131/31/100 126/27/98 133/28/95
f 126/27/98 123/25/96 133/28/95
f 131/31/100 133/28/95 129/33/95
f 123/25/96 120/23/93 133/28/95
f 134/34/5 132/32/100 129/33/95
f 120/23/93 135/26/95 133/28/95
f 135/26/95 120/23/93 122/24/95
f 133/28/95 135/26/95 129/33/95
f 135/26/95 122/24/95 129/33/95
f 132/35/100 134/34/5 32/36/32
f 134/34/5 30/37/30 32/36/32
f 30/37/30 134/34/5 7/38/7
f 134/34/5 5/39/5 7/38/7
f 5/39/5 134/34/5 129/33/95
f 5/39/5 129/33/95 83/48/62
f 6/2/6 5/39/5 83/48/62
f 130/42/95 136/43/101 129/33/95
f 136/43/101 130/42/95 23/44/23
f 22/45/22 136/43/101 23/44/23
f 23/44/23 130/42/95 125/46/95
f 25/47/25 23/44/23 125/46/95
