# Blender 3.6.18
# www.blender.org
mtllib Mesh.617.mtl
o Bistro_Research_Exterior_paris_building_06_5311
v -3.130005 -0.291122 23.410637
v -3.130010 6.585134 23.410633
v -13.581223 -0.290147 18.623024
v -13.581219 6.585135 18.623026
v -3.119161 6.617134 23.380405
v -13.551210 6.617135 18.601576
v -12.870119 6.585135 17.981209
v -12.870119 -0.291634 17.981205
v -13.585923 6.585135 18.588848
v -13.585923 -0.290194 18.588848
v -2.801040 -0.292675 22.597097
v -2.801103 6.585134 22.597067
v -3.089976 -0.291181 23.393826
v -3.090038 6.585134 23.393797
v -2.830245 6.617134 22.583767
v -12.840620 6.617135 17.998102
v -2.819197 -0.292729 22.553631
v -2.819260 6.585134 22.553602
v -12.816657 6.585135 17.973885
v -12.816658 -0.291687 17.973877
vn -0.4203 -0.0039 0.9074
vn -0.4203 -0.0000 0.9074
vn -0.4203 -0.0040 0.9074
vn -0.0039 1.0000 -0.0039
vn -0.6505 -0.0039 -0.7595
vn -0.6504 -0.0039 -0.7595
vn 0.9422 -0.0040 0.3351
vn 0.9422 -0.0039 0.3351
vn 0.9422 -0.0008 0.3351
vn 0.9422 -0.0039 0.3350
vn -0.0040 1.0000 -0.0039
vn 0.4109 -0.0000 -0.9117
vn 0.4109 -0.0039 -0.9117
vn 0.4108 -0.0039 -0.9117
vt 2.011719 -0.714844
vt 2.011719 1.433350
vt -1.578125 -0.714844
vt -1.578125 1.433350
vt 2.011719 1.443359
vt -1.573242 1.443359
vt 0.071106 1.433350
vt 0.071106 -0.714844
vt 0.336670 1.433350
vt 0.336670 -0.714844
vt 0.345947 -0.714844
vt 0.345947 1.433350
vt 0.927734 -0.714844
vt 0.927734 1.433350
vt 0.663574 -0.714844
vt 0.663574 1.433350
vt 0.653809 1.433350
vt 0.653809 -0.714844
vt 2.011719 0.664062
vt 2.011719 0.654053
vt 2.021484 0.664062
vt 1.990234 0.927979
vt 2.000000 0.927979
vt -1.573242 0.664062
vt -1.449219 0.927979
vt -1.459961 0.928894
vt -1.583984 0.663330
vt -1.578125 0.654053
vt -1.000000 -0.714844
vt -0.989746 -0.714844
vt -1.000000 1.433350
vt -0.989746 1.433350
vt -0.990723 1.443359
vt 2.449219 1.443359
vt 2.445312 1.433350
vt 2.445312 -0.714844
vt 2.458984 1.433350
vt 2.458984 -0.714844
s 1
usemtl MASTER_Brick_Small_Red_BLENDSHADER
f 1/1/1 2/2/1 3/3/2
f 2/2/1 4/4/3 3/3/2
f 4/4/3 2/2/1 5/5/4
f 6/6/4 4/4/3 5/5/4
f 7/7/5 8/8/6 9/9/5
f 8/8/6 10/10/5 9/9/5
f 10/10/5 3/11/2 9/9/5
f 3/11/2 4/12/3 9/9/5
f 11/13/7 12/14/8 13/15/9
f 12/14/8 14/16/10 13/15/9
f 14/16/10 2/17/1 13/15/9
f 2/17/1 1/18/1 13/15/9
f 5/19/4 2/20/1 14/21/10
f 15/22/11 5/19/4 14/21/10
f 12/23/8 15/22/11 14/21/10
f 5/19/4 15/22/11 6/24/4
f 15/22/11 16/25/11 6/24/4
f 6/24/4 16/25/11 7/26/5
f 9/27/5 6/24/4 7/26/5
f 9/27/5 4/28/3 6/24/4
f 11/29/7 17/30/12 12/31/8
f 17/30/12 18/32/13 12/31/8
f 15/33/11 12/31/8 18/32/13
f 16/34/11 15/33/11 18/32/13
f 19/35/14 18/32/13 17/30/12
f 19/35/14 16/34/11 18/32/13
f 20/36/14 19/35/14 17/30/12
f 19/35/14 7/37/5 16/34/11
f 19/35/14 20/36/14 8/38/6
f 7/37/5 19/35/14 8/38/6
