# Blender 3.6.18
# www.blender.org
mtllib Mesh.1071.mtl
o Bistro_Research_Exterior_Paris_Building_01_paris_buildi_74c53d7
v -0.307767 14.828164 -2.793773
v -2.110079 14.829053 -1.955512
v -0.340566 14.805320 -2.864152
v -2.226273 14.804027 -1.988478
v -1.706623 15.245646 -1.090091
v -1.787418 15.246560 -1.052441
v -1.290137 14.829051 -0.196957
v -1.358441 14.804026 -0.127479
v 0.512142 14.828165 -1.033954
v 0.523879 14.805369 -1.008744
v -1.796364 15.256561 -1.048273
v -2.233626 14.814404 -1.985985
v -2.236462 14.830412 -1.992313
v -1.796364 15.274031 -1.048273
v -1.787418 15.283906 -1.052441
v 0.094905 15.283907 -1.929481
v -0.346806 14.839474 -2.877546
v -2.228937 14.839474 -1.999894
v -0.348982 14.826529 -2.882216
v -2.230801 14.826529 -2.004704
v -2.228040 14.810498 -1.998332
v -0.346053 14.810495 -2.875929
v -1.365258 14.814403 -0.123760
v -1.362526 14.830412 -0.117387
v -1.352393 14.810496 -0.119506
v -1.351853 14.839473 -0.117788
v 0.530113 14.839473 -0.995363
v -1.349579 14.826529 -0.113158
v 0.532289 14.826530 -0.990694
v 0.529358 14.810498 -0.996984
vn 0.1212 -0.9575 0.2619
vn 0.1210 -0.9409 0.3162
vn 0.1211 -0.9575 0.2618
vn 0.1216 -0.9376 0.3256
vn 0.1133 -0.9184 0.3791
vn -0.1287 -0.9167 -0.3784
vn -0.2057 -0.8499 -0.4851
vn -0.1602 -0.8868 -0.4336
vn -0.2605 -0.7893 -0.5560
vn -0.3773 -0.9218 -0.0894
vn -0.6901 -0.6511 0.3158
vn -0.8758 -0.2686 0.4009
vn -0.8112 -0.2939 0.5056
vn -0.9134 0.3175 0.2548
vn -0.8587 0.3254 0.3960
vn -0.0119 0.9999 -0.0040
vn -0.0039 1.0000 -0.0039
vn -0.1689 0.9154 -0.3654
vn -0.1766 0.9142 -0.3649
vn -0.4237 -0.0194 -0.9056
vn -0.4258 -0.0664 -0.9024
vn -0.3297 -0.6399 -0.6942
vn -0.3227 -0.6415 -0.6959
vn -0.1992 -0.8864 -0.4178
vn -0.1760 -0.9266 0.3323
vn -0.9101 -0.3008 0.2851
vn -0.7954 0.3096 0.5211
vn 0.3174 -0.6466 0.6937
vn 0.1613 0.9166 0.3659
vn 0.1702 0.9154 0.3648
vn 0.4129 -0.0669 0.9083
vn 0.4202 -0.0196 0.9072
vn 0.3192 -0.6501 0.6895
vn 0.1915 -0.8951 0.4026
vt 0.246704 0.619385
vt -0.396484 0.619385
vt 0.247070 0.592773
vt -0.426270 0.592773
vt -0.464355 0.559326
vt -0.464355 0.222168
vt -0.435059 0.585938
vt -0.435059 0.222168
vt -0.535645 0.131348
vt -0.535645 -0.214844
vt -0.506348 0.131836
vt -0.506348 -0.227539
vt -0.467773 -0.246094
vt 0.175293 -0.247070
vt -0.497559 -0.234375
vt 0.174805 -0.237305
vt -0.430664 0.220215
vt -0.430664 0.585205
vt -0.426270 0.582520
vt -0.426270 0.216797
vt -0.422363 0.213379
vt 0.249634 0.213379
vt 0.249390 0.582520
vt -0.422363 0.580811
vt 0.248291 0.587891
vt -0.422363 0.584717
vt -0.424316 0.589355
vt 0.247192 0.592285
vt -0.501953 -0.227539
vt -0.501953 0.133301
vt -0.497559 0.137207
vt -0.497559 -0.224609
vt -0.495850 -0.231445
vt -0.493652 -0.222656
vt -0.493652 0.140137
vt 0.178223 0.140137
vt 0.178223 -0.222656
vt -0.493896 -0.226562
vt 0.177246 -0.228516
vt 0.175537 -0.234375
s 1
usemtl MASTER_Roofing_Shingle_Green
f 1/1/1 2/2/2 3/3/3
f 2/2/2 4/4/4 3/3/3
f 2/5/2 5/6/5 4/7/4
f 5/6/5 6/8/5 4/7/4
f 5/9/6 7/10/7 6/11/6
f 7/10/7 8/12/8 6/11/6
f 7/13/7 9/14/9 8/15/8
f 9/14/9 10/16/9 8/15/8
f 4/7/10 6/8/11 11/17/12
f 12/18/13 4/7/10 11/17/12
f 12/18/13 11/17/12 13/19/14
f 11/17/12 14/20/15 13/19/14
f 14/20/15 15/21/16 13/19/14
f 16/22/17 17/23/18 15/21/16
f 17/23/18 18/24/19 15/21/16
f 15/21/16 18/24/19 13/19/14
f 18/24/19 17/23/18 19/25/20
f 13/19/14 18/24/19 20/26/21
f 20/26/21 18/24/19 19/25/20
f 12/18/13 13/19/14 20/26/21
f 21/27/22 20/26/21 19/25/20
f 21/27/22 12/18/13 20/26/21
f 22/28/23 21/27/22 19/25/20
f 4/4/10 12/18/13 21/27/22
f 22/28/23 3/3/24 21/27/22
f 3/3/24 4/4/10 21/27/22
f 6/11/11 8/12/25 23/29/26
f 11/30/12 6/11/11 23/29/26
f 11/30/12 23/29/26 14/31/15
f 23/29/26 24/32/27 14/31/15
f 23/29/26 25/33/28 24/32/27
f 25/33/28 23/29/26 8/15/25
f 24/32/27 26/34/29 14/31/15
f 26/34/29 15/35/16 14/31/15
f 16/36/17 15/35/16 26/34/29
f 27/37/30 16/36/17 26/34/29
f 28/38/31 26/34/29 24/32/27
f 27/37/30 26/34/29 28/38/31
f 25/33/28 28/38/31 24/32/27
f 29/39/32 27/37/30 28/38/31
f 30/40/33 29/39/32 28/38/31
f 25/33/28 30/40/33 28/38/31
f 25/33/28 8/15/25 30/40/33
f 8/15/25 10/16/34 30/40/33
