# Blender 3.6.18
# www.blender.org
mtllib Mesh.467.mtl
o Bistro_Research_Exterior_paris_building_11_5631
v -0.013790 3.509188 20.205608
v -0.013790 5.177753 20.205608
v -0.108004 3.509157 20.442501
v -0.108004 5.177766 20.442503
v -0.367737 3.509190 19.822088
v -0.367744 5.177752 19.822086
v -0.136190 3.509190 19.916769
v -0.136196 5.177752 19.916767
v -0.388699 3.509189 19.830801
v -0.565586 3.509157 20.255428
v -0.388706 5.177752 19.830799
v -0.565593 5.177766 20.255424
v -0.015284 3.509187 20.176559
v -0.073090 3.509157 20.065859
v -0.015284 5.177753 20.176559
v -0.073094 5.177766 20.065857
v -0.116268 5.177753 19.937984
v -0.116262 3.509187 19.937984
v 1.510211 3.509188 20.828783
v 1.411450 3.509157 21.063814
v 1.510211 5.177753 20.828783
v 1.411450 5.177766 21.063816
v 2.031467 3.509190 20.803139
v 1.799919 3.509190 20.708458
v 2.031474 5.177752 20.803143
v 1.799925 5.177752 20.708460
v 2.040318 3.509189 20.824043
v 2.040325 5.177752 20.824047
v 1.869007 3.509157 21.250950
v 1.869015 5.177766 21.250954
v 1.531631 3.509187 20.809101
v 1.531631 5.177753 20.809101
v 1.650438 3.509157 20.770620
v 1.650442 5.177766 20.770624
v 1.770842 5.177753 20.709637
v 1.770836 3.509187 20.709631
v -0.080352 3.493153 20.080114
v -0.127587 3.493186 19.937572
v -0.080356 5.193768 20.080114
v -0.025456 5.193757 20.191643
v -0.127593 5.193754 19.937571
v -0.550785 5.193769 20.261484
v -0.373896 5.193754 19.836857
v -0.025456 3.493180 20.191643
v -0.373889 3.493185 19.836861
v -0.550777 3.493151 20.261486
v 1.854196 3.493151 21.244898
v 2.025507 3.493185 20.817989
v 2.025515 5.193754 20.817993
v 1.854204 5.193769 21.244900
v 1.645630 3.493153 20.785881
v 1.528318 3.493180 20.826992
v 1.528318 5.193757 20.826990
v 1.645634 5.193768 20.785883
v 1.779212 5.193754 20.717276
v 1.779205 3.493186 20.717274
v -0.306066 5.193809 20.361607
v -0.237884 5.193809 20.389393
v -0.122814 5.193771 20.436447
v -0.122814 3.493146 20.436445
v -0.237880 3.493058 20.389393
v -0.306056 3.493058 20.361612
v 1.426260 5.193771 21.069874
v 1.541329 5.193809 21.116926
v 1.609445 5.193809 21.144875
v 1.609434 3.493058 21.144871
v 1.541326 3.493058 21.116922
v 1.426260 3.493146 21.069872
vn 0.9298 -0.0040 0.3680
vn 0.3721 -0.0039 -0.9282
vn -0.9227 -0.0039 -0.3854
vn 0.8840 -0.0039 -0.4675
vn 0.9175 -0.0039 -0.3977
vn 0.9455 -0.0039 -0.3256
vn 0.9298 -0.0039 0.3680
vn -0.3092 -0.0039 -0.9510
vn -0.3855 -0.0039 -0.9227
vn -0.3854 -0.0039 -0.9227
vn -0.4550 -0.0039 -0.8905
vn 0.7392 -0.6062 -0.2933
vn 0.7012 -0.6385 -0.3173
vn 0.7655 -0.3651 -0.5299
vn 0.6225 -0.5911 -0.5129
vn 0.7427 0.6012 -0.2947
vn 0.7047 0.6338 -0.3189
vn 0.8784 0.4372 -0.1930
vn 0.7447 0.6659 -0.0433
vn 0.7676 0.3582 -0.5314
vn 0.6254 0.5861 -0.5152
vn -0.6552 0.7022 -0.2786
vn -0.5279 0.4575 -0.7156
vn -0.2540 0.7541 -0.6056
vn 0.8754 -0.4436 -0.1923
vn 0.7408 -0.6703 -0.0431
vn -0.5260 -0.4637 -0.7130
vn -0.2525 -0.7575 -0.6021
vn -0.6516 -0.7062 -0.2770
vn 0.6543 -0.7092 0.2625
vn 0.8729 -0.4659 -0.1448
vn 0.5971 -0.7610 -0.2537
vn 0.8730 -0.4658 -0.1448
vn 0.8761 0.4597 -0.1454
vn 0.6007 0.7577 -0.2552
vn 0.6580 0.7053 0.2640
vn 0.6580 0.7052 0.2640
vn -0.3303 -0.6023 -0.7267
vn -0.2855 -0.6374 -0.7157
vn -0.4967 -0.4420 -0.7470
vn -0.5030 -0.6668 -0.5498
vn -0.4984 0.4356 -0.7496
vn -0.5057 0.6624 -0.5527
vn -0.3319 0.5973 -0.7301
vn -0.2869 0.6328 -0.7192
vn -0.1833 0.3550 -0.9167
vn -0.0898 0.5819 -0.8083
vn -0.1828 -0.3618 -0.9142
vn -0.0894 -0.5870 -0.8046
vn -0.0039 1.0000 -0.0039
vn -0.0039 -1.0000 -0.0039
vn 0.7447 0.6659 -0.0434
vn 0.6593 0.7067 0.2566
vn 0.8818 0.4627 0.0910
vn 0.8786 -0.4689 0.0906
vn 0.6557 -0.7106 0.2552
vn -0.6516 -0.7062 -0.2771
vn -0.6963 -0.4629 -0.5485
vn -0.6988 0.4568 -0.5505
vn -0.6552 0.7023 -0.2785
vn -0.1362 -0.4631 -0.8758
vn -0.1367 0.4570 -0.8789
vn 0.5279 -0.4575 -0.7156
vn 0.5298 0.4513 -0.7181
vn 0.1132 0.4490 -0.8863
vn 0.7088 0.4581 -0.5364
vn 0.1128 -0.4552 -0.8832
vn 0.7062 -0.4643 -0.5345
vt 0.503418 -0.445312
vt 0.503418 0.076172
vt 0.423828 -0.445312
vt 0.423828 0.076172
vt 0.587402 -0.445312
vt 0.587402 0.076172
vt 0.509277 -0.445312
vt 0.509277 0.076172
vt 0.432129 -0.445312
vt 0.575684 -0.445312
vt 0.432129 0.076172
vt 0.575684 0.076172
vt 0.443848 -0.445312
vt 0.473633 -0.445312
vt 0.443848 0.076172
vt 0.473633 0.076172
vt 0.568848 0.076172
vt 0.537109 0.076172
vt 0.568848 -0.445312
vt 0.537109 -0.445312
vt 0.496094 -0.445312
vt 0.496094 0.076172
vt -0.222168 -0.445312
vt -0.143921 -0.445312
vt -0.222168 0.076172
vt -0.143921 0.076172
vt 0.567383 -0.445312
vt 0.567383 0.076172
vt -0.078308 -0.445312
vt -0.078308 0.076172
vt -0.108093 -0.445312
vt -0.108093 0.076172
vt 0.430908 0.076172
vt 0.430908 -0.445312
vt 0.462646 0.076172
vt 0.462646 -0.445312
vt 0.531738 -0.450195
vt 0.567383 -0.450195
vt 0.473633 0.462891
vt 0.474121 0.468262
vt 0.443848 0.488281
vt 0.445068 0.493652
vt 0.567383 0.081055
vt 0.531738 0.081055
vt 0.575684 0.081055
vt 0.432129 0.081055
vt 0.555664 0.488281
vt 0.554688 0.493652
vt 0.525879 0.462891
vt 0.525391 0.468262
vt 0.432129 -0.450195
vt 0.575684 -0.450195
vt 0.423828 -0.450195
vt 0.423828 0.081055
vt 1.107422 0.462891
vt 1.108398 0.468262
vt 1.078125 0.488281
vt 1.079102 0.493652
vt -0.078308 0.488281
vt -0.079468 0.493652
vt -0.108093 0.462891
vt -0.108521 0.468262
vt 0.467773 0.081055
vt 0.467773 -0.450195
vt 0.587402 0.432617
vt 0.588379 0.576172
vt 0.505859 0.576172
vt 0.504395 0.432617
vt 0.483154 0.576172
vt 0.444092 0.576172
vt 0.555664 0.576172
vt 0.516602 0.576172
vt 0.495117 0.432617
vt 0.493652 0.576172
vt 0.412109 0.432617
vt 0.411133 0.576172
vt -0.078674 0.576172
vt -0.117493 0.576172
vt -0.139038 0.432617
vt -0.140503 0.576172
vt -0.222168 0.432617
vt -0.223145 0.576172
vt 1.221680 0.432617
vt 1.222656 0.576172
vt 1.139648 0.576172
vt 1.138672 0.432617
vt 1.117188 0.576172
vt 1.078125 0.576172
vt 0.506348 0.081055
vt 0.511719 0.076172
vt 0.511719 -0.445312
vt 0.506348 -0.450195
vt 0.493408 -0.450195
vt 0.488037 -0.445312
vt 0.488037 0.076172
vt 0.493408 0.081055
vt 0.587402 -0.450195
vt 0.592773 -0.445312
vt 0.504395 -0.450195
vt 0.592773 0.076172
vt 0.500977 -0.445312
vt 0.587402 0.081055
vt 0.500977 0.076172
vt 0.504395 0.081055
vt -0.135742 0.076172
vt -0.139038 0.081055
vt -0.135742 -0.445312
vt -0.222168 0.081055
vt -0.139038 -0.450195
vt -0.227173 0.076172
vt -0.222168 -0.450195
vt -0.227173 -0.445312
s 1
usemtl MASTER_Concrete_Plaster
f 1/1/1 2/2/1 3/3/1
f 2/2/1 4/4/1 3/3/1
f 5/5/2 6/6/2 7/7/2
f 6/6/2 8/8/2 7/7/2
f 9/9/3 10/10/3 11/11/3
f 10/10/3 12/12/3 11/11/3
f 13/13/4 14/14/5 15/15/4
f 14/14/5 16/16/5 15/15/4
f 17/17/6 16/18/5 18/19/6
f 16/18/5 14/20/5 18/19/6
f 19/21/3 20/10/3 21/22/3
f 20/10/3 22/12/3 21/22/3
f 23/23/2 24/24/2 25/25/2
f 24/24/2 26/26/2 25/25/2
f 27/27/7 28/28/7 29/3/7
f 28/28/7 30/4/7 29/3/7
f 31/29/8 32/30/8 33/31/9
f 32/30/8 34/32/10 33/31/9
f 35/33/11 36/34/11 34/35/10
f 36/34/11 33/36/9 34/35/10
f 14/20/12 37/37/13 18/19/14
f 37/37/13 38/38/15 18/19/14
f 16/39/16 39/40/17 15/41/18
f 39/40/17 40/42/19 15/41/18
f 17/17/20 41/43/21 16/18/16
f 41/43/21 39/44/17 16/18/16
f 12/12/22 42/45/22 11/11/23
f 42/45/22 43/46/24 11/11/23
f 13/47/25 44/48/26 14/49/12
f 44/48/26 37/50/13 14/49/12
f 9/9/27 45/51/28 10/10/29
f 45/51/28 46/52/29 10/10/29
f 29/3/30 47/53/30 27/27/31
f 47/53/30 48/38/32 27/27/33
f 28/28/34 49/43/35 30/4/36
f 49/43/35 50/54/37 30/4/37
f 33/55/38 51/56/39 31/57/40
f 51/56/39 52/58/41 31/57/40
f 32/59/42 53/60/43 34/61/44
f 53/60/43 54/62/45 34/61/44
f 34/35/44 54/63/45 35/33/46
f 54/63/45 55/46/47 35/33/46
f 36/34/48 56/51/49 33/36/38
f 56/51/49 51/64/39 33/36/38
f 43/65/50 42/66/50 57/67/50
f 41/68/50 43/65/50 57/67/50
f 41/68/50 57/67/50 58/69/50
f 39/40/50 41/68/50 58/69/50
f 39/40/50 58/69/50 59/70/50
f 40/42/50 39/40/50 59/70/50
f 44/48/51 60/71/51 37/50/51
f 60/71/51 61/72/51 37/50/51
f 37/50/51 61/72/51 38/73/51
f 61/72/51 62/74/51 38/73/51
f 38/73/51 62/74/51 45/75/51
f 62/74/51 46/76/51 45/75/51
f 53/60/50 63/77/50 54/62/50
f 63/77/50 64/78/50 54/62/50
f 54/62/50 64/78/50 55/79/50
f 64/78/50 65/80/50 55/79/50
f 55/79/50 65/80/50 49/81/50
f 65/80/50 50/82/50 49/81/50
f 48/83/51 47/84/51 66/85/51
f 56/86/51 48/83/51 66/85/51
f 56/86/51 66/85/51 67/87/51
f 51/56/51 56/86/51 67/87/51
f 51/56/51 67/87/51 68/88/51
f 52/58/51 51/56/51 68/88/51
f 40/89/52 59/54/53 4/4/53
f 2/2/54 40/89/19 4/4/53
f 15/90/18 40/89/19 2/2/54
f 13/91/25 15/90/18 2/2/54
f 1/1/55 13/91/25 2/2/54
f 44/92/26 13/91/25 1/1/55
f 60/53/56 44/92/26 1/1/55
f 3/3/56 60/53/56 1/1/55
f 52/93/41 68/52/57 20/10/57
f 19/21/58 52/93/41 20/10/29
f 31/94/40 52/93/41 19/21/58
f 32/95/42 31/94/40 19/21/58
f 21/22/59 32/95/42 19/21/58
f 53/96/43 32/95/42 21/22/59
f 63/45/22 53/96/43 21/22/59
f 22/12/60 63/45/60 21/22/59
f 5/5/61 45/97/28 9/98/27
f 38/99/15 45/97/28 5/5/61
f 5/5/61 9/98/27 6/6/62
f 7/7/63 38/99/15 5/5/61
f 9/98/27 11/100/23 6/6/62
f 7/7/63 18/101/14 38/99/15
f 11/100/23 43/102/24 6/6/62
f 17/103/20 18/101/14 7/7/63
f 6/6/62 43/102/24 8/8/64
f 8/8/64 17/103/20 7/7/63
f 43/102/24 41/104/21 8/8/64
f 41/104/21 17/103/20 8/8/64
f 26/26/65 35/105/46 55/106/47
f 36/107/48 35/105/46 26/26/65
f 26/26/65 55/106/47 25/25/66
f 24/24/67 36/107/48 26/26/65
f 55/106/47 49/108/35 25/25/66
f 24/24/67 56/109/49 36/107/48
f 49/108/35 28/110/34 25/25/66
f 48/111/32 56/109/49 24/24/67
f 25/25/66 28/110/34 23/23/68
f 23/23/68 48/111/32 24/24/67
f 28/110/34 27/112/33 23/23/68
f 27/112/33 48/111/32 23/23/68
