# Blender 3.6.18
# www.blender.org
mtllib Mesh.895.mtl
o Bistro_Research_Exterior_Paris_Building_01_paris_buildi_a12fe52
v 0.866479 4.435909 1.907422
v 4.932394 4.435908 3.515585
v 4.872907 4.435908 3.665987
v 0.806992 4.435909 2.057823
v 4.869965 4.435908 3.673427
v 0.804049 4.435909 2.065263
v 4.870070 4.443903 3.673161
v 0.804155 4.443904 2.064997
v 4.870275 4.459558 3.672640
v 0.804361 4.459558 2.064476
v 4.870380 4.467552 3.672374
v 0.804466 4.467553 2.064210
v 4.867824 4.471509 3.678839
v 0.801909 4.471510 2.070675
v 4.857070 4.488151 3.706026
v 0.791156 4.488152 2.097862
v 4.854514 4.492109 3.712491
v 0.788599 4.492109 2.104327
v 4.854551 4.500108 3.712397
v 0.788636 4.500109 2.104233
v 4.854613 4.513655 3.712239
v 0.788698 4.513656 2.104074
v 4.854650 4.521655 3.712145
v 0.788735 4.521655 2.103981
v 4.857582 4.522346 3.704734
v 0.791667 4.522346 2.096570
v 4.868330 4.524879 3.677561
v 0.802414 4.524879 2.069397
v 4.871261 4.525570 3.670149
v 0.805345 4.525570 2.061985
v 4.871285 4.533569 3.670086
v 0.805371 4.533570 2.061922
v 4.871329 4.547689 3.669975
v 0.805415 4.547690 2.061811
v 4.871354 4.555689 3.669912
v 0.805439 4.555690 2.061748
v 4.868423 4.556388 3.677322
v 0.802508 4.556388 2.069159
v 4.857863 4.558905 3.704021
v 0.791948 4.558906 2.095858
v 4.854932 4.559604 3.711432
v 0.789017 4.559605 2.103268
v 4.854969 4.567603 3.711339
v 0.789054 4.567604 2.103175
v 4.855032 4.581151 3.711180
v 0.789117 4.581151 2.103016
v 4.855069 4.589149 3.711086
v 0.789154 4.589150 2.102922
v 4.857647 4.593005 3.704568
v 0.791732 4.593005 2.096404
v 4.868914 4.609851 3.676082
v 0.802999 4.609852 2.067919
v 4.871492 4.613706 3.669564
v 0.805577 4.613707 2.061400
v 4.871492 4.621706 3.669564
v 0.805577 4.621707 2.061400
v 4.871492 4.637253 3.669564
v 0.805577 4.637253 2.061400
v 4.871492 4.645253 3.669564
v 0.805577 4.645253 2.061400
v 4.874435 4.645253 3.662125
v 0.808520 4.645253 2.053961
v 4.934061 4.645251 3.511371
v 0.868146 4.645251 1.903207
vn -0.0039 -1.0000 -0.0039
vn -0.2699 -0.7001 0.6610
vn -0.2699 -0.7001 0.6611
vn -0.3745 0.0355 0.9265
vn -0.3746 0.0355 0.9265
vn -0.3246 -0.4889 0.8097
vn -0.1835 -0.8705 0.4567
vn -0.3255 -0.4980 0.8038
vn -0.3254 -0.4980 0.8038
vn -0.3720 0.0117 0.9281
vn -0.3720 0.0118 0.9281
vn -0.3720 0.0118 0.9282
vn -0.3721 0.0117 0.9281
vn -0.2715 0.6806 0.6806
vn -0.2714 0.6806 0.6806
vn -0.0354 0.9966 0.0749
vn -0.0355 0.9966 0.0748
vn -0.3721 0.0039 0.9282
vn -0.2772 -0.6755 0.6833
vn -0.0352 -0.9966 0.0743
vn -0.0352 -0.9966 0.0742
vn -0.3179 0.5141 0.7966
vn -0.3179 0.5141 0.7967
vn -0.1848 0.8767 0.4442
vn -0.1847 0.8767 0.4442
vn -0.3191 0.5083 0.7999
vn -0.3721 -0.0039 0.9282
vn -0.2639 0.7053 0.6580
vn -0.2640 0.7053 0.6580
vn -0.0039 1.0000 -0.0039
vt 0.194092 0.961151
vt 1.559570 0.961151
vt 1.559570 1.011665
vt 0.194092 1.011665
vt 1.559570 1.014168
vt 0.194092 1.014168
vt 1.559570 1.016663
vt 0.194092 1.016663
vt 1.559570 1.021545
vt 0.194092 1.021545
vt 1.559570 1.024048
vt 0.194092 1.024048
vt 1.559570 1.026230
vt 0.194092 1.026230
vt 1.559570 1.035339
vt 0.194092 1.035339
vt 1.559570 1.037537
vt 0.194092 1.037537
vt 1.559570 1.040039
vt 0.194092 1.040039
vt 1.559570 1.044250
vt 0.194092 1.044250
vt 1.559570 1.046753
vt 0.194092 1.046753
vt 1.559570 1.049255
vt 0.194092 1.049255
vt 1.559570 1.058380
vt 0.194092 1.058380
vt 1.559570 1.060883
vt 0.194092 1.060883
vt 1.559570 1.063354
vt 0.194092 1.063354
vt 1.559570 1.067749
vt 0.194092 1.067749
vt 1.559570 1.070251
vt 0.194092 1.070251
vt 1.559570 1.072754
vt 0.194092 1.072754
vt 1.559570 1.081726
vt 0.194092 1.081726
vt 1.559570 1.084229
vt 0.194092 1.084229
vt 1.559570 1.086731
vt 0.194092 1.086731
vt 1.559570 1.090942
vt 0.194092 1.090942
vt 1.559570 1.093445
vt 0.194092 1.093445
vt 1.559570 1.095642
vt 0.194092 1.095642
vt 1.559570 1.105225
vt 0.194092 1.105225
vt 1.559570 1.107422
vt 0.194092 1.107422
vt 1.559570 1.109924
vt 0.194092 1.109924
vt 1.559570 1.114746
vt 0.194092 1.114746
vt 1.559570 1.117249
vt 0.194092 1.117249
vt 1.559570 1.119751
vt 0.194092 1.119751
vt 1.559570 1.170410
vt 0.194092 1.170410
s 1
usemtl MASTER_Wood_Painted3
f 1/1/1 2/2/1 3/3/1
f 4/4/1 1/1/1 3/3/1
f 4/4/1 3/3/1 5/5/2
f 6/6/3 4/4/1 5/5/2
f 6/6/3 5/5/2 7/7/4
f 8/8/4 6/6/3 7/7/4
f 8/8/4 7/7/4 9/9/5
f 10/10/4 8/8/4 9/9/5
f 10/10/4 9/9/5 11/11/6
f 12/12/6 10/10/4 11/11/6
f 12/12/6 11/11/6 13/13/7
f 14/14/7 12/12/6 13/13/7
f 14/14/7 13/13/7 15/15/7
f 16/16/7 14/14/7 15/15/7
f 16/16/7 15/15/7 17/17/8
f 18/18/9 16/16/7 17/17/8
f 18/18/9 17/17/8 19/19/10
f 20/20/11 18/18/9 19/19/10
f 20/20/11 19/19/10 21/21/12
f 22/22/13 20/20/11 21/21/12
f 22/22/13 21/21/12 23/23/14
f 24/24/15 22/22/13 23/23/14
f 24/24/15 23/23/14 25/25/16
f 26/26/16 24/24/15 25/25/16
f 26/26/16 25/25/16 27/27/17
f 28/28/16 26/26/16 27/27/17
f 28/28/16 27/27/17 29/29/15
f 30/30/15 28/28/16 29/29/15
f 30/30/15 29/29/15 31/31/18
f 32/32/18 30/30/15 31/31/18
f 32/32/18 31/31/18 33/33/18
f 34/34/18 32/32/18 33/33/18
f 34/34/18 33/33/18 35/35/19
f 36/36/19 34/34/18 35/35/19
f 36/36/19 35/35/19 37/37/20
f 38/38/20 36/36/19 37/37/20
f 38/38/20 37/37/20 39/39/20
f 40/40/21 38/38/20 39/39/20
f 40/40/21 39/39/20 41/41/19
f 42/42/19 40/40/21 41/41/19
f 42/42/19 41/41/19 43/43/13
f 44/44/10 42/42/19 43/43/13
f 44/44/10 43/43/13 45/45/13
f 46/46/13 44/44/10 45/45/13
f 46/46/13 45/45/13 47/47/22
f 48/48/23 46/46/13 47/47/22
f 48/48/23 47/47/22 49/49/24
f 50/50/25 48/48/23 49/49/24
f 50/50/25 49/49/24 51/51/24
f 52/52/24 50/50/25 51/51/24
f 52/52/24 51/51/24 53/53/26
f 54/54/26 52/52/24 53/53/26
f 54/54/26 53/53/26 55/55/27
f 56/56/27 54/54/26 55/55/27
f 56/56/27 55/55/27 57/57/27
f 58/58/27 56/56/27 57/57/27
f 58/58/27 57/57/27 59/59/28
f 60/60/29 58/58/27 59/59/28
f 60/60/29 59/59/28 61/61/30
f 62/62/30 60/60/29 61/61/30
f 62/62/30 61/61/30 63/63/30
f 64/64/30 62/62/30 63/63/30
