# Blender 3.6.18
# www.blender.org
mtllib Mesh.396.mtl
o Bistro_Research_Exterior_paris_building_11_5787
v 4.041646 13.943227 21.984713
v 4.103629 13.943188 22.092916
v 4.057715 13.898664 21.976944
v 4.112211 13.898456 22.073950
v 4.005837 13.943086 21.861568
v 4.020848 13.898482 21.865660
v 5.773658 13.943226 22.692944
v 5.767636 13.898663 22.676144
v 5.653620 13.943187 22.726719
v 5.660785 13.898455 22.707172
v 5.885490 13.943085 22.630173
v 5.871914 13.898481 22.622576
v 4.105098 13.942067 22.123285
v 4.091129 13.958068 22.115097
v 4.007160 13.942080 22.363976
v 3.992350 13.958081 22.357920
v 4.166057 13.444674 21.931850
v 4.180854 13.460675 21.937977
v 3.992388 13.444670 22.357840
v 4.007197 13.460670 22.363897
v 5.547369 13.444669 22.993681
v 5.532558 13.460670 22.987631
v 5.721930 13.444674 22.568058
v 5.707079 13.460675 22.562063
v 5.532532 13.942080 22.987709
v 5.547341 13.958080 22.993765
v 5.631294 13.942066 22.747358
v 5.646997 13.958067 22.751303
v 4.180836 13.756548 21.937971
v 4.137309 13.830788 22.045689
v 4.007181 13.565109 22.363930
v 4.114270 13.893638 22.102030
v 4.007165 13.804899 22.363962
v 3.559267 13.942080 22.180832
v 3.733514 13.942067 21.755058
v 3.559267 13.681497 22.180832
v 3.733545 13.728235 21.754982
v 3.559268 13.460670 22.180832
v 3.733514 13.460675 21.755058
v 4.172109 13.755950 21.917004
v 4.172144 13.460674 21.916925
v 4.054079 13.827421 21.866175
v 3.950242 13.459981 21.825069
v 4.005861 13.886612 21.846401
v 3.878320 13.460670 21.794247
v 3.878197 13.734688 21.794199
v 3.754485 13.460674 21.746052
v 3.984801 13.942069 21.840317
v 3.754477 13.730371 21.746050
v 3.878176 13.942080 21.794189
v 3.754486 13.942068 21.746052
v 3.940079 13.444673 21.838255
v 3.771810 13.444663 22.267687
v 3.872241 13.444670 21.809048
v 3.696284 13.444654 22.236858
v 3.574077 13.444669 22.186888
v 3.748426 13.444674 21.760864
v 5.532536 13.804898 22.987696
v 5.639642 13.893637 22.725767
v 5.532547 13.565108 22.987663
v 5.662682 13.830787 22.669422
v 5.707098 13.756548 22.562071
v 4.175727 13.775813 21.927942
v 4.133867 13.842024 22.020327
v 5.682906 13.842023 22.653740
v 5.717771 13.775813 22.558493
v 5.728017 13.755950 22.553225
v 5.728045 13.460674 22.553144
v 4.064670 13.843611 21.882584
v 3.981889 13.958068 21.856453
v 3.872118 13.958083 21.809000
v 3.748426 13.958071 21.760862
v 4.023564 13.958080 21.997000
v 6.145767 13.460674 22.723864
v 6.139712 13.444674 22.738676
v 6.023642 13.460670 22.671486
v 6.017609 13.444670 22.686304
v 5.950731 13.459981 22.643085
v 5.948745 13.444673 22.659613
v 5.777950 13.958079 22.714380
v 5.906162 13.958067 22.643301
v 5.980422 13.942080 23.170858
v 5.980422 13.681496 23.170858
v 6.154420 13.942066 22.744984
v 6.154451 13.728234 22.744907
v 5.980421 13.460670 23.170858
v 6.154420 13.460675 22.744984
v 5.842651 13.958123 23.114523
v 5.965612 13.958084 23.164803
v 6.139712 13.958070 22.738676
v 6.017732 13.958081 22.686354
v 5.835248 13.958096 23.111494
v 5.767917 13.444662 23.083908
v 5.843404 13.444654 23.114832
v 5.965611 13.444668 23.164803
v 3.574077 13.958085 22.186888
v 6.145767 13.942067 22.723864
v 6.023786 13.942080 22.671543
v 5.915390 13.942068 22.629749
v 5.896101 13.886611 22.619335
v 5.828790 13.843610 22.603945
v 5.847843 13.827421 22.599657
v 6.145774 13.730371 22.723867
v 3.697037 13.958124 22.237167
v 3.704441 13.958097 22.240191
v 6.023764 13.734687 22.671535
v 4.098192 13.848324 21.961220
v 5.749774 13.848323 22.636564
vn 0.8594 0.3414 -0.3806
vn 0.8074 0.3584 -0.4687
vn 0.8016 0.4778 -0.3593
vn 0.7678 0.4685 -0.4370
vn 0.9006 0.3264 -0.2871
vn 0.8509 0.4352 -0.2941
vn -0.3554 0.3397 -0.8708
vn -0.3250 0.4738 -0.8184
vn -0.2624 0.3564 -0.8968
vn -0.2540 0.4650 -0.8481
vn -0.4494 0.3244 -0.8324
vn -0.4107 0.4341 -0.8018
vn 0.8187 0.5656 0.0989
vn 0.6582 0.7528 0.0118
vn 0.6535 0.7089 0.2654
vn 0.6535 0.7089 0.2653
vn 0.5983 -0.7625 -0.2463
vn 0.8739 -0.4664 -0.1372
vn 0.6498 -0.7128 0.2639
vn -0.6530 -0.7077 -0.2698
vn -0.2609 -0.7595 -0.5959
vn -0.5316 -0.4617 -0.7101
vn -0.2610 -0.7595 -0.5959
vn -0.6566 0.7038 -0.2713
vn -0.6551 0.5610 -0.5061
vn -0.4891 0.7473 -0.4499
vn 0.9271 -0.0039 0.3748
vn 0.9271 -0.0040 0.3748
vn -0.9255 -0.0039 -0.3788
vn 0.3788 -0.0039 -0.9255
vn 0.3788 0.0039 -0.9255
vn 0.3721 -0.0039 -0.9282
vn 0.3559 -0.0039 -0.9345
vn 0.3558 -0.0039 -0.9345
vn 0.3653 0.0039 -0.9309
vn -0.0039 -1.0000 -0.0039
vn 0.7091 -0.4662 -0.5289
vn 0.9625 0.1532 -0.2239
vn 0.8238 0.1458 -0.5479
vn 0.8642 0.3355 -0.3749
vn 0.9327 0.3581 0.0433
vn 0.9250 0.3740 0.0669
vn 0.9662 0.2563 -0.0276
vn 0.9576 0.2877 -0.0118
vn 0.7938 0.5884 -0.1540
vn -0.4670 0.5848 -0.6633
vn -0.6760 0.2540 -0.6917
vn -0.6776 0.2859 -0.6776
vn -0.6989 0.3553 -0.6208
vn -0.7127 0.3700 -0.5959
vn -0.5346 0.1522 -0.8313
vn -0.3631 0.3319 -0.8706
vn -0.2151 0.1447 -0.9658
vn -0.1448 -0.4658 -0.8730
vn 0.5938 0.3264 -0.7354
vn 0.6744 0.2406 -0.6981
vn 0.6787 0.2393 -0.6943
vn 0.6594 0.5804 -0.4778
vn 0.4972 0.5520 -0.6694
vn 0.4526 0.7438 -0.4919
vn 0.2640 0.7053 -0.6580
vn -0.2628 0.7492 -0.6080
vn -0.1520 0.4560 -0.8769
vn 0.5232 0.8222 -0.2242
vn 0.5165 0.8241 -0.2326
vn 0.2624 -0.7167 -0.6462
vn 0.2610 -0.7131 -0.6507
vn 0.2611 -0.7131 -0.6507
vn -0.1514 -0.4621 -0.8738
vn -0.2613 -0.7526 -0.6044
vn 0.7130 -0.4637 -0.5260
vn 0.6007 -0.7577 -0.2552
vn 0.2538 -0.7145 -0.6520
vn -0.2233 0.8188 -0.5289
vn -0.2158 0.8202 -0.5298
vn -0.1451 0.5766 -0.8041
vn 0.0118 0.7415 -0.6708
vn -0.0039 1.0000 -0.0039
vn -0.5316 -0.4618 -0.7101
vn -0.3949 -0.0039 -0.9187
vn -0.5335 0.4556 -0.7126
vn 0.2626 0.7016 -0.6624
vn 0.6042 0.7543 -0.2567
vn 0.7156 0.4575 -0.5279
vn 0.1058 0.5525 -0.8268
vn -0.0039 0.2380 -0.9713
vn -0.0039 0.2379 -0.9713
vn 0.0899 0.3243 -0.9417
vn 0.0821 0.3245 -0.9423
vn 0.6043 0.7543 -0.2567
vn 0.8771 0.4602 -0.1377
vn 0.9243 -0.0039 -0.3815
vn 0.8739 -0.4663 -0.1372
vn 0.3653 -0.0039 -0.9309
vn 0.3721 0.0039 -0.9282
vn 0.3882 -0.0039 -0.9215
vn 0.3882 -0.0039 -0.9216
vn 0.5854 0.7583 -0.2868
vn 0.6970 0.6498 -0.3032
vn 0.6582 0.6818 -0.3192
vn 0.6486 0.6800 -0.3420
vn -0.2233 0.7562 -0.6151
vn -0.2554 0.6797 -0.6876
vn -0.2944 0.6477 -0.7027
vn -0.2319 0.6799 -0.6956
vt 3.623047 -0.618164
vt 3.591797 -0.618164
vt 3.619141 -0.631836
vt 3.591797 -0.631836
vt 0.537598 -0.618164
vt 0.541504 -0.631836
vt 0.568848 -0.618164
vt 0.569336 -0.631836
vt 3.039062 -0.618164
vt 3.042969 -0.631836
vt 3.068359 -0.618164
vt 3.068359 -0.631836
vt 0.462158 -0.618164
vt 0.430664 -0.618164
vt 0.458008 -0.631836
vt 0.430176 -0.631836
vt 3.587891 0.495117
vt 3.593750 0.494141
vt 3.587891 0.576172
vt 3.593750 0.576172
vt -2.593750 0.432617
vt -2.587891 0.432617
vt -2.593750 0.576172
vt -2.587891 0.576172
vt -2.068359 0.576172
vt -2.072266 0.576172
vt -2.068359 0.432617
vt -2.072266 0.432617
vt 3.072266 0.576172
vt 3.068359 0.576172
vt 3.072266 0.495117
vt 3.068359 0.494141
vt 0.567383 -0.769531
vt 0.567383 -0.676758
vt 0.423828 -0.769531
vt 0.531250 -0.653320
vt 0.423828 -0.736328
vt 0.512207 -0.633789
vt 0.423828 -0.661133
vt 0.504883 -0.619141
vt 0.423828 -0.619141
vt 0.575684 -0.619141
vt 0.432129 -0.619141
vt 0.575684 -0.700195
vt 0.432129 -0.685547
vt 0.575684 -0.769531
vt 0.432129 -0.769531
vt 3.593750 -0.676758
vt 3.593750 -0.769531
vt 3.632812 -0.654297
vt 3.667969 -0.769531
vt 3.650391 -0.635742
vt 3.693359 -0.769531
vt 3.693359 -0.683594
vt 3.734375 -0.769531
vt 3.656250 -0.619141
vt 3.734375 -0.684570
vt 3.693359 -0.619141
vt 3.734375 -0.619141
vt -2.669922 0.432129
vt -2.667969 0.576172
vt -2.693359 0.431641
vt -2.693359 0.576172
vt -2.734375 0.576172
vt -2.734375 0.432617
vt 0.494629 -0.619141
vt 0.575684 -0.661133
vt 0.487549 -0.633789
vt 0.575684 -0.736328
vt 0.468506 -0.653320
vt 0.432129 -0.676758
vt 0.567383 -0.774414
vt 0.572754 -0.769531
vt 0.572754 -0.676758
vt 0.569824 -0.670898
vt 0.538086 -0.650391
vt 0.520020 -0.631836
vt 0.513672 -0.618164
vt 0.505859 -0.613281
vt 0.493896 -0.613281
vt 0.486084 -0.618164
vt 0.479492 -0.631836
vt 0.461426 -0.650391
vt 0.429932 -0.670898
vt 0.427002 -0.676758
vt 0.427002 -0.769531
vt 0.432129 -0.774414
vt 3.591797 -0.670898
vt 3.628906 -0.649414
vt 3.642578 -0.631836
vt 3.648438 -0.618164
vt 3.656250 -0.613281
vt 3.693359 -0.613281
vt 3.734375 -0.613281
vt 3.648438 0.431152
vt 3.656250 0.432617
vt 3.623047 0.462402
vt 3.626953 0.468262
vt 3.591797 0.486328
vt -2.593750 0.427246
vt -2.667969 0.427246
vt -2.693359 0.426758
vt -2.734375 0.427246
vt -1.927734 0.427246
vt -1.927734 0.432617
vt -1.968750 0.426758
vt -1.968750 0.431641
vt -1.993164 0.427246
vt -1.992188 0.432129
vt -2.068359 0.427246
vt 3.068359 0.486328
vt 3.039062 0.462402
vt 3.035156 0.468262
vt 3.013672 0.431152
vt 3.005859 0.432617
vt 0.423828 -0.700195
vt 0.567383 -0.619141
vt 0.567383 -0.685547
vt 2.968750 0.576172
vt 2.927734 0.576172
vt 2.927734 0.432617
vt 2.968750 0.431641
vt 2.970703 0.576172
vt -1.994141 0.576172
vt -1.968750 0.576172
vt -1.927734 0.576172
vt 0.575684 -0.774414
vt 0.427002 -0.684570
vt 0.427002 -0.619141
vt 0.432129 -0.613281
vt 0.575684 -0.613281
vt 2.968750 -0.613281
vt 2.927734 -0.613281
vt 2.927734 -0.619141
vt 2.968750 -0.619141
vt 3.005859 -0.613281
vt 3.003906 -0.619141
vt 3.013672 -0.618164
vt 3.017578 -0.631836
vt 3.011719 -0.635742
vt 3.033203 -0.649414
vt 3.027344 -0.654297
vt 3.070312 -0.670898
vt 3.068359 -0.676758
vt 0.567383 -0.613281
vt 0.423828 -0.613281
vt 0.572754 -0.619141
vt 0.572754 -0.684570
vt 0.423828 -0.774414
vt 3.734375 0.432617
vt 3.734375 0.576172
vt 3.693359 0.576172
vt 3.693359 0.431641
vt 3.689453 0.576172
vt 3.068359 -0.769531
vt 2.992188 -0.769531
vt 2.968750 -0.683594
vt 2.968750 -0.769531
vt 2.927734 -0.769531
vt 2.927734 -0.684570
vt 3.591797 0.430176
vt 3.628906 0.430176
vt 3.609375 0.449219
vt 3.642578 0.430664
vt 3.591797 0.461914
vt 3.619141 0.458496
vt 3.591797 0.479980
vt 3.070312 0.430176
vt 3.052734 0.449219
vt 3.033203 0.430176
vt 3.068359 0.461914
vt 3.017578 0.430664
vt 3.068359 0.479980
vt 3.042969 0.458496
s 1
usemtl MASTER_Concrete_Plaster
f 1/1/1 2/2/2 3/3/3
f 2/2/2 4/4/4 3/3/3
f 1/5/1 3/6/3 5/7/5
f 3/6/3 6/8/6 5/7/5
f 7/9/7 8/10/8 9/11/9
f 8/10/8 10/12/10 9/11/9
f 7/13/7 11/14/11 8/15/8
f 11/14/11 12/16/12 8/15/8
f 13/17/13 14/18/14 15/19/15
f 14/18/14 16/20/16 15/19/16
f 17/21/17 18/22/18 19/23/19
f 18/22/18 20/24/19 19/23/19
f 21/25/20 22/26/20 23/27/21
f 22/26/20 24/28/22 23/27/23
f 25/29/24 26/30/24 27/31/25
f 26/30/24 28/32/26 27/31/25
f 18/33/27 29/34/28 20/35/28
f 29/34/28 30/36/28 20/35/28
f 30/36/27 31/37/27 20/35/27
f 30/36/27 32/38/27 31/37/27
f 32/38/27 33/39/27 31/37/27
f 33/39/27 32/38/27 13/40/27
f 15/41/27 33/39/27 13/40/27
f 34/42/29 35/43/29 36/44/29
f 35/43/29 37/45/29 36/44/29
f 38/46/29 36/44/29 37/45/29
f 39/47/29 38/46/29 37/45/29
f 40/48/30 41/49/30 42/50/30
f 41/49/30 43/51/30 42/50/30
f 42/50/30 43/51/30 44/52/31
f 43/51/30 45/53/32 44/52/31
f 45/53/32 46/54/32 44/52/31
f 45/53/32 47/55/33 46/54/32
f 48/56/31 44/52/31 46/54/32
f 47/55/33 49/57/34 46/54/32
f 50/58/35 48/56/31 46/54/32
f 50/58/35 46/54/32 49/57/34
f 51/59/34 50/58/35 49/57/34
f 17/21/36 19/23/36 52/60/36
f 19/23/36 53/61/36 52/60/36
f 52/60/36 53/61/36 54/62/36
f 53/61/36 55/63/36 54/62/36
f 54/62/36 55/63/36 56/64/36
f 57/65/36 54/62/36 56/64/36
f 25/42/29 27/66/29 58/67/29
f 27/66/29 59/68/29 58/67/29
f 60/69/29 58/67/29 59/68/29
f 61/70/29 60/69/29 59/68/29
f 61/70/29 62/71/29 60/69/29
f 62/71/29 24/47/29 60/69/29
f 24/47/29 22/46/29 60/69/29
f 18/33/18 17/72/17 41/73/37
f 18/33/18 41/73/37 29/34/38
f 41/73/37 40/74/39 29/34/38
f 63/75/40 29/34/38 40/74/39
f 30/36/41 29/34/38 63/75/40
f 64/76/42 30/36/41 63/75/40
f 30/36/41 64/76/42 32/38/43
f 64/76/42 4/77/44 32/38/43
f 32/38/43 4/77/44 13/40/13
f 4/77/44 2/78/45 13/40/13
f 2/78/45 14/79/14 13/40/13
f 27/66/25 28/80/26 9/81/46
f 27/66/25 9/81/46 59/68/47
f 9/81/46 10/82/48 59/68/47
f 59/68/47 10/82/48 61/70/49
f 10/82/48 65/83/50 61/70/49
f 62/71/51 61/70/49 65/83/50
f 66/84/52 62/71/51 65/83/50
f 62/71/51 66/84/52 67/85/53
f 62/71/51 67/85/53 24/47/22
f 67/85/53 68/86/54 24/47/22
f 24/47/22 68/86/54 23/87/23
f 63/88/40 40/48/39 69/89/55
f 40/48/39 42/50/55 69/89/55
f 6/90/56 69/89/55 42/50/55
f 44/52/57 6/90/56 42/50/55
f 5/91/58 6/90/56 44/52/57
f 48/56/59 5/91/58 44/52/57
f 48/56/59 70/92/60 5/91/58
f 71/93/61 70/92/60 48/56/59
f 50/58/61 71/93/61 48/56/59
f 72/94/62 71/93/61 50/58/61
f 51/59/63 72/94/62 50/58/61
f 5/95/58 70/96/60 1/97/64
f 70/96/60 73/98/65 1/97/64
f 1/97/64 73/98/65 2/99/45
f 73/98/65 14/18/14 2/99/45
f 41/100/37 17/21/17 43/101/66
f 17/21/17 52/60/66 43/101/66
f 43/101/66 52/60/66 45/102/67
f 52/60/66 54/62/68 45/102/67
f 45/102/67 54/62/68 47/103/69
f 54/62/68 57/65/70 47/103/69
f 74/104/71 75/105/72 76/106/67
f 75/105/72 77/107/67 76/106/67
f 76/106/67 77/107/67 78/108/73
f 77/107/67 79/109/73 78/108/73
f 78/108/73 79/109/73 68/110/54
f 79/109/73 23/27/23 68/110/54
f 9/111/46 28/32/26 7/112/74
f 28/32/26 80/113/75 7/112/74
f 7/112/74 80/113/75 11/114/76
f 80/113/75 81/115/77 11/114/76
f 82/41/28 83/116/28 84/117/28
f 83/116/28 85/118/28 84/117/28
f 85/118/28 83/116/28 86/35/28
f 87/33/28 85/118/28 86/35/28
f 88/119/78 89/120/78 90/121/78
f 91/122/78 88/119/78 90/121/78
f 88/119/78 91/122/78 92/123/78
f 91/122/78 81/115/78 92/123/78
f 81/115/78 80/113/78 92/123/78
f 92/123/78 80/113/78 26/30/78
f 80/113/78 28/32/78 26/30/78
f 23/27/36 79/109/36 21/25/36
f 79/109/36 93/124/36 21/25/36
f 79/109/36 77/107/36 93/124/36
f 77/107/36 94/125/36 93/124/36
f 95/126/36 94/125/36 77/107/36
f 75/105/36 95/126/36 77/107/36
f 57/87/70 56/127/20 38/46/20
f 39/47/79 57/87/70 38/46/20
f 57/87/70 39/47/79 47/86/69
f 47/86/69 39/47/79 49/128/80
f 39/47/79 37/45/80 49/128/80
f 49/128/80 37/45/80 51/129/63
f 37/45/80 35/43/81 51/129/63
f 51/129/63 35/43/81 72/130/62
f 96/131/24 72/130/62 35/43/81
f 34/42/24 96/131/24 35/43/81
f 91/132/82 90/133/83 97/134/84
f 98/135/82 91/132/82 97/134/84
f 81/136/77 91/132/82 98/135/82
f 99/137/85 81/136/77 98/135/82
f 99/137/85 11/138/76 81/136/77
f 12/139/86 11/138/76 99/137/85
f 100/140/87 12/139/86 99/137/85
f 101/141/88 12/139/86 100/140/87
f 102/142/89 101/141/88 100/140/87
f 101/141/88 102/142/89 66/143/52
f 102/142/89 67/144/53 66/143/52
f 90/145/90 89/146/15 82/41/15
f 84/117/91 90/145/83 82/41/16
f 90/145/83 84/117/91 97/147/84
f 97/147/84 84/117/91 103/148/92
f 84/117/91 85/118/92 103/148/92
f 103/148/92 85/118/92 74/73/71
f 85/118/92 87/33/93 74/73/71
f 87/33/93 75/72/72 74/73/71
f 95/149/19 75/72/72 87/33/93
f 86/35/19 95/149/19 87/33/93
f 72/150/78 96/151/78 104/152/78
f 71/153/78 72/150/78 104/152/78
f 71/153/78 104/152/78 73/98/78
f 70/96/78 71/153/78 73/98/78
f 104/152/78 105/154/78 73/98/78
f 105/154/78 16/20/78 73/98/78
f 16/20/78 14/18/78 73/98/78
f 67/144/94 102/142/94 68/155/94
f 102/142/94 78/156/94 68/155/94
f 78/156/94 102/142/94 106/157/30
f 76/158/30 78/156/94 106/157/30
f 102/142/94 100/140/95 106/157/30
f 76/158/30 106/157/30 74/159/96
f 106/157/30 100/140/95 99/137/95
f 106/157/30 103/160/97 74/159/96
f 98/135/31 106/157/30 99/137/95
f 103/160/97 106/157/30 98/135/31
f 97/134/97 103/160/97 98/135/31
f 63/161/98 69/162/99 107/163/100
f 107/163/100 69/162/99 6/164/6
f 107/163/100 64/165/101 63/161/98
f 3/166/3 107/163/100 6/164/6
f 4/167/4 64/165/101 107/163/100
f 3/166/3 4/167/4 107/163/100
f 66/168/102 108/169/103 101/170/104
f 108/169/103 66/168/102 65/171/105
f 12/172/12 101/170/104 108/169/103
f 108/169/103 65/171/105 10/173/10
f 8/174/8 12/172/12 108/169/103
f 8/174/8 108/169/103 10/173/10
