# Blender 3.6.18
# www.blender.org
mtllib Mesh.1291.mtl
o Bistro_Research_Exterior__lod0_Glass_3919
v -7.762748 2.227951 0.018923
v -7.753521 2.219370 0.004843
v -7.764561 2.215755 0.000455
v -7.745537 2.207737 -0.007724
v -7.773423 2.223547 0.013624
v -7.773031 2.233165 0.034220
v -7.757343 2.204661 -0.011271
v -7.739033 2.193235 -0.018416
v -7.775592 2.208508 -0.001173
v -7.783478 2.227974 0.027926
v -7.784183 2.234700 0.050440
v -7.781039 2.213331 0.009276
v -7.794281 2.228975 0.043047
v -7.795604 2.232407 0.066700
v -7.790843 2.215657 0.021796
v -7.805197 2.226591 0.058312
v -7.806694 2.226135 0.082121
v -7.801292 2.215574 0.035619
v -7.815594 2.220866 0.073042
v -7.816911 2.216470 0.095977
v -7.811746 2.213011 0.049987
v -7.800354 2.186744 0.017451
v -7.825078 2.212147 0.086472
v -7.825716 2.203993 0.107541
v -7.821546 2.207869 0.064123
v -7.833260 2.200781 0.097836
v -7.832985 2.189137 0.116676
v -7.830251 2.200662 0.077259
v -7.816436 2.182642 0.038445
v -7.830550 2.175256 0.059948
v -7.837431 2.191876 0.088639
v -7.840032 2.187041 0.106669
v -7.845292 2.171200 0.112505
v -7.838594 2.172332 0.123242
v -7.843705 2.182594 0.094687
v -7.848828 2.153758 0.115426
v -7.842351 2.153926 0.126990
v -7.845981 2.170856 0.099062
v -7.848802 2.155056 0.099874
v -7.841661 2.167063 0.079777
v -7.850046 2.137801 0.098867
v -7.843226 2.142944 0.076409
v -7.831519 2.149688 0.054414
v -7.850431 2.135217 0.115513
v -7.844061 2.134269 0.127675
v -7.842591 2.125475 0.073231
v -7.849982 2.116485 0.112911
v -7.843595 2.114425 0.125204
v -7.849549 2.120075 0.096072
v -7.847363 2.098472 0.107760
v -7.840820 2.095458 0.119486
v -7.847130 2.102884 0.091499
v -7.842840 2.082037 0.100292
v -7.836033 2.078273 0.111027
v -7.843128 2.087112 0.085538
v -7.840336 2.108341 0.069107
v -7.834848 2.085481 0.062562
v -7.837862 2.073634 0.078548
v -7.836677 2.068038 0.090737
v -7.829529 2.063771 0.100335
v -7.833899 2.065163 0.069908
v -7.829166 2.056926 0.079214
v -7.821545 2.052138 0.087769
v -7.826437 2.060214 0.060858
v -7.820597 2.049153 0.065842
v -7.812319 2.043558 0.073689
v -7.818337 2.057996 0.047156
v -7.811101 2.044760 0.051153
v -7.802036 2.038343 0.058391
v -7.823248 2.087814 0.041497
v -7.809042 2.058151 0.032531
v -7.800807 2.043792 0.035679
v -7.790884 2.036808 0.042172
v -7.799030 2.060741 0.017857
v -7.790131 2.046191 0.020247
v -7.779462 2.039102 0.025911
v -7.808868 2.092024 0.019324
v -7.779493 2.051900 0.005684
v -7.768372 2.045373 0.010490
v -7.788790 2.065856 0.004028
v -7.769500 2.060588 -0.007394
v -7.758156 2.055039 -0.003365
v -7.778929 2.072990 -0.008307
v -7.760761 2.071919 -0.018370
v -7.749351 2.067515 -0.014930
v -7.770044 2.081669 -0.018506
v -7.793053 2.099303 -0.000999
v -7.765786 2.091078 -0.025951
v -7.753695 2.085640 -0.027000
v -7.742082 2.082371 -0.024065
v -7.777690 2.107228 -0.017879
v -7.761495 2.102689 -0.028929
v -7.748728 2.101500 -0.033039
v -7.736472 2.099177 -0.030630
v -7.760378 2.118597 -0.030923
v -7.745750 2.118977 -0.036347
v -7.732715 2.117582 -0.034379
v -7.779338 2.131549 -0.016740
v -7.744655 2.137550 -0.036787
v -7.731006 2.137240 -0.035064
v -7.760290 2.135924 -0.030717
v -7.745345 2.156296 -0.034352
v -7.731472 2.157084 -0.032593
v -7.761227 2.153678 -0.028227
v -7.747724 2.174294 -0.029034
v -7.734246 2.176050 -0.026874
v -7.763206 2.170841 -0.023349
v -7.780607 2.149058 -0.014002
v -7.782228 2.166152 -0.009439
v -7.766051 2.186540 -0.016586
v -7.751740 2.190698 -0.021214
v -7.769613 2.199912 -0.008414
v -7.784503 2.188810 -0.000665
v -7.799462 2.161885 0.009298
v -7.798052 2.143647 0.004738
v -7.816616 2.156545 0.031262
v -7.796394 2.125141 0.001545
v -7.815486 2.137511 0.026919
v -7.813433 2.118419 0.023217
v -7.830678 2.131234 0.050655
v -7.828452 2.112944 0.046660
vn -0.1217 0.8673 -0.4827
vn -0.0196 0.7879 -0.6154
vn -0.1691 0.7277 -0.6647
vn 0.0431 0.6703 -0.7409
vn -0.3095 0.7796 -0.5445
vn -0.2392 0.9060 -0.3491
vn -0.1447 0.5906 -0.7939
vn 0.0824 0.5299 -0.8440
vn -0.5355 0.4730 -0.6997
vn -0.4274 0.7881 -0.4430
vn -0.3572 0.9068 -0.2237
vn -0.6297 0.5046 -0.5906
vn -0.5222 0.7814 -0.3416
vn -0.4656 0.8804 -0.0900
vn -0.6716 0.4831 -0.5617
vn -0.6102 0.7598 -0.2244
vn -0.5549 0.8304 0.0512
vn -0.7319 0.4662 -0.4970
vn -0.6866 0.7180 -0.1138
vn -0.6296 0.7548 0.1838
vn -0.7797 0.4506 -0.4349
vn -0.7693 0.2460 -0.5897
vn -0.7489 0.6626 0.0118
vn -0.6954 0.6482 0.3104
vn -0.8245 0.4338 -0.3634
vn -0.7993 0.5867 0.1299
vn -0.7575 0.5063 0.4121
vn -0.8655 0.4112 -0.2860
vn -0.8232 0.2302 -0.5189
vn -0.8696 0.2067 -0.4484
vn -0.8879 0.4107 -0.2073
vn -0.8458 0.4681 0.2557
vn -0.9140 0.3021 0.2707
vn -0.8202 0.3414 0.4591
vn -0.9344 0.3402 -0.1055
vn -0.9527 0.1529 0.2627
vn -0.8646 0.1682 0.4734
vn -0.9793 0.1912 -0.0663
vn -0.9853 0.1207 -0.1207
vn -0.9192 0.1682 -0.3560
vn -0.9889 0.0352 -0.1446
vn -0.9288 0.0667 -0.3645
vn -0.8688 0.0896 -0.4870
vn -0.9712 0.0117 0.2379
vn -0.8889 0.0039 0.4581
vn -0.9255 -0.0039 -0.3788
vn -0.9679 -0.1293 0.2155
vn -0.8886 -0.1683 0.4267
vn -0.9846 -0.0506 -0.1673
vn -0.9458 -0.2685 0.1829
vn -0.8564 -0.3324 0.3950
vn -0.9734 -0.1368 -0.1837
vn -0.9037 -0.4030 0.1447
vn -0.8027 -0.4895 0.3407
vn -0.9562 -0.2147 -0.1990
vn -0.9162 -0.0741 -0.3938
vn -0.8914 -0.1596 -0.4243
vn -0.9429 -0.2777 -0.1839
vn -0.8387 -0.5344 0.1053
vn -0.7277 -0.6343 0.2607
vn -0.8608 -0.4168 -0.2921
vn -0.7376 -0.6752 0.0117
vn -0.6430 -0.7521 0.1442
vn -0.8120 -0.4390 -0.3846
vn -0.6880 -0.7113 -0.1438
vn -0.5664 -0.8241 -0.0039
vn -0.7960 -0.4000 -0.4543
vn -0.6256 -0.7267 -0.2837
vn -0.4893 -0.8572 -0.1605
vn -0.8371 -0.1518 -0.5256
vn -0.7579 -0.3770 -0.5324
vn -0.5579 -0.7218 -0.4096
vn -0.4084 -0.8596 -0.3072
vn -0.7115 -0.3615 -0.6026
vn -0.4850 -0.6945 -0.5315
vn -0.3153 -0.8368 -0.4477
vn -0.7911 -0.1364 -0.5963
vn -0.4017 -0.6591 -0.6357
vn -0.2143 -0.7911 -0.5729
vn -0.6592 -0.3472 -0.6670
vn -0.3075 -0.6034 -0.7357
vn -0.1054 -0.7148 -0.6913
vn -0.6053 -0.3163 -0.7304
vn -0.1987 -0.5337 -0.8220
vn 0.0039 -0.6118 -0.7910
vn -0.5647 -0.3232 -0.7594
vn -0.7367 -0.1130 -0.6667
vn -0.4554 -0.2296 -0.8602
vn -0.0742 -0.4097 -0.9092
vn 0.0819 -0.4720 -0.8778
vn -0.6650 -0.0739 -0.7432
vn -0.4176 -0.1132 -0.9016
vn -0.0899 -0.2462 -0.9651
vn 0.1213 -0.3092 -0.9432
vn -0.4641 -0.0351 -0.8851
vn -0.0979 -0.0979 -0.9904
vn 0.1294 -0.1292 -0.9831
vn -0.6668 0.0273 -0.7447
vn -0.1129 0.0506 -0.9923
vn 0.1215 0.0431 -0.9917
vn -0.4791 0.0507 -0.8763
vn -0.1289 0.1915 -0.9730
vn 0.1055 0.2070 -0.9726
vn -0.4936 0.1360 -0.8590
vn -0.1370 0.3250 -0.9357
vn 0.0982 0.3730 -0.9226
vn -0.4958 0.2225 -0.8394
vn -0.6759 0.0977 -0.7305
vn -0.6822 0.1599 -0.7134
vn -0.5044 0.3011 -0.8093
vn -0.1454 0.4597 -0.8761
vn -0.4748 0.3571 -0.8044
vn -0.6930 0.2467 -0.6774
vn -0.7716 0.1293 -0.6228
vn -0.7688 0.0663 -0.6361
vn -0.8225 0.1130 -0.5574
vn -0.7595 0.0039 -0.6505
vn -0.8195 0.0505 -0.5709
vn -0.8141 -0.0194 -0.5804
vn -0.8686 0.0273 -0.4947
vn -0.8597 -0.0350 -0.5096
vt 0.442139 0.878418
vt 0.439209 0.875977
vt 0.440674 0.874512
vt 0.436768 0.873047
vt 0.443359 0.876587
vt 0.445557 0.880188
vt 0.438721 0.871826
vt 0.435059 0.869629
vt 0.442383 0.872925
vt 0.446533 0.878052
vt 0.449463 0.881348
vt 0.444092 0.874390
vt 0.449951 0.879028
vt 0.453369 0.881775
vt 0.447021 0.875366
vt 0.453369 0.879333
vt 0.457520 0.881348
vt 0.450195 0.876038
vt 0.457031 0.879028
vt 0.461182 0.880188
vt 0.453369 0.876282
vt 0.448486 0.869995
vt 0.460449 0.878052
vt 0.464600 0.878418
vt 0.456787 0.876038
vt 0.463379 0.876587
vt 0.467529 0.875977
vt 0.459961 0.875366
vt 0.453369 0.870361
vt 0.458252 0.869995
vt 0.462646 0.874390
vt 0.466064 0.874512
vt 0.468262 0.871826
vt 0.469971 0.873047
vt 0.464355 0.872925
vt 0.469727 0.868774
vt 0.471680 0.869629
vt 0.465820 0.871094
vt 0.467041 0.868286
vt 0.462646 0.869507
vt 0.467529 0.865112
vt 0.463379 0.865112
vt 0.458496 0.865234
vt 0.470703 0.865479
vt 0.472900 0.865845
vt 0.463379 0.861816
vt 0.470947 0.861816
vt 0.473389 0.861816
vt 0.467773 0.861816
vt 0.470703 0.858276
vt 0.472900 0.857910
vt 0.467529 0.858521
vt 0.469727 0.854858
vt 0.471924 0.854004
vt 0.467041 0.855469
vt 0.463379 0.858643
vt 0.462646 0.854248
vt 0.465820 0.852661
vt 0.468262 0.851807
vt 0.469971 0.850708
vt 0.464355 0.850830
vt 0.466064 0.849243
vt 0.467529 0.847656
vt 0.462646 0.849365
vt 0.463379 0.847168
vt 0.464600 0.845337
vt 0.459961 0.848389
vt 0.460449 0.845581
vt 0.461182 0.843506
vt 0.458252 0.853760
vt 0.456787 0.847656
vt 0.457031 0.844727
vt 0.457520 0.842407
vt 0.453369 0.847412
vt 0.453369 0.844360
vt 0.453369 0.841919
vt 0.453369 0.853394
vt 0.449951 0.844727
vt 0.449463 0.842407
vt 0.450195 0.847656
vt 0.446533 0.845581
vt 0.445557 0.843506
vt 0.447021 0.848389
vt 0.443359 0.847168
vt 0.442139 0.845337
vt 0.444092 0.849365
vt 0.448486 0.853760
vt 0.442383 0.850830
vt 0.440674 0.849243
vt 0.439209 0.847656
vt 0.444092 0.854248
vt 0.440918 0.852661
vt 0.438721 0.851807
vt 0.436768 0.850708
vt 0.439941 0.855469
vt 0.437256 0.854858
vt 0.435059 0.854004
vt 0.443604 0.858643
vt 0.436279 0.858276
vt 0.433838 0.857910
vt 0.439209 0.858521
vt 0.435791 0.861816
vt 0.433350 0.861816
vt 0.438965 0.861816
vt 0.436279 0.865479
vt 0.433838 0.865845
vt 0.439209 0.865112
vt 0.443359 0.861816
vt 0.443604 0.865112
vt 0.439941 0.868286
vt 0.437256 0.868774
vt 0.440918 0.871094
vt 0.444092 0.869507
vt 0.448242 0.865234
vt 0.448242 0.861816
vt 0.453369 0.865356
vt 0.448242 0.858521
vt 0.453369 0.861816
vt 0.453369 0.858276
vt 0.458740 0.861816
vt 0.458496 0.858521
s 1
usemtl Vespa_Headlight
f 1/1/1 2/2/2 3/3/3
f 3/3/3 2/2/2 4/4/4
f 3/3/3 5/5/5 1/1/1
f 6/6/6 1/1/1 5/5/5
f 4/4/4 7/7/7 3/3/3
f 7/7/7 4/4/4 8/8/8
f 5/5/5 3/3/3 9/9/9
f 9/9/9 3/3/3 7/7/7
f 5/5/5 10/10/10 6/6/6
f 11/11/11 6/6/6 10/10/10
f 9/9/9 12/12/12 5/5/5
f 10/10/10 5/5/5 12/12/12
f 10/10/10 13/13/13 11/11/11
f 14/14/14 11/11/11 13/13/13
f 12/12/12 15/15/15 10/10/10
f 13/13/13 10/10/10 15/15/15
f 13/13/13 16/16/16 14/14/14
f 17/17/17 14/14/14 16/16/16
f 15/15/15 18/18/18 13/13/13
f 16/16/16 13/13/13 18/18/18
f 16/16/16 19/19/19 17/17/17
f 20/20/20 17/17/17 19/19/19
f 18/18/18 21/21/21 16/16/16
f 19/19/19 16/16/16 21/21/21
f 18/18/18 15/15/15 22/22/22
f 21/21/21 18/18/18 22/22/22
f 19/19/19 23/23/23 20/20/20
f 24/24/24 20/20/20 23/23/23
f 21/21/21 25/25/25 19/19/19
f 23/23/23 19/19/19 25/25/25
f 23/23/23 26/26/26 24/24/24
f 27/27/27 24/24/24 26/26/26
f 25/25/25 28/28/28 23/23/23
f 26/26/26 23/23/23 28/28/28
f 25/25/25 21/21/21 29/29/29
f 22/22/22 29/29/29 21/21/21
f 28/28/28 25/25/25 30/30/30
f 29/29/29 30/30/30 25/25/25
f 28/28/28 31/31/31 26/26/26
f 31/31/31 28/28/28 30/30/30
f 26/26/26 32/32/32 27/27/27
f 32/32/32 26/26/26 31/31/31
f 27/27/27 32/32/32 33/33/33
f 33/33/33 34/34/34 27/27/27
f 31/31/31 35/35/35 32/32/32
f 34/34/34 33/33/33 36/36/36
f 36/36/36 37/37/37 34/34/34
f 38/38/38 33/33/33 32/32/32
f 32/32/32 35/35/35 38/38/38
f 39/39/39 36/36/36 33/33/33
f 33/33/33 38/38/38 39/39/39
f 35/35/35 31/31/31 40/40/40
f 40/40/40 38/38/38 35/35/35
f 40/40/40 39/39/39 38/38/38
f 30/30/30 40/40/40 31/31/31
f 36/36/36 39/39/39 41/41/41
f 39/39/39 40/40/40 42/42/42
f 42/42/42 41/41/41 39/39/39
f 40/40/40 30/30/30 43/43/43
f 43/43/43 42/42/42 40/40/40
f 37/37/37 36/36/36 44/44/44
f 41/41/41 44/44/44 36/36/36
f 44/44/44 45/45/45 37/37/37
f 41/41/41 42/42/42 46/46/46
f 45/45/45 44/44/44 47/47/47
f 47/47/47 48/48/48 45/45/45
f 44/44/44 41/41/41 49/49/49
f 49/49/49 47/47/47 44/44/44
f 46/46/46 49/49/49 41/41/41
f 48/48/48 47/47/47 50/50/50
f 50/50/50 51/51/51 48/48/48
f 47/47/47 49/49/49 52/52/52
f 52/52/52 50/50/50 47/47/47
f 51/51/51 50/50/50 53/53/53
f 53/53/53 54/54/54 51/51/51
f 50/50/50 52/52/52 55/55/55
f 55/55/55 53/53/53 50/50/50
f 56/56/56 52/52/52 49/49/49
f 49/49/49 46/46/46 56/56/56
f 57/57/57 55/55/55 52/52/52
f 52/52/52 56/56/56 57/57/57
f 53/53/53 55/55/55 58/58/58
f 55/55/55 57/57/57 58/58/58
f 54/54/54 53/53/53 59/59/59
f 58/58/58 59/59/59 53/53/53
f 59/59/59 60/60/60 54/54/54
f 59/59/59 58/58/58 61/61/61
f 61/61/61 58/58/58 57/57/57
f 60/60/60 59/59/59 62/62/62
f 61/61/61 62/62/62 59/59/59
f 62/62/62 63/63/63 60/60/60
f 62/62/62 61/61/61 64/64/64
f 57/57/57 64/64/64 61/61/61
f 63/63/63 62/62/62 65/65/65
f 64/64/64 65/65/65 62/62/62
f 65/65/65 66/66/66 63/63/63
f 67/67/67 64/64/64 57/57/57
f 65/65/65 64/64/64 67/67/67
f 66/66/66 65/65/65 68/68/68
f 67/67/67 68/68/68 65/65/65
f 68/68/68 69/69/69 66/66/66
f 57/57/57 70/70/70 67/67/67
f 70/70/70 57/57/57 56/56/56
f 68/68/68 67/67/67 71/71/71
f 71/71/71 67/67/67 70/70/70
f 69/69/69 68/68/68 72/72/72
f 71/71/71 72/72/72 68/68/68
f 72/72/72 73/73/73 69/69/69
f 72/72/72 71/71/71 74/74/74
f 74/74/74 71/71/71 70/70/70
f 73/73/73 72/72/72 75/75/75
f 74/74/74 75/75/75 72/72/72
f 75/75/75 76/76/76 73/73/73
f 70/70/70 77/77/77 74/74/74
f 76/76/76 75/75/75 78/78/78
f 78/78/78 79/79/79 76/76/76
f 75/75/75 74/74/74 80/80/80
f 80/80/80 78/78/78 75/75/75
f 80/80/80 74/74/74 77/77/77
f 79/79/79 78/78/78 81/81/81
f 81/81/81 82/82/82 79/79/79
f 78/78/78 80/80/80 83/83/83
f 83/83/83 81/81/81 78/78/78
f 82/82/82 81/81/81 84/84/84
f 84/84/84 85/85/85 82/82/82
f 81/81/81 83/83/83 86/86/86
f 86/86/86 84/84/84 81/81/81
f 83/83/83 80/80/80 87/87/87
f 86/86/86 83/83/83 87/87/87
f 77/77/77 87/87/87 80/80/80
f 84/84/84 86/86/86 88/88/88
f 85/85/85 84/84/84 89/89/89
f 88/88/88 89/89/89 84/84/84
f 89/89/89 90/90/90 85/85/85
f 88/88/88 86/86/86 91/91/91
f 87/87/87 91/91/91 86/86/86
f 89/89/89 88/88/88 92/92/92
f 91/91/91 92/92/92 88/88/88
f 90/90/90 89/89/89 93/93/93
f 92/92/92 93/93/93 89/89/89
f 93/93/93 94/94/94 90/90/90
f 93/93/93 92/92/92 95/95/95
f 91/91/91 95/95/95 92/92/92
f 94/94/94 93/93/93 96/96/96
f 95/95/95 96/96/96 93/93/93
f 96/96/96 97/97/97 94/94/94
f 95/95/95 91/91/91 98/98/98
f 97/97/97 96/96/96 99/99/99
f 99/99/99 100/100/100 97/97/97
f 96/96/96 95/95/95 101/101/101
f 101/101/101 99/99/99 96/96/96
f 98/98/98 101/101/101 95/95/95
f 100/100/100 99/99/99 102/102/102
f 102/102/102 103/103/103 100/100/100
f 99/99/99 101/101/101 104/104/104
f 104/104/104 102/102/102 99/99/99
f 103/103/103 102/102/102 105/105/105
f 105/105/105 106/106/106 103/103/103
f 102/102/102 104/104/104 107/107/107
f 107/107/107 105/105/105 102/102/102
f 108/108/108 104/104/104 101/101/101
f 101/101/101 98/98/98 108/108/108
f 109/109/109 107/107/107 104/104/104
f 104/104/104 108/108/108 109/109/109
f 105/105/105 107/107/107 110/110/110
f 106/106/106 105/105/105 111/111/111
f 110/110/110 111/111/111 105/105/105
f 111/111/111 8/8/8 106/106/106
f 8/8/8 111/111/111 7/7/7
f 112/112/112 7/7/7 111/111/111
f 111/111/111 110/110/110 112/112/112
f 7/7/7 112/112/112 9/9/9
f 113/113/113 110/110/110 107/107/107
f 110/110/110 113/113/113 112/112/112
f 9/9/9 112/112/112 113/113/113
f 107/107/107 109/109/109 113/113/113
f 113/113/113 12/12/12 9/9/9
f 15/15/15 12/12/12 113/113/113
f 113/113/113 22/22/22 15/15/15
f 22/22/22 113/113/113 109/109/109
f 109/109/109 114/114/114 22/22/22
f 114/114/114 109/109/109 108/108/108
f 29/29/29 22/22/22 114/114/114
f 108/108/108 115/115/115 114/114/114
f 115/115/115 108/108/108 98/98/98
f 114/114/114 116/116/116 29/29/29
f 116/116/116 114/114/114 115/115/115
f 30/30/30 29/29/29 116/116/116
f 116/116/116 43/43/43 30/30/30
f 98/98/98 117/117/117 115/115/115
f 117/117/117 98/98/98 91/91/91
f 91/91/91 87/87/87 117/117/117
f 115/115/115 118/118/118 116/116/116
f 118/118/118 115/115/115 117/117/117
f 43/43/43 116/116/116 118/118/118
f 119/119/119 117/117/117 87/87/87
f 117/117/117 119/119/119 118/118/118
f 87/87/87 77/77/77 119/119/119
f 118/118/118 120/120/120 43/43/43
f 120/120/120 118/118/118 119/119/119
f 42/42/42 43/43/43 120/120/120
f 120/120/120 46/46/46 42/42/42
f 121/121/121 119/119/119 77/77/77
f 119/119/119 121/121/121 120/120/120
f 46/46/46 120/120/120 121/121/121
f 77/77/77 70/70/70 121/121/121
f 121/121/121 56/56/56 46/46/46
f 56/56/56 121/121/121 70/70/70
