# Blender 3.6.18
# www.blender.org
mtllib Mesh.487.mtl
o Bistro_Research_Exterior_paris_building_11_5587
v 0.684320 11.217870 19.421999
v 0.700831 11.328506 19.308289
v 1.556653 11.217866 19.778702
v 1.625870 11.328506 19.686543
v 0.571356 11.112452 19.768986
v 0.664724 11.112470 19.540731
v 1.396598 11.112460 20.106432
v 1.489895 11.112478 19.878162
v 0.698955 11.355775 19.295290
v 0.602122 11.774196 19.251783
v 1.636588 11.355776 19.678610
v 1.736283 11.774201 19.723160
v 0.672510 11.124004 19.514654
v 1.502391 11.124014 19.854008
v 0.412296 11.790215 19.703918
v 1.557854 11.790202 20.172342
v 0.591833 11.790195 19.264889
v 1.734601 11.790202 19.739727
v 1.745686 11.774719 19.744226
v 1.568927 11.774719 20.176872
v 0.401120 11.774705 19.699348
v 0.580644 11.774686 19.260355
v 1.641965 11.339776 19.698137
v 1.463974 11.339778 20.133951
v 1.565436 11.217866 19.799580
v 1.434383 11.217866 20.121878
v 1.511501 11.128060 19.877203
v 1.414802 11.128035 20.113874
v 0.649677 11.127974 19.524817
v 0.552884 11.127954 19.761431
v 0.663448 11.217870 19.430750
v 0.531644 11.217870 19.752741
v 0.681383 11.339775 19.305353
v 0.503010 11.339777 19.741007
vn 0.2612 -0.7056 -0.6588
vn 0.2610 -0.7131 -0.6507
vn 0.2611 -0.7130 -0.6507
vn -0.0039 -1.0000 -0.0039
vn 0.3788 -0.0039 -0.9255
vn 0.2700 -0.6925 -0.6690
vn 0.2699 -0.6925 -0.6690
vn -0.0039 1.0000 -0.0039
vn 0.9262 0.3508 -0.1379
vn 0.6824 0.6902 -0.2406
vn 0.7320 0.6133 0.2968
vn 0.6824 0.6903 -0.2406
vn -0.7339 0.6083 -0.3022
vn -0.5669 0.3480 -0.7467
vn -0.3262 0.6878 -0.6485
vn -0.5669 0.3479 -0.7467
vn 0.8945 -0.2561 0.3665
vn 0.8978 -0.2470 0.3646
vn 0.9012 -0.2322 0.3660
vn -0.8952 -0.2463 -0.3714
vn -0.8952 -0.2463 -0.3713
vn 0.5899 -0.5430 -0.5977
vn 0.7797 -0.4506 -0.4349
vn 0.6986 -0.6596 -0.2771
vn 0.7092 -0.6543 -0.2625
vn 0.5182 -0.8144 -0.2611
vn 0.6456 -0.7629 -0.0352
vn 0.5692 -0.7889 0.2316
vn 0.6455 -0.7629 -0.0352
vn 0.5691 -0.7890 0.2316
vn 0.4418 -0.8952 -0.0586
vn -0.1908 -0.8138 -0.5490
vn -0.2776 -0.8954 -0.3480
vn -0.5646 -0.7904 -0.2375
vn -0.4312 -0.7653 -0.4778
vn -0.3159 -0.6591 -0.6825
vn -0.3315 -0.6513 -0.6825
vn -0.0117 -0.5429 -0.8397
vn -0.2541 -0.4497 -0.8563
vn 0.7267 -0.3182 -0.6088
vn -0.0971 -0.3147 -0.9442
vn 0.7343 0.3573 -0.5771
vn -0.1212 0.3558 -0.9267
vt -0.886230 0.462402
vt -0.895020 0.427734
vt -0.591797 0.462402
vt -0.583008 0.427734
vt -0.877930 0.576172
vt -0.877930 0.499512
vt -0.599609 0.576172
vt -0.599609 0.499512
vt 1.896484 0.481445
vt 1.929688 0.612061
vt 1.580078 0.481445
vt 1.545898 0.612061
vt 1.878906 0.409180
vt 1.885742 0.438477
vt 1.598633 0.409180
vt 1.591797 0.438477
vt 1.931641 0.576172
vt 1.544922 0.576172
vt 1.931641 0.428223
vt 1.544922 0.430176
vt 0.569824 0.612305
vt 0.569824 0.616943
vt 0.423828 0.612305
vt 0.423828 0.616943
vt 0.575684 0.612305
vt 0.575684 0.616943
vt 0.427734 0.612305
vt 0.427734 0.616943
vt 0.570801 0.476562
vt 0.423828 0.476562
vt 0.532227 0.438477
vt 0.423828 0.438477
vt 0.503418 0.410156
vt 0.423828 0.410156
vt 0.496094 0.410156
vt 0.575684 0.410156
vt 0.467285 0.438477
vt 0.575684 0.438477
vt 0.428955 0.476562
vt 0.575684 0.476562
vt -0.576660 0.429199
vt -0.586914 0.467773
vt -0.598633 0.490723
vt -0.593262 0.496582
vt -0.593262 0.576172
vt -0.878906 0.490723
vt -0.884277 0.576172
vt -0.884277 0.496582
vt -0.891602 0.467773
vt -0.900879 0.429199
vt 1.576172 0.476562
vt 1.583008 0.472656
vt 1.541016 0.612305
vt 1.894531 0.472656
vt 1.544922 0.616943
vt 1.900391 0.476562
vt 1.931641 0.616943
vt 1.935547 0.612305
s 1
usemtl MASTER_Concrete_Plaster
f 1/1/1 2/2/2 3/3/1
f 2/2/2 4/4/3 3/3/1
f 5/5/4 6/6/4 7/7/4
f 6/6/4 8/8/4 7/7/4
f 9/9/5 10/10/5 11/11/5
f 10/10/5 12/12/5 11/11/5
f 13/13/6 1/14/1 14/15/7
f 1/14/1 3/16/1 14/15/7
f 15/17/8 16/18/8 17/19/8
f 16/18/8 18/20/8 17/19/8
f 19/21/9 18/22/10 20/23/11
f 18/22/12 16/24/11 20/23/11
f 21/25/13 15/26/13 22/27/14
f 15/26/13 17/28/15 22/27/16
f 19/21/17 20/23/17 23/29/17
f 20/23/17 24/30/17 23/29/17
f 23/29/17 24/30/17 25/31/17
f 24/30/17 26/32/18 25/31/17
f 25/31/17 26/32/18 27/33/19
f 26/32/18 28/34/19 27/33/19
f 29/35/20 30/36/21 31/37/20
f 30/36/21 32/38/21 31/37/20
f 31/37/20 32/38/21 33/39/20
f 32/38/21 34/40/20 33/39/20
f 33/39/20 34/40/20 22/27/20
f 34/40/20 21/25/20 22/27/20
f 4/4/22 23/41/23 3/3/24
f 23/41/23 25/42/25 3/3/24
f 3/3/24 25/42/25 14/43/26
f 25/42/25 27/44/27 14/43/26
f 28/45/28 7/7/28 27/44/29
f 7/7/30 8/8/31 27/44/27
f 27/44/27 8/8/31 14/43/26
f 13/46/32 14/43/26 8/8/31
f 6/6/33 13/46/32 8/8/31
f 5/5/34 30/47/34 6/6/33
f 30/47/34 29/48/35 6/6/33
f 13/46/32 6/6/33 29/48/35
f 13/46/32 29/48/35 1/1/36
f 29/48/35 31/49/37 1/1/36
f 1/1/36 31/49/37 2/2/38
f 31/49/37 33/50/39 2/2/38
f 11/11/40 23/51/23 4/52/22
f 19/53/9 23/51/23 11/11/40
f 11/11/40 4/52/22 9/9/41
f 12/12/42 19/53/9 11/11/40
f 4/52/22 2/54/38 9/9/41
f 12/12/42 18/55/10 19/53/9
f 33/56/39 9/9/41 2/54/38
f 17/57/15 18/55/10 12/12/42
f 9/9/41 33/56/39 10/10/43
f 10/10/43 17/57/15 12/12/42
f 33/56/39 22/58/16 10/10/43
f 22/58/16 17/57/15 10/10/43
