# Blender 3.6.18
# www.blender.org
mtllib Mesh.1028.mtl
o Bistro_Research_Exterior_Paris_Building_01_paris_buildi_5cf3a0c
v 15.795640 11.625685 8.100575
v 15.890042 11.625685 7.864230
v 15.953395 11.024966 7.889546
v 15.886435 11.024966 8.057199
v 15.898364 11.024903 8.077984
v 15.807551 11.625749 8.121369
v 15.877065 11.562135 8.140705
v 16.134518 11.562136 8.243562
v 16.198221 11.625749 8.277448
v 15.948122 11.087853 8.106209
v 16.162268 11.024905 8.183417
v 16.185234 11.024967 8.176574
v 16.252193 11.024966 8.008935
v 16.315575 11.625687 8.034256
v 16.221182 11.625686 8.270584
v 16.106762 11.087853 8.169588
v 16.092918 11.099656 8.160002
v 16.125740 11.546297 8.232726
v 16.099199 11.105925 8.163348
v 15.964762 11.099655 8.108801
v 16.084953 11.117830 8.140858
v 15.957905 11.105925 8.106898
v 15.983727 11.117830 8.100416
v 15.976874 11.124100 8.098510
v 15.890892 11.546296 8.138899
v 16.078020 11.127257 8.139338
v 15.895840 11.552565 8.141714
v 15.915233 11.531957 8.127961
v 16.120214 11.552565 8.231355
v 15.920187 11.538226 8.130772
v 16.110109 11.538226 8.206648
v 16.115637 11.531957 8.208025
v 16.091230 11.124101 8.144197
v 16.106285 11.523994 8.203234
v 16.102047 11.528800 8.202178
v 15.929111 11.528800 8.133086
v 16.082832 11.132063 8.141897
v 15.925310 11.523994 8.130932
v 16.002045 11.486452 8.201509
v 16.005671 11.479096 8.203948
v 15.997735 11.479096 8.200776
v 16.023676 11.169919 8.158951
v 15.984547 11.132062 8.102631
v 16.015669 11.169919 8.155753
v 16.020872 11.162084 8.154345
v 15.989799 11.127256 8.104093
v 15.972461 11.010287 7.897163
v 15.906186 11.010288 8.063091
v 16.233130 11.010289 8.001317
v 16.166857 11.010288 8.167233
v 16.299921 11.640365 8.028004
v 16.204739 11.640364 8.266303
v 15.905695 11.640363 7.870484
v 15.810507 11.640363 8.108802
vn -0.9223 -0.1129 -0.3697
vn -0.9227 -0.1129 -0.3686
vn -0.9223 -0.1128 -0.3697
vn -0.3717 -0.1291 0.9194
vn -0.3716 -0.1291 0.9194
vn -0.3717 -0.1291 0.9193
vn 0.9238 -0.1140 0.3656
vn 0.9226 -0.1140 0.3685
vn -0.2941 0.6313 0.7176
vn -0.9254 -0.0117 0.3787
vn 0.4072 -0.0119 0.9133
vn -0.2624 -0.7167 0.6462
vn -0.2233 -0.8031 0.5524
vn -0.9254 -0.0117 0.3788
vn 0.1143 -0.1538 0.9815
vn -0.2872 0.6492 0.7043
vn 0.1143 -0.1537 0.9815
vn -0.7621 -0.1524 0.6292
vn -0.7621 -0.1524 0.6293
vn -0.0047 -1.0000 -0.0019
vn -0.0039 -1.0000 -0.0039
vn -0.0047 1.0000 -0.0019
vn -0.0039 1.0000 -0.0039
vt 0.202637 0.280273
vt 0.124939 0.261719
vt 0.168823 0.077148
vt 0.223999 0.089844
vt 0.231567 0.090820
vt 0.210083 0.280762
vt 0.232422 0.261230
vt 0.320068 0.261230
vt 0.342285 0.280762
vt 0.249146 0.110352
vt 0.320801 0.090820
vt 0.328369 0.089844
vt 0.383545 0.077148
vt 0.427490 0.261719
vt 0.349854 0.280273
vt 0.303223 0.110352
vt 0.298096 0.113770
vt 0.316650 0.255859
vt 0.300781 0.115723
vt 0.254150 0.113770
vt 0.293213 0.119629
vt 0.251465 0.115723
vt 0.259033 0.119629
vt 0.257080 0.121582
vt 0.235840 0.255859
vt 0.291260 0.122070
vt 0.238037 0.258301
vt 0.242554 0.250488
vt 0.314453 0.258301
vt 0.244141 0.251953
vt 0.308105 0.251953
vt 0.309814 0.250488
vt 0.295410 0.121582
vt 0.307617 0.248047
vt 0.305664 0.250000
vt 0.246704 0.250000
vt 0.293457 0.123535
vt 0.244873 0.248047
vt 0.276123 0.235352
vt 0.276855 0.234863
vt 0.275391 0.234863
vt 0.277100 0.137695
vt 0.258789 0.123535
vt 0.275391 0.137695
vt 0.276123 0.136230
vt 0.260986 0.122070
vt 0.663574 0.433594
vt 0.671387 0.433594
vt 0.664062 0.491211
vt 0.671875 0.489746
vt 0.670898 0.496582
vt 0.760254 0.433105
vt 0.761230 0.496582
vt 0.760254 0.489746
vt 0.768555 0.433594
vt 0.768066 0.491211
vt 0.706055 0.096680
vt 0.713379 0.096680
vt 0.707031 0.177246
vt 0.713379 0.177246
vt 0.713379 0.183105
vt 0.847168 0.096680
vt 0.847168 0.183105
vt 0.846680 0.177246
vt 0.854492 0.096680
vt 0.853516 0.177246
s 1
usemtl MASTER_Concrete_Smooth
f 1/1/1 2/2/2 3/3/3
f 4/4/3 1/1/1 3/3/3
f 1/1/1 4/4/3 5/5/4
f 6/6/5 1/1/1 5/5/4
f 6/6/5 5/5/4 7/7/6
f 6/6/5 7/7/6 8/8/5
f 9/9/6 6/6/5 8/8/5
f 5/5/4 10/10/6 7/7/6
f 5/5/4 11/11/5 10/10/6
f 11/11/5 12/12/7 9/9/6
f 12/12/7 13/13/8 14/14/7
f 15/15/7 12/12/7 14/14/7
f 12/12/7 15/15/7 9/9/6
f 11/11/5 9/9/6 16/16/5
f 11/11/5 16/16/5 10/10/6
f 9/9/6 8/8/5 16/16/5
f 10/10/6 16/16/5 17/17/9
f 16/16/5 8/8/5 18/18/10
f 16/16/5 19/19/10 17/17/9
f 19/19/10 16/16/5 18/18/10
f 20/20/9 10/10/6 17/17/9
f 17/17/9 19/19/10 21/21/9
f 10/10/6 20/20/9 22/22/11
f 7/7/6 10/10/6 22/22/11
f 20/20/9 17/17/9 23/23/9
f 17/17/9 21/21/9 23/23/9
f 22/22/11 20/20/9 24/24/11
f 20/20/9 23/23/9 24/24/11
f 25/25/11 7/7/6 22/22/11
f 23/23/9 21/21/9 26/26/12
f 7/7/6 25/25/11 27/27/13
f 8/8/5 7/7/6 27/27/13
f 25/25/11 22/22/11 28/28/11
f 22/22/11 24/24/11 28/28/11
f 29/29/13 8/8/5 27/27/13
f 8/8/5 29/29/13 18/18/10
f 27/27/13 25/25/11 30/30/13
f 25/25/11 28/28/11 30/30/13
f 29/29/13 27/27/13 31/31/13
f 27/27/13 30/30/13 31/31/13
f 18/18/10 29/29/13 32/32/14
f 29/29/13 31/31/13 32/32/14
f 18/18/10 32/32/14 33/33/14
f 19/19/10 18/18/10 33/33/14
f 19/19/10 33/33/14 21/21/9
f 21/21/9 33/33/14 26/26/12
f 32/32/14 31/31/13 34/34/15
f 33/33/14 32/32/14 34/34/15
f 31/31/13 30/30/13 35/35/16
f 31/31/13 35/35/16 34/34/15
f 30/30/13 36/36/16 35/35/16
f 30/30/13 28/28/11 36/36/16
f 37/37/17 33/33/14 34/34/15
f 33/33/14 37/37/17 26/26/12
f 28/28/11 38/38/18 36/36/16
f 28/28/11 24/24/11 38/38/18
f 35/35/16 36/36/16 39/39/16
f 36/36/16 38/38/18 39/39/16
f 35/35/16 39/39/16 40/40/17
f 34/34/15 35/35/16 40/40/17
f 38/38/18 41/41/18 39/39/16
f 39/39/16 41/41/18 40/40/17
f 34/34/15 40/40/17 42/42/17
f 40/40/17 41/41/18 42/42/17
f 37/37/17 34/34/15 42/42/17
f 38/38/18 43/43/19 41/41/18
f 24/24/11 43/43/19 38/38/18
f 41/41/18 44/44/19 42/42/17
f 43/43/19 44/44/19 41/41/18
f 37/37/17 42/42/17 45/45/12
f 45/45/12 42/42/17 44/44/19
f 26/26/12 37/37/17 45/45/12
f 43/43/19 46/46/12 44/44/19
f 46/46/12 45/45/12 44/44/19
f 46/46/12 43/43/19 24/24/11
f 46/46/12 26/26/12 45/45/12
f 23/23/9 46/46/12 24/24/11
f 46/46/12 23/23/9 26/26/12
f 3/47/3 47/48/20 4/49/3
f 47/48/20 48/50/21 4/49/3
f 4/49/3 48/50/21 5/51/4
f 47/48/20 49/52/21 48/50/21
f 5/51/4 48/50/21 11/53/5
f 49/52/21 50/54/21 48/50/21
f 48/50/21 50/54/21 11/53/5
f 50/54/21 49/52/21 13/55/8
f 50/54/21 12/56/7 11/53/5
f 12/56/7 50/54/21 13/55/8
f 14/57/7 51/58/22 15/59/7
f 51/58/22 52/60/23 15/59/7
f 9/61/6 15/59/7 52/60/23
f 52/60/23 51/58/22 53/62/23
f 9/61/6 52/60/23 6/63/5
f 54/64/23 52/60/23 53/62/23
f 52/60/23 54/64/23 6/63/5
f 54/64/23 53/62/23 2/65/2
f 6/63/5 54/64/23 1/66/1
f 1/66/1 54/64/23 2/65/2
