# Blender 3.6.18
# www.blender.org
mtllib Mesh.837.mtl
o Bistro_Research_Exterior_Paris_Building_01_paris_buildi_63c47ce
v -2.461354 2.097738 -3.306180
v -2.461353 3.918427 -3.306178
v -2.501910 3.918575 -3.390471
v -2.494535 4.021284 -3.375154
v -2.501911 2.097591 -3.390473
v -2.494536 1.994881 -3.375155
v -2.510209 3.934817 -3.407723
v -2.510211 2.081349 -3.407725
v -2.526365 3.953351 -3.441307
v -2.503206 4.031395 -3.393179
v -2.519683 3.905287 -3.399135
v -2.524915 3.920900 -3.407105
v -2.536897 3.970449 -3.463199
v -2.508008 4.039243 -3.403161
v -2.511704 4.049361 -3.410844
v -2.542243 3.940896 -3.443129
v -2.545147 3.992445 -3.480349
v -2.553895 3.959605 -3.466591
v -2.556415 4.055686 -3.503771
v -2.518209 4.090313 -3.424366
v -2.562174 4.157758 -3.515757
v -2.562598 3.983474 -3.485445
v -2.565796 3.958537 -3.462001
v -2.562310 4.064318 -3.516026
v -2.744274 4.157759 -3.894290
v -2.570151 4.039966 -3.509624
v -2.575062 3.982594 -3.480772
v -2.554546 3.939686 -3.438128
v -2.583216 3.946585 -3.466535
v -2.587896 4.038347 -3.502119
v -2.537100 3.919558 -3.401865
v -2.575742 4.049241 -3.512821
v -2.535883 3.905285 -3.393419
v -2.570741 3.926168 -3.440604
v -2.552676 3.905324 -3.403053
v -2.535884 2.110881 -3.393420
v -2.552678 2.110842 -3.403054
v -2.826404 3.905325 -3.972055
v -2.519684 2.110878 -3.399137
v -2.524916 2.095266 -3.407106
v -2.537101 2.096607 -3.401867
v -2.526367 2.062814 -3.441309
v -2.503208 1.984770 -3.393180
v -2.554547 2.076480 -3.438130
v -2.536898 2.045717 -3.463201
v -2.508010 1.976923 -3.403162
v -2.542244 2.075271 -3.443130
v -2.545149 2.023721 -3.480350
v -2.511706 1.966805 -3.410846
v -2.553896 2.056561 -3.466593
v -2.556416 1.960480 -3.503773
v -2.518211 1.925852 -3.424368
v -2.562176 1.858408 -3.515759
v -2.562600 2.032692 -3.485447
v -2.562311 1.951848 -3.516028
v -2.744276 1.858408 -3.894292
v -2.570152 1.976200 -3.509626
v -2.575063 2.033571 -3.480773
v -2.744150 1.951849 -3.894018
v -2.788241 1.925853 -3.985683
v -2.587434 1.979832 -3.501350
v -2.565798 2.057628 -3.462003
v -2.604089 1.982563 -3.509924
v -2.593021 2.043401 -3.486917
v -2.583217 2.069581 -3.466536
v -2.591304 1.972834 -3.508725
v -2.774994 1.982563 -3.865187
v -2.786062 2.043401 -3.888194
v -2.575744 1.966925 -3.512823
v -2.768008 1.972834 -3.876043
v -2.753820 1.966926 -3.882991
v -2.770989 1.977849 -3.882720
v -2.779654 2.033572 -3.906058
v -2.754076 1.966926 -3.883523
v -2.754046 1.976200 -3.891888
v -2.750046 1.960480 -3.906273
v -2.794746 1.966806 -3.999205
v -2.761313 2.023721 -3.929696
v -2.768223 2.032693 -3.912879
v -2.769564 2.045717 -3.946845
v -2.798442 1.976924 -4.006888
v -2.803244 1.984771 -4.016870
v -2.788537 2.057629 -3.925014
v -2.780095 2.062815 -3.968737
v -2.811915 1.994882 -4.034895
v -2.777522 2.056562 -3.931447
v -2.788581 2.075271 -3.955195
v -2.796251 2.081349 -4.002321
v -2.845097 2.097739 -4.103871
v -2.800167 2.076480 -3.948703
v -2.804550 2.097591 -4.019573
v -2.805912 2.095266 -3.991218
v -2.845095 3.918428 -4.103869
v -2.795866 2.069582 -3.908573
v -2.570743 2.089998 -3.440606
v -2.808341 2.089999 -3.934504
v -2.826406 2.110842 -3.972056
v -2.817611 2.096608 -3.984967
v -2.808874 2.110879 -4.000279
v -2.823451 2.110882 -3.991189
v -2.823450 3.905286 -3.991188
v -2.808872 3.905288 -4.000278
v -2.817610 3.919559 -3.984966
v -2.804549 3.918575 -4.019572
v -2.805911 3.920901 -3.991216
v -2.796250 3.934817 -4.002320
v -2.811914 4.021285 -4.034894
v -2.808340 3.926168 -3.934503
v -2.780094 3.953352 -3.968735
v -2.803243 4.031396 -4.016870
v -2.795865 3.946585 -3.908572
v -2.800165 3.939687 -3.948702
v -2.788580 3.940896 -3.955193
v -2.788535 3.958538 -3.925012
v -2.777520 3.959605 -3.931446
v -2.769562 3.970450 -3.946844
v -2.798440 4.039243 -4.006886
v -2.779652 3.982595 -3.906057
v -2.761312 3.992445 -3.929694
v -2.794744 4.049361 -3.999204
v -2.768222 3.983474 -3.912878
v -2.750044 4.055687 -3.906271
v -2.788239 4.090314 -3.985681
v -2.754044 4.039967 -3.891887
v -2.744149 4.064319 -3.894017
v -2.754074 4.049241 -3.883522
v -2.593068 4.043332 -3.512395
v -2.767524 4.043333 -3.875038
v -2.771047 4.037935 -3.882879
v -2.604087 4.033603 -3.509922
v -2.774992 4.033604 -3.865185
v -2.593020 3.972764 -3.486915
v -2.786061 3.972766 -3.888192
vn -0.9044 -0.0039 0.4267
vn -0.9044 -0.0039 0.4268
vn -0.4425 -0.0039 0.8967
vn -0.5481 0.5954 0.5875
vn -0.5480 0.5954 0.5875
vn -0.4993 0.5465 0.6723
vn -0.4996 0.2478 0.8301
vn -0.5395 0.5159 0.6655
vn -0.4996 0.2478 0.8300
vn -0.4585 0.2312 0.8581
vn -0.5720 0.5721 0.5878
vn -0.8917 0.0275 0.4517
vn -0.6783 0.6626 0.3176
vn -0.4983 -0.0039 0.8670
vn -0.8931 0.0351 0.4485
vn -0.8968 -0.0039 0.4425
vn -0.4982 -0.0040 0.8670
vn -0.9117 -0.0039 0.4109
vn -0.4425 -0.0039 0.8968
vn -0.5455 -0.6004 0.5847
vn -0.5695 -0.5773 0.5852
vn -0.5695 -0.5773 0.5851
vn -0.4972 -0.5520 0.6694
vn -0.4986 -0.2552 0.8284
vn -0.4576 -0.2386 0.8565
vn -0.5373 -0.5216 0.6628
vn -0.8919 -0.0197 0.4518
vn -0.8915 -0.0354 0.4516
vn -0.3176 -0.9371 0.1451
vn -0.9145 -0.0196 0.4042
vn -0.6748 -0.6670 0.3159
vn -0.9540 -0.2375 -0.1830
vn -0.6839 -0.6682 0.2930
vn -0.9575 -0.2540 -0.1368
vn -0.8547 -0.5191 -0.0039
vn -0.8357 -0.5481 -0.0350
vn -0.8004 -0.5973 0.0507
vn -0.8157 -0.5737 0.0742
vn -0.8004 -0.5974 0.0508
vn -0.9141 -0.0353 0.4041
vn -0.8928 -0.0429 0.4484
vn -0.9109 -0.0430 0.4105
vn -0.8157 -0.5737 0.0741
vn -0.9748 -0.0039 -0.2231
vn -0.9883 -0.0039 -0.1523
vn -0.9883 -0.0039 -0.1524
vn -0.8194 0.5684 0.0745
vn -0.8041 0.5923 0.0510
vn -0.9111 0.0352 0.4106
vn -0.9143 0.0275 0.4041
vn -0.8193 0.5685 0.0745
vn -0.8582 0.5133 -0.0039
vn -0.8393 0.5426 -0.0351
vn -0.9543 0.2298 -0.1909
vn -0.9594 0.2467 -0.1370
vn -0.9594 0.2467 -0.1371
vn -0.3199 0.9361 0.1462
vn -0.3200 0.9361 0.1462
vn -0.8920 0.0118 0.4519
vn -0.9146 0.0118 0.4043
vt 0.878906 0.389160
vt 0.120789 0.389160
vt 0.120361 0.350098
vt 0.076233 0.358398
vt 0.879395 0.350098
vt 0.923828 0.357910
vt 0.111816 0.342285
vt 0.888184 0.342285
vt 0.102539 0.326660
vt 0.070557 0.349609
vt 0.125977 0.342773
vt 0.118530 0.338379
vt 0.095032 0.316406
vt 0.066101 0.343750
vt 0.061157 0.338867
vt 0.108765 0.321777
vt 0.086182 0.308105
vt 0.101013 0.311035
vt 0.060608 0.294434
vt 0.044312 0.330078
vt 0.018280 0.286133
vt 0.091492 0.302246
vt 0.104797 0.307129
vt 0.057159 0.287109
vt 0.018188 0.111328
vt 0.068054 0.290039
vt 0.095093 0.298340
vt 0.112732 0.318359
vt 0.111389 0.301270
vt 0.073303 0.285645
vt 0.121399 0.334473
vt 0.065369 0.285645
vt 0.127075 0.336426
vt 0.119568 0.312988
vt 0.127441 0.329590
vt 0.872559 0.336426
vt 0.872559 0.329590
vt 0.127441 0.067871
vt 0.874023 0.342773
vt 0.881348 0.338379
vt 0.878418 0.334473
vt 0.897461 0.326660
vt 0.929199 0.349609
vt 0.887207 0.318359
vt 0.904785 0.316406
vt 0.933594 0.343750
vt 0.891113 0.321777
vt 0.913574 0.308105
vt 0.938965 0.338867
vt 0.898926 0.311035
vt 0.939453 0.294434
vt 0.955566 0.330078
vt 0.981445 0.286133
vt 0.908203 0.302246
vt 0.942871 0.287109
vt 0.981934 0.111328
vt 0.931641 0.290527
vt 0.904785 0.298340
vt 0.942871 0.110840
vt 0.955566 0.067383
vt 0.925781 0.286133
vt 0.895020 0.307129
vt 0.923340 0.280273
vt 0.898926 0.291504
vt 0.888672 0.301270
vt 0.928223 0.283203
vt 0.923340 0.117676
vt 0.898926 0.106445
vt 0.934570 0.285645
vt 0.928223 0.114258
vt 0.934570 0.113770
vt 0.926758 0.111816
vt 0.904785 0.099609
vt 0.934570 0.112793
vt 0.932129 0.107422
vt 0.939453 0.103516
vt 0.938965 0.059082
vt 0.913574 0.089844
vt 0.908691 0.095703
vt 0.904785 0.081055
vt 0.933594 0.054199
vt 0.929199 0.048340
vt 0.895020 0.090332
vt 0.897461 0.070801
vt 0.923828 0.039551
vt 0.898926 0.086914
vt 0.891113 0.076172
vt 0.888184 0.055664
vt 0.878906 0.008789
vt 0.887207 0.079590
vt 0.879395 0.047363
vt 0.881348 0.059570
vt 0.120789 0.008789
vt 0.888672 0.096680
vt 0.880371 0.312988
vt 0.880371 0.084961
vt 0.872559 0.067871
vt 0.878418 0.063477
vt 0.874023 0.055176
vt 0.872559 0.061035
vt 0.127075 0.061035
vt 0.125977 0.055176
vt 0.121399 0.063477
vt 0.120361 0.047363
vt 0.118530 0.059570
vt 0.111816 0.055664
vt 0.076233 0.039551
vt 0.119568 0.084961
vt 0.102478 0.070801
vt 0.070557 0.048340
vt 0.111328 0.096680
vt 0.112671 0.079590
vt 0.108704 0.076172
vt 0.104736 0.090332
vt 0.100952 0.086914
vt 0.094971 0.081055
vt 0.066101 0.054199
vt 0.095032 0.099609
vt 0.086121 0.089844
vt 0.061096 0.059082
vt 0.091431 0.095703
vt 0.060486 0.103516
vt 0.044220 0.067383
vt 0.067993 0.107422
vt 0.057068 0.110840
vt 0.065247 0.113281
vt 0.071289 0.281738
vt 0.071411 0.114746
vt 0.073425 0.111816
vt 0.076599 0.280273
vt 0.076538 0.117676
vt 0.101013 0.291504
vt 0.100952 0.106445
s 1
usemtl MASTER_Wood_Painted3
f 1/1/1 2/2/1 3/3/1
f 2/2/1 4/4/1 3/3/1
f 5/5/1 1/1/1 3/3/1
f 1/1/1 5/5/1 6/6/1
f 4/4/1 7/7/1 3/3/1
f 5/5/1 8/8/1 6/6/1
f 7/7/1 4/4/1 9/9/2
f 4/4/1 10/10/2 9/9/2
f 3/3/1 7/7/1 11/11/3
f 5/5/1 3/3/1 11/11/3
f 7/7/1 9/9/2 12/12/4
f 7/7/1 12/12/4 11/11/3
f 9/9/2 10/10/2 13/13/1
f 10/10/2 14/14/2 13/13/1
f 14/14/2 15/15/1 13/13/1
f 9/9/2 13/13/1 16/16/5
f 9/9/2 16/16/5 12/12/4
f 15/15/1 17/17/1 13/13/1
f 13/13/1 18/18/6 16/16/5
f 13/13/1 17/17/1 18/18/6
f 17/17/1 15/15/1 19/19/1
f 15/15/1 20/20/1 19/19/1
f 20/20/1 21/21/1 19/19/1
f 17/17/1 22/22/7 18/18/6
f 17/17/1 19/19/1 22/22/7
f 16/16/5 18/18/6 23/23/8
f 18/18/6 22/22/7 23/23/8
f 21/21/1 24/24/1 19/19/1
f 24/24/1 21/21/1 25/25/1
f 19/19/1 26/26/9 22/22/7
f 19/19/1 24/24/1 26/26/9
f 22/22/7 27/27/10 23/23/8
f 27/27/10 22/22/7 26/26/9
f 28/28/11 16/16/5 23/23/8
f 12/12/4 16/16/5 28/28/11
f 23/23/8 27/27/10 29/29/12
f 28/28/11 23/23/8 29/29/12
f 30/30/10 27/27/10 26/26/9
f 31/31/11 12/12/4 28/28/11
f 26/26/9 32/32/13 30/30/10
f 24/24/1 32/32/13 26/26/9
f 31/31/11 33/33/14 12/12/4
f 33/33/14 11/11/3 12/12/4
f 31/31/11 28/28/11 34/34/15
f 34/34/15 28/28/11 29/29/12
f 35/35/16 33/33/14 31/31/11
f 35/35/16 31/31/11 34/34/15
f 33/33/14 36/36/17 11/11/3
f 35/35/16 37/37/16 33/33/14
f 37/37/16 36/36/17 33/33/14
f 35/35/16 34/34/15 38/38/18
f 37/37/16 35/35/16 38/38/18
f 36/36/17 39/39/19 11/11/3
f 39/39/19 5/5/1 11/11/3
f 5/5/1 39/39/19 8/8/1
f 40/40/20 39/39/19 36/36/17
f 39/39/19 40/40/20 8/8/1
f 37/37/16 41/41/21 36/36/17
f 41/41/21 40/40/20 36/36/17
f 8/8/1 40/40/20 42/42/1
f 8/8/1 42/42/1 6/6/1
f 42/42/1 43/43/1 6/6/1
f 41/41/21 44/44/22 40/40/20
f 42/42/1 45/45/1 43/43/1
f 45/45/1 46/46/1 43/43/1
f 40/40/20 47/47/20 42/42/1
f 42/42/1 47/47/20 45/45/1
f 44/44/22 47/47/20 40/40/20
f 45/45/1 48/48/1 46/46/1
f 48/48/1 49/49/1 46/46/1
f 47/47/20 50/50/23 45/45/1
f 48/48/1 51/51/1 49/49/1
f 51/51/1 52/52/1 49/49/1
f 52/52/1 51/51/1 53/53/1
f 54/54/24 48/48/1 45/45/1
f 48/48/1 54/54/24 51/51/1
f 50/50/23 54/54/24 45/45/1
f 51/51/1 55/55/1 53/53/1
f 56/56/1 53/53/1 55/55/1
f 54/54/24 57/57/24 51/51/1
f 51/51/1 57/57/24 55/55/1
f 58/58/25 54/54/24 50/50/23
f 59/59/1 56/56/1 55/55/1
f 56/56/1 59/59/1 60/60/1
f 54/54/24 58/58/25 61/61/25
f 57/57/24 54/54/24 61/61/25
f 62/62/26 58/58/25 50/50/23
f 62/62/26 50/50/23 47/47/20
f 44/44/22 62/62/26 47/47/20
f 61/61/25 58/58/25 63/63/1
f 64/64/27 58/58/25 62/62/26
f 58/58/25 64/64/27 63/63/1
f 65/65/28 62/62/26 44/44/22
f 65/65/28 64/64/27 62/62/26
f 66/66/29 61/61/25 63/63/1
f 61/61/25 66/66/29 57/57/24
f 67/67/2 63/63/1 64/64/27
f 66/66/29 63/63/1 67/67/2
f 68/68/30 64/64/27 65/65/28
f 68/68/30 67/67/2 64/64/27
f 66/66/29 69/69/31 57/57/24
f 57/57/24 69/69/31 55/55/1
f 55/55/1 69/69/31 59/59/1
f 69/69/31 66/66/29 70/70/29
f 70/70/29 66/66/29 67/67/2
f 71/71/31 69/69/31 70/70/29
f 69/69/31 71/71/31 59/59/1
f 72/72/32 70/70/29 67/67/2
f 71/71/31 70/70/29 72/72/32
f 68/68/30 73/73/32 67/67/2
f 73/73/32 72/72/32 67/67/2
f 71/71/31 74/74/33 59/59/1
f 74/74/33 71/71/31 72/72/32
f 59/59/1 74/74/33 75/75/34
f 75/75/34 74/74/33 72/72/32
f 76/76/1 59/59/1 75/75/34
f 59/59/1 76/76/1 60/60/1
f 77/77/1 60/60/1 76/76/1
f 76/76/1 75/75/34 78/78/1
f 78/78/1 77/77/1 76/76/1
f 79/79/34 75/75/34 72/72/32
f 75/75/34 79/79/34 78/78/1
f 73/73/32 79/79/34 72/72/32
f 77/77/1 78/78/1 80/80/1
f 78/78/1 79/79/34 80/80/1
f 81/81/1 77/77/1 80/80/1
f 82/82/1 81/81/1 80/80/1
f 79/79/34 73/73/32 83/83/35
f 84/84/1 82/82/1 80/80/1
f 85/85/2 82/82/1 84/84/1
f 79/79/34 86/86/36 80/80/1
f 86/86/36 79/79/34 83/83/35
f 86/86/36 87/87/37 80/80/1
f 87/87/37 84/84/1 80/80/1
f 87/87/37 86/86/36 83/83/35
f 88/88/1 85/85/2 84/84/1
f 84/84/1 87/87/37 88/88/1
f 85/85/2 88/88/1 89/89/1
f 90/90/38 87/87/37 83/83/35
f 88/88/1 91/91/1 89/89/1
f 87/87/37 92/92/39 88/88/1
f 88/88/1 92/92/39 91/91/1
f 92/92/39 87/87/37 90/90/38
f 89/89/1 91/91/1 93/93/1
f 83/83/35 73/73/32 94/94/40
f 90/90/38 83/83/35 94/94/40
f 73/73/32 68/68/30 94/94/40
f 94/94/40 68/68/30 65/65/28
f 94/94/40 65/65/28 95/95/41
f 95/95/41 65/65/28 44/44/22
f 95/95/41 44/44/22 41/41/21
f 37/37/16 95/95/41 41/41/21
f 96/96/42 94/94/40 95/95/41
f 96/96/42 95/95/41 37/37/16
f 96/96/42 90/90/38 94/94/40
f 97/97/18 96/96/42 37/37/16
f 98/98/43 90/90/38 96/96/42
f 97/97/18 98/98/43 96/96/42
f 98/98/43 92/92/39 90/90/38
f 97/97/18 37/37/16 38/38/18
f 99/99/44 92/92/39 98/98/43
f 92/92/39 99/99/44 91/91/1
f 100/100/45 98/98/43 97/97/18
f 100/100/45 99/99/44 98/98/43
f 100/100/45 97/97/18 101/101/46
f 97/97/18 38/38/18 101/101/46
f 99/99/44 100/100/45 102/102/44
f 100/100/45 101/101/46 102/102/44
f 91/91/1 99/99/44 102/102/44
f 101/101/46 38/38/18 103/103/47
f 101/101/46 103/103/47 102/102/44
f 104/104/1 91/91/1 102/102/44
f 91/91/1 104/104/1 93/93/1
f 104/104/1 102/102/44 105/105/48
f 103/103/47 105/105/48 102/102/44
f 93/93/1 104/104/1 106/106/2
f 106/106/2 104/104/1 105/105/48
f 107/107/1 93/93/1 106/106/2
f 38/38/18 108/108/49 103/103/47
f 34/34/15 108/108/49 38/38/18
f 106/106/2 109/109/1 107/107/1
f 109/109/1 110/110/1 107/107/1
f 108/108/49 34/34/15 111/111/50
f 34/34/15 29/29/12 111/111/50
f 108/108/49 112/112/51 103/103/47
f 108/108/49 111/111/50 112/112/51
f 103/103/47 112/112/51 105/105/48
f 106/106/2 105/105/48 113/113/48
f 112/112/51 113/113/48 105/105/48
f 109/109/1 106/106/2 113/113/48
f 112/112/51 114/114/52 113/113/48
f 111/111/50 114/114/52 112/112/51
f 109/109/1 113/113/48 115/115/53
f 114/114/52 115/115/53 113/113/48
f 109/109/1 116/116/1 110/110/1
f 116/116/1 109/109/1 115/115/53
f 116/116/1 117/117/1 110/110/1
f 114/114/52 118/118/54 115/115/53
f 116/116/1 119/119/1 117/117/1
f 119/119/1 120/120/1 117/117/1
f 116/116/1 115/115/53 121/121/55
f 119/119/1 116/116/1 121/121/55
f 118/118/54 121/121/55 115/115/53
f 119/119/1 122/122/1 120/120/1
f 122/122/1 123/123/1 120/120/1
f 119/119/1 121/121/55 124/124/56
f 122/122/1 119/119/1 124/124/56
f 123/123/1 122/122/1 125/125/2
f 122/122/1 124/124/56 125/125/2
f 25/25/1 123/123/1 125/125/2
f 125/125/2 24/24/1 25/25/1
f 24/24/1 125/125/2 32/32/13
f 125/125/2 126/126/13 32/32/13
f 124/124/56 126/126/13 125/125/2
f 127/127/57 32/32/13 126/126/13
f 32/32/13 127/127/57 30/30/10
f 128/128/58 126/126/13 124/124/56
f 128/128/58 127/127/57 126/126/13
f 124/124/56 121/121/55 129/129/54
f 129/129/54 128/128/58 124/124/56
f 121/121/55 118/118/54 129/129/54
f 130/130/1 127/127/57 128/128/58
f 127/127/57 130/130/1 30/30/10
f 131/131/1 128/128/58 129/129/54
f 131/131/1 130/130/1 128/128/58
f 129/129/54 118/118/54 131/131/1
f 130/130/1 132/132/59 30/30/10
f 132/132/59 130/130/1 131/131/1
f 132/132/59 27/27/10 30/30/10
f 27/27/10 132/132/59 29/29/12
f 29/29/12 132/132/59 111/111/50
f 118/118/54 133/133/60 131/131/1
f 133/133/60 132/132/59 131/131/1
f 132/132/59 133/133/60 111/111/50
f 133/133/60 118/118/54 114/114/52
f 111/111/50 133/133/60 114/114/52
