# Blender 3.6.18
# www.blender.org
mtllib Mesh.1025.mtl
o Bistro_Research_Exterior_Paris_Building_01_paris_buildi_6746a3f
v 7.157535 21.473026 4.698035
v 7.251937 21.473026 4.461690
v 7.315292 20.872307 4.487006
v 7.248328 20.872307 4.654659
v 7.260260 20.872246 4.675444
v 7.169447 21.473089 4.718830
v 7.238958 21.409475 4.738166
v 7.496414 21.409475 4.841022
v 7.560117 21.473091 4.874907
v 7.310018 20.935194 4.703669
v 7.524163 20.872246 4.780877
v 7.547130 20.872307 4.774035
v 7.614088 20.872307 4.606395
v 7.677470 21.473026 4.631718
v 7.583076 21.473026 4.868044
v 7.468658 20.935194 4.767048
v 7.454814 20.946997 4.757462
v 7.487637 21.393639 4.830186
v 7.461095 20.953266 4.760808
v 7.326657 20.946995 4.706262
v 7.446848 20.965172 4.738317
v 7.319798 20.953264 4.704358
v 7.345622 20.965174 4.697876
v 7.338770 20.971443 4.695971
v 7.252786 21.393637 4.736360
v 7.439915 20.974598 4.736798
v 7.257735 21.399906 4.739174
v 7.277126 21.379297 4.725421
v 7.482111 21.399908 4.828815
v 7.282083 21.385565 4.728232
v 7.472005 21.385567 4.804109
v 7.477532 21.379297 4.805486
v 7.453126 20.971441 4.741657
v 7.468181 21.371338 4.800694
v 7.463943 21.376143 4.799638
v 7.291004 21.376143 4.730546
v 7.444728 20.979403 4.739357
v 7.287205 21.371334 4.728392
v 7.363940 21.333794 4.798968
v 7.367568 21.326439 4.801407
v 7.359630 21.326439 4.798236
v 7.385571 21.017262 4.756411
v 7.346443 20.979403 4.700091
v 7.377563 21.017262 4.753212
v 7.382769 21.009424 4.751805
v 7.351695 20.974596 4.701552
v 7.334356 20.857630 4.494624
v 7.268082 20.857628 4.660552
v 7.595024 20.857630 4.598778
v 7.528754 20.857632 4.764694
v 7.661817 21.487705 4.625463
v 7.566635 21.487705 4.863763
v 7.267591 21.487703 4.467945
v 7.172402 21.487701 4.706263
vn -0.9223 -0.1129 -0.3697
vn -0.9227 -0.1129 -0.3685
vn -0.9223 -0.1128 -0.3697
vn -0.3717 -0.1291 0.9194
vn -0.3716 -0.1291 0.9194
vn -0.3717 -0.1291 0.9193
vn 0.9238 -0.1140 0.3656
vn 0.9226 -0.1140 0.3685
vn -0.2941 0.6313 0.7176
vn -0.9254 -0.0117 0.3788
vn 0.4072 -0.0118 0.9132
vn 0.4072 -0.0119 0.9133
vn -0.2624 -0.7167 0.6462
vn -0.2233 -0.8031 0.5524
vn 0.4072 -0.0118 0.9133
vn 0.1143 -0.1538 0.9815
vn -0.2873 0.6492 0.7043
vn -0.2872 0.6492 0.7043
vn 0.1143 -0.1537 0.9815
vn -0.7621 -0.1524 0.6292
vn -0.7621 -0.1524 0.6293
vn -0.0047 -1.0000 -0.0019
vn -0.0039 -1.0000 -0.0039
vn -0.0047 1.0000 -0.0019
vn -0.0039 1.0000 -0.0039
vt 0.202637 0.280273
vt 0.124939 0.261719
vt 0.168823 0.077148
vt 0.223999 0.089844
vt 0.231567 0.090820
vt 0.210083 0.280762
vt 0.232422 0.261230
vt 0.320068 0.261230
vt 0.342285 0.280762
vt 0.249146 0.110352
vt 0.320801 0.090820
vt 0.328369 0.089844
vt 0.383545 0.077148
vt 0.427490 0.261719
vt 0.349854 0.280273
vt 0.303223 0.110352
vt 0.298096 0.113770
vt 0.316650 0.255859
vt 0.300781 0.115723
vt 0.254150 0.113770
vt 0.293213 0.119629
vt 0.251465 0.115723
vt 0.259033 0.119629
vt 0.257080 0.121582
vt 0.235840 0.255859
vt 0.291260 0.122070
vt 0.238037 0.258301
vt 0.242554 0.250488
vt 0.314453 0.258301
vt 0.244141 0.251953
vt 0.308105 0.251953
vt 0.309814 0.250488
vt 0.295410 0.121582
vt 0.307617 0.248047
vt 0.305664 0.250000
vt 0.246704 0.250000
vt 0.293457 0.123535
vt 0.244873 0.248047
vt 0.276123 0.235352
vt 0.276855 0.234863
vt 0.275391 0.234863
vt 0.277100 0.137695
vt 0.258789 0.123535
vt 0.275391 0.137695
vt 0.276123 0.136230
vt 0.260986 0.122070
vt 0.663574 0.433594
vt 0.671387 0.433594
vt 0.664062 0.491211
vt 0.671875 0.489746
vt 0.670898 0.496582
vt 0.760254 0.433105
vt 0.761230 0.496582
vt 0.760254 0.489746
vt 0.768555 0.433594
vt 0.768066 0.491211
vt 0.706055 0.096680
vt 0.713379 0.096680
vt 0.707031 0.177246
vt 0.713379 0.177246
vt 0.713379 0.183105
vt 0.847168 0.096680
vt 0.847168 0.183105
vt 0.846680 0.177246
vt 0.854492 0.096680
vt 0.853516 0.177246
s 1
usemtl MASTER_Concrete_Smooth
f 1/1/1 2/2/2 3/3/3
f 4/4/3 1/1/1 3/3/3
f 1/1/1 4/4/3 5/5/4
f 6/6/5 1/1/1 5/5/4
f 6/6/5 5/5/4 7/7/6
f 6/6/5 7/7/6 8/8/4
f 9/9/5 6/6/5 8/8/4
f 5/5/4 10/10/6 7/7/6
f 5/5/4 11/11/6 10/10/6
f 11/11/6 12/12/7 9/9/5
f 12/12/7 13/13/8 14/14/7
f 15/15/7 12/12/7 14/14/7
f 12/12/7 15/15/7 9/9/5
f 11/11/6 9/9/5 16/16/5
f 11/11/6 16/16/5 10/10/6
f 9/9/5 8/8/4 16/16/5
f 10/10/6 16/16/5 17/17/9
f 16/16/5 8/8/4 18/18/10
f 16/16/5 19/19/10 17/17/9
f 19/19/10 16/16/5 18/18/10
f 20/20/9 10/10/6 17/17/9
f 17/17/9 19/19/10 21/21/9
f 10/10/6 20/20/9 22/22/11
f 7/7/6 10/10/6 22/22/11
f 20/20/9 17/17/9 23/23/9
f 17/17/9 21/21/9 23/23/9
f 22/22/11 20/20/9 24/24/12
f 20/20/9 23/23/9 24/24/12
f 25/25/12 7/7/6 22/22/11
f 23/23/9 21/21/9 26/26/13
f 7/7/6 25/25/12 27/27/14
f 8/8/4 7/7/6 27/27/14
f 25/25/12 22/22/11 28/28/15
f 22/22/11 24/24/12 28/28/15
f 29/29/14 8/8/4 27/27/14
f 8/8/4 29/29/14 18/18/10
f 27/27/14 25/25/12 30/30/14
f 25/25/12 28/28/15 30/30/14
f 29/29/14 27/27/14 31/31/14
f 27/27/14 30/30/14 31/31/14
f 18/18/10 29/29/14 32/32/10
f 29/29/14 31/31/14 32/32/10
f 18/18/10 32/32/10 33/33/10
f 19/19/10 18/18/10 33/33/10
f 19/19/10 33/33/10 21/21/9
f 21/21/9 33/33/10 26/26/13
f 32/32/10 31/31/14 34/34/16
f 33/33/10 32/32/10 34/34/16
f 31/31/14 30/30/14 35/35/17
f 31/31/14 35/35/17 34/34/16
f 30/30/14 36/36/18 35/35/17
f 30/30/14 28/28/15 36/36/18
f 37/37/19 33/33/10 34/34/16
f 33/33/10 37/37/19 26/26/13
f 28/28/15 38/38/20 36/36/18
f 28/28/15 24/24/12 38/38/20
f 35/35/17 36/36/18 39/39/18
f 36/36/18 38/38/20 39/39/18
f 35/35/17 39/39/18 40/40/19
f 34/34/16 35/35/17 40/40/19
f 38/38/20 41/41/20 39/39/18
f 39/39/18 41/41/20 40/40/19
f 34/34/16 40/40/19 42/42/19
f 40/40/19 41/41/20 42/42/19
f 37/37/19 34/34/16 42/42/19
f 38/38/20 43/43/21 41/41/20
f 24/24/12 43/43/21 38/38/20
f 41/41/20 44/44/21 42/42/19
f 43/43/21 44/44/21 41/41/20
f 37/37/19 42/42/19 45/45/13
f 45/45/13 42/42/19 44/44/21
f 26/26/13 37/37/19 45/45/13
f 43/43/21 46/46/13 44/44/21
f 46/46/13 45/45/13 44/44/21
f 46/46/13 43/43/21 24/24/12
f 46/46/13 26/26/13 45/45/13
f 23/23/9 46/46/13 24/24/12
f 46/46/13 23/23/9 26/26/13
f 3/47/3 47/48/22 4/49/3
f 47/48/22 48/50/23 4/49/3
f 4/49/3 48/50/23 5/51/4
f 47/48/22 49/52/23 48/50/23
f 5/51/4 48/50/23 11/53/6
f 49/52/23 50/54/23 48/50/23
f 48/50/23 50/54/23 11/53/6
f 50/54/23 49/52/23 13/55/8
f 50/54/23 12/56/7 11/53/6
f 12/56/7 50/54/23 13/55/8
f 14/57/7 51/58/24 15/59/7
f 51/58/24 52/60/25 15/59/7
f 9/61/5 15/59/7 52/60/25
f 52/60/25 51/58/24 53/62/25
f 9/61/5 52/60/25 6/63/5
f 54/64/25 52/60/25 53/62/25
f 52/60/25 54/64/25 6/63/5
f 54/64/25 53/62/25 2/65/2
f 6/63/5 54/64/25 1/66/1
f 1/66/1 54/64/25 2/65/2
