# Blender 3.6.18
# www.blender.org
mtllib Mesh.013.mtl
o Sign_PayParking5
v -69.375298 0.002285 -52.395248
v -69.386475 1.835181 -52.395248
v -69.382874 1.835203 -52.395248
v -69.371696 0.002307 -52.395248
v -69.375298 0.002285 -52.315849
v -69.382874 1.835193 -52.315849
v -69.386475 1.835171 -52.315849
v -69.371696 0.002307 -52.315849
v -69.475121 -0.000574 -52.472885
v -69.475159 0.005776 -52.472885
v -69.464447 0.005842 -52.480038
v -69.464409 -0.000508 -52.480038
v -69.451820 0.005919 -52.482548
v -69.451782 -0.000431 -52.482548
v -69.263786 0.000715 -52.482548
v -69.263824 0.007065 -52.482548
v -69.251198 0.007142 -52.480038
v -69.251160 0.000792 -52.480038
v -69.240494 0.007207 -52.472881
v -69.240456 0.000858 -52.472881
v -69.233337 0.007251 -52.462177
v -69.233299 0.000901 -52.462177
v -69.230827 0.007266 -52.449547
v -69.230789 0.000916 -52.449547
v -69.230789 0.000916 -52.261547
v -69.230827 0.007266 -52.261547
v -69.233337 0.007251 -52.248920
v -69.233299 0.000901 -52.248920
v -69.240494 0.007207 -52.238213
v -69.240456 0.000858 -52.238213
v -69.251198 0.007142 -52.231060
v -69.251160 0.000792 -52.231060
v -69.263824 0.007065 -52.228550
v -69.263786 0.000715 -52.228550
v -69.451782 -0.000431 -52.228550
v -69.451820 0.005919 -52.228550
v -69.464455 0.005842 -52.231060
v -69.464409 -0.000508 -52.231060
v -69.475159 0.005776 -52.238216
v -69.475121 -0.000574 -52.238216
v -69.482307 0.005733 -52.248920
v -69.482269 -0.000617 -52.248920
v -69.484825 0.005717 -52.261551
v -69.484787 -0.000633 -52.261551
v -69.484779 -0.000633 -52.449551
v -69.484818 0.005717 -52.449551
v -69.482307 0.005733 -52.462177
v -69.482269 -0.000617 -52.462177
v -69.383614 1.365249 -52.490448
v -69.388641 1.370780 -52.497700
v -69.383644 1.370811 -52.497700
v -69.388611 1.365218 -52.490448
v -69.383591 1.361752 -52.482006
v -69.388588 1.361722 -52.482006
v -69.383583 1.360560 -52.472950
v -69.388580 1.360529 -52.472950
v -69.383583 1.360560 -52.238148
v -69.388580 1.360529 -52.238148
v -69.383591 1.361752 -52.229092
v -69.388588 1.361722 -52.229092
v -69.383614 1.365249 -52.220650
v -69.388611 1.365218 -52.220650
v -69.383644 1.370811 -52.213402
v -69.388649 1.370780 -52.213402
v -69.383690 1.378059 -52.207840
v -69.388687 1.378029 -52.207840
v -69.383743 1.386501 -52.204342
v -69.388741 1.386470 -52.204342
v -69.383797 1.395559 -52.203148
v -69.388794 1.395528 -52.203148
v -69.386154 1.782752 -52.203148
v -69.391159 1.782721 -52.203148
v -69.386215 1.791810 -52.204342
v -69.391212 1.791780 -52.204342
v -69.386261 1.800252 -52.207840
v -69.391266 1.800221 -52.207840
v -69.386307 1.807500 -52.213402
v -69.391312 1.807469 -52.213402
v -69.386345 1.813062 -52.220650
v -69.391342 1.813032 -52.220650
v -69.386360 1.816559 -52.229092
v -69.391365 1.816528 -52.229092
v -69.386368 1.817751 -52.238148
v -69.391373 1.817721 -52.238148
v -69.386368 1.817751 -52.472950
v -69.391373 1.817721 -52.472950
v -69.386360 1.816559 -52.482006
v -69.391365 1.816528 -52.482006
v -69.386345 1.813062 -52.490448
v -69.391342 1.813032 -52.490448
v -69.386307 1.807500 -52.497700
v -69.391304 1.807469 -52.497700
v -69.386261 1.800252 -52.503262
v -69.391266 1.800221 -52.503262
v -69.386215 1.791810 -52.506756
v -69.391212 1.791780 -52.506756
v -69.386154 1.782752 -52.507950
v -69.391159 1.782721 -52.507950
v -69.383797 1.395559 -52.507950
v -69.388794 1.395528 -52.507950
v -69.383743 1.386501 -52.506756
v -69.388741 1.386470 -52.506756
v -69.383690 1.378059 -52.503262
v -69.388687 1.378029 -52.503262
v -69.386475 1.835180 -52.385544
v -69.375298 0.002285 -52.385544
v -69.385971 1.835182 -52.382568
v -69.374794 0.002288 -52.382568
v -69.384369 1.835192 -52.379662
v -69.373192 0.002298 -52.379662
v -69.381889 1.835207 -52.377441
v -69.370712 0.002313 -52.377441
v -69.379112 1.835224 -52.376282
v -69.367928 0.002330 -52.376282
v -69.356651 1.835360 -52.371105
v -69.345474 0.002467 -52.371105
v -69.355560 1.835366 -52.370647
v -69.344376 0.002474 -52.370647
v -69.354904 1.835370 -52.370060
v -69.343719 0.002478 -52.370060
v -69.354477 1.835373 -52.369289
v -69.343300 0.002480 -52.369289
v -69.354279 1.835374 -52.368118
v -69.343102 0.002482 -52.368118
v -69.354279 1.835371 -52.342979
v -69.343102 0.002482 -52.342979
v -69.354477 1.835369 -52.341808
v -69.343300 0.002480 -52.341808
v -69.354904 1.835367 -52.341038
v -69.343719 0.002478 -52.341038
v -69.355560 1.835363 -52.340450
v -69.344376 0.002474 -52.340450
v -69.356651 1.835356 -52.339993
v -69.345474 0.002467 -52.339993
v -69.379112 1.835218 -52.334816
v -69.367928 0.002330 -52.334816
v -69.381889 1.835201 -52.333656
v -69.370712 0.002313 -52.333656
v -69.384369 1.835186 -52.331436
v -69.373192 0.002298 -52.331436
v -69.385971 1.835176 -52.328529
v -69.374794 0.002288 -52.328526
v -69.386475 1.835172 -52.325554
v -69.375298 0.002285 -52.325554
v -69.382874 1.835202 -52.385845
v -69.371696 0.002307 -52.385845
v -69.382523 1.835204 -52.383774
v -69.371346 0.002309 -52.383774
v -69.381508 1.835210 -52.381935
v -69.370331 0.002315 -52.381935
v -69.379944 1.835219 -52.380531
v -69.368767 0.002325 -52.380531
v -69.366829 0.002337 -52.379723
v -69.378006 1.835231 -52.379723
v -69.355553 1.835367 -52.374546
v -69.344368 0.002474 -52.374546
v -69.353607 1.835379 -52.373737
v -69.342430 0.002486 -52.373737
v -69.352043 1.835388 -52.372334
v -69.340866 0.002495 -52.372334
v -69.351028 1.835394 -52.370495
v -69.339851 0.002501 -52.370495
v -69.350677 1.835396 -52.368423
v -69.339500 0.002504 -52.368423
v -69.350677 1.835393 -52.342674
v -69.339500 0.002504 -52.342674
v -69.351028 1.835390 -52.340603
v -69.339851 0.002501 -52.340603
v -69.352043 1.835384 -52.338764
v -69.340866 0.002495 -52.338764
v -69.353607 1.835374 -52.337360
v -69.342430 0.002486 -52.337360
v -69.355553 1.835362 -52.336552
v -69.344368 0.002474 -52.336552
v -69.378006 1.835225 -52.331375
v -69.366829 0.002337 -52.331375
v -69.379944 1.835213 -52.330566
v -69.368767 0.002325 -52.330566
v -69.381508 1.835203 -52.329163
v -69.370331 0.002315 -52.329163
v -69.382523 1.835197 -52.327324
v -69.371346 0.002309 -52.327324
v -69.382874 1.835194 -52.325253
v -69.371696 0.002307 -52.325253
vn 0.0040 -0.0039 -1.0000
vn 0.0040 -0.0039 1.0000
vn -0.7031 -0.0082 -0.7110
vn -0.3787 -0.0062 -0.9255
vn -0.0117 -0.0040 -0.9999
vn 0.0196 -0.0038 -0.9998
vn 0.0197 -0.0038 -0.9998
vn 0.3855 -0.0015 -0.9227
vn 0.7071 0.0004 -0.7071
vn 0.9227 0.0017 -0.3854
vn 0.9998 0.0022 -0.0196
vn 0.9999 0.0022 0.0118
vn 0.9255 0.0017 0.3788
vn 0.7110 0.0004 0.7032
vn 0.3882 -0.0015 0.9216
vn 0.0198 -0.0038 0.9998
vn -0.0118 -0.0040 0.9999
vn -0.0119 -0.0040 0.9999
vn -0.3815 -0.0063 0.9243
vn -0.7071 -0.0082 0.7071
vn -0.7071 -0.0083 0.7071
vn -0.9243 -0.0096 0.3815
vn -0.9999 -0.0101 0.0118
vn -0.9999 -0.0100 0.0119
vn -0.9998 -0.0101 -0.0198
vn -0.9215 -0.0095 -0.3882
vn -0.0022 1.0000 -0.0039
vn 0.0092 -0.8636 -0.5041
vn 0.0082 -0.7071 -0.7071
vn 0.0098 -0.9651 -0.2618
vn 0.0100 -0.9999 -0.0118
vn 0.0100 -0.9999 0.0039
vn 0.0098 -0.9670 0.2545
vn 0.0092 -0.8670 0.4983
vn 0.0083 -0.7110 0.7032
vn 0.0070 -0.5075 0.8616
vn 0.0055 -0.2637 0.9646
vn 0.0024 0.2564 0.9666
vn 0.0009 0.5017 0.8651
vn -0.0004 0.7071 0.7071
vn -0.0013 0.8651 0.5016
vn -0.0019 0.9666 0.2564
vn -0.0021 1.0000 0.0039
vn -0.0021 1.0000 0.0040
vn -0.0021 0.9999 -0.0118
vn -0.0021 0.9999 -0.0119
vn -0.0020 0.9646 -0.2638
vn -0.0013 0.8616 -0.5075
vn -0.0004 0.7032 -0.7110
vn -0.0003 0.7032 -0.7110
vn 0.0009 0.4983 -0.8670
vn 0.0024 0.2545 -0.9671
vn 0.0039 -0.0039 -1.0000
vn 0.0055 -0.2618 -0.9651
vn 0.0070 -0.5041 -0.8636
vn -0.9999 -0.0100 -0.0039
vn -0.9993 -0.0100 0.0356
vn -0.9993 -0.0100 0.0355
vn -0.9421 -0.0097 0.3351
vn -0.7850 -0.0087 0.6194
vn -0.5409 -0.0072 0.8410
vn -0.2397 -0.0054 0.9708
vn -0.2323 -0.0054 0.9726
vn -0.5075 -0.0070 0.8616
vn -0.9525 -0.0098 0.3044
vn -0.9525 -0.0098 0.3043
vn -0.9999 -0.0101 0.0040
vn -0.9999 -0.0100 0.0040
vn -0.9999 -0.0101 -0.0119
vn -0.9999 -0.0100 -0.0119
vn -0.9502 -0.0097 -0.3115
vn -0.7812 -0.0087 -0.6242
vn -0.5041 -0.0070 -0.8636
vn -0.2305 -0.0053 -0.9731
vn -0.2379 -0.0054 -0.9713
vn -0.5373 -0.0072 -0.8433
vn -0.9396 -0.0097 -0.3421
vn -0.9990 -0.0100 -0.0434
vn 0.9994 0.0022 -0.0352
vn 1.0000 0.0022 -0.0039
vn 0.9994 0.0022 -0.0353
vn 0.9431 0.0018 -0.3326
vn 0.7843 0.0009 -0.6204
vn 0.5339 -0.0006 -0.8456
vn 0.2380 -0.0024 -0.9713
vn 0.2380 -0.0025 -0.9713
vn 0.5339 -0.0007 -0.8456
vn 0.9455 0.0019 0.3256
vn 0.7881 0.0009 0.6156
vn 0.5374 -0.0006 0.8433
vn 0.2398 -0.0025 0.9708
vn 0.9455 0.0018 0.3256
vn 0.9996 0.0022 0.0274
vn 0.9996 0.0022 0.0275
vt 0.810059 0.336914
vt 0.810059 0.790039
vt 0.809082 0.790039
vt 0.809082 0.336914
vt 0.799316 0.336914
vt 0.800293 0.790039
vt 0.799316 0.790039
vt 0.800293 0.336914
vt 0.767578 0.229980
vt 0.771484 0.229980
vt 0.771484 0.230957
vt 0.767578 0.230957
vt 0.771484 0.232422
vt 0.767578 0.232422
vt 0.767578 0.250488
vt 0.771484 0.250488
vt 0.771484 0.251953
vt 0.767578 0.251953
vt 0.771484 0.252930
vt 0.767578 0.252930
vt 0.771484 0.253906
vt 0.767578 0.253906
vt 0.771484 0.255371
vt 0.767578 0.255371
vt 0.767578 0.277344
vt 0.771484 0.277344
vt 0.771484 0.278809
vt 0.767578 0.278809
vt 0.771484 0.280273
vt 0.767578 0.280273
vt 0.771484 0.281250
vt 0.767578 0.281250
vt 0.771484 0.282715
vt 0.767578 0.282715
vt 0.767578 0.300781
vt 0.771484 0.300781
vt 0.771484 0.301758
vt 0.767578 0.301758
vt 0.771484 0.302734
vt 0.767578 0.302734
vt 0.771484 0.304199
vt 0.767578 0.304199
vt 0.771484 0.305664
vt 0.767578 0.305664
vt 0.767578 0.327637
vt 0.771484 0.327637
vt 0.771484 0.329102
vt 0.767578 0.329102
vt 0.771484 0.330566
vt 0.767578 0.330566
vt 0.789062 0.316895
vt 0.793457 0.321289
vt 0.790527 0.319336
vt 0.788574 0.313965
vt 0.796387 0.321777
vt 0.842773 0.321777
vt 0.788574 0.267090
vt 0.796387 0.259277
vt 0.793457 0.259766
vt 0.789062 0.264160
vt 0.790527 0.261719
vt 0.842773 0.259277
vt 0.851074 0.267090
vt 0.851074 0.313965
vt 0.850586 0.264160
vt 0.850586 0.316895
vt 0.846191 0.259766
vt 0.848633 0.261719
vt 0.846191 0.321289
vt 0.848633 0.319336
vt 0.965820 0.968933
vt 0.966797 0.971191
vt 0.965820 0.971191
vt 0.966797 0.968933
vt 0.965820 0.966675
vt 0.966797 0.966675
vt 0.965820 0.964417
vt 0.966797 0.964417
vt 0.965820 0.906372
vt 0.966797 0.906372
vt 0.965820 0.904114
vt 0.966797 0.904114
vt 0.965820 0.901855
vt 0.966797 0.901855
vt 0.965820 0.899597
vt 0.966797 0.899597
vt 0.965820 0.897339
vt 0.966797 0.897339
vt 0.965820 0.895081
vt 0.966797 0.895081
vt 0.965820 0.892822
vt 0.966797 0.892822
vt 0.965820 0.797119
vt 0.966797 0.797119
vt 0.965820 0.794800
vt 0.966797 0.794800
vt 0.965820 0.792603
vt 0.966797 0.792603
vt 0.965820 0.790283
vt 0.966797 0.790283
vt 0.965820 0.788086
vt 0.966797 0.788086
vt 0.965820 0.785767
vt 0.966797 0.785767
vt 0.965820 0.783569
vt 0.966797 0.783569
vt 0.965820 0.725586
vt 0.966797 0.725586
vt 0.965820 0.723389
vt 0.966797 0.723389
vt 0.965820 0.720947
vt 0.966797 0.720947
vt 0.965820 0.718750
vt 0.966797 0.718750
vt 0.965820 0.716553
vt 0.966797 0.716553
vt 0.965820 0.714355
vt 0.966797 0.714355
vt 0.965820 0.711914
vt 0.966797 0.711914
vt 0.965820 0.616211
vt 0.966797 0.616211
vt 0.965820 0.614014
vt 0.966797 0.614014
vt 0.965820 0.611816
vt 0.966797 0.611816
vt 0.965820 0.609375
vt 0.966797 0.609375
vt 0.754395 0.336914
vt 0.756836 0.790039
vt 0.754395 0.790039
vt 0.756836 0.336914
vt 0.757324 0.790039
vt 0.757324 0.336914
vt 0.758301 0.790039
vt 0.758301 0.336914
vt 0.759277 0.790039
vt 0.759277 0.336914
vt 0.759766 0.790039
vt 0.759766 0.336914
vt 0.765625 0.790039
vt 0.765625 0.336914
vt 0.766113 0.790039
vt 0.766113 0.336914
vt 0.766602 0.790039
vt 0.766602 0.336914
vt 0.772949 0.790039
vt 0.772949 0.336914
vt 0.773438 0.790039
vt 0.773438 0.336914
vt 0.773926 0.790039
vt 0.773926 0.336914
vt 0.779785 0.790039
vt 0.779785 0.336914
vt 0.780273 0.790039
vt 0.780273 0.336914
vt 0.781250 0.790039
vt 0.781250 0.336914
vt 0.781738 0.790039
vt 0.781738 0.336914
vt 0.782715 0.790039
vt 0.782715 0.336914
vt 0.785156 0.790039
vt 0.785156 0.336914
vt 0.742676 0.790039
vt 0.745117 0.336914
vt 0.745117 0.790039
vt 0.742676 0.336914
vt 0.742188 0.790039
vt 0.742188 0.336914
vt 0.741699 0.790039
vt 0.741699 0.336914
vt 0.741211 0.790039
vt 0.741211 0.336914
vt 0.740723 0.336914
vt 0.740723 0.790039
vt 0.734863 0.790039
vt 0.734863 0.336914
vt 0.734375 0.790039
vt 0.734375 0.336914
vt 0.733887 0.790039
vt 0.733887 0.336914
vt 0.733398 0.790039
vt 0.733398 0.336914
vt 0.732910 0.790039
vt 0.732910 0.336914
vt 0.726562 0.790039
vt 0.726562 0.336914
vt 0.726074 0.790039
vt 0.726074 0.336914
vt 0.725586 0.790039
vt 0.725586 0.336914
vt 0.725098 0.790039
vt 0.725098 0.336914
vt 0.724609 0.790039
vt 0.724609 0.336914
vt 0.718750 0.790039
vt 0.718750 0.336914
vt 0.718262 0.790039
vt 0.718262 0.336914
vt 0.717773 0.790039
vt 0.717773 0.336914
vt 0.717285 0.790039
vt 0.717285 0.336914
vt 0.716797 0.790039
vt 0.716797 0.336914
vt 0.714355 0.790039
vt 0.714355 0.336914
vt 0.809082 0.825439
vt 0.809082 0.823120
vt 0.810059 0.825439
vt 0.810059 0.823120
vt 0.809082 0.822388
vt 0.810059 0.822388
vt 0.809082 0.821777
vt 0.810059 0.821777
vt 0.809082 0.821045
vt 0.810059 0.821045
vt 0.810059 0.820435
vt 0.809082 0.820435
vt 0.810059 0.814697
vt 0.809082 0.814697
vt 0.810059 0.814331
vt 0.809082 0.814331
vt 0.810059 0.813965
vt 0.809082 0.813965
vt 0.810059 0.813599
vt 0.809082 0.813599
vt 0.809082 0.813232
vt 0.810059 0.813232
vt 0.809082 0.806885
vt 0.810059 0.806885
vt 0.810059 0.806519
vt 0.809082 0.806519
vt 0.809082 0.806152
vt 0.810059 0.806152
vt 0.810059 0.805786
vt 0.809082 0.805786
vt 0.809082 0.805420
vt 0.810059 0.805420
vt 0.809082 0.799683
vt 0.810059 0.799683
vt 0.809082 0.799072
vt 0.810059 0.799072
vt 0.810059 0.798340
vt 0.809082 0.798340
vt 0.810059 0.797729
vt 0.809082 0.797729
vt 0.810059 0.797119
vt 0.809082 0.797119
vt 0.810059 0.794678
vt 0.809082 0.794678
vt 0.262695 0.673828
vt 0.266846 0.672852
vt 0.264893 0.673584
vt 0.270020 0.669678
vt 0.268799 0.671387
vt 0.271240 0.665283
vt 0.270996 0.667480
vt 0.204956 0.673828
vt 0.200562 0.672852
vt 0.202637 0.673584
vt 0.196289 0.665283
vt 0.197510 0.669678
vt 0.198853 0.671387
vt 0.196655 0.667480
vt 0.196289 0.569092
vt 0.271240 0.569092
vt 0.197510 0.564697
vt 0.196655 0.566650
vt 0.200562 0.561523
vt 0.198853 0.562744
vt 0.204956 0.560303
vt 0.202637 0.560547
vt 0.262695 0.560303
vt 0.266846 0.561523
vt 0.264893 0.560547
vt 0.270020 0.564697
vt 0.268799 0.562744
vt 0.270996 0.566650
vt 0.280762 0.561523
vt 0.277588 0.564697
vt 0.279053 0.562744
vt 0.285156 0.560303
vt 0.282959 0.560547
vt 0.276611 0.569092
vt 0.276855 0.566650
vt 0.351562 0.569092
vt 0.343018 0.560303
vt 0.276611 0.665283
vt 0.347168 0.561523
vt 0.345215 0.560547
vt 0.350342 0.564697
vt 0.348877 0.562744
vt 0.351318 0.566650
vt 0.351562 0.665283
vt 0.277588 0.669678
vt 0.276855 0.667480
vt 0.280762 0.672852
vt 0.279053 0.671387
vt 0.285156 0.673828
vt 0.282959 0.673584
vt 0.343018 0.673828
vt 0.347168 0.672852
vt 0.345215 0.673584
vt 0.350342 0.669678
vt 0.348877 0.671387
vt 0.351318 0.667480
s 1
usemtl StreetSigns
f 1/1/1 2/2/1 3/3/1
f 1/1/1 3/3/1 4/4/1
f 5/5/2 6/6/2 7/7/2
f 6/6/2 5/5/2 8/8/2
f 9/9/3 10/10/3 11/11/4
f 9/9/3 11/11/4 12/12/4
f 11/11/4 13/13/5 12/12/4
f 12/12/4 13/13/5 14/14/5
f 15/15/6 14/14/5 13/13/5
f 13/13/5 16/16/7 15/15/6
f 16/16/7 17/17/8 15/15/6
f 15/15/6 17/17/8 18/18/8
f 17/17/8 19/19/9 18/18/8
f 18/18/8 19/19/9 20/20/9
f 20/20/9 19/19/9 21/21/10
f 22/22/10 20/20/9 21/21/10
f 21/21/10 23/23/11 22/22/10
f 24/24/11 22/22/10 23/23/11
f 25/25/12 24/24/11 23/23/11
f 25/25/12 23/23/11 26/26/12
f 27/27/13 25/25/12 26/26/12
f 25/25/12 27/27/13 28/28/13
f 29/29/14 28/28/13 27/27/13
f 28/28/13 29/29/14 30/30/14
f 31/31/15 30/30/14 29/29/14
f 32/32/15 30/30/14 31/31/15
f 33/33/16 32/32/15 31/31/15
f 34/34/16 32/32/15 33/33/16
f 33/33/16 35/35/17 34/34/16
f 35/35/17 33/33/16 36/36/18
f 37/37/19 35/35/17 36/36/18
f 38/38/19 35/35/17 37/37/19
f 39/39/20 38/38/19 37/37/19
f 38/38/19 39/39/20 40/40/21
f 39/39/20 41/41/22 40/40/21
f 41/41/22 42/42/22 40/40/21
f 41/41/22 43/43/23 42/42/22
f 44/44/24 42/42/22 43/43/23
f 43/43/23 45/45/25 44/44/24
f 43/43/23 46/46/25 45/45/25
f 46/46/25 47/47/26 45/45/25
f 48/48/26 45/45/25 47/47/26
f 47/47/26 10/49/3 48/48/26
f 10/49/3 9/50/3 48/48/26
f 37/51/27 41/52/27 39/53/27
f 36/54/27 41/52/27 37/51/27
f 41/52/27 36/54/27 43/55/27
f 36/54/27 46/56/27 43/55/27
f 33/57/27 46/56/27 36/54/27
f 26/58/27 33/57/27 27/59/27
f 27/59/27 31/60/27 29/61/27
f 31/60/27 27/59/27 33/57/27
f 23/62/27 33/57/27 26/58/27
f 23/62/27 46/56/27 33/57/27
f 46/56/27 23/62/27 16/63/27
f 46/56/27 16/63/27 13/64/27
f 23/62/27 17/65/27 16/63/27
f 11/66/27 46/56/27 13/64/27
f 17/65/27 23/62/27 21/67/27
f 17/65/27 21/67/27 19/68/27
f 46/56/27 11/66/27 47/69/27
f 47/69/27 11/66/27 10/70/27
f 49/71/28 50/72/29 51/73/29
f 50/72/29 49/71/28 52/74/28
f 53/75/30 52/74/28 49/71/28
f 52/74/28 53/75/30 54/76/30
f 55/77/31 54/76/30 53/75/30
f 54/76/30 55/77/31 56/78/31
f 55/77/31 57/79/32 56/78/31
f 58/80/32 56/78/31 57/79/32
f 57/79/32 59/81/33 58/80/32
f 60/82/33 58/80/32 59/81/33
f 60/82/33 59/81/33 61/83/34
f 62/84/34 60/82/33 61/83/34
f 62/84/34 61/83/34 63/85/35
f 64/86/35 62/84/34 63/85/35
f 64/86/35 63/85/35 65/87/36
f 66/88/36 64/86/35 65/87/36
f 66/88/36 65/87/36 67/89/37
f 68/90/37 66/88/36 67/89/37
f 67/89/37 69/91/2 68/90/37
f 70/92/2 68/90/37 69/91/2
f 69/91/2 71/93/2 70/92/2
f 72/94/2 70/92/2 71/93/2
f 71/93/2 73/95/38 72/94/2
f 74/96/38 72/94/2 73/95/38
f 74/96/38 73/95/38 75/97/39
f 76/98/39 74/96/38 75/97/39
f 76/98/39 75/97/39 77/99/40
f 78/100/40 76/98/39 77/99/40
f 78/100/40 77/99/40 79/101/41
f 80/102/41 78/100/40 79/101/41
f 80/102/41 79/101/41 81/103/42
f 82/104/42 80/102/41 81/103/42
f 81/103/42 83/105/43 82/104/42
f 84/106/44 82/104/42 83/105/43
f 83/105/43 85/107/45 84/106/44
f 86/108/46 84/106/44 85/107/45
f 85/107/45 87/109/47 86/108/46
f 88/110/47 86/108/46 87/109/47
f 88/110/47 87/109/47 89/111/48
f 90/112/48 88/110/47 89/111/48
f 90/112/48 89/111/48 91/113/49
f 92/114/50 90/112/48 91/113/49
f 92/114/50 91/113/49 93/115/51
f 94/116/51 92/114/50 93/115/51
f 94/116/51 93/115/51 95/117/52
f 96/118/52 94/116/51 95/117/52
f 95/117/52 97/119/53 96/118/52
f 98/120/53 96/118/52 97/119/53
f 97/119/53 99/121/53 98/120/53
f 100/122/53 98/120/53 99/121/53
f 101/123/54 100/122/53 99/121/53
f 100/122/53 101/123/54 102/124/54
f 103/125/55 102/124/54 101/123/54
f 102/124/54 103/125/55 104/126/55
f 51/127/29 104/126/55 103/125/55
f 104/126/55 51/127/29 50/128/29
f 1/129/56 105/130/57 2/131/56
f 105/130/57 1/129/56 106/132/58
f 106/132/58 107/133/59 105/130/57
f 107/133/59 106/132/58 108/134/59
f 108/134/59 109/135/60 107/133/59
f 109/135/60 108/134/59 110/136/60
f 110/136/60 111/137/61 109/135/60
f 111/137/61 110/136/60 112/138/61
f 112/138/61 113/139/62 111/137/61
f 113/139/62 112/138/61 114/140/62
f 114/140/62 115/141/63 113/139/62
f 115/141/63 114/140/62 116/142/63
f 116/142/63 117/143/64 115/141/63
f 117/143/64 116/142/63 118/144/64
f 118/144/64 119/143/60 117/143/64
f 119/143/60 118/144/64 120/144/60
f 119/143/60 120/144/60 121/143/65
f 121/143/65 120/144/60 122/144/66
f 122/144/66 123/145/67 121/143/65
f 123/145/67 122/144/66 124/146/68
f 124/146/68 125/147/69 123/145/67
f 125/147/69 124/146/68 126/148/70
f 126/148/70 127/147/71 125/147/69
f 127/147/71 126/148/70 128/148/71
f 128/148/71 129/149/72 127/147/71
f 129/149/72 128/148/71 130/150/72
f 130/150/72 131/149/73 129/149/72
f 131/149/73 130/150/72 132/150/73
f 131/149/73 132/150/73 133/151/74
f 134/152/74 133/151/74 132/150/73
f 134/152/74 135/153/75 133/151/74
f 135/153/75 134/152/74 136/154/75
f 136/154/75 137/155/76 135/153/75
f 137/155/76 136/154/75 138/156/76
f 138/156/76 139/157/72 137/155/76
f 139/157/72 138/156/76 140/158/72
f 140/158/72 141/159/77 139/157/72
f 141/159/77 140/158/72 142/160/77
f 142/160/77 143/161/78 141/159/77
f 143/161/78 142/160/77 144/162/78
f 144/162/78 7/163/56 143/161/78
f 7/163/56 144/162/78 5/164/56
f 145/165/79 4/166/80 3/167/80
f 4/166/80 145/165/81 146/168/81
f 147/169/82 146/168/81 145/165/81
f 146/168/81 147/169/82 148/170/82
f 149/171/83 148/170/82 147/169/82
f 148/170/82 149/171/83 150/172/83
f 151/173/84 150/172/83 149/171/83
f 150/172/83 151/173/84 152/174/84
f 152/174/84 151/173/84 153/175/85
f 154/176/86 153/175/85 151/173/84
f 155/177/85 153/175/85 154/176/86
f 153/175/85 155/177/85 156/178/86
f 157/179/84 156/178/86 155/177/85
f 156/178/86 157/179/84 158/180/87
f 159/181/83 158/180/87 157/179/84
f 158/180/87 159/181/83 160/182/83
f 161/183/82 160/182/83 159/181/83
f 160/182/83 161/183/82 162/184/82
f 162/184/82 161/183/82 163/185/11
f 163/185/11 164/186/11 162/184/82
f 165/187/12 164/186/11 163/185/11
f 164/186/11 165/187/12 166/188/12
f 167/189/88 166/188/12 165/187/12
f 166/188/12 167/189/88 168/190/88
f 169/191/89 168/190/88 167/189/88
f 168/190/88 169/191/89 170/192/89
f 171/193/90 170/192/89 169/191/89
f 170/192/89 171/193/90 172/194/90
f 173/195/91 172/194/90 171/193/90
f 172/194/90 173/195/91 174/196/91
f 175/197/91 174/196/91 173/195/91
f 174/196/91 175/197/91 176/198/91
f 177/199/90 176/198/91 175/197/91
f 176/198/91 177/199/90 178/200/90
f 179/201/89 178/200/90 177/199/90
f 178/200/90 179/201/89 180/202/89
f 181/203/92 180/202/89 179/201/89
f 180/202/89 181/203/92 182/204/92
f 183/205/93 182/204/92 181/203/92
f 182/204/92 183/205/93 184/206/94
f 6/207/80 184/206/94 183/205/93
f 184/206/94 6/207/80 8/208/80
f 6/209/27 183/210/27 7/211/27
f 143/212/27 7/211/27 183/210/27
f 143/212/27 183/210/27 181/213/27
f 181/213/27 141/214/27 143/212/27
f 179/215/27 141/214/27 181/213/27
f 179/215/27 139/216/27 141/214/27
f 177/217/27 139/216/27 179/215/27
f 139/216/27 177/217/27 137/218/27
f 177/217/27 135/219/27 137/218/27
f 135/219/27 177/217/27 175/220/27
f 175/220/27 133/221/27 135/219/27
f 133/221/27 175/220/27 173/222/27
f 173/222/27 131/223/27 133/221/27
f 131/223/27 173/222/27 171/224/27
f 171/224/27 129/225/27 131/223/27
f 129/225/27 171/224/27 169/226/27
f 169/226/27 127/227/27 129/225/27
f 127/227/27 169/226/27 167/228/27
f 127/227/27 167/228/27 165/229/27
f 165/229/27 125/230/27 127/227/27
f 165/229/27 163/231/27 125/230/27
f 123/232/27 125/230/27 163/231/27
f 163/231/27 121/233/27 123/232/27
f 121/233/27 163/231/27 161/234/27
f 121/233/27 161/234/27 159/235/27
f 121/233/27 159/235/27 119/236/27
f 159/235/27 117/237/27 119/236/27
f 117/237/27 159/235/27 157/238/27
f 155/239/27 117/237/27 157/238/27
f 117/237/27 155/239/27 115/240/27
f 154/241/27 115/240/27 155/239/27
f 113/242/27 115/240/27 154/241/27
f 151/243/27 113/242/27 154/241/27
f 113/242/27 151/243/27 111/244/27
f 151/243/27 109/245/27 111/244/27
f 109/245/27 151/243/27 149/246/27
f 149/246/27 107/247/27 109/245/27
f 107/247/27 149/246/27 147/248/27
f 147/248/27 105/249/27 107/247/27
f 105/249/27 147/248/27 145/250/27
f 145/250/27 2/251/27 105/249/27
f 2/251/27 145/250/27 3/252/27
f 85/253/80 89/254/80 87/255/80
f 89/254/80 93/256/80 91/257/80
f 89/254/80 85/253/80 97/258/80
f 97/258/80 93/256/80 89/254/80
f 93/256/80 97/258/80 95/259/80
f 83/260/80 97/258/80 85/253/80
f 79/261/80 83/260/80 81/262/80
f 83/260/80 71/263/80 97/258/80
f 79/261/80 71/263/80 83/260/80
f 75/264/80 79/261/80 77/265/80
f 71/263/80 79/261/80 75/264/80
f 71/263/80 75/264/80 73/266/80
f 97/258/80 71/263/80 69/267/80
f 97/258/80 69/267/80 99/268/80
f 65/269/80 69/267/80 67/270/80
f 61/271/80 65/269/80 63/272/80
f 61/271/80 69/267/80 65/269/80
f 61/271/80 57/273/80 69/267/80
f 57/273/80 61/271/80 59/274/80
f 57/273/80 99/268/80 69/267/80
f 55/275/80 99/268/80 57/273/80
f 49/276/80 55/275/80 53/277/80
f 55/275/80 49/276/80 99/268/80
f 49/276/80 103/278/80 99/268/80
f 103/278/80 49/276/80 51/279/80
f 99/268/80 103/278/80 101/280/80
f 52/281/56 104/282/56 50/283/56
f 56/284/56 52/281/56 54/285/56
f 104/282/56 52/281/56 56/284/56
f 104/282/56 100/286/56 102/287/56
f 100/286/56 104/282/56 56/284/56
f 100/286/56 56/284/56 70/288/56
f 70/288/56 56/284/56 58/289/56
f 100/286/56 70/288/56 98/290/56
f 62/291/56 58/289/56 60/292/56
f 58/289/56 62/291/56 66/293/56
f 66/293/56 70/288/56 58/289/56
f 66/293/56 62/291/56 64/294/56
f 70/288/56 66/293/56 68/295/56
f 98/290/56 70/288/56 72/296/56
f 98/290/56 94/297/56 96/298/56
f 94/297/56 90/299/56 92/300/56
f 98/290/56 90/299/56 94/297/56
f 90/299/56 98/290/56 86/301/56
f 90/299/56 86/301/56 88/302/56
f 86/301/56 98/290/56 72/296/56
f 72/296/56 84/303/56 86/301/56
f 84/303/56 80/304/56 82/305/56
f 80/304/56 84/303/56 72/296/56
f 76/306/56 80/304/56 72/296/56
f 80/304/56 76/306/56 78/307/56
f 76/306/56 72/296/56 74/308/56
