# Blender 3.6.18
# www.blender.org
mtllib Mesh.015.mtl
o Sign_YieldHereToPedestrians6
v -69.431953 0.002281 -65.698250
v -69.431953 1.835210 -65.698250
v -69.431953 1.835210 -65.701851
v -69.431953 0.002281 -65.701851
v -69.352554 0.002281 -65.698250
v -69.352554 1.835201 -65.701843
v -69.352554 1.835201 -65.698250
v -69.352554 0.002281 -65.701843
v -69.509888 0.000031 -65.598412
v -69.509888 0.006381 -65.598412
v -69.517044 0.006381 -65.609123
v -69.517044 0.000031 -65.609123
v -69.519554 0.006381 -65.621750
v -69.519554 0.000031 -65.621750
v -69.519554 0.000031 -65.809746
v -69.519554 0.006381 -65.809746
v -69.517044 0.006381 -65.822380
v -69.517044 0.000031 -65.822380
v -69.509888 0.006381 -65.833084
v -69.509888 0.000031 -65.833084
v -69.499184 0.006381 -65.840233
v -69.499184 0.000031 -65.840233
v -69.486557 0.006381 -65.842751
v -69.486557 0.000031 -65.842751
v -69.298553 0.000031 -65.842743
v -69.298553 0.006381 -65.842743
v -69.285927 0.006381 -65.840233
v -69.285927 0.000031 -65.840233
v -69.275223 0.006381 -65.833084
v -69.275223 0.000031 -65.833084
v -69.268066 0.006381 -65.822372
v -69.268066 0.000031 -65.822372
v -69.265556 0.006381 -65.809746
v -69.265556 0.000031 -65.809746
v -69.265556 0.000031 -65.621750
v -69.265556 0.006381 -65.621750
v -69.268066 0.006381 -65.609116
v -69.268066 0.000031 -65.609116
v -69.275223 0.006381 -65.598412
v -69.275223 0.000031 -65.598412
v -69.285927 0.006381 -65.591255
v -69.285927 0.000031 -65.591255
v -69.298553 0.006381 -65.588745
v -69.298553 0.000031 -65.588745
v -69.486557 0.000031 -65.588745
v -69.486557 0.006381 -65.588745
v -69.499184 0.006381 -65.591263
v -69.499184 0.000031 -65.591263
v -69.173622 1.369743 -65.693245
v -69.173622 1.369743 -65.698242
v -69.168373 1.376578 -65.698242
v -69.168373 1.376578 -65.693245
v -69.165077 1.384537 -65.698242
v -69.165077 1.384537 -65.693245
v -69.163956 1.393078 -65.698242
v -69.163956 1.393078 -65.693245
v -69.163956 1.784278 -65.698242
v -69.163956 1.784278 -65.693245
v -69.165077 1.792819 -65.698242
v -69.165077 1.792819 -65.693245
v -69.168373 1.800778 -65.698242
v -69.168373 1.800778 -65.693245
v -69.173622 1.807613 -65.698242
v -69.173622 1.807613 -65.693245
v -69.180458 1.812857 -65.698242
v -69.180458 1.812857 -65.693245
v -69.188416 1.816154 -65.698242
v -69.188416 1.816154 -65.693245
v -69.196953 1.817278 -65.698242
v -69.196953 1.817278 -65.693245
v -69.588158 1.817278 -65.698250
v -69.588158 1.817278 -65.693253
v -69.596695 1.816154 -65.698250
v -69.596695 1.816154 -65.693253
v -69.604652 1.812857 -65.698250
v -69.604652 1.812857 -65.693253
v -69.611488 1.807613 -65.698250
v -69.611488 1.807613 -65.693253
v -69.616737 1.800778 -65.698250
v -69.616737 1.800778 -65.693253
v -69.620033 1.792819 -65.698250
v -69.620033 1.792819 -65.693253
v -69.621155 1.784278 -65.698250
v -69.621155 1.784278 -65.693253
v -69.621155 1.393078 -65.698250
v -69.621155 1.393078 -65.693253
v -69.620033 1.384537 -65.698250
v -69.620033 1.384537 -65.693253
v -69.616737 1.376578 -65.698250
v -69.616737 1.376578 -65.693253
v -69.611488 1.369743 -65.698250
v -69.611488 1.369743 -65.693253
v -69.604652 1.364499 -65.698250
v -69.604652 1.364499 -65.693253
v -69.596695 1.361202 -65.698250
v -69.596695 1.361202 -65.693253
v -69.588158 1.360078 -65.698250
v -69.588158 1.360078 -65.693253
v -69.196953 1.360078 -65.698242
v -69.196953 1.360078 -65.693245
v -69.188416 1.361202 -65.698242
v -69.188416 1.361202 -65.693245
v -69.180458 1.364499 -65.698242
v -69.180458 1.364499 -65.693245
v -69.422249 1.835209 -65.698250
v -69.422249 0.002281 -65.698250
v -69.419273 1.835209 -65.698753
v -69.419273 0.002281 -65.698753
v -69.416367 1.835209 -65.700356
v -69.416367 0.002281 -65.700356
v -69.414146 1.835208 -65.702835
v -69.414146 0.002281 -65.702835
v -69.412987 1.835208 -65.705612
v -69.412987 0.002281 -65.705612
v -69.407814 1.835207 -65.728073
v -69.407814 0.002281 -65.728073
v -69.407356 1.835207 -65.729164
v -69.407356 0.002281 -65.729164
v -69.406769 1.835207 -65.729820
v -69.406769 0.002281 -65.729820
v -69.405998 1.835207 -65.730247
v -69.405998 0.002281 -65.730247
v -69.404823 1.835207 -65.730446
v -69.404823 0.002281 -65.730446
v -69.379684 1.835204 -65.730446
v -69.379684 0.002281 -65.730446
v -69.378510 1.835204 -65.730247
v -69.378510 0.002281 -65.730247
v -69.377739 1.835204 -65.729820
v -69.377739 0.002281 -65.729820
v -69.377151 1.835204 -65.729164
v -69.377151 0.002281 -65.729164
v -69.376701 1.835204 -65.728073
v -69.376701 0.002281 -65.728073
v -69.371521 1.835203 -65.705612
v -69.371521 0.002281 -65.705612
v -69.370361 1.835203 -65.702835
v -69.370361 0.002281 -65.702835
v -69.368141 1.835203 -65.700356
v -69.368141 0.002281 -65.700356
v -69.365234 1.835202 -65.698753
v -69.365234 0.002281 -65.698753
v -69.362259 1.835202 -65.698250
v -69.362259 0.002281 -65.698250
v -69.422554 1.835209 -65.701851
v -69.422554 0.002281 -65.701851
v -69.420479 1.835209 -65.702202
v -69.420479 0.002281 -65.702202
v -69.418640 1.835209 -65.703217
v -69.418640 0.002281 -65.703217
v -69.417236 1.835209 -65.704781
v -69.417236 0.002281 -65.704781
v -69.416428 0.002281 -65.706718
v -69.416428 1.835209 -65.706718
v -69.411255 1.835208 -65.729172
v -69.411255 0.002281 -65.729172
v -69.410446 1.835208 -65.731117
v -69.410446 0.002281 -65.731117
v -69.409042 1.835208 -65.732681
v -69.409042 0.002281 -65.732681
v -69.407204 1.835207 -65.733696
v -69.407204 0.002281 -65.733696
v -69.405128 1.835207 -65.734047
v -69.405128 0.002281 -65.734047
v -69.379379 1.835204 -65.734047
v -69.379379 0.002281 -65.734047
v -69.377312 1.835204 -65.733696
v -69.377312 0.002281 -65.733696
v -69.375465 1.835204 -65.732681
v -69.375465 0.002281 -65.732681
v -69.374069 1.835203 -65.731117
v -69.374069 0.002281 -65.731117
v -69.373260 1.835203 -65.729172
v -69.373260 0.002281 -65.729172
v -69.368080 1.835203 -65.706718
v -69.368080 0.002281 -65.706718
v -69.367271 1.835202 -65.704781
v -69.367271 0.002281 -65.704781
v -69.365868 1.835202 -65.703217
v -69.365868 0.002281 -65.703217
v -69.364029 1.835202 -65.702202
v -69.364029 0.002281 -65.702202
v -69.361961 1.835202 -65.701843
v -69.361961 0.002281 -65.701843
vn -1.0000 -0.0039 -0.0039
vn 1.0000 -0.0039 -0.0039
vn -0.7110 -0.0039 0.7032
vn -0.9255 -0.0039 0.3788
vn -0.9999 -0.0039 0.0117
vn -0.9999 -0.0039 0.0118
vn -0.9998 -0.0039 -0.0196
vn -0.9227 -0.0039 -0.3855
vn -0.7071 -0.0039 -0.7071
vn -0.3854 -0.0039 -0.9227
vn -0.0196 -0.0039 -0.9998
vn 0.0118 -0.0039 -0.9999
vn 0.3788 -0.0039 -0.9255
vn 0.7032 -0.0039 -0.7110
vn 0.9215 -0.0039 -0.3882
vn 0.9216 -0.0039 -0.3882
vn 0.9998 -0.0040 -0.0197
vn 0.9998 -0.0040 -0.0198
vn 0.9999 -0.0040 0.0119
vn 0.9243 -0.0039 0.3815
vn 0.7071 -0.0040 0.7071
vn 0.3815 -0.0039 0.9243
vn 0.0118 -0.0040 0.9999
vn 0.0119 -0.0039 0.9999
vn -0.0198 -0.0040 0.9998
vn -0.3882 -0.0039 0.9216
vn 0.7032 -0.7110 -0.0039
vn 0.8616 -0.5075 -0.0039
vn 0.9646 -0.2638 -0.0039
vn 1.0000 -0.0040 -0.0039
vn 0.9665 0.2565 -0.0039
vn 0.9666 0.2564 -0.0039
vn 0.8651 0.5017 -0.0040
vn 0.7071 0.7071 -0.0040
vn 0.7071 0.7071 -0.0039
vn 0.5016 0.8651 -0.0039
vn 0.2564 0.9666 -0.0039
vn -0.0040 1.0000 -0.0040
vn -0.2638 0.9646 -0.0039
vn -0.5076 0.8616 -0.0040
vn -0.5075 0.8616 -0.0039
vn -0.7110 0.7032 -0.0039
vn -0.8670 0.4982 -0.0039
vn -0.9671 0.2545 -0.0039
vn -0.9651 -0.2618 -0.0039
vn -0.8636 -0.5041 -0.0039
vn -0.7071 -0.7071 -0.0039
vn -0.5041 -0.8636 -0.0039
vn -0.2618 -0.9651 -0.0039
vn -0.0039 -1.0000 -0.0039
vn 0.2545 -0.9671 -0.0039
vn 0.4982 -0.8670 -0.0039
vn -0.0039 1.0000 -0.0039
vn -0.0039 -0.0039 1.0000
vn 0.0356 -0.0039 0.9994
vn 0.0355 -0.0040 0.9994
vn 0.3351 -0.0039 0.9422
vn 0.6194 -0.0039 0.7851
vn 0.8410 -0.0040 0.5410
vn 0.8410 -0.0039 0.5410
vn 0.9708 -0.0039 0.2398
vn 0.9726 -0.0039 0.2323
vn 0.8616 -0.0039 0.5075
vn 0.3044 -0.0039 0.9526
vn 0.3043 -0.0040 0.9526
vn 0.0040 -0.0040 1.0000
vn -0.0119 -0.0040 0.9999
vn -0.3115 -0.0039 0.9502
vn -0.6242 -0.0039 0.7812
vn -0.8636 -0.0039 0.5041
vn -0.9731 -0.0039 0.2305
vn -0.9713 -0.0039 0.2379
vn -0.8433 -0.0039 0.5374
vn -0.3421 -0.0039 0.9397
vn -0.0435 -0.0039 0.9990
vn -0.0434 -0.0039 0.9990
vn -0.0352 -0.0039 -0.9994
vn -0.0039 -0.0039 -1.0000
vn -0.0353 -0.0039 -0.9994
vn -0.3326 -0.0039 -0.9431
vn -0.6204 -0.0039 -0.7843
vn -0.8456 -0.0039 -0.5338
vn -0.8456 -0.0039 -0.5339
vn -0.9713 -0.0039 -0.2380
vn 0.3256 -0.0039 -0.9455
vn 0.3257 -0.0039 -0.9455
vn 0.6156 -0.0039 -0.7881
vn 0.8433 -0.0039 -0.5374
vn 0.9708 -0.0039 -0.2397
vn 0.9708 -0.0039 -0.2398
vn 0.0274 -0.0039 -0.9996
vn 0.0275 -0.0039 -0.9996
vt 0.810059 0.336914
vt 0.810059 0.790039
vt 0.809082 0.790039
vt 0.809082 0.336914
vt 0.799316 0.336914
vt 0.800293 0.790039
vt 0.799316 0.790039
vt 0.800293 0.336914
vt 0.767578 0.229980
vt 0.771484 0.229980
vt 0.771484 0.230957
vt 0.767578 0.230957
vt 0.771484 0.232422
vt 0.767578 0.232422
vt 0.767578 0.250488
vt 0.771484 0.250488
vt 0.771484 0.251953
vt 0.767578 0.251953
vt 0.771484 0.252930
vt 0.767578 0.252930
vt 0.771484 0.253906
vt 0.767578 0.253906
vt 0.771484 0.255371
vt 0.767578 0.255371
vt 0.767578 0.277344
vt 0.771484 0.277344
vt 0.771484 0.278809
vt 0.767578 0.278809
vt 0.771484 0.280273
vt 0.767578 0.280273
vt 0.771484 0.281250
vt 0.767578 0.281250
vt 0.771484 0.282715
vt 0.767578 0.282715
vt 0.767578 0.300781
vt 0.771484 0.300781
vt 0.771484 0.301758
vt 0.767578 0.301758
vt 0.771484 0.302734
vt 0.767578 0.302734
vt 0.771484 0.304199
vt 0.767578 0.304199
vt 0.771484 0.305664
vt 0.767578 0.305664
vt 0.767578 0.327637
vt 0.771484 0.327637
vt 0.771484 0.329102
vt 0.767578 0.329102
vt 0.771484 0.330566
vt 0.767578 0.330566
vt 0.957520 0.676514
vt 0.956055 0.676514
vt 0.956055 0.674316
vt 0.957520 0.674316
vt 0.956055 0.672119
vt 0.957520 0.672119
vt 0.956055 0.669922
vt 0.957520 0.669922
vt 0.956055 0.573242
vt 0.957520 0.573242
vt 0.956055 0.571289
vt 0.957520 0.571289
vt 0.956055 0.569092
vt 0.957520 0.569092
vt 0.956055 0.566895
vt 0.957520 0.566895
vt 0.956055 0.564697
vt 0.957520 0.564697
vt 0.956055 0.562744
vt 0.957520 0.562744
vt 0.956055 0.560547
vt 0.957520 0.560547
vt 0.956055 0.463867
vt 0.957520 0.463867
vt 0.956055 0.461914
vt 0.957520 0.461914
vt 0.956055 0.459473
vt 0.957520 0.459473
vt 0.956055 0.457520
vt 0.957520 0.457520
vt 0.956055 0.455566
vt 0.957520 0.455566
vt 0.956055 0.453125
vt 0.957520 0.453125
vt 0.956055 0.451172
vt 0.957520 0.451172
vt 0.956055 0.354492
vt 0.957520 0.354492
vt 0.956055 0.352051
vt 0.957520 0.352051
vt 0.956055 0.350098
vt 0.957520 0.350098
vt 0.956055 0.348145
vt 0.957520 0.348145
vt 0.956055 0.345703
vt 0.957520 0.345703
vt 0.956055 0.343750
vt 0.957520 0.343750
vt 0.956055 0.341797
vt 0.957520 0.341797
vt 0.956055 0.245117
vt 0.957520 0.245117
vt 0.956055 0.242676
vt 0.957520 0.242676
vt 0.956055 0.240723
vt 0.957520 0.240723
vt 0.956055 0.238770
vt 0.957520 0.238770
vt 0.789062 0.316895
vt 0.793457 0.321289
vt 0.790527 0.319336
vt 0.788574 0.313965
vt 0.796387 0.321777
vt 0.842773 0.321777
vt 0.851074 0.313965
vt 0.846191 0.321289
vt 0.850586 0.316895
vt 0.848633 0.319336
vt 0.851074 0.267090
vt 0.788574 0.267090
vt 0.842773 0.259277
vt 0.796387 0.259277
vt 0.846191 0.259766
vt 0.793457 0.259766
vt 0.850586 0.264160
vt 0.848633 0.261719
vt 0.789062 0.264160
vt 0.790527 0.261719
vt 0.754395 0.336914
vt 0.756836 0.790039
vt 0.754395 0.790039
vt 0.756836 0.336914
vt 0.757324 0.790039
vt 0.757324 0.336914
vt 0.758301 0.790039
vt 0.758301 0.336914
vt 0.759277 0.790039
vt 0.759277 0.336914
vt 0.759766 0.790039
vt 0.759766 0.336914
vt 0.765625 0.790039
vt 0.765625 0.336914
vt 0.766113 0.790039
vt 0.766113 0.336914
vt 0.766602 0.790039
vt 0.766602 0.336914
vt 0.772949 0.790039
vt 0.772949 0.336914
vt 0.773438 0.790039
vt 0.773438 0.336914
vt 0.773926 0.790039
vt 0.773926 0.336914
vt 0.779785 0.790039
vt 0.779785 0.336914
vt 0.780273 0.790039
vt 0.780273 0.336914
vt 0.781250 0.790039
vt 0.781250 0.336914
vt 0.781738 0.790039
vt 0.781738 0.336914
vt 0.782715 0.790039
vt 0.782715 0.336914
vt 0.785156 0.790039
vt 0.785156 0.336914
vt 0.742676 0.790039
vt 0.745117 0.336914
vt 0.745117 0.790039
vt 0.742676 0.336914
vt 0.742188 0.790039
vt 0.742188 0.336914
vt 0.741699 0.790039
vt 0.741699 0.336914
vt 0.741211 0.790039
vt 0.741211 0.336914
vt 0.740723 0.336914
vt 0.740723 0.790039
vt 0.734863 0.790039
vt 0.734863 0.336914
vt 0.734375 0.790039
vt 0.734375 0.336914
vt 0.733887 0.790039
vt 0.733887 0.336914
vt 0.733398 0.790039
vt 0.733398 0.336914
vt 0.732910 0.790039
vt 0.732910 0.336914
vt 0.726562 0.790039
vt 0.726562 0.336914
vt 0.726074 0.790039
vt 0.726074 0.336914
vt 0.725586 0.790039
vt 0.725586 0.336914
vt 0.725098 0.790039
vt 0.725098 0.336914
vt 0.724609 0.790039
vt 0.724609 0.336914
vt 0.718750 0.790039
vt 0.718750 0.336914
vt 0.718262 0.790039
vt 0.718262 0.336914
vt 0.717773 0.790039
vt 0.717773 0.336914
vt 0.717285 0.790039
vt 0.717285 0.336914
vt 0.716797 0.790039
vt 0.716797 0.336914
vt 0.714355 0.790039
vt 0.714355 0.336914
vt 0.809082 0.825439
vt 0.809082 0.823120
vt 0.810059 0.825439
vt 0.810059 0.823120
vt 0.809082 0.822388
vt 0.810059 0.822388
vt 0.809082 0.821777
vt 0.810059 0.821777
vt 0.809082 0.821045
vt 0.810059 0.821045
vt 0.810059 0.820435
vt 0.809082 0.820435
vt 0.810059 0.814697
vt 0.809082 0.814697
vt 0.810059 0.814331
vt 0.809082 0.814331
vt 0.810059 0.813965
vt 0.809082 0.813965
vt 0.810059 0.813599
vt 0.809082 0.813599
vt 0.809082 0.813232
vt 0.810059 0.813232
vt 0.809082 0.806885
vt 0.810059 0.806885
vt 0.810059 0.806519
vt 0.809082 0.806519
vt 0.809082 0.806152
vt 0.810059 0.806152
vt 0.810059 0.805786
vt 0.809082 0.805786
vt 0.809082 0.805420
vt 0.810059 0.805420
vt 0.809082 0.799683
vt 0.810059 0.799683
vt 0.809082 0.799072
vt 0.810059 0.799072
vt 0.810059 0.798340
vt 0.809082 0.798340
vt 0.810059 0.797729
vt 0.809082 0.797729
vt 0.810059 0.797119
vt 0.809082 0.797119
vt 0.810059 0.794678
vt 0.809082 0.794678
vt 0.023636 0.349609
vt 0.026627 0.352539
vt 0.024933 0.351562
vt 0.022827 0.347656
vt 0.030701 0.354004
vt 0.028595 0.353516
vt 0.022552 0.345703
vt 0.022552 0.249023
vt 0.127319 0.354004
vt 0.131470 0.352539
vt 0.129517 0.353516
vt 0.134399 0.349609
vt 0.133179 0.351562
vt 0.135498 0.345703
vt 0.135254 0.347656
vt 0.135498 0.249023
vt 0.134399 0.244629
vt 0.135254 0.246582
vt 0.131470 0.241699
vt 0.133179 0.243164
vt 0.127319 0.240723
vt 0.129517 0.241211
vt 0.030701 0.240723
vt 0.022827 0.246582
vt 0.026627 0.241699
vt 0.028595 0.241211
vt 0.023636 0.244629
vt 0.024933 0.243164
vt 0.255615 0.244629
vt 0.252686 0.241699
vt 0.254395 0.243164
vt 0.256592 0.246582
vt 0.248779 0.240723
vt 0.250732 0.241211
vt 0.256836 0.249023
vt 0.151978 0.354004
vt 0.256836 0.345703
vt 0.151978 0.240723
vt 0.248779 0.354004
vt 0.256592 0.347656
vt 0.252686 0.352539
vt 0.250732 0.353516
vt 0.255615 0.349609
vt 0.254395 0.351562
vt 0.147949 0.352539
vt 0.149902 0.353516
vt 0.144897 0.349609
vt 0.146240 0.351562
vt 0.143799 0.345703
vt 0.144165 0.347656
vt 0.143799 0.249023
vt 0.144897 0.244629
vt 0.144165 0.246582
vt 0.147949 0.241699
vt 0.146240 0.243164
vt 0.149902 0.241211
s 1
usemtl StreetSigns
f 1/1/1 2/2/1 3/3/1
f 1/1/1 3/3/1 4/4/1
f 5/5/2 6/6/2 7/7/2
f 6/6/2 5/5/2 8/8/2
f 9/9/3 10/10/3 11/11/4
f 9/9/3 11/11/4 12/12/4
f 11/11/4 13/13/5 12/12/4
f 12/12/4 13/13/5 14/14/6
f 15/15/7 14/14/6 13/13/5
f 13/13/5 16/16/7 15/15/7
f 16/16/7 17/17/8 15/15/7
f 15/15/7 17/17/8 18/18/8
f 17/17/8 19/19/9 18/18/8
f 18/18/8 19/19/9 20/20/9
f 20/20/9 19/19/9 21/21/10
f 22/22/10 20/20/9 21/21/10
f 21/21/10 23/23/11 22/22/10
f 24/24/11 22/22/10 23/23/11
f 25/25/12 24/24/11 23/23/11
f 25/25/12 23/23/11 26/26/12
f 27/27/13 25/25/12 26/26/12
f 25/25/12 27/27/13 28/28/13
f 29/29/14 28/28/13 27/27/13
f 28/28/13 29/29/14 30/30/14
f 31/31/15 30/30/14 29/29/14
f 32/32/16 30/30/14 31/31/15
f 33/33/17 32/32/16 31/31/15
f 34/34/18 32/32/16 33/33/17
f 33/33/17 35/35/19 34/34/18
f 35/35/19 33/33/17 36/36/19
f 37/37/20 35/35/19 36/36/19
f 38/38/20 35/35/19 37/37/20
f 39/39/21 38/38/20 37/37/20
f 38/38/20 39/39/21 40/40/21
f 39/39/21 41/41/22 40/40/21
f 41/41/22 42/42/22 40/40/21
f 41/41/22 43/43/23 42/42/22
f 44/44/24 42/42/22 43/43/23
f 43/43/23 45/45/25 44/44/24
f 43/43/23 46/46/25 45/45/25
f 46/46/25 47/47/26 45/45/25
f 48/48/26 45/45/25 47/47/26
f 47/47/26 10/49/3 48/48/26
f 10/49/3 9/50/3 48/48/26
f 49/51/27 50/52/27 51/53/28
f 52/54/28 49/51/27 51/53/28
f 52/54/28 51/53/28 53/55/29
f 54/56/29 52/54/28 53/55/29
f 54/56/29 53/55/29 55/57/30
f 56/58/2 54/56/29 55/57/30
f 55/57/30 57/59/2 56/58/2
f 58/60/2 56/58/2 57/59/2
f 58/60/2 57/59/2 59/61/31
f 60/62/32 58/60/2 59/61/31
f 60/62/32 59/61/31 61/63/33
f 62/64/33 60/62/32 61/63/33
f 62/64/33 61/63/33 63/65/34
f 64/66/35 62/64/33 63/65/34
f 64/66/35 63/65/34 65/67/36
f 66/68/36 64/66/35 65/67/36
f 66/68/36 65/67/36 67/69/37
f 68/70/37 66/68/36 67/69/37
f 68/70/37 67/69/37 69/71/38
f 70/72/38 68/70/37 69/71/38
f 69/71/38 71/73/38 70/72/38
f 72/74/38 70/72/38 71/73/38
f 72/74/38 71/73/38 73/75/39
f 74/76/39 72/74/38 73/75/39
f 74/76/39 73/75/39 75/77/40
f 76/78/41 74/76/39 75/77/40
f 76/78/41 75/77/40 77/79/42
f 78/80/42 76/78/41 77/79/42
f 78/80/42 77/79/42 79/81/43
f 80/82/43 78/80/42 79/81/43
f 80/82/43 79/81/43 81/83/44
f 82/84/44 80/82/43 81/83/44
f 82/84/44 81/83/44 83/85/1
f 84/86/1 82/84/44 83/85/1
f 83/85/1 85/87/1 84/86/1
f 86/88/1 84/86/1 85/87/1
f 87/89/45 86/88/1 85/87/1
f 86/88/1 87/89/45 88/90/45
f 89/91/46 88/90/45 87/89/45
f 88/90/45 89/91/46 90/92/46
f 91/93/47 90/92/46 89/91/46
f 90/92/46 91/93/47 92/94/47
f 93/95/48 92/94/47 91/93/47
f 92/94/47 93/95/48 94/96/48
f 95/97/49 94/96/48 93/95/48
f 94/96/48 95/97/49 96/98/49
f 97/99/50 96/98/49 95/97/49
f 96/98/49 97/99/50 98/100/50
f 97/99/50 99/101/50 98/100/50
f 100/102/50 98/100/50 99/101/50
f 100/102/50 99/101/50 101/103/51
f 102/104/51 100/102/50 101/103/51
f 102/104/51 101/103/51 103/105/52
f 104/106/52 102/104/51 103/105/52
f 104/106/52 103/105/52 50/107/27
f 49/108/27 104/106/52 50/107/27
f 37/109/53 41/110/53 39/111/53
f 36/112/53 41/110/53 37/109/53
f 41/110/53 36/112/53 43/113/53
f 36/112/53 46/114/53 43/113/53
f 36/112/53 13/115/53 46/114/53
f 46/114/53 13/115/53 47/116/53
f 11/117/53 47/116/53 13/115/53
f 47/116/53 11/117/53 10/118/53
f 13/115/53 36/112/53 16/119/53
f 33/120/53 16/119/53 36/112/53
f 33/120/53 23/121/53 16/119/53
f 23/121/53 33/120/53 26/122/53
f 16/119/53 23/121/53 21/123/53
f 26/122/53 33/120/53 27/124/53
f 16/119/53 21/123/53 17/125/53
f 17/125/53 21/123/53 19/126/53
f 31/127/53 27/124/53 33/120/53
f 27/124/53 31/127/53 29/128/53
f 1/129/54 105/130/55 2/131/54
f 105/130/55 1/129/54 106/132/56
f 106/132/56 107/133/57 105/130/55
f 107/133/57 106/132/56 108/134/57
f 108/134/57 109/135/58 107/133/57
f 109/135/58 108/134/57 110/136/58
f 110/136/58 111/137/59 109/135/58
f 111/137/59 110/136/58 112/138/60
f 112/138/60 113/139/61 111/137/59
f 113/139/61 112/138/60 114/140/61
f 114/140/61 115/141/62 113/139/61
f 115/141/62 114/140/61 116/142/62
f 116/142/62 117/143/63 115/141/62
f 117/143/63 116/142/62 118/144/63
f 118/144/63 119/143/58 117/143/63
f 119/143/58 118/144/63 120/144/58
f 119/143/58 120/144/58 121/143/64
f 121/143/64 120/144/58 122/144/65
f 122/144/65 123/145/66 121/143/64
f 123/145/66 122/144/65 124/146/66
f 124/146/66 125/147/67 123/145/66
f 125/147/67 124/146/66 126/148/67
f 126/148/67 127/147/68 125/147/67
f 127/147/68 126/148/67 128/148/68
f 128/148/68 129/149/69 127/147/68
f 129/149/69 128/148/68 130/150/69
f 130/150/69 131/149/70 129/149/69
f 131/149/70 130/150/69 132/150/70
f 131/149/70 132/150/70 133/151/71
f 134/152/71 133/151/71 132/150/70
f 134/152/71 135/153/72 133/151/71
f 135/153/72 134/152/71 136/154/72
f 136/154/72 137/155/73 135/153/72
f 137/155/73 136/154/72 138/156/73
f 138/156/73 139/157/69 137/155/73
f 139/157/69 138/156/73 140/158/69
f 140/158/69 141/159/74 139/157/69
f 141/159/74 140/158/69 142/160/74
f 142/160/74 143/161/75 141/159/74
f 143/161/75 142/160/74 144/162/76
f 144/162/76 7/163/54 143/161/75
f 7/163/54 144/162/76 5/164/54
f 145/165/77 4/166/78 3/167/78
f 4/166/78 145/165/79 146/168/79
f 147/169/80 146/168/79 145/165/79
f 146/168/79 147/169/80 148/170/80
f 149/171/81 148/170/80 147/169/80
f 148/170/80 149/171/81 150/172/81
f 151/173/82 150/172/81 149/171/81
f 150/172/81 151/173/82 152/174/83
f 152/174/83 151/173/82 153/175/84
f 154/176/84 153/175/84 151/173/82
f 155/177/84 153/175/84 154/176/84
f 153/175/84 155/177/84 156/178/84
f 157/179/82 156/178/84 155/177/84
f 156/178/84 157/179/82 158/180/83
f 159/181/81 158/180/83 157/179/82
f 158/180/83 159/181/81 160/182/81
f 161/183/80 160/182/81 159/181/81
f 160/182/81 161/183/80 162/184/80
f 162/184/80 161/183/80 163/185/11
f 163/185/11 164/186/11 162/184/80
f 165/187/12 164/186/11 163/185/11
f 164/186/11 165/187/12 166/188/12
f 167/189/85 166/188/12 165/187/12
f 166/188/12 167/189/85 168/190/86
f 169/191/87 168/190/86 167/189/85
f 168/190/86 169/191/87 170/192/87
f 171/193/88 170/192/87 169/191/87
f 170/192/87 171/193/88 172/194/88
f 173/195/89 172/194/88 171/193/88
f 172/194/88 173/195/89 174/196/90
f 175/197/90 174/196/90 173/195/89
f 174/196/90 175/197/90 176/198/90
f 177/199/88 176/198/90 175/197/90
f 176/198/90 177/199/88 178/200/88
f 179/201/87 178/200/88 177/199/88
f 178/200/88 179/201/87 180/202/87
f 181/203/85 180/202/87 179/201/87
f 180/202/87 181/203/85 182/204/85
f 183/205/91 182/204/85 181/203/85
f 182/204/85 183/205/91 184/206/92
f 6/207/78 184/206/92 183/205/91
f 184/206/92 6/207/78 8/208/78
f 6/209/53 183/210/53 7/211/53
f 143/212/53 7/211/53 183/210/53
f 143/212/53 183/210/53 181/213/53
f 181/213/53 141/214/53 143/212/53
f 179/215/53 141/214/53 181/213/53
f 179/215/53 139/216/53 141/214/53
f 177/217/53 139/216/53 179/215/53
f 139/216/53 177/217/53 137/218/53
f 177/217/53 135/219/53 137/218/53
f 135/219/53 177/217/53 175/220/53
f 175/220/53 133/221/53 135/219/53
f 133/221/53 175/220/53 173/222/53
f 173/222/53 131/223/53 133/221/53
f 131/223/53 173/222/53 171/224/53
f 171/224/53 129/225/53 131/223/53
f 129/225/53 171/224/53 169/226/53
f 169/226/53 127/227/53 129/225/53
f 127/227/53 169/226/53 167/228/53
f 127/227/53 167/228/53 165/229/53
f 165/229/53 125/230/53 127/227/53
f 165/229/53 163/231/53 125/230/53
f 123/232/53 125/230/53 163/231/53
f 163/231/53 121/233/53 123/232/53
f 121/233/53 163/231/53 161/234/53
f 121/233/53 161/234/53 159/235/53
f 121/233/53 159/235/53 119/236/53
f 159/235/53 117/237/53 119/236/53
f 117/237/53 159/235/53 157/238/53
f 155/239/53 117/237/53 157/238/53
f 117/237/53 155/239/53 115/240/53
f 154/241/53 115/240/53 155/239/53
f 113/242/53 115/240/53 154/241/53
f 151/243/53 113/242/53 154/241/53
f 113/242/53 151/243/53 111/244/53
f 151/243/53 109/245/53 111/244/53
f 109/245/53 151/243/53 149/246/53
f 149/246/53 107/247/53 109/245/53
f 107/247/53 149/246/53 147/248/53
f 147/248/53 105/249/53 107/247/53
f 105/249/53 147/248/53 145/250/53
f 145/250/53 2/251/53 105/249/53
f 2/251/53 145/250/53 3/252/53
f 61/253/78 65/254/78 63/255/78
f 59/256/78 65/254/78 61/253/78
f 65/254/78 59/256/78 69/257/78
f 65/254/78 69/257/78 67/258/78
f 57/259/78 69/257/78 59/256/78
f 69/257/78 57/259/78 55/260/78
f 69/257/78 55/260/78 71/261/78
f 71/261/78 75/262/78 73/263/78
f 75/262/78 79/264/78 77/265/78
f 75/262/78 71/261/78 83/266/78
f 83/266/78 79/264/78 75/262/78
f 71/261/78 55/260/78 83/266/78
f 79/264/78 83/266/78 81/267/78
f 83/266/78 55/260/78 85/268/78
f 85/268/78 89/269/78 87/270/78
f 89/269/78 93/271/78 91/272/78
f 93/271/78 89/269/78 85/268/78
f 93/271/78 97/273/78 95/274/78
f 97/273/78 93/271/78 85/268/78
f 97/273/78 85/268/78 99/275/78
f 55/260/78 99/275/78 85/268/78
f 53/276/78 99/275/78 55/260/78
f 103/277/78 99/275/78 53/276/78
f 99/275/78 103/277/78 101/278/78
f 51/279/78 103/277/78 53/276/78
f 103/277/78 51/279/78 50/280/78
f 52/281/54 104/282/54 49/283/54
f 54/284/54 104/282/54 52/281/54
f 104/282/54 54/284/54 100/285/54
f 104/282/54 100/285/54 102/286/54
f 56/287/54 100/285/54 54/284/54
f 56/287/54 72/288/54 100/285/54
f 58/289/54 72/288/54 56/287/54
f 100/285/54 72/288/54 98/290/54
f 58/289/54 70/291/54 72/288/54
f 60/292/54 70/291/54 58/289/54
f 66/293/54 70/291/54 60/292/54
f 70/291/54 66/293/54 68/294/54
f 62/295/54 66/293/54 60/292/54
f 66/293/54 62/295/54 64/296/54
f 76/297/54 72/288/54 74/298/54
f 80/299/54 76/297/54 78/300/54
f 80/299/54 72/288/54 76/297/54
f 80/299/54 84/301/54 72/288/54
f 84/301/54 80/299/54 82/302/54
f 84/301/54 98/290/54 72/288/54
f 86/303/54 98/290/54 84/301/54
f 90/304/54 86/303/54 88/305/54
f 86/303/54 90/304/54 98/290/54
f 90/304/54 94/306/54 98/290/54
f 94/306/54 90/304/54 92/307/54
f 98/290/54 94/306/54 96/308/54
