# Blender 3.6.18
# www.blender.org
mtllib Mesh.012.mtl
o Sign_PedestrianDiamond3
v -69.417206 0.002221 -45.035549
v -69.417206 2.444721 -45.039150
v -69.417206 0.002221 -45.039150
v -69.417206 2.444721 -45.035549
v -69.337807 0.002221 -45.039150
v -69.337807 2.444721 -45.039150
v -69.337807 0.002221 -45.035549
v -69.337807 2.444721 -45.035549
v -69.407501 2.444721 -45.035549
v -69.407501 0.002221 -45.035549
v -69.404526 2.444721 -45.036057
v -69.404526 0.002221 -45.036057
v -69.401619 2.444721 -45.037659
v -69.401619 0.002221 -45.037659
v -69.399399 2.444721 -45.040134
v -69.399399 0.002221 -45.040134
v -69.398239 2.444721 -45.042919
v -69.398239 0.002221 -45.042919
v -69.393066 2.444721 -45.065372
v -69.393066 0.002221 -45.065372
v -69.392609 2.444721 -45.066471
v -69.392609 0.002221 -45.066471
v -69.392021 2.444721 -45.067127
v -69.392021 0.002221 -45.067127
v -69.391251 2.444721 -45.067551
v -69.391251 0.002221 -45.067551
v -69.390076 2.444721 -45.067749
v -69.390076 0.002221 -45.067749
v -69.364937 2.444721 -45.067749
v -69.364937 0.002221 -45.067749
v -69.363770 2.444721 -45.067551
v -69.363770 0.002221 -45.067551
v -69.362991 2.444721 -45.067127
v -69.362991 0.002221 -45.067127
v -69.362404 2.444721 -45.066471
v -69.362404 0.002221 -45.066471
v -69.361954 2.444721 -45.065372
v -69.361954 0.002221 -45.065372
v -69.356773 2.444721 -45.042919
v -69.356773 0.002221 -45.042919
v -69.355614 2.444721 -45.040134
v -69.355614 0.002221 -45.040134
v -69.353394 2.444721 -45.037659
v -69.353394 0.002221 -45.037659
v -69.350487 2.444721 -45.036057
v -69.350487 0.002221 -45.036057
v -69.347511 2.444721 -45.035549
v -69.347511 0.002221 -45.035549
v -69.495140 -0.000029 -44.935715
v -69.495140 0.006321 -44.935715
v -69.502296 0.006321 -44.946423
v -69.502296 -0.000029 -44.946423
v -69.504807 0.006321 -44.959049
v -69.504807 -0.000029 -44.959049
v -69.504807 -0.000029 -45.147053
v -69.504807 0.006321 -45.147053
v -69.502296 0.006321 -45.159679
v -69.502296 -0.000029 -45.159679
v -69.495140 0.006321 -45.170387
v -69.495140 -0.000029 -45.170387
v -69.484436 0.006321 -45.177540
v -69.484436 -0.000029 -45.177540
v -69.471809 0.006321 -45.180050
v -69.471809 -0.000029 -45.180050
v -69.283806 -0.000029 -45.180050
v -69.283806 0.006321 -45.180050
v -69.271179 0.006321 -45.177540
v -69.271179 -0.000029 -45.177540
v -69.260475 0.006321 -45.170383
v -69.260475 -0.000029 -45.170383
v -69.253319 0.006321 -45.159679
v -69.253319 -0.000029 -45.159679
v -69.250809 0.006321 -45.147049
v -69.250809 -0.000029 -45.147049
v -69.250809 -0.000029 -44.959049
v -69.250809 0.006321 -44.959049
v -69.253319 0.006321 -44.946423
v -69.253319 -0.000029 -44.946423
v -69.260475 0.006321 -44.935715
v -69.260475 -0.000029 -44.935715
v -69.271179 0.006321 -44.928562
v -69.271179 -0.000029 -44.928562
v -69.283806 0.006321 -44.926052
v -69.283806 -0.000029 -44.926052
v -69.471809 -0.000029 -44.926052
v -69.471809 0.006321 -44.926052
v -69.484436 0.006321 -44.928562
v -69.484436 -0.000029 -44.928562
v -69.407806 2.444721 -45.039150
v -69.405731 2.444721 -45.039501
v -69.403893 2.444721 -45.040516
v -69.402489 2.444721 -45.042084
v -69.401680 2.444721 -45.044022
v -69.396507 2.444721 -45.066479
v -69.395699 2.444721 -45.068420
v -69.394295 2.444721 -45.069984
v -69.392456 2.444721 -45.070999
v -69.390381 2.444721 -45.071350
v -69.364632 2.444721 -45.071350
v -69.362564 2.444721 -45.070999
v -69.360718 2.444721 -45.069984
v -69.359322 2.444721 -45.068420
v -69.358513 2.444721 -45.066479
v -69.353333 2.444721 -45.044022
v -69.352524 2.444721 -45.042084
v -69.351120 2.444721 -45.040516
v -69.349281 2.444721 -45.039501
v -69.347214 2.444721 -45.039150
v -69.407806 0.002221 -45.039150
v -69.405731 0.002221 -45.039501
v -69.403893 0.002221 -45.040516
v -69.402489 0.002221 -45.042084
v -69.401680 0.002221 -45.044022
v -69.396507 0.002221 -45.066479
v -69.395699 0.002221 -45.068420
v -69.394295 0.002221 -45.069984
v -69.392456 0.002221 -45.070999
v -69.390381 0.002221 -45.071350
v -69.364632 0.002221 -45.071350
v -69.362564 0.002221 -45.070999
v -69.360718 0.002221 -45.069984
v -69.359322 0.002221 -45.068420
v -69.358513 0.002221 -45.066479
v -69.353333 0.002221 -45.044022
v -69.352524 0.002221 -45.042084
v -69.351120 0.002221 -45.040516
v -69.349281 0.002221 -45.039501
v -69.347214 0.002221 -45.039150
v -68.870102 1.983209 -45.030548
v -69.346695 1.506618 -45.030552
v -68.870102 1.983209 -45.035549
v -69.346695 1.506618 -45.035549
v -69.355804 1.499626 -45.030552
v -69.355804 1.499626 -45.035549
v -69.366417 1.495230 -45.030552
v -69.366417 1.495230 -45.035549
v -69.377808 1.493731 -45.030552
v -69.377808 1.493731 -45.035549
v -69.389198 1.495230 -45.030552
v -69.389198 1.495230 -45.035549
v -69.399811 1.499626 -45.030552
v -69.399811 1.499626 -45.035549
v -69.408920 1.506618 -45.030552
v -69.408920 1.506618 -45.035549
v -69.885513 1.983209 -45.030552
v -69.885513 1.983209 -45.035553
v -69.892502 1.992321 -45.030552
v -69.892502 1.992321 -45.035553
v -69.896896 2.002933 -45.030552
v -69.896896 2.002933 -45.035553
v -69.898399 2.014321 -45.030552
v -69.898399 2.014321 -45.035553
v -69.896896 2.025709 -45.030552
v -69.896896 2.025709 -45.035553
v -69.892502 2.036321 -45.030552
v -69.892502 2.036321 -45.035553
v -69.885513 2.045434 -45.030552
v -69.885513 2.045434 -45.035553
v -69.408920 2.522024 -45.030552
v -69.408920 2.522024 -45.035549
v -69.399811 2.529016 -45.030552
v -69.399811 2.529016 -45.035549
v -69.389198 2.533412 -45.030552
v -69.389198 2.533412 -45.035549
v -69.377808 2.534911 -45.030552
v -69.377808 2.534911 -45.035549
v -69.366417 2.533412 -45.030552
v -69.366417 2.533412 -45.035549
v -69.355804 2.529016 -45.030552
v -69.355804 2.529016 -45.035549
v -69.346695 2.522024 -45.030552
v -69.346695 2.522024 -45.035549
v -68.870102 2.045434 -45.030548
v -68.870102 2.045434 -45.035549
v -68.863113 2.036321 -45.030548
v -68.863113 2.036321 -45.035549
v -68.858719 2.025709 -45.030548
v -68.858719 2.025709 -45.035549
v -68.857216 2.014321 -45.030548
v -68.857216 2.014321 -45.035549
v -68.858719 2.002933 -45.030548
v -68.858719 2.002933 -45.035549
v -68.863113 1.992321 -45.030548
v -68.863113 1.992321 -45.035549
vn -1.0000 -0.0039 -0.0039
vn 1.0000 -0.0039 -0.0039
vn -0.0039 -0.0039 1.0000
vn 0.0355 -0.0040 0.9994
vn 0.3351 -0.0039 0.9422
vn 0.6194 -0.0039 0.7851
vn 0.8411 -0.0039 0.5409
vn 0.9708 -0.0039 0.2397
vn 0.9708 -0.0039 0.2398
vn 0.9726 -0.0039 0.2323
vn 0.8616 -0.0039 0.5075
vn 0.3043 -0.0040 0.9526
vn 0.0040 -0.0040 1.0000
vn -0.0119 -0.0040 0.9999
vn -0.3115 -0.0039 0.9502
vn -0.6242 -0.0039 0.7812
vn -0.8636 -0.0039 0.5041
vn -0.9731 -0.0039 0.2305
vn -0.9713 -0.0039 0.2380
vn -0.9713 -0.0039 0.2379
vn -0.8433 -0.0039 0.5374
vn -0.6242 -0.0039 0.7813
vn -0.3421 -0.0039 0.9397
vn -0.0434 -0.0039 0.9990
vn -0.7110 -0.0039 0.7032
vn -0.9255 -0.0039 0.3788
vn -0.9999 -0.0039 0.0117
vn -0.9999 -0.0039 0.0118
vn -0.9998 -0.0039 -0.0196
vn -0.9227 -0.0039 -0.3854
vn -0.7071 -0.0039 -0.7071
vn -0.3854 -0.0039 -0.9227
vn -0.0196 -0.0039 -0.9998
vn 0.0117 -0.0039 -0.9999
vn 0.0118 -0.0039 -0.9999
vn 0.3788 -0.0039 -0.9255
vn 0.7032 -0.0039 -0.7110
vn 0.9216 -0.0039 -0.3882
vn 0.9998 -0.0040 -0.0197
vn 0.9998 -0.0040 -0.0198
vn 0.9999 -0.0040 0.0118
vn 0.9999 -0.0040 0.0119
vn 0.9243 -0.0039 0.3815
vn 0.7071 -0.0040 0.7071
vn 0.7071 -0.0039 0.7071
vn 0.3815 -0.0039 0.9243
vn 0.0118 -0.0040 0.9999
vn 0.0119 -0.0040 0.9999
vn -0.0197 -0.0040 0.9998
vn -0.0198 -0.0040 0.9998
vn -0.3882 -0.0039 0.9216
vn -0.0039 1.0000 -0.0039
vn -0.0039 -0.0039 -1.0000
vn -0.0353 -0.0039 -0.9994
vn -0.3326 -0.0039 -0.9431
vn -0.6204 -0.0039 -0.7843
vn -0.8456 -0.0039 -0.5338
vn -0.9713 -0.0039 -0.2379
vn -0.9713 -0.0039 -0.2380
vn 0.3256 -0.0039 -0.9455
vn 0.6156 -0.0039 -0.7881
vn 0.8433 -0.0039 -0.5374
vn 0.9708 -0.0039 -0.2397
vn 0.9708 -0.0039 -0.2398
vn 0.0275 -0.0039 -0.9996
vn 0.7031 -0.7110 -0.0039
vn 0.7032 -0.7110 -0.0039
vn 0.4982 -0.8670 -0.0039
vn 0.2545 -0.9671 -0.0039
vn -0.0039 -1.0000 -0.0039
vn -0.2618 -0.9651 -0.0039
vn -0.5041 -0.8636 -0.0039
vn -0.7071 -0.7071 -0.0039
vn -0.8636 -0.5041 -0.0039
vn -0.9651 -0.2618 -0.0039
vn -0.9671 0.2545 -0.0039
vn -0.8670 0.4982 -0.0039
vn -0.7110 0.7032 -0.0039
vn -0.5075 0.8616 -0.0039
vn -0.2638 0.9646 -0.0039
vn 0.2564 0.9666 -0.0039
vn 0.5016 0.8651 -0.0039
vn 0.7071 0.7071 -0.0039
vn 0.8651 0.5016 -0.0039
vn 0.9666 0.2564 -0.0039
vn 0.9666 0.2564 -0.0040
vn 0.9646 -0.2638 -0.0039
vn 0.8616 -0.5075 -0.0039
vt 0.920410 0.336914
vt 0.919434 0.940735
vt 0.919434 0.336914
vt 0.920410 0.940735
vt 0.910156 0.336914
vt 0.910156 0.940735
vt 0.909180 0.336914
vt 0.909180 0.940735
vt 0.864258 0.940735
vt 0.864258 0.336914
vt 0.866699 0.940735
vt 0.866699 0.336914
vt 0.867676 0.940735
vt 0.867676 0.336914
vt 0.868164 0.940735
vt 0.868164 0.336914
vt 0.869141 0.940735
vt 0.869141 0.336914
vt 0.870117 0.940735
vt 0.870117 0.336914
vt 0.875488 0.940735
vt 0.875488 0.336914
vt 0.875977 0.940735
vt 0.875977 0.336914
vt 0.876465 0.940735
vt 0.876465 0.336914
vt 0.882812 0.940735
vt 0.882812 0.336914
vt 0.883301 0.940735
vt 0.883301 0.336914
vt 0.883789 0.940735
vt 0.883789 0.336914
vt 0.889648 0.940735
vt 0.889648 0.336914
vt 0.890137 0.940735
vt 0.890137 0.336914
vt 0.891113 0.940735
vt 0.891113 0.336914
vt 0.892090 0.940735
vt 0.892090 0.336914
vt 0.892578 0.940735
vt 0.892578 0.336914
vt 0.895020 0.940735
vt 0.895020 0.336914
vt 0.777832 0.229980
vt 0.781738 0.229980
vt 0.781738 0.230957
vt 0.777832 0.230957
vt 0.781738 0.232422
vt 0.777832 0.232422
vt 0.777832 0.250488
vt 0.781738 0.250488
vt 0.781738 0.251953
vt 0.777832 0.251953
vt 0.781738 0.252930
vt 0.777832 0.252930
vt 0.781738 0.253906
vt 0.777832 0.253906
vt 0.781738 0.255371
vt 0.777832 0.255371
vt 0.777832 0.277344
vt 0.781738 0.277344
vt 0.781738 0.278809
vt 0.777832 0.278809
vt 0.781738 0.280273
vt 0.777832 0.280273
vt 0.781738 0.281250
vt 0.777832 0.281250
vt 0.781738 0.282715
vt 0.777832 0.282715
vt 0.777832 0.300781
vt 0.781738 0.300781
vt 0.781738 0.301758
vt 0.777832 0.301758
vt 0.781738 0.302734
vt 0.777832 0.302734
vt 0.781738 0.304199
vt 0.777832 0.304199
vt 0.781738 0.305664
vt 0.777832 0.305664
vt 0.777832 0.327637
vt 0.781738 0.327637
vt 0.781738 0.329102
vt 0.777832 0.329102
vt 0.781738 0.330566
vt 0.777832 0.330566
vt 0.799316 0.825439
vt 0.800293 0.823120
vt 0.800293 0.825439
vt 0.799316 0.823120
vt 0.800293 0.822388
vt 0.799316 0.822388
vt 0.800293 0.821777
vt 0.799316 0.821777
vt 0.799316 0.821045
vt 0.800293 0.821045
vt 0.799316 0.820435
vt 0.800293 0.820435
vt 0.799316 0.814697
vt 0.800293 0.814697
vt 0.799316 0.814331
vt 0.800293 0.814331
vt 0.799316 0.813965
vt 0.800293 0.813965
vt 0.800293 0.813599
vt 0.799316 0.813599
vt 0.800293 0.813232
vt 0.799316 0.813232
vt 0.799316 0.806885
vt 0.800293 0.806885
vt 0.799316 0.806519
vt 0.800293 0.806519
vt 0.799316 0.806152
vt 0.800293 0.806152
vt 0.800293 0.805786
vt 0.799316 0.805786
vt 0.800293 0.805420
vt 0.799316 0.805420
vt 0.800293 0.799683
vt 0.799316 0.799683
vt 0.800293 0.799072
vt 0.799316 0.799072
vt 0.800293 0.798340
vt 0.799316 0.798340
vt 0.799316 0.797729
vt 0.800293 0.797729
vt 0.799316 0.797119
vt 0.800293 0.797119
vt 0.799316 0.794678
vt 0.800293 0.794678
vt 0.854980 0.940735
vt 0.853027 0.336914
vt 0.854980 0.336914
vt 0.853027 0.940735
vt 0.852051 0.336914
vt 0.852051 0.940735
vt 0.851562 0.336914
vt 0.851562 0.940735
vt 0.851074 0.336914
vt 0.851074 0.940735
vt 0.850586 0.336914
vt 0.850586 0.940735
vt 0.845215 0.336914
vt 0.845215 0.940735
vt 0.844727 0.336914
vt 0.844727 0.940735
vt 0.843750 0.336914
vt 0.843750 0.940735
vt 0.843262 0.336914
vt 0.843262 0.940735
vt 0.842773 0.336914
vt 0.842773 0.940735
vt 0.836426 0.336914
vt 0.836426 0.940735
vt 0.835938 0.336914
vt 0.835938 0.940735
vt 0.835449 0.336914
vt 0.835449 0.940735
vt 0.834961 0.336914
vt 0.834961 0.940735
vt 0.834473 0.336914
vt 0.834473 0.940735
vt 0.828613 0.336914
vt 0.828613 0.940735
vt 0.828125 0.336914
vt 0.828125 0.940735
vt 0.827637 0.336914
vt 0.827637 0.940735
vt 0.827148 0.336914
vt 0.827148 0.940735
vt 0.826660 0.336914
vt 0.826660 0.940735
vt 0.824219 0.336914
vt 0.824219 0.940735
vt 0.930664 0.973007
vt 0.930664 0.806396
vt 0.931641 0.973007
vt 0.931641 0.806396
vt 0.930664 0.803589
vt 0.931641 0.803589
vt 0.930664 0.800781
vt 0.931641 0.800781
vt 0.930664 0.797852
vt 0.931641 0.797852
vt 0.930664 0.795044
vt 0.931641 0.795044
vt 0.930664 0.792236
vt 0.931641 0.792236
vt 0.930664 0.789429
vt 0.931641 0.789429
vt 0.930664 0.622803
vt 0.931641 0.622803
vt 0.930664 0.619873
vt 0.931641 0.619873
vt 0.930664 0.617188
vt 0.931641 0.617188
vt 0.930664 0.614258
vt 0.931641 0.614258
vt 0.930664 0.611328
vt 0.931641 0.611328
vt 0.930664 0.608643
vt 0.931641 0.608643
vt 0.930664 0.605713
vt 0.931641 0.605713
vt 0.930664 0.439453
vt 0.931641 0.439453
vt 0.930664 0.436523
vt 0.931641 0.436523
vt 0.930664 0.433594
vt 0.931641 0.433594
vt 0.930664 0.430664
vt 0.931641 0.430664
vt 0.930664 0.427734
vt 0.931641 0.427734
vt 0.930664 0.425293
vt 0.931641 0.425293
vt 0.930664 0.422363
vt 0.931641 0.422363
vt 0.930664 0.255371
vt 0.931641 0.255371
vt 0.930664 0.252930
vt 0.931641 0.252930
vt 0.930664 0.250000
vt 0.931641 0.250000
vt 0.930664 0.247070
vt 0.931641 0.247070
vt 0.930664 0.244141
vt 0.931641 0.244141
vt 0.930664 0.241211
vt 0.931641 0.241211
vt 0.930664 0.238770
vt 0.931641 0.238770
vt 0.008446 0.840576
vt 0.006989 0.846069
vt 0.007362 0.843262
vt 0.010178 0.838379
vt 0.008446 0.851440
vt 0.007362 0.848877
vt 0.010178 0.853760
vt 0.127930 0.971542
vt 0.261230 0.838379
vt 0.127930 0.720703
vt 0.261230 0.853760
vt 0.143311 0.971542
vt 0.262939 0.851440
vt 0.130249 0.973267
vt 0.263916 0.848877
vt 0.141113 0.973267
vt 0.263916 0.843262
vt 0.264404 0.846069
vt 0.262939 0.840576
vt 0.135620 0.974731
vt 0.138428 0.974350
vt 0.132812 0.974350
vt 0.143311 0.720703
vt 0.130249 0.718750
vt 0.138428 0.717773
vt 0.141113 0.718750
vt 0.132812 0.717773
vt 0.135620 0.717285
vt 0.540527 0.846069
vt 0.539062 0.840576
vt 0.540527 0.843262
vt 0.537598 0.838379
vt 0.539062 0.851440
vt 0.540527 0.848877
vt 0.537598 0.853760
vt 0.419922 0.971542
vt 0.286621 0.838379
vt 0.419922 0.720703
vt 0.286621 0.853760
vt 0.404541 0.971542
vt 0.284912 0.851440
vt 0.406738 0.973267
vt 0.283936 0.848877
vt 0.417725 0.973267
vt 0.283936 0.843262
vt 0.283447 0.846069
vt 0.284912 0.840576
vt 0.412109 0.974731
vt 0.409424 0.974350
vt 0.415039 0.974350
vt 0.404541 0.720703
vt 0.417725 0.718750
vt 0.409424 0.717773
vt 0.406738 0.718750
vt 0.415039 0.717773
vt 0.412109 0.717285
vt 0.921387 0.267090
vt 0.918945 0.261719
vt 0.920410 0.264160
vt 0.913086 0.259277
vt 0.916016 0.259766
vt 0.921387 0.313965
vt 0.913086 0.321777
vt 0.866699 0.259277
vt 0.918945 0.319336
vt 0.920410 0.316895
vt 0.916016 0.321289
vt 0.866699 0.321777
vt 0.860840 0.319336
vt 0.863281 0.321289
vt 0.858398 0.313965
vt 0.858887 0.316895
vt 0.858398 0.267090
vt 0.860840 0.261719
vt 0.858887 0.264160
vt 0.863281 0.259766
s 1
usemtl StreetSigns
f 1/1/1 2/2/1 3/3/1
f 2/2/1 1/1/1 4/4/1
f 5/5/2 6/6/2 7/7/2
f 8/8/2 7/7/2 6/6/2
f 4/9/3 1/10/3 9/11/4
f 9/11/4 1/10/3 10/12/4
f 9/11/4 10/12/4 11/13/5
f 11/13/5 10/12/4 12/14/5
f 11/13/5 12/14/5 13/15/6
f 13/15/6 12/14/5 14/16/6
f 13/15/6 14/16/6 15/17/7
f 16/18/7 15/17/7 14/16/6
f 15/17/7 16/18/7 17/19/8
f 18/20/9 17/19/8 16/18/7
f 17/19/8 18/20/9 19/21/10
f 20/22/10 19/21/10 18/20/9
f 19/21/10 20/22/10 21/23/11
f 22/24/11 21/23/11 20/22/10
f 21/23/11 22/24/11 23/23/6
f 24/24/6 23/23/6 22/24/11
f 23/23/6 24/24/6 25/25/12
f 25/25/12 24/24/6 26/26/12
f 25/25/12 26/26/12 27/25/13
f 27/25/13 26/26/12 28/26/13
f 27/25/13 28/26/13 29/27/14
f 29/27/14 28/26/13 30/28/14
f 29/27/14 30/28/14 31/29/15
f 31/29/15 30/28/14 32/30/15
f 31/29/15 32/30/15 33/29/16
f 33/29/16 32/30/15 34/30/16
f 34/30/16 35/31/17 33/29/16
f 35/31/17 34/30/16 36/32/17
f 36/32/17 37/31/18 35/31/17
f 37/31/18 36/32/17 38/32/18
f 38/32/18 39/33/19 37/31/18
f 39/33/19 38/32/18 40/34/20
f 40/34/20 41/35/21 39/33/19
f 41/35/21 40/34/20 42/36/21
f 42/36/21 43/37/22 41/35/21
f 43/37/22 42/36/21 44/38/16
f 43/37/22 44/38/16 45/39/23
f 45/39/23 44/38/16 46/40/23
f 45/39/23 46/40/23 47/41/24
f 47/41/24 46/40/23 48/42/24
f 47/41/24 48/42/24 8/43/3
f 8/43/3 48/42/24 7/44/3
f 49/45/25 50/46/25 51/47/26
f 49/45/25 51/47/26 52/48/26
f 51/47/26 53/49/27 52/48/26
f 52/48/26 53/49/27 54/50/28
f 55/51/29 54/50/28 53/49/27
f 53/49/27 56/52/29 55/51/29
f 56/52/29 57/53/30 55/51/29
f 55/51/29 57/53/30 58/54/30
f 57/53/30 59/55/31 58/54/30
f 58/54/30 59/55/31 60/56/31
f 60/56/31 59/55/31 61/57/32
f 62/58/32 60/56/31 61/57/32
f 61/57/32 63/59/33 62/58/32
f 64/60/33 62/58/32 63/59/33
f 65/61/34 64/60/33 63/59/33
f 65/61/34 63/59/33 66/62/35
f 67/63/36 65/61/34 66/62/35
f 65/61/34 67/63/36 68/64/36
f 69/65/37 68/64/36 67/63/36
f 68/64/36 69/65/37 70/66/37
f 71/67/38 70/66/37 69/65/37
f 72/68/38 70/66/37 71/67/38
f 73/69/39 72/68/38 71/67/38
f 74/70/40 72/68/38 73/69/39
f 73/69/39 75/71/41 74/70/40
f 75/71/41 73/69/39 76/72/42
f 77/73/43 75/71/41 76/72/42
f 78/74/43 75/71/41 77/73/43
f 79/75/44 78/74/43 77/73/43
f 80/76/45 78/74/43 79/75/44
f 79/75/44 81/77/46 80/76/45
f 81/77/46 82/78/46 80/76/45
f 81/77/46 83/79/47 82/78/46
f 84/80/48 82/78/46 83/79/47
f 83/79/47 85/81/49 84/80/48
f 83/79/47 86/82/50 85/81/49
f 86/82/50 87/83/51 85/81/49
f 88/84/51 85/81/49 87/83/51
f 87/83/51 50/85/25 88/84/51
f 50/85/25 49/86/25 88/84/51
f 4/87/52 89/88/52 2/89/52
f 89/88/52 4/87/52 9/90/52
f 9/90/52 90/91/52 89/88/52
f 90/91/52 9/90/52 11/92/52
f 11/92/52 91/93/52 90/91/52
f 91/93/52 11/92/52 13/94/52
f 15/95/52 91/93/52 13/94/52
f 91/93/52 15/95/52 92/96/52
f 17/97/52 92/96/52 15/95/52
f 92/96/52 17/97/52 93/98/52
f 17/97/52 19/99/52 93/98/52
f 93/98/52 19/99/52 94/100/52
f 21/101/52 94/100/52 19/99/52
f 94/100/52 21/101/52 95/102/52
f 23/103/52 95/102/52 21/101/52
f 95/102/52 23/103/52 96/104/52
f 23/103/52 97/105/52 96/104/52
f 97/105/52 23/103/52 25/106/52
f 25/106/52 98/107/52 97/105/52
f 98/107/52 25/106/52 27/108/52
f 27/108/52 29/109/52 98/107/52
f 99/110/52 98/107/52 29/109/52
f 31/111/52 99/110/52 29/109/52
f 99/110/52 31/111/52 100/112/52
f 100/112/52 31/111/52 33/113/52
f 100/112/52 33/113/52 101/114/52
f 33/113/52 102/115/52 101/114/52
f 102/115/52 33/113/52 35/116/52
f 35/116/52 103/117/52 102/115/52
f 103/117/52 35/116/52 37/118/52
f 37/118/52 104/119/52 103/117/52
f 104/119/52 37/118/52 39/120/52
f 39/120/52 105/121/52 104/119/52
f 105/121/52 39/120/52 41/122/52
f 41/122/52 106/123/52 105/121/52
f 106/123/52 41/122/52 43/124/52
f 106/123/52 43/124/52 45/125/52
f 106/123/52 45/125/52 107/126/52
f 107/126/52 45/125/52 47/127/52
f 47/127/52 108/128/52 107/126/52
f 47/127/52 8/129/52 108/128/52
f 6/130/52 108/128/52 8/129/52
f 2/131/53 109/132/54 3/133/53
f 109/132/54 2/131/53 89/134/54
f 109/132/54 89/134/54 110/135/55
f 110/135/55 89/134/54 90/136/55
f 110/135/55 90/136/55 111/137/56
f 111/137/56 90/136/55 91/138/56
f 91/138/56 112/139/57 111/137/56
f 112/139/57 91/138/56 92/140/57
f 92/140/57 113/141/58 112/139/57
f 113/141/58 92/140/57 93/142/58
f 93/142/58 114/143/59 113/141/58
f 114/143/59 93/142/58 94/144/59
f 94/144/59 115/145/57 114/143/59
f 115/145/57 94/144/59 95/146/57
f 95/146/57 116/147/56 115/145/57
f 116/147/56 95/146/57 96/148/56
f 96/148/56 117/149/55 116/147/56
f 117/149/55 96/148/56 97/150/55
f 117/149/55 97/150/55 118/151/33
f 118/151/33 97/150/55 98/152/33
f 118/151/33 98/152/33 119/153/35
f 119/153/35 98/152/33 99/154/35
f 119/153/35 99/154/35 120/155/60
f 120/155/60 99/154/35 100/156/60
f 100/156/60 121/157/61 120/155/60
f 121/157/61 100/156/60 101/158/61
f 121/157/61 101/158/61 122/159/62
f 102/160/62 122/159/62 101/158/61
f 122/159/62 102/160/62 123/161/63
f 103/162/64 123/161/63 102/160/62
f 123/161/63 103/162/64 124/163/64
f 104/164/63 124/163/64 103/162/64
f 124/163/64 104/164/63 125/165/62
f 105/166/62 125/165/62 104/164/63
f 125/165/62 105/166/62 126/167/61
f 106/168/61 126/167/61 105/166/62
f 126/167/61 106/168/61 127/169/60
f 127/169/60 106/168/61 107/170/60
f 127/169/60 107/170/60 128/171/65
f 128/171/65 107/170/60 108/172/65
f 128/171/65 108/172/65 5/173/53
f 5/173/53 108/172/65 6/174/53
f 129/175/66 130/176/67 131/177/67
f 132/178/67 131/177/67 130/176/67
f 133/179/68 132/178/67 130/176/67
f 132/178/67 133/179/68 134/180/68
f 135/181/69 134/180/68 133/179/68
f 134/180/68 135/181/69 136/182/69
f 137/183/70 136/182/69 135/181/69
f 136/182/69 137/183/70 138/184/70
f 139/185/71 138/184/70 137/183/70
f 138/184/70 139/185/71 140/186/71
f 141/187/72 140/186/71 139/185/71
f 140/186/71 141/187/72 142/188/72
f 143/189/73 142/188/72 141/187/72
f 142/188/72 143/189/73 144/190/73
f 143/189/73 145/191/73 144/190/73
f 146/192/73 144/190/73 145/191/73
f 145/191/73 147/193/74 146/192/73
f 148/194/74 146/192/73 147/193/74
f 147/193/74 149/195/75 148/194/74
f 150/196/75 148/194/74 149/195/75
f 149/195/75 151/197/1 150/196/75
f 152/198/1 150/196/75 151/197/1
f 151/197/1 153/199/76 152/198/1
f 154/200/76 152/198/1 153/199/76
f 153/199/76 155/201/77 154/200/76
f 156/202/77 154/200/76 155/201/77
f 155/201/77 157/203/78 156/202/77
f 158/204/78 156/202/77 157/203/78
f 157/203/78 159/205/78 158/204/78
f 160/206/78 158/204/78 159/205/78
f 161/207/79 160/206/78 159/205/78
f 160/206/78 161/207/79 162/208/79
f 163/209/80 162/208/79 161/207/79
f 162/208/79 163/209/80 164/210/80
f 165/211/52 164/210/80 163/209/80
f 164/210/80 165/211/52 166/212/52
f 167/213/81 166/212/52 165/211/52
f 166/212/52 167/213/81 168/214/81
f 169/215/82 168/214/81 167/213/81
f 168/214/81 169/215/82 170/216/82
f 171/217/83 170/216/82 169/215/82
f 170/216/82 171/217/83 172/218/83
f 171/217/83 173/219/83 172/218/83
f 174/220/83 172/218/83 173/219/83
f 175/221/84 174/220/83 173/219/83
f 174/220/83 175/221/84 176/222/84
f 177/223/85 176/222/84 175/221/84
f 176/222/84 177/223/85 178/224/86
f 179/225/2 178/224/86 177/223/85
f 178/224/86 179/225/2 180/226/2
f 181/227/87 180/226/2 179/225/2
f 180/226/2 181/227/87 182/228/87
f 183/229/88 182/228/87 181/227/87
f 182/228/87 183/229/88 184/230/88
f 129/231/66 184/230/88 183/229/88
f 184/230/88 129/231/66 131/232/67
f 147/233/3 151/234/3 149/235/3
f 151/234/3 147/233/3 145/236/3
f 151/234/3 155/237/3 153/238/3
f 155/237/3 151/234/3 145/236/3
f 145/236/3 157/239/3 155/237/3
f 157/239/3 145/236/3 159/240/3
f 129/241/3 159/240/3 145/236/3
f 143/242/3 129/241/3 145/236/3
f 159/240/3 129/241/3 173/243/3
f 159/240/3 173/243/3 171/244/3
f 173/243/3 129/241/3 175/245/3
f 159/240/3 171/244/3 161/246/3
f 175/245/3 129/241/3 177/247/3
f 161/246/3 171/244/3 169/248/3
f 181/249/3 177/247/3 129/241/3
f 177/247/3 181/249/3 179/250/3
f 181/249/3 129/241/3 183/251/3
f 169/248/3 165/252/3 161/246/3
f 165/252/3 169/248/3 167/253/3
f 161/246/3 165/252/3 163/254/3
f 129/241/3 143/242/3 130/255/3
f 141/256/3 130/255/3 143/242/3
f 135/257/3 130/255/3 141/256/3
f 130/255/3 135/257/3 133/258/3
f 135/257/3 141/256/3 139/259/3
f 135/257/3 139/259/3 137/260/3
f 152/261/53 148/262/53 150/263/53
f 152/261/53 146/264/53 148/262/53
f 156/265/53 152/261/53 154/266/53
f 146/264/53 152/261/53 156/265/53
f 146/264/53 156/265/53 158/267/53
f 160/268/53 146/264/53 158/267/53
f 146/264/53 160/268/53 131/269/53
f 146/264/53 131/269/53 144/270/53
f 131/269/53 160/268/53 174/271/53
f 174/271/53 160/268/53 172/272/53
f 176/273/53 131/269/53 174/271/53
f 172/272/53 160/268/53 170/274/53
f 178/275/53 131/269/53 176/273/53
f 162/276/53 170/274/53 160/268/53
f 182/277/53 131/269/53 178/275/53
f 182/277/53 178/275/53 180/278/53
f 131/269/53 182/277/53 184/279/53
f 166/280/53 170/274/53 162/276/53
f 170/274/53 166/280/53 168/281/53
f 166/280/53 162/276/53 164/282/53
f 144/270/53 131/269/53 132/283/53
f 144/270/53 132/283/53 142/284/53
f 132/283/53 136/285/53 142/284/53
f 136/285/53 132/283/53 134/286/53
f 136/285/53 140/287/53 142/284/53
f 140/287/53 136/285/53 138/288/53
f 56/289/52 59/290/52 57/291/52
f 63/292/52 59/290/52 56/289/52
f 59/290/52 63/292/52 61/293/52
f 53/294/52 63/292/52 56/289/52
f 63/292/52 53/294/52 86/295/52
f 63/292/52 86/295/52 66/296/52
f 50/297/52 86/295/52 53/294/52
f 50/297/52 53/294/52 51/298/52
f 86/295/52 50/297/52 87/299/52
f 66/296/52 86/295/52 83/300/52
f 79/301/52 83/300/52 81/302/52
f 79/301/52 76/303/52 83/300/52
f 76/303/52 66/296/52 83/300/52
f 76/303/52 79/301/52 77/304/52
f 66/296/52 76/303/52 73/305/52
f 69/306/52 66/296/52 73/305/52
f 69/306/52 73/305/52 71/307/52
f 66/296/52 69/306/52 67/308/52
