# Blender 3.6.18
# www.blender.org
mtllib Mesh.010.mtl
o Road_Endcap10
v -24.623924 -0.000003 -85.616318
v -24.752619 0.034997 -85.487610
v -24.623993 0.000041 -83.921371
v -31.498859 0.000041 -85.616272
v -24.752625 0.034997 -84.050018
v -31.498865 0.000041 -83.921402
v -31.370226 0.034997 -85.487633
v -31.370230 0.034997 -84.050034
v -52.123924 -0.000003 -85.616394
v -51.995232 0.034997 -85.487686
v -45.248989 0.000041 -85.616302
v -52.123867 0.000041 -83.921463
v -45.377625 0.034997 -85.487671
v -45.248993 0.000041 -83.921432
v -51.995235 0.034997 -84.050095
v -45.377628 0.034997 -84.050079
v -24.623949 -0.200004 -76.741318
v -24.623928 -0.200004 -83.616318
v -38.373951 -0.200004 -76.741356
v -38.373928 -0.200004 -83.616356
v -31.498919 -0.000003 -87.616333
v -24.623917 -0.000003 -87.616318
v -45.248917 -0.000003 -87.616379
v -52.123917 -0.000003 -87.616394
v -10.873930 -0.200004 -83.616272
v -10.873953 -0.200004 -76.741272
v -52.123928 -0.200004 -83.616394
v -65.873932 -0.200004 -83.616440
v -52.123955 -0.200004 -76.741394
v -65.873947 -0.200004 -76.741440
v -31.498930 -0.200004 -83.616333
v -24.623928 -0.050003 -83.616318
v -31.498930 -0.050003 -83.616333
v -24.623928 -0.000003 -83.666321
v -31.498930 -0.000003 -83.666336
v -45.248928 -0.200004 -83.616379
v -52.123928 -0.000003 -83.666397
v -45.248928 -0.000003 -83.666382
v -52.123928 -0.050003 -83.616394
v -45.248928 -0.050003 -83.616379
v -65.873917 -0.000003 -87.616440
v -65.873932 -0.000003 -83.666443
v -65.873932 -0.050003 -83.616440
v 0.001049 -0.200004 -76.741241
v 0.001072 -0.200004 -83.616241
v -6.873947 -0.200004 -76.741264
v -6.873926 -0.200004 -83.616264
v -69.873932 -0.200004 -83.616447
v -69.873947 -0.200004 -76.741447
v -76.748932 -0.200004 -83.616470
v -76.748947 -0.200004 -76.741470
v -45.248924 -0.000003 -85.616302
v -31.498924 -0.000003 -85.616272
v -10.873930 -0.050003 -83.616272
v -10.873928 -0.000003 -83.666275
v -10.873917 -0.000003 -87.616272
v 0.001072 -0.050003 -83.616241
v 0.001072 -0.000003 -83.666245
v -10.873922 -0.000003 -85.616272
v 0.001083 -0.000003 -87.616241
v -76.748932 -0.050003 -83.616470
v -76.748932 -0.000003 -83.666473
v -76.748917 -0.000003 -87.616470
vn 0.0434 0.9752 -0.2171
vn 0.0040 0.9996 -0.0277
vn 0.0435 0.9768 0.2096
vn -0.0513 0.9748 -0.2171
vn 0.0039 0.9998 0.0197
vn -0.0514 0.9765 0.2095
vn -0.0118 0.9995 -0.0277
vn -0.0119 0.9997 0.0198
vn -0.0119 0.9995 -0.0276
vn 0.0434 0.9752 -0.2172
vn 0.0039 0.9996 -0.0277
vn 0.0040 0.9998 0.0198
vn -0.0039 1.0000 -0.0039
vn -0.0039 -0.0039 1.0000
vn -0.0039 0.2398 0.9708
vn -0.0001 0.9998 0.0197
vn -0.0000 0.9996 0.0277
vn -0.0040 0.9998 0.0198
vn -0.0001 0.9996 0.0277
vn -0.0000 0.9998 0.0197
vn -0.0039 0.9999 0.0119
vn -0.0000 0.9999 0.0118
vn -0.0000 0.9999 0.0119
vn -0.0040 0.9999 0.0119
vt 0.625488 0.000488
vt 0.604492 0.020508
vt 0.376953 0.000977
vt 0.625488 0.998861
vt 0.397949 0.020508
vt 0.376953 0.998824
vt 0.604492 0.979050
vt 0.397949 0.978973
vt 0.968750 0.019531
vt 0.653320 0.019531
vt 0.968750 0.650391
vt 0.653320 0.650391
vt 0.325439 0.480957
vt 0.325439 0.389160
vt 0.640625 0.480957
vt 0.640625 0.389160
vt 0.325439 0.289062
vt 0.640625 0.289062
vt 0.640625 0.295898
vt 0.325439 0.295898
vt 0.640625 0.299316
vt 0.325439 0.299316
vt 0.325439 0.311035
vt 0.640625 0.311035
vt 0.653320 0.334961
vt 0.010002 0.389160
vt 0.010002 0.480957
vt 0.010002 0.299316
vt 0.010002 0.295898
vt 0.010002 0.289062
vt 0.508789 0.491211
vt 0.193481 0.491211
vt 0.508789 0.806396
vt 0.193481 0.806396
vt 0.508789 0.989929
vt 0.193481 0.989929
vt 0.141846 0.289062
vt 0.141846 0.295898
vt 0.141846 0.299316
vt 0.141846 0.480957
s 1
usemtl foliage_ground_cover4
f 1/1/1 2/2/2 3/3/3
f 1/1/1 4/4/4 2/2/2
f 2/2/2 5/5/5 3/3/3
f 3/3/3 5/5/5 6/6/6
f 4/4/4 7/7/7 2/2/2
f 5/5/5 8/8/8 6/6/6
f 6/6/6 8/8/8 4/4/4
f 8/8/8 5/5/5 2/2/2
f 8/8/8 7/7/7 4/4/4
f 7/7/7 8/8/8 2/2/2
f 9/1/4 10/2/9 11/4/10
f 9/1/4 12/3/6 10/2/9
f 10/2/9 13/7/11 11/4/10
f 11/4/1 13/7/11 14/6/3
f 12/3/6 15/5/8 10/2/9
f 13/7/11 16/8/12 14/6/3
f 14/6/3 16/8/12 12/3/6
f 13/7/11 10/2/9 16/8/12
f 16/8/12 15/5/8 12/3/6
f 10/2/9 15/5/8 16/8/12
usemtl Road4
f 17/9/13 18/10/13 19/11/13
f 18/10/13 20/12/13 19/11/13
f 21/13/13 4/14/13 22/15/13
f 4/14/13 1/16/13 22/15/13
f 23/13/13 24/15/13 11/14/13
f 24/15/13 9/16/13 11/14/13
f 18/12/13 17/11/13 25/10/13
f 17/11/13 26/9/13 25/10/13
f 27/10/13 28/12/13 29/9/13
f 28/12/13 30/11/13 29/9/13
f 31/17/14 18/18/14 32/19/15
f 33/20/15 31/17/14 32/19/15
f 33/20/15 32/19/15 34/21/16
f 35/22/17 33/20/15 34/21/16
f 35/22/17 34/21/16 6/23/13
f 34/21/16 3/24/13 6/23/13
f 19/9/13 20/10/13 29/11/13
f 20/10/13 36/25/13 29/11/13
f 36/25/13 27/12/13 29/11/13
f 14/23/13 12/24/13 37/21/18
f 38/22/19 14/23/13 37/21/20
f 37/21/20 39/19/15 38/22/19
f 39/19/15 40/20/15 38/22/19
f 40/20/15 39/19/15 36/17/14
f 39/19/15 27/18/14 36/17/14
f 9/26/13 24/27/13 41/15/13
f 37/28/20 9/26/13 41/15/13
f 42/21/21 37/28/20 41/15/13
f 42/21/21 43/19/15 37/28/20
f 43/19/15 39/29/15 37/28/20
f 39/29/15 43/19/15 28/18/14
f 27/30/14 39/29/15 28/18/14
f 44/31/13 45/32/13 46/33/13
f 45/32/13 47/34/13 46/33/13
f 46/33/13 47/34/13 26/35/13
f 47/34/13 25/36/13 26/35/13
f 30/35/13 28/36/13 48/34/13
f 49/33/13 30/35/13 48/34/13
f 49/33/13 48/34/13 50/32/13
f 51/31/13 49/33/13 50/32/13
f 31/30/14 33/29/15 36/18/14
f 33/29/15 40/19/15 36/18/14
f 40/19/15 33/29/15 35/28/17
f 38/21/19 40/19/15 35/28/17
f 52/16/13 38/21/19 35/28/17
f 53/26/13 52/16/13 35/28/17
f 53/26/13 21/27/13 52/16/13
f 21/27/13 23/15/13 52/16/13
f 25/30/14 54/29/15 18/18/14
f 54/29/15 32/19/15 18/18/14
f 32/19/15 54/29/15 55/28/22
f 34/21/16 32/19/15 55/28/22
f 1/16/13 34/21/16 55/28/22
f 56/27/13 1/16/13 55/28/22
f 1/16/13 56/27/13 22/15/13
f 54/19/15 25/18/14 45/37/14
f 57/38/15 54/19/15 45/37/14
f 57/38/15 58/39/23 54/19/15
f 58/39/23 55/21/22 54/19/15
f 59/16/13 55/21/22 58/39/23
f 56/15/13 59/16/13 58/39/23
f 60/40/13 56/15/13 58/39/23
f 50/37/14 28/18/14 43/19/15
f 61/38/15 50/37/14 43/19/15
f 61/38/15 43/19/15 62/39/24
f 43/19/15 42/21/21 62/39/24
f 62/39/24 42/21/21 41/15/13
f 63/40/13 62/39/24 41/15/13
