# Blender 3.6.18
# www.blender.org
mtllib Mesh.031.mtl
o GroundPlane2
v -10.875000 -0.000003 -65.875000
v -65.875000 -0.000003 -65.875000
v -65.875000 -0.000003 -10.875000
v -10.875000 -0.000003 -10.875000
vn -0.0039 1.0000 -0.0039
vn -0.0039 -1.0000 -0.0039
vt 2.443359 3.443359
vt 0.000000 3.443359
vt 0.000000 1.000000
vt 2.443359 1.000000
vt 54.968750 56.000000
vt 0.000000 56.000000
vt 54.968750 1.000000
s 1
usemtl Floor
f 1/1/1 2/2/1 3/3/1
f 4/4/1 1/1/1 3/3/1
usemtl WorldGridMaterial
f 4/5/2 3/6/2 2/3/2
f 1/7/2 4/5/2 2/3/2
