# Blender 3.6.18
# www.blender.org
mtllib Mesh.022.mtl
o Signal_Sign_Wyman_496
v -66.274940 4.252601 -74.492157
v -66.266914 4.252602 -74.492157
v -66.274940 4.246458 -74.482956
v -66.266914 4.246458 -74.482956
v -66.274940 4.244301 -74.472115
v -66.266914 4.244302 -74.472115
v -66.274940 4.244301 -73.621925
v -66.266914 4.244302 -73.621925
v -66.274940 4.246458 -73.611084
v -66.266914 4.246458 -73.611084
v -66.274940 4.252601 -73.601891
v -66.266914 4.252602 -73.601891
v -66.274940 4.261795 -73.595749
v -66.266914 4.261796 -73.595749
v -66.274940 4.272640 -73.593590
v -66.266914 4.272641 -73.593590
v -66.274940 4.442678 -73.593590
v -66.266914 4.442679 -73.593590
v -66.274940 4.453523 -73.595749
v -66.266914 4.453524 -73.595749
v -66.274940 4.462717 -73.601891
v -66.266914 4.462718 -73.601891
v -66.274940 4.468861 -73.611084
v -66.266914 4.468861 -73.611084
v -66.274940 4.471017 -73.621925
v -66.266914 4.471018 -73.621925
v -66.274940 4.471017 -74.472115
v -66.266914 4.471018 -74.472115
v -66.274940 4.468861 -74.482956
v -66.266914 4.468861 -74.482956
v -66.274940 4.462717 -74.492157
v -66.266914 4.462718 -74.492157
v -66.266914 4.453524 -74.498299
v -66.274940 4.453523 -74.498299
v -66.266914 4.442679 -74.500450
v -66.274940 4.442678 -74.500450
v -66.266914 4.272641 -74.500450
v -66.274940 4.272640 -74.500450
v -66.266914 4.261796 -74.498299
v -66.274940 4.261795 -74.498299
vn 0.0039 -0.7071 -0.7071
vn 0.0039 -0.9227 -0.3854
vn 0.0039 -1.0000 -0.0039
vn 0.0039 -0.9255 0.3788
vn 0.0039 -0.7110 0.7032
vn 0.0039 -0.3882 0.9216
vn 0.0040 -0.0197 0.9998
vn 0.0040 -0.0198 0.9998
vn 0.0040 0.0119 0.9999
vn 0.0040 0.0118 0.9999
vn 0.0039 0.3815 0.9243
vn 0.0039 0.7071 0.7071
vn 0.0040 0.7071 0.7071
vn 0.0039 0.9243 0.3815
vn 0.0040 1.0000 -0.0039
vn 0.0040 1.0000 -0.0040
vn 0.0039 0.9215 -0.3882
vn 0.0039 0.9216 -0.3882
vn 0.0039 0.7032 -0.7110
vn 0.0039 0.3788 -0.9255
vn 0.0039 0.0118 -0.9999
vn 0.0039 -0.0196 -0.9998
vn 0.0039 -0.3855 -0.9227
vn 0.0039 -0.3854 -0.9227
vn 1.0000 -0.0039 -0.0039
vn -1.0000 -0.0039 -0.0039
vt 0.495361 0.946350
vt 0.504395 0.946350
vt 0.495361 0.944336
vt 0.504395 0.944336
vt 0.495361 0.941986
vt 0.504395 0.941986
vt 0.495361 0.756836
vt 0.504395 0.756836
vt 0.495361 0.754395
vt 0.504395 0.754395
vt 0.495361 0.752441
vt 0.504395 0.752441
vt 0.495361 0.750122
vt 0.504395 0.750122
vt 0.495361 0.747559
vt 0.504395 0.747559
vt 0.495361 0.705078
vt 0.504395 0.705078
vt 0.495361 0.702393
vt 0.504395 0.702393
vt 0.495361 0.700195
vt 0.504395 0.700195
vt 0.495361 0.697998
vt 0.504395 0.697998
vt 0.495361 0.695801
vt 0.504395 0.695801
vt 0.495361 0.510498
vt 0.504395 0.510498
vt 0.495361 0.508057
vt 0.504395 0.508057
vt 0.495361 0.506104
vt 0.504395 0.506104
vt 0.504395 0.503906
vt 0.495361 0.503906
vt 0.504395 0.501221
vt 0.495361 0.501221
vt 0.504395 0.458984
vt 0.495361 0.458984
vt 0.504395 0.456055
vt 0.495361 0.456055
vt 0.504395 0.454102
vt 0.495361 0.454102
vt 0.957031 0.957153
vt 0.964355 0.949280
vt 0.961426 0.954010
vt 0.952148 0.958282
vt 0.965332 0.943726
vt 0.965332 0.856323
vt 0.952148 0.841797
vt 0.964355 0.850830
vt 0.961426 0.846069
vt 0.957031 0.842896
vt 0.547363 0.958282
vt 0.547363 0.841797
vt 0.538086 0.846069
vt 0.542480 0.842896
vt 0.535156 0.850830
vt 0.534180 0.856323
vt 0.534180 0.943726
vt 0.535156 0.949280
vt 0.542480 0.957153
vt 0.538086 0.954010
vt 0.042572 0.393066
vt 0.035278 0.400879
vt 0.038208 0.396484
vt 0.034241 0.406738
vt 0.047729 0.392090
vt 0.047729 0.508301
vt 0.034241 0.494141
vt 0.035278 0.499512
vt 0.038208 0.504150
vt 0.042572 0.507324
vt 0.452148 0.392090
vt 0.452148 0.508301
vt 0.461670 0.504150
vt 0.457275 0.507324
vt 0.464600 0.499512
vt 0.465576 0.494141
vt 0.465576 0.406738
vt 0.464600 0.400879
vt 0.457275 0.393066
vt 0.461670 0.396484
s 1
usemtl Sign
f 1/1/1 2/2/1 3/3/2
f 3/3/2 2/2/1 4/4/2
f 3/3/2 4/4/2 5/5/3
f 5/5/3 4/4/2 6/6/3
f 7/7/3 5/5/3 6/6/3
f 7/7/3 6/6/3 8/8/3
f 9/9/4 7/7/3 8/8/3
f 9/9/4 8/8/3 10/10/4
f 11/11/5 9/9/4 10/10/4
f 11/11/5 10/10/4 12/12/5
f 13/13/6 11/11/5 12/12/5
f 13/13/6 12/12/5 14/14/6
f 15/15/7 13/13/6 14/14/6
f 15/15/7 14/14/6 16/16/8
f 17/17/9 15/15/7 16/16/8
f 17/17/9 16/16/8 18/18/10
f 17/17/9 18/18/10 19/19/11
f 19/19/11 18/18/10 20/20/11
f 19/19/11 20/20/11 21/21/12
f 21/21/12 20/20/11 22/22/13
f 21/21/12 22/22/13 23/23/14
f 23/23/14 22/22/13 24/24/14
f 23/23/14 24/24/14 25/25/15
f 25/25/15 24/24/14 26/26/16
f 27/27/15 25/25/15 26/26/16
f 27/27/15 26/26/16 28/28/16
f 29/29/17 27/27/15 28/28/16
f 29/29/17 28/28/16 30/30/18
f 31/31/19 29/29/17 30/30/18
f 31/31/19 30/30/18 32/32/19
f 33/33/20 31/31/19 32/32/19
f 31/31/19 33/33/20 34/34/20
f 35/35/21 34/34/20 33/33/20
f 34/34/20 35/35/21 36/36/21
f 37/37/22 36/36/21 35/35/21
f 36/36/21 37/37/22 38/38/22
f 39/39/23 38/38/22 37/37/22
f 38/38/22 39/39/23 40/40/24
f 2/41/1 40/40/24 39/39/23
f 40/40/24 2/41/1 1/42/1
f 30/43/25 33/44/25 32/45/25
f 28/46/25 33/44/25 30/43/25
f 33/44/25 28/46/25 35/47/25
f 28/46/25 37/48/25 35/47/25
f 37/48/25 28/46/25 6/49/25
f 37/48/25 6/49/25 39/50/25
f 39/50/25 6/49/25 2/51/25
f 2/51/25 6/49/25 4/52/25
f 6/49/25 28/46/25 26/53/25
f 26/53/25 8/54/25 6/49/25
f 8/54/25 12/55/25 10/56/25
f 12/55/25 8/54/25 14/57/25
f 14/57/25 8/54/25 16/58/25
f 16/58/25 8/54/25 26/53/25
f 26/53/25 18/59/25 16/58/25
f 18/59/25 26/53/25 20/60/25
f 24/61/25 20/60/25 26/53/25
f 20/60/25 24/61/25 22/62/25
f 3/63/26 40/64/26 1/65/26
f 40/64/26 3/63/26 38/66/26
f 5/67/26 38/66/26 3/63/26
f 38/66/26 5/67/26 27/68/26
f 27/68/26 36/69/26 38/66/26
f 36/69/26 27/68/26 34/70/26
f 34/70/26 27/68/26 31/71/26
f 31/71/26 27/68/26 29/72/26
f 27/68/26 5/67/26 7/73/26
f 7/73/26 25/74/26 27/68/26
f 25/74/26 21/75/26 23/76/26
f 21/75/26 25/74/26 19/77/26
f 19/77/26 25/74/26 17/78/26
f 25/74/26 15/79/26 17/78/26
f 15/79/26 25/74/26 7/73/26
f 15/79/26 7/73/26 13/80/26
f 9/81/26 13/80/26 7/73/26
f 13/80/26 9/81/26 11/82/26
