# Blender 3.6.18
# www.blender.org
mtllib Mesh.023.mtl
o Signal_Sign_Benty_486
v -2.263485 4.252603 -66.268074
v -2.263485 4.252603 -66.260056
v -2.272679 4.246459 -66.268074
v -2.272679 4.246459 -66.260056
v -2.283525 4.244303 -66.268074
v -2.283525 4.244303 -66.260056
v -3.133710 4.244303 -66.268074
v -3.133710 4.244303 -66.260056
v -3.144556 4.246459 -66.268074
v -3.144556 4.246459 -66.260056
v -3.153750 4.252603 -66.268074
v -3.153750 4.252603 -66.260056
v -3.159893 4.261797 -66.268074
v -3.159893 4.261797 -66.260056
v -3.162050 4.272642 -66.268074
v -3.162050 4.272642 -66.260056
v -3.162050 4.442680 -66.268074
v -3.162050 4.442680 -66.260056
v -3.159893 4.453525 -66.268074
v -3.159893 4.453525 -66.260056
v -3.153750 4.462719 -66.268074
v -3.153750 4.462719 -66.260056
v -3.144556 4.468862 -66.268074
v -3.144556 4.468862 -66.260056
v -3.133710 4.471019 -66.268074
v -3.133710 4.471019 -66.260056
v -2.283525 4.471019 -66.268074
v -2.283525 4.471019 -66.260056
v -2.272679 4.468862 -66.268074
v -2.272679 4.468862 -66.260056
v -2.263485 4.462719 -66.268074
v -2.263485 4.462719 -66.260056
v -2.257342 4.453525 -66.268074
v -2.257342 4.453525 -66.260056
v -2.255185 4.442680 -66.268074
v -2.255185 4.442680 -66.260056
v -2.255185 4.272642 -66.268074
v -2.255185 4.272642 -66.260056
v -2.257342 4.261797 -66.268074
v -2.257342 4.261797 -66.260056
vn 0.7071 -0.7071 0.0039
vn 0.3854 -0.9227 0.0039
vn 0.3855 -0.9227 0.0039
vn 0.0039 -1.0000 0.0039
vn -0.3788 -0.9255 0.0039
vn -0.7032 -0.7110 0.0039
vn -0.9216 -0.3882 0.0039
vn -0.9998 -0.0197 0.0039
vn -0.9998 -0.0198 0.0040
vn -0.9999 0.0118 0.0040
vn -0.9243 0.3815 0.0039
vn -0.7071 0.7071 0.0039
vn -0.7071 0.7071 0.0040
vn -0.3815 0.9243 0.0039
vn 0.0039 1.0000 0.0040
vn 0.0040 1.0000 0.0040
vn 0.3882 0.9216 0.0039
vn 0.7110 0.7032 0.0039
vn 0.9255 0.3788 0.0039
vn 0.9999 0.0118 0.0039
vn 0.9998 -0.0196 0.0039
vn 0.9227 -0.3854 0.0039
vn 0.0039 -0.0039 1.0000
vn 0.0039 -0.0039 -1.0000
vt 0.495361 0.946350
vt 0.504395 0.946350
vt 0.495361 0.944336
vt 0.504395 0.944336
vt 0.495361 0.941986
vt 0.504395 0.941986
vt 0.495361 0.756836
vt 0.504395 0.756836
vt 0.495361 0.754395
vt 0.504395 0.754395
vt 0.495361 0.752441
vt 0.504395 0.752441
vt 0.495361 0.750122
vt 0.504395 0.750122
vt 0.495361 0.747559
vt 0.504395 0.747559
vt 0.495361 0.705078
vt 0.504395 0.705078
vt 0.495361 0.702393
vt 0.504395 0.702393
vt 0.495361 0.700195
vt 0.504395 0.700195
vt 0.495361 0.697998
vt 0.504395 0.697998
vt 0.495361 0.695801
vt 0.504395 0.695801
vt 0.495361 0.510498
vt 0.504395 0.510498
vt 0.495361 0.508057
vt 0.504395 0.508057
vt 0.495361 0.506104
vt 0.504395 0.506104
vt 0.495361 0.503906
vt 0.504395 0.503906
vt 0.495361 0.501221
vt 0.504395 0.501221
vt 0.495361 0.458984
vt 0.504395 0.458984
vt 0.495361 0.456055
vt 0.504395 0.456055
vt 0.495361 0.454102
vt 0.504395 0.454102
vt 0.964355 0.850830
vt 0.957031 0.842896
vt 0.961426 0.846069
vt 0.952148 0.841797
vt 0.965332 0.856323
vt 0.952148 0.958282
vt 0.965332 0.943726
vt 0.964355 0.949280
vt 0.957031 0.957153
vt 0.961426 0.954010
vt 0.547363 0.958282
vt 0.547363 0.841797
vt 0.534180 0.856323
vt 0.535156 0.850830
vt 0.542480 0.842896
vt 0.538086 0.846069
vt 0.534180 0.943726
vt 0.535156 0.949280
vt 0.542480 0.957153
vt 0.538086 0.954010
vt 0.035278 0.799316
vt 0.042572 0.807251
vt 0.038208 0.804077
vt 0.047729 0.808350
vt 0.034241 0.793701
vt 0.034241 0.706543
vt 0.047729 0.691895
vt 0.035278 0.700928
vt 0.042572 0.692871
vt 0.038208 0.696045
vt 0.452148 0.691895
vt 0.452148 0.808350
vt 0.465576 0.706543
vt 0.465576 0.793701
vt 0.464600 0.700928
vt 0.464600 0.799316
vt 0.457275 0.692871
vt 0.461670 0.696045
vt 0.457275 0.807251
vt 0.461670 0.804077
s 1
usemtl Sign
f 1/1/1 2/2/1 3/3/2
f 3/3/2 2/2/1 4/4/3
f 3/3/2 4/4/3 5/5/4
f 5/5/4 4/4/3 6/6/4
f 7/7/4 5/5/4 6/6/4
f 7/7/4 6/6/4 8/8/4
f 9/9/5 7/7/4 8/8/4
f 9/9/5 8/8/4 10/10/5
f 11/11/6 9/9/5 10/10/5
f 11/11/6 10/10/5 12/12/6
f 13/13/7 11/11/6 12/12/6
f 13/13/7 12/12/6 14/14/7
f 15/15/8 13/13/7 14/14/7
f 15/15/8 14/14/7 16/16/9
f 17/17/10 15/15/8 16/16/9
f 17/17/10 16/16/9 18/18/10
f 17/17/10 18/18/10 19/19/11
f 19/19/11 18/18/10 20/20/11
f 19/19/11 20/20/11 21/21/12
f 21/21/12 20/20/11 22/22/13
f 21/21/12 22/22/13 23/23/14
f 23/23/14 22/22/13 24/24/14
f 23/23/14 24/24/14 25/25/15
f 25/25/15 24/24/14 26/26/16
f 27/27/16 25/25/15 26/26/16
f 27/27/16 26/26/16 28/28/16
f 29/29/17 27/27/16 28/28/16
f 29/29/17 28/28/16 30/30/17
f 31/31/18 29/29/17 30/30/17
f 31/31/18 30/30/17 32/32/18
f 33/33/19 31/31/18 32/32/18
f 33/33/19 32/32/18 34/34/19
f 35/35/20 33/33/19 34/34/19
f 35/35/20 34/34/19 36/36/20
f 37/37/21 35/35/20 36/36/20
f 37/37/21 36/36/20 38/38/21
f 37/37/21 38/38/21 39/39/22
f 39/39/22 38/38/21 40/40/22
f 39/39/22 40/40/22 1/41/1
f 1/41/1 40/40/22 2/42/1
f 40/43/23 4/44/23 2/45/23
f 4/44/23 40/43/23 6/46/23
f 38/47/23 6/46/23 40/43/23
f 38/47/23 28/48/23 6/46/23
f 28/48/23 38/47/23 36/49/23
f 34/50/23 28/48/23 36/49/23
f 28/48/23 34/50/23 30/51/23
f 30/51/23 34/50/23 32/52/23
f 6/46/23 28/48/23 26/53/23
f 26/53/23 8/54/23 6/46/23
f 16/55/23 8/54/23 26/53/23
f 14/56/23 8/54/23 16/55/23
f 8/54/23 14/56/23 10/57/23
f 10/57/23 14/56/23 12/58/23
f 26/53/23 18/59/23 16/55/23
f 18/59/23 26/53/23 20/60/23
f 24/61/23 20/60/23 26/53/23
f 20/60/23 24/61/23 22/62/23
f 33/63/24 29/64/24 31/65/24
f 29/64/24 33/63/24 27/66/24
f 35/67/24 27/66/24 33/63/24
f 27/66/24 35/67/24 37/68/24
f 37/68/24 5/69/24 27/66/24
f 39/70/24 5/69/24 37/68/24
f 5/69/24 39/70/24 3/71/24
f 3/71/24 39/70/24 1/72/24
f 27/66/24 5/69/24 7/73/24
f 7/73/24 25/74/24 27/66/24
f 15/75/24 25/74/24 7/73/24
f 25/74/24 15/75/24 17/76/24
f 15/75/24 7/73/24 13/77/24
f 19/78/24 25/74/24 17/76/24
f 9/79/24 13/77/24 7/73/24
f 13/77/24 9/79/24 11/80/24
f 25/74/24 19/78/24 23/81/24
f 23/81/24 19/78/24 21/82/24
