# Blender 3.6.18
# www.blender.org
mtllib Mesh.014.mtl
o Sign_NoParking3_94
v -69.417152 0.002287 -58.781975
v -69.417152 1.835216 -58.781975
v -69.417152 1.835216 -58.785576
v -69.417152 0.002287 -58.785576
v -69.337753 0.002287 -58.781975
v -69.337753 1.835207 -58.785576
v -69.337753 1.835207 -58.781975
v -69.337753 0.002287 -58.785576
v -69.495087 0.000037 -58.682140
v -69.495087 0.006387 -58.682140
v -69.502243 0.006387 -58.692848
v -69.502243 0.000037 -58.692848
v -69.504753 0.006387 -58.705479
v -69.504753 0.000037 -58.705479
v -69.504753 0.000037 -58.893478
v -69.504753 0.006387 -58.893478
v -69.502243 0.006387 -58.906105
v -69.502243 0.000037 -58.906105
v -69.495087 0.006387 -58.916813
v -69.495087 0.000037 -58.916813
v -69.484383 0.006387 -58.923965
v -69.484383 0.000037 -58.923965
v -69.471756 0.006387 -58.926476
v -69.471756 0.000037 -58.926476
v -69.283752 0.000037 -58.926476
v -69.283752 0.006387 -58.926476
v -69.271126 0.006387 -58.923965
v -69.271126 0.000037 -58.923965
v -69.260422 0.006387 -58.916809
v -69.260422 0.000037 -58.916809
v -69.253265 0.006387 -58.906105
v -69.253265 0.000037 -58.906105
v -69.250755 0.006387 -58.893475
v -69.250755 0.000037 -58.893475
v -69.250755 0.000037 -58.705475
v -69.250755 0.006387 -58.705475
v -69.253265 0.006387 -58.692848
v -69.253265 0.000037 -58.692848
v -69.260422 0.006387 -58.682140
v -69.260422 0.000037 -58.682140
v -69.271126 0.006387 -58.674988
v -69.271126 0.000037 -58.674988
v -69.283752 0.006387 -58.672474
v -69.283752 0.000037 -58.672474
v -69.471756 0.000037 -58.672478
v -69.471756 0.006387 -58.672478
v -69.484383 0.006387 -58.674988
v -69.484383 0.000037 -58.674988
v -69.407448 1.835215 -58.781975
v -69.407448 0.002287 -58.781975
v -69.404472 1.835215 -58.782482
v -69.404472 0.002287 -58.782482
v -69.401566 1.835214 -58.784084
v -69.401566 0.002287 -58.784084
v -69.399345 1.835214 -58.786560
v -69.399345 0.002287 -58.786560
v -69.398186 1.835214 -58.789345
v -69.398186 0.002287 -58.789345
v -69.393013 1.835213 -58.811798
v -69.393013 0.002287 -58.811798
v -69.392555 1.835213 -58.812897
v -69.392555 0.002287 -58.812897
v -69.391968 1.835213 -58.813553
v -69.391968 0.002287 -58.813553
v -69.391197 1.835213 -58.813976
v -69.391197 0.002287 -58.813976
v -69.390022 1.835213 -58.814175
v -69.390022 0.002287 -58.814175
v -69.364883 1.835210 -58.814175
v -69.364883 0.002287 -58.814175
v -69.363708 1.835210 -58.813976
v -69.363708 0.002287 -58.813976
v -69.362938 1.835210 -58.813553
v -69.362938 0.002287 -58.813553
v -69.362350 1.835210 -58.812897
v -69.362350 0.002287 -58.812897
v -69.361900 1.835210 -58.811798
v -69.361900 0.002287 -58.811798
v -69.356720 1.835209 -58.789345
v -69.356720 0.002287 -58.789345
v -69.355560 1.835209 -58.786560
v -69.355560 0.002287 -58.786560
v -69.353340 1.835209 -58.784084
v -69.353340 0.002287 -58.784084
v -69.350433 1.835208 -58.782482
v -69.350433 0.002287 -58.782482
v -69.347458 1.835208 -58.781975
v -69.347458 0.002287 -58.781975
v -69.407753 1.835215 -58.785576
v -69.407753 0.002287 -58.785576
v -69.405678 1.835215 -58.785927
v -69.405678 0.002287 -58.785927
v -69.403839 1.835215 -58.786942
v -69.403839 0.002287 -58.786942
v -69.402435 1.835215 -58.788509
v -69.402435 0.002287 -58.788509
v -69.401627 0.002287 -58.790447
v -69.401627 1.835215 -58.790447
v -69.396454 1.835214 -58.812904
v -69.396454 0.002287 -58.812904
v -69.395645 1.835214 -58.814846
v -69.395645 0.002287 -58.814846
v -69.394241 1.835214 -58.816410
v -69.394241 0.002287 -58.816410
v -69.392403 1.835213 -58.817425
v -69.392403 0.002287 -58.817425
v -69.390327 1.835213 -58.817776
v -69.390327 0.002287 -58.817776
v -69.364578 1.835210 -58.817776
v -69.364578 0.002287 -58.817776
v -69.362511 1.835210 -58.817425
v -69.362511 0.002287 -58.817425
v -69.360664 1.835209 -58.816410
v -69.360664 0.002287 -58.816410
v -69.359268 1.835209 -58.814846
v -69.359268 0.002287 -58.814846
v -69.358459 1.835209 -58.812904
v -69.358459 0.002287 -58.812904
v -69.353279 1.835209 -58.790447
v -69.353279 0.002287 -58.790447
v -69.352470 1.835208 -58.788509
v -69.352470 0.002287 -58.788509
v -69.351067 1.835208 -58.786942
v -69.351067 0.002287 -58.786942
v -69.349228 1.835208 -58.785927
v -69.349228 0.002287 -58.785927
v -69.347160 1.835208 -58.785576
v -69.347160 0.002287 -58.785576
v -69.227898 1.522486 -58.781975
v -69.230919 1.518551 -58.776974
v -69.230919 1.518551 -58.781975
v -69.227898 1.522486 -58.776974
v -69.225998 1.527069 -58.781975
v -69.225998 1.527069 -58.776974
v -69.225357 1.531986 -58.781975
v -69.225357 1.531986 -58.776974
v -69.225357 1.798786 -58.781975
v -69.225357 1.798786 -58.776974
v -69.225998 1.803704 -58.781975
v -69.225998 1.803704 -58.776974
v -69.227898 1.808286 -58.781975
v -69.227898 1.808286 -58.776974
v -69.230919 1.812221 -58.781975
v -69.230919 1.812221 -58.776974
v -69.234856 1.815241 -58.781975
v -69.234856 1.815241 -58.776974
v -69.239433 1.817139 -58.781975
v -69.239433 1.817139 -58.776974
v -69.244354 1.817786 -58.781975
v -69.244354 1.817786 -58.776974
v -69.511154 1.817786 -58.781979
v -69.511154 1.817786 -58.776978
v -69.516075 1.817139 -58.781979
v -69.516075 1.817139 -58.776978
v -69.520653 1.815241 -58.781979
v -69.520653 1.815241 -58.776978
v -69.524590 1.812221 -58.781979
v -69.524590 1.812221 -58.776978
v -69.527611 1.808286 -58.781979
v -69.527611 1.808286 -58.776978
v -69.529510 1.803704 -58.781979
v -69.529510 1.803704 -58.776978
v -69.530151 1.798786 -58.781979
v -69.530151 1.798786 -58.776978
v -69.530151 1.531986 -58.781979
v -69.530151 1.531986 -58.776978
v -69.529510 1.527069 -58.781979
v -69.529510 1.527069 -58.776978
v -69.527611 1.522486 -58.781979
v -69.527611 1.522486 -58.776978
v -69.524590 1.518551 -58.781979
v -69.524590 1.518551 -58.776978
v -69.520653 1.515532 -58.781979
v -69.520653 1.515532 -58.776978
v -69.516075 1.513634 -58.781979
v -69.516075 1.513634 -58.776978
v -69.511154 1.512986 -58.781979
v -69.511154 1.512986 -58.776978
v -69.244354 1.512986 -58.781975
v -69.244354 1.512986 -58.776974
v -69.239433 1.513634 -58.781975
v -69.239433 1.513634 -58.776974
v -69.234856 1.515532 -58.781975
v -69.234856 1.515532 -58.776974
vn -1.0000 -0.0039 -0.0039
vn 1.0000 -0.0039 -0.0039
vn -0.7110 -0.0039 0.7032
vn -0.9255 -0.0039 0.3788
vn -0.9999 -0.0039 0.0117
vn -0.9999 -0.0039 0.0118
vn -0.9998 -0.0039 -0.0196
vn -0.9227 -0.0039 -0.3854
vn -0.7071 -0.0039 -0.7071
vn -0.3854 -0.0039 -0.9227
vn -0.0196 -0.0039 -0.9998
vn 0.0118 -0.0039 -0.9999
vn 0.3788 -0.0039 -0.9255
vn 0.7032 -0.0039 -0.7110
vn 0.9216 -0.0039 -0.3882
vn 0.9998 -0.0040 -0.0197
vn 0.9998 -0.0040 -0.0198
vn 0.9999 -0.0040 0.0119
vn 0.9243 -0.0039 0.3815
vn 0.7071 -0.0039 0.7071
vn 0.3815 -0.0039 0.9243
vn 0.0118 -0.0040 0.9999
vn 0.0119 -0.0039 0.9999
vn -0.0198 -0.0040 0.9998
vn -0.3882 -0.0039 0.9216
vn -0.0039 1.0000 -0.0039
vn -0.0039 -0.0039 1.0000
vn 0.0356 -0.0039 0.9994
vn 0.0355 -0.0040 0.9994
vn 0.3351 -0.0039 0.9422
vn 0.6194 -0.0039 0.7851
vn 0.8410 -0.0040 0.5410
vn 0.8410 -0.0039 0.5410
vn 0.9708 -0.0039 0.2398
vn 0.9708 -0.0039 0.2397
vn 0.9726 -0.0039 0.2323
vn 0.8616 -0.0039 0.5075
vn 0.3044 -0.0040 0.9525
vn 0.3043 -0.0040 0.9526
vn 0.0040 -0.0040 1.0000
vn -0.0119 -0.0040 0.9999
vn -0.3115 -0.0039 0.9502
vn -0.6242 -0.0039 0.7812
vn -0.8636 -0.0039 0.5041
vn -0.9731 -0.0039 0.2305
vn -0.9713 -0.0039 0.2379
vn -0.8433 -0.0039 0.5374
vn -0.3421 -0.0039 0.9397
vn -0.0434 -0.0039 0.9990
vn -0.0352 -0.0039 -0.9994
vn -0.0039 -0.0039 -1.0000
vn -0.0353 -0.0039 -0.9994
vn -0.3326 -0.0039 -0.9431
vn -0.6204 -0.0039 -0.7843
vn -0.8456 -0.0039 -0.5338
vn -0.9713 -0.0039 -0.2380
vn 0.3256 -0.0039 -0.9455
vn 0.6156 -0.0039 -0.7881
vn 0.6155 -0.0039 -0.7881
vn 0.8433 -0.0039 -0.5374
vn 0.9708 -0.0039 -0.2397
vn 0.9708 -0.0039 -0.2398
vn 0.0274 -0.0039 -0.9996
vn 0.0275 -0.0039 -0.9996
vn 0.8616 -0.5075 -0.0039
vn 0.7032 -0.7110 -0.0039
vn 0.9646 -0.2638 -0.0039
vn 1.0000 -0.0040 -0.0039
vn 0.9666 0.2564 -0.0039
vn 0.8651 0.5016 -0.0039
vn 0.8651 0.5017 -0.0040
vn 0.7071 0.7071 -0.0039
vn 0.5016 0.8651 -0.0039
vn 0.2564 0.9666 -0.0040
vn -0.0039 1.0000 -0.0040
vn -0.0040 1.0000 -0.0040
vn -0.2638 0.9646 -0.0039
vn -0.5075 0.8616 -0.0039
vn -0.7110 0.7032 -0.0039
vn -0.8670 0.4982 -0.0039
vn -0.9671 0.2545 -0.0039
vn -0.9651 -0.2618 -0.0039
vn -0.8636 -0.5041 -0.0039
vn -0.7071 -0.7071 -0.0039
vn -0.5041 -0.8636 -0.0039
vn -0.2618 -0.9651 -0.0039
vn -0.0039 -1.0000 -0.0039
vn 0.2545 -0.9671 -0.0039
vn 0.4982 -0.8670 -0.0039
vn 0.4982 -0.8670 -0.0040
vt 0.810059 0.336914
vt 0.810059 0.790039
vt 0.809082 0.790039
vt 0.809082 0.336914
vt 0.799316 0.336914
vt 0.800293 0.790039
vt 0.799316 0.790039
vt 0.800293 0.336914
vt 0.767578 0.229980
vt 0.771484 0.229980
vt 0.771484 0.230957
vt 0.767578 0.230957
vt 0.771484 0.232422
vt 0.767578 0.232422
vt 0.767578 0.250488
vt 0.771484 0.250488
vt 0.771484 0.251953
vt 0.767578 0.251953
vt 0.771484 0.252930
vt 0.767578 0.252930
vt 0.771484 0.253906
vt 0.767578 0.253906
vt 0.771484 0.255371
vt 0.767578 0.255371
vt 0.767578 0.277344
vt 0.771484 0.277344
vt 0.771484 0.278809
vt 0.767578 0.278809
vt 0.771484 0.280273
vt 0.767578 0.280273
vt 0.771484 0.281250
vt 0.767578 0.281250
vt 0.771484 0.282715
vt 0.767578 0.282715
vt 0.767578 0.300781
vt 0.771484 0.300781
vt 0.771484 0.301758
vt 0.767578 0.301758
vt 0.771484 0.302734
vt 0.767578 0.302734
vt 0.771484 0.304199
vt 0.767578 0.304199
vt 0.771484 0.305664
vt 0.767578 0.305664
vt 0.767578 0.327637
vt 0.771484 0.327637
vt 0.771484 0.329102
vt 0.767578 0.329102
vt 0.771484 0.330566
vt 0.767578 0.330566
vt 0.789062 0.316895
vt 0.793457 0.321289
vt 0.790527 0.319336
vt 0.788574 0.313965
vt 0.796387 0.321777
vt 0.842773 0.321777
vt 0.851074 0.313965
vt 0.846191 0.321289
vt 0.850586 0.316895
vt 0.848633 0.319336
vt 0.851074 0.267090
vt 0.788574 0.267090
vt 0.842773 0.259277
vt 0.796387 0.259277
vt 0.846191 0.259766
vt 0.793457 0.259766
vt 0.850586 0.264160
vt 0.848633 0.261719
vt 0.789062 0.264160
vt 0.790527 0.261719
vt 0.754395 0.336914
vt 0.756836 0.790039
vt 0.754395 0.790039
vt 0.756836 0.336914
vt 0.757324 0.790039
vt 0.757324 0.336914
vt 0.758301 0.790039
vt 0.758301 0.336914
vt 0.759277 0.790039
vt 0.759277 0.336914
vt 0.759766 0.790039
vt 0.759766 0.336914
vt 0.765625 0.790039
vt 0.765625 0.336914
vt 0.766113 0.790039
vt 0.766113 0.336914
vt 0.766602 0.790039
vt 0.766602 0.336914
vt 0.772949 0.790039
vt 0.772949 0.336914
vt 0.773438 0.790039
vt 0.773438 0.336914
vt 0.773926 0.790039
vt 0.773926 0.336914
vt 0.779785 0.790039
vt 0.779785 0.336914
vt 0.780273 0.790039
vt 0.780273 0.336914
vt 0.781250 0.790039
vt 0.781250 0.336914
vt 0.781738 0.790039
vt 0.781738 0.336914
vt 0.782715 0.790039
vt 0.782715 0.336914
vt 0.785156 0.790039
vt 0.785156 0.336914
vt 0.742676 0.790039
vt 0.745117 0.336914
vt 0.745117 0.790039
vt 0.742676 0.336914
vt 0.742188 0.790039
vt 0.742188 0.336914
vt 0.741699 0.790039
vt 0.741699 0.336914
vt 0.741211 0.790039
vt 0.741211 0.336914
vt 0.740723 0.336914
vt 0.740723 0.790039
vt 0.734863 0.790039
vt 0.734863 0.336914
vt 0.734375 0.790039
vt 0.734375 0.336914
vt 0.733887 0.790039
vt 0.733887 0.336914
vt 0.733398 0.790039
vt 0.733398 0.336914
vt 0.732910 0.790039
vt 0.732910 0.336914
vt 0.726562 0.790039
vt 0.726562 0.336914
vt 0.726074 0.790039
vt 0.726074 0.336914
vt 0.725586 0.790039
vt 0.725586 0.336914
vt 0.725098 0.790039
vt 0.725098 0.336914
vt 0.724609 0.790039
vt 0.724609 0.336914
vt 0.718750 0.790039
vt 0.718750 0.336914
vt 0.718262 0.790039
vt 0.718262 0.336914
vt 0.717773 0.790039
vt 0.717773 0.336914
vt 0.717285 0.790039
vt 0.717285 0.336914
vt 0.716797 0.790039
vt 0.716797 0.336914
vt 0.714355 0.790039
vt 0.714355 0.336914
vt 0.809082 0.825439
vt 0.809082 0.823120
vt 0.810059 0.825439
vt 0.810059 0.823120
vt 0.809082 0.822388
vt 0.810059 0.822388
vt 0.809082 0.821777
vt 0.810059 0.821777
vt 0.809082 0.821045
vt 0.810059 0.821045
vt 0.810059 0.820435
vt 0.809082 0.820435
vt 0.810059 0.814697
vt 0.809082 0.814697
vt 0.810059 0.814331
vt 0.809082 0.814331
vt 0.810059 0.813965
vt 0.809082 0.813965
vt 0.810059 0.813599
vt 0.809082 0.813599
vt 0.809082 0.813232
vt 0.810059 0.813232
vt 0.809082 0.806885
vt 0.810059 0.806885
vt 0.810059 0.806519
vt 0.809082 0.806519
vt 0.809082 0.806152
vt 0.810059 0.806152
vt 0.810059 0.805786
vt 0.809082 0.805786
vt 0.809082 0.805420
vt 0.810059 0.805420
vt 0.809082 0.799683
vt 0.810059 0.799683
vt 0.809082 0.799072
vt 0.810059 0.799072
vt 0.810059 0.798340
vt 0.809082 0.798340
vt 0.810059 0.797729
vt 0.809082 0.797729
vt 0.810059 0.797119
vt 0.809082 0.797119
vt 0.810059 0.794678
vt 0.809082 0.794678
vt 0.956055 0.971420
vt 0.957520 0.972656
vt 0.956055 0.972656
vt 0.957520 0.971420
vt 0.956055 0.970200
vt 0.957520 0.970200
vt 0.956055 0.968979
vt 0.957520 0.968979
vt 0.956055 0.903015
vt 0.957520 0.903015
vt 0.956055 0.901794
vt 0.957520 0.901794
vt 0.956055 0.900574
vt 0.957520 0.900574
vt 0.956055 0.899353
vt 0.957520 0.899353
vt 0.956055 0.898132
vt 0.957520 0.898132
vt 0.956055 0.896912
vt 0.957520 0.896912
vt 0.956055 0.895691
vt 0.957520 0.895691
vt 0.956055 0.829712
vt 0.957520 0.829712
vt 0.956055 0.828491
vt 0.957520 0.828491
vt 0.956055 0.827271
vt 0.957520 0.827271
vt 0.956055 0.826050
vt 0.957520 0.826050
vt 0.956055 0.824829
vt 0.957520 0.824829
vt 0.956055 0.823608
vt 0.957520 0.823608
vt 0.956055 0.822388
vt 0.957520 0.822388
vt 0.956055 0.756470
vt 0.957520 0.756470
vt 0.956055 0.755249
vt 0.957520 0.755249
vt 0.956055 0.753906
vt 0.957520 0.753906
vt 0.956055 0.752686
vt 0.957520 0.752686
vt 0.956055 0.751465
vt 0.957520 0.751465
vt 0.956055 0.750244
vt 0.957520 0.750244
vt 0.956055 0.749023
vt 0.957520 0.749023
vt 0.956055 0.683105
vt 0.957520 0.683105
vt 0.956055 0.681885
vt 0.957520 0.681885
vt 0.956055 0.680664
vt 0.957520 0.680664
vt 0.956055 0.679443
vt 0.957520 0.679443
vt 0.198120 0.684082
vt 0.196289 0.685791
vt 0.197144 0.684814
vt 0.195923 0.687012
vt 0.195679 0.688232
vt 0.200439 0.683350
vt 0.199219 0.683594
vt 0.195679 0.754028
vt 0.200439 0.758789
vt 0.266357 0.683350
vt 0.198120 0.758057
vt 0.195923 0.755249
vt 0.196289 0.756348
vt 0.197144 0.757324
vt 0.199219 0.758545
vt 0.268555 0.684082
vt 0.267578 0.683594
vt 0.270264 0.685791
vt 0.269531 0.684814
vt 0.270996 0.688232
vt 0.270752 0.687012
vt 0.270996 0.754028
vt 0.266357 0.758789
vt 0.268555 0.758057
vt 0.267578 0.758545
vt 0.270264 0.756348
vt 0.269531 0.757324
vt 0.270752 0.755249
vt 0.351562 0.685791
vt 0.349854 0.684082
vt 0.350830 0.684814
vt 0.352051 0.687012
vt 0.352051 0.688232
vt 0.347412 0.683350
vt 0.348633 0.683594
vt 0.281494 0.683350
vt 0.279053 0.684082
vt 0.280273 0.683594
vt 0.276855 0.688232
vt 0.352051 0.754028
vt 0.277344 0.685791
vt 0.278076 0.684814
vt 0.276855 0.687012
vt 0.347412 0.758789
vt 0.281494 0.758789
vt 0.276855 0.754028
vt 0.349854 0.758057
vt 0.348633 0.758545
vt 0.352051 0.755249
vt 0.351562 0.756348
vt 0.350830 0.757324
vt 0.277344 0.756348
vt 0.276855 0.755249
vt 0.279053 0.758057
vt 0.280273 0.758545
vt 0.278076 0.757324
s 1
usemtl StreetSigns
f 1/1/1 2/2/1 3/3/1
f 1/1/1 3/3/1 4/4/1
f 5/5/2 6/6/2 7/7/2
f 6/6/2 5/5/2 8/8/2
f 9/9/3 10/10/3 11/11/4
f 9/9/3 11/11/4 12/12/4
f 11/11/4 13/13/5 12/12/4
f 12/12/4 13/13/5 14/14/6
f 15/15/7 14/14/6 13/13/5
f 13/13/5 16/16/7 15/15/7
f 16/16/7 17/17/8 15/15/7
f 15/15/7 17/17/8 18/18/8
f 17/17/8 19/19/9 18/18/8
f 18/18/8 19/19/9 20/20/9
f 20/20/9 19/19/9 21/21/10
f 22/22/10 20/20/9 21/21/10
f 21/21/10 23/23/11 22/22/10
f 24/24/11 22/22/10 23/23/11
f 25/25/12 24/24/11 23/23/11
f 25/25/12 23/23/11 26/26/12
f 27/27/13 25/25/12 26/26/12
f 25/25/12 27/27/13 28/28/13
f 29/29/14 28/28/13 27/27/13
f 28/28/13 29/29/14 30/30/14
f 31/31/15 30/30/14 29/29/14
f 32/32/15 30/30/14 31/31/15
f 33/33/16 32/32/15 31/31/15
f 34/34/17 32/32/15 33/33/16
f 33/33/16 35/35/18 34/34/17
f 35/35/18 33/33/16 36/36/18
f 37/37/19 35/35/18 36/36/18
f 38/38/19 35/35/18 37/37/19
f 39/39/20 38/38/19 37/37/19
f 38/38/19 39/39/20 40/40/20
f 39/39/20 41/41/21 40/40/20
f 41/41/21 42/42/21 40/40/20
f 41/41/21 43/43/22 42/42/21
f 44/44/23 42/42/21 43/43/22
f 43/43/22 45/45/24 44/44/23
f 43/43/22 46/46/24 45/45/24
f 46/46/24 47/47/25 45/45/24
f 48/48/25 45/45/24 47/47/25
f 47/47/25 10/49/3 48/48/25
f 10/49/3 9/50/3 48/48/25
f 37/51/26 41/52/26 39/53/26
f 36/54/26 41/52/26 37/51/26
f 41/52/26 36/54/26 43/55/26
f 36/54/26 46/56/26 43/55/26
f 36/54/26 13/57/26 46/56/26
f 46/56/26 13/57/26 47/58/26
f 11/59/26 47/58/26 13/57/26
f 47/58/26 11/59/26 10/60/26
f 13/57/26 36/54/26 16/61/26
f 33/62/26 16/61/26 36/54/26
f 33/62/26 23/63/26 16/61/26
f 23/63/26 33/62/26 26/64/26
f 16/61/26 23/63/26 21/65/26
f 26/64/26 33/62/26 27/66/26
f 16/61/26 21/65/26 17/67/26
f 17/67/26 21/65/26 19/68/26
f 31/69/26 27/66/26 33/62/26
f 27/66/26 31/69/26 29/70/26
f 1/71/27 49/72/28 2/73/27
f 49/72/28 1/71/27 50/74/29
f 50/74/29 51/75/30 49/72/28
f 51/75/30 50/74/29 52/76/30
f 52/76/30 53/77/31 51/75/30
f 53/77/31 52/76/30 54/78/31
f 54/78/31 55/79/32 53/77/31
f 55/79/32 54/78/31 56/80/33
f 56/80/33 57/81/34 55/79/32
f 57/81/34 56/80/33 58/82/35
f 58/82/35 59/83/36 57/81/34
f 59/83/36 58/82/35 60/84/36
f 60/84/36 61/85/37 59/83/36
f 61/85/37 60/84/36 62/86/37
f 62/86/37 63/85/31 61/85/37
f 63/85/31 62/86/37 64/86/31
f 63/85/31 64/86/31 65/85/38
f 65/85/38 64/86/31 66/86/39
f 66/86/39 67/87/40 65/85/38
f 67/87/40 66/86/39 68/88/40
f 68/88/40 69/89/41 67/87/40
f 69/89/41 68/88/40 70/90/41
f 70/90/41 71/89/42 69/89/41
f 71/89/42 70/90/41 72/90/42
f 72/90/42 73/91/43 71/89/42
f 73/91/43 72/90/42 74/92/43
f 74/92/43 75/91/44 73/91/43
f 75/91/44 74/92/43 76/92/44
f 75/91/44 76/92/44 77/93/45
f 78/94/45 77/93/45 76/92/44
f 78/94/45 79/95/46 77/93/45
f 79/95/46 78/94/45 80/96/46
f 80/96/46 81/97/47 79/95/46
f 81/97/47 80/96/46 82/98/47
f 82/98/47 83/99/43 81/97/47
f 83/99/43 82/98/47 84/100/43
f 84/100/43 85/101/48 83/99/43
f 85/101/48 84/100/43 86/102/48
f 86/102/48 87/103/49 85/101/48
f 87/103/49 86/102/48 88/104/49
f 88/104/49 7/105/27 87/103/49
f 7/105/27 88/104/49 5/106/27
f 89/107/50 4/108/51 3/109/51
f 4/108/51 89/107/52 90/110/52
f 91/111/53 90/110/52 89/107/52
f 90/110/52 91/111/53 92/112/53
f 93/113/54 92/112/53 91/111/53
f 92/112/53 93/113/54 94/114/54
f 95/115/55 94/114/54 93/113/54
f 94/114/54 95/115/55 96/116/55
f 96/116/55 95/115/55 97/117/56
f 98/118/56 97/117/56 95/115/55
f 99/119/56 97/117/56 98/118/56
f 97/117/56 99/119/56 100/120/56
f 101/121/55 100/120/56 99/119/56
f 100/120/56 101/121/55 102/122/55
f 103/123/54 102/122/55 101/121/55
f 102/122/55 103/123/54 104/124/54
f 105/125/53 104/124/54 103/123/54
f 104/124/54 105/125/53 106/126/53
f 106/126/53 105/125/53 107/127/11
f 107/127/11 108/128/11 106/126/53
f 109/129/12 108/128/11 107/127/11
f 108/128/11 109/129/12 110/130/12
f 111/131/57 110/130/12 109/129/12
f 110/130/12 111/131/57 112/132/57
f 113/133/58 112/132/57 111/131/57
f 112/132/57 113/133/58 114/134/59
f 115/135/60 114/134/59 113/133/58
f 114/134/59 115/135/60 116/136/60
f 117/137/61 116/136/60 115/135/60
f 116/136/60 117/137/61 118/138/62
f 119/139/62 118/138/62 117/137/61
f 118/138/62 119/139/62 120/140/62
f 121/141/60 120/140/62 119/139/62
f 120/140/62 121/141/60 122/142/60
f 123/143/58 122/142/60 121/141/60
f 122/142/60 123/143/58 124/144/58
f 125/145/57 124/144/58 123/143/58
f 124/144/58 125/145/57 126/146/57
f 127/147/63 126/146/57 125/145/57
f 126/146/57 127/147/63 128/148/64
f 6/149/51 128/148/64 127/147/63
f 128/148/64 6/149/51 8/150/51
f 6/151/26 127/152/26 7/153/26
f 87/154/26 7/153/26 127/152/26
f 87/154/26 127/152/26 125/155/26
f 125/155/26 85/156/26 87/154/26
f 123/157/26 85/156/26 125/155/26
f 123/157/26 83/158/26 85/156/26
f 121/159/26 83/158/26 123/157/26
f 83/158/26 121/159/26 81/160/26
f 121/159/26 79/161/26 81/160/26
f 79/161/26 121/159/26 119/162/26
f 119/162/26 77/163/26 79/161/26
f 77/163/26 119/162/26 117/164/26
f 117/164/26 75/165/26 77/163/26
f 75/165/26 117/164/26 115/166/26
f 115/166/26 73/167/26 75/165/26
f 73/167/26 115/166/26 113/168/26
f 113/168/26 71/169/26 73/167/26
f 71/169/26 113/168/26 111/170/26
f 71/169/26 111/170/26 109/171/26
f 109/171/26 69/172/26 71/169/26
f 109/171/26 107/173/26 69/172/26
f 67/174/26 69/172/26 107/173/26
f 107/173/26 65/175/26 67/174/26
f 65/175/26 107/173/26 105/176/26
f 65/175/26 105/176/26 103/177/26
f 65/175/26 103/177/26 63/178/26
f 103/177/26 61/179/26 63/178/26
f 61/179/26 103/177/26 101/180/26
f 99/181/26 61/179/26 101/180/26
f 61/179/26 99/181/26 59/182/26
f 98/183/26 59/182/26 99/181/26
f 57/184/26 59/182/26 98/183/26
f 95/185/26 57/184/26 98/183/26
f 57/184/26 95/185/26 55/186/26
f 95/185/26 53/187/26 55/186/26
f 53/187/26 95/185/26 93/188/26
f 93/188/26 51/189/26 53/187/26
f 51/189/26 93/188/26 91/190/26
f 91/190/26 49/191/26 51/189/26
f 49/191/26 91/190/26 89/192/26
f 89/192/26 2/193/26 49/191/26
f 2/193/26 89/192/26 3/194/26
f 129/195/65 130/196/66 131/197/66
f 130/196/66 129/195/65 132/198/65
f 133/199/67 132/198/65 129/195/65
f 132/198/65 133/199/67 134/200/67
f 135/201/68 134/200/67 133/199/67
f 134/200/67 135/201/68 136/202/68
f 135/201/68 137/203/68 136/202/68
f 138/204/2 136/202/68 137/203/68
f 139/205/69 138/204/2 137/203/68
f 138/204/2 139/205/69 140/206/69
f 141/207/70 140/206/69 139/205/69
f 140/206/69 141/207/70 142/208/71
f 143/209/72 142/208/71 141/207/70
f 142/208/71 143/209/72 144/210/72
f 145/211/73 144/210/72 143/209/72
f 144/210/72 145/211/73 146/212/73
f 147/213/74 146/212/73 145/211/73
f 146/212/73 147/213/74 148/214/74
f 149/215/75 148/214/74 147/213/74
f 148/214/74 149/215/75 150/216/76
f 149/215/75 151/217/76 150/216/76
f 152/218/76 150/216/76 151/217/76
f 152/218/76 151/217/76 153/219/77
f 154/220/77 152/218/76 153/219/77
f 154/220/77 153/219/77 155/221/78
f 156/222/78 154/220/77 155/221/78
f 156/222/78 155/221/78 157/223/79
f 158/224/79 156/222/78 157/223/79
f 158/224/79 157/223/79 159/225/80
f 160/226/80 158/224/79 159/225/80
f 160/226/80 159/225/80 161/227/81
f 162/228/81 160/226/80 161/227/81
f 162/228/81 161/227/81 163/229/1
f 164/230/1 162/228/81 163/229/1
f 163/229/1 165/231/1 164/230/1
f 166/232/1 164/230/1 165/231/1
f 166/232/1 165/231/1 167/233/82
f 168/234/82 166/232/1 167/233/82
f 168/234/82 167/233/82 169/235/83
f 170/236/83 168/234/82 169/235/83
f 170/236/83 169/235/83 171/237/84
f 172/238/84 170/236/83 171/237/84
f 172/238/84 171/237/84 173/239/85
f 174/240/85 172/238/84 173/239/85
f 174/240/85 173/239/85 175/241/86
f 176/242/86 174/240/85 175/241/86
f 176/242/86 175/241/86 177/243/87
f 178/244/87 176/242/86 177/243/87
f 177/243/87 179/245/87 178/244/87
f 180/246/87 178/244/87 179/245/87
f 181/247/88 180/246/87 179/245/87
f 180/246/87 181/247/88 182/248/88
f 183/249/89 182/248/88 181/247/88
f 182/248/88 183/249/89 184/250/90
f 131/251/66 184/250/90 183/249/89
f 184/250/90 131/251/66 130/252/66
f 174/253/27 170/254/27 172/255/27
f 174/253/27 168/256/27 170/254/27
f 174/253/27 166/257/27 168/256/27
f 166/257/27 174/253/27 178/258/27
f 178/258/27 174/253/27 176/259/27
f 166/257/27 178/258/27 164/260/27
f 164/260/27 178/258/27 152/261/27
f 180/262/27 152/261/27 178/258/27
f 156/263/27 164/260/27 152/261/27
f 164/260/27 156/263/27 162/264/27
f 156/263/27 160/265/27 162/264/27
f 160/265/27 156/263/27 158/266/27
f 156/263/27 152/261/27 154/267/27
f 184/268/27 180/262/27 182/269/27
f 132/270/27 184/268/27 130/271/27
f 180/262/27 184/268/27 132/270/27
f 132/270/27 136/272/27 180/262/27
f 136/272/27 132/270/27 134/273/27
f 136/272/27 152/261/27 180/262/27
f 138/274/27 152/261/27 136/272/27
f 138/274/27 150/275/27 152/261/27
f 150/275/27 146/276/27 148/277/27
f 146/276/27 150/275/27 138/274/27
f 142/278/27 146/276/27 138/274/27
f 146/276/27 142/278/27 144/279/27
f 142/278/27 138/274/27 140/280/27
f 169/281/51 173/282/51 171/283/51
f 167/284/51 173/282/51 169/281/51
f 173/282/51 167/284/51 165/285/51
f 173/282/51 177/286/51 175/287/51
f 177/286/51 173/282/51 165/285/51
f 177/286/51 165/285/51 179/288/51
f 179/288/51 183/289/51 181/290/51
f 179/288/51 165/285/51 135/291/51
f 183/289/51 179/288/51 135/291/51
f 163/292/51 135/291/51 165/285/51
f 183/289/51 129/293/51 131/294/51
f 183/289/51 135/291/51 129/293/51
f 129/293/51 135/291/51 133/295/51
f 151/296/51 135/291/51 163/292/51
f 149/297/51 135/291/51 151/296/51
f 149/297/51 137/298/51 135/291/51
f 155/299/51 151/296/51 163/292/51
f 151/296/51 155/299/51 153/300/51
f 155/299/51 163/292/51 161/301/51
f 155/299/51 161/301/51 159/302/51
f 155/299/51 159/302/51 157/303/51
f 137/298/51 141/304/51 139/305/51
f 141/304/51 137/298/51 149/297/51
f 145/306/51 141/304/51 149/297/51
f 145/306/51 149/297/51 147/307/51
f 141/304/51 145/306/51 143/308/51
