# Blender 3.6.18
# www.blender.org
mtllib Mesh.032.mtl
o A_Frame_Leasing_47
v -51.378231 0.728261 -10.700652
v -51.380680 0.733391 -10.714533
v -51.424259 -0.000001 -10.961690
v -51.426708 0.005129 -10.975572
v -50.787346 0.728261 -10.804841
v -50.833374 -0.000001 -11.065880
v -50.789795 0.733391 -10.818723
v -50.835823 0.005129 -11.079762
v -50.922977 0.005129 -11.064393
v -50.920532 -0.000001 -11.050512
v -51.323811 -0.000001 -10.979403
v -51.326256 0.005129 -10.993283
v -51.369324 0.728261 -10.650128
v -51.323296 -0.000001 -10.389090
v -51.366875 0.733391 -10.636247
v -51.320847 0.005130 -10.375208
v -50.778439 0.728261 -10.754317
v -50.775990 0.733391 -10.740437
v -50.732410 -0.000001 -10.493279
v -50.729961 0.005129 -10.479398
v -50.817116 0.005129 -10.464030
v -50.819565 -0.000001 -10.477911
v -51.222843 -0.000001 -10.406801
v -51.220398 0.005130 -10.392920
v -51.323971 0.018879 -10.988605
v -51.321522 0.013749 -10.974725
v -51.318932 0.032100 -10.984608
v -51.316483 0.026970 -10.970727
v -51.308887 0.039154 -10.967563
v -51.311337 0.044284 -10.981444
v -51.299026 0.049834 -10.965354
v -51.301476 0.054964 -10.979236
v -51.287281 0.058599 -10.964187
v -51.289726 0.063729 -10.978067
v -51.274097 0.065111 -10.964104
v -51.276546 0.070242 -10.977984
v -51.259991 0.069122 -10.965109
v -51.262436 0.074252 -10.978991
v -51.245495 0.070476 -10.967164
v -51.247944 0.075606 -10.981046
v -50.989937 0.070476 -11.012226
v -50.992386 0.075606 -11.026108
v -50.975613 0.069122 -11.015253
v -50.978062 0.074252 -11.029134
v -50.962009 0.065111 -11.019134
v -50.964458 0.070242 -11.033014
v -50.949654 0.058599 -11.023720
v -50.952099 0.063729 -11.037601
v -50.939014 0.049834 -11.028834
v -50.941463 0.054964 -11.042716
v -50.930504 0.039154 -11.034283
v -50.932953 0.044284 -11.048163
v -50.926895 0.032100 -11.053735
v -50.924450 0.026970 -11.039853
v -50.921082 0.013749 -11.045333
v -50.923531 0.018879 -11.059215
v -51.377010 0.751632 -10.708439
v -51.374561 0.746502 -10.694557
v -51.368557 0.768630 -10.703647
v -51.366108 0.763499 -10.689766
v -51.355896 0.783226 -10.700484
v -51.353447 0.778096 -10.686604
v -51.339890 0.794426 -10.699167
v -51.337444 0.789296 -10.685287
v -51.321632 0.801467 -10.699785
v -51.319183 0.796336 -10.685904
v -51.299915 0.798738 -10.688414
v -51.302364 0.803868 -10.702294
v -50.859200 0.803868 -10.780437
v -50.856754 0.798738 -10.766556
v -50.837788 0.796336 -10.770787
v -50.840237 0.801467 -10.784669
v -50.820419 0.789296 -10.776452
v -50.822868 0.794426 -10.790334
v -50.805832 0.778096 -10.783164
v -50.808277 0.783226 -10.797046
v -50.795013 0.763499 -10.790465
v -50.797462 0.768630 -10.804347
v -50.788712 0.746502 -10.797859
v -50.791157 0.751632 -10.811741
v -50.819405 0.018879 -10.468708
v -50.821854 0.013749 -10.482590
v -50.824444 0.032100 -10.472706
v -50.826893 0.026970 -10.486588
v -50.834488 0.039154 -10.489751
v -50.832039 0.044284 -10.475870
v -50.841900 0.054964 -10.478078
v -50.844349 0.049834 -10.491960
v -50.853645 0.063729 -10.479246
v -50.856094 0.058599 -10.493128
v -50.866829 0.070242 -10.479329
v -50.869274 0.065111 -10.493210
v -50.880936 0.074252 -10.478323
v -50.883385 0.069122 -10.492205
v -50.895432 0.075606 -10.476268
v -50.897881 0.070476 -10.490149
v -51.150990 0.075606 -10.431206
v -51.153439 0.070476 -10.445087
v -51.165314 0.074252 -10.428180
v -51.167763 0.069122 -10.442061
v -51.178917 0.070242 -10.424299
v -51.181362 0.065111 -10.438180
v -51.191273 0.063729 -10.419713
v -51.193722 0.058599 -10.433594
v -51.201912 0.054964 -10.414598
v -51.204361 0.049834 -10.428479
v -51.210423 0.044284 -10.409150
v -51.212872 0.039154 -10.423031
v -51.216480 0.032100 -10.403579
v -51.218925 0.026970 -10.417460
v -51.222294 0.013749 -10.411981
v -51.219845 0.018879 -10.398099
v -50.779659 0.751632 -10.746531
v -50.782108 0.746502 -10.760412
v -50.788113 0.768630 -10.751323
v -50.790562 0.763499 -10.765203
v -50.800774 0.783226 -10.754485
v -50.803223 0.778096 -10.768366
v -50.816780 0.794426 -10.755802
v -50.819225 0.789296 -10.769683
v -50.835037 0.801467 -10.755184
v -50.837486 0.796336 -10.769066
v -50.854305 0.803868 -10.752675
v -51.297470 0.803868 -10.674532
v -51.316433 0.801467 -10.670300
v -51.318882 0.796336 -10.684182
v -51.333801 0.794426 -10.664636
v -51.336250 0.789296 -10.678517
v -51.348392 0.783226 -10.657924
v -51.350838 0.778096 -10.671805
v -51.361656 0.763499 -10.664504
v -51.359207 0.768630 -10.650622
v -51.367958 0.746502 -10.657110
v -51.365513 0.751632 -10.643229
vn -0.9855 -0.0039 0.1698
vn 0.9841 -0.0039 -0.1775
vn -0.0640 -0.9381 -0.3405
vn 0.0551 -0.9406 0.3351
vn 0.9733 -0.0983 -0.2075
vn 0.9520 -0.1850 -0.2438
vn 0.8832 -0.3645 -0.2950
vn 0.7808 -0.5289 -0.3326
vn 0.6473 -0.6694 -0.3646
vn 0.4926 -0.7847 -0.3763
vn 0.3178 -0.8700 -0.3769
vn 0.1289 -0.9216 -0.3662
vn -0.0563 -0.9381 -0.3418
vn -0.0717 -0.9380 -0.3391
vn -0.2536 -0.9202 -0.2983
vn -0.2537 -0.9202 -0.2983
vn -0.4339 -0.8674 -0.2434
vn -0.4340 -0.8674 -0.2434
vn -0.5967 -0.7813 -0.1831
vn -0.5967 -0.7813 -0.1829
vn -0.7366 -0.6658 -0.1192
vn -0.8497 -0.5255 -0.0439
vn -0.9319 -0.3619 0.0260
vn -0.9782 -0.1835 0.0972
vn -0.9856 -0.0975 0.1381
vn -0.9385 0.2390 0.2490
vn -0.8253 0.4673 0.3170
vn -0.6574 0.6627 0.3588
vn -0.4468 0.8112 0.3772
vn -0.2026 0.9079 0.3670
vn -0.2027 0.9079 0.3670
vn 0.0478 0.9396 0.3388
vn 0.0478 0.9396 0.3389
vn 0.0633 0.9397 0.3361
vn 0.0633 0.9397 0.3362
vn 0.3089 0.9097 0.2775
vn 0.5433 0.8144 0.2039
vn 0.5433 0.8144 0.2038
vn 0.7368 0.6663 0.1143
vn 0.7368 0.6664 0.1143
vn 0.8822 0.4705 0.0170
vn 0.8822 0.4705 0.0171
vn 0.9667 0.2408 -0.0863
vn -0.9750 -0.0976 0.1996
vn -0.9750 -0.0975 0.1997
vn -0.9543 -0.1837 0.2357
vn -0.8868 -0.3623 0.2869
vn -0.8868 -0.3622 0.2869
vn -0.7859 -0.5263 0.3246
vn -0.6540 -0.6670 0.3569
vn -0.5006 -0.7830 0.3691
vn -0.3267 -0.8695 0.3704
vn -0.1380 -0.9226 0.3603
vn 0.0475 -0.9405 0.3364
vn 0.0474 -0.9405 0.3364
vn 0.0628 -0.9406 0.3337
vn 0.2457 -0.9240 0.2932
vn 0.4272 -0.8721 0.2384
vn 0.5915 -0.7864 0.1778
vn 0.7330 -0.6707 0.1137
vn 0.8474 -0.5297 0.0379
vn 0.9305 -0.3648 -0.0326
vn 0.9305 -0.3649 -0.0326
vn 0.9772 -0.1851 -0.1043
vn 0.9844 -0.0983 -0.1456
vn 0.9359 0.2406 -0.2571
vn 0.8207 0.4698 -0.3251
vn 0.6507 0.6651 -0.3665
vn 0.4384 0.8125 -0.3842
vn 0.1935 0.9074 -0.3731
vn -0.0567 0.9371 -0.3444
vn -0.0722 0.9371 -0.3416
vn -0.3165 0.9055 -0.2825
vn -0.5490 0.8093 -0.2089
vn -0.7404 0.6614 -0.1198
vn -0.8841 0.4667 -0.0233
vn -0.9678 0.2388 0.0792
vn -0.1672 0.3395 -0.9256
vn -0.1672 0.3396 -0.9256
vn -0.1671 0.3396 -0.9256
vn 0.1589 -0.3490 0.9236
vn 0.1589 -0.3489 0.9236
vn 0.1593 0.3421 0.9261
vn 0.1593 0.3420 0.9261
vn 0.1594 0.3421 0.9261
vn -0.1667 -0.3464 -0.9231
vn -0.1667 -0.3464 -0.9232
vt 0.777344 0.968719
vt 0.769531 0.968719
vt 0.777344 0.557373
vt 0.769531 0.557373
vt 0.745117 0.559326
vt 0.745117 0.970718
vt 0.737305 0.559326
vt 0.737305 0.970718
vt 0.786621 0.953369
vt 0.786621 0.906433
vt 0.794434 0.953369
vt 0.794434 0.906433
vt 0.794434 0.576660
vt 0.794434 0.630859
vt 0.786621 0.576660
vt 0.786621 0.630859
vt 0.843262 0.970718
vt 0.843262 0.559326
vt 0.851562 0.970718
vt 0.851562 0.559326
vt 0.811035 0.561523
vt 0.818848 0.561523
vt 0.811035 0.972717
vt 0.818848 0.972717
vt 0.868164 0.955383
vt 0.860352 0.955383
vt 0.868164 0.908386
vt 0.860352 0.908386
vt 0.860352 0.578857
vt 0.868164 0.578857
vt 0.860352 0.632812
vt 0.868164 0.632812
vt 0.794434 0.900085
vt 0.786621 0.900085
vt 0.786621 0.892273
vt 0.794434 0.892273
vt 0.786621 0.884460
vt 0.794434 0.884460
vt 0.794434 0.876648
vt 0.786621 0.876648
vt 0.794434 0.868896
vt 0.786621 0.868896
vt 0.794434 0.861084
vt 0.786621 0.861084
vt 0.794434 0.853271
vt 0.786621 0.853271
vt 0.794434 0.845459
vt 0.786621 0.845459
vt 0.794434 0.837646
vt 0.786621 0.837646
vt 0.794434 0.699951
vt 0.786621 0.699951
vt 0.794434 0.692139
vt 0.786621 0.692139
vt 0.794434 0.684326
vt 0.786621 0.684326
vt 0.794434 0.676514
vt 0.786621 0.676514
vt 0.794434 0.668701
vt 0.786621 0.668701
vt 0.794434 0.660889
vt 0.786621 0.660889
vt 0.786621 0.653076
vt 0.794434 0.653076
vt 0.794434 0.645264
vt 0.786621 0.645264
vt 0.794434 0.637451
vt 0.786621 0.637451
vt 0.752441 0.583252
vt 0.760742 0.583252
vt 0.752441 0.593750
vt 0.760742 0.593750
vt 0.752441 0.604004
vt 0.760742 0.604004
vt 0.752441 0.614502
vt 0.760742 0.614502
vt 0.752441 0.625000
vt 0.760742 0.625000
vt 0.752441 0.635254
vt 0.760742 0.635254
vt 0.760742 0.645752
vt 0.752441 0.645752
vt 0.752441 0.884460
vt 0.760742 0.884460
vt 0.760742 0.894897
vt 0.752441 0.894897
vt 0.760742 0.905273
vt 0.752441 0.905273
vt 0.760742 0.915649
vt 0.752441 0.915649
vt 0.760742 0.926025
vt 0.752441 0.926025
vt 0.760742 0.936462
vt 0.752441 0.936462
vt 0.760742 0.946838
vt 0.752441 0.946838
vt 0.860352 0.639404
vt 0.868164 0.639404
vt 0.868164 0.647217
vt 0.860352 0.647217
vt 0.868164 0.655029
vt 0.860352 0.655029
vt 0.860352 0.662842
vt 0.868164 0.662842
vt 0.868164 0.670654
vt 0.860352 0.670654
vt 0.868164 0.678467
vt 0.860352 0.678467
vt 0.868164 0.686279
vt 0.860352 0.686279
vt 0.868164 0.694092
vt 0.860352 0.694092
vt 0.868164 0.701904
vt 0.860352 0.701904
vt 0.868164 0.839722
vt 0.860352 0.839722
vt 0.868164 0.847412
vt 0.860352 0.847412
vt 0.868164 0.855225
vt 0.860352 0.855225
vt 0.868164 0.863037
vt 0.860352 0.863037
vt 0.868164 0.870850
vt 0.860352 0.870850
vt 0.868164 0.878662
vt 0.860352 0.878662
vt 0.868164 0.886475
vt 0.860352 0.886475
vt 0.860352 0.894287
vt 0.868164 0.894287
vt 0.860352 0.902100
vt 0.868164 0.902100
vt 0.834473 0.948822
vt 0.826660 0.948822
vt 0.834473 0.938446
vt 0.826660 0.938446
vt 0.834473 0.928040
vt 0.826660 0.928040
vt 0.834473 0.917664
vt 0.826660 0.917664
vt 0.834473 0.907288
vt 0.826660 0.907288
vt 0.834473 0.896851
vt 0.826660 0.896851
vt 0.834473 0.886475
vt 0.826660 0.886475
vt 0.826660 0.647705
vt 0.834473 0.647705
vt 0.834473 0.637207
vt 0.826660 0.637207
vt 0.834473 0.626953
vt 0.826660 0.626953
vt 0.834473 0.616455
vt 0.826660 0.616455
vt 0.826660 0.606201
vt 0.834473 0.606201
vt 0.826660 0.595703
vt 0.834473 0.595703
vt 0.826660 0.585205
vt 0.834473 0.585205
vt 0.416992 0.507080
vt 0.417969 0.515381
vt 0.366943 0.507080
vt 0.420410 0.523438
vt 0.663574 0.988083
vt 0.366943 0.945557
vt 0.424316 0.530762
vt 0.368408 0.956543
vt 0.429443 0.537109
vt 0.372559 0.966766
vt 0.436035 0.542480
vt 0.379395 0.975540
vt 0.443359 0.546387
vt 0.388184 0.982285
vt 0.451172 0.548828
vt 0.398438 0.986526
vt 0.409424 0.987976
vt 0.459473 0.549561
vt 0.606445 0.549561
vt 0.614746 0.548828
vt 0.622559 0.546387
vt 0.629883 0.542480
vt 0.636230 0.537354
vt 0.641602 0.530762
vt 0.645508 0.523438
vt 0.647949 0.515625
vt 0.648438 0.507324
vt 0.674805 0.986641
vt 0.685059 0.982407
vt 0.693848 0.975677
vt 0.700684 0.966888
vt 0.704590 0.956665
vt 0.706055 0.945679
vt 0.706543 0.507324
vt 0.306641 0.507324
vt 0.356689 0.507324
vt 0.305908 0.515381
vt 0.303467 0.523438
vt 0.299561 0.530762
vt 0.023041 0.966797
vt 0.294189 0.537109
vt 0.356689 0.945587
vt 0.287842 0.542480
vt 0.355225 0.956573
vt 0.280518 0.546387
vt 0.351074 0.966797
vt 0.272461 0.548828
vt 0.344238 0.975586
vt 0.264160 0.549561
vt 0.335449 0.982330
vt 0.117493 0.549561
vt 0.325195 0.986565
vt 0.109192 0.548828
vt 0.314209 0.988014
vt 0.101257 0.546387
vt 0.059784 0.988007
vt 0.093872 0.542480
vt 0.048798 0.986565
vt 0.087463 0.537109
vt 0.038574 0.982330
vt 0.029785 0.975586
vt 0.082214 0.530762
vt 0.078247 0.523438
vt 0.075867 0.515381
vt 0.075012 0.507324
vt 0.017349 0.507324
vt 0.017349 0.945587
vt 0.018799 0.956573
vt 0.656250 0.012207
vt 0.706543 0.012207
vt 0.655273 0.020508
vt 0.653320 0.028320
vt 0.649414 0.035645
vt 0.367188 0.450684
vt 0.644043 0.041992
vt 0.706543 0.450684
vt 0.637695 0.047363
vt 0.705078 0.461426
vt 0.630371 0.051270
vt 0.700684 0.471680
vt 0.622070 0.053711
vt 0.693848 0.480469
vt 0.613770 0.054688
vt 0.685059 0.487305
vt 0.467285 0.054688
vt 0.674805 0.491699
vt 0.458984 0.053711
vt 0.664062 0.493164
vt 0.450928 0.051270
vt 0.409668 0.493164
vt 0.443604 0.047363
vt 0.398682 0.491699
vt 0.437256 0.042480
vt 0.388428 0.487305
vt 0.431885 0.035645
vt 0.379639 0.480957
vt 0.427979 0.028320
vt 0.372803 0.472168
vt 0.368652 0.461914
vt 0.425537 0.020508
vt 0.424805 0.012207
vt 0.366943 0.012207
vt 0.067383 0.012207
vt 0.068237 0.020508
vt 0.017349 0.012207
vt 0.070618 0.028320
vt 0.074524 0.035645
vt 0.356689 0.450684
vt 0.017365 0.450684
vt 0.079834 0.042480
vt 0.018799 0.461914
vt 0.086243 0.047363
vt 0.023041 0.472168
vt 0.093567 0.051270
vt 0.029785 0.480957
vt 0.101562 0.053711
vt 0.038574 0.487305
vt 0.109863 0.054688
vt 0.048798 0.491699
vt 0.256592 0.054688
vt 0.059784 0.493164
vt 0.264893 0.053711
vt 0.314209 0.493164
vt 0.272705 0.051270
vt 0.325195 0.491699
vt 0.280029 0.047363
vt 0.335449 0.487305
vt 0.286621 0.042480
vt 0.344238 0.480957
vt 0.291748 0.035645
vt 0.351074 0.472168
vt 0.355225 0.461914
vt 0.295654 0.028320
vt 0.298096 0.020508
vt 0.299072 0.012207
vt 0.356689 0.012207
s 1
usemtl Leasing
f 1/1/1 2/2/1 3/3/1
f 2/2/1 4/4/1 3/3/1
f 5/5/2 6/6/2 7/7/2
f 6/6/2 8/8/2 7/7/2
f 9/9/3 8/10/3 10/11/3
f 8/10/3 6/12/3 10/11/3
f 11/13/3 3/14/3 12/15/3
f 3/14/3 4/16/3 12/15/3
f 13/17/1 14/18/1 15/19/1
f 14/18/1 16/20/1 15/19/1
f 17/21/2 18/22/2 19/23/2
f 18/22/2 20/24/2 19/23/2
f 21/25/4 22/26/4 20/27/4
f 22/26/4 19/28/4 20/27/4
f 23/29/4 24/30/4 14/31/4
f 24/30/4 16/32/4 14/31/4
f 11/33/5 12/34/5 25/35/6
f 26/36/6 11/33/5 25/35/6
f 25/35/6 27/37/7 26/36/6
f 27/37/7 28/38/7 26/36/6
f 28/38/7 27/37/7 29/39/8
f 27/37/7 30/40/8 29/39/8
f 29/39/8 30/40/8 31/41/9
f 30/40/8 32/42/9 31/41/9
f 31/41/9 32/42/9 33/43/10
f 32/42/9 34/44/10 33/43/10
f 33/43/10 34/44/10 35/45/11
f 34/44/10 36/46/11 35/45/11
f 35/45/11 36/46/11 37/47/12
f 36/46/11 38/48/12 37/47/12
f 37/47/12 38/48/12 39/49/13
f 38/48/12 40/50/13 39/49/13
f 39/49/13 40/50/13 41/51/14
f 40/50/13 42/52/14 41/51/14
f 41/51/14 42/52/14 43/53/15
f 42/52/14 44/54/16 43/53/15
f 43/53/15 44/54/16 45/55/17
f 44/54/16 46/56/18 45/55/17
f 45/55/17 46/56/18 47/57/19
f 46/56/18 48/58/20 47/57/19
f 47/57/19 48/58/20 49/59/21
f 48/58/20 50/60/21 49/59/21
f 49/59/21 50/60/21 51/61/22
f 50/60/21 52/62/22 51/61/22
f 51/61/22 52/62/22 53/63/23
f 54/64/23 51/61/22 53/63/23
f 55/65/24 54/64/23 53/63/23
f 56/66/24 55/65/24 53/63/23
f 55/65/24 56/66/24 10/67/25
f 56/66/24 9/68/25 10/67/25
f 2/69/1 1/70/1 57/71/26
f 1/70/1 58/72/26 57/71/26
f 59/73/27 57/71/26 58/72/26
f 60/74/27 59/73/27 58/72/26
f 61/75/28 59/73/27 60/74/27
f 62/76/28 61/75/28 60/74/27
f 61/75/28 62/76/28 63/77/29
f 62/76/28 64/78/29 63/77/29
f 63/77/29 64/78/29 65/79/30
f 64/78/29 66/80/31 65/79/30
f 65/79/30 66/80/31 67/81/32
f 68/82/33 65/79/30 67/81/32
f 68/82/33 67/81/32 69/83/34
f 67/81/32 70/84/35 69/83/34
f 69/83/34 70/84/35 71/85/36
f 72/86/36 69/83/34 71/85/36
f 72/86/36 71/85/36 73/87/37
f 74/88/38 72/86/36 73/87/37
f 74/88/38 73/87/37 75/89/39
f 76/90/40 74/88/38 75/89/39
f 75/89/39 77/91/41 76/90/40
f 77/91/41 78/92/42 76/90/40
f 77/91/41 79/93/43 78/92/42
f 79/93/43 80/94/43 78/92/42
f 80/94/43 79/93/43 5/95/2
f 7/96/2 80/94/43 5/95/2
f 22/97/44 21/98/45 81/99/46
f 82/100/46 22/97/44 81/99/46
f 81/99/46 83/101/47 82/100/46
f 83/101/47 84/102/48 82/100/46
f 84/102/48 83/101/47 85/103/49
f 83/101/47 86/104/49 85/103/49
f 85/103/49 86/104/49 87/105/50
f 88/106/50 85/103/49 87/105/50
f 88/106/50 87/105/50 89/107/51
f 90/108/51 88/106/50 89/107/51
f 90/108/51 89/107/51 91/109/52
f 92/110/52 90/108/51 91/109/52
f 92/110/52 91/109/52 93/111/53
f 94/112/53 92/110/52 93/111/53
f 94/112/53 93/111/53 95/113/54
f 96/114/55 94/112/53 95/113/54
f 96/114/55 95/113/54 97/115/56
f 98/116/56 96/114/55 97/115/56
f 98/116/56 97/115/56 99/117/57
f 100/118/57 98/116/56 99/117/57
f 100/118/57 99/117/57 101/119/58
f 102/120/58 100/118/57 101/119/58
f 102/120/58 101/119/58 103/121/59
f 104/122/59 102/120/58 103/121/59
f 104/122/59 103/121/59 105/123/60
f 106/124/60 104/122/59 105/123/60
f 106/124/60 105/123/60 107/125/61
f 108/126/61 106/124/60 107/125/61
f 108/126/61 107/125/61 109/127/62
f 110/128/63 108/126/61 109/127/62
f 111/129/64 110/128/63 109/127/62
f 112/130/64 111/129/64 109/127/62
f 111/129/64 112/130/64 23/131/65
f 112/130/64 24/132/65 23/131/65
f 18/133/2 17/134/2 113/135/66
f 17/134/2 114/136/66 113/135/66
f 115/137/67 113/135/66 114/136/66
f 116/138/67 115/137/67 114/136/66
f 117/139/68 115/137/67 116/138/67
f 118/140/68 117/139/68 116/138/67
f 117/139/68 118/140/68 119/141/69
f 118/140/68 120/142/69 119/141/69
f 119/141/69 120/142/69 121/143/70
f 120/142/69 122/144/70 121/143/70
f 121/143/70 122/144/70 123/145/71
f 122/144/70 70/146/71 123/145/71
f 123/145/71 70/146/71 67/147/72
f 124/148/72 123/145/71 67/147/72
f 124/148/72 67/147/72 125/149/73
f 67/147/72 126/150/73 125/149/73
f 127/151/74 125/149/73 126/150/73
f 128/152/74 127/151/74 126/150/73
f 129/153/75 127/151/74 128/152/74
f 130/154/75 129/153/75 128/152/74
f 130/154/75 131/155/76 129/153/75
f 131/155/76 132/156/76 129/153/75
f 131/155/76 133/157/77 132/156/76
f 133/157/77 134/158/77 132/156/76
f 134/158/77 133/157/77 13/159/1
f 15/160/1 134/158/77 13/159/1
f 9/161/78 56/162/79 8/163/78
f 56/162/79 53/164/78 8/163/78
f 8/163/78 53/164/78 68/165/80
f 7/166/79 8/163/78 68/165/80
f 53/164/78 52/167/78 68/165/80
f 80/168/78 7/166/79 68/165/80
f 52/167/78 50/169/79 68/165/80
f 78/170/79 80/168/78 68/165/80
f 50/169/79 48/171/78 68/165/80
f 76/172/78 78/170/79 68/165/80
f 48/171/78 46/173/78 68/165/80
f 74/174/79 76/172/78 68/165/80
f 46/173/78 44/175/79 68/165/80
f 72/176/79 74/174/79 68/165/80
f 69/177/78 72/176/79 68/165/80
f 44/175/79 42/178/79 68/165/80
f 42/178/79 40/179/79 68/165/80
f 40/179/79 38/180/78 68/165/80
f 38/180/78 36/181/78 68/165/80
f 36/181/78 34/182/79 68/165/80
f 34/182/79 32/183/78 68/165/80
f 32/183/78 30/184/79 68/165/80
f 30/184/79 27/185/79 68/165/80
f 27/185/79 25/186/78 68/165/80
f 68/165/80 25/186/78 12/187/78
f 65/188/79 68/165/80 12/187/78
f 63/189/78 65/188/79 12/187/78
f 61/190/78 63/189/78 12/187/78
f 59/191/78 61/190/78 12/187/78
f 57/192/78 59/191/78 12/187/78
f 2/193/79 57/192/78 12/187/78
f 4/194/79 2/193/79 12/187/78
f 10/195/81 6/196/81 55/197/81
f 55/197/81 6/196/81 54/198/81
f 54/198/81 6/196/81 51/199/81
f 51/199/81 6/196/81 60/200/82
f 49/201/81 51/199/81 60/200/82
f 6/196/81 5/202/81 60/200/82
f 47/203/81 49/201/81 60/200/82
f 5/202/81 79/204/81 60/200/82
f 45/205/81 47/203/81 60/200/82
f 79/204/81 77/206/81 60/200/82
f 43/207/81 45/205/81 60/200/82
f 77/206/81 75/208/81 60/200/82
f 41/209/81 43/207/81 60/200/82
f 75/208/81 73/210/81 60/200/82
f 39/211/81 41/209/81 60/200/82
f 73/210/81 71/212/81 60/200/82
f 37/213/81 39/211/81 60/200/82
f 71/212/81 70/214/81 60/200/82
f 35/215/81 37/213/81 60/200/82
f 70/214/81 67/216/81 60/200/82
f 33/217/81 35/215/81 60/200/82
f 67/216/81 66/218/81 60/200/82
f 31/219/81 33/217/81 60/200/82
f 66/218/81 64/220/81 60/200/82
f 64/220/81 62/221/81 60/200/82
f 29/222/81 31/219/81 60/200/82
f 28/223/81 29/222/81 60/200/82
f 26/224/81 28/223/81 60/200/82
f 11/225/81 26/224/81 60/200/82
f 3/226/81 11/225/81 60/200/82
f 1/227/81 3/226/81 60/200/82
f 58/228/81 1/227/81 60/200/82
f 21/229/83 20/230/83 81/231/83
f 81/231/83 20/230/83 83/232/83
f 83/232/83 20/230/83 86/233/83
f 86/233/83 20/230/83 15/234/83
f 87/235/83 86/233/83 15/234/83
f 20/230/83 18/236/83 15/234/83
f 89/237/83 87/235/83 15/234/83
f 18/236/83 113/238/83 15/234/83
f 91/239/83 89/237/83 15/234/83
f 113/238/83 115/240/83 15/234/83
f 93/241/83 91/239/83 15/234/83
f 115/240/83 117/242/83 15/234/83
f 95/243/83 93/241/83 15/234/83
f 117/242/83 119/244/83 15/234/83
f 97/245/83 95/243/83 15/234/83
f 119/244/83 121/246/83 15/234/83
f 99/247/83 97/245/83 15/234/83
f 121/246/83 123/248/84 15/234/83
f 101/249/83 99/247/83 15/234/83
f 123/248/84 124/250/83 15/234/83
f 103/251/83 101/249/83 15/234/83
f 124/250/83 125/252/83 15/234/83
f 105/253/83 103/251/83 15/234/83
f 125/252/83 127/254/83 15/234/83
f 107/255/83 105/253/83 15/234/83
f 127/254/83 129/256/83 15/234/83
f 109/257/83 107/255/83 15/234/83
f 129/256/83 132/258/85 15/234/83
f 132/258/85 134/259/83 15/234/83
f 112/260/83 109/257/83 15/234/83
f 24/261/83 112/260/83 15/234/83
f 16/262/83 24/261/83 15/234/83
f 22/263/86 82/264/86 19/265/86
f 82/264/86 84/266/86 19/265/86
f 84/266/86 85/267/86 19/265/86
f 19/265/86 85/267/86 13/268/87
f 17/269/86 19/265/86 13/268/87
f 85/267/86 88/270/86 13/268/87
f 114/271/86 17/269/86 13/268/87
f 88/270/86 90/272/86 13/268/87
f 116/273/86 114/271/86 13/268/87
f 90/272/86 92/274/86 13/268/87
f 118/275/86 116/273/86 13/268/87
f 92/274/86 94/276/86 13/268/87
f 120/277/86 118/275/86 13/268/87
f 94/276/86 96/278/86 13/268/87
f 122/279/86 120/277/86 13/268/87
f 96/278/86 98/280/86 13/268/87
f 70/281/86 122/279/86 13/268/87
f 98/280/86 100/282/86 13/268/87
f 67/283/86 70/281/86 13/268/87
f 100/282/86 102/284/86 13/268/87
f 126/285/86 67/283/86 13/268/87
f 102/284/86 104/286/86 13/268/87
f 128/287/86 126/285/86 13/268/87
f 104/286/86 106/288/86 13/268/87
f 130/289/86 128/287/86 13/268/87
f 106/288/86 108/290/86 13/268/87
f 131/291/86 130/289/86 13/268/87
f 133/292/86 131/291/86 13/268/87
f 108/290/86 110/293/86 13/268/87
f 110/293/86 111/294/86 13/268/87
f 111/294/86 23/295/86 13/268/87
f 23/295/86 14/296/86 13/268/87
